<svg width="172" height="231" viewBox="0 0 172 231" fill="none" xmlns="http://www.w3.org/2000/svg">
  <path
    d="M96.1319 41.9187L94.3073 41.1104C94.8856 39.7833 94.397 37.3485 93.5795 35.752C93.4 35.4027 93.2106 35.0535 93.0211 34.7043C92.2634 33.3173 91.4857 31.8903 91.2863 30.214C91.037 28.1285 91.715 25.9133 93.3501 23.4586C93.7988 22.79 94.2774 22.1414 94.7659 21.4928C95.5935 20.3852 96.3712 19.3474 96.9694 18.1899C98.7541 14.7374 98.6145 10.3469 96.6105 7.01411L98.3254 5.98633C100.678 9.89787 100.848 15.0567 98.7441 19.108C98.0761 20.4052 97.2087 21.5726 96.3612 22.6902C95.9026 23.3089 95.434 23.9275 95.0052 24.5662C93.6393 26.6117 93.071 28.3779 93.2604 29.9745C93.41 31.2617 94.068 32.4691 94.7659 33.7363C94.9654 34.1055 95.1648 34.4648 95.3542 34.834C96.3612 36.7997 97.0292 39.8631 96.1319 41.9087V41.9187Z"
    fill="#6346CE"/>
  <path
    d="M171.498 91.8108C171.498 102.837 162.575 111.768 151.557 111.768C143.043 111.768 135.784 106.439 132.923 98.9254C132.075 96.7102 131.616 94.3154 131.616 91.8108C131.616 80.7847 140.54 71.854 151.557 71.854C159.663 71.854 166.633 76.6935 169.743 83.6385C170.87 86.1331 171.498 88.8971 171.498 91.8108Z"
    fill="#6346CE"/>
  <path
    d="M62.8206 91.8108C62.8206 102.837 53.897 111.768 42.8797 111.768C34.365 111.768 27.1065 106.439 24.245 98.9254C23.3975 96.7102 22.9388 94.3154 22.9388 91.8108C22.9388 80.7847 31.8624 71.854 42.8797 71.854C50.9857 71.854 57.955 76.6935 61.0658 83.6385C62.1924 86.1331 62.8206 88.8971 62.8206 91.8108Z"
    fill="#6346CE"/>
  <path
    d="M159.682 119.349C154.597 138.31 130.91 143.21 96.9932 143.21C63.0769 143.21 40.8848 136.314 34.1553 119.349C27.4259 102.374 36.7075 70.3002 50.8642 56.2193C61.8706 45.2619 79.2874 40.4319 94.6504 40.4319C107.381 40.4319 131.039 44.9925 143.421 55.7203C159.293 69.452 164.786 100.388 159.692 119.349H159.682Z"
    fill="url(#paint0_linear_3048_3842)"/>
  <path
    d="M54.4752 184.65C51.2946 175.64 48.802 164.833 56.0904 158.636C63.8972 152.001 94.4167 154.785 97.9662 154.785C101.246 154.785 133.212 151.921 140.341 158.606C146.093 164.005 144.079 172.876 141.687 180.379L138.815 189.41C129.094 212.919 111.446 231 99.1527 231C87.577 231 67.5065 214.945 56.1602 189.41L54.4752 184.64V184.65Z"
    fill="url(#paint1_linear_3048_3842)"/>
  <path
    d="M96.3212 83.1096L95.3242 83.0896C95.3242 82.8202 95.8426 55.9882 94.9752 40.6913L95.9723 40.6314C96.8397 55.9683 96.3312 82.8402 96.3212 83.1096Z"
    fill="#6346CE"/>
  <path
    d="M97.3082 99.8834C76.7591 99.8834 56.8482 96.1614 32.9092 88.6776L33.2083 87.7197C79.9596 102.328 111.317 102.548 162.246 88.5978L162.505 89.5557C137.429 96.4209 117.07 99.8734 97.2982 99.8734L97.3082 99.8834Z"
    fill="#6346CE"/>
  <path
    d="M96.6403 113.983C102.652 114.123 108.535 115.789 114.537 116.178C123.182 116.737 131.985 114.532 139.364 109.962C141.687 108.525 143.91 106.818 145.455 104.563C148.806 99.6838 148.447 93.1479 147.061 87.3804C145.685 81.6428 143.033 75.6657 137.818 72.9915C133.89 70.9858 129.244 71.2253 124.867 71.6644C115.963 72.5724 107.049 74.1191 98.1358 74.4484C97.3282 74.4783 94.3471 74.4883 93.6591 74.4583C84.6259 74.159 75.5927 72.5824 66.5595 71.6644C62.1824 71.2153 57.5362 70.9759 53.6079 72.9915C48.3933 75.6657 45.7412 81.6428 44.3653 87.3804C42.9794 93.1479 42.6304 99.6838 45.9705 104.563C47.5159 106.818 49.7393 108.525 52.0625 109.962C59.4505 114.532 68.2445 116.737 76.8888 116.178C82.891 115.789 88.7736 114.123 94.7858 113.983H96.6203H96.6403Z"
    fill="#432977"/>
  <path
    d="M129.892 72.3629C132.973 72.3629 135.346 72.8418 137.37 73.8796C141.487 75.985 144.419 80.605 146.094 87.6099C147.769 94.6148 147.28 100.133 144.638 103.985C143.392 105.791 141.557 107.417 138.845 109.093C132.334 113.125 124.837 115.25 117.159 115.25C116.302 115.25 115.445 115.22 114.597 115.17C111.905 115.001 109.173 114.552 106.531 114.123C103.321 113.594 100 113.055 96.6403 112.975H94.7759C91.4358 113.055 88.1156 113.594 84.9051 114.123C82.263 114.552 79.5211 115.001 76.8391 115.17C75.9916 115.22 75.1241 115.25 74.2767 115.25C66.5994 115.25 59.1017 113.125 52.591 109.093C49.879 107.417 48.0445 105.791 46.7981 103.985C44.156 100.123 43.6575 94.6148 45.3425 87.6099C47.0175 80.605 49.9588 75.985 54.0666 73.8796C56.0906 72.8418 58.4735 72.3629 61.5444 72.3629C63.2593 72.3629 64.9942 72.5125 66.4598 72.6622C69.5208 72.9715 72.6515 73.3707 75.6625 73.7499C81.5351 74.4982 87.6171 75.2666 93.6193 75.4662C93.9084 75.4662 94.5964 75.4761 95.3641 75.4761C96.3911 75.4761 97.6573 75.4761 98.1658 75.4462C104.048 75.2267 110.001 74.4783 115.754 73.7499C118.775 73.3707 121.895 72.9715 124.966 72.6622C126.432 72.5125 128.167 72.3629 129.882 72.3629M129.892 71.355C128.217 71.355 126.532 71.4947 124.877 71.6644C115.973 72.5724 107.059 74.1191 98.1459 74.4484C97.6773 74.4683 96.4509 74.4783 95.3841 74.4783C94.6363 74.4783 93.9583 74.4783 93.6791 74.4683C84.6459 74.169 75.6127 72.5924 66.5795 71.6744C64.9244 71.5047 63.2394 71.365 61.5644 71.365C58.8025 71.365 56.0706 71.7442 53.6279 72.9915C48.4134 75.6657 45.7612 81.6428 44.3853 87.3804C42.9994 93.1479 42.6504 99.6838 45.9905 104.563C47.536 106.818 49.7594 108.525 52.0825 109.962C58.7228 114.073 66.4997 116.268 74.2866 116.268C75.164 116.268 76.0414 116.238 76.9088 116.188C82.911 115.799 88.7936 114.133 94.8058 113.993H96.6403C102.653 114.133 108.535 115.799 114.537 116.188C115.415 116.248 116.292 116.268 117.159 116.268C124.946 116.268 132.723 114.073 139.364 109.962C141.687 108.525 143.91 106.818 145.456 104.563C148.806 99.6838 148.447 93.1479 147.061 87.3804C145.685 81.6428 143.033 75.6657 137.818 72.9915C135.375 71.7442 132.654 71.365 129.882 71.365L129.892 71.355Z"
    fill="#6346CE"/>
  <path
    d="M130.111 94.8043C130.111 101.131 124.986 106.26 118.655 106.26C113.769 106.26 109.592 103.206 107.947 98.8955C107.458 97.6282 107.199 96.2512 107.199 94.8043C107.199 88.478 112.324 83.3491 118.655 83.3491C123.311 83.3491 127.319 86.1231 129.104 90.1145C129.752 91.5514 130.111 93.128 130.111 94.8043Z"
    fill="#514AAB"/>
  <path
    d="M118.655 83.3491C123.311 83.3491 127.319 86.1231 129.104 90.1145C129.752 91.5514 130.111 93.128 130.111 94.8043C130.111 101.131 124.986 106.26 118.655 106.26C113.769 106.26 109.592 103.206 107.947 98.8955C107.458 97.6282 107.199 96.2512 107.199 94.8043C107.199 88.478 112.324 83.3491 118.655 83.3491ZM118.655 81.3335C111.237 81.3335 105.195 87.3804 105.195 94.8043C105.195 96.4608 105.494 98.0773 106.082 99.614C108.056 104.793 113.111 108.275 118.655 108.275C126.073 108.275 132.115 102.228 132.115 94.8043C132.115 92.8785 131.716 91.0225 130.929 89.2863C128.765 84.4567 123.949 81.3335 118.655 81.3335Z"
    fill="#E6E6FF"/>
  <path
    d="M84.247 94.8043C84.247 101.131 79.1222 106.26 72.791 106.26C67.9055 106.26 63.7279 103.196 62.0827 98.8955C61.5942 97.6282 61.335 96.2512 61.335 94.8043C61.335 88.478 66.4598 83.3491 72.791 83.3491C77.4472 83.3491 81.4553 86.1231 83.24 90.1145C83.8881 91.5514 84.247 93.128 84.247 94.8043Z"
    fill="#514AAB"/>
  <path
    d="M72.791 83.3491C77.4472 83.3491 81.4553 86.1231 83.24 90.1145C83.8881 91.5514 84.247 93.128 84.247 94.8043C84.247 101.131 79.1222 106.26 72.791 106.26C67.9055 106.26 63.7279 103.196 62.0828 98.8955C61.5942 97.6282 61.335 96.2512 61.335 94.8043C61.335 88.478 66.4598 83.3491 72.791 83.3491ZM72.791 81.3335C65.373 81.3335 59.3309 87.3804 59.3309 94.8043C59.3309 96.4508 59.63 98.0673 60.2183 99.614C62.1924 104.793 67.2475 108.275 72.801 108.275C80.219 108.275 86.2611 102.228 86.2611 94.8043C86.2611 92.8785 85.8622 91.0225 85.0746 89.2863C82.911 84.4567 78.0953 81.3335 72.801 81.3335H72.791Z"
    fill="#E6E6FF"/>
  <path
    d="M98.7938 185.389C98.5346 185.389 98.3153 185.189 98.2953 184.92C97.4478 172.626 98.1757 161.64 98.5246 156.361C98.5446 156.082 98.7839 155.862 99.0531 155.892C99.3322 155.912 99.5316 156.152 99.5217 156.421C99.1727 161.68 98.4449 172.616 99.2924 184.84C99.3123 185.119 99.1029 185.349 98.8337 185.369C98.8238 185.369 98.8138 185.369 98.7938 185.369V185.389Z"
    fill="#6346CE"/>
  <path
    d="M91.9143 68.9403L89.9202 71.0956C90.1595 71.2453 90.4386 71.3451 90.7377 71.3451C91.5653 71.3451 92.2333 70.6765 92.2333 69.8483C92.2333 69.6288 92.1835 69.4192 92.1037 69.2396C92.0538 69.1298 91.984 69.0301 91.9143 68.9403Z"
    fill="#6346CE"/>
  <path
    d="M89.5513 70.7663L91.5454 68.601C91.316 68.4513 91.0369 68.3615 90.7378 68.3615C89.9102 68.3615 89.2422 69.0301 89.2422 69.8583C89.2422 70.0479 89.2821 70.2275 89.3419 70.3871C89.3917 70.5268 89.4715 70.6466 89.5513 70.7663Z"
    fill="#6346CE"/>
  <path
    d="M101.207 69.9181C101.207 70.0878 101.237 70.2474 101.296 70.3971C101.516 70.9559 102.064 71.355 102.712 71.355C103.44 71.355 104.048 70.8461 104.188 70.1676L101.207 69.9181Z"
    fill="#6346CE"/>
  <path
    d="M104.198 69.6587C104.178 69.509 104.148 69.3693 104.088 69.2396C103.849 68.7207 103.321 68.3515 102.712 68.3515C102.034 68.3515 101.466 68.8006 101.277 69.4092L104.208 69.6587H104.198Z"
    fill="#6346CE"/>
  <path
    d="M106.551 123.772C105.633 129.31 100.489 133.032 95.0548 132.084C90.8572 131.355 87.7265 128.043 86.9388 124.031C86.7095 122.844 86.6796 121.596 86.889 120.339C87.1183 118.952 91.9639 120.648 96.7198 120.559C101.476 120.469 106.132 118.583 106.371 119.521C106.72 120.868 106.8 122.315 106.551 123.772Z"
    fill="#432977"/>
  <path
    d="M73.788 95.5527C76.5412 95.5527 78.7732 93.8774 78.7732 91.8108C78.7732 89.7442 76.5412 88.0689 73.788 88.0689C71.0347 88.0689 68.8027 89.7442 68.8027 91.8108C68.8027 93.8774 71.0347 95.5527 73.788 95.5527Z"
    fill="#E6E6FF"/>
  <path
    d="M118.655 95.5527C121.408 95.5527 123.64 93.8774 123.64 91.8108C123.64 89.7442 121.408 88.0689 118.655 88.0689C115.902 88.0689 113.67 89.7442 113.67 91.8108C113.67 93.8774 115.902 95.5527 118.655 95.5527Z"
    fill="#E6E6FF"/>
  <path
    d="M97.328 0.0591739C98.6242 0.218829 99.9204 0.538139 101.047 1.19671C102.174 1.85529 103.649 3.21236 103.699 4.64925C103.779 7.22369 99.8805 7.46317 98.1157 7.78248C96.7797 8.02196 95.1844 8.20157 93.978 7.44321C92.8513 6.73474 91.964 5.56727 91.7745 4.22018C91.3159 0.947254 94.6659 -0.270114 97.3181 0.0491954L97.328 0.0591739Z"
    fill="#FFA233"/>
  <path
    d="M120.679 217.12C120.679 217.12 120.649 217.12 120.629 217.12C120.36 217.1 120.151 216.851 120.18 216.581C121.277 204.348 121.905 185.409 119.163 183.363C118.964 183.213 118.775 183.193 118.515 183.293C103.749 186.516 82.4623 184.441 76.4601 183.074C75.9815 182.964 75.7323 183.113 75.5827 183.233C74.0473 184.5 74.2367 190.827 74.486 198.839C74.6256 203.459 74.7951 208.708 74.6854 214.296C74.6854 214.575 74.4461 214.815 74.1769 214.785C73.8977 214.785 73.6784 214.556 73.6883 214.276C73.798 208.708 73.6385 203.489 73.4889 198.869C73.2098 189.939 73.0303 184.041 74.9446 182.465C75.4232 182.066 76.0115 181.946 76.6795 182.096C82.6119 183.453 103.689 185.508 118.226 182.345C118.725 182.136 119.283 182.205 119.762 182.565C123.83 185.608 121.457 213.508 121.178 216.671C121.158 216.93 120.938 217.13 120.679 217.13V217.12Z"
    fill="#6346CE"/>
  <path
    d="M118.157 190.388C118.137 190.098 118.077 189.829 117.957 189.579C117.568 188.711 116.681 188.103 115.664 188.103C114.487 188.103 113.51 188.901 113.231 189.979L118.157 190.388Z"
    fill="#6346CE"/>
  <path
    d="M113.171 190.897C113.201 191.096 113.241 191.296 113.311 191.485C113.67 192.423 114.587 193.092 115.664 193.092C116.801 193.092 117.758 192.334 118.067 191.306L113.171 190.897Z"
    fill="#6346CE"/>
  <path
    d="M78.494 191.615L82.552 188.891C82.1033 188.412 81.4752 188.113 80.7673 188.113C79.3913 188.113 78.2747 189.23 78.2747 190.607C78.2747 190.917 78.3345 191.216 78.4342 191.495C78.4541 191.535 78.4741 191.575 78.494 191.615Z"
    fill="#6346CE"/>
  <path
    d="M79.0225 192.373C79.4711 192.822 80.0893 193.092 80.7673 193.092C82.1432 193.092 83.2599 191.974 83.2599 190.597C83.2599 190.258 83.1901 189.949 83.0705 189.649L79.0225 192.363V192.373Z"
    fill="#6346CE"/>
  <path
    d="M7.29532 124.241C17.2757 124.001 23.6668 133.88 27.8344 149.177C35.1328 172.626 46.5489 171.069 39.8488 175.979C33.1586 180.888 10.6554 169.643 3.43676 149.766C-2.25636 134.598 -0.810643 125.159 7.28535 124.241H7.29532Z"
    fill="url(#paint2_linear_3048_3842)"/>
  <path
    d="M13.0184 129.25C16.2987 129.549 18.881 132.752 21.1244 137.871C24.1354 145.195 23.7366 147.461 22.5501 148.887C21.3736 150.304 14.185 152.659 10.2666 142.721C6.34819 132.772 9.58858 128.951 13.0184 129.26V129.25Z"
    fill="#6346CE"/>
  <path
    d="M157.161 168.236C155.326 192.104 149.603 195.816 147.509 206.872C145.416 217.928 151.079 227.657 159.683 225.123C172.276 221.82 174.37 196.385 169.753 179.671C165.137 162.957 158.307 159.654 157.161 168.236Z"
    fill="url(#paint3_linear_3048_3842)"/>
  <path
    d="M154.429 224.155C154.339 224.155 154.249 224.125 154.16 224.075C153.93 223.925 153.861 223.616 154.01 223.386C155.964 220.303 157.918 214.206 158.158 211.382C158.178 211.113 158.427 210.903 158.696 210.923C158.975 210.943 159.175 211.183 159.155 211.462C158.916 214.416 156.941 220.632 154.858 223.925C154.768 224.075 154.598 224.155 154.439 224.155H154.429Z"
    fill="#6346CE"/>
  <path
    d="M161.019 224.215C160.93 224.215 160.83 224.185 160.75 224.135C160.521 223.985 160.451 223.676 160.601 223.446C162.186 221.012 163.283 217.23 163.532 213.338C163.552 213.059 163.761 212.839 164.06 212.869C164.339 212.889 164.549 213.119 164.529 213.398C164.27 217.459 163.113 221.421 161.438 223.995C161.338 224.145 161.179 224.225 161.019 224.225V224.215Z"
    fill="#6346CE"/>
  <path
    d="M63.3189 75.1468C56.6986 76.2045 52.6406 78.6692 50.5668 85.1552C49.8289 87.0311 49.0512 88.8472 48.4131 90.803C48.2237 88.7374 48.6126 86.6719 49.0812 84.6962C49.5498 82.7304 50.1779 80.6349 51.5638 78.8488C54.3057 75.3663 59.1712 74.2088 63.3189 75.1368V75.1468Z"
    fill="#ACACFC"/>
  <defs>
    <linearGradient id="paint0_linear_3048_3842" x1="96.7325" y1="143.223" x2="96.7325" y2="40.4333"
                    gradientUnits="userSpaceOnUse">
      <stop stop-color="#6346CE"/>
      <stop offset="0.11" stop-color="#6954DD"/>
      <stop offset="0.26" stop-color="#6E5FE9"/>
      <stop offset="0.47" stop-color="#8176F9"/>
      <stop offset="1" stop-color="#887FF8"/>
    </linearGradient>
    <linearGradient id="paint1_linear_3048_3842" x1="97.7169" y1="231.01" x2="97.7169" y2="154.176"
                    gradientUnits="userSpaceOnUse">
      <stop stop-color="#6346CE"/>
      <stop offset="0.11" stop-color="#6954DD"/>
      <stop offset="0.26" stop-color="#6E5FE9"/>
      <stop offset="0.47" stop-color="#8176F9"/>
      <stop offset="1" stop-color="#887FF8"/>
    </linearGradient>
    <linearGradient id="paint2_linear_3048_3842" x1="20.942" y1="177.133" x2="20.942" y2="124.237"
                    gradientUnits="userSpaceOnUse">
      <stop stop-color="#6346CE"/>
      <stop offset="0.11" stop-color="#6954DD"/>
      <stop offset="0.26" stop-color="#6E5FE9"/>
      <stop offset="0.47" stop-color="#8176F9"/>
      <stop offset="1" stop-color="#887FF8"/>
    </linearGradient>
    <linearGradient id="paint3_linear_3048_3842" x1="159.538" y1="225.537" x2="159.538" y2="163.659"
                    gradientUnits="userSpaceOnUse">
      <stop stop-color="#6346CE"/>
      <stop offset="0.11" stop-color="#6954DD"/>
      <stop offset="0.26" stop-color="#6E5FE9"/>
      <stop offset="0.47" stop-color="#8176F9"/>
      <stop offset="1" stop-color="#887FF8"/>
    </linearGradient>
  </defs>
</svg>
