<svg width="186" height="271" viewBox="0 0 186 271" fill="none" xmlns="http://www.w3.org/2000/svg">
  <g clip-path="url(#clip0_2556_87264)">
    <path d="M91.85 50.1399C90.89 40.2099 88.89 9.13994 113.04 6.93994" stroke="#6346CE" stroke-width="2" stroke-miterlimit="10"/>
    <path d="M173.95 90.94C175.36 102.14 167.38 112.36 156.13 113.78C147.43 114.88 139.32 110.4 135.44 103.14C134.3 101 133.51 98.63 133.19 96.08C131.78 84.88 139.76 74.66 151.02 73.24C159.31 72.2 167.05 76.21 171.12 82.87C172.59 85.26 173.58 87.99 173.96 90.94H173.95Z" fill="#6346CE"/>
    <path d="M65.4701 104.61C66.8801 115.81 58.9001 126.03 47.6501 127.45C38.9501 128.55 30.8401 124.07 26.9601 116.81C25.8201 114.67 25.0301 112.3 24.7101 109.75C23.3001 98.5499 31.2801 88.3299 42.5401 86.9099C50.8301 85.8699 58.5701 89.8799 62.6401 96.5399C64.1101 98.9299 65.1001 101.66 65.4801 104.61H65.4701Z" fill="#6346CE"/>
    <path d="M164.79 119.9C162.12 139.39 139.21 147.23 105.54 151.47C71.87 155.71 48.96 151.64 40.16 135.6C31.35 119.57 36.55 86.5201 48.84 70.7401C58.4 58.4701 75.08 51.4901 90.34 49.5601C102.98 47.9701 127.04 49.5501 140.67 58.6601C158.15 70.3201 167.47 100.4 164.8 119.89L164.79 119.9Z" fill="url(#paint0_linear_2556_87264)"/>
    <path d="M54.6501 193.57C51.4601 184.5 49.0101 169.11 56.3301 162.88C64.1701 156.2 85.8701 166.08 89.4001 166.59C97.5101 167.77 133.76 160.61 140.92 167.34C153.37 178.57 137.62 202.03 137.62 202.03C134.77 207.99 130.33 211.64 127.68 218.7C125.03 225.76 119.92 242.35 106.08 242.35C86.3601 242.2 67.7301 224.08 56.3301 198.37L54.6401 193.57H54.6501Z" fill="url(#paint1_linear_2556_87264)"/>
    <path d="M91.7001 49.3101C94.5201 64.6101 97.3701 91.4601 97.3701 91.4601" stroke="#6346CE" stroke-miterlimit="10"/>
    <path d="M34.76 104.15C83.71 112.92 115.38 108.75 163.56 88.8101" stroke="#6346CE" stroke-miterlimit="10"/>
    <path d="M101.46 122.28C107.47 121.66 113.55 122.57 119.58 122.2C128.27 121.66 136.77 118.38 143.56 112.94C145.69 111.23 147.7 109.27 148.96 106.84C151.69 101.6 150.52 95.18 148.42 89.66C146.34 84.16 142.95 78.59 137.41 76.61C133.25 75.12 128.65 75.94 124.34 76.93C115.57 78.94 106.88 81.6 98.04 83.04C97.24 83.17 94.27 83.55 93.58 83.61C84.53 84.45 75.33 84.02 66.22 84.25C61.8 84.36 57.14 84.71 53.48 87.18C48.61 90.47 46.71 96.72 46.05 102.56C45.39 108.43 45.85 114.94 49.79 119.33C51.62 121.37 54.04 122.77 56.53 123.9C64.46 127.49 73.51 128.56 82.06 126.93C88 125.8 93.65 123.41 99.63 122.52L101.46 122.29V122.28Z" fill="#432977"/>
    <path d="M90.1601 167.42C87.9801 172.63 84.7201 180.52 87.3701 192.84" stroke="#6346CE" stroke-linecap="round" stroke-linejoin="round"/>
    <path d="M91.7901 78.9501C91.89 79.7701 91.31 80.5101 90.49 80.6201C89.86 80.7001 89.2601 80.3701 88.9801 79.8401C88.9001 79.6801 88.84 79.5101 88.82 79.3201C88.72 78.5001 89.3001 77.7601 90.1201 77.6501C90.7201 77.5701 91.2901 77.8701 91.5901 78.3501C91.7001 78.5201 91.7701 78.7201 91.8001 78.9401L91.7901 78.9501Z" fill="#6346CE"/>
    <path d="M103.94 77.09C104.04 77.91 103.46 78.65 102.64 78.76C102.01 78.84 101.41 78.51 101.13 77.98C101.05 77.82 100.99 77.65 100.97 77.46C100.87 76.64 101.45 75.9 102.27 75.79C102.87 75.71 103.44 76.01 103.74 76.49C103.85 76.66 103.92 76.86 103.95 77.08L103.94 77.09Z" fill="#6346CE"/>
    <path d="M91.5501 77.3899L89.1201 80.7599" stroke="#7268F2" stroke-width="0.5" stroke-miterlimit="10"/>
    <path d="M100.18 77.2999L104.33 77.1299" stroke="#7268F2" stroke-width="0.5" stroke-miterlimit="10"/>
    <path d="M111.04 128.3C112.21 136.6 107.54 140.36 103.33 140.81C100.72 141.09 94.14 138.92 93.15 131.06C92.92 130.37 92.8101 129.63 92.8401 128.86C92.8801 128.02 98.3 127.01 101.21 126.59C104.12 126.17 110.39 125.23 110.6 125.77C110.91 126.55 110.91 127.41 111.03 128.3H111.04Z" fill="#432977"/>
    <path d="M119.37 4.76991C119.51 6.07991 119.48 7.41991 119.09 8.67991C118.7 9.93991 117.71 11.6799 116.31 12.0499C113.81 12.7099 112.7 8.92991 111.99 7.27991C111.45 6.01991 110.92 4.49991 111.39 3.14991C111.83 1.88991 112.77 0.759908 114.04 0.269908C117.14 -0.910092 119.07 2.09991 119.36 4.77991L119.37 4.76991Z" fill="#FFA233"/>
    <path d="M67.3901 213.18C64.4501 194.36 64.6301 187.32 69.1501 188.36C75.7101 189.85 95.2401 196.61 109.5 193.5C113.86 191.77 108.75 212.24 113.89 225.77" stroke="#6346CE" stroke-linecap="round" stroke-linejoin="round"/>
    <path d="M105.88 199.77C105.88 201.02 105 202.04 103.91 202.04C103.07 202.04 102.35 201.44 102.07 200.58C101.99 200.33 101.94 200.06 101.94 199.77C101.94 198.52 102.82 197.5 103.91 197.5C104.71 197.5 105.4 198.05 105.71 198.84C105.82 199.12 105.88 199.44 105.88 199.77Z" fill="#FFA233"/>
    <path d="M101.7 199.6L106.09 200.02" stroke="#7268F2" stroke-width="0.78" stroke-miterlimit="10"/>
    <path d="M71.79 194.09C71.79 195.34 71.08 196.36 70.21 196.36C69.53 196.36 68.96 195.75 68.73 194.9C68.66 194.65 68.63 194.38 68.63 194.09C68.63 192.84 69.34 191.82 70.21 191.82C70.85 191.82 71.41 192.37 71.65 193.16C71.74 193.44 71.79 193.76 71.79 194.09Z" fill="#FFA233"/>
    <path d="M68.74 195.55L71.68 192.72" stroke="#7268F2" stroke-width="0.7" stroke-miterlimit="10"/>
    <path d="M12.7801 150.86C21.4101 159.68 25.1001 161.56 29.8101 165.95C34.8001 170.6 35.5901 180.12 38.7901 178.46C41.8201 176.89 42.2801 172.84 42.2701 168.02C42.2701 163.2 38.9001 151.1 34.5201 142.62C32.5501 138.82 30.4701 135.43 28.3401 132.49C26.5501 130.01 24.7201 127.85 22.8901 126.01C17.4401 120.51 12.0501 117.89 7.80006 118.46C-3.88994 119.89 -0.88994 136.48 12.7801 150.86Z" fill="url(#paint2_linear_2556_87264)"/>
    <path d="M6.58005 123.69C6.79005 124.36 7.15005 124.97 7.54005 125.54C10.33 129.62 14.94 132 19.35 134.23C20.16 134.64 20.97 135.05 21.85 135.27C22.16 135.35 22.51 135.4 22.79 135.26C23.17 135.07 23.32 134.62 23.4 134.2C24.1 130.64 22.16 126.97 19.4 124.62C16.97 122.56 13.94 121.23 10.97 120.16C8.44005 119.26 5.60005 120.57 6.58005 123.68V123.69Z" fill="#6346CE"/>
    <path d="M165.56 170.75C154.22 177.25 149.91 178.1 143.84 181.21C137.41 184.51 133.85 193.98 131.08 191.37C128.45 188.89 129.15 184.63 130.54 179.72C131.94 174.81 138.87 163.44 145.78 156.07C148.88 152.76 151.98 149.91 155.01 147.52C157.55 145.51 160.04 143.83 162.43 142.48C169.57 138.44 175.83 137.33 180 139.15C191.51 143.99 183.66 160.03 165.56 170.74V170.75Z" fill="url(#paint3_linear_2556_87264)"/>
    <path d="M128.48 94.9299C128.48 94.9299 115.29 98.8099 110.98 103.77C118.89 103.52 123.85 102.47 132.07 102.75" stroke="#E6E6FF" stroke-width="2.21" stroke-linecap="round" stroke-linejoin="round"/>
    <path d="M67.1801 104.24C67.1801 104.24 80.9201 103.74 86.5801 107.09C79.0001 109.35 73.9601 109.93 66.2501 112.8" stroke="#E6E6FF" stroke-width="2.21" stroke-linecap="round" stroke-linejoin="round"/>
    <path d="M118.69 270.12C126.864 270.12 133.49 268.437 133.49 266.36C133.49 264.283 126.864 262.6 118.69 262.6C110.516 262.6 103.89 264.283 103.89 266.36C103.89 268.437 110.516 270.12 118.69 270.12Z" fill="#C7C7FF"/>
  </g>
  <defs>
    <linearGradient id="paint0_linear_2556_87264" x1="105.257" y1="151.513" x2="92.383" y2="49.3206" gradientUnits="userSpaceOnUse">
      <stop stop-color="#6346CE"/>
      <stop offset="0.05" stop-color="#6954DD"/>
      <stop offset="0.11" stop-color="#6E5FE9"/>
      <stop offset="0.19" stop-color="#7166F0"/>
      <stop offset="0.42" stop-color="#7268F2"/>
    </linearGradient>
    <linearGradient id="paint1_linear_2556_87264" x1="98.6301" y1="242.36" x2="98.6301" y2="160.57" gradientUnits="userSpaceOnUse">
      <stop offset="0.09" stop-color="#6346CE"/>
      <stop offset="0.19" stop-color="#6750D8"/>
      <stop offset="0.38" stop-color="#6D5DE7"/>
      <stop offset="0.61" stop-color="#7065EF"/>
      <stop offset="1" stop-color="#7268F2"/>
    </linearGradient>
    <linearGradient id="paint2_linear_2556_87264" x1="27.9473" y1="180.665" x2="15.3953" y2="116.934" gradientUnits="userSpaceOnUse">
      <stop stop-color="#6346CE"/>
      <stop offset="0.11" stop-color="#6852DB"/>
      <stop offset="0.29" stop-color="#6D5EE8"/>
      <stop offset="0.53" stop-color="#7165EF"/>
      <stop offset="1" stop-color="#7268F2"/>
    </linearGradient>
    <linearGradient id="paint3_linear_2556_87264" x1="141.494" y1="196.769" x2="172.703" y2="135.418" gradientUnits="userSpaceOnUse">
      <stop stop-color="#6346CE"/>
      <stop offset="0.11" stop-color="#6852DB"/>
      <stop offset="0.29" stop-color="#6D5EE8"/>
      <stop offset="0.53" stop-color="#7165EF"/>
      <stop offset="1" stop-color="#7268F2"/>
    </linearGradient>
    <clipPath id="clip0_2556_87264">
      <rect width="184.86" height="270.12" fill="white" transform="translate(0.540039)"/>
    </clipPath>
  </defs>
</svg>
