<svg width="173" height="264" viewBox="0 0 173 264" fill="none" xmlns="http://www.w3.org/2000/svg">
  <g clip-path="url(#clip0_2556_87294)">
    <path d="M98.11 6.1499C100.29 9.7799 100.45 14.5399 98.5 18.2999C97.5 20.2299 96.03 21.8599 94.82 23.6599C93.61 25.4599 92.65 27.5799 92.91 29.7399C93.13 31.6199 94.24 33.2499 95.1 34.9399C95.96 36.6199 96.61 39.4199 95.85 41.1499" stroke="#6346CE" stroke-width="2" stroke-miterlimit="10"/>
    <path d="M172.26 91.8699C172.26 103.16 163.06 112.3 151.72 112.3C142.95 112.3 135.47 106.85 132.52 99.1599C131.65 96.8899 131.17 94.4399 131.17 91.8699C131.17 80.5799 140.37 71.4399 151.72 71.4399C160.07 71.4399 167.25 76.3899 170.46 83.5099C171.62 86.0699 172.26 88.8899 172.26 91.8699Z" fill="#6346CE"/>
    <path d="M62.92 91.8699C62.92 103.16 53.72 112.3 42.38 112.3C33.61 112.3 26.13 106.85 23.18 99.1599C22.31 96.8899 21.83 94.4399 21.83 91.8699C21.83 80.5799 31.03 71.4399 42.38 71.4399C50.73 71.4399 57.91 76.3899 61.12 83.5099C62.28 86.0699 62.92 88.8899 62.92 91.8699Z" fill="#6346CE"/>
    <path d="M159.55 119.46C154.46 138.46 130.75 143.37 96.81 143.38C62.87 143.38 40.66 136.47 33.93 119.46C27.2 102.45 36.48 70.3101 50.65 56.1901C61.67 45.2101 79.09 40.3701 94.47 40.3701C107.21 40.3701 130.88 44.9401 143.27 55.6901C159.15 69.4501 164.65 100.45 159.56 119.46H159.55Z" fill="url(#paint0_linear_2556_87294)"/>
    <path d="M54.49 185.02C51.3 175.95 48.79 165.06 56.11 158.82C63.95 152.14 94.62 154.94 98.19 154.94C101.49 154.94 133.6 152.06 140.77 158.79C146.55 164.23 144.52 173.16 142.12 180.72L139.23 189.82C129.46 213.49 111.73 231.71 99.38 231.71C87.75 231.71 67.59 215.54 56.19 189.82L54.5 185.02H54.49Z" fill="url(#paint1_linear_2556_87294)"/>
    <path d="M95.86 40.28C96.74 55.81 96.21 82.81 96.21 82.81" stroke="#6346CE" stroke-miterlimit="10"/>
    <path d="M32.51 87.5801C79.98 102.4 111.92 102.23 162.22 88.4601" stroke="#6346CE" stroke-miterlimit="10"/>
    <path d="M96.42 113.9C102.46 114.04 108.37 115.7 114.4 116.08C123.09 116.63 131.93 114.44 139.35 109.89C141.68 108.46 143.91 106.76 145.47 104.52C148.83 99.6601 148.47 93.1501 147.08 87.4101C145.7 81.7001 143.03 75.7401 137.79 73.0801C133.85 71.0801 129.18 71.3201 124.78 71.7601C115.83 72.6601 106.88 74.2101 97.92 74.5301C97.11 74.5601 94.11 74.5701 93.42 74.5401C84.34 74.2401 75.26 72.6701 66.19 71.7601C61.79 71.3201 57.12 71.0801 53.18 73.0801C47.94 75.7401 45.27 81.6901 43.89 87.4101C42.5 93.1501 42.14 99.6601 45.5 104.52C47.06 106.77 49.29 108.46 51.62 109.89C59.04 114.44 67.88 116.64 76.57 116.08C82.6 115.7 88.51 114.03 94.55 113.9H96.4H96.42Z" fill="#432977"/>
    <path d="M118.41 106.74C113.29 106.74 108.62 103.54 106.8 98.79C106.26 97.38 105.98 95.89 105.98 94.38C105.98 87.56 111.56 82.01 118.41 82.01C123.3 82.01 127.75 84.88 129.74 89.31C130.46 90.9 130.83 92.61 130.83 94.37C130.83 101.19 125.26 106.74 118.4 106.74H118.41Z" fill="#6346CE"/>
    <path d="M118.41 83C123.06 83 127.05 85.76 128.83 89.71C129.48 91.13 129.83 92.7 129.83 94.36C129.83 100.64 124.71 105.73 118.4 105.73C113.52 105.73 109.36 102.7 107.72 98.42C107.24 97.16 106.97 95.8 106.97 94.37C106.97 88.09 112.08 83 118.4 83M118.41 81C111.01 81 104.98 87 104.98 94.37C104.98 96.01 105.28 97.61 105.86 99.14C107.83 104.28 112.87 107.74 118.41 107.74C125.81 107.74 131.84 101.74 131.84 94.37C131.84 92.46 131.44 90.62 130.66 88.89C128.51 84.1 123.7 81 118.42 81H118.41Z" fill="#E6E6FF"/>
    <path d="M72.61 106.74C67.49 106.74 62.82 103.54 61 98.79C60.46 97.38 60.18 95.89 60.18 94.38C60.18 87.56 65.76 82.01 72.61 82.01C77.5 82.01 81.95 84.88 83.94 89.31C84.66 90.9 85.03 92.61 85.03 94.37C85.03 101.19 79.46 106.74 72.61 106.74Z" fill="#6346CE"/>
    <path d="M72.61 83C77.26 83 81.25 85.76 83.03 89.71C83.68 91.13 84.03 92.7 84.03 94.36C84.03 100.63 78.92 105.73 72.6 105.73C67.72 105.73 63.56 102.69 61.92 98.42C61.44 97.16 61.17 95.79 61.17 94.37C61.17 88.09 66.29 83 72.6 83M72.61 81C65.2 81 59.18 87 59.18 94.37C59.18 96.01 59.48 97.61 60.06 99.14C62.03 104.28 67.08 107.74 72.61 107.74C80.01 107.74 86.04 101.74 86.04 94.37C86.04 92.46 85.64 90.62 84.86 88.89C82.7 84.1 77.9 81 72.62 81H72.61Z" fill="#E6E6FF"/>
    <path d="M98.84 156.4C98.47 161.96 97.78 172.89 98.61 184.95" stroke="#6346CE" stroke-linecap="round" stroke-linejoin="round"/>
    <path d="M92.24 69.7C92.24 70.52 91.57 71.19 90.74 71.19C90.1 71.19 89.55 70.79 89.34 70.23C89.28 70.06 89.24 69.89 89.24 69.7C89.24 68.88 89.91 68.21 90.74 68.21C91.35 68.21 91.87 68.57 92.11 69.09C92.19 69.28 92.24 69.48 92.24 69.7Z" fill="#6346CE"/>
    <path d="M104.53 69.3699C104.53 70.1899 103.86 70.8599 103.03 70.8599C102.39 70.8599 101.84 70.4599 101.63 69.8999C101.57 69.7299 101.53 69.5599 101.53 69.3699C101.53 68.5499 102.2 67.8799 103.03 67.8799C103.64 67.8799 104.16 68.2399 104.4 68.7599C104.48 68.9499 104.53 69.1499 104.53 69.3699Z" fill="#6346CE"/>
    <path d="M92.2 68.1201L89.37 71.1601" stroke="#7268F2" stroke-width="0.5" stroke-miterlimit="10"/>
    <path d="M100.77 69.1201L104.91 69.4601" stroke="#7268F2" stroke-width="0.5" stroke-miterlimit="10"/>
    <path d="M102.22 122.09C101.65 125.42 98.48 127.66 95.13 127.09C92.54 126.65 90.61 124.66 90.12 122.24C89.98 121.53 89.96 120.78 90.09 120.02C90.23 119.19 93.22 120.21 96.16 120.15C99.1 120.09 101.97 118.96 102.11 119.52C102.32 120.33 102.37 121.2 102.22 122.08V122.09Z" fill="#432977"/>
    <path d="M73.1 95.8499C76.5628 95.8499 79.37 93.7904 79.37 91.2499C79.37 88.7094 76.5628 86.6499 73.1 86.6499C69.6372 86.6499 66.83 88.7094 66.83 91.2499C66.83 93.7904 69.6372 95.8499 73.1 95.8499Z" fill="white"/>
    <path d="M118.42 95.8499C121.883 95.8499 124.69 93.7904 124.69 91.2499C124.69 88.7094 121.883 86.6499 118.42 86.6499C114.957 86.6499 112.15 88.7094 112.15 91.2499C112.15 93.7904 114.957 95.8499 118.42 95.8499Z" fill="white"/>
    <path d="M97.27 0.0500244C98.57 0.210024 99.88 0.530024 101.02 1.19002C102.16 1.85002 103.64 3.21002 103.68 4.65002C103.76 7.23002 99.83 7.47002 98.06 7.79002C96.71 8.03002 95.11 8.21002 93.9 7.45002C92.77 6.74002 91.88 5.57002 91.69 4.22002C91.23 0.940024 94.6 -0.279976 97.27 0.0400244V0.0500244Z" fill="#FFA233"/>
    <path d="M74.45 215.37C74.8 197.37 72.32 182.57 76.85 183.61C83.41 185.1 104.47 186.96 118.73 183.86C124.32 181.65 121.08 217.73 121.08 217.73" stroke="#6346CE" stroke-linecap="round" stroke-linejoin="round"/>
    <path d="M118.3 190.52C118.3 191.77 117.28 192.79 116.02 192.79C115.05 192.79 114.22 192.19 113.89 191.33C113.79 191.08 113.74 190.81 113.74 190.52C113.74 189.27 114.76 188.25 116.02 188.25C116.95 188.25 117.74 188.8 118.1 189.59C118.23 189.87 118.3 190.19 118.3 190.52Z" fill="#FFA233"/>
    <path d="M82.78 190.52C82.78 191.77 81.76 192.79 80.5 192.79C79.53 192.79 78.7 192.18 78.37 191.33C78.27 191.08 78.22 190.81 78.22 190.52C78.22 189.27 79.24 188.25 80.5 188.25C81.43 188.25 82.22 188.8 82.58 189.59C82.71 189.87 82.78 190.19 82.78 190.52Z" fill="#FFA233"/>
    <path d="M113.46 190.34L118.53 190.77" stroke="#7268F2" stroke-width="0.84" stroke-miterlimit="10"/>
    <path d="M78.38 191.97L82.62 189.14" stroke="#7268F2" stroke-width="0.84" stroke-miterlimit="10"/>
    <path d="M158.11 169.06C156.29 193.02 150.61 196.75 148.53 207.84C146.45 218.94 152.07 228.71 160.61 226.17C173.11 222.86 175.19 197.32 170.61 180.54C166.03 163.76 159.25 160.45 158.11 169.06Z" fill="url(#paint2_linear_2556_87294)"/>
    <path d="M7.31999 124.39C17.35 124.15 23.76 134.08 27.95 149.45C35.28 173.02 46.74 171.46 40.02 176.4C33.3 181.34 10.7 170.03 3.45999 150.05C-2.26001 134.81 -0.810013 125.31 7.32999 124.39H7.31999Z" fill="url(#paint3_linear_2556_87294)"/>
    <path d="M12.87 129.22C16.23 129.51 18.89 132.66 21.19 137.68C24.29 144.87 23.87 147.1 22.66 148.49C21.45 149.88 14.07 152.2 10.05 142.43C6.02998 132.66 9.34998 128.9 12.87 129.21V129.22Z" fill="#6346CE"/>
    <path d="M159.94 213.52C159.71 216.37 157.75 222.56 155.71 225.78" stroke="#6346CE" stroke-linecap="round" stroke-linejoin="round"/>
    <path d="M165.4 214.64C165.16 218.35 164.14 222.31 162.38 225.01" stroke="#6346CE" stroke-linecap="round" stroke-linejoin="round"/>
    <path d="M99.86 263.5C111.916 263.5 121.69 261.817 121.69 259.74C121.69 257.663 111.916 255.98 99.86 255.98C87.8036 255.98 78.03 257.663 78.03 259.74C78.03 261.817 87.8036 263.5 99.86 263.5Z" fill="#C7C7FF"/>
  </g>
  <defs>
    <linearGradient id="paint0_linear_2556_87294" x1="96.54" y1="143.37" x2="96.54" y2="40.3701" gradientUnits="userSpaceOnUse">
      <stop stop-color="#6346CE"/>
      <stop offset="0.11" stop-color="#6954DD"/>
      <stop offset="0.26" stop-color="#6E5FE9"/>
      <stop offset="0.47" stop-color="#7166F0"/>
      <stop offset="1" stop-color="#7268F2"/>
    </linearGradient>
    <linearGradient id="paint1_linear_2556_87294" x1="97.94" y1="231.71" x2="97.94" y2="154.33" gradientUnits="userSpaceOnUse">
      <stop stop-color="#6346CE"/>
      <stop offset="0.11" stop-color="#6954DD"/>
      <stop offset="0.26" stop-color="#6E5FE9"/>
      <stop offset="0.47" stop-color="#7166F0"/>
      <stop offset="1" stop-color="#7268F2"/>
    </linearGradient>
    <linearGradient id="paint2_linear_2556_87294" x1="164.43" y1="225.57" x2="153.88" y2="165.71" gradientUnits="userSpaceOnUse">
      <stop stop-color="#6346CE"/>
      <stop offset="0.11" stop-color="#6954DD"/>
      <stop offset="0.26" stop-color="#6E5FE9"/>
      <stop offset="0.47" stop-color="#7166F0"/>
      <stop offset="1" stop-color="#7268F2"/>
    </linearGradient>
    <linearGradient id="paint3_linear_2556_87294" x1="29.92" y1="180.46" x2="8.14999" y2="123.74" gradientUnits="userSpaceOnUse">
      <stop stop-color="#6346CE"/>
      <stop offset="0.11" stop-color="#6852DB"/>
      <stop offset="0.29" stop-color="#6D5EE8"/>
      <stop offset="0.53" stop-color="#7165EF"/>
      <stop offset="1" stop-color="#7268F2"/>
    </linearGradient>
    <clipPath id="clip0_2556_87294">
      <rect width="172.84" height="263.5" fill="white"/>
    </clipPath>
  </defs>
</svg>
