<svg width="150" height="289" viewBox="0 0 150 289" fill="none" xmlns="http://www.w3.org/2000/svg">
  <g clip-path="url(#clip0_2556_87375)">
    <path d="M67.1501 72.81C66.1901 69.26 59.3901 35.47 56.4301 27.05" stroke="#6346CE" stroke-width="2" stroke-miterlimit="10"/>
    <path d="M13.5301 216.99C9.30005 235.16 12.8201 250.31 19.6201 251.91C22.9401 252.69 25.9101 249.92 29.0301 246.26C32.1501 242.6 37.92 231.72 36.34 219.96C34.99 209.94 34.8801 203.13 35.1701 201.44C36.6901 191.91 37.5801 188.25 34.9501 186.11C28.7001 182.05 24.1601 190.26 21.4001 195.14C18.6401 200.02 15.5701 208.24 13.5401 216.98L13.5301 216.99Z" fill="url(#paint0_linear_2556_87375)"/>
    <path d="M24.69 248.72C23.76 249.72 22.3 250.75 21.09 250.12C20.52 249.82 20.2 249.22 20.05 248.61C19.72 247.27 20.05 245.86 20.45 244.52C21.11 242.32 21.93 240.16 22.92 238.06C25.54 233.02 30.97 228.57 31.67 230.31C33.48 237.47 28.81 244.28 24.68 248.72H24.69Z" fill="#6346CE"/>
    <path d="M142.74 200.85C141.67 202.01 140.99 202.99 139.58 203.7C137.11 204.94 133.71 204.99 130.95 204.79C128.02 204.57 125.04 204.21 122.38 202.97C121.98 202.78 121.56 202.54 121.44 202.12C121.34 201.76 121.48 201.38 121.67 201.06C122.43 199.76 123.81 198.98 125.06 198.13C126.79 196.95 128.35 195.54 129.69 193.93C131.16 192.17 132.35 190.2 133.93 188.54C135.51 186.88 137.6 185.53 139.89 185.52C141.08 185.52 142.25 185.88 143.36 186.32C144.72 186.87 144.92 187.42 145.92 188.5C149.5 192.37 145.45 197.93 142.75 200.85H142.74Z" fill="url(#paint1_linear_2556_87375)"/>
    <path d="M149.63 112.43C151.16 123.61 143.29 133.92 132.05 135.46C123.36 136.65 115.21 132.26 111.25 125.04C110.08 122.91 109.28 120.55 108.93 118C107.4 106.82 115.27 96.51 126.52 94.97C134.8 93.84 142.58 97.77 146.72 104.39C148.22 106.77 149.24 109.48 149.64 112.43H149.63Z" fill="#6346CE"/>
    <path d="M41.3001 127.26C42.8301 138.44 34.9601 148.75 23.7201 150.29C15.0301 151.48 6.88006 147.09 2.92006 139.87C1.75006 137.74 0.950065 135.38 0.600065 132.83C-0.929935 121.65 6.94007 111.34 18.1901 109.8C26.4701 108.67 34.2501 112.6 38.3901 119.22C39.8901 121.6 40.9101 124.31 41.3101 127.26H41.3001Z" fill="#6346CE"/>
    <path d="M140.78 141.49C138.31 161.01 115.49 169.09 81.87 173.69C48.24 178.29 25.3 174.46 16.32 158.52C7.34002 142.58 12.18 109.48 24.3 93.5699C33.73 81.1999 50.33 74.0399 65.57 71.9499C78.19 70.2199 102.27 71.5399 116 80.5099C133.6 91.9899 143.25 121.96 140.78 141.48V141.49Z" fill="url(#paint2_linear_2556_87375)"/>
    <path d="M66.9401 71.6799C69.9201 86.9499 73.0601 113.77 73.0601 113.77" stroke="#6346CE" stroke-miterlimit="10"/>
    <path d="M10.5801 127.13C59.6201 135.38 91.2401 130.87 139.21 110.41" stroke="#6346CE" stroke-miterlimit="10"/>
    <path d="M77.48 144.54C83.48 143.85 89.57 144.7 95.59 144.26C104.27 143.63 112.73 140.25 119.47 134.74C121.59 133.01 123.57 131.02 124.81 128.59C127.48 123.32 126.24 116.92 124.09 111.42C121.95 105.95 118.5 100.41 112.94 98.4801C108.76 97.0301 104.17 97.9001 99.87 98.9401C91.12 101.05 82.46 103.79 73.63 105.33C72.83 105.47 69.86 105.88 69.18 105.95C60.14 106.89 50.94 106.56 41.83 106.88C37.41 107.04 32.75 107.43 29.12 109.95C24.29 113.3 22.45 119.56 21.86 125.41C21.26 131.29 21.79 137.79 25.78 142.14C27.63 144.16 30.07 145.53 32.57 146.63C40.54 150.13 49.6 151.11 58.13 149.38C64.05 148.18 69.69 145.73 75.65 144.78L77.48 144.53V144.54Z" fill="#432977"/>
    <path d="M67.34 101.31C67.45 102.13 66.88 102.88 66.06 102.99C65.43 103.08 64.83 102.76 64.54 102.23C64.45 102.07 64.4 101.9 64.37 101.72C64.26 100.9 64.83 100.15 65.65 100.04C66.25 99.9599 66.82 100.24 67.12 100.73C67.23 100.9 67.3 101.1 67.33 101.32L67.34 101.31Z" fill="#6346CE"/>
    <path d="M79.48 99.3299C79.59 100.15 79.02 100.9 78.2 101.01C77.57 101.1 76.97 100.78 76.68 100.25C76.59 100.09 76.54 99.9199 76.51 99.7399C76.4 98.9199 76.97 98.1699 77.79 98.0599C78.39 97.9799 78.96 98.2599 79.26 98.7499C79.37 98.9199 79.44 99.1199 79.47 99.3399L79.48 99.3299Z" fill="#6346CE"/>
    <path d="M67.0801 99.76L64.7001 103.16" stroke="#7268F2" stroke-width="0.5" stroke-miterlimit="10"/>
    <path d="M75.72 99.5801L79.86 99.3701" stroke="#7268F2" stroke-width="0.5" stroke-miterlimit="10"/>
    <path d="M32.7101 208.19C30.4501 198.85 29.0501 187.76 36.9601 182.29C45.4401 176.43 75.6601 182.31 79.2101 182.66C82.4901 182.99 114.73 183.35 121.19 190.77C126.4 196.76 123.48 205.44 120.33 212.73L116.54 221.49C104.44 244.06 84.9701 260.4 72.6801 259.16C61.1001 257.99 42.6701 239.87 33.9201 213.14L32.7201 208.19H32.7101Z" fill="url(#paint3_linear_2556_87375)"/>
    <path d="M79.7101 184.17C78.7801 189.66 76.9901 200.47 76.6101 212.55" stroke="#6346CE" stroke-linecap="round" stroke-linejoin="round"/>
    <path d="M49.51 240.39C51.67 222.52 50.69 207.55 55.09 209.03C61.46 211.18 82.23 215.14 96.74 213.49C102.52 211.85 95.67 247.43 95.67 247.43" stroke="#6346CE" stroke-linecap="round" stroke-linejoin="round"/>
    <path d="M95.6401 220.07C95.5101 221.32 94.4001 222.22 93.1401 222.1C92.1701 222 91.4101 221.32 91.1701 220.44C91.1001 220.18 91.0701 219.9 91.1001 219.62C91.2301 218.37 92.3401 217.47 93.6001 217.59C94.5201 217.68 95.2601 218.31 95.5301 219.13C95.6301 219.43 95.6701 219.74 95.6401 220.07Z" fill="#FFA233"/>
    <path d="M60.29 216.5C60.16 217.74 59.05 218.65 57.8 218.53C56.83 218.43 56.07 217.75 55.83 216.87C55.76 216.61 55.73 216.33 55.76 216.05C55.89 214.8 57 213.9 58.26 214.02C59.18 214.11 59.92 214.74 60.19 215.56C60.29 215.86 60.33 216.17 60.3 216.5H60.29Z" fill="#FFA233"/>
    <path d="M90.8401 219.41L95.8501 220.35" stroke="#7268F2" stroke-width="0.84" stroke-miterlimit="10"/>
    <path d="M55.77 217.5L60.27 215.11" stroke="#7268F2" stroke-width="0.84" stroke-miterlimit="10"/>
    <path d="M148.48 179.05C140.27 161.24 127 152.35 120.9 155.76C117.92 157.42 117.6 161.47 117.77 166.28C117.94 171.09 121.72 183.06 126.4 191.38C128.39 194.92 130.47 198.09 132.59 200.85C142.29 212.91 152.88 186.87 148.48 179.04V179.05Z" fill="url(#paint4_linear_2556_87375)"/>
    <path d="M55.38 20.3C56.68 20.46 57.99 20.78 59.13 21.44C60.29 22.11 61.75 23.46 61.79 24.9C61.87 27.48 57.94 27.72 56.17 28.04C54.82 28.28 53.22 28.46 52.01 27.7C50.88 26.99 49.99 25.82 49.8 24.47C49.34 21.19 52.71 19.97 55.38 20.29V20.3Z" fill="#FFA233"/>
    <path d="M92.14 288.57C102.849 288.57 111.53 286.887 111.53 284.81C111.53 282.733 102.849 281.05 92.14 281.05C81.4312 281.05 72.75 282.733 72.75 284.81C72.75 286.887 81.4312 288.57 92.14 288.57Z" fill="#C7C7FF"/>
    <path d="M52.5301 138.34C51.8501 138.34 51.1601 138.27 50.4901 138.14C46.3001 137.31 42.9901 133.93 42.2701 129.74C42.0601 128.5 42.0701 127.24 42.3201 126C43.2701 121.19 47.5401 117.69 52.4601 117.69C53.1401 117.69 53.8301 117.76 54.5001 117.89C58.5001 118.68 61.6801 121.75 62.5901 125.71C62.9201 127.13 62.9501 128.59 62.6601 130.03C61.7101 134.84 57.4401 138.34 52.5201 138.34H52.5301Z" fill="#6346CE"/>
    <path d="M52.46 118.53C53.08 118.53 53.71 118.59 54.34 118.72C58.14 119.47 60.97 122.38 61.78 125.91C62.08 127.18 62.12 128.52 61.85 129.88C60.95 134.39 56.98 137.51 52.53 137.51C51.91 137.51 51.29 137.45 50.66 137.33C46.67 136.54 43.75 133.38 43.1 129.61C42.91 128.5 42.91 127.34 43.15 126.17C44.04 121.66 48.02 118.54 52.47 118.54M52.46 116.86C47.14 116.86 42.53 120.64 41.5 125.84C41.23 127.18 41.22 128.54 41.45 129.89C42.23 134.42 45.8 138.07 50.33 138.96C51.06 139.1 51.8 139.18 52.53 139.18C57.85 139.18 62.46 135.4 63.49 130.2C63.8 128.64 63.77 127.07 63.41 125.52C62.42 121.25 58.99 117.93 54.67 117.08C53.94 116.94 53.2 116.86 52.47 116.86H52.46Z" fill="#E6E6FF"/>
    <path d="M60.6648 126.718C61.0775 124.637 59.1152 122.495 56.282 121.933C53.4487 121.371 50.8174 122.602 50.4048 124.682C49.9921 126.763 51.9544 128.905 54.7876 129.467C57.6209 130.029 60.2522 128.798 60.6648 126.718Z" fill="white"/>
    <path d="M96.72 134.16C95.91 134.16 95.09 134.08 94.28 133.92C89.25 132.92 85.3 128.88 84.44 123.86C84.18 122.37 84.2 120.86 84.5 119.37C85.64 113.6 90.75 109.42 96.65 109.42C97.47 109.42 98.29 109.5 99.09 109.66C103.88 110.61 107.69 114.29 108.79 119.03C109.19 120.74 109.22 122.48 108.88 124.21C107.74 129.98 102.63 134.16 96.73 134.16H96.72Z" fill="#6346CE"/>
    <path d="M96.65 110.41C97.39 110.41 98.14 110.48 98.9 110.63C103.46 111.53 106.84 115.01 107.82 119.24C108.18 120.76 108.22 122.37 107.9 124C106.83 129.41 102.06 133.15 96.73 133.15C95.99 133.15 95.24 133.08 94.48 132.93C89.7 131.98 86.2 128.2 85.43 123.68C85.2 122.35 85.21 120.96 85.48 119.56C86.55 114.15 91.31 110.41 96.65 110.41ZM96.65 108.41C90.27 108.41 84.75 112.94 83.51 119.17C83.19 120.78 83.17 122.41 83.45 124.02C84.38 129.45 88.66 133.82 94.09 134.89C94.96 135.06 95.85 135.15 96.73 135.15C103.1 135.15 108.63 130.63 109.86 124.39C110.23 122.52 110.2 120.63 109.76 118.78C108.58 113.66 104.47 109.69 99.29 108.66C98.42 108.49 97.53 108.4 96.65 108.4V108.41Z" fill="#E6E6FF"/>
    <path d="M104.852 119.762C105.346 117.27 102.993 114.704 99.5965 114.03C96.1999 113.356 93.0456 114.83 92.5513 117.322C92.057 119.814 94.4098 122.38 97.8064 123.054C101.203 123.728 104.357 122.254 104.852 119.762Z" fill="white"/>
    <path d="M84.3 156.09C86.51 154.23 88.9 152.58 91.42 151.18" stroke="#432977" stroke-width="3" stroke-linecap="round" stroke-linejoin="round"/>
    <path d="M111.29 35.7601C109.98 35.5301 109.06 34.9301 108.53 33.9501C108 32.9801 107.86 31.7901 108.11 30.3801C108.33 29.1201 108.7 27.9401 109.22 26.8501C109.74 25.7601 110.44 24.7101 111.32 23.6901C112.2 22.6701 113.33 21.6801 114.7 20.7201C115.62 20.0301 116.36 19.4101 116.91 18.8501C117.46 18.3001 117.89 17.7701 118.2 17.2701C118.51 16.7701 118.73 16.2101 118.84 15.5801C119.04 14.4601 118.78 13.5301 118.06 12.7701C117.34 12.0201 116.2 11.5001 114.65 11.2301C113.09 10.9501 111.6 10.8801 110.18 11.0001C108.75 11.1201 107.35 11.4201 105.97 11.8701C104.37 12.3901 103.04 12.4201 101.97 11.9501C100.9 11.4901 100.12 10.7601 99.65 9.77011C99.17 8.78011 99 7.70011 99.13 6.52011C99.26 5.34011 99.78 4.25011 100.68 3.26011C101.58 2.27011 102.85 1.54011 104.49 1.08011C106.65 0.460107 108.91 0.110107 111.26 0.0201072C113.61 -0.0598928 115.7 0.0501072 117.55 0.380107C120.95 0.980107 123.84 2.05011 126.2 3.60011C128.56 5.15011 130.27 7.00011 131.34 9.17011C132.41 11.3401 132.72 13.7101 132.26 16.2901C131.99 17.8001 131.53 19.1601 130.86 20.3701C130.19 21.5801 129.27 22.7101 128.08 23.7501C126.89 24.7901 125.31 25.8201 123.32 26.8201C121.62 27.6701 120.27 28.4601 119.29 29.1901C118.31 29.9201 117.57 30.6301 117.07 31.3201C116.57 32.0101 116.15 32.7701 115.8 33.6101C115.45 34.4501 114.9 35.0701 114.16 35.4601C113.41 35.8501 112.46 35.9501 111.29 35.7401V35.7601ZM108.01 53.0801C105.82 52.6901 104.2 51.7201 103.15 50.1501C102.1 48.5801 101.76 46.7601 102.13 44.6701C102.49 42.6301 103.43 41.0801 104.95 40.0201C106.47 38.9601 108.32 38.6201 110.51 39.0101C112.8 39.4101 114.43 40.3701 115.42 41.8701C116.41 43.3701 116.72 45.1501 116.36 47.1901C115.99 49.2801 115.08 50.8901 113.63 52.0101C112.18 53.1301 110.31 53.4901 108.02 53.0901L108.01 53.0801Z" fill="#F48811"/>
    <path d="M125.57 64.98C124.56 64.31 123.96 63.47 123.78 62.46C123.59 61.45 123.82 60.46 124.46 59.5C125.08 58.56 125.89 57.99 126.88 57.79C127.87 57.59 128.87 57.82 129.87 58.49C130.92 59.19 131.53 60.02 131.7 60.99C131.87 61.96 131.64 62.91 131.01 63.85C130.37 64.81 129.57 65.42 128.6 65.66C127.63 65.91 126.62 65.68 125.57 64.98ZM130.97 57.05C130.36 56.65 130.03 56.15 129.98 55.55C129.93 54.95 130.11 54.32 130.54 53.67C130.93 53.09 131.37 52.58 131.86 52.15C132.35 51.72 132.93 51.35 133.6 51.03C134.26 50.71 135.04 50.46 135.94 50.28C136.55 50.14 137.05 49.99 137.45 49.83C137.84 49.67 138.17 49.5 138.44 49.32C138.7 49.14 138.93 48.91 139.13 48.61C139.47 48.09 139.54 47.57 139.35 47.04C139.15 46.51 138.7 46 137.98 45.53C137.26 45.06 136.53 44.69 135.8 44.45C135.06 44.2 134.3 44.04 133.5 43.97C132.59 43.88 131.92 43.61 131.48 43.14C131.04 42.67 130.82 42.14 130.79 41.55C130.76 40.96 130.92 40.38 131.24 39.81C131.56 39.24 132.06 38.82 132.72 38.52C133.39 38.22 134.18 38.13 135.1 38.26C136.32 38.42 137.52 38.73 138.71 39.2C139.9 39.67 140.92 40.18 141.77 40.75C143.34 41.79 144.55 42.95 145.39 44.24C146.23 45.53 146.68 46.82 146.75 48.14C146.81 49.46 146.45 50.71 145.66 51.9C145.2 52.6 144.67 53.17 144.08 53.63C143.48 54.09 142.78 54.45 141.96 54.71C141.14 54.97 140.13 55.14 138.92 55.21C137.88 55.27 137.04 55.37 136.39 55.52C135.74 55.67 135.22 55.86 134.82 56.1C134.42 56.34 134.04 56.63 133.69 56.97C133.33 57.31 132.92 57.5 132.47 57.54C132.01 57.58 131.51 57.42 130.98 57.06L130.97 57.05Z" fill="#FFA233"/>
  </g>
  <defs>
    <linearGradient id="paint0_linear_2556_87375" x1="24.0067" y1="252.057" x2="24.4087" y2="184.974" gradientUnits="userSpaceOnUse">
      <stop stop-color="#6346CE"/>
      <stop offset="0.11" stop-color="#6954DD"/>
      <stop offset="0.26" stop-color="#6E5FE9"/>
      <stop offset="0.47" stop-color="#7166F0"/>
      <stop offset="1" stop-color="#7268F2"/>
    </linearGradient>
    <linearGradient id="paint1_linear_2556_87375" x1="142.469" y1="201.538" x2="128.565" y2="191.463" gradientUnits="userSpaceOnUse">
      <stop stop-color="#7268F2"/>
      <stop offset="0.23" stop-color="#7063ED"/>
      <stop offset="0.48" stop-color="#6A57E0"/>
      <stop offset="0.7" stop-color="#6346CE"/>
    </linearGradient>
    <linearGradient id="paint2_linear_2556_87375" x1="71.1422" y1="177.926" x2="84.2237" y2="71.47" gradientUnits="userSpaceOnUse">
      <stop offset="0.03" stop-color="#6346CE"/>
      <stop offset="0.07" stop-color="#6954DD"/>
      <stop offset="0.12" stop-color="#6E5FE9"/>
      <stop offset="0.19" stop-color="#7166F0"/>
      <stop offset="0.38" stop-color="#7268F2"/>
    </linearGradient>
    <linearGradient id="paint3_linear_2556_87375" x1="111.715" y1="231.893" x2="29.6522" y2="193.77" gradientUnits="userSpaceOnUse">
      <stop stop-color="#7268F2"/>
      <stop offset="0.53" stop-color="#7166F0"/>
      <stop offset="0.74" stop-color="#6E5FE9"/>
      <stop offset="0.89" stop-color="#6954DD"/>
      <stop offset="1" stop-color="#6346CE"/>
    </linearGradient>
    <linearGradient id="paint4_linear_2556_87375" x1="115.692" y1="160.364" x2="148.401" y2="196.602" gradientUnits="userSpaceOnUse">
      <stop stop-color="#6346CE"/>
      <stop offset="0.11" stop-color="#6954DD"/>
      <stop offset="0.26" stop-color="#6E5FE9"/>
      <stop offset="0.47" stop-color="#7166F0"/>
      <stop offset="1" stop-color="#7268F2"/>
    </linearGradient>
    <clipPath id="clip0_2556_87375">
      <rect width="149.42" height="288.57" fill="white" transform="translate(0.400024)"/>
    </clipPath>
  </defs>
</svg>
