<svg width="150" height="210" viewBox="0 0 150 210" fill="none" xmlns="http://www.w3.org/2000/svg">
  <path
    d="M23.5628 173.151C23.6527 191.786 30.5788 205.697 37.5449 205.677C40.9481 205.677 43.1936 202.282 45.3692 198.008C47.5449 193.723 50.6387 181.829 46.3872 170.764C42.7644 161.336 41.0778 154.745 40.968 153.047C40.2395 143.44 40.2594 139.665 37.2155 138.197C30.2095 135.7 27.6946 144.728 26.1477 150.111C24.6008 155.494 23.5229 164.192 23.5628 173.161V173.151Z"
    fill="url(#paint0_linear_3048_3466)"/>
  <path
    d="M41.7365 201.403C41.0579 202.592 39.8902 203.93 38.5629 203.59C37.9441 203.43 37.495 202.921 37.2056 202.372C36.5768 201.143 36.5768 199.695 36.6567 198.297C36.7864 196.01 37.0858 193.713 37.5649 191.456C38.9421 185.954 43.1836 180.371 44.2715 181.899C47.6846 188.44 44.7206 196.13 41.7365 201.403Z"
    fill="#6346CE"/>
  <path
    d="M128.423 173.8C128.074 192.445 120.998 206.267 114.072 206.147C110.689 206.087 108.503 202.672 106.407 198.357C104.301 194.043 101.397 182.089 105.778 171.083C109.511 161.706 111.278 155.135 111.417 153.437C112.276 143.829 112.315 140.064 115.359 138.636C122.355 136.24 124.721 145.308 126.188 150.71C127.655 156.113 128.603 164.832 128.433 173.8H128.423Z"
    fill="url(#paint1_linear_3048_3466)"/>
  <path
    d="M109.93 201.783C110.589 202.981 111.737 204.329 113.064 204.02C113.693 203.87 114.142 203.361 114.441 202.821C115.09 201.603 115.11 200.155 115.05 198.757C114.95 196.46 114.681 194.173 114.242 191.906C112.944 186.383 108.782 180.741 107.675 182.259C104.172 188.75 107.016 196.48 109.93 201.793V201.783Z"
    fill="#6346CE"/>
  <path
    d="M119.761 164.013C122.944 154.995 125.439 144.179 118.144 137.977C110.329 131.336 79.7805 134.122 76.2276 134.122C72.9441 134.122 40.9481 131.256 33.8124 137.947C28.0539 143.35 30.0699 152.228 32.4651 159.738L35.3394 168.776C45.0699 192.305 62.7346 210.401 75.04 210.401C86.6268 210.401 106.717 194.333 118.074 168.776L119.761 164.003V164.013Z"
    fill="url(#paint2_linear_3048_3466)"/>
  <path
    d="M75.8083 164.402C75.8083 164.402 75.7884 164.402 75.7684 164.402C75.489 164.382 75.2894 164.143 75.3093 163.873C76.1477 151.639 75.4291 140.684 75.0798 135.431C75.0598 135.151 75.2694 134.921 75.5489 134.901C75.8283 134.881 76.0579 135.091 76.0778 135.371C76.4271 140.654 77.1557 151.649 76.3073 163.953C76.2874 164.213 76.0678 164.422 75.8083 164.422V164.402Z"
    fill="#6346CE"/>
  <path
    d="M53.3833 197.129C53.1238 197.129 52.9142 196.929 52.8843 196.669C52.5949 193.494 50.2196 165.581 54.3015 162.525C54.7805 162.165 55.3394 162.095 55.9182 162.325C70.3893 165.471 91.4871 163.414 97.4252 162.055C98.1039 161.896 98.6827 162.025 99.1617 162.425C101.078 164.003 100.898 169.905 100.619 178.843C100.479 183.457 100.309 188.69 100.419 194.253C100.419 194.532 100.21 194.752 99.9302 194.762C99.6707 194.762 99.4312 194.552 99.4212 194.273C99.3114 188.68 99.4711 183.437 99.6208 178.813C99.8703 170.794 100.07 164.462 98.523 163.194C98.3733 163.074 98.1238 162.924 97.6448 163.034C91.6468 164.402 70.3294 166.489 55.6288 163.284C55.2995 163.164 55.0999 163.174 54.9003 163.324C52.1557 165.381 52.7845 184.336 53.8823 196.57C53.9023 196.849 53.7027 197.089 53.4332 197.109C53.4132 197.109 53.4033 197.109 53.3833 197.109V197.129Z"
    fill="#6346CE"/>
  <path
    d="M58.4332 171.722C59.4013 171.722 60.2296 171.123 60.559 170.264C60.6188 170.095 60.6588 169.915 60.6787 169.735L56.2576 170.105C56.537 171.033 57.3953 171.722 58.4232 171.722H58.4332Z"
    fill="#6346CE"/>
  <path
    d="M58.4331 167.198C57.505 167.198 56.7165 167.748 56.3573 168.537C56.2575 168.766 56.1976 169.016 56.1776 169.276L60.6287 168.896C60.3792 167.918 59.491 167.198 58.4331 167.198Z"
    fill="#6346CE"/>
  <path
    d="M96.008 170.264C96.1078 170.015 96.1577 169.745 96.1577 169.455C96.1577 168.207 95.1397 167.188 93.8822 167.188C93.2335 167.188 92.6646 167.468 92.2455 167.898L95.9481 170.374C95.9481 170.374 95.988 170.304 95.998 170.264H96.008Z"
    fill="#6346CE"/>
  <path
    d="M91.6167 169.455C91.6167 170.704 92.6347 171.722 93.8921 171.722C94.5109 171.722 95.0798 171.473 95.489 171.073L91.7963 168.607C91.6866 168.876 91.6167 169.156 91.6167 169.465V169.455Z"
    fill="#6346CE"/>
  <path
    d="M-4.88642e-05 80.4833C0.339272 91.7884 9.77041 100.667 21.0578 100.327C29.7904 100.057 37.0758 94.3749 39.7704 86.5853C40.5688 84.2883 40.968 81.8216 40.8882 79.245C40.5489 67.94 31.1177 59.0617 19.8203 59.4013C11.5069 59.6509 4.50095 64.8341 1.53688 72.0545C0.478993 74.6511 -0.0798892 77.4973 -4.88642e-05 80.4833Z"
    fill="#6346CE"/>
  <path
    d="M109.082 77.1877C109.421 88.4927 118.852 97.371 130.14 97.0314C138.872 96.7618 146.158 91.0793 148.852 83.2896C149.651 80.9926 150.05 78.5259 149.97 75.9493C149.631 64.6443 140.2 55.7661 128.902 56.1056C120.589 56.3553 113.583 61.5384 110.619 68.7589C109.541 71.3554 108.982 74.2016 109.072 77.1877H109.082Z"
    fill="#6346CE"/>
  <path
    d="M13.3533 107.578C19.012 126.353 42.8543 130.537 76.7765 129.518C110.699 128.5 132.695 120.95 138.902 103.803C145.12 86.6552 134.87 54.9173 120.289 41.2754C108.952 30.6694 91.3873 26.3651 76.018 26.8345C63.2835 27.214 39.7605 32.487 27.7046 43.5623C12.2456 57.7435 7.69466 88.8024 13.3533 107.578Z"
    fill="url(#paint3_linear_3048_3466)"/>
  <path
    d="M68.9321 70.0872C68.6726 70.0872 68.4531 69.8874 68.4331 69.6278C68.4131 69.3581 66.6367 43.1029 73.6926 26.9543C74.1117 26.9243 74.4111 26.8944 74.8004 26.8844C74.8004 26.9243 74.7804 26.9643 74.7604 27.0042C67.6247 42.8932 69.4012 69.2882 69.4211 69.5579C69.4411 69.8375 69.2315 70.0672 68.962 70.0872C68.9521 70.0872 68.9421 70.0872 68.9221 70.0872H68.9321Z"
    fill="#6346CE"/>
  <path
    d="M76.2476 97.1313C55.4691 97.1313 33.7725 92.6572 9.40125 81.6318L9.81043 80.723C59.9402 103.403 98.7126 98.1899 141.507 83.3895L141.836 84.3382C119.611 92.028 98.4631 97.1413 76.2575 97.1413L76.2476 97.1313Z"
    fill="#6346CE"/>
  <path
    d="M52.1556 109.375C44.8003 109.375 37.5648 107.458 31.2274 103.832C28.4031 102.215 26.457 100.607 25.1197 98.7891C22.2654 94.9142 21.5767 89.3217 23.0837 82.1611C24.5907 75.0006 27.475 70.207 31.6666 67.91C33.932 66.6717 36.6865 66.0924 40.3392 66.0924C41.7763 66.0924 43.2334 66.1823 44.3312 66.2622C47.4151 66.4819 50.5588 66.7815 53.6027 67.0711C59.3811 67.6204 65.3592 68.1896 71.2374 68.2296C72.1955 68.2296 75.0498 68.1497 75.7584 68.1098C81.7464 67.7303 87.8043 66.7815 93.6526 65.8727C96.6765 65.4033 99.8003 64.914 102.864 64.5045C104.621 64.2748 106.677 64.0352 108.683 64.0352C111.417 64.0352 113.683 64.4746 115.609 65.3834C119.93 67.4207 123.104 72.0246 125.04 79.0852C126.976 86.1459 126.627 91.7684 124.002 95.8131C122.774 97.7105 120.928 99.4283 118.203 101.216C111.447 105.65 103.263 108.087 95.1596 108.087C94.7005 108.087 94.2514 108.087 93.7923 108.067C91.0678 107.977 88.3033 107.617 85.6286 107.268C82.5049 106.858 79.2714 106.439 76.0578 106.439H75.7684L73.9121 106.499C70.5887 106.669 67.2953 107.308 64.1017 107.927C61.457 108.436 58.7125 108.966 55.9979 109.225C54.7304 109.345 53.433 109.405 52.1456 109.405L52.1556 109.375Z"
    fill="#432977"/>
  <path
    d="M108.683 64.5345C111.347 64.5345 113.543 64.964 115.399 65.8328C119.581 67.8002 122.665 72.3042 124.561 79.2151C126.457 86.1259 126.128 91.6186 123.593 95.5335C122.405 97.371 120.609 99.0388 117.934 100.786C111.257 105.171 103.164 107.577 95.1596 107.577C94.7105 107.577 94.2614 107.577 93.8123 107.558C91.1077 107.468 88.3532 107.108 85.6886 106.759C82.5448 106.349 79.3013 105.92 76.0478 105.92H75.7385L73.8722 105.98C70.5289 106.159 67.2155 106.799 64.0119 107.418C61.3772 107.927 58.6427 108.456 55.958 108.706C54.7005 108.826 53.4231 108.886 52.1556 108.886C44.8902 108.886 37.7345 106.988 31.477 103.403C28.7125 101.815 26.8163 100.257 25.5189 98.4995C22.7544 94.7445 22.0957 89.2817 23.5628 82.271C25.0299 75.2603 27.8443 70.5765 31.8961 68.3595C34.0818 67.161 36.7664 66.6118 40.3293 66.6118C41.7564 66.6118 43.1936 66.7017 44.2914 66.7815C47.3752 67.0013 50.5189 67.3009 53.5528 67.5905C59.3413 68.1397 65.3293 68.709 71.2375 68.7489H71.3173C72.1955 68.7489 75.0898 68.669 75.7884 68.6291C81.7963 68.2496 87.8642 67.3009 93.7325 66.3821C96.7464 65.9127 99.8702 65.4233 102.924 65.0239C104.661 64.7942 106.707 64.5645 108.673 64.5645M108.683 63.5358C106.726 63.5358 104.74 63.7555 102.804 64.0052C93.7824 65.1936 84.7804 67.0312 75.7285 67.6005C75.0598 67.6404 72.2155 67.7203 71.3173 67.7203C71.2874 67.7203 71.2674 67.7203 71.2474 67.7203C62.2953 67.6604 53.3233 66.3921 44.3712 65.7629C43.0438 65.673 41.6866 65.5931 40.3393 65.5931C37.2255 65.5931 34.1317 65.9926 31.4271 67.4706C26.2774 70.2869 23.7924 76.3089 22.5947 82.0513C21.3872 87.8237 21.2175 94.335 24.7205 99.0788C26.3373 101.276 28.6227 102.904 30.988 104.262C37.3951 107.937 44.7804 109.874 52.1656 109.874C53.463 109.874 54.7704 109.815 56.0578 109.695C62.0658 109.135 67.9141 107.288 73.9321 106.978L75.7784 106.918C75.8682 106.918 75.968 106.918 76.0578 106.918C81.9959 106.918 87.8542 108.356 93.7824 108.556C94.2415 108.576 94.7005 108.576 95.1596 108.576C103.383 108.576 111.607 106.129 118.483 101.615C120.768 100.117 122.944 98.3597 124.431 96.0628C127.635 91.1093 127.086 84.6279 125.529 78.9354C123.982 73.2729 121.138 67.4107 115.828 64.914C113.603 63.8654 111.168 63.5159 108.693 63.5159L108.683 63.5358Z"
    fill="#6346CE"/>
  <path
    d="M73.543 63.6556C73.4731 63.8054 73.4332 63.9652 73.4432 64.1349C73.4831 64.7741 74.1917 65.2634 75.02 65.2335C75.3194 65.2235 75.5889 65.1436 75.8184 65.0138L73.7126 63.4159C73.6428 63.4858 73.5829 63.5657 73.543 63.6456V63.6556Z"
    fill="#6346CE"/>
  <path
    d="M76.3673 64.4446C76.4172 64.3148 76.4471 64.1749 76.4372 64.0251C76.3972 63.386 75.6887 62.8966 74.8603 62.9266C74.5609 62.9366 74.2915 63.0165 74.0719 63.1363L76.1777 64.7342C76.2575 64.6443 76.3174 64.5445 76.3673 64.4446Z"
    fill="#6346CE"/>
  <path
    d="M62.7545 65.4133C63.3933 65.3933 63.9122 65.0638 64.1019 64.6243C64.1418 64.5145 64.1617 64.3946 64.1617 64.2848L61.2476 64.5744C61.4372 65.0837 62.0559 65.4433 62.7645 65.4133H62.7545Z"
    fill="#6346CE"/>
  <path
    d="M62.5948 63.0965C61.986 63.1165 61.487 63.4161 61.2774 63.8256C61.2275 63.9155 61.2076 64.0253 61.1876 64.1252L64.0519 63.8356C63.8224 63.3862 63.2435 63.0666 62.5848 63.0965H62.5948Z"
    fill="#6346CE"/>
  <path
    d="M72.0059 31.9577C71.467 31.9577 71.0279 31.5182 71.0279 30.969C71.0279 16.7079 62.5548 2.06726 56.457 1.96739C56.4371 1.96739 56.4171 1.96739 56.3971 1.96739C52.6846 1.96739 50.3592 8.01938 49.9999 18.5854C49.98 19.1347 49.5209 19.5641 48.982 19.5341C48.4431 19.5141 48.0139 19.0647 48.0339 18.5155C48.5528 3.2457 52.8443 0 56.3872 0C56.4171 0 56.457 0 56.487 0C64.3512 0.129828 72.984 16.3384 72.984 30.969C72.984 31.5083 72.5449 31.9577 72.0059 31.9577Z"
    fill="#6346CE"/>
  <path
    d="M76.1964 31.6333C76.2484 30.8518 74.5652 30.1033 72.4369 29.9615C70.3085 29.8197 68.541 30.3382 68.4889 31.1197C68.4369 31.9012 70.1202 32.6496 72.2485 32.7915C74.3769 32.9333 76.1444 32.4148 76.1964 31.6333Z"
    fill="#6346CE"/>
  <path
    d="M48.3433 23.9383C49.6407 23.8185 50.948 23.5289 52.0858 22.8997C53.2235 22.2705 54.7405 20.9523 54.8203 19.5142C54.97 16.9476 51.0778 16.5981 49.3213 16.2385C47.994 15.9689 46.4071 15.7392 45.1796 16.4682C44.0419 17.1473 43.1237 18.2958 42.9041 19.6241C42.3652 22.8897 45.6786 24.178 48.3333 23.9283L48.3433 23.9383Z"
    fill="#FFA233"/>
  <path
    d="M81.6966 119.542C81.3572 119.542 81.0279 119.362 80.8682 119.042C79.1417 115.687 75.5489 113.54 71.2674 113.3C69.6107 113.12 68.2335 113.49 67.1556 114.388C65.8083 115.507 65.2694 117.155 65.2395 117.604C65.1996 118.113 64.7305 118.493 64.2415 118.463C63.7325 118.423 63.3433 117.974 63.3832 117.464C63.4431 116.645 64.1616 114.458 65.968 112.96C67.455 111.732 69.2914 111.223 71.4271 111.452C76.3273 111.732 80.499 114.249 82.5349 118.193C82.7744 118.653 82.5948 119.212 82.1357 119.452C81.996 119.522 81.8562 119.552 81.7065 119.552L81.6966 119.542Z"
    fill="#432977"/>
  <path
    d="M98.0841 95.3537C92.4353 95.3537 87.5052 91.1792 86.7368 85.4468C86.627 84.6279 87.2058 83.8689 88.0242 83.759C88.8425 83.6492 89.601 84.2284 89.7108 85.0473C90.3196 89.6512 94.601 92.8969 99.2218 92.2777C102.525 91.8383 105.28 89.5014 106.228 86.3256C106.577 85.1771 106.667 83.9987 106.507 82.8103C106.397 81.9913 106.976 81.2324 107.795 81.1225C108.613 81.0126 109.371 81.5919 109.481 82.4108C109.691 84.0286 109.571 85.6265 109.102 87.1845C107.815 91.4888 104.102 94.6546 99.631 95.2438C99.122 95.3137 98.603 95.3437 98.104 95.3437L98.0841 95.3537Z"
    fill="#E6E6FF"/>
  <path
    d="M86.7166 85.3868C88.9322 94.5547 100.389 98.09 106.547 90.4102C108.443 88.1831 109.511 85.3269 109.461 82.3608C109.451 82.3009 109.551 82.2809 109.561 82.3508C110.429 88.4428 105.639 94.6546 99.5709 95.5234C93.4032 96.4622 87.3254 91.5387 86.6168 85.4068C86.6168 85.3469 86.7066 85.3269 86.7166 85.3968V85.3868Z"
    fill="#514AAB"/>
  <path
    d="M50.2097 96.4522C49.8604 96.4522 49.5111 96.4322 49.1518 96.4023C42.8544 95.823 38.2037 90.2504 38.7826 83.9787C38.8624 83.1498 39.581 82.5506 40.4093 82.6205C41.2377 82.7004 41.8365 83.4295 41.7666 84.2484C41.3375 88.8722 44.7806 92.9868 49.4313 93.4162C52.7546 93.7258 55.9482 92.058 57.585 89.1719C58.1738 88.1332 58.5331 87.0047 58.6428 85.8063C58.7227 84.9774 59.4412 84.3782 60.2696 84.4481C61.0979 84.528 61.6967 85.257 61.6269 86.076C61.4772 87.6938 60.9981 89.2318 60.1898 90.6399C58.1538 94.2451 54.3215 96.4422 50.2197 96.4422L50.2097 96.4522Z"
    fill="#E6E6FF"/>
  <path
    d="M38.7725 83.9188C38.9222 93.1965 49.4012 99.6779 57.006 93.3064C59.3114 91.4988 61.018 88.9521 61.6267 86.026C61.6267 85.9661 61.7365 85.9761 61.7265 86.026C61.1776 92.098 55.2595 97.381 49.1018 96.7818C42.994 96.3124 37.7445 89.6412 38.7725 83.9088V83.9188Z"
    fill="#514AAB"/>
  <path
    d="M99.7306 69.5879C104.421 68.7689 112.285 66.2223 115.769 70.6864L114.92 71.2157C112.016 67.1012 104.062 69.0985 99.7306 69.5879Z"
    fill="#ACACFC"/>
  <path
    d="M117.166 72.9933C117.824 74.4813 118.323 76.0093 118.503 77.6072C118.014 76.1291 117.216 74.741 116.317 73.5026L117.176 72.9933H117.166Z"
    fill="#ACACFC"/>
  <defs>
    <linearGradient id="paint0_linear_3048_3466" x1="48.5032" y1="171.689" x2="23.5539" y2="171.69"
                    gradientUnits="userSpaceOnUse">
      <stop offset="0.18" stop-color="#6346CE"/>
      <stop offset="1" stop-color="#877EF8"/>
    </linearGradient>
    <linearGradient id="paint1_linear_3048_3466" x1="129.157" y1="174.47" x2="105.229" y2="170.25"
                    gradientUnits="userSpaceOnUse">
      <stop offset="0.07" stop-color="#877EF8"/>
      <stop offset="0.32" stop-color="#7B6BEA"/>
      <stop offset="0.72" stop-color="#6346CE"/>
    </linearGradient>
    <linearGradient id="paint2_linear_3048_3466" x1="76.4871" y1="210.411" x2="76.4871" y2="133.513"
                    gradientUnits="userSpaceOnUse">
      <stop offset="0.07" stop-color="#6346CE"/>
      <stop offset="0.15" stop-color="#6F58DC"/>
      <stop offset="0.24" stop-color="#7969E8"/>
      <stop offset="0.36" stop-color="#8175F1"/>
      <stop offset="0.53" stop-color="#857CF6"/>
      <stop offset="1" stop-color="#877EF8"/>
    </linearGradient>
    <linearGradient id="paint3_linear_3048_3466" x1="77.05" y1="129.644" x2="73.9485" y2="27.0268"
                    gradientUnits="userSpaceOnUse">
      <stop stop-color="#6346CE"/>
      <stop offset="0.04" stop-color="#6F58DC"/>
      <stop offset="0.1" stop-color="#7969E8"/>
      <stop offset="0.17" stop-color="#8175F1"/>
      <stop offset="0.27" stop-color="#857CF6"/>
      <stop offset="0.54" stop-color="#877EF8"/>
    </linearGradient>
  </defs>
</svg>
