<svg width="185" height="254" viewBox="0 0 185 254" fill="none" xmlns="http://www.w3.org/2000/svg">
  <path
    d="M90.4794 50.1243C88.8689 33.5527 91.2496 20.8968 97.3516 13.545C101.093 9.03998 106.214 6.46284 112.577 5.88348L112.757 7.87128C106.935 8.40069 102.273 10.7381 98.8921 14.8136C94.8808 19.6482 90.5094 29.6671 92.47 49.9245L90.4794 50.1143V50.1243Z"
    fill="#6346CE"/>
  <path
    d="M173.566 90.7692C174.977 101.987 167.004 112.235 155.77 113.654C147.088 114.753 138.995 110.268 135.114 102.996C133.973 100.848 133.193 98.4706 132.873 95.9135C131.463 84.6959 139.425 74.4473 150.669 73.0289C158.942 71.9801 166.674 76.0056 170.725 82.6782C172.196 85.0755 173.186 87.8025 173.556 90.7692H173.566Z"
    fill="#6346CE"/>
  <path
    d="M65.0411 104.424C66.4516 115.642 58.479 125.89 47.2453 127.309C38.5625 128.407 30.4699 123.922 26.5886 116.65C25.4483 114.503 24.668 112.125 24.3479 109.568C22.9375 98.3507 30.9 88.1021 42.1437 86.6837C50.4164 85.6348 58.1489 89.6604 62.2002 96.333C63.6707 98.7303 64.661 101.457 65.0311 104.424H65.0411Z"
    fill="#6346CE"/>
  <path
    d="M164.693 119.707C162.012 139.175 139.005 146.997 105.184 151.242C71.3631 155.477 48.3656 151.412 39.5228 135.4C30.6799 119.387 35.8916 86.374 48.2356 70.6215C57.8387 58.3651 74.5841 51.3929 89.9091 49.475C102.603 47.8868 126.761 49.465 140.455 58.5649C158.001 70.212 167.374 100.249 164.693 119.717V119.707Z"
    fill="url(#paint0_linear_3048_3766)"/>
  <path
    d="M54.3376 193.275C51.1466 184.195 48.7058 168.782 56.0182 162.539C63.8507 155.847 85.5077 165.746 89.0389 166.255C97.1415 167.434 133.333 160.262 140.486 167.014C152.91 178.262 137.194 201.756 137.194 201.756C134.344 207.729 129.912 211.385 127.271 218.457C124.63 225.529 119.519 242.141 105.704 242.141C86.0179 241.991 67.4119 223.851 56.0282 198.09L54.3376 193.285V193.275Z"
    fill="url(#paint1_linear_3048_3766)"/>
  <path
    d="M96.4913 91.3485C96.4613 91.0788 93.6104 64.3685 90.8295 49.2853L91.8098 49.1055C94.6007 64.2287 97.4516 90.9789 97.4816 91.2486L96.4913 91.3585V91.3485Z"
    fill="#6346CE"/>
  <path
    d="M78.1954 108.869C64.601 108.869 50.3863 107.351 34.2711 104.474L34.4512 103.495C82.8269 112.155 114.067 108.43 163.013 88.202L163.393 89.121C130.532 102.706 105.614 108.879 78.1954 108.879V108.869Z"
    fill="#6346CE"/>
  <path
    d="M73.7638 126.969C67.7619 126.969 61.75 125.68 56.3582 123.243C53.3772 121.895 51.2866 120.486 49.7761 118.808C46.555 115.222 45.3446 109.718 46.1549 102.446C46.9652 95.1742 49.3959 90.1199 53.3672 87.4428C56.9584 85.0155 61.6899 84.7059 65.8513 84.596C68.9523 84.5161 72.1233 84.5161 75.1843 84.5161C81.1262 84.5161 87.2682 84.5161 93.2602 83.9567C93.9404 83.8968 96.9214 83.5172 97.7616 83.3773C103.574 82.4284 109.405 80.9401 115.047 79.5016C118.018 78.7425 121.089 77.9634 124.11 77.2641C126.651 76.6848 129.372 76.1454 131.983 76.1454C133.813 76.1454 135.424 76.4051 136.904 76.9345C141.416 78.5427 145.017 82.8379 147.618 89.6803C150.219 96.5227 150.409 102.156 148.178 106.432C147.128 108.44 145.457 110.327 142.906 112.365C136.194 117.729 127.781 120.976 119.199 121.515C118.198 121.575 117.128 121.605 115.938 121.605C114.287 121.605 112.606 121.545 110.976 121.485C109.335 121.425 107.645 121.365 105.974 121.365C104.134 121.365 102.523 121.435 101.053 121.595L99.2121 121.825C95.921 122.314 92.69 123.263 89.569 124.172C86.9781 124.931 84.2873 125.72 81.6064 126.23C79.0456 126.719 76.4147 126.969 73.7739 126.969H73.7638Z"
    fill="#432977"/>
  <path
    d="M131.963 76.6349C133.733 76.6349 135.294 76.8846 136.714 77.394C141.076 78.9523 144.587 83.1476 147.128 89.8502C149.679 96.5527 149.869 102.057 147.718 106.192C146.708 108.13 145.067 109.968 142.576 111.966C135.944 117.27 127.631 120.476 119.149 121.006C118.158 121.066 117.098 121.095 115.918 121.095C114.277 121.095 112.597 121.036 110.966 120.976C109.325 120.916 107.625 120.856 105.954 120.856C104.094 120.856 102.473 120.926 100.963 121.085L99.1122 121.315C95.7911 121.805 92.55 122.764 89.409 123.683C86.8282 124.442 84.1573 125.221 81.4965 125.73C78.9656 126.21 76.3648 126.46 73.764 126.46C67.842 126.46 61.8901 125.191 56.5584 122.784C53.6474 121.465 51.6068 120.097 50.1463 118.468C47.0253 114.992 45.8549 109.618 46.6552 102.496C47.4554 95.3741 49.8062 90.4495 53.6474 87.8524C57.1286 85.505 61.59 85.1954 65.8614 85.0955C68.9524 85.0156 72.1234 85.0156 75.1844 85.0156C81.1363 85.0156 87.2883 85.0156 93.3003 84.4562C93.9905 84.3963 96.9915 84.0067 97.8318 83.8768C103.674 82.9279 109.516 81.4395 115.157 79.9911C118.118 79.232 121.189 78.4529 124.2 77.7636C126.711 77.1843 129.392 76.6549 131.963 76.6549M131.963 75.636C129.302 75.636 126.581 76.1754 123.97 76.7747C115.197 78.7825 106.505 81.4395 97.6617 82.8779C96.8614 83.0078 93.8905 83.3874 93.2003 83.4473C84.1473 84.2864 74.9443 83.8569 65.8314 84.0866C61.4099 84.1965 56.7484 84.5461 53.0873 87.0133C48.2157 90.2997 46.3151 96.5428 45.6548 102.376C44.9946 108.24 45.4548 114.743 49.3961 119.128C51.2266 121.165 53.6474 122.564 56.1382 123.693C61.65 126.18 67.702 127.458 73.754 127.458C76.4148 127.458 79.0657 127.209 81.6765 126.719C87.6185 125.59 93.2703 123.203 99.2522 122.314L101.083 122.084C102.703 121.915 104.324 121.865 105.954 121.865C109.275 121.865 112.597 122.094 115.918 122.094C117.018 122.094 118.108 122.064 119.209 122.004C127.902 121.465 136.404 118.189 143.196 112.755C145.327 111.047 147.338 109.089 148.598 106.662C151.329 101.427 150.159 95.0244 148.058 89.5006C145.977 84.0067 142.586 78.4429 137.044 76.4651C135.404 75.8757 133.693 75.646 131.953 75.646L131.963 75.636Z"
    fill="#6346CE"/>
  <path
    d="M86.9882 193.056C86.7581 193.056 86.548 192.896 86.498 192.656C83.8072 180.12 87.1282 172.209 89.3189 166.965C89.429 166.715 89.7191 166.595 89.9692 166.695C90.2192 166.805 90.3393 167.094 90.2392 167.344C88.0885 172.468 84.8475 180.21 87.4683 192.436C87.5284 192.706 87.3583 192.976 87.0882 193.026C87.0482 193.026 87.0182 193.036 86.9882 193.036V193.056Z"
    fill="#6346CE"/>
  <path
    d="M91.2089 78.2131C91.1489 78.1132 91.0689 78.0233 90.9789 77.9434L89.2689 80.3207C89.5189 80.4406 89.8089 80.5005 90.1089 80.4606C90.9289 80.3607 91.5089 79.6115 91.4089 78.7924C91.3789 78.5727 91.3089 78.3829 91.1989 78.2031L91.2089 78.2131Z"
    fill="#6346CE"/>
  <path
    d="M89.7387 77.5039C88.9187 77.6037 88.3387 78.3529 88.4387 79.172C88.4587 79.3618 88.5187 79.5316 88.5987 79.6914C88.6687 79.8213 88.7587 79.9312 88.8587 80.0311L90.5687 77.6437C90.3187 77.5238 90.0287 77.4739 89.7387 77.5039Z"
    fill="#6346CE"/>
  <path
    d="M103.363 76.3551C103.063 75.8657 102.503 75.576 101.893 75.6559C101.223 75.7358 100.723 76.2552 100.613 76.8745L103.523 76.7547C103.483 76.6148 103.433 76.475 103.363 76.3551Z"
    fill="#6346CE"/>
  <path
    d="M100.613 77.374C100.643 77.5338 100.683 77.6937 100.763 77.8335C101.043 78.3629 101.633 78.6926 102.273 78.6126C102.993 78.5227 103.523 77.9434 103.583 77.2542L100.623 77.374H100.613Z"
    fill="#6346CE"/>
  <path
    d="M110.666 128.098C111.836 136.388 107.165 140.144 102.953 140.594C100.342 140.873 93.7603 138.706 92.77 130.855C92.5399 130.165 92.4299 129.426 92.4599 128.657C92.4999 127.818 97.9217 126.809 100.833 126.39C103.744 125.97 110.016 125.031 110.226 125.57C110.536 126.35 110.536 127.209 110.656 128.098H110.666Z"
    fill="#432977"/>
  <path
    d="M118.889 4.71475C119.019 6.00332 118.999 7.33184 118.618 8.58045C118.238 9.82907 117.278 11.5472 115.918 11.9167C113.487 12.566 112.406 8.83018 111.716 7.192C111.196 5.94339 110.676 4.44505 111.136 3.10654C111.566 1.85792 112.486 0.739168 113.717 0.2597C116.728 -0.909001 118.608 2.06769 118.889 4.71475Z"
    fill="#FFA233"/>
  <path
    d="M113.527 225.959C113.327 225.959 113.137 225.839 113.057 225.639C110.316 218.437 110.456 209.297 110.556 202.615C110.616 198.33 110.676 194.284 109.796 193.685C109.756 193.655 109.636 193.575 109.316 193.695C97.2716 196.322 81.4865 192.027 73.0137 189.719C71.2732 189.24 69.7627 188.83 68.6623 188.58C67.8521 188.391 67.2619 188.501 66.8117 188.93C64.481 191.108 65.7614 201.696 67.5019 212.814C67.542 213.083 67.3619 213.343 67.0818 213.383C66.8217 213.423 66.5516 213.243 66.5116 212.963C64.0108 196.971 63.9008 190.259 66.1215 188.191C66.8217 187.542 67.742 187.342 68.8824 187.602C70.0028 187.861 71.5232 188.271 73.2738 188.75C81.6665 191.038 97.3016 195.293 109.025 192.746C109.616 192.506 110.086 192.676 110.366 192.866C111.626 193.735 111.636 196.811 111.556 202.635C111.456 209.237 111.326 218.267 113.997 225.29C114.097 225.549 113.967 225.839 113.707 225.939C113.647 225.959 113.587 225.969 113.527 225.969V225.959Z"
    fill="#6346CE"/>
  <path
    d="M105.344 198.559C105.034 197.77 104.344 197.221 103.544 197.221C102.613 197.221 101.843 197.96 101.633 198.949L105.494 199.328C105.474 199.059 105.424 198.799 105.334 198.559H105.344Z"
    fill="#6346CE"/>
  <path
    d="M101.703 200.297C101.983 201.146 102.703 201.756 103.544 201.756C104.444 201.756 105.194 201.057 105.434 200.108L101.593 199.738C101.613 199.938 101.643 200.128 101.703 200.297Z"
    fill="#6346CE"/>
  <path
    d="M69.8222 196.082C70.6922 196.082 71.4021 195.063 71.4021 193.815C71.4021 193.505 71.3521 193.215 71.2721 192.946L68.7021 195.413C68.9921 195.822 69.3822 196.082 69.8222 196.082Z"
    fill="#6346CE"/>
  <path
    d="M69.8222 191.547C68.9522 191.547 68.2422 192.556 68.2422 193.815C68.2422 194.094 68.2822 194.374 68.3422 194.624C68.3522 194.664 68.3722 194.704 68.3822 194.754L70.9622 192.276C70.6722 191.837 70.2722 191.557 69.8222 191.557V191.547Z"
    fill="#6346CE"/>
  <path
    d="M12.324 150.623C21.0069 159.393 24.7281 161.271 29.4696 165.626C34.5012 170.251 35.2915 179.71 38.5025 178.062C41.5535 176.494 42.0137 172.468 42.0137 167.684C42.0137 162.889 38.6126 150.852 34.2111 142.432C32.2305 138.646 30.1398 135.28 27.9891 132.353C26.1785 129.886 24.3379 127.738 22.5073 125.9C17.0256 120.426 11.5938 117.819 7.31242 118.398C-4.4614 119.827 -1.44042 136.319 12.334 150.623H12.324Z"
    fill="url(#paint2_linear_3048_3766)"/>
  <path
    d="M6.18204 123.493C6.39211 124.162 6.75223 124.771 7.14235 125.341C9.93326 129.416 14.5448 131.794 18.9562 134.021C19.7664 134.431 20.5767 134.84 21.457 135.06C21.7671 135.14 22.1172 135.19 22.3973 135.05C22.7774 134.86 22.9275 134.411 23.0075 133.991C23.7077 130.435 21.7671 126.769 19.0062 124.422C16.5754 122.364 13.5444 121.036 10.5735 119.967C8.04264 119.068 5.20172 120.376 6.18204 123.483V123.493Z"
    fill="#6346CE"/>
  <path
    d="M165.194 170.441C153.87 176.873 149.569 177.713 143.507 180.789C137.084 184.046 133.533 193.425 130.762 190.838C128.132 188.391 128.832 184.175 130.222 179.311C131.613 174.456 138.535 163.209 145.437 155.907C148.538 152.63 151.629 149.814 154.65 147.456C157.191 145.468 159.672 143.81 162.063 142.472C169.195 138.476 175.437 137.377 179.608 139.175C191.102 143.96 183.259 159.832 165.194 170.431V170.441Z"
    fill="url(#paint3_linear_3048_3766)"/>
  <path
    d="M110.616 104.704C110.186 104.704 109.796 104.454 109.616 104.074C109.425 103.675 109.495 103.205 109.776 102.876C114.247 97.7315 127.251 93.8757 127.801 93.7059C128.392 93.5361 129.002 93.8658 129.172 94.4551C129.342 95.0444 129.012 95.6538 128.422 95.8236C128.312 95.8536 118.959 98.6305 113.707 102.346C115.527 102.236 117.218 102.097 118.869 101.957C122.89 101.617 126.691 101.297 131.743 101.477C132.353 101.497 132.833 102.007 132.813 102.616C132.793 103.225 132.303 103.715 131.673 103.685C126.761 103.515 123.02 103.835 119.069 104.164C116.478 104.384 113.797 104.604 110.656 104.704C110.646 104.704 110.636 104.704 110.616 104.704Z"
    fill="#E6E6FF"/>
  <path
    d="M65.8614 113.724C65.4112 113.724 64.9911 113.444 64.8211 113.004C64.611 112.435 64.9011 111.796 65.4713 111.586C70.2028 109.828 73.914 108.929 77.8353 107.97C79.4458 107.58 81.0863 107.181 82.8469 106.711C76.6949 104.853 66.9417 105.173 66.8217 105.183C66.2215 105.203 65.7013 104.724 65.6713 104.114C65.6513 103.505 66.1315 102.996 66.7417 102.966C67.3119 102.946 80.8763 102.496 86.7482 105.962C87.1283 106.182 87.3384 106.612 87.2883 107.051C87.2383 107.491 86.9282 107.85 86.5081 107.98C83.4971 108.879 80.8863 109.508 78.3654 110.128C74.5042 111.067 70.863 111.946 66.2515 113.664C66.1215 113.714 65.9914 113.734 65.8614 113.734V113.724Z"
    fill="#E6E6FF"/>
  <path
    d="M123.96 82.4984C130.462 78.9223 138.585 80.8502 140.646 88.5217C140.776 88.9512 140.876 89.3807 140.966 89.8102L140.876 89.8502C137.645 81.6393 131.693 80.5405 123.96 82.4984Z"
    fill="#ACACFC"/>
  <defs>
    <linearGradient id="paint0_linear_3048_3766" x1="104.892" y1="151.276" x2="92.0501" y2="49.1925"
                    gradientUnits="userSpaceOnUse">
      <stop stop-color="#6346CE"/>
      <stop offset="0.03" stop-color="#6E58DB"/>
      <stop offset="0.08" stop-color="#7A69E8"/>
      <stop offset="0.14" stop-color="#8275F1"/>
      <stop offset="0.22" stop-color="#867CF6"/>
      <stop offset="0.42" stop-color="#887EF8"/>
    </linearGradient>
    <linearGradient id="paint1_linear_3048_3766" x1="98.2519" y1="242.131" x2="98.2519" y2="160.222"
                    gradientUnits="userSpaceOnUse">
      <stop offset="0.09" stop-color="#6346CE"/>
      <stop offset="0.15" stop-color="#6A50D6"/>
      <stop offset="0.3" stop-color="#7764E5"/>
      <stop offset="0.47" stop-color="#8073EF"/>
      <stop offset="0.67" stop-color="#867BF6"/>
      <stop offset="1" stop-color="#887EF8"/>
    </linearGradient>
    <linearGradient id="paint2_linear_3048_3766" x1="27.5185" y1="180.287" x2="15.0397" y2="116.84"
                    gradientUnits="userSpaceOnUse">
      <stop stop-color="#6346CE"/>
      <stop offset="0.08" stop-color="#6C54D8"/>
      <stop offset="0.21" stop-color="#7867E6"/>
      <stop offset="0.37" stop-color="#8174F0"/>
      <stop offset="0.58" stop-color="#867BF6"/>
      <stop offset="1" stop-color="#887EF8"/>
    </linearGradient>
    <linearGradient id="paint3_linear_3048_3766" x1="141.248" y1="196.308" x2="172.171" y2="135.418"
                    gradientUnits="userSpaceOnUse">
      <stop stop-color="#6346CE"/>
      <stop offset="0.08" stop-color="#6C54D8"/>
      <stop offset="0.21" stop-color="#7867E6"/>
      <stop offset="0.37" stop-color="#8174F0"/>
      <stop offset="0.58" stop-color="#867BF6"/>
      <stop offset="1" stop-color="#887EF8"/>
    </linearGradient>
  </defs>
</svg>
