<?xml version="1.0" encoding="utf-8"?>
<!-- Generator: Adobe Illustrator 28.3.0, SVG Export Plug-In . SVG Version: 6.00 Build 0)  -->
<svg version="1.1" xmlns="http://www.w3.org/2000/svg" xmlns:xlink="http://www.w3.org/1999/xlink" x="0px" y="0px"
	 viewBox="0 0 191.4 301.3" style="enable-background:new 0 0 191.4 301.3;" xml:space="preserve">
<style type="text/css">
	.st0{fill:url(#SVGID_1_);}
	.st1{fill:none;stroke:#6346CE;stroke-linecap:round;stroke-linejoin:round;stroke-miterlimit:10;}
	.st2{fill:#6346CE;}
	.st3{fill:url(#SVGID_00000075153361957767733750000013290506655904229765_);}
	.st4{fill:#C7C7FF;}
	.st5{fill:url(#SVGID_00000120550842319910490760000001523584540923619767_);}
	.st6{fill:url(#SVGID_00000090256322699914228440000006047231647093089672_);}
	.st7{fill:none;stroke:#6346CE;stroke-miterlimit:10;}
	.st8{fill:#432977;}
	.st9{fill:none;stroke:#6346CE;stroke-width:2;stroke-linecap:round;stroke-linejoin:round;stroke-miterlimit:10;}
	.st10{fill:#FFA233;}
	.st11{fill:#514AAB;}
	.st12{fill:#E6E6FF;}
	.st13{fill:#ACACFC;}
	.st14{fill:url(#SVGID_00000062911703078487764620000012763403791715957638_);}
	.st15{fill:url(#SVGID_00000121958057150667842030000002577572794874138767_);}
	.st16{fill:url(#SVGID_00000000937990174488880680000009347218597127908011_);}
	.st17{fill:url(#SVGID_00000163793481067915117160000009988799393061663364_);}
	.st18{fill:url(#SVGID_00000147184386437214169920000004167380468015622578_);}
	.st19{fill:url(#SVGID_00000055677651215589794860000002827741288464134538_);}
	.st20{fill:url(#SVGID_00000071542997841265022830000011520515505368969350_);}
	.st21{fill:url(#SVGID_00000104683234397401346550000004300715980883655848_);}
	.st22{fill:none;stroke:#E6E6FF;stroke-width:3;stroke-linecap:round;stroke-linejoin:round;stroke-miterlimit:10;}
	.st23{fill:#F48811;}
	.st24{fill:#FFBE69;}
	.st25{fill:url(#SVGID_00000083063163808867197380000017480010958472566443_);}
	.st26{fill:url(#SVGID_00000051373485028725249300000002672566744479466640_);}
	.st27{fill:none;stroke:#432977;stroke-linecap:round;stroke-linejoin:round;stroke-miterlimit:10;}
	.st28{fill:url(#SVGID_00000040536035146520015650000003489467105300364466_);}
	.st29{fill:url(#SVGID_00000005987448789829901390000014132704720913084094_);}
	.st30{fill:url(#SVGID_00000139286079448156444360000012482284226516613288_);}
	.st31{fill:none;stroke:#6346CE;stroke-width:2;stroke-miterlimit:10;}
	.st32{fill:url(#SVGID_00000018929839948419423470000016518499344673396121_);}
	.st33{fill:url(#SVGID_00000098921333991235272800000015209299328153587873_);}
	.st34{fill:url(#SVGID_00000084507247374335132440000015821848637734330794_);}
	.st35{fill:none;stroke:#432977;stroke-width:2;stroke-linecap:round;stroke-linejoin:round;stroke-miterlimit:10;}
	.st36{fill:url(#SVGID_00000059998876698663502210000002764221278199710094_);}
	.st37{fill:none;stroke:#A5ADBA;stroke-linecap:round;stroke-linejoin:round;stroke-miterlimit:10;}
	.st38{fill:url(#SVGID_00000072264600390001801210000004158346501016541340_);}
	.st39{fill:url(#SVGID_00000018917836403636058320000005678353189653280134_);}
	.st40{fill:url(#SVGID_00000093178926444193458810000003502044024527244979_);}
	.st41{fill:url(#SVGID_00000085251315664112294250000018254644023646032793_);}
	.st42{fill:url(#SVGID_00000148630124419935497370000006437802938776784554_);}
	.st43{fill:url(#SVGID_00000034083201015106328800000002745279754143649203_);}
	.st44{fill:url(#SVGID_00000064326115351784228500000010147862667293620132_);}
	.st45{fill:#FFD28E;}
	.st46{fill:#A5ADBA;}
	.st47{fill:none;stroke:#FFFFFF;stroke-width:0.6837;stroke-miterlimit:10;}
	.st48{fill:url(#SVGID_00000065076940273921713010000014605348877991162269_);}
	.st49{fill:url(#SVGID_00000077285603539688675110000005727726887744403083_);}
	.st50{fill:url(#SVGID_00000065073330267188118180000003507796068698405008_);}
	.st51{fill:url(#SVGID_00000009581827292747315560000013982738776906242738_);}
	.st52{fill:url(#SVGID_00000034769205291061185150000006756662981116735663_);}
	.st53{fill:url(#SVGID_00000061456282977694901600000016094901849401864114_);}
	.st54{fill:url(#SVGID_00000021115581889510859660000009695711187693156761_);}
	.st55{fill:url(#SVGID_00000098914471522010264880000014581319913762207922_);}
	.st56{fill:url(#SVGID_00000085224111462382726520000010974302040241091995_);}
	.st57{fill:url(#SVGID_00000034085189420780323000000015686470263946697379_);}
	.st58{fill:url(#SVGID_00000063625893479293518060000007858974517930283178_);}
	.st59{fill:url(#SVGID_00000018951976172809361080000014191175396591100312_);}
	.st60{fill:url(#SVGID_00000135669675059198113160000008208321945565797789_);}
	.st61{fill:url(#SVGID_00000158742418150448036950000013611560571730622866_);}
	.st62{display:none;}
	.st63{display:inline;}
	.st64{fill:url(#SVGID_00000073688896038520194050000010503950983282589351_);}
	.st65{display:inline;fill:url(#SVGID_00000013176905361066066190000003997271331364384903_);}
	.st66{fill:url(#SVGID_00000134225631106654173770000002504501063765843847_);}
	.st67{display:inline;fill:url(#SVGID_00000176013702546251895620000007198190117363122332_);}
	.st68{display:inline;fill:#ACACFC;}
	.st69{fill:url(#SVGID_00000165230186779998016150000013594730398704287117_);}
	.st70{fill:url(#SVGID_00000108989226189070596440000001285534347579338934_);}
	.st71{display:inline;fill:url(#SVGID_00000062890255335985832110000008436504610838706306_);}
	.st72{display:inline;fill:url(#SVGID_00000000219373767473107760000014876018827083634309_);}
	.st73{display:inline;fill:#6346CE;}
	.st74{fill:url(#SVGID_00000106116955985208404630000003681429382025391488_);}
	.st75{display:inline;fill:url(#SVGID_00000002373978143322265950000017809724133805712014_);}
	.st76{display:inline;fill:url(#SVGID_00000043437684212638211330000012608297392128815282_);}
	.st77{fill:url(#SVGID_00000147212445491760103680000017292145547675900825_);}
	.st78{display:inline;fill:url(#SVGID_00000142157759015656387990000013943392152017879205_);}
	.st79{display:inline;fill:url(#SVGID_00000012465395244108176020000004440700258562198149_);}
	.st80{display:inline;fill:url(#SVGID_00000111193452947934243810000011234206118376706214_);}
	.st81{fill:url(#SVGID_00000178925738536264841230000010398464186903793328_);}
	.st82{fill:url(#SVGID_00000154405606662615803140000005303511406007693698_);}
	.st83{display:inline;fill:url(#SVGID_00000088826194295083948700000006954816136676738689_);}
	.st84{display:inline;fill:url(#SVGID_00000054244751854533164030000002229631375630753464_);}
	.st85{display:inline;fill:url(#SVGID_00000063608435001249367970000010916934968487305362_);}
	.st86{display:inline;fill:url(#SVGID_00000122701332280233058080000004551484588512312994_);}
	.st87{fill:url(#SVGID_00000143587681889344843240000012820378076372084892_);}
	.st88{fill:url(#SVGID_00000157289987015525740900000006620205571070122389_);}
	.st89{fill:url(#SVGID_00000132081452971258529580000000205276980503434399_);}
	.st90{fill:url(#SVGID_00000013158844302166319710000017722964969445490324_);}
</style>
<g id="deçu">
</g>
<g id="triste">
</g>
<g id="endormi">
</g>
<g id="veille">
</g>
<g id="com">
</g>
<g id="basique">
</g>
<g id="indice">
</g>
<g id="content">
</g>
<g id="super_content">
</g>
<g id="mauvaise_rep">
</g>
<g id="DEF-PRODUIT">
	<g id="INDICE" class="st62">
		<g class="st63">
			<g>
				
					<linearGradient id="SVGID_1_" gradientUnits="userSpaceOnUse" x1="156.3599" y1="202.8708" x2="143.2959" y2="141.4092" gradientTransform="matrix(0.9887 0.1499 -0.1499 0.9887 22.3257 31.587)">
					<stop  offset="0" style="stop-color:#6346CE"/>
					<stop  offset="7.974003e-02" style="stop-color:#6F58DC"/>
					<stop  offset="0.19" style="stop-color:#7A69E8"/>
					<stop  offset="0.326" style="stop-color:#8275F1"/>
					<stop  offset="0.5136" style="stop-color:#877CF7"/>
					<stop  offset="1" style="stop-color:#887EF8"/>
				</linearGradient>
				<path class="st0" d="M154.4,222.3c4.8,16.8,2.3,31.1-3.9,33c-3,0.9-5.9-1.6-8.9-4.8c-3-3.3-8.9-13.2-8-24.2
					c0.8-9.4,0.5-15.8,0.2-17.4c-1.9-8.8-2.9-12.2-0.5-14.4c5.6-4.1,10.1,3.4,12.9,7.8C148.9,206.7,152.1,214.2,154.4,222.3z"/>
			</g>
			<g>
				<path class="st2" d="M145.7,252.6c0.9,0.9,2.3,1.8,3.4,1.1c0.5-0.3,0.8-0.9,0.9-1.5c0.2-1.3-0.1-2.6-0.6-3.8
					c-0.7-2-1.6-4-2.6-5.9c-2.7-4.6-8-8.5-8.6-6.8C136.9,242.5,141.6,248.6,145.7,252.6z"/>
			</g>
		</g>
		<g class="st63">
			<path class="st2" d="M105.3,78.9l-1.9-0.4c2.3-11.1,9-29.7,28.1-29.7v2C113.8,50.9,107.5,68.4,105.3,78.9z"/>
		</g>
		<g class="st63">
			<path class="st2" d="M66.5,126c-1,11.3-11,19.6-22.3,18.6c-8.7-0.8-15.7-7-17.9-14.9c-0.7-2.3-0.9-4.9-0.7-7.4
				c1-11.3,11-19.6,22.3-18.6c8.3,0.8,15,6.4,17.6,13.8C66.4,120.1,66.8,123,66.5,126z"/>
		</g>
		
			<linearGradient id="SVGID_00000072252460298631867110000002802570236528560531_" gradientUnits="userSpaceOnUse" x1="102.5342" y1="182.3316" x2="102.5342" y2="79.2336" gradientTransform="matrix(0.9958 9.151340e-02 -9.151340e-02 0.9958 9.9626 -10.5805)">
			<stop  offset="0.1285" style="stop-color:#6449D1"/>
			<stop  offset="0.1641" style="stop-color:#6F59DD"/>
			<stop  offset="0.2188" style="stop-color:#7A6AE9"/>
			<stop  offset="0.287" style="stop-color:#8275F2"/>
			<stop  offset="0.3826" style="stop-color:#877CF7"/>
			<stop  offset="0.648" style="stop-color:#887EF8"/>
		</linearGradient>
		<path style="display:inline;fill:url(#SVGID_00000072252460298631867110000002802570236528560531_);" d="M160.6,162.3
			c-6.8,18.5-31,21.2-64.9,18.1c-33.9-3.1-55.5-12-60.7-29.6C29.8,133.2,42,102,57.5,89.3c12-9.9,29.9-13.2,45.3-11.8
			c12.7,1.2,36,7.9,47.4,19.7C164.7,112.4,167.4,143.8,160.6,162.3z"/>
		<g class="st63">
			<path class="st2" d="M91.1,107.1l-1-0.1c0.1-1,1.6-25.6,13.9-30.1l0.9,0.8C92.8,81.7,91.1,106.8,91.1,107.1z"/>
		</g>
		<g class="st63">
			<path class="st2" d="M165.8,136.9c-35.8-19.1-76.9-24.7-129.1-17.5l-0.1-1c52.5-7.2,93.7-1.6,129.7,17.6L165.8,136.9z"/>
		</g>
		<g class="st63">
			<path class="st8" d="M113.8,146.3c-1.8,0-3.6-0.1-5.4-0.4c-2.4-0.4-4.8-1.1-7.2-1.7c-2.8-0.8-5.7-1.6-8.7-1.9l-1.7-0.2
				c-0.7,0-1.4-0.1-2.2-0.1c-2.2,0-4.5,0.2-6.7,0.4c-2.2,0.2-4.4,0.4-6.6,0.4c-0.2,0-0.5,0-0.7,0c-7.7-0.2-15.3-3-21.4-8.1
				c-2.3-1.9-3.9-3.7-4.8-5.7c-2.1-4.2-2-9.9,0.2-16.8c1.6-5.2,3.8-10.8,8.6-13c1.6-0.7,3.7-1.1,6-1.1c1.9,0,3.9,0.2,6.1,0.7
				c2.7,0.6,5.5,1.2,8.2,1.8c5.2,1.2,10.6,2.5,15.9,3.2c0.6,0.1,3.3,0.3,4.1,0.4c1.5,0.1,3.1,0.1,4.8,0.1c3.7,0,7.5-0.2,11.1-0.4
				c2.7-0.1,5.6-0.3,8.4-0.3c0.5,0,0.9,0,1.4,0c3.2,0,6.8,0.3,9.8,2.3c3.6,2.5,5.9,7.5,6.8,14.7c0.9,7.3-0.1,12.9-2.9,16.6
				c-1.3,1.8-3.2,3.3-5.8,4.7C125.7,144.7,119.7,146.3,113.8,146.3C113.8,146.3,113.8,146.3,113.8,146.3z"/>
			<g>
				<path class="st2" d="M63.2,98.5c1.8,0,3.9,0.2,6,0.7c2.7,0.6,5.5,1.2,8.1,1.8c5.2,1.2,10.6,2.5,16,3.2c0.6,0.1,3.3,0.3,4.1,0.4
					c1.5,0.1,3.1,0.1,4.8,0.1c3.7,0,7.5-0.2,11.1-0.4c2.7-0.1,5.6-0.3,8.3-0.3c0.5,0,0.9,0,1.4,0c3.1,0,6.7,0.3,9.5,2.2
					c3.5,2.4,5.7,7.3,6.5,14.4c0.9,7.1-0.1,12.6-2.8,16.2c-1.3,1.7-3.1,3.2-5.6,4.6c-5.2,2.9-11,4.5-16.9,4.5
					c-1.8,0-3.6-0.1-5.3-0.4c-2.4-0.4-4.8-1.1-7.1-1.7c-2.8-0.8-5.8-1.6-8.8-2l-1.7-0.2c-0.7,0-1.4-0.1-2.2-0.1
					c-2.3,0-4.5,0.2-6.8,0.4c-2.2,0.2-4.4,0.4-6.6,0.4c-0.2,0-0.5,0-0.7,0c-7.6-0.2-15-3-21.1-8c-2.3-1.9-3.8-3.6-4.7-5.5
					c-2-4.1-2-9.6,0.2-16.5c1.6-5.1,3.7-10.6,8.3-12.7C59,98.8,60.9,98.5,63.2,98.5 M63.2,97.5c-2.2,0-4.3,0.3-6.2,1.2
					c-4.9,2.2-7.1,7.7-8.9,13.3c-1.8,5.6-2.7,12.1-0.1,17.2c1.2,2.4,3,4.2,5,5.9c6.2,5.2,13.9,8.1,21.7,8.2c0.2,0,0.5,0,0.7,0
					c4.4,0,8.9-0.8,13.3-0.8c0.7,0,1.4,0,2.2,0.1l1.6,0.2c5.4,0.6,10.5,2.8,15.8,3.7c1.8,0.3,3.6,0.4,5.4,0.4c6,0,12-1.6,17.4-4.6
					c2.2-1.2,4.4-2.7,6-4.9c3.4-4.6,3.7-11.1,3-17c-0.7-5.8-2.5-12-7-15.1c-2.9-2-6.5-2.4-10.1-2.4c-0.5,0-1,0-1.4,0
					c-6.5,0.1-13,0.7-19.4,0.7c-1.6,0-3.2,0-4.8-0.1c-0.7,0-3.4-0.3-4-0.4c-8.1-1-16-3.4-24-5C67.5,97.8,65.3,97.5,63.2,97.5
					L63.2,97.5z"/>
			</g>
		</g>
		<g class="st63">
			<g>
				<path class="st2" d="M86.1,98.8c0.7,0.3,1.5-0.1,1.8-0.8c0.1-0.2,0.1-0.4,0.1-0.6c0-0.1,0-0.2,0-0.3l-2.4,1.3
					C85.7,98.5,85.9,98.7,86.1,98.8z"/>
			</g>
			<g>
				<path class="st2" d="M87.3,96.1c-0.7-0.3-1.5,0.1-1.8,0.8c-0.1,0.2-0.1,0.4-0.1,0.5c0,0.1,0,0.3,0,0.4l2.4-1.3
					C87.7,96.4,87.5,96.2,87.3,96.1z"/>
			</g>
			<g>
				<path class="st2" d="M99.5,99.2c-0.1-0.6-0.5-1-1.1-1.1c-0.6-0.1-1.2,0.2-1.5,0.8l2.6,0.8C99.5,99.5,99.5,99.3,99.5,99.2z"/>
			</g>
			<g>
				<path class="st2" d="M96.7,99.8c0.1,0.6,0.5,1.1,1.1,1.2c0.7,0.1,1.3-0.2,1.6-0.9l-2.6-0.8C96.7,99.5,96.7,99.6,96.7,99.8z"/>
			</g>
		</g>
		<g class="st63">
			<path class="st10" d="M135.5,47.4c0.2,1.3,0.2,2.6-0.1,3.9c-0.3,1.3-1.2,3-2.5,3.5c-2.4,0.8-3.6-3-4.3-4.6
				c-0.6-1.2-1.1-2.7-0.7-4.1c0.4-1.3,1.2-2.4,2.4-3C133.2,41.9,135.2,44.8,135.5,47.4z"/>
		</g>
		<g class="st63">
			<path class="st11" d="M69.1,130.9c-0.8,0-1.6-0.1-2.4-0.2c-5-1-9-5.1-9.9-10.1c-0.3-1.5-0.2-3,0.1-4.5c1.1-5.8,6.3-10,12.2-10
				c0.8,0,1.6,0.1,2.4,0.2c4.8,1,8.6,4.6,9.7,9.4c0.4,1.7,0.4,3.5,0.1,5.2C80.1,126.7,75,130.9,69.1,130.9z"/>
			<g>
				<path class="st12" d="M69,107.1c0.7,0,1.5,0.1,2.3,0.2c4.6,0.9,8,4.4,8.9,8.6c0.4,1.5,0.4,3.1,0.1,4.8
					c-1.1,5.4-5.9,9.2-11.2,9.2c-0.7,0-1.5-0.1-2.3-0.2c-4.8-1-8.3-4.7-9.1-9.3c-0.2-1.3-0.2-2.7,0.1-4.1
					C58.9,110.8,63.6,107.1,69,107.1 M69,105.1L69,105.1c-6.4,0-11.9,4.5-13.2,10.8c-0.3,1.6-0.3,3.2-0.1,4.9
					c0.9,5.4,5.2,9.8,10.7,10.9c0.9,0.2,1.8,0.3,2.6,0.3c6.4,0,11.9-4.5,13.2-10.8c0.4-1.9,0.3-3.8-0.1-5.6
					c-1.2-5.1-5.3-9.1-10.5-10.1C70.8,105.1,69.9,105.1,69,105.1L69,105.1z"/>
			</g>
		</g>
		<g class="st63">
			
				<ellipse transform="matrix(0.1945 -0.9809 0.9809 0.1945 -56.8178 158.3602)" class="st4" cx="68" cy="113.8" rx="4.6" ry="6.3"/>
		</g>
		<g class="st63">
			<path class="st12" d="M126.4,129.8c-0.1,0-0.2,0-0.3,0c-4.7-1.4-8.4-2-12.4-2.7c-2.6-0.4-5.2-0.9-8.3-1.6
				c-0.4-0.1-0.8-0.4-0.8-0.9c-0.1-0.4,0.1-0.9,0.5-1.1c5.6-3.9,19.2-4.4,19.8-4.4c0.6,0,1.1,0.5,1.1,1.1c0,0.6-0.5,1.1-1.1,1.1
				c-0.1,0-9.9,0.4-15.9,2.7c1.8,0.3,3.5,0.6,5.1,0.9c4,0.7,7.8,1.3,12.6,2.7c0.6,0.2,0.9,0.8,0.8,1.4
				C127.3,129.5,126.9,129.8,126.4,129.8z"/>
		</g>
		<g class="st63">
			
				<linearGradient id="SVGID_00000128443066013964142980000002706878349276504226_" gradientUnits="userSpaceOnUse" x1="-471.2878" y1="248.991" x2="-414.2673" y2="181.0367" gradientTransform="matrix(-1 0 0 1 -344.9437 0)">
				<stop  offset="9.497207e-02" style="stop-color:#6346CE"/>
				<stop  offset="0.1193" style="stop-color:#654AD1"/>
				<stop  offset="0.3024" style="stop-color:#7561E2"/>
				<stop  offset="0.4991" style="stop-color:#8071EE"/>
				<stop  offset="0.7175" style="stop-color:#867BF6"/>
				<stop  offset="1" style="stop-color:#887EF8"/>
			</linearGradient>
			<path style="fill:url(#SVGID_00000128443066013964142980000002706878349276504226_);" d="M140.2,220.4c3.2-9.1,5.6-24.6-1.7-30.9
				c-7.9-6.7-29.6,3.2-33.1,3.7c-8.1,1.2-44.4-6-51.6,0.8c-12.5,11.3,3.3,34.9,3.3,34.9c2.9,6,7.3,9.7,10,16.8
				c2.6,7.1,7.8,23.8,21.6,23.8c19.7-0.2,38.4-18.4,49.8-44.2L140.2,220.4z"/>
			<g>
				<path class="st2" d="M107.5,220.2c0,0-0.1,0-0.1,0c-0.3-0.1-0.4-0.3-0.4-0.6c2.6-12.3-0.6-20-2.8-25.2c-0.1-0.3,0-0.5,0.3-0.7
					c0.3-0.1,0.5,0,0.7,0.3c2.2,5.3,5.5,13.2,2.8,25.8C107.9,220,107.7,220.2,107.5,220.2z"/>
			</g>
			<g>
				<path class="st2" d="M80.9,253.2c-0.1,0-0.1,0-0.2,0c-0.3-0.1-0.4-0.4-0.3-0.6c2.7-7,2.5-16.1,2.4-22.7
					c-0.1-5.8-0.1-8.9,1.2-9.8c0.3-0.2,0.7-0.4,1.4-0.1c11.7,2.5,27.3-1.7,35.8-4c1.8-0.5,3.3-0.9,4.4-1.2c1.1-0.3,2.1-0.1,2.8,0.6
					c2.2,2.1,2.1,8.8-0.4,24.9c0,0.3-0.3,0.5-0.6,0.4c-0.3,0-0.5-0.3-0.4-0.6c1.7-11.2,3-21.8,0.7-24c-0.5-0.4-1-0.5-1.9-0.3
					c-1.1,0.3-2.6,0.7-4.4,1.1c-8.5,2.3-24.3,6.6-36.3,4c-0.4-0.1-0.5-0.1-0.6,0c-0.9,0.6-0.8,4.7-0.8,9c0.1,6.7,0.2,15.9-2.5,23.1
					C81.3,253.1,81.1,253.2,80.9,253.2z"/>
			</g>
			<g>
				<g>
					<path class="st2" d="M90.9,224.3c-0.8,0-1.5,0.6-1.8,1.3c-0.1,0.2-0.1,0.5-0.2,0.8l3.9-0.4C92.6,225.1,91.8,224.3,90.9,224.3z"
						/>
				</g>
				<g>
					<path class="st2" d="M90.9,228.9c0.8,0,1.6-0.6,1.8-1.5c0.1-0.2,0.1-0.4,0.1-0.6l-3.8,0.4C89.2,228.2,90,228.9,90.9,228.9z"/>
				</g>
				<g>
					<path class="st2" d="M126.2,221.7c0.1-0.3,0.1-0.5,0.1-0.8c0-1.3-0.7-2.3-1.6-2.3c-0.5,0-0.9,0.3-1.1,0.7l2.6,2.5
						C126.2,221.8,126.2,221.8,126.2,221.7z"/>
				</g>
				<g>
					<path class="st2" d="M123.1,220.9c0,1.3,0.7,2.3,1.6,2.3c0.4,0,0.8-0.3,1.1-0.7l-2.6-2.5C123.2,220.3,123.1,220.6,123.1,220.9z
						"/>
				</g>
			</g>
		</g>
		<g class="st63">
			<path class="st8" d="M99.9,159.1c-2.6-0.4-6.1-1.8-7-7.7c0.1-0.8,2-2.1,5-2.2c2.9-0.1,5.3,1.1,7.9,0.5
				C105.7,154.7,103.2,159.6,99.9,159.1z"/>
		</g>
		<g class="st63">
			<path class="st2" d="M179.9,138.3c-1,11.3-11,19.7-22.3,18.6c-8.7-0.8-7.5-42.1,3.7-41c8.3,0.8,15,6.4,17.5,13.8
				C179.8,132.4,180.2,135.3,179.9,138.3z"/>
		</g>
		<g class="st63">
			<g>
				<g>
					<g>
						<g>
							<path class="st10" d="M87.1,44.2c-0.8-4.2-1.2-5.9-0.3-10.1c0.7-3.7,4.1-9.4,0.7-16c-4.9-9.3-13.6-7.4-14.8-7.1
								c-1.2,0.2-10,1.7-11.1,12.1c-0.8,7.5,4.5,11.5,6.5,14.7c2.4,3.6,2.6,5.3,3.4,9.5L87.1,44.2z"/>
						</g>
					</g>
				</g>
				<g>
					<path class="st24" d="M88,49.6l0.3,1.7c0.2,0.9-0.8,1.9-2.2,2.2l-10.4,2c-1.4,0.3-2.7-0.3-2.8-1.2l-0.3-1.7L88,49.6z"/>
				</g>
				<g>
					<path class="st24" d="M83.4,57.1l-3.9,0.8c-1.7,0.3-3.3-0.8-3.6-2.5l0,0l10-1.9v0C86.2,55.2,85.1,56.8,83.4,57.1z"/>
				</g>
				<g>
					<g>
						<g>
							<path class="st45" d="M65.4,28.3c-0.3-4,1.2-8,3.5-11.2c2.1-2.7,6,0.1,4.2,3c-0.5,0.7-1.3,1-2,1.4c-1.1,0.7-2,1.4-2.9,2.4
								C67,25.1,66,26.7,65.4,28.3L65.4,28.3z"/>
						</g>
					</g>
				</g>
				<g>
					<path class="st46" d="M92.4,13.7c-0.3,0.1-0.6,0-0.7-0.3c-0.3-0.3-0.2-0.8,0.1-1.1L96.9,8c0.3-0.3,0.8-0.2,1.1,0.1
						c0.3,0.3,0.2,0.8-0.1,1.1l-5.1,4.3C92.6,13.6,92.5,13.6,92.4,13.7z"/>
				</g>
				<g>
					<path class="st46" d="M94.3,18c-0.3,0.1-0.7-0.1-0.9-0.5c-0.2-0.4,0-0.9,0.4-1l9.7-4.2c0.4-0.2,0.8,0,1,0.4
						c0.2,0.4,0,0.9-0.4,1l-9.7,4.2C94.4,17.9,94.3,17.9,94.3,18z"/>
				</g>
				<g>
					<path class="st46" d="M99.3,22.9c0,0-0.1,0-0.1,0l-4.7,0.2c-0.4,0-0.8-0.3-0.8-0.7c0-0.4,0.3-0.8,0.7-0.8l4.7-0.2
						c0.4,0,0.8,0.3,0.8,0.7C99.9,22.5,99.6,22.8,99.3,22.9z"/>
				</g>
				<g>
					<g>
						<g>
							<path class="st24" d="M87.5,44.1C87.5,44.1,87.5,44.1,87.5,44.1L71,47.3c-0.8,0.2-1.3,0.8-1.2,1.4l0.7,3.8
								c0.1,0.6,0.9,1,1.7,0.9c0,0,0,0,0,0L84.4,51l3.7-0.7l0.6-0.1c0.8-0.2,1.3-0.8,1.2-1.4L89.2,45C89,44.4,88.3,44,87.5,44.1
								L87.5,44.1z"/>
						</g>
					</g>
				</g>
				<path class="st47" d="M76.2,46.3c-0.4-2-0.8-3.8-1-5.7c-0.2-2.2-0.7-4.4-1.6-6.5c-0.4-1-0.8-1.9-1.6-2.7
					c-0.3-0.3-0.9-0.6-1.2-0.2c-0.2,0.2,0,0.6,0.1,0.8c1,1.3,3,1.2,4.6,0.6c2-0.8,4-2.2,4.7-4.2c0.2-0.7,0.4-1.4,0.1-2.1
					c-0.3-0.6-1.1-1.1-1.7-0.8c-0.7,0.3-0.8,1.2-0.8,2c-0.2,6.1,0.3,12.2,1.5,18.2"/>
			</g>
		</g>
		
			<linearGradient id="SVGID_00000045589934807318200510000006902480393234570665_" gradientUnits="userSpaceOnUse" x1="60.0081" y1="234.5056" x2="33.7606" y2="233.13">
			<stop  offset="9.497207e-02" style="stop-color:#6346CE"/>
			<stop  offset="0.1193" style="stop-color:#654AD1"/>
			<stop  offset="0.3024" style="stop-color:#7461E2"/>
			<stop  offset="0.4991" style="stop-color:#7F71EE"/>
			<stop  offset="0.7175" style="stop-color:#857BF6"/>
			<stop  offset="1" style="stop-color:#877EF8"/>
		</linearGradient>
		<path style="display:inline;fill:url(#SVGID_00000045589934807318200510000006902480393234570665_);" d="M33.7,240.6
			c-0.7,5.3-1.1,10.8,0.1,16c1.2,5.2,4.2,10.1,8.6,12.1c5.5,2.5,12.6-0.6,15.1-6.7c1.1-2.6,1.4-5.5,1.5-8.4
			c0.5-13.9-3.6-28-1.2-41.7c0.4-2.2,1-4.5,0.9-6.8c0-4.7-3.4-8.8-7.2-5.7c-2.8,2.3-6.1,7.9-8.2,11.3
			C38,219.6,35.1,230.1,33.7,240.6z"/>
		<g class="st63">
			<ellipse class="st4" cx="88.7" cy="296.3" rx="15" ry="5"/>
		</g>
		<path class="st68" d="M62.6,100.2c-4.8,0.7-8.2,5.1-9.7,9.4c0,0-0.1,0-0.1,0C52.9,104.9,57.7,99.2,62.6,100.2L62.6,100.2z"/>
	</g>
	<g id="TRISTE" class="st62">
		<g class="st63">
			<g>
				
					<linearGradient id="SVGID_00000165234836985193762930000011976570871959396239_" gradientUnits="userSpaceOnUse" x1="1182.7086" y1="-116.942" x2="1206.004" y2="-127.8251" gradientTransform="matrix(-0.906 0.4233 0.4233 0.906 1196.4871 -169.8535)">
					<stop  offset="0.1788" style="stop-color:#6346CE"/>
					<stop  offset="1" style="stop-color:#877EF8"/>
				</linearGradient>
				<path style="fill:url(#SVGID_00000165234836985193762930000011976570871959396239_);" d="M49.7,226.3
					c0.1,19.2,7.2,33.5,14.4,33.5c3.5,0,5.8-3.5,8.1-7.9c2.2-4.4,5.4-16.7,1-28.1c-3.7-9.7-5.5-16.5-5.6-18.2
					c-0.7-9.9-0.7-13.8-3.9-15.3c-7.2-2.6-9.8,6.7-11.4,12.3C50.8,208.1,49.7,217,49.7,226.3z"/>
			</g>
			<g>
				<path class="st2" d="M68.5,255.4c-0.7,1.2-1.9,2.6-3.3,2.3c-0.6-0.2-1.1-0.7-1.4-1.3c-0.7-1.3-0.7-2.8-0.6-4.2
					c0.1-2.4,0.4-4.7,0.9-7c1.4-5.7,5.8-11.4,6.9-9.8C74.6,242,71.5,249.9,68.5,255.4z"/>
			</g>
		</g>
		<g class="st63">
			<g>
				
					<linearGradient id="SVGID_00000129895630677304591420000008091845463781324205_" gradientUnits="userSpaceOnUse" x1="-738.2187" y1="791.3043" x2="-762.3046" y2="798.1457" gradientTransform="matrix(0.8999 0.4361 -0.4361 0.8999 1168.0054 -162.4399)">
					<stop  offset="7.262587e-02" style="stop-color:#877EF8"/>
					<stop  offset="0.3175" style="stop-color:#7B6CEA"/>
					<stop  offset="0.7207" style="stop-color:#6346CE"/>
				</linearGradient>
				<path style="fill:url(#SVGID_00000129895630677304591420000008091845463781324205_);" d="M157.8,226.9
					c-0.4,19.2-7.7,33.4-14.8,33.3c-3.5-0.1-5.7-3.6-7.9-8c-2.2-4.4-5.2-16.8-0.6-28.1c3.9-9.7,5.7-16.4,5.8-18.2
					c0.9-9.9,0.9-13.8,4.1-15.2c7.2-2.5,9.7,6.9,11.2,12.4C157,208.7,158,217.7,157.8,226.9z"/>
			</g>
			<g>
				<path class="st2" d="M138.7,255.8c0.7,1.2,1.9,2.6,3.2,2.3c0.6-0.2,1.1-0.7,1.4-1.2c0.7-1.3,0.7-2.7,0.6-4.2
					c-0.1-2.4-0.4-4.7-0.8-7.1c-1.3-5.7-5.6-11.5-6.8-9.9C132.8,242.3,135.7,250.3,138.7,255.8z"/>
			</g>
		</g>
		
			<linearGradient id="SVGID_00000135669601986420070970000009581484808296229805_" gradientUnits="userSpaceOnUse" x1="1684.8826" y1="264.6399" x2="1684.8826" y2="185.4461" gradientTransform="matrix(-1 0 0 1 1789.1542 0)">
			<stop  offset="7.262570e-02" style="stop-color:#6346CE"/>
			<stop  offset="0.1458" style="stop-color:#6F59DC"/>
			<stop  offset="0.2423" style="stop-color:#7A6AE9"/>
			<stop  offset="0.3626" style="stop-color:#8175F2"/>
			<stop  offset="0.5314" style="stop-color:#867CF7"/>
			<stop  offset="1" style="stop-color:#877EF8"/>
		</linearGradient>
		<path style="display:inline;fill:url(#SVGID_00000135669601986420070970000009581484808296229805_);" d="M148.9,216.9
			c3.3-9.3,5.9-20.4-1.7-26.8c-8.1-6.8-39.5-4-43.2-4c-3.4,0-36.4-3-43.7,3.9c-5.9,5.6-3.9,14.7-1.4,22.4l3,9.3
			c10,24.2,28.2,42.9,40.9,42.9c11.9,0,32.6-16.6,44.3-42.9L148.9,216.9z"/>
		<g class="st63">
			<path class="st2" d="M103.6,217.3C103.6,217.3,103.6,217.3,103.6,217.3c-0.3,0-0.5-0.3-0.5-0.5c0.9-12.6,0.1-23.9-0.2-29.3
				c0-0.3,0.2-0.5,0.5-0.5c0.3,0,0.5,0.2,0.5,0.5c0.4,5.4,1.1,16.8,0.2,29.4C104.1,217,103.8,217.3,103.6,217.3z"/>
		</g>
		<g class="st63">
			<path class="st2" d="M80.5,251c-0.3,0-0.5-0.2-0.5-0.5c-0.3-3.3-2.7-32,1.5-35.2c0.5-0.4,1.1-0.4,1.7-0.2
				c14.9,3.2,36.7,1.1,42.8-0.3c0.7-0.2,1.3,0,1.8,0.4c2,1.6,1.8,7.7,1.5,16.9c-0.1,4.8-0.3,10.1-0.2,15.9c0,0.3-0.2,0.5-0.5,0.5
				c-0.3,0-0.5-0.2-0.5-0.5c-0.1-5.8,0.1-11.2,0.2-15.9c0.3-8.3,0.5-14.8-1.1-16.1c-0.2-0.1-0.4-0.3-0.9-0.2
				c-6.2,1.4-28.1,3.6-43.3,0.3c-0.3-0.1-0.5-0.1-0.7,0c-2.8,2.1-2.2,21.6-1,34.2C81,250.7,80.8,250.9,80.5,251
				C80.5,251,80.5,251,80.5,251z"/>
		</g>
		<g class="st63">
			<g>
				<path class="st2" d="M85.7,224.8c1,0,1.9-0.6,2.2-1.5c0.1-0.2,0.1-0.4,0.1-0.5l-4.6,0.4C83.7,224.1,84.6,224.8,85.7,224.8z"/>
			</g>
			<g>
				<path class="st2" d="M85.7,220.1c-1,0-1.8,0.6-2.1,1.4c-0.1,0.2-0.2,0.5-0.2,0.8l4.6-0.4C87.7,220.9,86.8,220.1,85.7,220.1z"/>
			</g>
			<g>
				<path class="st2" d="M124.4,223.3c0.1-0.3,0.2-0.5,0.2-0.8c0-1.3-1-2.3-2.3-2.3c-0.7,0-1.3,0.3-1.7,0.7l3.8,2.5
					C124.4,223.4,124.4,223.3,124.4,223.3z"/>
			</g>
			<g>
				<path class="st2" d="M119.9,222.5c0,1.3,1,2.3,2.3,2.3c0.6,0,1.2-0.3,1.6-0.7l-3.8-2.5C119.9,221.9,119.9,222.2,119.9,222.5z"/>
			</g>
		</g>
		<g class="st63">
			<ellipse class="st4" cx="102.3" cy="295.2" rx="22.6" ry="6.2"/>
		</g>
		<g class="st63">
			<path class="st2" d="M25.5,130.8c0.3,11.6,10.1,20.8,21.7,20.4c9-0.3,16.5-6.1,19.3-14.2c0.8-2.4,1.2-4.9,1.2-7.6
				c-0.3-11.6-10.1-20.8-21.7-20.4c-8.6,0.3-15.8,5.6-18.8,13C25.9,124.8,25.4,127.8,25.5,130.8z"/>
		</g>
		<g class="st63">
			<path class="st2" d="M137.9,127.4c0.3,11.6,10.1,20.8,21.7,20.4c9-0.3,16.5-6.1,19.3-14.2c0.8-2.4,1.2-4.9,1.2-7.6
				c-0.3-11.6-10.1-20.8-21.7-20.4c-8.6,0.3-15.8,5.6-18.8,13C138.4,121.4,137.8,124.4,137.9,127.4z"/>
		</g>
		
			<linearGradient id="SVGID_00000180330461303108049790000003419307763002089662_" gradientUnits="userSpaceOnUse" x1="1685.7627" y1="100.5813" x2="1685.7627" y2="-5.1482" gradientTransform="matrix(-0.9995 3.014293e-02 3.014293e-02 0.9995 1786.8207 29.9763)">
			<stop  offset="0" style="stop-color:#6346CE"/>
			<stop  offset="4.273055e-02" style="stop-color:#6F59DC"/>
			<stop  offset="9.916910e-02" style="stop-color:#7A6AE9"/>
			<stop  offset="0.1695" style="stop-color:#8175F2"/>
			<stop  offset="0.2681" style="stop-color:#867CF7"/>
			<stop  offset="0.5419" style="stop-color:#877EF8"/>
		</linearGradient>
		<path style="display:inline;fill:url(#SVGID_00000180330461303108049790000003419307763002089662_);" d="M39.2,158.7
			c5.8,19.3,30.4,23.6,65.4,22.6c35-1,57.6-8.8,64-26.5c6.4-17.7-4.2-50.3-19.2-64.4c-11.7-10.9-29.8-15.4-45.6-14.9
			C90.7,76,66.4,81.4,54,92.8C38.1,107.4,33.4,139.4,39.2,158.7z"/>
		<g class="st63">
			<path class="st2" d="M96.5,120.1c-0.3,0-0.5-0.2-0.5-0.5c0-0.3-1.9-27.3,5.4-44c0.4,0,0.7-0.1,1.1-0.1c0,0,0,0.1,0,0.1
				c-7.4,16.4-5.5,43.5-5.5,43.8C97,119.9,96.8,120.1,96.5,120.1C96.5,120.1,96.5,120.1,96.5,120.1z"/>
		</g>
		<g class="st63">
			<path class="st2" d="M104,148c-21.4,0-43.8-4.6-68.9-16l0.4-0.9c51.7,23.4,91.6,18,135.7,2.7l0.3,1
				C148.7,142.7,126.9,148,104,148z"/>
		</g>
		<g class="st63">
			<g>
				<path class="st8" d="M79.2,160.6c-7.6,0-15-2-21.6-5.7c-2.9-1.7-4.9-3.3-6.3-5.2c-2.9-4-3.6-9.8-2.1-17.1
					c1.5-7.4,4.5-12.3,8.8-14.7c2.3-1.3,5.2-1.9,8.9-1.9c1.5,0,3,0.1,4.1,0.2c3.2,0.2,6.4,0.5,9.6,0.8c6,0.6,12.1,1.2,18.2,1.2
					c0,0,0,0,0,0c1,0,3.9-0.1,4.7-0.1c6.2-0.4,12.4-1.4,18.4-2.3c3.1-0.5,6.3-1,9.5-1.4c1.8-0.2,3.9-0.5,6-0.5
					c2.8,0,5.2,0.5,7.1,1.4c4.5,2.1,7.7,6.8,9.7,14.1c2,7.3,1.6,13.1-1.1,17.2c-1.3,2-3.2,3.7-6,5.6c-7,4.6-15.4,7.1-23.8,7.1
					c-0.5,0-0.9,0-1.4,0c-2.8-0.1-5.7-0.5-8.4-0.8c-3.2-0.4-6.6-0.9-9.9-0.9l-0.3,0l-1.9,0.1c-3.4,0.2-6.8,0.8-10.1,1.5
					c-2.7,0.5-5.6,1.1-8.3,1.3C81.9,160.5,80.5,160.6,79.2,160.6z"/>
			</g>
			<g>
				<g>
					<path class="st2" d="M137.5,114.4c2.7,0,5,0.4,6.9,1.3c4.3,2,7.5,6.7,9.4,13.8c2,7.1,1.6,12.8-1,16.8c-1.2,1.9-3.1,3.6-5.8,5.4
						c-6.9,4.5-15.2,7-23.5,7c-0.5,0-0.9,0-1.4,0c-2.8-0.1-5.6-0.5-8.4-0.8c-3.2-0.4-6.6-0.9-9.9-0.9l-0.3,0l-1.9,0.1
						c-3.4,0.2-6.9,0.8-10.2,1.5c-2.7,0.5-5.5,1.1-8.3,1.3c-1.3,0.1-2.6,0.2-3.9,0.2c-7.5,0-14.9-2-21.3-5.6
						c-2.9-1.6-4.8-3.2-6.1-5.1c-2.9-3.9-3.5-9.5-2-16.7c1.5-7.2,4.4-12,8.6-14.3c2.3-1.2,5-1.8,8.7-1.8c1.5,0,3,0.1,4.1,0.2
						c3.2,0.2,6.4,0.5,9.5,0.8c6,0.6,12.1,1.2,18.2,1.2l0.1,0c0.9,0,3.9-0.1,4.6-0.1c6.2-0.4,12.4-1.4,18.5-2.3
						c3.1-0.5,6.3-1,9.5-1.4C133.3,114.6,135.4,114.4,137.5,114.4 M137.5,113.4c-2,0-4.1,0.2-6.1,0.5c-9.3,1.2-18.6,3.1-27.9,3.7
						c-0.7,0-3.6,0.1-4.5,0.1c0,0-0.1,0-0.1,0c-9.2-0.1-18.5-1.4-27.7-2c-1.4-0.1-2.8-0.2-4.2-0.2c-3.2,0-6.4,0.4-9.2,1.9
						c-5.3,2.9-7.9,9.1-9.1,15c-1.2,5.9-1.4,12.7,2.2,17.5c1.7,2.3,4,3.9,6.5,5.3c6.6,3.8,14.2,5.8,21.8,5.8c1.3,0,2.7-0.1,4-0.2
						c6.2-0.6,12.2-2.5,18.4-2.8l1.9-0.1c0.1,0,0.2,0,0.3,0c6.1,0,12.2,1.5,18.3,1.7c0.5,0,0.9,0,1.4,0c8.5,0,16.9-2.5,24-7.2
						c2.4-1.5,4.6-3.4,6.1-5.7c3.3-5.1,2.7-11.8,1.1-17.6c-1.6-5.8-4.5-11.9-10-14.4C142.5,113.7,140,113.4,137.5,113.4L137.5,113.4
						z"/>
				</g>
			</g>
		</g>
		<g class="st63">
			<g>
				<path class="st2" d="M101.2,113.5c-0.1,0.2-0.1,0.3-0.1,0.5c0,0.7,0.8,1.2,1.6,1.1c0.3,0,0.6-0.1,0.8-0.2l-2.2-1.6
					C101.4,113.3,101.3,113.4,101.2,113.5z"/>
			</g>
			<g>
				<path class="st2" d="M104.2,114.3c0.1-0.1,0.1-0.3,0.1-0.4c0-0.7-0.8-1.2-1.6-1.1c-0.3,0-0.6,0.1-0.8,0.2l2.2,1.6
					C104,114.5,104.1,114.4,104.2,114.3z"/>
			</g>
			<g>
				<path class="st2" d="M90.1,115.3c0.7,0,1.2-0.4,1.4-0.8c0-0.1,0.1-0.2,0.1-0.4l-3,0.3C88.8,115,89.4,115.3,90.1,115.3z"/>
			</g>
			<g>
				<path class="st2" d="M90,112.9c-0.6,0-1.1,0.3-1.4,0.8c0,0.1-0.1,0.2-0.1,0.3l3-0.3C91.2,113.2,90.6,112.9,90,112.9z"/>
			</g>
		</g>
		<g class="st63">
			<path class="st2" d="M99.7,80.9c-0.6,0-1-0.5-1-1c0-14.7-8.7-29.8-15-29.9c0,0,0,0-0.1,0c-3.8,0-6.2,6.2-6.6,17.1
				c0,0.6-0.5,1-1,1c-0.6,0-1-0.5-1-1c0.5-15.7,4.9-19.1,8.6-19.1c0,0,0.1,0,0.1,0c8.1,0.1,17,16.8,17,31.9
				C100.7,80.4,100.2,80.9,99.7,80.9z"/>
		</g>
		
			<ellipse transform="matrix(6.649152e-02 -0.9978 0.9978 6.649152e-02 13.2744 174.7175)" class="st73" cx="100" cy="80.3" rx="1.5" ry="4"/>
		<g class="st63">
			<path class="st10" d="M75.3,72.6c1.3-0.1,2.7-0.4,3.9-1.1c1.2-0.7,2.7-2,2.8-3.5c0.2-2.6-3.9-3-5.7-3.4c-1.4-0.3-3-0.5-4.3,0.2
				c-1.2,0.7-2.1,1.9-2.3,3.3C69.1,71.5,72.5,72.9,75.3,72.6z"/>
		</g>
		<g class="st63">
			<path class="st8" d="M109.6,171.1c-0.3,0-0.7-0.2-0.9-0.5c-1.8-3.5-5.5-5.7-9.9-5.9c-1.7-0.2-3.1,0.2-4.2,1.1
				c-1.4,1.1-1.9,2.9-2,3.3c0,0.5-0.5,0.9-1,0.9c-0.5,0-0.9-0.5-0.9-1c0.1-0.8,0.8-3.1,2.7-4.6c1.5-1.3,3.4-1.8,5.6-1.6
				c5,0.3,9.3,2.9,11.4,6.9c0.2,0.5,0.1,1.1-0.4,1.3C109.9,171,109.8,171.1,109.6,171.1z"/>
		</g>
		<g class="st63">
			<g>
				<path class="st12" d="M126.5,146.1c-5.8,0-10.9-4.3-11.7-10.2c-0.1-0.8,0.5-1.6,1.3-1.7c0.8-0.1,1.6,0.5,1.7,1.3
					c0.6,4.7,5,8.1,9.8,7.4c3.4-0.5,6.2-2.9,7.2-6.1c0.4-1.2,0.5-2.4,0.3-3.6c-0.1-0.8,0.5-1.6,1.3-1.7c0.8-0.1,1.6,0.5,1.7,1.3
					c0.2,1.7,0.1,3.3-0.4,4.9c-1.3,4.4-5.2,7.7-9.8,8.3C127.6,146.1,127,146.1,126.5,146.1z"/>
			</g>
			<g>
				<path class="st11" d="M114.8,135.9c2.3,9.4,14.1,13.1,20.4,5.2c2-2.3,3.1-5.2,3-8.3c0-0.1,0.1-0.1,0.1,0
					c0.9,6.3-4,12.7-10.3,13.6c-6.4,1-12.6-4.1-13.4-10.4C114.7,135.8,114.8,135.8,114.8,135.9L114.8,135.9z"/>
			</g>
		</g>
		<g class="st63">
			<g>
				<path class="st12" d="M77.2,147.3c-0.4,0-0.7,0-1.1,0c-6.5-0.6-11.3-6.3-10.7-12.8c0.1-0.8,0.8-1.5,1.7-1.4
					c0.8,0.1,1.5,0.8,1.4,1.7c-0.4,4.8,3.1,9,7.9,9.4c3.4,0.3,6.7-1.4,8.4-4.4c0.6-1.1,1-2.2,1.1-3.5c0.1-0.8,0.8-1.5,1.7-1.4
					c0.8,0.1,1.5,0.8,1.4,1.7c-0.2,1.7-0.7,3.3-1.5,4.7C85.4,145,81.4,147.3,77.2,147.3z"/>
			</g>
			<g>
				<path class="st11" d="M65.4,134.4c0.2,9.6,11,16.2,18.8,9.7c2.4-1.9,4.1-4.5,4.8-7.5c0-0.1,0.1-0.1,0.1,0
					c-0.6,6.3-6.7,11.7-13,11.1C69.8,147.1,64.4,140.3,65.4,134.4L65.4,134.4z"/>
			</g>
		</g>
		<path class="st68" d="M128.2,119.6c4.8-0.8,12.9-3.5,16.5,1.1c0,0-0.9,0.5-0.9,0.5C140.9,117.1,132.7,119.1,128.2,119.6
			L128.2,119.6z"/>
		<path class="st68" d="M146.2,123.1c0.7,1.5,1.2,3.1,1.4,4.8c-0.5-1.5-1.3-2.9-2.3-4.2C145.3,123.6,146.2,123.1,146.2,123.1
			L146.2,123.1z"/>
	</g>
	<g id="RETENTER" class="st62">
		<g class="st63">
			<path class="st2" d="M93.5,75.5c-0.3-1.1-1.1-4.7-2.2-9.8c-2.5-11.7-6.8-31.4-8.9-37.5l2-0.7c2.2,6.2,6.3,25.2,9,37.8
				c1,4.8,1.9,8.6,2.1,9.7L93.5,75.5z"/>
			<path class="st2" d="M93.3,75.9c-0.3-1.1-1-4.8-2.1-9.9c-2.4-11.9-6.4-31.8-8.5-38l1.9-0.7c2.1,6.3,6,25.6,8.5,38.3
				c1,4.9,1.8,8.8,2,9.8L93.3,75.9z"/>
		</g>
		<g class="st63">
			<g>
				
					<linearGradient id="SVGID_00000090278321224807730450000009471729570882697600_" gradientUnits="userSpaceOnUse" x1="1281.4429" y1="146.3967" x2="1267.0096" y2="78.4937" gradientTransform="matrix(-0.9794 0.2019 0.2019 0.9794 1275.3226 -141.3412)">
					<stop  offset="0" style="stop-color:#6346CE"/>
					<stop  offset="7.929455e-02" style="stop-color:#6F58DC"/>
					<stop  offset="0.189" style="stop-color:#7A69E8"/>
					<stop  offset="0.3242" style="stop-color:#8275F1"/>
					<stop  offset="0.5107" style="stop-color:#877CF7"/>
					<stop  offset="0.9944" style="stop-color:#887EF8"/>
				</linearGradient>
				<path style="fill:url(#SVGID_00000090278321224807730450000009471729570882697600_);" d="M39,224.5c-4.4,18.8-0.7,34.5,6.3,36.1
					c3.4,0.8,6.5-2.1,9.8-5.8c3.2-3.8,9.2-15,7.6-27.2c-1.4-10.4-1.5-17.4-1.2-19.2c1.6-9.9,2.5-13.7-0.2-15.9
					c-6.5-4.2-11.2,4.3-14.1,9.3C44.3,206.9,41.1,215.4,39,224.5z"/>
			</g>
			<g>
				<path class="st2" d="M50.5,257.3c-1,1-2.5,2.1-3.7,1.4c-0.6-0.3-0.9-0.9-1.1-1.6c-0.3-1.4,0-2.9,0.4-4.2
					c0.7-2.3,1.5-4.5,2.6-6.7c2.7-5.2,8.3-9.8,9.1-8C59.7,245.7,54.8,252.7,50.5,257.3z"/>
			</g>
		</g>
		
			<linearGradient id="SVGID_00000041253793684657718120000013109891569696439228_" gradientUnits="userSpaceOnUse" x1="1024.4539" y1="-199.8425" x2="1042.3085" y2="-199.8425" gradientTransform="matrix(-0.8097 -0.5868 0.5868 -0.8097 1119.2385 647.8765)">
			<stop  offset="1.704893e-07" style="stop-color:#7268F2"/>
			<stop  offset="0.2263" style="stop-color:#7064ED"/>
			<stop  offset="0.4766" style="stop-color:#6B57E0"/>
			<stop  offset="0.6983" style="stop-color:#6346CE"/>
		</linearGradient>
		<path style="display:inline;fill:url(#SVGID_00000041253793684657718120000013109891569696439228_);" d="M172.8,207.7
			c-1.1,1.2-1.8,2.2-3.3,2.9c-2.6,1.3-6.1,1.3-9,1.1c-3-0.2-6.1-0.6-8.9-1.9c-0.4-0.2-0.9-0.4-1-0.9c-0.1-0.4,0-0.8,0.2-1.1
			c0.8-1.3,2.2-2.1,3.5-3c1.8-1.2,3.4-2.6,4.8-4.3c1.5-1.8,2.8-3.8,4.4-5.5c1.6-1.7,3.8-3.1,6.2-3.1c1.2,0,2.5,0.4,3.6,0.8
			c1.4,0.6,1.6,1.1,2.7,2.2C179.8,199.1,175.6,204.7,172.8,207.7z"/>
		<g class="st63">
			<path class="st2" d="M179.8,116.3c1.6,11.6-6.5,22.3-18.2,23.9c-9,1.2-17.4-3.3-21.5-10.8c-1.2-2.2-2-4.7-2.4-7.3
				c-1.6-11.6,6.5-22.3,18.2-23.9c8.5-1.2,16.6,2.9,20.9,9.8C178.4,110.4,179.4,113.2,179.8,116.3z"/>
		</g>
		<g class="st63">
			<path class="st2" d="M67.7,131.6c1.6,11.6-6.5,22.3-18.2,23.9c-9,1.2-17.4-3.3-21.5-10.8c-1.2-2.2-2-4.7-2.4-7.3
				c-1.6-11.6,6.5-22.3,18.2-23.9c8.5-1.2,16.6,2.9,20.9,9.8C66.2,125.7,67.3,128.5,67.7,131.6z"/>
		</g>
		
			<linearGradient id="SVGID_00000124140806245045383920000016601003568123845786_" gradientUnits="userSpaceOnUse" x1="81.5861" y1="226.751" x2="109.8875" y2="119.5918" gradientTransform="matrix(0.9908 -0.1356 0.1356 0.9908 -12.9175 -29.6278)">
			<stop  offset="2.793296e-02" style="stop-color:#6346CE"/>
			<stop  offset="5.577507e-02" style="stop-color:#6F58DC"/>
			<stop  offset="9.427981e-02" style="stop-color:#7A69E8"/>
			<stop  offset="0.1418" style="stop-color:#8275F1"/>
			<stop  offset="0.2073" style="stop-color:#877CF7"/>
			<stop  offset="0.3771" style="stop-color:#887EF8"/>
		</linearGradient>
		<path style="display:inline;fill:url(#SVGID_00000124140806245045383920000016601003568123845786_);" d="M171,146.3
			c-2.6,20.2-26.3,28.5-61.2,33.3c-34.9,4.8-58.8,0.8-68.1-15.7c-9.3-16.5-4.3-50.7,8.3-67.1C59.7,84,77,76.6,92.8,74.5
			c13.1-1.8,38.1-0.4,52.4,8.8C163.5,95.2,173.6,126.1,171,146.3z"/>
		<g class="st63">
			<path class="st2" d="M100.1,117.7c0-0.3-3.3-27.9-6.3-43.5l1-0.2c3.1,15.6,6.3,43.3,6.3,43.6L100.1,117.7z"/>
		</g>
		<g class="st63">
			<path class="st2" d="M79.3,136.1c-13.5,0-27.6-1.4-43.5-4.1l0.2-1c50.1,8.4,82.4,4.2,132.9-17.3l0.4,1
				C134.6,129.4,108.5,136.1,79.3,136.1z"/>
		</g>
		<g class="st63">
			<g>
				<path class="st8" d="M76.5,154.9c-6,0-12.1-1.3-17.6-3.7c-3.1-1.4-5.3-2.8-6.9-4.5c-3.4-3.7-4.7-9.4-3.9-16.9
					c0.8-7.5,3.2-12.8,7.3-15.6c3.7-2.6,8.6-2.9,12.9-3.1c3.2-0.1,6.5-0.2,9.7-0.2c6.1-0.1,12.5-0.1,18.7-0.8
					c0.7-0.1,3.8-0.5,4.6-0.6c6-1,12-2.7,17.8-4.2c3.1-0.8,6.2-1.7,9.4-2.4c2.7-0.7,5.6-1.3,8.3-1.3c1.8,0,3.4,0.2,4.9,0.8
					c4.7,1.6,8.5,6,11.2,13.1c2.8,7.1,3,12.9,0.8,17.4c-1.1,2.1-2.8,4.1-5.4,6.2c-6.9,5.6-15.6,9.1-24.4,9.7
					c-1.3,0.1-2.6,0.1-4.2,0.1c-1.4,0-2.9,0-4.3-0.1c-1.4,0-2.9-0.1-4.3-0.1c-2.3,0-4.2,0.1-5.9,0.3l-1.9,0.3
					c-3.4,0.5-6.7,1.6-10,2.5c-2.7,0.8-5.4,1.7-8.2,2.2C82.3,154.6,79.4,154.9,76.5,154.9z"/>
			</g>
			<g>
				<g>
					<path class="st2" d="M136.8,102.1c1.8,0,3.3,0.2,4.7,0.7c4.5,1.6,8.2,5.9,10.9,12.8c2.7,6.9,3,12.6,0.8,16.9
						c-1,2-2.7,3.9-5.3,6c-6.8,5.6-15.4,9-24.1,9.6c-1.2,0.1-2.6,0.1-4.2,0.1c-1.4,0-2.9,0-4.3-0.1c-1.4,0-2.9-0.1-4.3-0.1
						c0,0,0,0,0,0c-2.3,0-4.2,0.1-6,0.3l-1.9,0.3c-3.4,0.5-6.8,1.6-10,2.6c-2.7,0.8-5.4,1.7-8.2,2.2c-2.8,0.6-5.6,0.8-8.5,0.8
						c-6,0-12-1.3-17.4-3.6c-3-1.3-5.2-2.7-6.7-4.4c-3.3-3.6-4.5-9.1-3.8-16.5c0.7-7.4,3.1-12.5,7.1-15.3c3.6-2.5,8.2-2.8,12.6-3
						c3.2-0.1,6.5-0.2,9.6-0.2c6.2-0.1,12.5-0.1,18.7-0.8c0.7-0.1,3.8-0.5,4.7-0.7c6-1,12.1-2.7,17.9-4.2c3.1-0.8,6.2-1.7,9.3-2.4
						C131.3,102.7,134.1,102.1,136.8,102.1 M136.8,101c-2.8,0-5.7,0.6-8.5,1.3c-9.1,2.2-18,5-27.2,6.6c-0.8,0.1-3.9,0.6-4.6,0.6
						c-9.4,1-18.9,0.6-28.3,1c-4.6,0.2-9.4,0.6-13.2,3.2c-5,3.5-6.9,9.9-7.5,16c-0.6,6.1-0.1,12.8,4.1,17.3c1.9,2.1,4.4,3.5,7,4.7
						c5.6,2.5,11.7,3.7,17.8,3.7c2.9,0,5.8-0.3,8.7-0.9c6.1-1.2,12-3.8,18.1-4.8l1.9-0.3c2-0.2,3.9-0.3,5.9-0.3
						c2.9,0,5.7,0.1,8.6,0.1c1.4,0,2.8,0,4.3-0.1c9-0.7,17.7-4.1,24.7-9.9c2.2-1.8,4.2-3.8,5.5-6.4c2.8-5.5,1.5-12.1-0.7-17.8
						c-2.2-5.7-5.8-11.4-11.5-13.4C140.3,101.3,138.6,101,136.8,101L136.8,101z"/>
				</g>
			</g>
		</g>
		<g class="st63">
			<g>
				<path class="st2" d="M94.5,104.1c-0.1-0.1-0.1-0.2-0.2-0.3l-1.7,2.5c0.3,0.1,0.6,0.2,0.9,0.1c0.8-0.1,1.4-0.9,1.3-1.7
					C94.7,104.5,94.6,104.3,94.5,104.1z"/>
			</g>
			<g>
				<path class="st2" d="M93,103.4c-0.8,0.1-1.4,0.9-1.3,1.7c0,0.2,0.1,0.4,0.2,0.5c0.1,0.1,0.2,0.2,0.3,0.4l1.7-2.5
					C93.6,103.4,93.3,103.4,93,103.4z"/>
			</g>
			<g>
				<path class="st2" d="M107,102.1c-0.3-0.5-0.9-0.8-1.5-0.7c-0.7,0.1-1.2,0.6-1.3,1.3l3-0.2C107.2,102.4,107.1,102.2,107,102.1z"
					/>
			</g>
			<g>
				<path class="st2" d="M104.2,103.2c0,0.2,0.1,0.3,0.2,0.5c0.3,0.5,0.9,0.9,1.6,0.8c0.7-0.1,1.3-0.7,1.3-1.4L104.2,103.2z"/>
			</g>
		</g>
		<g class="st63">
			
				<linearGradient id="SVGID_00000020395994092985470880000003976371858460463239_" gradientUnits="userSpaceOnUse" x1="143.8799" y1="415.1553" x2="55.3989" y2="384.4341" gradientTransform="matrix(0.9949 0.1006 -0.1006 0.9949 39.1797 -187.5957)">
				<stop  offset="1.704893e-07" style="stop-color:#887EF8"/>
				<stop  offset="0.4864" style="stop-color:#877CF7"/>
				<stop  offset="0.674" style="stop-color:#8275F1"/>
				<stop  offset="0.81" style="stop-color:#7A69E8"/>
				<stop  offset="0.9203" style="stop-color:#6F58DC"/>
				<stop  offset="1" style="stop-color:#6346CE"/>
			</linearGradient>
			<path style="fill:url(#SVGID_00000020395994092985470880000003976371858460463239_);" d="M58.9,215.3c-2.3-9.7-3.8-21.3,4.4-27
				c8.8-6.1,40,0,43.7,0.4c3.4,0.3,36.7,0.7,43.4,8.4c5.4,6.2,2.4,15.3-0.9,22.9l-3.9,9.1c-12.5,23.5-32.6,40.5-45.4,39.2
				c-12-1.2-31-20.1-40.1-47.9L58.9,215.3z"/>
			<g>
				<path class="st2" d="M104.3,220.4C104.3,220.4,104.3,220.4,104.3,220.4c-0.3,0-0.5-0.2-0.5-0.5c0.4-12.8,2.3-24,3.2-29.4
					c0-0.3,0.3-0.5,0.6-0.4c0.3,0,0.5,0.3,0.4,0.6c-0.9,5.4-2.8,16.6-3.2,29.3C104.8,220.2,104.6,220.4,104.3,220.4z"/>
			</g>
			<g>
				<path class="st2" d="M124,256.5C124,256.5,124,256.5,124,256.5c-0.4-0.1-0.6-0.3-0.5-0.6c2.4-12.5,5-32,2.4-34.4
					c-0.2-0.2-0.4-0.2-0.7-0.1c-15.6,1.8-37.4-2.6-43.4-4.6c-0.5-0.2-0.8,0-0.9,0.1c-1.7,1.1-2.2,7.7-2.8,16
					c-0.3,4.8-0.7,10.2-1.4,16c0,0.3-0.3,0.5-0.6,0.5c-0.3,0-0.5-0.3-0.5-0.6c0.7-5.7,1.1-11.1,1.4-15.9c0.6-9.2,1.1-15.4,3.2-16.8
					c0.5-0.4,1.2-0.4,1.8-0.2c6,2,27.5,6.3,42.9,4.6c0.5-0.2,1.1,0,1.6,0.4c3.9,3.6-1.5,32.1-2.1,35.4
					C124.5,256.3,124.3,256.5,124,256.5z"/>
			</g>
			<g>
				<g>
					<path class="st2" d="M123.9,226.7c-0.3-0.8-1-1.5-2-1.6c-1.1-0.1-2.1,0.5-2.4,1.5l4.6,0.9C124,227.2,124,226.9,123.9,226.7z"/>
				</g>
				<g>
					<path class="st2" d="M119.4,228.1c0.2,0.9,1,1.6,2,1.7c1.1,0.1,2-0.5,2.4-1.4l-4.5-0.8C119.3,227.7,119.3,227.9,119.4,228.1z"
						/>
				</g>
				<g>
					<path class="st2" d="M85.3,221.4c-1.3-0.1-2.5,0.8-2.6,2.1c0,0.3,0,0.6,0.1,0.8c0,0,0,0.1,0.1,0.1l4.1-2.2
						C86.5,221.8,86,221.5,85.3,221.4z"/>
				</g>
				<g>
					<path class="st2" d="M84.8,226.1c1.3,0.1,2.5-0.8,2.6-2.1c0-0.3,0-0.6-0.1-0.9l-4,2.1C83.6,225.7,84.2,226,84.8,226.1z"/>
				</g>
			</g>
		</g>
		
			<linearGradient id="SVGID_00000098906954217728700790000012007092375428181938_" gradientUnits="userSpaceOnUse" x1="-953.6279" y1="1825.9316" x2="-964.1641" y2="1776.3624" gradientTransform="matrix(0.5868 -0.8097 -0.8097 -0.5868 2182.7769 465.0765)">
			<stop  offset="0" style="stop-color:#6346CE"/>
			<stop  offset="7.974003e-02" style="stop-color:#6F58DC"/>
			<stop  offset="0.19" style="stop-color:#7A69E8"/>
			<stop  offset="0.326" style="stop-color:#8275F1"/>
			<stop  offset="0.5136" style="stop-color:#877CF7"/>
			<stop  offset="1" style="stop-color:#887EF8"/>
		</linearGradient>
		<path style="display:inline;fill:url(#SVGID_00000098906954217728700790000012007092375428181938_);" d="M178.8,185.2
			c-8.6-18.5-22.4-27.7-28.8-24.1c-3.1,1.7-3.4,5.9-3.3,10.9c0.2,5,4.1,17.4,9,26c2.1,3.7,4.2,6.9,6.5,9.8
			C172.3,220.3,183.4,193.3,178.8,185.2z"/>
		<g class="st63">
			<path class="st10" d="M82.3,20.9c1.3,0.2,2.7,0.5,3.9,1.2c1.2,0.7,2.7,2.1,2.8,3.6c0.1,2.7-4,2.9-5.8,3.3c-1.4,0.2-3,0.4-4.3-0.4
				c-1.2-0.7-2.1-2-2.3-3.3C76.1,21.8,79.6,20.6,82.3,20.9z"/>
		</g>
		<g class="st63">
			<ellipse class="st4" cx="113.2" cy="297.2" rx="20.2" ry="4.1"/>
		</g>
		<g class="st63">
			<g>
				<path class="st11" d="M79.4,143.3c-0.7,0-1.4-0.1-2.1-0.2c-4.4-0.9-7.9-4.4-8.6-8.8c-0.2-1.3-0.2-2.6,0.1-3.9
					c1-5.1,5.5-8.7,10.7-8.7c0.7,0,1.4,0.1,2.1,0.2c4.2,0.8,7.5,4.1,8.5,8.2c0.4,1.5,0.4,3,0.1,4.5C89,139.6,84.5,143.3,79.4,143.3z
					"/>
			</g>
			<g>
				<g>
					<path class="st12" d="M79.3,122.6c0.6,0,1.3,0.1,1.9,0.2c3.9,0.8,6.9,3.8,7.7,7.4c0.3,1.3,0.3,2.7,0.1,4.1
						c-0.9,4.7-5,7.9-9.7,7.9c-0.6,0-1.3-0.1-1.9-0.2c-4.1-0.8-7.2-4.1-7.8-8c-0.2-1.1-0.2-2.3,0-3.6
						C70.6,125.8,74.7,122.6,79.3,122.6 M79.3,120.5L79.3,120.5c-5.7,0-10.6,4-11.7,9.6c-0.3,1.4-0.3,2.9-0.1,4.3
						c0.8,4.8,4.6,8.7,9.5,9.7c0.8,0.2,1.6,0.2,2.3,0.2c5.7,0,10.6-4,11.7-9.6c0.3-1.7,0.3-3.3-0.1-5c-1.1-4.5-4.7-8.1-9.3-9
						C80.9,120.6,80.1,120.5,79.3,120.5L79.3,120.5z"/>
				</g>
			</g>
		</g>
		<g class="st63">
			<ellipse transform="matrix(0.1945 -0.9809 0.9809 0.1945 -61.0733 185.5965)" class="st4" cx="82.5" cy="130" rx="4" ry="5.4"/>
		</g>
		<g class="st63">
			<g>
				<path class="st11" d="M125.1,138.7c-0.8,0-1.7-0.1-2.5-0.2c-5.2-1-9.3-5.2-10.2-10.4c-0.3-1.5-0.2-3.1,0.1-4.6
					c1.2-6,6.5-10.3,12.6-10.3c0.8,0,1.7,0.1,2.5,0.2c5,1,8.9,4.8,10,9.7c0.4,1.8,0.4,3.6,0.1,5.4
					C136.5,134.4,131.2,138.7,125.1,138.7z"/>
			</g>
			<g>
				<g>
					<path class="st12" d="M125,114.2c0.8,0,1.5,0.1,2.3,0.2c4.7,0.9,8.2,4.5,9.2,8.9c0.4,1.6,0.4,3.2,0.1,4.9
						c-1.1,5.6-6,9.5-11.6,9.5c-0.8,0-1.5-0.1-2.3-0.2c-5-1-8.6-4.9-9.4-9.6c-0.2-1.4-0.2-2.8,0.1-4.3
						C114.6,118,119.5,114.2,125,114.2 M125,112.1L125,112.1c-6.6,0-12.3,4.7-13.6,11.1c-0.3,1.7-0.4,3.4-0.1,5
						c1,5.6,5.4,10.1,11,11.3c0.9,0.2,1.8,0.3,2.7,0.3c6.6,0,12.3-4.7,13.6-11.1c0.4-1.9,0.4-3.9-0.1-5.8
						c-1.2-5.3-5.5-9.4-10.8-10.5C126.9,112.2,125.9,112.1,125,112.1L125,112.1z"/>
				</g>
			</g>
		</g>
		<g class="st63">
			
				<ellipse transform="matrix(0.1945 -0.9809 0.9809 0.1945 -17.8082 223.467)" class="st4" cx="127.2" cy="122.6" rx="4.8" ry="6.5"/>
		</g>
		<g class="st63">
			<path class="st8" d="M112.3,163c-0.4,0-0.9-0.2-1.2-0.6c-0.6-0.7-0.5-1.6,0.2-2.2c2.4-2,4.9-3.8,7.6-5.3c0.7-0.4,1.7-0.1,2.1,0.6
				c0.4,0.8,0.1,1.7-0.6,2.1c-2.5,1.4-4.9,3.1-7.1,4.9C113,162.9,112.6,163,112.3,163z"/>
		</g>
		<g class="st63">
			<g>
				<path class="st23" d="M140.3,36.8c-1.3-0.2-2.3-0.9-2.8-1.9c-0.5-1-0.7-2.2-0.4-3.7c0.2-1.3,0.6-2.5,1.1-3.6
					c0.5-1.1,1.2-2.2,2.1-3.3c0.9-1.1,2.1-2.1,3.5-3.1c0.9-0.7,1.7-1.4,2.3-1.9c0.6-0.6,1-1.1,1.3-1.6c0.3-0.5,0.5-1.1,0.7-1.7
					c0.2-1.2-0.1-2.1-0.8-2.9c-0.7-0.8-1.9-1.3-3.5-1.6c-1.6-0.3-3.1-0.4-4.6-0.2c-1.5,0.1-2.9,0.4-4.3,0.9c-1.6,0.5-3,0.6-4.1,0.1
					c-1.1-0.5-1.9-1.2-2.4-2.2c-0.5-1-0.7-2.1-0.5-3.3c0.1-1.2,0.7-2.3,1.6-3.4c0.9-1,2.2-1.8,3.9-2.3c2.2-0.6,4.5-1,6.9-1.1
					c2.4-0.1,4.5,0,6.4,0.4c3.5,0.6,6.4,1.7,8.8,3.3c2.4,1.6,4.2,3.5,5.3,5.7c1.1,2.2,1.4,4.7,0.9,7.3c-0.3,1.6-0.8,3-1.4,4.2
					c-0.7,1.2-1.6,2.4-2.8,3.5c-1.2,1.1-2.8,2.1-4.9,3.2c-1.7,0.9-3.1,1.7-4.1,2.4c-1,0.8-1.8,1.5-2.3,2.2c-0.5,0.7-0.9,1.5-1.3,2.4
					c-0.4,0.9-0.9,1.5-1.7,1.9C142.4,37,141.5,37.1,140.3,36.8z M136.9,54.7c-2.2-0.4-3.9-1.4-5-3c-1.1-1.6-1.4-3.5-1-5.7
					c0.4-2.1,1.3-3.7,2.9-4.8c1.6-1.1,3.4-1.4,5.7-1c2.3,0.4,4,1.4,5,2.9c1,1.5,1.3,3.4,1,5.5c-0.4,2.2-1.3,3.8-2.8,5
					C141.1,54.7,139.2,55.1,136.9,54.7z"/>
			</g>
		</g>
		<g class="st63">
			<g>
				<path class="st10" d="M155,67.4c-1-0.7-1.7-1.6-1.8-2.6s0-2.1,0.7-3.1c0.6-1,1.5-1.6,2.5-1.8c1-0.2,2.1,0,3.1,0.7
					c1.1,0.7,1.7,1.6,1.9,2.6c0.2,1-0.1,2-0.7,3c-0.7,1-1.5,1.6-2.5,1.9C157.2,68.3,156.1,68.1,155,67.4z M160.6,59
					c-0.6-0.4-1-0.9-1-1.6c-0.1-0.6,0.1-1.3,0.6-2c0.4-0.6,0.9-1.1,1.4-1.6c0.5-0.5,1.1-0.8,1.8-1.2c0.7-0.3,1.5-0.6,2.4-0.8
					c0.6-0.2,1.1-0.3,1.6-0.5c0.4-0.2,0.7-0.3,1-0.5c0.3-0.2,0.5-0.4,0.7-0.7c0.4-0.5,0.4-1.1,0.2-1.7c-0.2-0.6-0.7-1.1-1.4-1.6
					c-0.7-0.5-1.5-0.9-2.3-1.1c-0.8-0.3-1.6-0.4-2.4-0.5c-0.9-0.1-1.6-0.4-2.1-0.9c-0.4-0.5-0.7-1-0.7-1.7c0-0.6,0.1-1.2,0.5-1.8
					c0.3-0.6,0.8-1,1.5-1.4c0.7-0.3,1.5-0.4,2.5-0.3c1.3,0.2,2.5,0.5,3.7,1c1.2,0.5,2.3,1,3.2,1.6c1.6,1.1,2.9,2.3,3.7,3.7
					c0.9,1.4,1.3,2.7,1.4,4.1c0.1,1.4-0.3,2.7-1.1,4c-0.5,0.7-1,1.3-1.6,1.8c-0.6,0.5-1.3,0.9-2.2,1.1c-0.8,0.3-1.9,0.5-3.1,0.5
					c-1.1,0.1-1.9,0.2-2.6,0.3c-0.7,0.2-1.2,0.4-1.6,0.6c-0.4,0.2-0.8,0.6-1.2,0.9c-0.4,0.4-0.8,0.6-1.3,0.6
					C161.7,59.6,161.2,59.4,160.6,59z"/>
			</g>
		</g>
		<path class="st68" d="M131.5,106.4c4.9-2.5,12.2-0.7,13.8,5.1c0,0-0.1,0.1-0.1,0.1C142.3,106.3,136.7,105.7,131.5,106.4
			L131.5,106.4z"/>
	</g>
	<g id="SUPER-CONTENT" class="st62">
		<g class="st63">
			<path class="st2" d="M93.6,75.1c-1.7-17.2,0.8-30.3,7.1-37.9c3.9-4.7,9.2-7.3,15.8-7.9l0.2,2.1c-6,0.5-10.8,3-14.3,7.2
				c-4.2,5-8.7,15.4-6.6,36.4L93.6,75.1z"/>
		</g>
		<g class="st63">
			<path class="st2" d="M179.6,117.2c1.5,11.6-6.8,22.2-18.4,23.7c-9,1.1-17.4-3.5-21.4-11c-1.2-2.2-2-4.7-2.3-7.3
				c-1.5-11.6,6.8-22.2,18.4-23.7c8.6-1.1,16.6,3.1,20.8,10C178.2,111.3,179.2,114.1,179.6,117.2z"/>
		</g>
		<g class="st63">
			<path class="st2" d="M67.3,131.3c1.5,11.6-6.8,22.2-18.4,23.7c-9,1.1-17.4-3.5-21.4-11c-1.2-2.2-2-4.7-2.3-7.3
				C23.7,125,32,114.4,43.6,113c8.6-1.1,16.6,3.1,20.8,10C65.9,125.4,66.9,128.3,67.3,131.3z"/>
		</g>
		
			<linearGradient id="SVGID_00000126295941072708519740000001489668761683639725_" gradientUnits="userSpaceOnUse" x1="85.5381" y1="290.3383" x2="85.5381" y2="183.7372" gradientTransform="matrix(0.9922 -0.125 0.125 0.9922 -12.6379 -97.4889)">
			<stop  offset="0" style="stop-color:#6346CE"/>
			<stop  offset="3.341052e-02" style="stop-color:#6F58DC"/>
			<stop  offset="7.961620e-02" style="stop-color:#7A69E8"/>
			<stop  offset="0.1366" style="stop-color:#8275F1"/>
			<stop  offset="0.2152" style="stop-color:#877CF7"/>
			<stop  offset="0.419" style="stop-color:#887EF8"/>
		</linearGradient>
		<path style="display:inline;fill:url(#SVGID_00000126295941072708519740000001489668761683639725_);" d="M170.4,147.2
			c-2.8,20.2-26.6,28.3-61.6,32.7c-35,4.4-58.8,0.2-67.9-16.4c-9.1-16.6-3.8-50.8,9-67.1C59.8,83.6,77.2,76.4,93,74.4
			c13.1-1.6,38.1,0,52.3,9.4C163.5,95.9,173.2,127,170.4,147.2z"/>
		
			<linearGradient id="SVGID_00000017506450736270449940000014822608362164726191_" gradientUnits="userSpaceOnUse" x1="101.6582" y1="274.0194" x2="101.6582" y2="189.1507">
			<stop  offset="9.497207e-02" style="stop-color:#6346CE"/>
			<stop  offset="0.1548" style="stop-color:#6A51D6"/>
			<stop  offset="0.3" style="stop-color:#7765E5"/>
			<stop  offset="0.4653" style="stop-color:#8173F0"/>
			<stop  offset="0.6658" style="stop-color:#867BF6"/>
			<stop  offset="1" style="stop-color:#887EF8"/>
		</linearGradient>
		<path style="display:inline;fill:url(#SVGID_00000017506450736270449940000014822608362164726191_);" d="M56.2,223.4
			c-3.3-9.4-5.8-25.4,1.7-31.8c8.1-6.9,30.5,3.3,34.2,3.9c8.4,1.2,45.8-6.2,53.2,0.8c12.9,11.7-3.4,36-3.4,36
			c-2.9,6.2-7.5,10-10.3,17.3c-2.7,7.3-8,24.5-22.3,24.5c-20.4-0.2-39.6-19-51.4-45.6L56.2,223.4z"/>
		<g class="st63">
			<path class="st2" d="M99.8,117.8c0-0.3-3-28-5.9-43.6l1-0.2c2.9,15.7,5.8,43.4,5.9,43.7L99.8,117.8z"/>
		</g>
		<g class="st63">
			<path class="st2" d="M80.9,135.9c-14.1,0-28.8-1.6-45.4-4.6l0.2-1c50.1,9,82.4,5.1,133-15.8l0.4,1
				C135.1,129.5,109.3,135.9,80.9,135.9z"/>
		</g>
		<g class="st63">
			<g>
				<path class="st8" d="M76.3,154.7c-6.2,0-12.4-1.3-18-3.9c-3.1-1.4-5.2-2.9-6.8-4.6c-3.3-3.7-4.6-9.4-3.7-17s3.4-12.8,7.5-15.5
					c3.7-2.5,8.6-2.8,12.9-2.9c3.2-0.1,6.5-0.1,9.7-0.1c6.1,0,12.5,0,18.7-0.6c0.7-0.1,3.8-0.5,4.7-0.6c6-1,12-2.5,17.9-4
					c3.1-0.8,6.2-1.6,9.4-2.3c2.6-0.6,5.4-1.2,8.1-1.2c1.9,0,3.6,0.3,5.1,0.8c4.7,1.7,8.4,6.1,11.1,13.2c2.7,7.1,2.9,12.9,0.6,17.4
					c-1.1,2.1-2.8,4-5.5,6.1c-6.9,5.6-15.7,8.9-24.5,9.5c-1,0.1-2.1,0.1-3.4,0.1c-1.7,0-3.5-0.1-5.1-0.1c-1.7-0.1-3.4-0.1-5.2-0.1
					c-1.9,0-3.6,0.1-5.1,0.2l-1.9,0.2c-3.4,0.5-6.7,1.5-10,2.4c-2.7,0.8-5.5,1.6-8.2,2.1C81.8,154.4,79,154.7,76.3,154.7L76.3,154.7
					z"/>
			</g>
			<g>
				<g>
					<path class="st2" d="M136.5,102.5c1.8,0,3.4,0.3,4.9,0.8c4.5,1.6,8.1,6,10.8,12.9c2.6,6.9,2.8,12.6,0.6,16.9
						c-1,2-2.7,3.9-5.3,6c-6.9,5.5-15.5,8.8-24.2,9.4c-1,0.1-2.1,0.1-3.3,0.1c-1.7,0-3.4-0.1-5.1-0.1c-1.7-0.1-3.5-0.1-5.2-0.1
						c-1.9,0-3.6,0.1-5.2,0.2l-1.9,0.2c-3.4,0.5-6.8,1.5-10,2.5c-2.7,0.8-5.4,1.6-8.2,2.1c-2.6,0.5-5.3,0.8-8,0.8
						c-6.1,0-12.3-1.3-17.8-3.8c-3-1.4-5.1-2.8-6.6-4.5c-3.2-3.6-4.4-9.2-3.6-16.6c0.8-7.4,3.3-12.5,7.2-15.2
						c3.6-2.4,8.2-2.7,12.6-2.9c3.2-0.1,6.5-0.1,9.6-0.1c6.2,0,12.5,0,18.7-0.6c0.7-0.1,3.8-0.5,4.7-0.6c6-1,12.1-2.5,17.9-4
						c3.1-0.8,6.2-1.6,9.4-2.3C131.1,103.1,133.9,102.5,136.5,102.5 M136.5,101.5c-2.8,0-5.6,0.6-8.3,1.2
						c-9.1,2.1-18.1,4.8-27.2,6.3c-0.8,0.1-3.9,0.5-4.6,0.6c-9.4,0.9-18.9,0.4-28.3,0.7c-4.6,0.1-9.4,0.5-13.2,3
						c-5,3.4-7,9.9-7.7,15.9c-0.7,6.1-0.2,12.8,3.9,17.4c1.9,2.1,4.4,3.6,7,4.7c5.7,2.6,12,3.9,18.2,3.9c2.7,0,5.5-0.3,8.2-0.8
						c6.1-1.2,12-3.6,18.2-4.6l1.9-0.2c1.7-0.2,3.4-0.2,5-0.2c3.4,0,6.9,0.2,10.3,0.2c1.1,0,2.3,0,3.4-0.1c9-0.6,17.8-4,24.8-9.6
						c2.2-1.8,4.3-3.8,5.6-6.3c2.8-5.4,1.6-12.1-0.6-17.8c-2.2-5.7-5.7-11.5-11.4-13.5C140.1,101.7,138.3,101.5,136.5,101.5
						L136.5,101.5z"/>
				</g>
			</g>
		</g>
		<g class="st63">
			<path class="st2" d="M90,223.2c-0.2,0-0.5-0.2-0.5-0.4c-2.8-13,0.7-21.2,2.9-26.6c0.1-0.3,0.4-0.4,0.7-0.3
				c0.3,0.1,0.4,0.4,0.3,0.7c-2.2,5.3-5.6,13.3-2.9,26c0.1,0.3-0.1,0.6-0.4,0.6C90.1,223.2,90,223.2,90,223.2z"/>
		</g>
		<g class="st63">
			<g>
				<path class="st2" d="M94.4,104.2c-0.1-0.1-0.1-0.2-0.2-0.3l-1.8,2.5c0.3,0.1,0.6,0.2,0.9,0.1c0.8-0.1,1.5-0.9,1.3-1.7
					C94.6,104.6,94.5,104.4,94.4,104.2z"/>
			</g>
			<g>
				<path class="st2" d="M92.8,103.4c-0.9,0.1-1.5,0.9-1.3,1.7c0,0.2,0.1,0.4,0.2,0.5c0.1,0.1,0.2,0.3,0.3,0.4l1.8-2.5
					C93.5,103.5,93.2,103.4,92.8,103.4z"/>
			</g>
			<g>
				<path class="st2" d="M106.9,102.2c-0.3-0.5-0.9-0.8-1.5-0.7c-0.7,0.1-1.2,0.6-1.3,1.3l3-0.1C107.1,102.5,107,102.4,106.9,102.2z
					"/>
			</g>
			<g>
				<path class="st2" d="M104.1,103.3c0,0.2,0.1,0.3,0.2,0.5c0.3,0.5,0.9,0.9,1.6,0.8c0.7-0.1,1.3-0.7,1.4-1.4L104.1,103.3z"/>
			</g>
		</g>
		<g class="st63">
			<path class="st8" d="M114.5,155.9c1.2,8.6-3.6,12.5-8,12.9c-2.7,0.3-9.5-2-10.5-10.1c-0.2-0.7-0.4-1.5-0.3-2.3
				c0-0.9,5.7-1.9,8.7-2.4c3-0.4,9.5-1.4,9.7-0.8C114.4,154.1,114.4,154.9,114.5,155.9z"/>
		</g>
		<g class="st63">
			<path class="st10" d="M123,28c0.1,1.3,0.1,2.7-0.3,4c-0.4,1.3-1.4,3.1-2.8,3.5c-2.5,0.7-3.6-3.2-4.3-4.9
				c-0.5-1.3-1.1-2.9-0.6-4.2c0.4-1.3,1.4-2.5,2.7-2.9C120.8,22.2,122.7,25.3,123,28z"/>
		</g>
		<g class="st63">
			<path class="st2" d="M117.5,257.3c-0.2,0-0.4-0.1-0.5-0.3c-2.8-7.5-2.7-16.9-2.6-23.9c0.1-4.4,0.1-8.6-0.8-9.3c0,0-0.2-0.1-0.5,0
				c-12.5,2.7-28.8-1.7-37.6-4.1c-1.8-0.5-3.4-0.9-4.5-1.2c-0.8-0.2-1.5-0.1-1.9,0.4c-2.4,2.3-1.1,13.2,0.7,24.8
				c0,0.3-0.1,0.5-0.4,0.6c-0.3,0-0.5-0.1-0.6-0.4c-2.6-16.6-2.7-23.5-0.4-25.7c0.7-0.7,1.7-0.9,2.9-0.6c1.2,0.3,2.7,0.7,4.5,1.2
				c8.7,2.4,24.9,6.8,37,4.1c0.6-0.3,1.1-0.1,1.4,0.1c1.3,0.9,1.3,4.1,1.2,10.1c-0.1,6.8-0.2,16.2,2.5,23.5c0.1,0.3,0,0.6-0.3,0.7
				C117.6,257.2,117.5,257.3,117.5,257.3z"/>
		</g>
		<g class="st63">
			<g>
				<path class="st2" d="M109,228.9c-0.3-0.8-1-1.4-1.9-1.4c-1,0-1.8,0.8-2,1.8l4,0.4C109.1,229.4,109.1,229.1,109,228.9z"/>
			</g>
			<g>
				<path class="st2" d="M105.2,230.7c0.3,0.9,1,1.5,1.9,1.5c0.9,0,1.7-0.7,2-1.7l-4-0.4C105.1,230.3,105.2,230.5,105.2,230.7z"/>
			</g>
			<g>
				<path class="st2" d="M72.2,226.3c0.9,0,1.6-1.1,1.6-2.3c0-0.3,0-0.6-0.1-0.9l-2.7,2.6C71.4,226,71.8,226.3,72.2,226.3z"/>
			</g>
			<g>
				<path class="st2" d="M72.2,221.6c-0.9,0-1.6,1.1-1.6,2.3c0,0.3,0,0.6,0.1,0.8c0,0,0,0.1,0,0.1l2.7-2.6
					C73.1,221.9,72.7,221.6,72.2,221.6z"/>
			</g>
		</g>
		<g class="st63">
			
				<linearGradient id="SVGID_00000075868199688020822140000006939878139206942900_" gradientUnits="userSpaceOnUse" x1="30.6427" y1="55.9736" x2="6.6308" y2="-6.5795" gradientTransform="matrix(0.9852 0.1712 -0.1712 0.9852 7.8726 149.5528)">
				<stop  offset="0" style="stop-color:#6346CE"/>
				<stop  offset="7.779031e-02" style="stop-color:#6D55D9"/>
				<stop  offset="0.2127" style="stop-color:#7967E7"/>
				<stop  offset="0.3724" style="stop-color:#8274F1"/>
				<stop  offset="0.5789" style="stop-color:#877CF6"/>
				<stop  offset="1" style="stop-color:#887EF8"/>
			</linearGradient>
			<path style="fill:url(#SVGID_00000075868199688020822140000006939878139206942900_);" d="M12.7,179.2c9,9.1,12.8,11,17.7,15.5
				c5.2,4.8,6,14.6,9.3,12.9c3.2-1.6,3.6-5.8,3.6-10.8c0-5-3.5-17.4-8.1-26.2c-2-3.9-4.2-7.4-6.4-10.4c-1.9-2.6-3.8-4.8-5.7-6.7
				c-5.7-5.7-11.3-8.4-15.7-7.8C-4.6,147.3-1.5,164.4,12.7,179.2z"/>
			<g>
				<path class="st2" d="M6.4,151.1c0.2,0.7,0.6,1.3,1,1.9c2.9,4.2,7.7,6.7,12.2,9c0.8,0.4,1.7,0.8,2.6,1.1c0.3,0.1,0.7,0.1,1,0
					c0.4-0.2,0.5-0.7,0.6-1.1c0.7-3.7-1.3-7.5-4.1-9.9c-2.5-2.1-5.7-3.5-8.7-4.6C8.3,146.5,5.4,147.9,6.4,151.1z"/>
			</g>
		</g>
		<g class="st63">
			
				<linearGradient id="SVGID_00000115507536988040719740000001786189749478320303_" gradientUnits="userSpaceOnUse" x1="-1530.5486" y1="95.0224" x2="-1555.9001" y2="28.9793" gradientTransform="matrix(-0.9946 -0.1039 -0.1039 0.9946 -1366.2584 -27.034)">
				<stop  offset="0" style="stop-color:#6346CE"/>
				<stop  offset="7.779031e-02" style="stop-color:#6D55D9"/>
				<stop  offset="0.2127" style="stop-color:#7967E7"/>
				<stop  offset="0.3724" style="stop-color:#8274F1"/>
				<stop  offset="0.5789" style="stop-color:#877CF6"/>
				<stop  offset="1" style="stop-color:#887EF8"/>
			</linearGradient>
			<path style="fill:url(#SVGID_00000115507536988040719740000001786189749478320303_);" d="M170.9,199.7
				c-11.7,6.7-16.2,7.5-22.4,10.7c-6.6,3.4-10.3,13.1-13.2,10.4c-2.7-2.5-2-6.9-0.6-11.9c1.4-5,8.6-16.7,15.7-24.2
				c3.2-3.4,6.4-6.3,9.5-8.8c2.6-2.1,5.2-3.8,7.7-5.2c7.4-4.1,13.8-5.3,18.2-3.4C197.7,172.3,189.6,188.8,170.9,199.7z"/>
		</g>
		<g class="st63">
			<path class="st12" d="M114.4,131.6c-0.4,0-0.8-0.3-1-0.7c-0.2-0.4-0.1-0.9,0.2-1.2c4.6-5.3,18.1-9.3,18.7-9.5
				c0.6-0.2,1.2,0.2,1.4,0.8c0.2,0.6-0.2,1.2-0.8,1.4c-0.1,0-9.8,2.9-15.2,6.8c1.9-0.1,3.6-0.3,5.3-0.4c4.2-0.3,8.1-0.7,13.3-0.5
				c0.6,0,1.1,0.6,1.1,1.2c0,0.6-0.5,1.1-1.2,1.1c-5.1-0.2-9,0.2-13,0.5C120.5,131.3,117.7,131.5,114.4,131.6
				C114.5,131.6,114.5,131.6,114.4,131.6z"/>
		</g>
		<g class="st63">
			<path class="st12" d="M68.1,141c-0.5,0-0.9-0.3-1.1-0.7c-0.2-0.6,0.1-1.3,0.7-1.5c4.9-1.8,8.7-2.8,12.8-3.7
				c1.7-0.4,3.4-0.8,5.2-1.3c-6.4-1.9-16.5-1.6-16.6-1.6c-0.6,0-1.2-0.5-1.2-1.1c0-0.6,0.5-1.2,1.1-1.2c0.6,0,14.6-0.5,20.7,3.1
				c0.4,0.2,0.6,0.7,0.6,1.1c-0.1,0.5-0.4,0.8-0.8,1c-3.1,0.9-5.8,1.6-8.4,2.2c-4,1-7.8,1.9-12.5,3.7C68.4,140.9,68.3,141,68.1,141z
				"/>
		</g>
		<g class="st63">
			<ellipse class="st4" cx="122.4" cy="297.2" rx="15.5" ry="4.1"/>
		</g>
		<path class="st68" d="M128.3,108.6c6.7-3.7,15.1-1.7,17.3,6.2c0.1,0.4,0.2,0.9,0.3,1.3l-0.1,0
			C142.4,107.7,136.3,106.6,128.3,108.6L128.3,108.6z"/>
	</g>
	<g id="CONTENT" class="st62">
		<g class="st63">
			<path class="st2" d="M100.7,77.7c-0.7-4.5-1.2-9.7,1-14.1c1.7-3.4,4.6-5.7,7.4-8c2.7-2.2,5.3-4.2,6.8-7c1.9-3.6,1.8-8,1.7-11.9
				l2,0c0.1,4,0.2,8.9-2,12.9c-1.7,3.2-4.5,5.5-7.3,7.7c-2.8,2.2-5.4,4.3-6.9,7.3c-1.9,3.9-1.4,8.7-0.8,12.9L100.7,77.7z"/>
		</g>
		<g class="st63">
			<path class="st2" d="M180,132.8c0,11.6-9.4,21.1-21.1,21.1c-9,0-16.7-5.6-19.7-13.6c-0.9-2.3-1.4-4.9-1.4-7.5
				c0-11.6,9.4-21.1,21.1-21.1c8.6,0,15.9,5.1,19.2,12.5C179.4,126.8,180,129.7,180,132.8z"/>
		</g>
		<g class="st63">
			<path class="st2" d="M67.6,132.8c0,11.6-9.4,21.1-21.1,21.1c-9,0-16.7-5.6-19.7-13.6c-0.9-2.3-1.4-4.9-1.4-7.5
				c0-11.6,9.4-21.1,21.1-21.1c8.6,0,15.9,5.1,19.2,12.5C66.9,126.8,67.6,129.7,67.6,132.8z"/>
		</g>
		
			<linearGradient id="SVGID_00000067930110088797861100000008559045014426372503_" gradientUnits="userSpaceOnUse" x1="102.2209" y1="181.4782" x2="102.2209" y2="75.5787">
			<stop  offset="0.2626" style="stop-color:#6346CE"/>
			<stop  offset="0.3216" style="stop-color:#6E57DB"/>
			<stop  offset="0.4101" style="stop-color:#7A68E8"/>
			<stop  offset="0.5174" style="stop-color:#8275F1"/>
			<stop  offset="0.6617" style="stop-color:#877CF6"/>
			<stop  offset="1" style="stop-color:#887EF8"/>
		</linearGradient>
		<path style="display:inline;fill:url(#SVGID_00000067930110088797861100000008559045014426372503_);" d="M167.2,156.9
			c-5.2,19.5-29.7,24.6-64.7,24.6c-35,0-57.9-7.1-64.8-24.6c-6.9-17.5,2.6-50.5,17.2-65c11.4-11.3,29.3-16.3,45.2-16.3
			c13.1,0,37.5,4.7,50.3,15.8C166.7,105.5,172.4,137.4,167.2,156.9z"/>
		
			<linearGradient id="SVGID_00000142867859637475319390000003948353572364060323_" gradientUnits="userSpaceOnUse" x1="103.6536" y1="260.4002" x2="103.6536" y2="192.5423">
			<stop  offset="0" style="stop-color:#6346CE"/>
			<stop  offset="7.885329e-02" style="stop-color:#6F59DC"/>
			<stop  offset="0.183" style="stop-color:#7A6AE9"/>
			<stop  offset="0.3127" style="stop-color:#8275F2"/>
			<stop  offset="0.4947" style="stop-color:#877CF7"/>
			<stop  offset="1" style="stop-color:#887EF8"/>
		</linearGradient>
		<path style="display:inline;fill:url(#SVGID_00000142867859637475319390000003948353572364060323_);" d="M59.1,224.3
			c-3.3-9.4-5.9-20.6,1.7-27.1c8.1-6.9,39.5-4,43.2-4c3.4,0,36.3-3,43.7,4c5.9,5.6,3.9,14.9,1.4,22.7l-3,9.4
			c-10,24.5-28.8,31.1-41.4,31.1c-11.9,0-32.1-4.5-43.8-31.1L59.1,224.3z"/>
		<g class="st63">
			<path class="st2" d="M102.4,119.2l-1,0c0-0.3,0.5-27.9-0.4-43.7l1-0.1C102.9,91.3,102.4,118.9,102.4,119.2z"/>
		</g>
		<g class="st63">
			<path class="st2" d="M169.4,129.1c-38.2-26.7-94.1-27-132.8-0.9l-0.6-0.9c18.8-12.7,42.3-19.7,66.2-19.7c0.5,0,0.9,0,1.4,0
				c24.1,0.3,47.7,7.6,66.3,20.6L169.4,129.1z"/>
		</g>
		<g class="st63">
			<g>
				<path class="st8" d="M126.8,140.1c-1.8,0-3.7-0.1-5.9-0.2c-2.8-0.2-5.6-0.6-8.4-1.1c-3.3-0.5-6.7-1.1-10.1-1.2h-1.9
					c-3.4,0.1-6.8,0.6-10.1,1.2c-2.7,0.4-5.6,0.9-8.4,1.1c-2.2,0.1-4.2,0.2-6,0.2c-8.3,0-14.5-1.4-19.6-4.6
					c-2.9-1.8-4.8-3.5-6.1-5.4c-3.5-5.1-2.5-12.2-0.4-17.1c3.2-7.3,6.9-11.9,11.8-14.4c2.1-1.1,5.3-1.6,9.4-1.6
					c1.8,0,3.7,0.1,5.8,0.3c4.4,0.4,7.5,0.5,10,0.5c1.2,0,2.3,0,3.4,0c1.2,0,2.5,0,3.9,0c1.7,0,3.4,0,5,0.1c0.3,0,1,0,1.8,0
					c1.1,0,2.4,0,2.9,0c1.7-0.1,3.4-0.1,5.4-0.1c1.5,0,2.9,0,4.3,0c1.3,0,2.7,0,4,0c2.7,0,6.1-0.1,10.3-0.5c2.1-0.2,4-0.3,5.8-0.3
					c4.1,0,7.3,0.5,9.4,1.6c4.7,2.4,6.7,6.3,9.3,11.6c0.3,0.6,0.6,1.2,0.9,1.8c2.7,5.3,2.2,13.2-1.1,18c-1.3,1.9-3.3,3.6-6.1,5.4
					C140.9,138.6,134.8,140.1,126.8,140.1L126.8,140.1z"/>
			</g>
			<g>
				<g>
					<path class="st2" d="M71,97.5c1.8,0,3.7,0.1,5.7,0.3c4.4,0.4,7.6,0.5,10.1,0.5c1.2,0,2.3,0,3.5,0c1.2,0,2.5,0,3.9,0
						c1.7,0,3.4,0,5,0.1c0.3,0,1,0,1.8,0c1.1,0,2.4,0,2.9,0c1.7-0.1,3.4-0.1,5.3-0.1c1.5,0,2.9,0,4.3,0c1.3,0,2.7,0,4,0
						c2.7,0,6.1-0.1,10.4-0.5c2-0.2,4-0.3,5.7-0.3c4,0,7.1,0.5,9.1,1.6c4.6,2.3,6.5,6.1,9.1,11.4c0.3,0.6,0.6,1.2,0.9,1.8
						c2.6,5.1,2.1,12.8-1.1,17.5c-1.3,1.9-3.2,3.5-6,5.2c-5,3.1-11,4.5-18.9,4.5c-1.8,0-3.7-0.1-5.9-0.2c-2.8-0.2-5.6-0.6-8.3-1.1
						c-3.3-0.5-6.7-1.1-10.2-1.2l-1.9,0c-3.4,0.1-6.9,0.6-10.2,1.2c-2.7,0.4-5.6,0.9-8.3,1.1c-2.2,0.1-4.2,0.2-6,0.2
						c-8.2,0-14.4-1.4-19.3-4.5c-2.8-1.7-4.7-3.4-6-5.2c-3.4-4.9-2.4-11.8-0.3-16.6c3.1-7.2,6.8-11.7,11.6-14.1
						C63.9,98.1,67,97.5,71,97.5 M133.6,96.5c-2.1,0-4.1,0.1-5.8,0.3c-3.9,0.4-7.1,0.5-10.3,0.5c-2.7,0-5.4-0.1-8.3-0.1
						c-1.7,0-3.4,0-5.4,0.1c-0.5,0-1.8,0-2.9,0c-0.8,0-1.5,0-1.8,0c-1.9-0.1-3.5-0.1-5-0.1c-2.7,0-5,0.1-7.4,0.1
						c-2.9,0-5.9-0.1-9.9-0.5c-1.7-0.2-3.7-0.3-5.8-0.3c-3.5,0-7.1,0.4-9.6,1.7c-5.4,2.7-9.1,7.7-12.1,14.6
						c-2.4,5.6-3,12.6,0.4,17.6c1.6,2.3,3.9,4.1,6.3,5.5c5.9,3.6,12.9,4.6,19.9,4.6c2,0,4-0.1,6-0.2c6.2-0.4,12.3-2.1,18.5-2.2h1.9
						c6.2,0.1,12.3,1.9,18.5,2.2c2,0.1,4,0.2,6,0.2c6.9,0,13.5-1,19.4-4.6c2.4-1.5,4.7-3.2,6.3-5.5c3.5-5,3.9-13.1,1.2-18.6
						c-3.3-6.4-5.1-10.9-10.5-13.7C140.7,96.9,137.1,96.5,133.6,96.5L133.6,96.5z"/>
				</g>
			</g>
		</g>
		<g class="st63">
			<g>
				<path class="st11" d="M113.5,125.3c-0.3-0.5-0.5-1-0.7-1.5c-0.6-1.5-0.8-3-0.8-4.5c0-7,5.7-12.7,12.8-12.7c5,0,9.6,2.9,11.7,7.5
					c0.7,1.6,1.1,3.4,1.1,5.2c0,2.1-0.5,4.2-1.5,6.1l-0.2,0.5l-0.5,0.1c-0.2,0-0.4,0-0.6,0c-0.6,0-1.1-0.1-1.7-0.3
					c-1.2-0.3-3.1-0.8-8.2-0.8c-5.4,0-7,0.4-8.1,0.7c-0.6,0.2-1.2,0.3-2.1,0.4l-0.6,0L113.5,125.3z"/>
			</g>
			<g>
				<g>
					<path class="st12" d="M124.7,107.5c4.8,0,8.9,2.8,10.7,6.9c0.7,1.5,1,3.1,1,4.8c0,2-0.5,3.9-1.4,5.6c-0.2,0-0.3,0-0.5,0
						c-1.5,0-2.4-1.1-9.9-1.1c-8.2,0-7.8,1-10.3,1.1c-0.2-0.5-0.5-0.9-0.7-1.4c-0.5-1.3-0.8-2.7-0.8-4.2
						C113,112.8,118.2,107.5,124.7,107.5 M124.7,105.5c-7.6,0-13.8,6.2-13.8,13.7c0,1.7,0.3,3.3,0.9,4.9c0.2,0.6,0.5,1.1,0.8,1.7
						l0.6,1.1l1.3-0.1c1-0.1,1.7-0.2,2.4-0.4c1.1-0.3,2.6-0.7,7.9-0.7c4.9,0,6.7,0.5,7.9,0.8c0.6,0.2,1.2,0.3,2,0.3
						c0.2,0,0.5,0,0.7,0l1-0.1l0.5-0.9c1.1-2,1.7-4.3,1.7-6.6c0-2-0.4-3.9-1.2-5.6C135.1,108.6,130.1,105.5,124.7,105.5L124.7,105.5
						z"/>
				</g>
			</g>
		</g>
		<g class="st63">
			<g>
				<path class="st11" d="M88.9,125.9c-0.4,0-0.9-0.1-1.5-0.3c-1.4-0.3-3.7-0.9-8.4-0.9c-4.6,0-6.8,0.5-8.1,0.9
					c-0.6,0.2-1.2,0.3-1.7,0.3c-0.3,0-0.6,0-0.8-0.1l-0.4-0.1l-0.2-0.4c-0.3-0.5-0.5-1-0.7-1.5c-0.6-1.5-0.8-3-0.8-4.5
					c0-7,5.7-12.7,12.8-12.7c5,0,9.6,2.9,11.7,7.5c0.7,1.6,1.1,3.4,1.1,5.2c0,2.1-0.5,4.2-1.5,6.1l-0.1,0.3l-0.3,0.1
					C89.6,125.8,89.3,125.9,88.9,125.9z"/>
			</g>
			<g>
				<g>
					<path class="st12" d="M79.1,107.5c4.8,0,8.9,2.8,10.7,6.9c0.7,1.5,1,3.1,1,4.8c0,2-0.5,3.9-1.4,5.6c-0.1,0.1-0.3,0.1-0.4,0.1
						c-1.1,0-3.2-1.2-9.9-1.2c-6.8,0-8.5,1.2-9.8,1.2c-0.2,0-0.4,0-0.5-0.1c-0.2-0.5-0.5-0.9-0.7-1.4c-0.5-1.3-0.8-2.7-0.8-4.2
						C67.3,112.8,72.6,107.5,79.1,107.5 M79.1,105.5c-7.6,0-13.8,6.2-13.8,13.7c0,1.7,0.3,3.3,0.9,4.9c0.2,0.6,0.5,1.1,0.8,1.7
						l0.4,0.7l0.8,0.2c0.4,0.1,0.7,0.2,1.1,0.2c0.6,0,1.2-0.1,1.9-0.3c1.3-0.3,3.4-0.8,7.9-0.8c4.5,0,6.8,0.6,8.1,0.9
						c0.7,0.2,1.2,0.3,1.7,0.3c0.5,0,1-0.1,1.5-0.4l0.5-0.3l0.3-0.5c1.1-2,1.7-4.3,1.7-6.6c0-2-0.4-3.9-1.2-5.6
						C89.4,108.6,84.5,105.5,79.1,105.5L79.1,105.5z"/>
				</g>
			</g>
		</g>
		<g class="st63">
			<path class="st2" d="M104.3,224.7c-0.3,0-0.5-0.2-0.5-0.5c-0.9-12.7-0.1-24.4,0.2-29.4c0-0.3,0.3-0.5,0.5-0.5
				c0.3,0,0.5,0.3,0.5,0.5c-0.3,5-1.1,16.7-0.2,29.3C104.9,224.5,104.7,224.7,104.3,224.7C104.4,224.7,104.4,224.7,104.3,224.7z"/>
		</g>
		<g class="st63">
			<g>
				<path class="st2" d="M95.7,92.5c-0.9,0-1.5,0.5-1.5,1c0,0.1,0,0.2,0.1,0.4c0.1,0.1,0.1,0.2,0.2,0.2l2.1-1.5
					C96.3,92.6,96,92.5,95.7,92.5z"/>
			</g>
			<g>
				<path class="st2" d="M95.7,94.6c0.9,0,1.5-0.5,1.5-1c0-0.1,0-0.3-0.1-0.4c0-0.1-0.1-0.1-0.2-0.2l-2,1.5
					C95.1,94.5,95.4,94.6,95.7,94.6z"/>
			</g>
			<g>
				<path class="st2" d="M109.8,92.9c-0.2-0.4-0.8-0.6-1.4-0.6c-0.7,0-1.2,0.3-1.4,0.7l3,0.2C109.8,93.1,109.8,93,109.8,92.9z"/>
			</g>
			<g>
				<path class="st2" d="M106.9,93.7c0.2,0.4,0.8,0.7,1.4,0.7c0.7,0,1.3-0.3,1.5-0.8l-3-0.2C106.8,93.5,106.9,93.6,106.9,93.7z"/>
			</g>
		</g>
		<g class="st63">
			<path class="st8" d="M108,147.1c-0.6,3.4-3.8,5.7-7.3,5.1c-2.7-0.5-4.7-2.5-5.1-5c-0.1-0.7-0.2-1.5,0-2.3c0.1-0.9,2.9-2,5.9-2.1
				s6.3,1,6.5,1.6C108.1,145.3,108.2,146.2,108,147.1z"/>
		</g>
		<g class="st63">
			<ellipse class="st4" cx="81" cy="113.1" rx="6.4" ry="4.1"/>
		</g>
		<g class="st63">
			<ellipse class="st4" cx="125.3" cy="113.1" rx="6.4" ry="4.1"/>
		</g>
		<g class="st63">
			<path class="st2" d="M124.9,252.1c-0.1,0-0.2,0-0.3-0.1c-0.2-0.2-0.3-0.5-0.1-0.7c4.9-7.3,5.1-23.6,2.1-27.3
				c-0.6-0.7-1.1-0.6-1.4-0.5c-15.2,3.3-37.2,1.2-43.4-0.2c-0.2,0-0.7-0.2-1.5,0.7c-2.6,3.2-3.7,16.5,1.4,26.7
				c0.1,0.3,0,0.6-0.2,0.7c-0.3,0.1-0.6,0-0.7-0.2c-5.1-10.3-4.3-24-1.3-27.8c0.9-1.2,1.9-1.2,2.5-1.1c6.1,1.4,27.8,3.5,42.8,0.3
				c0.9-0.3,1.8-0.1,2.5,0.8c3.2,4,3.2,20.7-2.1,28.5C125.2,252.1,125.1,252.1,124.9,252.1z"/>
		</g>
		<g class="st63">
			<g>
				<g>
					<path class="st2" d="M124.4,229c-0.4-0.8-1.2-1.4-2.1-1.4c-1.1,0-2,0.7-2.3,1.7l4.6,0.4C124.5,229.5,124.5,229.2,124.4,229z"/>
				</g>
				<g>
					<path class="st2" d="M120.1,230.8c0.3,0.9,1.2,1.5,2.2,1.5c1.1,0,1.9-0.7,2.2-1.7l-4.6-0.4C120,230.4,120,230.6,120.1,230.8z"
						/>
				</g>
				<g>
					<path class="st2" d="M85.7,232.3c1.3,0,2.3-1,2.3-2.3c0-0.3-0.1-0.6-0.2-0.9l-3.8,2.5C84.5,232,85.1,232.3,85.7,232.3z"/>
				</g>
				<g>
					<path class="st2" d="M85.7,227.6c-1.3,0-2.3,1-2.3,2.3c0,0.3,0.1,0.6,0.2,0.8c0,0,0,0.1,0.1,0.1l3.8-2.5
						C87,227.9,86.4,227.6,85.7,227.6z"/>
				</g>
			</g>
		</g>
		
			<linearGradient id="SVGID_00000061460363110052182090000003938924364992324524_" gradientUnits="userSpaceOnUse" x1="41.9118" y1="86.7234" x2="14.2445" y2="89.9969" gradientTransform="matrix(-0.5842 0.8116 -0.8116 -0.5842 227.6564 224.6405)">
			<stop  offset="0" style="stop-color:#6346CE"/>
			<stop  offset="7.974003e-02" style="stop-color:#6F58DC"/>
			<stop  offset="0.19" style="stop-color:#7A69E8"/>
			<stop  offset="0.326" style="stop-color:#8275F1"/>
			<stop  offset="0.5136" style="stop-color:#877CF7"/>
			<stop  offset="1" style="stop-color:#887EF8"/>
		</linearGradient>
		<path style="display:inline;fill:url(#SVGID_00000061460363110052182090000003938924364992324524_);" d="M162.5,210.7
			c-19-16-18.7-23-26.7-31.5c-8-8.5-19.6-9.6-22.6-0.9c-4.8,12.5,15.4,29.7,32.2,36S169,216.8,162.5,210.7z"/>
		
			<linearGradient id="SVGID_00000083085994327674588160000000148047128107424910_" gradientUnits="userSpaceOnUse" x1="240.8916" y1="400.8322" x2="266.6861" y2="400.4955" gradientTransform="matrix(0.5842 0.8116 0.8116 -0.5842 -405.1974 224.6405)">
			<stop  offset="1.704893e-07" style="stop-color:#887EF8"/>
			<stop  offset="0.4864" style="stop-color:#877CF7"/>
			<stop  offset="0.674" style="stop-color:#8275F1"/>
			<stop  offset="0.81" style="stop-color:#7A69E8"/>
			<stop  offset="0.9203" style="stop-color:#6F58DC"/>
			<stop  offset="1" style="stop-color:#6346CE"/>
		</linearGradient>
		<path style="display:inline;fill:url(#SVGID_00000083085994327674588160000000148047128107424910_);" d="M44.8,210.7
			c19-16,18.7-23,26.7-31.5c8-8.5,19.6-9.6,22.6-0.9c4.8,12.5-15.4,29.7-32.2,36S38.3,216.8,44.8,210.7z"/>
		<g class="st63">
			<ellipse class="st4" cx="105.6" cy="297.2" rx="19" ry="4.1"/>
		</g>
		<g class="st63">
			<path class="st10" d="M117.3,30c1.3,0.2,2.7,0.5,3.8,1.2c1.2,0.7,2.7,2.1,2.7,3.6c0.1,2.7-3.9,2.9-5.8,3.2
				c-1.4,0.2-3,0.4-4.3-0.3c-1.2-0.7-2.1-1.9-2.3-3.3C111.1,30.9,114.5,29.7,117.3,30z"/>
		</g>
		<path class="st68" d="M67.6,100.5c-5.3,1.8-8.9,5.9-11.7,10.6c0,0-0.1,0-0.1,0c1.6-5.3,6-10.2,11.8-10.7
			C67.6,100.4,67.6,100.5,67.6,100.5L67.6,100.5z"/>
		<path class="st68" d="M135.5,135.7c4.5-1.8,9-4.1,12.4-7.6c0,0,0.8-0.9,0.8-0.9l0.6-1c0.4-0.7,0.7-1.5,1-2.3
			c0,5.1-5.6,8.7-10,10.5c-1.6,0.6-3.2,1.2-4.9,1.4L135.5,135.7L135.5,135.7z"/>
	</g>
	<g id="DEFAULT">
		<path class="st2" d="M102.3,76.3l-1.9-0.8c0.6-1.4,0.1-3.9-0.7-5.5c-0.2-0.4-0.4-0.7-0.6-1.1c-0.8-1.4-1.6-2.9-1.8-4.6
			c-0.3-2.2,0.4-4.4,2.1-7c0.5-0.7,1-1.4,1.5-2c0.9-1.1,1.7-2.2,2.3-3.4c1.8-3.6,1.7-8.1-0.4-11.5l1.8-1.1c2.4,4,2.6,9.4,0.4,13.6
			c-0.7,1.3-1.6,2.5-2.5,3.7c-0.5,0.6-1,1.3-1.4,1.9c-1.4,2.1-2,3.9-1.8,5.6c0.2,1.3,0.8,2.6,1.6,3.9c0.2,0.4,0.4,0.8,0.6,1.1
			C102.6,71,103.3,74.2,102.3,76.3z"/>
		<g>
			<path class="st2" d="M179.8,128.3c0,11.4-9.2,20.7-20.7,20.7c-8.8,0-16.3-5.5-19.3-13.3c-0.9-2.3-1.4-4.8-1.4-7.4
				c0-11.4,9.2-20.7,20.7-20.7c8.4,0,15.6,5,18.8,12.2C179.1,122.4,179.8,125.3,179.8,128.3z"/>
		</g>
		<g>
			<path class="st2" d="M66.8,128.3c0,11.4-9.2,20.7-20.7,20.7c-8.8,0-16.3-5.5-19.3-13.3c-0.9-2.3-1.4-4.8-1.4-7.4
				c0-11.4,9.2-20.7,20.7-20.7c8.4,0,15.6,5,18.8,12.2C66.1,122.4,66.8,125.3,66.8,128.3z"/>
		</g>
		
			<linearGradient id="SVGID_00000021826918897136495780000007108740638490159272_" gradientUnits="userSpaceOnUse" x1="102.0877" y1="181.4663" x2="102.0877" y2="75.0599">
			<stop  offset="0" style="stop-color:#6346CE"/>
			<stop  offset="0.11" style="stop-color:#6954DD"/>
			<stop  offset="0.26" style="stop-color:#6E5FE9"/>
			<stop  offset="0.47" style="stop-color:#8176F9"/>
			<stop  offset="1" style="stop-color:#887FF8"/>
		</linearGradient>
		<path style="fill:url(#SVGID_00000021826918897136495780000007108740638490159272_);" d="M167.3,156.8
			c-5.3,19.6-29.8,24.7-65,24.7c-35.1,0-58.1-7.1-65.1-24.7c-7-17.6,2.6-50.8,17.3-65.4C66,80.1,84,75.1,99.9,75.1
			c13.2,0,37.7,4.7,50.5,15.8C166.9,105.1,172.6,137.1,167.3,156.8z"/>
		
			<linearGradient id="SVGID_00000027586106053158793660000016979050822748424339_" gradientUnits="userSpaceOnUse" x1="103.5273" y1="272.5315" x2="103.5273" y2="192.985">
			<stop  offset="0" style="stop-color:#6346CE"/>
			<stop  offset="0.11" style="stop-color:#6954DD"/>
			<stop  offset="0.26" style="stop-color:#6E5FE9"/>
			<stop  offset="0.47" style="stop-color:#8176F9"/>
			<stop  offset="1" style="stop-color:#887FF8"/>
		</linearGradient>
		<path style="fill:url(#SVGID_00000027586106053158793660000016979050822748424339_);" d="M58.7,224.5c-3.3-9.3-5.9-20.5,1.7-26.9
			c8.1-6.9,39.7-4,43.4-4c3.4,0,36.5-3,43.9,4c6,5.6,3.9,14.8,1.4,22.5l-3,9.4c-10.1,24.3-28.4,43.1-41.1,43.1
			c-12,0-32.8-16.6-44.5-43.1L58.7,224.5z"/>
		<path class="st2" d="M102.3,118.9l-1,0c0-0.3,0.5-28.1-0.4-43.9l1-0.1C102.8,90.8,102.3,118.6,102.3,118.9z"/>
		<path class="st2" d="M102.5,135.9c-21.3,0-41.9-3.9-66.7-11.6l0.3-1c48.4,15.1,80.9,15.3,133.7,0.9l0.3,1
			C144.1,132.3,123,135.9,102.5,135.9z"/>
		<g>
			<path class="st8" d="M102,151.2c6.2,0.1,12.3,1.9,18.6,2.3c9,0.6,18.1-1.7,25.8-6.4c2.4-1.5,4.7-3.2,6.3-5.6
				c3.5-5,3.1-11.8,1.7-17.8c-1.4-5.9-4.2-12.1-9.6-14.9c-4.1-2.1-8.9-1.8-13.4-1.4c-9.2,0.9-18.5,2.5-27.8,2.9c-0.8,0-3.9,0-4.6,0
				c-9.4-0.3-18.8-1.9-28.1-2.9c-4.5-0.5-9.4-0.7-13.4,1.4c-5.4,2.8-8.2,9-9.6,14.9c-1.4,6-1.8,12.7,1.7,17.8
				c1.6,2.3,3.9,4.1,6.3,5.6c7.7,4.7,16.8,7,25.8,6.4c6.2-0.4,12.3-2.1,18.6-2.3H102z"/>
			<path class="st2" d="M136.5,108.1c3.2,0,5.7,0.5,7.8,1.6c4.3,2.2,7.3,7,9.1,14.2c1.7,7.3,1.2,13-1.5,17c-1.3,1.9-3.2,3.6-6,5.3
				c-6.8,4.2-14.5,6.4-22.5,6.4c-0.9,0-1.8,0-2.7-0.1c-2.8-0.2-5.6-0.6-8.4-1.1c-3.3-0.5-6.8-1.1-10.3-1.2l-1.9,0
				c-3.5,0.1-6.9,0.6-10.2,1.2c-2.7,0.4-5.6,0.9-8.4,1.1c-0.9,0.1-1.8,0.1-2.7,0.1c-8,0-15.8-2.2-22.5-6.4c-2.8-1.7-4.7-3.4-6-5.3
				c-2.7-4-3.3-9.7-1.5-17c1.7-7.3,4.8-12,9.1-14.2c2.1-1.1,4.6-1.6,7.8-1.6c1.8,0,3.6,0.2,5.1,0.3c3.2,0.3,6.4,0.7,9.6,1.1
				c6.1,0.8,12.4,1.6,18.6,1.8c0.3,0,1,0,1.8,0c1.1,0,2.4,0,2.9,0c6.1-0.2,12.3-1,18.3-1.8c3.1-0.4,6.4-0.8,9.6-1.1
				C132.9,108.2,134.7,108.1,136.5,108.1 M136.5,107c-1.7,0-3.5,0.1-5.2,0.3c-9.2,0.9-18.5,2.5-27.8,2.9c-0.5,0-1.8,0-2.9,0
				c-0.8,0-1.5,0-1.8,0c-9.4-0.3-18.8-1.9-28.1-2.9c-1.7-0.2-3.5-0.3-5.2-0.3c-2.9,0-5.7,0.4-8.2,1.7c-5.4,2.8-8.2,9-9.6,14.9
				c-1.4,6-1.8,12.7,1.7,17.8c1.6,2.3,3.9,4.1,6.3,5.6c6.9,4.3,15,6.5,23,6.5c0.9,0,1.8,0,2.7-0.1c6.2-0.4,12.3-2.1,18.6-2.3h1.9
				c6.2,0.1,12.3,1.9,18.6,2.3c0.9,0.1,1.8,0.1,2.7,0.1c8.1,0,16.2-2.3,23-6.5c2.4-1.5,4.7-3.2,6.3-5.6c3.5-5,3.1-11.8,1.7-17.8
				c-1.4-5.9-4.2-12.1-9.6-14.9C142.2,107.4,139.3,107,136.5,107L136.5,107z"/>
		</g>
		<g>
			<path class="st11" d="M136.6,130.8c0,6.6-5.3,11.9-11.9,11.9c-5.1,0-9.4-3.2-11.1-7.6c-0.5-1.3-0.8-2.7-0.8-4.2
				c0-6.6,5.3-11.9,11.9-11.9c4.8,0,9,2.9,10.8,7C136.2,127.5,136.6,129.1,136.6,130.8z"/>
			<path class="st12" d="M124.7,119c4.8,0,9,2.9,10.8,7c0.7,1.5,1,3.1,1,4.9c0,6.6-5.3,11.9-11.9,11.9c-5.1,0-9.4-3.2-11.1-7.6
				c-0.5-1.3-0.8-2.7-0.8-4.2C112.8,124.3,118.1,119,124.7,119 M124.7,116.9c-7.7,0-13.9,6.3-13.9,13.9c0,1.7,0.3,3.4,0.9,5
				c2,5.4,7.3,9,13,9c7.7,0,13.9-6.3,13.9-13.9c0-2-0.4-3.9-1.2-5.7C135.2,120.1,130.2,116.9,124.7,116.9L124.7,116.9z"/>
		</g>
		<g>
			<path class="st11" d="M89.2,130.8c0,6.5-5.3,11.9-11.9,11.9c-5.1,0-9.4-3.2-11.1-7.6c-0.5-1.3-0.8-2.7-0.8-4.2
				c0-6.6,5.3-11.9,11.9-11.9c4.8,0,9,2.9,10.8,7C88.9,127.5,89.2,129.1,89.2,130.8z"/>
			<path class="st12" d="M77.4,119c4.8,0,9,2.9,10.8,7c0.7,1.5,1,3.1,1,4.9c0,6.5-5.3,11.9-11.9,11.9c-5.1,0-9.4-3.2-11.1-7.6
				c-0.5-1.3-0.8-2.7-0.8-4.2C65.5,124.3,70.8,119,77.4,119 M77.4,116.9c-7.7,0-13.9,6.3-13.9,13.9c0,1.7,0.3,3.4,0.9,5
				c2,5.4,7.3,9,13,9c7.7,0,13.9-6.3,13.9-13.9c0-2-0.4-3.9-1.2-5.7C87.8,120.1,82.8,116.9,77.4,116.9L77.4,116.9z"/>
		</g>
		<path class="st2" d="M104.2,224.9c-0.3,0-0.5-0.2-0.5-0.5c-0.9-12.7-0.1-24.1,0.2-29.6c0-0.3,0.3-0.5,0.5-0.5
			c0.3,0,0.5,0.3,0.5,0.5c-0.4,5.4-1.1,16.8-0.2,29.4C104.8,224.7,104.5,224.9,104.2,224.9C104.2,224.9,104.2,224.9,104.2,224.9z"/>
		<g>
			<g>
				<path class="st2" d="M97.3,104.4l-2.1,2.2c0.2,0.2,0.5,0.3,0.8,0.3c0.9,0,1.5-0.7,1.5-1.5c0-0.2,0-0.4-0.1-0.6
					C97.5,104.6,97.4,104.5,97.3,104.4z"/>
			</g>
			<g>
				<path class="st2" d="M94.9,106.3l2.1-2.2c-0.2-0.2-0.5-0.2-0.8-0.2c-0.9,0-1.5,0.7-1.5,1.5c0,0.2,0,0.4,0.1,0.6
					C94.7,106,94.8,106.2,94.9,106.3z"/>
			</g>
		</g>
		<g>
			<g>
				<path class="st2" d="M107.2,105.1c0,0.2,0,0.3,0.1,0.5c0.2,0.6,0.8,1,1.5,1c0.8,0,1.4-0.5,1.5-1.2L107.2,105.1z"/>
			</g>
			<g>
				<path class="st2" d="M110.3,104.8c0-0.2-0.1-0.3-0.1-0.4c-0.2-0.5-0.8-0.9-1.4-0.9c-0.7,0-1.3,0.5-1.5,1.1L110.3,104.8z"/>
			</g>
		</g>
		<g>
			<path class="st8" d="M112.3,161.4c-1,5.7-6.3,9.6-11.9,8.6c-4.3-0.8-7.6-4.2-8.4-8.3c-0.2-1.2-0.3-2.5-0.1-3.8
				c0.2-1.4,5.3,0.3,10.2,0.2c4.9-0.1,9.8-2,10-1.1C112.4,158.4,112.5,159.8,112.3,161.4z"/>
		</g>
		<g>
			<ellipse class="st12" cx="77.9" cy="127.6" rx="5.2" ry="4.1"/>
		</g>
		<g>
			<ellipse class="st12" cx="124.7" cy="127.6" rx="5.2" ry="4.1"/>
		</g>
		<g>
			<path class="st10" d="M102.8,33.4c1.3,0.2,2.7,0.5,3.9,1.2c1.2,0.7,2.7,2.1,2.7,3.6c0.1,2.7-4,2.9-5.8,3.2
				c-1.4,0.2-3,0.4-4.3-0.4c-1.2-0.7-2.1-1.9-2.3-3.3C96.6,34.3,100.1,33.1,102.8,33.4z"/>
		</g>
		<path class="st2" d="M127.4,258.8C127.4,258.8,127.4,258.8,127.4,258.8c-0.3,0-0.5-0.3-0.5-0.6c1.1-12.7,1.8-32.3-1.1-34.4
			c-0.2-0.2-0.4-0.2-0.7-0.1c-15.3,3.3-37.4,1.2-43.6-0.2c-0.5-0.1-0.8,0-0.9,0.2c-1.6,1.3-1.4,7.9-1.1,16.2
			c0.1,4.8,0.3,10.2,0.2,16c0,0.3-0.2,0.5-0.5,0.5c-0.3,0-0.5-0.2-0.5-0.5c0.1-5.8-0.1-11.2-0.2-15.9c-0.3-9.2-0.5-15.3,1.5-17
			c0.5-0.4,1.1-0.5,1.8-0.4c6.1,1.4,28,3.5,43,0.3c0.5-0.2,1.1-0.1,1.6,0.2c4.2,3.2,1.8,32,1.5,35.3
			C127.9,258.6,127.7,258.8,127.4,258.8z"/>
		<g>
			<g>
				<g>
					<path class="st2" d="M124.8,230c0-0.3-0.1-0.6-0.2-0.8c-0.4-0.9-1.3-1.5-2.4-1.5c-1.2,0-2.2,0.8-2.5,1.9L124.8,230z"/>
				</g>
				<g>
					<path class="st2" d="M119.6,230.5c0,0.2,0.1,0.4,0.1,0.6c0.4,1,1.3,1.7,2.4,1.7c1.2,0,2.2-0.8,2.5-1.8L119.6,230.5z"/>
				</g>
			</g>
		</g>
		<g>
			<g>
				<path class="st2" d="M83.2,231.2l4.2-2.8c-0.5-0.5-1.1-0.8-1.9-0.8c-1.4,0-2.6,1.2-2.6,2.6c0,0.3,0.1,0.6,0.2,0.9
					C83.1,231.1,83.1,231.2,83.2,231.2z"/>
			</g>
			<g>
				<path class="st2" d="M83.7,232c0.5,0.5,1.1,0.7,1.8,0.7c1.4,0,2.6-1.2,2.6-2.6c0-0.3-0.1-0.7-0.2-1L83.7,232z"/>
			</g>
		</g>
		
			<linearGradient id="SVGID_00000129883945512868018520000013885888868776189616_" gradientUnits="userSpaceOnUse" x1="172.2086" y1="266.3235" x2="161.3244" y2="204.5961">
			<stop  offset="0" style="stop-color:#6346CE"/>
			<stop  offset="0.11" style="stop-color:#6954DD"/>
			<stop  offset="0.26" style="stop-color:#6E5FE9"/>
			<stop  offset="0.47" style="stop-color:#8176F9"/>
			<stop  offset="1" style="stop-color:#887FF8"/>
		</linearGradient>
		<path style="fill:url(#SVGID_00000129883945512868018520000013885888868776189616_);" d="M165.7,208.1c-1.9,24.7-7.8,28.6-10,40
			c-2.2,11.4,3.7,21.5,12.6,18.9c13-3.4,15.2-29.7,10.4-47.1C173.9,202.6,166.9,199.2,165.7,208.1z"/>
		<g>
			
				<linearGradient id="SVGID_00000011728032123833358630000011401264986473285808_" gradientUnits="userSpaceOnUse" x1="33.2399" y1="219.6996" x2="10.8092" y2="161.2656">
				<stop  offset="0" style="stop-color:#6346CE"/>
				<stop  offset="0.11" style="stop-color:#6954DD"/>
				<stop  offset="0.26" style="stop-color:#6E5FE9"/>
				<stop  offset="0.47" style="stop-color:#8176F9"/>
				<stop  offset="1" style="stop-color:#887FF8"/>
			</linearGradient>
			<path style="fill:url(#SVGID_00000011728032123833358630000011401264986473285808_);" d="M9.9,161.9c10.3-0.3,17,10,21.3,25.8
				c7.6,24.3,19.4,22.7,12.5,27.7s-30.2-6.6-37.7-27.1C0,172.7,1.5,162.9,9.9,161.9z"/>
			<g>
				<path class="st2" d="M15.7,166.7c3.4,0.3,6.1,3.6,8.4,8.9c3.1,7.6,2.7,9.9,1.5,11.4c-1.2,1.5-8.7,3.9-12.7-6.4
					C8.8,170.3,12.2,166.3,15.7,166.7z"/>
			</g>
		</g>
		<g>
			<ellipse class="st4" cx="104.5" cy="297.2" rx="22.7" ry="4.1"/>
		</g>
		<path class="st13" d="M67.4,110.7c-6.9,1.1-11.1,3.7-13.2,10.5c-0.8,2-1.6,3.9-2.2,5.9c-0.2-2.2,0.2-4.3,0.7-6.4
			c0.5-2.1,1.1-4.3,2.6-6.1C58,110.9,63.1,109.7,67.4,110.7L67.4,110.7z"/>
	</g>
</g>
</svg>
