<svg width="152" height="141" viewBox="0 0 152 141" fill="none" xmlns="http://www.w3.org/2000/svg">
  <path d="M27.3514 22.6638C30.3214 5.57384 153.821 24.3638 150.411 44.0138C144.511 77.9938 112.191 100.764 78.2114 94.8638C44.2314 88.9638 21.4614 56.6438 27.3614 22.6638H27.3514Z" fill="#37A3C4"/>
  <path d="M109.871 123.913H12.4712C9.01118 123.913 6.21118 121.113 6.21118 117.653V50.4632C6.21118 47.8532 8.32118 45.7432 10.9312 45.7432H111.641C114.121 45.7432 116.131 47.7532 116.131 50.2332V117.653C116.131 121.113 113.331 123.913 109.871 123.913Z" fill="#EBEBEB"/>
  <path d="M114.611 124.473H7.73123C4.23123 124.473 1.39124 121.633 1.39124 118.133H120.961C120.961 121.633 118.121 124.473 114.621 124.473H114.611Z" fill="#C1C7D0"/>
  <path d="M48.6212 118.133L50.1712 120.663H72.0412L73.4912 118.133H48.6212Z" fill="white"/>
  <path d="M111.601 118.133H10.7412V53.0632C10.7412 52.0132 11.5912 51.1632 12.6412 51.1632H109.711C110.761 51.1632 111.611 52.0132 111.611 53.0632V118.133H111.601Z" fill="#BDF3FF"/>
  <path d="M56.4813 60.4132H22.1913C20.9431 60.4132 19.9313 61.4251 19.9313 62.6732V76.7932C19.9313 78.0414 20.9431 79.0532 22.1913 79.0532H56.4813C57.7294 79.0532 58.7413 78.0414 58.7413 76.7932V62.6732C58.7413 61.4251 57.7294 60.4132 56.4813 60.4132Z" fill="white"/>
  <path d="M56.7913 102.023H28.9313L25.2813 105.923V102.023H21.8713C20.8013 102.023 19.9213 101.143 19.9213 100.073V90.0732C19.9213 89.0032 20.8013 88.1232 21.8713 88.1232H56.7813C57.8513 88.1232 58.7313 89.0032 58.7313 90.0732V100.073C58.7313 101.143 57.8513 102.023 56.7813 102.023H56.7913Z" fill="white"/>
  <path d="M100.351 93.0231H96.5812V99.5032L92.6912 93.0231H66.2212C64.9312 93.0231 63.8812 91.9732 63.8812 90.6832V75.3132C63.8812 74.0232 64.9312 72.9731 66.2212 72.9731H100.351C101.641 72.9731 102.691 74.0232 102.691 75.3132V90.6832C102.691 91.9732 101.641 93.0231 100.351 93.0231Z" fill="white"/>
  <path d="M96.2212 77.1332H70.3412C69.7282 77.1332 69.2312 77.6301 69.2312 78.2432V78.2532C69.2312 78.8662 69.7282 79.3632 70.3412 79.3632H96.2212C96.8342 79.3632 97.3312 78.8662 97.3312 78.2532V78.2432C97.3312 77.6301 96.8342 77.1332 96.2212 77.1332Z" fill="#37A3C4"/>
  <path d="M96.2212 81.8832H70.3412C69.7282 81.8832 69.2312 82.3801 69.2312 82.9932V83.0032C69.2312 83.6162 69.7282 84.1132 70.3412 84.1132H96.2212C96.8342 84.1132 97.3312 83.6162 97.3312 83.0032V82.9932C97.3312 82.3801 96.8342 81.8832 96.2212 81.8832Z" fill="#37A3C4"/>
  <path d="M96.2212 86.6232H70.3412C69.7282 86.6232 69.2312 87.1201 69.2312 87.7332V87.7432C69.2312 88.3562 69.7282 88.8532 70.3412 88.8532H96.2212C96.8342 88.8532 97.3312 88.3562 97.3312 87.7432V87.7332C97.3312 87.1201 96.8342 86.6232 96.2212 86.6232Z" fill="#37A3C4"/>
  <path d="M52.2813 91.3632H26.4013C25.7882 91.3632 25.2913 91.8601 25.2913 92.4732V92.4832C25.2913 93.0962 25.7882 93.5932 26.4013 93.5932H52.2813C52.8943 93.5932 53.3913 93.0962 53.3913 92.4832V92.4732C53.3913 91.8601 52.8943 91.3632 52.2813 91.3632Z" fill="#37A3C4"/>
  <path d="M52.2813 96.1031H26.4013C25.7882 96.1031 25.2913 96.6001 25.2913 97.2132V97.2231C25.2913 97.8362 25.7882 98.3331 26.4013 98.3331H52.2813C52.8943 98.3331 53.3913 97.8362 53.3913 97.2231V97.2132C53.3913 96.6001 52.8943 96.1031 52.2813 96.1031Z" fill="#37A3C4"/>
  <path d="M52.2813 66.4932H26.4013C25.7882 66.4932 25.2913 66.9901 25.2913 67.6032V67.6132C25.2913 68.2262 25.7882 68.7232 26.4013 68.7232H52.2813C52.8943 68.7232 53.3913 68.2262 53.3913 67.6132V67.6032C53.3913 66.9901 52.8943 66.4932 52.2813 66.4932Z" fill="#37A3C4"/>
  <path d="M52.2813 71.2432H26.4013C25.7882 71.2432 25.2913 71.7401 25.2913 72.3532V72.3632C25.2913 72.9762 25.7882 73.4732 26.4013 73.4732H52.2813C52.8943 73.4732 53.3913 72.9762 53.3913 72.3632V72.3532C53.3913 71.7401 52.8943 71.2432 52.2813 71.2432Z" fill="#37A3C4"/>
</svg>
