<svg width="152" height="141" viewBox="0 0 152 141" fill="none" xmlns="http://www.w3.org/2000/svg">
  <g clip-path="url(#clip0_3023_64003)">
    <path d="M150.878 73.3885C154.021 91.839 21.6335 117.225 18.0227 96.0084C11.7816 59.3218 36.4536 24.5186 73.1402 18.271C109.827 12.0234 144.63 36.702 150.878 73.3885Z" fill="#1D65BC"/>
    <path d="M114.158 122.375H12.5024C8.89157 122.375 5.96912 119.453 5.96912 115.842V45.7162C5.96912 42.9951 8.1772 40.787 10.8983 40.787H116.009C118.601 40.787 120.698 42.8847 120.698 45.4759V115.836C120.698 119.447 117.776 122.369 114.165 122.369L114.158 122.375Z" fill="#D4F4FF"/>
    <path d="M119.107 122.967H7.56027C3.90395 122.967 0.936035 119.999 0.936035 116.342H125.725C125.725 119.999 122.757 122.967 119.101 122.967H119.107Z" fill="#ACE3FC"/>
    <path d="M50.2346 116.342L51.8582 118.979H74.6858L76.1925 116.342H50.2346Z" fill="#EBFBFF"/>
    <path d="M115.964 116.342H10.697V48.4244C10.697 47.3333 11.5803 46.4436 12.6778 46.4436H113.99C115.081 46.4436 115.97 47.3268 115.97 48.4244V116.342H115.964Z" fill="#84C7EF"/>
    <path d="M47.7148 56.3734H23.0623C21.5307 56.3734 20.2892 57.615 20.2892 59.1465V83.7991C20.2892 85.3306 21.5307 86.5721 23.0623 86.5721H47.7148C49.2464 86.5721 50.4879 85.3306 50.4879 83.7991V59.1465C50.4879 57.615 49.2464 56.3734 47.7148 56.3734Z" fill="white"/>
    <path d="M35.5639 81.6429C35.0184 81.6429 34.5963 81.487 34.3105 81.1818C34.0183 80.8766 33.8754 80.4479 33.8754 79.9024V65.6213H28.7189C28.2578 65.6213 27.9006 65.4914 27.6473 65.2382C27.394 64.9849 27.2642 64.6342 27.2642 64.1926C27.2642 63.751 27.394 63.3873 27.6473 63.147C27.9006 62.9067 28.2578 62.7898 28.7189 62.7898H42.4155C42.8766 62.7898 43.2338 62.9067 43.487 63.147C43.7403 63.3873 43.8702 63.7315 43.8702 64.1926C43.8702 64.6537 43.7403 64.9849 43.487 65.2382C43.2338 65.4914 42.8766 65.6213 42.4155 65.6213H37.259V79.9024C37.259 80.4479 37.1161 80.8766 36.8368 81.1818C36.5576 81.487 36.1289 81.6429 35.5704 81.6429H35.5639Z" fill="#1D65BC"/>
    <path d="M103.683 59.0037H58.3071C57.2275 59.0037 56.3523 59.8789 56.3523 60.9585C56.3523 62.0381 57.2275 62.9133 58.3071 62.9133H103.683C104.763 62.9133 105.638 62.0381 105.638 60.9585C105.638 59.8789 104.763 59.0037 103.683 59.0037Z" fill="#3F7DD8"/>
    <path d="M103.683 67.3293H58.3071C57.2275 67.3293 56.3523 68.2045 56.3523 69.2841C56.3523 70.3638 57.2275 71.2389 58.3071 71.2389H103.683C104.763 71.2389 105.638 70.3638 105.638 69.2841C105.638 68.2045 104.763 67.3293 103.683 67.3293Z" fill="#3F7DD8"/>
    <path d="M103.683 75.6552H58.3071C57.2275 75.6552 56.3523 76.5303 56.3523 77.61C56.3523 78.6896 57.2275 79.5648 58.3071 79.5648H103.683C104.763 79.5648 105.638 78.6896 105.638 77.61C105.638 76.5303 104.763 75.6552 103.683 75.6552Z" fill="#3F7DD8"/>
    <path d="M103.683 83.4679H58.3071C57.2275 83.4679 56.3523 84.3431 56.3523 85.4227C56.3523 86.5023 57.2275 87.3775 58.3071 87.3775H103.683C104.763 87.3775 105.638 86.5023 105.638 85.4227C105.638 84.3431 104.763 83.4679 103.683 83.4679Z" fill="#3F7DD8"/>
    <path d="M103.683 92.8911H22.8805C21.8009 92.8911 20.9257 93.7663 20.9257 94.8459C20.9257 95.9255 21.8009 96.8007 22.8805 96.8007H103.683C104.763 96.8007 105.638 95.9255 105.638 94.8459C105.638 93.7663 104.763 92.8911 103.683 92.8911Z" fill="#3F7DD8"/>
    <path d="M103.683 102.198H22.8805C21.8009 102.198 20.9257 103.073 20.9257 104.152C20.9257 105.232 21.8009 106.107 22.8805 106.107H103.683C104.763 106.107 105.638 105.232 105.638 104.152C105.638 103.073 104.763 102.198 103.683 102.198Z" fill="#3F7DD8"/>
  </g>
  <defs>
    <clipPath id="clip0_3023_64003">
      <rect width="150" height="105.663" fill="white" transform="translate(0.936035 17.3035)"/>
    </clipPath>
  </defs>
</svg>
