<svg width="152" height="141" viewBox="0 0 152 141" fill="none" xmlns="http://www.w3.org/2000/svg">
  <path d="M43.4984 25.7613C41.3184 26.2213 39.0484 26.9813 37.6384 28.7113C36.2484 30.4113 35.9384 32.7313 35.8484 34.9313C35.4884 44.2013 38.1184 53.9613 34.4784 62.5013C30.5784 71.6413 20.1584 77.4413 18.3484 87.2113C17.3784 92.4513 19.2684 98.0213 22.8184 102.001C26.3684 105.981 31.4384 108.431 36.6884 109.351C47.3384 111.221 57.9984 107.151 68.6184 105.111C80.8284 102.761 94.0684 102.881 104.498 96.1113C110.038 92.5113 114.568 86.5313 114.348 79.9313C114.138 73.5913 109.668 68.1313 104.558 64.3613C99.4484 60.5913 93.5584 57.9813 88.5084 54.1413C83.5284 50.3413 79.5084 45.4513 75.0384 41.0713C65.7384 31.9513 57.3884 22.8713 43.5084 25.7713L43.4984 25.7613Z" fill="#AA3358"/>
  <path d="M81.8684 63.2013C96.3184 58.8113 103.678 42.1513 95.9884 28.0913C91.4984 19.8713 82.2484 14.9313 72.9084 15.7713C56.9484 17.2013 47.1984 32.5813 51.5884 47.0413C53.9384 54.7913 60.0084 60.8513 67.7484 63.2013C55.8184 65.2213 45.7684 72.1012 39.4884 81.6012C32.7184 91.8412 32.3784 117.111 44.6584 117.111H104.808C117.258 117.111 116.868 91.5912 109.898 81.2712C103.608 71.9512 93.6484 65.2013 81.8584 63.2113L81.8684 63.2013Z" fill="#F98FA3"/>
  <g filter="url(#filter0_d_3023_64182)">
    <path d="M124.718 116.241L113.078 124.021C111.508 125.071 109.508 125.241 107.778 124.481L94.9683 118.831C88.1583 115.831 83.5183 109.361 82.8783 101.941L80.2783 72.2112C80.1383 70.6312 81.3083 69.2312 82.8983 69.0912L91.3883 68.3512C92.5183 68.2512 93.5983 67.8312 94.5083 67.1512L101.868 61.5712C103.628 60.2412 106.008 60.0812 107.928 61.1612L115.098 65.2212C116.158 65.8212 117.378 66.0812 118.588 65.9812L127.978 65.1612C129.558 65.0212 130.958 66.1912 131.098 67.7812L133.698 97.5112C134.348 104.921 130.908 112.101 124.718 116.241Z" fill="#E26683"/>
    <path d="M124.718 116.241L113.078 124.021C111.508 125.071 109.508 125.241 107.778 124.481L94.9683 118.831C88.1583 115.831 83.5183 109.361 82.8783 101.941L80.2783 72.2112C80.1383 70.6312 81.3083 69.2312 82.8983 69.0912L91.3883 68.3512C92.5183 68.2512 93.5983 67.8312 94.5083 67.1512L101.868 61.5712C103.628 60.2412 106.008 60.0812 107.928 61.1612L115.098 65.2212C116.158 65.8212 117.378 66.0812 118.588 65.9812L127.978 65.1612C129.558 65.0212 130.958 66.1912 131.098 67.7812L133.698 97.5112C134.348 104.921 130.908 112.101 124.718 116.241Z" stroke="white" stroke-width="1.24" stroke-miterlimit="10"/>
  </g>
  <path d="M105.818 69.0611C106.428 69.0611 107.028 69.2211 107.558 69.5211L112.948 72.5712C113.718 73.0112 114.598 73.2411 115.488 73.2411C115.638 73.2411 115.788 73.2411 115.938 73.2211L123.008 72.6012C123.008 72.6012 123.098 72.6012 123.148 72.6012C123.938 72.6012 124.618 73.2212 124.688 74.0112L126.638 96.3712C127.108 101.721 124.618 106.901 120.158 109.891L111.408 115.741C110.828 116.131 110.148 116.341 109.448 116.341C108.958 116.341 108.478 116.241 108.018 116.041L98.3783 111.791C93.4583 109.621 90.1183 104.951 89.6483 99.6012L87.6983 77.2411C87.6283 76.3911 88.2583 75.6412 89.1083 75.5712L95.4983 75.0112C96.4683 74.9312 97.3883 74.5712 98.1683 73.9812L103.708 69.7811C104.318 69.3211 105.078 69.0611 105.848 69.0611M105.818 68.4411C104.928 68.4411 104.048 68.7211 103.308 69.2811L97.7683 73.4812C97.0883 74.0012 96.2783 74.3111 95.4183 74.3811L89.0283 74.9411C87.8383 75.0411 86.9583 76.0912 87.0583 77.2912L89.0083 99.6512C89.4983 105.231 92.9783 110.091 98.1083 112.351L107.748 116.601C108.288 116.841 108.858 116.951 109.428 116.951C110.238 116.951 111.048 116.711 111.738 116.251L120.488 110.401C125.138 107.291 127.728 101.891 127.248 96.3111L125.298 73.9512C125.198 72.8212 124.258 71.9711 123.138 71.9711C123.078 71.9711 123.008 71.9711 122.948 71.9711L115.878 72.5912C115.748 72.6012 115.618 72.6111 115.488 72.6111C114.708 72.6111 113.938 72.4111 113.258 72.0211L107.868 68.9711C107.228 68.6111 106.528 68.4312 105.828 68.4312L105.818 68.4411Z" fill="#AA3358"/>
  <path d="M107.848 89.9512C107.918 89.8212 107.958 89.7112 108.028 89.6112C109.528 87.5512 111.628 86.8612 114.028 87.3312C116.418 87.7912 117.748 89.4912 118.408 91.7612C119.048 93.9412 118.688 96.0412 117.768 98.0712C116.648 100.541 114.968 102.611 113.088 104.541C112.148 105.511 111.138 106.411 110.158 107.341C109.878 107.611 109.588 107.691 109.228 107.481C106.418 105.891 103.708 104.181 101.408 101.891C99.9884 100.481 98.7483 98.9412 98.1683 96.9812C97.4683 94.6212 97.5984 92.3612 99.1084 90.2912C100.868 87.8712 104.958 87.5012 107.148 89.3912C107.338 89.5612 107.548 89.7112 107.848 89.9512Z" fill="white"/>
  <path d="M100.528 90.3512L99.9983 85.4312C99.5683 81.4412 102.458 77.8612 106.438 77.4312C110.418 77.0012 114.008 79.8912 114.438 83.8712L114.968 88.7912L112.898 89.0112L112.368 84.0512C112.058 81.2012 109.508 79.1412 106.658 79.4512C103.808 79.7612 101.748 82.3112 102.058 85.1612L102.588 90.1212" fill="white"/>
  <path d="M110.198 97.4711L110.558 100.841C110.648 101.721 110.018 102.501 109.138 102.601C108.258 102.691 107.478 102.061 107.378 101.181L107.018 97.8111C106.278 97.3911 105.728 96.6311 105.638 95.7211C105.478 94.2111 106.568 92.8611 108.068 92.7011C109.578 92.5411 110.928 93.6311 111.088 95.1311C111.188 96.0411 110.818 96.9011 110.178 97.4711H110.198Z" fill="#E26683"/>
  <defs>
    <filter id="filter0_d_3023_64182" x="75.927" y="56.1098" width="62.1895" height="73.1806" filterUnits="userSpaceOnUse" color-interpolation-filters="sRGB">
      <feFlood flood-opacity="0" result="BackgroundImageFix"/>
      <feColorMatrix in="SourceAlpha" type="matrix" values="0 0 0 0 0 0 0 0 0 0 0 0 0 0 0 0 0 0 127 0" result="hardAlpha"/>
      <feOffset/>
      <feGaussianBlur stdDeviation="1.86"/>
      <feColorMatrix type="matrix" values="0 0 0 0 0.576471 0 0 0 0 0.576471 0 0 0 0 0.576471 0 0 0 0.7 0"/>
      <feBlend mode="normal" in2="BackgroundImageFix" result="effect1_dropShadow_3023_64182"/>
      <feBlend mode="normal" in="SourceGraphic" in2="effect1_dropShadow_3023_64182" result="shape"/>
    </filter>
  </defs>
</svg>
