<svg width="152" height="141" viewBox="0 0 152 141" fill="none" xmlns="http://www.w3.org/2000/svg">
  <g clip-path="url(#clip0_3023_64001)">
    <path d="M122.606 94.5077C123.598 107.206 123.096 122.009 111.601 127.494C99.277 133.371 60.9818 119.324 56.4103 118.109C52.1896 116.984 10.0909 109.722 3.21554 98.6559C-2.33554 89.7246 3.31229 78.9852 8.96616 70.1144L15.7629 59.4537C36.3466 32.4844 65.257 15.2144 81.0757 19.4291C95.9693 23.3958 116.263 50.9759 122.086 87.7835L122.612 94.5077H122.606Z" fill="#F48811"/>
    <path d="M87.685 11.1631H32.011C30.3178 11.1631 28.9452 12.5357 28.9452 14.2289V79.0761C28.9452 80.7693 30.3178 82.1419 32.011 82.1419H87.685C89.3782 82.1419 90.7508 80.7693 90.7508 79.0761V14.2289C90.7508 12.5357 89.3782 11.1631 87.685 11.1631Z" fill="#FFD28E"/>
    <path d="M141.001 29.7512H84.9156C83.336 29.7512 82.0554 31.0318 82.0554 32.6114V88.6966C82.0554 90.2763 83.336 91.5568 84.9156 91.5568H141.001C142.58 91.5568 143.861 90.2763 143.861 88.6966V32.6114C143.861 31.0318 142.58 29.7512 141.001 29.7512Z" fill="#FFEACB"/>
    <path d="M36.0988 30.0959H72.1142" stroke="white" stroke-width="1.20938" stroke-linecap="round" stroke-linejoin="round"/>
    <path d="M36.0988 22.4707H63.1648" stroke="white" stroke-width="2.41877" stroke-linecap="round" stroke-linejoin="round"/>
    <path d="M36.0988 34.8064H72.1142" stroke="white" stroke-width="1.20938" stroke-linecap="round" stroke-linejoin="round"/>
    <path d="M36.0988 39.5232H72.1142" stroke="white" stroke-width="1.20938" stroke-linecap="round" stroke-linejoin="round"/>
    <path d="M36.0988 44.2336H72.1142" stroke="white" stroke-width="1.20938" stroke-linecap="round" stroke-linejoin="round"/>
    <path d="M66.0129 53.0803H36.8123C36.4182 53.0803 36.0988 53.3998 36.0988 53.7939V67.5143C36.0988 67.9084 36.4182 68.2279 36.8123 68.2279H66.0129C66.407 68.2279 66.7264 67.9084 66.7264 67.5143V53.7939C66.7264 53.3998 66.407 53.0803 66.0129 53.0803Z" fill="white"/>
    <path d="M135.305 38.8579H90.6118C89.9405 38.8579 89.3964 39.4021 89.3964 40.0733V66.0812C89.3964 66.7524 89.9405 67.2966 90.6118 67.2966H135.305C135.976 67.2966 136.52 66.7524 136.52 66.0812V40.0733C136.52 39.4021 135.976 38.8579 135.305 38.8579Z" fill="#F48811"/>
    <path d="M91.8574 45.1831V42.0569C91.8574 41.6397 92.196 41.301 92.6133 41.301H95.7395" stroke="white" stroke-width="0.713537" stroke-linecap="round" stroke-linejoin="round"/>
    <path d="M95.7456 64.7269H92.6194C92.2022 64.7269 91.8635 64.3882 91.8635 63.971V60.8447" stroke="white" stroke-width="0.713537" stroke-linecap="round" stroke-linejoin="round"/>
    <path d="M133.581 60.8447V63.971C133.581 64.3882 133.243 64.7269 132.825 64.7269H129.699" stroke="white" stroke-width="0.713537" stroke-linecap="round" stroke-linejoin="round"/>
    <path d="M129.699 41.2949H132.825C133.243 41.2949 133.581 41.6335 133.581 42.0508V45.177" stroke="white" stroke-width="0.713537" stroke-linecap="round" stroke-linejoin="round"/>
    <path d="M115.815 51.9798L111.734 48.6298C111.377 48.3335 110.839 48.5935 110.839 49.0531V55.7531C110.839 56.2187 111.377 56.4727 111.734 56.1764L115.815 52.8264C116.081 52.6087 116.081 52.1975 115.815 51.9798Z" fill="white"/>
    <path d="M139.017 76.8022H24.5794C17.997 76.8022 12.6609 82.1383 12.6609 88.7207V88.7268C12.6609 95.3092 17.997 100.645 24.5794 100.645H139.017C145.6 100.645 150.936 95.3092 150.936 88.7268V88.7207C150.936 82.1383 145.6 76.8022 139.017 76.8022Z" fill="white"/>
    <path d="M30.215 90.5891L33.3534 93.8423C33.692 94.193 33.6799 94.7493 33.3292 95.088C32.9785 95.4266 32.4222 95.4145 32.0835 95.0638L28.9452 91.8105L30.215 90.583V90.5891Z" fill="#F48811"/>
    <path d="M30.203 84.8265C28.3647 82.9217 25.3291 82.8673 23.4244 84.7055C21.5196 86.5438 21.4652 89.5793 23.3034 91.4841C25.1417 93.3889 28.1772 93.4433 30.082 91.6051C31.9868 89.7668 32.0412 86.7312 30.203 84.8265ZM29.2234 90.7101C27.8144 92.0707 25.565 92.0344 24.1984 90.6194C22.8378 89.2105 22.8741 86.961 24.2891 85.5944C25.698 84.2339 27.9475 84.2701 29.3141 85.6851C30.6746 87.094 30.6383 89.3435 29.2234 90.7101Z" fill="#F48811"/>
  </g>
  <defs>
    <clipPath id="clip0_3023_64001">
      <rect width="150" height="117.764" fill="white" transform="translate(0.935913 11.1631)"/>
    </clipPath>
  </defs>
</svg>
