<svg width="106" height="57" viewBox="0 0 106 57" fill="none" xmlns="http://www.w3.org/2000/svg">
  <g clip-path="url(#clip0_4178_8744)">
    <path d="M17.7418 8.01377C17.7418 8.01377 17.7384 8.00538 17.7384 8.00035C16.7905 4.78252 14.5816 2.84477 10.7883 1.90358C10.785 1.90358 10.7816 1.90358 10.7782 1.90023C9.86739 1.68716 8.22416 1.47241 6.60787 1.47241C3.87196 1.47241 1.98292 2.04283 0.994627 3.16689C0.391885 3.85307 0.142706 4.74393 0.275714 5.74384C1.05355 12.4144 2.24557 19.0245 3.81977 25.3864C3.97466 26.0373 4.21711 26.7151 4.92423 27.2218C5.43101 27.6043 6.05227 27.8224 6.63313 27.8224C6.79812 27.8224 6.95975 27.8039 7.11296 27.7687C7.94636 27.6244 8.74777 27.0993 9.21077 26.3913C9.60306 25.7924 9.72597 25.0995 9.5576 24.4418C9.29496 23.3446 9.01884 22.1904 8.76124 21.0327C10.5779 20.5026 12.2245 19.657 13.6657 18.5112C17.0919 15.8101 18.7317 11.5906 17.7451 8.01209H17.7418V8.01377ZM10.5914 13.4898C10.5914 13.4898 10.5863 13.4948 10.5829 13.4982C9.80173 14.2632 8.78818 14.8856 7.61805 15.3252C7.06077 12.2969 6.64154 9.70657 6.32334 7.30075C6.55231 7.29068 6.78802 7.28565 7.02205 7.28565C7.76285 7.28565 8.84711 7.3343 9.80847 7.57086C10.982 7.84768 11.7042 8.47178 11.9652 9.42807C12.3103 10.6981 11.7345 12.4077 10.5947 13.4898H10.5914Z" fill="white"/>
    <path d="M26.8256 10.812C26.3087 10.2819 25.5191 10.0134 24.4836 10.0134C23.4819 10.0134 22.7226 10.2768 22.2259 10.7952C21.5103 11.5418 21.5575 12.5753 21.5827 13.1306C21.7174 16.085 21.6838 18.5076 21.5827 21.4587C21.5794 21.5543 21.5743 21.6449 21.5693 21.7322C21.539 22.2036 21.4969 22.8495 21.9834 23.3663C22.3993 23.8075 23.0542 24.0055 24.1082 24.0055C25.8592 24.0055 26.0982 22.5526 26.2414 21.6852L26.2531 21.6131C26.3424 21.0695 26.4383 20.5158 26.536 19.9572C26.9603 17.5044 27.398 14.9694 27.4755 12.6625C27.4957 11.8958 27.2768 11.2767 26.8256 10.8154V10.812Z" fill="white"/>
    <path d="M68.3121 42.6469C67.8508 42.0967 67.11 41.7863 66.1099 41.7209C65.9853 41.7125 65.8624 41.7091 65.7463 41.7091C64.0306 41.7091 63.012 42.6033 62.9514 44.1602C62.8774 46.4738 63.1501 49.0323 63.4111 51.5069C63.4717 52.0706 63.5306 52.6293 63.5845 53.1779L63.5912 53.2517C63.6771 54.1258 63.8202 55.5904 65.5678 55.7045C65.7278 55.7146 65.881 55.7196 66.0224 55.7196C68.2482 55.7196 68.2498 54.2885 68.2515 53.6023C68.2515 53.5151 68.2515 53.4245 68.2549 53.3356C68.3475 50.3778 68.4721 47.9585 68.8004 45.0192C68.8627 44.4672 68.9772 43.4388 68.3121 42.6469Z" fill="white"/>
    <path d="M53.4193 24.741C52.3587 24.5967 51.8266 24.4524 51.569 24.3551C51.5606 24.3518 51.5505 24.3484 51.5404 24.345C47.0906 22.8603 43.2333 19.978 42.7771 19.5133C42.7602 19.4864 42.7468 19.4613 42.735 19.4394C42.8023 19.3388 42.8579 19.2448 42.9034 19.1542L42.9421 19.0787L43.0111 18.9395C43.0279 18.9127 43.0953 18.812 43.3057 18.5335C43.5111 18.2617 43.8092 17.8758 44.1897 17.3893C44.848 16.5924 45.5618 15.678 46.3127 14.6731C47.2219 13.4551 47.594 12.9954 47.7438 12.8259C47.7472 12.8226 47.7505 12.8176 47.7539 12.8142C48.195 12.2958 48.461 11.7472 48.5469 11.1852C48.6395 10.5711 48.5351 10.0275 48.2371 9.56953C47.9862 9.18366 47.6579 8.86154 47.2623 8.61324C46.8346 8.34313 46.3531 8.20724 45.8312 8.20724C45.3093 8.20724 44.7941 8.36829 44.3698 8.68538C44.1257 8.86825 43.7048 9.27593 42.6222 10.8177C41.8393 11.9183 41.0463 12.9719 40.2668 13.9483C40.021 14.2554 39.8273 14.4902 39.6741 14.6697C39.5698 14.4785 39.4401 14.2369 39.2818 13.9299C38.7246 12.8578 38.2498 11.8562 37.871 10.9486C37.871 10.9452 37.8676 10.9419 37.8659 10.9385C37.6016 10.3312 37.3069 9.75408 36.9854 9.22225C36.5847 8.55788 36.2799 8.20052 35.9634 8.02772C35.955 8.02269 35.9449 8.01766 35.9365 8.0143C35.6317 7.86331 35.3152 7.78613 34.9936 7.78613C34.8926 7.78613 34.7899 7.79452 34.6889 7.80962C34.2074 7.88176 33.8201 8.11664 33.5659 8.48741C33.1871 9.01757 33.0827 9.81447 33.2393 10.9956C33.3723 12.0039 33.6636 13.0877 34.108 14.2168C34.3909 14.9516 34.7276 15.7485 35.1081 16.579C35.4768 17.3826 35.758 18.005 35.9449 18.4312C36.0223 18.609 36.0728 18.7348 36.1065 18.8221C36.0577 18.8825 35.9836 18.9647 35.8759 19.0737C35.5627 19.3942 35.1418 19.7565 34.63 20.1508C34.108 20.5501 31.6348 23.33 31.2442 23.882C30.7879 24.5229 30.5017 25.0597 30.3653 25.5245C30.1178 26.3767 30.3047 27.2089 30.9091 27.9303C31.5725 28.7255 32.3065 28.8916 32.8049 28.8916C32.9127 28.8916 33.0238 28.8832 33.1349 28.8681C33.1551 28.8648 33.1753 28.8614 33.1938 28.8581C33.5474 28.7826 33.9161 28.5812 34.3202 28.2424C34.5357 28.0612 35.3085 27.2341 36.9618 25.4473C37.3692 25.0061 37.7228 24.6252 37.9215 24.4138C38.5899 23.7209 38.9973 23.32 39.2448 23.0885C38.834 23.4726 46.5973 28.1618 47.3465 28.4722C49.5773 29.3966 55.7933 31.7219 55.7933 27.2794C55.7933 25.86 54.9262 24.9356 53.416 24.7443L53.4193 24.741Z" fill="white"/>
    <path d="M41.7222 45.5359C41.5673 43.9957 41.3148 42.6049 40.9511 41.2879C40.6834 40.2226 39.6514 39.4207 38.5418 39.4207C38.3045 39.4207 38.0704 39.4576 37.8482 39.5297C37.8448 39.5297 37.8398 39.5331 37.8364 39.5331C36.5333 39.9777 35.8059 41.251 36.1107 42.563C36.1124 42.5731 36.1157 42.5814 36.1174 42.5915C36.7723 45.0225 37.0013 47.1163 36.8195 48.9936C36.5434 51.6142 35.4103 51.6142 35.0365 51.6142C33.7536 51.6142 33.2923 49.908 33.2131 49.5657C33.2098 49.5523 33.2064 49.5389 33.203 49.5271C32.7602 47.9719 33.166 43.8766 33.3175 42.3365L33.3243 42.2761V42.261C33.3731 41.652 33.1374 41.0195 32.6794 40.5263C32.2013 40.0095 31.5329 39.7008 30.8914 39.7008C30.8577 39.7008 30.8257 39.7008 30.7921 39.7025C29.4351 39.7394 28.4686 40.6823 28.3255 42.1083C28.2009 43.1636 28.1201 44.2742 28.0646 45.7087C27.9198 49.2956 28.2144 53.6828 31.814 55.7933C32.7484 56.3503 33.8378 56.6456 34.9624 56.6456C36.5198 56.6456 38.0334 56.0937 39.2288 55.0921C40.7844 53.8455 41.6717 51.8122 41.8653 49.0456C41.9664 47.8612 41.8367 46.6297 41.7222 45.5409V45.5359Z" fill="white"/>
    <path d="M59.9585 47.4688C59.9467 46.1586 59.9349 44.8047 59.876 43.4658C59.7901 41.0751 59.317 39.0636 58.428 37.3255C57.965 36.4195 57.3236 35.6343 56.5205 34.9935C56.5154 34.9901 56.5121 34.9867 56.507 34.9834C55.9632 34.5656 55.3386 34.3241 54.9177 34.1764C54.4917 34.0321 54.0405 33.9617 53.5707 33.9617C53.3367 33.9617 53.0909 33.9801 52.8384 34.0137C51.5942 34.1546 50.4829 34.7384 49.5367 35.7484C49.4795 35.8071 49.4239 35.8659 49.3701 35.9263C48.9492 35.1847 48.1932 34.7049 47.3177 34.7049C47.2672 34.7049 47.215 34.7066 47.1628 34.7099C45.8496 34.777 44.8411 35.9397 44.868 37.3573C44.8865 38.0553 44.8865 38.7431 44.8865 39.4092V39.4729C44.868 42.4357 44.8495 45.4992 44.8495 48.5141C44.8276 49.8109 45.7486 50.9065 46.9961 51.0658C47.1039 51.0793 47.2049 51.0843 47.3026 51.0843C48.5097 51.0843 49.5283 50.2186 49.7253 49.0258C49.7927 48.5929 49.8566 48.1332 49.924 47.6467C50.3331 44.6771 50.8954 40.6087 53.0252 39.1978C53.2037 39.082 53.3687 39.0149 53.4849 39.0149C53.5236 39.0149 53.6431 39.0149 53.8351 39.2464C53.857 39.2716 53.8788 39.2968 53.9041 39.3202C53.99 39.4008 54.0203 39.4494 54.0287 39.4662C54.0438 39.4964 54.0607 39.5249 54.0792 39.5518C54.4648 40.1239 54.7156 40.8587 54.8486 41.7949C54.8486 41.8049 54.852 41.8133 54.8537 41.8234C55.0035 42.6639 55.0978 43.5732 55.1348 44.5245C55.1853 45.6636 55.1921 46.8984 55.1534 48.2003C55.0776 49.7136 56.0524 50.9216 57.4246 51.0105C57.4768 51.0138 57.529 51.0155 57.5812 51.0155C58.9197 51.0155 59.9669 49.8931 59.9669 48.4604C59.9635 48.1231 59.9601 47.796 59.9568 47.4672L59.9585 47.4688Z" fill="white"/>
    <path d="M85.9536 41.5963C85.2464 39.7726 83.8793 38.1989 82.2007 37.2812C81.2596 36.7595 80.2982 36.4944 79.3453 36.4944C75.6716 36.4944 72.9256 40.4219 72.205 44.1179C71.8514 45.8123 72.0131 47.6427 72.6646 49.2617C73.3465 50.9595 74.5234 52.3017 75.9814 53.0449C76.9057 53.5113 77.8889 53.7462 78.9059 53.7462C81.0895 53.7462 83.2631 52.6171 84.7178 50.7263C86.6119 48.2131 87.1069 44.544 85.9536 41.5946V41.5963ZM81.1906 47.4565C80.6552 48.2249 79.842 48.6846 79.0136 48.6846C78.5759 48.6846 77.9445 48.5503 77.4243 47.9128C77.4209 47.9078 77.4158 47.9028 77.4125 47.8994C76.7912 47.1847 76.5673 46.2066 76.7794 45.1463C77.0033 43.9585 77.5522 42.9166 78.3671 42.1264C78.3721 42.1214 78.3772 42.1164 78.3823 42.1113C78.7442 41.7338 79.1298 41.5426 79.5271 41.5426C79.9615 41.5426 80.4262 41.7758 80.8336 42.1986C81.5172 42.9082 81.9128 43.9954 81.8691 45.0339C81.8354 46.1076 81.6232 46.871 81.2007 47.4447C81.1973 47.4481 81.1939 47.4531 81.1922 47.4582H81.1906V47.4565Z" fill="white"/>
    <path d="M104.395 46.9356C104.181 46.7947 103.888 46.6185 103.55 46.4138C102.297 45.6588 100.112 44.3402 98.7802 42.9024C99.1725 42.6407 99.5227 42.3622 99.8291 42.0702C99.8342 42.0652 99.8375 42.0619 99.8426 42.0568C100.565 41.3337 101.053 40.5251 101.296 39.656C101.55 38.7434 101.493 37.834 101.126 36.9532C100.814 36.1832 100.287 35.5054 99.5648 34.945C98.8661 34.4031 98.031 34.0122 97.0814 33.7824C96.4063 33.623 95.7059 33.5425 94.992 33.5425C93.6519 33.5425 92.2225 33.826 90.7409 34.3847C90.0708 34.638 89.6297 35.1665 89.495 35.8762C89.4714 35.9634 89.4579 36.054 89.4546 36.1429C89.303 37.225 89.2912 38.4967 89.4175 39.9228C89.4849 40.8573 89.6515 42.1256 89.9125 43.6909C89.9327 43.8469 89.9613 44.0499 89.9984 44.2932C89.9984 44.2982 90.0001 44.3049 90.0017 44.31C90.2206 45.5682 90.3688 46.5044 90.4445 47.0916C90.5573 48.0328 90.6196 48.8616 90.6314 49.5478C90.6398 50.0796 90.8537 50.5611 91.2459 50.9386C91.6298 51.3077 92.1113 51.504 92.6383 51.504H92.6737C93.2209 51.4939 93.7074 51.2791 94.0795 50.8815C94.4449 50.4923 94.6334 50.0074 94.6233 49.4807C94.6099 48.6603 94.5324 47.6822 94.3943 46.5732C94.3405 46.1554 94.2647 45.6253 94.1704 44.9894C94.8388 45.169 95.6352 45.7142 96.7178 46.7158C100.326 50.2893 102.358 50.5124 103.026 50.5863C103.08 50.593 103.134 50.5946 103.19 50.5946C104.021 50.5946 104.887 49.8867 105.158 48.9841C105.399 48.1855 105.107 47.4003 104.397 46.9339H104.395V46.9356ZM97.4384 38.5638C97.4316 38.5857 97.4249 38.6075 97.4182 38.631C97.3777 38.797 97.2431 38.995 97.0292 39.203C96.3288 39.8859 95.1486 40.4378 93.5189 40.8455C93.4599 40.3825 93.4128 39.9547 93.3757 39.5671C93.3185 38.9011 93.3 38.2904 93.3202 37.7502C93.9212 37.6008 94.4886 37.5253 95.0122 37.5253C95.4028 37.5253 95.7783 37.5673 96.1285 37.6512C96.6235 37.777 97.2447 38.0136 97.4182 38.4363C97.4215 38.4447 97.4249 38.4531 97.4283 38.4615C97.4501 38.5118 97.4485 38.532 97.4367 38.5655H97.4384V38.5638Z" fill="white"/>
    <path d="M71.956 24.3124C71.7506 24.044 71.3651 23.9937 71.0957 24.1983C70.5418 24.6194 65.8747 28.411 65.1541 36.7475C64.447 36.7828 64.0547 36.9019 63.6406 37.0512C63.5631 37.0781 63.484 37.1083 63.3931 37.1351C62.7449 37.3331 62.3795 38.0176 62.5782 38.6635C62.7768 39.3094 63.4638 39.6718 64.112 39.4755C64.2433 39.4352 64.3595 39.3933 64.4723 39.353C64.7669 39.2473 64.9252 39.1836 65.6003 39.1836C66.2754 39.1836 66.5566 39.2742 66.9135 39.3899C67.0398 39.4302 67.1644 39.4705 67.2974 39.5074C67.4085 39.5376 67.518 39.5527 67.624 39.5527C68.1628 39.5527 68.6578 39.197 68.8076 38.6551C68.9878 38.0041 68.6039 37.3297 67.9507 37.1502C67.853 37.1217 67.7621 37.0932 67.6695 37.063C67.3479 36.9573 66.9674 36.8365 66.3849 36.7761C67.0802 29.0184 71.3365 25.5556 71.8415 25.1697C72.1109 24.965 72.1614 24.5809 71.956 24.3124Z" fill="white"/>
    <path d="M75.1151 25.3933C76.0711 24.4407 75.8771 22.7028 74.6818 21.5117C73.4864 20.3206 71.7424 20.1273 70.7864 21.0799C69.8304 22.0325 70.0244 23.7704 71.2198 24.9615C72.4151 26.1527 74.1591 26.346 75.1151 25.3933Z" fill="white"/>
    <path d="M25.1122 5.70769C26.8475 5.41926 28.0666 4.06446 27.8351 2.68167C27.6037 1.29887 26.0093 0.411721 24.274 0.700155C22.5387 0.98859 21.3196 2.34339 21.5511 3.72618C21.7825 5.10898 23.3769 5.99613 25.1122 5.70769Z" fill="white"/>
    <path d="M27.0543 30.7487L26.9617 30.7285C26.2747 30.5775 25.576 30.4182 24.8706 30.2588C21.798 29.5625 18.6209 28.8428 15.7234 28.5073C15.5432 28.4871 15.3715 28.4771 15.2099 28.4771C13.6239 28.4771 12.6693 29.3847 12.5211 31.0339C12.4437 31.8912 12.6272 32.5807 13.0683 33.0874C13.8141 33.9447 15.0735 34.0118 15.8244 34.0521C17.3195 34.1326 18.7051 34.2282 20.0672 34.344C20.0503 34.5134 20.0386 34.6879 20.0419 34.8691C20.0234 35.3355 20.0015 35.973 19.9779 36.7095C19.8786 39.8368 19.7102 45.0712 19.3045 47.0391C19.1142 47.9787 18.658 49.0943 17.5653 49.0943C16.4726 49.0943 15.0415 48.0458 14.5028 46.353C14.1812 45.3715 13.2501 44.7155 12.181 44.7155C11.8712 44.7155 11.5665 44.7709 11.2752 44.8799C11.2685 44.8833 11.2601 44.885 11.2533 44.8883C10.031 45.39 9.37777 46.7841 9.79699 47.9954C9.80036 48.0072 9.80541 48.0172 9.80878 48.029C11.1506 51.4314 14.4253 53.807 17.769 53.807C18.1562 53.807 18.5485 53.7751 18.9341 53.7147C21.2474 53.3674 22.8536 52.0622 23.6988 49.8342C24.3941 48.0005 24.5036 45.7641 24.5995 43.7928L24.6063 43.6502C24.7073 42.2644 24.9682 37.1004 25.0794 34.8456C25.539 34.8976 26.007 34.9513 26.4869 35.0067C26.6115 35.0201 26.7327 35.0369 26.8505 35.0536C27.1115 35.0906 27.3809 35.1275 27.6452 35.1275C29.3221 35.1275 29.472 33.4732 29.5208 32.9297C29.6656 31.3241 28.2177 31.007 27.0543 30.7503V30.7487Z" fill="white"/>
  </g>
  <defs>
    <clipPath id="clip0_4178_8744">
      <rect x="0.240234" y="0.649414" width="105" height="56" rx="5.36563" fill="white"/>
    </clipPath>
  </defs>
</svg>
