<svg width="60" height="60" viewBox="0 0 69 69" fill="none" xmlns="http://www.w3.org/2000/svg">
<g filter="url(#filter0_dd_4522_939)">
  <path d="M32.4336 58.5703C47.8976 58.5703 60.4336 46.0343 60.4336 30.5703C60.4336 15.1063 47.8976 2.57031 32.4336 2.57031C16.9696 2.57031 4.43359 15.1063 4.43359 30.5703C4.43359 46.0343 16.9696 58.5703 32.4336 58.5703Z" fill="white"/>
  <mask id="mask0_4522_939" style="mask-type:alpha" maskUnits="userSpaceOnUse" x="16" y="14" width="33" height="33">
    <rect x="16.3652" y="14.2051" width="32" height="32" fill="#D9D9D9"/>
  </mask>
  <g mask="url(#mask0_4522_939)">
    <path d="M29.7624 34.3647C29.3582 34.3647 29.019 34.2277 28.7447 33.9537C28.4705 33.6794 28.3334 33.3401 28.3334 32.9357V27.475C28.3334 27.0706 28.4705 26.7312 28.7447 26.457C29.019 26.183 29.3582 26.046 29.7624 26.046C30.1668 26.046 30.5062 26.183 30.7804 26.457C31.0544 26.7312 31.1914 27.0706 31.1914 27.475V32.9357C31.1914 33.3401 31.0544 33.6794 30.7804 33.9537C30.5062 34.2277 30.1668 34.3647 29.7624 34.3647ZM34.9684 34.3647C34.564 34.3647 34.2246 34.2277 33.9504 33.9537C33.6764 33.6794 33.5394 33.3401 33.5394 32.9357V27.475C33.5394 27.0706 33.6764 26.7312 33.9504 26.457C34.2246 26.183 34.564 26.046 34.9684 26.046C35.3726 26.046 35.7118 26.183 35.9861 26.457C36.2603 26.7312 36.3974 27.0706 36.3974 27.475V32.9357C36.3974 33.3401 36.2603 33.6794 35.9861 33.9537C35.7118 34.2277 35.3726 34.3647 34.9684 34.3647ZM32.3654 45.0633C30.0025 45.0633 27.7817 44.5332 25.7031 43.473C23.6244 42.413 21.8771 40.9233 20.4611 39.004V40.896C20.4611 41.3216 20.3147 41.6807 20.0221 41.9733C19.7292 42.2662 19.37 42.4127 18.9444 42.4127C18.5188 42.4127 18.1596 42.2662 17.8667 41.9733C17.5741 41.6807 17.4277 41.3216 17.4277 40.896V35.3713C17.4277 34.9458 17.5741 34.5866 17.8667 34.2937C18.1596 34.001 18.5188 33.8547 18.9444 33.8547H24.4691C24.8946 33.8547 25.2537 34.001 25.5464 34.2937C25.8393 34.5866 25.9857 34.9458 25.9857 35.3713C25.9857 35.7969 25.8393 36.156 25.5464 36.4487C25.2537 36.7416 24.8946 36.888 24.4691 36.888H22.6791C23.7966 38.5016 25.2036 39.7619 26.9001 40.669C28.5967 41.5763 30.4185 42.03 32.3654 42.03C34.6552 42.03 36.7464 41.4313 38.6391 40.234C40.5315 39.0367 41.9808 37.4322 42.9871 35.4207C43.2084 34.9898 43.5001 34.6499 43.8621 34.401C44.2243 34.1521 44.6377 34.0828 45.1024 34.193C45.5502 34.3032 45.8498 34.5616 46.0014 34.968C46.1527 35.3744 46.1231 35.8074 45.9124 36.267C44.7124 38.9192 42.8983 41.0483 40.4701 42.6543C38.0418 44.2603 35.3403 45.0633 32.3654 45.0633ZM19.0284 28.8083C18.5922 28.8083 18.2442 28.6508 17.9844 28.3357C17.7244 28.0208 17.6357 27.6506 17.7184 27.225C17.93 26.223 18.2082 25.3017 18.5531 24.461C18.898 23.6206 19.3545 22.7718 19.9227 21.9147C20.1661 21.5389 20.4895 21.3261 20.8931 21.2763C21.2964 21.2266 21.6611 21.3648 21.9871 21.691C22.3302 22.0339 22.5057 22.4152 22.5137 22.835C22.5215 23.2548 22.398 23.6774 22.1431 24.103C21.8184 24.6119 21.5608 25.118 21.3704 25.6213C21.1802 26.1247 21.0041 26.6757 20.8421 27.2743C20.7267 27.7274 20.5103 28.0963 20.1927 28.381C19.875 28.6659 19.4868 28.8083 19.0284 28.8083ZM26.3044 19.983C25.8957 20.2379 25.4802 20.349 25.0577 20.3163C24.6353 20.2834 24.2526 20.0954 23.9097 19.7523C23.6004 19.4432 23.4651 19.0926 23.5037 18.7003C23.5424 18.3081 23.7412 17.9791 24.1001 17.7133C24.9403 17.162 25.7748 16.7097 26.6037 16.3563C27.4328 16.003 28.3483 15.729 29.3501 15.5343C29.7927 15.4517 30.1757 15.5374 30.4991 15.7917C30.8226 16.0457 30.9844 16.3908 30.9844 16.827C30.9844 17.3023 30.842 17.6947 30.5571 18.004C30.2722 18.3131 29.8947 18.528 29.4247 18.6487C28.8432 18.7938 28.3063 18.9726 27.8141 19.185C27.3216 19.3977 26.8184 19.6637 26.3044 19.983ZM38.4277 19.9337C37.9191 19.6143 37.4144 19.3568 36.9137 19.161C36.4128 18.9654 35.8632 18.7894 35.2647 18.633C34.8116 18.5174 34.4426 18.3022 34.1577 17.9873C33.8731 17.6722 33.7307 17.2854 33.7307 16.827C33.7307 16.3908 33.8882 16.0457 34.2031 15.7917C34.518 15.5374 34.8883 15.4517 35.3141 15.5343C36.3327 15.7343 37.2595 16.0041 38.0944 16.3437C38.9291 16.6832 39.775 17.1371 40.6321 17.7053C40.9963 17.9542 41.2033 18.2817 41.2531 18.6877C41.3028 19.0937 41.1732 19.4512 40.8641 19.7603C40.5156 20.1088 40.126 20.2899 39.6951 20.3037C39.2642 20.3174 38.8417 20.1941 38.4277 19.9337ZM45.7277 28.8163C45.2524 28.8163 44.8588 28.6739 44.5471 28.389C44.2351 28.1043 44.0241 27.7242 43.9141 27.2487C43.7521 26.6502 43.5704 26.1049 43.3691 25.6127C43.1675 25.1204 42.9071 24.6114 42.5877 24.0857C42.3328 23.677 42.2178 23.2628 42.2427 22.843C42.2674 22.4232 42.4513 22.0418 42.7944 21.6987C43.0982 21.3896 43.4476 21.2572 43.8427 21.3017C44.2376 21.3461 44.5652 21.5478 44.8254 21.9067C45.399 22.7638 45.8568 23.6097 46.1991 24.4443C46.5413 25.2792 46.8124 26.2061 47.0124 27.225C47.0951 27.6559 47.0107 28.0288 46.7594 28.3437C46.5078 28.6588 46.164 28.8163 45.7277 28.8163Z" fill="#3F7DD8"/>
  </g>
</g>
<defs>
  <filter id="filter0_dd_4522_939" x="0.433594" y="0.570312" width="68" height="68" filterUnits="userSpaceOnUse" color-interpolation-filters="sRGB">
    <feFlood flood-opacity="0" result="BackgroundImageFix"/>
    <feColorMatrix in="SourceAlpha" type="matrix" values="0 0 0 0 0 0 0 0 0 0 0 0 0 0 0 0 0 0 127 0" result="hardAlpha"/>
    <feOffset/>
    <feGaussianBlur stdDeviation="1"/>
    <feColorMatrix type="matrix" values="0 0 0 0 0.27451 0 0 0 0 0.301961 0 0 0 0 0.384314 0 0 0 0.32 0"/>
    <feBlend mode="normal" in2="BackgroundImageFix" result="effect1_dropShadow_4522_939"/>
    <feColorMatrix in="SourceAlpha" type="matrix" values="0 0 0 0 0 0 0 0 0 0 0 0 0 0 0 0 0 0 127 0" result="hardAlpha"/>
    <feOffset dx="2" dy="4"/>
    <feGaussianBlur stdDeviation="3"/>
    <feColorMatrix type="matrix" values="0 0 0 0 0.27451 0 0 0 0 0.301961 0 0 0 0 0.384314 0 0 0 0.2 0"/>
    <feBlend mode="normal" in2="effect1_dropShadow_4522_939" result="effect2_dropShadow_4522_939"/>
    <feBlend mode="normal" in="SourceGraphic" in2="effect2_dropShadow_4522_939" result="shape"/>
  </filter>
</defs>
</svg>
