<svg width="42" height="48" viewBox="0 0 42 48" fill="none" xmlns="http://www.w3.org/2000/svg">
  <path d="M17.7146 0.597186L5.81986 5.05478C3.07857 6.07979 0.837891 9.32164 0.837891 12.2536V29.9648C0.837891 32.7776 2.69722 36.4724 4.96177 38.1649L15.2118 45.8166C18.5729 48.3434 24.1029 48.3434 27.464 45.8166L37.7143 38.1649C39.9788 36.4724 41.8379 32.7776 41.8379 29.9648V12.2536C41.8379 9.32164 39.5972 6.07979 36.8559 5.05478L24.9613 0.597186C22.9352 -0.14177 19.693 -0.14177 17.7146 0.597186Z" fill="#E1E7FF"/>
  <path d="M21.0737 22.2175C21.1214 22.2175 21.1691 22.2175 21.2167 22.2175H21.2644H21.3121C24.0534 22.1222 26.1987 19.9053 26.2226 17.1402C26.2226 14.3274 23.9342 12.0391 21.1214 12.0391C18.3086 12.0391 16.0202 14.3274 16.0202 17.1402C16.0679 19.8815 18.2132 22.1222 21.0737 22.2175Z" fill="#9469F0"/>
  <path d="M26.5346 27.2476C23.6502 25.3406 18.9779 25.3406 16.0698 27.2476C14.7349 28.1534 13.9484 29.4407 13.9484 30.7755C13.9484 32.1343 14.7111 33.3738 16.0698 34.2796C17.5238 35.2331 19.407 35.7337 21.2901 35.7337C23.1733 35.7337 25.0802 35.257 26.5105 34.2796C27.8454 33.3738 28.6322 32.0866 28.6322 30.7517C28.6561 29.393 27.8933 28.1534 26.5346 27.2476Z" fill="#9469F0"/>
</svg>
