<svg width="56" height="46" viewBox="0 0 56 46" fill="none" xmlns="http://www.w3.org/2000/svg">
  <path opacity="0.5" d="M8.47953 1.92613C6.92004 3.48798 6.92004 6.00176 6.92004 11.0293V29.6932H47.6359V11.0293C47.6359 6.00176 47.6359 3.48798 46.0764 1.92613C44.5169 0.364258 42.007 0.364258 36.9872 0.364258H17.5688C12.5489 0.364258 10.039 0.364258 8.47953 1.92613Z" fill="#C3D0FF"/>
  <path fill-rule="evenodd" clip-rule="evenodd" d="M52.2798 35.921C52.3983 36.0436 52.4577 36.105 52.513 36.1657C53.3679 37.1059 53.859 38.3206 53.8982 39.5914C53.9008 39.6738 53.9008 39.7591 53.9008 39.9297C53.9008 40.3275 53.9008 40.5264 53.8902 40.6944C53.7211 43.3748 51.5885 45.5107 48.9122 45.6801C48.7444 45.6907 48.5458 45.6907 48.1487 45.6907H6.40926C6.01207 45.6907 5.81347 45.6907 5.64575 45.6801C2.96964 45.5107 0.836806 43.3748 0.66773 40.6944C0.657135 40.5264 0.657135 40.3275 0.657135 39.9297C0.657135 39.7591 0.657135 39.6738 0.659691 39.5914C0.698905 38.3206 1.19016 37.1059 2.04485 36.1657C2.10017 36.105 2.15938 36.0439 2.27758 35.9215L5.72357 32.3594H48.8344L52.2798 35.921ZM18.6269 40.3582C18.6269 39.2538 19.5208 38.3585 20.6235 38.3585H33.9344C35.0371 38.3585 35.9311 39.2538 35.9311 40.3582C35.9311 41.4626 35.0371 42.3579 33.9344 42.3579H20.6235C19.5208 42.3579 18.6269 41.4626 18.6269 40.3582Z" fill="#FFBC57"/>
  <path d="M29.2757 7.69697C29.2757 8.80136 28.3817 9.69667 27.279 9.69667C26.1764 9.69667 25.2824 8.80136 25.2824 7.69697C25.2824 6.59257 26.1764 5.69727 27.279 5.69727C28.3817 5.69727 29.2757 6.59257 29.2757 7.69697Z" fill="#3D68FF"/>
  <path d="M48.0478 19.3476L52.2745 23.5806C52.712 24.019 52.9309 24.2381 53.1749 24.3394C53.5005 24.4744 53.8661 24.4744 54.1916 24.3394C54.4356 24.2381 54.6546 24.019 55.0921 23.5806C55.5298 23.1424 55.7485 22.9231 55.8497 22.6788C55.9845 22.3527 55.9845 21.9866 55.8497 21.6605C55.7485 21.4161 55.5298 21.1969 55.0921 20.7587L50.8656 16.5255L52.1563 15.2329C53.4776 13.9096 54.1382 13.2478 53.9823 12.5367C53.8264 11.8255 52.9496 11.502 51.1961 10.855L45.3481 8.69711C41.8501 7.4064 40.1012 6.76105 39.1997 7.66387C38.2983 8.56668 38.9427 10.3183 40.2314 13.8217L42.3859 19.6787C43.0319 21.4349 43.3549 22.313 44.0651 22.4691C44.7751 22.6253 45.4359 21.9637 46.7572 20.6403L48.0478 19.3476Z" fill="#9469F0"/>
</svg>
