<svg width="30px" height="30px" viewBox="0 0 30 30" version="1.1" xmlns="http://www.w3.org/2000/svg" xmlns:xlink="http://www.w3.org/1999/xlink">
    <g stroke="none" stroke-width="1" fill="none" fill-rule="evenodd">
        <g>
            <g>
                <mask id="mask" fill="white">
                  <path d="M18.73,6 L11.27,6 L6,11.27 L6,18.73 L11.27,24 L18.73,24 L24,18.73 L24,11.27 L18.73,6 L18.73,6 Z M15,20.3 C14.28,20.3 13.7,19.72 13.7,19 C13.7,18.28 14.28,17.7 15,17.7 C15.72,17.7 16.3,18.28 16.3,19 C16.3,19.72 15.72,20.3 15,20.3 L15,20.3 Z M16,16 L14,16 L14,10 L16,10 L16,16 L16,16 Z" id="path"></path>
                </mask>
                <g mask="url(#mask)" fill="#666666" fill-rule="evenodd">
                    <g transform="translate(2.000000, 2.000000)">
                        <rect x="0" y="0" width="26" height="26"></rect>
                    </g>
                </g>
            </g>
        </g>
    </g>
</svg>
