<svg width="21" height="15" viewBox="0 0 21 15" fill="none" xmlns="http://www.w3.org/2000/svg">
<path d="M12.2502 4.7C12.2502 4.6125 12.2794 4.52865 12.3377 4.44844C12.3961 4.36823 12.4617 4.31354 12.5346 4.28438C12.9721 4.12396 13.4206 4 13.8799 3.9125C14.3393 3.825 14.8169 3.78125 15.3127 3.78125C15.6336 3.78125 15.9471 3.79948 16.2534 3.83594C16.5596 3.8724 16.8586 3.92708 17.1502 4C17.2377 4.02917 17.318 4.08385 17.3909 4.16406C17.4638 4.24427 17.5002 4.33542 17.5002 4.4375C17.5002 4.59792 17.4456 4.72188 17.3362 4.80938C17.2268 4.89688 17.0919 4.91875 16.9315 4.875C16.6836 4.80208 16.4247 4.7474 16.1549 4.71094C15.8851 4.67448 15.6044 4.65625 15.3127 4.65625C14.8898 4.65625 14.4815 4.69635 14.0877 4.77656C13.694 4.85677 13.3075 4.97708 12.9284 5.1375C12.7242 5.21042 12.5601 5.20677 12.4362 5.12656C12.3122 5.04635 12.2502 4.90417 12.2502 4.7ZM12.2502 9.5125C12.2502 9.425 12.2794 9.3375 12.3377 9.25C12.3961 9.1625 12.4617 9.10417 12.5346 9.075C12.9721 8.91458 13.4206 8.79427 13.8799 8.71406C14.3393 8.63385 14.8169 8.59375 15.3127 8.59375C15.6336 8.59375 15.9471 8.61198 16.2534 8.64844C16.5596 8.6849 16.8586 8.73958 17.1502 8.8125C17.2377 8.84167 17.318 8.89635 17.3909 8.97656C17.4638 9.05677 17.5002 9.14792 17.5002 9.25C17.5002 9.41042 17.4456 9.53438 17.3362 9.62188C17.2268 9.70938 17.0919 9.73125 16.9315 9.6875C16.6836 9.61458 16.4247 9.5599 16.1549 9.52344C15.8851 9.48698 15.6044 9.46875 15.3127 9.46875C14.8898 9.46875 14.4815 9.50521 14.0877 9.57813C13.694 9.65104 13.3075 9.76771 12.9284 9.92813C12.7242 10.001 12.5601 10.001 12.4362 9.92813C12.3122 9.85521 12.2502 9.71667 12.2502 9.5125ZM12.2502 7.10625C12.2502 7.01875 12.2794 6.9349 12.3377 6.85469C12.3961 6.77448 12.4617 6.71979 12.5346 6.69063C12.9721 6.53021 13.4206 6.40625 13.8799 6.31875C14.3393 6.23125 14.8169 6.1875 15.3127 6.1875C15.6336 6.1875 15.9471 6.20573 16.2534 6.24219C16.5596 6.27865 16.8586 6.33333 17.1502 6.40625C17.2377 6.43542 17.318 6.4901 17.3909 6.57031C17.4638 6.65052 17.5002 6.74167 17.5002 6.84375C17.5002 7.00417 17.4456 7.12813 17.3362 7.21563C17.2268 7.30313 17.0919 7.325 16.9315 7.28125C16.6836 7.20833 16.4247 7.15365 16.1549 7.11719C15.8851 7.08073 15.6044 7.0625 15.3127 7.0625C14.8898 7.0625 14.4815 7.1026 14.0877 7.18281C13.694 7.26302 13.3075 7.38333 12.9284 7.54375C12.7242 7.61667 12.5601 7.61302 12.4362 7.53281C12.3122 7.4526 12.2502 7.31042 12.2502 7.10625ZM5.42524 11.4375C6.21274 11.4375 6.97472 11.5286 7.71118 11.7109C8.44764 11.8932 9.17316 12.1667 9.88774 12.5313V3.19062C9.23149 2.75312 8.52056 2.41406 7.75493 2.17344C6.98931 1.93281 6.21274 1.8125 5.42524 1.8125C4.87108 1.8125 4.32785 1.88177 3.79556 2.02031C3.26327 2.15885 2.72733 2.33021 2.18774 2.53437V12.0281C2.63983 11.824 3.15389 11.6745 3.72993 11.5797C4.30597 11.4849 4.87108 11.4375 5.42524 11.4375ZM11.2002 12.5313C11.9294 12.1667 12.644 11.8932 13.344 11.7109C14.044 11.5286 14.7877 11.4375 15.5752 11.4375C16.1294 11.4375 16.7018 11.4813 17.2924 11.5688C17.8831 11.6562 18.3898 11.7729 18.8127 11.9187V2.53437C18.3169 2.28646 17.7919 2.10417 17.2377 1.9875C16.6836 1.87083 16.1294 1.8125 15.5752 1.8125C14.7877 1.8125 14.0258 1.93281 13.2893 2.17344C12.5528 2.41406 11.8565 2.75312 11.2002 3.19062V12.5313ZM10.544 14.2594C10.4273 14.2594 10.3216 14.2484 10.2268 14.2266C10.132 14.2047 10.0482 14.1646 9.97524 14.1062C9.28983 13.6833 8.56066 13.3552 7.78774 13.1219C7.01483 12.8885 6.22733 12.7719 5.42524 12.7719C4.88566 12.7719 4.36066 12.8375 3.85024 12.9688C3.33983 13.1 2.82941 13.2604 2.31899 13.45C1.98358 13.6104 1.6591 13.5885 1.34556 13.3844C1.03202 13.1802 0.875244 12.8885 0.875244 12.5094V2.38125C0.875244 2.1625 0.926286 1.96198 1.02837 1.77969C1.13045 1.5974 1.28358 1.45521 1.48774 1.35312C2.10024 1.06146 2.73827 0.846354 3.40181 0.707813C4.06535 0.569271 4.73983 0.5 5.42524 0.5C6.34399 0.5 7.23722 0.623959 8.10493 0.871875C8.97264 1.11979 9.78566 1.49896 10.544 2.00937C11.2877 1.49896 12.0862 1.11979 12.9393 0.871875C13.7924 0.623959 14.6711 0.5 15.5752 0.5C16.2607 0.5 16.9315 0.569271 17.5877 0.707813C18.244 0.846354 18.8784 1.06146 19.4909 1.35312C19.695 1.45521 19.8518 1.5974 19.9612 1.77969C20.0706 1.96198 20.1252 2.1625 20.1252 2.38125V12.5094C20.1252 12.9177 19.9612 13.2276 19.6331 13.4391C19.3049 13.6505 18.9805 13.6542 18.6596 13.45C18.1638 13.2458 17.6607 13.0818 17.1502 12.9578C16.6398 12.8339 16.1148 12.7719 15.5752 12.7719C14.7877 12.7719 14.0148 12.8885 13.2565 13.1219C12.4982 13.3552 11.7836 13.6833 11.1127 14.1062C11.0398 14.1646 10.956 14.2047 10.8612 14.2266C10.7664 14.2484 10.6607 14.2594 10.544 14.2594Z" fill="#253858"/>
</svg>
