<svg width="18" height="18" viewBox="0 0 18 18" fill="none" xmlns="http://www.w3.org/2000/svg">
<path d="M14.4712 5.35C14.4129 5.35 14.3546 5.33542 14.2962 5.30625C14.2379 5.27708 14.1941 5.22604 14.165 5.15313L13.5087 3.73125L12.0869 3.075C12.0139 3.04583 11.9629 3.00208 11.9337 2.94375C11.9046 2.88542 11.89 2.82708 11.89 2.76875C11.89 2.71042 11.9046 2.65208 11.9337 2.59375C11.9629 2.53542 12.0139 2.49167 12.0869 2.4625L13.5087 1.80625L14.165 0.384375C14.1941 0.311458 14.2379 0.260417 14.2962 0.23125C14.3546 0.202083 14.4129 0.1875 14.4712 0.1875C14.5296 0.1875 14.5879 0.202083 14.6462 0.23125C14.7046 0.260417 14.7483 0.311458 14.7775 0.384375L15.4337 1.80625L16.8556 2.4625C16.9285 2.49167 16.9796 2.53542 17.0087 2.59375C17.0379 2.65208 17.0525 2.71042 17.0525 2.76875C17.0525 2.82708 17.0379 2.88542 17.0087 2.94375C16.9796 3.00208 16.9285 3.04583 16.8556 3.075L15.4337 3.73125L14.7775 5.15313C14.7483 5.22604 14.7046 5.27708 14.6462 5.30625C14.5879 5.33542 14.5296 5.35 14.4712 5.35ZM16.3087 11.6719C16.2504 11.6719 16.1921 11.6573 16.1337 11.6281C16.0754 11.599 16.0316 11.5552 16.0025 11.4969L15.6525 10.7312L14.8869 10.3812C14.8577 10.3667 14.7994 10.2646 14.7119 10.075C14.7119 10.0167 14.7264 9.95833 14.7556 9.9C14.7848 9.84167 14.8285 9.79792 14.8869 9.76875L15.6525 9.41875L16.0025 8.65312C16.0171 8.62396 16.1191 8.56563 16.3087 8.47813C16.3671 8.47813 16.4254 8.49271 16.4837 8.52187C16.5421 8.55104 16.5858 8.59479 16.615 8.65312L16.965 9.41875L17.7306 9.76875C17.7598 9.78333 17.8181 9.88542 17.9056 10.075C17.9056 10.1333 17.891 10.1917 17.8619 10.25C17.8327 10.3083 17.7889 10.3521 17.7306 10.3812L16.965 10.7312L16.615 11.4969C16.6004 11.526 16.4983 11.5844 16.3087 11.6719ZM5.45873 17.25C5.29831 17.25 5.15612 17.1917 5.03217 17.075C4.90821 16.9583 4.83164 16.8198 4.80248 16.6594L4.64935 15.2375C4.44519 15.2083 4.23373 15.1427 4.01498 15.0406C3.79623 14.9385 3.60664 14.8146 3.44623 14.6687L2.26498 15.1719C2.11914 15.2448 1.96967 15.2521 1.81654 15.1937C1.66342 15.1354 1.5431 15.0406 1.4556 14.9094L0.143102 12.7875C0.041019 12.6271 0.00820656 12.463 0.0446649 12.2953C0.0811232 12.1276 0.179561 11.9927 0.339977 11.8906L1.47748 11.1469C1.40456 10.899 1.3681 10.6802 1.3681 10.4906C1.3681 10.301 1.40456 10.0823 1.47748 9.83437L0.339977 9.09062C0.179561 8.98854 0.0811232 8.85365 0.0446649 8.68594C0.00820656 8.51823 0.041019 8.35417 0.143102 8.19375L1.4556 6.07188C1.5431 5.94063 1.66342 5.84583 1.81654 5.7875C1.96967 5.72917 2.11914 5.73646 2.26498 5.80938L3.44623 6.3125C3.60664 6.16667 3.79623 6.04271 4.01498 5.94062C4.23373 5.83854 4.44519 5.77292 4.64935 5.74375L4.80248 4.32188C4.83164 4.16146 4.90821 4.02292 5.03217 3.90625C5.15612 3.78958 5.29831 3.73125 5.45873 3.73125H7.95248C8.1129 3.73125 8.25508 3.78958 8.37904 3.90625C8.503 4.02292 8.57956 4.16146 8.60873 4.32188L8.76185 5.74375C8.96602 5.77292 9.17748 5.83854 9.39623 5.94062C9.61498 6.04271 9.80456 6.16667 9.96498 6.3125L11.1462 5.80938C11.2921 5.73646 11.4415 5.72917 11.5947 5.7875C11.7478 5.84583 11.8681 5.94063 11.9556 6.07188L13.2681 8.19375C13.3702 8.35417 13.403 8.51823 13.3665 8.68594C13.3301 8.85365 13.2316 8.98854 13.0712 9.09062L11.9337 9.83437C12.0066 10.0823 12.0431 10.301 12.0431 10.4906C12.0431 10.6802 12.0066 10.899 11.9337 11.1469L13.0712 11.8906C13.2316 11.9927 13.3301 12.1276 13.3665 12.2953C13.403 12.463 13.3702 12.6271 13.2681 12.7875L11.9556 14.9094C11.8681 15.0406 11.7478 15.1354 11.5947 15.1937C11.4415 15.2521 11.2921 15.2448 11.1462 15.1719L9.96498 14.6687C9.80456 14.8146 9.61498 14.9385 9.39623 15.0406C9.17748 15.1427 8.96602 15.2083 8.76185 15.2375L8.60873 16.6594C8.57956 16.8198 8.503 16.9583 8.37904 17.075C8.25508 17.1917 8.1129 17.25 7.95248 17.25H5.45873ZM6.7056 13.0062C7.43477 13.0062 8.03633 12.7693 8.51029 12.2953C8.98425 11.8214 9.22123 11.2198 9.22123 10.4906C9.22123 9.76146 8.98425 9.1599 8.51029 8.68594C8.03633 8.21198 7.43477 7.975 6.7056 7.975C5.97644 7.975 5.37487 8.21198 4.90092 8.68594C4.42696 9.1599 4.18998 9.76146 4.18998 10.4906C4.18998 11.2198 4.42696 11.8214 4.90092 12.2953C5.37487 12.7693 5.97644 13.0062 6.7056 13.0062ZM6.7056 11.6937C6.3556 11.6937 6.06758 11.5807 5.84154 11.3547C5.6155 11.1286 5.50248 10.8406 5.50248 10.4906C5.50248 10.1406 5.6155 9.8526 5.84154 9.62656C6.06758 9.40052 6.3556 9.2875 6.7056 9.2875C7.0556 9.2875 7.34362 9.40052 7.56967 9.62656C7.79571 9.8526 7.90873 10.1406 7.90873 10.4906C7.90873 10.8406 7.79571 11.1286 7.56967 11.3547C7.34362 11.5807 7.0556 11.6937 6.7056 11.6937ZM5.96185 15.9375H7.44935L7.62435 14.275C8.04727 14.1729 8.43373 14.0271 8.78373 13.8375C9.13373 13.6479 9.45456 13.4 9.74623 13.0938L11.1681 13.7281L11.89 12.5906L10.5337 11.6281C10.6941 11.2635 10.7744 10.8844 10.7744 10.4906C10.7744 10.0969 10.6941 9.71771 10.5337 9.35313L11.89 8.39062L11.1681 7.25312L9.74623 7.8875C9.45456 7.58125 9.13373 7.33333 8.78373 7.14375C8.43373 6.95417 8.04727 6.80833 7.62435 6.70625L7.44935 5.04375H5.96185L5.78685 6.70625C5.36394 6.80833 4.97748 6.95417 4.62748 7.14375C4.27748 7.33333 3.95664 7.58125 3.66498 7.8875L2.2431 7.25312L1.52123 8.39062L2.87748 9.35313C2.71706 9.71771 2.63685 10.0969 2.63685 10.4906C2.63685 10.8844 2.71706 11.2635 2.87748 11.6281L1.52123 12.5906L2.2431 13.7281L3.66498 13.0938C3.95664 13.4 4.27748 13.6479 4.62748 13.8375C4.97748 14.0271 5.36394 14.1729 5.78685 14.275L5.96185 15.9375Z" fill="#253858"/>
</svg>
