<?xml version="1.0" encoding="UTF-8"?>
<svg width="19px" height="19px" viewBox="0 0 19 19" version="1.1" xmlns="http://www.w3.org/2000/svg" xmlns:xlink="http://www.w3.org/1999/xlink">
    <title>Icône document écrit</title>
    <desc>Icône représentant un document sous la forme écrite.</desc>
    <defs>
        <path d="M6,10 L12,10 L12,16 L6,16 L6,10 Z M6,6 L24,6 L24,8 L6,8 L6,6 Z M24,10 L24,12 L14,12 L14,10 L24,10 Z M24,14 L24,16 L14,16 L14,14 L24,14 Z M6,18 L20,18 L20,20 L6,20 L6,18 Z M6,22 L24,22 L24,24 L6,24 L6,22 Z" id="path-1"></path>
    </defs>
    <g id="Elements" stroke="none" stroke-width="1" fill="none" fill-rule="evenodd">
        <g id="Icons" transform="translate(-102.000000, -132.000000)">
            <g id="3.-Icons/tuto/site" transform="translate(96.906250, 126.492188)">
                <mask id="mask-2" fill="white">
                    <use xlink:href="#path-1"></use>
                </mask>
                <use id="site" fill="#6A6D76" fill-rule="nonzero" xlink:href="#path-1"></use>
                <g id="5.-Colors/666" mask="url(#mask-2)" fill="#666666" fill-rule="evenodd">
                    <g transform="translate(2.000000, 2.000000)" id="Gray-70">
                        <rect x="0" y="0" width="26" height="26"></rect>
                    </g>
                </g>
            </g>
        </g>
    </g>
</svg>
