<?xml version="1.0" encoding="UTF-8"?>
<svg width="24px" height="17px" viewBox="0 0 24 17" version="1.1" xmlns="http://www.w3.org/2000/svg" xmlns:xlink="http://www.w3.org/1999/xlink">
    <title>Icône vidéo</title>
    <desc>Icône représenant un document vidéo.</desc>
    <defs>
        <path d="M25.4813399,8.37348624 C24.6606804,7.39793552 23.1455039,7 20.2518541,7 L9.74792589,7 C6.7880513,7 5.24720626,7.42360404 4.42962698,8.46222601 C3.63250919,9.4748861 3.63250919,10.9669609 3.63250919,13.0320307 L3.63250919,16.9680427 C3.63250919,20.9687394 4.57828443,23 9.74792589,23 L20.2519274,23 C22.7612827,23 24.1517835,22.6488545 25.0513554,21.7879321 C25.9738823,20.9050815 26.3674908,19.4636103 26.3674908,16.9680427 L26.3674908,13.0320307 C26.3674908,10.8542394 26.305813,9.35336395 25.4813399,8.37348624 Z M18.2284407,15.5434394 L13.4586416,18.0362935 C13.3520072,18.0920308 13.2353987,18.1196795 13.118937,18.1196795 C12.9870741,18.1196795 12.8555045,18.0841836 12.7389694,18.0136318 C12.5195402,17.8806688 12.3855505,17.6428316 12.3855505,17.386293 L12.3855505,12.4165727 C12.3855505,12.1604741 12.5191735,11.9228569 12.7381627,11.7898206 C12.9572252,11.6567843 13.2296783,11.6476903 13.4569548,11.7657655 L18.2267539,14.2425584 C18.4694315,14.3685542 18.6218292,14.619079 18.6221959,14.8924122 C18.6224893,15.1659654 18.4707516,15.4168569 18.2284407,15.5434394 Z" id="path-1"></path>
    </defs>
    <g id="Elements" stroke="none" stroke-width="1" fill="none" fill-rule="evenodd">
        <g id="Icons" transform="translate(-143.000000, -133.000000)">
            <g id="3.-Icons/tuto/video" transform="translate(139.712891, 126.492188)">
                <mask id="mask-2" fill="white">
                    <use xlink:href="#path-1"></use>
                </mask>
                <use id="XMLID_823_" fill="#6A6D76" fill-rule="nonzero" xlink:href="#path-1"></use>
                <g id="5.-Colors/666" mask="url(#mask-2)" fill="#666666" fill-rule="evenodd">
                    <g transform="translate(2.000000, 2.000000)" id="Gray-70">
                        <rect x="0" y="0" width="26" height="26"></rect>
                    </g>
                </g>
            </g>
        </g>
    </g>
</svg>
