<svg xmlns="http://www.w3.org/2000/svg" xmlns:xlink="http://www.w3.org/1999/xlink" width="124" height="122" xmlns:v="https://vecta.io/nano"><style><![CDATA[.B{fill:#000}.C{fill:#222831}.D{fill-rule:nonzero}.E{fill:#fff}.F{fill:#efffd8}.G{fill:#3d68ff}.H{fill:#302ea7}]]></style><g fill-rule="evenodd"><g class="D"><path d="M59.233 115.923s15.284-3.906 23.345 0-1.308 4.17-6.385 5.226-9.954 1.319-12.383-.317-8.449-3.167-4.576-4.909" fill="#fff1c5"/><path d="M22.595 110.974s-24.857-2.721-20.765-20.72S8.243 71.219.792 50.096 40.307 5.409 63.589 27.078s35.989 7.527 52.353 20.075 5.588 49.019-12.573 63.82H22.595" fill="#e3fac6"/></g><path d="M28.21 111.193h70.853c.201 0 .365-.165.365-.368V9.502c0-.203-.163-.368-.365-.368H28.21c-.201 0-.365.165-.365.368v101.323c0 .203.163.368.365.368" class="C"/><path d="M32.205 107.19h62.863c.116 0 .211-.095.211-.212V13.349c0-.117-.095-.212-.211-.212H32.205c-.116 0-.211.095-.211.212v93.629c0 .117.095.212.211.212" fill="#2eb12d" class="D"/><path d="M34.688 104.317h57.896c.144 0 .261-.118.261-.263V16.273c0-.145-.117-.263-.261-.263H34.688c-.144 0-.261.118-.261.263v87.781c0 .145.117.263.261.263" class="E"/><path d="M62.916 6.166a2.14 2.14 0 0 0 2.131-2.149 2.14 2.14 0 0 0-2.131-2.149 2.14 2.14 0 0 0-2.131 2.149 2.14 2.14 0 0 0 2.131 2.149m0-6.027c2.097 0 3.798 1.715 3.798 3.83v4.908h-7.596V3.968c0-2.115 1.7-3.83 3.798-3.83" class="G"/><path d="M62.916 6.166v.106c1.235 0 2.236-1.009 2.236-2.254s-1.001-2.255-2.236-2.255-2.236 1.009-2.236 2.255 1.001 2.254 2.236 2.254V6.06a2.01 2.01 0 0 1-1.432-.598c-.367-.37-.593-.88-.593-1.444s.226-1.074.593-1.444a2.01 2.01 0 0 1 2.865 0c.367.37.593.88.593 1.444s-.226 1.074-.593 1.444a2.01 2.01 0 0 1-1.432.598v.106m0-6.027v.106c1.02 0 1.942.417 2.611 1.091s1.082 1.604 1.082 2.633V8.77h-7.49v.106h.105V5.689 3.968c0-1.029.413-1.959 1.081-2.633S61.896.245 62.916.245V.033c-2.155 0-3.903 1.762-3.903 3.936v1.721 3.187.106h7.806V3.968c0-2.174-1.748-3.936-3.903-3.936v.106" class="B"/><path d="M66.608 8.025h-.95V3.478c0-.681-.147-1.324-.426-1.885a3.65 3.65 0 0 0-.698-.969c.517.255.967.627 1.314 1.083.449.59.726 1.318.757 2.112l.002.048v.025l.001.027v.023 4.083" class="H"/><path d="M66.655 4.646v-.062.062m0-.081v-.042.042m0-.067v-.036.036m0-.062c0-.012-.008-.024-.008-.036 0 .012.008.024.008.036m-.008-.063v-.044.044m0-.085v-.032.032" class="B"/><path d="M61.177 5.435a1.49 1.49 0 0 1-.479-.399c-.222-.285-.353-.674-.353-1.194.001-.564.227-1.074.594-1.444a2.01 2.01 0 0 1 1.432-.598l.135.002a2.25 2.25 0 0 0-1.826 2.217c0 .537.186 1.03.497 1.417" class="H"/><path d="M61.216 5.455l-.039-.021c-.311-.387-.497-.88-.497-1.417 0 .347.097.688.251.993.081.159.177.309.285.444" class="B"/><path d="M66.845 4.001v-.025.025m0-.015v-.022.022m.005-.044c-.001-.08-.007-.16-.018-.238.011.079.017.158.018.238M63.828.141a3.87 3.87 0 0 0-.389-.073L63.338 0l.49.141" fill="#7f7f7f"/><path d="M66.819 8.025h-.21V3.968v-.022-.022-.02l-.001-.023-.002-.051a3.73 3.73 0 0 0-1.079-2.495 3.68 3.68 0 0 0-1.624-.956l-.464-.311a3.87 3.87 0 0 1 .389.073l.158.045a3.91 3.91 0 0 1 2.03 1.392 3.93 3.93 0 0 1 .79 2.056l.002.021.002.022.002.025.009.24v4.083" class="B"/><path d="M61.678 5.634a2.03 2.03 0 0 1-.194-.173c-.367-.37-.593-.88-.593-1.444a2.01 2.01 0 0 0 .228.897 2.39 2.39 0 0 0 .557.718l.002.002m1.723-3.553l-.181-.05a1.16 1.16 0 0 0-.304-.057c-.059 0-.118.005-.175.014.057-.009.116-.014.175-.014a1.18 1.18 0 0 1 .485.107" fill="#7f7f7f"/><path d="M61.56 5.81c-.418-.112-.776-.321-1.027-.644-.256-.328-.398-.769-.398-1.325.001-1.245 1.001-2.254 2.236-2.255a2.07 2.07 0 0 1 .443.036c.108.024.187.06.269.098l.146.065c-.103-.015-.208-.022-.314-.022-1.235 0-2.236 1.009-2.236 2.255a2.25 2.25 0 0 1 1.826-2.217l-.135-.002a2.01 2.01 0 0 0-1.432.598c-.367.37-.593.88-.594 1.444.001.521.131.909.353 1.194a1.49 1.49 0 0 0 .479.399c.112.14.241.266.383.375" class="H"/><path d="M62.02 5.929l-.439-.114-.022-.006c-.142-.109-.271-.235-.383-.375l.039.021c-.108-.136-.204-.286-.285-.444-.154-.306-.251-.647-.251-.993 0-1.245 1.001-2.254 2.236-2.254.107 0 .211.008.314.022l.044.018.897.349-.769-.118c-.156-.039-.318-.059-.485-.059l-.175.008c-.49.042-.929.26-1.257.591-.367.37-.593.88-.593 1.444s.226 1.074.593 1.444a2.03 2.03 0 0 0 .194.173l.342.295" class="B"/><path d="M65.658 8.025h-.21V3.478a4.01 4.01 0 0 0-.404-1.79A3.38 3.38 0 0 0 63.903.379a3.68 3.68 0 0 1 1.624.956c.636.641 1.041 1.515 1.079 2.484-.031-.794-.308-1.522-.757-2.112-.347-.456-.797-.829-1.314-1.083a3.65 3.65 0 0 1 .698.969c.279.561.426 1.204.426 1.885v4.546m.976-4.112l-.002-.075.002.075m-.001-.052" class="C"/><path d="M40.613 10.823v3.836h46.048v-3.836c0-1.488-1.198-2.693-2.671-2.693H43.284c-1.476 0-2.671 1.204-2.671 2.693" class="G"/><path d="M40.613 10.823h-.105v3.942h46.258v-3.942c-.001-1.547-1.245-2.799-2.776-2.799H43.284c-1.534 0-2.776 1.252-2.776 2.799h.21a2.59 2.59 0 0 1 .751-1.83c.464-.468 1.105-.757 1.815-.757h40.707a2.55 2.55 0 0 1 1.813.757 2.59 2.59 0 0 1 .752 1.83v3.73H40.718v-3.73h-.105" class="B"/><path d="M86.556 14.553H40.718V13.7h44.162v-2.777c0-1.013-.497-2.005-1.153-2.687h.263c.707 0 1.348.289 1.813.757a2.59 2.59 0 0 1 .752 1.83v3.73" fill="#2044dc" class="D"/><path d="M86.661 14.659H40.613V13.7h.105v.853h45.838v-3.73a2.59 2.59 0 0 0-.752-1.83 2.55 2.55 0 0 0-1.813-.757h-.263l-.106-.106h.369c1.472 0 2.671 1.204 2.671 2.693v3.836" class="B"/><use xlink:href="#B" class="C"/><g class="D F"><use xlink:href="#C"/><use xlink:href="#D"/><use xlink:href="#E"/><use xlink:href="#F"/><use xlink:href="#G"/></g><use xlink:href="#H" class="C"/><use xlink:href="#B" y="21.93" fill="#0b065a"/><g class="D F"><use xlink:href="#C" y="21.93"/><use xlink:href="#D" y="21.93"/><use xlink:href="#E" y="21.93"/><use xlink:href="#F" y="21.93"/><use xlink:href="#G" y="21.93"/></g><use xlink:href="#H" y="21.93" class="C"/><use xlink:href="#B" y="43.092" fill="#0b065a"/><g class="D F"><use xlink:href="#C" y="43.093"/><use xlink:href="#D" y="43.093"/><use xlink:href="#E" y="43.093"/><path d="M41.168 78.242h11.289c.306 0 .555-.269.555-.599s-.249-.599-.555-.599H41.168c-.306 0-.555.268-.555.599s.249.599.555.599m14.099 0h21.417c.307 0 .555-.269.555-.599s-.248-.599-.555-.599H55.267c-.306 0-.555.268-.555.599s.249.599.555.599"/></g><g class="C"><use xlink:href="#H" y="43.092"/><use xlink:href="#B" y="64.639"/></g><g class="D F"><use xlink:href="#C" y="64.639"/><use xlink:href="#D" y="64.639"/><use xlink:href="#E" y="64.639"/><use xlink:href="#F" y="64.639"/><use xlink:href="#G" y="64.639"/></g><use xlink:href="#H" y="64.639" class="C"/><g class="B"><use xlink:href="#I"/><path d="M79.96 55.108v.106h8.478c.119 0 .215-.097.215-.217v-8.549c0-.12-.097-.217-.215-.217H79.96c-.119 0-.216.097-.216.217v8.549c.001.12.097.217.216.217v-.212l-.006-.005v-8.549l.006-.005h8.478l.005.005v8.549l-.005.005H79.96v.106"/><use xlink:href="#I" y="43.718"/><use xlink:href="#I" y="65.577"/></g><path d="M83.736 53.655c-.196 0-.383-.088-.508-.241l-3.279-3.993a.67.67 0 0 1 .087-.937c.281-.235.697-.196.929.088l2.7 3.288 5.823-9.265a.66.66 0 0 1 .911-.206.67.67 0 0 1 .204.918l-6.309 10.038a.66.66 0 0 1-.515.308l-.042.002m-.001 21.771c-.196 0-.383-.088-.508-.241l-3.279-3.993a.67.67 0 0 1 .087-.937c.281-.235.697-.196.929.088l2.7 3.288 5.823-9.265a.66.66 0 0 1 .911-.206.67.67 0 0 1 .204.918l-6.309 10.038a.66.66 0 0 1-.515.308l-.042.001" fill="#038a25" class="D"/><path d="M82.168 26.961l1.084-5.443s1.23-.637 1.099.088l-.805 4.982s.183.553-.343.812-.829.29-1.036-.438" class="C"/><path d="M62.211 66.302c-.222-2.81 1.208-10.184 1.208-10.184s1.645-.108 2.626.723-3.611 12.271-3.834 9.461zM84.77 26.18c-.262-.07-1.256-.158-1.256 0s.14.844-.139 1.091-.82.493-1.012.07-.174-.545-.559-.211-.244 1.407.087 1.847.384 1.372.157 2.006-2.094 6.246-2.286 7.143-4.257 5.12-4.711 5.331-2.966 1.249-3.716.809-4.584 1.096-4.584 1.096-2.983 1.148-3.808 1.979-1.217 1.742-1.649 6.373-1.492 4.275-1.609 7.086.432 10.055 0 10.609-.511 3.563.471 3.642 14.093-17.735 14.878-20.07.235-5.265 1.256-7.482 5.653-6.413 6.124-7.442 1.021-8.155 1.453-8.828 1.609-1.861 1.609-2.652-.445-2.327-.707-2.397h0z" class="E"/><path d="M62.211 66.302l.105-.008-.024-.667c0-.784.077-1.77.192-2.808l.649-4.508.275-1.567.084-.447.03-.159-.103-.021.007.106h.003a2.76 2.76 0 0 1 .181-.005c.226 0 .634.017 1.077.114s.922.275 1.291.589c.012.01.024.025.037.048a.5.5 0 0 1 .046.149c.012.065.017.144.017.235 0 .251-.044.589-.125.985-.282 1.389-1.004 3.483-1.746 5.223l-1.073 2.214c-.163.28-.314.505-.442.655-.064.075-.122.131-.17.165-.024.017-.044.029-.06.035s-.028.008-.034.008c-.022-.01-.029-.017-.038-.032-.014-.022-.029-.059-.043-.112s-.023-.12-.029-.202l-.105.008-.105.008c.013.161.038.282.085.376.024.047.054.087.095.118s.091.048.141.047.088-.012.129-.031c.078-.036.15-.096.227-.176.143-.15.301-.374.471-.658.298-.496.635-1.176.975-1.944.509-1.152 1.022-2.503 1.41-3.725l.47-1.696c.113-.507.18-.939.18-1.267-.001-.134-.011-.25-.037-.349a.64.64 0 0 0-.052-.137c-.023-.041-.051-.078-.086-.109-.408-.345-.917-.531-1.382-.633a5.37 5.37 0 0 0-1.121-.119l-.198.005-.081.005-.015.08c-.001.001-.308 1.589-.616 3.573l-.424 3.125-.193 2.831.024.683.105-.008zM84.77 26.18l.027-.102c-.045-.012-.101-.023-.168-.034-.2-.032-.489-.059-.729-.059-.112 0-.213.006-.295.022-.042.009-.078.019-.115.04-.018.011-.037.025-.054.047s-.029.054-.028.086.003.057.006.092l.029.42a1.25 1.25 0 0 1-.032.3.54.54 0 0 1-.044.117c-.018.033-.039.061-.063.082-.077.068-.18.138-.286.19s-.216.083-.306.083a.28.28 0 0 1-.148-.037c-.04-.025-.077-.063-.108-.13l-.137-.304a.39.39 0 0 0-.078-.107c-.017-.015-.037-.03-.061-.039s-.049-.015-.075-.015c-.033 0-.063.008-.091.019a.6.6 0 0 0-.128.075 2.32 2.32 0 0 0-.152.124c-.101.089-.167.211-.208.348s-.059.291-.059.45a2.47 2.47 0 0 0 .091.653c.059.209.141.398.249.541.087.115.157.276.203.463a2.56 2.56 0 0 1 .071.612c0 .292-.045.588-.132.831l-.427 1.26-1.112 3.399-.485 1.551-.168.572-.097.375c-.008.042-.032.105-.07.18a4.33 4.33 0 0 1-.347.543c-.272.376-.652.839-1.074 1.324l-1.965 2.111-.784.761-.268.235-.091.07c-.025.018-.044.029-.052.032l-.507.215-1.307.452c-.48.139-.967.241-1.335.24-.101 0-.193-.007-.273-.023a.64.64 0 0 1-.197-.069.64.64 0 0 0-.21-.073 1.43 1.43 0 0 0-.257-.021c-.325 0-.745.075-1.198.187a21.98 21.98 0 0 0-2.014.623l-.997.373.039.099-.037-.099c-.001.001-.749.288-1.601.68l-1.278.645-.55.341c-.164.113-.305.226-.415.336a3.43 3.43 0 0 0-.561.716c-.247.427-.446.99-.623 1.878s-.334 2.105-.495 3.843c-.108 1.154-.254 1.995-.415 2.651-.241.984-.513 1.552-.741 2.151-.114.299-.217.606-.296.971s-.136.787-.158 1.319l-.017.978.093 3.884.092 3.839-.037 1.271-.05.397-.032.122c-.011.031-.022.051-.027.057a.99.99 0 0 0-.142.286c-.059.174-.105.391-.137.634s-.049.511-.049.784c.001.485.054.983.183 1.377.065.197.149.368.261.499a.72.72 0 0 0 .192.161c.072.041.152.067.237.073l.001.001c.049 0 .079-.008.109-.02.058-.023.118-.061.187-.112.133-.1.298-.254.498-.458.373-.383.862-.94 1.434-1.629 2.004-2.411 5.036-6.428 7.645-10.073 1.304-1.822 2.503-3.551 3.414-4.939.456-.694.84-1.303 1.13-1.797.145-.247.266-.465.362-.652a3.51 3.51 0 0 0 .206-.463c.399-1.188.457-2.512.545-3.812s.206-2.574.707-3.659c.247-.539.725-1.213 1.307-1.931.874-1.077 1.985-2.255 2.922-3.261l1.226-1.347a9.62 9.62 0 0 0 .421-.516c.113-.151.197-.279.247-.388a1.94 1.94 0 0 0 .095-.278 9.42 9.42 0 0 0 .173-.821c.203-1.16.412-2.961.615-4.541l.298-2.094c.048-.285.096-.528.141-.715a2.76 2.76 0 0 1 .067-.235c.021-.062.042-.108.056-.13.104-.162.257-.361.428-.579.256-.327.552-.697.787-1.064a3.59 3.59 0 0 0 .292-.545c.074-.179.119-.353.12-.522 0-.208-.029-.457-.075-.717a7.24 7.24 0 0 0-.299-1.135c-.059-.165-.121-.307-.183-.418a.83.83 0 0 0-.098-.141c-.017-.019-.036-.037-.056-.052s-.045-.028-.073-.036l-.055.205.004-.014-.005.013h.002l.004-.014-.005.013.005.003a.37.37 0 0 1 .077.096 2.38 2.38 0 0 1 .186.414 6.91 6.91 0 0 1 .253.91c.067.321.109.636.109.872.001.171-.066.381-.18.606-.169.338-.44.708-.709 1.055s-.536.672-.704.934a.96.96 0 0 0-.095.225 6.66 6.66 0 0 0-.164.729c-.193 1.067-.398 2.834-.604 4.441l-.307 2.179c-.05.307-.1.576-.15.793a4.34 4.34 0 0 1-.073.284 1.5 1.5 0 0 1-.067.191c-.051.112-.172.288-.343.502-.301.376-.756.877-1.284 1.445l-2.585 2.83c-.42.487-.812.967-1.142 1.418s-.598.873-.771 1.247c-.52 1.132-.637 2.431-.726 3.734s-.148 2.611-.534 3.759c-.045.135-.14.338-.278.593-.258.479-.665 1.144-1.181 1.94-1.806 2.784-4.944 7.162-7.735 10.841-1.396 1.84-2.704 3.505-3.716 4.709-.506.602-.937 1.089-1.266 1.423-.164.167-.304.295-.411.379-.053.042-.099.073-.132.091a.24.24 0 0 1-.041.019l-.013.003v.001.008-.008h-.001v.008-.008-.001l-.001.028.002-.028-.002-.001-.001.028.002-.028h.001a.36.36 0 0 1-.151-.047c-.082-.046-.16-.129-.228-.246-.102-.175-.179-.423-.228-.704s-.073-.593-.073-.901c0-.351.03-.696.081-.979.026-.141.057-.267.092-.369s.074-.181.109-.225a.42.42 0 0 0 .06-.117c.027-.077.047-.173.063-.29.05-.352.068-.898.068-1.571 0-1.069-.046-2.455-.092-3.846l-.093-3.877a23.1 23.1 0 0 1 .017-.969c.029-.696.116-1.191.236-1.617.09-.319.2-.601.32-.901.18-.449.383-.938.571-1.639s.36-1.616.482-2.923c.215-2.313.422-3.695.674-4.593.126-.449.263-.776.417-1.042a3.24 3.24 0 0 1 .528-.673 2.79 2.79 0 0 1 .386-.312c.275-.19.625-.389.995-.579a24.87 24.87 0 0 1 1.613-.747l.562-.232.16-.064.057-.022h.001l.033-.013a31.47 31.47 0 0 1 1.75-.627c.422-.137.871-.269 1.283-.367s.791-.161 1.066-.161c.084 0 .158.006.219.017s.109.029.142.048a.84.84 0 0 0 .262.095 1.63 1.63 0 0 0 .314.027c.27 0 .581-.048.904-.121.484-.11.995-.278 1.421-.435s.767-.303.912-.37a.54.54 0 0 0 .067-.04 2.12 2.12 0 0 0 .167-.129c.244-.206.635-.58 1.089-1.04a45.78 45.78 0 0 0 2.175-2.365c.335-.395.633-.767.856-1.08.111-.157.204-.299.275-.424a1.25 1.25 0 0 0 .14-.327 9.49 9.49 0 0 1 .142-.531c.244-.839.729-2.352 1.179-3.723l.612-1.849.349-1.027c.097-.272.144-.589.144-.903a2.75 2.75 0 0 0-.077-.663c-.051-.207-.129-.393-.24-.539-.084-.111-.16-.28-.213-.47a2.27 2.27 0 0 1-.084-.595c0-.143.016-.278.05-.388s.084-.196.145-.249c.073-.064.13-.11.172-.136.02-.013.037-.022.047-.026l.015-.004v-.015l-.006.013.006.001v-.015l-.006.013.004-.009-.005.008.001.001.004-.009-.005.008v.001c.003.002.011.011.022.028a1.06 1.06 0 0 1 .059.12l.086.195a.49.49 0 0 0 .19.223c.079.048.168.067.256.067.136 0 .272-.043.397-.104s.241-.14.333-.221c.046-.04.081-.089.109-.14a.82.82 0 0 0 .081-.252 1.62 1.62 0 0 0 .02-.266c0-.117-.009-.228-.018-.32l-.012-.12c-.004-.033-.005-.06-.005-.072h-.067l.054.04a.07.07 0 0 0 .013-.04h-.067l.054.04-.029-.022.02.032-.02-.032.02.032c0 0 .01-.005.027-.01.026-.007.066-.013.113-.017a2.02 2.02 0 0 1 .164-.006c.149 0 .326.012.482.028a4.37 4.37 0 0 1 .214.028c.062.01.114.02.146.029l.027-.102h0z" class="B"/><path d="M62.742 54.806c-1.154 5.509-2.053 9.887-.665 13.582l.002-1.873s-.061-1.888.306-4.749c0 0 1.169-7.301 1.799-9.578.811-2.933-.542-5.227-.542-5.227s.334 2.56.117 4.576c-.173 1.601-.887 2.653-1.017 3.27m9.797-10.409s1.553 8.63-2.198 9.738-4.362-2.357-4.362-2.357.122 5.594 6.211 3.571c0 0 2.82-3.626 2.059-6.158s-.646-5.137-.646-5.137-.017.088-1.065.343" fill="#79cf60"/><path d="M62.629 83.562s-.471 2.137-.55 4.473 2.159 10.451 2.238 12.074 0 4.078 0 4.078l3.808-.673s-1.766-2.059-1.727-5.938.51-14.33.51-14.33l-4.279.317" class="E"/><path d="M62.629 83.562l-.102-.023c-.001.004-.473 2.145-.552 4.493l-.002.129a9.59 9.59 0 0 0 .094 1.176c.209 1.605.729 3.953 1.205 6.077l.637 2.892.21 1.088.093.721.035 1.773-.017 1.6-.012.507-.004.14-.002.049-.004.13 4.118-.728-.122-.141-.001-.001c-.021-.025-.447-.534-.867-1.5s-.834-2.387-.834-4.241v-.126-.001l.27-8.617.167-4.016.054-1.237.015-.339.005-.118.005-.119-4.475.331-.017.077.102.023.008.105 4.279-.317-.008-.105-.105-.005-.24 5.711-.27 8.623v.128c-.001 1.915.436 3.383.873 4.373s.875 1.502.881 1.507l.079-.069-.018-.105-3.808.673.018.104.105.003.035-2.302-.035-1.784c-.011-.209-.053-.508-.12-.883l-1.236-5.705-.619-3.091c-.162-.934-.265-1.733-.265-2.264l.002-.122c.039-1.162.176-2.276.303-3.1l.17-.987.054-.273.015-.071.005-.024-.103-.023.008.105-.008-.105" class="B"/><path d="M69.264 84.908s-1.531 3.563-.667 14.37l.202 5.384s3.056-1.464 3.056-1.464-1.139-1.544-.196-5.423 2.866-14.132 2.866-14.132l-5.261 1.267" class="E"/><path d="M69.264 84.908l-.097-.042c-.007.017-.94 2.199-.94 8.292l.264 6.129v-.001l.01.135.126 1.972.094 2.554-.027.701a.6.6 0 0 0-.004.068c0 .043.006.085.019.124a.27.27 0 0 0 .046.08.25.25 0 0 0 .11.075c.041.015.084.021.128.021.107-.001.223-.031.354-.081a5.06 5.06 0 0 0 .783-.403c.846-.512 1.789-1.251 1.79-1.253l.081-.064-.061-.083-.023.017.023-.016v-.001l-.023.017.023-.016c-.005-.008-.549-.76-.549-2.534 0-.746.096-1.673.37-2.801l1.787-8.526 1.08-5.613.03-.161-5.469 1.317-.021.048.097.042.024.103 5.261-1.266-.024-.103-.104-.02-.022.116-1.171 6.071-1.672 7.94c-.277 1.143-.376 2.087-.376 2.852-.001 1.847.578 2.645.591 2.66l.084-.063-.065-.084-.024.019-1.266.913-.879.533a3.18 3.18 0 0 1-.37.167c-.108.039-.2.059-.259.059-.023 0-.04-.003-.053-.006-.018-.006-.022-.011-.027-.019s-.013-.026-.013-.063a.32.32 0 0 1 .003-.042c.02-.173.028-.423.029-.727l-.115-2.938-.115-1.739v-.001l-.264-6.112c0-3.035.233-5.092.464-6.387l.318-1.399.104-.323.028-.076.009-.022v-.001l-.096-.042.024.103-.024-.103" class="B"/><path d="M68.361 33.525s1.282.581 2.12 2.27c0 0 .157.325.576.484s1.57.352 1.57.51-.558.739-.558.739.576 1.742.262 2.199-2.438 2.467-2.477 2.626-5.103-2.652-3.795-5.054l2.303-3.774" class="E"/><path d="M68.361 33.525l-.043.096.007-.016-.007.016.007-.016-.007.016c.003.002.317.146.731.495s.929.903 1.337 1.726l.094-.047-.095.046c.004.007.047.097.148.208s.258.243.486.329c.112.042.264.084.433.128l.758.196c.11.032.203.064.263.091.029.014.05.026.057.033l.003.002.025-.024-.031.015.031-.015-.031.015.06-.03h-.067c0 .013.004.024.007.03l.06-.03h-.067.029l-.028-.003v.003h.029l-.028-.003.011.001-.011-.002v.001l.011.001-.011-.002-.001.004c-.002.009-.013.033-.029.06-.028.049-.075.114-.128.181l-.245.288-.091.099-.026.028-.054.056.02.061.192.682c.082.337.159.739.158 1.043 0 .088-.006.167-.019.232s-.033.116-.056.148c-.034.05-.1.13-.187.227l-.609.643-1.096 1.108-.407.424-.125.143-.04.054c-.006.008-.011.017-.016.026s-.01.02-.014.037h0l.096.024-.073-.067c-.011.012-.019.028-.023.043l.096.024-.073-.067.07.065-.026-.092c-.011.003-.028.01-.044.028l.07.065-.026-.092.02.074v-.077c-.004 0-.01 0-.02.003l.02.074v-.077.041l.004-.04-.004-.001v.041l.004-.04-.001.006.001-.006-.001.006.001-.006c-.001 0-.011-.002-.024-.007a1.12 1.12 0 0 1-.119-.048 7.84 7.84 0 0 1-.922-.533c-.588-.386-1.302-.934-1.865-1.554a4.65 4.65 0 0 1-.696-.973c-.172-.334-.272-.672-.272-1.005a1.61 1.61 0 0 1 .203-.784l1.638-2.781.483-.732.129-.187.034-.047-.074-.078-.043.096.043-.096-.085-.063c-.002.003-.999 1.379-2.31 3.785a1.83 1.83 0 0 0-.229.886c0 .279.062.556.169.825.187.471.51.922.891 1.336.572.62 1.276 1.158 1.861 1.543l.756.453.254.124.09.034.038.011a.2.2 0 0 0 .043.005c.013 0 .029-.001.053-.011.012-.005.025-.014.037-.027s.022-.031.026-.048h.001l-.058-.015.054.026-.054-.026.054.026-.012-.006.012.006h0l-.012-.006.012.006a.86.86 0 0 1 .064-.083c.096-.112.278-.302.499-.527l1.116-1.129.487-.51.179-.201.121-.154a.6.6 0 0 0 .089-.227c.017-.084.024-.176.024-.274a3.61 3.61 0 0 0-.057-.581c-.102-.601-.303-1.209-.304-1.211l-.1.033.075.074.284-.315.199-.255c.028-.041.052-.08.071-.118a.39.39 0 0 0 .024-.058.21.21 0 0 0 .011-.066c0-.021-.005-.041-.012-.058-.014-.032-.034-.052-.053-.068a.53.53 0 0 0-.128-.073c-.086-.038-.198-.073-.323-.108l-.614-.157-.508-.145a1.04 1.04 0 0 1-.404-.274c-.042-.046-.071-.086-.089-.116l-.02-.033-.004-.008-.001-.002-.027.014.027-.013v-.001l-.027.014.027-.013v-.001c-.426-.859-.966-1.438-1.401-1.802s-.763-.514-.77-.517l-.077-.035-.05.069.085.063" class="B"/><path d="M69.207 35.107s-.362 2.35-.689 3.142.628 2.718 2.042 3.154l-.995 1.095s-3.625-2.534-2.499-4.975 2.142-2.416 2.142-2.416M62.35 85.805s2.32 1.249 4.292.51l.157-1.566-4.205-.545-.244 1.601m6.953-.712l-.367 1.457s1.125 1.446 4.881.14l.314-1.596h-4.829" fill="#79cf60"/><path d="M69.103 33.288s.611.105.453.721-1.238 3.765-1.797 4.575 1.308 3.677 3.925 4.891c0 0-2.212 3.906-5.843 2.375s-4.835 2.692-4.94-2.428 1.744-12.562 8.2-10.134" class="C"/><path d="M63.707 46.785s.453 1.334.597 2.667.078 3.816-1.152 5.423c0 0 .82 3.457.619 4.671 0 0-3.498 12.377-4.911 23.699 0 0 1.989.026 3.35 1.135s9.998 1.478 12.614.845 6.857-2.27 6.857-2.27-2.879-16.837-6.595-23.277l.654-6.519c.183-1.504.105-2.217.105-2.217s-1.047.211-1.23-2.058-.248-5.144-.248-5.144.091-.129-.389 0-.789.165-.75.27 1.352 8.735-1.98 10.196-4.937-.862-5.234-3.044-1.336-4.896-1.336-4.896-.04-.134-.138-.113-1.031.386-.833.632" class="G"/><path d="M63.707 46.785l-.099.034c.054.162.459 1.409.592 2.644a9.91 9.91 0 0 1 .054 1.048c0 .67-.064 1.443-.243 2.198s-.477 1.495-.941 2.101l-.03.04.012.049.007.031.347 1.683.203 1.292c.055.428.09.837.09 1.171 0 .174-.009.328-.03.452l.104.017-.101-.029c-.001.003-3.5 12.382-4.915 23.715l-.015.118.118.002h.005c.054.001.554.016 1.201.163s1.439.426 2.08.948c.127.104.301.194.514.279.375.148.876.276 1.468.387 1.772.334 4.35.51 6.617.51.851 0 1.658-.025 2.361-.076s1.304-.129 1.745-.235c1.316-.318 3.031-.886 4.42-1.375l2.45-.898.081-.031-.015-.086c-.001-.002-.72-4.212-1.906-9.23-.592-2.509-1.301-5.219-2.095-7.707s-1.672-4.753-2.608-6.374l-.09.054.105.01.02-.218.292-3.024.342-3.273c.099-.814.122-1.399.122-1.766a4.82 4.82 0 0 0-.017-.475l-.013-.114-.112.022.009.046-.008-.046h-.001l.009.046-.008-.046c-.001 0-.019.003-.05.003-.048 0-.127-.007-.22-.046-.14-.058-.315-.181-.476-.47s-.302-.743-.359-1.451a86.56 86.56 0 0 1-.192-3.418l-.043-1.235-.009-.356-.003-.128-.105.002.086.061c.003-.004.008-.012.014-.024s.012-.031.013-.058c0-.019-.005-.043-.017-.065-.009-.016-.022-.031-.036-.041-.021-.016-.043-.024-.065-.029s-.044-.007-.068-.007c-.075 0-.177.017-.342.061-.223.06-.41.1-.547.138-.069.019-.125.037-.174.062-.024.013-.047.028-.069.052-.011.012-.022.026-.029.045s-.012.039-.012.059.004.039.01.055v-.001l.068-.025-.07.018.07-.018-.07.018s.003.012.006.03c.012.066.035.219.064.438a27.16 27.16 0 0 1 .214 3.328c0 1.266-.105 2.648-.437 3.806-.166.579-.388 1.101-.678 1.525s-.648.749-1.09.943c-.715.313-1.344.447-1.892.447-.493 0-.922-.108-1.295-.296-.557-.281-.99-.742-1.305-1.294s-.511-1.191-.597-1.819c-.15-1.101-.485-2.329-.783-3.284a30.24 30.24 0 0 0-.559-1.636l-.098.038.1-.031c-.002-.006-.012-.042-.041-.086-.014-.022-.034-.046-.063-.067s-.069-.038-.115-.038a.19.19 0 0 0-.042.004l.022.104-.02-.104c-.012.002-.022.005-.034.009-.046.014-.119.041-.208.079-.133.057-.296.135-.433.226a.93.93 0 0 0-.179.147c-.025.027-.046.056-.063.089s-.028.071-.028.112a.2.2 0 0 0 .013.074c.009.024.022.047.038.066l.081-.067-.099.034.099-.034.081-.067-.004-.006h-.001c.006-.019.017-.038.038-.061.037-.04.099-.087.172-.133.11-.068.243-.132.354-.18.055-.024.105-.043.144-.058l.048-.017.019-.006h.002.001l-.003-.011.001.012h.002l-.003-.011.001.012v-.017l-.006.016.006.001v-.017l-.006.016.003-.008-.004.007.002.001.003-.008-.004.007a.09.09 0 0 1 .016.023l.008.019h0l.056-.018-.056.017v.001l.056-.018-.056.017.001.004.002.004s.004.01.012.03c.057.152.318.855.599 1.774s.582 2.055.72 3.068c.119.869.439 1.762.997 2.444.278.341.617.628 1.018.83a3.05 3.05 0 0 0 1.389.318c.583 0 1.241-.143 1.976-.465.483-.211.871-.567 1.179-1.016.462-.674.747-1.558.921-2.512s.232-1.981.232-2.939a27.33 27.33 0 0 0-.138-2.671c-.035-.349-.07-.635-.098-.838l-.036-.239c-.004-.028-.008-.051-.012-.068-.002-.009-.003-.016-.004-.022l-.002-.01-.005-.015-.053.021h.057c0-.008-.002-.016-.004-.021l-.053.021h.057-.064l.058.025c.003-.007.005-.016.005-.025h-.064l.058.025-.045-.02.037.032-.037-.032.037.032-.016-.014.015.016.002-.002-.016-.014.015.016-.002-.002.002.002-.002-.002.002.002c.001-.002.024-.015.061-.028a3 3 0 0 1 .25-.067l.38-.095c.155-.042.246-.055.287-.054.012 0 .019.001.021.001h.001l.003-.014-.005.013h.002l.003-.014-.005.013.022-.06-.049.038c.012.015.024.021.028.022l.022-.06-.049.038.064-.049h-.08c-.001.013.005.034.016.049l.064-.049h-.08.068l-.063-.028c-.002.005-.006.012-.006.028h.068l-.063-.028.063.028-.056-.04.056.04-.056-.04-.02.029.001.035c0 .001.065 2.875.249 5.149.039.485.117.862.218 1.156.151.44.356.695.555.837s.386.168.491.168c.052 0 .085-.006.09-.007l-.02-.104-.105.012v.001c.002.014.016.162.016.451 0 .359-.023.935-.121 1.74-.092.754-.255 2.384-.396 3.826l-.259 2.695-.003.034.017.03c.922 1.597 1.798 3.852 2.589 6.333 1.187 3.72 2.186 7.949 2.887 11.246l.817 4.068.215 1.174.056.313.018.108.104-.018-.038-.099-.048.019a99.98 99.98 0 0 1-2.66.97c-1.334.465-2.916.982-4.136 1.277-.422.102-1.015.18-1.711.23s-1.5.076-2.346.076c-1.718 0-3.621-.102-5.204-.297-.791-.097-1.503-.218-2.07-.359a5.99 5.99 0 0 1-.733-.227c-.202-.079-.359-.164-.459-.246-.7-.57-1.552-.857-2.229-1.004s-1.181-.154-1.185-.154l-.001.106.104.013c.706-5.655 1.933-11.577 2.984-16.084l1.356-5.49.415-1.556.113-.412.039-.141.002-.006.001-.006c.023-.141.033-.305.033-.487a10.35 10.35 0 0 0-.102-1.285 34.6 34.6 0 0 0-.551-2.942l-.102.025.084.065c.488-.637.793-1.404.978-2.18s.25-1.565.25-2.248c0-.401-.022-.765-.055-1.071-.146-1.348-.602-2.686-.603-2.689l-.006-.018-.012-.015-.081.067" class="B"/><path d="M64.442 49.628s.502 3.285.133 5.581.303 4.317 2.225 4.791 4.444.493 7.48-.07c0 0-1.393 1.06-7.48 1.337s.185 24.211 2.191 24.111c0 0-2.05-.043-4.471-.4s-2.068-.803-2.722-1.016c0 0-1.001-.706-2.82-.825l.853-5.494s1.047-6.303 1.867-9.152l1.88-7.773.282-1.082s.144-1.953-.583-4.73c0 0 1.466-1.874 1.165-5.278" fill="#2044dc" class="D"/><path d="M63.749 59.65a34.57 34.57 0 0 0 5.787.768c.058.002.107-.043.109-.102s-.043-.108-.101-.11c-1.459-.053-2.897-.243-3.969-.421l-1.291-.237-.36-.076-.094-.021-.032-.007c-.057-.013-.113.022-.126.079s.022.114.079.127m7.063.768l.393.009c.719-.001 2.32-.073 3.915-.649.055-.02.083-.08.064-.135s-.08-.084-.135-.064c-1.558.563-3.139.636-3.844.636a9.28 9.28 0 0 1-.282-.004l-.074-.003-.024-.001c-.058-.004-.108.041-.111.099s.04.109.099.112" class="E"/><path d="M62.403 113.513v-4.089s-.105-1.39.89-1.126 4.868 1.742 4.868 1.742 1.169.51 1.256 1.548c.049.587.043 3.07.028 5.12l-7.042-3.195zm-1.03-8.496s-.445-.079-.654 2.322 0 9.026 0 9.026l1.684.941v-2.207l7.029 3.154-.015 1.358 2.107 1.144v-13.847l-10.151-1.891h0z" fill="#ffbe00" class="D"/><path d="M62.403 113.513h.105v-4.093-.004-.002l-.003-.101c0-.137.015-.39.097-.594.04-.102.096-.19.168-.251a.43.43 0 0 1 .289-.099c.06 0 .129.009.208.03.242.064.671.206 1.173.381l2.407.876.914.343.267.101.097.037.037-.099-.042.097h.001c.012.005.296.133.583.38a2 2 0 0 1 .398.456c.112.181.192.387.212.624.014.166.024.505.03.947l.008 1.585-.011 2.579.105.001.043-.096-7.042-3.195-.043.096h.105-.105l-.043.097 7.189 3.262.001-.163.011-2.58-.008-1.588-.03-.962c-.024-.279-.12-.522-.249-.727-.194-.308-.461-.533-.678-.683a2.55 2.55 0 0 0-.392-.226l-.002-.001-.003-.001-2.062-.772-1.628-.587-1.188-.386c-.094-.025-.181-.037-.262-.037-.172-.001-.316.057-.423.148-.081.068-.141.153-.187.243-.069.136-.106.284-.127.42s-.025.26-.025.345l.003.118.105-.008h-.105v4.157l.062.029.043-.097zm-1.03-8.496l.022-.104c-.006-.002-.015-.003-.026-.003-.018 0-.044.004-.072.015-.05.019-.107.06-.165.137-.087.116-.182.31-.274.662s-.179.862-.243 1.605c-.07.807-.094 2.078-.094 3.417l.093 5.622.002.06 1.892 1.058v-2.224l6.88 3.087.043-.097-.105-.001-.011.983-.003.277-.002.099v.064l2.318 1.258V106.82l-10.236-1.907-.019.104.022-.104-.022.104-.019.104 10.065 1.876v13.581l-1.952-1.06-.05.093.105.002.015-1.358v-.069l-7.239-3.248v2.19l-1.528-.854-.051.093.105-.004-.004-.131-.089-5.483.092-3.398c.098-1.12.247-1.692.371-1.973.061-.14.116-.206.148-.233.016-.014.026-.019.03-.02h.002l-.006-.029v.03h.006l-.006-.029v.03-.082l-.016.079.016-.079-.016.079.001.001h.001l.019-.104h0z" class="B"/><path d="M73.045 116.601v-4.696s-.026-1.478.655-1.689l2.8-.845s.811-.264.864.37c.03.369.025 2.951.016 5.042l-4.334 1.818zm5.103-10.74c-.811.052-6.604 1.134-6.604 1.134l-.022 13.759 1.522-1.064v-1.529l4.328-2.195-.01 1.559 1.544-1.002v-9.334s.052-1.381-.759-1.328h0z" fill="#ffd235"/><path d="M73.045 116.601h.105v-4.699h0v-.001a3.94 3.94 0 0 1 .088-.823c.04-.178.1-.353.183-.49.041-.068.087-.127.139-.173a.47.47 0 0 1 .171-.099l1.655-.501.803-.241.249-.075.092-.028.002-.001h.001l-.003-.01.003.01-.003-.01.003.01c.004-.002.16-.05.323-.05a.67.67 0 0 1 .147.015c.07.016.128.045.171.09.022.023.04.05.055.086s.026.08.03.135l.011.28.012 2.011-.007 2.742.105.001-.04-.097-4.334 1.818.04.098h.105-.105l.04.097 4.399-1.845v-.07l.007-2.743-.005-1.504-.007-.512-.012-.292c-.008-.099-.033-.184-.073-.255-.059-.107-.152-.177-.249-.215a.77.77 0 0 0-.291-.051c-.208.001-.382.058-.388.06l.032.101-.03-.101-2.801.845a.67.67 0 0 0-.249.142 1.14 1.14 0 0 0-.277.419 2.86 2.86 0 0 0-.174.736 4.28 4.28 0 0 0-.029.472v.024l.105-.002h-.105v4.855l.146-.061-.04-.097zm5.103-10.74l-.007-.106c-.108.007-.287.03-.525.065l-3.666.627-2.425.445-.086.016-.022 14.049 1.732-1.212v-1.519l4.271-2.165-.047-.094h-.105l-.007 1.123-.002.321-.001.115-.002.196 1.756-1.14v-9.391h-.105l.105.004.001-.054c-.001-.127-.009-.454-.109-.763a1.08 1.08 0 0 0-.239-.424c-.058-.059-.126-.109-.205-.144a.66.66 0 0 0-.267-.054l-.053.002.008.106-.007-.106.007.106.008.105c.012-.001.024-.001.037-.001.071 0 .131.013.183.036.091.04.164.112.224.208.089.143.143.339.171.517s.033.338.033.413l-.001.035v9.291l-1.496.972.057.089.105.001.01-1.56.001-.173-4.539 2.302v1.539l-1.311.917.022-13.555h-.105l.019.104c.001 0 .09-.017.251-.047l3.329-.605 1.887-.323.702-.109.423-.051h.001l-.008-.105h0z" class="B"/><path d="M64.514 103.467s-3.219 1.1-3.141 1.549 8.427 3.906 10.259 3.299 7.04-1.776 7.066-2.195-2.853-1.658-3.062-1.685-11.123-.969-11.123-.969" fill="#ffd235"/><path d="M64.514 103.467l-.034-.1a29.66 29.66 0 0 0-1.577.597l-1.091.511a2.37 2.37 0 0 0-.373.247c-.048.041-.087.081-.118.125-.015.022-.028.046-.038.071s-.016.053-.016.083c0 .011.001.023.003.035v-.001c.005.024.013.041.022.057.018.03.04.052.066.076.05.046.118.094.206.149.165.103.398.228.688.369 1.012.496 2.708 1.195 4.405 1.772l2.46.733c.764.186 1.442.301 1.958.301a1.93 1.93 0 0 0 .592-.076l1.868-.538 3.43-.937 1.268-.415c.159-.063.288-.121.383-.177.048-.029.087-.056.12-.088.016-.016.031-.033.044-.055s.023-.048.025-.078v-.001-.012c0-.028-.006-.055-.015-.078-.017-.047-.045-.086-.079-.127-.064-.074-.153-.148-.264-.227-.193-.138-.451-.288-.733-.437l-1.289-.617-.499-.207-.167-.061-.059-.019-.05-.011-.053-.005-5.849-.511-5.225-.452-.022-.002-.021.007.034.1-.009.105.122.011 5.876.509 3.491.304 1.153.102.337.03.097.009.043.004v-.002.002-.002.002l.06.018.269.102a19.47 19.47 0 0 1 1.65.766c.285.15.544.302.727.433a1.47 1.47 0 0 1 .21.175c.023.024.038.046.046.061l.008.02h0l.007-.001h-.007v.001l.007-.001h-.007.001-.001.001-.001v-.001l.044.003-.04-.017.04.017-.04-.017.014.006-.014-.008-.001.002.014.006-.014-.008-.004.005a.41.41 0 0 1-.098.07c-.099.057-.26.127-.463.201l-1.405.443-2.732.743-2.296.654h.001c-.131.043-.311.066-.527.066a6.41 6.41 0 0 1-1.13-.126c-1.522-.283-3.641-1.002-5.383-1.694l-2.21-.96-.663-.354a1.52 1.52 0 0 1-.174-.121c-.019-.015-.032-.029-.037-.036l-.003-.004h-.001l-.037.022.041-.007-.041.007.041-.007h0l-.014.003h.015v-.003l-.014.003h.015-.002.002-.002.002c-.001-.001.004-.016.022-.04.034-.045.11-.111.216-.181.185-.122.457-.262.759-.399l1.377-.562.501-.182.144-.051.051-.018-.034-.1-.009.105.009-.105" class="B"/><path d="M64.278 101.535s.005 1.495 2.57 0c0 0 .279-.298.453.089s2.739 1.319 3.873 1.196 1.151 1.566.645 2.058-7.729.721-7.886.264-.166-4.347.344-3.608" class="C"/><path d="M64.278 101.535h-.105c0 .005.001.053.014.124.021.105.071.266.203.404a.74.74 0 0 0 .26.173c.108.044.238.069.392.069.411-.001.995-.176 1.859-.678l.013-.008.011-.011-.041-.039.04.039h.001l-.041-.039.04.039.004-.003c.008-.008.032-.029.06-.046s.06-.028.083-.028.033.004.055.02.051.051.08.116c.018.04.045.073.076.105a1.26 1.26 0 0 0 .24.177c.175.106.411.219.685.33.41.167.903.331 1.39.454s.966.204 1.355.205c.082 0 .16-.004.234-.012.036-.004.071-.006.104-.006.135.001.244.031.336.082a.73.73 0 0 1 .307.368c.068.162.101.356.101.551.001.18-.028.361-.079.517s-.124.286-.207.366a.23.23 0 0 1-.06.037 1.6 1.6 0 0 1-.294.091 8.68 8.68 0 0 1-.917.146c-1.118.13-2.742.208-4.089.208-.663 0-1.259-.019-1.693-.059-.217-.02-.394-.045-.514-.074-.06-.015-.106-.03-.132-.043-.013-.006-.02-.012-.022-.014h-.001l-.013.014.015-.011-.002-.003-.013.014.015-.011-.038.027.044-.015-.044.015.044-.015c-.005-.013-.011-.038-.017-.068a4.72 4.72 0 0 1-.052-.547l-.02-.827.071-1.488c.025-.209.057-.386.094-.502a.46.46 0 0 1 .053-.119l.012-.013-.004-.005.003.006h.001l-.004-.005.003.006-.015-.028v.031-.031.031-.026l-.009.025.009-.025-.009.025.002-.006-.003.006h.001l.002-.006-.003.006.003.002c.007.005.023.02.042.048l.086-.061h-.105.105l.086-.06c-.026-.038-.053-.069-.086-.095s-.074-.044-.121-.044a.18.18 0 0 0-.1.031c-.026.017-.046.039-.063.061a.58.58 0 0 0-.075.152 2.25 2.25 0 0 0-.087.382c-.07.452-.098 1.102-.098 1.704l.026.94.03.345.02.128a.66.66 0 0 0 .024.097c.012.034.032.058.053.076.039.034.084.054.137.073a2.02 2.02 0 0 0 .368.078c.455.064 1.174.091 1.995.092l3.431-.141 1.347-.163.451-.102c.06-.019.113-.038.159-.059a.43.43 0 0 0 .118-.076c.117-.114.202-.273.261-.452s.089-.38.089-.583c0-.291-.064-.587-.216-.819-.076-.116-.175-.216-.299-.285s-.272-.109-.438-.109a1.03 1.03 0 0 0-.126.007h.001c-.065.007-.137.011-.212.011-.292 0-.656-.051-1.038-.135-.573-.126-1.185-.324-1.666-.523-.241-.1-.448-.199-.6-.289-.076-.045-.137-.087-.18-.123-.022-.018-.039-.034-.05-.048s-.018-.024-.02-.028c-.039-.087-.087-.152-.144-.197s-.123-.065-.183-.064a.34.34 0 0 0-.123.024.48.48 0 0 0-.126.074c-.03.023-.048.042-.05.045l.077.073-.053-.092c-.846.494-1.403.651-1.753.65-.175 0-.298-.038-.388-.09a.51.51 0 0 1-.154-.138.61.61 0 0 1-.101-.226.6.6 0 0 1-.013-.079l-.002-.021v-.005-.001l-.047.001h.047v-.001l-.047.001h.047v-.033l-.019-.027-.086.06" class="B"/><path d="M68.766 102.026s.005 1.495 2.569 0c0 0 .28-.298.454.089s2.739 1.319 3.873 1.196 1.152 1.566.646 2.058-7.729.721-7.886.264-.167-4.347.344-3.608" class="C"/><path d="M68.766 102.026h-.105c0 .005.001.053.014.124a.8.8 0 0 0 .203.403c.065.069.151.13.26.174s.238.069.392.069c.411-.001.995-.176 1.858-.678l.014-.008.011-.011-.043-.041.043.041h.001l-.043-.041.043.041.004-.003c.008-.008.032-.029.06-.046s.059-.028.083-.028c.018.001.033.004.055.02s.051.051.08.116a.37.37 0 0 0 .076.105c.059.059.14.117.24.177a5.22 5.22 0 0 0 .685.33c.41.167.903.331 1.39.454s.966.204 1.355.204a2.19 2.19 0 0 0 .234-.012h.001l.104-.006c.135.001.244.031.336.082a.73.73 0 0 1 .306.367c.068.162.101.357.101.552 0 .18-.028.361-.079.517s-.124.285-.207.366a.24.24 0 0 1-.06.037c-.062.029-.164.061-.294.091-.228.054-.545.103-.917.146-1.119.13-2.743.208-4.09.208-.663 0-1.259-.019-1.693-.059-.216-.02-.394-.045-.513-.074-.06-.015-.106-.03-.132-.043-.013-.006-.02-.012-.022-.014v-.001l-.013.014.015-.011-.002-.003-.013.014.015-.011-.039.027.045-.016-.045.016.045-.016c-.005-.013-.011-.037-.017-.068-.021-.11-.04-.306-.053-.547l-.02-.827.071-1.489c.024-.209.057-.386.094-.501.018-.058.038-.1.053-.119l.011-.013-.004-.005.003.005h.001l-.004-.005.003.005-.015-.028v.031-.031.031-.027l-.01.025.01-.025-.01.025.002-.006-.003.006h.001l.002-.006-.003.006.004.002c.007.005.023.02.042.048l.086-.061h-.105.105l.086-.06c-.026-.038-.053-.069-.086-.095s-.074-.044-.121-.044c-.037 0-.073.013-.1.031s-.046.039-.063.061a.57.57 0 0 0-.075.151 2.25 2.25 0 0 0-.087.382c-.07.452-.099 1.102-.099 1.704l.026.94.03.345.019.128c.007.037.015.069.025.097.012.034.032.058.053.076.039.034.084.054.137.073.093.032.215.057.368.078.454.063 1.174.091 1.995.092l3.431-.141 1.347-.163.452-.102c.06-.019.113-.038.159-.059s.084-.044.118-.076a1.11 1.11 0 0 0 .261-.452c.058-.18.089-.38.089-.583-.001-.291-.064-.587-.216-.819-.076-.116-.175-.215-.3-.285a.88.88 0 0 0-.438-.109 1.15 1.15 0 0 0-.126.007 2.03 2.03 0 0 1-.212.01c-.292.001-.656-.051-1.038-.135-.572-.126-1.185-.323-1.666-.522a4.97 4.97 0 0 1-.6-.289 1.43 1.43 0 0 1-.181-.123c-.022-.018-.038-.034-.05-.048s-.018-.024-.019-.028c-.039-.087-.087-.152-.144-.197s-.123-.065-.183-.064c-.046 0-.088.011-.123.024-.054.021-.095.05-.126.073s-.047.043-.05.046l.076.073-.053-.092c-.846.494-1.403.651-1.753.65-.175 0-.298-.038-.388-.09-.067-.039-.116-.087-.154-.138-.057-.076-.087-.161-.101-.227a.7.7 0 0 1-.013-.079l-.002-.021v-.005l-.047.001h.047v-.001l-.047.001h.047v-.033l-.019-.027-.086.06" class="B"/><g class="E"><path d="M65.859 33.443l.004-.001c.047-.016.46-.148 1.023-.148.627.001 1.437.162 2.145.824.022.02.055.019.075-.003s.018-.055-.003-.075c-.733-.685-1.573-.852-2.217-.852-.618 0-1.058.154-1.061.155-.028.01-.042.04-.033.068s.039.042.067.032"/><path d="M66.287 33.818h.004c.046.004.471.05.931.283a2.32 2.32 0 0 1 .675.504 2.11 2.11 0 0 1 .482.889c.008.029.037.045.065.038s.045-.037.037-.065a2.22 2.22 0 0 0-.527-.956c-.339-.361-.753-.56-1.082-.669s-.574-.129-.576-.129c-.029-.003-.055.019-.057.048s.019.055.048.057m.844 4.961c0 .005.023.783.495 1.79s1.398 2.245 3.197 3.162c.026.013.058.003.071-.023s.003-.058-.023-.071c-1.779-.907-2.685-2.124-3.15-3.113a5.53 5.53 0 0 1-.417-1.247l-.058-.369-.009-.099-.001-.025c-.002-.037-.026-.06-.055-.059s-.051.025-.051.055m.766 3.604a4.92 4.92 0 0 0 .562.821c.37.445.919.961 1.638 1.243.027.011.057-.003.068-.03s-.003-.058-.03-.069c-.695-.272-1.232-.776-1.595-1.212a5.28 5.28 0 0 1-.411-.565l-.104-.174-.026-.047-.008-.016c-.013-.026-.045-.036-.07-.023s-.036.046-.023.072m-3.618-2.883c0 .002-.12.759-.12 1.795.001 1.185.156 2.736.833 3.946.014.025.046.034.071.02s.034-.047.02-.073c-.663-1.182-.82-2.719-.82-3.894l.059-1.275.041-.37.014-.099.005-.033c.004-.029-.015-.056-.044-.061s-.056.015-.06.044m-1.269 1.961c0 .001-.098.743-.098 1.617.001.665.056 1.405.257 1.958.01.027.04.041.068.031s.041-.041.031-.068c-.194-.53-.251-1.263-.251-1.921l.048-1.126.034-.348.011-.095.004-.033c.004-.029-.016-.056-.045-.059s-.055.016-.059.046"/></g><path d="M70.195 36.299c.07.122.054.263-.036.316s-.219-.005-.289-.127-.054-.263.036-.315.219.004.289.126m-.968-.042a1.7 1.7 0 0 1 .079-.471c.039-.118.097-.235.179-.325a.53.53 0 0 1 .333-.175c.043-.006.073-.046.067-.09s-.045-.074-.088-.068a.69.69 0 0 0-.428.225c-.154.17-.226.393-.263.574s-.037.322-.037.33c0 .044.035.079.079.079s.079-.035.079-.079m2.55 2.062l.037.025-.037-.025h-.001l.037.025-.037-.025-.003.003c-.012.017-.074.095-.203.181s-.327.178-.614.221c-.043.006-.073.047-.066.091a.08.08 0 0 0 .09.067c.335-.051.565-.166.712-.27a.86.86 0 0 0 .214-.204.08.08 0 0 0-.022-.11c-.036-.024-.085-.015-.109.022" class="B"/></g><defs ><path id="B" d="M67.815 25.997h8.869c.307 0 .555-.268.555-.599s-.248-.599-.555-.599h-8.869c-.307 0-.555.268-.555.599s.248.599.555.599"/><path id="C" d="M41.168 29.047h6.744c.306 0 .555-.268.555-.599s-.249-.599-.555-.599h-6.744c-.306 0-.555.268-.555.599s.249.599.555.599"/><path id="D" d="M50.834 29.047h25.849c.307 0 .555-.268.555-.599s-.248-.599-.555-.599H50.834c-.306 0-.555.268-.555.599s.249.599.555.599"/><path id="E" d="M41.168 32.098h35.516c.307 0 .555-.268.555-.599s-.248-.599-.555-.599H41.168c-.306 0-.555.268-.555.599s.249.599.555.599"/><path id="F" d="M41.168 35.149h11.289c.306 0 .555-.268.555-.599s-.249-.599-.555-.599H41.168c-.306 0-.555.268-.555.599s.249.599.555.599"/><path id="G" d="M55.267 35.149h21.417c.307 0 .555-.268.555-.599s-.248-.599-.555-.599H55.267c-.306 0-.555.268-.555.599s.249.599.555.599"/><path id="H" d="M41.168 25.997h23.737c.306 0 .555-.268.555-.599s-.249-.599-.555-.599H41.168c-.306 0-.555.268-.555.599s.249.599.555.599"/><path id="I" d="M79.96 33.249v.106h8.478c.119 0 .215-.097.215-.217v-8.549c0-.12-.097-.217-.215-.217H79.96c-.119 0-.215.097-.216.217v8.549c.001.12.097.217.216.217v-.212l-.006-.005v-8.549l.006-.005h8.478l.005.005v8.549l-.005.005H79.96v.106"/></defs></svg>