<?xml version="1.0" encoding="UTF-8"?>
<svg width="216px" height="78px" viewBox="0 0 216 78" version="1.1" xmlns="http://www.w3.org/2000/svg" xmlns:xlink="http://www.w3.org/1999/xlink">
    <!-- Generator: Sketch 62 (91390) - https://sketch.com -->
    <title>6. logos/pix-certif--ok</title>
    <desc>Created with Sketch.</desc>
    <defs>
        <linearGradient x1="41.0562084%" y1="0%" x2="58.9437916%" y2="100%" id="linearGradient-1">
            <stop stop-color="#12A3FF" offset="0%"></stop>
            <stop stop-color="#3D68FF" offset="100%"></stop>
        </linearGradient>
        <linearGradient x1="65.8484566%" y1="100%" x2="34.1515434%" y2="11.2420743%" id="linearGradient-2">
            <stop stop-color="#1A8C89" offset="0%"></stop>
            <stop stop-color="#52D987" offset="100%"></stop>
        </linearGradient>
        <linearGradient x1="28.9689343%" y1="0%" x2="71.0310657%" y2="100%" id="linearGradient-3">
            <stop stop-color="#12A3FF" offset="0%"></stop>
            <stop stop-color="#3D68FF" offset="100%"></stop>
        </linearGradient>
        <linearGradient x1="48.4100116%" y1="0%" x2="51.5899884%" y2="100%" id="linearGradient-4">
            <stop stop-color="#12A3FF" offset="0%"></stop>
            <stop stop-color="#3D68FF" offset="100%"></stop>
        </linearGradient>
        <linearGradient x1="100%" y1="57.5034494%" x2="0%" y2="42.4965506%" id="linearGradient-5">
            <stop stop-color="#20BF55" offset="0%"></stop>
            <stop stop-color="#3CE373" offset="100%"></stop>
        </linearGradient>
        <linearGradient x1="93.2851057%" y1="56.365056%" x2="-2.91693857%" y2="42.4720496%" id="linearGradient-6">
            <stop stop-color="#1A8C89" offset="0%"></stop>
            <stop stop-color="#52D987" offset="100%"></stop>
            <stop stop-color="#52D987" offset="100%"></stop>
        </linearGradient>
    </defs>
    <g id="6.-logos/pix-certif--ok" stroke="none" stroke-width="1" fill="none" fill-rule="evenodd">
        <g id="Group-7" transform="translate(-0.000000, 0.000000)">
            <g id="logos--pix/couleur-copy-9">
                <g id="Group" transform="translate(64.222222, 18.545455)">
                    <path d="M26.0242586,24.4433576 L37.9316377,38.9821606 C40.0928699,41.7515039 39.9898234,42.2644127 36.3879222,42.2644127 L36.3879222,42.2644127 L35.1528888,42.2644127 C31.5509876,42.2644127 30.2130602,41.5464011 28.051828,38.9821606 L28.051828,38.9821606 L21.4924051,31.0228845 L23.0567435,29.1252882 C24.4487552,27.5201334 25.4379269,25.9701302 26.0242586,24.4433576 Z M36.5998475,0.00551394994 C39.9930396,0.0263034397 40.0496453,0.573180249 37.9316377,3.28713666 L37.9316377,3.28713666 L26.0243949,17.8262948 C25.438079,16.2994042 24.448859,14.7492819 23.0567348,13.143999 L21.4924051,11.2458845 L28.051828,3.28713666 C30.1475683,0.800600418 31.4691451,0.0500957119 34.8315942,0.00689389892 L35.1528888,0.00488451109 Z" id="Combined-Shape" fill="url(#linearGradient-1)"></path>
                    <path d="M21.1442399,42.2644127 C24.7461411,42.2644127 24.8491876,41.7515039 22.6879554,38.9821606 L10.3382314,23.9040679 C9.41203253,22.7758507 8.89740989,21.8525843 8.89740989,21.1345727 C8.89740989,20.3140096 9.41203253,19.3908952 10.3382314,18.3652294 L22.6879554,3.28713666 C24.8491876,0.517793383 24.7461411,0.00488451109 21.1442399,0.00488451109 L19.9092065,0.00488451109 C16.3073053,0.00488451109 14.9693779,0.722896161 12.8081457,3.28713666 L3.34006454,14.7751711 C-0.673717732,19.3908952 -0.673717732,22.8784021 3.34006454,27.4941261 L12.8081457,38.9821606 C14.9693779,41.5464011 16.3073053,42.2644127 19.9092065,42.2644127 L21.1442399,42.2644127 Z" id="Page-1" fill="url(#linearGradient-2)" fill-rule="nonzero" transform="translate(12.225788, 21.134649) scale(-1, 1) translate(-12.225788, -21.134649) "></path>
                </g>
                <path d="M0.585858586,73.9593943 C0.585858586,77.0218127 1.3540213,77.7874173 4.42667215,77.7874173 L5.45079069,77.7874173 C8.52344154,77.7874173 9.29160425,77.0218127 9.29160425,73.9593943 L9.29160425,56.1805665 C11.5960924,59.8383734 15.778328,61.7098677 21.8381635,61.7098677 C33.7018786,61.7098677 39.5910768,55.4999964 39.5910768,43.1654353 L39.5910768,35.7646398 C39.5910768,23.4299316 33.2751379,17.645527 20.0457346,17.645527 C7.75527882,17.645527 0.585858586,23.6001477 0.585858586,35.7646398 L0.585858586,73.9593943 Z M30.8000126,43.3355043 C30.8000126,50.4810492 28.4102058,53.4584331 20.1312008,53.4584331 C11.681411,53.4584331 9.29160425,50.3960147 9.29160425,43.3355043 L9.29160425,36.0197433 C9.29160425,28.8741984 11.8521958,25.8117799 20.1312008,25.8117799 C28.580843,25.8117799 30.8000126,28.8741984 30.8000126,36.0197433 L30.8000126,43.3355043 Z" id="Fill-1" fill="url(#linearGradient-3)"></path>
                <path d="M47.8008794,56.8796182 C47.8008794,59.9420366 48.5690421,60.7076412 51.641693,60.7076412 L52.7511301,60.7076412 C55.823781,60.7076412 56.5919437,59.9420366 56.5919437,56.8796182 L56.5919437,22.3426706 C56.5919437,19.2802522 55.823781,18.5146476 52.7511301,18.5146476 L51.641693,18.5146476 C48.5690421,18.5146476 47.8008794,19.2802522 47.8008794,22.3426706 L47.8008794,56.8796182 Z M48.3982573,9.32753945 C50.5321082,11.3691027 53.9460335,11.3691027 55.9945658,9.32753945 C58.1282691,7.2007946 58.1282691,3.79823823 55.9945658,1.75667499 C53.9460335,-0.370069858 50.5321082,-0.370069858 48.3982573,1.75667499 C46.264554,3.79823823 46.264554,7.2007946 48.3982573,9.32753945 L48.3982573,9.32753945 Z" id="Fill-2" fill="url(#linearGradient-4)"></path>
            </g>
            <g id="cartouche-copy-3" transform="translate(105.000000, 17.765625)" fill="url(#linearGradient-6)" fill-rule="nonzero">
                <path d="M19.6582785,43 C16.0399355,43 14.6974408,42.2678701 12.5277135,39.6594142 L12.5277135,39.6594142 L3.02157212,27.9673638 C-1.00719071,23.2752531 -1.00719071,19.7260427 3.02157212,15.0287488 L3.02157212,15.0287488 L12.5277135,3.33799421 C14.6974408,0.730834137 16.0399355,0 19.6582785,0 L19.6582785,0 L91.1609397,0 C94.7792827,0 96.1217775,0.730834137 98.2915047,3.33799421 L107.797646,15.0287488 C111.826409,19.7260427 111.826409,23.2752531 107.797646,27.9673638 L98.2915047,39.6594142 C96.1217775,42.2678701 94.7792827,43 91.1609397,43 Z" id="Combined-Shape"></path>
            </g>
            <path d="M127.26,37.465625 C127.26,34.801625 128.388,33.577625 131.076,33.577625 C132.228,33.577625 133.26,33.769625 134.172,34.129625 C134.964,34.417625 135.156,34.201625 135.156,33.337625 L135.156,32.977625 C135.156,32.209625 135.012,32.089625 134.148,31.729625 C133.332,31.393625 132.324,31.225625 131.124,31.225625 C126.828,31.225625 124.668,33.313625 124.668,37.465625 L124.668,41.305625 C124.668,45.457625 126.804,47.305625 131.124,47.305625 C132.372,47.305625 133.404,47.137625 134.244,46.825625 C134.94,46.561625 135.228,46.321625 135.228,45.577625 L135.228,45.217625 C135.228,44.497625 134.827219,44.2416875 134.361838,44.3904863 L134.268,44.425625 C133.476,44.761625 132.444,44.929625 131.172,44.929625 C128.268,44.929625 127.26,43.633625 127.26,41.305625 L127.26,37.465625 Z M146.412,40.177625 C147.276,40.177625 147.492,39.961625 147.492,39.097625 L147.492,38.881625 C147.492,38.017625 147.276,37.801625 146.412,37.801625 L140.364,37.801625 L140.364,34.729625 C140.364,34.129625 140.676,33.817625 141.3,33.817625 L147.372,33.817625 C148.188,33.817625 148.426,33.6249583 148.449926,32.8756991 L148.452,32.521625 C148.452,31.657625 148.236,31.441625 147.372,31.441625 L140.58,31.441625 C138.66,31.441625 137.844,32.257625 137.844,34.177625 L137.844,44.305625 C137.844,46.225625 138.66,47.041625 140.58,47.041625 L147.372,47.041625 C148.188,47.041625 148.426,46.8489583 148.449926,46.0996991 L148.452,45.745625 C148.452,44.881625 148.236,44.665625 147.372,44.665625 L141.3,44.665625 C140.676,44.665625 140.364,44.353625 140.364,43.753625 L140.364,40.177625 L146.412,40.177625 Z M163.044,36.265625 C163.044,33.121625 161.58,31.441625 157.86,31.441625 L154.068,31.441625 C152.148,31.441625 151.332,32.257625 151.332,34.177625 L151.332,45.937625 C151.332,46.825625 151.548,47.041625 152.436,47.041625 L152.748,47.041625 C153.636,47.041625 153.852,46.825625 153.852,45.937625 L153.852,41.065625 L156.948,41.065625 L160.092,45.985625 C160.644,46.825625 161.028,47.041625 162.012,47.041625 L162.42,47.041625 L162.667645,47.0359631 C163.42443,46.9971952 163.497818,46.7492614 162.996,45.985625 L159.684,40.873625 C162.084,40.369625 163.044,38.833625 163.044,36.265625 Z M157.86,33.817625 C159.876,33.817625 160.524,34.561625 160.524,36.265625 C160.524,37.897625 159.876,38.689625 157.86,38.689625 L153.852,38.689625 L153.852,34.729625 C153.852,34.129625 154.164,33.817625 154.788,33.817625 L157.86,33.817625 Z M165.084,32.737625 C165.084,33.601625 165.3,33.817625 166.164,33.817625 L169.908,33.817625 L169.908,45.937625 C169.908,46.825625 170.124,47.041625 171.012,47.041625 L171.348,47.041625 C172.236,47.041625 172.452,46.825625 172.452,45.937625 L172.452,33.817625 L176.172,33.817625 C177.036,33.817625 177.252,33.601625 177.252,32.737625 L177.252,32.521625 C177.252,31.657625 177.036,31.441625 176.172,31.441625 L166.164,31.441625 C165.348,31.441625 165.11,31.6342917 165.086074,32.3835509 L165.084,32.737625 Z M179.868,45.937625 C179.868,46.825625 180.084,47.041625 180.972,47.041625 L181.284,47.041625 C182.172,47.041625 182.388,46.825625 182.388,45.937625 L182.388,32.545625 C182.388,31.7069583 182.195333,31.4676991 181.425856,31.4437032 L180.972,31.441625 C180.084,31.441625 179.868,31.657625 179.868,32.545625 L179.868,45.937625 Z M194.292,40.345625 L188.58,40.345625 L188.58,45.937625 C188.58,46.825625 188.364,47.041625 187.476,47.041625 L187.164,47.041625 C186.276,47.041625 186.06,46.825625 186.06,45.937625 L186.06,34.177625 C186.06,32.257625 186.876,31.441625 188.796,31.441625 L195.252,31.441625 C196.116,31.441625 196.332,31.657625 196.332,32.521625 L196.332,32.737625 C196.332,33.601625 196.116,33.817625 195.252,33.817625 L189.516,33.817625 C188.892,33.817625 188.58,34.129625 188.58,34.729625 L188.58,37.969625 L194.292,37.969625 C195.156,37.969625 195.372,38.185625 195.372,39.049625 L195.372,39.265625 C195.372,40.129625 195.156,40.345625 194.292,40.345625 Z" id="CERTIF" fill="#FFFFFF" fill-rule="nonzero"></path>
        </g>
    </g>
</svg>