<?xml version="1.0" encoding="UTF-8"?>
<svg width="143px" height="55px" viewBox="0 0 143 55" version="1.1" xmlns="http://www.w3.org/2000/svg" xmlns:xlink="http://www.w3.org/1999/xlink">
    <defs>
        <linearGradient x1="50%" y1="2.35473769%" x2="50%" y2="100%" id="linearGradient-1">
            <stop stop-color="#12A3FF" offset="0%"></stop>
            <stop stop-color="#3D68FF" offset="100%"></stop>
        </linearGradient>
        <linearGradient x1="68.6429521%" y1="0%" x2="68.6429501%" y2="100%" id="linearGradient-2">
            <stop stop-color="#FFBE00" offset="0%"></stop>
            <stop stop-color="#FF9F00" offset="100%"></stop>
        </linearGradient>
    </defs>
    <g id="Elements" stroke="none" stroke-width="1" fill="none" fill-rule="evenodd">
        <g id="Logos" transform="translate(-874.000000, -86.000000)">
            <g id="logo-certif" transform="translate(868.738281, 78.625000)">
                <g id="logos--pix/couleur" transform="translate(0.000000, 0.000000)">
                    <g id="Group-2" transform="translate(5.890700, 7.569035)">
                        <g id="Group" transform="translate(43.660486, 13.025782)">
                            <path d="M24.9655112,29.4606355 C27.4367517,29.4606355 27.5074512,29.1031096 26.0246442,27.172724 L17.5515807,16.6624587 C16.9161218,15.8760288 16.5630427,15.2324611 16.5630427,14.7319672 C16.5630427,14.1599893 16.9161218,13.5165275 17.5515807,12.8015816 L26.0246442,2.29131624 C27.5074512,0.360930654 27.4367517,0.00340477465 24.9655112,0.00340477465 L24.1181631,0.00340477465 C21.6469226,0.00340477465 20.7289795,0.503898645 19.2461725,2.29131624 L12.750185,10.2991123 C9.99635571,13.5165275 9.99635571,15.9475128 12.750185,19.164928 L19.2461725,27.172724 C20.7289795,28.9601416 21.6469226,29.4606355 24.1181631,29.4606355 L24.9655112,29.4606355 Z" id="Page-1" fill="url(#linearGradient-1)"></path>
                            <path d="M14.5069223,29.4606355 C16.9781627,29.4606355 17.0488622,29.1031096 15.5660552,27.172724 L7.09299172,16.6624587 C6.45753288,15.8760288 6.1044537,15.2324611 6.1044537,14.7319672 C6.1044537,14.1599893 6.45753288,13.5165275 7.09299172,12.8015816 L15.5660552,2.29131624 C17.0488622,0.360930654 16.9781627,0.00340477465 14.5069223,0.00340477465 L13.6595741,0.00340477465 C11.1883336,0.00340477465 10.2703905,0.503898645 8.7875835,2.29131624 L2.29159605,10.2991123 C-0.462233252,13.5165275 -0.462233252,15.9475128 2.29159605,19.164928 L8.7875835,27.172724 C10.2703905,28.9601416 11.1883336,29.4606355 13.6595741,29.4606355 L14.5069223,29.4606355 Z" id="Page-1" fill="url(#linearGradient-2)" transform="translate(8.388031, 14.732020) scale(-1, 1) translate(-8.388031, -14.732020) "></path>
                        </g>
                        <path d="M0,51.6523658 C0,53.787041 0.527031324,54.3207098 2.63515662,54.3207098 L3.33779753,54.3207098 C5.44592283,54.3207098 5.97295415,53.787041 5.97295415,51.6523658 L5.97295415,39.2595386 C7.55404813,41.8092325 10.4234521,43.1137676 14.5810649,43.1137676 C22.7206809,43.1137676 26.7612206,38.7851435 26.7612206,30.1872716 L26.7612206,25.0285074 C26.7612206,16.430533 22.427897,12.3984827 13.3512914,12.3984827 C4.91889151,12.3984827 0,16.549183 0,25.0285074 L0,51.6523658 Z M20.7297299,30.3058191 C20.7297299,35.2866595 19.0900994,37.3620609 13.4099292,37.3620609 C7.61258466,37.3620609 5.97295415,35.2273857 5.97295415,30.3058191 L5.97295415,25.2063287 C5.97295415,20.2254883 7.72975899,18.0908131 13.4099292,18.0908131 C19.2071725,18.0908131 20.7297299,20.2254883 20.7297299,25.2063287 L20.7297299,30.3058191 Z" id="Fill-1" fill="url(#linearGradient-1)"></path>
                        <path d="M32.3939115,39.7468163 C32.3939115,41.8814915 32.9209428,42.4151603 35.0290681,42.4151603 L35.7902456,42.4151603 C37.8983709,42.4151603 38.4254022,41.8814915 38.4254022,39.7468163 L38.4254022,15.6726519 C38.4254022,13.5379767 37.8983709,13.0043079 35.7902456,13.0043079 L35.0290681,13.0043079 C32.9209428,13.0043079 32.3939115,13.5379767 32.3939115,15.6726519 L32.3939115,39.7468163 Z M32.8037685,6.60038487 C34.2677894,8.02346748 36.6100608,8.02346748 38.0155452,6.60038487 C39.4794648,5.11792597 39.4794648,2.74615581 38.0155452,1.32307321 C36.6100608,-0.159385693 34.2677894,-0.159385693 32.8037685,1.32307321 C31.3398489,2.74615581 31.3398489,5.11792597 32.8037685,6.60038487 L32.8037685,6.60038487 Z" id="Fill-2" fill="url(#linearGradient-1)"></path>
                    </g>
                </g>
                <path d="M85.1853403,32.4091588 L85.1853403,35.7833334 C85.1853403,37.8289267 86.0710611,38.9677107 88.6227807,38.9677107 C89.740476,38.9677107 90.6472855,38.8200905 91.343209,38.5248503 C91.7860694,38.3350529 92.1867526,38.5459389 92.1867526,39.2207738 L92.1867526,39.5371026 C92.1867526,40.190849 91.9336895,40.4017349 91.3221204,40.6337094 C90.5840197,40.9078611 89.6772103,41.0554812 88.5806035,41.0554812 C84.7846571,41.0554812 82.9077724,39.4316597 82.9077724,35.7833334 L82.9077724,32.4091588 C82.9077724,28.7608325 84.8057456,26.926125 88.5806035,26.926125 C89.6350331,26.926125 90.5207539,27.0737451 91.237766,27.3689854 C91.9969553,27.6853143 92.1234869,27.7907572 92.1234869,28.4655922 L92.1234869,28.781921 C92.1234869,29.5411103 91.9547781,29.7309077 91.2588546,29.4778446 C90.4574881,29.1615157 89.5506787,28.992807 88.5384263,28.992807 C86.1765041,28.992807 85.1853403,30.0683251 85.1853403,32.4091588 Z M102.419586,34.7921696 L97.105261,34.7921696 L97.105261,37.9343697 C97.105261,38.4615845 97.3794127,38.7357362 97.9277161,38.7357362 L103.26313,38.7357362 C104.022319,38.7357362 104.212116,38.9255335 104.212116,39.6847228 L104.212116,39.8745201 C104.212116,40.6337094 104.022319,40.8235067 103.26313,40.8235067 L97.2950583,40.8235067 C95.607971,40.8235067 94.8909589,40.1064946 94.8909589,38.4194073 L94.8909589,29.5200217 C94.8909589,27.8329344 95.607971,27.1159223 97.2950583,27.1159223 L103.26313,27.1159223 C104.022319,27.1159223 104.212116,27.3057196 104.212116,28.0649089 L104.212116,28.2547063 C104.212116,29.0138955 104.022319,29.2036929 103.26313,29.2036929 L97.9277161,29.2036929 C97.3794127,29.2036929 97.105261,29.4778446 97.105261,30.0050593 L97.105261,32.704399 L102.419586,32.704399 C103.178775,32.704399 103.368573,32.8941964 103.368573,33.6533857 L103.368573,33.843183 C103.368573,34.6023723 103.178775,34.7921696 102.419586,34.7921696 Z M117.43953,31.3547292 C117.43953,33.6112085 116.595986,34.9608783 114.487127,35.4037387 L117.397352,39.8956087 C117.88239,40.6337094 117.755859,40.8235067 116.891226,40.8235067 L116.53272,40.8235067 C115.668088,40.8235067 115.330671,40.6337094 114.845633,39.8956087 L112.083027,35.5724475 L109.362599,35.5724475 L109.362599,39.8534315 C109.362599,40.6337094 109.172802,40.8235067 108.392524,40.8235067 L108.118372,40.8235067 C107.338094,40.8235067 107.148297,40.6337094 107.148297,39.8534315 L107.148297,29.5200217 C107.148297,27.8329344 107.865309,27.1159223 109.552396,27.1159223 L112.884394,27.1159223 C116.153126,27.1159223 117.43953,28.5921237 117.43953,31.3547292 Z M112.884394,29.2036929 L110.185054,29.2036929 C109.636751,29.2036929 109.362599,29.4778446 109.362599,30.0050593 L109.362599,33.4846769 L112.884394,33.4846769 C114.655836,33.4846769 115.225228,32.7887534 115.225228,31.3547292 C115.225228,29.8574392 114.655836,29.2036929 112.884394,29.2036929 Z M119.131484,28.2547063 L119.131484,28.0649089 C119.131484,27.3057196 119.321281,27.1159223 120.08047,27.1159223 L128.874413,27.1159223 C129.633602,27.1159223 129.823399,27.3057196 129.823399,28.0649089 L129.823399,28.2547063 C129.823399,29.0138955 129.633602,29.2036929 128.874413,29.2036929 L125.605681,29.2036929 L125.605681,39.8534315 C125.605681,40.6337094 125.415884,40.8235067 124.635606,40.8235067 L124.340366,40.8235067 C123.560088,40.8235067 123.37029,40.6337094 123.37029,39.8534315 L123.37029,29.2036929 L120.08047,29.2036929 C119.321281,29.2036929 119.131484,29.0138955 119.131484,28.2547063 Z M132.527606,39.8534315 L132.527606,28.0859975 C132.527606,27.3057196 132.717403,27.1159223 133.497681,27.1159223 L133.771833,27.1159223 C134.55211,27.1159223 134.741908,27.3057196 134.741908,28.0859975 L134.741908,39.8534315 C134.741908,40.6337094 134.55211,40.8235067 133.771833,40.8235067 L133.497681,40.8235067 C132.717403,40.8235067 132.527606,40.6337094 132.527606,39.8534315 Z M145.607399,34.9397897 L140.588314,34.9397897 L140.588314,39.8534315 C140.588314,40.6337094 140.398517,40.8235067 139.618239,40.8235067 L139.344087,40.8235067 C138.563809,40.8235067 138.374012,40.6337094 138.374012,39.8534315 L138.374012,29.5200217 C138.374012,27.8329344 139.091024,27.1159223 140.778111,27.1159223 L146.450943,27.1159223 C147.210132,27.1159223 147.399929,27.3057196 147.399929,28.0649089 L147.399929,28.2547063 C147.399929,29.0138955 147.210132,29.2036929 146.450943,29.2036929 L141.410769,29.2036929 C140.862466,29.2036929 140.588314,29.4778446 140.588314,30.0050593 L140.588314,32.8520192 L145.607399,32.8520192 C146.366588,32.8520192 146.556385,33.0418165 146.556385,33.8010058 L146.556385,33.9908031 C146.556385,34.7499924 146.366588,34.9397897 145.607399,34.9397897 Z" id="CERTIF" fill="#414657"></path>
            </g>
        </g>
    </g>
</svg>
