<svg xmlns="http://www.w3.org/2000/svg" xmlns:xlink="http://www.w3.org/1999/xlink" width="170" height="102" xmlns:v="https://vecta.io/nano"><style><![CDATA[.B{fill:#eaeef9}.C{fill:#f3f5fa}.D{fill-rule:nonzero}.E{fill:#f2f2f2}.F{fill:#c1c7d0}]]></style><defs><linearGradient x1="-616.883117%" y1="45.9237537%" x2="1635.11688%" y2="45.9237537%" id="A"><stop stop-color="#f2f2f2" stop-opacity="0" offset="0%"/><stop stop-color="#f2f2f2" offset="100%"/></linearGradient><linearGradient x1="-439.397089%" y1="45.9237537%" x2="1813.72141%" y2="45.9237537%" id="B"><stop stop-color="#f2f2f2" stop-opacity="0" offset="0%"/><stop stop-color="#f2f2f2" offset="100%"/></linearGradient><linearGradient x1="-841.882223%" y1="50.5006258%" x2="1543.91855%" y2="50.5006258%" id="C"><stop stop-color="#f2f2f2" stop-opacity="0" offset="0%"/><stop stop-color="#f2f2f2" offset="100%"/></linearGradient><linearGradient x1="-1293.92168%" y1="50.2866076%" x2="1239.6844%" y2="50.2866076%" id="D"><stop stop-color="#f2f2f2" stop-opacity="0" offset="0%"/><stop stop-color="#f2f2f2" offset="100%"/></linearGradient><linearGradient x1="-1241.64241%" y1="52.6883108%" x2="1326.57657%" y2="52.6883108%" id="E"><stop stop-color="#f2f2f2" stop-opacity="0" offset="0%"/><stop stop-color="#f2f2f2" offset="100%"/></linearGradient><linearGradient x1="-1293.92168%" y1="47.472642%" x2="1239.6844%" y2="47.472642%" id="F"><stop stop-color="#f2f2f2" stop-opacity="0" offset="0%"/><stop stop-color="#f2f2f2" offset="100%"/></linearGradient><linearGradient x1="-266.961039%" y1="45.9237537%" x2="1984.98701%" y2="45.9237537%" id="G"><stop stop-color="#f2f2f2" stop-opacity="0" offset="0%"/><stop stop-color="#f2f2f2" offset="100%"/></linearGradient><linearGradient x1="-1078.73943%" y1="49.8642666%" x2="1448.46303%" y2="49.8642666%" id="H"><stop stop-color="#f2f2f2" stop-opacity="0" offset="0%"/><stop stop-color="#f2f2f2" offset="100%"/></linearGradient><linearGradient x1="-1452.53097%" y1="48.3606656%" x2="1236.29506%" y2="48.3606656%" id="I"><stop stop-color="#f2f2f2" stop-opacity="0" offset="0%"/><stop stop-color="#f2f2f2" offset="100%"/></linearGradient><linearGradient x1="-1485.07984%" y1="55.1036467%" x2="1002.74096%" y2="55.1036467%" id="J"><stop stop-color="#f2f2f2" stop-opacity="0" offset="0%"/><stop stop-color="#f2f2f2" offset="100%"/></linearGradient><linearGradient x1="-1570.51642%" y1="51.782364%" x2="787.379502%" y2="51.782364%" id="K"><stop stop-color="#f2f2f2" stop-opacity="0" offset="0%"/><stop stop-color="#f2f2f2" offset="100%"/></linearGradient><linearGradient x1="-1344.37764%" y1="48.1607307%" x2="1290.49354%" y2="48.1607307%" id="L"><stop stop-color="#f2f2f2" stop-opacity="0" offset="0%"/><stop stop-color="#f2f2f2" offset="100%"/></linearGradient><linearGradient x1="-1369.40299%" y1="58.7222873%" x2="1299.10459%" y2="58.7222873%" id="M"><stop stop-color="#f2f2f2" stop-opacity="0" offset="0%"/><stop stop-color="#f2f2f2" offset="100%"/></linearGradient><linearGradient x1="-1293.92168%" y1="50.1823867%" x2="1239.6844%" y2="50.1823867%" id="N"><stop stop-color="#f2f2f2" stop-opacity="0" offset="0%"/><stop stop-color="#f2f2f2" offset="100%"/></linearGradient><linearGradient x1="-106.66277%" y1="45.9237537%" x2="2426.94331%" y2="45.9237537%" id="O"><stop stop-color="#f2f2f2" stop-opacity="0" offset="0%"/><stop stop-color="#f2f2f2" offset="100%"/></linearGradient><linearGradient x1="-266.451453%" y1="43.8452521%" x2="92.3764589%" y2="43.8452521%" id="P"><stop stop-color="#f2f2f2" stop-opacity="0" offset="0%"/><stop stop-color="#f2f2f2" offset="100%"/></linearGradient><linearGradient x1="-700.103896%" y1="49.8533724%" x2="1529.97403%" y2="49.8533724%" id="Q"><stop stop-color="#f2f2f2" stop-opacity="0" offset="0%"/><stop stop-color="#f2f2f2" offset="100%"/></linearGradient><linearGradient x1="-883.887734%" y1="49.8533724%" x2="1347.34927%" y2="49.8533724%" id="R"><stop stop-color="#f2f2f2" stop-opacity="0" offset="0%"/><stop stop-color="#f2f2f2" offset="100%"/></linearGradient><linearGradient x1="-516.831169%" y1="49.8533724%" x2="1713.24675%" y2="49.8533724%" id="S"><stop stop-color="#f2f2f2" stop-opacity="0" offset="0%"/><stop stop-color="#f2f2f2" offset="100%"/></linearGradient><linearGradient x1="-333.731809%" y1="49.8533724%" x2="1897.5052%" y2="49.8533724%" id="T"><stop stop-color="#f2f2f2" stop-opacity="0" offset="0%"/><stop stop-color="#f2f2f2" offset="100%"/></linearGradient><linearGradient x1="-150.233766%" y1="49.8533724%" x2="2079.84416%" y2="49.8533724%" id="U"><stop stop-color="#f2f2f2" stop-opacity="0" offset="0%"/><stop stop-color="#f2f2f2" offset="100%"/></linearGradient><linearGradient x1="-1434.04366%" y1="49.8533724%" x2="797.193347%" y2="49.8533724%" id="V"><stop stop-color="#f2f2f2" stop-opacity="0" offset="0%"/><stop stop-color="#f2f2f2" offset="100%"/></linearGradient><linearGradient x1="-1067.25572%" y1="49.8533724%" x2="1163.98129%" y2="49.8533724%" id="W"><stop stop-color="#f2f2f2" stop-opacity="0" offset="0%"/><stop stop-color="#f2f2f2" offset="100%"/></linearGradient><linearGradient x1="-1249.97403%" y1="49.8533724%" x2="980.103896%" y2="49.8533724%" id="X"><stop stop-color="#f2f2f2" stop-opacity="0" offset="0%"/><stop stop-color="#f2f2f2" offset="100%"/></linearGradient><linearGradient x1="23.2123212%" y1="49.8533724%" x2="2384.54345%" y2="49.8533724%" id="Y"><stop stop-color="#f2f2f2" stop-opacity="0" offset="0%"/><stop stop-color="#f2f2f2" offset="100%"/></linearGradient><linearGradient x1="-253.102887%" y1="49.8533724%" x2="96.055307%" y2="49.8533724%" id="Z"><stop stop-color="#f2f2f2" stop-opacity="0" offset="0%"/><stop stop-color="#f2f2f2" offset="100%"/></linearGradient><linearGradient x1="-975.104046%" y1="48.3589433%" x2="1309.30799%" y2="48.3589433%" id="a"><stop stop-color="#f2f2f2" stop-opacity="0" offset="0%"/><stop stop-color="#f2f2f2" offset="100%"/></linearGradient><linearGradient x1="-879.732711%" y1="52.7204503%" x2="1630.89356%" y2="52.7204503%" id="b"><stop stop-color="#f2f2f2" stop-opacity="0" offset="0%"/><stop stop-color="#f2f2f2" offset="100%"/></linearGradient><linearGradient x1="-1444.62596%" y1="49.8337648%" x2="1373.09272%" y2="49.8337648%" id="c"><stop stop-color="#f2f2f2" stop-opacity="0" offset="0%"/><stop stop-color="#f2f2f2" offset="100%"/></linearGradient><linearGradient x1="-616.883117%" y1="44.5747801%" x2="1635.11688%" y2="44.5747801%" id="d"><stop stop-color="#f2f2f2" stop-opacity="0" offset="0%"/><stop stop-color="#f2f2f2" offset="100%"/></linearGradient><linearGradient x1="-1293.92168%" y1="46.8196038%" x2="1239.6844%" y2="46.8196038%" id="e"><stop stop-color="#f2f2f2" stop-opacity="0" offset="0%"/><stop stop-color="#f2f2f2" offset="100%"/></linearGradient><linearGradient x1="-266.961039%" y1="44.5747801%" x2="1984.98701%" y2="44.5747801%" id="f"><stop stop-color="#f2f2f2" stop-opacity="0" offset="0%"/><stop stop-color="#f2f2f2" offset="100%"/></linearGradient><linearGradient x1="-439.397089%" y1="44.5747801%" x2="1813.72141%" y2="44.5747801%" id="g"><stop stop-color="#f2f2f2" stop-opacity="0" offset="0%"/><stop stop-color="#f2f2f2" offset="100%"/></linearGradient><linearGradient x1="-1241.64241%" y1="50.5161707%" x2="1326.57657%" y2="50.5161707%" id="h"><stop stop-color="#f2f2f2" stop-opacity="0" offset="0%"/><stop stop-color="#f2f2f2" offset="100%"/></linearGradient><linearGradient x1="-1435.69816%" y1="50.7932485%" x2="986.494352%" y2="50.7932485%" id="i"><stop stop-color="#f2f2f2" stop-opacity="0" offset="0%"/><stop stop-color="#f2f2f2" offset="100%"/></linearGradient><linearGradient x1="-1588.22882%" y1="51.4696685%" x2="796.259626%" y2="51.4696685%" id="j"><stop stop-color="#f2f2f2" stop-opacity="0" offset="0%"/><stop stop-color="#f2f2f2" offset="100%"/></linearGradient><linearGradient x1="-1452.53097%" y1="50.2214021%" x2="1236.29506%" y2="50.2214021%" id="k"><stop stop-color="#f2f2f2" stop-opacity="0" offset="0%"/><stop stop-color="#f2f2f2" offset="100%"/></linearGradient><linearGradient x1="-1293.92168%" y1="49.6350365%" x2="1239.6844%" y2="49.6350365%" id="l"><stop stop-color="#f2f2f2" stop-opacity="0" offset="0%"/><stop stop-color="#f2f2f2" offset="100%"/></linearGradient><linearGradient x1="-1293.92168%" y1="46.9515373%" x2="1239.6844%" y2="46.9515373%" id="m"><stop stop-color="#f2f2f2" stop-opacity="0" offset="0%"/><stop stop-color="#f2f2f2" offset="100%"/></linearGradient><linearGradient x1="-1369.20522%" y1="50.5733658%" x2="1298.91697%" y2="50.5733658%" id="n"><stop stop-color="#f2f2f2" stop-opacity="0" offset="0%"/><stop stop-color="#f2f2f2" offset="100%"/></linearGradient><linearGradient x1="-106.66277%" y1="44.5747801%" x2="2426.94331%" y2="44.5747801%" id="o"><stop stop-color="#f2f2f2" stop-opacity="0" offset="0%"/><stop stop-color="#f2f2f2" offset="100%"/></linearGradient><linearGradient x1="-263.234329%" y1="46.6588511%" x2="92.4433869%" y2="46.6588511%" id="p"><stop stop-color="#f2f2f2" stop-opacity="0" offset="0%"/><stop stop-color="#f2f2f2" offset="100%"/></linearGradient><linearGradient x1="1411.45529%" y1="44.734098%" x2="-804.734074%" y2="44.734098%" id="q"><stop stop-color="#f2f2f2" stop-opacity="0" offset="0%"/><stop stop-color="#f2f2f2" offset="100%"/></linearGradient><linearGradient x1="1411.45529%" y1="47.472642%" x2="-804.734074%" y2="47.472642%" id="r"><stop stop-color="#f2f2f2" stop-opacity="0" offset="0%"/><stop stop-color="#f2f2f2" offset="100%"/></linearGradient><linearGradient x1="1525.18938%" y1="47.2120896%" x2="-867.524306%" y2="47.2120896%" id="s"><stop stop-color="#f2f2f2" stop-opacity="0" offset="0%"/><stop stop-color="#f2f2f2" offset="100%"/></linearGradient><linearGradient x1="1500.63086%" y1="51.5888597%" x2="-745.723951%" y2="51.5888597%" id="t"><stop stop-color="#f2f2f2" stop-opacity="0" offset="0%"/><stop stop-color="#f2f2f2" offset="100%"/></linearGradient><linearGradient x1="1710.67107%" y1="51.782364%" x2="-375.082508%" y2="51.782364%" id="u"><stop stop-color="#f2f2f2" stop-opacity="0" offset="0%"/><stop stop-color="#f2f2f2" offset="100%"/></linearGradient><linearGradient x1="1464.18428%" y1="51.5647769%" x2="-533.978021%" y2="51.5647769%" id="v"><stop stop-color="#f2f2f2" stop-opacity="0" offset="0%"/><stop stop-color="#f2f2f2" offset="100%"/></linearGradient><linearGradient x1="371.306889%" y1="43.8452521%" x2="54.6638831%" y2="43.8452521%" id="w"><stop stop-color="#f2f2f2" stop-opacity="0" offset="0%"/><stop stop-color="#f2f2f2" offset="100%"/></linearGradient><linearGradient x1="1411.45529%" y1="44.6065659%" x2="-804.734074%" y2="44.6065659%" id="x"><stop stop-color="#f2f2f2" stop-opacity="0" offset="0%"/><stop stop-color="#f2f2f2" offset="100%"/></linearGradient><linearGradient x1="554.989605%" y1="45.9237537%" x2="-1415.85239%" y2="45.9237537%" id="y"><stop stop-color="#f2f2f2" stop-opacity="0" offset="0%"/><stop stop-color="#f2f2f2" offset="100%"/></linearGradient><linearGradient x1="376.987013%" y1="45.9237537%" x2="-1592.77922%" y2="45.9237537%" id="z"><stop stop-color="#f2f2f2" stop-opacity="0" offset="0%"/><stop stop-color="#f2f2f2" offset="100%"/></linearGradient><linearGradient x1="726.857143%" y1="45.9237537%" x2="-1242.90909%" y2="45.9237537%" id="AA"><stop stop-color="#f2f2f2" stop-opacity="0" offset="0%"/><stop stop-color="#f2f2f2" offset="100%"/></linearGradient><linearGradient x1="1479.80765%" y1="54.3397564%" x2="-853.983746%" y2="54.3397564%" id="AB"><stop stop-color="#f2f2f2" stop-opacity="0" offset="0%"/><stop stop-color="#f2f2f2" offset="100%"/></linearGradient><linearGradient x1="1418.22706%" y1="52.6883108%" x2="-933.02758%" y2="52.6883108%" id="AC"><stop stop-color="#f2f2f2" stop-opacity="0" offset="0%"/><stop stop-color="#f2f2f2" offset="100%"/></linearGradient><linearGradient x1="1144.40276%" y1="49.8642666%" x2="-973.673072%" y2="49.8642666%" id="AD"><stop stop-color="#f2f2f2" stop-opacity="0" offset="0%"/><stop stop-color="#f2f2f2" offset="100%"/></linearGradient><linearGradient x1="952.449092%" y1="50.5006258%" x2="-1134.34232%" y2="50.5006258%" id="AE"><stop stop-color="#f2f2f2" stop-opacity="0" offset="0%"/><stop stop-color="#f2f2f2" offset="100%"/></linearGradient><linearGradient x1="218.011696%" y1="45.9237537%" x2="-1999.47368%" y2="45.9237537%" id="AF"><stop stop-color="#f2f2f2" stop-opacity="0" offset="0%"/><stop stop-color="#f2f2f2" offset="100%"/></linearGradient><linearGradient x1="1371.01299%" y1="49.8533724%" x2="-894.597403%" y2="49.8533724%" id="AG"><stop stop-color="#f2f2f2" stop-opacity="0" offset="0%"/><stop stop-color="#f2f2f2" offset="100%"/></linearGradient><linearGradient x1="1188.25364%" y1="49.8533724%" x2="-1078.48233%" y2="49.8533724%" id="AH"><stop stop-color="#f2f2f2" stop-opacity="0" offset="0%"/><stop stop-color="#f2f2f2" offset="100%"/></linearGradient><linearGradient x1="1554.28571%" y1="49.8533724%" x2="-711.324675%" y2="49.8533724%" id="AI"><stop stop-color="#f2f2f2" stop-opacity="0" offset="0%"/><stop stop-color="#f2f2f2" offset="100%"/></linearGradient><linearGradient x1="356.396909%" y1="49.8533724%" x2="1.66734445%" y2="49.8533724%" id="AJ"><stop stop-color="#f2f2f2" stop-opacity="0" offset="0%"/><stop stop-color="#f2f2f2" offset="100%"/></linearGradient><linearGradient x1="1010.49896%" y1="49.8533724%" x2="-1256.34096%" y2="49.8533724%" id="AK"><stop stop-color="#f2f2f2" stop-opacity="0" offset="0%"/><stop stop-color="#f2f2f2" offset="100%"/></linearGradient><linearGradient x1="460.29106%" y1="49.8533724%" x2="-1806.49688%" y2="49.8533724%" id="AL"><stop stop-color="#f2f2f2" stop-opacity="0" offset="0%"/><stop stop-color="#f2f2f2" offset="100%"/></linearGradient><linearGradient x1="276.779221%" y1="49.8533724%" x2="-1988.83117%" y2="49.8533724%" id="AM"><stop stop-color="#f2f2f2" stop-opacity="0" offset="0%"/><stop stop-color="#f2f2f2" offset="100%"/></linearGradient><linearGradient x1="643.711019%" y1="49.8533724%" x2="-1623.07692%" y2="49.8533724%" id="AN"><stop stop-color="#f2f2f2" stop-opacity="0" offset="0%"/><stop stop-color="#f2f2f2" offset="100%"/></linearGradient><linearGradient x1="827.079002%" y1="49.8533724%" x2="-1439.70894%" y2="49.8533724%" id="AO"><stop stop-color="#f2f2f2" stop-opacity="0" offset="0%"/><stop stop-color="#f2f2f2" offset="100%"/></linearGradient><linearGradient x1="98.9479836%" y1="49.8533724%" x2="-2450.02922%" y2="49.8533724%" id="AP"><stop stop-color="#f2f2f2" stop-opacity="0" offset="0%"/><stop stop-color="#f2f2f2" offset="100%"/></linearGradient><linearGradient x1="1588.43565%" y1="51.388862%" x2="-954.099087%" y2="51.388862%" id="AQ"><stop stop-color="#f2f2f2" stop-opacity="0" offset="0%"/><stop stop-color="#f2f2f2" offset="100%"/></linearGradient><linearGradient x1="1468.75843%" y1="51.893491%" x2="-1114.98208%" y2="51.893491%" id="AR"><stop stop-color="#f2f2f2" stop-opacity="0" offset="0%"/><stop stop-color="#f2f2f2" offset="100%"/></linearGradient><linearGradient x1="1436.42955%" y1="50.5154213%" x2="-1214.42713%" y2="50.5154213%" id="AS"><stop stop-color="#f2f2f2" stop-opacity="0" offset="0%"/><stop stop-color="#f2f2f2" offset="100%"/></linearGradient><linearGradient x1="364.45125%" y1="46.6588511%" x2="3.47624565%" y2="46.6588511%" id="AT"><stop stop-color="#f2f2f2" stop-opacity="0" offset="0%"/><stop stop-color="#f2f2f2" offset="100%"/></linearGradient><linearGradient x1="1380.01169%" y1="49.6350365%" x2="-1168.96552%" y2="49.6350365%" id="AU"><stop stop-color="#f2f2f2" stop-opacity="0" offset="0%"/><stop stop-color="#f2f2f2" offset="100%"/></linearGradient><linearGradient x1="1380.01169%" y1="52.5026069%" x2="-1168.96552%" y2="52.5026069%" id="AV"><stop stop-color="#f2f2f2" stop-opacity="0" offset="0%"/><stop stop-color="#f2f2f2" offset="100%"/></linearGradient><linearGradient x1="1380.01169%" y1="52.3710266%" x2="-1168.96552%" y2="52.3710266%" id="AW"><stop stop-color="#f2f2f2" stop-opacity="0" offset="0%"/><stop stop-color="#f2f2f2" offset="100%"/></linearGradient><linearGradient x1="1675.13751%" y1="51.4696685%" x2="-723.817382%" y2="51.4696685%" id="AX"><stop stop-color="#f2f2f2" stop-opacity="0" offset="0%"/><stop stop-color="#f2f2f2" offset="100%"/></linearGradient><linearGradient x1="1378.2313%" y1="50.5161707%" x2="-1326.1642%" y2="50.5161707%" id="AY"><stop stop-color="#f2f2f2" stop-opacity="0" offset="0%"/><stop stop-color="#f2f2f2" offset="100%"/></linearGradient><linearGradient x1="1446.90551%" y1="54.9230813%" x2="-1237.85675%" y2="54.9230813%" id="AZ"><stop stop-color="#f2f2f2" stop-opacity="0" offset="0%"/><stop stop-color="#f2f2f2" offset="100%"/></linearGradient><linearGradient x1="349.038961%" y1="44.5747801%" x2="-1916.57143%" y2="44.5747801%" id="Aa"><stop stop-color="#f2f2f2" stop-opacity="0" offset="0%"/><stop stop-color="#f2f2f2" offset="100%"/></linearGradient><linearGradient x1="699.272349%" y1="44.5747801%" x2="-1567.51559%" y2="44.5747801%" id="Ab"><stop stop-color="#f2f2f2" stop-opacity="0" offset="0%"/><stop stop-color="#f2f2f2" offset="100%"/></linearGradient><linearGradient x1="526.975052%" y1="44.5747801%" x2="-1739.81289%" y2="44.5747801%" id="Ac"><stop stop-color="#f2f2f2" stop-opacity="0" offset="0%"/><stop stop-color="#f2f2f2" offset="100%"/></linearGradient><linearGradient x1="968.441792%" y1="52.7204503%" x2="-1550.38475%" y2="52.7204503%" id="Ad"><stop stop-color="#f2f2f2" stop-opacity="0" offset="0%"/><stop stop-color="#f2f2f2" offset="100%"/></linearGradient><linearGradient x1="1133.39389%" y1="56.8292408%" x2="-1353.82436%" y2="56.8292408%" id="Ae"><stop stop-color="#f2f2f2" stop-opacity="0" offset="0%"/><stop stop-color="#f2f2f2" offset="100%"/></linearGradient><linearGradient x1="186.549708%" y1="44.5747801%" x2="-2363.97661%" y2="44.5747801%" id="Af"><stop stop-color="#f2f2f2" stop-opacity="0" offset="0%"/><stop stop-color="#f2f2f2" offset="100%"/></linearGradient><path id="Ag" d="M64.257 59.722H0V0h83.356v59.722h-9.8"/><linearGradient x1="-0.801068091%" y1="48.9541611%" x2="100.178015%" y2="48.9541611%" id="Ah"><stop stop-color="#83a6ff" offset="0%"/><stop stop-color="#5a78ff" offset="100%"/></linearGradient><linearGradient x1="2.35870049%" y1="51.9804183%" x2="103.382287%" y2="51.9804183%" id="Ai"><stop stop-color="#83a6ff" offset="0%"/><stop stop-color="#5a78ff" offset="100%"/></linearGradient><linearGradient x1="-2.26868327%" y1="50.4672897%" x2="98.7099644%" y2="50.4672897%" id="Aj"><stop stop-color="#ff66a9" offset="0%"/><stop stop-color="#f53689" offset="100%"/></linearGradient><linearGradient x1="-0.356030263%" y1="52.3364486%" x2="100.623053%" y2="52.3364486%" id="Ak"><stop stop-color="#ff66a9" offset="0%"/><stop stop-color="#f53689" offset="100%"/></linearGradient><linearGradient x1="102.536716%" y1="48.6426346%" x2="1.51312862%" y2="48.6426346%" id="Al"><stop stop-color="#ff66a9" offset="0%"/><stop stop-color="#f53689" offset="100%"/></linearGradient><linearGradient x1="-0.0472202856%" y1="50.0208247%" x2="100.017281%" y2="50.0208247%" id="Am"><stop stop-color="#1c3754" offset="0%"/><stop stop-color="#274463" offset="100%"/></linearGradient><linearGradient x1="50.0264831%" y1="100.625434%" x2="50.0264831%" y2="45.5177206%" id="An"><stop stop-color="#c8ced5" offset="0%"/><stop stop-color="#8f9298" offset="100%"/></linearGradient><linearGradient x1="51.8279071%" y1="47.8417283%" x2="50%" y2="98.1861888%" id="Ao"><stop stop-color="#fff" offset="0%"/><stop stop-color="#c8c8c8" offset="100%"/></linearGradient><filter x="-60.0%" y="-60.0%" width="220.0%" height="220.0%" id="Ap"><feGaussianBlur stdDeviation="5" in="SourceGraphic"/></filter><linearGradient x1="0.00591455087%" y1="50.0118483%" x2="99.9360153%" y2="50.0118483%" id="Aq"><stop stop-color="#83a6ff" offset="0%"/><stop stop-color="#5a78ff" offset="100%"/></linearGradient><linearGradient x1="-0.136123671%" y1="50.0190299%" x2="100.098246%" y2="50.0190299%" id="Ar"><stop stop-color="#83a6ff" offset="0%"/><stop stop-color="#5a78ff" offset="100%"/></linearGradient><linearGradient x1="50.6927299%" y1="6.23101586%" x2="50.6927299%" y2="88.5082686%" id="As"><stop stop-color="#83a6ff" offset="0%"/><stop stop-color="#5a78ff" offset="100%"/></linearGradient><path id="At" d="M42.981 27.927c-.534 0-.855-.32-.855-.853s.321-.852.855-.852.856.319.856.852-.428.853-.856.853z"/><path id="Au" d="M14.968 35.069h-.213c-.428 0-.856.32-.856.853s.321.852.856.852h.213c.428 0 .856-.319.856-.852s-.428-.853-.856-.853z"/><path id="Av" d="M18.497 35.069h-.214c-.428 0-.855.32-.855.853s.32.852.855.852h.214c.427 0 .855-.319.855-.852s-.428-.853-.855-.853z"/><path id="Aw" d="M11.44 35.069h-.214c-.427 0-.855.32-.855.853s.321.852.855.852h.214c.428 0 .856-.319.856-.852s-.428-.853-.856-.853z"/><path id="Ax" d="M7.912 35.069h-.214c-.428 0-.855.32-.855.853s.321.852.855.852h.214a.84.84 0 0 0 .855-.852c0-.533-.427-.853-.855-.853z"/><path id="Ay" d="M22.025 35.069h-.214c-.427 0-.855.32-.855.853s.321.852.855.852h.214a.84.84 0 0 0 .855-.852c0-.533-.427-.853-.855-.853z"/><path id="Az" d="M25.554 35.069h-.214c-.428 0-.856.32-.856.853s.321.852.856.852h.214c.427 0 .855-.319.855-.852s-.428-.853-.855-.853z"/><path id="BA" d="M22.667 57.454c-.428 0-.856.319-.856.852v.214c0 .426.321.852.856.852s.855-.32.855-.852v-.214c0-.426-.428-.852-.855-.852z"/><path id="BB" d="M127.019 27.927c-.428 0-.855-.32-.855-.853s.32-.852.748-.852h.107a.84.84 0 0 1 .855.852c0 .533-.427.853-.855.853z"/><path id="BC" d="M147.226 13.004c-.427 0-.855.32-.855.853v.213c0 .426.321.853.855.853s.856-.32.856-.853v-.213c0-.533-.428-.853-.856-.853z"/><path id="BD" d="M162.195 35.069h-.214c-.428 0-.855.32-.855.853s.32.852.855.852h.214a.84.84 0 0 0 .855-.852c0-.533-.427-.853-.855-.853z"/><path id="BE" d="M11.553 40.097H9.306v2.247h2.247z"/><path id="BF" d="M16.166 31.226h-2.247v2.247h2.247z"/><path id="BG" d="M20.779 40.097h-2.248v2.247h2.248z"/><path id="BH" d="M20.779 35.72h-2.248v2.248h2.248z"/><path id="BI" d="M34.617 40.097H32.37v2.247h2.247z"/><path id="BJ" d="M53.187 40.097H50.94v2.247h2.247z"/><path id="BK" d="M60.218 60.21h2.248v-2.247h-2.248z"/><path id="BL" d="M55.577 60.21h2.247v-2.247h-2.247z"/></defs><g fill="none" fill-rule="evenodd"><g transform="translate(0 17.35)" class="D"><g class="E"><use xlink:href="#At"/><use xlink:href="#At" y="18.121"/></g><path d="M12.617 0h-.214c-.428 0-.856.319-.856.852s.321.853.856.853h.214c.427 0 .855-.32.855-.853S13.044 0 12.617 0z" fill="url(#A)"/><path d="M9.195 0h-.214c-.427 0-.855.319-.855.852s.321.853.855.853h.214c.428 0 .855-.32.855-.853A.84.84 0 0 0 9.195 0z" fill="url(#B)"/><path d="M16.038 0h-.214c-.428 0-.855.319-.855.746s.32.852.748.852h.214.107a.73.73 0 0 0 .748-.746c0-.426-.321-.746-.748-.852z" fill="url(#C)"/><path d="M23.522 10.446c0-.427-.321-.853-.855-.853s-.856.32-.856.853v.213c0 .426.321.853.856.853s.855-.32.855-.853v-.213z" fill="url(#D)"/><path d="M22.132 3.73l-.107-.213c-.214-.32-.748-.426-1.069-.213s-.428.746-.214 1.066l.107.213c.107.213.428.32.642.32.107 0 .32 0 .427-.107.428-.213.535-.639.214-1.066z" fill="url(#E)"/><path d="M22.667 13.004c-.428 0-.856.32-.856.853v.213c0 .426.321.853.856.853s.855-.427.855-.853v-.213c0-.533-.428-.853-.855-.853z" fill="url(#F)"/><path d="M5.881 0h-.214c-.428 0-.856.319-.856.852s.321.853.856.853h.214c.427 0 .855-.32.855-.853S6.308 0 5.881 0z" fill="url(#G)"/><path d="M19.566 1.172l-.214-.107c-.427-.213-.855-.106-1.069.32s-.107.853.321 1.066l.107.107c.107.106.32.106.427.106.321 0 .535-.106.642-.426.214-.32.107-.853-.214-1.066z" fill="url(#H)"/><path d="M24.484 23.237c-.213-.32-.748-.426-1.069-.213a.83.83 0 0 0-.214 1.066l.107.213c.107.213.428.32.642.32.107 0 .321 0 .427-.107.321-.213.428-.746.214-1.066l-.107-.213z" fill="url(#I)"/><path d="M26.837 25.369l-.107-.107c-.428-.213-.856-.106-1.07.213-.213.427-.106.853.214 1.066l.214.107c.107.107.214.107.428.107.321 0 .534-.107.748-.427.107-.213-.107-.746-.427-.959z" fill="url(#J)"/><path d="M29.617 26.222h-.214c-.428 0-.856.319-.856.746s.321.853.749.853h.214.107a.73.73 0 0 0 .748-.747c.107-.426-.214-.746-.748-.852z" fill="url(#K)"/><path d="M22.667 8.101c.534-.107.855-.427.748-.853v-.213c-.107-.427-.428-.746-.962-.64-.428.107-.749.426-.642.959v.214c.107.213.428.533.856.533z" fill="url(#L)"/><path d="M23.522 20.572v-.213c0-.426-.428-.746-.855-.746s-.749.426-.749.852v.214c.107.426.428.639.749.639h.107a.6.6 0 0 0 .748-.746z" fill="url(#M)"/><path d="M22.667 18.227c.427 0 .855-.32.855-.853v-.213c0-.426-.321-.853-.855-.853s-.856.32-.856.853v.213c.107.427.428.853.856.853z" fill="url(#N)"/><path d="M2.352 0a.84.84 0 0 0-.855.852c0 .533.321.853.855.853h.107c.428 0 .749-.32.749-.853S2.78 0 2.352 0z" fill="url(#O)"/><path d="M42.981 26.328h-3.314-.214-3.208-.213-3.101-.214c-.428 0-.855.32-.855.853s.32.853.855.853h.214 3.101.32 3.208.214 3.314c.428 0 .855-.32.855-.853s-.534-.853-.962-.853z" fill="url(#P)"/><path d="M42.981 36.668c-.534 0-.855-.32-.855-.853s.321-.853.855-.853.856.32.856.853-.428.853-.856.853z" class="E"/><use xlink:href="#Au" fill="url(#Q)"/><use xlink:href="#Av" fill="url(#R)"/><use xlink:href="#Aw" fill="url(#S)"/><use xlink:href="#Ax" fill="url(#T)"/><path d="M4.384 35.069H4.17c-.428 0-.856.32-.856.853s.321.852.856.852h.214c.427 0 .855-.319.855-.852s-.321-.853-.855-.853z" fill="url(#U)"/><use xlink:href="#Av" x="10.585" fill="url(#V)"/><use xlink:href="#Ay" fill="url(#W)"/><use xlink:href="#Az" fill="url(#X)"/><path d="M.962 35.069H.855c-.427 0-.855.32-.855.853s.321.852.855.852h.107c.428 0 .856-.319.856-.852s-.428-.853-.856-.853z" fill="url(#Y)"/><path d="M42.981 35.069H39.56h-.214-3.315-.213-2.994-.107-.107-.214c-.427 0-.855.32-.855.853s.321.852.855.852h.214.107.107 2.994.213 3.315.214 3.421a.84.84 0 0 0 .855-.852c0-.533-.427-.853-.855-.853z" fill="url(#Z)"/><path d="M18.711 69.818l-.107.107c-.428.213-.535.746-.321 1.066.107.213.428.426.748.426.107 0 .214 0 .428-.106l.214-.107c.428-.213.535-.746.214-1.066-.321-.426-.856-.639-1.176-.32z" fill="url(#a)"/><path d="M15.824 70.671h-.214c-.428 0-.748.427-.748.853s.427.746.748.746h.214c.428 0 .748-.426.748-.853.107-.426-.32-.746-.748-.746z" fill="url(#b)"/><path d="M22.774 64.169c-.428-.107-.856.213-.856.746v.213c-.107.427.214.853.642.96h.107c.427 0 .748-.32.748-.64v-.213c.107-.533-.214-.959-.641-1.066z" fill="url(#c)"/><use xlink:href="#Az" x="-12.937" y="35.709" fill="url(#d)"/><path d="M22.667 60.865c-.428 0-.856.319-.856.852v.214c0 .426.321.852.856.852s.855-.319.855-.852v-.214c0-.533-.428-.852-.855-.852z" fill="url(#e)"/><use xlink:href="#Az" x="-19.673" y="35.709" fill="url(#f)"/><use xlink:href="#Ay" x="-12.83" y="35.709" fill="url(#g)"/><path d="M21.918 67.473c-.32-.213-.855-.106-1.069.214l-.107.213c-.214.32-.107.853.214 1.066.107.106.321.106.428.106.214 0 .534-.106.641-.319l.107-.214c.321-.319.214-.852-.214-1.066z" fill="url(#h)"/><path d="M25.981 45.515l-.214.107c-.427.213-.534.746-.213 1.066a.88.88 0 0 0 .641.426c.107 0 .321 0 .428-.107l.107-.106c.427-.213.534-.746.32-1.066s-.641-.533-1.069-.32z" fill="url(#i)"/><path d="M29.51 44.449h-.214c-.428 0-.749.427-.749.853s.428.746.749.746h.107.214c.427 0 .748-.426.748-.853s-.428-.746-.855-.746z" fill="url(#j)"/><path d="M23.308 48.073l-.107.214c-.213.319-.107.852.214 1.065.107.107.321.107.428.107.214 0 .534-.107.641-.32l.107-.106c.214-.32.107-.853-.214-1.066-.32-.427-.855-.32-1.069.106z" fill="url(#k)"/><use xlink:href="#BA" fill="url(#l)"/><path d="M22.667 54.149c-.428 0-.856.32-.856.853v.213c0 .427.321.853.856.853s.855-.32.855-.853v-.213c0-.533-.428-.853-.855-.853z" fill="url(#m)"/><path d="M22.88 50.845c-.427-.107-.855.213-.962.639v.213c0 .427.321.853.749.853h.107a.73.73 0 0 0 .748-.746v-.213c.107-.32-.214-.746-.642-.746z" fill="url(#n)"/><path d="M2.352 70.778c-.427 0-.855.32-.855.853s.321.852.855.852h.107c.428 0 .749-.319.749-.852s-.428-.853-.856-.853z" fill="url(#o)"/><path d="M42.981 44.449h-3.314-.214-3.208-.214-3.207-.107-.107c-.428 0-.855.32-.855.853s.321.853.855.853h.107.107 3.207.321 3.208.214 3.314c.428 0 .855-.32.855-.853s-.534-.853-.962-.853z" fill="url(#p)"/><g class="E"><use xlink:href="#BB"/><use xlink:href="#BB" y="18.121"/></g><path d="M147.226 9.7c-.427 0-.855.319-.855.852v.213c0 .427.321.853.855.853s.856-.32.856-.853v-.213c0-.533-.428-.852-.856-.852z" fill="url(#q)"/><use xlink:href="#BC" fill="url(#r)"/><path d="M147.226 19.719c-.427 0-.855.32-.855.746v.214c-.107.426.214.852.642.959h.107c.427 0 .748-.32.748-.64v-.213c.214-.639-.107-1.066-.642-1.066z" fill="url(#s)"/><path d="M146.478 23.024c-.321-.213-.855-.107-1.069.213l-.107.107c-.214.319-.107.852.214 1.066.107.106.321.106.428.106.213 0 .534-.106.641-.32l.107-.213c.321-.32.214-.746-.214-.959z" fill="url(#t)"/><path d="M140.384 26.222h-.214c-.428 0-.749.426-.749.852s.428.747.749.747h.107.213c.428 0 .749-.427.749-.853s-.321-.746-.855-.746z" fill="url(#u)"/><path d="M143.271 25.262l-.107.107c-.428.213-.535.746-.321 1.066.107.213.428.426.748.426.107 0 .321 0 .428-.106l.214-.107c.428-.213.535-.746.214-1.066-.321-.426-.856-.533-1.176-.32z" fill="url(#v)"/><path d="M137.176 26.328h-.214-3.1-.214-3.208-.213-3.315c-.428 0-.855.32-.855.853s.321.853.855.853h3.315.213 3.208.214 3.1.214c.428 0 .856-.32.856-.853s-.428-.853-.856-.853z" fill="url(#w)"/><use xlink:href="#BC" y="3.411" fill="url(#x)"/><path d="M160.912 0h-.214a.84.84 0 0 0-.855.852c0 .533.321.853.855.853h.214c.428 0 .855-.32.855-.853a.84.84 0 0 0-.855-.852z" fill="url(#y)"/><path d="M164.333 0h-.213c-.428 0-.856.319-.856.852s.321.853.856.853h.213c.428 0 .856-.32.856-.853S164.761 0 164.333 0z" fill="url(#z)"/><path d="M157.597 0h-.213c-.428 0-.856.319-.856.852s.321.853.856.853h.213c.428 0 .856-.32.856-.853S158.025 0 157.597 0z" fill="url(#AA)"/><path d="M147.44 6.289c-.427-.107-.855.213-.962.639v.213c0 .427.214.853.748.853h.107a.73.73 0 0 0 .749-.746v-.213c.107-.213-.214-.64-.642-.746z" fill="url(#AB)"/><path d="M147.868 3.517l-.107.213c-.214.32-.107.853.214 1.066.107.107.321.107.428.107.214 0 .534-.107.641-.32l.107-.213c.214-.32.107-.853-.214-1.066s-.748-.107-1.069.213z" fill="url(#AC)"/><path d="M150.648 1.065l-.214.107c-.428.213-.534.746-.214 1.066.107.213.428.426.642.426.107 0 .321 0 .427-.106l.107-.107c.428-.213.535-.746.321-1.066-.214-.426-.748-.533-1.069-.32z" fill="url(#AD)"/><path d="M154.176 0h-.214c-.427 0-.748.426-.748.852s.428.746.748.746h.107.214c.428 0 .748-.426.748-.852-.106-.427-.427-.746-.855-.746z" fill="url(#AE)"/><path d="M167.648 0c-.535 0-.855.319-.855.852s.427.853.855.853.855-.32.855-.853a.84.84 0 0 0-.855-.852z" fill="url(#AF)"/><path d="M127.019 36.668c-.428 0-.855-.32-.855-.853s.32-.853.748-.853h.107c.428 0 .855.32.855.853s-.427.853-.855.853z" class="E"/><use xlink:href="#Au" x="129.692" fill="url(#AG)"/><use xlink:href="#Av" x="129.692" fill="url(#AH)"/><use xlink:href="#Aw" x="129.692" fill="url(#AI)"/><path d="M137.604 35.069h-.214-.107-.107-2.994-.213-3.315-.214-3.421c-.428 0-.855.32-.855.853s.32.852.855.852h3.421.214 3.315.213 2.994.107.107.214c.427 0 .855-.319.855-.852s-.428-.853-.855-.853z" fill="url(#AJ)"/><path d="M151.61 35.069h-.214c-.427 0-.855.32-.855.853s.321.852.855.852h.214a.84.84 0 0 0 .855-.852c0-.533-.32-.853-.855-.853z" fill="url(#AK)"/><use xlink:href="#BD" fill="url(#AL)"/><use xlink:href="#Aw" x="154.283" fill="url(#AM)"/><use xlink:href="#BD" x="-3.528" fill="url(#AN)"/><use xlink:href="#Ay" x="133.113" fill="url(#AO)"/><path d="M169.145 35.069c-.535 0-.856.32-.856.853s.428.852.856.852.855-.319.855-.852-.428-.853-.855-.853z" fill="url(#AP)"/><path d="M144.126 45.622l-.214-.107c-.427-.213-.855-.106-1.069.32s-.107.853.321 1.066l.107.106c.107.107.321.107.427.107.321 0 .535-.107.642-.426.214-.32.107-.746-.214-1.066z" fill="url(#AQ)"/><path d="M146.692 48.287l-.107-.214c-.214-.319-.748-.426-1.069-.213s-.428.746-.214 1.066l.107.107c.107.213.428.319.642.319.107 0 .32 0 .427-.106.428-.107.535-.64.214-.959z" fill="url(#AR)"/><path d="M147.227 52.55c.534 0 .855-.426.748-.853v-.213c-.107-.426-.535-.746-.962-.639s-.749.426-.642.959v.213c.107.32.428.533.856.533z" fill="url(#AS)"/><path d="M137.176 44.449h-.107-.107-3.207-.214-3.208-.213-3.315c-.428 0-.855.32-.855.853s.321.853.855.853h3.315.213 3.208.214 3.207.107.107c.428 0 .856-.32.856-.853s-.428-.853-.856-.853z" fill="url(#AT)"/><use xlink:href="#BA" x="124.56" fill="url(#AU)"/><path d="M148.082 54.895a.84.84 0 0 0-.855-.852c-.535 0-.856.319-.856.852v.214c0 .426.321.852.856.852s.855-.32.855-.852v-.214z" fill="url(#AV)"/><path d="M147.227 62.677c.427 0 .855-.32.855-.853v-.213c0-.427-.321-.853-.855-.853s-.856.32-.856.853v.213c.107.533.428.853.856.853z" fill="url(#AW)"/><path d="M140.597 44.449h-.213c-.428 0-.856.32-.856.746s.321.853.749.853h.213.107a.73.73 0 0 0 .749-.746c0-.426-.321-.746-.749-.853z" fill="url(#AX)"/><path d="M149.151 67.687c-.214-.32-.748-.427-1.069-.214s-.428.747-.214 1.066l.107.214c.107.213.428.319.642.319.106 0 .32 0 .427-.106.321-.213.428-.746.214-1.066l-.107-.213z" fill="url(#AY)"/><path d="M148.082 65.128v-.213c0-.426-.428-.746-.856-.746s-.748.426-.748.853v.213c.107.426.428.64.748.64h.107a.6.6 0 0 0 .749-.747z" fill="url(#AZ)"/><use xlink:href="#Au" x="149.365" y="35.709" fill="url(#Aa)"/><use xlink:href="#BD" x="-4.597" y="35.709" fill="url(#Ab)"/><use xlink:href="#Ax" x="153" y="35.709" fill="url(#Ac)"/><path d="M154.283 70.671h-.214c-.427 0-.855.32-.855.746s.321.853.748.853h.214a.73.73 0 0 0 .749-.746c.106-.426-.214-.746-.642-.853z" fill="url(#Ad)"/><path d="M151.396 69.818l-.106-.106c-.428-.213-.856-.107-1.07.213-.213.426-.107.853.214 1.066l.214.107c.107.106.214.106.428.106.32 0 .534-.106.748-.426.107-.213 0-.746-.428-.96z" fill="url(#Ae)"/><path d="M167.648 70.778c-.535 0-.855.32-.855.853a.84.84 0 0 0 1.71 0c0-.533-.427-.853-.855-.853z" fill="url(#Af)"/></g><g transform="translate(34.296)"><g class="D"><path d="M50.773 102c28.041 0 50.771-22.833 50.771-51S78.814 0 50.773 0 0 22.833 0 51s22.732 51 50.773 51z" fill="#dfe1e6"/><path d="M95.414 79.732H6.13V22.986c0-1.847 1.43-3.284 3.269-3.284h82.745c1.84 0 3.27 1.437 3.27 3.284v56.746z" fill="#1c3754"/></g><g transform="translate(8.888 22.986)"><mask id="BM" fill="#fff"><use xlink:href="#Ag"/></mask><g class="D"><use fill="#fff" xlink:href="#Ag"/><g mask="url(#BM)"><g transform="translate(8.263 -4.318)"><path fill="#e5e9f6" d="M2.327 22.355H.08v2.247h2.247z"/><path d="M2.327 13.365H.08v2.248h2.247z" class="C"/><g class="B"><path d="M6.94 40.097H4.693v2.247H6.94zm0-4.377H4.693v2.248H6.94zm0-13.365H4.693v2.247H6.94z"/></g><path fill="#e5e9f6" d="M6.94 4.494H4.693v2.248H6.94z"/><g class="B"><use xlink:href="#BE"/><use xlink:href="#BE" y="-8.871"/><use xlink:href="#BE" y="-13.366"/></g><use xlink:href="#BE" y="-17.742" fill="url(#Ah)"/><use xlink:href="#BE" y="-22.237" class="C"/><g class="B"><path d="M11.553 13.365H9.306v2.248h2.247zm0-8.871H9.306v2.248h2.247z"/></g><use xlink:href="#BE" y="-40.097" class="C"/><use xlink:href="#BF" class="B"/><use xlink:href="#BF" y="-13.366" class="C"/><g class="B"><use xlink:href="#BF" y="-22.237"/><use xlink:href="#BG"/><use xlink:href="#BH"/></g><use xlink:href="#BH" y="-22.355" class="C"/><g class="B"><use xlink:href="#BG" x="4.613" y="-8.871"/><use xlink:href="#BG" x="4.613" y="-13.366"/><use xlink:href="#BG" x="4.613" y="-17.742"/><use xlink:href="#BG" x="4.613" y="-22.237"/><use xlink:href="#BH" x="4.613" y="-31.226"/><use xlink:href="#BF" x="13.838" y="8.871"/><path d="M30.004 35.72h-2.247v2.248h2.247z"/><use xlink:href="#BF" x="13.838"/><use xlink:href="#BF" x="13.838" y="-8.871"/></g><use xlink:href="#BF" x="13.838" y="-13.366" class="C"/><use xlink:href="#BI" fill="url(#Ai)"/><g class="B"><path d="M34.617 35.72H32.37v2.248h2.247z"/><use xlink:href="#BI" y="-8.871"/></g><use xlink:href="#BI" y="-13.366" class="C"/><g class="B"><use xlink:href="#BI" y="-17.742"/><path d="M34.617 13.365H32.37v2.248h2.247z"/><use xlink:href="#BG" x="18.57"/><use xlink:href="#BH" x="18.57"/></g><use xlink:href="#BG" x="18.57" y="-8.871" fill="url(#Aj)"/><g class="B"><use xlink:href="#BG" x="18.57" y="-13.366"/><use xlink:href="#BG" x="18.57" y="-17.742"/><use xlink:href="#BG" x="18.57" y="-22.237"/><use xlink:href="#BG" x="23.183"/><use xlink:href="#BH" x="23.183"/><use xlink:href="#BH" x="23.183" y="-22.355"/></g><use xlink:href="#BG" x="23.183" y="-40.097" class="C"/><g class="B"><use xlink:href="#BF" x="32.408" y="-22.237"/><use xlink:href="#BJ"/><use xlink:href="#BJ" y="-8.871"/></g><use xlink:href="#BJ" y="-13.366" fill="url(#Ak)"/><use xlink:href="#BJ" y="-17.742" class="B"/><use xlink:href="#BJ" y="-22.237" class="C"/><g class="B"><path d="M53.187 13.365H50.94v2.248h2.247zM57.8 40.097h-2.247v2.247H57.8z"/></g><path d="M57.8 26.731h-2.247v2.247H57.8z" class="C"/><g class="B"><path d="M57.8 17.86h-2.247v2.247H57.8z"/><use xlink:href="#BF" x="46.247" y="-4.495"/></g><use xlink:href="#BF" x="46.247" y="-8.871" class="C"/><g class="B"><use xlink:href="#BF" x="46.247" y="-22.237"/><use xlink:href="#BF" x="50.86" y="8.871"/><use xlink:href="#BF" x="50.86"/></g><use xlink:href="#BF" x="50.86" y="-4.495" class="C"/><g class="B"><path d="M64.86 55.8h2.247v-2.247H64.86z"/><use xlink:href="#BK"/><use xlink:href="#BK" y="-4.41"/><use xlink:href="#BK" y="-13.349"/><use xlink:href="#BL"/><use xlink:href="#BL" y="-13.349"/><use xlink:href="#BL" x="-4.641"/><use xlink:href="#BL" x="-4.641" y="-4.41"/><use xlink:href="#BL" x="-9.282"/><use xlink:href="#BL" x="-9.282" y="-4.41"/><use xlink:href="#BL" x="-9.282" y="-8.939"/><path d="M41.653 60.21H43.9v-2.247h-2.247zm0-4.41H43.9v-2.247h-2.247zm0-4.529H43.9v-2.247h-2.247z"/><use xlink:href="#BL" x="-18.565"/><use xlink:href="#BL" x="-18.565" y="-4.41"/><use xlink:href="#BL" x="-18.565" y="-8.939"/><path d="M32.37 60.204h2.366v-2.247H32.37z"/><use xlink:href="#BL" x="-23.088" y="-4.41"/><use xlink:href="#BL" x="-23.088" y="-8.939"/></g><use xlink:href="#BL" x="-23.088" y="-13.349" class="C"/><g class="B"><use xlink:href="#BL" x="-27.729"/><use xlink:href="#BL" x="-27.729" y="-4.41"/></g><use xlink:href="#BL" x="-27.82" y="-8.877" fill="url(#Al)"/><g class="B"><use xlink:href="#BL" x="-27.729" y="-13.349"/><use xlink:href="#BK" x="-37.012"/><use xlink:href="#BK" x="-37.012" y="-4.41"/><use xlink:href="#BK" x="-37.012" y="-8.939"/><use xlink:href="#BL" x="-37.012" y="-4.41"/></g><use xlink:href="#BL" x="-37.012" y="-8.939" class="C"/><g class="B"><use xlink:href="#BL" x="-37.012" y="-13.349"/><use xlink:href="#BL" x="-41.653"/><use xlink:href="#BL" x="-41.653" y="-8.939"/><path d="M9.282 60.21h2.248v-2.247H9.282z"/></g><path d="M9.282 46.861h2.248v-2.247H9.282z" class="C"/><g class="B"><path d="M4.641 60.21h2.247v-2.247H4.641zm0-4.41h2.247v-2.247H4.641zm0-4.529h2.247v-2.247H4.641zM0 60.21h2.247v-2.247H0zm0-8.939h2.247v-2.247H0z"/></g><path d="M0 46.861h2.247v-2.247H0z" class="C"/></g></g></g></g><g class="D"><g transform="translate(13.704 28)"><path d="M72.434 41H61.69c-.509 0-.944-.318-1.089-.736-1.053-3.02-3.376-3.757-9.002-5.899-.326-.142-.363-.561-.036-.736 1.634-.777 1.343-1.439 1.343-6.074-.073-.074-.145-.176-.182-.25-.363-.527-.617-1.155-.689-1.791l-.363-.176c-1.089.25-1.016-.878-1.307-3.054-.108-.912.036-1.088.436-1.23l.363-.453c-2.142-4.635-1.053-7.547 1.053-8.601-.69-1.48-.726-2-.726-2s4.465.736 5.989.419c1.96-.385 4.936.068 6.062 2.561 1.851.703 2.577 1.865 2.758 3.054.254 1.966-.871 4.108-1.089 4.953.036.034.036.068.073.108.291.135.4.385.291 1.155-.254 2.074-.218 3.372-1.307 3.054l-.98 1.649c-.036.216-.073.284-.073.392-.036.311-.036.912-.036 4.351 0 .419.109.804.327 1.122.218.385.581.669 1.016.845h.036l5.699 2.209c2.976 1.162 3.485 1.473 3.739 3.405.072.953-.617 1.723-1.561 1.723z" class="F"/><path d="M65.646 19.681c.113-.481-.087-.709-.312-1.122-.038-.068-.075-.129-.113-.228-.864-1.505-2.852-2.146-4.729-2.208-4.803-.228-5.254.573-6.754-.61.45.61.525 1.535-.225 2.725-.487.832-2.047 1.149-2.911 1.408-2.177-4.23-.504-6.859 1.672-7.821-.713-1.344-.75-1.825-.75-1.825s4.616.672 6.192.388c2.026-.358 5.103.062 6.267 2.337 1.914.641 2.642 1.204 2.9 2.291.519 2.187-1.011 3.894-1.237 4.665z" fill="url(#Am)"/><path d="M71.198 41c1.198-1.647.722-3.384-1.21-5.202 3.169 1.133 3.722 1.638 3.992 3.522.155.856-.618 1.647-1.623 1.647h-1.159V41z" fill="#798295" opacity=".1"/><path d="M63.781 33.26l1.495.74-13.394-.49.648-.498c.235-.51.47-.357.47-4.472-.067-.068.034-.252 0-.319V28c.202.35.505.669.808.927l3.131 2.07c.741.577 1.784.608 2.526.037l2.929-2.493c.101-.092.708-.97.809-1.062-.034.282 0 1.623 0 4.749.034.35.377.712.579 1.032z" fill="url(#An)"/><path d="M17.351 34.948c-1.712-.035-1.891-.361-1.891-.361v-2.89c1.819-1.515 3.353-3.286 3.781-5.593 1.142-.25 1.855-1.299 1.748-2.453-.036-.507-.356-.98-.392-1.522v-.757c0-.181 0-.327-.036-.507 0-.181-.036-.361-.036-.535-.107-.868-.321-1.772-.892-2.821-1.427-2.71-4.245-4.509-7.42-4.509a8.13 8.13 0 0 0-1.891.215c-1.142.25-2.176.757-3.104 1.48l-.535.431c-.036.035-.071.076-.143.111-.999.938-1.783 2.126-2.212 3.467a9.31 9.31 0 0 0-.356 4.078v.104.111c.036.25.107.215-.071.431-.036.076-.107.146-.143.257-.214.396-.393.938-.143 1.584.428 1.23 1.284 1.049 2.069 1.737-.036.035-.107.069-.143.069h-.036l-.892.292c-5.35 1.695-5.957 7.434-.464 8.483-.392.035-.749.25-.998.431C1.405 37.657.299 39.748.015 41.805-.093 42.423.407 43 1.049 43h8.49c.178 0 .357-.146.428-.327.785-2.89 2.568-3.898 6.278-5.412l2.14-.868 1.177-.472c.392-.139.356-.723-.071-.827-.428-.111-.856-.146-1.284-.181-.357.035-.642.035-.856.035zm-10.88-3.682c0-.361.25-.757.785-1.188a6.27 6.27 0 0 0 .82.896l.785.653c.178.111.356.25.535.396.036.035.071.076.107.076.036.035.107.069.143.104v1.772c-.036-.035-.071-.076-.107-.076l-.464-.396a7.25 7.25 0 0 0-.749-.465c-.107-.076-.178-.111-.25-.181-.82-.542-1.569-1.049-1.605-1.591z" class="F"/><path d="M17.638 34.959L17.319 36 5.638 34.515l.679-2.315c.091.07.227.105.317.139.317.146.68.328.951.509.181.112.408.216.589.397l.091.077v-1.778c-.091-.035-.136-.07-.181-.105 1.901.76 4.256 1.158 7.652-.439-.045 0-.045.035-.091.035v2.901s-.179.989 1.994 1.023z" fill="url(#An)"/><path d="M21 19.948c-1.561.55-3.231.776-4.9.628-2.614-.219-5.155-1.283-7.115-3.047-.653 1.911-2.287 3.336-4.138 4.182L4.084 22v-.071c-.182-1.389-.073-2.786.363-4.14s1.234-2.567 2.251-3.519c.036-.035.073-.071.145-.113l.544-.437c.944-.698 2.033-1.206 3.158-1.502.654-.148 1.271-.219 1.924-.219 3.231 0 6.099 1.834 7.551 4.577.544 1.065.798 1.982.907 2.828.073.176.073.36.073.543z" fill="url(#Am)"/><path d="M7.006 30c.312.385.676.716.988 1-.364-.284-.728-.615-.988-1z" fill="#3973f4"/><path d="M10.489 39.135c-.683.854-1.976.895-3.054.854 1.15-1.109.503-4.718-3.521-4.291h-.036c-5.534-1.04-4.923-6.729.431-8.409L5.206 27c.072.034.108.076.144.145.432 1.109 1.006 2.039 1.617 2.789-2.191 1.825.863 2.397 2.336 3.795 1.294.751 2.372 3.905 1.186 5.407z" fill="url(#Am)"/><path d="M7.552 29.575c-.052-.05-.104-.1-.104-.15 0 0 .052.1.104.15z" fill="#3973f4"/><path d="M58.98 44.439c.181 1.333-.87 2.561-2.247 2.561H14.267c-1.376 0-2.427-1.229-2.247-2.561.399-2.777 1.015-3.353 5.145-5.012l1.015-.403 7.79-3.096c.761-.326 1.377-.902 1.703-1.666.181-.396.289-.861.289-1.333v-6.31c-.109-.146-.217-.257-.289-.396a6.02 6.02 0 0 1-1.015-2.742l-.544-.257c-1.63.403-1.485-1.333-1.92-4.651-.181-1.367.036-1.659.652-1.874l.508-.687c-3.116-7.032-1.558-11.432 1.521-12.987C25.934.791 25.862 0 25.862 0s6.559 1.083 8.805.646c2.862-.576 7.283.111 8.914 3.901 2.717 1.083 3.768 2.777 4.021 4.651.399 2.957-1.304 6.206-1.63 7.469.036.069.036.104.073.139.435.222.579.583.435 1.77-.399 3.137-.29 5.088-1.92 4.651l-1.45 2.527c-.073.292-.073.396-.109.611-.073.472-.036 1.409-.036 6.567 0 .618.181 1.229.508 1.694.362.541.87 1.013 1.485 1.263.036 0 .036 0 .073.042 3.732 1.548 6.414 2.554 8.37 3.318 4.456 1.728 5.145 2.27 5.58 5.192z" class="F"/><path d="M46.224 16.052c.145-.814-.11-.857-.4-1.558-.036-.106-.109-.219-.145-.368-1.271-2.57-4.067-3.604-6.754-3.753-6.863-.368-7.481.956-9.624-1.027.654 1.027.727 2.613-.29 4.595-.727 1.402-2.106 2.025-3.305 2.429-3.123-7.172-1.561-11.661 1.525-13.24C26.212.807 26.14 0 26.14 0s6.573 1.105 8.824.658c2.869-.588 7.299.113 8.933 3.979 2.723 1.105 3.777 2.832 4.031 4.744.435 2.981-1.379 5.346-1.706 6.67z" fill="url(#Am)"/><path d="M55.507 47c1.507-2.291.865-4.945-1.56-7.495 3.965 1.567 4.674 2.553 5.035 5.172A2.06 2.06 0 0 1 56.949 47h-1.442z" fill="#9aa2b2" opacity=".1"/><path d="M43.798 35.047l1.273.953-19.896.313 1.819-.91c.183-.396 1.006-1.856 1.006-2.329v-6.36c-.11-.146-.253-.351-.326-.49l.181-.217c.33.577.916 1.111 1.466 1.542l5.028 3.468c1.174.973 2.862 1.015 4.073.069l4.542-5.254c.147-.146.448-.625.595-.771-.073.473-.762 2.938-.595 8.013-.037.618.54 1.472.834 1.972z" fill="url(#An)"/></g><path d="M100.524 79.732v2.566c0 2.36-2.04 2.976-4.5 2.976H5.517c-2.452 0-4.495-.513-4.495-2.976v-2.566h40.965c.307.924 1.328 1.642 2.452 1.642h12.667c1.124 0 2.044-.718 2.452-1.642h40.966z" fill="#5e6c84"/><path d="M100.524 79.732c0 2.361-2.04 2.874-4.5 2.874H5.517c-2.452 0-4.495-.513-4.495-2.874h40.965c.307.924 1.328 1.642 2.452 1.642h12.667c1.124 0 2.044-.718 2.452-1.642h40.966z" fill="#384c6f"/></g></g><circle fill="url(#Ao)" filter="url(#Ap)" cx="94.5" cy="63.5" r="12.5"/><g transform="translate(79 48)" class="D"><path fill="#526dff" d="M35.645 31.975l-2.865 2.736-8.187-7.941 2.797-2.737z"/><path d="M4.605 4.48c-6.14 6.006-6.14 15.683 0 21.623s16.032 6.006 22.103 0c6.14-6.006 6.14-15.683 0-21.623s-16.032-6.006-22.103 0zM24.184 23.7c-4.707 4.605-12.416 4.605-17.123 0a11.7 11.7 0 0 1 0-16.751c4.707-4.604 12.416-4.604 17.123 0 4.775 4.605 4.775 12.079 0 16.751z" fill="url(#Aq)"/><path d="M40.079 39.049c-1.296 1.268-3.343 1.268-4.571 0l-8.323-8.075c-.546-.467-.546-1.335 0-1.802l2.728-2.67c.478-.467 1.296-.467 1.842 0l8.323 8.076c1.228 1.268 1.228 3.27 0 4.471z" fill="url(#Ar)"/><path d="M15.793 23.433c-.614 0-1.092-.467-1.092-1.068s.545-1.134 1.16-1.134 1.16.467 1.16 1.068c-.068.667-.545 1.134-1.16 1.134h-.068zm.068-3.403c-.614 0-1.092-.467-1.16-1.068v-.134-2.202c0-1.134.75-2.135 1.842-2.536.887-.267 1.432-1.134 1.364-2.002-.068-1.001-.887-1.868-1.979-1.935h-.136c-.887 0-1.706.6-1.979 1.468-.137.467-.614.734-1.092.734-.136 0-.273 0-.409-.067-.546-.2-.887-.734-.751-1.335a4.45 4.45 0 0 1 4.23-3.137h.273c1.16.067 2.251.534 3.002 1.401s1.16 1.936 1.092 3.07c-.069 1.668-1.228 3.203-2.797 3.804h-.069-.068c-.137.067-.273.2-.205.401v2.135c0 .334 0-.07 0 .334S16.543 20 15.929 20.03h-.068z" fill="url(#As)"/></g></g></svg>