<?xml version="1.0" encoding="UTF-8"?>
<svg width="191px" height="179px" viewBox="0 0 191 179" version="1.1" xmlns="http://www.w3.org/2000/svg" xmlns:xlink="http://www.w3.org/1999/xlink">
    <title>16</title>
    <defs>
        <linearGradient x1="0.00975120497%" y1="50.0572155%" x2="100.023681%" y2="50.0572155%" id="linearGradient-1">
            <stop stop-color="#83A6FF" offset="0%"></stop>
            <stop stop-color="#5A78FF" offset="100%"></stop>
        </linearGradient>
        <linearGradient x1="49.748924%" y1="86.1356812%" x2="49.748924%" y2="32.6665585%" id="linearGradient-2">
            <stop stop-color="#4F6AFF" offset="0%"></stop>
            <stop stop-color="#657EFF" stop-opacity="0" offset="100%"></stop>
        </linearGradient>
        <linearGradient x1="-0.0655912436%" y1="49.9026512%" x2="100.034845%" y2="49.9026512%" id="linearGradient-3">
            <stop stop-color="#627AFF" offset="0%"></stop>
            <stop stop-color="#273DD1" offset="100%"></stop>
        </linearGradient>
        <linearGradient x1="38.2391467%" y1="48.8295347%" x2="83.7633407%" y2="50.7899546%" id="linearGradient-4">
            <stop stop-color="#52D987" offset="0%"></stop>
            <stop stop-color="#1A8C89" offset="100%"></stop>
        </linearGradient>
        <linearGradient x1="38.2391467%" y1="47.1285958%" x2="83.7633407%" y2="51.9379294%" id="linearGradient-5">
            <stop stop-color="#52D987" offset="0%"></stop>
            <stop stop-color="#1A8C89" offset="100%"></stop>
        </linearGradient>
        <linearGradient x1="38.2391467%" y1="43.5978891%" x2="83.7633407%" y2="54.3208263%" id="linearGradient-6">
            <stop stop-color="#52D987" offset="0%"></stop>
            <stop stop-color="#1A8C89" offset="100%"></stop>
        </linearGradient>
        <linearGradient x1="67.5256172%" y1="48.9729013%" x2="43.4404586%" y2="50.7921167%" id="linearGradient-7">
            <stop stop-color="#0C1E82" offset="0%"></stop>
            <stop stop-color="#001DB5" stop-opacity="0" offset="100%"></stop>
        </linearGradient>
        <linearGradient x1="38.2391467%" y1="25.9496455%" x2="83.7633407%" y2="66.2317408%" id="linearGradient-8">
            <stop stop-color="#52D987" offset="0%"></stop>
            <stop stop-color="#1A8C89" offset="100%"></stop>
        </linearGradient>
    </defs>
    <g id="Sortie-SCO" stroke="none" stroke-width="1" fill="none" fill-rule="evenodd">
        <g id="Exitix-email----confirmation" transform="translate(-315.000000, -342.000000)">
            <g id="16" transform="translate(315.000000, 342.000000)">
                <path d="M179.90215,100.062598 C179.90215,128.9695 164.286666,154.381107 141.021084,168.041045 C141.021084,168.041045 140.86264,168.199268 140.702597,168.199268 C139.11016,169.153402 137.516123,169.946116 135.922085,170.740429 C135.126667,171.216696 134.329648,171.534741 133.53263,171.852786 C133.214142,172.011009 132.895655,172.17083 132.577168,172.329054 L132.417124,172.329054 C132.098636,172.487277 131.620105,172.647098 131.301618,172.805321 C128.912162,173.917679 126.361063,174.711991 123.811563,175.506304 C123.493076,175.664527 123.016145,175.82275 122.697658,175.82275 C122.537614,175.82275 122.37757,175.982571 122.219126,175.982571 C122.059082,175.982571 121.900639,175.982571 121.900639,176.140795 C121.740595,176.140795 121.582152,176.140795 121.422108,176.300616 C118.07559,177.253152 114.570628,177.887643 110.905623,178.365509 C107.559105,178.841777 104.212587,179 100.866069,179 C95.4485828,179 90.1895402,178.523732 85.0905415,177.411375 C84.7720541,177.411375 84.4535667,177.253152 84.1350794,177.253152 C83.0195734,177.09333 81.9040674,176.776884 80.7885614,176.458839 C79.6730554,176.140795 78.5575494,175.82275 77.4420434,175.506304 C72.9800194,174.075902 68.5195958,172.329054 64.3760592,170.264161 C38.8810656,157.082089 21.5115009,130.556527 21.5115009,100.062598 C21.5115009,56.385 57.0460485,21.1235982 100.707625,21.1235982 C144.527646,21.1235982 179.90215,56.385 179.90215,100.062598 Z" id="Path" fill="#EAEEF9" fill-rule="nonzero"></path>
                <path d="M93.8545456,64.1667054 C86.2060475,57.9720268 82.2225547,47.6491607 83.6565481,37.9607857 C85.2505854,27.0002321 93.0591274,24.9353393 97.0426201,26.6837857 C99.9106068,27.9543661 101.663088,31.7661071 100.06905,34.6253125 C97.3611074,39.7076339 87.0030661,37.6427411 84.932098,28.9069018 C84.1350794,25.7296518 84.932098,22.2359554 86.8446226,19.5365714 C90.0310967,15.2469643 95.9271141,13.6599375 101.184556,12.865625 C102.460106,12.865625 103.734056,12.7058036 104.849562,12.5475804 C107.717548,12.2295357 111.22411,11.7532679 114.889116,11.277" id="Path" stroke="#D5DAE8" stroke-width="1.6" stroke-linecap="round" stroke-linejoin="round"></path>
                <polyline id="Path" fill="#D5DAE8" fill-rule="nonzero" points="122.856101 13.1820714 117.917146 15.4067857 118.712564 6.98899107"></polyline>
                <polygon id="Path" fill="#EAEEF9" fill-rule="nonzero" points="154.565599 2.85920536 152.334587 4.12978571 126.521106 18.5824375 119.82807 8.73583929 118.712564 6.98899107 113.932053 0 150.423663 2.54116071"></polygon>
                <polygon id="Path" fill="#D5DAE8" fill-rule="nonzero" points="154.565599 2.85920536 152.334587 4.12978571 119.82807 8.73583929 118.712564 6.98899107 150.423663 2.54116071"></polygon>
                <path d="M24.3282736,53.7958929 C26.4216478,53.11825 27.5659617,50.8775536 26.8857751,48.7918839 C26.2055885,46.7078125 23.9585722,45.5666875 21.8667984,46.2443304 C19.7734241,46.9219732 18.6291102,49.1610714 19.3092968,51.2467411 C19.9894834,53.3324107 22.2364998,54.4735357 24.3282736,53.7958929 Z" id="Path" fill="#EAEEF9" fill-rule="nonzero"></path>
                <path d="M33.0250592,40.8407679 C34.4478495,40.3804821 35.2256629,38.8557857 34.763136,37.4381696 C34.3006091,36.0205536 32.7737903,35.2438214 31.351,35.7057054 C29.9282097,36.1659911 29.1487959,37.6890893 29.6113228,39.1083036 C30.0738497,40.5259196 31.6022689,41.3010536 33.0250592,40.8407679 Z" id="Path" fill="#EAEEF9" fill-rule="nonzero"></path>
                <path d="M65.7556376,22.1912054 C68.2251151,19.9425179 68.396362,16.1243839 66.1413435,13.6631339 C63.8847244,11.2034821 60.0548739,11.030875 57.5853964,13.2795625 C55.1175195,15.52825 54.9446721,19.3463839 57.2012911,21.8060357 C59.4563097,24.2672857 63.2877607,24.4398929 65.7556376,22.1912054 Z" id="Path" fill="#EAEEF9" fill-rule="nonzero"></path>
                <path d="M190.170566,53.1582054 C191.209251,52.2104643 191.282871,50.6026607 190.332211,49.5670179 C189.38315,48.531375 187.769908,48.4594554 186.731223,49.4055982 C185.690937,50.3517411 185.618918,51.9595446 186.567978,52.9951875 C187.518639,54.0324286 189.131881,54.1043482 190.170566,53.1582054 Z" id="Path" fill="#EAEEF9" fill-rule="nonzero"></path>
                <path d="M124.608582,132.304973 L124.608582,175.982571 C124.290094,176.140795 123.971607,176.140795 123.65312,176.300616 C119.988114,177.253152 116.163065,178.047464 112.339616,178.523732 L112.339616,132.304973 L124.608582,132.304973 Z" id="Path" fill="#4988FD" fill-rule="nonzero"></path>
                <path d="M124.608582,132.304973 L124.608582,175.982571 C124.290094,176.140795 123.971607,176.140795 123.65312,176.300616 C119.988114,177.253152 116.163065,178.047464 112.339616,178.523732 L112.339616,132.304973 L124.608582,132.304973 Z" id="Path" fill="#FFFFFF" fill-rule="nonzero"></path>
                <path d="M135.922085,132.304973 L135.922085,170.90025 C135.126667,171.376518 134.329648,171.694562 133.53263,172.011009 C133.214142,172.17083 132.895655,172.329054 132.575567,172.487277 L132.417124,172.487277 C132.098636,172.647098 131.620105,172.805321 131.301618,172.965143 C128.912162,174.075902 126.361063,174.870214 123.811563,175.664527 L123.811563,132.304973 L135.922085,132.304973 Z" id="Path" fill="#2767F4" fill-rule="nonzero"></path>
                <path d="M135.922085,132.304973 L135.922085,170.90025 C135.126667,171.376518 134.329648,171.694562 133.53263,172.011009 C133.214142,172.17083 132.895655,172.329054 132.575567,172.487277 L132.417124,172.487277 C132.098636,172.647098 131.620105,172.805321 131.301618,172.965143 C128.912162,174.075902 126.361063,174.870214 123.811563,175.664527 L123.811563,132.304973 L135.922085,132.304973 Z" id="Path" fill="#D5DAE8" fill-rule="nonzero"></path>
                <path d="M135.922085,148.980741 L135.922085,168.199268 C135.285111,168.517313 134.648136,168.835357 134.011161,169.153402 C133.691073,169.311625 133.372586,169.469848 133.054099,169.62967 L132.895655,169.62967 C132.575567,169.787893 132.098636,169.946116 131.780149,170.105937 C129.389093,171.216696 126.839594,172.011009 124.290094,172.805321 C124.131651,172.805321 123.971607,172.965143 123.811563,172.965143 L123.811563,168.835357 C123.971607,168.359089 124.131651,167.881223 124.290094,167.404955 C126.68115,161.211875 129.707581,156.287777 133.214142,152.157991 C134.011161,151.045634 134.966623,149.934875 135.922085,148.980741 Z" id="Path" fill="#062C78" fill-rule="nonzero" opacity="0.1"></path>
                <polygon id="Path" fill="#062C78" fill-rule="nonzero" opacity="0.1" points="135.922085 132.304973 112.339616 132.304973 112.339616 145.963312 135.922085 145.963312"></polygon>
                <path d="M185.958211,84.0197232 L185.958211,132.939464 L147.71412,132.939464 L147.71412,133.097687 L71.0690952,133.097687 L71.0690952,45.2662232 L143.890671,45.2662232 C144.846133,45.108 145.801595,45.108 146.917101,45.108 C148.192651,45.108 149.308157,45.108 150.582107,45.2662232 C152.176144,45.4244464 153.610137,45.5842679 155.044131,45.9007143 C162.534185,47.4893393 169.225621,51.3010804 174.484663,56.3834018 C181.65463,63.5322143 185.958211,73.3788125 185.958211,84.0197232 Z" id="Path" fill="url(#linearGradient-1)" fill-rule="nonzero"></path>
                <path d="M155.044131,46.0605357 L155.044131,82.4326964 C155.044131,83.7032768 154.088669,84.6558125 152.813119,84.6558125 C151.539169,84.6558125 150.582107,83.7032768 150.582107,82.4326964 L150.582107,45.2662232 C152.0161,45.4244464 153.610137,45.7424911 155.044131,46.0605357 Z" id="Path" fill="url(#linearGradient-2)" fill-rule="nonzero"></path>
                <path d="M153.610137,95.4565446 C158.449865,95.4565446 162.374141,91.5457143 162.374141,86.7207054 C162.374141,81.8956964 158.449865,77.9848661 153.610137,77.9848661 C148.77041,77.9848661 144.846133,81.8956964 144.846133,86.7207054 C144.846133,91.5457143 148.77041,95.4565446 153.610137,95.4565446 Z" id="Path" fill="#5C71FF" fill-rule="nonzero"></path>
                <path d="M155.044131,94.3441875 C160.059907,94.3441875 164.126622,90.4333571 164.126622,85.6083482 C164.126622,80.7849375 160.059907,76.8725089 155.044131,76.8725089 C150.028355,76.8725089 145.961639,80.7849375 145.961639,85.6083482 C145.961639,90.4333571 150.028355,94.3441875 155.044131,94.3441875 Z" id="Path" fill="#D5DAE8" fill-rule="nonzero"></path>
                <path d="M155.522662,94.3441875 C160.36239,94.3441875 164.286666,90.4333571 164.286666,85.6083482 C164.286666,80.7849375 160.36239,76.8725089 155.522662,76.8725089 C150.681334,76.8725089 146.758658,80.7849375 146.758658,85.6083482 C146.758658,90.4333571 150.681334,94.3441875 155.522662,94.3441875 Z" id="Path" fill="#EAEEF9" fill-rule="nonzero"></path>
                <path d="M155.522662,88.9438214 C157.371169,88.9438214 158.86918,87.4510893 158.86918,85.6083482 C158.86918,83.7672054 157.371169,82.272875 155.522662,82.272875 C153.674155,82.272875 152.176144,83.7672054 152.176144,85.6083482 C152.176144,87.4510893 153.674155,88.9438214 155.522662,88.9438214 Z" id="Path" fill="#D5DAE8" fill-rule="nonzero"></path>
                <path d="M109.153142,80.2079821 L109.153142,133.099286 L31.0725236,133.099286 L31.0725236,80.2079821 C31.0725236,63.5322143 42.8645583,49.5542321 58.4800419,46.0605357 C61.0295412,45.4244464 63.5790406,45.2662232 66.2885838,45.2662232 L74.2555693,45.2662232 C91.7835775,45.2662232 106.283555,57.9720268 108.993098,74.8076161 C108.993098,76.3962411 109.153142,78.3029107 109.153142,80.2079821 Z" id="Path" fill="url(#linearGradient-3)" fill-rule="nonzero"></path>
                <path d="M158.072161,43.2013304 L158.072161,85.2903036 C158.072161,86.5608839 157.115099,87.5150179 155.841149,87.5150179 C154.565599,87.5150179 153.610137,86.5608839 153.610137,85.2903036 L153.610137,43.2013304 L158.072161,43.2013304 Z" id="Path" fill="#FFFFFF" fill-rule="nonzero"></path>
                <path d="M96.7241327,110.703509 C96.7241327,114.038982 94.0145895,116.739964 90.6680715,116.739964 C28.2045369,116.739964 32.1880296,117.056411 30.1170615,115.78583 C28.3629803,114.675071 27.2490748,112.768402 27.2490748,110.703509 C30.9124797,69.2490268 30.275505,69.7252946 32.8250043,67.3439554 C35.2160602,65.2790625 31.8695422,65.9135536 94.0145895,65.9135536 C95.9271141,65.9135536 97.6795948,66.8676875 98.7951008,68.1382679 C100.866069,70.8376518 100.389138,69.8851161 96.7241327,110.703509 Z" id="Path" fill="#FFFFFF" fill-rule="nonzero"></path>
                <path d="M99.4320755,69.0908036 C67.8810207,95.7729911 68.6780393,96.2508571 64.0575718,96.2508571 C59.1170166,96.2508571 59.5955479,95.6147679 31.5510549,69.0908036 C33.9405103,64.6429732 32.506517,65.9135536 94.1746334,65.9135536 C96.4040449,65.9135536 98.4766134,67.1841339 99.4320755,69.0908036 Z" id="Path" fill="#EAEEF9" fill-rule="nonzero"></path>
                <path d="M23.4240255,77.8266429 L2.70954326,77.8266429 C1.75248073,77.8266429 0.955462096,77.0323304 0.955462096,76.0781964 C0.955462096,75.1256607 1.75248073,74.3313482 2.70954326,74.3313482 L23.4240255,74.3313482 C24.3794876,74.3313482 25.1765063,75.1256607 25.1765063,76.0781964 C25.1765063,77.0323304 24.3794876,77.8266429 23.4240255,77.8266429 Z" id="Path" fill="url(#linearGradient-4)" fill-rule="nonzero"></path>
                <path d="M22.4685634,87.6732411 L10.5164848,87.6732411 C9.56102272,87.6732411 8.76400408,86.8789286 8.76400408,85.9263929 C8.76400408,84.9738571 9.56102272,84.1795446 10.5164848,84.1795446 L22.4685634,84.1795446 C23.4240255,84.1795446 24.2210442,84.9738571 24.2210442,85.9263929 C24.2210442,86.8789286 23.4240255,87.6732411 22.4685634,87.6732411 Z" id="Path" fill="url(#linearGradient-5)" fill-rule="nonzero"></path>
                <path d="M21.3530574,97.0451696 L14.6600214,97.0451696 C13.7045593,97.0451696 12.9075407,96.2508571 12.9075407,95.2967232 C12.9075407,94.3441875 13.7045593,93.549875 14.6600214,93.549875 L21.5115009,93.549875 C22.4685634,93.549875 23.2639816,94.3441875 23.2639816,95.2967232 C23.2639816,96.2508571 22.4685634,97.0451696 21.3530574,97.0451696 Z" id="Path" fill="url(#linearGradient-6)" fill-rule="nonzero"></path>
                <path d="M109.153142,87.5150179 L108.674611,74.6493929 C105.965068,57.9720268 91.4650901,45.108 73.9370819,45.108 L65.9700965,45.108 C63.2605532,45.108 60.7110539,45.4244464 58.1615545,45.9007143 L57.2060924,46.6950268 L76.9651126,127.69892 L108.993098,129.445768 L108.993098,87.5150179 L109.153142,87.5150179 Z" id="Path" fill="url(#linearGradient-7)" fill-rule="nonzero" opacity="0.5"></path>
                <path d="M179.583662,41.7725268 C180.220637,42.2487946 179.90215,43.3595536 178.946687,43.3595536 L158.230605,43.3595536 L153.450093,43.3595536 L153.450093,26.0476964 L178.946687,26.0476964 C179.743706,26.0476964 180.220637,27.0002321 179.583662,27.6363214 L172.890626,33.1949107 C171.935164,33.9892232 171.935164,35.4180268 172.890626,36.2123393 L179.583662,41.7725268 Z" id="Path" fill="url(#linearGradient-8)" fill-rule="nonzero"></path>
                <path d="M90.8281154,162.958723 C88.5971034,166.294196 85.8875601,171.694562 84.2951233,176.300616 C84.1350794,176.617063 83.9750355,177.09333 83.9750355,177.411375 C82.8595295,177.253152 81.7456239,176.935107 80.6301179,176.617063 C79.6730554,174.393946 79.0360807,172.011009 79.0360807,172.011009 C79.6730554,171.216696 80.1515866,170.582205 80.7885614,169.946116 C83.816592,166.134375 87.0030661,163.593214 90.8281154,162.958723 Z" id="Path" fill="#B6BED6" fill-rule="nonzero"></path>
                <path d="M84.932098,177.571196 C84.6136106,177.571196 84.2951233,177.411375 83.9750355,177.411375 C82.8595295,177.253152 81.7440235,176.935107 80.6301179,176.617062 C79.8330993,176.458839 79.1945241,176.140795 78.3991059,175.982571 C78.0806186,175.82275 77.7605307,175.82275 77.4420434,175.664527 C77.123556,175.506304 76.8050687,175.506304 76.3265374,175.346482 C72.1846012,174.075902 68.2011085,172.329054 64.3760592,170.423982 C60.3925665,163.753036 58.1615545,155.493464 54.3365052,144.216464 C54.3365052,144.058241 54.3365052,144.058241 54.1780618,143.89842 C54.1780618,143.89842 54.4965491,143.89842 55.2935678,144.216464 C55.772099,144.534509 56.5675172,144.852554 57.5245798,145.487045 C59.435504,146.757625 62.4635346,148.980741 66.9255586,152.634259 C72.5030886,157.240312 77.2835999,164.069482 80.6301179,169.787893 C82.0641113,172.329054 83.3380607,174.55217 84.2951233,176.300616 C84.6136106,176.617062 84.7720541,177.09333 84.932098,177.571196 Z" id="Path" fill="#D5DAE8" fill-rule="nonzero"></path>
                <path d="M78.3991059,175.82275 C78.0806186,175.664527 77.7605307,175.664527 77.4420434,175.506304 C77.123556,175.346482 76.8050687,175.346482 76.3265374,175.188259 C68.9965267,160.417562 60.7110539,151.045634 55.772099,145.645268 C55.2935678,145.010777 54.8150365,144.534509 54.3365052,144.058241 C54.3365052,143.89842 54.3365052,143.89842 54.1780618,143.740196 C54.1780618,143.740196 54.4965491,143.740196 55.2935678,144.058241 C55.772099,144.374687 56.5675172,144.692732 57.5245798,145.328821 C62.6235785,151.045634 71.0690952,160.734009 78.3991059,175.82275 Z" id="Path" fill="#EAEEF9" fill-rule="nonzero"></path>
                <path d="M124.608582,175.982571 C124.768626,175.982571 124.768626,175.982571 124.927069,175.982571 C124.768626,175.982571 124.450138,176.140795 124.290094,176.140795 C124.290094,175.982571 124.450138,175.982571 124.608582,175.982571 Z" id="Path" fill="#D5DAE8" fill-rule="nonzero"></path>
                <path d="M125.087113,175.824348 C125.247157,175.824348 125.247157,175.824348 125.4056,175.664527 C125.247157,175.664527 124.927069,175.824348 124.768626,175.824348 C124.927069,175.824348 124.927069,175.824348 125.087113,175.824348 Z" id="Path" fill="#D5DAE8" fill-rule="nonzero"></path>
                <path d="M152.973163,141.039214 C152.973163,141.039214 152.813119,141.357259 152.494631,141.993348 C150.582107,145.487045 144.049115,157.558357 141.021084,167.882821 C141.021084,167.882821 140.86264,168.041045 140.702597,168.041045 C139.11016,168.99358 137.516123,169.787893 135.922085,170.582205 C135.126667,171.058473 134.329648,171.376518 133.53263,171.694562 C133.214142,171.852786 132.895655,172.011009 132.577168,172.17083 L132.417124,172.17083 C132.098636,172.329054 131.620105,172.487277 131.301618,172.647098 C128.912162,173.759455 126.362663,174.55217 123.813164,175.346482 C123.493076,175.506304 123.016145,175.664527 122.697658,175.664527 C122.537614,175.664527 122.37757,175.82275 122.219126,175.82275 C122.059082,175.82275 121.900639,175.82275 121.900639,175.982571 C122.537614,173.917679 123.174588,171.852786 123.971607,170.105937 C126.362663,163.911259 129.389093,158.987161 132.895655,154.857375 C134.011161,153.586795 135.126667,152.316214 136.242173,151.205455 C140.86264,146.599402 145.801595,143.581973 150.423663,141.993348 C151.060638,141.675304 152.0161,141.357259 152.973163,141.039214 Z" id="Path" fill="#D5DAE8" fill-rule="nonzero"></path>
                <path d="M152.973163,141.039214 C152.973163,141.039214 152.813119,141.357259 152.494631,141.993348 C146.44017,147.233893 140.86264,155.493464 135.922085,166.134375 C135.125067,168.041045 134.329648,169.787893 133.53263,171.852786 C133.214142,172.011009 132.895655,172.17083 132.575567,172.329054 L132.417124,172.329054 C132.098636,172.487277 131.620105,172.647098 131.301618,172.805321 C131.461662,172.487277 131.620105,172.329054 131.620105,172.329054 C133.054099,168.835357 134.488092,165.499884 135.922085,162.482455 C140.225666,153.746616 145.004577,146.757625 150.105176,141.993348 C151.060638,141.675304 152.0161,141.357259 152.973163,141.039214 Z" id="Path" fill="#EAEEF9" fill-rule="nonzero"></path>
                <path d="M130.98313,176.140795 C130.664643,176.935107 130.504599,177.72942 130.186112,178.523732" id="Path" stroke="#FFFFFF" stroke-width="1.6"></path>
                <path d="M109.153142,74.6493929 C106.443599,57.9720268 91.6235336,45.108 74.0955254,45.108 L66.1285399,45.108 C63.4205971,45.108 60.8710978,45.4244464 58.3215984,45.9023125 C47.1665384,48.4434732 38.084047,56.2251786 33.622023,66.3898214 C34.1005542,66.073375 34.8975729,65.9135536 36.4900097,65.7553304 C40.7919898,57.0194911 48.9190191,50.3485446 58.7985292,48.1254286 C61.0295412,47.6491607 63.5790406,47.3311161 65.9700965,47.3311161 L73.9370819,47.3311161 C90.1895402,47.3311161 103.734056,58.9261607 106.283555,74.8076161 C106.603643,76.3962411 106.762086,78.1430893 106.762086,79.8915357 L106.762086,130.398304 L33.4635795,130.398304 L33.4635795,116.42192 C32.1880296,116.42192 31.5510549,116.262098 31.0725236,116.103875 L31.0725236,132.781241 L109.630073,132.781241 L109.630073,80.2079821 C109.630073,78.3029107 109.47163,76.3962411 109.153142,74.6493929 Z" id="Path" fill="#96A7FF" fill-rule="nonzero"></path>
                <path d="M109.630073,127.539098 L109.630073,133.099286 L2.86798673,133.099286 C1.2755499,133.099286 0,131.827107 0,130.398304 C0,128.809679 1.2755499,127.539098 2.86798673,127.539098 L109.630073,127.539098 Z" id="Path" fill="#7894FF" fill-rule="nonzero"></path>
            </g>
        </g>
    </g>
</svg>