<?xml version="1.0" encoding="UTF-8"?>
<svg width="367px" height="267px" viewBox="0 0 367 267" version="1.1" xmlns="http://www.w3.org/2000/svg" xmlns:xlink="http://www.w3.org/1999/xlink">
    <title>79100913-0F74-4FB7-A544-951D484224B4@1.5x</title>
    <defs>
        <path d="M1.05945836,-1.73720878e-14 L21.1891672,-1.73720878e-14 C21.7742899,-1.73720878e-14 22.2486256,0.474335665 22.2486256,1.05945836 L22.2486256,16.4438845 L22.2486256,16.4438845 C18.6199018,17.3809435 14.9117975,17.849473 11.1243128,17.849473 C7.33682809,17.849473 3.6287238,17.3809435 6.94883511e-14,16.4438845 L6.94883511e-14,1.05945836 C6.94883511e-14,0.474335665 0.474335665,-1.73720878e-14 1.05945836,-1.73720878e-14 Z" id="path-1"></path>
        <linearGradient x1="50%" y1="0%" x2="50%" y2="100%" id="linearGradient-3">
            <stop stop-color="#F24645" offset="0%"></stop>
            <stop stop-color="#F1A141" offset="100%"></stop>
        </linearGradient>
        <rect id="path-4" x="0" y="0" width="14.2391195" height="14.2391195"></rect>
        <path d="M1.05945836,-1.73720878e-14 L21.1891672,-1.73720878e-14 C21.7742899,-1.73720878e-14 22.2486256,0.474335665 22.2486256,1.05945836 L22.2486256,16.4438845 L22.2486256,16.4438845 C18.6199018,17.3809435 14.9117975,17.849473 11.1243128,17.849473 C7.33682809,17.849473 3.6287238,17.3809435 6.94883511e-14,16.4438845 L6.94883511e-14,1.05945836 C6.94883511e-14,0.474335665 0.474335665,-1.73720878e-14 1.05945836,-1.73720878e-14 Z" id="path-6"></path>
        <linearGradient x1="50%" y1="100%" x2="50%" y2="0%" id="linearGradient-8">
            <stop stop-color="#52D987" offset="0%"></stop>
            <stop stop-color="#1A8C89" offset="100%"></stop>
        </linearGradient>
        <rect id="path-9" x="0" y="0" width="14.2391195" height="14.2391195"></rect>
        <path d="M1.05945836,-1.73720878e-14 L21.1891672,-1.73720878e-14 C21.7742899,-1.73720878e-14 22.2486256,0.474335665 22.2486256,1.05945836 L22.2486256,16.4438845 L22.2486256,16.4438845 C18.6199018,17.3809435 14.9117975,17.849473 11.1243128,17.849473 C7.33682809,17.849473 3.6287238,17.3809435 6.94883511e-14,16.4438845 L6.94883511e-14,1.05945836 C6.94883511e-14,0.474335665 0.474335665,-1.73720878e-14 1.05945836,-1.73720878e-14 Z" id="path-11"></path>
        <linearGradient x1="50%" y1="100%" x2="50%" y2="0%" id="linearGradient-13">
            <stop stop-color="#12A3FF" offset="0%"></stop>
            <stop stop-color="#3D68FF" offset="100%"></stop>
        </linearGradient>
        <rect id="path-14" x="0" y="0" width="14.2391195" height="14.2391195"></rect>
        <path d="M1.05945836,-1.73720878e-14 L21.1891672,-1.73720878e-14 C21.7742899,-1.73720878e-14 22.2486256,0.474335665 22.2486256,1.05945836 L22.2486256,16.4438845 L22.2486256,16.4438845 C18.6199018,17.3809435 14.9117975,17.849473 11.1243128,17.849473 C7.33682809,17.849473 3.6287238,17.3809435 6.94883511e-14,16.4438845 L6.94883511e-14,1.05945836 C6.94883511e-14,0.474335665 0.474335665,-1.73720878e-14 1.05945836,-1.73720878e-14 Z" id="path-16"></path>
        <linearGradient x1="50%" y1="100%" x2="50%" y2="0%" id="linearGradient-18">
            <stop stop-color="#FF3F93" offset="0%"></stop>
            <stop stop-color="#AC008D" offset="100%"></stop>
        </linearGradient>
        <rect id="path-19" x="0" y="0" width="14.2391195" height="14.2391195"></rect>
        <path d="M1.05945836,-1.73720878e-14 L21.1891672,-1.73720878e-14 C21.7742899,-1.73720878e-14 22.2486256,0.474335665 22.2486256,1.05945836 L22.2486256,16.4438845 L22.2486256,16.4438845 C18.6199018,17.3809435 14.9117975,17.849473 11.1243128,17.849473 C7.33682809,17.849473 3.6287238,17.3809435 6.94883511e-14,16.4438845 L6.94883511e-14,1.05945836 C6.94883511e-14,0.474335665 0.474335665,-1.73720878e-14 1.05945836,-1.73720878e-14 Z" id="path-21"></path>
        <linearGradient x1="50%" y1="-2.22044605e-14%" x2="50%" y2="100%" id="linearGradient-23">
            <stop stop-color="#5E2563" offset="0%"></stop>
            <stop stop-color="#564DA6" offset="100%"></stop>
        </linearGradient>
        <rect id="path-24" x="0" y="0" width="14.2391195" height="14.2391195"></rect>
        <linearGradient x1="0%" y1="49.9827527%" x2="100%" y2="49.9827527%" id="linearGradient-26">
            <stop stop-color="#ECF2FE" offset="0%"></stop>
            <stop stop-color="#CDDBFF" offset="100%"></stop>
        </linearGradient>
        <linearGradient x1="0%" y1="50.0172473%" x2="100%" y2="50.0172473%" id="linearGradient-27">
            <stop stop-color="#ECF2FE" offset="0%"></stop>
            <stop stop-color="#CDDBFF" offset="100%"></stop>
        </linearGradient>
        <linearGradient x1="0%" y1="50%" x2="100.008303%" y2="50%" id="linearGradient-28">
            <stop stop-color="#ECF2FE" offset="0%"></stop>
            <stop stop-color="#CDDBFF" offset="100%"></stop>
        </linearGradient>
    </defs>
    <g id="Sortie-SCO" stroke="none" stroke-width="1" fill="none" fill-rule="evenodd">
        <g id="Form-Exitix" transform="translate(-185.000000, -334.000000)">
            <g id="Group" transform="translate(184.000000, 331.000000)">
                <g id="Discover_new_technology" transform="translate(1.680000, 3.360000)">
                    <g id="Discover_new_technology-2" transform="translate(0.000000, 0.000000)">
                        <g id="BG">
                            <g id="Chatting-by-using-apps-Copy" transform="translate(-0.000000, -0.000000)">
                                <g id="BG" transform="translate(-0.000000, 0.000000)">
                                    <g id="Group_592" transform="translate(-0.000000, 0.000000)">
                                        <g id="Group_655" transform="translate(0.000000, -0.000000)">
                                            <g id="Group_625">
                                                <path d="M293.320716,7.15177917e-15 L101.8489,7.15177917e-15 C98.5691378,0.00932395548 95.9125979,2.66561948 95.9029715,5.94538064 L95.9029715,6.10255863 C95.9125962,9.38240923 98.5690491,12.0388624 101.8489,12.0484869 L107.754849,12.0484869 L107.754849,147.502506 L286.024261,147.502506 L286.024261,12.0484869 L293.320716,12.0484869 C296.600566,12.0388624 299.25702,9.38240923 299.266644,6.10255863 L299.266644,5.94538064 C299.257018,2.66561948 296.600478,0.00932395548 293.320716,7.15177917e-15 Z" id="Path_1472" fill="#3478F6" fill-rule="nonzero"></path>
                                                <rect id="Rectangle_109" fill="#FFFFFF" fill-rule="nonzero" x="104.294195" y="6.12829858" width="178.268865" height="141.478262"></rect>
                                                <path d="M322.044057,199.552263 C314.782653,186.692941 293.171416,178.666424 279.384164,176.5633 C264.288665,174.260508 248.817912,172.284698 233.440251,172.806479 C225.078349,173.091371 216.727981,173.578019 208.380496,174.065362 C194.359275,174.88421 180.343822,175.775759 166.314775,176.492686 C150.648361,177.29275 134.565911,178.573199 118.899496,177.134824 C110.395483,176.353892 102.331809,174.06084 93.849628,173.192249 C75.0209318,171.264443 55.4462552,171.11104 36.6686366,173.487925 C23.0280269,175.214323 0.806545827,179.887274 0.0314434935,193.224261 C-0.743658839,206.561249 12.6721891,214.03711 55.7494254,216.222113 C92.0841542,217.439601 92.0520251,226.891485 91.6561734,229.38351 C91.6559697,229.384779 91.6559697,229.386067 91.6561734,229.387336 C86.5245193,236.379198 61.1708497,236.394748 72.0814967,245.929367 C81.9786959,254.578352 200.986932,278.878438 268.335738,257.383301 C335.684544,235.888163 329.305461,212.411584 322.044057,199.552263 Z" id="Path_723" fill="#ECF0FF" fill-rule="nonzero"></path>
                                                <g id="carte-dom1-HOVER" opacity="0.638907296" transform="translate(122.023010, 99.691652)">
                                                    <g id="CARD" transform="translate(0.000000, -0.000000)">
                                                        <g id="card" transform="translate(0.105946, 0.000000)">
                                                            <g id="path-6-link" fill="#000000" fill-rule="nonzero">
                                                                <rect id="path-6" x="-5.82867088e-16" y="-1.06953673e-15" width="22.1426798" height="31.7837508" rx="2.52251991"></rect>
                                                            </g>
                                                            <g id="path-6-link" fill="#FFFFFF" stroke="#D0D0D0" stroke-width="1.155">
                                                                <rect id="path-6" x="-5.82867088e-16" y="-1.06953673e-15" width="22.1426798" height="31.7837508" rx="2.52251991"></rect>
                                                            </g>
                                                        </g>
                                                        <g id="mask" transform="translate(0.000000, -0.000000)" fill="#000000" fill-rule="nonzero">
                                                            <path d="M1.05945836,-1.73720878e-14 L21.1891672,-1.73720878e-14 C21.7742899,-1.73720878e-14 22.2486256,0.474335665 22.2486256,1.05945836 L22.2486256,16.4438845 L22.2486256,16.4438845 C18.6199018,17.3809435 14.9117975,17.849473 11.1243128,17.849473 C7.33682809,17.849473 3.6287238,17.3809435 6.94883511e-14,16.4438845 L6.94883511e-14,1.05945836 C6.94883511e-14,0.474335665 0.474335665,-1.73720878e-14 1.05945836,-1.73720878e-14 Z" id="path-8"></path>
                                                        </g>
                                                        <g id="Color-dom-Clipped" transform="translate(0.000000, -0.000000)">
                                                            <mask id="mask-2" fill="white">
                                                                <use xlink:href="#path-1"></use>
                                                            </mask>
                                                            <g id="path-8"></g>
                                                            <g id="Color-dom" mask="url(#mask-2)" fill="url(#linearGradient-3)" fill-rule="nonzero">
                                                                <g id="Primary">
                                                                    <rect id="Rectangle" x="0" y="0" width="22.2486256" height="19.4940338"></rect>
                                                                </g>
                                                            </g>
                                                        </g>
                                                    </g>
                                                    <g id="LEVEL" transform="translate(1.228428, 11.418244)">
                                                        <g id="Circle" transform="translate(0.000000, 0.000000)">
                                                            <circle id="cercle-blanc" fill="#FFFFFF" fill-rule="nonzero" opacity="0.3" cx="9.643788" cy="9.643788" r="9.643788"></circle>
                                                            <circle id="cercle-blanc" fill="#FFFFFF" fill-rule="nonzero" cx="9.643788" cy="9.643788" r="8.13663971"></circle>
                                                            <circle id="cercle-gris" stroke="#DDDDDD" stroke-width="1.51351185" cx="9.643788" cy="9.643788" r="6.80172226"></circle>
                                                        </g>
                                                        <g id="Combined-Shape-Clipped" transform="translate(2.572040, 2.572040)">
                                                            <mask id="mask-5" fill="white">
                                                                <use xlink:href="#path-4"></use>
                                                            </mask>
                                                            <g id="path-11"></g>
                                                            <path d="M7.11955978,0 C8.94851588,0 10.705884,0.703947959 12.0275726,1.9615838 L12.1541056,2.08501393 C13.489023,3.41993139 14.2391195,5.23160509 14.2391195,7.11955978 C14.2391195,9.00751446 13.489023,10.8191882 12.1541056,12.1541056 C10.8191882,13.489023 9.00751446,14.2391195 7.11955978,14.2391195 C5.23768136,14.2391195 3.4315937,13.4938436 2.09791778,12.1669765 C2.03101426,12.1091392 1.98899845,12.0235695 1.98899845,11.9281864 C1.98899845,11.7526497 2.13129914,11.610349 2.30683594,11.610349 C2.39560626,11.610349 2.47587677,11.646741 2.53354216,11.7054197 L2.53507181,11.7040477 C3.71127558,12.8802515 5.29349113,13.5587634 6.95332936,13.6013144 L7.11955978,13.6034446 C8.83969624,13.6034446 10.4886372,12.9194583 11.7040477,11.7040477 C12.9194583,10.4886372 13.6034446,8.83969624 13.6034446,7.11955978 C13.6034446,5.39942327 12.9194583,3.75048237 11.7040477,2.53507181 C10.4886372,1.31966126 8.83969624,0.635674977 7.11955978,0.635674977 L7.07643111,0.632773495 C6.92129437,0.611727392 6.80172226,0.478746223 6.80172226,0.317837489 C6.80172226,0.142300691 6.94402296,0 7.11955978,0 L7.11955978,0 Z" id="Combined-Shape" fill="#F1A141" fill-rule="nonzero" mask="url(#mask-5)"></path>
                                                        </g>
                                                    </g>
                                                    <rect id="Rectangle" fill="#FFFFFF" fill-rule="nonzero" opacity="0.15" x="3.124044" y="2.03741942" width="16.027704" height="1" rx="0.5"></rect>
                                                    <rect id="Rectangle-Copy" fill="#FFFFFF" fill-rule="nonzero" opacity="0.5" x="2.43132079" y="6.24808741" width="17.385984" height="1.629936" rx="0.814968"></rect>
                                                </g>
                                                <g id="carte-dom2" opacity="0.520219349" transform="translate(147.636290, 99.691652)">
                                                    <g id="CARD" transform="translate(0.000000, -0.000000)">
                                                        <g id="card" transform="translate(0.105946, 0.000000)">
                                                            <g id="path-13-link" fill="#000000" fill-rule="nonzero">
                                                                <rect id="path-13" x="-5.82867088e-16" y="-1.06953673e-15" width="22.1426798" height="31.7837508" rx="2.52251991"></rect>
                                                            </g>
                                                            <g id="path-13-link" fill="#FFFFFF" stroke="#D0D0D0" stroke-width="1.155">
                                                                <rect id="path-13" x="-5.82867088e-16" y="-1.06953673e-15" width="22.1426798" height="31.7837508" rx="2.52251991"></rect>
                                                            </g>
                                                        </g>
                                                        <g id="mask" transform="translate(0.000000, -0.000000)" fill="#000000" fill-rule="nonzero">
                                                            <path d="M1.05945836,-1.73720878e-14 L21.1891672,-1.73720878e-14 C21.7742899,-1.73720878e-14 22.2486256,0.474335665 22.2486256,1.05945836 L22.2486256,16.4438845 L22.2486256,16.4438845 C18.6199018,17.3809435 14.9117975,17.849473 11.1243128,17.849473 C7.33682809,17.849473 3.6287238,17.3809435 6.94883511e-14,16.4438845 L6.94883511e-14,1.05945836 C6.94883511e-14,0.474335665 0.474335665,-1.73720878e-14 1.05945836,-1.73720878e-14 Z" id="path-15"></path>
                                                        </g>
                                                        <g id="Color-dom-Clipped" transform="translate(0.000000, -0.000000)">
                                                            <mask id="mask-7" fill="white">
                                                                <use xlink:href="#path-6"></use>
                                                            </mask>
                                                            <g id="path-15"></g>
                                                            <g id="Color-dom" mask="url(#mask-7)" fill="url(#linearGradient-8)" fill-rule="nonzero">
                                                                <g id="Primary">
                                                                    <rect id="Rectangle" x="0" y="0" width="22.2486256" height="19.4940338"></rect>
                                                                </g>
                                                            </g>
                                                        </g>
                                                    </g>
                                                    <g id="LEVEL" transform="translate(1.228428, 11.418244)">
                                                        <g id="Circle" transform="translate(0.000000, 0.000000)">
                                                            <circle id="cercle-blanc" fill="#FFFFFF" fill-rule="nonzero" opacity="0.3" cx="9.643788" cy="9.643788" r="9.643788"></circle>
                                                            <circle id="cercle-blanc" fill="#FFFFFF" fill-rule="nonzero" cx="9.643788" cy="9.643788" r="8.13663971"></circle>
                                                            <circle id="cercle-gris" stroke="#DDDDDD" stroke-width="1.51351185" cx="9.643788" cy="9.643788" r="6.80172226"></circle>
                                                        </g>
                                                        <g id="Combined-Shape-Clipped" transform="translate(2.572040, 2.572040)">
                                                            <mask id="mask-10" fill="white">
                                                                <use xlink:href="#path-9"></use>
                                                            </mask>
                                                            <g id="path-18"></g>
                                                            <path d="M7.11955978,0 C8.94851588,0 10.705884,0.703947959 12.0275726,1.9615838 L12.1541056,2.08501393 C13.489023,3.41993139 14.2391195,5.23160509 14.2391195,7.11955978 C14.2391195,9.00751446 13.489023,10.8191882 12.1541056,12.1541056 C10.8191882,13.489023 9.00751446,14.2391195 7.11955978,14.2391195 C5.23768136,14.2391195 3.4315937,13.4938436 2.09791778,12.1669765 C2.03101426,12.1091392 1.98899845,12.0235695 1.98899845,11.9281864 C1.98899845,11.7526497 2.13129914,11.610349 2.30683594,11.610349 C2.39560626,11.610349 2.47587677,11.646741 2.53354216,11.7054197 L2.53507181,11.7040477 C3.71127558,12.8802515 5.29349113,13.5587634 6.95332936,13.6013144 L7.11955978,13.6034446 C8.83969624,13.6034446 10.4886372,12.9194583 11.7040477,11.7040477 C12.9194583,10.4886372 13.6034446,8.83969624 13.6034446,7.11955978 C13.6034446,5.39942327 12.9194583,3.75048237 11.7040477,2.53507181 C10.4886372,1.31966126 8.83969624,0.635674977 7.11955978,0.635674977 L7.07643111,0.632773495 C6.92129437,0.611727392 6.80172226,0.478746223 6.80172226,0.317837489 C6.80172226,0.142300691 6.94402296,0 7.11955978,0 L7.11955978,0 Z" id="Combined-Shape" fill="#57C884" fill-rule="nonzero" mask="url(#mask-10)"></path>
                                                        </g>
                                                    </g>
                                                    <rect id="Rectangle" fill="#FFFFFF" fill-rule="nonzero" opacity="0.15" x="3.124044" y="2.03741942" width="16.027704" height="1" rx="0.5"></rect>
                                                    <rect id="Rectangle-Copy" fill="#FFFFFF" fill-rule="nonzero" opacity="0.5" x="2.43132079" y="6.24808741" width="17.385984" height="1.629936" rx="0.814968"></rect>
                                                </g>
                                                <g id="carte-dom3" opacity="0.520219349" transform="translate(173.249570, 99.691652)">
                                                    <g id="CARD" transform="translate(0.000000, -0.000000)">
                                                        <g id="card" transform="translate(0.105946, 0.000000)">
                                                            <g id="path-20-link" fill="#000000" fill-rule="nonzero">
                                                                <rect id="path-20" x="-5.82867088e-16" y="-1.06953673e-15" width="22.1426798" height="31.7837508" rx="2.52251991"></rect>
                                                            </g>
                                                            <g id="path-20-link" fill="#FFFFFF" stroke="#D0D0D0" stroke-width="1.155">
                                                                <rect id="path-20" x="-5.82867088e-16" y="-1.06953673e-15" width="22.1426798" height="31.7837508" rx="2.52251991"></rect>
                                                            </g>
                                                        </g>
                                                        <g id="mask" transform="translate(0.000000, -0.000000)" fill="#000000" fill-rule="nonzero">
                                                            <path d="M1.05945836,-1.73720878e-14 L21.1891672,-1.73720878e-14 C21.7742899,-1.73720878e-14 22.2486256,0.474335665 22.2486256,1.05945836 L22.2486256,16.4438845 L22.2486256,16.4438845 C18.6199018,17.3809435 14.9117975,17.849473 11.1243128,17.849473 C7.33682809,17.849473 3.6287238,17.3809435 6.94883511e-14,16.4438845 L6.94883511e-14,1.05945836 C6.94883511e-14,0.474335665 0.474335665,-1.73720878e-14 1.05945836,-1.73720878e-14 Z" id="path-22"></path>
                                                        </g>
                                                        <g id="Color-dom-Clipped" transform="translate(0.000000, -0.000000)">
                                                            <mask id="mask-12" fill="white">
                                                                <use xlink:href="#path-11"></use>
                                                            </mask>
                                                            <g id="path-22"></g>
                                                            <g id="Color-dom" mask="url(#mask-12)" fill="url(#linearGradient-13)" fill-rule="nonzero">
                                                                <g id="Primary">
                                                                    <rect id="Rectangle" x="0" y="0" width="22.2486256" height="19.4940338"></rect>
                                                                </g>
                                                            </g>
                                                        </g>
                                                    </g>
                                                    <g id="LEVEL" transform="translate(1.228428, 11.418244)">
                                                        <g id="Circle" transform="translate(0.000000, 0.000000)">
                                                            <circle id="cercle-blanc" fill="#FFFFFF" fill-rule="nonzero" opacity="0.3" cx="9.643788" cy="9.643788" r="9.643788"></circle>
                                                            <circle id="cercle-blanc" fill="#FFFFFF" fill-rule="nonzero" cx="9.643788" cy="9.643788" r="8.13663971"></circle>
                                                            <circle id="cercle-gris" stroke="#DDDDDD" stroke-width="1.51351185" cx="9.643788" cy="9.643788" r="6.80172226"></circle>
                                                        </g>
                                                        <g id="Combined-Shape-Clipped" transform="translate(2.572040, 2.572040)">
                                                            <mask id="mask-15" fill="white">
                                                                <use xlink:href="#path-14"></use>
                                                            </mask>
                                                            <g id="path-25"></g>
                                                            <path d="M7.11955978,0 C8.94851588,0 10.705884,0.703947959 12.0275726,1.9615838 L12.1541056,2.08501393 C13.489023,3.41993139 14.2391195,5.23160509 14.2391195,7.11955978 C14.2391195,9.00751446 13.489023,10.8191882 12.1541056,12.1541056 C10.8191882,13.489023 9.00751446,14.2391195 7.11955978,14.2391195 C5.23768136,14.2391195 3.4315937,13.4938436 2.09791778,12.1669765 C2.03101426,12.1091392 1.98899845,12.0235695 1.98899845,11.9281864 C1.98899845,11.7526497 2.13129914,11.610349 2.30683594,11.610349 C2.39560626,11.610349 2.47587677,11.646741 2.53354216,11.7054197 L2.53507181,11.7040477 C3.71127558,12.8802515 5.29349113,13.5587634 6.95332936,13.6013144 L7.11955978,13.6034446 C8.83969624,13.6034446 10.4886372,12.9194583 11.7040477,11.7040477 C12.9194583,10.4886372 13.6034446,8.83969624 13.6034446,7.11955978 C13.6034446,5.39942327 12.9194583,3.75048237 11.7040477,2.53507181 C10.4886372,1.31966126 8.83969624,0.635674977 7.11955978,0.635674977 L7.07643111,0.632773495 C6.92129437,0.611727392 6.80172226,0.478746223 6.80172226,0.317837489 C6.80172226,0.142300691 6.94402296,0 7.11955978,0 L7.11955978,0 Z" id="Combined-Shape" fill="#12A3FF" fill-rule="nonzero" mask="url(#mask-15)"></path>
                                                        </g>
                                                    </g>
                                                    <rect id="Rectangle" fill="#FFFFFF" fill-rule="nonzero" opacity="0.15" x="3.124044" y="2.03741942" width="16.027704" height="1" rx="0.5"></rect>
                                                    <rect id="Rectangle-Copy" fill="#FFFFFF" fill-rule="nonzero" opacity="0.5" x="2.43132079" y="6.24808741" width="17.385984" height="1.629936" rx="0.814968"></rect>
                                                </g>
                                                <g id="carte-dom4" transform="translate(198.474770, 99.691652)">
                                                    <g id="CARD" transform="translate(0.000000, -0.000000)">
                                                        <g id="card" transform="translate(0.105946, 0.000000)">
                                                            <g id="path-27-link" fill="#000000" fill-rule="nonzero">
                                                                <rect id="path-27" x="-5.82867088e-16" y="-1.06953673e-15" width="22.1426798" height="31.7837508" rx="2.52251991"></rect>
                                                            </g>
                                                            <g id="path-27-link" fill="#FFFFFF" stroke="#D0D0D0" stroke-width="1.155">
                                                                <rect id="path-27" x="-5.82867088e-16" y="-1.06953673e-15" width="22.1426798" height="31.7837508" rx="2.52251991"></rect>
                                                            </g>
                                                        </g>
                                                        <g id="mask" transform="translate(0.000000, -0.000000)" fill="#000000" fill-rule="nonzero">
                                                            <path d="M1.05945836,-1.73720878e-14 L21.1891672,-1.73720878e-14 C21.7742899,-1.73720878e-14 22.2486256,0.474335665 22.2486256,1.05945836 L22.2486256,16.4438845 L22.2486256,16.4438845 C18.6199018,17.3809435 14.9117975,17.849473 11.1243128,17.849473 C7.33682809,17.849473 3.6287238,17.3809435 6.94883511e-14,16.4438845 L6.94883511e-14,1.05945836 C6.94883511e-14,0.474335665 0.474335665,-1.73720878e-14 1.05945836,-1.73720878e-14 Z" id="path-29"></path>
                                                        </g>
                                                        <g id="Color-dom-Clipped" transform="translate(0.000000, -0.000000)">
                                                            <mask id="mask-17" fill="white">
                                                                <use xlink:href="#path-16"></use>
                                                            </mask>
                                                            <g id="path-29"></g>
                                                            <g id="Color-dom" mask="url(#mask-17)" fill="url(#linearGradient-18)" fill-rule="nonzero">
                                                                <g id="Primary">
                                                                    <rect id="Rectangle" x="0" y="0" width="22.2486256" height="19.4940338"></rect>
                                                                </g>
                                                            </g>
                                                        </g>
                                                    </g>
                                                    <g id="LEVEL" transform="translate(1.228428, 11.418244)">
                                                        <g id="Circle" transform="translate(0.000000, 0.000000)">
                                                            <circle id="cercle-blanc" fill="#FFFFFF" fill-rule="nonzero" opacity="0.3" cx="9.643788" cy="9.643788" r="9.643788"></circle>
                                                            <circle id="cercle-blanc" fill="#FFFFFF" fill-rule="nonzero" cx="9.643788" cy="9.643788" r="8.13663971"></circle>
                                                            <circle id="cercle-gris" stroke="#DDDDDD" stroke-width="1.51351185" cx="9.643788" cy="9.643788" r="6.80172226"></circle>
                                                        </g>
                                                        <g id="Combined-Shape-Clipped" transform="translate(2.572040, 2.572040)">
                                                            <mask id="mask-20" fill="white">
                                                                <use xlink:href="#path-19"></use>
                                                            </mask>
                                                            <g id="path-32"></g>
                                                            <path d="M7.11955978,0 C8.94851588,0 10.705884,0.703947959 12.0275726,1.9615838 L12.1541056,2.08501393 C13.489023,3.41993139 14.2391195,5.23160509 14.2391195,7.11955978 C14.2391195,9.00751446 13.489023,10.8191882 12.1541056,12.1541056 C10.8191882,13.489023 9.00751446,14.2391195 7.11955978,14.2391195 C5.23768136,14.2391195 3.4315937,13.4938436 2.09791778,12.1669765 C2.03101426,12.1091392 1.98899845,12.0235695 1.98899845,11.9281864 C1.98899845,11.7526497 2.13129914,11.610349 2.30683594,11.610349 C2.39560626,11.610349 2.47587677,11.646741 2.53354216,11.7054197 L2.53507181,11.7040477 C3.71127558,12.8802515 5.29349113,13.5587634 6.95332936,13.6013144 L7.11955978,13.6034446 C8.83969624,13.6034446 10.4886372,12.9194583 11.7040477,11.7040477 C12.9194583,10.4886372 13.6034446,8.83969624 13.6034446,7.11955978 C13.6034446,5.39942327 12.9194583,3.75048237 11.7040477,2.53507181 C10.4886372,1.31966126 8.83969624,0.635674977 7.11955978,0.635674977 L7.07643111,0.632773495 C6.92129437,0.611727392 6.80172226,0.478746223 6.80172226,0.317837489 C6.80172226,0.142300691 6.94402296,0 7.11955978,0 L7.11955978,0 Z" id="Combined-Shape" fill="#FF3F94" fill-rule="nonzero" mask="url(#mask-20)"></path>
                                                        </g>
                                                    </g>
                                                    <rect id="Rectangle" fill="#FFFFFF" fill-rule="nonzero" opacity="0.15" x="3.124044" y="2.03741942" width="16.027704" height="1" rx="0.5"></rect>
                                                    <rect id="Rectangle-Copy" fill="#FFFFFF" fill-rule="nonzero" opacity="0.5" x="2.43132079" y="6.24808741" width="17.385984" height="1.629936" rx="0.814968"></rect>
                                                </g>
                                                <g id="carte-dom4-copy" opacity="0.673105149" transform="translate(224.088050, 99.691652)">
                                                    <g id="CARD" transform="translate(0.000000, -0.000000)">
                                                        <g id="card" transform="translate(0.105946, 0.000000)">
                                                            <g id="path-34-link" fill="#000000" fill-rule="nonzero">
                                                                <rect id="path-34" x="-5.82867088e-16" y="-1.06953673e-15" width="22.1426798" height="31.7837508" rx="2.52251991"></rect>
                                                            </g>
                                                            <g id="path-34-link" fill="#FFFFFF" stroke="#D0D0D0" stroke-width="1.155">
                                                                <rect id="path-34" x="-5.82867088e-16" y="-1.06953673e-15" width="22.1426798" height="31.7837508" rx="2.52251991"></rect>
                                                            </g>
                                                        </g>
                                                        <g id="mask" transform="translate(0.000000, -0.000000)" fill="#000000" fill-rule="nonzero">
                                                            <path d="M1.05945836,-1.73720878e-14 L21.1891672,-1.73720878e-14 C21.7742899,-1.73720878e-14 22.2486256,0.474335665 22.2486256,1.05945836 L22.2486256,16.4438845 L22.2486256,16.4438845 C18.6199018,17.3809435 14.9117975,17.849473 11.1243128,17.849473 C7.33682809,17.849473 3.6287238,17.3809435 6.94883511e-14,16.4438845 L6.94883511e-14,1.05945836 C6.94883511e-14,0.474335665 0.474335665,-1.73720878e-14 1.05945836,-1.73720878e-14 Z" id="path-36"></path>
                                                        </g>
                                                        <g id="Color-dom-Clipped" transform="translate(0.000000, -0.000000)">
                                                            <mask id="mask-22" fill="white">
                                                                <use xlink:href="#path-21"></use>
                                                            </mask>
                                                            <g id="path-36"></g>
                                                            <g id="Color-dom" mask="url(#mask-22)" fill="url(#linearGradient-23)" fill-rule="nonzero">
                                                                <g id="Primary">
                                                                    <rect id="Rectangle" x="0" y="0" width="22.2486256" height="19.4940338"></rect>
                                                                </g>
                                                            </g>
                                                        </g>
                                                    </g>
                                                    <g id="LEVEL" transform="translate(1.228428, 11.418244)">
                                                        <g id="Circle" transform="translate(0.000000, 0.000000)">
                                                            <circle id="cercle-blanc" fill="#FFFFFF" fill-rule="nonzero" opacity="0.3" cx="9.643788" cy="9.643788" r="9.643788"></circle>
                                                            <circle id="cercle-blanc" fill="#FFFFFF" fill-rule="nonzero" cx="9.643788" cy="9.643788" r="8.13663971"></circle>
                                                            <circle id="cercle-gris" stroke="#DDDDDD" stroke-width="1.51351185" cx="9.643788" cy="9.643788" r="6.80172226"></circle>
                                                        </g>
                                                        <g id="Combined-Shape-Clipped" transform="translate(2.572040, 2.572040)">
                                                            <mask id="mask-25" fill="white">
                                                                <use xlink:href="#path-24"></use>
                                                            </mask>
                                                            <g id="path-39"></g>
                                                            <path d="M7.11955978,0 C8.94851588,0 10.705884,0.703947959 12.0275725,1.9615838 L12.1541056,2.08501393 C13.489023,3.41993139 14.2391195,5.23160509 14.2391195,7.11955978 C14.2391195,9.00751446 13.489023,10.8191882 12.1541056,12.1541056 C10.8191882,13.489023 9.00751446,14.2391195 7.11955978,14.2391195 C5.23768136,14.2391195 3.4315937,13.4938436 2.09791778,12.1669765 C2.03101426,12.1091392 1.98899845,12.0235695 1.98899845,11.9281864 C1.98899845,11.7526497 2.13129914,11.610349 2.30683594,11.610349 C2.39560626,11.610349 2.47587677,11.646741 2.53354216,11.7054197 L2.53507181,11.7040477 C3.71127558,12.8802515 5.29349113,13.5587634 6.95332936,13.6013144 L7.11955978,13.6034446 C8.83969624,13.6034446 10.4886372,12.9194583 11.7040477,11.7040477 C12.9194583,10.4886372 13.6034446,8.83969624 13.6034446,7.11955978 C13.6034446,5.39942327 12.9194583,3.75048237 11.7040477,2.53507181 C10.4886372,1.31966126 8.83969624,0.635674977 7.11955978,0.635674977 L7.07643111,0.632773495 C6.92129437,0.611727392 6.80172226,0.478746223 6.80172226,0.317837489 C6.80172226,0.142300691 6.94402296,0 7.11955978,0 L7.11955978,0 Z" id="Combined-Shape" fill="#574DA6" fill-rule="nonzero" mask="url(#mask-25)"></path>
                                                        </g>
                                                    </g>
                                                    <rect id="Rectangle" fill="#FFFFFF" fill-rule="nonzero" opacity="0.15" x="3.124044" y="2.03741942" width="16.027704" height="1" rx="0.5"></rect>
                                                    <rect id="Rectangle-Copy" fill="#FFFFFF" fill-rule="nonzero" opacity="0.5" x="2.43132079" y="6.24808741" width="17.385984" height="1.629936" rx="0.814968"></rect>
                                                </g>
                                                <g id="Group-123" transform="translate(114.634222, 16.612897)" fill-rule="nonzero">
                                                    <rect id="Rectangle" fill="#20BF55" x="8.63250657" y="45.7752642" width="20.8110228" height="21.3586813" rx="7.41164498"></rect>
                                                    <path d="M17.7652504,63.3003358 L11.6868531,57.5746576 C11.2688686,57.1423445 11.2650029,56.4591246 11.6780691,56.0221407 C12.0911353,55.5851567 12.775646,55.5483202 13.2335191,55.9384351 L17.4316124,59.9023661 L24.656752,49.8934402 C25.0228378,49.3887035 25.7301423,49.275319 26.2365608,49.640189 C26.7429794,50.0050585 26.8567417,50.7100138 26.490656,51.2147505 L17.7652504,63.3003358 Z" id="Path" fill="#FFFFFF"></path>
                                                    <rect id="Rectangle" fill="url(#linearGradient-26)" transform="translate(89.868517, 48.148450) rotate(-180.000000) translate(-89.868517, -48.148450) " x="36.380537" y="45.5927108" width="106.97596" height="5.1114793" rx="2.55573965"></rect>
                                                    <rect id="Rectangle" fill="url(#linearGradient-27)" transform="translate(89.868517, 56.363328) rotate(180.000000) translate(-89.868517, -56.363328) " x="36.380537" y="53.8075883" width="106.97596" height="5.1114793" rx="2.55573965"></rect>
                                                    <rect id="Rectangle" fill="url(#linearGradient-27)" transform="translate(89.868517, 64.578205) rotate(180.000000) translate(-89.868517, -64.578205) " x="36.380537" y="62.0224657" width="106.97596" height="5.1114793" rx="2.55573965"></rect>
                                                    <rect id="Rectangle" fill="url(#linearGradient-28)" x="8.63250657" y="13.4634127" width="20.8110228" height="21.3586813" rx="7.41164498"></rect>
                                                    <rect id="Rectangle" fill="url(#linearGradient-27)" transform="translate(89.868517, 15.836599) rotate(-180.000000) translate(-89.868517, -15.836599) " x="36.380537" y="13.2808597" width="106.97596" height="5.1114793" rx="2.55573965"></rect>
                                                    <rect id="Rectangle" fill="url(#linearGradient-26)" transform="translate(89.868517, 24.051477) rotate(180.000000) translate(-89.868517, -24.051477) " x="36.380537" y="21.4957372" width="106.97596" height="5.1114793" rx="2.55573965"></rect>
                                                    <rect id="Rectangle" fill="url(#linearGradient-26)" transform="translate(89.868517, 32.266354) rotate(180.000000) translate(-89.868517, -32.266354) " x="36.380537" y="29.7106146" width="106.97596" height="5.1114793" rx="2.55573965"></rect>
                                                    <g id="Group-125" transform="translate(13.196327, 13.372136) rotate(-18.000000) translate(-13.196327, -13.372136) translate(2.790816, 2.692796)">
                                                        <rect id="Rectangle" fill="#20BF55" x="0" y="0" width="20.8110228" height="21.3586813" rx="7.41164498"></rect>
                                                        <path d="M9.382994,16.4297549 L4.09529833,11.4582201 C3.74420416,11.0806415 3.74668565,10.4971687 4.10097884,10.122559 C4.45527205,9.74794939 5.04054818,9.70996043 5.44076795,10.0355963 L9.09275699,13.4774281 L15.3780223,4.78680296 C15.5840323,4.50330077 15.9264286,4.35066883 16.276234,4.38640213 C16.6260393,4.42213548 16.9301099,4.64080529 17.0739053,4.96004078 C17.2177006,5.27927627 17.1793748,5.65057798 16.9733648,5.93408021 L9.382994,16.4297549 Z" id="Path" fill="#FFFFFF"></path>
                                                    </g>
                                                </g>
                                                <rect id="Rectangle_110" fill="#98BEF7" fill-rule="nonzero" x="93.8037968" y="0.104055114" width="202.085985" height="12.0484869" rx="6.02424346"></rect>
                                            </g>
                                            <g id="Group_654" transform="translate(317.664354, 77.438901) scale(-1, 1) translate(-317.664354, -77.438901) translate(269.386279, 29.891462)" fill-rule="nonzero">
                                                <g id="Group_650" opacity="0.55" transform="translate(1.983416, 0.000000)" fill="#3478F6">
                                                    <g id="Group_648">
                                                        <path d="M92.2522789,76.3111758 L22.0861629,94.5037887 C20.2251098,94.9864947 18.1390785,93.151072 17.4278345,90.4079054 L0.239079664,24.1126944 C-0.472876381,21.3681039 0.459074082,18.7516654 2.32012718,18.2696712 L72.486955,0.0770583627 C74.3480082,-0.405647836 76.4333275,1.42977485 77.1452838,4.1729415 L94.3340383,70.4681526 C95.0452827,73.2127429 94.1133321,75.8291817 92.2522789,76.3111758 Z" id="Path_1483" style="mix-blend-mode: multiply;"></path>
                                                    </g>
                                                </g>
                                                <g id="Group_651" transform="translate(0.000000, 0.516168)" fill="#D2E1F6">
                                                    <path d="M92.2528968,76.309752 L22.0860688,94.5016526 C20.2250157,94.984359 18.1396965,93.1489364 17.4277404,90.4057698 L0.238985671,24.1105586 C-0.472970375,21.365968 0.459692045,18.7502415 2.32074515,18.2675353 L72.486861,0.0770583626 C74.3479142,-0.405647836 76.4339454,1.42977485 77.1451898,4.17294151 L94.3339443,70.4681526 C95.0459006,73.2106073 94.1153738,75.8291813 92.2528968,76.309752 Z" id="Path_1484"></path>
                                                </g>
                                                <path d="M72.486861,0.593226495 L2.32074515,18.7858393 C0.459692045,19.2685455 -0.472258416,21.884272 0.238985671,24.6288626 L1.36672405,28.9782021 L78.272928,9.0384491 L77.1451898,4.68910961 C76.4339454,1.94594298 74.3479142,0.108384429 72.486861,0.593226495 Z" id="Path_1485" fill="#98BEF7"></path>
                                                <path d="M5.53166691,23.1059886 C5.55095734,23.7415822 5.07675407,24.2844681 4.44433744,24.3508047 C3.81192082,24.4171413 3.23538775,23.9844711 3.1223698,23.3587089 C3.00935185,22.7329468 3.39810986,22.1259368 4.01377662,21.9668589 C4.7452781,21.8708015 5.41949927,22.3767836 5.53166691,23.1059886 L5.53166691,23.1059886 Z" id="Path_1486" fill="#3478F6"></path>
                                                <path d="M10.2070823,21.8935274 C10.2281361,22.5293864 9.75495721,23.0737466 9.12235993,23.1414267 C8.48976261,23.2091067 7.91213203,22.7771701 7.79819111,22.1512489 C7.6842502,21.5253276 8.07261315,20.9175443 8.68848002,20.7579576 C9.41884406,20.6621256 10.0925022,21.165869 10.2070823,21.8935274 L10.2070823,21.8935274 Z" id="Path_1487" fill="#BDDCF9"></path>
                                                <path d="M14.8817857,20.6817783 C14.9028395,21.3176373 14.4296606,21.8619974 13.7970633,21.9296775 C13.164466,21.9973575 12.5868354,21.565421 12.4728945,20.9394997 C12.3589536,20.3135785 12.7473165,19.7057952 13.3631834,19.5462083 C14.0936502,19.449983 14.7675538,19.95391 14.8817857,20.6817783 Z" id="Path_1488" fill="#FFFFFF"></path>
                                                <path d="M15.7797505,27.458927 L47.1940989,27.458927 C48.2950659,27.458927 49.187576,28.351437 49.187576,29.4524039 L49.187576,85.3616003 C49.187576,86.4625669 48.2950659,87.355077 47.1940989,87.355077 L15.7797505,87.355077 C14.6787836,87.355077 13.7862736,86.4625669 13.7862736,85.3616003 L13.7862736,29.4524039 C13.7862736,28.351437 14.6787836,27.458927 15.7797505,27.458927 Z" id="Path_2319" fill="#FFFFFF" transform="translate(31.486925, 57.407002) rotate(-14.535000) translate(-31.486925, -57.407002) "></path>
                                                <path d="M49.631264,18.5323775 L76.2584203,18.5323775 C77.3593868,18.5323775 78.2518969,19.4248875 78.2518969,20.5258544 L78.2518969,29.846783 C78.2518969,30.9477499 77.3593868,31.8402599 76.2584203,31.8402599 L49.631264,31.8402599 C48.530297,31.8402599 47.637787,30.9477499 47.637787,29.846783 L47.637787,20.5258544 C47.637787,19.4248875 48.530297,18.5323775 49.631264,18.5323775 Z" id="Path_2318" fill="#FFFFFF" transform="translate(62.944842, 25.186319) rotate(-14.535000) translate(-62.944842, -25.186319) "></path>
                                                <path d="M54.0579234,35.4381488 L80.6850792,35.4381488 C81.7860462,35.4381488 82.6785562,36.3306588 82.6785562,37.4316257 L82.6785562,47.0850377 C82.6785562,48.1860047 81.7860462,49.0785148 80.6850792,49.0785148 L54.0579234,49.0785148 C52.9569564,49.0785148 52.0644463,48.1860047 52.0644463,47.0850377 L52.0644463,37.4316257 C52.0644463,36.3306588 52.9569564,35.4381488 54.0579234,35.4381488 Z" id="Path_2317" fill="#FFFFFF" transform="translate(67.371501, 42.258332) rotate(-14.535000) translate(-67.371501, -42.258332) "></path>
                                            </g>
                                        </g>
                                    </g>
                                </g>
                            </g>
                            <g id="Group_960" transform="translate(12.958639, 137.487225)" fill-rule="nonzero">
                                <g id="plant">
                                    <g id="Group_950" transform="translate(15.327799, 0.296650)">
                                        <g id="Group_948" fill="#3478F6">
                                            <path d="M42.2249035,90.2599909 C41.6739849,90.7005394 47.3899375,73.0935048 43.464586,51.7171272 C40.6191835,30.7570816 28.1329423,6.0267612 16.1175198,1.83270303 C-7.04759628,-6.54982497 -1.51093654,16.2082729 9.5800794,22.0779052 C20.4154282,29.0684679 2.02462749,36.7696826 14.2449562,43.9539749 C25.6749989,52.0244866 22.4831185,55.7942957 28.4403017,61.1619079 C35.2073303,66.5970456 42.9607031,90.2138871 42.2249035,90.2599909 Z" id="Path_1921"></path>
                                        </g>
                                        <g id="Group_949" transform="translate(11.936967, 9.199548)" fill="#FFFFFF">
                                            <path d="M30.2790882,79.753234 C30.2083024,79.1478292 22.8950124,18.7531122 -7.9269924e-16,0.413538048 L0.232848,-2.92016411e-15 C12.287389,9.65667226 19.9280632,30.8169671 24.216192,46.8685767 C27.0729281,57.6580097 29.2366222,68.6191193 30.6940234,79.6847769 L30.2790882,79.753234 Z" id="Path_1922"></path>
                                        </g>
                                    </g>
                                    <g id="Group_953" transform="translate(-0.000000, 40.548369)">
                                        <g id="Group_951" fill="#C6DDFF">
                                            <path d="M58.3928183,48.5087303 C58.1660242,49.0782764 56.026151,34.2193142 45.9703775,21.4517927 C36.7994261,8.44630052 19.7130398,-2.46635385 10.0219061,0.487090186 C-8.76566766,5.97718033 2.87254108,18.911421 12.5063942,17.5562457 C22.3512077,17.0947409 12.3801906,31.3073172 23.2416184,30.3070022 C33.8664727,30.2981539 32.9746648,34.4349315 38.9108917,35.2275461 C45.4273759,35.6750799 58.8817991,48.1212711 58.3928183,48.5087303 Z" id="Path_1923"></path>
                                        </g>
                                        <g id="Group_952" transform="translate(13.492738, 6.569546)" fill="#FFFFFF">
                                            <path d="M44.7366205,42.0975213 C44.4762966,41.7142535 18.4634493,3.76561786 1.39888101e-16,0.49363776 L0.061937568,8.50985948e-16 C18.6865177,3.30085325 44.801818,41.4003744 45.0635393,41.7836422 L44.7366205,42.0975213 Z" id="Path_1924"></path>
                                        </g>
                                    </g>
                                    <g id="Group_956" transform="translate(278.993051, 0.000000)">
                                        <g id="Group_954" fill="#C6DDFF">
                                            <path d="M2.62555662,90.259527 C3.17694068,90.7000751 -2.53901202,73.0935067 1.38587387,51.7171287 C4.23127643,30.7566175 16.7175176,6.02676286 28.7329401,1.83270468 C51.8985218,-6.54982332 46.3613964,16.2082745 35.2703805,22.0774412 C24.4350317,29.0684695 42.8258326,36.7692186 30.6055037,43.9539764 C19.1754611,52.0244881 22.3678071,55.7938314 16.4101582,61.1619094 C9.64312964,66.5965817 1.88975694,90.2134228 2.62555662,90.259527 Z" id="Path_1925"></path>
                                        </g>
                                        <g id="Group_955" transform="translate(2.217141, 9.199550)" fill="#FFFFFF">
                                            <path d="M0.417263616,79.7532343 C0.488515104,79.1450352 7.80133939,18.7531122 30.6963518,0.413538048 L30.4611754,1.5620838e-15 C18.4066344,9.65620656 10.7664258,30.8169671 6.47783136,46.8681112 C3.62114486,57.6575555 1.45745137,68.6186617 -8.16013923e-17,79.684311 L0.417263616,79.7532343 Z" id="Path_1926"></path>
                                        </g>
                                    </g>
                                    <g id="Group_959" transform="translate(280.615498, 39.611732)">
                                        <g id="Group_957" transform="translate(0.150459, 0.000000)" fill="#3478F6">
                                            <path d="M0.0129998563,48.5088535 C0.239328112,49.0788653 2.37966693,34.2194375 12.434975,21.4519159 C21.6059263,8.44642375 38.6923125,-2.46669631 48.3834461,0.487213416 C67.1710201,5.97730356 55.5328113,18.9110786 45.898958,17.5559032 C36.0546104,17.0948642 46.0256274,31.3074404 35.1637339,30.3066597 C24.5393454,30.2982772 25.4306875,34.4350547 19.4944606,35.2272036 C12.9784422,35.6738061 -0.47644664,48.1199973 0.0129998563,48.5088535 Z" id="Path_1927"></path>
                                        </g>
                                        <g id="Group_958" transform="translate(0.000000, 6.568737)" fill="#FFFFFF">
                                            <path d="M0.326452896,42.0970557 C0.587242656,41.7142535 26.6000898,3.76515216 45.0635392,0.493172064 L45.0016014,7.34412531e-16 C26.3770214,3.30038755 0.261255456,41.4003744 -5.59552404e-16,41.7836422 L0.326452896,42.0970557 Z" id="Path_1928"></path>
                                        </g>
                                    </g>
                                </g>
                            </g>
                        </g>
                        <g id="boy" transform="translate(207.411029, 50.058495)" fill-rule="nonzero">
                            <path d="M59.5779663,169.990916 C59.5779663,169.990916 59.9542859,176.234335 59.5779663,178.265589 C59.2016467,180.296843 57.7728912,180.823304 53.7103828,180.672679 C49.6478744,180.522054 35.4305483,181.424833 36.5590228,177.88927 C37.6874974,174.353705 54.0867028,173.675652 52.9582279,168.260427 C51.8297534,162.845202 60.4056759,164.198403 59.5779663,169.990916 Z" id="Path_1955" fill="#192684"></path>
                            <path d="M113.81594,155.164311 C113.81594,155.164311 118.479979,161.934674 118.707611,164.643012 C118.935243,167.351351 101.405626,178.033114 100.653471,176.678944 C99.9013162,175.324775 100.653471,172.917685 103.510982,169.984136 C106.368493,167.050586 111.184124,162.010228 107.873771,157.722025 C104.563417,153.433822 111.634061,150.725967 113.81594,155.164311 Z" id="Path_1956" fill="#192684"></path>
                            <path d="M63.527627,80.9000305 C63.527627,80.9000305 57.5471966,117.505711 108.211345,160.792154 C109.001277,161.627128 115.207403,158.426232 115.207403,157.730258 C115.207403,157.034285 110.581141,140.331893 97.9431948,125.57842 C92.7526962,120.846092 95.4605508,84.2404119 83.2739946,76.7246744 C71.087438,69.2089369 63.295152,77.414836 63.3091594,81.5960037" id="Path_1957" fill="#3D68FF"></path>
                            <path d="M85.9808803,82.709464 C85.9808803,82.709464 85.5294908,100.664317 82.1445512,108.876513 C78.759612,117.088708 77.2766122,126.150407 77.2766122,126.150407 C77.2766122,126.150407 72.6106365,118.237524 71.3988583,115.659468 C70.1870798,113.081412 81.8074617,82.1529762 85.9808803,82.709464 Z" id="Path_1958" fill="#2C52D9"></path>
                            <path d="M53.0197373,34.030075 C53.0197373,34.030075 49.4977341,43.358152 49.1218987,45.6151014 C48.7460634,47.8720503 47.0809583,76.8452711 45.9529681,80.5314599 C44.8249779,84.2176487 42.4924743,89.2575227 48.8104788,90.1603022 C55.128483,91.0630817 60.095224,93.695866 61.14766,90.7623168 C62.2000956,87.8287671 62.8742742,28.6138815 53.0197373,34.030075 Z" id="Path_1959" fill="#1A38A0"></path>
                            <path d="M57.0958066,77.5596487 C57.0958066,77.5596487 57.7738601,87.7202786 54.2746204,100.942804 C50.7753804,114.165329 49.8551654,139.079432 50.0338809,144.229247 C50.2125963,149.379062 51.5309255,166.776943 51.7178746,169.003864 C51.9048238,171.230785 59.0137291,172.901218 59.6908136,172.762218 C60.3678985,172.623216 66.9125666,151.742563 67.2511089,136.017536 C67.4768038,131.145723 90.3828999,95.2374688 82.4845467,79.7875383 C74.5861934,64.3376081 59.8036613,66.5640445 57.0958066,77.5596487 Z" id="Path_1961" fill="#3D68FF"></path>
                            <path d="M53.6130705,20.8173429 L53.9794424,20.8173429 C56.8041944,20.8173429 59.0941083,23.1072567 59.0941083,25.9320086 L59.0941083,35.915154 C59.091968,38.7383917 56.8026811,41.0259428 53.9794424,41.0259428 L53.6130705,41.0259428 C50.7892647,41.0259428 48.4997427,38.7375057 48.498405,35.9137001 L48.498405,25.9305548 C48.4992076,23.1063707 50.7888863,20.8173429 53.6130705,20.8173429 Z" id="Path_2374" fill="#9C7248" transform="translate(53.796257, 30.921643) rotate(-38.507783) translate(-53.796257, -30.921643) "></path>
                            <path d="M45.7369596,28.8633083 C46.7742378,30.491052 47.9044229,32.0576903 49.1218987,33.5554377 C49.211499,33.6687695 52.469061,25.7365136 50.3254436,22.8591457 C48.1818262,19.9817777 45.7369596,28.8633083 45.7369596,28.8633083 Z" id="Path_1962" fill="#8E6841"></path>
                            <ellipse id="Ellipse_242" fill="#9C7248" cx="43.2543156" cy="20.188584" rx="7.74821279" ry="11.7351667"></ellipse>
                            <ellipse id="Ellipse_243" fill="#9C7248" cx="51.6045431" cy="20.6777511" rx="2.482644" ry="3.7990362"></ellipse>
                            <path d="M30.0899093,15.6751702 C30.0899093,15.6751702 36.8602722,19.662124 39.6436814,13.7945407 C39.7192359,13.8696109 42.2013954,16.3900321 48.1440493,18.5336495 C48.753513,18.8594243 49.1307582,19.4975662 49.1223834,20.188584 C49.1582233,21.2986543 50.1481809,20.5029102 50.0246787,19.2107342 C49.901176,17.9185582 51.1531531,16.6641594 52.2065572,17.2550345 C53.2599618,17.8459096 53.1844071,21.4686519 51.0030128,23.7997026 C50.2658716,25.1877747 51.6045431,25.5297073 51.6045431,25.5297073 C51.6045431,25.5297073 64.9195738,16.2016302 59.2776856,10.5597418 C57.0982284,8.75466681 56.6449009,10.0332817 54.9144119,6.94910752 C53.1839229,3.8649333 50.1753033,4.54201805 49.1223834,4.2407686 C48.0694632,3.93951918 41.2986159,-2.00265002 37.537357,0.705204571 C33.7760981,3.41305916 36.0330471,5.51986785 33.0239431,5.21861844 C30.0148391,4.91736903 21.8147522,10.8609912 30.0899093,15.6751702 Z" id="Path_1963" fill="#091E42"></path>
                            <path d="M50.174819,55.9960986 C49.1722685,56.6620438 53.7103828,79.6170565 57.471642,80.8206013 C61.2329007,82.0241458 70.636048,80.9712259 72.6673024,80.8206013 C74.6985564,80.6699763 61.3835257,48.5486506 50.174819,55.9960986 Z" id="Path_1964" fill="#FFFFFF"></path>
                            <path d="M45.5107803,57.2800411 C45.5107803,57.2800411 33.286931,62.4656962 18.730578,69.7673626 C15.495779,71.5729216 13.0886895,71.5729216 11.960215,71.422297 C10.8317404,71.2716724 7.37124661,68.1874982 6.24519368,69.8424326 C5.11914076,71.4973674 6.8467239,72.0218899 7.0724188,72.9270911 C7.29811369,73.8322923 1.5811551,70.5950722 0.377610356,73.7543164 C-0.825934388,76.913561 0.377610356,83.4587133 10.9843025,81.8788489 C19.4115373,80.0732895 19.4599697,78.0788439 25.2771833,77.1397398 C32.7619239,75.9289302 52.2980946,73.8642581 54.2397491,69.3159727 C56.1814032,64.7676877 57.471642,53.5938523 45.5107803,57.2800411 Z" id="Path_1965" fill="#9C7248"></path>
                            <path d="M63.1304817,79.9430063 C63.1304817,79.9430063 74.3367667,91.1923963 77.8016193,89.4623916 C81.2664723,87.7323868 86.571271,81.0927912 86.2772865,80.5508328 C85.9833021,80.0088745 70.1265393,67.837332 63.1304817,79.9430063 Z" id="Path_1966" fill="#2C52D9"></path>
                            <path d="M56.3058744,69.0646086 C56.3058744,69.0646086 63.36441,81.3456081 64.5461602,81.3664342 C65.7279104,81.3872603 74.6985564,81.0274077 74.6418909,80.799291 C74.5852249,80.5711743 63.6966564,63.0861152 56.3058744,69.0646086 Z" id="Path_1967" fill="#FFFFFF"></path>
                            <path d="M45.134945,57.3439718 L41.2477619,59.1388758 C41.2477619,59.1388758 48.6797114,70.7272924 50.6828745,71.9816913 C51.030619,72.1754205 54.2290937,70.3238505 54.148696,68.6398567 C54.0682984,66.9558625 45.134945,57.3439718 45.134945,57.3439718 Z" id="Path_1968" fill="#102980"></path>
                            <path d="M61.9157976,29.5151987 C61.9157976,29.5151987 71.9151475,29.441591 84.1767741,47.5708011 C89.2922023,55.3945683 98.1688897,56.1467232 100.726604,55.9210282 C103.284318,55.6953332 88.0135875,89.3965234 75.9776559,84.7324847 C63.9417239,80.0684464 55.5934339,65.3992459 55.8559377,64.647091 C56.118441,63.8949361 43.1148303,33.1243894 61.9157976,29.5151987 Z" id="Path_1969" fill="#1A38A0"></path>
                            <path d="M64.3703507,30.3119209 C64.3703507,30.3119209 73.4572347,37.0202904 71.313133,50.448169 C69.1690313,63.8760474 60.7355002,72.5188062 60.5228819,72.2427418 C60.310264,71.9666771 57.5011856,68.0291242 56.9321053,66.99703 C56.3630247,65.9649359 70.5735705,51.8711122 64.3703507,30.3119209 Z" id="Path_1971" fill="#102980"></path>
                            <path d="M42.2759815,58.0273525 C42.2759815,58.0273525 50.3254436,44.4866269 51.0025285,40.0482831 C51.6796131,35.6099394 57.245947,27.7866564 63.3392251,29.8174263 C69.4325036,31.8481961 72.3665371,47.7214257 65.3704795,58.9301325 C58.3744215,70.1388388 55.5159422,72.2451631 54.0857338,72.2451631 C52.6555255,72.2451631 46.0372402,61.2621514 42.2759815,58.0273525 Z" id="Path_1972" fill="#1A38A0"></path>
                            <g id="Group_969" transform="translate(39.599991, 26.039546)" fill="#231F20">
                                <path d="M0.207876018,2.39319807 C0.114120442,2.40687862 0.0256003166,2.34618804 0.00456372449,2.25380446 C-0.0164728672,2.16142087 0.0370428843,2.06838742 0.12747826,2.04012599 C0.145398243,2.03431411 1.91511755,1.47201413 1.71993504,0.209381879 C1.70457286,0.110283235 1.77243507,0.0174876337 1.87152841,0.00209127534 L1.87152841,0.00209127534 C1.97034982,-0.0129639544 2.0626867,0.054879809 2.07785036,0.153684637 C2.32001228,1.72676847 0.318786177,2.36074838 0.233060858,2.38738619 L0.207876018,2.39319807 Z" id="Path_1975"></path>
                            </g>
                            <path d="M37.8875231,20.750884 C37.9956199,20.5036368 38.283658,20.3908016 38.5309321,20.4988369 C38.7782061,20.6068721 38.891113,20.8948821 38.7831393,21.1421831 C38.6751655,21.389484 38.3871836,21.5024625 38.1398558,21.3945503 C37.8927703,21.2861617 37.7799279,20.998316 37.8875231,20.750884 Z M39.4131432,19.6882775 C39.4512967,19.6588649 39.4762017,19.615499 39.4823782,19.567722 C39.4885547,19.519945 39.4754966,19.4716714 39.4460772,19.4335231 C39.1086712,19.0700696 38.6177087,18.890032 38.1253261,18.9491993 C37.6062345,18.9501479 37.1487468,19.2902655 36.9983045,19.7870796 C36.9794942,19.883067 37.0400786,19.9767105 37.1353427,19.9988953 C37.2306069,20.0210801 37.3263294,19.9638368 37.351861,19.8694146 C37.463646,19.5279692 37.7870409,19.3010012 38.1461521,19.3119578 C38.5186646,19.2621669 38.8930607,19.389175 39.1583889,19.6553435 C39.1987169,19.707539 39.2641168,19.7338471 39.3293552,19.7241174 C39.3601579,19.7194393 39.3892975,19.7071174 39.4141119,19.6882775 L39.4131432,19.6882775 Z" id="Path_1976" fill="#231F20"></path>
                            <path d="M35.9633045,21.8255986 C35.9633045,21.8255986 34.510333,24.5721991 34.9341163,25.5297073 C35.3578997,26.4872155 36.99443,24.9737035 36.99443,24.9737035 L35.9633045,21.8255986 Z" id="Path_1977" fill="#8E6841"></path>
                        </g>
                        <g id="girl-2" transform="translate(50.949774, 126.705545)" fill-rule="nonzero">
                            <g id="Phone-2" transform="translate(74.910752, 28.102797)">
                                <path d="M7.75760159,-1.55327835 L8.24203799,-1.55327835 C8.73442213,-1.55294408 9.13340105,-1.15369403 9.13340105,-0.661309771 L9.13340105,22.4826408 C9.13340105,22.9752614 8.73405312,23.3746093 8.24143247,23.3746093 L7.75699603,23.3746093 C7.26461189,23.3742751 6.86563297,22.975025 6.86563297,22.4826408 L6.86563297,-0.661309771 C6.86563297,-1.15393041 7.26498094,-1.55327835 7.75760159,-1.55327835 Z" id="Path_2372" fill="#EDF2F9" transform="translate(7.999517, 10.910665) rotate(34.532125) translate(-7.999517, -10.910665) "></path>
                                <path d="M8.23754476,-1.75033533 L8.23754476,-1.75033533 C8.45799377,-1.75033533 8.66946873,-1.66303536 8.82540654,-1.50721113 C8.98134435,-1.3513869 9.06895879,-1.13997569 9.06895879,-0.919526624 L9.06895879,23.1163925 C9.06895879,23.5752354 8.69699314,23.9472012 8.23815028,23.9472012 L8.23815028,23.9472012 C8.01770126,23.9472012 7.80622631,23.8599013 7.6502885,23.704077 C7.49435069,23.5482528 7.40673625,23.3368416 7.40673625,23.1163925 L7.40673625,-0.919526624 C7.40673625,-1.37836948 7.7787019,-1.75033533 8.23754476,-1.75033533 Z" id="Path_2373" fill="#192684" transform="translate(8.237848, 11.098433) rotate(34.532125) translate(-8.237848, -11.098433) "></path>
                            </g>
                            <path d="M112.994421,104.211867 C112.994421,104.211867 112.918745,110.265915 114.053879,110.568617 C115.189013,110.87132 142.886283,113.060464 141.297095,109.963213 C139.707907,106.865962 120.78477,102.261253 118.670091,99.5980771 C116.555412,96.9349016 111.934962,97.8551166 112.994421,104.211867 Z" id="Path_1978" fill="#192684"></path>
                            <path d="M40.4566335,82.8368397 C41.4336803,80.6557713 43.0749785,78.8392403 45.1460993,77.6467044 C53.7785663,72.4402232 83.906536,55.2037432 97.7109763,59.6014036 C109.137387,63.7108915 122.895816,96.8011068 121.613569,100.013991 C120.331321,103.226874 113.451501,106.176406 113.102182,106.071065 C112.752864,105.965725 95.0290331,88.6844447 94.329185,87.3150192 C93.6735318,86.0303501 33.4521,99.4715475 40.4566335,82.8368397 Z" id="Path_1979" fill="#3D68FF"></path>
                            <path d="M44.7089969,79.6209296 C44.7089969,79.6209296 92.8792404,79.0760652 95.5024596,88.896942 C94.5005147,91.8210471 38.7518136,92.0940845 44.7089969,79.6209296 Z" id="Path_1980" fill="#2C52D9"></path>
                            <path d="M41.8193998,75.4599824 C41.8193998,75.4599824 42.8286094,82.7605589 53.6247934,80.2705289 C64.420977,77.7804992 71.9891426,62.5146114 72.291845,60.6124297 C72.5945474,58.710248 42.9297122,72.6345584 41.8193998,75.4599824 Z" id="Path_1981" fill="#2C52D9"></path>
                            <path d="M62.0302337,18.3660719 C62.0302337,18.3660719 67.0750717,6.86338074 56.9853953,3.88721076 C53.6556689,2.87800095 53.8572689,2.82775236 49.2664841,0.708835556 C44.6756997,-1.41008124 36.5529834,1.41473755 30.0448818,6.61153236 C27.118355,9.03315156 24.2935362,7.69339075 17.5832294,12.2478511 C10.8729226,16.8023114 13.6480982,21.040145 12.4881426,25.984486 C11.328187,30.928827 -0.679411791,31.3320266 3.25571941,43.2887712 C7.1908506,55.245516 40.5383632,63.2168812 46.5924113,56.3552232 C52.6464593,49.4935652 53.2518641,52.1682436 56.5815905,50.0995752 C59.9113169,48.0309072 58.3475561,44.4995808 57.0356441,40.715801 C55.7237317,36.932021 58.7005073,31.8363287 58.4989073,27.6995978 C58.2973077,23.5628668 60.5167217,22.1498519 62.0302337,18.3660719 Z" id="Path_1982" fill="#192684"></path>
                            <path d="M36.0614694,14.9707987 L36.560323,14.9707987 C37.9000634,14.9707987 39.1849316,15.5030085 40.1322712,16.4503481 C41.0796108,17.3976877 41.6118206,18.6825559 41.6118206,20.0222963 L41.6118206,35.6974374 C41.6118206,38.4870661 39.3505571,40.7486007 36.5609284,40.7489351 L36.0614694,40.7489351 C34.7217289,40.7489351 33.4368607,40.2167252 32.4895211,39.2693856 C31.5421816,38.3220461 31.0099717,37.0371779 31.0099717,35.6974374 L31.0099717,20.0222963 C31.0099717,17.2324312 33.2716043,14.9707987 36.0614694,14.9707987 Z" id="Path_2371" fill="#FAC896" transform="translate(36.310896, 27.859867) rotate(45.000000) translate(-36.310896, -27.859867) "></path>
                            <path d="M41.5542325,30.1145575 C41.5542325,30.1145575 46.0790281,26.4494368 45.3912881,24.5775252 C44.7035482,22.7056135 40.2102338,20.7701344 38.6900623,21.0837341 C37.1698909,21.3973338 39.3003104,29.7979308 41.5542325,30.1145575 Z" id="Path_1983" fill="#F39C55"></path>
                            <ellipse id="Ellipse_244" fill="#FAC896" transform="translate(47.246400, 16.989612) rotate(-54.895313) translate(-47.246400, -16.989612) " cx="47.2464002" cy="16.9896122" rx="11.2488254" ry="7.48004817"></ellipse>
                            <ellipse id="Ellipse_245" fill="#FAC896" cx="37.3097394" cy="14.6325405" rx="4.540536" ry="4.8432384"></ellipse>
                            <path d="M55.5372672,16.9930139 C55.5372672,16.9930139 51.0318445,13.6729739 50.2750885,9.58649153 C50.2248401,9.78869675 44.2210405,13.2697743 42.2032265,12.9162179 C41.1322653,12.6885857 41.3453678,13.8243251 40.6897144,14.6319351 C40.034061,15.4395452 39.7313586,13.8751791 39.5291534,13.0675691 C39.3269482,12.2599591 36.4016322,9.23354054 34.9886174,12.1594619 C33.5756026,15.0853834 34.994066,18.7202338 37.7183876,18.3672828 C38.9388837,18.1251208 38.5223652,19.1579414 35.5534601,21.4481878 C30.0787845,25.6714917 28.9854234,13.2189203 31.6086424,9.58649153 C34.2318614,5.95406273 44.2210405,-0.251336457 48.8124305,2.82654155 C53.4038205,5.90441957 61.1221265,8.67838433 60.3151217,11.3022087 C59.5081173,13.9260332 58.3772211,19.0029578 55.5372672,16.9930139 Z" id="Path_1984" fill="#192684"></path>
                            <path d="M95.5054865,88.7897853 C95.5054865,88.7897853 90.0338378,82.3622024 89.3636548,78.1116554 C89.2522603,77.6969532 90.4806267,77.5934291 91.2622043,75.9321981 C92.0437819,74.2709675 92.9803432,85.9032152 95.5054865,88.7897853 Z" id="Path_1985" fill="#2C52D9"></path>
                            <path d="M4.9423772,76.4304462 C4.9423772,76.4304462 -3.87897616,119.451722 50.5033261,106.492427 C58.9898906,104.31297 84.7855838,86.4831932 85.0123796,85.0320378 C85.2372157,83.5808823 7.51110976,81.0993283 4.9423772,76.4304462 Z" id="Path_1986" fill="#3D68FF"></path>
                            <path d="M4.41325339,79.6923674 C4.41325339,79.6923674 3.16914652,85.9038204 5.13489592,90.1356002 C5.34920919,90.7204212 35.0915362,80.4539668 46.0499687,81.9396299 C45.8768228,81.9275221 6.42440814,77.5153318 4.41325339,79.6923674 Z" id="Path_1987" fill="#2C52D9"></path>
                            <path d="M50.5033261,106.492427 C50.5033261,106.492427 86.0139502,118.104091 95.7270647,98.716608 C99.0773749,92.0819768 96.6206424,85.4467399 85.0071619,85.0344595 C73.3936819,84.6221787 50.5033261,106.492427 50.5033261,106.492427 Z" id="Path_1988" fill="#3D68FF"></path>
                            <path d="M50.5033261,106.492427 C50.5033261,106.492427 64.5723282,94.9776277 65.9696027,95.3214977 C67.3668767,95.6653676 54.411214,106.192146 54.28529,107.481685 C54.3022412,107.485896 50.5033261,106.492427 50.5033261,106.492427 Z" id="Path_1989" fill="#2C52D9"></path>
                            <path d="M35.1036443,26.7085501 C35.1036443,26.7085501 28.9018775,21.9991062 19.2154007,33.904997 C9.52892395,45.8108876 -0.762957654,75.677928 0.0446523493,83.8508928 C0.952759549,85.3644048 44.5419053,83.6492932 44.7435049,82.741186 C44.9451049,81.8330788 47.1578594,46.8558165 35.1036443,26.7085501 Z" id="Path_1990" fill="#FFBE00"></path>
                            <path d="M46.7122814,57.8148542 C47.8444859,58.2939751 48.8491099,59.0309621 49.6460729,59.9670682 C50.6147206,61.0374239 53.171345,61.9994121 59.6770253,57.6168868 C69.2623993,51.1590336 76.7288569,49.0401168 77.3342617,48.2331124 C77.9396665,47.4261076 84.2964169,40.0601476 85.1040269,37.6385284 C85.911637,35.2169092 87.4245433,34.308802 87.6261433,36.0239138 C87.8277429,37.7390255 86.6175389,46.9248326 83.2878125,50.3029913 C79.9580861,53.68115 55.1800782,90.5708861 40.2435311,72.2477044 C36.6111023,67.9911035 35.6745411,53.5358531 46.7122814,57.8148542 Z" id="Path_1992" fill="#FAC896"></path>
                            <path d="M50.2236292,60.4347921 C50.2236292,60.4347921 52.3716054,61.8595634 54.3300898,60.4347921 C54.4759927,60.384192 45.964001,75.5786417 47.0815781,77.0310399 C47.0852107,77.0352458 45.0425747,76.1997872 45.0371261,76.1979707 C44.9311802,76.1622518 40.1981257,74.0790539 39.1041592,70.3981928 C37.9750793,66.5792996 50.2236292,60.4347921 50.2236292,60.4347921 Z" id="Path_1993" fill="#F39C55"></path>
                            <path d="M27.6202356,28.2341702 C27.6202356,28.2341702 18.9024065,32.9775168 20.7967181,46.8261515 C22.6910297,60.6747863 36.0995352,78.9888871 44.9451049,79.4429407 C44.9390506,79.5997406 45.6388987,70.8879653 44.8694293,67.484985 C44.0999595,64.0820048 25.1362597,53.6859934 27.6202356,28.2341702 Z" id="Path_1994" fill="#C6970E"></path>
                            <path d="M31.3731399,26.5868637 C33.2422414,26.0603207 35.2501053,26.441362 36.7963561,27.6160519 C39.223424,29.4643527 42.6893664,33.1694301 44.4910513,40.0074773 C47.4423997,51.2074663 52.9667185,59.4561067 52.9667185,60.1371871 C52.9667185,60.8182675 43.4176682,75.0452803 40.2465581,74.2128487 C37.0754477,73.3804171 22.5451271,56.1263803 22.4694515,41.6723405 C22.6722622,33.5665757 24.3831361,28.5435321 31.3731399,26.5868637 Z" id="Path_1995" fill="#FFBE00"></path>
                            <circle id="Ellipse_246" fill="#F97700" cx="45.7194173" cy="18.9194119" r="1"></circle>
                            <circle id="Ellipse_247" fill="#F97700" cx="45.8538173" cy="19.6095734" r="1"></circle>
                            <circle id="Ellipse_248" fill="#F97700" cx="46.5639571" cy="19.3407737" r="1"></circle>
                            <circle id="Ellipse_249" fill="#F97700" cx="46.8406271" cy="20.0606" r="1"></circle>
                            <circle id="Ellipse_250" fill="#231F20" cx="50.4954562" cy="21.001399" r="1"></circle>
                            <path d="M52.4926864,21.6625011 C52.4926864,21.6625011 51.5924495,25.3554704 51.0397148,25.8319239 C50.4869801,26.3083775 49.4226787,25.8422158 49.074571,25.3700001 C48.7264632,24.8977843 52.4926864,21.6625011 52.4926864,21.6625011 Z" id="Path_1997" fill="#FAC896"></path>
                            <path d="M47.3086049,24.9450059 C47.3086049,24.9450059 45.2266179,22.6148028 45.1539692,22.5034084 C45.081321,22.3920139 43.4860791,26.1842695 47.3086049,24.9450059 Z" id="Path_1998" fill="#D79654"></path>
                            <path d="M48.0992638,19.1785252 C48.9680195,17.9198886 50.5366233,17.4900512 51.5954765,18.2213802 C52.6543297,18.9527092 52.8062861,20.5715616 51.9399517,21.8301982 C51.0736177,23.0888348 49.5025921,23.5180668 48.4437389,22.7867378 C47.3848862,22.0554088 47.2311133,20.4365564 48.0992638,19.1785252 Z M48.4328416,19.408579 C47.6906155,20.4831725 47.7989831,21.8489658 48.6750035,22.4531598 C49.5510244,23.0573538 50.8653581,22.6747379 51.6075847,21.599539 C52.3498108,20.5243401 52.2414432,19.1591522 51.3654227,18.5549583 C50.4894019,17.9507643 49.1756734,18.3339855 48.4340525,19.408579 L48.4328416,19.408579 Z" id="Path_1999" fill="#FFFFFF"></path>
                            <path d="M48.7373605,18.5822015 C48.8330256,18.6357697 48.9534837,18.6113178 49.02069,18.524688 C49.0501102,18.4759273 49.0583447,18.4172678 49.0434859,18.3622915 C49.0286276,18.3073153 48.9919649,18.26079 48.941987,18.2334883 L39.0399863,11.8864244 C38.942297,11.8155768 38.8060419,11.8348506 38.7318353,11.9300135 C38.7025647,11.9789093 38.6944146,12.0375985 38.7092544,12.0926198 C38.7240941,12.1476411 38.7606503,12.1942727 38.8105379,12.2218187 L48.7125389,18.5682772 C48.7204433,18.5735482 48.7287417,18.5782034 48.7373605,18.5822015 L48.7373605,18.5822015 Z" id="Path_2000" fill="#FFFFFF"></path>
                            <g id="Group_971" transform="translate(50.772610, 16.534326)" fill="#231F20">
                                <path d="M0.0667161595,0.504698401 C0.109221182,0.534667052 0.164244355,0.540398632 0.212013311,0.519833521 C0.661445517,0.253479624 1.21575144,0.23498754 1.68193617,0.470795732 L1.68193617,0.470795732 C2.26978423,0.876416948 2.24496263,1.91286997 2.24435723,1.92376725 C2.24819835,2.00273703 2.31195338,2.06556701 2.39097085,2.0682536 C2.46998833,2.0709402 2.53786363,2.01258564 2.54705963,1.93405913 C2.58005361,1.28866561 2.32636328,0.661640599 1.85387113,0.22076355 L1.85387113,0.22076355 C1.30384195,-0.0801345084 0.63684358,-0.0730241406 0.0933539707,0.239531099 C0.0421098039,0.260951479 0.00663451853,0.308623183 0.0008333556,0.363860343 C-0.00496780733,0.419097504 0.0198294494,0.473099201 0.0655053499,0.504698401 L0.0667161595,0.504698401 Z" id="Path_2001"></path>
                            </g>
                        </g>
                    </g>
                </g>
            </g>
        </g>
    </g>
</svg>