<?xml version="1.0" encoding="UTF-8"?>
<svg width="26px" height="26px" viewBox="0 0 26 26" version="1.1" xmlns="http://www.w3.org/2000/svg" xmlns:xlink="http://www.w3.org/1999/xlink">
  <title>Lien vers un document vidéo</title>
  <desc>Lien vers un tutoriel sous la forme d'une vidéo.</desc>
    <g id="Symbols" stroke="none" stroke-width="1" fill="none" fill-rule="evenodd">
        <g id="icon/video" fill="#3D68FF">
            <g>
                <g>
                    <path d="M24.6232477,2.23191515 C23.348245,0.646645215 20.9942186,0 16.4985522,0 L9.501106,0 C4.90255064,0 2.50864475,0.688356573 1.23842757,2.37611727 C-1.80921944e-12,4.02168991 -1.80921944e-12,6.44631152 -1.80921944e-12,9.80204982 L-1.80921944e-12,16.1980694 C-1.80921944e-12,22.6992015 1.4693865,26 9.501106,26 L16.4986661,26 C20.3972803,26 22.5576066,25.4293886 23.9552101,24.0303897 C25.3884773,22.5957574 26,20.2533667 26,16.1980694 L26,9.80204982 C26,6.26313908 25.9041754,3.82421642 24.6232477,2.23191515 Z M18.0158083,13.883089 L10.6052965,17.9339769 C10.4396259,18.0245501 10.2584593,18.0694792 10.0775206,18.0694792 C9.87265421,18.0694792 9.66824358,18.0117984 9.48719092,17.8971517 C9.14627867,17.6810869 8.93810798,17.2946014 8.93810798,16.8777261 L8.93810798,8.80193064 C8.93810798,8.38577047 9.14570896,7.99964247 9.48593757,7.78345847 C9.82628011,7.56727446 10.2495719,7.55249672 10.6026759,7.74436897 L18.0131876,11.7691574 C18.3902192,11.9739006 18.6269892,12.3810035 18.6275595,12.8251698 C18.6280147,13.2696937 18.3922702,13.6773924 18.0158083,13.883089 Z" fill-rule="nonzero"></path>
                </g>
            </g>
        </g>
    </g>
</svg>
