<?xml version="1.0" encoding="UTF-8"?>
<svg width="111px" height="114px" viewBox="0 0 111 114" version="1.1" xmlns="http://www.w3.org/2000/svg" xmlns:xlink="http://www.w3.org/1999/xlink">
    <!-- Generator: sketchtool 50.2 (55047) - http://www.bohemiancoding.com/sketch -->
    <title>8F040151-E910-4C26-8D3C-FC93048C5A60</title>
    <desc>Created with sketchtool.</desc>
    <defs>
        <linearGradient x1="68.6429521%" y1="0%" x2="68.6429501%" y2="100%" id="linearGradient-1">
            <stop stop-color="#FFBE00" offset="0%"></stop>
            <stop stop-color="#FF9F00" offset="100%"></stop>
        </linearGradient>
        <linearGradient x1="50%" y1="0%" x2="50%" y2="97.4643244%" id="linearGradient-2">
            <stop stop-color="#555555" offset="0%"></stop>
            <stop stop-color="#222222" offset="100%"></stop>
        </linearGradient>
    </defs>
    <g id="↳-CERTIFICATION-Profil" stroke="none" stroke-width="1" fill="none" fill-rule="evenodd">
        <g id="Certif--obtenue" transform="translate(-215.000000, -200.000000)" fill-rule="nonzero">
            <g id="icon-certification" transform="translate(214.999999, 200.988281)">
                <path d="M13.3074117,13.1016497 L99.7780797,13.1016497 L99.7780797,78.6096781 L15.9277417,78.6096781 C14.4812456,78.6096781 13.3074117,77.4358443 13.3074117,75.9893482 L13.3074117,13.1016497 Z" id="Shape" fill="#FFFFFF"></path>
                <circle id="Oval" fill="url(#linearGradient-1)" cx="86.67665" cy="70.7486883" r="20.9626395"></circle>
                <g id="Group" transform="translate(76.142954, 60.078111)">
                    <circle id="Oval" fill="#FFFFFF" cx="10.5336955" cy="10.6705768" r="10.4813198"></circle>
                    <polygon id="Shape" fill="url(#linearGradient-1)" points="2.67270573 31.6332163 2.67270573 49.9755259 10.5336955 44.734866 18.3944653 49.9755259 18.3944653 31.6332163"></polygon>
                </g>
                <path d="M102.39841,0 L8.06675185,0 C3.72484291,0 0.20576203,3.51908088 0.20576203,7.86098982 L0.20576203,81.2300081 C0.20576203,85.571917 3.72484291,89.0909979 8.06675185,89.0909979 L63.0936806,89.0909979 L63.0936806,83.850338 L8.06675185,83.850338 C6.62025578,83.850338 5.44642191,82.6765041 5.44642191,81.2300081 L5.44642191,7.86098982 C5.44642191,6.41449375 6.62025578,5.24065988 8.06675185,5.24065988 L102.39841,5.24065988 C103.844906,5.24065988 105.01874,6.41449375 105.01874,7.86098982 L105.01874,49.7862689 L110.259399,49.7862689 L110.259399,7.86098982 C110.259399,3.51908088 106.740319,0 102.39841,0 Z" id="Shape" fill="url(#linearGradient-2)"></path>
                <path d="M99.7780797,41.925279 L99.7780797,15.7219796 C99.7780797,12.8265668 97.4328327,10.4813198 94.5374198,10.4813198 L15.9277417,10.4813198 C13.0323288,10.4813198 10.6870818,12.8265668 10.6870818,15.7219796 L10.6870818,73.3690182 C10.6870818,76.2644311 13.0323288,78.6096781 15.9277417,78.6096781 L57.8530207,78.6096781 L57.8530207,73.3690182 L15.9277417,73.3690182 L15.9277417,15.7219796 L94.5374198,15.7219796 L94.5374198,41.925279 L99.7780797,41.925279 Z" id="Shape" fill="url(#linearGradient-1)"></path>
                <path d="M86.67665,47.1659389 C73.6641272,47.1527349 63.1042438,57.6890713 63.0910398,70.7042349 C63.0804766,79.6710581 68.1613683,87.8647882 76.1953303,91.8424874 L76.1953303,110.053637 C76.1953303,111.500133 77.3691642,112.673967 78.8156602,112.673967 C79.3345767,112.673967 79.8402891,112.521902 80.2698586,112.233835 L86.67665,107.957505 L93.0834415,112.228553 C94.286104,113.032896 95.9134946,112.708078 96.7178371,111.502774 C97.0034832,111.072985 97.1579698,110.569913 97.1579698,110.053637 L97.1579698,91.8424874 C108.818405,86.0672863 113.590104,71.9333054 107.814903,60.2702294 C103.836983,52.2362674 95.6432532,47.1553757 86.67665,47.1659389 Z M91.9170899,94.3316578 L91.9170899,105.158922 L88.1306284,102.633 C87.2501429,102.046083 86.102497,102.046083 85.2220115,102.633 L81.43555,105.158922 L81.43555,94.3316578 L91.9170899,94.3316578 Z M86.67665,89.0909979 C76.5465562,89.0909979 68.3343405,80.8790023 68.3343405,70.7486883 C68.3343405,60.6183744 76.5463361,52.4063787 86.67665,52.4063787 C96.8067439,52.4063787 105.01896,60.6183744 105.01896,70.7486883 C105.008396,80.8737207 96.8041031,89.0806548 86.67665,89.0909979 Z" id="Shape" fill="url(#linearGradient-2)"></path>
                <path d="M86.67665,57.6470386 C79.441969,57.6470386 73.5750003,63.5140073 73.5750003,70.7486883 C73.5750003,77.9833693 79.441969,83.850338 86.67665,83.850338 C93.9113311,83.850338 99.7782997,77.9833693 99.7782997,70.7486883 C99.7703774,63.5166481 93.9086903,57.654961 86.67665,57.6470386 Z M86.67665,78.6096781 C82.3347411,78.6096781 78.8156602,75.0905972 78.8156602,70.7486883 C78.8156602,66.4067794 82.3347411,62.8876985 86.67665,62.8876985 C91.018559,62.8876985 94.5376399,66.4067794 94.5376399,70.7486883 C94.5376399,75.0905972 91.0183389,78.6096781 86.67665,78.6096781 Z" id="Shape" fill="url(#linearGradient-2)"></path>
                <rect id="Rectangle-path" fill="#000000" x="42.1310411" y="28.6789886" width="20.9626395" height="5.24065988"></rect>
                <rect id="Rectangle-path" fill="#000000" x="29.0293914" y="39.3049491" width="47.1659389" height="5.24065988"></rect>
            </g>
        </g>
    </g>
</svg>