<svg width="24" height="24" viewBox="0 0 46 41" fill="none" xmlns="http://www.w3.org/2000/svg">
<path d="M31.9062 27.9531C31.75 28.1094 31.75 28.2656 31.75 28.4219V37.25H4.25V9.75H23.0781C23.2344 9.75 23.3906 9.75 23.5469 9.59375L26.0469 7.09375C26.4375 6.70312 26.125 6 25.5781 6H4.25C2.14062 6 0.5 7.71875 0.5 9.75V37.25C0.5 39.3594 2.14062 41 4.25 41H31.75C33.7812 41 35.5 39.3594 35.5 37.25V25.9219C35.5 25.375 34.7969 25.0625 34.4062 25.4531L31.9062 27.9531ZM44.0938 12.25C45.8906 10.4531 45.8906 7.5625 44.0938 5.76562L40.7344 2.40625C38.9375 0.609375 36.0469 0.609375 34.25 2.40625L13.7812 22.875L13 29.9844C12.7656 32.0156 14.4844 33.7344 16.5156 33.5L23.625 32.7188L44.0938 12.25ZM36.4375 14.5938L21.9062 29.125L16.75 29.75L17.375 24.5938L31.9062 10.0625L36.4375 14.5938ZM41.4375 8.42188C41.8281 8.73438 41.8281 9.20312 41.5156 9.59375L39.0938 12.0156L34.5625 7.40625L36.9062 5.0625C37.2188 4.67188 37.7656 4.67188 38.0781 5.0625L41.4375 8.42188Z" fill="#7A869A"/>
</svg>
