<?xml version="1.0" encoding="UTF-8"?>
<svg width="183px" height="182px" viewBox="0 0 183 182" version="1.1" xmlns="http://www.w3.org/2000/svg" xmlns:xlink="http://www.w3.org/1999/xlink">
    <title>C23FBA7A-638E-4325-8A43-B9999397CEA4</title>
    <defs></defs>
    <g id="4️⃣-CAMPAGNES" stroke="none" stroke-width="1" fill="none" fill-rule="evenodd">
        <g id="campagne--home-vide" transform="translate(-741.000000, -189.000000)" fill="#666666" fill-rule="nonzero">
            <g id="Group" transform="translate(561.000000, 189.000000)">
                <g id="icon-campagne-start" transform="translate(180.500000, 0.000000)">
                    <path d="M0,0 L0,146.39932 L72.1368007,146.39932 L81.983619,156.246138 L81.983619,181.535156 L87.8395917,181.535156 L87.8395917,153.821765 L54.8470411,120.832142 C53.4650315,119.447205 52.703755,117.611357 52.703755,115.655462 C52.703755,113.699568 53.4650315,111.86372 54.8470411,110.478783 C57.6139882,107.711835 62.4305258,107.711835 65.197473,110.478783 L87.8395917,133.117973 L87.8395917,54.1677482 C87.8395917,50.130055 91.1218645,46.8477823 95.1595577,46.8477823 C99.1972509,46.8477823 102.479524,50.130055 102.479524,54.1677482 L102.479524,89.3035849 L102.479524,96.6235509 L108.335496,96.6235509 L108.335496,89.3035849 C108.335496,85.2658917 111.617769,81.983619 115.655462,81.983619 C119.693156,81.983619 122.975428,85.2658917 122.975428,89.3035849 L122.975428,92.2315713 L122.975428,96.6235509 L128.831401,96.6235509 L128.831401,92.2315713 C128.831401,88.1938781 132.113674,84.9116053 136.151367,84.9116053 C140.18906,84.9116053 143.471333,88.1938781 143.471333,92.2315713 L143.471333,98.0875441 L143.471333,99.5515373 L149.327306,99.5515373 L149.327306,98.0875441 C149.327306,94.0498509 152.609579,90.7675781 156.647272,90.7675781 C160.684965,90.7675781 163.967238,94.0498509 163.967238,98.0875441 L163.967238,161.039252 C163.967238,165.882141 160.026168,169.823211 155.183279,169.823211 L152.255292,169.823211 L152.255292,181.535156 L158.111265,181.535156 L158.111265,175.383457 C164.784146,174.021943 169.823211,168.110339 169.823211,161.039252 L169.823211,146.39932 L181.535156,146.39932 L181.535156,0 L0,0 Z M54.5688824,128.831401 L46.7745826,128.831401 C47.9926249,127.221009 48.9003007,125.373449 49.3717065,123.344355 C49.7816246,123.909456 50.2061826,124.468701 50.7097963,124.972315 L54.5688824,128.831401 Z M46.7745826,111.263483 L47.6471225,111.263483 C47.550499,111.535786 47.4743713,111.813944 47.3953157,112.095031 C47.2049966,111.802232 46.9824696,111.541642 46.7745826,111.263483 Z M81.983619,118.981655 L74.3093666,111.307403 L81.983619,111.275195 L81.983619,118.981655 Z M81.983619,93.6955645 L46.7716546,93.6955645 C48.630926,91.2419119 49.7757686,88.22023 49.7757686,84.9116053 C49.7757686,81.6029807 48.630926,78.5812988 46.7716546,76.1276462 L81.983619,76.1276462 L81.983619,93.6955645 Z M95.1595577,40.9918095 C87.8952235,40.9918095 81.983619,46.903414 81.983619,54.1677482 L81.983619,58.5597278 L46.7716546,58.5597278 C48.630926,56.1060752 49.7757686,53.0843933 49.7757686,49.7757686 C49.7757686,46.467144 48.630926,43.4454621 46.7716546,40.9918095 L95.1595577,40.9918095 L143.471333,40.9918095 C148.314223,40.9918095 152.255292,44.9328792 152.255292,49.7757686 C152.255292,54.6186581 148.314223,58.5597278 143.471333,58.5597278 L108.335496,58.5597278 L108.335496,54.1677482 C108.335496,46.903414 102.423892,40.9918095 95.1595577,40.9918095 Z M152.187949,85.7431535 C150.838147,86.2321272 149.611321,86.931916 148.50747,87.8073839 C146.680406,82.7214715 141.858013,79.0556326 136.151367,79.0556326 C132.605576,79.0556326 129.396503,80.4786339 127.024834,82.7653913 C124.74686,78.8184657 120.53056,76.1276462 115.655462,76.1276462 C112.947075,76.1276462 110.431935,76.9533383 108.335496,78.3587718 L108.335496,76.1276462 L115.655462,76.1276462 L143.471333,76.1276462 C148.314223,76.1276462 152.255292,80.0687159 152.255292,84.9116053 C152.255292,85.1751241 152.223084,85.4562108 152.187949,85.7431535 Z M175.679183,140.543347 L169.823211,140.543347 L169.823211,98.0875441 C169.823211,91.3180396 164.675811,85.7929292 158.099553,85.0580047 C158.099553,85.0111569 158.111265,84.9584531 158.111265,84.9116053 C158.111265,76.8391469 151.543792,70.2716734 143.471333,70.2716734 L108.335496,70.2716734 L108.335496,64.4157006 L143.471333,64.4157006 C151.543792,64.4157006 158.111265,57.8482271 158.111265,49.7757686 C158.111265,41.7033102 151.543792,35.1358367 143.471333,35.1358367 L35.1358367,35.1358367 C27.0633782,35.1358367 20.4959047,41.7033102 20.4959047,49.7757686 C20.4959047,57.8482271 27.0633782,64.4157006 35.1358367,64.4157006 L81.983619,64.4157006 L81.983619,70.2716734 L35.1358367,70.2716734 C27.0633782,70.2716734 20.4959047,76.8391469 20.4959047,84.9116053 C20.4959047,92.9840638 27.0633782,99.5515373 35.1358367,99.5515373 L81.983619,99.5515373 L81.983619,105.419222 L68.2894266,105.477782 C65.9499655,103.571663 63.0834668,102.479524 60.023721,102.479524 C56.9991111,102.479524 54.1677482,103.545311 51.842927,105.40751 L35.1358367,105.40751 C27.0633782,105.40751 20.4959047,111.974984 20.4959047,120.047442 C20.4959047,128.119901 27.0633782,134.687374 35.1358367,134.687374 L60.4248552,134.687374 L66.2808279,140.543347 L5.85597278,140.543347 L5.85597278,29.2798639 L175.679183,29.2798639 L175.679183,140.543347 Z M43.9197959,49.7757686 C43.9197959,54.6186581 39.9787262,58.5597278 35.1358367,58.5597278 C30.2929472,58.5597278 26.3518775,54.6186581 26.3518775,49.7757686 C26.3518775,44.9328792 30.2929472,40.9918095 35.1358367,40.9918095 C39.9787262,40.9918095 43.9197959,44.9328792 43.9197959,49.7757686 Z M43.9197959,84.9116053 C43.9197959,89.7544948 39.9787262,93.6955645 35.1358367,93.6955645 C30.2929472,93.6955645 26.3518775,89.7544948 26.3518775,84.9116053 C26.3518775,80.0687159 30.2929472,76.1276462 35.1358367,76.1276462 C39.9787262,76.1276462 43.9197959,80.0687159 43.9197959,84.9116053 Z M43.9197959,120.047442 C43.9197959,124.890332 39.9787262,128.831401 35.1358367,128.831401 C30.2929472,128.831401 26.3518775,124.890332 26.3518775,120.047442 C26.3518775,115.204553 30.2929472,111.263483 35.1358367,111.263483 C39.9787262,111.263483 43.9197959,115.204553 43.9197959,120.047442 Z M175.679183,23.4238911 L5.85597278,23.4238911 L5.85597278,5.85597278 L175.679183,5.85597278 L175.679183,23.4238911 Z" id="Shape"></path>
                    <rect id="Rectangle-path" x="11.7119456" y="11.7119456" width="5.85597278" height="5.85597278"></rect>
                    <rect id="Rectangle-path" x="23.4238911" y="11.7119456" width="5.85597278" height="5.85597278"></rect>
                    <rect id="Rectangle-path" x="35.1358367" y="11.7119456" width="5.85597278" height="5.85597278"></rect>
                </g>
            </g>
        </g>
    </g>
</svg>
