<svg xmlns="http://www.w3.org/2000/svg" width="20" height="22" fill="#585f75" fill-rule="evenodd">
  <path d="M10 0C7.026 0 4.615 2.4 4.615 5.385S7.026 10.77 10 10.77s5.385-2.4 5.385-5.385S12.974 0 10 0zM6.154 5.385C6.154 3.26 7.876 1.54 10 1.54s3.846 1.722 3.846 3.846S12.124 9.23 10 9.23 6.154 7.5 6.154 5.385zm-2.612 6.923c-1.015 0-2.036.508-2.528 1.5-.403.812-.896 2.02-1.003 3.27-.08.925.305 1.877 1.156 2.406 1.347.837 4.122 2.054 8.834 2.054s7.487-1.218 8.834-2.054c.85-.53 1.235-1.48 1.156-2.406-.107-1.25-.6-2.457-1.003-3.27-.492-.993-1.513-1.5-2.528-1.5H3.542zm-1.15 2.185c.193-.388.623-.646 1.15-.646H16.46c.527 0 .957.258 1.15.646.37.745.766 1.75.85 2.718.037.43-.142.786-.435.967C16.925 18.86 14.432 20 10 20s-6.925-1.14-8.022-1.823c-.293-.182-.472-.537-.435-.967.083-.967.48-1.973.85-2.718z"/>
</svg>
