<svg width="14" height="14" viewBox="0 0 14 14" fill="none" xmlns="http://www.w3.org/2000/svg">
<path d="M1.5 0C0.65625 0 0 0.6875 0 1.5V12.5C0 13.3438 0.65625 14 1.5 14H12.5C13.3125 14 14 13.3438 14 12.5V1.5C14 0.6875 13.3125 0 12.5 0H1.5ZM10.2812 6.5C10.5938 6.78125 10.5938 7.25 10.2812 7.53125L6.0625 11.7812C5.78125 12.0625 5.28125 12.0625 5 11.7812L4.46875 11.25C4.1875 10.9688 4.1875 10.4688 4.46875 10.1875L7.65625 7L4.46875 3.84375C4.1875 3.5625 4.1875 3.0625 4.46875 2.78125L5 2.25C5.28125 1.96875 5.78125 1.96875 6.0625 2.25L10.2812 6.5Z" fill="#344563"/>
</svg>
