<svg xmlns="http://www.w3.org/2000/svg" xmlns:xlink="http://www.w3.org/1999/xlink" width="97" height="142" xmlns:v="https://vecta.io/nano"><defs><path d="M36.517 8.2H66.04c4.948 0 7.217 3.234 8.255 9.112l8.285 47.383H26.005a13 13 0 0 1-12.574-9.698L.422 5.467C.19 2.448 2.448 0 5.467 0h14.607a5.5 5.5 0 0 1 3.856 1.578L26.496 4.1c2.673 2.628 6.272 4.1 10.02 4.1z" id="A"/><filter x="-2.4%" y="-6.2%" width="109.7%" height="109.3%" id="B"><feOffset dx="4" dy="-2" in="SourceAlpha"/><feColorMatrix values="0 0 0 0 0.893149447 0 0 0 0 0.893149447 0 0 0 0 0.893149447 0 0 0 1 0"/></filter><path d="M0 24.623C9.52 18.12 14.5 10.018 14.97.317c2.5-.373 7.328.092 19.442 2.2 1.128.196 1.228 1.987.3 5.372 4.084 1.5 5.956 2.926 5.614 4.283-2.96 11.76-6.877 17.123-12.787 19.642-6.78.86-15.96-1.536-27.54-7.192z" id="C"/><filter x="-21.1%" y="-26.7%" width="142.1%" height="207.0%" id="D"><feOffset dy="17" in="SourceAlpha"/><feColorMatrix values="0 0 0 0 0.105882353 0 0 0 0 0.207843137 0 0 0 0 0.329411765 0 0 0 0.272192029 0"/></filter><circle id="E" cx="8.019" cy="8.019" r="8.019"/><filter x="-40.5%" y="-34.3%" width="181.1%" height="181.1%" id="F"><feOffset dy="1" in="SourceAlpha"/><feGaussianBlur stdDeviation="2"/><feColorMatrix values="0 0 0 0 0.266236585 0 0 0 0 0.807960356 0 0 0 0 1 0 0 0 0.527853261 0"/></filter><path id="G" d="M26.96 30.25c.956-.414 1.898-.62 2.828-.62.91 0 1.82.198 2.728.595.825.36 1.36 1.174 1.36 2.075a.78.78 0 0 1-1.114.705c-1-.47-1.988-.705-2.994-.705s-2.02.237-3.032.712c-.393.184-.86.015-1.046-.378-.05-.105-.075-.22-.075-.334a2.23 2.23 0 0 1 1.345-2.048z"/></defs><g fill="none" fill-rule="evenodd"><g transform="translate(0 67.43)"><path d="M58.845 18.07H86.15a5.5 5.5 0 0 1 5.41 6.492L84.2 64.696H51.3c-5.523 0-10-4.477-10-10a10 10 0 0 1 .379-2.726l7.545-26.625a10 10 0 0 1 9.621-7.274z" fill="#a0b8d1"/><use fill="#000" filter="url(#B)" xlink:href="#A"/><use fill="#caecff" xlink:href="#A"/><g opacity=".8" fill="#1b3554"><use xlink:href="#G" opacity=".39"/><use xlink:href="#G" x="20.792" opacity=".39"/><path d="M40.596 45.055c3.82 0 6.914-2.844 6.914-7.71-6.914-.03-8.4.14-13.828 0 0 4.867 3.096 7.71 6.914 7.71z" opacity=".39"/></g></g><g transform="matrix(.99863 -.052336 .052336 .99863 22.774316 36.298567)"><path d="M10.333 7.1c2.87 6.682-.288 15.03-5.173 21.637 5.863 1.506 16.214 3.06 24.387 3.53.39.022 1.487-.4 1.854-.425 2.22-.16 3.04-2.003 3.734-2.67 2.467-4.34 5.122-7.695 5.568-13.032.228-2.737.178-5.006-.03-5.934C37.34 8.37 30.9 10.052 10.333 7.1z" fill="#3d68ff" opacity=".563"/><path d="M31.65 27.174c1.433 1.405.106 5.153-2.71 5.087 2.99.04 4.604-1.047 5.766-2.138s6.617-6.156 5.948-19.894c.088 11.614-2.767 17.284-9.005 16.945z" fill="#5e80f7"/></g><g transform="matrix(.93358 .358368 -.358368 .93358 58.006736 .193307)"><path d="M34.706 2.65c1.3 1.28 2.41 2.523 3.328 3.726 1.9 2.504 2.48 5.966 2.347 6.053-.724.477-4.866-2.274-5.675-4.51-.485-1.34-.485-3.096 0-5.27z" fill="#2faeab"/><use fill="#000" filter="url(#D)" xlink:href="#C"/><use fill="#1a8c89" xlink:href="#C"/></g><g transform="translate(73.808 120.736)"><use fill="#000" filter="url(#F)" xlink:href="#E"/><use fill="#20bf55" xlink:href="#E"/><path d="M6.807 10.507a.68.68 0 0 0 .966 0L11.2 7.09c.267-.267.267-.7 0-.966s-.7-.267-.966 0L7.3 9.057 5.723 7.5c-.267-.267-.7-.267-.966 0s-.267.7 0 .966l2.05 2.05z" fill="#fff" fill-rule="nonzero"/></g></g></svg>