<?xml version="1.0" encoding="UTF-8"?>
<svg width="345px" height="238px" viewBox="0 0 345 238" version="1.1" xmlns="http://www.w3.org/2000/svg" xmlns:xlink="http://www.w3.org/1999/xlink">
    <title>33</title>
    <defs>
        <linearGradient x1="50%" y1="100%" x2="50%" y2="0.301846591%" id="linearGradient-1">
            <stop stop-color="#52D987" stop-opacity="0.159849794" offset="0%"></stop>
            <stop stop-color="#1A8C89" stop-opacity="0.402919956" offset="100%"></stop>
        </linearGradient>
        <linearGradient x1="50%" y1="100%" x2="50%" y2="0%" id="linearGradient-2">
            <stop stop-color="#52D987" offset="0%"></stop>
            <stop stop-color="#1A8C89" offset="100%"></stop>
        </linearGradient>
        <linearGradient x1="19.3194444%" y1="0%" x2="80.6805556%" y2="100%" id="linearGradient-3">
            <stop stop-color="#12A3FF" offset="0%"></stop>
            <stop stop-color="#3D68FF" offset="100%"></stop>
        </linearGradient>
        <linearGradient x1="16.7243767%" y1="0%" x2="83.2756233%" y2="100%" id="linearGradient-4">
            <stop stop-color="#12A3FF" offset="0%"></stop>
            <stop stop-color="#3D68FF" offset="100%"></stop>
        </linearGradient>
    </defs>
    <g id="DASHBOARD" stroke="none" stroke-width="1" fill="none" fill-rule="evenodd">
        <g id="certif-Dashboard---sco-closed-certification" transform="translate(-670.000000, -214.000000)">
            <g id="Group-5" transform="translate(568.000000, 214.000000)">
                <g id="33" transform="translate(103.000000, 0.000000)">
                    <path d="M174,238 C238.617003,238 291,185.403335 291,120.5 C291,55.6216274 238.617003,3 174,3 C109.382997,3 57,55.6216274 57,120.5 C57,185.403335 109.382997,238 174,238 Z" id="Path" fill="#EAECF0" fill-rule="nonzero"></path>
                    <path d="M106.855692,13.6976917 C110.005301,12.6847688 111.728816,9.29147679 110.704367,6.15141557 C109.679918,2.98603128 106.29644,1.26406223 103.146831,2.30230828 C99.9946797,3.31523125 98.2711648,6.70852321 99.2956139,9.84858443 C100.320063,13.0139687 103.703541,14.7359378 106.855692,13.6976917 Z" id="Path" fill="#EAEEF9" fill-rule="nonzero"></path>
                    <polygon id="Path" fill="#FFFFFF" fill-rule="nonzero" points="239.867657 217 27 217 65.8950712 38 279 38"></polygon>
                    <polygon id="Path" fill="#D0F2AE" fill-rule="nonzero" points="239.867657 217 27 217 65.8950712 38 279 38"></polygon>
                    <path d="M117,217 L73.1068503,217 C65.1265037,217 58.5537221,210.152733 59.0237394,202.135207 L66.0640514,38 L76.6282497,38 L117,217 Z" id="Path" fill="url(#linearGradient-1)"></path>
                    <polygon id="Path" fill="#FFFFFF" fill-rule="nonzero" points="325 217 112.771498 217 76.8120025 79.5068855 76.5779333 78.5607178 66 38 278.465062 38 287.63111 73.1327027 289.040505 78.5607178 289.274574 79.5068855"></polygon>
                    <polygon id="Path" fill="url(#linearGradient-2)" fill-rule="nonzero" points="289 79 76.5760123 79 66 38 278.426477 38 287.590861 73.5131983"></polygon>
                    <path d="M121.5,67 C125.642384,67 129,63.6584158 129,59.5 C129,55.3663366 125.642384,52 121.5,52 C117.357616,52 114,55.3663366 114,59.5 C114,63.6584158 117.357616,67 121.5,67 Z" id="Path" fill="#ADB6C8" fill-rule="nonzero" opacity="0.3"></path>
                    <path d="M246.5,67 C250.642384,67 254,63.6584158 254,59.5 C254,55.3663366 250.642384,52 246.5,52 C242.357616,52 239,55.3663366 239,59.5 C239,63.6584158 242.357616,67 246.5,67 Z" id="Path" fill="#ADB6C8" fill-rule="nonzero" opacity="0.3"></path>
                    <path d="M120.115159,63 C118.693972,63 117.508812,61.8336853 117.508812,60.4192186 C117.508812,59.0047518 118.693972,57.8384372 120.115159,57.8384372 C125.327853,57.8384372 130.779085,50.5427666 130.779085,39.5 C130.779085,39.2766631 130.779085,38.8051742 130.779085,38.5570222 C130.543058,27.7624076 125.091825,21.186378 120.115159,21.186378 C115.37452,21.186378 110.161826,27.5142555 109.451232,37.3907075 L104,37.3907075 C104.710594,25.1816262 111.583013,16 119.87662,16 C128.647304,16 135.519724,26.0997888 135.99429,39.0285111 C135.99429,39.2766631 135.99429,39.5 135.99429,39.7481521 C136.230318,52.6768743 129.11936,63 120.115159,63 Z" id="Path" fill="#038A25" fill-rule="nonzero"></path>
                    <path d="M244.115098,63 C242.693916,63 241.508761,61.8336853 241.508761,60.4192186 C241.508761,59.0047518 242.693916,57.8384372 244.115098,57.8384372 C249.330284,57.8384372 254.781496,50.5427666 254.781496,39.5 C254.781496,39.2766631 254.781496,38.8051742 254.781496,38.5570222 C254.542958,27.7624076 249.094257,21.186378 244.115098,21.186378 C239.376988,21.186378 234.161803,27.5142555 233.451212,37.3907075 L228,37.3907075 C228.713102,25.1816262 235.585496,16 243.879072,16 C252.647212,16 259.519606,26.0997888 259.99417,39.0285111 C259.99417,39.2766631 259.99417,39.5 259.99417,39.7481521 C260.232708,52.6768743 253.121776,63 244.115098,63 Z" id="Path" fill="#038A25" fill-rule="nonzero"></path>
                    <line x1="0" y1="217" x2="343" y2="217" id="Path" stroke="#DFE1E6" stroke-width="2" stroke-linecap="round" stroke-linejoin="round"></line>
                    <path d="M247.353626,132 C245.939954,132 245,130.756614 245,129.486772 C245,128.005291 245.939954,127 247.353626,127 L254.646374,127 C256.060046,127 257,128.243386 257,129.486772 C257,130.994709 255.823187,132 254.646374,132 L247.353626,132 Z" id="Path" fill="#D5DAE8" fill-rule="nonzero" opacity="0.3"></path>
                    <path d="M147.435002,198 C146.491018,198 145.549532,197.279503 145.07754,196.360248 L141.306601,182.47205 L122.686649,182.47205 C121.270674,182.47205 120.329188,181.279503 120.329188,180.111801 C120.329188,178.695652 121.507918,177.751553 122.686649,177.751553 L139.893123,177.751553 L133.999468,157.055901 L116.086256,157.055901 C114.670281,157.055901 113.728794,155.888199 113.728794,154.695652 C113.728794,153.279503 114.670281,152.360248 116.086256,152.360248 L132.58599,152.360248 L126.692336,131.639752 L109.72061,131.639752 C108.307132,131.639752 107.365646,130.47205 107.365646,129.279503 C107.365646,127.888199 108.307132,126.944099 109.72061,126.944099 L125.513605,126.944099 L119.622449,106.223602 L103.357462,106.223602 C101.943984,106.223602 101,105.055901 101,103.888199 C101,102.47205 101.943984,101.52795 103.357462,101.52795 L118.206473,101.52795 L115.849012,93.0559006 C115.614264,91.8881988 116.321003,90.4720497 117.499734,90.2236025 C117.734481,90.2236025 117.971726,90.2236025 118.206473,90.2236025 C119.150457,90.2236025 120.091943,90.9440994 120.563935,91.8881988 L123.393388,101.52795 L142.248087,101.52795 C143.664062,101.52795 144.605548,102.47205 144.605548,103.888199 C144.605548,105.279503 143.664062,106.223602 142.248087,106.223602 L124.806866,106.223602 L130.70052,126.944099 L160.398544,126.944099 L150.971194,93.0559006 C150.73395,91.8881988 151.440689,90.4720497 152.61942,90.2236025 C152.856664,90.2236025 153.091411,90.2236025 153.326159,90.2236025 C154.270142,90.2236025 155.214126,90.9440994 155.68362,91.8881988 L158.513074,101.52795 L168.647162,101.52795 C170.063137,101.52795 171.004624,102.47205 171.004624,103.888199 C171.004624,105.279503 169.825893,106.223602 168.647162,106.223602 L159.926552,106.223602 L165.820206,126.944099 L185.856133,126.944099 C187.269611,126.944099 188.211097,128.111801 188.211097,129.279503 C188.211097,130.695652 187.269611,131.639752 185.856133,131.639752 L167.233684,131.639752 L173.127338,152.360248 L203.062606,152.360248 L190.096567,106.223602 L183.733418,106.223602 C182.31994,106.223602 181.375957,105.055901 181.375957,103.888199 C181.375957,102.47205 182.554687,101.52795 183.733418,101.52795 L188.683089,101.52795 L186.325627,93.0559006 C186.09088,92.3602484 186.325627,91.8881988 186.562872,91.1677019 C186.797619,90.6956522 187.269611,90.2236025 187.97635,90 C188.211097,90 188.448342,90 188.683089,90 C189.627072,90 190.568559,90.6956522 191.04055,91.6397516 L193.870004,101.279503 L198.819674,101.279503 C200.233152,101.279503 201.174639,102.223602 201.174639,103.639752 C201.174639,105.055901 200.233152,106 198.819674,106 L195.283482,106 L201.174639,126.695652 L231.109906,126.695652 L225.21875,106 L209.897746,106 C208.481771,106 207.540285,104.832298 207.540285,103.639752 C207.540285,102.223602 208.719015,101.279503 209.897746,101.279503 L223.096035,101.279503 L220.738574,92.8322981 C220.503826,91.6397516 221.210565,90.2236025 222.389296,90 C222.624043,90 222.861288,90 223.096035,90 C224.040019,90 224.981505,90.6956522 225.453497,91.6397516 L228.28295,101.279503 L258.215721,101.279503 L255.860756,92.8322981 C255.623512,91.6397516 256.330251,90.2236025 257.508982,90 C257.746226,90 257.980973,90 258.215721,90 C259.159704,90 260.103688,90.6956522 260.573182,91.6397516 L263.402636,101.279503 L281.78784,101.279503 C283.201318,101.279503 284.145301,102.223602 284.145301,103.639752 C284.145301,105.055901 283.201318,106 281.78784,106 L264.109375,106 L270.003029,126.695652 L287.678997,126.695652 C289.094972,126.695652 290.036458,127.888199 290.036458,129.055901 C290.036458,130.47205 289.094972,131.416149 287.678997,131.416149 L271.416507,131.416149 L277.310161,152.111801 L294.27939,152.111801 C295.695365,152.111801 296.636851,153.279503 296.636851,154.47205 C296.636851,155.888199 295.695365,156.832298 294.27939,156.832298 L278.723639,156.832298 L284.614796,177.52795 L300.645036,177.52795 C302.058514,177.52795 303,178.695652 303,179.888199 C303,181.279503 301.823766,182.223602 300.645036,182.223602 L285.793527,182.223602 L289.329719,194.695652 C289.566964,195.888199 288.857727,197.279503 287.678997,197.52795 C287.444249,197.52795 287.209502,197.52795 286.972258,197.52795 C286.030771,197.52795 285.086788,196.832298 284.614796,195.888199 L280.843856,182.223602 L250.911086,182.223602 L254.444781,194.47205 C254.682026,195.167702 254.444781,195.639752 254.210034,196.360248 C253.975287,196.832298 253.503295,197.279503 252.796556,197.52795 C252.559311,197.52795 252.324564,197.52795 252.087319,197.52795 C251.145833,197.52795 250.201849,196.832298 249.732355,195.888199 L245.958918,182.47205 L216.026148,182.47205 L219.559843,194.695652 C219.797087,195.888199 219.090348,197.279503 217.911617,197.52795 C217.674373,197.52795 217.439626,197.52795 217.204878,197.52795 C216.260895,197.52795 215.319409,196.832298 214.847417,195.888199 L211.076477,182.47205 L181.141209,182.47205 L184.677402,194.695652 C184.912149,195.888199 184.20541,197.279503 183.026679,197.52795 C182.791932,197.52795 182.554687,197.52795 182.31994,197.52795 C181.375957,197.52795 180.43447,196.832298 179.962479,195.888199 L176.191539,182.47205 L146.256271,182.47205 L149.792464,194.944099 C150.027211,195.639752 149.792464,196.111801 149.555219,196.832298 C149.320472,197.279503 148.84848,197.751553 148.141741,198 C147.906994,198 147.669749,198 147.435002,198 Z M214.610172,177.751553 L279.430378,177.751553 L273.536724,157.055901 L243.603954,157.055901 L245.724171,164.583851 C245.958918,165.279503 245.724171,165.751553 245.489424,166.47205 C245.252179,166.944099 244.782684,167.416149 244.073448,167.639752 C243.838701,167.639752 243.603954,167.639752 243.366709,167.639752 C242.425223,167.639752 241.481239,166.944099 241.009247,166 L238.654283,157.279503 L229.696428,157.279503 C228.28295,157.279503 227.338967,156.111801 227.338967,154.944099 C227.338967,153.52795 228.28295,152.583851 229.696428,152.583851 L237.238308,152.583851 L231.347151,131.888199 L201.64663,131.888199 L207.540285,152.583851 L214.847417,152.583851 C216.260895,152.583851 217.204878,153.751553 217.204878,154.944099 C217.204878,156.360248 216.260895,157.279503 214.847417,157.279503 L208.719015,157.279503 L214.610172,177.751553 Z M179.727731,177.751553 L209.660502,177.751553 L203.769345,157.055901 L173.834077,157.055901 L179.727731,177.751553 Z M144.842793,177.751553 L174.775563,177.751553 L168.884407,157.055901 L160.163796,157.055901 C158.747821,157.055901 157.806335,155.888199 157.806335,154.695652 C157.806335,153.279503 158.985066,152.360248 160.163796,152.360248 L167.705676,152.360248 L161.812022,131.639752 L131.879251,131.639752 L137.770408,152.360248 L145.549532,152.360248 C146.96301,152.360248 147.906994,153.52795 147.906994,154.695652 C147.906994,156.111801 146.728263,157.055901 145.549532,157.055901 L139.183886,157.055901 L144.842793,177.751553 Z M242.425223,152.360248 L272.357993,152.360248 L259.394452,106.223602 L229.224437,106.223602 L242.425223,152.360248 Z" id="Shape" fill="#D5DAE8" fill-rule="nonzero" opacity="0.3"></path>
                    <path d="M174.5,129 C164.660629,129 156.394253,122.799767 153.245754,113.907002 C152.460511,111.955534 153.63963,110.028768 155.60901,109.2383 C157.57588,108.472534 159.542751,109.633534 160.330503,111.5603 C162.299882,117.390001 168.203003,121.638767 174.5,121.638767 C180.796997,121.638767 186.700118,117.760533 188.669497,111.5603 C189.45474,109.633534 191.42412,108.472534 193.39099,109.2383 C195.36037,110.028768 196.539489,111.955534 195.754246,113.907002 C192.603239,123.195001 184.339371,129 174.5,129 Z" id="Path" fill="#88BEFF" fill-rule="nonzero"></path>
                    <path d="M233.5,129 C223.660629,129 215.394253,122.799767 212.245754,113.907002 C211.460511,111.955534 212.63963,110.028768 214.60901,109.2383 C216.57588,108.472534 218.54526,109.633534 219.330503,111.5603 C221.299882,117.390001 227.203003,121.638767 233.5,121.638767 C239.796997,121.638767 245.700118,117.760533 247.669497,111.5603 C248.457249,109.633534 250.42412,108.472534 252.39099,109.2383 C254.36037,110.028768 255.539489,111.955534 254.754246,113.907002 C251.605747,123.195001 243.339371,129 233.5,129 Z" id="Path" fill="#88BEFF" fill-rule="nonzero"></path>
                    <path d="M216,177 C220.971452,177 225,172.980583 225,168.012483 C225,163.019417 220.971452,159 216,159 C211.028548,159 207,163.019417 207,168.012483 C207,172.980583 211.028548,177 216,177 Z" id="Path" fill="#88BEFF" fill-rule="nonzero"></path>
                    <polygon id="Path" fill="url(#linearGradient-3)" points="24.5836522 11.5815691 24.5836522 0 69.4704507 0 69.4704507 11.5815691 38.8415179 48.4184309 70 48.4184309 70 60 23 60 23 48.4184309 53.6289328 11.5815691"></polygon>
                    <polygon id="Path" fill="url(#linearGradient-4)" points="77.2382543 94.4406999 77.2382543 86 111.277073 86 111.277073 94.4406999 88.3796152 121.5593 111.894737 121.5593 111.894737 130 76 130 76 121.5593 98.9003854 94.4406999"></polygon>
                </g>
            </g>
        </g>
    </g>
</svg>