<?xml version="1.0" encoding="UTF-8"?>
<svg width="294" height="327" viewBox="0 0 294 327" fill="none" xmlns="http://www.w3.org/2000/svg">
  <path d="M91.1398 325.793C106.503 325.793 118.957 320.931 118.957 314.932C118.957 308.934 106.503 304.071 91.1398 304.071C75.7766 304.071 63.3223 308.934 63.3223 314.932C63.3223 320.931 75.7766 325.793 91.1398 325.793Z" fill="url(#paint0_linear_1720_38844)"/>
  <path d="M140.521 247.181C158.041 247.181 172.244 242.21 172.244 236.078C172.244 229.947 158.041 224.976 140.521 224.976C123.001 224.976 108.799 229.947 108.799 236.078C108.799 242.21 123.001 247.181 140.521 247.181Z" fill="url(#paint1_linear_1720_38844)"/>
  <path d="M213.607 24.8594V161.845L107.002 223.252L20.5771 273.04L9.55371 279.384V142.399L213.607 24.8594Z" fill="url(#paint2_linear_1720_38844)"/>
  <path d="M16.4648 148.467L206.695 38.8926V147.536L16.4648 257.111V148.467Z" fill="white"/>
  <path d="M0.5 117.54L9.55366 122.78V279.385L0.5 274.178V122.78V117.54Z" fill="url(#paint3_linear_1720_38844)"/>
  <path d="M0.5 117.539L9.55366 122.78L213.641 5.20635L204.553 0L0.5 117.539Z" fill="url(#paint4_linear_1720_38844)"/>
  <path d="M9.38086 142.433L9.51908 122.573L213.572 5.10303L213.468 24.9285L9.38086 142.433Z" fill="url(#paint5_linear_1720_38844)"/>
  <path d="M163.133 45.866C164.348 43.0088 164.025 40.1354 162.41 39.4481C160.795 38.7607 158.5 40.5197 157.284 43.3769C156.068 46.2341 156.391 49.1075 158.006 49.7948C159.622 50.4822 161.917 48.7232 163.133 45.866Z" fill="white"/>
  <path d="M198.229 21.2394L167.371 38.9961C166.576 39.4443 165.954 40.6511 165.954 41.72C165.954 42.7543 166.576 43.237 167.371 42.7888L198.229 25.0321C199.024 24.5838 199.646 23.3771 199.646 22.3082C199.646 21.2738 199.024 20.7911 198.229 21.2394Z" fill="white"/>
  <path d="M135.925 65.0278L27.5576 127.435C25.7261 128.504 24.2402 127.366 24.2402 124.953C24.2402 122.539 25.7261 119.712 27.5576 118.643L135.891 56.2357C137.722 55.1668 139.208 56.3046 139.208 58.7182C139.208 61.1317 137.722 63.959 135.925 65.0278Z" fill="#F9FBFF"/>
  <path d="M148.66 54.8726C149.727 52.366 149.439 49.8434 148.017 49.2382C146.595 48.6331 144.577 50.1745 143.511 52.6811C142.444 55.1877 142.732 57.7103 144.154 58.3155C145.576 58.9206 147.593 57.3792 148.66 54.8726Z" stroke="#F9FBFF" stroke-width="0.762806"/>
  <path d="M148.745 55.0288L152.443 56.8217" stroke="#F9FBFF" stroke-width="0.762761" stroke-linecap="round"/>
  <path d="M95.6322 118.47L92.2112 116.505L24.6543 153.984V184.463L28.0408 186.566V157.397L95.6322 118.47Z" fill="url(#paint6_linear_1720_38844)"/>
  <path d="M95.6325 118.47V147.64L28.041 186.566V157.397L95.6325 118.47Z" fill="url(#paint7_linear_1720_38844)"/>
  <path d="M95.6325 118.47V147.64L28.041 186.566V157.397L95.6325 118.47Z" fill="white"/>
  <path d="M46.2173 155.466L88.4447 131.159C89.0322 130.814 89.4814 129.952 89.4814 129.193C89.4814 128.435 89.0322 128.09 88.4447 128.4L46.2173 152.708C45.6299 153.053 45.1807 153.915 45.1807 154.673C45.1807 155.432 45.6299 155.811 46.2173 155.466Z" fill="#DFE6FD"/>
  <path d="M46.2173 160.535L88.4447 136.227C89.0322 135.882 89.4814 135.02 89.4814 134.262C89.4814 133.503 89.0322 133.158 88.4447 133.469L46.2173 157.776C45.6299 158.121 45.1807 158.983 45.1807 159.742C45.1807 160.5 45.6299 160.88 46.2173 160.535Z" fill="#DFE6FD"/>
  <path d="M60.0396 157.638L88.4101 141.295C88.9975 140.951 89.4467 140.089 89.4467 139.33C89.4467 138.571 88.9975 138.227 88.4101 138.537L60.0396 154.88C59.4522 155.225 59.0029 156.087 59.0029 156.845C59.0029 157.604 59.4867 157.949 60.0396 157.638Z" fill="#DFE6FD"/>
  <path d="M32.9131 165.913C32.9131 164.672 33.6733 163.189 34.6064 162.638L42.3123 158.19C42.416 158.121 42.5542 158.087 42.6579 158.052C42.6233 156.845 41.8631 156.294 40.9647 156.845L33.2587 161.293C32.3257 161.845 31.5654 163.293 31.5654 164.569V174.809C31.5654 175.912 32.1529 176.498 32.9477 176.257C32.9477 176.223 32.9477 176.223 32.9477 176.188V165.913H32.9131Z" fill="#D9E0F7"/>
  <path d="M42.6582 158.155V168.396C42.6582 169.637 41.898 171.12 40.9304 171.671L33.2245 176.119C33.1208 176.188 32.9826 176.222 32.8789 176.257C32.8789 176.222 32.8789 176.222 32.8789 176.188V165.948C32.8789 164.706 33.6391 163.224 34.5721 162.672L42.2781 158.224C42.3818 158.155 42.52 158.121 42.6237 158.086C42.6582 158.086 42.6582 158.121 42.6582 158.155Z" fill="url(#paint8_linear_1720_38844)"/>
  <path opacity="0.6" d="M39.4784 177.636L47.1844 173.189C48.1174 172.637 48.8776 171.189 48.8776 169.913V159.673C48.8776 158.432 48.1174 157.845 47.1844 158.397L39.4784 162.845C38.5454 163.397 37.7852 164.845 37.7852 166.12V176.361C37.7852 177.602 38.5454 178.188 39.4784 177.636Z" fill="url(#paint9_linear_1720_38844)"/>
  <path d="M145.843 108.265V109.678L147.087 108.989" stroke="url(#paint10_linear_1720_38844)" stroke-width="0.75"/>
  <path d="M149.609 107.54L198.575 79.3364" stroke="url(#paint11_linear_1720_38844)" stroke-width="0.75" stroke-dasharray="2.89 2.89"/>
  <path d="M199.819 78.6126L201.063 77.8886V76.4404" stroke="url(#paint12_linear_1720_38844)" stroke-width="0.75"/>
  <path d="M201.063 73.7855V53.7876" stroke="url(#paint13_linear_1720_38844)" stroke-width="0.75" stroke-dasharray="2.67 2.67"/>
  <path d="M201.063 52.4428V50.9946L199.819 51.7187" stroke="url(#paint14_linear_1720_38844)" stroke-width="0.75"/>
  <path d="M197.296 53.167L148.365 81.3709" stroke="url(#paint15_linear_1720_38844)" stroke-width="0.75" stroke-dasharray="2.89 2.89"/>
  <path d="M147.087 82.0947L145.843 82.8188V84.2669" stroke="url(#paint16_linear_1720_38844)" stroke-width="0.75"/>
  <path d="M145.843 86.9219V106.92" stroke="url(#paint17_linear_1720_38844)" stroke-width="0.75" stroke-dasharray="2.67 2.67"/>
  <path d="M145.843 159.983V161.397L147.087 160.707" stroke="url(#paint18_linear_1720_38844)" stroke-width="0.75"/>
  <path d="M149.609 159.259L198.575 131.055" stroke="url(#paint19_linear_1720_38844)" stroke-width="0.75" stroke-dasharray="2.89 2.89"/>
  <path d="M199.819 130.331L201.063 129.607V128.159" stroke="url(#paint20_linear_1720_38844)" stroke-width="0.75"/>
  <path d="M201.063 125.504V105.506" stroke="url(#paint21_linear_1720_38844)" stroke-width="0.75" stroke-dasharray="2.67 2.67"/>
  <path d="M201.063 104.162V102.713L199.819 103.437" stroke="url(#paint22_linear_1720_38844)" stroke-width="0.75"/>
  <path d="M197.296 104.886L148.365 133.09" stroke="url(#paint23_linear_1720_38844)" stroke-width="0.75" stroke-dasharray="2.89 2.89"/>
  <path d="M147.087 133.813L145.843 134.538V135.986" stroke="url(#paint24_linear_1720_38844)" stroke-width="0.75"/>
  <path d="M145.843 138.641V158.639" stroke="url(#paint25_linear_1720_38844)" stroke-width="0.75" stroke-dasharray="2.67 2.67"/>
  <path d="M132.262 96.7138L130.154 95.8174L106.967 108.816V140.916L108.556 141.571V110.402L132.262 96.7138Z" fill="url(#paint26_linear_1720_38844)"/>
  <path d="M132.262 96.7139V127.883L108.557 141.571V110.402L132.262 96.7139Z" fill="url(#paint27_linear_1720_38844)"/>
  <path d="M132.262 96.7139V127.883L108.557 141.571V110.402L132.262 96.7139Z" fill="url(#paint28_linear_1720_38844)"/>
  <path d="M127.943 108.678L114.431 116.436C113.947 116.712 113.567 116.436 113.567 115.781V114.988C113.567 114.333 113.947 113.574 114.431 113.298L127.943 105.506C128.426 105.23 128.807 105.506 128.807 106.161V106.954C128.841 107.644 128.426 108.368 127.943 108.678Z" fill="white"/>
  <path d="M127.943 116.539L114.431 124.332C113.947 124.607 113.567 124.332 113.567 123.676V122.883C113.567 122.228 113.947 121.47 114.431 121.194L127.943 113.402C128.426 113.126 128.807 113.402 128.807 114.057V114.85C128.841 115.505 128.426 116.263 127.943 116.539Z" fill="white"/>
  <path d="M127.943 124.435L114.431 132.227C113.947 132.503 113.567 132.227 113.567 131.572V130.779C113.567 130.124 113.947 129.365 114.431 129.09L127.943 121.297C128.426 121.021 128.807 121.297 128.807 121.952V122.745C128.841 123.4 128.426 124.159 127.943 124.435Z" fill="white"/>
  <path d="M133.989 146.019L131.881 145.123L108.694 158.121V190.221L110.284 190.876V159.707L133.989 146.019Z" fill="url(#paint29_linear_1720_38844)"/>
  <path d="M133.99 146.019V177.188L110.284 190.876V159.707L133.99 146.019Z" fill="url(#paint30_linear_1720_38844)"/>
  <path d="M133.99 146.019V177.188L110.284 190.876V159.707L133.99 146.019Z" fill="url(#paint31_linear_1720_38844)"/>
  <path d="M129.67 157.983L116.159 165.741C115.675 166.017 115.295 165.741 115.295 165.086V164.293C115.295 163.638 115.675 162.879 116.159 162.604L129.67 154.811C130.154 154.536 130.534 154.811 130.534 155.466V156.26C130.569 156.949 130.154 157.673 129.67 157.983Z" fill="white"/>
  <path d="M129.67 165.844L116.159 173.637C115.675 173.913 115.295 173.637 115.295 172.982V172.189C115.295 171.534 115.675 170.775 116.159 170.499L129.67 162.707C130.154 162.431 130.534 162.707 130.534 163.362V164.155C130.569 164.81 130.154 165.569 129.67 165.844Z" fill="white"/>
  <path d="M129.67 173.74L116.159 181.532C115.675 181.808 115.295 181.532 115.295 180.877V180.084C115.295 179.429 115.675 178.671 116.159 178.395L129.67 170.602C130.154 170.327 130.534 170.602 130.534 171.257V172.051C130.569 172.706 130.154 173.464 129.67 173.74Z" fill="white"/>
  <path d="M95.6322 171.223L92.2112 169.258L24.6543 206.737V237.216L28.0408 239.319V210.15L95.6322 171.223Z" fill="url(#paint32_linear_1720_38844)"/>
  <path d="M95.6325 171.223V200.392L28.041 239.319V210.15L95.6325 171.223Z" fill="url(#paint33_linear_1720_38844)"/>
  <path d="M95.6325 171.223V200.392L28.041 239.319V210.15L95.6325 171.223Z" fill="white"/>
  <path d="M46.2173 208.219L88.4447 183.912C89.0322 183.567 89.4814 182.705 89.4814 181.946C89.4814 181.188 89.0322 180.843 88.4447 181.153L46.2173 205.461C45.6299 205.806 45.1807 206.668 45.1807 207.426C45.1807 208.185 45.6299 208.564 46.2173 208.219Z" fill="#DFE6FD"/>
  <path d="M46.2173 213.288L88.4447 188.98C89.0322 188.635 89.4814 187.773 89.4814 187.015C89.4814 186.256 89.0322 185.911 88.4447 186.222L46.2173 210.529C45.6299 210.874 45.1807 211.736 45.1807 212.495C45.1807 213.253 45.6299 213.632 46.2173 213.288Z" fill="#DFE6FD"/>
  <path d="M60.0396 210.391L88.4101 194.048C88.9975 193.703 89.4467 192.842 89.4467 192.083C89.4467 191.324 88.9975 190.98 88.4101 191.29L60.0396 207.633C59.4522 207.978 59.0029 208.84 59.0029 209.598C59.0029 210.357 59.4867 210.702 60.0396 210.391Z" fill="#DFE6FD"/>
  <path d="M32.9131 218.666C32.9131 217.425 33.6733 215.942 34.6064 215.391L42.3123 210.943C42.416 210.874 42.5542 210.84 42.6579 210.805C42.6233 209.598 41.8631 209.047 40.9647 209.598L33.2587 214.046C32.3257 214.598 31.5654 216.046 31.5654 217.322V227.562C31.5654 228.665 32.1529 229.251 32.9477 229.01C32.9477 228.976 32.9477 228.976 32.9477 228.941V218.666H32.9131Z" fill="#D9E0F7"/>
  <path d="M42.6582 210.908V221.149C42.6582 222.39 41.898 223.872 40.9304 224.424L33.2245 228.872C33.1208 228.941 32.9826 228.975 32.8789 229.01C32.8789 228.975 32.8789 228.975 32.8789 228.941V218.701C32.8789 217.459 33.6391 215.977 34.5721 215.425L42.2781 210.977C42.3818 210.908 42.52 210.874 42.6237 210.839C42.6582 210.839 42.6582 210.874 42.6582 210.908Z" fill="url(#paint34_linear_1720_38844)"/>
  <path opacity="0.6" d="M39.4784 230.389L47.1844 225.942C48.1174 225.39 48.8776 223.942 48.8776 222.666V212.426C48.8776 211.184 48.1174 210.598 47.1844 211.15L39.4784 215.598C38.5454 216.149 37.7852 217.598 37.7852 218.873V229.114C37.7852 230.355 38.5454 230.941 39.4784 230.389Z" fill="url(#paint35_linear_1720_38844)"/>
  <path d="M242.184 43.2715L238.798 41.3062L171.206 78.785V109.265L174.627 111.368V82.1984L242.184 43.2715Z" fill="url(#paint36_linear_1720_38844)"/>
  <path d="M242.184 43.2715V72.4408L174.627 111.368V82.1984L242.184 43.2715Z" fill="url(#paint37_linear_1720_38844)"/>
  <path d="M242.184 43.2715V72.4408L174.627 111.368V82.1984L242.184 43.2715Z" fill="white"/>
  <path d="M192.769 80.2677L234.996 55.9599C235.584 55.6151 236.033 54.7531 236.033 53.9946C236.033 53.236 235.584 52.8913 234.996 53.2016L192.769 77.5094C192.182 77.8541 191.732 78.7161 191.732 79.4747C191.732 80.2677 192.216 80.6125 192.769 80.2677Z" fill="#DFE6FD"/>
  <path d="M192.769 85.336L234.996 61.0283C235.584 60.6835 236.033 59.8215 236.033 59.0629C236.033 58.3044 235.584 57.9596 234.996 58.2699L192.769 82.5777C192.182 82.9225 191.732 83.7845 191.732 84.543C191.732 85.336 192.216 85.6808 192.769 85.336Z" fill="#DFE6FD"/>
  <path d="M206.626 82.4397L234.996 66.0966C235.583 65.7518 236.033 64.8898 236.033 64.1313C236.033 63.3728 235.583 63.028 234.996 63.3383L206.626 79.6814C206.038 80.0262 205.589 80.8882 205.589 81.6467C205.589 82.4052 206.038 82.75 206.626 82.4397Z" fill="#DFE6FD"/>
  <path d="M179.465 90.7146C179.465 89.4734 180.225 87.9908 181.158 87.4391L188.864 82.9913C188.968 82.9223 189.106 82.8879 189.21 82.8534C189.175 81.6466 188.415 81.0949 187.516 81.6466L179.81 86.0944C178.877 86.6461 178.117 88.0942 178.117 89.3699V99.6102C178.117 100.714 178.705 101.3 179.499 101.058C179.499 101.024 179.499 101.024 179.499 100.989V90.7146H179.465Z" fill="#D9E0F7"/>
  <path d="M189.21 82.957V93.1973C189.21 94.4385 188.449 95.9211 187.482 96.4728L179.81 100.886C179.707 100.955 179.569 100.99 179.465 101.024C179.465 100.99 179.465 100.99 179.465 100.955V90.7148C179.465 89.4735 180.225 87.9909 181.158 87.4392L188.864 82.9914C188.968 82.9225 189.106 82.888 189.21 82.8535C189.21 82.888 189.21 82.9225 189.21 82.957Z" fill="url(#paint38_linear_1720_38844)"/>
  <path opacity="0.6" d="M186.065 102.438L193.771 97.9899C194.704 97.4382 195.465 95.9901 195.465 94.7143V84.474C195.465 83.2328 194.704 82.6466 193.771 83.1983L186.065 87.6461C185.132 88.1978 184.372 89.6459 184.372 90.9216V101.162C184.338 102.403 185.098 102.989 186.065 102.438Z" fill="url(#paint39_linear_1720_38844)"/>
  <path d="M242.184 96.0244L238.798 94.0591L171.206 131.538V162.017L174.627 164.121V134.951L242.184 96.0244Z" fill="url(#paint40_linear_1720_38844)"/>
  <path d="M242.184 96.0244V125.194L174.627 164.121V134.951L242.184 96.0244Z" fill="url(#paint41_linear_1720_38844)"/>
  <path d="M242.184 96.0244V125.194L174.627 164.121V134.951L242.184 96.0244Z" fill="white"/>
  <path d="M192.769 133.021L234.996 108.713C235.584 108.368 236.033 107.506 236.033 106.748C236.033 105.989 235.584 105.644 234.996 105.954L192.769 130.262C192.182 130.607 191.732 131.469 191.732 132.228C191.732 133.021 192.216 133.365 192.769 133.021Z" fill="#DFE6FD"/>
  <path d="M192.769 138.089L234.996 113.781C235.584 113.436 236.033 112.574 236.033 111.816C236.033 111.057 235.584 110.713 234.996 111.023L192.769 135.331C192.182 135.675 191.732 136.537 191.732 137.296C191.732 138.089 192.216 138.434 192.769 138.089Z" fill="#DFE6FD"/>
  <path d="M206.626 135.193L234.996 118.85C235.583 118.505 236.033 117.643 236.033 116.884C236.033 116.126 235.583 115.781 234.996 116.091L206.626 132.434C206.038 132.779 205.589 133.641 205.589 134.4C205.589 135.158 206.038 135.503 206.626 135.193Z" fill="#DFE6FD"/>
  <path d="M179.465 143.468C179.465 142.226 180.225 140.744 181.158 140.192L188.864 135.744C188.968 135.675 189.106 135.641 189.21 135.606C189.175 134.4 188.415 133.848 187.516 134.4L179.81 138.847C178.877 139.399 178.117 140.847 178.117 142.123V152.363C178.117 153.466 178.705 154.053 179.499 153.811C179.499 153.777 179.499 153.777 179.499 153.742V143.468H179.465Z" fill="#D9E0F7"/>
  <path d="M189.21 135.71V145.95C189.21 147.191 188.449 148.674 187.482 149.226L179.81 153.639C179.707 153.708 179.569 153.742 179.465 153.777C179.465 153.742 179.465 153.742 179.465 153.708V143.468C179.465 142.226 180.225 140.744 181.158 140.192L188.864 135.744C188.968 135.675 189.106 135.641 189.21 135.606C189.21 135.641 189.21 135.675 189.21 135.71Z" fill="url(#paint42_linear_1720_38844)"/>
  <path opacity="0.6" d="M186.065 155.191L193.771 150.743C194.704 150.191 195.465 148.743 195.465 147.467V137.227C195.465 135.986 194.704 135.4 193.771 135.951L186.065 140.399C185.132 140.951 184.372 142.399 184.372 143.675V153.915C184.338 155.156 185.098 155.742 186.065 155.191Z" fill="url(#paint43_linear_1720_38844)"/>
  <path d="M266.374 221.632C281.355 221.632 293.5 217.371 293.5 212.115C293.5 206.86 281.355 202.599 266.374 202.599C251.392 202.599 239.247 206.86 239.247 212.115C239.247 217.371 251.392 221.632 266.374 221.632Z" fill="url(#paint44_linear_1720_38844)"/>
  <path d="M280.092 49.2018C279.643 51.0982 277.604 55.0633 276.567 56.9251C276.567 56.9251 274.529 62.7521 275.047 64.7519C275.565 66.7862 267.859 66.8551 267.859 66.8551C267.859 66.8551 266.754 63.4072 265.337 60.9937C263.989 61.0971 262.538 61.0282 262.227 60.6144C261.639 59.8559 261.052 57.7182 260.81 57.0975C260.568 56.4769 260.257 54.7185 260.499 53.6152C260.706 52.7187 260.361 51.7533 260.153 50.8913C259.946 50.0293 260.05 49.1673 260.326 48.3398C260.741 46.9607 261.501 45.616 261.639 44.2368C261.639 44.1679 261.639 44.0989 261.674 44.03C262.123 39.2374 269.069 38.5478 273.768 38.6167C274.598 38.8926 275.393 39.2374 276.222 39.5132C276.637 39.6511 277.017 39.8235 277.466 39.8925C278.434 40.0649 279.09 40.5131 279.505 41.4095C279.954 42.375 280.23 43.4438 280.334 44.5127C280.438 46.3401 280.334 48.133 280.092 49.2018Z" fill="#FED2F5"/>
  <path d="M269.207 54.5114C269.311 53.1667 271.108 51.2359 269.864 49.2016C269.726 48.9947 269.587 48.7879 269.311 48.7189C267.86 48.2362 266.408 52.2703 264.473 52.1668C262.642 52.0634 261.501 48.2362 260.983 46.5122C260.292 44.1677 259.877 42.8919 260.43 41.5128C261.709 38.1338 266.961 37.4442 268.482 37.2374C270.313 36.996 271.799 37.2029 272.248 37.2718C273.354 37.4442 274.46 37.7201 275.496 38.2028C276.602 38.6855 277.639 39.3406 278.745 39.7888C279.436 40.0647 280.231 40.3405 280.714 40.9266C282.028 42.5127 281.682 44.6504 281.095 49.2361C280.542 53.477 276.118 57.3042 275.047 62.8209C275.047 62.8209 275.427 63.3725 273.354 63.7863C271.315 64.2 270.797 63.9587 270.797 63.9587C270.797 63.9587 269.069 56.3043 269.207 54.5114Z" fill="#253858"/>
  <path d="M245.917 211.081C245.571 211.288 245.053 212.219 245.26 212.564C245.468 212.908 249.303 214.805 252.137 214.736C254.936 214.667 257.39 214.253 257.39 214.253V215.184C257.39 215.184 262.504 215.736 263.402 215.184V213.563C263.402 213.563 263.61 211.081 262.296 208.736L255.8 209.254C255.8 209.254 252.655 210.219 251.584 210.426C250.167 210.736 247.161 210.426 245.917 211.081Z" fill="url(#paint45_linear_1720_38844)"/>
  <path d="M281.647 127.607C281.544 125.09 281.544 121.849 281.544 121.849L252.862 122.918C252.862 122.918 251.342 135.261 250.893 138.089C248.75 151.674 251.515 160.5 253.899 179.877C254.728 186.67 255.661 196.738 255.73 209.288L262.227 208.84C262.227 208.84 263.16 204.633 263.367 199.393C263.678 190.876 263.333 179.084 263.609 173.637C263.713 171.327 264.093 166.706 264.266 164.465C264.438 162.224 265.786 153.915 266.235 152.673C266.685 151.398 267.963 149.398 269.587 152.742C272.11 157.914 273.699 167.879 274.114 170.603C275.116 177.567 275.151 176.223 276.602 185.808C277.501 191.807 277.846 194.738 277.984 198.324C278.123 201.565 278.814 204.323 278.745 206.22L284.757 206.599C284.965 203.806 286.623 199.841 286.658 194.945C286.658 188.532 285.587 176.981 283.721 162.81C282.546 154.018 281.647 127.607 281.647 127.607Z" fill="url(#paint46_linear_1720_38844)"/>
  <path d="M272.802 208.633C273.147 208.392 273.597 208.254 274.426 208.219C275.255 208.185 278.711 206.357 278.711 206.082L284.724 206.426C284.724 206.426 285.622 208.667 285.622 209.426C285.622 210.185 285.622 212.219 285.622 212.219C285.622 212.219 283.998 212.598 282.616 212.495C281.233 212.391 280.128 211.771 280.128 211.771L280.162 211.184C280.162 211.184 276.914 211.219 276.085 211.15C275.255 211.081 272.664 210.254 272.525 209.495C272.456 208.771 272.629 208.771 272.802 208.633Z" fill="url(#paint47_linear_1720_38844)"/>
  <path d="M277.466 66.6824C277.466 66.6824 276.222 63.8896 274.943 63.6827C273.665 63.4413 266.546 64.4068 266.339 68.7856L277.466 66.6824Z" fill="url(#paint48_linear_1720_38844)"/>
  <path d="M231.127 72.5096C230.643 72.544 229.468 72.3372 229.157 72.7164C228.88 73.0612 229.261 73.5784 230.608 73.7853C231.956 73.9922 233.718 74.0956 234.444 74.7507C234.893 75.1644 235.273 76.6815 234.928 77.1987C234.237 78.302 230.816 79.0951 230.677 80.1294C230.539 81.1638 231.714 81.3362 232.647 80.888C233.545 80.4053 234.755 79.2675 235.722 79.164C236.69 79.0606 237.727 78.8537 238.349 78.6813C239.109 78.4744 240.284 77.8193 241.148 77.8193C242.012 77.8193 242.876 77.8883 242.876 77.8883L243.739 73.7853C243.739 73.7853 238.314 72.1303 237.278 71.8889C235.688 71.5786 232.647 72.4406 231.127 72.5096Z" fill="#FED2F5"/>
  <path d="M241.597 72.7164L244.396 72.6475L243.186 78.6813C243.186 78.6813 240.525 78.8192 240.353 78.4744L241.597 72.7164Z" fill="url(#paint49_linear_1720_38844)"/>
  <path d="M239.8 121.159C239.8 121.159 236.137 125.193 235.93 125.883C235.723 126.572 235.481 130.02 235.757 130.503C236.034 130.986 237.174 132.055 237.83 132.33C238.487 132.606 239.8 132.848 240.215 133.054C240.629 133.261 241.77 132.986 242.012 133.02C242.254 133.054 242.737 132.158 242.496 131.951C242.254 131.744 241.217 131.606 241.251 131.296C241.286 130.986 241.251 129.917 241.597 129.503C241.943 129.089 244.085 125.366 244.396 124.297C244.707 123.228 239.8 121.159 239.8 121.159Z" fill="#FED2F5"/>
  <path d="M239.316 121.332L240.457 118.78L245.536 122.78C245.536 122.78 244.534 125.262 244.154 125.262L239.316 121.332Z" fill="url(#paint50_linear_1720_38844)"/>
  <path d="M243.981 72.5093L260.499 73.9919L257.666 83.646L243.083 78.9569L243.981 72.5093Z" fill="url(#paint51_linear_1720_38844)"/>
  <path d="M260.222 72.3714C261.086 70.5785 264.922 68.3718 268.93 67.6133C272.939 66.8547 274.356 65.4756 276.256 65.7169C278.71 65.9928 281.094 69.4752 283.651 70.6819C286.208 71.8887 286.208 75.9917 286.001 77.5777C285.759 79.1638 286.347 88.7835 284.1 94.4725C284.1 94.4725 279.124 105.851 279.055 109.919C278.952 114.47 283.686 129.055 283.686 129.055L280.023 132.02L277.811 124.952L277.535 132.469C277.535 132.469 252.344 136.64 248.508 130.71C248.508 130.71 251.134 114.195 251.341 111.091C251.549 107.988 254.382 102.334 254.14 99.2996C254.14 99.2651 257.216 78.5776 260.222 72.3714Z" fill="url(#paint52_linear_1720_38844)"/>
  <path d="M256.387 81.2326C256.387 81.2326 256.975 72.3714 261.674 71.0268C266.374 69.6821 269.035 71.7163 270.175 73.923C271.834 77.1296 270.141 81.9566 267.653 88.1284C265.165 94.3002 260.603 105.506 258.15 109.023C255.731 112.54 245.779 123.676 245.779 123.676L240.008 118.815C240.008 118.815 251.169 102.989 253.277 96.9551C254.556 93.4037 256.387 81.2326 256.387 81.2326Z" fill="url(#paint53_linear_1720_38844)"/>
  <path d="M139.45 237.94C139.45 237.94 145.739 240.182 147.709 235.354C147.709 235.354 150.508 237.596 153.204 238.147C155.899 238.664 158.041 238.768 158.456 239.251C158.871 239.733 158.663 240.561 157.696 241.181C156.728 241.802 150.577 243.043 146.465 242.25C146.223 242.216 145.532 242.25 145.532 242.25L145.498 243.354C145.498 243.354 138.967 244.181 138.828 243.112C138.656 242.009 139.45 237.94 139.45 237.94Z" fill="url(#paint54_linear_1720_38844)"/>
  <path d="M119.235 231.907C119.235 231.907 124.142 233.527 127.01 230.873C127.01 230.873 128.046 231.217 128.392 231.39C128.945 231.631 129.705 232.114 130.742 232.01C131.778 231.907 132.02 233.079 131.848 233.527C131.467 234.424 129.671 235.562 128.738 235.838C127.735 236.148 124.487 235.838 124.487 235.838L124.522 236.803C124.522 236.803 121.55 238.63 118.578 237.493C118.509 237.458 117.783 232.976 119.235 231.907Z" fill="url(#paint55_linear_1720_38844)"/>
  <path d="M134.025 189.911C134.543 187.774 137.653 180.361 137.653 180.361C137.653 180.361 138.552 185.705 138.552 186.808C138.552 191.98 138.033 202.393 137.377 207.53C137.066 210.082 137.55 225.218 137.619 228.631C137.688 232.045 139.277 238.837 139.277 238.837C145.636 241.078 149.022 236.286 149.022 236.286C149.022 236.286 147.191 233.32 148.4 231.424C149.61 229.528 148.608 224.528 148.435 223.046C148.262 221.563 149.368 212.219 149.541 211.254C149.541 211.254 153.86 183.119 154.931 173.706C155.415 169.5 154.931 156.984 154.931 156.984C154.931 156.984 142.249 144.433 133.852 145.019C130.5 145.261 126.353 157.846 126.181 158.501C125.559 160.707 125.42 175.878 125.317 176.671C124.487 182.74 121.654 194.704 120.548 200.738C119.615 205.772 117.991 215.874 117.853 220.977C117.784 223.977 118.613 232.907 118.613 232.907C118.613 232.907 121.619 233.183 123.969 233.286C126.284 233.389 127.045 233.389 127.805 231.183C127.77 231.148 131.571 200.117 134.025 189.911Z" fill="url(#paint56_linear_1720_38844)"/>
  <path d="M121.723 163.638C121.723 163.638 122.103 167.914 123.52 169.948C124.936 172.017 125.593 171.637 125.593 171.637C125.593 171.637 125.697 164.19 125.904 163.638C126.111 163.086 126.284 162.018 126.284 162.018L121.723 163.638Z" fill="#FED2F5"/>
  <path d="M120.029 161.535C120.029 161.535 121.135 164.121 122.068 164.224C123.001 164.327 127.079 162.328 127.044 160.604C127.01 158.88 126.146 158.742 124.867 159.087C123.623 159.431 120.029 161.535 120.029 161.535Z" fill="url(#paint57_linear_1720_38844)"/>
  <path d="M141.903 99.1964C142.456 99.886 144.46 98.6793 144.944 98.0242C145.462 97.3346 145.946 95.3348 146.154 94.7486C146.361 94.1625 146.603 92.5765 146.326 91.5766C146.05 90.5767 146.603 89.163 146.706 88.3355C146.81 87.4735 145.151 84.3015 145.013 82.8533C144.91 81.75 145.635 79.5433 145.462 78.4055C145.255 77.2677 141.212 76.7505 139.622 76.061C138.067 75.3714 137.342 75.923 136.305 76.2678C135.268 76.6126 134.266 75.923 133.368 75.9575C132.435 76.0265 132.193 77.8539 129.981 78.6124C127.77 79.3709 128.288 86.5426 128.357 88.0252C128.426 89.5078 132.711 98.0242 132.884 98.1621L141.903 99.1964Z" fill="#FED2F5"/>
  <path d="M183.751 106.092C183.751 106.092 184.614 105.541 184.545 104.231C184.511 102.92 183.923 100.162 183.923 98.7829C183.923 97.5761 184.58 94.1627 184.545 93.9558C184.511 93.749 183.992 93.4042 183.751 93.8179C183.474 94.2317 182.887 98.0933 182.679 98.1968C182.472 98.3002 182.714 92.887 182.679 92.5422C182.645 92.1974 181.608 92.094 181.47 93.0249C181.297 93.9903 181.193 97.852 180.986 97.7141C180.779 97.5761 181.193 92.0595 181.124 91.7837C181.09 91.5078 179.984 91.1975 179.811 92.1284C179.638 93.0594 179.293 97.5761 179.293 97.5761C179.293 97.5761 178.982 92.9215 178.844 92.5767C178.671 92.1974 177.669 92.3698 177.634 93.0594C177.6 93.749 178.429 100.783 178.291 100.852C178.152 100.886 177.047 98.3692 176.632 98.3347C176.217 98.3002 175.975 98.576 176.148 99.0932C176.286 99.6104 176.701 101.955 177.116 102.886C177.496 103.748 179.016 105.713 179.224 105.851C179.396 106.024 183.751 106.092 183.751 106.092Z" fill="#FED2F5"/>
  <path d="M131.26 100.783C131.26 100.783 132.089 97.6796 133.368 97.2314C134.646 96.7831 142.249 96.5763 143.216 101.093L131.26 100.783Z" fill="url(#paint58_linear_1720_38844)"/>
  <path d="M184.821 108.747C184.821 108.747 185.754 105.54 184.89 104.644C184.061 103.747 178.048 101.886 176.943 103.23C175.837 104.575 176.286 106.575 177.772 107.402C179.258 108.264 184.821 108.747 184.821 108.747Z" fill="url(#paint59_linear_1720_38844)"/>
  <path d="M126.146 161.121C127.113 161.741 130.016 161.81 130.603 162.052C131.191 162.293 133.022 147.364 134.128 145.329C134.128 145.329 132.4 157.983 133.022 160.535C133.022 160.535 153.721 157.983 156.037 157.742C158.352 157.5 157.142 155.19 157.142 154.57C157.142 153.949 153.894 140.089 153.376 135.192C152.996 131.607 153.134 121.194 155.622 120.918C158.11 120.642 168.442 124.573 172.451 123.987C176.459 123.401 177.772 121.608 179.707 118.022C181.608 114.436 184.925 111.161 185.029 108.402C185.133 106.23 180.26 103.161 176.978 105.092C175.906 105.747 174.904 109.023 174.835 109.678C174.766 110.299 173.453 114.471 168.235 113.022C163.017 111.574 161.635 111.678 158.49 109.023C155.345 106.368 153.721 103.92 153.376 103.368C153.03 102.782 151.233 101.403 148.676 101.403C146.119 101.403 143.596 101.127 142.663 100.782C141.73 100.438 141.8 99.3687 141.35 98.9894C139.657 97.4723 133.333 98.5412 131.951 98.9894C130.465 99.4376 128.219 102.955 127.563 103.334C126.906 103.713 121.826 107.264 118.82 107.92C115.813 108.54 116.401 110.988 116.401 112.333C116.401 113.678 117.023 117.022 115.813 119.436V134.193C115.813 134.193 115.813 141.295 116.194 143.985C116.574 146.674 118.405 158.949 119.2 160.673C119.995 162.397 120.928 162.259 121.723 162.017C122.517 161.776 126.042 159.673 126.042 159.673C126.042 159.673 125.04 151.846 124.902 150.777C124.798 149.708 123.969 144.847 124.28 142.847C124.591 140.847 125.178 137.675 125.074 136.365C124.971 135.055 124.971 134.089 124.971 134.089C124.971 134.089 126.215 137.468 126.491 138.847C126.768 140.226 126.388 141.881 127.079 142.812C127.735 143.743 126.077 144.812 125.904 147.019C125.766 149.226 126.388 152.018 126.007 152.949C125.662 153.846 124.003 159.707 126.146 161.121Z" fill="url(#paint60_linear_1720_38844)"/>
  <path d="M131.744 98.8863C132.124 99.0242 132.677 98.8518 133.333 98.507C134.888 97.714 136.789 96.0245 136.789 96.0245C136.789 96.0245 135.579 92.9559 135.095 91.7146C134.612 90.4389 137.445 90.9216 137.445 90.9216C137.445 90.9216 139.45 91.8181 139.795 90.9906C139.968 90.5424 139.657 89.4045 139.311 88.1978C139.069 87.4048 138.862 86.5773 138.758 85.8877C138.724 85.6808 138.689 85.4739 138.689 85.3015C138.655 83.8189 140.521 85.336 143.804 84.1637C144.184 84.0258 144.529 83.8879 144.944 83.681C145.22 83.5431 145.497 83.3707 145.739 83.1983C145.911 83.0604 146.084 82.888 146.257 82.7501C146.81 82.1984 147.225 81.5433 147.501 80.8537C148.469 78.4057 147.847 75.5095 146.499 74.8544C145.635 74.4406 144.84 74.8199 143.665 75.0957C142.767 75.3026 141.627 75.4405 140.037 75.0957C139.864 75.0612 139.691 75.0267 139.484 74.9923C138.482 74.8199 136.547 74.7854 134.301 75.5095C133.886 75.6474 133.506 75.7853 133.057 75.9922C131.052 76.8541 128.91 78.3712 127.009 80.9227C126.802 81.1985 126.595 81.4743 126.422 81.7847C121.93 88.6115 130.534 98.3346 131.744 98.8863Z" fill="#253858"/>
  <path d="M79.0796 327C78.5612 327 78.0775 326.689 77.9392 326.172L31.185 180.705C30.9777 180.084 31.3232 179.395 31.9798 179.188C32.6018 178.981 33.2929 179.326 33.5003 179.981L80.2199 325.414C80.4273 326.034 80.0817 326.724 79.4251 326.931C79.3215 326.965 79.1832 327 79.0796 327Z" fill="#B19EF1"/>
  <path d="M107.242 313.312C106.724 313.312 106.24 313.002 106.102 312.484L59.3823 167.017C59.1749 166.396 59.5205 165.707 60.1771 165.5C60.7991 165.293 61.4902 165.638 61.6975 166.293L108.417 311.76C108.625 312.381 108.279 313.07 107.622 313.277C107.519 313.312 107.381 313.312 107.242 313.312Z" fill="#B19EF1"/>
  <path d="M38.7873 201.22C38.338 201.22 37.8888 200.979 37.6815 200.531C37.405 199.945 37.6469 199.221 38.2344 198.91L66.0174 185.636C66.6048 185.36 67.3305 185.601 67.6415 186.187C67.9179 186.774 67.6761 187.498 67.0886 187.808L39.3056 201.082C39.1328 201.186 38.96 201.22 38.7873 201.22Z" fill="#B19EF1"/>
  <path d="M44.8341 219.287C44.3849 219.287 43.9357 219.046 43.7284 218.598C43.4519 218.012 43.6938 217.287 44.2812 216.977L72.0642 203.703C72.6517 203.427 73.3774 203.668 73.6884 204.254C73.9648 204.841 73.7229 205.565 73.1355 205.875L45.3525 219.149C45.1797 219.253 45.0069 219.287 44.8341 219.287Z" fill="#B19EF1"/>
  <path d="M50.882 238.182C50.4328 238.182 50.0181 237.94 49.8108 237.492C49.4998 236.906 49.7762 236.182 50.3637 235.872L78.1467 222.252C78.7341 221.942 79.4598 222.218 79.7708 222.804C80.0818 223.39 79.8054 224.114 79.2179 224.425L51.4349 238.078C51.2276 238.147 51.0548 238.182 50.882 238.182Z" fill="#B19EF1"/>
  <path d="M56.5148 255.87C56.0656 255.87 55.6164 255.628 55.409 255.18C55.1326 254.594 55.3745 253.87 55.9619 253.56L83.7449 240.285C84.3324 240.009 85.058 240.251 85.369 240.837C85.6455 241.423 85.4036 242.147 84.8161 242.457L57.0331 255.732C56.8604 255.835 56.6876 255.87 56.5148 255.87Z" fill="#B19EF1"/>
  <path d="M62.1476 274.35C61.6984 274.35 61.2492 274.109 61.0418 273.661C60.7654 273.075 61.0073 272.35 61.5947 272.04L89.3777 258.766C89.9652 258.49 90.6908 258.731 91.0018 259.317C91.2783 259.904 91.0364 260.628 90.449 260.938L62.666 274.212C62.4932 274.316 62.3204 274.35 62.1476 274.35Z" fill="#B19EF1"/>
  <path d="M68.1941 293.245C67.7449 293.245 67.3302 293.004 67.1229 292.556C66.8464 291.969 67.0883 291.245 67.6758 290.935L95.8734 277.281C96.4609 277.005 97.1866 277.247 97.4976 277.833C97.774 278.419 97.5321 279.143 96.9447 279.454L68.747 293.107C68.5397 293.211 68.3669 293.245 68.1941 293.245Z" fill="#B19EF1"/>
  <path d="M74.2414 312.14C73.7922 312.14 73.3775 311.898 73.1702 311.45C72.8592 310.864 73.1356 310.14 73.7231 309.829L101.506 296.176C102.094 295.865 102.819 296.141 103.13 296.727C103.441 297.314 103.165 298.038 102.577 298.348L74.7943 312.002C74.587 312.071 74.4142 312.14 74.2414 312.14Z" fill="#B19EF1"/>
  <path d="M127.112 254.146C127.112 254.146 132.088 251.732 132.952 251.318C133.816 250.905 136.408 255.766 136.546 256.87C136.684 257.973 135.302 260.973 134.542 261.455C133.782 261.938 131.708 260.869 130.222 260.938C128.736 261.007 127.112 254.146 127.112 254.146Z" fill="#FED2F5"/>
  <path d="M131.95 251.801C131.95 251.801 138.136 258.697 132.987 260.697C132.572 260.869 131.225 261.041 131.225 261.041C131.225 261.041 135.026 268.351 136.719 270.833C137.376 271.799 139.933 272.626 139.483 267.558C139.034 262.489 138.17 252.973 136.961 251.042C135.786 249.112 131.95 251.801 131.95 251.801Z" fill="url(#paint61_linear_1720_38844)"/>
  <path d="M127.009 253.697C111.597 253.973 104.236 262.11 96.4613 259.352C94.9409 258.835 94.1115 254.215 94.077 252.353C94.0079 247.388 95.943 238.009 97.2907 232.7C98.2928 228.734 99.1221 220.356 93.0403 215.288L86.4401 219.356C86.4401 219.356 84.1594 255.663 86.06 262.11C87.9606 268.558 89.5156 269.489 91.3816 269.627C101.437 270.247 122.102 266.11 130.81 260.972L127.009 253.697Z" fill="url(#paint62_linear_1720_38844)"/>
  <path d="M83.8139 301.037C83.8139 301.037 81.9479 302.796 79.4253 303.037C78.043 303.175 78.1122 304.726 79.3907 305.037C80.6693 305.313 88.7208 304.106 89.0664 303.692C89.412 303.278 88.9627 300.968 88.9627 300.968L83.8139 301.037Z" fill="#FED2F5"/>
  <path d="M81.0148 302.692C81.0148 302.692 78.5268 302.244 77.5247 303.071C76.5226 303.899 76.4534 305.623 78.2849 306.14C80.0818 306.657 83.6065 307.45 84.7469 308.002C85.8872 308.553 88.6863 308.416 89.2046 307.76C89.7229 307.105 90.1376 303.657 89.2392 303.002C88.1334 302.175 85.127 304.002 83.8139 304.381C82.5353 304.761 78.8033 304.554 78.976 303.899C79.1488 303.244 81.0494 303.278 81.0148 302.692Z" fill="url(#paint63_linear_1720_38844)"/>
  <path d="M71.8232 221.666C71.8232 224.77 71.8578 229.045 72.1342 234.113C72.3416 238.147 72.7908 245.491 74.173 253.387C75.6244 261.628 78.5271 264.8 79.0109 271.971C79.3564 276.936 83.1922 299.244 83.5723 301.279L88.963 301.003C89.3431 295.728 89.6196 290.418 89.4813 285.108C89.3777 279.902 88.7902 274.695 88.6174 269.489C88.4792 265.317 87.6153 261.179 87.408 257.008C87.2698 254.422 87.3734 250.905 88.1337 246.56C89.3777 239.423 91.3819 238.01 91.9348 233.527C92.3495 230.114 91.9348 225.114 87.719 218.529L71.8232 221.666Z" fill="url(#paint64_linear_1720_38844)"/>
  <path d="M90.9669 225.459C87.7532 226.217 85.3343 224.183 81.153 222.666C78.665 221.735 73.7235 227.459 70.8553 226.872C70.0605 226.7 69.404 226.045 69.0239 224.631C64.2551 207.392 65.4646 204.185 65.1536 202.013L64.3242 195.462C64.186 194.324 63.9096 193.186 63.253 192.255C62.3546 191.014 61.698 189.842 61.2488 188.704C57.8277 180.36 65.5337 175.499 65.5337 175.499L73.0323 166.844C73.0323 166.844 84.885 169.947 85.8181 172.74C85.8872 172.947 85.8526 173.085 85.8526 173.188C85.9908 177.981 88.1679 181.774 88.6171 184.67C89.4464 190.187 87.7186 197.462 90.2412 206.978C91.036 210.012 92.8675 214.322 97.498 219.011C96.2539 221.563 94.2151 224.7 90.9669 225.459Z" fill="url(#paint65_linear_1720_38844)"/>
  <path d="M27.6953 159.156C27.6953 159.156 27.8335 161.121 28.4555 162.811C29.0775 164.5 29.7687 166.948 29.7687 167.189C29.7687 167.431 28.0754 171.292 28.0754 171.292C28.0754 171.292 24.447 170.258 24.3779 169.465C24.3434 168.672 23.4795 162.087 24.2397 162.293C24.9999 162.5 26.244 163.466 26.7623 163.431C27.2461 163.397 26.7277 159.708 27.2115 159.19C27.6607 158.673 27.6953 159.156 27.6953 159.156Z" fill="#FED2F5"/>
  <path d="M71.9271 177.223C74.1041 177.844 77.0759 180.429 76.1084 185.257C75.1408 190.049 61.8713 186.67 61.8713 186.67C61.8713 186.67 45.9756 183.981 43.8676 182.946C41.7597 181.878 28.041 171.292 28.041 171.292L29.7343 167.189C29.7343 167.189 41.9325 174.775 46.4939 176.464C52.6103 178.671 65.707 175.499 71.9271 177.223Z" fill="#FED2F5"/>
  <path d="M85.9565 157.673C85.9565 157.673 87.857 156.501 89.7231 153.398C91.5891 150.295 90.1377 143.709 87.6151 140.33C86.8549 139.296 85.5763 138.434 84.125 137.779C80.7731 136.261 76.3153 135.744 74.0001 136.572C73.62 136.71 73.1362 137.33 72.8597 137.744C72.376 138.399 71.9613 139.123 71.6157 139.847C70.9937 141.089 70.4754 142.468 70.2335 143.847C69.957 145.502 69.5769 147.157 69.4041 148.812C69.2659 150.122 69.1968 151.57 69.4733 152.846C69.8534 154.57 71.7194 155.259 72.7906 156.501C73.6545 157.535 74.4493 159.121 74.4839 160.121C74.553 161.5 73.5163 164.914 73.2399 166.362C73.1707 166.741 73.1707 166.948 73.2053 167.017C73.2399 167.051 73.5509 167.155 74.0692 167.293C74.242 167.327 74.4493 167.396 74.6567 167.431C77.8704 168.224 84.436 174.085 85.8873 173.258L85.9565 157.673Z" fill="#FED2F5"/>
  <path opacity="0.3" d="M74.4145 160.121C74.4837 161.5 73.447 164.914 73.1705 166.362C73.5161 166.775 73.758 167.086 73.9999 167.258C74.1726 167.396 74.3454 167.465 74.5182 167.43H74.5528C75.9696 167.12 77.4555 162.293 75.7622 158.466C74.0344 154.604 70.1296 154.949 69.8186 152.501C68.5055 141.95 88.4788 147.502 84.8159 138.089C81.464 136.572 76.246 135.779 73.9308 136.606C73.5506 136.744 73.0669 137.365 72.7904 137.778C72.3066 138.434 71.892 139.158 71.5464 139.882C70.9244 141.123 70.406 142.502 70.1642 143.881C69.8877 145.536 69.5076 147.191 69.3348 148.846C69.1966 150.156 69.1275 151.605 69.4039 152.88C69.784 154.604 71.6501 155.294 72.7213 156.535C73.5852 157.569 74.38 159.121 74.4145 160.121Z" fill="url(#paint66_linear_1720_38844)"/>
  <path d="M70.3026 134.4C67.3308 137.399 70.4754 147.191 74.7949 148.329C77.3521 149.019 78.8725 146.295 81.326 147.019C85.9565 148.398 84.6779 159.535 87.6843 160.19C90.276 160.742 96.116 153.398 95.0102 146.778C93.2478 136.158 74.4148 130.193 70.3026 134.4Z" fill="#253858"/>
  <path d="M81.361 152.777C79.3222 156.949 82.5359 158.19 81.4992 162.569C79.8059 169.879 72.5146 169.706 70.7523 176.292C69.059 182.705 73.8278 190.876 77.9054 191.221C81.3264 191.497 83.5725 186.187 86.3716 187.084C88.8596 187.877 88.1685 192.497 90.622 193.29C92.9718 194.048 96.6347 190.807 98.4316 187.325C99.8829 184.532 99.4683 182.808 99.9175 174.775C100.09 171.74 100.263 168.258 100.747 164.086C101.576 157.087 102.475 155.122 102.44 149.674C102.406 145.916 102.406 144.019 101.68 142.537C97.8441 134.779 81.5683 128.435 77.6289 139.503C75.2791 146.123 83.2615 142.399 85.0239 145.226C86.2333 147.157 82.3631 150.708 81.361 152.777Z" fill="#253858"/>
  <path d="M83.0535 145.364C83.2954 147.605 78.2503 149.122 76.4534 150.536C72.7904 153.397 75.1402 155.914 72.3066 159.431L74.5182 159.707C77.3518 156.19 75.002 153.708 78.6649 150.811C80.4618 149.398 85.507 147.881 85.2651 145.64L83.0535 145.364Z" fill="#505F79"/>
  <path d="M81.5676 162.5C82.6043 158.087 79.3906 156.88 81.4294 152.708C82.4315 150.639 86.3017 147.088 85.1268 145.192C83.3645 142.364 75.3821 146.088 77.7319 139.468C78.6303 136.951 80.1853 135.331 82.0514 134.434C79.2178 134.986 76.7989 136.744 75.5894 140.192C73.2396 146.812 81.222 143.088 82.9844 145.916C84.1938 147.812 80.3236 151.363 79.2869 153.432C77.2481 157.604 80.4618 158.845 79.4251 163.224L81.5676 162.5Z" fill="#505F79"/>
  <defs>
    <linearGradient id="paint0_linear_1720_38844" x1="91.1985" y1="313.16" x2="91.1784" y2="317.892" gradientUnits="userSpaceOnUse">
      <stop stop-color="#E1EEF9"/>
      <stop offset="1" stop-color="#E1EEF9" stop-opacity="0"/>
    </linearGradient>
    <linearGradient id="paint1_linear_1720_38844" x1="148.681" y1="233.583" x2="143.29" y2="247.063" gradientUnits="userSpaceOnUse">
      <stop stop-color="#E1EEF9"/>
      <stop offset="1" stop-color="#E1EEF9" stop-opacity="0"/>
    </linearGradient>
    <linearGradient id="paint2_linear_1720_38844" x1="13.589" y1="287.594" x2="271.198" y2="58.7036" gradientUnits="userSpaceOnUse">
      <stop offset="0.0181347" stop-color="#BFD1FF"/>
      <stop offset="1" stop-color="white"/>
    </linearGradient>
    <linearGradient id="paint3_linear_1720_38844" x1="5.02683" y1="279.385" x2="5.02683" y2="117.54" gradientUnits="userSpaceOnUse">
      <stop stop-color="#52D987"/>
      <stop offset="1" stop-color="#1A8C89"/>
    </linearGradient>
    <linearGradient id="paint4_linear_1720_38844" x1="107.071" y1="122.78" x2="107.071" y2="0" gradientUnits="userSpaceOnUse">
      <stop stop-color="#52D987"/>
      <stop offset="1" stop-color="#1A8C89"/>
    </linearGradient>
    <linearGradient id="paint5_linear_1720_38844" x1="9.38086" y1="42.7086" x2="178.743" y2="156.614" gradientUnits="userSpaceOnUse">
      <stop stop-color="#12A3FF"/>
      <stop offset="1" stop-color="#3D68FF"/>
    </linearGradient>
    <linearGradient id="paint6_linear_1720_38844" x1="60.1433" y1="186.566" x2="60.1433" y2="116.505" gradientUnits="userSpaceOnUse">
      <stop stop-color="#52D987"/>
      <stop offset="1" stop-color="#1D6685"/>
    </linearGradient>
    <linearGradient id="paint7_linear_1720_38844" x1="24.6404" y1="152.524" x2="95.6279" y2="152.524" gradientUnits="userSpaceOnUse">
      <stop offset="0.0181347" stop-color="#2575F7"/>
      <stop offset="1" stop-color="#ABCBFC" stop-opacity="0"/>
    </linearGradient>
    <linearGradient id="paint8_linear_1720_38844" x1="36.3522" y1="158.086" x2="44.5714" y2="173.358" gradientUnits="userSpaceOnUse">
      <stop stop-color="#12A3FF"/>
      <stop offset="1" stop-color="#3D68FF"/>
    </linearGradient>
    <linearGradient id="paint9_linear_1720_38844" x1="41.565" y1="158.189" x2="50.8314" y2="174.609" gradientUnits="userSpaceOnUse">
      <stop stop-color="#12A3FF"/>
      <stop offset="1" stop-color="#3D68FF"/>
    </linearGradient>
    <linearGradient id="paint10_linear_1720_38844" x1="145.578" y1="109.207" x2="201.337" y2="109.207" gradientUnits="userSpaceOnUse">
      <stop offset="0.0181347" stop-color="#F477BB"/>
      <stop offset="1" stop-color="#ABCBFC" stop-opacity="0"/>
    </linearGradient>
    <linearGradient id="paint11_linear_1720_38844" x1="145.578" y1="93.4264" x2="201.337" y2="93.4264" gradientUnits="userSpaceOnUse">
      <stop offset="0.0181347" stop-color="#F477BB"/>
      <stop offset="1" stop-color="#ABCBFC" stop-opacity="0"/>
    </linearGradient>
    <linearGradient id="paint12_linear_1720_38844" x1="145.579" y1="77.6396" x2="201.337" y2="77.6396" gradientUnits="userSpaceOnUse">
      <stop offset="0.0181347" stop-color="#F477BB"/>
      <stop offset="1" stop-color="#ABCBFC" stop-opacity="0"/>
    </linearGradient>
    <linearGradient id="paint13_linear_1720_38844" x1="-nan" y1="-nan" x2="-nan" y2="-nan" gradientUnits="userSpaceOnUse">
      <stop offset="0.0181347" stop-color="#F477BB"/>
      <stop offset="1" stop-color="#ABCBFC" stop-opacity="0"/>
    </linearGradient>
    <linearGradient id="paint14_linear_1720_38844" x1="145.579" y1="51.4919" x2="201.337" y2="51.4919" gradientUnits="userSpaceOnUse">
      <stop offset="0.0181347" stop-color="#F477BB"/>
      <stop offset="1" stop-color="#ABCBFC" stop-opacity="0"/>
    </linearGradient>
    <linearGradient id="paint15_linear_1720_38844" x1="145.578" y1="67.2727" x2="201.337" y2="67.2727" gradientUnits="userSpaceOnUse">
      <stop offset="0.0181347" stop-color="#F477BB"/>
      <stop offset="1" stop-color="#ABCBFC" stop-opacity="0"/>
    </linearGradient>
    <linearGradient id="paint16_linear_1720_38844" x1="145.578" y1="83.0595" x2="201.337" y2="83.0595" gradientUnits="userSpaceOnUse">
      <stop offset="0.0181347" stop-color="#F477BB"/>
      <stop offset="1" stop-color="#ABCBFC" stop-opacity="0"/>
    </linearGradient>
    <linearGradient id="paint17_linear_1720_38844" x1="-nan" y1="-nan" x2="-nan" y2="-nan" gradientUnits="userSpaceOnUse">
      <stop offset="0.0181347" stop-color="#F477BB"/>
      <stop offset="1" stop-color="#ABCBFC" stop-opacity="0"/>
    </linearGradient>
    <linearGradient id="paint18_linear_1720_38844" x1="145.578" y1="160.926" x2="201.337" y2="160.926" gradientUnits="userSpaceOnUse">
      <stop offset="0.0181347" stop-color="#2575F7"/>
      <stop offset="1" stop-color="#ABCBFC" stop-opacity="0"/>
    </linearGradient>
    <linearGradient id="paint19_linear_1720_38844" x1="145.578" y1="145.145" x2="201.337" y2="145.145" gradientUnits="userSpaceOnUse">
      <stop offset="0.0181347" stop-color="#2575F7"/>
      <stop offset="1" stop-color="#ABCBFC" stop-opacity="0"/>
    </linearGradient>
    <linearGradient id="paint20_linear_1720_38844" x1="145.579" y1="129.358" x2="201.337" y2="129.358" gradientUnits="userSpaceOnUse">
      <stop offset="0.0181347" stop-color="#2575F7"/>
      <stop offset="1" stop-color="#ABCBFC" stop-opacity="0"/>
    </linearGradient>
    <linearGradient id="paint21_linear_1720_38844" x1="-nan" y1="-nan" x2="-nan" y2="-nan" gradientUnits="userSpaceOnUse">
      <stop offset="0.0181347" stop-color="#2575F7"/>
      <stop offset="1" stop-color="#ABCBFC" stop-opacity="0"/>
    </linearGradient>
    <linearGradient id="paint22_linear_1720_38844" x1="145.579" y1="103.211" x2="201.337" y2="103.211" gradientUnits="userSpaceOnUse">
      <stop offset="0.0181347" stop-color="#2575F7"/>
      <stop offset="1" stop-color="#ABCBFC" stop-opacity="0"/>
    </linearGradient>
    <linearGradient id="paint23_linear_1720_38844" x1="145.578" y1="118.991" x2="201.337" y2="118.991" gradientUnits="userSpaceOnUse">
      <stop offset="0.0181347" stop-color="#2575F7"/>
      <stop offset="1" stop-color="#ABCBFC" stop-opacity="0"/>
    </linearGradient>
    <linearGradient id="paint24_linear_1720_38844" x1="145.578" y1="134.778" x2="201.337" y2="134.778" gradientUnits="userSpaceOnUse">
      <stop offset="0.0181347" stop-color="#2575F7"/>
      <stop offset="1" stop-color="#ABCBFC" stop-opacity="0"/>
    </linearGradient>
    <linearGradient id="paint25_linear_1720_38844" x1="-nan" y1="-nan" x2="-nan" y2="-nan" gradientUnits="userSpaceOnUse">
      <stop offset="0.0181347" stop-color="#2575F7"/>
      <stop offset="1" stop-color="#ABCBFC" stop-opacity="0"/>
    </linearGradient>
    <linearGradient id="paint26_linear_1720_38844" x1="119.614" y1="141.571" x2="119.614" y2="95.8174" gradientUnits="userSpaceOnUse">
      <stop stop-color="#52D987"/>
      <stop offset="1" stop-color="#1D6685"/>
    </linearGradient>
    <linearGradient id="paint27_linear_1720_38844" x1="121.96" y1="96.196" x2="102.749" y2="175.542" gradientUnits="userSpaceOnUse">
      <stop offset="0.0181347" stop-color="#2575F7"/>
      <stop offset="1" stop-color="#ABCBFC" stop-opacity="0"/>
    </linearGradient>
    <linearGradient id="paint28_linear_1720_38844" x1="120.409" y1="141.571" x2="120.409" y2="96.7139" gradientUnits="userSpaceOnUse">
      <stop stop-color="#52D987"/>
      <stop offset="1" stop-color="#1A8C89"/>
    </linearGradient>
    <linearGradient id="paint29_linear_1720_38844" x1="121.342" y1="190.876" x2="121.342" y2="145.123" gradientUnits="userSpaceOnUse">
      <stop stop-color="#52D987"/>
      <stop offset="1" stop-color="#1D6685"/>
    </linearGradient>
    <linearGradient id="paint30_linear_1720_38844" x1="123.687" y1="145.501" x2="104.477" y2="224.847" gradientUnits="userSpaceOnUse">
      <stop offset="0.0181347" stop-color="#2575F7"/>
      <stop offset="1" stop-color="#ABCBFC" stop-opacity="0"/>
    </linearGradient>
    <linearGradient id="paint31_linear_1720_38844" x1="122.137" y1="190.876" x2="122.137" y2="146.019" gradientUnits="userSpaceOnUse">
      <stop stop-color="#52D987"/>
      <stop offset="1" stop-color="#1D6685"/>
    </linearGradient>
    <linearGradient id="paint32_linear_1720_38844" x1="60.1433" y1="239.319" x2="60.1433" y2="169.258" gradientUnits="userSpaceOnUse">
      <stop stop-color="#52D987"/>
      <stop offset="1" stop-color="#1D6685"/>
    </linearGradient>
    <linearGradient id="paint33_linear_1720_38844" x1="24.6404" y1="205.277" x2="95.6279" y2="205.277" gradientUnits="userSpaceOnUse">
      <stop offset="0.0181347" stop-color="#2575F7"/>
      <stop offset="1" stop-color="#ABCBFC" stop-opacity="0"/>
    </linearGradient>
    <linearGradient id="paint34_linear_1720_38844" x1="36.3522" y1="210.839" x2="44.5714" y2="226.111" gradientUnits="userSpaceOnUse">
      <stop stop-color="#12A3FF"/>
      <stop offset="1" stop-color="#3D68FF"/>
    </linearGradient>
    <linearGradient id="paint35_linear_1720_38844" x1="41.565" y1="210.942" x2="50.8314" y2="227.362" gradientUnits="userSpaceOnUse">
      <stop stop-color="#12A3FF"/>
      <stop offset="1" stop-color="#3D68FF"/>
    </linearGradient>
    <linearGradient id="paint36_linear_1720_38844" x1="206.695" y1="111.368" x2="206.695" y2="41.3062" gradientUnits="userSpaceOnUse">
      <stop stop-color="#52D987"/>
      <stop offset="1" stop-color="#1A8C89"/>
    </linearGradient>
    <linearGradient id="paint37_linear_1720_38844" x1="171.207" y1="77.3318" x2="242.195" y2="77.3318" gradientUnits="userSpaceOnUse">
      <stop offset="0.0181347" stop-color="#2575F7"/>
      <stop offset="1" stop-color="#ABCBFC" stop-opacity="0"/>
    </linearGradient>
    <linearGradient id="paint38_linear_1720_38844" x1="182.936" y1="82.8535" x2="191.13" y2="98.1326" gradientUnits="userSpaceOnUse">
      <stop stop-color="#12A3FF"/>
      <stop offset="1" stop-color="#3D68FF"/>
    </linearGradient>
    <linearGradient id="paint39_linear_1720_38844" x1="188.151" y1="82.9902" x2="197.418" y2="99.4098" gradientUnits="userSpaceOnUse">
      <stop stop-color="#12A3FF"/>
      <stop offset="1" stop-color="#3D68FF"/>
    </linearGradient>
    <linearGradient id="paint40_linear_1720_38844" x1="206.695" y1="164.121" x2="206.695" y2="94.0591" gradientUnits="userSpaceOnUse">
      <stop stop-color="#52D987"/>
      <stop offset="1" stop-color="#1D6685"/>
    </linearGradient>
    <linearGradient id="paint41_linear_1720_38844" x1="171.207" y1="130.085" x2="242.195" y2="130.085" gradientUnits="userSpaceOnUse">
      <stop offset="0.0181347" stop-color="#2575F7"/>
      <stop offset="1" stop-color="#ABCBFC" stop-opacity="0"/>
    </linearGradient>
    <linearGradient id="paint42_linear_1720_38844" x1="182.936" y1="135.606" x2="191.13" y2="150.886" gradientUnits="userSpaceOnUse">
      <stop stop-color="#12A3FF"/>
      <stop offset="1" stop-color="#3D68FF"/>
    </linearGradient>
    <linearGradient id="paint43_linear_1720_38844" x1="188.151" y1="135.743" x2="197.418" y2="152.163" gradientUnits="userSpaceOnUse">
      <stop stop-color="#12A3FF"/>
      <stop offset="1" stop-color="#3D68FF"/>
    </linearGradient>
    <linearGradient id="paint44_linear_1720_38844" x1="260.85" y1="211.09" x2="266.818" y2="220.099" gradientUnits="userSpaceOnUse">
      <stop stop-color="#E1EEF9"/>
      <stop offset="1" stop-color="#E1EEF9" stop-opacity="0"/>
    </linearGradient>
    <linearGradient id="paint45_linear_1720_38844" x1="245.203" y1="212.106" x2="263.373" y2="212.106" gradientUnits="userSpaceOnUse">
      <stop offset="0.0181347" stop-color="#6E8BF0"/>
      <stop offset="1" stop-color="#5145C3"/>
    </linearGradient>
    <linearGradient id="paint46_linear_1720_38844" x1="268.391" y1="209.288" x2="268.391" y2="121.849" gradientUnits="userSpaceOnUse">
      <stop stop-color="#12A3FF"/>
      <stop offset="1" stop-color="#3D68FF"/>
    </linearGradient>
    <linearGradient id="paint47_linear_1720_38844" x1="272.541" y1="209.298" x2="285.639" y2="209.298" gradientUnits="userSpaceOnUse">
      <stop offset="0.0181347" stop-color="#6E8BF0"/>
      <stop offset="1" stop-color="#5145C3"/>
    </linearGradient>
    <linearGradient id="paint48_linear_1720_38844" x1="277.201" y1="65.9695" x2="266.263" y2="67.735" gradientUnits="userSpaceOnUse">
      <stop stop-color="#B23696"/>
      <stop offset="1" stop-color="#D367B1"/>
    </linearGradient>
    <linearGradient id="paint49_linear_1720_38844" x1="241.881" y1="72.8568" x2="243.996" y2="78.0918" gradientUnits="userSpaceOnUse">
      <stop stop-color="#B23696"/>
      <stop offset="1" stop-color="#D367B1"/>
    </linearGradient>
    <linearGradient id="paint50_linear_1720_38844" x1="239.534" y1="121.846" x2="245.313" y2="122.162" gradientUnits="userSpaceOnUse">
      <stop stop-color="#B23696"/>
      <stop offset="1" stop-color="#D367B1"/>
    </linearGradient>
    <linearGradient id="paint51_linear_1720_38844" x1="251.791" y1="83.646" x2="251.791" y2="72.7715" gradientUnits="userSpaceOnUse">
      <stop stop-color="#0D7DC4"/>
      <stop offset="1" stop-color="#213371"/>
    </linearGradient>
    <linearGradient id="paint52_linear_1720_38844" x1="267.295" y1="133.894" x2="267.295" y2="67.295" gradientUnits="userSpaceOnUse">
      <stop stop-color="#0D7DC4"/>
      <stop offset="1" stop-color="#213371"/>
    </linearGradient>
    <linearGradient id="paint53_linear_1720_38844" x1="255.422" y1="123.676" x2="255.422" y2="71.8456" gradientUnits="userSpaceOnUse">
      <stop stop-color="#0D7DC4"/>
      <stop offset="1" stop-color="#213371"/>
    </linearGradient>
    <linearGradient id="paint54_linear_1720_38844" x1="138.777" y1="239.481" x2="158.64" y2="239.481" gradientUnits="userSpaceOnUse">
      <stop offset="0.0181347" stop-color="#7E3DB8"/>
      <stop offset="1" stop-color="#C552C8"/>
    </linearGradient>
    <linearGradient id="paint55_linear_1720_38844" x1="118.33" y1="234.358" x2="131.868" y2="234.358" gradientUnits="userSpaceOnUse">
      <stop offset="0.0181347" stop-color="#7E3DB8"/>
      <stop offset="1" stop-color="#C552C8"/>
    </linearGradient>
    <linearGradient id="paint56_linear_1720_38844" x1="136.497" y1="239.434" x2="136.497" y2="145" gradientUnits="userSpaceOnUse">
      <stop stop-color="#12A3FF"/>
      <stop offset="1" stop-color="#3D68FF"/>
    </linearGradient>
    <linearGradient id="paint57_linear_1720_38844" x1="120.026" y1="161.577" x2="127.062" y2="161.577" gradientUnits="userSpaceOnUse">
      <stop offset="0.0181347" stop-color="#0C0982"/>
      <stop offset="1" stop-color="#4F5AE0"/>
    </linearGradient>
    <linearGradient id="paint58_linear_1720_38844" x1="131.27" y1="99.0161" x2="143.215" y2="99.0161" gradientUnits="userSpaceOnUse">
      <stop offset="0.0181347" stop-color="#0C0982"/>
      <stop offset="1" stop-color="#4F5AE0"/>
    </linearGradient>
    <linearGradient id="paint59_linear_1720_38844" x1="184.62" y1="107.196" x2="179.192" y2="102.401" gradientUnits="userSpaceOnUse">
      <stop offset="0.0181347" stop-color="#0C0982"/>
      <stop offset="1" stop-color="#4F5AE0"/>
    </linearGradient>
    <linearGradient id="paint60_linear_1720_38844" x1="150.422" y1="162.16" x2="150.422" y2="98.2041" gradientUnits="userSpaceOnUse">
      <stop stop-color="#52D987"/>
      <stop offset="1" stop-color="#1D6685"/>
    </linearGradient>
    <linearGradient id="paint61_linear_1720_38844" x1="134.753" y1="261.451" x2="135.97" y2="261.344" gradientUnits="userSpaceOnUse">
      <stop stop-color="#6E8BF0"/>
      <stop offset="1" stop-color="#6473E1"/>
    </linearGradient>
    <linearGradient id="paint62_linear_1720_38844" x1="108.057" y1="269.688" x2="108.057" y2="215.288" gradientUnits="userSpaceOnUse">
      <stop stop-color="#12A3FF"/>
      <stop offset="1" stop-color="#3D68FF"/>
    </linearGradient>
    <linearGradient id="paint63_linear_1720_38844" x1="76.8297" y1="305.461" x2="89.7142" y2="305.461" gradientUnits="userSpaceOnUse">
      <stop stop-color="#6E8BF0"/>
      <stop offset="1" stop-color="#6473E1"/>
    </linearGradient>
    <linearGradient id="paint64_linear_1720_38844" x1="81.3369" y1="218.529" x2="100.501" y2="296.888" gradientUnits="userSpaceOnUse">
      <stop stop-color="#12A3FF"/>
      <stop offset="1" stop-color="#3D68FF"/>
    </linearGradient>
    <linearGradient id="paint65_linear_1720_38844" x1="70.857" y1="184.79" x2="96.2021" y2="203.308" gradientUnits="userSpaceOnUse">
      <stop stop-color="#6E8BF0"/>
      <stop offset="1" stop-color="#6473E1"/>
    </linearGradient>
    <linearGradient id="paint66_linear_1720_38844" x1="77.835" y1="174.735" x2="75.8777" y2="148.63" gradientUnits="userSpaceOnUse">
      <stop stop-color="#B23696" stop-opacity="0"/>
      <stop offset="0.4948" stop-color="#B83F9B" stop-opacity="0.053627"/>
      <stop offset="1" stop-color="#D367B1" stop-opacity="0.3"/>
    </linearGradient>
  </defs>
</svg>
