<?xml version="1.0" encoding="UTF-8"?>
<svg width="148px" height="164px" viewBox="0 0 148 164" version="1.1" xmlns="http://www.w3.org/2000/svg" xmlns:xlink="http://www.w3.org/1999/xlink">
    <title>Empty-state_surveillant_no-access</title>
    <defs>
        <path d="M21.686,52.979652 L14.306,21.459652 C13.738,19.059652 15.214,16.779652 17.485,16.209652 L66.192,4.55965201 L93.781,23.399652 L111.039,92.719652 C111.607,95.119652 110.131,97.399652 107.86,97.969652 L40.646,113.959652 C38.262,114.529652 35.991,113.039652 35.423,110.759652 L21.118,50.579652" id="path-1"></path>
        <filter x="-39.7%" y="-25.1%" width="179.4%" height="170.3%" filterUnits="objectBoundingBox" id="filter-2">
            <feOffset dx="0" dy="11" in="SourceAlpha" result="shadowOffsetOuter1"></feOffset>
            <feGaussianBlur stdDeviation="11" in="shadowOffsetOuter1" result="shadowBlurOuter1"></feGaussianBlur>
            <feColorMatrix values="0 0 0 0 0.396078431   0 0 0 0 0.478431373   0 0 0 0 0.576470588  0 0 0 0.18 0" type="matrix" in="shadowBlurOuter1"></feColorMatrix>
        </filter>
        <path d="M106.724,50.809652 L80.724,117.269652 C79.816,119.549652 77.318,120.579652 75.048,119.669652 L11.126,93.399652 C8.856,92.489652 7.834,89.979652 8.742,87.689652 L43.144,2.72965201 C44.052,0.449652009 46.55,-0.580347991 48.821,0.329652009 L95.257,19.399652 L106.724,50.809652 Z" id="path-3"></path>
        <filter x="-39.2%" y="-22.9%" width="178.3%" height="164.2%" filterUnits="objectBoundingBox" id="filter-4">
            <feOffset dx="0" dy="11" in="SourceAlpha" result="shadowOffsetOuter1"></feOffset>
            <feGaussianBlur stdDeviation="11" in="shadowOffsetOuter1" result="shadowBlurOuter1"></feGaussianBlur>
            <feColorMatrix values="0 0 0 0 0.396078431   0 0 0 0 0.478431373   0 0 0 0 0.576470588  0 0 0 0.18 0" type="matrix" in="shadowBlurOuter1"></feColorMatrix>
        </filter>
        <path d="M100.026,104.479652 C100.026,106.879652 98.096,108.819652 95.711,108.819652 L26.681,108.819652 C24.297,108.819652 22.367,106.879652 22.367,104.479652 L22.367,12.669652 C22.367,10.269652 24.297,8.32965201 26.681,8.32965201 L76.751,8.32965201 L99.231,33.109652 L99.685,74.669652 L100.026,104.479652 Z" id="path-5"></path>
        <filter x="-49.6%" y="-27.4%" width="199.2%" height="176.6%" filterUnits="objectBoundingBox" id="filter-6">
            <feOffset dx="0" dy="11" in="SourceAlpha" result="shadowOffsetOuter1"></feOffset>
            <feGaussianBlur stdDeviation="11" in="shadowOffsetOuter1" result="shadowBlurOuter1"></feGaussianBlur>
            <feColorMatrix values="0 0 0 0 0.396078431   0 0 0 0 0.478431373   0 0 0 0 0.576470588  0 0 0 0.18 0" type="matrix" in="shadowBlurOuter1"></feColorMatrix>
        </filter>
        <linearGradient x1="50%" y1="100%" x2="50%" y2="0%" id="linearGradient-7">
            <stop stop-color="#52D987" offset="0%"></stop>
            <stop stop-color="#1A8C89" offset="100%"></stop>
        </linearGradient>
        <linearGradient x1="23.940783%" y1="21.4693056%" x2="58.3365567%" y2="70.2442428%" id="linearGradient-8">
            <stop stop-color="#177970" offset="0%"></stop>
            <stop stop-color="#45C788" stop-opacity="0.540264423" offset="100%"></stop>
        </linearGradient>
        <linearGradient x1="70.0651845%" y1="80.2274543%" x2="37.420104%" y2="36.1084681%" id="linearGradient-9">
            <stop stop-color="#CAFFFC" offset="0%"></stop>
            <stop stop-color="#FFFFFF" offset="100%"></stop>
        </linearGradient>
    </defs>
    <g id="Page-1" stroke="none" stroke-width="1" fill="none" fill-rule="evenodd">
        <g id="Light" transform="translate(-217.000000, -1769.000000)">
            <g id="Empty-state_surveillant_no-access" transform="translate(231.000000, 1780.000348)">
                <g id="46" transform="translate(-0.000000, 0.000000)">
                    <path d="M56.428,116.929652 C87.592,116.929652 112.855,91.519652 112.855,60.169652 C112.855,28.829652 87.592,3.41965201 56.428,3.41965201 C25.264,3.41965201 0,28.829652 0,60.169652 C0,91.519652 25.264,116.929652 56.428,116.929652 Z" id="Path" fill="#EAEEF9" fill-rule="nonzero"></path>
                    <g id="Path" fill-rule="nonzero">
                        <use fill="black" fill-opacity="1" filter="url(#filter-2)" xlink:href="#path-1"></use>
                        <use fill="#FFFFFF" xlink:href="#path-1"></use>
                    </g>
                    <g id="Path" fill-rule="nonzero">
                        <use fill="black" fill-opacity="1" filter="url(#filter-4)" xlink:href="#path-3"></use>
                        <use fill="#FFFFFF" xlink:href="#path-3"></use>
                    </g>
                    <path d="M95.144,19.399652 L87.764,37.669652 C86.742,40.189652 88.104,43.269652 90.602,44.299652 L106.724,50.809652" id="Path" fill="#FFFFFF" fill-rule="nonzero"></path>
                    <g id="Path" fill-rule="nonzero">
                        <use fill="black" fill-opacity="1" filter="url(#filter-6)" xlink:href="#path-5"></use>
                        <use fill="#FFFFFF" xlink:href="#path-5"></use>
                    </g>
                    <path d="M87.31,82.549652 L45.869,82.549652 C45.188,82.549652 44.62,81.979652 44.62,81.299652 C44.62,80.609652 45.188,80.039652 45.869,80.039652 L87.31,80.039652 C87.991,80.039652 88.559,80.609652 88.559,81.299652 C88.445,81.979652 87.991,82.549652 87.31,82.549652 Z" id="Path" fill="#E3EAF2" fill-rule="nonzero"></path>
                    <path d="M40.76,82.549652 L33.493,82.549652 C32.812,82.549652 32.244,81.979652 32.244,81.299652 C32.244,80.609652 32.812,80.039652 33.493,80.039652 L40.76,80.039652 C41.441,80.039652 42.009,80.609652 42.009,81.299652 C42.009,81.979652 41.441,82.549652 40.76,82.549652 Z" id="Path" fill="#E3EAF2" fill-rule="nonzero"></path>
                    <path d="M87.196,71.249652 L68.69,71.249652 C68.008,71.249652 67.441,70.679652 67.441,69.989652 C67.441,69.309652 68.008,68.739652 68.69,68.739652 L87.196,68.739652 C87.877,68.739652 88.445,69.309652 88.445,69.989652 C88.331,70.789652 87.877,71.249652 87.196,71.249652 Z" id="Path" fill="#E3EAF2" fill-rule="nonzero"></path>
                    <path d="M60.856,71.249652 L33.834,71.249652 C33.153,71.249652 32.585,70.679652 32.585,69.989652 C32.585,69.309652 33.153,68.739652 33.834,68.739652 L60.856,68.739652 C61.537,68.739652 62.104,69.309652 62.104,69.989652 C62.104,70.789652 61.537,71.249652 60.856,71.249652 Z" id="Path" fill="#E3EAF2" fill-rule="nonzero"></path>
                    <path d="M87.537,60.059652 L80.384,60.059652 C79.703,60.059652 79.135,59.489652 79.135,58.799652 C79.135,58.119652 79.703,57.539652 80.384,57.539652 L87.537,57.539652 C88.218,57.539652 88.786,58.119652 88.786,58.799652 C88.786,59.489652 88.218,60.059652 87.537,60.059652 Z" id="Path" fill="#E3EAF2" fill-rule="nonzero"></path>
                    <path d="M73.685,60.059652 L34.174,60.059652 C33.493,60.059652 32.926,59.489652 32.926,58.799652 C32.926,58.119652 33.493,57.539652 34.174,57.539652 L73.685,57.539652 C74.366,57.539652 74.934,58.119652 74.934,58.799652 C74.934,59.489652 74.366,60.059652 73.685,60.059652 Z" id="Path" fill="#E3EAF2" fill-rule="nonzero"></path>
                    <path d="M55.974,94.889652 L53.476,94.889652 C52.794,94.889652 52.227,94.319652 52.227,93.629652 C52.227,92.949652 52.794,92.369652 53.476,92.369652 L55.974,92.369652 C56.655,92.369652 57.222,92.949652 57.222,93.629652 C57.109,94.319652 56.541,94.889652 55.974,94.889652 Z" id="Path" fill="#E3EAF2" fill-rule="nonzero"></path>
                    <path d="M48.934,94.889652 L34.174,94.889652 C33.493,94.889652 32.926,94.319652 32.926,93.629652 C32.926,92.949652 33.493,92.369652 34.174,92.369652 L48.821,92.369652 C49.502,92.369652 50.07,92.949652 50.07,93.629652 C50.183,94.319652 49.615,94.889652 48.934,94.889652 Z" id="Path" fill="#E3EAF2" fill-rule="nonzero"></path>
                    <path d="M87.877,48.869652 L62.445,48.869652 C61.764,48.869652 61.196,48.289652 61.196,47.609652 C61.196,46.919652 61.764,46.349652 62.445,46.349652 L87.877,46.349652 C88.558,46.349652 89.126,46.919652 89.126,47.609652 C89.126,48.289652 88.558,48.869652 87.877,48.869652 Z" id="Path" fill="#E3EAF2" fill-rule="nonzero"></path>
                    <path d="M54.271,48.869652 L34.515,48.869652 C33.834,48.869652 33.266,48.289652 33.266,47.609652 C33.266,46.919652 33.834,46.349652 34.515,46.349652 L54.157,46.349652 C54.838,46.349652 55.406,46.919652 55.406,47.609652 C55.406,48.289652 54.952,48.869652 54.271,48.869652 Z" id="Path" fill="#E3EAF2" fill-rule="nonzero"></path>
                    <path d="M76.751,8.32965201 L76.751,27.969652 C76.751,30.709652 79.135,32.989652 81.86,32.989652 L99.231,32.989652" id="Path" fill="#EAEEF9" fill-rule="nonzero"></path>
                    <g id="Group-2" transform="translate(67.000000, 70.000000)">
                        <path d="M51,25.5 C51,28.789548 50.4517947,31.8029661 49.217729,34.684322 C46.4754948,41.815678 40.5804764,47.2902542 33.3137371,49.7634181 C30.8468131,50.5798023 28.2422341,51 25.5,51 C11.3794867,51 0,39.6186441 0,25.5 C0,11.3693503 11.3794867,0 25.5,0 C39.6205133,0 51,11.5134181 51,25.5 Z" id="Path" fill="url(#linearGradient-7)"></path>
                        <path d="M49.217729,34.684322 C46.4754948,41.815678 40.5804764,47.2902542 33.3137371,49.7634181 L19.0567762,35.5007062 L20.5637371,26.460452 L21.7978028,16.3036723 L22.5539035,12.5710755 L27.0081684,10.4088983 L49.217729,34.684322 Z" id="Path" fill="url(#linearGradient-8)" fill-rule="nonzero"></path>
                        <path d="M31.505914,21.3765514 L31.505914,15.5627784 C31.505914,12.4014429 28.7760627,9.74900536 25.4996,9.74900536 C23.8629716,9.74900536 22.4058754,10.4583782 21.1331203,11.5224374 C20.0398974,12.5710755 19.3121508,13.9744001 19.3121508,15.7478321 L19.3121508,21.546184 C17.6739194,22.6102432 16.4011643,23.8439351 15.3079414,25.6019461 C14.3990596,27.1903244 13.8524481,29.1333891 13.8524481,31.0610326 C13.8524481,37.2294921 18.9482774,42.1642596 25.3184648,42.1642596 C31.6886522,42.1642596 36.7844815,37.2294921 36.7844815,31.0610326 C36.9656166,26.8356379 34.7823768,23.3196161 31.505914,21.3765514 Z M26.7739581,32.1250919 L26.7739581,35.1167947 C26.7739581,35.4714811 26.4100847,35.8107464 26.0462114,35.8107464 L24.7718534,35.8107464 C24.4079801,35.8107464 24.0441067,35.4714811 24.0441067,35.1167947 L24.0441067,33.17373 L24.0441067,32.1250919 C22.9524868,31.5853517 22.4058754,30.3516598 22.5886135,29.1333891 C22.7697487,28.0693298 23.6802334,27.1903244 24.7718534,27.0052706 C26.5928229,26.6660053 28.2310543,28.0693298 28.2310543,29.6577081 C28.2310543,30.7063462 27.6844428,31.5853517 26.7739581,32.1250919 Z M28.7760627,20.1428595 C27.6844428,19.7881731 26.5928229,19.6185404 25.3184648,19.6185404 C24.2268449,19.6185404 23.135225,19.7881731 22.0420021,20.1428595 L22.0420021,15.7478321 C22.0420021,14.8688267 22.4058754,13.9744001 22.9524868,13.450081 C23.4990983,12.925762 24.4079801,12.5710755 25.3184648,12.5710755 C27.1378314,12.5710755 28.5949276,13.9744001 28.5949276,15.7478321 L28.5949276,20.1428595 L28.7760627,20.1428595 Z" id="Shape" fill="url(#linearGradient-9)" fill-rule="nonzero"></path>
                    </g>
                </g>
                <g id="hidden" transform="translate(29.000000, 11.999652)">
                    <polygon id="Path" points="0 0 31 0 31 31 0 31"></polygon>
                    <g id="Group" transform="translate(3.849167, 6.458134)" fill="#B9C7D8" fill-rule="nonzero">
                        <path d="M20.9508333,6.25186552 C22.3975,7.75019885 23.2629167,9.02894885 23.2629167,9.02894885 C23.2629167,9.02894885 17.9670833,16.7789489 11.6379167,16.7789489 C11.2245833,16.7789489 10.8370833,16.7531155 10.4625,16.7272822 L20.9379167,6.23894885 L20.9508333,6.25186552 Z" id="Path"></path>
                        <path d="M14.88,1.92478219 L11.6379167,5.15394885 C9.49375,5.15394885 7.76291667,6.88478219 7.76291667,9.02894885 L3.26791667,13.5110322 C0.96875,11.3926989 0,9.01603219 0,9.01603219 C0,9.01603219 3.16458333,1.26603219 11.625,1.26603219 C12.7358333,1.26603219 13.8208333,1.49853219 14.8541667,1.89894885 L14.88,1.92478219 Z" id="Path"></path>
                        <polygon id="Path" opacity="0.3" transform="translate(12.319806, 9.590133) rotate(-45.000203) translate(-12.319806, -9.590133) " points="0.0490031597 8.29847827 24.590608 8.29847827 24.590608 10.8817868 0.0490031597 10.8817868"></polygon>
                    </g>
                </g>
            </g>
        </g>
    </g>
</svg>