<svg width="345" height="32" viewBox="0 0 345 32" fill="none" xmlns="http://www.w3.org/2000/svg">
<mask id="path-1-inside-1_5438_8366" fill="white">
<path d="M48 16C48 7.16344 55.1634 0 64 0H281C289.837 0 297 7.16344 297 16H48Z"/>
</mask>
<path d="M48 16C48 7.16344 55.1634 0 64 0H281C289.837 0 297 7.16344 297 16H48Z" fill="white" fill-opacity="0.5"/>
<path d="M43 16C43 4.40202 52.402 -5 64 -5H281C292.598 -5 302 4.40202 302 16H292C292 9.92487 287.075 5 281 5H64C57.9249 5 53 9.92487 53 16H43ZM297 16H48H297ZM43 16C43 4.40202 52.402 -5 64 -5V5C57.9249 5 53 9.92487 53 16H43ZM281 -5C292.598 -5 302 4.40202 302 16H292C292 9.92487 287.075 5 281 5V-5Z" fill="#CDD1D9" fill-opacity="0.4" mask="url(#path-1-inside-1_5438_8366)"/>
<mask id="path-3-inside-2_5438_8366" fill="white">
<path d="M24 32C24 23.1634 31.1634 16 40 16H305C313.837 16 321 23.1634 321 32V32H24V32Z"/>
</mask>
<path d="M24 32C24 23.1634 31.1634 16 40 16H305C313.837 16 321 23.1634 321 32V32H24V32Z" fill="white" fill-opacity="0.7"/>
<path d="M19 32C19 20.402 28.402 11 40 11H305C316.598 11 326 20.402 326 32H316C316 25.9249 311.075 21 305 21H40C33.9249 21 29 25.9249 29 32H19ZM321 32H24H321ZM19 32C19 20.402 28.402 11 40 11V21C33.9249 21 29 25.9249 29 32H19ZM305 11C316.598 11 326 20.402 326 32H316C316 25.9249 311.075 21 305 21V11Z" fill="#CDD1D9" fill-opacity="0.6" mask="url(#path-3-inside-2_5438_8366)"/>
</svg>
