<svg width="250" height="196" xmlns="http://www.w3.org/2000/svg" xmlns:xlink="http://www.w3.org/1999/xlink">
    <defs>
        <path id="b" d="M.18.428h124.284v124.29H.18z"/>
        <path id="d" d="M0 227.333h240.868V.606H0z"/>
        <path d="M.97 6.16h49.577V.65H.969v5.51zm22.035 11.02H50.55v-5.51H23.005v5.51zM.969 28.195h16.526V11.67H.97v16.526zm22.036 0H50.55v-5.507H23.005v5.507zM.969 39.212h38.562v-5.507H.969v5.507zm0 11.016h49.578V44.72H.969v5.507z" id="f"/>
        <path id="h" d="M.065.955h124.284v124.29H.065z"/>
        <path d="M21.241.916C10.977.916 5.628 2.453 2.793 6.223.027 9.895.027 15.31.027 22.806V37.09c0 14.518 3.283 21.89 21.214 21.89h15.63c8.704 0 13.529-1.275 16.651-4.401 3.202-3.202 4.57-8.434 4.57-17.49V22.807c0-7.903-.219-13.353-3.076-16.908C52.168 2.362 46.91.916 36.87.916H21.241zm-.028 39.966c-.761-.48-1.225-1.342-1.225-2.277V20.57c0-.928.46-1.79 1.225-2.273a2.44 2.44 0 012.491-.088l16.548 8.989c.843.458 1.37 1.367 1.373 2.358 0 .995-.524 1.904-1.367 2.365L23.71 40.967a2.456 2.456 0 01-2.498-.085z" id="j"/>
        <path id="l" d="M0 227.333h240.868V.606H0z"/>
        <path d="M17.644 66.479h5.838V.309h-5.838v66.17zm34.737-5.428h5.7V5.737h-5.7v55.314zm-8.683-11.114h5.7v-33.09h-5.7v33.09zm-17.372 0h5.7v-33.09h-5.7v33.09zm-17.365 0h5.699v-33.09h-5.7v33.09zm52.11-8.272h5.698V25.12H61.07v16.545zm-26.055 0h5.699V25.12h-5.7v16.545zm-34.741 0h5.699V25.12h-5.7v16.545z" id="n"/>
        <filter x="-.9%" y="-3.7%" width="101.9%" height="107.5%" filterUnits="objectBoundingBox" id="a">
            <feOffset dy="2" in="SourceAlpha" result="shadowOffsetOuter1"/>
            <feGaussianBlur stdDeviation="2.5" in="shadowOffsetOuter1" result="shadowBlurOuter1"/>
            <feColorMatrix values="0 0 0 0 0 0 0 0 0 0 0 0 0 0 0 0 0 0 0.0629643794 0" in="shadowBlurOuter1" result="shadowMatrixOuter1"/>
            <feMerge>
                <feMergeNode in="shadowMatrixOuter1"/>
                <feMergeNode in="SourceGraphic"/>
            </feMerge>
        </filter>
    </defs>
    <g filter="url(#a)" transform="translate(-826 -172)" fill="none" fill-rule="evenodd" opacity=".695">
        <g transform="translate(830 172.971)">
            <g transform="translate(29.995 102.615)">
                <mask id="c" fill="#fff">
                    <use xlink:href="#b"/>
                </mask>
                <path d="M124.464 62.575c0 34.32-27.82 62.143-62.144 62.143-34.317 0-62.14-27.823-62.14-62.143C.18 28.25 28.003.428 62.32.428c34.324 0 62.144 27.822 62.144 62.147" fill="#FFBE1B" mask="url(#c)"/>
            </g>
            <path d="M138.969 165.19c0 25.764-20.886 46.647-46.65 46.647-25.768 0-46.655-20.883-46.655-46.647s20.887-46.644 46.654-46.644c25.765 0 46.65 20.88 46.65 46.644" fill="#FFE37B"/>
            <path d="M185.892 16.884l1.263.316-1.263.313a20.655 20.655 0 00-15.01 15.016l-.32 1.263-.315-1.263a20.655 20.655 0 00-15.01-15.016l-1.263-.313 1.263-.316a20.656 20.656 0 0015.01-15.013l.316-1.263.318 1.263a20.656 20.656 0 0015.01 15.013m21.171 22.633l.68.173-.68.168a11.115 11.115 0 00-8.073 8.07l-.164.679-.174-.679a11.097 11.097 0 00-8.067-8.07l-.679-.168.679-.173a11.093 11.093 0 008.067-8.067l.174-.68.164.68a11.11 11.11 0 008.073 8.067" fill="#330D84"/>
            <path d="M29.027 125.96l1.146.29-1.146.288a18.773 18.773 0 00-13.653 13.652l-.29 1.146-.29-1.146A18.773 18.773 0 001.14 126.538L0 126.25l1.14-.29a18.774 18.774 0 0013.652-13.65l.29-1.149.291 1.15a18.774 18.774 0 0013.653 13.649" fill="#FFBE1B"/>
            <mask id="e" fill="#fff">
                <use xlink:href="#d"/>
            </mask>
            <path d="M70.432 170.278h16.526v-16.525H70.432v16.525zm0-22.032h49.577v-5.51H70.432v5.51zm22.036 11.016h27.541v-5.51H92.468v5.51zm0 11.016h27.541v-5.51H92.468v5.51zm-22.036 11.02h38.561v-5.51H70.432v5.51zm0 11.016h49.577v-5.51H70.432v5.51z" fill="#FFF" mask="url(#e)"/>
        </g>
        <g transform="translate(899.463 315.054)">
            <mask id="g" fill="#fff">
                <use xlink:href="#f"/>
            </mask>
            <path fill="#FFF" mask="url(#g)" d="M-8.563 59.763h68.645V-8.882H-8.563z"/>
        </g>
        <g transform="translate(946.52 236.12)">
            <mask id="i" fill="#fff">
                <use xlink:href="#h"/>
            </mask>
            <path d="M124.35 63.102c0 34.32-27.82 62.144-62.144 62.144-34.318 0-62.141-27.823-62.141-62.144S27.888.955 62.205.955c34.325 0 62.145 27.826 62.145 62.147" fill="#5D8EF9" mask="url(#i)"/>
        </g>
        <path d="M1055.377 299.221c0 25.761-20.886 46.644-46.65 46.644-25.761 0-46.647-20.883-46.647-46.644 0-25.764 20.886-46.647 46.647-46.647 25.764 0 46.65 20.883 46.65 46.647" fill="#8AC9F9"/>
        <path d="M1034.686 275.172c-2.848-3.54-8.105-4.986-18.145-4.986h-15.626c-10.268 0-15.617 1.538-18.452 5.308-2.766 3.675-2.766 9.09-2.766 16.583v14.284c0 14.52 3.284 21.89 21.218 21.89h15.626c8.708 0 13.532-1.272 16.652-4.398 3.202-3.205 4.569-8.434 4.569-17.492v-14.284c0-7.903-.215-13.35-3.076-16.905m-14.754 26.02l-16.551 9.046a2.45 2.45 0 01-2.498-.082c-.76-.483-1.225-1.345-1.225-2.277v-18.035c0-.928.464-1.79 1.222-2.273a2.439 2.439 0 012.495-.088l16.55 8.989c.84.458 1.37 1.364 1.37 2.358.004.992-.523 1.901-1.363 2.362" fill="#FFF"/>
        <g transform="translate(979.672 269.272)">
            <mask id="k" fill="#fff">
                <use xlink:href="#j"/>
            </mask>
            <path fill="#FFF" mask="url(#k)" d="M-11.141 70.145h80.397v-80.397h-80.397z"/>
        </g>
        <g transform="translate(830 172.971)">
            <path d="M170.13 72.611c0 34.32-27.825 62.144-62.15 62.144-34.323 0-62.14-27.823-62.14-62.144 0-34.324 27.817-62.147 62.14-62.147 34.325 0 62.15 27.823 62.15 62.147" fill="#330D84"/>
            <path d="M154.634 72.611c0 25.761-20.886 46.644-46.65 46.644-25.762 0-46.648-20.883-46.648-46.644s20.886-46.644 46.647-46.644c25.765 0 46.65 20.883 46.65 46.644" fill="#5932AE"/>
            <mask id="m" fill="#fff">
                <use xlink:href="#l"/>
            </mask>
            <path d="M91.845 104.368h5.835V38.195h-5.835v66.173zm34.738-5.428h5.7V43.623h-5.7V98.94zm-26.055-11.114h5.7V54.74h-5.7v33.086zm17.37 0h5.698V54.74h-5.699v33.086zm-34.739 0h5.7V54.74h-5.7v33.086zm-8.685-8.272h5.699V63.009h-5.7v16.545zm34.74 0h5.7V63.012h-5.7v16.542zm26.055 0h5.7V63.009h-5.7v16.545z" fill="#FFF" mask="url(#m)"/>
        </g>
        <g transform="translate(904.199 210.86)">
            <mask id="o" fill="#fff">
                <use xlink:href="#n"/>
            </mask>
            <path fill="#FFF" mask="url(#o)" d="M-12.775 79.528h92.59V-12.74h-92.59z"/>
        </g>
    </g>
</svg>
