<?xml version="1.0" encoding="UTF-8"?>
<svg width="361px" height="235px" viewBox="0 0 361 235" version="1.1" xmlns="http://www.w3.org/2000/svg" xmlns:xlink="http://www.w3.org/1999/xlink">
    <title>Group 8</title>
    <defs>
        <rect id="path-1" x="0" y="0" width="310.061033" height="150.415383" rx="7.81378614"></rect>
        <filter x="-15.2%" y="-27.3%" width="130.3%" height="171.1%" filterUnits="objectBoundingBox" id="filter-2">
            <feOffset dx="0" dy="6" in="SourceAlpha" result="shadowOffsetOuter1"></feOffset>
            <feGaussianBlur stdDeviation="12.5" in="shadowOffsetOuter1" result="shadowBlurOuter1"></feGaussianBlur>
            <feColorMatrix values="0 0 0 0 0   0 0 0 0 0   0 0 0 0 0  0 0 0 0.06 0" type="matrix" in="shadowBlurOuter1" result="shadowMatrixOuter1"></feColorMatrix>
            <feOffset dx="0" dy="19" in="SourceAlpha" result="shadowOffsetOuter2"></feOffset>
            <feGaussianBlur stdDeviation="12.5" in="shadowOffsetOuter2" result="shadowBlurOuter2"></feGaussianBlur>
            <feColorMatrix values="0 0 0 0 0   0 0 0 0 0   0 0 0 0 0  0 0 0 0.03 0" type="matrix" in="shadowBlurOuter2" result="shadowMatrixOuter2"></feColorMatrix>
            <feMerge>
                <feMergeNode in="shadowMatrixOuter1"></feMergeNode>
                <feMergeNode in="shadowMatrixOuter2"></feMergeNode>
            </feMerge>
        </filter>
        <circle id="path-3" cx="76.8876557" cy="76.8876557" r="76.8876557"></circle>
        <rect id="path-5" x="0" y="0" width="664.263212" height="286.544915" rx="14.8854501"></rect>
        <filter x="-13.1%" y="-26.2%" width="126.2%" height="169.1%" filterUnits="objectBoundingBox" id="filter-6">
            <feOffset dx="0" dy="12" in="SourceAlpha" result="shadowOffsetOuter1"></feOffset>
            <feGaussianBlur stdDeviation="23" in="shadowOffsetOuter1" result="shadowBlurOuter1"></feGaussianBlur>
            <feColorMatrix values="0 0 0 0 0   0 0 0 0 0   0 0 0 0 0  0 0 0 0.06 0" type="matrix" in="shadowBlurOuter1" result="shadowMatrixOuter1"></feColorMatrix>
            <feOffset dx="0" dy="36" in="SourceAlpha" result="shadowOffsetOuter2"></feOffset>
            <feGaussianBlur stdDeviation="23" in="shadowOffsetOuter2" result="shadowBlurOuter2"></feGaussianBlur>
            <feColorMatrix values="0 0 0 0 0   0 0 0 0 0   0 0 0 0 0  0 0 0 0.03 0" type="matrix" in="shadowBlurOuter2" result="shadowMatrixOuter2"></feColorMatrix>
            <feMerge>
                <feMergeNode in="shadowMatrixOuter1"></feMergeNode>
                <feMergeNode in="shadowMatrixOuter2"></feMergeNode>
            </feMerge>
        </filter>
    </defs>
    <g id="Mes-tutos" stroke="none" stroke-width="1" fill="none" fill-rule="evenodd">
        <g id="Compétence+tutos---liste---no-touto" transform="translate(-242.000000, -347.000000)">
            <g id="Group-8" transform="translate(267.000000, 366.000000)">
                <g id="Group-2">
                    <g id="Rectangle">
                        <use fill="black" fill-opacity="1" filter="url(#filter-2)" xlink:href="#path-1"></use>
                        <use fill="#FFFFFF" fill-rule="evenodd" xlink:href="#path-1"></use>
                    </g>
                    <g id="Tutoriel-liste-Copy-4" transform="translate(16.395990, 23.441358)">
                        <g id="icons" transform="translate(25.394805, 85.951648)">
                            <g id="bookmark" transform="translate(0.000000, 1.939559)" fill="#68778E" fill-rule="nonzero">
                                <path d="M4.7767773,10.4449894 C6.4879466,10.4449894 7.62872614,9.08101388 7.62872614,7.09704947 C7.62872614,5.11308506 6.4879466,3.79870864 4.7767773,3.79870864 C3.7847951,3.79870864 2.99120933,4.26990019 2.61921601,5.08828551 L2.61921601,0.996358918 L1.60243425,0.996358918 L1.60243425,10.3457912 L2.61921601,10.3457912 L2.61921601,9.15541255 C3.01600889,9.97379786 3.7847951,10.4449894 4.7767773,10.4449894 Z M4.60318041,9.57700498 C3.3384031,9.57700498 2.61921601,8.684221 2.61921601,7.12184903 C2.61921601,5.5346775 3.3384031,4.66669307 4.60318041,4.66669307 C5.84315817,4.66669307 6.56234527,5.55947706 6.56234527,7.09704947 C6.56234527,8.65942144 5.81835861,9.57700498 4.60318041,9.57700498 Z M10.1334812,13.3217378 L10.1334812,1.81474424 C10.1334812,1.15731384 9.60053295,0.624365592 8.94310256,0.624365592 L1.80083069,0.624365592 C1.14340029,0.624365592 0.610452042,1.15731384 0.610452042,1.81474424 L0.610452042,13.3217378 L5.37196662,10.5441876 L10.1334812,13.3217378 Z" id="bbookmark"></path>
                            </g>
                            <text id="text-input" font-family="Roboto-Medium, Roboto" font-size="12.6974025" font-weight="400" letter-spacing="0.146508493" fill="#6B778C">
                                <tspan x="78.1378614" y="13">useful tutorial</tspan>
                            </text>
                            <text id="text-input-copy" font-family="Roboto-Medium, Roboto" font-size="12.6974025" font-weight="400" letter-spacing="0.146508493" fill="#68778E">
                                <tspan x="14.650849" y="13">Save</tspan>
                            </text>
                            <g id="thumbs-up-on" transform="translate(60.556843, 2.930170)" fill="#8993A4" fill-rule="nonzero">
                                <path d="M8.10945452,13.3078507 C10.0219265,13.3078507 10.8866656,12.3301816 10.9103269,10.9437072 C11.2406163,10.4867803 11.4137288,9.87429906 11.3403473,9.28237921 C11.5847101,8.82477414 11.67921,8.28189638 11.5632769,7.72027364 C11.7807816,7.35198571 11.9037864,6.95916464 11.9037864,6.48424347 C11.9037864,5.39269977 10.9808022,4.36189561 9.77548088,4.36189561 L8.8708057,4.36189561 C8.99281758,4.04422396 9.09027208,3.66428703 9.09027208,3.20774756 C9.09027208,1.40246589 8.15559041,0.610478531 6.72763009,0.610478531 C5.19979343,0.610478531 5.28693093,2.9647652 4.94799561,3.30370053 C4.3839026,3.86781775 3.71758409,4.95156315 3.24278401,5.37199311 L0.793585763,5.37199311 C0.355306907,5.37199311 0,5.72730002 0,6.16557887 L0,12.1174721 C0,12.555751 0.355306907,12.9110579 0.793585763,12.9110579 L2.38075729,12.9110579 C2.7500866,12.9110579 3.06046853,12.6587514 3.14898648,12.3171037 C4.25280886,12.3419274 5.01045464,13.3076086 7.55841518,13.3076086 L8.10945452,13.3078507 L8.10945452,13.3078507 Z M8.36885689,12.1172299 L7.43092997,12.1172299 C5.65432278,12.1172299 4.50388014,11.179303 3.17434305,11.179303 L3.17434305,6.56237175 L3.44515226,6.56237175 C3.83198051,6.56237175 4.30327801,6.03056715 4.75869852,5.44231321 L5.004932,5.11870628 C5.28896007,4.74130016 5.55917023,4.37603426 5.78970316,4.14540808 C6.49302727,3.44208398 6.25866663,2.26982064 6.72763009,1.80085718 C7.89989343,1.80085718 7.89989343,2.61875813 7.89989343,3.20774756 C7.89989343,4.1791442 7.19659355,4.61437155 7.19659355,5.55227425 L9.77548088,5.55227425 C10.2990082,5.55227425 10.7111797,6.02123771 10.7134194,6.49020117 C10.7156359,6.95892245 10.3954698,7.42788592 10.1611333,7.42788592 C10.4956367,7.78883569 10.567105,8.54970251 10.0319044,9.05521141 C10.3434004,9.57924732 10.0631702,10.2805613 9.68621217,10.4829295 C9.87717359,11.6926586 9.24953172,12.1172299 8.36885689,12.1172299 Z M1.58717153,11.9190757 C1.25845633,11.9190757 0.991982204,11.6526015 0.991982204,11.3238863 C0.991982204,10.9951711 1.25845633,10.728697 1.58717153,10.728697 C1.91588672,10.728697 2.18236085,10.9951711 2.18236085,11.3238863 C2.18236085,11.6526015 1.91588672,11.9190757 1.58717153,11.9190757 Z" id="tthumbs-up"></path>
                            </g>
                        </g>
                        <text id="provenance" font-family="Roboto-Regular, Roboto" font-size="13.6741258" font-weight="normal" line-spacing="23.4413584" letter-spacing="0.146508493" fill="#505F79">
                            <tspan x="23.4413584" y="41.3482515">By good click • Vidéo • 5 minute</tspan>
                        </text>
                        <text id="Title" font-family="OpenSans-SemiBold, Open Sans" font-size="17.5810188" font-weight="500" fill="#253858">
                            <tspan x="23.4413584" y="19">How to search on the internet?</tspan>
                        </text>
                        <rect id="dom" fill="#5E6C84" fill-rule="nonzero" x="0" y="0" width="3.90689307" height="103.532666" rx="1.95344654"></rect>
                    </g>
                </g>
                <g id="Group-2-Copy" transform="translate(14.498091, 55.687113)">
                    <mask id="mask-4" fill="white">
                        <use xlink:href="#path-3"></use>
                    </mask>
                    <g id="Mask">
                        <circle stroke="#DFE1E6" stroke-width="5.60639156" cx="76.8876557" cy="76.8876557" r="79.6908514"></circle>
                        <circle stroke="#172B4D" stroke-width="1.60182616" cx="76.8876557" cy="76.8876557" r="77.6885687"></circle>
                    </g>
                    <g mask="url(#mask-4)">
                        <g transform="translate(-70.324075, -157.252446)">
                            <g id="Rectangle">
                                <use fill="black" fill-opacity="1" filter="url(#filter-6)" xlink:href="#path-5"></use>
                                <use fill="#FFFFFF" fill-rule="evenodd" xlink:href="#path-5"></use>
                            </g>
                            <g id="Tutoriel-liste-Copy-4" stroke-width="1" fill-rule="evenodd" transform="translate(59.541801, 44.656350)">
                                <g id="icons" transform="translate(49.540639, 163.739951)">
                                    <g id="bookmark" transform="translate(0.000000, 4.419118)" fill="#68778E" fill-rule="nonzero">
                                        <path d="M7.93694961,19.1737448 C11.1967682,19.1737448 13.3699806,16.5753387 13.3699806,12.7958389 C13.3699806,9.0163391 11.1967682,6.51242048 7.93694961,6.51242048 C6.0471997,6.51242048 4.53539977,7.41005168 3.82674356,8.96909536 L3.82674356,1.17387699 L1.88974991,1.17387699 L1.88974991,18.9847699 L3.82674356,18.9847699 L3.82674356,16.71707 C4.58264352,18.2761136 6.0471997,19.1737448 7.93694961,19.1737448 Z M7.60624337,17.5202137 C5.19681224,17.5202137 3.82674356,15.8194388 3.82674356,12.8430827 C3.82674356,9.81948281 5.19681224,8.16595165 7.60624337,8.16595165 C9.96843075,8.16595165 11.3384994,9.86672656 11.3384994,12.7958389 C11.3384994,15.772195 9.92118701,17.5202137 7.60624337,17.5202137 Z M18.1415991,24.6540196 L18.1415991,2.73292067 C18.1415991,1.48049999 17.1263199,0.465220779 15.8738992,0.465220779 L2.26769989,0.465220779 C1.01527921,0.465220779 0,1.48049999 0,2.73292067 L0,24.6540196 L9.07079955,19.3627198 L18.1415991,24.6540196 Z" id="bbookmark"></path>
                                    </g>
                                    <text id="text-input" font-family="Roboto-Medium, Roboto" font-size="24.1888565" font-weight="400" letter-spacing="0.27910224" fill="#6B778C">
                                        <tspan x="147.691576" y="25">useful tutorial</tspan>
                                    </text>
                                    <text id="text-input-copy" font-family="Roboto-Medium, Roboto" font-size="24.1888565" font-weight="400" letter-spacing="0.27910224" fill="#68778E">
                                        <tspan x="26.0495377" y="25">Save</tspan>
                                    </text>
                                    <g id="thumbs-up-on" transform="translate(113.501557, 6.744970)" fill="#8993A4" fill-rule="nonzero">
                                        <path d="M15.4487055,24.1888493 C19.0920104,24.1888493 20.7393593,22.326366 20.7844346,19.6850991 C21.4136439,18.8146423 21.7434274,17.6478509 21.6036338,16.5202294 C22.0691509,15.6484807 22.2491754,14.6142856 22.0283201,13.5443808 C22.4426717,12.8427834 22.6769989,12.0944499 22.6769989,11.1897136 C22.6769989,9.11029669 20.9186918,7.14659002 18.6225257,7.14659002 L16.8990978,7.14659002 C17.1315333,6.54141792 17.3171865,5.81762894 17.3171865,4.9479103 C17.3171865,1.50880538 15.5365955,5.04618869e-05 12.8162968,5.04618869e-05 C9.90573129,5.04618869e-05 10.0717303,4.48502307 9.42605039,5.130703 C8.35143967,6.20535985 7.08208691,8.26992085 6.17758137,9.07085001 L1.51179992,9.07085001 C0.676868185,9.07085001 0,9.7477182 0,10.5826499 L0,21.9211494 C0,22.7560811 0.676868185,23.4329493 1.51179992,23.4329493 L4.53539977,23.4329493 C5.23898098,23.4329493 5.83026601,22.9522995 5.99889481,22.3014523 C8.10170295,22.3487422 9.54503635,24.1883879 14.3989623,24.1883879 L15.4487055,24.1888493 L15.4487055,24.1888493 Z M15.9428732,21.920688 L14.1560999,21.920688 C10.7716206,21.920688 8.57999976,20.1339147 6.0471997,20.1339147 L6.0471997,11.3385499 L6.56309773,11.3385499 C7.30001484,11.3385499 8.1978479,10.3254494 9.06543489,9.20481149 L9.53451557,8.58833251 C10.0755959,7.86936481 10.5903527,7.1735245 11.0295235,6.7341761 C12.3693728,5.39432681 11.9229101,3.161137 12.8162968,2.26775035 C15.0494866,2.26775035 15.0494866,3.82587129 15.0494866,4.9479103 C15.0494866,6.7984442 13.7096834,7.62756275 13.7096834,9.41428991 L18.6225257,9.41428991 C19.6198578,9.41428991 20.4050544,10.3076766 20.409321,11.2010632 C20.4135435,12.0939885 19.8036194,12.9873751 19.3572029,12.9873751 C19.9944398,13.6749931 20.1305886,15.1244627 19.1110187,16.0874693 C19.704426,17.0857703 19.1705808,18.4217902 18.4524666,18.8073066 C18.8162527,21.1118695 17.6205799,21.920688 15.9428732,21.920688 Z M3.02359985,21.5431994 C2.39738951,21.5431994 1.88974991,21.0355598 1.88974991,20.4093494 C1.88974991,19.7831391 2.39738951,19.2754995 3.02359985,19.2754995 C3.64981019,19.2754995 4.15744979,19.7831391 4.15744979,20.4093494 C4.15744979,21.0355598 3.64981019,21.5431994 3.02359985,21.5431994 Z" id="tthumbs-up"></path>
                                    </g>
                                </g>
                                <text id="provenance" font-family="Roboto-Regular, Roboto" font-size="26.0495377" font-weight="normal" line-spacing="44.6563504" letter-spacing="0.27910224" fill="#505F79">
                                    <tspan x="44.6563504" y="79.0990755">By good click • Vidéo • 5 minute</tspan>
                                </text>
                                <text id="Title" font-family="OpenSans-SemiBold, Open Sans" font-size="33.4922628" font-weight="500" fill="#253858">
                                    <tspan x="44.6563504" y="36">How to search on the internet?</tspan>
                                </text>
                                <rect id="dom" fill="#5E6C84" fill-rule="nonzero" x="0" y="0" width="7.44272507" height="197.232214" rx="3.72136253"></rect>
                            </g>
                        </g>
                    </g>
                </g>
            </g>
        </g>
    </g>
</svg>