<svg width="361" height="235" xmlns="http://www.w3.org/2000/svg" xmlns:xlink="http://www.w3.org/1999/xlink"><defs><filter x="-15.2%" y="-27.3%" width="130.3%" height="171.1%" filterUnits="objectBoundingBox" id="a"><feOffset dy="6" in="SourceAlpha" result="shadowOffsetOuter1"/><feGaussianBlur stdDeviation="12.5" in="shadowOffsetOuter1" result="shadowBlurOuter1"/><feColorMatrix values="0 0 0 0 0 0 0 0 0 0 0 0 0 0 0 0 0 0 0.06 0" in="shadowBlurOuter1" result="shadowMatrixOuter1"/><feOffset dy="19" in="SourceAlpha" result="shadowOffsetOuter2"/><feGaussianBlur stdDeviation="12.5" in="shadowOffsetOuter2" result="shadowBlurOuter2"/><feColorMatrix values="0 0 0 0 0 0 0 0 0 0 0 0 0 0 0 0 0 0 0.03 0" in="shadowBlurOuter2" result="shadowMatrixOuter2"/><feMerge><feMergeNode in="shadowMatrixOuter1"/><feMergeNode in="shadowMatrixOuter2"/></feMerge></filter><filter x="-13.1%" y="-26.2%" width="126.2%" height="169.1%" filterUnits="objectBoundingBox" id="e"><feOffset dy="12" in="SourceAlpha" result="shadowOffsetOuter1"/><feGaussianBlur stdDeviation="23" in="shadowOffsetOuter1" result="shadowBlurOuter1"/><feColorMatrix values="0 0 0 0 0 0 0 0 0 0 0 0 0 0 0 0 0 0 0.06 0" in="shadowBlurOuter1" result="shadowMatrixOuter1"/><feOffset dy="36" in="SourceAlpha" result="shadowOffsetOuter2"/><feGaussianBlur stdDeviation="23" in="shadowOffsetOuter2" result="shadowBlurOuter2"/><feColorMatrix values="0 0 0 0 0 0 0 0 0 0 0 0 0 0 0 0 0 0 0.03 0" in="shadowBlurOuter2" result="shadowMatrixOuter2"/><feMerge><feMergeNode in="shadowMatrixOuter1"/><feMergeNode in="shadowMatrixOuter2"/></feMerge></filter><rect id="b" x="0" y="0" width="310.061" height="150.415" rx="7.814"/><rect id="f" x="0" y="0" width="664.263" height="286.545" rx="14.885"/><circle id="c" cx="76.888" cy="76.888" r="76.888"/></defs><g fill="none" fill-rule="evenodd"><g transform="translate(25 19)"><use fill="#000" filter="url(#a)" xlink:href="#b"/><use fill="#FFF" xlink:href="#b"/></g><g transform="translate(41.396 42.441)"><path d="M30.172 98.336c1.71 0 2.852-1.364 2.852-3.348 0-1.984-1.141-3.298-2.852-3.298-.992 0-1.786.471-2.158 1.29v-4.092h-1.017v9.349h1.017v-1.19c.397.818 1.166 1.29 2.158 1.29zm-.174-.868c-1.265 0-1.984-.893-1.984-2.455 0-1.587.72-2.455 1.984-2.455 1.24 0 1.96.893 1.96 2.43 0 1.563-.745 2.48-1.96 2.48zm5.53 3.745V89.706a1.19 1.19 0 00-1.19-1.19h-7.142a1.19 1.19 0 00-1.19 1.19v11.507l4.76-2.778 4.762 2.778z" fill="#68778E" fill-rule="nonzero"/><text font-family="Roboto-Medium, Roboto" font-size="12.697" font-weight="400" letter-spacing=".147" fill="#6B778C" transform="translate(25.395 85.952)"><tspan x="78.138" y="13">useful tutorial</tspan></text><text font-family="Roboto-Medium, Roboto" font-size="12.697" font-weight="400" letter-spacing=".147" fill="#68778E" transform="translate(25.395 85.952)"><tspan x="14.651" y="13">Save</tspan></text><path d="M94.061 102.19c1.913 0 2.777-.978 2.801-2.364.33-.457.503-1.07.43-1.662.244-.457.339-1 .223-1.562.217-.368.34-.761.34-1.236 0-1.091-.923-2.122-2.128-2.122h-.905c.122-.318.22-.698.22-1.154 0-1.806-.935-2.598-2.363-2.598-1.528 0-1.44 2.355-1.78 2.694-.563.564-1.23 1.647-1.705 2.068h-2.449a.794.794 0 00-.793.793V101c0 .439.355.794.793.794h1.587c.37 0 .68-.252.769-.594 1.103.025 1.861.99 4.41.99h.55zm.26-1.191h-.938c-1.777 0-2.927-.938-4.257-.938v-4.617h.27c.388 0 .859-.532 1.314-1.12l.247-.323c.284-.378.554-.743.784-.974.704-.703.47-1.875.938-2.344 1.173 0 1.173.818 1.173 1.407 0 .971-.704 1.406-.704 2.344h2.58c.523 0 .935.47.937.938.002.469-.318.938-.552.938.334.36.406 1.122-.13 1.627.312.524.032 1.225-.345 1.428.19 1.21-.437 1.634-1.317 1.634zm-6.782-.198a.595.595 0 110-1.19.595.595 0 010 1.19z" fill="#8993A4" fill-rule="nonzero"/><text font-family="Roboto-Regular, Roboto" font-size="13.674" letter-spacing=".147" fill="#505F79"><tspan x="23.441" y="41.348">By good click • Vidéo • 5 minute</tspan></text><text font-family="OpenSans-SemiBold, Open Sans" font-size="17.581" font-weight="500" fill="#253858"><tspan x="23.441" y="19">How to search on the internet?</tspan></text><rect fill="#5E6C84" fill-rule="nonzero" width="3.907" height="103.533" rx="1.953"/></g><g transform="translate(39.498 74.687)"><mask id="d" fill="#fff"><use xlink:href="#c"/></mask><circle stroke="#DFE1E6" stroke-width="5.606" cx="76.888" cy="76.888" r="79.691"/><circle stroke="#172B4D" stroke-width="1.602" cx="76.888" cy="76.888" r="77.689"/><g mask="url(#d)"><g transform="translate(-70.324 -157.252)"><use fill="#000" filter="url(#e)" xlink:href="#f"/><use fill="#FFF" xlink:href="#f"/></g><g transform="translate(-10.782 -112.596)"><path d="M57.478 187.333c3.26 0 5.433-2.599 5.433-6.378 0-3.78-2.174-6.284-5.433-6.284-1.89 0-3.402.898-4.11 2.457v-7.795H51.43v17.81h1.937v-2.267c.756 1.56 2.22 2.457 4.11 2.457zm-.331-1.654c-2.41 0-3.78-1.7-3.78-4.677 0-3.023 1.37-4.677 3.78-4.677 2.362 0 3.732 1.7 3.732 4.63 0 2.976-1.417 4.724-3.732 4.724zm10.535 7.134v-21.921a2.268 2.268 0 00-2.267-2.268H51.808a2.268 2.268 0 00-2.267 2.268v21.921l9.07-5.291 9.071 5.291z" fill="#68778E" fill-rule="nonzero"/><text font-family="Roboto-Medium, Roboto" font-size="24.189" font-weight="400" letter-spacing=".279" fill="#6B778C" transform="translate(49.54 163.74)"><tspan x="147.692" y="25">useful tutorial</tspan></text><text font-family="Roboto-Medium, Roboto" font-size="24.189" font-weight="400" letter-spacing=".279" fill="#68778E" transform="translate(49.54 163.74)"><tspan x="26.05" y="25">Save</tspan></text><path d="M178.49 194.674c3.644 0 5.292-1.863 5.337-4.504.629-.87.959-2.037.819-3.165a4.388 4.388 0 00.425-2.976c.414-.701.648-1.45.648-2.354 0-2.08-1.758-4.043-4.054-4.043h-1.724a6.032 6.032 0 00.418-2.2c0-3.438-1.78-4.947-4.5-4.947-2.911 0-2.745 4.485-3.39 5.13-1.075 1.075-2.345 3.14-3.25 3.94h-4.665c-.835 0-1.512.678-1.512 1.513v11.338c0 .835.677 1.512 1.512 1.512h3.024c.703 0 1.294-.48 1.463-1.132 2.103.048 3.546 1.887 8.4 1.887h1.05zm.495-2.268h-1.787c-3.384 0-5.576-1.787-8.109-1.787v-8.796h.516c.737 0 1.635-1.013 2.503-2.133l.469-.617c.54-.719 1.056-1.415 1.495-1.854 1.34-1.34.893-3.573 1.786-4.466 2.234 0 2.234 1.558 2.234 2.68 0 1.85-1.34 2.68-1.34 4.466h4.913c.997 0 1.782.894 1.787 1.787.004.893-.606 1.786-1.053 1.786.638.688.774 2.137-.246 3.1.594.999.06 2.335-.658 2.72.363 2.305-.832 3.114-2.51 3.114zm-12.92-.378a1.134 1.134 0 110-2.268 1.134 1.134 0 010 2.268z" fill="#8993A4" fill-rule="nonzero"/><text font-family="Roboto-Regular, Roboto" font-size="26.05" letter-spacing=".279" fill="#505F79"><tspan x="44.656" y="79.099">By good click • Vidéo • 5 minute</tspan></text><text font-family="OpenSans-SemiBold, Open Sans" font-size="33.492" font-weight="500" fill="#253858"><tspan x="44.656" y="36">How to search on the internet?</tspan></text><rect fill="#5E6C84" fill-rule="nonzero" width="7.443" height="197.232" rx="3.721"/></g></g></g></g></svg>