<svg width="303" height="204" xmlns="http://www.w3.org/2000/svg"><g fill="none" fill-rule="evenodd"><path d="M167.088 26.337H98.783c-3.696 0-6.692-3.012-6.692-6.728V7.728C92.09 4.012 95.087 1 98.783 1h68.305v25.337z" fill="#564DA6" fill-rule="nonzero"/><path d="M162.02 7.08V1H98.314c-3.322 0-6.03 2.69-6.223 6.08h69.93z" fill="#DCD8FF"/><path d="M82.97 60.795h30.404V26.337H82.97c-9.516 0-17.23 7.637-17.23 17.056v.345c0 9.42 7.714 17.057 17.23 17.057" fill="#FF3F94" fill-rule="nonzero"/><path d="M82.97 60.795h30.404V26.337H82.97c-9.516 0-17.23 7.637-17.23 17.056v.345c0 9.42 7.714 17.057 17.23 17.057zm84.118-34.458H98.783c-3.696 0-6.692-3.012-6.692-6.728V7.728C92.09 4.012 95.087 1 98.783 1h68.305v25.337z" stroke="#2B3554" stroke-width="2" stroke-linecap="round" stroke-linejoin="round"/><path d="M114.387 33.431v-7.094H83.841a17.367 17.367 0 00-14.046 7.094h44.592z" fill="#FFD1E5"/><path fill="#FFF" d="M123.508 21.269h96.28V5.054h-96.28z"/><path stroke="#2B3554" stroke-width="2" stroke-linecap="round" stroke-linejoin="round" d="M123.508 21.269h96.28V5.054h-96.28zM82.97 60.795h30.404V26.337H82.97c-9.516 0-17.23 7.637-17.23 17.056v.345c0 9.42 7.714 17.057 17.23 17.057z"/><path d="M236.003 29.514a3.184 3.184 0 00-3.19-3.177h-121.34c-7.055 0-15.327 7.636-15.327 17.056v.345c0 9.42 8.272 17.057 15.327 17.057h121.342a3.184 3.184 0 003.19-3.179v-.064a3.184 3.184 0 00-3.19-3.177H114.06V32.757h118.754a3.184 3.184 0 003.19-3.179v-.064z" fill="#FFD1E5"/><path d="M236.003 29.514a3.184 3.184 0 00-3.19-3.177h-121.34c-7.055 0-15.327 7.636-15.327 17.056v.345c0 9.42 8.272 17.057 15.327 17.057h121.342a3.184 3.184 0 003.19-3.179v-.064a3.184 3.184 0 00-3.19-3.177H114.06V32.757h118.754a3.184 3.184 0 003.19-3.179v-.064z" stroke="#2B3554" stroke-width="2" stroke-linecap="round" stroke-linejoin="round"/><path d="M231.95 54.714H113.976c-5.93 0-10.738-4.717-10.738-10.535v-.213c0-5.818 4.807-10.535 10.738-10.535h117.972l-.032.107c-6.436 6.927-6.436 14.44 0 21.07l.032.106z" fill="#FFF"/><path d="M228.376 38.498c.807-1.674 1.981-3.335 3.54-4.963l.033-.104H113.54c-3.961 0-7.414 2.039-9.286 5.067" fill="#EFEFEF"/><path d="M223.842 4.21c0-1.773-1.427-3.21-3.188-3.21h-93.889c-3.478 0-6.297 2.84-6.297 6.342v12.653c0 3.503 2.82 6.342 6.297 6.342h93.89c1.76 0 3.187-1.437 3.187-3.21v-.065c0-1.773-1.427-3.21-3.188-3.21h-91.286a2.14 2.14 0 01-2.133-2.149v-8.07a2.14 2.14 0 012.133-2.147h91.286c1.76 0 3.188-1.438 3.188-3.211V4.21z" fill="#00C5F8"/><path d="M223.842 4.21c0-1.773-1.427-3.21-3.188-3.21h-93.889c-3.478 0-6.297 2.84-6.297 6.342v12.653c0 3.503 2.82 6.342 6.297 6.342h93.89c1.76 0 3.187-1.437 3.187-3.21v-.065c0-1.773-1.427-3.21-3.188-3.21h-91.286a2.14 2.14 0 01-2.133-2.149v-8.07a2.14 2.14 0 012.133-2.147h91.286c1.76 0 3.188-1.438 3.188-3.211V4.21z" fill="#DCD8FF"/><path d="M223.842 4.21c0-1.773-1.427-3.21-3.188-3.21h-93.889c-3.478 0-6.297 2.84-6.297 6.342v12.653c0 3.503 2.82 6.342 6.297 6.342h93.89c1.76 0 3.187-1.437 3.187-3.21v-.065c0-1.773-1.427-3.21-3.188-3.21h-91.286a2.14 2.14 0 01-2.133-2.149v-8.07a2.14 2.14 0 012.133-2.147h91.286c1.76 0 3.188-1.438 3.188-3.211V4.21z" stroke="#40515D" stroke-width="2" stroke-linecap="round" stroke-linejoin="round"/><path stroke="#2B3554" stroke-width="2" stroke-linecap="round" stroke-linejoin="round" d="M131.616 14.175h86.145m14.189 40.539H113.976c-5.93 0-10.738-4.717-10.738-10.535v-.213c0-5.818 4.807-10.535 10.738-10.535h117.972l-.032.107c-6.436 6.927-6.436 14.44 0 21.07l.032.106z"/><path d="M113.374 33.431c-5.658.365-10.135 4.935-10.135 10.534v.214c0 5.6 4.477 10.17 10.135 10.535-9.035 0-9.035-21.283 0-21.283" fill="#ADC1D0"/><path d="M113.374 33.431c-5.658.365-10.135 4.935-10.135 10.534v.214c0 5.6 4.477 10.17 10.135 10.535-9.035 0-9.035-21.283 0-21.283z" stroke="#2B3554" stroke-width="2" stroke-linecap="round" stroke-linejoin="round"/><path stroke="#2B3554" stroke-width="1.2" stroke-linecap="round" stroke-linejoin="round" d="M225.869 44.579h-11.148"/><path fill="#564DA6" d="M196.478 14.175v22.296l3.547-3.246 3.547 3.246V14.175z"/><path stroke="#2B3554" stroke-width="2" d="M196.478 14.175v22.296l3.547-3.246 3.547 3.246V14.175z"/><path d="M57.785 202.68h41.4v-47.633h-41.4c-12.957 0-23.462 10.557-23.462 23.578v.477c0 13.022 10.505 23.578 23.462 23.578" fill="#F1A141" fill-rule="nonzero"/><path d="M57.785 202.68h41.4v-47.633h-41.4c-12.957 0-23.462 10.557-23.462 23.578v.477c0 13.022 10.505 23.578 23.462 23.578z" stroke="#2B3554" stroke-width="2" stroke-linecap="round" stroke-linejoin="round"/><path d="M99.185 165.182v-10.135h-41.67c-7.886 0-14.852 4.002-19.138 10.135h60.808z" fill="#FFC784"/><path d="M57.785 202.68h41.4v-47.633h-41.4c-12.957 0-23.462 10.557-23.462 23.578v.477c0 13.022 10.505 23.578 23.462 23.578z" stroke="#2B3554" stroke-width="2" stroke-linecap="round" stroke-linejoin="round"/><path d="M267.42 159.44a4.392 4.392 0 00-4.391-4.393H95.966c-9.714 0-21.104 10.557-21.104 23.579v.476c0 13.022 11.39 23.578 21.104 23.578h167.063a4.392 4.392 0 004.392-4.392v-.09a4.393 4.393 0 00-4.392-4.392H99.528V163.92h163.5a4.392 4.392 0 004.393-4.393v-.088z" fill="#FFC784"/><path d="M267.42 159.44a4.392 4.392 0 00-4.391-4.393H95.966c-9.714 0-21.104 10.557-21.104 23.579v.476c0 13.022 11.39 23.578 21.104 23.578h167.063a4.392 4.392 0 004.392-4.392v-.09a4.393 4.393 0 00-4.392-4.392H99.528V163.92h163.5a4.392 4.392 0 004.393-4.393v-.088z" stroke="#2B3554" stroke-width="2" stroke-linecap="round" stroke-linejoin="round"/><path d="M262.354 193.559H99.792c-8.17 0-14.795-6.514-14.795-14.549v-.294c0-8.034 6.624-14.548 14.795-14.548h162.562l-.045.148v29.096l.045.147z" fill="#FFF"/><path d="M262.354 171.263s-2.66-4.67-.524-6.95l.044-.145H99.738c-5.423 0-10.15 2.855-12.714 7.095" fill="#EFEFEF"/><path stroke="#2B3554" stroke-width="2" stroke-linecap="round" stroke-linejoin="round" d="M1 202.68h301m-39.646-9.121H99.792c-8.17 0-14.795-6.514-14.795-14.549v-.294c0-8.034 6.624-14.548 14.795-14.548h162.562l-.045.148v29.096l.045.147z"/><path d="M99.185 164.168c-7.885.302-14.188 6.69-14.188 14.549v.294c0 7.858 6.303 14.246 14.188 14.548-12.01 0-12.01-29.39 0-29.39" fill="#ADC1D0"/><path d="M99.185 164.168c-7.885.302-14.188 6.69-14.188 14.549v.294c0 7.858 6.303 14.246 14.188 14.548-12.01 0-12.01-29.39 0-29.39z" stroke="#2B3554" stroke-width="2" stroke-linecap="round" stroke-linejoin="round"/><path fill="#FFF" d="M257.286 185.451H124.522"/><path stroke="#2B3554" stroke-width="1.2" stroke-linecap="round" stroke-linejoin="round" d="M257.286 185.451H124.522m130.737-7.094h-61.821"/><path d="M170.128 154.034H64.902c-5.694 0-10.31-4.579-10.31-10.227v-18.059c0-5.648 4.616-10.226 10.31-10.226h105.226v38.512z" fill="#12A3FF" fill-rule="nonzero"/><path d="M170.128 125.657v-10.135H64.898c-5.664 0-10.256 4.53-10.305 10.135h115.535z" fill="#76C7FB"/><path d="M170.128 154.034H64.902c-5.694 0-10.31-4.579-10.31-10.227v-18.059c0-5.648 4.616-10.226 10.31-10.226h105.226v38.512z" stroke="#2B3554" stroke-width="2" stroke-linecap="round" stroke-linejoin="round"/><path fill="#FFF" d="M103.239 146.939h147.966v-25.336H103.239z"/><path d="M250.423 132.75c.237-3.65-.818-7.369.782-11.147H103.24v11.148h147.184z" fill="#EFEFEF"/><path stroke="#2B3554" stroke-width="2" stroke-linecap="round" stroke-linejoin="round" d="M103.239 146.939h147.966v-25.336H103.239z"/><path d="M257.286 120.402c0-2.695-2.21-4.88-4.938-4.88H106.913c-5.387 0-9.755 4.316-9.755 9.64v19.233c0 5.323 4.368 9.639 9.755 9.639h145.435c2.728 0 4.938-2.185 4.938-4.88v-.099c0-2.694-2.21-4.88-4.938-4.88H110.944c-1.825 0-3.304-1.46-3.304-3.264v-12.266c0-1.804 1.48-3.265 3.304-3.265h141.404c2.728 0 4.938-2.185 4.938-4.88v-.098z" fill="#00C5F8"/><path d="M257.286 120.402c0-2.695-2.21-4.88-4.938-4.88H106.913c-5.387 0-9.755 4.316-9.755 9.64v19.233c0 5.323 4.368 9.639 9.755 9.639h145.435c2.728 0 4.938-2.185 4.938-4.88v-.099c0-2.694-2.21-4.88-4.938-4.88H110.944c-1.825 0-3.304-1.46-3.304-3.264v-12.266c0-1.804 1.48-3.265 3.304-3.265h141.404c2.728 0 4.938-2.185 4.938-4.88v-.098z" fill="#76C7FB"/><path d="M257.286 120.402c0-2.695-2.21-4.88-4.938-4.88H106.913c-5.387 0-9.755 4.316-9.755 9.64v19.233c0 5.323 4.368 9.639 9.755 9.639h145.435c2.728 0 4.938-2.185 4.938-4.88v-.099c0-2.694-2.21-4.88-4.938-4.88H110.944c-1.825 0-3.304-1.46-3.304-3.264v-12.266c0-1.804 1.48-3.265 3.304-3.265h141.404c2.728 0 4.938-2.185 4.938-4.88v-.098z" stroke="#40515D" stroke-width="2" stroke-linecap="round" stroke-linejoin="round"/><path fill="#12A3FF" d="M123.508 147.953h11.149v-14.189h-11.149z"/><path stroke="#2B3554" stroke-width="2" stroke-linecap="round" stroke-linejoin="round" d="M123.508 147.953h11.149v-14.189h-11.149z"/><path fill="#00AC8F" d="M123.508 133.764h44.593"/><path stroke="#2B3554" stroke-width="2" stroke-linecap="round" stroke-linejoin="round" d="M123.508 133.764h44.593"/><path d="M241.087 71.084c-3.402-5.84-8.718-10.29-15.481-10.29H64.727v7.033h147.638c5.026 0 9.617 2.991 11.502 7.646 3.268 8.066 2.693 17.5-.164 24.986a12.477 12.477 0 01-11.656 8.03H64.727v7.033h160.45c6.967 0 13.58-4.172 15.689-10.808 4.087-12.869 4.481-26.316.22-33.63" fill="#A0F8C2"/><path d="M241.087 71.084c-3.402-5.84-8.718-10.29-15.481-10.29H64.727v7.033h147.638c5.026 0 9.617 2.991 11.502 7.646 3.268 8.066 2.693 17.5-.164 24.986a12.477 12.477 0 01-11.656 8.03H64.727v7.033h160.45c6.967 0 13.58-4.172 15.689-10.808 4.087-12.869 4.481-26.316.22-33.63z" stroke="#2B3554" stroke-width="2"/><path fill="#52D987" fill-rule="nonzero" d="M64.727 115.522h52.701v-7.094H64.727z"/><path stroke="#2B3554" stroke-width="2" stroke-linecap="round" stroke-linejoin="round" d="M64.727 115.522h52.701v-7.094H64.727z"/><path fill="#52D987" fill-rule="nonzero" d="M64.727 67.889h52.701v-7.094H64.727z"/><path stroke="#2B3554" stroke-width="2" stroke-linecap="round" stroke-linejoin="round" d="M64.727 67.889h52.701v-7.094H64.727z"/><path d="M73.848 67.889h150.454c5.026 0 9.618 2.982 11.504 7.622 3.27 8.042 2.694 17.448-.163 24.911a12.479 12.479 0 01-11.66 8.006H73.848v-40.54z" fill="#FFF"/><path d="M233.976 72.956c-2.23-3.755-6.219-6.08-10.531-6.08h-96.896v6.08h107.427z" fill="#EFEFEF"/><path fill="#DDFFEA" d="M72.835 108.428h50.673V67.889H72.835z"/><path stroke="#2B3554" stroke-width="2" stroke-linecap="round" stroke-linejoin="round" d="M72.835 108.428h50.673V67.889H72.835z"/><path d="M234.792 75.452c-1.688-4.175-5.543-7.01-9.937-7.563 8.972 0 8.972 40.539 0 40.539a12.495 12.495 0 009.773-7.91c2.858-7.51 3.435-16.974.164-25.066" fill="#ADC1D0"/><path d="M234.792 75.452c-1.688-4.175-5.543-7.01-9.937-7.563 8.972 0 8.972 40.539 0 40.539a12.495 12.495 0 009.773-7.91c2.858-7.51 3.435-16.974.164-25.066z" stroke="#2B3554" stroke-width="2" stroke-linecap="round" stroke-linejoin="round"/><path fill="#FFF" d="M124.522 81.064h61.822"/><path stroke="#2B3554" stroke-width="1.2" stroke-linecap="round" stroke-linejoin="round" d="M124.522 81.064h61.822"/><path fill="#FFF" d="M124.522 87.145h31.418"/><path stroke="#2B3554" stroke-width="1.2" stroke-linecap="round" stroke-linejoin="round" d="M124.522 87.145h31.418"/><path fill="#FFF" d="M123.508 96.266h47.633"/><path stroke="#2B3554" stroke-width="1.2" stroke-linecap="round" stroke-linejoin="round" d="M123.508 96.266h47.633M73.848 81.064h16.216m-16.216 6.081h10.135"/><path d="M73.848 67.889h150.454c5.026 0 9.618 2.982 11.504 7.622 3.27 8.042 2.694 17.448-.163 24.911a12.479 12.479 0 01-11.66 8.006H73.848v-40.54z" stroke="#2B3554" stroke-width="2" stroke-linecap="round" stroke-linejoin="round"/></g></svg>