<?xml version="1.0" encoding="UTF-8"?>
<svg width="60px" height="62px" viewBox="0 0 60 62" version="1.1" xmlns="http://www.w3.org/2000/svg" xmlns:xlink="http://www.w3.org/1999/xlink">
    <!-- Generator: sketchtool 49.3 (51167) - http://www.bohemiancoding.com/sketch -->
    <title>90835C59-6640-44F5-A150-EDFA6E5E33AA</title>
    <desc>Created with sketchtool.</desc>
    <defs></defs>
    <g id="↳-TUTORIELS" stroke="none" stroke-width="1" fill="none" fill-rule="evenodd">
        <g id="Tutoriel" transform="translate(-255.000000, -537.000000)">
            <g id="icone-lampe" transform="translate(255.000000, 537.167969)">
                <circle id="Oval-2" fill="#FFBE00" cx="33.075" cy="19.845" r="19.845"></circle>
                <path d="M29.4618947,1.61929688 C18.4382806,1.61929688 9.46989474,10.5877003 9.46989474,21.6113359 C9.46989474,30.0479209 12.7785252,36.3414181 19.8847302,41.4173557 C19.9187009,41.4413695 19.9687199,41.4713575 20.0057363,41.4912714 C20.0577466,41.519268 21.1333297,42.1199651 21.4032212,43.8053844 C20.2746906,44.2362277 19.4659533,45.3228241 19.4659533,46.6012969 C19.4659533,47.3690365 19.7558758,48.0697718 20.2315829,48.6005359 C19.7557586,49.1313001 19.4659533,49.8320353 19.4659533,50.599775 C19.4659533,51.3675146 19.7558758,52.0681327 20.2315829,52.599014 C19.7557586,53.1297782 19.4659533,53.8305134 19.4659533,54.5982531 C19.4659533,56.2515758 20.8114279,57.5970531 22.4647475,57.5970531 C23.0164787,57.5970531 23.4643065,57.1492245 23.4643065,56.5974921 C23.4643065,56.0457598 23.0164787,55.5979312 22.4647475,55.5979312 C21.9139533,55.5979312 21.4651884,55.1491654 21.4651884,54.5983702 C21.4651884,54.047575 21.9139533,53.5988093 22.4647475,53.5988093 L32.4606889,53.5988093 C33.0134744,53.5988093 33.4602479,53.1509806 33.4602479,52.5992483 C33.4602479,52.047516 33.0134744,51.5996873 32.4606889,51.5996873 L22.4647475,51.5996873 C21.9139533,51.5996873 21.4651884,51.1509216 21.4651884,50.6001264 C21.4651884,50.0493312 21.9139533,49.6005654 22.4647475,49.6005654 L32.4606889,49.6005654 C33.0134744,49.6005654 33.4602479,49.1527368 33.4602479,48.6010045 C33.4602479,48.0492721 33.0134744,47.6014435 32.4606889,47.6014435 L22.4647475,47.6014435 C21.9139533,47.6014435 21.4651884,47.1526778 21.4651884,46.6018826 C21.4651884,46.0510874 21.9139533,45.6023216 22.4647475,45.6023216 L32.4606889,45.6023216 C33.0134744,45.6023216 33.4602479,45.154493 33.4602479,44.6027607 C33.4602479,44.0510283 33.0134744,43.6031997 32.4606889,43.6031997 L23.396365,43.6031997 C23.0424839,41.0861991 21.4111867,39.9956199 21.0023667,39.7596987 C14.4090024,35.0345973 11.469247,29.4358611 11.469247,21.6119216 C11.469247,11.6909307 19.5410403,3.61912162 29.4620119,3.61912162 C39.3829835,3.61912162 47.4547767,11.6909307 47.4547767,21.6119216 C47.4547767,29.435744 44.5149042,35.0345973 37.921657,39.7596987 C37.461881,40.0245536 35.4596002,41.3690937 35.4596002,44.6027607 C35.4596002,45.154493 35.9063736,45.6023216 36.4591592,45.6023216 C37.0108904,45.6023216 37.4587182,46.0510874 37.4587182,46.6018826 C37.4587182,47.1526778 37.0108904,47.6014435 36.4591592,47.6014435 C35.9063736,47.6014435 35.4596002,48.0492721 35.4596002,48.6010045 C35.4596002,49.1527368 35.9063736,49.6005654 36.4591592,49.6005654 C37.0108904,49.6005654 37.4587182,50.0493312 37.4587182,50.6001264 C37.4587182,51.1509216 37.0108904,51.5996873 36.4591592,51.5996873 C35.9063736,51.5996873 35.4596002,52.047516 35.4596002,52.5992483 C35.4596002,53.1509806 35.9063736,53.5988093 36.4591592,53.5988093 C37.0108904,53.5988093 37.4587182,54.047575 37.4587182,54.5983702 C37.4587182,55.1681422 37.0289301,55.5979312 36.4591592,55.5979312 L26.4631006,55.5979312 C25.9113693,55.5979312 25.4635416,56.0457598 25.4635416,56.5974921 L25.4635416,58.5964969 C25.4635416,60.2498197 26.8090162,61.5952969 28.4623357,61.5952969 L30.4615709,61.5952969 C32.1148904,61.5952969 33.460365,60.2498197 33.460365,58.5964969 L33.460365,57.5969359 L36.4591592,57.5969359 C38.1415295,57.5969359 39.4579533,56.2794553 39.4579533,54.5981359 C39.4579533,53.8303963 39.1680308,53.1297782 38.6922065,52.5988969 C39.1680308,52.0681327 39.4579533,51.3673975 39.4579533,50.5996578 C39.4579533,49.8319182 39.1680308,49.1313001 38.6922065,48.6004188 C39.1680308,48.0696546 39.4579533,47.3689194 39.4579533,46.6011797 C39.4579533,45.322707 38.649216,44.2361105 37.5197483,43.8052673 C37.7896398,42.1199651 38.8641686,41.5202051 38.9051678,41.4972456 C38.9521411,41.474286 38.997123,41.4472265 39.0390593,41.4172385 C46.14421,36.341301 49.4538947,30.0478037 49.4538947,21.6112188 C49.4538947,10.5877003 40.4855089,1.61929688 29.4618947,1.61929688 Z M32.6185263,58.4386653 C32.6185263,59.0184724 32.1471232,59.4908758 31.5663466,59.4908758 L29.4618639,59.4908758 C28.8820738,59.4908758 28.4096842,59.0184724 28.4096842,58.4386653 L28.4096842,57.3864548 L32.6185263,57.3864548 L32.6185263,58.4386653 Z M33.0131496,40.5510863 C33.5707825,40.5510863 34.0214737,40.0985452 34.0214737,39.5410069 L34.0214737,25.3993021 L37.0465642,25.3993021 C39.8265751,25.3993021 42.0884211,23.1336369 42.0884211,20.3486679 C42.0884211,17.5638173 39.8266932,15.2980337 37.0465642,15.2980337 C34.2665533,15.2980337 32.0047073,17.563699 32.0047073,20.3486679 L32.0047073,23.3790248 L27.9712927,23.3790248 L27.9712927,20.3486679 C27.9712927,17.5638173 25.7095649,15.2980337 22.9294358,15.2980337 C20.1494249,15.2980337 17.8875789,17.563699 17.8875789,20.3486679 C17.8875789,23.1335185 20.1493068,25.3993021 22.9294358,25.3993021 L25.9545263,25.3993021 L25.9545263,39.5410069 C25.9545263,40.0985452 26.406281,40.5510863 26.9628504,40.5510863 C27.5194198,40.5510863 27.9711745,40.0985452 27.9711745,39.5410069 L27.9711745,25.3993021 L32.0045891,25.3993021 L32.0045891,39.5410069 C32.0048255,40.0985452 32.4555167,40.5510863 33.0131496,40.5510863 Z M33.6707368,20.5590863 C33.6707368,18.8187466 35.0870287,17.4024548 36.8273684,17.4024548 C38.5677082,17.4024548 39.984,18.8187466 39.984,20.5590863 C39.984,22.2994261 38.5677082,23.7157179 36.8273684,23.7157179 L33.6707368,23.7157179 L33.6707368,20.5590863 Z M26.3052632,23.7157179 L23.1486316,23.7157179 C21.4082918,23.7157179 19.992,22.2994261 19.992,20.5590863 C19.992,18.8187466 21.4082918,17.4024548 23.1486316,17.4024548 C24.8889713,17.4024548 26.3052632,18.8187466 26.3052632,20.5590863 L26.3052632,23.7157179 Z M6.70005401,3.40108422 C6.24179029,3.04280801 6.18225408,2.40692393 6.56689095,1.97897962 C6.95241642,1.55304611 7.63486124,1.49745357 8.09312497,1.85478351 L12.2397135,5.09795792 C12.6979773,5.45623412 12.7575135,6.09306446 12.3730035,6.52006251 C12.1596126,6.75816419 11.85203,6.88034951 11.543305,6.88034951 C11.2974167,6.88034951 11.0503859,6.80358448 10.8467695,6.64414033 L6.70005401,3.40108422 Z M7.79694018,13.0960699 C8.28616916,13.3104968 8.53879202,13.9616209 8.36050898,14.5505306 C8.22099754,15.0110233 7.85912937,15.2980337 7.47450637,15.2980337 C7.36713889,15.2980337 7.25866681,15.2753015 7.15218301,15.2287737 L2.72482099,13.2901575 C2.23559202,13.0757306 1.98396331,12.4246066 2.16114174,11.8358298 C2.34030845,11.2470531 2.88034919,10.9442233 3.36957816,11.1574538 L7.79694018,13.0960699 Z M48.4335656,6.88034951 C48.1237758,6.88034951 47.8162704,6.75726686 47.6029329,6.52008743 C47.2185194,6.09231317 47.2780407,5.45668176 47.7361895,5.09854792 L51.8840228,1.85477044 C52.3443292,1.4966366 53.0276182,1.55409881 53.4088589,1.9789172 C53.7942877,2.40669146 53.7337512,3.04232287 53.2756023,3.40045671 L49.127769,6.64423419 C48.925219,6.80266911 48.6782501,6.88034951 48.4335656,6.88034951 Z M6.31299885,20.5590863 C6.89393832,20.5590863 7.36547368,21.0305033 7.36547368,21.6112969 C7.36547368,22.1920905 6.89393832,22.6635074 6.31299885,22.6635074 L1.05247483,22.6635074 C0.471535366,22.6635074 0,22.1920905 0,21.6112969 C0,21.0305033 0.471535366,20.5590863 1.05247483,20.5590863 L6.31299885,20.5590863 Z M57.8140097,11.83543 C57.9930373,12.4240713 57.7404548,13.0750456 57.251304,13.2894232 L52.8227719,15.2287896 C52.7171887,15.2765029 52.6078504,15.2980337 52.5013836,15.2980337 C52.1159385,15.2980337 51.7550117,15.0122855 51.6155226,14.5517657 C51.4373785,13.9631244 51.6890774,13.3121501 52.1791118,13.0977725 L56.6067603,11.1584061 C57.0949171,10.9428324 57.6368596,11.2479849 57.8140097,11.83543 Z M58.9238247,20.5590863 C59.5057086,20.5590863 59.976,21.0305033 59.976,21.6112969 C59.976,22.1920905 59.5057086,22.6635074 58.9238247,22.6635074 L53.6627016,22.6635074 C53.0808177,22.6635074 52.6105263,22.1920905 52.6105263,21.6112969 C52.6105263,21.0305033 53.0808177,20.5590863 53.6627016,20.5590863 L58.9238247,20.5590863 Z" id="Shape" fill="#3E4149" fill-rule="nonzero"></path>
            </g>
        </g>
    </g>
</svg>