<?xml version="1.0" encoding="UTF-8"?>
<svg width="120px" height="120px" viewBox="0 0 120 120" version="1.1" xmlns="http://www.w3.org/2000/svg" xmlns:xlink="http://www.w3.org/1999/xlink">
    <!-- Generator: sketchtool 51.3 (57544) - http://www.bohemiancoding.com/sketch -->
    <title>3329E79A-F421-42FF-8D5F-389C5725B007</title>
    <desc>Created with sketchtool.</desc>
    <defs></defs>
    <g id="Campagne" stroke="none" stroke-width="1" fill="none" fill-rule="evenodd">
        <g transform="translate(-403.000000, -1148.000000)" fill-rule="nonzero" id="Group-4">
            <g transform="translate(295.000000, 585.515625)">
                <g id="icon-conseil" transform="translate(108.000000, 563.000000)">
                    <rect id="Rectangle-path" fill="#AFB8C9" x="84.6470014" y="90.4183879" width="11.5427729" height="26.9331368"></rect>
                    <rect id="Rectangle-path" fill="#8C95A4" x="84.6470014" y="92.3421833" width="11.5427729" height="5.77138646"></rect>
                    <rect id="Rectangle-path" fill="#AFB8C9" x="23.0855458" y="90.4183879" width="11.5427729" height="26.9331368"></rect>
                    <rect id="Rectangle-path" fill="#8C95A4" x="23.0855458" y="92.3421833" width="11.5427729" height="5.77138646"></rect>
                    <path d="M109.656343,15.3903639 C113.906007,15.3903639 117.351525,18.8358816 117.351525,23.0855458 L117.351525,84.6470014 C117.351525,88.8966656 113.906007,92.3421833 109.656343,92.3421833 L9.61897743,92.3421833 C5.3693132,92.3421833 1.92379549,88.8966656 1.92379549,84.6470014 L1.92379549,23.0855458 C1.92379549,18.8358816 5.3693132,15.3903639 9.61897743,15.3903639 L109.656343,15.3903639 Z" id="Shape" fill="#AFB8C9"></path>
                    <rect id="Rectangle-path" fill="#ECECEC" x="9.61897743" y="23.0855458" width="100.037365" height="61.5614556"></rect>
                    <rect id="Rectangle-path" fill="#B6C1CE" x="9.61897743" y="78.8756149" width="100.037365" height="5.77138646"></rect>
                    <polygon id="Shape" fill="#AFB8C9" points="23.0855458 63.4852511 30.7807278 75.028024 38.4759097 63.4852511"></polygon>
                    <path d="M38.4759097,19.2379549 L23.0855458,19.2379549 L23.0855458,9.61897743 C23.0855458,5.3693132 26.5310636,1.92379549 30.7807278,1.92379549 C35.030392,1.92379549 38.4759097,5.3693132 38.4759097,9.61897743 L38.4759097,19.2379549 Z" id="Shape" fill="#ECECEC"></path>
                    <polygon id="Shape" fill="#48C397" points="78.8756149 40.3997052 78.8756149 48.0948872 86.5707969 53.8662736 94.2659788 48.0948872 94.2659788 40.3997052 86.5707969 34.6283188"></polygon>
                    <polygon id="Shape" fill="#0FA196" points="86.5707969 53.8662736 94.2659788 48.0948872 94.2659788 40.3997052 86.5707969 34.6283188"></polygon>
                    <polygon id="Shape" fill="#FFBE00" points="63.4852511 40.3997052 63.4852511 48.0948872 71.180433 53.8662736 78.8756149 48.0948872 78.8756149 40.3997052 71.180433 34.6283188"></polygon>
                    <polygon id="Shape" fill="#FFBE00" points="71.180433 53.8662736 78.8756149 48.0948872 78.8756149 40.3997052 71.180433 34.6283188"></polygon>
                    <polygon id="Shape" fill="#FFBE00" points="55.7900691 53.8662736 55.7900691 61.5614556 63.4852511 67.332842 71.180433 61.5614556 71.180433 53.8662736 63.4852511 48.0948872"></polygon>
                    <polygon id="Shape" fill="#FFBE00" points="63.4852511 67.332842 71.180433 61.5614556 71.180433 53.8662736 63.4852511 48.0948872"></polygon>
                    <polygon id="Shape" fill="#FFBE00" points="71.180433 53.8662736 71.180433 61.5614556 78.8756149 67.332842 86.5707969 61.5614556 86.5707969 53.8662736 78.8756149 48.0948872"></polygon>
                    <polygon id="Shape" fill="#FFBE00" points="78.8756149 67.332842 86.5707969 61.5614556 86.5707969 53.8662736 78.8756149 48.0948872"></polygon>
                    <polygon id="Shape" fill="#FFBE00" points="86.5707969 53.8662736 86.5707969 61.5614556 94.2659788 67.332842 101.961161 61.5614556 101.961161 53.8662736 94.2659788 48.0948872"></polygon>
                    <polygon id="Shape" fill="#FFBE00" points="94.2659788 67.332842 101.961161 61.5614556 101.961161 53.8662736 94.2659788 48.0948872"></polygon>
                    <rect id="Rectangle-path" x="23.0855458" y="23.0855458" width="15.3903639" height="40.3997052"></rect>
                    <rect id="Rectangle-path" fill="#FFBE00" x="30.7807278" y="23.0855458" width="7.69518195" height="40.3997052"></rect>
                    <rect id="Rectangle-path" fill="#8C95A4" x="23.0855458" y="19.2379549" width="15.3903639" height="7.69518195"></rect>
                    <path d="M109.656343,13.4665684 L40.3997052,13.4665684 L40.3997052,9.61897743 C40.3997052,4.31507328 36.0846319,0 30.7807278,0 C25.4768236,0 21.1617504,4.31507328 21.1617504,9.61897743 L21.1617504,13.4665684 L9.61897743,13.4665684 C4.31507328,13.4665684 0,17.7816417 0,23.0855458 L0,84.6470014 C0,89.9509056 4.31507328,94.2659788 9.61897743,94.2659788 L21.1617504,94.2659788 L21.1617504,115.427729 L7.69518195,115.427729 L7.69518195,119.27532 L111.580138,119.27532 L111.580138,115.427729 L98.1135698,115.427729 L98.1135698,94.2659788 L109.656343,94.2659788 C114.960247,94.2659788 119.27532,89.9509056 119.27532,84.6470014 L119.27532,23.0855458 C119.27532,17.7816417 114.960247,13.4665684 109.656343,13.4665684 Z M36.5521142,61.5614556 L32.7045233,61.5614556 L32.7045233,36.5521142 L28.8569323,36.5521142 L28.8569323,61.5614556 L25.0093413,61.5614556 L25.0093413,28.8569323 L28.8569323,28.8569323 L28.8569323,32.7045233 L32.7045233,32.7045233 L32.7045233,28.8569323 L36.5521142,28.8569323 L36.5521142,61.5614556 Z M34.8822598,65.4090465 L30.7807278,71.5594207 L26.6791958,65.4090465 L34.8822598,65.4090465 Z M25.0093413,25.0093413 L25.0093413,21.1617504 L36.5521142,21.1617504 L36.5521142,25.0093413 L25.0093413,25.0093413 Z M30.7807278,78.4966272 L40.3997052,64.0681611 L40.3997052,25.0093413 L107.732547,25.0093413 L107.732547,82.7232059 L11.5427729,82.7232059 L11.5427729,25.0093413 L21.1617504,25.0093413 L21.1617504,64.0681611 L30.7807278,78.4966272 Z M30.7807278,3.84759097 C33.9626855,3.84759097 36.5521142,6.4370197 36.5521142,9.61897743 L36.5521142,17.3141594 L25.0093413,17.3141594 L25.0093413,9.61897743 C25.0093413,6.4370197 27.59877,3.84759097 30.7807278,3.84759097 Z M25.0093413,94.2659788 L32.7045233,94.2659788 L32.7045233,115.427729 L25.0093413,115.427729 L25.0093413,94.2659788 Z M82.7232059,94.2659788 L82.7232059,115.427729 L36.5521142,115.427729 L36.5521142,94.2659788 L82.7232059,94.2659788 Z M94.2659788,115.427729 L86.5707969,115.427729 L86.5707969,94.2659788 L94.2659788,94.2659788 L94.2659788,115.427729 Z M115.427729,84.6470014 C115.427729,87.8289591 112.8383,90.4183879 109.656343,90.4183879 L9.61897743,90.4183879 C6.4370197,90.4183879 3.84759097,87.8289591 3.84759097,84.6470014 L3.84759097,23.0855458 C3.84759097,19.9035881 6.4370197,17.3141594 9.61897743,17.3141594 L21.1617504,17.3141594 L21.1617504,21.1617504 L7.69518195,21.1617504 L7.69518195,86.5707969 L111.580138,86.5707969 L111.580138,21.1617504 L40.3997052,21.1617504 L40.3997052,17.3141594 L109.656343,17.3141594 C112.8383,17.3141594 115.427729,19.9035881 115.427729,23.0855458 L115.427729,84.6470014 Z" id="Shape" fill="#000000"></path>
                    <path d="M71.180433,63.9661999 L78.8756149,69.7375864 L86.5707969,63.9661999 L94.2659788,69.7375864 L103.884956,62.5233533 L103.884956,52.9043759 L96.1897743,47.1329894 L96.1897743,39.4378075 L86.5707969,32.2235744 L78.8756149,37.9949609 L71.180433,32.2235744 L61.5614556,39.4378075 L61.5614556,47.1329894 L53.8662736,52.9043759 L53.8662736,62.5233533 L63.4852511,69.7375864 L71.180433,63.9661999 Z M73.1042285,60.5995578 L73.1042285,54.8281714 L78.8756149,50.4996315 L84.6470014,54.8281714 L84.6470014,60.5995578 L78.8756149,64.9280977 L73.1042285,60.5995578 Z M100.037365,60.5995578 L94.2659788,64.9280977 L88.4945924,60.5995578 L88.4945924,54.8281714 L94.2659788,50.4996315 L100.037365,54.8281714 L100.037365,60.5995578 Z M92.3421833,41.361603 L92.3421833,47.1329894 L86.5707969,51.4615293 L80.7994104,47.1329894 L80.7994104,41.361603 L86.5707969,37.0330631 L92.3421833,41.361603 Z M65.4090465,41.361603 L71.180433,37.0330631 L76.9518195,41.361603 L76.9518195,47.1329894 L71.180433,51.4615293 L65.4090465,47.1329894 L65.4090465,41.361603 Z M57.7138646,54.8281714 L63.4852511,50.4996315 L69.2566375,54.8281714 L69.2566375,60.5995578 L63.4852511,64.9280977 L57.7138646,60.5995578 L57.7138646,54.8281714 Z" id="Shape" fill="#000000"></path>
                    <rect id="Rectangle-path" fill="#000000" x="0" y="115.427729" width="3.84759097" height="3.84759097"></rect>
                    <rect id="Rectangle-path" fill="#000000" x="115.427729" y="115.427729" width="3.84759097" height="3.84759097"></rect>
                    <rect id="Rectangle-path" fill="#000000" x="94.2659788" y="73.1042285" width="3.84759097" height="3.84759097"></rect>
                    <rect id="Rectangle-path" fill="#000000" x="82.7232059" y="73.1042285" width="3.84759097" height="3.84759097"></rect>
                    <rect id="Rectangle-path" fill="#000000" x="71.180433" y="73.1042285" width="3.84759097" height="3.84759097"></rect>
                    <rect id="Rectangle-path" fill="#000000" x="59.6376601" y="73.1042285" width="3.84759097" height="3.84759097"></rect>
                </g>
            </g>
        </g>
    </g>
</svg>