<?xml version="1.0" encoding="UTF-8"?>
<svg width="141px" height="55px" viewBox="0 0 141 55" version="1.1" xmlns="http://www.w3.org/2000/svg" xmlns:xlink="http://www.w3.org/1999/xlink">
    <!-- Generator: sketchtool 50.2 (55047) - http://www.bohemiancoding.com/sketch -->
    <title>6FDDF09B-8355-46D0-BF7B-1E4D986A679F</title>
    <desc>Created with sketchtool.</desc>
    <defs>
        <linearGradient x1="50%" y1="2.35473769%" x2="50%" y2="100%" id="linearGradient-1">
            <stop stop-color="#12A3FF" offset="0%"></stop>
            <stop stop-color="#3D68FF" offset="100%"></stop>
        </linearGradient>
        <linearGradient x1="68.6429521%" y1="0%" x2="68.6429501%" y2="100%" id="linearGradient-2">
            <stop stop-color="#FFBE00" offset="0%"></stop>
            <stop stop-color="#FF9F00" offset="100%"></stop>
        </linearGradient>
    </defs>
    <g id="Elements" stroke="none" stroke-width="1" fill="none" fill-rule="evenodd">
        <g id="Logos" transform="translate(-412.000000, -117.000000)">
            <g id="Logo-pix-orga" transform="translate(406.125000, 109.867188)">
                <path d="M93.4940002,37.157888 L93.4940002,34.0118879 C93.4940002,32.7138879 93.2520002,31.7898878 92.7900002,31.2398878 C92.3280002,30.6678878 91.3820002,30.3818878 89.9960002,30.3818878 C88.6100001,30.3818878 87.6640001,30.6678878 87.2020001,31.2398878 C86.7400001,31.7898878 86.4980001,32.7138879 86.4980001,34.0118879 L86.4980001,37.157888 C86.4980001,38.433888 86.7400001,39.357888 87.2020001,39.929888 C87.6640001,40.501888 88.6100001,40.787888 89.9960002,40.787888 C91.3820002,40.787888 92.3280002,40.501888 92.7900002,39.929888 C93.2520002,39.357888 93.4940002,38.433888 93.4940002,37.157888 Z M89.9960002,42.9658881 C87.8180001,42.9658881 86.3000001,42.4818881 85.4420001,41.4918881 C84.584,40.501888 84.166,39.049888 84.166,37.157888 L84.166,34.0118879 C84.166,32.1198879 84.584,30.6898878 85.4420001,29.6998878 C86.3000001,28.7098878 87.8180001,28.2038878 89.9960002,28.2038878 C92.1740002,28.2038878 93.6920002,28.7098878 94.5500003,29.6998878 C95.4080003,30.6898878 95.8260003,32.1198879 95.8260003,34.0118879 L95.8260003,37.157888 C95.8260003,39.049888 95.3860003,40.501888 94.5280002,41.4918881 C93.6700002,42.4818881 92.1740002,42.9658881 89.9960002,42.9658881 Z M112.634001,32.8238879 C112.634001,35.1778879 111.754001,36.585888 109.554001,37.047888 L112.590001,41.7338881 C113.096001,42.5038881 112.964001,42.7018881 112.062001,42.7018881 L111.688001,42.7018881 C110.786001,42.7018881 110.434001,42.5038881 109.928001,41.7338881 L107.046001,37.223888 L104.208,37.223888 L104.208,41.6898881 C104.208,42.5038881 104.01,42.7018881 103.196,42.7018881 L102.91,42.7018881 C102.096,42.7018881 101.898,42.5038881 101.898,41.6898881 L101.898,30.9098878 C101.898,29.1498878 102.646,28.4018878 104.406,28.4018878 L107.882001,28.4018878 C111.292001,28.4018878 112.634001,29.9418878 112.634001,32.8238879 Z M107.882001,30.5798878 L105.066,30.5798878 C104.494,30.5798878 104.208,30.8658878 104.208,31.4158878 L104.208,35.0458879 L107.882001,35.0458879 C109.730001,35.0458879 110.324001,34.3198879 110.324001,32.8238879 C110.324001,31.2618878 109.730001,30.5798878 107.882001,30.5798878 Z M126.846001,39.687888 L126.846001,35.6838879 C126.846001,34.8918879 127.044001,34.6938879 127.836001,34.6938879 L128.034001,34.6938879 C128.826001,34.6938879 129.024001,34.8918879 129.024001,35.6838879 L129.024001,39.709888 C129.024001,41.6458881 128.496001,42.5038881 126.758001,42.7898881 C126.142001,42.8998881 125.526001,42.9438881 124.888001,42.9438881 C120.290001,42.9438881 118.354001,41.3378881 118.354001,37.355888 L118.354001,33.8358879 C118.354001,30.2938878 120.378001,28.2038878 124.778001,28.2038878 C125.922001,28.2038878 126.978001,28.3798878 127.924001,28.7318878 C128.694001,29.0178878 128.782001,29.1278878 128.782001,29.8538878 L128.782001,30.1838878 C128.782001,30.9538878 128.606001,31.1518878 127.902001,30.9098878 C126.912001,30.5358878 125.878001,30.3598878 124.800001,30.3598878 C121.830001,30.3598878 120.730001,31.3718878 120.730001,33.9898879 L120.730001,37.509888 C120.730001,39.643888 121.764001,40.765888 124.866001,40.765888 C125.438001,40.765888 125.834001,40.743888 126.076001,40.699888 C126.582001,40.633888 126.846001,40.281888 126.846001,39.687888 Z M144.072001,31.8998879 L146.778001,41.7338881 C146.976001,42.5038881 146.844001,42.7018881 146.030001,42.7018881 L145.722001,42.7018881 C144.908001,42.7018881 144.688001,42.5038881 144.446001,41.7338881 L143.632001,38.741888 L137.450001,38.741888 L136.636001,41.7338881 C136.394001,42.5038881 136.174001,42.7018881 135.360001,42.7018881 L135.052001,42.7018881 C134.238001,42.7018881 134.106001,42.5038881 134.304001,41.7338881 L137.010001,31.8998879 C137.406001,30.4698878 137.824001,29.5018878 138.264001,28.9958878 C138.726001,28.4678878 139.474001,28.2038878 140.552001,28.2038878 C141.630001,28.2038878 142.378001,28.4678878 142.818001,28.9958878 C143.258001,29.5018878 143.676001,30.4698878 144.072001,31.8998879 Z M139.298001,31.8558879 L138.000001,36.651888 L143.082001,36.651888 L141.784001,31.8558879 C141.432001,30.5578878 141.256001,30.2718878 140.552001,30.2718878 C139.848001,30.2718878 139.650001,30.5578878 139.298001,31.8558879 Z" id="ORGA" fill="#FFBE00"></path>
                <g id="logos--pix/couleur">
                    <g id="Group-2" transform="translate(5.890700, 7.569035)">
                        <g id="Group" transform="translate(43.660486, 13.025782)">
                            <path d="M24.9655112,29.4606355 C27.4367517,29.4606355 27.5074512,29.1031096 26.0246442,27.172724 L17.5515807,16.6624587 C16.9161218,15.8760288 16.5630427,15.2324611 16.5630427,14.7319672 C16.5630427,14.1599893 16.9161218,13.5165275 17.5515807,12.8015816 L26.0246442,2.29131624 C27.5074512,0.360930654 27.4367517,0.00340477465 24.9655112,0.00340477465 L24.1181631,0.00340477465 C21.6469226,0.00340477465 20.7289795,0.503898645 19.2461725,2.29131624 L12.750185,10.2991123 C9.99635571,13.5165275 9.99635571,15.9475128 12.750185,19.164928 L19.2461725,27.172724 C20.7289795,28.9601416 21.6469226,29.4606355 24.1181631,29.4606355 L24.9655112,29.4606355 Z" id="Page-1" fill="url(#linearGradient-1)"></path>
                            <path d="M14.5069223,29.4606355 C16.9781627,29.4606355 17.0488622,29.1031096 15.5660552,27.172724 L7.09299172,16.6624587 C6.45753288,15.8760288 6.1044537,15.2324611 6.1044537,14.7319672 C6.1044537,14.1599893 6.45753288,13.5165275 7.09299172,12.8015816 L15.5660552,2.29131624 C17.0488622,0.360930654 16.9781627,0.00340477465 14.5069223,0.00340477465 L13.6595741,0.00340477465 C11.1883336,0.00340477465 10.2703905,0.503898645 8.7875835,2.29131624 L2.29159605,10.2991123 C-0.462233252,13.5165275 -0.462233252,15.9475128 2.29159605,19.164928 L8.7875835,27.172724 C10.2703905,28.9601416 11.1883336,29.4606355 13.6595741,29.4606355 L14.5069223,29.4606355 Z" id="Page-1" fill="url(#linearGradient-2)" transform="translate(8.388031, 14.732020) scale(-1, 1) translate(-8.388031, -14.732020) "></path>
                        </g>
                        <path d="M0,51.6523658 C0,53.787041 0.527031324,54.3207098 2.63515662,54.3207098 L3.33779753,54.3207098 C5.44592283,54.3207098 5.97295415,53.787041 5.97295415,51.6523658 L5.97295415,39.2595386 C7.55404813,41.8092325 10.4234521,43.1137676 14.5810649,43.1137676 C22.7206809,43.1137676 26.7612206,38.7851435 26.7612206,30.1872716 L26.7612206,25.0285074 C26.7612206,16.430533 22.427897,12.3984827 13.3512914,12.3984827 C4.91889151,12.3984827 0,16.549183 0,25.0285074 L0,51.6523658 Z M20.7297299,30.3058191 C20.7297299,35.2866595 19.0900994,37.3620609 13.4099292,37.3620609 C7.61258466,37.3620609 5.97295415,35.2273857 5.97295415,30.3058191 L5.97295415,25.2063287 C5.97295415,20.2254883 7.72975899,18.0908131 13.4099292,18.0908131 C19.2071725,18.0908131 20.7297299,20.2254883 20.7297299,25.2063287 L20.7297299,30.3058191 Z" id="Fill-1" fill="url(#linearGradient-1)"></path>
                        <path d="M32.3939115,39.7468163 C32.3939115,41.8814915 32.9209428,42.4151603 35.0290681,42.4151603 L35.7902456,42.4151603 C37.8983709,42.4151603 38.4254022,41.8814915 38.4254022,39.7468163 L38.4254022,15.6726519 C38.4254022,13.5379767 37.8983709,13.0043079 35.7902456,13.0043079 L35.0290681,13.0043079 C32.9209428,13.0043079 32.3939115,13.5379767 32.3939115,15.6726519 L32.3939115,39.7468163 Z M32.8037685,6.60038487 C34.2677894,8.02346748 36.6100608,8.02346748 38.0155452,6.60038487 C39.4794648,5.11792597 39.4794648,2.74615581 38.0155452,1.32307321 C36.6100608,-0.159385693 34.2677894,-0.159385693 32.8037685,1.32307321 C31.3398489,2.74615581 31.3398489,5.11792597 32.8037685,6.60038487 L32.8037685,6.60038487 Z" id="Fill-2" fill="url(#linearGradient-1)"></path>
                    </g>
                </g>
            </g>
        </g>
    </g>
</svg>