<?xml version="1.0" encoding="UTF-8"?>
<svg width="101px" height="79px" viewBox="0 0 101 79" version="1.1" xmlns="http://www.w3.org/2000/svg" xmlns:xlink="http://www.w3.org/1999/xlink">
    <!-- Generator: sketchtool 49.3 (51167) - http://www.bohemiancoding.com/sketch -->
    <title>D563374D-4FB3-40D0-96D1-8C7D11ECD459</title>
    <desc>Created with sketchtool.</desc>
    <defs>
        <linearGradient x1="50%" y1="2.35473769%" x2="50%" y2="100%" id="linearGradient-1">
            <stop stop-color="#12A3FF" offset="0%"></stop>
            <stop stop-color="#3D68FF" offset="100%"></stop>
        </linearGradient>
        <linearGradient x1="68.6429521%" y1="0%" x2="68.6429501%" y2="100%" id="linearGradient-2">
            <stop stop-color="#FFBE00" offset="0%"></stop>
            <stop stop-color="#FF9F00" offset="100%"></stop>
        </linearGradient>
    </defs>
    <g id="RESET-PASS-Flow" stroke="none" stroke-width="1" fill="none" fill-rule="evenodd">
        <g id="pass--saisie" transform="translate(-666.000000, -306.000000)">
            <g id="zone-register" transform="translate(415.000000, 250.000000)">
                <g id="PIX-logo" transform="translate(251.500000, 56.000000)">
                    <g id="pix-logo">
                        <g id="Group" transform="translate(61.615418, 19.408056)">
                            <path d="M35.3254351,40.3912986 C38.7983963,40.3912986 38.8977539,39.9012489 36.813889,37.2553288 L24.9062574,22.8492315 C24.0132144,21.7712963 23.5170141,20.8891778 23.5170141,20.2031663 C23.5170141,19.4191738 24.0132144,18.5372004 24.9062574,17.5572462 L36.813889,3.1511489 C38.8977539,0.505228798 38.7983963,0.0151790797 35.3254351,0.0151790797 L34.1346131,0.0151790797 C30.6616519,0.0151790797 29.3716192,0.701190623 27.2877543,3.1511489 L18.1586093,14.1271884 C14.2885114,18.5372004 14.2885114,21.8692772 18.1586093,26.2792892 L27.2877543,37.2553288 C29.3716192,39.7052871 30.6616519,40.3912986 34.1346131,40.3912986 L35.3254351,40.3912986 Z" id="Page-1" fill="url(#linearGradient-1)"></path>
                            <path d="M20.6274424,40.3912986 C24.1004037,40.3912986 24.1997613,39.9012489 22.1158964,37.2553288 L10.2082647,22.8492315 C9.31522177,21.7712963 8.81902146,20.8891778 8.81902146,20.2031663 C8.81902146,19.4191738 9.31522177,18.5372004 10.2082647,17.5572462 L22.1158964,3.1511489 C24.1997613,0.505228798 24.1004037,0.0151790797 20.6274424,0.0151790797 L19.4366205,0.0151790797 C15.9636592,0.0151790797 14.6736266,0.701190623 12.5897617,3.1511489 L3.46061662,14.1271884 C-0.409481239,18.5372004 -0.409481239,21.8692772 3.46061662,26.2792892 L12.5897617,37.2553288 C14.6736266,39.7052871 15.9636592,40.3912986 19.4366205,40.3912986 L20.6274424,40.3912986 Z" id="Page-1" fill="url(#linearGradient-2)" transform="translate(12.028251, 20.203239) scale(-1, 1) translate(-12.028251, -20.203239) "></path>
                        </g>
                        <path d="M0,74.6077472 C0,77.6293333 0.764877493,78.3847299 3.82438747,78.3847299 L4.84412614,78.3847299 C7.90363611,78.3847299 8.6685136,77.6293333 8.6685136,74.6077472 L8.6685136,57.0659704 C10.9631461,60.6750066 15.1274954,62.5215476 21.1614147,62.5215476 C32.974392,62.5215476 38.8384038,56.3944745 38.8384038,44.2243743 L38.8384038,36.9222561 C38.8384038,24.7520107 32.5494764,19.0447314 19.3766515,19.0447314 C7.13875862,19.0447314 0,24.9199572 0,36.9222561 L0,74.6077472 Z M30.0849364,44.3921757 C30.0849364,51.4424467 27.7053502,54.3801321 19.4617522,54.3801321 C11.0480998,54.3801321 8.6685136,51.358546 8.6685136,44.3921757 L8.6685136,37.1739581 C8.6685136,30.1236872 11.2181542,27.102101 19.4617522,27.102101 C27.8752577,27.102101 30.0849364,30.1236872 30.0849364,37.1739581 L30.0849364,44.3921757 Z" id="Fill-1" fill="url(#linearGradient-1)"></path>
                        <path d="M46.2896692,56.4820042 C46.2896692,59.5035903 47.0545467,60.2589869 50.1140567,60.2589869 L51.2187491,60.2589869 C54.2782591,60.2589869 55.0431366,59.5035903 55.0431366,56.4820042 L55.0431366,22.4055493 C55.0431366,19.3839631 54.2782591,18.6285665 51.2187491,18.6285665 L50.1140567,18.6285665 C47.0545467,18.6285665 46.2896692,19.3839631 46.2896692,22.4055493 L46.2896692,56.4820042 Z M46.8844923,9.56395314 C49.0092173,11.5782955 52.4085422,11.5782955 54.4483135,9.56395314 C56.5728916,7.46556489 56.5728916,4.10837594 54.4483135,2.09403354 C52.4085422,-0.00435470722 49.0092173,-0.00435470722 46.8844923,2.09403354 C44.7599143,4.10837594 44.7599143,7.46556489 46.8844923,9.56395314 L46.8844923,9.56395314 Z" id="Fill-2" fill="url(#linearGradient-1)"></path>
                    </g>
                </g>
            </g>
        </g>
    </g>
</svg>