<?xml version="1.0" encoding="UTF-8"?>
<svg width="199px" height="158px" viewBox="0 0 199 158" version="1.1" xmlns="http://www.w3.org/2000/svg" xmlns:xlink="http://www.w3.org/1999/xlink">
    <!-- Generator: sketchtool 49.3 (51167) - http://www.bohemiancoding.com/sketch -->
    <title>808AF018-3823-4931-A51C-3824A4301829</title>
    <desc>Created with sketchtool.</desc>
    <defs></defs>
    <g id="Logos" stroke="none" stroke-width="1" fill="none" fill-rule="evenodd">
        <g transform="translate(-749.000000, -165.000000)" fill="#FFFFFF" id="logos-pix/blanc">
            <g transform="translate(728.810978, 145.082259)">
                <path d="M183.316097,116.272116 L187.239363,111.511846 C189.613298,108.781896 191.254932,106.257785 192.164267,103.81252 C192.366333,104.078016 192.581904,104.350028 192.810558,104.628555 L216.488934,133.538088 C220.632709,138.847806 220.435136,139.831216 213.529137,139.831216 L211.161183,139.831216 C204.255184,139.831216 201.689949,138.454558 197.546175,133.538088 L183.316097,116.272116 Z M183.316097,82.3652663 L197.546175,65.0992943 C201.689949,60.182824 204.255184,58.8061657 211.161183,58.8061657 L213.529137,58.8061657 C220.435136,58.8061657 220.632709,59.7895762 216.488934,65.0992943 L192.810558,94.0088273 C192.575489,94.2691408 192.354248,94.5260089 192.147292,94.7794318 C191.234575,92.3483323 189.598599,89.8385831 187.239363,87.1255358 L183.316097,82.3652663 Z M150.103057,139.831216 C143.197058,139.831216 142.999485,138.847806 147.14326,133.538088 L170.821636,104.628555 C172.597456,102.465401 173.584152,100.695204 173.584152,99.3185453 C173.584152,97.7452632 172.597456,95.9753572 170.821636,94.0088273 L147.14326,65.0992943 C142.999485,59.7895762 143.197058,58.8061657 150.103057,58.8061657 L152.471011,58.8061657 C159.377009,58.8061657 161.942245,60.182824 166.086019,65.0992943 L184.239363,87.1255358 C191.935069,95.9753572 191.935069,102.662025 184.239363,111.511846 L166.086019,133.538088 C161.942245,138.454558 159.377009,139.831216 152.471011,139.831216 L150.103057,139.831216 Z M20.7618359,169.548058 L20.7618359,93.9224438 C20.7618359,69.8367494 34.957288,58.0466003 59.2923904,58.0466003 C85.486609,58.0466003 97.9921681,69.4997215 97.9921681,93.9224438 L97.9921681,108.576019 C97.9921681,132.99845 86.3315555,145.293995 62.8413996,145.293995 C50.8429253,145.293995 42.5620988,141.588436 37.9992123,134.345979 L37.9992123,169.548058 C37.9992123,175.611646 36.4782501,177.127543 30.3944015,177.127543 L28.3666468,177.127543 C22.2827981,177.127543 20.7618359,175.611646 20.7618359,169.548058 Z M80.5858608,108.912755 L80.5858608,94.4275486 C80.5858608,80.2793697 76.1919051,74.2157812 59.4616135,74.2157812 C43.0691836,74.2157812 37.9992123,80.2793697 37.9992123,94.4275486 L37.9992123,108.912755 C37.9992123,122.892566 42.7310297,128.956155 59.4616135,128.956155 C75.8540434,128.956155 80.5858608,123.060934 80.5858608,108.912755 Z M112.809041,133.1741 L112.809041,64.7909443 C112.809041,58.7273558 114.330004,57.2114587 120.413852,57.2114587 L122.610538,57.2114587 C128.694386,57.2114587 130.215349,58.7273558 130.215349,64.7909443 L130.215349,133.1741 C130.215349,139.237689 128.694386,140.753586 122.610538,140.753586 L120.413852,140.753586 C114.330004,140.753586 112.809041,139.237689 112.809041,133.1741 Z M113.99185,39.0209845 C109.767117,34.8100297 109.767117,28.0729681 113.99185,24.0306729 C118.216874,19.8197181 124.976446,19.8197181 129.03254,24.0306729 C133.257273,28.0729681 133.257273,34.8100297 129.03254,39.0209845 C124.976446,43.0632797 118.216874,43.0632797 113.99185,39.0209845 Z" id="Combined-Shape"></path>
            </g>
        </g>
    </g>
</svg>