<?xml version="1.0" encoding="UTF-8"?>
<svg width="142px" height="55px" viewBox="0 0 142 55" version="1.1" xmlns="http://www.w3.org/2000/svg" xmlns:xlink="http://www.w3.org/1999/xlink">
    <!-- Generator: sketchtool 52.2 (67145) - http://www.bohemiancoding.com/sketch -->
    <title>9871468B-B41C-4C4E-B574-C9CBE6715317</title>
    <desc>Created with sketchtool.</desc>
    <defs>
        <linearGradient x1="50%" y1="2.35473769%" x2="50%" y2="100%" id="linearGradient-1">
            <stop stop-color="#12A3FF" offset="0%"></stop>
            <stop stop-color="#3D68FF" offset="100%"></stop>
        </linearGradient>
        <linearGradient x1="68.6429521%" y1="0%" x2="68.6429501%" y2="100%" id="linearGradient-2">
            <stop stop-color="#FFBE00" offset="0%"></stop>
            <stop stop-color="#FF9F00" offset="100%"></stop>
        </linearGradient>
    </defs>
    <g id="Elements" stroke="none" stroke-width="1" fill="none" fill-rule="evenodd">
        <g id="Logos" transform="translate(-411.000000, -187.000000)">
            <g id="logo-orga" transform="translate(406.000000, 180.000000)">
                <path d="M93.4940002,29.4559999 L93.4940002,26.3099998 C93.4940002,25.0119998 93.2520002,24.0879998 92.7900002,23.5379998 C92.3280002,22.9659997 91.3820002,22.6799997 89.9960002,22.6799997 C88.6100001,22.6799997 87.6640001,22.9659997 87.2020001,23.5379998 C86.7400001,24.0879998 86.4980001,25.0119998 86.4980001,26.3099998 L86.4980001,29.4559999 C86.4980001,30.7319999 86.7400001,31.6559999 87.2020001,32.2279999 C87.6640001,32.8 88.6100001,33.086 89.9960002,33.086 C91.3820002,33.086 92.3280002,32.8 92.7900002,32.2279999 C93.2520002,31.6559999 93.4940002,30.7319999 93.4940002,29.4559999 Z M89.9960002,35.264 C87.8180001,35.264 86.3000001,34.78 85.4420001,33.79 C84.584,32.8 84.166,31.3479999 84.166,29.4559999 L84.166,26.3099998 C84.166,24.4179998 84.584,22.9879997 85.4420001,21.9979997 C86.3000001,21.0079997 87.8180001,20.5019997 89.9960002,20.5019997 C92.1740002,20.5019997 93.6920002,21.0079997 94.5500003,21.9979997 C95.4080003,22.9879997 95.8260003,24.4179998 95.8260003,26.3099998 L95.8260003,29.4559999 C95.8260003,31.3479999 95.3860003,32.8 94.5280002,33.79 C93.6700002,34.78 92.1740002,35.264 89.9960002,35.264 Z M112.634001,25.1219998 C112.634001,27.4759998 111.754001,28.8839999 109.554001,29.3459999 L112.590001,34.032 C113.096001,34.802 112.964001,35 112.062001,35 L111.688001,35 C110.786001,35 110.434001,34.802 109.928001,34.032 L107.046001,29.5219999 L104.208001,29.5219999 L104.208001,33.988 C104.208001,34.802 104.010001,35 103.196001,35 L102.910001,35 C102.096001,35 101.898001,34.802 101.898001,33.988 L101.898001,23.2079997 C101.898001,21.4479997 102.646001,20.6999997 104.406001,20.6999997 L107.882001,20.6999997 C111.292001,20.6999997 112.634001,22.2399997 112.634001,25.1219998 Z M107.882001,22.8779997 L105.066001,22.8779997 C104.494001,22.8779997 104.208001,23.1639997 104.208001,23.7139998 L104.208001,27.3439998 L107.882001,27.3439998 C109.730001,27.3439998 110.324001,26.6179998 110.324001,25.1219998 C110.324001,23.5599998 109.730001,22.8779997 107.882001,22.8779997 Z M126.846001,31.9859999 L126.846001,27.9819998 C126.846001,27.1899998 127.044001,26.9919998 127.836001,26.9919998 L128.034001,26.9919998 C128.826001,26.9919998 129.024001,27.1899998 129.024001,27.9819998 L129.024001,32.0079999 C129.024001,33.944 128.496001,34.802 126.758001,35.088 C126.142001,35.198 125.526001,35.242 124.888001,35.242 C120.290001,35.242 118.354001,33.636 118.354001,29.6539999 L118.354001,26.1339998 C118.354001,22.5919997 120.378001,20.5019997 124.778001,20.5019997 C125.922001,20.5019997 126.978001,20.6779997 127.924001,21.0299997 C128.694001,21.3159997 128.782001,21.4259997 128.782001,22.1519997 L128.782001,22.4819997 C128.782001,23.2519997 128.606001,23.4499997 127.902001,23.2079997 C126.912001,22.8339997 125.878001,22.6579997 124.800001,22.6579997 C121.830001,22.6579997 120.730001,23.6699998 120.730001,26.2879998 L120.730001,29.8079999 C120.730001,31.9419999 121.764001,33.064 124.866001,33.064 C125.438001,33.064 125.834001,33.042 126.076001,32.998 C126.582001,32.932 126.846001,32.5799999 126.846001,31.9859999 Z M144.072002,24.1979998 L146.778002,34.032 C146.976002,34.802 146.844002,35 146.030002,35 L145.722002,35 C144.908002,35 144.688002,34.802 144.446002,34.032 L143.632002,31.0399999 L137.450002,31.0399999 L136.636002,34.032 C136.394002,34.802 136.174002,35 135.360001,35 L135.052001,35 C134.238001,35 134.106001,34.802 134.304001,34.032 L137.010002,24.1979998 C137.406002,22.7679997 137.824002,21.7999997 138.264002,21.2939997 C138.726002,20.7659997 139.474002,20.5019997 140.552002,20.5019997 C141.630002,20.5019997 142.378002,20.7659997 142.818002,21.2939997 C143.258002,21.7999997 143.676002,22.7679997 144.072002,24.1979998 Z M139.298002,24.1539998 L138.000002,28.9499999 L143.082002,28.9499999 L141.784002,24.1539998 C141.432002,22.8559997 141.256002,22.5699997 140.552002,22.5699997 C139.848002,22.5699997 139.650002,22.8559997 139.298002,24.1539998 Z" id="ORGA" fill="#FFBE00"></path>
                <path d="M85.562,40.9 L87.144,40.9 C89.328,40.9 90.14,41.698 90.14,43.266 C90.14,44.484 89.706,45.1 88.46,45.282 L88.46,45.338 C89.93,45.492 90.42,46.206 90.42,47.494 C90.42,49.132 89.622,50 87.396,50 L85.562,50 C84.54,50 84.106,49.566 84.106,48.544 L84.106,42.356 C84.106,41.334 84.54,40.9 85.562,40.9 Z M87.396,45.702 L84.876,45.702 L84.876,48.516 C84.876,49.034 85.114,49.272 85.632,49.272 L87.326,49.272 C89.076,49.272 89.636,48.74 89.636,47.494 C89.636,46.248 89.118,45.702 87.396,45.702 Z M87.144,41.628 L85.632,41.628 C85.114,41.628 84.876,41.866 84.876,42.384 L84.876,44.988 L87.144,44.988 C88.824,44.988 89.356,44.47 89.356,43.308 C89.356,42.146 88.824,41.628 87.144,41.628 Z M99.1419999,45.59 L95.1519999,45.59 L95.1519999,48.516 C95.1519999,49.034 95.3899999,49.272 95.9079999,49.272 L99.7019999,49.272 C99.9679999,49.272 100.038,49.342 100.038,49.608 L100.038,49.664 C100.038,49.93 99.9679999,50 99.7019999,50 L95.8379999,50 C94.8159999,50 94.3819999,49.566 94.3819999,48.544 L94.3819999,42.356 C94.3819999,41.334 94.8159999,40.9 95.8379999,40.9 L99.7019999,40.9 C99.9679999,40.9 100.038,40.97 100.038,41.236 L100.038,41.292 C100.038,41.558 99.9679999,41.628 99.7019999,41.628 L95.9079999,41.628 C95.3899999,41.628 95.1519999,41.866 95.1519999,42.384 L95.1519999,44.862 L99.1419999,44.862 C99.4079999,44.862 99.4779999,44.932 99.4779999,45.198 L99.4779999,45.254 C99.4779999,45.52 99.4079999,45.59 99.1419999,45.59 Z M103.146,41.292 L103.146,41.236 C103.146,40.97 103.216,40.9 103.482,40.9 L109.628,40.9 C109.894,40.9 109.964,40.97 109.964,41.236 L109.964,41.292 C109.964,41.558 109.894,41.628 109.628,41.628 L106.94,41.628 L106.94,49.664 C106.94,49.93 106.87,50 106.604,50 L106.506,50 C106.24,50 106.17,49.93 106.17,49.664 L106.17,41.628 L103.482,41.628 C103.216,41.628 103.146,41.558 103.146,41.292 Z M117.216,42.594 L119.218,49.65 C119.288,49.93 119.246,50 118.952,50 L118.896,50 C118.602,50 118.532,49.93 118.434,49.65 L117.664,46.934 L113.296,46.934 L112.526,49.65 C112.428,49.93 112.358,50 112.064,50 L112.008,50 C111.714,50 111.672,49.93 111.742,49.65 L113.744,42.594 C113.954,41.88 114.164,41.39 114.388,41.152 C114.626,40.914 114.99,40.788 115.48,40.788 C115.97,40.788 116.334,40.914 116.558,41.152 C116.796,41.39 117.006,41.88 117.216,42.594 Z M114.57,42.384 L113.492,46.22 L117.468,46.22 L116.39,42.384 C116.18,41.67 115.97,41.474 115.48,41.474 C114.99,41.474 114.78,41.67 114.57,42.384 Z" id="beta" fill="#FFFFFF"></path>
                <g id="logos--pix/couleur" transform="translate(0.000000, 0.000000)">
                    <g id="Group-2" transform="translate(5.890700, 7.569035)">
                        <g id="Group" transform="translate(43.660486, 13.025782)">
                            <path d="M24.9655112,29.4606355 C27.4367517,29.4606355 27.5074512,29.1031096 26.0246442,27.172724 L17.5515807,16.6624587 C16.9161218,15.8760288 16.5630427,15.2324611 16.5630427,14.7319672 C16.5630427,14.1599893 16.9161218,13.5165275 17.5515807,12.8015816 L26.0246442,2.29131624 C27.5074512,0.360930654 27.4367517,0.00340477465 24.9655112,0.00340477465 L24.1181631,0.00340477465 C21.6469226,0.00340477465 20.7289795,0.503898645 19.2461725,2.29131624 L12.750185,10.2991123 C9.99635571,13.5165275 9.99635571,15.9475128 12.750185,19.164928 L19.2461725,27.172724 C20.7289795,28.9601416 21.6469226,29.4606355 24.1181631,29.4606355 L24.9655112,29.4606355 Z" id="Page-1" fill="url(#linearGradient-1)"></path>
                            <path d="M14.5069223,29.4606355 C16.9781627,29.4606355 17.0488622,29.1031096 15.5660552,27.172724 L7.09299172,16.6624587 C6.45753288,15.8760288 6.1044537,15.2324611 6.1044537,14.7319672 C6.1044537,14.1599893 6.45753288,13.5165275 7.09299172,12.8015816 L15.5660552,2.29131624 C17.0488622,0.360930654 16.9781627,0.00340477465 14.5069223,0.00340477465 L13.6595741,0.00340477465 C11.1883336,0.00340477465 10.2703905,0.503898645 8.7875835,2.29131624 L2.29159605,10.2991123 C-0.462233252,13.5165275 -0.462233252,15.9475128 2.29159605,19.164928 L8.7875835,27.172724 C10.2703905,28.9601416 11.1883336,29.4606355 13.6595741,29.4606355 L14.5069223,29.4606355 Z" id="Page-1" fill="url(#linearGradient-2)" transform="translate(8.388031, 14.732020) scale(-1, 1) translate(-8.388031, -14.732020) "></path>
                        </g>
                        <path d="M0,51.6523658 C0,53.787041 0.527031324,54.3207098 2.63515662,54.3207098 L3.33779753,54.3207098 C5.44592283,54.3207098 5.97295415,53.787041 5.97295415,51.6523658 L5.97295415,39.2595386 C7.55404813,41.8092325 10.4234521,43.1137676 14.5810649,43.1137676 C22.7206809,43.1137676 26.7612206,38.7851435 26.7612206,30.1872716 L26.7612206,25.0285074 C26.7612206,16.430533 22.427897,12.3984827 13.3512914,12.3984827 C4.91889151,12.3984827 0,16.549183 0,25.0285074 L0,51.6523658 Z M20.7297299,30.3058191 C20.7297299,35.2866595 19.0900994,37.3620609 13.4099292,37.3620609 C7.61258466,37.3620609 5.97295415,35.2273857 5.97295415,30.3058191 L5.97295415,25.2063287 C5.97295415,20.2254883 7.72975899,18.0908131 13.4099292,18.0908131 C19.2071725,18.0908131 20.7297299,20.2254883 20.7297299,25.2063287 L20.7297299,30.3058191 Z" id="Fill-1" fill="url(#linearGradient-1)"></path>
                        <path d="M32.3939115,39.7468163 C32.3939115,41.8814915 32.9209428,42.4151603 35.0290681,42.4151603 L35.7902456,42.4151603 C37.8983709,42.4151603 38.4254022,41.8814915 38.4254022,39.7468163 L38.4254022,15.6726519 C38.4254022,13.5379767 37.8983709,13.0043079 35.7902456,13.0043079 L35.0290681,13.0043079 C32.9209428,13.0043079 32.3939115,13.5379767 32.3939115,15.6726519 L32.3939115,39.7468163 Z M32.8037685,6.60038487 C34.2677894,8.02346748 36.6100608,8.02346748 38.0155452,6.60038487 C39.4794648,5.11792597 39.4794648,2.74615581 38.0155452,1.32307321 C36.6100608,-0.159385693 34.2677894,-0.159385693 32.8037685,1.32307321 C31.3398489,2.74615581 31.3398489,5.11792597 32.8037685,6.60038487 L32.8037685,6.60038487 Z" id="Fill-2" fill="url(#linearGradient-1)"></path>
                    </g>
                </g>
            </g>
        </g>
    </g>
</svg>