<?xml version="1.0" encoding="UTF-8"?>
<svg width="215px" height="78px" viewBox="0 0 215 78" version="1.1" xmlns="http://www.w3.org/2000/svg" xmlns:xlink="http://www.w3.org/1999/xlink">
    <!-- Generator: Sketch 58 (84663) - https://sketch.com -->
    <title>6. logos/pix-orga</title>
    <desc>Created with Sketch.</desc>
    <defs>
        <linearGradient x1="0%" y1="42.3595041%" x2="100%" y2="57.6404959%" id="linearGradient-1">
            <stop stop-color="#69F1FF" offset="0%"></stop>
            <stop stop-color="#05A8D6" offset="100%"></stop>
        </linearGradient>
        <linearGradient x1="-1.11022302e-14%" y1="42.3158755%" x2="100%" y2="57.6841245%" id="linearGradient-2">
            <stop stop-color="#00DDFF" offset="0%"></stop>
            <stop stop-color="#0095C0" offset="100%"></stop>
        </linearGradient>
        <path d="M90.0290002,0 C93.6473432,0 94.989838,0.730834137 97.1595652,3.33799421 L106.665707,15.0287488 C110.694469,19.7260427 110.694469,23.2752531 106.665707,27.9673638 L97.1595652,39.6594142 C94.989838,42.2678701 93.6473432,43 90.0290002,43 L87.0085288,43 L86.5124741,43 L21,43 L19.6582785,43 C16.1495823,43 14.7808939,42.3115693 12.7227689,39.8914094 L12.5277135,39.6594142 L3.02157212,27.9673638 C-0.933940474,23.3605642 -1.00585888,19.8554827 2.80581689,15.28384 L3.02157212,15.0287488 L12.5277135,3.33799421 C14.6316915,0.809838988 15.9578126,0.0460159587 19.3355215,0.00204519218 L19.6582785,0 L23.1748047,0 L87.0085288,7.10542736e-15 L90.0290002,0 Z" id="path-3"></path>
        <linearGradient x1="50%" y1="0%" x2="50%" y2="100%" id="linearGradient-5">
            <stop stop-color="#12A3FF" offset="0%"></stop>
            <stop stop-color="#3D68FF" offset="100%"></stop>
        </linearGradient>
        <linearGradient x1="34.1515434%" y1="1.72254642e-14%" x2="65.8484566%" y2="100%" id="linearGradient-6">
            <stop stop-color="#00DDFF" offset="0%"></stop>
            <stop stop-color="#0095C0" offset="100%"></stop>
        </linearGradient>
        <linearGradient x1="50%" y1="0%" x2="50%" y2="73.0493975%" id="linearGradient-7">
            <stop stop-color="#12A3FF" offset="0%"></stop>
            <stop stop-color="#3D68FF" offset="100%"></stop>
        </linearGradient>
        <linearGradient x1="50%" y1="28.3619163%" x2="50%" y2="100%" id="linearGradient-8">
            <stop stop-color="#12A3FF" offset="0%"></stop>
            <stop stop-color="#3D68FF" offset="100%"></stop>
        </linearGradient>
    </defs>
    <g id="6.-logos/pix-orga" stroke="none" stroke-width="1" fill="none" fill-rule="evenodd">
        <g id="Group-2">
            <g id="cartouche" transform="translate(104.303356, 18.750000)">
                <mask id="mask-4" fill="white">
                    <use xlink:href="#path-3"></use>
                </mask>
                <use id="mask" fill="url(#linearGradient-2)" xlink:href="#path-3"></use>
                <path d="M35.636,22.952 C35.636,24.344 35.372,25.352 34.868,25.976 C34.364,26.6 33.332,26.912 31.82,26.912 C30.308,26.912 29.276,26.6 28.772,25.976 C28.268,25.352 28.004,24.344 28.004,22.952 L28.004,19.52 C28.004,18.104 28.268,17.096 28.772,16.496 C29.276,15.872 30.308,15.56 31.82,15.56 C33.332,15.56 34.364,15.872 34.868,16.496 C35.372,17.096 35.636,18.104 35.636,19.52 L35.636,22.952 Z M31.82,29.288 C34.196,29.288 35.828,28.76 36.764,27.68 C37.7,26.6 38.18,25.016 38.18,22.952 L38.18,19.52 C38.18,17.456 37.724,15.896 36.788,14.816 C35.852,13.736 34.196,13.184 31.82,13.184 C29.444,13.184 27.788,13.736 26.852,14.816 C25.916,15.896 25.46,17.456 25.46,19.52 L25.46,22.952 C25.46,25.016 25.916,26.6 26.852,27.68 C27.788,28.76 29.444,29.288 31.82,29.288 Z M53.216,18.224 C53.216,15.08 51.752,13.4 48.032,13.4 L44.24,13.4 C42.32,13.4 41.504,14.216 41.504,16.136 L41.504,27.896 C41.504,28.784 41.72,29 42.608,29 L42.92,29 C43.808,29 44.024,28.784 44.024,27.896 L44.024,23.024 L47.12,23.024 L50.264,27.944 C50.816,28.784 51.2,29 52.184,29 L52.592,29 L52.8396454,28.9943381 C53.5964298,28.9555702 53.6698182,28.7076364 53.168,27.944 L49.856,22.832 C52.256,22.328 53.216,20.792 53.216,18.224 Z M48.032,15.776 C50.048,15.776 50.696,16.52 50.696,18.224 C50.696,19.856 50.048,20.648 48.032,20.648 L44.024,20.648 L44.024,16.688 C44.024,16.088 44.336,15.776 44.96,15.776 L48.032,15.776 Z M65.42,25.712 C65.42,26.36 65.132,26.744 64.58,26.816 C64.316,26.864 63.884,26.888 63.26,26.888 C59.876,26.888 58.748,25.664 58.748,23.336 L58.748,19.496 C58.748,16.64 59.948,15.536 63.188,15.536 C64.364,15.536 65.492,15.728 66.572,16.136 C67.34,16.4 67.532,16.184 67.532,15.344 L67.532,14.984 L67.5269587,14.7309668 C67.4991142,14.1611073 67.3371765,14.0352941 66.596,13.76 C65.564,13.376 64.412,13.184 63.164,13.184 C58.364,13.184 56.156,15.464 56.156,19.328 L56.156,23.168 C56.156,27.512 58.268,29.264 63.284,29.264 C63.98,29.264 64.652,29.216 65.324,29.096 C67.22,28.784 67.796,27.848 67.796,25.736 L67.796,21.344 C67.796,20.528 67.6033333,20.29 66.8540741,20.2660741 L66.5,20.264 C65.636,20.264 65.42,20.48 65.42,21.344 L65.42,25.712 Z M80.912,17.216 C80.48,15.656 80.024,14.6 79.544,14.048 C79.064,13.472 78.248,13.184 77.072,13.184 C75.896,13.184 75.08,13.472 74.576,14.048 C74.096,14.6 73.64,15.656 73.208,17.216 L70.256,27.944 C70.04,28.784 70.184,29 71.072,29 L71.408,29 C72.296,29 72.536,28.784 72.8,27.944 L73.688,24.68 L80.432,24.68 L81.32,27.944 C81.584,28.784 81.824,29 82.712,29 L83.048,29 C83.936,29 84.08,28.784 83.864,27.944 L80.912,17.216 Z M74.288,22.4 L75.704,17.168 L75.8097648,16.7927852 C76.1341497,15.6954014 76.3771429,15.44 77.072,15.44 C77.84,15.44 78.032,15.752 78.416,17.168 L79.832,22.4 L74.288,22.4 Z" id="ORGA" fill="#FFFFFF" fill-rule="nonzero" mask="url(#mask-4)"></path>
            </g>
            <g id="logos--pix/couleur-copy-13">
                <g id="Group" transform="translate(64.222222, 18.545455)">
                    <path d="M26.0242586,24.4433576 L37.9316377,38.9821606 C40.0928699,41.7515039 39.9898234,42.2644127 36.3879222,42.2644127 L36.3879222,42.2644127 L35.1528888,42.2644127 C31.5509876,42.2644127 30.2130602,41.5464011 28.051828,38.9821606 L28.051828,38.9821606 L21.4924051,31.0228845 L23.0567435,29.1252882 C24.4487552,27.5201334 25.4379269,25.9701302 26.0242586,24.4433576 Z M36.5998475,0.00551394994 C39.9930396,0.0263034397 40.0496453,0.573180249 37.9316377,3.28713666 L37.9316377,3.28713666 L26.0243949,17.8262948 C25.438079,16.2994042 24.448859,14.7492819 23.0567348,13.143999 L21.4924051,11.2458845 L28.051828,3.28713666 C30.1475683,0.800600418 31.4691451,0.0500957119 34.8315942,0.00689389892 L35.1528888,0.00488451109 Z" id="Combined-Shape" fill="url(#linearGradient-5)"></path>
                    <path d="M21.1442399,42.2644127 C24.7461411,42.2644127 24.8491876,41.7515039 22.6879554,38.9821606 L10.3382314,23.9040679 C9.41203253,22.7758507 8.89740989,21.8525843 8.89740989,21.1345727 C8.89740989,20.3140096 9.41203253,19.3908952 10.3382314,18.3652294 L22.6879554,3.28713666 C24.8491876,0.517793383 24.7461411,0.00488451109 21.1442399,0.00488451109 L19.9092065,0.00488451109 C16.3073053,0.00488451109 14.9693779,0.722896161 12.8081457,3.28713666 L3.34006454,14.7751711 C-0.673717732,19.3908952 -0.673717732,22.8784021 3.34006454,27.4941261 L12.8081457,38.9821606 C14.9693779,41.5464011 16.3073053,42.2644127 19.9092065,42.2644127 L21.1442399,42.2644127 Z" id="Page-1" fill="url(#linearGradient-6)" transform="translate(12.225788, 21.134649) scale(-1, 1) translate(-12.225788, -21.134649) "></path>
                </g>
                <path d="M0.585858586,73.9593943 C0.585858586,77.0218127 1.3540213,77.7874173 4.42667215,77.7874173 L5.45079069,77.7874173 C8.52344154,77.7874173 9.29160425,77.0218127 9.29160425,73.9593943 L9.29160425,56.1805665 C11.5960924,59.8383734 15.778328,61.7098677 21.8381635,61.7098677 C33.7018786,61.7098677 39.5910768,55.4999964 39.5910768,43.1654353 L39.5910768,35.7646398 C39.5910768,23.4299316 33.2751379,17.645527 20.0457346,17.645527 C7.75527882,17.645527 0.585858586,23.6001477 0.585858586,35.7646398 L0.585858586,73.9593943 Z M30.8000126,43.3355043 C30.8000126,50.4810492 28.4102058,53.4584331 20.1312008,53.4584331 C11.681411,53.4584331 9.29160425,50.3960147 9.29160425,43.3355043 L9.29160425,36.0197433 C9.29160425,28.8741984 11.8521958,25.8117799 20.1312008,25.8117799 C28.580843,25.8117799 30.8000126,28.8741984 30.8000126,36.0197433 L30.8000126,43.3355043 Z" id="Fill-1" fill="url(#linearGradient-7)"></path>
                <path d="M47.8008794,56.8796182 C47.8008794,59.9420366 48.5690421,60.7076412 51.641693,60.7076412 L52.7511301,60.7076412 C55.823781,60.7076412 56.5919437,59.9420366 56.5919437,56.8796182 L56.5919437,22.3426706 C56.5919437,19.2802522 55.823781,18.5146476 52.7511301,18.5146476 L51.641693,18.5146476 C48.5690421,18.5146476 47.8008794,19.2802522 47.8008794,22.3426706 L47.8008794,56.8796182 Z M48.3982573,9.32753945 C50.5321082,11.3691027 53.9460335,11.3691027 55.9945658,9.32753945 C58.1282691,7.2007946 58.1282691,3.79823823 55.9945658,1.75667499 C53.9460335,-0.370069858 50.5321082,-0.370069858 48.3982573,1.75667499 C46.264554,3.79823823 46.264554,7.2007946 48.3982573,9.32753945 L48.3982573,9.32753945 Z" id="Fill-2" fill="url(#linearGradient-8)"></path>
            </g>
        </g>
    </g>
</svg>