<?xml version="1.0" encoding="UTF-8"?>
<svg width="279px" height="36px" viewBox="0 0 279 36" version="1.1" xmlns="http://www.w3.org/2000/svg" xmlns:xlink="http://www.w3.org/1999/xlink">
    <g id="COMPETENCES" stroke="none" stroke-width="1" fill="none" fill-rule="evenodd">
        <g transform="translate(-1164.000000, -1488.000000)" fill="#FFFFFF" fill-rule="nonzero">
            <path d="M1180.656,1510.476 L1170.432,1510.476 L1170.432,1520.172 C1170.432,1522.332 1169.904,1522.956 1167.648,1522.956 L1166.784,1522.956 C1164.528,1522.956 1164,1522.332 1164,1520.172 L1164,1497.516 C1164,1493.484 1165.728,1491.756 1169.76,1491.756 L1182.576,1491.756 C1184.736,1491.756 1185.36,1492.38 1185.36,1494.54 L1185.36,1494.972 C1185.36,1497.228 1184.736,1497.756 1182.576,1497.756 L1171.872,1497.756 C1170.912,1497.756 1170.432,1498.236 1170.432,1499.196 L1170.432,1504.476 L1180.656,1504.476 C1182.816,1504.476 1183.44,1505.004 1183.44,1507.26 L1183.44,1507.692 C1183.44,1509.852 1182.816,1510.476 1180.656,1510.476 Z M1209.648,1508.748 C1209.648,1509.42 1209.6,1510.044 1209.552,1510.62 C1209.312,1512.78 1208.688,1513.26 1206.432,1513.26 L1194.24,1513.26 L1194.24,1513.98 C1194.24,1516.476 1196.112,1517.628 1200.528,1517.628 C1202.304,1517.628 1204.224,1517.388 1206.336,1516.956 C1208.4,1516.524 1208.88,1517.004 1208.88,1519.26 L1208.88,1519.788 C1208.88,1521.9 1208.448,1522.38 1206.336,1522.908 C1204.752,1523.34 1202.832,1523.532 1200.48,1523.532 C1191.888,1523.532 1187.952,1520.364 1187.952,1513.02 L1187.952,1509.18 C1187.952,1501.98 1191.696,1498.38 1199.136,1498.38 C1206.144,1498.38 1209.648,1501.836 1209.648,1508.748 Z M1194.24,1507.452 L1194.24,1508.172 L1203.696,1508.172 L1203.696,1507.452 C1203.696,1505.004 1202.112,1503.804 1198.944,1503.804 C1195.824,1503.804 1194.24,1505.004 1194.24,1507.452 Z M1201.152,1489.164 L1202.352,1489.164 C1204.512,1489.164 1204.848,1489.692 1203.552,1491.468 L1201.968,1493.772 C1200.864,1495.308 1200.144,1495.692 1198.368,1495.692 L1197.6,1495.692 C1195.728,1495.692 1195.488,1495.26 1196.256,1493.58 L1197.168,1491.66 C1198.128,1489.692 1198.896,1489.164 1201.152,1489.164 Z M1213.392,1515.708 L1213.392,1492.044 C1213.392,1489.884 1213.92,1489.356 1216.08,1489.356 L1216.944,1489.356 C1219.104,1489.356 1219.632,1489.884 1219.632,1492.044 L1219.632,1514.316 C1219.632,1516.764 1220.256,1517.532 1221.744,1517.532 L1221.984,1517.532 C1223.28,1517.532 1223.616,1517.868 1223.616,1519.74 L1223.616,1520.652 C1223.616,1522.572 1223.28,1523.1 1221.984,1523.34 C1221.648,1523.388 1221.168,1523.436 1220.544,1523.436 C1216.176,1523.436 1213.392,1520.94 1213.392,1515.708 Z M1226.976,1520.268 L1226.976,1501.644 C1226.976,1499.484 1227.504,1498.956 1229.664,1498.956 L1230.528,1498.956 C1232.688,1498.956 1233.216,1499.484 1233.216,1501.644 L1233.216,1520.268 C1233.216,1522.428 1232.688,1522.956 1230.528,1522.956 L1229.664,1522.956 C1227.504,1522.956 1226.976,1522.428 1226.976,1520.268 Z M1227.456,1494.396 C1225.968,1492.908 1225.968,1490.604 1227.456,1489.116 C1228.944,1487.628 1231.248,1487.628 1232.736,1489.116 C1234.224,1490.604 1234.224,1492.908 1232.736,1494.396 C1231.248,1495.884 1228.944,1495.884 1227.456,1494.396 Z M1237.92,1513.26 L1237.92,1508.652 C1237.92,1502.316 1241.952,1498.38 1249.392,1498.38 C1250.496,1498.38 1251.552,1498.476 1252.512,1498.716 C1254.576,1499.148 1255.056,1499.772 1255.056,1501.932 L1255.056,1502.46 C1255.056,1504.62 1254.48,1505.052 1252.512,1504.62 C1251.6,1504.38 1250.592,1504.284 1249.488,1504.284 C1245.648,1504.284 1244.208,1505.292 1244.208,1508.748 L1244.208,1513.068 C1244.208,1516.476 1245.84,1517.628 1249.92,1517.628 C1250.832,1517.628 1251.84,1517.532 1252.848,1517.34 C1254.96,1516.956 1255.488,1517.388 1255.488,1519.548 L1255.488,1520.028 C1255.488,1522.188 1254.96,1522.764 1252.848,1523.196 C1251.888,1523.436 1250.832,1523.532 1249.632,1523.532 C1241.808,1523.532 1237.92,1520.124 1237.92,1513.26 Z M1258.992,1520.268 L1258.992,1501.644 C1258.992,1499.484 1259.52,1498.956 1261.68,1498.956 L1262.544,1498.956 C1264.704,1498.956 1265.232,1499.484 1265.232,1501.644 L1265.232,1520.268 C1265.232,1522.428 1264.704,1522.956 1262.544,1522.956 L1261.68,1522.956 C1259.52,1522.956 1258.992,1522.428 1258.992,1520.268 Z M1259.472,1494.396 C1257.984,1492.908 1257.984,1490.604 1259.472,1489.116 C1260.96,1487.628 1263.264,1487.628 1264.752,1489.116 C1266.24,1490.604 1266.24,1492.908 1264.752,1494.396 C1263.264,1495.884 1260.96,1495.884 1259.472,1494.396 Z M1268.736,1502.46 L1268.736,1502.268 C1268.736,1500.348 1269.216,1499.772 1271.088,1499.388 L1273.056,1498.956 L1273.632,1495.164 C1273.872,1493.196 1274.448,1492.716 1276.512,1492.716 L1276.8,1492.716 C1278.864,1492.716 1279.296,1493.148 1279.296,1495.212 L1279.296,1498.956 L1284.768,1498.956 C1286.928,1498.956 1287.456,1499.484 1287.456,1501.644 L1287.456,1502.172 C1287.456,1504.332 1286.928,1504.86 1284.768,1504.86 L1279.296,1504.86 L1279.296,1514.364 C1279.296,1516.524 1280.304,1517.58 1282.32,1517.58 C1283.616,1517.58 1284.72,1517.484 1285.68,1517.292 C1287.84,1516.908 1288.32,1517.148 1288.32,1519.26 L1288.32,1519.788 C1288.32,1521.948 1287.744,1522.764 1285.68,1523.196 C1284.864,1523.388 1283.712,1523.484 1282.32,1523.484 C1276.128,1523.484 1273.056,1520.412 1273.056,1514.316 L1273.056,1504.86 L1271.136,1504.86 C1269.216,1504.86 1268.736,1504.38 1268.736,1502.46 Z M1310.976,1506.636 L1310.976,1515.804 C1310.976,1520.988 1307.808,1523.532 1300.56,1523.532 C1293.312,1523.532 1290.144,1520.988 1290.144,1515.948 C1290.144,1510.956 1293.408,1508.46 1299.888,1508.46 L1304.736,1508.46 L1304.736,1506.636 C1304.736,1504.332 1303.056,1503.708 1299.744,1503.708 C1298.4,1503.708 1297.008,1503.804 1295.568,1503.996 C1293.456,1504.332 1292.88,1503.852 1292.88,1501.74 L1292.88,1501.548 C1292.88,1499.484 1293.408,1498.956 1295.472,1498.62 C1296.672,1498.476 1297.968,1498.38 1299.36,1498.38 C1306.896,1498.38 1310.976,1500.684 1310.976,1506.636 Z M1304.736,1515.468 L1304.736,1513.164 L1299.792,1513.164 C1297.536,1513.164 1296.384,1514.028 1296.384,1515.804 C1296.576,1518.108 1298.112,1518.348 1300.464,1518.3 C1302.912,1518.348 1304.496,1518.06 1304.736,1515.468 Z M1313.52,1502.46 L1313.52,1502.268 C1313.52,1500.348 1314,1499.772 1315.872,1499.388 L1317.84,1498.956 L1318.416,1495.164 C1318.656,1493.196 1319.232,1492.716 1321.296,1492.716 L1321.584,1492.716 C1323.648,1492.716 1324.08,1493.148 1324.08,1495.212 L1324.08,1498.956 L1329.552,1498.956 C1331.712,1498.956 1332.24,1499.484 1332.24,1501.644 L1332.24,1502.172 C1332.24,1504.332 1331.712,1504.86 1329.552,1504.86 L1324.08,1504.86 L1324.08,1514.364 C1324.08,1516.524 1325.088,1517.58 1327.104,1517.58 C1328.4,1517.58 1329.504,1517.484 1330.464,1517.292 C1332.624,1516.908 1333.104,1517.148 1333.104,1519.26 L1333.104,1519.788 C1333.104,1521.948 1332.528,1522.764 1330.464,1523.196 C1329.648,1523.388 1328.496,1523.484 1327.104,1523.484 C1320.912,1523.484 1317.84,1520.412 1317.84,1514.316 L1317.84,1504.86 L1315.92,1504.86 C1314,1504.86 1313.52,1504.38 1313.52,1502.46 Z M1336.608,1520.268 L1336.608,1501.644 C1336.608,1499.484 1337.136,1498.956 1339.296,1498.956 L1340.16,1498.956 C1342.32,1498.956 1342.848,1499.484 1342.848,1501.644 L1342.848,1520.268 C1342.848,1522.428 1342.32,1522.956 1340.16,1522.956 L1339.296,1522.956 C1337.136,1522.956 1336.608,1522.428 1336.608,1520.268 Z M1337.088,1494.396 C1335.6,1492.908 1335.6,1490.604 1337.088,1489.116 C1338.576,1487.628 1340.88,1487.628 1342.368,1489.116 C1343.856,1490.604 1343.856,1492.908 1342.368,1494.396 C1340.88,1495.884 1338.576,1495.884 1337.088,1494.396 Z M1364.208,1512.876 L1364.208,1509.036 C1364.208,1505.724 1363.152,1504.284 1359.072,1504.284 C1354.992,1504.284 1353.84,1505.724 1353.84,1509.036 L1353.84,1512.876 C1353.84,1516.188 1354.992,1517.628 1359.072,1517.628 C1363.152,1517.628 1364.208,1516.188 1364.208,1512.876 Z M1359.072,1523.532 C1351.248,1523.532 1347.552,1520.028 1347.552,1512.876 L1347.552,1509.036 C1347.552,1502.172 1351.584,1498.38 1359.072,1498.38 C1366.896,1498.38 1370.496,1501.884 1370.496,1509.036 L1370.496,1512.876 C1370.496,1519.788 1366.56,1523.532 1359.072,1523.532 Z M1381.008,1508.076 L1381.008,1520.268 C1381.008,1522.428 1380.48,1522.956 1378.32,1522.956 L1377.408,1522.956 C1375.248,1522.956 1374.72,1522.428 1374.72,1520.268 L1374.72,1508.076 C1374.72,1501.74 1378.416,1498.38 1385.664,1498.38 C1393.152,1498.38 1396.512,1501.548 1396.512,1508.076 L1396.512,1520.268 C1396.512,1522.428 1395.984,1522.956 1393.824,1522.956 L1392.912,1522.956 C1390.752,1522.956 1390.224,1522.428 1390.224,1520.268 L1390.224,1508.076 C1390.224,1505.388 1389.36,1504.284 1385.664,1504.284 C1381.968,1504.284 1381.008,1505.388 1381.008,1508.076 Z M1400.496,1519.74 L1400.496,1519.212 C1400.496,1516.956 1401.072,1516.38 1403.136,1516.956 C1404.96,1517.484 1407.12,1517.724 1409.664,1517.724 C1412.496,1517.724 1413.36,1517.436 1413.36,1516.332 C1413.36,1515.516 1412.88,1515.132 1410.336,1514.124 L1405.872,1512.252 C1402.464,1510.86 1400.88,1509.132 1400.88,1505.436 C1400.88,1500.636 1403.712,1498.38 1410.672,1498.38 C1412.544,1498.38 1414.224,1498.572 1415.76,1498.956 C1417.872,1499.484 1418.4,1500.012 1418.4,1502.124 L1418.4,1502.604 C1418.4,1504.764 1417.824,1505.292 1415.712,1504.764 C1414.128,1504.38 1412.4,1504.188 1410.576,1504.188 C1407.84,1504.188 1407.024,1504.572 1407.024,1505.484 C1407.024,1506.204 1407.456,1506.492 1408.992,1507.116 L1413.984,1509.084 C1417.776,1510.572 1419.504,1512.444 1419.504,1516.284 C1419.504,1521.276 1416.48,1523.532 1409.184,1523.532 C1406.832,1523.532 1404.816,1523.34 1403.136,1522.908 C1401.024,1522.38 1400.496,1521.852 1400.496,1519.74 Z M1438.944,1491.756 L1439.424,1491.756 C1441.68,1491.756 1442.208,1492.38 1442.208,1494.54 L1442.208,1501.644 C1442.208,1505.628 1441.968,1508.892 1441.44,1511.436 C1441.2,1512.732 1440.768,1513.116 1439.424,1513.116 L1438.944,1513.116 C1437.6,1513.116 1437.264,1512.78 1436.928,1511.436 C1436.4,1508.892 1436.16,1505.628 1436.16,1501.644 L1436.16,1494.54 C1436.16,1492.38 1436.688,1491.756 1438.944,1491.756 Z M1436.496,1522.428 C1435.008,1520.94 1435.008,1518.636 1436.496,1517.148 C1437.984,1515.66 1440.288,1515.66 1441.776,1517.148 C1443.264,1518.636 1443.264,1520.94 1441.776,1522.428 C1440.288,1523.916 1437.984,1523.916 1436.496,1522.428 Z" id="Félicitations!"></path>
        </g>
    </g>
</svg>
