<?xml version="1.0" encoding="UTF-8"?>
<svg width="956px" height="360px" viewBox="0 0 956 360" version="1.1" xmlns="http://www.w3.org/2000/svg" xmlns:xlink="http://www.w3.org/1999/xlink">
    <defs>
        <linearGradient x1="50%" y1="100%" x2="50%" y2="2.35473769%" id="linearGradient-1">
            <stop stop-color="#12A3FF" offset="0%"></stop>
            <stop stop-color="#3D68FF" offset="100%"></stop>
        </linearGradient>
        <rect id="path-2" x="0" y="119" width="956" height="360"></rect>
        <filter x="-46.2%" y="-37.9%" width="192.4%" height="175.8%" filterUnits="objectBoundingBox" id="filter-4">
            <feOffset dx="0" dy="10" in="SourceAlpha" result="shadowOffsetOuter1"></feOffset>
            <feGaussianBlur stdDeviation="7.5" in="shadowOffsetOuter1" result="shadowBlurOuter1"></feGaussianBlur>
            <feColorMatrix values="0 0 0 0 0   0 0 0 0 0   0 0 0 0 0  0 0 0 0.1 0" type="matrix" in="shadowBlurOuter1" result="shadowMatrixOuter1"></feColorMatrix>
            <feMerge>
                <feMergeNode in="shadowMatrixOuter1"></feMergeNode>
                <feMergeNode in="SourceGraphic"></feMergeNode>
            </feMerge>
        </filter>
        <linearGradient x1="50.0015234%" y1="11.6623428%" x2="50.0015234%" y2="127.19093%" id="linearGradient-5">
            <stop stop-color="#FFAE4C" offset="0%"></stop>
            <stop stop-color="#FFC954" offset="53.0062289%"></stop>
            <stop stop-color="#FFC200" offset="100%"></stop>
        </linearGradient>
        <linearGradient x1="130.933644%" y1="102.860793%" x2="50%" y2="1.67622668%" id="linearGradient-6">
            <stop stop-color="#FFC200" stop-opacity="0" offset="0%"></stop>
            <stop stop-color="#FFBB00" stop-opacity="0.203" offset="20.3%"></stop>
            <stop stop-color="#FFA700" stop-opacity="0.499" offset="49.9%"></stop>
            <stop stop-color="#FF8800" stop-opacity="0.852" offset="85.2%"></stop>
            <stop stop-color="#FF7800" offset="100%"></stop>
        </linearGradient>
        <linearGradient x1="38.4297677%" y1="31.1155503%" x2="100%" y2="95.8028546%" id="linearGradient-7">
            <stop stop-color="#FFC200" stop-opacity="0" offset="0%"></stop>
            <stop stop-color="#FFBB00" stop-opacity="0.203" offset="20.3%"></stop>
            <stop stop-color="#FFA700" stop-opacity="0.499" offset="49.9%"></stop>
            <stop stop-color="#FF8800" stop-opacity="0.852" offset="85.2%"></stop>
            <stop stop-color="#FF7800" offset="100%"></stop>
        </linearGradient>
    </defs>
    <g id="COMPETENCES" stroke="none" stroke-width="1" fill="none" fill-rule="evenodd">
        <g transform="translate(-50.000000, -570.000000)">
            <rect fill="#F5F5F5" x="0" y="0" width="1802" height="2014"></rect>
            <g id="ZONE-TEMP" transform="translate(270.000000, 657.323435)"></g>
            <g id="PAS-MAL" transform="translate(50.000000, 451.000000)">
                <g id="fx">
                    <mask id="mask-3" fill="white">
                        <use xlink:href="#path-2"></use>
                    </mask>
                    <use id="Mask" fill="url(#linearGradient-1)" xlink:href="#path-2"></use>
                    <path d="M933.90336,339.925597 C944.528627,333.846956 951.080559,322.605841 951.080559,310.433352 L951.080559,162.479826 C951.080559,150.307337 944.528627,139.066222 933.90336,132.987581 L804.583019,59.0098677 C793.971056,52.9388293 780.899506,52.9388293 770.285643,59.0098677 L640.965302,132.987581 C630.340034,139.066222 623.790003,150.307337 623.790003,162.479826 L623.790003,310.433352 C623.790003,322.605841 630.340034,333.846956 640.965302,339.925597 L770.285643,413.90331 C780.899506,419.974348 793.971056,419.974348 804.583019,413.90331 L933.90336,339.925597 Z" id="Stroke-23" fill="#3257D9" opacity="0.2" transform="translate(787.435281, 236.456589) scale(1, -1) rotate(27.000000) translate(-787.435281, -236.456589) "></path>
                    <path d="M892.256201,311.28832 C899.904059,306.913034 904.620009,298.821902 904.620009,290.060385 L904.620009,183.566364 C904.620009,174.804847 899.904059,166.713715 892.256201,162.338429 L799.173978,109.090735 C791.535697,104.720921 782.127054,104.720921 774.487405,109.090735 L681.405181,162.338429 C673.757324,166.713715 669.042741,174.804847 669.042741,183.566364 L669.042741,290.060385 C669.042741,298.821902 673.757324,306.913034 681.405181,311.28832 L774.487405,364.536015 C782.127054,368.905828 791.535697,368.905828 799.173978,364.536015 L892.256201,311.28832 Z" id="Stroke-23" fill="#3257D9" opacity="0.2" transform="translate(786.831375, 236.813375) scale(1, -1) rotate(-9.000000) translate(-786.831375, -236.813375) "></path>
                    <path d="M859.147665,287.989728 C864.401918,284.983807 867.641884,279.425013 867.641884,273.405651 L867.641884,200.241819 C867.641884,194.222457 864.401918,188.663664 859.147665,185.657742 L795.198046,149.075356 C789.950372,146.073195 783.486419,146.073195 778.237805,149.075356 L714.288186,185.657742 C709.033933,188.663664 705.794906,194.222457 705.794906,200.241819 L705.794906,273.405651 C705.794906,279.425013 709.033933,284.983807 714.288186,287.989728 L778.237805,324.572114 C783.486419,327.574276 789.950372,327.574276 795.198046,324.572114 L859.147665,287.989728 Z" id="Stroke-23" fill="#3257D9" opacity="0.2" transform="translate(786.718395, 236.823735) scale(1, -1) rotate(31.000000) translate(-786.718395, -236.823735) "></path>
                </g>
                <g id="award" filter="url(#filter-4)" transform="translate(737.000000, 181.000000)" fill-rule="nonzero">
                    <g id="Group" transform="translate(0.000000, 93.017578)" fill="#FF3F94">
                        <path d="M15.8980684,0.161974609 L0.177353516,20.3753145 L18.319998,18.1074219 L22.8557832,33.9824219 L38.7307832,13.5716367 L38.8034609,13.4786191 C35.6602109,10.3058516 32.2175684,7.44611914 28.5256387,4.9334043 C24.479498,2.94009961 20.2500508,1.34342187 15.8980684,0.161974609 Z" id="Path"></path>
                        <path d="M88.7777129,0.161974609 C84.4257305,1.34118945 80.1960352,2.93563477 76.1503906,4.92447461 C72.4582129,7.43495703 69.0180508,10.2969219 65.8748008,13.4696895 L81.819998,33.9824219 L86.3557832,18.1074219 L104.498676,20.3753145 L88.7777129,0.161974609 Z" id="Path"></path>
                    </g>
                    <path d="M99.9628906,56.6963223 C99.9628906,47.1938945 105.884266,36.0134297 101.44373,28.3480371 C96.8650332,20.431125 84.0653184,20.0275527 76.1503906,15.4486074 C68.4783008,11.001375 61.8403184,0 52.3378906,0 C42.8354629,0 36.1974805,11.0036074 28.5253906,15.4419102 C20.6082305,20.0230879 7.81074805,20.431125 3.23205078,28.3415879 C-1.20848438,36.0136777 4.71289062,47.1941426 4.71289062,56.6963223 C4.71289062,66.198502 -1.20848438,77.3792148 3.23205078,85.0446074 C7.81074805,92.9617676 20.6107109,93.3653398 28.5253906,97.9442852 C36.1974805,102.391518 42.8354629,113.392893 52.3378906,113.392893 C61.8403184,113.392893 68.4783008,102.389285 76.1503906,97.9509824 C84.0675508,93.3698047 96.8650332,92.9617676 101.44373,85.0513047 C105.884266,77.3792148 99.9628906,66.19875 99.9628906,56.6963223 Z" id="Path" fill="url(#linearGradient-5)"></path>
                    <circle id="Oval" fill="#FFDC13" cx="52.3378906" cy="56.6963223" r="38.5536777"></circle>
                    <path d="M101.44373,28.3482852 C101.346248,28.178125 101.217016,28.0330176 101.119533,27.8720352 C97.7813184,34.2265 93.8237305,40.2341953 89.3040684,45.8107852 C95.3229258,66.2215703 83.6548008,87.6481074 63.2440156,93.6672129 C49.831873,97.6200879 35.3290684,93.9983555 25.3503906,84.201248 C18.5491934,85.5121758 11.6388555,86.1742129 4.71289062,86.1789258 C4.46806836,86.1789258 4.22994336,86.1630508 3.98487305,86.1608184 C9.08074805,93.0051758 20.9936953,93.5970156 28.5253906,97.9537109 C36.1974805,102.389533 42.8354629,113.393389 52.3378906,113.393389 C61.8403184,113.393389 68.4783008,102.389781 76.1503906,97.9514785 C84.0675508,93.3703008 96.8650332,92.9622637 101.44373,85.0518008 C105.884266,77.3797109 99.9628906,66.198998 99.9628906,56.6968184 C99.9628906,47.1946387 105.884266,36.0136777 101.44373,28.3482852 Z" id="Path" fill="url(#linearGradient-6)"></path>
                    <path d="M65.7455684,67.4665176 L57.293123,72.6417676 C47.3191582,78.1570898 36.5353203,82.0601074 25.3434453,84.2079453 C40.5085352,99.1326777 64.8994805,98.9377129 79.8219805,83.772623 C89.6508379,73.7850156 93.281748,59.2479805 89.3038203,45.8110332 C82.5547129,54.1451602 74.6172129,61.4407148 65.7455684,67.4665176 Z" id="Path" fill="url(#linearGradient-7)" opacity="0.966936384"></path>
                    <g id="Group" transform="translate(15.130859, 92.220703)" fill="#B8125B">
                        <path d="M70.0908535,14.3685117 C75.9690684,14.3729766 81.7748535,15.6906016 87.0793359,18.2239043 L73.6468535,0.954136719 C69.2948711,2.13335156 65.0651758,3.72779687 61.0195313,5.71663672 C57.3273535,8.22711914 53.8871914,11.089084 50.7439414,14.2618516 L53.6217813,17.9651914 C58.7878535,15.5931191 64.4053711,14.3662793 70.0908535,14.3685117 Z" id="Path"></path>
                        <path d="M13.3945313,5.7302793 C9.34863867,3.74143945 5.11919141,2.14699414 0.767208984,0.967779297 L0.0664765625,1.87488672 C7.72045898,7.40161914 12.2562441,16.2668145 12.260709,25.7077266 C12.2562441,26.8916543 12.1791016,28.0708691 12.0339941,29.2456191 L23.6001719,14.3685117 L23.6728496,14.2754941 C20.5291035,11.1029746 17.086709,8.24299414 13.3945313,5.7302793 Z" id="Path"></path>
                    </g>
                </g>
            </g>
        </g>
    </g>
</svg>
