<?xml version="1.0" encoding="UTF-8"?>
<svg width="936px" height="360px" viewBox="0 0 936 360" version="1.1" xmlns="http://www.w3.org/2000/svg" xmlns:xlink="http://www.w3.org/1999/xlink">
    <!-- Generator: sketchtool 54.1 (76490) - https://sketchapp.com -->
    <title>862287C6-1CDF-49F9-B697-34727847A67E</title>
    <desc>Created with sketchtool.</desc>
    <defs>
        <linearGradient x1="0.563523013%" y1="42.6035503%" x2="99.2613181%" y2="56.9317231%" id="linearGradient-1">
            <stop stop-color="#FBD013" offset="0%"></stop>
            <stop stop-color="#FF9400" offset="100%"></stop>
        </linearGradient>
        <linearGradient x1="50%" y1="100%" x2="50%" y2="2.35473769%" id="linearGradient-2">
            <stop stop-color="#12A3FF" offset="0%"></stop>
            <stop stop-color="#3D68FF" offset="100%"></stop>
        </linearGradient>
        <rect id="path-3" x="0" y="0" width="936" height="360"></rect>
    </defs>
    <g id="COMPETENCES" stroke="none" stroke-width="1" fill="none" fill-rule="evenodd">
        <g id="export-lise" transform="translate(-50.000000, -570.000000)">
            <g id="PAS-MAL" transform="translate(50.000000, 570.000000)">
                <g id="fx">
                    <mask id="mask-4" fill="white">
                        <use xlink:href="#path-3"></use>
                    </mask>
                    <g id="Mask">
                        <use fill="url(#linearGradient-1)" xlink:href="#path-3"></use>
                        <use fill="url(#linearGradient-2)" xlink:href="#path-3"></use>
                    </g>
                    <path d="M292.90336,220.925597 C303.528627,214.846956 310.080559,203.605841 310.080559,191.433352 L310.080559,43.4798262 C310.080559,31.3073372 303.528627,20.0662222 292.90336,13.9875807 L163.583019,-59.9901323 C152.971056,-66.0611707 139.899506,-66.0611707 129.285643,-59.9901323 L-0.0346982508,13.9875807 C-10.6599659,20.0662222 -17.2099967,31.3073372 -17.2099967,43.4798262 L-17.2099967,191.433352 C-17.2099967,203.605841 -10.6599659,214.846956 -0.0346982508,220.925597 L129.285643,294.90331 C139.899506,300.974348 152.971056,300.974348 163.583019,294.90331 L292.90336,220.925597 Z" id="Stroke-23" fill="#3257D9" opacity="0.2" mask="url(#mask-4)" transform="translate(146.435281, 117.456589) scale(1, -1) rotate(27.000000) translate(-146.435281, -117.456589) "></path>
                    <path d="M251.256201,192.28832 C258.904059,187.913034 263.620009,179.821902 263.620009,171.060385 L263.620009,64.5663641 C263.620009,55.8048472 258.904059,47.713715 251.256201,43.3384291 L158.173978,-9.9092654 C150.535697,-14.2790788 141.127054,-14.2790788 133.487405,-9.9092654 L40.4051815,43.3384291 C32.757324,47.713715 28.0427414,55.8048472 28.0427414,64.5663641 L28.0427414,171.060385 C28.0427414,179.821902 32.757324,187.913034 40.4051815,192.28832 L133.487405,245.536015 C141.127054,249.905828 150.535697,249.905828 158.173978,245.536015 L251.256201,192.28832 Z" id="Stroke-23" fill="#3257D9" opacity="0.2" mask="url(#mask-4)" transform="translate(145.831375, 117.813375) scale(1, -1) rotate(-9.000000) translate(-145.831375, -117.813375) "></path>
                    <path d="M218.147665,168.989728 C223.401918,165.983807 226.641884,160.425013 226.641884,154.405651 L226.641884,81.2418195 C226.641884,75.2224568 223.401918,69.6636636 218.147665,66.657742 L154.198046,30.0753565 C148.950372,27.0731946 142.486419,27.0731946 137.237805,30.0753565 L73.2881858,66.657742 C68.0339326,69.6636636 64.7949064,75.2224568 64.7949064,81.2418195 L64.7949064,154.405651 C64.7949064,160.425013 68.0339326,165.983807 73.2881858,168.989728 L137.237805,205.572114 C142.486419,208.574276 148.950372,208.574276 154.198046,205.572114 L218.147665,168.989728 Z" id="Stroke-23" fill="#3257D9" opacity="0.2" mask="url(#mask-4)" transform="translate(145.718395, 117.823735) scale(1, -1) rotate(31.000000) translate(-145.718395, -117.823735) "></path>
                </g>
            </g>
        </g>
    </g>
</svg>