<?xml version="1.0" encoding="UTF-8"?>
<svg width="193px" height="46px" viewBox="0 0 193 46" version="1.1" xmlns="http://www.w3.org/2000/svg" xmlns:xlink="http://www.w3.org/1999/xlink">
    <g id="COMPETENCES" stroke="none" stroke-width="1" fill="none" fill-rule="evenodd">
        <g transform="translate(-1165.000000, -1567.000000)" fill="#FFFFFF" fill-rule="nonzero">
            <path d="M1165.296,1574.56 L1165.296,1574.128 C1165.296,1571.968 1165.824,1571.344 1168.08,1571.344 L1187.424,1571.344 C1189.584,1571.344 1190.208,1571.968 1190.208,1574.128 L1190.208,1574.56 C1190.208,1576.816 1189.584,1577.344 1187.424,1577.344 L1180.992,1577.344 L1180.992,1599.76 C1180.992,1601.92 1180.368,1602.544 1178.208,1602.544 L1177.296,1602.544 C1175.04,1602.544 1174.512,1601.92 1174.512,1599.76 L1174.512,1577.344 L1168.08,1577.344 C1165.824,1577.344 1165.296,1576.816 1165.296,1574.56 Z M1210.128,1586.224 L1210.128,1595.392 C1210.128,1600.576 1206.96,1603.12 1199.712,1603.12 C1192.464,1603.12 1189.296,1600.576 1189.296,1595.536 C1189.296,1590.544 1192.56,1588.048 1199.04,1588.048 L1203.888,1588.048 L1203.888,1586.224 C1203.888,1583.92 1202.208,1583.296 1198.896,1583.296 C1197.552,1583.296 1196.16,1583.392 1194.72,1583.584 C1192.608,1583.92 1192.032,1583.44 1192.032,1581.328 L1192.032,1581.136 C1192.032,1579.072 1192.56,1578.544 1194.624,1578.208 C1195.824,1578.064 1197.12,1577.968 1198.512,1577.968 C1206.048,1577.968 1210.128,1580.272 1210.128,1586.224 Z M1203.888,1595.056 L1203.888,1592.752 L1198.944,1592.752 C1196.688,1592.752 1195.536,1593.616 1195.536,1595.392 C1195.728,1597.696 1197.264,1597.936 1199.616,1597.888 C1202.064,1597.936 1203.648,1597.648 1203.888,1595.056 Z M1220.64,1587.664 L1220.64,1599.856 C1220.64,1602.016 1220.112,1602.544 1217.952,1602.544 L1217.04,1602.544 C1214.88,1602.544 1214.352,1602.016 1214.352,1599.856 L1214.352,1587.664 C1214.352,1581.328 1218.048,1577.968 1225.296,1577.968 C1232.784,1577.968 1236.144,1581.136 1236.144,1587.664 L1236.144,1599.856 C1236.144,1602.016 1235.616,1602.544 1233.456,1602.544 L1232.544,1602.544 C1230.384,1602.544 1229.856,1602.016 1229.856,1599.856 L1229.856,1587.664 C1229.856,1584.976 1228.992,1583.872 1225.296,1583.872 C1221.6,1583.872 1220.64,1584.976 1220.64,1587.664 Z M1238.304,1582.048 L1238.304,1581.856 C1238.304,1579.936 1238.784,1579.36 1240.656,1578.976 L1242.624,1578.544 L1243.2,1574.752 C1243.44,1572.784 1244.016,1572.304 1246.08,1572.304 L1246.368,1572.304 C1248.432,1572.304 1248.864,1572.736 1248.864,1574.8 L1248.864,1578.544 L1254.336,1578.544 C1256.496,1578.544 1257.024,1579.072 1257.024,1581.232 L1257.024,1581.76 C1257.024,1583.92 1256.496,1584.448 1254.336,1584.448 L1248.864,1584.448 L1248.864,1593.952 C1248.864,1596.112 1249.872,1597.168 1251.888,1597.168 C1253.184,1597.168 1254.288,1597.072 1255.248,1596.88 C1257.408,1596.496 1257.888,1596.736 1257.888,1598.848 L1257.888,1599.376 C1257.888,1601.536 1257.312,1602.352 1255.248,1602.784 C1254.432,1602.976 1253.28,1603.072 1251.888,1603.072 C1245.696,1603.072 1242.624,1600 1242.624,1593.904 L1242.624,1584.448 L1240.704,1584.448 C1238.784,1584.448 1238.304,1583.968 1238.304,1582.048 Z M1271.664,1609.456 L1271.664,1588.48 C1271.664,1581.328 1276.224,1577.968 1283.088,1577.968 C1290.72,1577.968 1294.56,1581.472 1294.56,1588.48 L1294.56,1592.32 C1294.56,1599.232 1291.056,1603.12 1284.48,1603.12 C1281.456,1603.12 1279.248,1602.208 1277.904,1600.384 L1277.904,1609.456 C1277.904,1611.616 1277.376,1612.144 1275.216,1612.144 L1274.352,1612.144 C1272.192,1612.144 1271.664,1611.616 1271.664,1609.456 Z M1288.272,1592.464 L1288.272,1588.624 C1288.272,1585.216 1287.312,1583.872 1283.136,1583.872 C1279.056,1583.872 1277.904,1585.312 1277.904,1588.624 L1277.904,1592.464 C1277.904,1595.776 1279.056,1597.216 1283.136,1597.216 C1287.216,1597.216 1288.272,1595.776 1288.272,1592.464 Z M1299.264,1599.856 L1299.264,1581.232 C1299.264,1579.072 1299.792,1578.544 1301.952,1578.544 L1302.816,1578.544 C1304.976,1578.544 1305.504,1579.072 1305.504,1581.232 L1305.504,1599.856 C1305.504,1602.016 1304.976,1602.544 1302.816,1602.544 L1301.952,1602.544 C1299.792,1602.544 1299.264,1602.016 1299.264,1599.856 Z M1299.744,1573.984 C1298.256,1572.496 1298.256,1570.192 1299.744,1568.704 C1301.232,1567.216 1303.536,1567.216 1305.024,1568.704 C1306.512,1570.192 1306.512,1572.496 1305.024,1573.984 C1303.536,1575.472 1301.232,1575.472 1299.744,1573.984 Z M1318.464,1580.896 L1320.576,1585.024 C1321.488,1586.8 1321.632,1587.04 1322.544,1587.04 C1323.456,1587.04 1323.6,1586.8 1324.512,1585.024 L1326.624,1580.896 C1327.584,1578.976 1328.352,1578.544 1330.512,1578.544 L1332,1578.544 C1334.16,1578.544 1334.448,1579.024 1333.344,1580.896 L1330.608,1585.744 C1329.984,1586.848 1329.552,1587.664 1329.12,1588.288 C1328.688,1588.96 1328.208,1589.488 1327.488,1589.776 C1328.016,1590.064 1328.4,1590.448 1328.784,1590.832 C1328.976,1591.024 1329.408,1591.744 1329.552,1591.984 C1329.744,1592.224 1330.368,1593.328 1330.608,1593.76 L1334.304,1600.192 C1335.408,1602.064 1335.12,1602.544 1332.96,1602.544 L1331.424,1602.544 C1329.264,1602.544 1328.496,1602.064 1327.488,1600.192 L1324.464,1594.48 C1323.504,1592.608 1323.36,1592.464 1322.544,1592.464 C1321.728,1592.464 1321.584,1592.608 1320.624,1594.48 L1317.6,1600.192 C1316.592,1602.064 1315.824,1602.544 1313.664,1602.544 L1312.128,1602.544 C1309.968,1602.544 1309.68,1602.064 1310.784,1600.192 L1314.48,1593.76 L1315.008,1592.848 C1315.536,1592.032 1315.536,1591.936 1315.872,1591.408 C1316.448,1590.496 1316.832,1590.208 1317.552,1589.776 C1316.976,1589.488 1316.64,1589.2 1316.208,1588.672 L1315.632,1587.76 L1315.296,1587.232 L1314.48,1585.744 L1311.744,1580.896 C1310.64,1579.024 1310.928,1578.544 1313.088,1578.544 L1314.576,1578.544 C1316.736,1578.544 1317.504,1578.976 1318.464,1580.896 Z M1353.888,1571.344 L1354.368,1571.344 C1356.624,1571.344 1357.152,1571.968 1357.152,1574.128 L1357.152,1581.232 C1357.152,1585.216 1356.912,1588.48 1356.384,1591.024 C1356.144,1592.32 1355.712,1592.704 1354.368,1592.704 L1353.888,1592.704 C1352.544,1592.704 1352.208,1592.368 1351.872,1591.024 C1351.344,1588.48 1351.104,1585.216 1351.104,1581.232 L1351.104,1574.128 C1351.104,1571.968 1351.632,1571.344 1353.888,1571.344 Z M1351.44,1602.016 C1349.952,1600.528 1349.952,1598.224 1351.44,1596.736 C1352.928,1595.248 1355.232,1595.248 1356.72,1596.736 C1358.208,1598.224 1358.208,1600.528 1356.72,1602.016 C1355.232,1603.504 1352.928,1603.504 1351.44,1602.016 Z" id="Tantpix!"></path>
        </g>
    </g>
</svg>
