<?xml version="1.0" encoding="UTF-8"?>
<svg width="98px" height="50px" viewBox="0 0 98 50" version="1.1" xmlns="http://www.w3.org/2000/svg" xmlns:xlink="http://www.w3.org/1999/xlink">
    <!-- Generator: sketchtool 41 (35326) - http://www.bohemiancoding.com/sketch -->
    <title>BA3ACEEE-3A45-41FB-9A92-338AFA2B7B48</title>
    <desc>Created with sketchtool.</desc>
    <defs></defs>
    <g id="Home" stroke="none" stroke-width="1" fill="none" fill-rule="evenodd">
        <g transform="translate(-1155.000000, -1711.000000)" id="layer-valeurs">
            <g transform="translate(0.000000, 1601.000000)">
                <g id="icon-gratuit" transform="translate(1143.000000, 82.000000)">
                    <rect id="Rectangle-2" fill="#FFFFFF" opacity="0" x="0.616000012" y="0" width="120" height="105"></rect>
                    <path d="M33.3629578,28.2173171 C19.6149263,28.2173171 12.116,36.9660644 12.116,52.797131 C12.116,68.6976321 19.6149263,77.5158139 33.3629578,77.5158139 C46.9721203,77.5158139 54.540481,68.6976321 54.540481,52.797131 C54.540481,36.9660644 46.9721203,28.2173171 33.3629578,28.2173171 Z M33.3629578,36.6188919 C40.167539,36.6188919 43.2920916,41.4098726 43.2920916,52.797131 C43.2920916,64.2538239 40.167539,69.1142391 33.3629578,69.1142391 C26.488942,69.1142391 23.3643894,64.2538239 23.3643894,52.797131 C23.3643894,41.4098726 26.488942,36.6188919 33.3629578,36.6188919 Z M90.0215118,67.6561145 C84.6056206,67.6561145 79.953509,64.8787344 77.3844324,60.5737953 L93.493237,60.5737953 L93.493237,55.4356421 L75.4402663,55.4356421 C75.3013973,54.5329936 75.2319628,53.630345 75.2319628,52.658262 C75.2319628,51.686179 75.3013973,50.7140959 75.5097008,49.8114474 L93.493237,49.8114474 L93.493237,44.6732942 L77.4538669,44.6732942 C80.0229435,40.4377896 84.6750551,37.729844 90.0215118,37.729844 C94.604189,37.729844 99.3951697,40.229486 102.728026,44.0483837 L109.116,36.2717194 C104.325019,31.3418697 97.0343966,28.2173171 89.9520773,28.2173171 C78.2176464,28.2173171 68.7745541,34.8830294 65.3722634,44.6732942 L58.0122062,44.6732942 L58.0122062,49.8114474 L64.1918769,49.8114474 C64.1224424,50.7835304 64.0530079,51.7556135 64.0530079,52.797131 C64.0530079,53.6997795 64.1224424,54.6024281 64.1918769,55.4356421 L58.0122062,55.4356421 L58.0122062,60.5737953 L65.2333944,60.5737953 C68.4273816,70.6417981 77.8010394,77.6546829 89.4660358,77.6546829 C96.6177896,77.6546829 104.047281,74.2523923 109.116,68.9753701 L102.728026,61.9624853 C99.1868662,65.4342104 94.3958855,67.6561145 90.0215118,67.6561145 Z" id="0€" fill="#FFBE00"></path>
                </g>
            </g>
        </g>
    </g>
</svg>