<svg xmlns="http://www.w3.org/2000/svg" width="83" height="102" viewBox="0 0 83 102">
    <path fill="#3D68FF" fill-rule="nonzero" d="M80.514 21.08c.9 0 1.63-.73 1.63-1.63V8.03c0-4.428-3.673-8.03-8.187-8.03H8.127C3.57 0 0 3.527 0 8.03v72.82c0 4.548 3.646 8.247 8.127 8.247h15.994v11.3a1.63 1.63 0 0 0 2.36 1.458l7.963-3.982 7.963 3.982a1.63 1.63 0 0 0 2.359-1.458V89.094l29.191-.051c4.514 0 8.186-3.675 8.186-8.193V69.43c0-.9-.73-1.63-1.63-1.63H69.106V21.08h11.409zm-1.63-13.05v9.79h-9.78V8.137a4.887 4.887 0 0 1 4.857-4.878c2.715.001 4.923 2.14 4.923 4.77zM42.369 73.969a1.638 1.638 0 0 0-.57.508 11.379 11.379 0 0 1-14.923-.311 11.441 11.441 0 0 1-3.765-8.462c0-6.291 5.118-11.409 11.409-11.409 6.29 0 11.409 5.118 11.409 11.409a11.41 11.41 0 0 1-3.56 8.265zm-.863 23.791l-6.333-3.166a1.63 1.63 0 0 0-1.458 0L27.38 97.76V78.514a14.632 14.632 0 0 0 14.125.083V97.76zm3.26-21.57a14.672 14.672 0 0 0 4.422-10.486c0-8.088-6.58-14.669-14.668-14.669-8.089 0-14.669 6.58-14.669 14.669 0 3.87 1.548 7.593 4.27 10.337v9.797H8.127c-2.684 0-4.867-2.238-4.867-4.988V8.03c0-2.675 2.138-4.77 4.867-4.77h59.35a8.094 8.094 0 0 0-1.632 4.878V80.85c0 1.855.619 3.569 1.657 4.945l-22.736.04v-9.646zm34.118-5.13v9.79c0 2.673-2.254 4.93-4.925 4.933-2.677-.012-4.854-2.224-4.854-4.933v-9.79h9.779zM18.307 20.773a1.63 1.63 0 0 1-.285-2.286l5.072-6.52a1.63 1.63 0 0 1 2.573 0l3.783 4.865 3.785-4.865a1.63 1.63 0 0 1 2.573 0l3.784 4.865 3.783-4.865a1.63 1.63 0 0 1 2.573 0l5.07 6.52a1.63 1.63 0 1 1-2.573 2l-3.784-4.865-3.783 4.865a1.63 1.63 0 0 1-2.573 0l-3.783-4.865-3.786 4.866a1.63 1.63 0 0 1-2.573 0L24.38 15.62l-3.785 4.866a1.628 1.628 0 0 1-2.288.285zm37.976 5.74a1.63 1.63 0 0 1 0 3.26h-6.519a1.63 1.63 0 0 1 0-3.26h6.52zm0 6.52a1.63 1.63 0 0 1 0 3.259H12.821a1.63 1.63 0 0 1 0-3.26h43.462zm-6.519 6.519a1.63 1.63 0 0 1 0 3.26H19.341a1.63 1.63 0 0 1 0-3.26h30.423zm-36.943-9.78a1.63 1.63 0 0 1 0-3.26h30.424a1.63 1.63 0 0 1 0 3.26H12.82zM34.52 57.556c4.493 0 8.149 3.655 8.149 8.149 0 4.493-3.656 8.149-8.15 8.149-4.493 0-8.148-3.656-8.148-8.15 0-4.493 3.655-8.148 8.149-8.148zm0 13.038a4.895 4.895 0 0 0 4.89-4.89 4.895 4.895 0 0 0-4.89-4.889 4.895 4.895 0 0 0-4.89 4.89 4.895 4.895 0 0 0 4.89 4.89z"/>
</svg>
