<?xml version="1.0" encoding="UTF-8"?>
<svg width="88px" height="89px" viewBox="0 0 88 89" version="1.1" xmlns="http://www.w3.org/2000/svg" xmlns:xlink="http://www.w3.org/1999/xlink">
    <!-- Generator: sketchtool 41 (35326) - http://www.bohemiancoding.com/sketch -->
    <title>4176ED5A-CB1F-42FE-8E33-2CDBED956639</title>
    <desc>Created with sketchtool.</desc>
    <defs></defs>
    <g id="Home" stroke="none" stroke-width="1" fill="none" fill-rule="evenodd">
        <g transform="translate(-918.000000, -1691.000000)" id="layer-valeurs">
            <g transform="translate(0.000000, 1601.000000)">
                <g id="icon-evolutif" transform="translate(902.000000, 82.000000)">
                    <rect id="Rectangle-2" fill="#FFFFFF" opacity="0" x="0" y="0" width="120" height="105"></rect>
                    <g id="Group-3" transform="translate(16.000000, 8.000000)" fill="#FFBE00">
                        <path d="M38.3805333,10.4664 L38.3805333,0 C29.9833833,0.976033333 22.3026833,4.2898 16,9.2738 L23.4137,16.6875 C27.7420667,13.50575 32.8417667,11.3148667 38.3805333,10.4664 Z" id="Shape"></path>
                        <path d="M10.4664,39.3805333 C11.31635,33.8417667 13.50575,28.7420667 16.6875,24.4137 L9.2738,17 C4.2898,23.3041667 0.976033333,30.9833833 0,39.3805333 L10.4664,39.3805333 L10.4664,39.3805333 Z" id="Shape"></path>
                        <path d="M78.2624,19.2502167 C82.2926167,24.7726667 84.9403667,31.1599 85.9890833,37.8972 L78.4745167,37.8972 C77.5667167,33.1535 75.6695333,28.5937333 72.9387167,24.5768667 L78.2624,19.2502167 L78.2624,19.2502167 Z M78.4137,17 L71,24.4137 C74.1832333,28.7420667 76.3726333,33.84325 77.2211,39.3820167 L87.6875,39.3820167 C86.7114667,30.9833833 83.3977,23.3026833 78.4137,17 L78.4137,17 L78.4137,17 Z" id="Shape"></path>
                        <path d="M50.4833333,1.69841667 C57.2206333,2.7501 63.6078667,5.39785 69.1288333,9.42658333 L63.8007,14.7532333 C59.7853167,12.0179667 55.2270333,10.1222667 50.48185,9.21595 L50.48185,1.69841667 L50.4833333,1.69841667 Z M49,0 L49,10.4664 C54.5387667,11.31635 59.63995,13.50575 63.9683167,16.6875 L71.3820167,9.2738 C65.07785,4.2898 57.39715,0.976033333 49,0 L49,0 L49,0 Z" id="Shape"></path>
                        <path d="M85.9890833,51.4833333 C84.9403667,58.2206333 82.2926167,64.6078667 78.2624,70.1288333 L72.9342667,64.8007 C75.6695333,60.7853167 77.56375,56.2270333 78.47155,51.48185 L85.9890833,51.48185 L85.9890833,51.4833333 Z M87.6875,50 L77.2211,50 C76.3726333,55.5387667 74.18175,60.63995 71,64.9683167 L78.4137,72.3820167 C83.3977,66.07785 86.7114667,58.39715 87.6875,50 L87.6875,50 L87.6875,50 Z" id="Shape"></path>
                        <path d="M63.8021833,73.9342667 L69.1303167,79.2624 C63.6078667,83.2926167 57.2221167,85.9403667 50.4848167,86.9890833 L50.4848167,79.4745167 C55.2270333,78.56375 59.7853167,76.6695333 63.8021833,73.9342667 L63.8021833,73.9342667 Z M63.9683167,72 C59.63995,75.1832333 54.54025,77.3726333 49,78.2211 L49,88.6875 C57.39715,87.7114667 65.07785,84.3977 71.3820167,79.4137 L63.9683167,72 L63.9683167,72 L63.9683167,72 Z" id="Shape"></path>
                        <path d="M16.6875,64.9683167 C13.50575,60.63995 11.3148667,55.54025 10.4664,50 L0,50 C0.976033333,58.39715 4.2898,66.07785 9.2738,72.3820167 L16.6875,64.9683167 L16.6875,64.9683167 Z" id="Shape"></path>
                        <path d="M23.57835,73.9342667 C27.5952167,76.6695333 32.1549833,78.56375 36.8986833,79.47155 L36.8986833,86.9876 C30.1613833,85.9359167 23.77415,83.2881667 18.2517,79.2609167 L23.57835,73.9342667 L23.57835,73.9342667 Z M23.4137,72 L16,79.4137 C22.3041667,84.3977 29.9833833,87.7114667 38.3805333,88.6875 L38.3805333,78.2211 C32.84325,77.3726333 27.74355,75.1832333 23.4137,72 L23.4137,72 L23.4137,72 Z" id="Shape"></path>
                    </g>
                </g>
            </g>
        </g>
    </g>
</svg>