<?xml version="1.0" encoding="UTF-8"?>
<svg width="73px" height="107px" viewBox="0 0 73 107" version="1.1" xmlns="http://www.w3.org/2000/svg" xmlns:xlink="http://www.w3.org/1999/xlink">
    <!-- Generator: sketchtool 41 (35326) - http://www.bohemiancoding.com/sketch -->
    <title>690F75AF-FA82-4EC1-A724-41D8B4397CCE</title>
    <desc>Created with sketchtool.</desc>
    <defs></defs>
    <g id="Home" stroke="none" stroke-width="1" fill="none" fill-rule="evenodd">
        <g transform="translate(-684.000000, -1682.000000)" id="layer-valeurs">
            <g transform="translate(0.000000, 1601.000000)">
                <g id="icon-reference" transform="translate(660.000000, 81.000000)">
                    <rect id="Rectangle-2" fill="#FFFFFF" opacity="0" x="0" y="1" width="120" height="105"></rect>
                    <path d="M72.275,78.2590815 L72.275,78.2590815 L65.225,87.5590815 C64.925,87.8590815 64.925,88.3090815 65.225,88.6090815 L77.975,106.159082 C78.425,106.759082 79.325,106.609082 79.475,106.009082 L83.375,95.8090815 C83.525,95.5090815 83.825,95.2090815 84.125,95.2090815 L95.075,94.6090815 C95.825,94.6090815 96.125,93.7090815 95.675,93.2590815 L82.325,74.3590815 C82.025,73.9090815 81.275,73.9090815 80.975,74.2090815 C78.875,76.7590815 75.725,78.2590815 72.275,78.2590815 L72.275,78.2590815 Z" id="Shape" fill="#FFBE00"></path>
                    <path d="M52.8828091,77.1875 L52.7328091,77.0375 L52.4328091,77.1875 C51.0828091,77.7875 49.5828091,78.0875 48.0828091,78.0875 C44.7828091,78.0875 41.7828091,76.7375 39.6828091,74.3375 C39.2328091,73.8875 38.6328091,73.8875 38.3328091,74.3375 L24.6828091,92.9375 C24.2328091,93.5375 24.6828091,94.2875 25.2828091,94.2875 L36.2328091,94.8875 C36.5328091,94.8875 36.8328091,95.1875 36.9828091,95.4875 L40.8828091,105.6875 C41.1828091,106.2875 42.0828091,106.4375 42.3828091,105.8375 L60.3828091,81.2375 C60.6828091,80.7875 60.5328091,80.3375 59.9328091,80.1875 C58.4328091,79.8875 54.5328091,78.8375 52.8828091,77.1875 L52.8828091,77.1875 Z" id="Shape" fill="#FFBE00"></path>
                    <path d="M95.9,38.9 C97.1,37.7 97.1,35.75 95.9,34.55 L93.5,32.15 C92.6,31.25 92.3,29.9 92.9,28.7 L94.25,25.55 C94.85,23.9 94.1,22.1 92.6,21.5 L89.15,20 C87.95,19.55 87.2,18.35 87.2,17.15 L87.2,13.25 C87.2,11.6 85.85,10.1 84.05,10.1 L80.6,10.1 C79.4,10.1 78.2,9.35 77.75,8.15 L76.4,5 C75.8,3.35 74,2.6 72.35,3.35 L68.9,4.7 C67.7,5.15 66.35,4.85 65.45,3.95 L62.9,1.4 C61.7,0.2 59.75,0.2 58.55,1.4 L56.15,3.8 C55.25,4.7 53.9,5 52.7,4.4 L49.55,3.05 C47.9,2.45 46.1,3.2 45.5,4.7 L44,8.15 C43.4,9.5 42.2,10.25 41,10.25 L37.25,10.25 C35.6,10.25 34.1,11.6 34.1,13.4 L34.1,16.85 C34.1,18.05 33.35,19.25 32.15,19.7 L29,21.05 C27.35,21.65 26.6,23.45 27.35,25.1 L28.7,28.55 C29.15,29.75 28.85,31.1 27.95,32 L25.4,34.55 C24.2,35.75 24.2,37.7 25.4,38.9 L27.8,41.3 C28.7,42.2 29,43.55 28.4,44.75 L27.05,47.9 C26.45,49.55 27.2,51.35 28.7,51.95 L32.15,53.45 C33.35,53.9 34.1,55.1 34.1,56.3 L34.1,60.05 C34.1,61.7 35.45,63.2 37.25,63.2 L40.7,63.2 C41.9,63.2 43.1,63.95 43.55,65.15 L44.9,68.3 C45.5,69.95 47.3,70.7 48.95,69.95 L52.4,68.6 C53.6,68.15 54.95,68.45 55.85,69.35 L58.4,71.9 C59.6,73.1 61.55,73.1 62.75,71.9 L65.15,69.5 C66.05,68.6 67.4,68.3 68.6,68.9 L71.75,70.25 C73.4,70.85 75.2,70.1 75.8,68.6 L77.3,65.15 C77.75,63.95 78.95,63.2 80.15,63.2 L83.9,63.2 C85.55,63.2 87.05,61.85 87.05,60.05 L87.05,56.6 C87.05,55.4 87.8,54.2 89,53.75 L92.15,52.4 C93.8,51.8 94.55,50 93.8,48.35 L92.45,44.9 C92,43.7 92.3,42.35 93.2,41.45 L95.9,38.9 L95.9,38.9 Z M60.65,59.75 C47.9,59.75 37.7,49.4 37.7,36.8 C37.7,24.05 48.05,13.85 60.65,13.85 C73.25,13.85 83.6,24.2 83.6,36.8 C83.6,49.4 73.4,59.75 60.65,59.75 L60.65,59.75 Z" id="Shape" fill="#FFBE00"></path>
                </g>
            </g>
        </g>
    </g>
</svg>