<?xml version="1.0" encoding="UTF-8"?>
<svg width="74px" height="85px" viewBox="0 0 74 85" version="1.1" xmlns="http://www.w3.org/2000/svg" xmlns:xlink="http://www.w3.org/1999/xlink">
    <!-- Generator: sketchtool 41 (35326) - http://www.bohemiancoding.com/sketch -->
    <title>08C5EEC0-C8F5-42AE-AE5E-FCD077A7400C</title>
    <desc>Created with sketchtool.</desc>
    <defs></defs>
    <g id="Home" stroke="none" stroke-width="1" fill="none" fill-rule="evenodd">
        <g transform="translate(-200.000000, -1691.000000)" id="layer-valeurs">
            <g transform="translate(0.000000, 1601.000000)">
                <g id="icon-cafe" transform="translate(177.000000, 82.000000)">
                    <rect id="Rectangle-2" fill="#FFFFFF" opacity="0" x="0" y="0" width="120" height="105"></rect>
                    <path d="M94.7949393,69.3779352 C94.7949393,80.7139676 83.4589069,80.7139676 83.4589069,80.7139676 L75.2969636,80.7139676 C74.5034413,87.0621457 69.0621457,92.05 62.487247,92.05 L44.6896761,92.05 C37.5479757,92.05 31.7665992,86.2686235 31.7665992,79.1269231 L23.7180162,43.6451417 C23.7180162,40.4710526 26.8921053,40.4710526 26.8921053,40.4710526 L80.1714575,40.4710526 C80.1714575,40.4710526 83.3455466,40.4710526 83.3455466,43.6451417 L82.3253036,48.5196356 L85.0459514,48.5196356 C85.0459514,48.5196356 96.3819838,48.5196356 96.3819838,59.855668 L94.7949393,69.3779352 L94.7949393,69.3779352 Z M85.1593117,54.8678138 L81.0783401,54.8678138 L76.7706478,74.2524291 L83.5722672,74.2524291 C86.292915,74.2524291 88.4467611,72.098583 88.4467611,69.3779352 L90.0338057,59.7423077 C89.9204453,57.0216599 87.7665992,54.8678138 85.1593117,54.8678138 L85.1593117,54.8678138 Z M67.5884615,29.4751012 C63.0540486,32.7625506 66.9082996,35.4831984 66.9082996,35.4831984 C62.3738866,35.4831984 61.0135628,29.4751012 64.3010121,28.2281377 C67.5884615,26.8678138 66.2281377,24.2605263 66.2281377,24.2605263 C71.4427126,26.8678138 67.5884615,29.4751012 67.5884615,29.4751012 L67.5884615,29.4751012 Z M60.1066802,24.3738866 C52.1714575,30.4953441 58.9730769,35.4831984 58.9730769,35.4831984 C51.0378543,35.4831984 48.7706478,24.3738866 54.438664,21.8799595 C60.1066802,19.3860324 57.8394737,14.5115385 57.8394737,14.5115385 C66.9082996,19.3860324 60.1066802,24.3738866 60.1066802,24.3738866 L60.1066802,24.3738866 Z M49.3374494,20.9730769 C38.001417,29.0216599 47.7504049,35.4831984 47.7504049,35.4831984 C36.4143725,35.4831984 33.1269231,20.9730769 41.2888664,17.6856275 C49.4508097,14.5115385 46.1633603,8.05 46.1633603,8.05 C59.0864372,14.5115385 49.3374494,20.9730769 49.3374494,20.9730769 L49.3374494,20.9730769 Z" fill="#FFBE00"></path>
                </g>
            </g>
        </g>
    </g>
</svg>