<?xml version="1.0" encoding="UTF-8"?>
<svg width="111px" height="67px" viewBox="0 0 111 67" version="1.1" xmlns="http://www.w3.org/2000/svg" xmlns:xlink="http://www.w3.org/1999/xlink">
    <!-- Generator: sketchtool 41 (35326) - http://www.bohemiancoding.com/sketch -->
    <title>A67733E7-FD0C-4542-823E-AE3DE166D190</title>
    <desc>Created with sketchtool.</desc>
    <defs></defs>
    <g id="Home" stroke="none" stroke-width="1" fill="none" fill-rule="evenodd">
        <g transform="translate(-422.000000, -1702.000000)" id="layer-valeurs">
            <g transform="translate(0.000000, 1601.000000)">
                <g id="icon-monde" transform="translate(417.000000, 82.000000)">
                    <rect id="Rectangle-2" fill="#FFFFFF" opacity="0" x="0.726666667" y="0" width="120" height="105"></rect>
                    <path d="M82.3866667,70.81244 C79.8853333,66.9184 76.856,64.38848 72.5213333,62.95602 C72.5213333,62.95602 69.252,61.26628 60.7093333,61.26628 C52.1653333,61.26628 48.8946667,62.95602 48.8946667,62.95602 C44.5613333,64.40322 41.5306667,66.91706 39.0266667,70.81244 C38.036,72.3454 37.5,75.42874 37.464,77.0756 C37.4773333,77.5044 37.464,78.00154 37.464,78.49734 L37.464,81.33814 L37.464,79.37772 C37.464,82.51868 39.5973333,85.06066 42.2293333,85.06066 L79.1813333,85.06066 C81.8146667,85.06066 83.9466667,82.51868 83.9466667,79.37772 L83.9466667,81.33814 L83.9466667,78.49734 C83.9466667,78.00154 83.9373333,77.5044 83.9466667,77.0756 C83.912,75.42874 83.3773333,72.34406 82.3866667,70.81244 M47.6826667,39.7097 C47.6826667,46.99126 52.1986667,57.6858 60.7093333,57.6858 C69.0693333,57.6858 73.7306667,46.98992 73.7306667,39.7097 C73.7306667,32.42948 67.9013333,26.51874 60.7093333,26.51874 C53.5146667,26.51874 47.6826667,32.42948 47.6826667,39.7097 Z M46.3413333,59.62478 C44.2413333,56.94612 41.7226667,55.10898 38.3506667,53.99678 C38.3506667,53.99678 35.2946667,52.41692 27.312,52.41692 C19.3253333,52.41692 16.2693333,53.99678 16.2693333,53.99678 C12.22,55.3475 9.38666667,57.69786 7.048,61.3373 C6.12133333,62.76976 5.62133333,65.6521 5.58666667,67.19176 C5.59866667,67.59376 5.58666667,68.0574 5.58666667,68.52104 L5.58666667,69.34246 C5.58666667,72.27706 7.58,74.65288 10.0413333,74.65288 L32.3413333,74.65288 C32.6586667,72.7943 33.2226667,70.75348 34.0253333,69.51398 C37.1586667,64.63504 40.9533333,61.4713 46.3413333,59.62478 Z M27.3106667,49.0696 C35.124,49.0696 39.48,39.07186 39.48,32.26868 C39.48,25.46416 34.0306667,19.93934 27.3106667,19.93934 C20.5853333,19.93934 15.1346667,25.46416 15.1346667,32.26868 C15.136,39.0732 19.3573333,49.0696 27.3106667,49.0696 Z M75.112,59.62478 C77.212,56.94612 79.7306667,55.10898 83.1026667,53.99678 C83.1026667,53.99678 86.1573333,52.41692 94.1413333,52.41692 C102.126667,52.41692 105.184,53.99678 105.184,53.99678 C109.234667,55.3475 112.066667,57.69786 114.405333,61.3373 C115.332,62.76976 115.832,65.6521 115.866667,67.19176 C115.854667,67.59376 115.866667,68.0574 115.866667,68.52104 L115.866667,69.34246 C115.866667,72.27706 113.873333,74.65288 111.412,74.65288 L89.1133333,74.65288 C88.796,72.7943 88.232,70.75348 87.4293333,69.51398 C84.2946667,64.63504 80.5,61.4713 75.112,59.62478 Z M94.1426667,49.0696 C86.3293333,49.0696 81.9733333,39.07186 81.9733333,32.26868 C81.9733333,25.46416 87.4226667,19.93934 94.1426667,19.93934 C100.868,19.93934 106.318667,25.46416 106.318667,32.26868 C106.318667,39.0732 102.097333,49.0696 94.1426667,49.0696 Z" id="Combined-Shape" fill="#FFBE00"></path>
                </g>
            </g>
        </g>
    </g>
</svg>