<svg width="92px" height="54px" viewBox="0 0 92 54" version="1.1" xmlns="http://www.w3.org/2000/svg" xmlns:xlink="http://www.w3.org/1999/xlink">
    <g id="Home" stroke="none" stroke-width="1" fill="none" fill-rule="evenodd">
        <g transform="translate(-130.000000, -35.000000)" id="MenuBar">
            <g>
                <g id="Logo_de_la_République_française" transform="translate(130.000000, 35.000000)">
                    <rect id="rect6" fill="#FFFFFF" x="0" y="0" width="91.6688742" height="30.9933775"></rect>
                    <path d="M73.2020901,53.9654865 C73.1515113,53.9448574 73.1483762,53.8896487 73.1908728,53.7677481 C73.244706,53.6133296 73.2695245,53.6012714 73.4764411,53.6290248 C73.664106,53.6541962 73.7193338,53.636186 73.7977411,53.5242403 C73.9485179,53.3089776 73.8321497,53.1536865 73.5585318,53.2050175 C73.3486768,53.2443868 73.3453987,53.2420313 73.3858272,53.0809558 C73.5142172,52.5693952 73.5264119,52.5975747 73.1438344,52.5217125 C72.6884046,52.4314037 72.2526437,52.1762895 71.9179331,51.8040155 C71.4153576,51.2450291 71.2410616,50.6795555 71.2911517,49.7705323 C71.3166675,49.3074584 71.3561126,49.1269148 71.5021272,48.8048877 C71.9489742,47.8193936 72.9696338,47.3168628 74.341496,47.406898 C74.6385199,47.4263917 75.0156437,47.4769663 75.179551,47.5192866 L75.4775642,47.5962324 L75.4947,48.1475569 L75.5118417,48.6988814 L75.3307927,48.6988814 C75.2240146,48.6988814 75.1497497,48.6677795 75.1497497,48.6230573 C75.1497497,48.4682251 74.7847669,48.1098999 74.5266457,48.0113243 C74.1934967,47.8840917 73.5471417,47.9130979 73.2233682,48.0698112 C72.4833298,48.4279969 72.1459252,49.3578232 72.3709252,50.4189656 C72.4754623,50.9119862 72.6481788,51.2427105 72.9783715,51.5821381 C73.291351,51.9038696 73.6070781,52.0337354 74.0801325,52.0353209 C74.580449,52.0369957 74.9307159,51.8359631 75.1510192,51.420696 C75.3006934,51.1385483 75.3540854,51.1039359 75.4984728,51.1954343 C75.5656689,51.2380174 75.5662887,51.336115 75.5022278,51.7887423 L75.4254715,52.3310323 L75.1535046,52.4250131 C75.0039258,52.4767023 74.6602629,52.5351409 74.3898159,52.5548766 C73.9235026,52.5889049 73.898094,52.5980021 73.898094,52.730913 C73.898094,52.8370242 73.9310662,52.8710668 74.0338391,52.8710668 C74.2329,52.8710668 74.4196351,53.0252267 74.4637232,53.225963 C74.5149457,53.4591972 74.3489642,53.8042458 74.1314265,53.9167387 C73.9740815,53.998107 73.3609371,54.0302692 73.2020901,53.9654865 L73.2020901,53.9654865 Z M37.7408164,53.714644 C37.2248374,53.5625273 36.7798411,53.3330571 36.2446015,52.9430948 L35.7821976,52.606198 L35.0669658,52.5695132 C34.2739162,52.5288362 33.9968187,52.4403089 33.4838062,52.0637227 C32.3536995,51.234148 32.312669,49.1231098 33.406681,48.0956168 C34.2302668,47.3221079 35.6791488,47.162287 36.7220581,47.7299092 C38.1300127,48.4962145 38.2794896,50.7568297 37.000502,51.9409472 C36.8020287,52.1246986 36.6076436,52.2751452 36.5685354,52.2752728 C36.4467165,52.27569 37.8474115,53.0418862 38.2569717,53.1988891 C38.7094625,53.3723489 39.2381416,53.395529 39.6254211,53.2588887 C39.9071485,53.1594894 39.9553021,53.171401 40.0025777,53.3521854 C40.0301923,53.4577828 39.9819958,53.5022595 39.6968585,53.6343079 C39.2473895,53.8424601 38.3055723,53.881141 37.7408164,53.714644 L37.7408164,53.714644 Z M35.9930712,51.8726515 C36.9911003,51.351275 37.1811058,49.6816188 36.3637478,48.615365 C35.6062631,47.6272156 34.2786272,47.7768058 33.7796064,48.9065305 C33.3287338,49.9272526 33.8431488,51.505293 34.7629256,51.9230026 C35.1351906,52.0920632 35.6102934,52.0726172 35.9930712,51.8726515 Z M4.66961483,52.4903466 C4.39586106,52.3708653 4.09552033,51.9991897 3.62090086,51.1925495 C2.89173636,49.9532954 2.75507821,49.7717291 2.5515,49.7717291 L2.37491285,49.7717291 L2.37611146,50.4422589 C2.37829887,51.6660825 2.50134914,52.08489 2.88718748,52.1817288 C2.99040199,52.2076345 3.03054199,52.2591133 3.03054199,52.3655797 L3.03054199,52.5134509 L1.80868768,52.5134509 L0.586833348,52.5134509 L0.586833348,52.3730664 C0.586833348,52.266746 0.632364437,52.2196236 0.774476821,52.1788667 C0.87768,52.149268 1.01849126,52.0495337 1.08739073,51.9572342 C1.20965424,51.793445 1.21266119,51.7338274 1.21266119,49.4736592 C1.21266119,47.2134725 1.20965543,47.1538758 1.08739073,46.9901408 C1.01849126,46.8978723 0.87768,46.7981636 0.774476821,46.768565 C0.637356755,46.7292397 0.586833348,46.679524 0.586833348,46.5839213 C0.586833348,46.4536752 0.593568447,46.4529195 2.10069298,46.414139 C3.7047743,46.3728636 4.05825497,46.4033938 4.51038457,46.6222661 C4.90536596,46.8134732 5.23458894,47.3928354 5.23550801,47.8983284 C5.2365594,48.4770439 4.80618119,49.1306519 4.23828,49.4128007 L3.94100523,49.5604949 L4.59804219,50.5452511 C5.37101404,51.703768 5.6137649,52.0132488 5.84214974,52.1313515 C6.05535258,52.2416032 6.07583384,52.4820856 5.87656848,52.5354866 C5.63683649,52.5997323 4.85307894,52.5704197 4.66961483,52.4903466 L4.66961483,52.4903466 Z M3.17820517,49.1688256 C3.97722517,48.9469995 4.24689795,47.8366832 3.64220642,47.2584064 C3.35795543,46.9865724 3.05610318,46.8879032 2.67085013,46.9408887 L2.37491285,46.9815908 L2.37491285,48.108448 L2.37491285,49.2353052 L2.65802543,49.2349476 C2.81373735,49.2347688 3.04781841,49.2049985 3.17820517,49.1688006 L3.17820517,49.1688256 Z M16.9109428,52.4907674 C16.5842785,52.3740338 16.2762729,52.1661612 16.1132168,51.9523838 C15.8168861,51.563874 15.7857675,51.3596038 15.7821449,49.7791359 C15.7783601,48.1272151 15.7472803,47.9457167 15.4440834,47.8048417 C15.3222819,47.7482483 15.2512033,47.6716899 15.2504064,47.5962324 C15.2491965,47.4816523 15.2884639,47.4770271 16.2623819,47.4770271 C17.2734133,47.4770271 17.275615,47.4773251 17.2755954,47.611133 C17.2755817,47.7012284 17.2398642,47.745239 17.1667591,47.745239 C17.1069109,47.745239 16.9929209,47.8144419 16.9134479,47.8990228 L16.7689526,48.052806 L16.7689526,49.6722016 C16.7689526,51.1962377 16.7762438,51.3054966 16.8927741,51.5276428 C17.0745145,51.8741017 17.4370524,52.052313 17.9032887,52.0243766 C18.4049136,51.9943208 18.6762552,51.8164206 18.8765428,51.3862796 C19.0302306,51.0562186 19.0316527,51.039869 19.0327476,49.5903117 C19.0337311,48.2923115 19.0220126,48.1093653 18.9287946,47.967086 C18.8710123,47.8788926 18.7570222,47.7899905 18.6754834,47.7695253 C18.5829115,47.746291 18.5272307,47.6899719 18.5272307,47.6195722 C18.5272307,47.5145499 18.582337,47.5068284 19.3318665,47.5068284 C20.081396,47.5068284 20.1365023,47.5145499 20.1365023,47.6195722 C20.1365023,47.6897734 20.0809252,47.7462654 19.9892158,47.7692827 C19.7147497,47.8381697 19.6928356,47.9659405 19.6603468,49.6867905 L19.6298797,51.3005275 L19.4504525,51.6511174 C19.2386783,52.064913 18.8956842,52.3510093 18.4541799,52.4821214 C18.0817546,52.5927201 17.2099132,52.5976045 16.9109428,52.4907674 L16.9109428,52.4907674 Z M40.1559759,52.4907674 C39.825683,52.3727368 39.5207684,52.1654567 39.352056,51.9442635 C39.0711052,51.5759179 39.0308239,51.3035249 39.027178,49.7473558 C39.0233873,48.1293817 38.9913449,47.9452667 38.6891166,47.8048417 C38.567315,47.7482483 38.4962364,47.6716899 38.4954395,47.5962324 C38.4942296,47.4816523 38.533497,47.4770271 39.507415,47.4770271 C40.5088701,47.4770271 40.5206481,47.478541 40.5206285,47.6069877 C40.5206148,47.6943145 40.4785764,47.7431964 40.3924822,47.7559943 C40.3220128,47.7664695 40.2080227,47.8507053 40.1391709,47.9431854 C40.0218562,48.1007587 40.0127489,48.1989582 39.9943121,49.5051193 C39.9716613,51.1098377 40.016461,51.4482658 40.2883498,51.7263604 C40.7802242,52.2294616 41.8025742,52.0889299 42.0922937,51.4783913 C42.2747625,51.0938672 42.3215976,50.6121413 42.2991548,49.3507156 C42.2753919,48.0150989 42.2355177,47.8485852 41.9205165,47.7695253 C41.8279446,47.746291 41.7722638,47.6899719 41.7722638,47.6195722 C41.7722638,47.5145499 41.8273701,47.5068284 42.5768996,47.5068284 C43.3244795,47.5068284 43.3815354,47.5147681 43.3815354,47.6188027 C43.3815354,47.6864142 43.3123903,47.7594179 43.2070105,47.8030679 C43.1110216,47.8428276 43.0119572,47.9198396 42.9868681,47.9742062 C42.9617789,48.0285721 42.9263249,48.7992743 42.9080817,49.686877 L42.8749128,51.3007009 L42.6954856,51.6512044 C42.4837061,52.0649082 42.140644,52.3510307 41.699213,52.4821214 C41.3267877,52.5927201 40.4549464,52.5976045 40.1559759,52.4907674 L40.1559759,52.4907674 Z M59.0220173,52.488264 C58.7837736,52.3845375 58.5004047,52.0313323 58.0619497,51.2915948 C57.4957186,50.3362758 57.4313895,50.2500981 57.283855,50.2492864 C57.1518769,50.2485592 57.1497491,50.2604005 57.1497491,50.995496 C57.1497491,51.8867046 57.224157,52.1379334 57.5047246,52.1940469 C57.6457981,52.2222622 57.6861729,52.2618324 57.6861729,52.3718928 L57.6861729,52.5134491 L56.6729279,52.5134491 L55.6596828,52.5134491 L55.6596828,52.3718928 C55.6596828,52.2618324 55.7000517,52.2222622 55.8411312,52.1940469 C56.1806934,52.1261344 56.2047372,51.9647328 56.184353,49.8900177 L56.1663054,48.0526665 L56.0218107,47.8989519 C55.9423365,47.8144091 55.8283464,47.7452372 55.7684994,47.7452372 C55.7010352,47.7452372 55.6596828,47.7018703 55.6596828,47.6311172 C55.6596828,47.5327877 55.7201736,47.5113284 56.0968683,47.4760293 C56.3373173,47.4534972 57.0011418,47.4453066 57.5720338,47.4578279 C58.5001723,47.4781846 58.6362868,47.4944531 58.8583067,47.6115664 C59.2527153,47.8196142 59.4742524,48.225296 59.4742524,48.7394893 C59.4742524,49.227927 59.1942213,49.6569242 58.6858762,49.9472511 C58.5235961,50.0399344 58.418761,50.1330362 58.4529133,50.1541432 C58.4870656,50.1752509 58.7504438,50.547097 59.0381994,50.9804684 C59.6030901,51.8312205 59.9170709,52.2154359 60.0474159,52.2154359 C60.162306,52.2154359 60.1521377,52.4921543 60.0356026,52.5368736 C59.8664623,52.6017803 59.2104809,52.5703214 59.0220173,52.488264 L59.0220173,52.488264 Z M57.9204411,49.6844642 C58.1573557,49.5619522 58.3899968,49.2673035 58.4336855,49.03443 C58.4897835,48.7354178 58.3581749,48.3409794 58.1307431,48.126485 C57.9201312,47.9278526 57.7166895,47.8708993 57.3645987,47.9120042 L57.1497491,47.9370868 L57.1497491,48.8544074 L57.1497491,49.7717273 L57.4507186,49.7717273 C57.616253,49.7717273 57.8276279,49.7324587 57.9204411,49.6844642 Z M84.4509576,52.4779504 C84.2724119,52.4299595 84.1156272,52.3799917 84.1025503,52.3669107 C84.0894675,52.3538297 84.0458742,52.0864164 84.0056722,51.7726585 L83.9325815,51.2021909 L84.1007682,51.2021909 C84.1932715,51.2021909 84.268955,51.2244137 84.268955,51.2515752 C84.268955,51.4066476 84.6600795,51.8634066 84.8868854,51.9732012 C85.4999046,52.2699586 86.2361344,51.9905777 86.2356219,51.4613903 C86.2350258,51.1141184 86.0666424,50.9065528 85.4923649,50.5465617 C84.6865669,50.0414412 84.3754113,49.7747217 84.2147046,49.4513607 C84.0544808,49.1289729 84.0258536,48.6272658 84.1467815,48.2608496 C84.2266013,48.0189964 84.601049,47.6578413 84.9162636,47.518681 C85.233606,47.3785826 86.2268066,47.3831028 86.6381603,47.5265175 L86.9510742,47.6356119 L86.9510742,48.167246 L86.9510742,48.6988796 L86.7787272,48.6988796 C86.6449371,48.6988796 86.5980775,48.6657882 86.5692596,48.5509661 C86.5067781,48.3020416 86.1872662,47.9912114 85.9198411,47.9192007 C85.2044245,47.7265601 84.6314166,48.4605316 85.0805344,48.9942763 C85.1663086,49.0962123 85.5551503,49.3955952 85.9446358,49.659573 C86.6990682,50.1709023 86.9777821,50.4493373 87.0711735,50.7849723 C87.2766775,51.5235308 86.935345,52.1758609 86.1992881,52.4512532 C85.8043311,52.5990272 84.9499391,52.6120736 84.4509576,52.4779504 L84.4509576,52.4779504 Z M6.36829033,52.3527658 C6.36829033,52.2471123 6.40166126,52.2154377 6.51297099,52.2154377 C6.59828086,52.2154377 6.70834371,52.1509935 6.78118291,52.058393 C6.90020523,51.907081 6.90471417,51.8329663 6.90471417,50.0279847 C6.90471417,48.7180591 6.8838598,48.115465 6.83537603,48.0244333 C6.74658,47.8577128 6.60506364,47.7495417 6.47259497,47.7471344 C6.40157722,47.745841 6.36829033,47.6976862 6.36829033,47.5962324 L6.36829033,47.4472258 L8.1563698,47.4472258 L9.94444927,47.4472258 L9.94444927,48.0770124 L9.94444927,48.706799 L9.78796669,48.6879395 C9.67010543,48.673735 9.61494139,48.6189709 9.56445675,48.4660532 C9.4469549,48.1101395 9.25075609,48.019466 8.54130993,47.9932039 L7.91795921,47.9701293 L7.91795921,48.8189849 L7.91795921,49.6678399 L8.39736596,49.6400877 C8.9198547,49.6098411 9.18297,49.48299 9.21846219,49.244226 C9.23251291,49.1497039 9.27940887,49.116122 9.39727013,49.1161828 L9.55703205,49.1162424 L9.55703205,49.8910017 L9.55703205,50.6657611 L9.39312477,50.6657533 C9.26091656,50.6657474 9.22921748,50.6387146 9.22921748,50.5259768 C9.22921748,50.2598211 9.03047364,50.1611662 8.44821179,50.1382919 L7.91795921,50.1174608 L7.91795921,50.9544489 C7.91795921,51.9632684 7.92722503,51.9770038 8.60775735,51.9770038 C9.27890225,51.9770038 9.62876742,51.8070308 9.80392411,51.395878 C9.89244894,51.1880793 10.098816,51.128727 10.1618315,51.2929425 C10.2034144,51.401306 10.0354452,52.1010232 9.90928371,52.344993 L9.81999715,52.5176541 L8.09414404,52.5038621 L6.36829033,52.4900706 L6.36829033,52.3527425 L6.36829033,52.3527658 Z M10.9576943,52.3718946 C10.9576943,52.262873 10.9980453,52.2222681 11.1332611,52.1952252 C11.4477342,52.1323301 11.4626682,52.0440771 11.4828425,50.129345 C11.5038477,48.1357275 11.4783425,47.9561489 11.1526927,47.8048417 C11.016875,47.7417362 10.9598948,47.6743244 10.9589841,47.5756707 L10.9576967,47.4359036 L12.313657,47.4606161 C13.7797635,47.487336 13.8993664,47.5105113 14.2967313,47.8448714 C14.7334399,48.2123378 14.8466509,48.9431938 14.5510051,49.4863921 C14.2931432,49.9601694 13.8473249,50.2117575 13.1366193,50.2845717 L12.7643328,50.3227132 L12.6718349,50.0919234 L12.5793364,49.861133 L12.7995783,49.8289172 C13.0793913,49.7879875 13.3832491,49.6107852 13.5441817,49.3946833 C13.6357105,49.2717779 13.668508,49.1428866 13.6655148,48.9178621 C13.6577938,48.3375123 13.3315462,47.9825762 12.762447,47.9353816 L12.4403799,47.9086736 L12.4589718,49.8981481 C12.4792486,52.0678603 12.4888327,52.1288315 12.8202795,52.1967511 C12.9436504,52.2220315 12.9841868,52.2653472 12.9841868,52.3718946 L12.9841868,52.5134509 L11.9709417,52.5134509 L10.9576967,52.5134509 L10.9576967,52.3718946 L10.9576943,52.3718946 Z M20.851734,52.3501152 C20.851734,52.257805 20.8871571,52.2154377 20.9643366,52.2154377 C21.0262673,52.2154377 21.1402574,52.1641973 21.2176478,52.101571 L21.3583566,51.9877037 L21.3764066,50.1403059 C21.3966125,48.0722579 21.3737364,47.9161389 21.0315844,47.7869907 C20.9242645,47.7464817 20.851734,47.6763014 20.851734,47.6129664 C20.851734,47.5164757 20.9343487,47.5054742 21.7606744,47.4919277 C23.5000454,47.4634132 23.8640728,47.4829319 24.1469642,47.6198774 C24.5136564,47.7973901 24.6849932,48.0543956 24.7152189,48.4722614 C24.7288041,48.6600759 24.7233636,48.8797057 24.7031291,48.9603272 C24.6444091,49.1942849 24.3665976,49.4799842 24.0594389,49.6222927 L23.7755181,49.7538352 L24.0160071,49.8258876 C24.5906368,49.9980511 24.957003,50.598925 24.881102,51.2447245 C24.8170393,51.7898003 24.5831281,52.0963355 24.0404758,52.3463483 C23.7554756,52.4776542 23.6793487,52.4836746 22.2970983,52.4842212 L20.851734,52.4848172 L20.851734,52.3501403 L20.851734,52.3501152 Z M23.4803372,51.9013359 C23.7841099,51.698402 23.9046974,51.4220489 23.8708579,51.0063681 C23.8199489,50.3809945 23.3831545,50.0101397 22.6974964,50.0101397 L22.3332121,50.0101397 L22.3524066,50.9095812 C22.3708059,51.7717299 22.3774355,51.8137415 22.5123103,51.9228262 C22.7181487,52.0893054 23.2154917,52.078264 23.4803372,51.9013359 L23.4803372,51.9013359 Z M23.2342015,49.4246807 C23.600126,49.2844524 23.7927034,48.9979657 23.7546286,48.6504679 C23.7034681,48.1835372 23.3272115,47.924047 22.7013306,47.924047 L22.3418003,47.924047 L22.3418003,48.7286827 L22.3418003,49.5333185 L22.6547142,49.5300761 C22.8268168,49.528294 23.0875862,49.4808646 23.2342015,49.4246795 L23.2342015,49.4246807 Z M25.6795671,52.3535025 C25.6795534,52.2571726 25.7206065,52.2184554 25.8375612,52.2044958 C25.9263942,52.1938931 26.0503444,52.1119621 26.1206738,52.0173584 C26.2413632,51.8550139 26.2457738,51.784613 26.2457738,50.0206697 C26.2457738,48.5552617 26.2290493,48.1626757 26.161535,48.0432523 C26.0562695,47.857053 25.9192121,47.7495948 25.7838532,47.7471344 C25.7159825,47.7459006 25.6795486,47.6983955 25.6795486,47.611133 C25.6795486,47.4770271 25.6795486,47.4770271 26.7523963,47.4770271 C27.825244,47.4770271 27.825244,47.4770271 27.825244,47.611133 C27.825244,47.7042217 27.7898007,47.745239 27.7093621,47.745239 C27.6456272,47.745239 27.5182266,47.8099389 27.4262495,47.8890173 L27.2590188,48.032795 L27.2417233,49.9125636 L27.2244272,51.7923322 L27.3769552,51.8922727 C27.4976934,51.9713833 27.6267695,51.9865808 27.9962601,51.9651918 C28.5634275,51.9323585 28.829039,51.7919978 28.9870373,51.4416201 C29.0921591,51.208501 29.2033937,51.1518856 29.3604205,51.251577 C29.4193681,51.2890015 29.4097589,51.399127 29.3153293,51.7683427 C29.2493277,52.0264067 29.1538675,52.3008238 29.1031957,52.3781589 L29.0110649,52.5187687 L27.3453252,52.5012091 L25.6795862,52.4836496 L25.6795671,52.3535025 L25.6795671,52.3535025 Z M29.851734,52.3718946 C29.851734,52.2618342 29.8921059,52.222264 30.0331812,52.1940487 C30.362285,52.1282283 30.3881859,51.9656561 30.387935,49.9673521 C30.3877562,48.3078487 30.3800847,48.1797495 30.2705785,48.00015 C30.2061552,47.89449 30.08556,47.7910025 30.0025895,47.7701785 C29.8999311,47.7444129 29.851734,47.6915352 29.851734,47.6046715 C29.851734,47.4792199 29.8691386,47.4770271 30.8649791,47.4770271 C31.8608195,47.4770271 31.8782241,47.4792205 31.8782241,47.6046715 C31.8782241,47.6909446 31.830173,47.744376 31.7299715,47.7695253 C31.6484326,47.7899905 31.5344426,47.8788616 31.4766602,47.9670181 C31.3821083,48.1112714 31.3716016,48.3093745 31.3716016,49.9478597 C31.3716016,51.9715377 31.3958873,52.1338709 31.7079733,52.1962879 C31.8378916,52.2222717 31.8782241,52.2638732 31.8782241,52.3718946 L31.8782241,52.5134509 L30.8649791,52.5134509 L29.851734,52.5134509 L29.851734,52.3718946 L29.851734,52.3718946 Z M44.0967672,52.3611125 C44.0967672,52.2630674 44.1421784,52.2212561 44.2782143,52.1940487 C44.6074236,52.1282068 44.633191,51.9661299 44.633191,49.9612655 C44.633191,48.2050168 44.6312837,48.1772515 44.4970371,47.977563 C44.4221523,47.8661758 44.301457,47.7664695 44.2288252,47.7559943 C44.1339306,47.7423083 44.0967672,47.6961819 44.0967672,47.592087 L44.0967672,47.4472258 L45.8550453,47.4472258 L47.6133234,47.4472258 L47.6133234,48.0730536 C47.6133234,48.6930928 47.6120062,48.6988814 47.47095,48.6988814 C47.3557512,48.6988814 47.3211954,48.6595347 47.289904,48.4927367 C47.2234405,48.1384562 46.9799791,48.0194934 46.2674158,47.9931163 L45.6644009,47.9707945 L45.6256174,48.2537527 C45.6042862,48.40938 45.5868334,48.7915498 45.5868334,49.1030189 L45.5868334,49.6693264 L46.0938934,49.6376923 C46.6521562,49.6028634 46.8731086,49.5046037 46.933408,49.2643526 C46.9600719,49.1581156 47.0110154,49.1160999 47.1131625,49.1160999 L47.2557075,49.1160999 L47.2557075,49.8909344 L47.2557075,50.6657688 L47.1067009,50.6657688 C47.0052471,50.6657688 46.9570893,50.6324819 46.9557989,50.5614642 C46.9504347,50.2664495 46.6668036,50.129345 46.0618575,50.129345 L45.5754022,50.129345 L45.5960181,50.9686432 C45.6209928,51.9853607 45.6149217,51.9770271 46.3306291,51.9770271 C46.9623123,51.9770271 47.2908183,51.8257007 47.4627743,51.4555039 C47.5493811,51.2690519 47.6153118,51.2021926 47.7125678,51.2021926 C47.7852401,51.2021926 47.8628291,51.2315279 47.8849881,51.2673819 C47.9393082,51.3552731 47.674924,52.3241309 47.5672327,52.4318221 C47.4961583,52.5028965 47.1935086,52.515298 45.789173,52.504681 L44.0967672,52.4918861 L44.0967672,52.3611125 Z M50.6530585,52.3752008 C50.6530585,52.2774799 50.7085987,52.2119557 50.8425121,52.1516909 C50.9467113,52.1047979 51.0875225,51.9906928 51.155426,51.8981239 C51.2751421,51.7349205 51.2788864,51.6617112 51.2788864,49.4842166 C51.2788864,46.9581741 51.2741837,46.9277386 50.8627043,46.7919387 C50.6996481,46.7381253 50.6530585,46.6906625 50.6530585,46.5783652 L50.6530585,46.4339807 L52.739153,46.4339807 L54.8252458,46.4339807 L54.8252458,47.1790138 L54.8252458,47.924047 L54.6464378,47.924047 C54.5008047,47.924047 54.4675881,47.8991628 54.4674034,47.789941 C54.4670458,47.5706021 54.2426001,47.2681067 54.004404,47.1659132 C53.8634497,47.1054403 53.5370179,47.0604213 53.1116696,47.0427944 L52.4411398,47.015007 L52.4411398,48.0357519 L52.4411398,49.0564973 L52.9328617,49.0531357 C53.5882524,49.0486536 53.812567,48.9673228 53.951012,48.6839831 C54.0400703,48.5017307 54.0923299,48.4604732 54.2341246,48.4604732 L54.4080272,48.4604732 L54.4080272,49.3582893 L54.4080272,50.2561055 L54.216661,50.2374284 C54.0852252,50.2246007 54.0152279,50.1814192 53.9931511,50.099546 C53.8986153,49.7489692 53.533859,49.5929235 52.8089179,49.5929235 L52.4278484,49.5929235 L52.4521305,50.6508705 C52.4798398,51.8582199 52.5306272,52.0346682 52.8875875,52.1637461 C53.0441696,52.2203674 53.0967689,52.2738429 53.0967689,52.3764203 L53.0967689,52.5134533 L51.8749146,52.5134533 L50.6530585,52.5134533 L50.6530585,52.3752032 L50.6530585,52.3752008 Z M60.1894848,52.3644443 C60.1894848,52.2555276 60.2213305,52.2154377 60.3078437,52.2154377 C60.4904781,52.2154377 60.6990636,51.8439892 61.1524132,50.7114364 C61.7594901,49.194841 62.3351801,47.6527536 62.3351801,47.543192 C62.3351801,47.4682703 62.3972623,47.4474928 62.6182927,47.4484428 L62.9014053,47.4496587 L63.7053258,49.5101915 C64.5783199,51.7477613 64.7392351,52.0955595 64.942796,52.1848681 C65.0250238,52.2209444 65.076902,52.2958762 65.076902,52.3785767 C65.076902,52.513383 65.076306,52.5134497 64.063657,52.5134497 L63.0504119,52.5134497 L63.0504119,52.3718934 C63.0504119,52.2625726 63.0907689,52.2222658 63.2276285,52.1948932 C63.4837828,52.1436624 63.4992318,51.9702914 63.3001351,51.3809994 L63.1289742,50.8743769 L62.4246854,50.8743769 L61.7203967,50.8743769 L61.5788225,51.2915954 C61.4004437,51.8172753 61.4107788,52.1770905 61.6050477,52.2046812 C61.7021106,52.2184667 61.7391536,52.2637403 61.7391536,52.3685885 L61.7391536,52.5134497 L60.9643192,52.5134497 L60.1894848,52.5134497 L60.1894848,52.3644431 L60.1894848,52.3644443 Z M62.9312066,50.2773944 C62.9312066,50.1867107 62.4933656,48.9968946 62.46,48.9968946 C62.4382689,48.9968946 62.3775099,49.1108847 62.3249762,49.2502059 C62.2724364,49.3895271 62.1605682,49.6845602 62.0763795,49.905835 L61.923302,50.3081529 L62.4272543,50.3081529 C62.7044305,50.3081529 62.9312066,50.2943114 62.9312066,50.2773944 Z M65.4941205,52.3718946 C65.4941205,52.2653472 65.5346563,52.2220315 65.6580278,52.1967511 C65.9804603,52.1306791 65.9949377,52.0467246 66.0199887,50.097628 C66.0458325,48.0868623 66.0205848,47.9177964 65.6739715,47.7869907 C65.566651,47.7464817 65.4941205,47.6763014 65.4941205,47.6129664 C65.4941205,47.5174663 65.5613285,47.5068409 66.1646503,47.5069554 L66.8351801,47.5070746 L67.2225974,47.9973964 C67.4356768,48.2670733 67.9855113,48.931386 68.4444517,49.4736461 C68.9033921,50.0159062 69.3403927,50.5394928 69.4155695,50.6371715 L69.5522503,50.8147683 L69.5329391,49.4682842 C69.5118934,48.0010989 69.4785695,47.8497433 69.1589325,47.7695181 C69.0663576,47.7462838 69.0106768,47.6899647 69.0106768,47.619565 C69.0106768,47.5145428 69.0657854,47.5068213 69.8153126,47.5068213 C70.5705497,47.5068213 70.6199483,47.5138848 70.6199483,47.6218812 C70.6199483,47.6939694 70.5720993,47.7440541 70.4918205,47.7559872 C70.4213523,47.7664623 70.3073623,47.8507119 70.2385093,47.9432074 C70.1174682,48.1058154 70.1127238,48.1842393 70.0950636,50.3124127 L70.0768013,52.5134438 L69.8169576,52.5134438 C69.5819086,52.5134438 69.5383152,52.4892749 69.3600616,52.2601325 C69.2024841,52.0575699 66.6774358,48.9301277 66.5809987,48.8180795 C66.5668967,48.8016888 66.5670695,49.458808 66.5815947,50.2783444 C66.6106391,51.9401885 66.6469252,52.1389973 66.9316113,52.1959345 C67.0632556,52.2222634 67.1035947,52.2635334 67.1035947,52.3718875 L67.1035947,52.5134438 L66.2989589,52.5134438 L65.4943232,52.5134438 L65.4943232,52.3718875 L65.4941205,52.3718946 Z M75.9245841,52.3644443 C75.9245841,52.275901 75.9587126,52.2154377 76.0086894,52.2154377 C76.1264821,52.2154377 76.3473993,51.935757 76.5051556,51.586914 C76.7245411,51.1017866 77.7445748,48.4688462 77.919598,47.9359228 L78.0820808,47.4411767 L78.3485166,47.4591016 L78.6149523,47.4770271 L79.4057007,49.5035172 C79.8406152,50.6180867 80.2442086,51.6238814 80.3025894,51.7386165 C80.435843,52.0005207 80.6298377,52.2154377 80.7329861,52.2154377 C80.7775331,52.2154377 80.8120013,52.2804368 80.8120013,52.3644443 L80.8120013,52.5134509 L79.7987563,52.5134509 L78.7855113,52.5134509 L78.7855113,52.3644443 C78.7855113,52.2606916 78.818096,52.2154377 78.892796,52.2154377 C79.181249,52.2154377 79.2079808,51.9635569 78.9892272,51.3067005 L78.8353272,50.8445768 L78.1358603,50.8445768 L77.4363934,50.8445768 L77.309547,51.2468946 C77.0699563,52.0068016 77.0813285,52.2154377 77.362343,52.2154377 C77.4419781,52.2154377 77.474253,52.2584118 77.474253,52.3644443 L77.474253,52.5134509 L76.6994185,52.5134509 L75.9245841,52.5134509 L75.9245841,52.3644443 Z M78.4535305,49.6972258 C78.3408457,49.3612158 78.2326848,49.0460668 78.2131709,48.9968946 C78.1919821,48.9434907 78.0728066,49.1714917 77.9172079,49.5631198 C77.7739411,49.9237158 77.655898,50.2388648 77.6548907,50.2634509 C77.6538775,50.288037 77.8792649,50.3081529 78.1557377,50.3081529 L78.6584205,50.3081529 L78.4535305,49.6972258 Z M81.1696172,52.3644443 C81.1696172,52.2478651 81.2000325,52.2154377 81.3093854,52.2154377 C81.3862609,52.2154377 81.500251,52.1590196 81.5626967,52.0900641 C81.6683901,51.9733603 81.6774497,51.8363076 81.693751,50.108276 C81.7033768,49.0872481 81.6963735,48.1922559 81.6781232,48.1194054 C81.6356503,47.949576 81.4169086,47.745239 81.2775815,47.745239 C81.2053609,47.745239 81.1696113,47.7008434 81.1695993,47.611133 C81.1695755,47.4773185 81.1718046,47.4770271 82.1828086,47.4770271 C83.1572881,47.4770271 83.1960477,47.4815986 83.1960775,47.5965834 C83.1960954,47.671144 83.1311881,47.7448748 83.0236172,47.7924902 C82.9287536,47.8344826 82.8234596,47.9416095 82.7896351,48.0305497 C82.7027821,48.2589507 82.6533715,50.1188197 82.7074728,51.1235851 C82.7452073,51.824399 82.7720523,51.9898875 82.8645795,52.0921281 C82.9259523,52.1599482 83.0256556,52.2154377 83.0861404,52.2154377 C83.1637013,52.2154377 83.1961073,52.2593452 83.1961073,52.3644443 L83.1961073,52.5134509 L82.1828623,52.5134509 L81.1696172,52.5134509 L81.1696172,52.3644443 Z M87.8451139,52.3537337 C87.8451139,52.2470557 87.8781934,52.2154377 87.9897934,52.2154377 C88.0751026,52.2154377 88.1851649,52.1509935 88.2580053,52.058393 C88.3770258,51.907081 88.3815377,51.8329663 88.3815377,50.0279847 C88.3815377,48.7180591 88.3606828,48.115465 88.312202,48.0244333 C88.223406,47.8577128 88.0818854,47.7495417 87.9494185,47.7471344 C87.878402,47.745841 87.8451139,47.6976862 87.8451139,47.5962324 L87.8451139,47.4472258 L89.6331934,47.4472258 L91.4212728,47.4472258 L91.4212728,48.0770124 L91.4212728,48.706799 L91.2647921,48.6879395 C91.1469278,48.673735 91.0917656,48.6189709 91.0412821,48.4660532 C90.9237815,48.1101395 90.7275815,48.019466 90.0181311,47.9932039 L89.3947828,47.9701293 L89.3947828,48.8113266 L89.3947828,49.6525238 L89.7672993,49.6491622 C90.284406,49.6444893 90.5365907,49.5475176 90.6464384,49.3111007 C90.7119119,49.1701875 90.7757285,49.1183589 90.884849,49.117475 L91.0338556,49.116265 L91.0338556,49.8910244 L91.0338556,50.6657837 L90.8699483,50.665776 C90.7377377,50.66577 90.7060411,50.6387372 90.7060411,50.5259994 C90.7060411,50.2598438 90.507296,50.1611889 89.9250377,50.1383146 L89.3947828,50.1174834 L89.3947828,50.9544715 C89.3947828,51.9632911 89.404051,51.9770265 90.0845821,51.9770265 C90.7557258,51.9770265 91.1055934,51.8070534 91.2807477,51.3959007 C91.3692755,51.188102 91.5756377,51.1287497 91.6386556,51.2929651 C91.6802404,51.4013293 91.5122682,52.1010465 91.3861073,52.3450174 L91.2968166,52.5176803 L89.5709682,52.504855 L87.8451139,52.4920291 L87.8451139,52.3537331 L87.8451139,52.3537337 Z M7.98089662,46.9153967 L7.83522536,46.8034373 L8.18950589,46.2620283 C8.38436066,45.9642534 8.58182185,45.7201985 8.62830894,45.7196841 C8.82984934,45.717455 9.47156603,45.8553326 9.45549417,45.8974115 C9.42348815,45.9812098 8.24710947,47.0293123 8.18617113,47.0283234 C8.15338967,47.027787 8.06101629,46.9769746 7.98089662,46.9153967 Z M0.408025401,42.7982191 L91.1828623,42.7982191 L91.1828623,43.334643 L0.408025401,43.334643 L0.408025401,42.7982191 L0.408025401,42.7982191 Z M34.9559416,41.5784623 C34.4791442,41.4084886 34.2110003,40.9640615 34.2978532,40.4877332 C34.3563836,40.1667366 34.5380895,39.942118 34.8598103,39.7930631 L35.1413362,39.6626299 L34.9700448,39.5643225 C34.8726922,39.5084497 34.7987539,39.4153677 34.7987539,39.3486819 C34.7987539,39.2408321 35.2357879,38.8048417 35.3438958,38.8048417 C35.3696716,38.8048417 35.3322566,38.7056861 35.2607531,38.5844954 C34.9555268,38.067176 35.1997128,37.3192379 35.7695762,37.0259762 C36.0780956,36.8672066 36.1822512,36.8604888 37.2624974,36.9296869 C37.8839402,36.9694955 37.9070696,36.9758676 37.8742381,37.0982158 C37.8554716,37.1681511 37.8397502,37.2454874 37.8393026,37.2700734 C37.8388258,37.2946595 37.7337475,37.3147754 37.6057305,37.3147754 L37.3729721,37.3147754 L37.4043928,37.6612897 C37.4729454,38.4172999 36.9352872,38.9350836 36.0672956,38.9489609 C35.6164164,38.9561698 35.3981837,39.0517933 35.5740866,39.1650729 C35.6229846,39.1965628 35.9140661,39.3035817 36.2209345,39.4028934 C37.2077046,39.7222403 37.3900607,39.8829433 37.3479789,40.3961132 C37.3042723,40.9290979 36.8755558,41.3937966 36.2553437,41.580453 C35.9001733,41.6873438 35.258611,41.6863609 34.9559416,41.5784623 L34.9559416,41.5784623 Z M36.2830262,41.2104731 C36.766896,40.9693506 36.9765125,40.5098821 36.7118982,40.2704094 C36.5336243,40.109074 35.759365,39.8613952 35.5587324,39.9015215 C35.1502665,39.9832146 34.7686939,40.481227 34.8391186,40.8407305 C34.9359062,41.3348072 35.6609456,41.5204689 36.2830262,41.2104731 L36.2830262,41.2104731 Z M36.4425974,38.5136422 C36.8058797,38.2921128 36.9461909,37.6634181 36.7017127,37.3526148 C36.3672888,36.9274637 35.7307951,37.4013238 35.7248569,38.0798696 C35.7230092,38.2907152 35.7534089,38.3648472 35.8898257,38.4821875 C36.0909018,38.655146 36.2003358,38.6613733 36.4425974,38.5136422 L36.4425974,38.5136422 Z M38.7027274,39.8967044 C38.44089,39.8432104 38.3006134,39.668437 38.270843,39.3586099 C38.1946166,38.5653093 38.8620447,37.4026345 39.6089821,37.0275407 C39.9972332,36.8325697 40.76307,36.8128997 41.2732794,36.9847931 C41.3190536,37.0002147 41.2852041,37.2039723 41.1672511,37.623032 C40.9365525,38.4426471 40.8044474,39.2630156 40.8803299,39.4048031 C40.9301052,39.4978083 40.9654156,39.5042549 41.1234044,39.4491797 C41.2692306,39.3983446 41.3192682,39.4021711 41.3604769,39.4673096 C41.4462737,39.6029289 41.3941315,39.6545162 41.0535685,39.7709565 C40.5956926,39.9275064 40.3860904,39.8969899 40.317269,39.6637581 L40.2629364,39.4796277 L40.0188916,39.6160272 C39.6069264,39.8462787 39.0437553,39.9663775 38.7027274,39.8967044 L38.7027274,39.8967044 Z M39.7330784,39.360833 C39.906394,39.2784991 40.0871539,39.1516802 40.1347669,39.0790132 C40.214365,38.9575311 40.4571528,38.0634187 40.5519407,37.54269 C40.5907832,37.329306 40.5860156,37.3219814 40.3693325,37.2621523 C39.9690155,37.1516191 39.5664079,37.4435505 39.2456873,38.0769097 C38.9092363,38.7413326 38.8244021,39.3332174 39.0436146,39.4867597 C39.1924407,39.5910018 39.2836238,39.5743476 39.7330784,39.360833 Z M67.9530993,39.8791913 C67.6856325,39.8156954 67.5912695,39.7228703 67.518155,39.4513415 C67.4072881,39.0396201 67.6638238,38.2608018 68.1000854,37.6846617 C68.6225026,36.9947402 69.2031517,36.7618786 70.0605238,36.8984593 C70.286257,36.9344181 70.4886854,36.9824519 70.5103748,37.0052011 C70.5320583,37.0279508 70.4567384,37.4086496 70.3429987,37.8511993 C70.229253,38.2937489 70.1310457,38.8301728 70.1247576,39.0432523 L70.1133258,39.4306695 L70.3666371,39.4193849 C70.5939139,39.4092602 70.6199483,39.422073 70.6199483,39.5440546 C70.6199483,39.6578515 70.563904,39.6969771 70.276053,39.7841317 C69.8023609,39.9275541 69.5825404,39.8968933 69.5580437,39.6839807 C69.5476669,39.5938317 69.5283199,39.5200734 69.5150404,39.5200734 C69.5017609,39.5200734 69.345894,39.5842011 69.1686656,39.6625792 C68.8835384,39.7886764 68.3024424,39.9478768 68.1882079,39.9311911 C68.1652371,39.9278354 68.0594364,39.9044354 67.9530993,39.8791913 L67.9530993,39.8791913 Z M68.9510742,39.3689825 C69.0985907,39.2952618 69.2627781,39.1851083 69.3159318,39.124198 C69.4478146,38.9730755 69.6845503,38.195165 69.8070815,37.5102834 C69.8397437,37.3277009 69.8298854,37.3152695 69.6041821,37.2544939 C69.4110517,37.20249 69.3281801,37.2090105 69.1584199,37.2895689 C68.7800503,37.4691159 68.4045834,38.0782192 68.2098735,38.82834 C68.0233887,39.5467796 68.2559106,39.7163867 68.9510742,39.3689825 Z M4.31178675,39.7435834 C4.29402993,39.6698251 4.4002794,39.1154025 4.54789728,38.5115328 C4.83894477,37.3209252 4.83648616,37.224183 4.51750291,37.3156659 C4.35974007,37.3609121 4.34180026,37.3522315 4.34180026,37.2306475 C4.34180026,37.1171372 4.39722536,37.0790571 4.6845155,36.9951836 C4.87300887,36.9401531 5.1211049,36.8889693 5.23584,36.8814421 C5.4322194,36.8685578 5.44557159,36.8794752 5.46359007,37.0676807 C5.47411768,37.1776393 5.37131086,37.7224432 5.23513132,38.278356 C5.09895179,38.8342681 5.00347848,39.3306622 5.02296914,39.3814526 C5.05119457,39.4550076 5.11380536,39.4654923 5.33064755,39.4329749 C5.59005675,39.394074 5.60196477,39.3985877 5.58327219,39.5287403 C5.56780709,39.6364184 5.49426576,39.6870354 5.23584,39.7678685 C5.05554199,39.8242645 4.78113616,39.8720456 4.62604887,39.8740482 C4.38144199,39.8772072 4.33979285,39.8599164 4.31178675,39.7435834 L4.31178675,39.7435834 Z M6.60321894,39.7676497 L6.4673255,39.6576101 L6.92907377,37.6290429 C7.1830347,36.5133314 7.38202649,35.5235281 7.37127775,35.4294805 C7.35123695,35.254133 7.32964589,35.2450931 7.09842278,35.3152377 C6.98406139,35.3499312 6.96431682,35.3338039 6.96431682,35.2056993 C6.96431682,35.0321036 7.17364848,34.9482391 7.75405192,34.8893082 C8.08656079,34.8555469 8.09676715,34.8588119 8.09676715,34.9989467 C8.09676715,35.0783869 8.00289298,35.568773 7.88815788,36.0886941 C7.77342278,36.6086158 7.67954861,37.0688495 7.67954861,37.1114362 C7.67954861,37.1692568 7.74507576,37.1598813 7.93828252,37.074417 C8.6020647,36.7807947 9.18068722,36.7963218 9.38839887,37.1133298 C9.58288172,37.4101486 9.48218483,38.1782855 9.16624609,38.8079553 C9.00185245,39.1355934 8.51271079,39.6455072 8.2470445,39.7661913 C7.89805788,39.9247254 6.79840391,39.9257011 6.60321894,39.7676515 L6.60321894,39.7676497 Z M8.11143775,39.3897058 C8.41027232,39.1782242 8.74340821,38.4635223 8.83736464,37.8323207 C8.93149272,37.1999605 8.51353391,37.0738126 7.84594967,37.5330934 C7.70494291,37.6301026 7.59180219,37.7745383 7.53341185,37.9320801 C7.42534748,38.2236461 7.20272742,39.1751702 7.20272742,39.3454943 C7.20272742,39.5962933 7.77984258,39.6243715 8.11143775,39.3897058 Z M10.3877195,39.6949136 C10.2262738,39.5263514 10.2129449,39.4788451 10.2163095,39.0839865 C10.2248827,38.0778741 10.7968524,37.177408 11.5847756,36.9295754 C11.977892,36.8059256 12.3237072,36.8478364 12.5555084,37.0472233 C12.6891942,37.1622153 12.7159725,37.2340824 12.7159725,37.4778751 C12.7159725,38.0915005 12.1563793,38.5569501 11.3510468,38.6131715 C11.1183121,38.6294185 10.9081877,38.6724862 10.8841035,38.708876 C10.8170058,38.8102583 10.8303503,39.1548314 10.9070142,39.3004818 C11.0557407,39.5830389 11.2691044,39.5896631 11.7801471,39.3275891 C12.0985438,39.1643088 12.1640537,39.1484587 12.2113538,39.2232618 C12.3166919,39.3898476 12.2679066,39.4421638 11.8043845,39.6596813 C11.418396,39.8408144 11.2741009,39.8776893 10.9512977,39.8776893 C10.5955277,39.8776893 10.5480221,39.8622826 10.3877195,39.6949136 Z M11.4550438,38.2637301 C11.9621086,38.1229307 12.2966011,37.5808345 12.0367508,37.3209842 C11.872893,37.1571264 11.7213693,37.1625038 11.5108474,37.3396464 C11.3431726,37.4807354 11.0707188,37.9277928 10.9902248,38.1939145 C10.9562841,38.3061242 10.9722135,38.3279662 11.0877836,38.3276879 C11.1637514,38.3275091 11.3290182,38.298724 11.4550438,38.2637301 Z M13.4610056,39.8573833 C13.4610056,39.847469 13.5681264,39.3853166 13.699052,38.8303778 C13.8299775,38.275439 13.9372623,37.7039801 13.9374626,37.5604689 L13.9378202,37.2995398 L13.6994096,37.3376634 C13.4880801,37.3714564 13.460999,37.3622573 13.460999,37.2566772 C13.460999,37.1259614 13.6537099,37.0258599 14.1374819,36.9052862 C14.4684536,36.8227955 14.5934493,36.8793715 14.5934493,37.1116681 L14.5934493,37.2515805 L14.8049905,37.1080246 C15.1770731,36.8555227 15.4043648,36.8092436 15.6743863,36.9310059 C15.8037217,36.9893283 15.9013252,37.0660089 15.8912827,37.1014075 C15.7294478,37.6718543 15.6373874,37.8511993 15.5064058,37.8511993 C15.3892407,37.8511993 15.3682838,37.8206541 15.3682838,37.6498877 C15.3682838,37.2162713 14.9910693,37.213175 14.7175015,37.6445474 C14.5470457,37.9133285 14.3708168,38.5245697 14.2308983,39.3323072 C14.1891634,39.5732402 14.1262629,39.7788258 14.09112,39.7891645 C13.9862491,39.8200166 13.460999,39.8768823 13.460999,39.8573845 L13.4610056,39.8573833 Z M16.4508121,39.7999419 C16.3850227,39.7206709 16.421158,39.506462 16.7619528,37.9555039 L16.9027409,37.3147754 L16.7017411,37.3147754 C16.5911907,37.3147754 16.5007407,37.2996018 16.5007407,37.2810558 C16.5007407,37.1878522 16.6341803,37.0167622 16.706874,37.0167622 C16.8521847,37.0167622 17.1312258,36.7345413 17.2482926,36.4691742 C17.3791603,36.1725223 17.4311917,36.1248896 17.6257407,36.123635 C17.753785,36.1228125 17.7635903,36.1412118 17.7284605,36.3164311 C17.7071001,36.4229708 17.6734985,36.6107191 17.6537897,36.7336496 L17.6179554,36.9571595 L17.8937851,36.9571595 C18.1755167,36.9571595 18.2169977,37.0027401 18.1334366,37.2204966 C18.1074225,37.2882892 18.0171429,37.3147754 17.8120836,37.3147754 C17.4807554,37.3147754 17.5351434,37.1956089 17.2707687,38.5008205 C17.0765595,39.4596292 17.0896667,39.5479764 17.4123936,39.4554195 C17.6817123,39.3781798 17.7033981,39.3845781 17.6820383,39.5349741 C17.6675907,39.6367003 17.5910376,39.6931107 17.3649791,39.7686064 C17.000069,39.8904735 16.5390616,39.906276 16.4508121,39.7999419 Z M18.8549994,39.7230008 C18.418798,39.2523318 18.7344525,37.9138017 19.4288835,37.2894485 C19.7122244,37.0347008 20.1546346,36.8379542 20.444127,36.8379542 C20.6273861,36.8379542 21.0311529,37.0257407 21.0918832,37.1392164 C21.187949,37.318717 21.1580231,37.7474919 21.0353936,37.9486001 C20.7840886,38.360731 20.2423846,38.6260337 19.6521872,38.6260337 L19.3020652,38.6260337 L19.3020652,38.9405861 C19.3020652,39.551195 19.5558217,39.6583498 20.2228629,39.3294171 C20.4355103,39.2245558 20.6212166,39.1507975 20.6355439,39.1655098 C20.6498712,39.1802215 20.6708483,39.2459013 20.6821603,39.3114642 C20.6986673,39.4071366 20.6158119,39.4747939 20.2624641,39.6541794 C19.8798389,39.848428 19.7682729,39.8776893 19.4102803,39.8776893 C19.0434242,39.8776893 18.9826766,39.8607664 18.8549994,39.7230008 L18.8549994,39.7230008 Z M19.9040984,38.2593016 C20.2190418,38.1524787 20.4399107,37.9720496 20.5353513,37.7436278 C20.6156408,37.5514689 20.6134081,37.5220758 20.5077278,37.3799718 C20.3439165,37.1597001 20.1830758,37.1583203 19.9362135,37.3750665 C19.7457604,37.5422859 19.4212705,38.1029025 19.4212705,38.2647248 C19.4212705,38.3478693 19.6505672,38.3452927 19.9040984,38.259301 L19.9040984,38.2593016 Z M42.2888203,39.837954 C42.2046554,39.7537897 42.2592366,39.402093 42.5451433,38.1863092 C42.9340887,36.5323679 43.1431248,35.5586066 43.1431248,35.4007043 C43.1431248,35.287687 43.1186829,35.2766545 42.9345155,35.3065411 C42.7446769,35.3373473 42.7259062,35.3275295 42.7259062,35.1974313 C42.7259062,35.0483179 42.8746041,34.9823128 43.4668619,34.8685307 C43.772735,34.8097679 43.8583566,34.8485382 43.8583566,35.0458015 C43.8583566,35.1348914 43.6573746,36.0774691 43.4117295,37.1404186 C43.1660843,38.2033675 42.9649254,39.1638683 42.9647096,39.2748634 L42.9642924,39.4766738 L43.2365734,39.4393536 C43.4925739,39.4042649 43.5077201,39.4099051 43.4898846,39.5336819 C43.4752176,39.6354695 43.3965576,39.6885892 43.1431003,39.7678685 C42.8082747,39.8725999 42.3602005,39.9093586 42.2887959,39.837954 L42.2888203,39.837954 Z M44.5356322,39.8048919 C44.4625021,39.6865645 44.5043301,39.4284523 44.7581491,38.4317988 C44.8903353,37.9127527 44.9884609,37.4423799 44.9762066,37.3865263 C44.952685,37.2793178 44.9377891,37.2768985 44.677893,37.3380705 C44.5394468,37.3706565 44.5139857,37.3574831 44.5139857,37.2532673 C44.5139857,37.1111811 44.7683853,36.9849517 45.2319014,36.8970479 C45.5630179,36.8342529 45.7060387,36.866402 45.7060387,37.0036275 C45.7060387,37.054952 45.5846001,37.6032749 45.4361746,38.2221232 C45.2877491,38.8409716 45.1840011,39.3759256 45.2056226,39.4109106 C45.2296907,39.4498532 45.3474733,39.4604648 45.5093571,39.438276 C45.7569674,39.4043376 45.7725731,39.4104034 45.7548097,39.5336819 C45.7401427,39.6354695 45.6614827,39.6885892 45.4080254,39.7678685 C45.0201451,39.889195 44.598786,39.9070764 44.5356322,39.8048919 L44.5356322,39.8048919 Z M46.7370054,39.7782983 C46.7160282,39.7236332 46.7320047,39.5291795 46.7725053,39.3461791 C46.9054651,38.745425 47.1961049,37.3705826 47.1961049,37.3423828 C47.1961049,37.327199 47.1136744,37.3147754 47.0129269,37.3147754 C46.7541876,37.3147754 46.8024538,37.1481825 47.1067528,36.9909316 C47.2879073,36.8973167 47.3923889,36.7783546 47.5421078,36.495239 C47.7125797,36.1728799 47.7617424,36.1227225 47.907236,36.1227225 L48.0753679,36.1227225 L47.9954462,36.495239 C47.9514892,36.7001231 47.9145821,36.8878715 47.9134305,36.9124575 C47.9122802,36.9370436 48.0454426,36.9571595 48.2093499,36.9571595 C48.5207243,36.9571595 48.5280173,36.9634184 48.4697962,37.1806695 C48.438397,37.2978352 48.3948972,37.3147754 48.1254276,37.3147754 L47.8169976,37.3147754 L47.6165414,38.3206232 C47.5062902,38.8738395 47.4322363,39.3685623 47.4519779,39.4200072 C47.4809889,39.4956077 47.5255389,39.502741 47.6843096,39.4572058 C47.9574662,39.3788658 47.9709393,39.3828526 47.9709393,39.5420203 C47.9709393,39.6631585 47.9217904,39.6969634 47.6243142,39.7804309 C47.1625093,39.9100071 46.7872003,39.9091047 46.7370054,39.7782972 L46.7370054,39.7782983 Z M49.1915223,39.7427078 C49.0431654,39.6150968 49.0174325,39.5450857 48.996174,39.2112226 C48.9484067,38.4610494 49.2918228,37.6141315 49.801618,37.2248744 C50.3645775,36.7950225 50.9794462,36.7379535 51.3249759,37.0834838 C51.4852635,37.2437714 51.4994126,37.2889895 51.4735385,37.5582683 C51.4168117,38.1486368 50.8510156,38.5774516 50.0768207,38.6168358 C49.5926434,38.641466 49.5417064,38.6996323 49.636679,39.1194453 C49.7400652,39.576451 49.927916,39.6233565 50.5244968,39.3411272 C50.9196666,39.1541811 51.0106744,39.1542956 51.0106744,39.3417411 C51.0106744,39.5322288 50.2953354,39.8382562 49.7842123,39.8664298 C49.4038013,39.8873986 49.3456107,39.8752516 49.1915223,39.7427102 L49.1915223,39.7427078 Z M50.4732129,38.1497418 C50.8448879,37.9601273 51.0043917,37.5383432 50.7928274,37.3045679 C50.5265656,37.0103519 50.0336511,37.3956854 49.7889006,38.0893822 L49.6989656,38.3442848 L49.9675935,38.3074653 C50.1153389,38.2872147 50.3428679,38.2162393 50.4732129,38.1497418 L50.4732129,38.1497418 Z M64.7192861,39.855715 C64.7192861,39.846718 64.8264099,39.3853166 64.9573331,38.8303778 C65.0882563,38.275439 65.1955411,37.7039801 65.1957437,37.5604689 L65.1963397,37.2995398 L64.9579291,37.3376634 C64.7473351,37.3713389 64.7195185,37.3620409 64.7195185,37.2579741 C64.7195185,37.1132452 64.8244073,37.0546242 65.3072424,36.9295099 C65.7267735,36.8207982 65.8519689,36.8626631 65.8519689,37.1116681 L65.8519689,37.2515805 L66.0635106,37.1080246 C66.4344954,36.856266 66.6630417,36.8093146 66.9304907,36.9299158 C67.0584934,36.9876385 67.1632331,37.0509091 67.1632391,37.070516 C67.163245,37.0901235 67.1031358,37.2737986 67.0296636,37.4786827 C66.9193629,37.7862741 66.8726166,37.8511993 66.7614397,37.8511993 C66.6482364,37.8511993 66.6268033,37.8191563 66.6268033,37.6498877 C66.6268033,37.2424858 66.2765424,37.2120914 66.0150238,37.5967997 C65.8161596,37.8893319 65.7144,38.2068185 65.5513868,39.0432523 C65.4779205,39.420239 65.401504,39.7453417 65.3815788,39.7657019 C65.3458113,39.8022485 64.7195185,39.8873986 64.7195185,39.855715 L64.7192861,39.855715 Z M71.5936709,39.7844517 C71.5447728,39.6570123 71.6012285,39.2899065 71.8314199,38.2386165 L72.0271788,37.3445768 L71.8599874,37.3258997 C71.6599848,37.3035576 71.6262079,37.105532 71.8123232,37.0464616 C72.0218444,36.9799617 72.2638252,36.7342075 72.3807477,36.4691742 C72.5116113,36.1725223 72.5636444,36.1248896 72.7581934,36.123635 C72.8862377,36.1228125 72.8960424,36.1412118 72.8609126,36.3164311 C72.839551,36.4229708 72.805953,36.6107191 72.7862424,36.7336496 L72.7504093,36.9571595 L73.0262384,36.9571595 C73.3079682,36.9571595 73.3494517,37.0027401 73.2658887,37.2204966 C73.2398722,37.2882892 73.149598,37.3147754 72.9445351,37.3147754 C72.6132099,37.3147754 72.6675974,37.1956089 72.4032238,38.5008205 C72.2090146,39.4596292 72.2221212,39.5479764 72.5448457,39.4554195 C72.8141662,39.3781798 72.8358497,39.3845781 72.814494,39.5349741 C72.8000464,39.6367003 72.7234927,39.6931107 72.4974318,39.7686064 C72.100645,39.9011185 71.6415318,39.9091685 71.5936709,39.7844517 L71.5936709,39.7844517 Z M73.9984887,39.7234174 C73.5466649,39.271596 73.8590126,37.9208992 74.5613344,37.2894485 C74.8446795,37.0347008 75.2870861,36.8379542 75.5765821,36.8379542 C75.7598364,36.8379542 76.1636026,37.0257407 76.2243377,37.1392164 C76.3203993,37.318717 76.2904788,37.7474919 76.1678464,37.9486001 C75.9153695,38.3626562 75.3748093,38.6260337 74.7774775,38.6260337 L74.4201894,38.6260337 L74.4466351,38.991659 C74.4886371,39.5722979 74.7019728,39.651595 75.3553132,39.3294171 C75.5679636,39.2245558 75.7536675,39.1507975 75.767996,39.1655098 C75.7823245,39.1802215 75.8032987,39.2459013 75.8146113,39.3114642 C75.8311212,39.4071366 75.7482675,39.4747939 75.3949192,39.6541794 C75.015745,39.8466757 74.8990192,39.8776893 74.5537053,39.8776893 C74.201853,39.8776893 74.1338702,39.8588007 73.9984887,39.7234174 L73.9984887,39.7234174 Z M75.2479868,38.1700824 C75.6648894,37.9628857 75.8516841,37.4824532 75.5918046,37.2858038 C75.4191954,37.1551959 75.2940238,37.1771994 75.0648278,37.3784388 C74.8730563,37.5468139 74.5537232,38.1054654 74.5537232,38.2725745 C74.5537232,38.3712234 74.9656192,38.3104162 75.2479868,38.1700824 Z M77.0570344,39.8264394 C77.0570344,39.8013407 77.1658808,39.3179853 77.2989139,38.7523162 C77.431953,38.1866477 77.5325325,37.6384959 77.5224238,37.534202 C77.5052046,37.3564711 77.4904291,37.345354 77.2868384,37.3569658 C77.1165238,37.3666804 77.0631497,37.3445899 77.0396305,37.2546602 C77.0152291,37.1613481 77.0668391,37.1188591 77.316449,37.026754 C77.485196,36.9644877 77.723857,36.8953158 77.8468113,36.8730393 C78.0779205,36.8311673 78.0740106,36.8279583 78.2186245,37.1778729 C78.2213662,37.1845299 78.3806483,37.1107717 78.5725689,37.0139656 C78.9832669,36.8068059 79.0521258,36.8010817 79.3018311,36.9533414 L79.4903364,37.0682833 L79.3614338,37.4583028 C79.2538808,37.7837237 79.2103172,37.8485613 79.0984252,37.8497611 C78.9861517,37.850965 78.9643192,37.8191754 78.9643192,37.6545105 C78.9643192,37.1351575 78.4700285,37.2378797 78.1994742,37.8134589 C78.1314974,37.9580698 77.996849,38.45664 77.900251,38.9213928 C77.803653,39.3861451 77.7152205,39.7742698 77.7037411,39.7838909 C77.6512848,39.8278425 77.0570344,39.8669394 77.0570344,39.8264394 L77.0570344,39.8264394 Z M80.0371669,39.8266778 C80.0371669,39.7998608 80.1328589,39.4047614 80.2498172,38.9486789 C80.3775457,38.4506052 80.4668066,37.9528176 80.4733272,37.7022201 L80.4841868,37.2850015 L80.2680616,37.3015603 C80.0981821,37.3145764 80.0456483,37.2940629 80.0225344,37.2056865 C79.9985086,37.1138042 80.0489026,37.0762689 80.2982623,37.000325 C80.8401338,36.8352948 80.9677788,36.823463 81.0728404,36.928527 C81.1260656,36.9817546 81.1696172,37.0904412 81.1696172,37.1700536 C81.1696172,37.2496655 81.1806199,37.3148028 81.1940662,37.3148028 C81.2075126,37.3148028 81.3845086,37.2362996 81.587396,37.1403519 C82.0677934,36.9131597 82.7045225,36.7939877 82.8945715,36.8956985 C83.0185927,36.9620744 83.0274616,36.9963608 82.9912232,37.2695144 C82.9692834,37.4349201 82.8728404,37.894978 82.776904,38.2918649 C82.6809675,38.6887524 82.5952291,39.1073525 82.5863781,39.2220876 C82.5702795,39.4306713 82.5703093,39.4306963 82.8210278,39.4257421 C82.9924033,39.4223567 83.0826417,39.4490962 83.1060954,39.5102116 C83.1533483,39.6333411 83.0970358,39.6734609 82.7233689,39.7829015 C82.2994808,39.9070514 81.9092325,39.9080295 81.862045,39.7850591 C81.8424894,39.7340982 81.9334967,39.2145544 82.0642768,38.6305176 C82.3265046,37.4595109 82.3415603,37.3262144 82.2170086,37.278419 C82.0884457,37.2290853 81.6324199,37.4527371 81.360304,37.6985783 C81.1363172,37.9009329 81.1076543,37.9638256 80.9701212,38.5546315 C80.8884775,38.9053407 80.8027272,39.3218183 80.7795596,39.4801373 C80.7563921,39.6384568 80.7072795,39.7769895 80.6704152,39.7879885 C80.4896464,39.8419248 80.0371669,39.8695685 80.0371669,39.826676 L80.0371669,39.8266778 Z M84.1251099,39.7802664 C84.1045411,39.7266687 84.2109377,39.1745283 84.3615536,38.5532875 C84.5121636,37.9320461 84.6214033,37.3873017 84.6043033,37.342744 C84.5804861,37.2806821 84.5272609,37.2749096 84.3767762,37.3180679 C84.2687344,37.3490535 84.1734536,37.3744055 84.1650437,37.3744055 C84.1566338,37.3744055 84.1497497,37.3122507 84.1497497,37.2362835 C84.1497497,37.1214125 84.2024205,37.0822321 84.4626636,37.0035298 C85.1688536,36.7899634 85.3869993,36.8261928 85.3156728,37.1451946 C85.2984834,37.2220885 85.1756483,37.7391672 85.0427106,38.2942585 C84.9097669,38.8493499 84.8159225,39.3424099 84.8341669,39.3899472 C84.859498,39.4559601 84.9313788,39.4676005 85.1384384,39.4392195 C85.3931861,39.404303 85.4083967,39.4100052 85.3905755,39.5337093 C85.3538603,39.7885011 84.2135245,40.0106783 84.1251099,39.7802664 Z M86.3738106,39.7810413 C86.3340556,39.6774381 86.3823397,39.3928695 86.6152848,38.3578504 C86.8728338,37.2135081 86.8691325,37.314804 86.6534245,37.314804 C86.3913397,37.314804 86.4349689,37.1503728 86.7393477,36.9909602 C86.9144662,36.8992454 87.0224781,36.7764425 87.1622285,36.5101683 C87.314847,36.2193825 87.3810477,36.1488767 87.5164947,36.1328841 C87.6974007,36.1115231 87.6987119,36.1266664 87.5710371,36.7634795 L87.5322,36.9571881 L87.8440411,36.9571881 C88.1039086,36.9571881 88.1498503,36.9729 88.1197033,37.051467 C88.099802,37.1033201 88.0835245,37.1837837 88.0835245,37.230275 C88.0835245,37.2927606 87.9999854,37.314804 87.7631662,37.314804 L87.4428139,37.314804 L87.246,38.3171913 C87.1377556,38.8685038 87.0659404,39.3632267 87.0864139,39.4165752 C87.1168589,39.4959177 87.1593914,39.5033179 87.3200742,39.4572344 C87.5932331,39.3788944 87.6067033,39.3828813 87.6067033,39.5420489 C87.6067033,39.6631872 87.557555,39.696992 87.2600781,39.7804595 C86.8029377,39.9087268 86.4229053,39.908976 86.3738106,39.7810556 L86.3738106,39.7810413 Z M88.8239503,39.7397462 C88.6532722,39.5928167 88.6497497,39.5778677 88.6497497,39.0003819 C88.6497497,38.4386281 88.6603113,38.3896138 88.8749225,37.9555152 C89.1382172,37.4229501 89.4403669,37.1348034 89.9260868,36.9530732 C90.7721344,36.6365259 91.3798132,37.1742777 91.0054013,37.9081854 C90.7936987,38.3231605 90.2290172,38.6226989 89.654555,38.6247534 C89.3094974,38.6259872 89.2862464,38.6350486 89.2491795,38.7827189 C89.1993517,38.9812566 89.2616185,39.2806258 89.3808536,39.4157974 C89.5163781,39.5694352 89.7494364,39.5437339 90.1652126,39.3292997 C90.4752715,39.1693923 90.5440351,39.1525033 90.5898934,39.224995 C90.6954497,39.391855 90.6431007,39.4560238 90.2441205,39.6488074 C89.9369464,39.7972323 89.7420457,39.8487028 89.4199768,39.866456 C89.0375185,39.8875375 88.9818914,39.8757111 88.8239503,39.7397462 L88.8239503,39.7397462 Z M90.1221497,38.1352595 C90.5249026,37.9088994 90.6593185,37.4637004 90.3801338,37.2807733 C90.2700477,37.2086386 90.1913245,37.1982242 90.0672199,37.2393763 C89.8570311,37.3090756 89.5568543,37.6987053 89.4327556,38.0629132 L89.3369801,38.3440053 L89.6105801,38.3065039 C89.7610649,38.2858778 89.9912682,38.2088181 90.1221497,38.1352595 L90.1221497,38.1352595 Z M0.00183275285,39.7154485 C0.0129122893,39.6579171 0.0753114934,39.6010639 0.140498315,39.5891082 C0.317478844,39.5566474 0.472122685,39.3996838 0.592890765,39.12993 C0.753081854,38.7721174 1.24738987,36.2837295 1.26075457,35.7678477 C1.27215298,35.3278484 1.27042033,35.3223936 1.08085113,35.2016225 C0.711026225,34.9660121 0.809850993,34.9306695 1.83848901,34.9306695 C2.65338417,34.9306695 2.79213139,34.9438935 2.79213139,35.0215635 C2.79213139,35.0750783 2.7178498,35.1273141 2.61150258,35.1485833 C2.23139682,35.2246047 2.08712623,35.599826 1.72826583,37.4457242 C1.39291152,39.1707143 1.39619444,39.1373815 1.54682642,39.2880135 C1.66128556,39.4024721 1.72357093,39.4122695 2.18816225,39.3888922 C2.81306801,39.3574482 3.03882735,39.2522758 3.25709642,38.8909162 C3.42904291,38.6062468 3.43588709,38.6014583 3.55917636,38.6795611 C3.62760437,38.7229095 3.62504325,38.7781343 3.54332325,39.0213632 C3.48971543,39.1809189 3.38509728,39.4187489 3.31083775,39.5498748 L3.17581987,39.7882854 L1.57875437,39.8041683 C0.0832714272,39.8190409 -0.0170302935,39.8133977 0.00183275285,39.7154485 L0.00183275285,39.7154485 Z M30.1497473,39.7335916 C30.1497473,39.6871188 30.2503268,39.5999499 30.3732572,39.539883 C30.5290073,39.4637787 30.6363898,39.3493577 30.7274638,39.1624575 C30.8982225,38.8120315 31.4144183,36.2737138 31.4238815,35.7379272 C31.4310326,35.3330392 31.4267185,35.3204774 31.2397915,35.2015033 C30.8397987,34.9469225 30.9302172,34.9306695 32.7464791,34.9306695 C34.412676,34.9306695 34.4483732,34.9331847 34.4119512,35.0479383 C34.3914807,35.1124367 34.3412708,35.3471221 34.3003744,35.5694615 C34.2373029,35.9123591 34.206157,35.9766066 34.0951673,35.9927619 C33.9887187,36.0082562 33.9643168,35.9825162 33.9643168,35.8547376 C33.9643168,35.459066 33.7295396,35.347888 32.8939897,35.347888 L32.3182723,35.347888 L32.1529697,36.1078218 C32.0620524,36.5257854 31.9746451,36.9146926 31.95873,36.9720602 C31.9327403,37.0657448 31.9833024,37.0762754 32.4553333,37.0754863 C33.0488565,37.0744909 33.2238028,37.0111619 33.3979754,36.7342432 C33.5529614,36.4878292 33.7551348,36.4680179 33.7081542,36.7038483 C33.6901953,36.7939973 33.6279999,37.1158516 33.5699422,37.4190801 C33.4866803,37.8539481 33.4432174,37.9704046 33.3641843,37.9704046 C33.3009459,37.9704046 33.2510334,37.9056439 33.2288726,37.7948378 C33.2095202,37.6980783 33.132603,37.5863734 33.057515,37.5459807 C32.9144841,37.469039 31.9771883,37.4347508 31.9077679,37.5039209 C31.8676607,37.5438826 31.6916756,38.4028826 31.6144734,38.9355175 C31.577363,39.1915538 31.5868512,39.2236635 31.7266993,39.3152954 C31.8495564,39.3957942 31.9814416,39.4102615 32.4003672,39.389195 C33.0223279,39.3579185 33.2433238,39.2586753 33.4991193,38.8957756 C33.6097919,38.7387626 33.7145114,38.6482738 33.7637009,38.6671494 C33.8796459,38.7116422 33.8659373,38.818207 33.6901697,39.2387567 C33.4295088,39.8624251 33.5780148,39.8180867 31.749781,39.8180867 C30.4085766,39.8180867 30.1497473,39.8044186 30.1497473,39.7335916 L30.1497473,39.7335916 Z M60.4278954,39.7348194 C60.4278954,39.6873566 60.5150642,39.6188094 60.621604,39.5824911 C60.9978755,39.4542238 61.1222364,39.1142938 61.4986808,37.1850324 C61.8228596,35.5236377 61.8149205,35.2579125 61.4375046,35.138126 C61.3703325,35.1168062 61.3257795,35.068112 61.3384987,35.0299168 C61.3551815,34.9797993 61.8217748,34.9560596 63.0149722,34.9446201 C64.6401636,34.9290393 64.6676821,34.9307821 64.6308,35.0469888 C64.6101596,35.1120093 64.5598192,35.3471227 64.5189199,35.5694621 C64.4558483,35.9123597 64.4247,35.9766072 64.3137139,35.9927625 C64.2032642,36.0088391 64.1828623,35.9832844 64.1828623,35.8288552 C64.1828623,35.4525628 63.8921801,35.3283991 63.0840278,35.3594921 L62.6110272,35.3776899 L62.4453258,36.1525244 C62.3541934,36.5786833 62.2787185,36.9608853 62.277604,37.0018621 C62.2746238,37.1118815 63.1853881,37.1020941 63.4025921,36.9897723 C63.4946901,36.9421462 63.6039,36.8214509 63.6452762,36.7215604 C63.6913669,36.6102817 63.7638675,36.5399416 63.8324762,36.5399416 C63.9712132,36.5399416 63.9721371,36.4966987 63.8162344,37.2998754 C63.706953,37.8629064 63.6685748,37.9704052 63.5768583,37.9704052 C63.5108424,37.9704052 63.4676305,37.9273566 63.4676305,37.8615892 C63.4676305,37.5834654 62.9104232,37.3766662 62.3954563,37.4636688 L62.1676728,37.5021525 L62.0467748,38.168398 C61.8335702,39.3432658 61.8425642,39.4496923 62.1663497,39.5838095 C62.5227377,39.7314292 62.3170013,39.7879093 61.3617377,39.8046999 C60.5787854,39.8184622 60.4278954,39.8071734 60.4278954,39.7348194 L60.4278954,39.7348194 Z M25.464628,38.452677 C25.1980313,38.3316062 24.9643168,37.9574201 24.9643168,37.6516597 C24.9643168,37.1781781 25.3828365,36.7547591 25.8492087,36.7564101 C26.4069763,36.7583829 26.7517711,37.0990937 26.7521734,37.6486772 C26.7527098,38.3470295 26.1123991,38.7468519 25.464628,38.452677 Z M55.8014835,38.4808077 C55.6991756,38.4362809 55.5391603,38.2998046 55.4458941,38.1775262 C55.30761,37.9962215 55.2771471,37.8981006 55.2807948,37.6457096 C55.28871,37.098118 55.629214,36.7613231 56.1749179,36.7613231 C56.4453173,36.7613231 56.5353709,36.7907138 56.7199842,36.9392072 C57.1314153,37.270142 57.195363,37.824983 56.8670477,38.2151658 C56.5910994,38.5431127 56.1800736,38.6455804 55.8014835,38.4808077 Z M20.1673836,36.3623269 C20.0501475,36.2327823 20.0417084,36.2463544 20.719055,35.4751057 L20.9475745,35.2149056 L21.2870718,35.2908817 C21.473795,35.3326685 21.6265685,35.3848637 21.6265685,35.4068714 C21.6265685,35.4470811 20.350387,36.4803389 20.3007236,36.4803389 C20.2861264,36.4803389 20.2261232,36.4272336 20.1673836,36.3623269 L20.1673836,36.3623269 Z M50.4904291,36.3622673 L50.3581971,36.2551923 L50.8081226,35.7419468 C51.0555815,35.4596615 51.2808062,35.2287012 51.3086221,35.2287012 C51.4539906,35.2287012 51.9649087,35.3751968 51.9508603,35.4128501 C51.936067,35.4524936 50.8256464,36.3454707 50.6825619,36.4327879 C50.6496165,36.4528925 50.5631569,36.4211583 50.4904291,36.3622673 L50.4904291,36.3622673 Z M90.112196,36.3628037 L89.9683748,36.2543191 L90.4339371,35.7415128 C90.689996,35.4594695 90.9209801,35.2287066 90.9472291,35.2287066 C91.0651649,35.2287066 91.5997887,35.3719377 91.5972377,35.4028506 C91.5945556,35.4350831 90.4690848,36.3432064 90.3228318,36.4311232 C90.2860868,36.4532138 90.1913007,36.4224701 90.112196,36.3628037 Z M5.05082384,36.056911 C4.80860881,35.8146966 5.04499172,35.347888 5.40985947,35.347888 C5.66360821,35.347888 5.7961049,35.4810254 5.7961049,35.7360008 C5.7961049,36.1337621 5.32886364,36.3349514 5.05082384,36.056911 L5.05082384,36.056911 Z M45.2739195,36.0993552 C45.1274323,35.9881558 45.1361134,35.6198001 45.2888201,35.4670933 C45.534659,35.2212544 46.0040519,35.3817143 46.0040519,35.7115929 C46.0040519,36.068853 45.5508238,36.3095559 45.2739195,36.0993552 L45.2739195,36.0993552 Z M84.8587709,36.056911 C84.6123258,35.8104648 84.8540026,35.347888 85.2292013,35.347888 C85.6036192,35.347888 85.7640338,35.7655136 85.4935212,36.0360274 C85.3099033,36.2196447 85.0306947,36.2288307 84.8587709,36.056911 L84.8587709,36.056911 Z M32.6409097,34.3532116 C32.5498583,34.2517202 32.5715781,34.2152905 33.0027401,33.7463267 L33.4614368,33.2474144 L33.8022805,33.3236921 C33.9897451,33.3656446 34.1417736,33.4158175 34.140122,33.4351872 C34.1352882,33.4918651 32.9383746,34.4087261 32.8333703,34.436185 C32.780793,34.4499348 32.6941856,34.4125961 32.6409097,34.3532116 Z" id="path8" fill="#000000"></path>
                    <path d="M52.4562825,30.9933775 L52.5953414,30.633781 C52.8309793,29.9841711 53.0753674,29.4883879 53.4280655,28.9444762 C53.8016895,28.3682903 54.6240964,27.5195664 54.9662025,27.3571164 C55.3866622,27.1574636 55.9093583,27.0871695 56.5557354,27.1433515 C57.1107952,27.1915969 58.816207,27.4704628 59.5043821,27.6255083 C60.0281404,27.7435109 60.7950477,27.7548026 61.1559179,27.6498238 C61.8512364,27.4475533 62.2631682,27.0565558 62.4586589,26.4132733 C62.6086252,25.919792 62.6071947,25.4712952 62.4547252,25.1721942 C62.2499066,24.7704449 62.2847801,24.6659549 62.7825397,24.1899789 C63.0284007,23.9548792 63.2298874,23.737503 63.2302927,23.7069215 C63.2323788,23.5477919 62.8917437,22.908833 62.8040444,22.907393 C62.7503066,22.9065109 62.6441483,22.8553939 62.5681311,22.7937993 L62.4299185,22.6818083 L62.7254344,22.5307347 C63.1289444,22.3244511 63.4282331,22.0036691 63.4282331,21.7774621 C63.4282331,21.6797376 63.3432159,21.4401654 63.2393106,21.2450805 C63.039904,20.8707097 62.9865596,20.5130015 63.0988272,20.3030815 C63.1730086,20.1643885 63.3009278,20.106062 63.9292887,19.9244313 C64.4573086,19.7718062 64.6482099,19.6170908 64.7234821,19.2807679 C64.7878828,18.9930511 64.7562397,18.8081273 64.5834636,18.4624444 C64.4427954,18.1809918 63.5266788,16.7774901 63.2598258,16.4346085 C62.9012265,15.9738467 62.4643808,15.1778044 62.3351801,14.7496613 C62.2078212,14.3276346 62.2069689,14.3037137 62.2998954,13.7581772 C62.4963397,12.6049405 62.3814735,11.6488055 61.822502,9.78450139 C61.4070834,8.39895854 61.2955252,8.06260172 61.1654424,7.80337967 C60.9302563,7.3347294 60.9616788,7.22501821 61.4441921,6.8299945 C61.6751464,6.64091404 61.8897159,6.43834073 61.9210073,6.37983238 C62.0667119,6.10740656 61.9038715,5.58248925 61.627798,5.43463975 C61.4525781,5.34079991 61.3550384,5.40522244 61.1771424,5.732298 C61.042351,5.98011377 60.9895132,6.02704132 60.845257,6.02704132 C60.6104464,6.02704132 60.5692728,5.92854556 60.7192331,5.72557512 C60.8940715,5.48893687 60.8802258,5.45099126 60.6055768,5.41412881 C60.3999954,5.38653594 60.2913278,5.30620021 59.845643,4.85232467 C59.2481164,4.24381661 58.8467116,3.96339878 58.0465299,3.59548111 C57.6797066,3.42682003 57.5519489,3.34699009 57.6865252,3.37053505 C57.8012603,3.3906085 58.2069266,3.42268426 58.5880128,3.44181439 C59.6938113,3.4973246 59.9626013,3.35123106 60.2203053,2.55462342 C60.3952748,2.01376287 60.4791954,1.76362349 60.0777,1.38600221 L58.6040621,0 L91.6688742,0 L91.6688742,30.9933775 L52.4562825,30.9933775 Z" id="path10" fill="#E2011C"></path>
                    <path d="M24.2602266,30.9933775 C24.0202574,30.96819 23.8121863,30.9572452 23.7978453,30.9428952 C23.7726119,30.9176452 24.0436413,30.7434129 25.2848861,29.9869444 C25.6830163,29.7443068 25.8468133,29.6142473 25.7915068,29.584673 C25.7465545,29.5606359 25.3990323,29.5225319 25.0192341,29.4999968 C24.4549848,29.4665162 24.291475,29.4761235 24.1251968,29.5525264 C24.0132749,29.6039527 23.566615,29.7392144 23.1326201,29.8531079 C22.0562195,30.1355869 21.693997,30.329519 21.3483737,30.808384 L21.2192321,30.9933775 L0,30.9933775 L0,0 L42.0996701,0 L41.2839572,0.532472901 C40.8348817,0.755427397 40.3130038,1.06508378 40.1242268,1.22059818 C39.4838678,1.74812835 38.6215719,2.94820182 38.4062549,3.61153132 C38.3271151,3.85533709 38.2552683,3.9467244 38.0124435,4.112451 C37.6419022,4.36534236 37.1980448,4.84761058 36.83052,5.39665599 C36.3314724,6.14218172 35.3802636,7.82234106 35.1933646,8.28843139 C34.9034257,9.01148364 34.9297647,9.5620643 35.3576628,11.7228731 C35.5460442,12.6741666 35.7498823,13.6403708 35.8106358,13.869993 C35.8713894,14.0996158 35.9378839,14.4887811 35.9584003,14.7348054 C35.9950333,15.1740739 36.0235872,15.2691723 36.2807475,15.8083653 C36.3511502,15.9559796 36.4086775,16.1234964 36.4085863,16.1806238 C36.4084671,16.2377517 36.462063,16.3180144 36.5276259,16.3589865 C36.5956218,16.4014796 36.6468306,16.498074 36.6468306,16.5838428 C36.6468306,16.6871652 36.7825774,16.8832579 37.0807432,17.2106499 C37.7628765,17.9596472 38.2560974,18.6617795 38.2560974,18.8838435 C38.2560974,19.0662217 37.9885679,19.1133554 37.5575352,19.0069164 C37.0537486,18.882512 36.6416434,18.6138083 36.0061039,17.9953421 C35.7356575,17.7321612 35.5143838,17.5552194 35.5143838,17.6021392 C35.5143838,17.6490584 35.6998107,17.8937505 35.9264432,18.1458989 C36.3771739,18.6473772 36.4478686,18.7842028 36.3503998,18.9664462 C36.2651328,19.1258762 36.0576715,19.1723019 35.7770193,19.0947582 C35.4531481,19.0052738 35.2633721,19.1300102 35.3167862,19.3972613 C35.3495551,19.5612157 35.3405646,19.5805037 35.2479493,19.5449394 C35.0648619,19.4746357 34.6642123,19.3941042 34.3039393,19.3551926 C33.972989,19.3194477 33.9484947,19.304935 33.7481529,19.0258868 C33.5963325,18.8144237 33.4782066,18.7170228 33.3195288,18.6724627 C32.7281114,18.5063823 31.2570674,18.2503818 30.2693656,18.1416528 C28.5332418,17.9505358 28.1150684,17.9355314 27.2833152,18.034507 C26.6445817,18.110514 26.4708936,18.1551201 26.1210672,18.3329923 C25.5017879,18.6478707 24.4283227,19.6345258 24.4283227,19.8888467 C24.4283227,20.0081587 24.6647545,19.9660661 24.9349434,19.7986524 C25.7548822,19.2906036 28.5634991,18.5735706 29.9415517,18.5204766 C30.624427,18.4941668 30.5874077,18.5268749 29.768074,18.6737525 C29.5415356,18.7143622 29.0051136,18.8517922 28.5760246,18.9791523 C28.1469356,19.1065125 27.4069562,19.3027637 26.9316268,19.4152661 C26.4562969,19.5277685 25.9198748,19.672805 25.7395768,19.7375686 L25.4117634,19.8553214 L25.9183848,19.8608585 C28.4998005,19.8890672 31.4424244,20.7085917 32.6399764,21.7328293 C33.1552526,22.1735319 33.3439504,22.2270163 34.1019006,22.147197 C35.1406383,22.0378083 36.4851244,21.5418993 37.0747413,21.0506752 C37.3306083,20.8375063 37.5410885,20.7527543 37.5407177,20.8630454 C37.5400621,21.0578573 37.2011168,22.1051342 37.0546307,22.3649577 C36.8913254,22.6546146 36.8820507,22.6963097 36.9670852,22.7585295 C37.0193954,22.7968057 37.0471804,22.8431474 37.0288287,22.8615109 C37.0104771,22.8798751 37.0511255,22.9125785 37.1191589,22.9341856 C37.3147671,22.9963107 37.265543,23.0563484 36.9533563,23.1364126 C36.6490109,23.2144665 36.4084206,23.3511288 36.4084206,23.445953 C36.4084206,23.4768964 36.4502354,23.5022132 36.5013423,23.5022132 C36.6544234,23.5022132 36.5401872,23.6092589 36.3401994,23.6532129 C36.2032695,23.6833081 36.1759077,23.7079013 36.2365784,23.7463522 C36.2960541,23.7840449 36.2982642,23.798852 36.2445139,23.7995112 C36.2035371,23.799988 36.1700106,23.8609705 36.1700106,23.9349707 C36.1700106,24.0271051 36.1136468,24.0944829 35.9912032,24.1487177 C35.6927817,24.2808997 35.7764376,24.3522858 36.1849113,24.3140138 C36.3897948,24.294817 36.5171954,24.2950077 36.4680232,24.314431 C36.4188511,24.3338615 36.0835874,24.4856253 35.7229925,24.6516848 C35.3623971,24.8177438 34.893028,25.01487 34.6799491,25.0897428 C34.4387432,25.1744996 34.2846823,25.2637617 34.2717318,25.3262646 C34.2509287,25.4266683 34.3629179,25.4233359 34.6446107,25.3151684 C34.6968274,25.2951175 34.7388979,25.3017125 34.7380999,25.3298247 C34.7373012,25.3579369 34.1165265,25.7164248 33.3585995,26.1264648 C32.6006732,26.5365054 31.8914601,26.9592193 31.782572,27.0658299 C31.6736839,27.1724406 31.5343627,27.2596673 31.472969,27.2596673 C31.4111921,27.2596673 31.3304555,27.3275058 31.2921751,27.4115789 C31.1764053,27.6658343 31.2003554,27.6967597 31.4763157,27.6493524 C31.886308,27.5789187 32.0742155,27.5827971 32.101436,27.6622522 C32.1161615,27.705237 32.0774877,27.736805 32.0101021,27.736805 C31.9458219,27.736805 31.8611605,27.7754704 31.8219664,27.8227281 C31.7827717,27.8699853 31.6792711,27.916954 31.5919639,27.9271019 C31.4903837,27.9389086 31.3900111,28.0139066 31.3132142,28.1353816 C31.2472085,28.2397875 31.1395619,28.3389991 31.073999,28.3558518 C31.0084361,28.3727044 31.1023103,28.3755153 31.2826077,28.3620975 C33.9635199,28.1625848 34.4629949,28.0633077 35.5441846,27.5150587 C36.4665666,27.0473376 37.424076,26.3520358 38.1052258,25.6553416 C38.3008875,25.4552144 38.48193,25.291474 38.5075425,25.291474 C38.6001596,25.291474 38.5499146,25.6260189 38.4131611,25.9198903 C38.1764837,26.4284887 37.6798923,26.8969893 36.659163,27.5746732 C36.1442694,27.9165219 35.5888866,28.2384739 35.4249799,28.2901226 C34.9128679,28.4514932 34.0861321,28.6233902 33.2194285,28.7487077 C30.3958621,29.1569698 29.3153281,29.4666348 28.2449956,30.1743042 C28.0658617,30.2927424 27.8778195,30.3826142 27.8271238,30.3740207 C27.7764288,30.365426 27.6413716,30.4384208 27.5269971,30.5362311 C27.2053097,30.8113289 27.4383691,30.7647924 28.1055582,30.4207051 C28.7892656,30.0680988 29.1098038,30.0125325 28.5706949,30.3400723 C27.9096538,30.741697 27.4057492,30.9933775 26.9124133,30.9933775 L24.2602266,30.9933775 Z M20.7528324,27.5360609 C20.8599962,27.4912552 21.2145139,27.2926371 21.5406513,27.0946866 C21.866788,26.8967366 22.2543221,26.6800172 22.401838,26.6130882 C22.5493546,26.5461592 22.9650819,26.358247 23.3256767,26.1955061 C24.0814746,25.8544055 25.1906334,25.5325554 25.2544202,25.6358336 C25.2768278,25.6721132 25.4420911,25.7120684 25.6216732,25.7246237 C25.8730248,25.7421964 25.9173161,25.7583528 25.8140801,25.7948106 C25.7403219,25.8208587 25.6799748,25.8658796 25.6799748,25.8948572 C25.6799748,26.0027553 26.2377733,25.9703875 26.4726215,25.8488613 C26.5646921,25.8012179 26.7726862,25.7465146 26.9348311,25.7272981 C27.1364305,25.7034058 27.2296389,25.6650431 27.2296389,25.6059608 C27.2296389,25.5385258 27.2808322,25.5282181 27.4628825,25.5589957 C27.7133865,25.6013458 28.2521813,25.4994246 29.7031417,25.1352185 C30.6857801,24.8885654 31.4300104,24.6403335 32.0836631,24.3412158 L32.5569046,24.1246562 L32.0836631,23.8213788 C30.9302154,23.0821885 29.7719809,22.6282744 27.2296389,21.919078 C26.7870904,21.7956278 26.3981843,21.667956 26.3654028,21.6353634 C26.3258696,21.5960579 26.3459384,21.5905077 26.4250055,21.6188809 C26.6788454,21.7099699 26.8720242,21.7274293 26.8720242,21.6592826 C26.8720242,21.5708907 26.6800726,21.4996339 26.3029506,21.4480281 C25.9580319,21.4008294 25.7353862,21.2978623 25.9750067,21.2963632 C26.3458705,21.2940447 25.7083206,21.0588807 24.9945461,20.9347152 C24.4661203,20.8427925 24.4356825,20.8231188 24.6563952,20.7161535 C24.8487407,20.6229356 25.0556227,20.2701892 25.001193,20.1282526 C24.9549884,20.0077659 24.8973592,20.020193 24.6115466,20.2122757 C24.0605046,20.582606 23.5550718,21.1890499 23.2710312,21.8206937 C23.1090032,22.1810084 23.1651042,22.2140676 23.9990698,22.2497255 C24.6819707,22.2789242 24.6927999,22.2815533 24.5177261,22.3756254 C24.4193823,22.4284691 24.2221136,22.4896244 24.0793516,22.5115272 C23.5944811,22.5859136 23.3251564,22.8161277 23.5655261,22.9507349 C23.6369092,22.9907092 23.608583,23.0244103 23.4333012,23.1080525 C23.2368276,23.2018063 23.2230111,23.2216534 23.3174122,23.2745185 C23.3763616,23.3075307 23.5477675,23.3247368 23.6983142,23.3127548 C23.9075404,23.2961036 24.003084,23.3186436 24.1038054,23.4084195 L24.2355761,23.5258689 L23.9711603,23.6936676 C23.8257322,23.785957 23.661236,23.9475171 23.6056148,24.0526895 C23.549993,24.157862 23.3502628,24.408087 23.16177,24.6087447 C22.9732772,24.8094024 22.8190554,25.0169472 22.8190554,25.0699548 C22.8190554,25.1229624 22.5441393,25.3863912 22.20813,25.6553511 C21.3045038,26.3786644 20.9117766,26.7762213 20.9117766,26.9676453 C20.9117766,27.0689346 20.8607156,27.1601475 20.7711328,27.218883 C20.4890346,27.4038443 20.3418107,27.6175252 20.4964736,27.6175252 C20.5303071,27.6175252 20.6456692,27.580866 20.7528324,27.5360609 L20.7528324,27.5360609 Z M27.7250907,26.8391587 C27.9484164,26.8092989 28.2070222,26.7400115 28.2997693,26.6851877 L28.4684007,26.5855083 L28.1807911,26.4420912 L27.8931809,26.2986735 L27.6061119,26.4150375 C27.4482238,26.4790377 27.2295894,26.5652702 27.1202585,26.6066654 C26.6805256,26.7731577 26.6231432,26.9969632 27.0359309,26.9355618 C27.1916422,26.9124002 27.5017643,26.8690184 27.7250907,26.8391587 Z M17.6336398,24.1270164 C18.9618693,22.7373252 19.8991669,21.912905 21.0888983,21.0878714 C21.4932058,20.8074993 21.7780158,20.645401 21.792091,20.6876539 C21.8307111,20.8035912 22.0039003,20.7694597 22.285865,20.5903425 C22.6098727,20.3845166 22.7719663,20.1762072 23.1764126,19.4458804 C23.5960015,18.6882097 23.7545416,18.4988777 24.3602303,18.0321413 C24.6435413,17.8138252 25.060733,17.4878815 25.2873238,17.3078207 C25.6138438,17.0483513 25.6922762,17.0073381 25.6654192,17.1101086 C25.6446161,17.1897115 25.6589785,17.2397783 25.702616,17.2397783 C25.8380315,17.2397783 26.4760415,16.9672852 26.4985027,16.8998561 C26.5336152,16.7944482 25.8853929,16.6856025 25.4059081,16.716395 C25.0377997,16.7400346 24.9074243,16.7827691 24.45066,17.0295085 C23.3773123,17.6093207 22.6019575,18.2347331 21.1214086,19.7149309 C20.0559403,20.7801471 19.2166021,21.4943775 18.7923689,21.6968156 C18.6542094,21.7627426 18.5501599,21.9009379 18.3825596,22.2411099 C18.0568156,22.9022601 17.4752392,23.8510901 16.9231709,24.6220707 C16.4014158,25.3507172 16.2894284,25.6027786 16.6949011,25.1358598 C16.8342217,24.9754262 17.2566542,24.5214465 17.6336398,24.1270164 L17.6336398,24.1270164 Z M30.924993,30.6519813 C32.520187,30.3202162 32.6962782,30.2955133 33.8157131,30.2464639 C35.0727127,30.1913863 35.232905,30.1587056 35.9890879,29.8030768 C36.2313632,29.6891362 36.3263805,29.6684166 36.3600495,29.7221847 C36.4186562,29.8157764 36.828782,29.5922628 37.6302713,29.0299291 C37.9580853,28.7999321 38.4216509,28.5060087 38.6604167,28.376767 C39.020214,28.1820123 39.1302882,28.148493 39.3033576,28.180983 C39.4881479,28.2156729 39.5428655,28.1931538 39.7788443,27.9852991 C40.4329101,27.4091829 40.9913845,27.1428622 41.5491348,27.1410956 C41.7149815,27.1405591 41.7726435,27.1651142 41.7726435,27.2362321 C41.7726435,27.2969231 41.8054345,27.3194845 41.8620475,27.2977456 C42.0282155,27.2339386 41.9529421,27.3069173 41.5256185,27.6239164 C41.0308593,27.9909411 41.0794933,28.1011482 41.5824813,27.7527719 C42.0694349,27.4155008 42.0706562,27.4149972 42.0706562,27.5513948 C42.0706562,27.6291119 41.8873601,27.824248 41.5491348,28.1066042 C40.7796074,28.7490159 40.2347134,29.2803079 39.4051673,30.1970515 L38.6630893,30.9933775 L29.2263223,30.9933775 L30.924993,30.6519813 L30.924993,30.6519813 Z M30.939893,18.5199305 C30.9972606,18.492748 31.0911348,18.492748 31.1485017,18.5199305 C31.2058693,18.5471141 31.1589322,18.5693546 31.0441977,18.5693546 C30.9294632,18.5693546 30.8825261,18.5471141 30.939893,18.5199305 Z" id="path12" fill="#003189"></path>
                    <path d="M58.7434381,16.2426862 C58.483136,16.2033151 58.6174625,16.1065764 58.9324375,16.1065764 C59.2484203,16.1065764 59.4149793,15.9851944 59.4149793,15.7549178 C59.4149793,15.6466484 59.3914363,15.6288773 59.2904754,15.6609423 C59.2033786,15.6886051 59.141368,15.6653291 59.084072,15.5834744 C59.0305613,15.5070292 58.9011759,15.4530584 58.7108533,15.427794 C58.370881,15.3826659 57.8203027,15.0542023 57.9190285,14.9554103 C57.9527398,14.9216752 58.1277743,14.8818374 58.3079883,14.8668825 C58.6185711,14.8411091 58.6391162,14.8291862 58.7021334,14.6381162 C58.749297,14.4951026 58.8148838,14.425653 58.9278898,14.3990636 C59.0154878,14.3784513 59.1542183,14.2997692 59.236172,14.2242151 C59.318125,14.1486598 59.5863358,13.9555395 59.8321967,13.7950587 C60.2455351,13.5252584 60.5016119,13.2376625 60.4100623,13.1460556 C60.3136132,13.0495399 59.4186509,12.9445075 58.997762,12.9803084 C58.5088069,13.0218979 57.6663377,13.1996229 57.3139919,13.335511 C56.9523242,13.4749937 57.0580468,13.3535259 57.5549589,13.0586603 C58.2257611,12.6606099 59.5170596,12.2894744 60.2312066,12.2894744 C60.5082636,12.2894744 61.4353411,12.5085755 61.5457669,12.6001502 C61.7620768,12.7795274 61.5261397,13.4092162 61.1249185,13.7233717 L60.9573695,13.8545559 L61.0951172,14.0015366 L61.2328589,14.1485162 L61.092149,14.2627339 C61.0147609,14.3255539 60.9087517,14.3769523 60.8565755,14.3769523 C60.8043993,14.3769523 60.6752166,14.460846 60.5694934,14.5633822 C60.4067781,14.7211951 60.3857623,14.7721488 60.4325563,14.8953201 C60.4687947,14.9906956 60.4652483,15.0830696 60.4222689,15.1634372 C60.3821205,15.2384996 60.3720656,15.4091682 60.3963298,15.6035265 C60.4458715,16.0003019 60.3743781,16.1424453 60.0848046,16.2229184 C59.8700801,16.2825908 59.0838753,16.2941775 58.7434381,16.2426862 L58.7434381,16.2426862 Z" id="path14" fill="#7F7F7F"></path>
                </g>
            </g>
        </g>
    </g>
</svg>
