<svg xmlns="http://www.w3.org/2000/svg" xmlns:xlink="http://www.w3.org/1999/xlink" width="281" height="264" viewBox="0 0 281 264">
    <defs>
        <linearGradient id="c" x1="52.053%" x2="52.053%" y1="6.089%" y2="95.176%">
            <stop offset="0%" stop-color="#FFBE00" stop-opacity="0"/>
            <stop offset="100%" stop-color="#FF8900"/>
        </linearGradient>
        <path id="b" d="M120.59 162.681c0-1.415-.978-2.564-2.569-2.564H5.02c-.074 0-.351.823 0 2.564l23.114 25.639c1.352 1.754 1.34 3.387 0 5.128L5.02 219.087c-.362 1.753-.075 2.563 0 2.563H118.02c1.59 0 2.568-1.147 2.568-2.563"/>
        <filter id="a" width="117.3%" height="132.5%" x="-8.6%" y="-13%" filterUnits="objectBoundingBox">
            <feOffset dy="2" in="SourceAlpha" result="shadowOffsetOuter1"/>
            <feGaussianBlur in="shadowOffsetOuter1" result="shadowBlurOuter1" stdDeviation="3"/>
            <feComposite in="shadowBlurOuter1" in2="SourceAlpha" operator="out" result="shadowBlurOuter1"/>
            <feColorMatrix in="shadowBlurOuter1" values="0 0 0 0 0 0 0 0 0 0 0 0 0 0 0 0 0 0 0.25 0"/>
        </filter>
        <path id="e" d="M268.652 162.681c0-1.415-.978-2.564-2.569-2.564H153.082c-.074 0-.351.823 0 2.564l23.114 25.639c1.352 1.754 1.341 3.387 0 5.128l-23.114 25.639c-.362 1.753-.075 2.563 0 2.563h113.001c1.59 0 2.569-1.147 2.569-2.563"/>
        <filter id="d" width="117.3%" height="132.5%" x="-8.6%" y="-13%" filterUnits="objectBoundingBox">
            <feOffset dy="2" in="SourceAlpha" result="shadowOffsetOuter1"/>
            <feGaussianBlur in="shadowOffsetOuter1" result="shadowBlurOuter1" stdDeviation="3"/>
            <feComposite in="shadowBlurOuter1" in2="SourceAlpha" operator="out" result="shadowBlurOuter1"/>
            <feColorMatrix in="shadowBlurOuter1" values="0 0 0 0 0 0 0 0 0 0 0 0 0 0 0 0 0 0 0.25 0"/>
        </filter>
        <path id="g" d="M250.485 110.438L239.34 93.96l3.995-19.521a6.711 6.711 0 0 0-2.838-7.031l-16.716-10.916-3.785-19.521a6.723 6.723 0 0 0-5.362-5.354l-19.553-3.777-10.934-16.688a6.735 6.735 0 0 0-7.044-2.834l-19.554 3.989-16.505-11.125a6.739 6.739 0 0 0-4.416-1.155 6.743 6.743 0 0 0-3.154 1.155L116.97 12.307 97.416 8.318a6.735 6.735 0 0 0-7.044 2.834L79.544 27.84l-19.555 3.777a6.726 6.726 0 0 0-5.361 5.354l-3.784 19.52-16.716 10.916a6.712 6.712 0 0 0-2.839 7.032l3.995 19.521-11.143 16.478a6.707 6.707 0 0 0 0 7.556l11.143 16.478-3.995 19.52a6.712 6.712 0 0 0 2.839 7.033l16.716 10.915 3.784 19.52a6.724 6.724 0 0 0 5.361 5.354l19.555 3.778 10.828 16.687a6.734 6.734 0 0 0 7.044 2.834l19.554-3.987 16.505 11.124a6.745 6.745 0 0 0 3.154 1.155 6.74 6.74 0 0 0 4.416-1.155l16.505-11.124 19.554 3.987a6.733 6.733 0 0 0 7.044-2.834l10.934-16.687 19.553-3.778a6.722 6.722 0 0 0 5.362-5.353l3.785-19.521 16.716-10.915a6.712 6.712 0 0 0 2.838-7.032l-3.995-19.521 11.144-16.478v.001a6.712 6.712 0 0 0 0-7.557"/>
        <filter id="f" width="108.7%" height="108.8%" x="-4.4%" y="-3.5%" filterUnits="objectBoundingBox">
            <feOffset dy="2" in="SourceAlpha" result="shadowOffsetOuter1"/>
            <feGaussianBlur in="shadowOffsetOuter1" result="shadowBlurOuter1" stdDeviation="3"/>
            <feColorMatrix in="shadowBlurOuter1" values="0 0 0 0 0 0 0 0 0 0 0 0 0 0 0 0 0 0 0.25 0"/>
        </filter>
        <ellipse id="h" cx="137.425" cy="114.258" rx="99.984" ry="99.816"/>
        <path id="i" d="M137.425 214.074c55.22 0 99.985-44.69 99.985-99.816 0-55.127-44.765-99.817-99.985-99.817v199.633z"/>
        <path id="j" d="M225.464 134.472l3.784 17.737-15.243 9.97a6.718 6.718 0 0 0-2.944 4.408l-3.363 17.948-17.978 3.358a6.734 6.734 0 0 0-4.416 2.938l-9.987 15.219-17.767-3.779a6.742 6.742 0 0 0-5.257 1.05l-15.033 10.285-15.033-10.286a6.742 6.742 0 0 0-5.257-1.049l-17.767 3.779-9.987-15.219a6.731 6.731 0 0 0-4.31-2.938l-17.978-3.358-3.364-17.948a6.717 6.717 0 0 0-2.944-4.408l-15.244-9.97 3.785-17.737a6.709 6.709 0 0 0-1.051-5.247l-10.303-15.01L48.11 99.209a6.71 6.71 0 0 0 1.051-5.248l-3.785-17.737 15.244-9.97a6.717 6.717 0 0 0 2.944-4.409l3.364-17.947 17.978-3.358a6.728 6.728 0 0 0 4.31-2.939l9.987-15.218 17.767 3.778a6.738 6.738 0 0 0 5.257-1.049l15.033-10.286 15.033 10.286a6.739 6.739 0 0 0 5.257 1.05l17.767-3.78 9.987 15.22a6.728 6.728 0 0 0 4.416 2.938l17.978 3.358 3.363 17.947a6.718 6.718 0 0 0 2.944 4.408l15.243 9.97-3.784 17.738a6.71 6.71 0 0 0 1.051 5.248l10.303 15.008-10.303 15.009a6.708 6.708 0 0 0-1.05 5.247m25.02-24.034L239.34 93.96l3.995-19.521a6.711 6.711 0 0 0-2.838-7.031l-16.716-10.916-3.785-19.521a6.723 6.723 0 0 0-5.362-5.354l-19.553-3.777-10.934-16.688a6.735 6.735 0 0 0-7.044-2.834l-19.554 3.989-16.505-11.125a6.739 6.739 0 0 0-4.416-1.155 6.743 6.743 0 0 0-3.154 1.155L116.97 12.307 97.416 8.318a6.735 6.735 0 0 0-7.044 2.834L79.544 27.84l-19.555 3.777a6.726 6.726 0 0 0-5.361 5.354l-3.784 19.52-16.716 10.916a6.712 6.712 0 0 0-2.839 7.032l3.995 19.521-11.143 16.478a6.707 6.707 0 0 0 0 7.556l11.143 16.478-3.995 19.52a6.712 6.712 0 0 0 2.839 7.033l16.716 10.915 3.784 19.52a6.724 6.724 0 0 0 5.361 5.354l19.555 3.778 10.828 16.687a6.734 6.734 0 0 0 7.044 2.834l19.554-3.987 16.505 11.124a6.745 6.745 0 0 0 3.154 1.155 6.74 6.74 0 0 0 4.416-1.155l16.505-11.124 19.554 3.987a6.733 6.733 0 0 0 7.044-2.834l10.934-16.687 19.553-3.778a6.722 6.722 0 0 0 5.362-5.353l3.785-19.521 16.716-10.915a6.712 6.712 0 0 0 2.838-7.032l-3.995-19.521 11.144-16.478v.001a6.712 6.712 0 0 0 0-7.557"/>
        <path id="k" d="M137 228.405a6.738 6.738 0 0 0 4.415-1.154l16.506-11.125 19.554 3.987a6.735 6.735 0 0 0 7.044-2.834l10.933-16.686 19.555-3.779a6.723 6.723 0 0 0 5.361-5.353l3.785-19.521 16.715-10.915a6.71 6.71 0 0 0 2.839-7.032l-3.995-19.521 11.144-16.478v.001a6.712 6.712 0 0 0 0-7.557L239.712 93.96l3.995-19.521a6.71 6.71 0 0 0-2.839-7.031l-16.715-10.916-3.785-19.521a6.723 6.723 0 0 0-5.361-5.353l-19.555-3.778-10.933-16.688a6.738 6.738 0 0 0-7.044-2.834l-19.554 3.988-16.506-11.124A6.738 6.738 0 0 0 137 .027v14.8l15.665 10.284a6.737 6.737 0 0 0 5.256 1.05l17.767-3.779 9.987 15.218a6.73 6.73 0 0 0 4.416 2.94l17.977 3.358 3.365 17.946a6.71 6.71 0 0 0 2.943 4.408l15.244 9.97-3.785 17.738a6.709 6.709 0 0 0 1.051 5.248l10.303 15.009-10.303 15.008a6.709 6.709 0 0 0-1.051 5.247l3.785 17.738-15.244 9.97a6.714 6.714 0 0 0-2.943 4.407l-3.365 17.948-17.977 3.359a6.73 6.73 0 0 0-4.416 2.938l-9.987 15.219-17.767-3.78a6.741 6.741 0 0 0-5.256 1.05L137 213.606v14.8z"/>
        <path id="l" d="M80.979 147.812c-36.653 0-66.207-29.523-66.207-66.134 0-36.611 29.554-66.133 66.207-66.133 36.652 0 66.206 29.522 66.206 66.133s-29.554 66.134-66.206 66.134m0-146.963C36.376.849.059 37.125.059 81.678c0 44.553 36.317 80.83 80.92 80.83s80.919-36.276 80.919-80.83c0-44.553-36.316-80.83-80.92-80.83"/>
        <path id="m" d="M81 162.507c44.603 0 80.92-36.276 80.92-80.829 0-44.554-36.317-80.83-80.92-80.83v14.697c36.652 0 66.207 29.52 66.207 66.133 0 36.611-29.555 66.134-66.207 66.134v14.695z"/>
    </defs>
    <g fill="none" fill-rule="evenodd">
        <g transform="rotate(-45 69.544 188.055)">
            <use fill="#000" filter="url(#a)" xlink:href="#b"/>
            <use fill="#FFBE00" xlink:href="#b"/>
            <use fill="url(#c)" fill-opacity=".5" xlink:href="#b"/>
            <path stroke="#FFC311" stroke-width="1.7" d="M5.694 220.8c-.014-.354.02-.797.115-1.32l22.956-25.463c1.623-2.102 1.626-4.161.042-6.216L5.81 162.289a6.34 6.34 0 0 1-.111-1.322H118.02c1.053 0 1.718.697 1.718 1.714v56.406c0 1.017-.665 1.713-1.718 1.713H5.694z"/>
        </g>
        <g transform="scale(-1 1) rotate(-45 2.828 706.574)">
            <use fill="#000" filter="url(#d)" xlink:href="#e"/>
            <use fill="#FFBE00" xlink:href="#e"/>
            <use fill="url(#c)" fill-opacity=".5" xlink:href="#e"/>
            <path stroke="#FFC311" stroke-width="1.7" d="M153.756 220.8c-.014-.354.02-.797.115-1.32l22.956-25.463c1.623-2.102 1.626-4.161.042-6.216l-22.996-25.512a6.34 6.34 0 0 1-.112-1.322h112.322c1.053 0 1.719.697 1.719 1.714v56.406c0 1.017-.666 1.713-1.719 1.713H153.756z"/>
        </g>
        <g transform="translate(4 4)">
            <use fill="#000" filter="url(#f)" xlink:href="#g"/>
            <use fill="#FFBE00" xlink:href="#g"/>
            <use fill="url(#c)" fill-opacity=".5" xlink:href="#g"/>
        </g>
        <g transform="translate(4 4)">
            <use fill="#FFF" xlink:href="#h"/>
            <use fill="#FFBE00" fill-opacity=".1" xlink:href="#h"/>
            <use fill="url(#c)" fill-opacity=".2" xlink:href="#h"/>
        </g>
        <g opacity=".439" transform="translate(4 4)">
            <use fill="#FFF" xlink:href="#i"/>
            <use fill="#FFBE00" fill-opacity=".3" xlink:href="#i"/>
            <use fill="url(#c)" fill-opacity=".4" xlink:href="#i"/>
        </g>
        <g transform="translate(4 4)">
            <use fill="#FFBE00" xlink:href="#j"/>
            <use fill="url(#c)" fill-opacity=".5" xlink:href="#j"/>
        </g>
        <g opacity=".4" style="mix-blend-mode:multiply" transform="translate(4 4)">
            <use fill="#FFBE00" xlink:href="#k"/>
            <use fill="url(#c)" fill-opacity=".5" xlink:href="#k"/>
        </g>
        <g opacity=".3">
            <g transform="translate(60 37)">
                <use fill="#FFBE00" xlink:href="#l"/>
                <use fill="url(#c)" fill-opacity=".5" xlink:href="#l"/>
            </g>
            <g style="mix-blend-mode:multiply" transform="translate(60 37)">
                <use fill="#FFBE00" xlink:href="#m"/>
                <use fill="url(#c)" fill-opacity=".5" xlink:href="#m"/>
            </g>
        </g>
    </g>
</svg>
