<svg width="130px" height="98px" viewBox="0 0 130 98" version="1.1" xmlns="http://www.w3.org/2000/svg" xmlns:xlink="http://www.w3.org/1999/xlink">
    <defs></defs>
    <g id="Home" stroke="none" stroke-width="1" fill="none" fill-rule="evenodd">
        <g transform="translate(-655.000000, -12.000000)" id="MenuBar">
            <g>
                <g id="pix-logo" transform="translate(655.000000, 12.000000)">
                    <g id="pix">
                        <path d="M112.985852,65.9858088 C116.818681,65.9858088 116.928334,65.4400159 114.62854,62.4931224 L101.487041,46.4483316 C100.501461,45.2477813 99.9538442,44.2653218 99.9538442,43.5012764 C99.9538442,42.6281048 100.501461,41.645807 101.487041,40.5543829 L114.62854,24.5095921 C116.928334,21.5626986 116.818681,21.0169057 112.985852,21.0169057 L111.671637,21.0169057 C107.838808,21.0169057 106.415103,21.7809511 104.115308,24.5095921 L94.0402021,36.7341561 C89.7690852,41.645807 89.7690852,45.3569075 94.0402021,50.2685584 L104.115308,62.4931224 C106.415103,65.2217635 107.838808,65.9858088 111.671637,65.9858088 L112.985852,65.9858088 Z" id="Page-1" fill="#3D68FF"></path>
                        <path d="M96.7648554,65.9858088 C100.597684,65.9858088 100.707338,65.4400159 98.4075428,62.4931224 L85.2660439,46.4483316 C84.2804639,45.2477813 83.7328474,44.2653218 83.7328474,43.5012764 C83.7328474,42.6281048 84.2804639,41.645807 85.2660439,40.5543829 L98.4075428,24.5095921 C100.707338,21.5626986 100.597684,21.0169057 96.7648554,21.0169057 L95.4506407,21.0169057 C91.6178116,21.0169057 90.194106,21.7809511 87.8943112,24.5095921 L77.8192053,36.7341561 C73.5480884,41.645807 73.5480884,45.3569075 77.8192053,50.2685584 L87.8943112,62.4931224 C90.194106,65.2217635 91.6178116,65.9858088 95.4506407,65.9858088 L96.7648554,65.9858088 Z" id="Page-1" fill="#FFBE00" transform="translate(87.274616, 43.501357) scale(-1, 1) translate(-87.274616, -43.501357) "></path>
                        <path d="M0,83.0943784 C0,86.45967 0.844134004,87.3009929 4.22067002,87.3009929 L5.34607389,87.3009929 C8.7226099,87.3009929 9.56674391,86.45967 9.56674391,83.0943784 L9.56674391,63.5572245 C12.0991459,67.5767886 16.6950046,69.6333736 23.3541578,69.6333736 C36.3911944,69.6333736 42.8628343,62.809346 42.8628343,49.2548969 L42.8628343,41.1221627 C42.8628343,27.5675519 35.9222491,21.2110696 21.3844578,21.2110696 C7.8784759,21.2110696 0,27.7546023 0,41.1221627 L0,83.0943784 Z M33.2023338,49.4417857 C33.2023338,57.294025 30.5761752,60.5658722 21.4783766,60.5658722 C12.1929025,60.5658722 9.56674391,57.2005806 9.56674391,49.4417857 L9.56674391,41.4024959 C9.56674391,33.5502566 12.380578,30.184965 21.4783766,30.184965 C30.7636884,30.184965 33.2023338,33.5502566 33.2023338,41.4024959 L33.2023338,49.4417857 Z" id="Fill-1" fill="#3D68FF"></path>
                        <path d="M53.086199,62.9068321 C53.086199,66.2721237 53.930333,67.1134466 57.306869,67.1134466 L58.5260295,67.1134466 C61.9025655,67.1134466 62.7466995,66.2721237 62.7466995,62.9068321 L62.7466995,24.9541805 C62.7466995,21.5888889 61.9025655,20.747566 58.5260295,20.747566 L57.306869,20.747566 C53.930333,20.747566 53.086199,21.5888889 53.086199,24.9541805 L53.086199,62.9068321 Z M53.7426576,10.6518528 C56.0875463,12.8953267 59.8391088,12.8953267 62.090241,10.6518528 C64.4349676,8.3147729 64.4349676,4.57570371 62.090241,2.33222986 C59.8391088,-0.00485005516 56.0875463,-0.00485005516 53.7426576,2.33222986 C51.397931,4.57570371 51.397931,8.3147729 53.7426576,10.6518528 L53.7426576,10.6518528 Z" id="Fill-2" fill="#3D68FF"></path>
                    </g>
                </g>
            </g>
        </g>
    </g>
</svg>
