<svg width="210" height="179" xmlns="http://www.w3.org/2000/svg"><g transform="translate(0 -6)" fill-rule="nonzero" fill="none"><g fill="#333E40"><path d="M148.458 59.371h-.014a3.164 3.164 0 01-3.152-3.174c.004-.912.22-22.503 12.497-37.43a3.166 3.166 0 114.89 4.022c-10.82 13.157-11.054 33.232-11.055 33.434a3.167 3.167 0 01-3.166 3.148zM174.398 64.684h-.015a3.164 3.164 0 01-3.151-3.175c.003-.912.22-22.502 12.496-37.43a3.166 3.166 0 114.89 4.023c-10.82 13.156-11.053 33.232-11.055 33.433a3.167 3.167 0 01-3.165 3.149zM1.323 112.712c-1.764.338-1.764 2.863 0 3.2l25.954 8.145v-19.494l-25.954 8.149z"/></g><ellipse fill="#D9D9D9" transform="rotate(106.887 107.585 32.689)" cx="107.585" cy="32.689" rx="26.562" ry="24.586"/><g transform="translate(24.582 2.458)" fill="#F0F0F0"><path d="M73 49.015a3.164 3.164 0 01-3.114-3.748c.14-.756 3.602-18.651 14.61-29.417a3.165 3.165 0 114.426 4.526c-9.562 9.352-12.784 25.895-12.815 26.061a3.169 3.169 0 01-3.108 2.578z"/><ellipse transform="rotate(-106.887 35.722 37.475)" cx="35.722" cy="37.475" rx="30.346" ry="28.09"/></g><path d="M71.732 60.946a3.165 3.165 0 01-3.107-2.58c-.039-.205-3.744-19.23-14.769-30.013a3.166 3.166 0 014.427-4.526c12.476 12.202 16.403 32.51 16.564 33.369a3.165 3.165 0 01-3.115 3.75z" fill="#D9D9D9"/><path d="M81.516 130.113V92.047l16.7-32.663-3.62-13.19C82.444 48.47 71.22 52.458 61.43 57.78L44.182 69.857l-9.819 30.785v29.225l12.034 27.751 15.032 13.226c9.79 5.323 21.014 9.311 33.167 11.585l6.076-14.496-19.156-37.82z" fill="#FFCE1C"/><path d="M99.56 170.588c-1.67-.244-3.327-.513-4.964-.82-12.153-2.275-23.377-6.263-33.167-11.585-8.572-4.663-16.043-10.355-22.083-16.825l7.05 16.261 15.033 13.226a104.78 104.78 0 007.603 3.736c5.289 2.338 10.963 4.317 16.63 5.828 2.915.777 5.895 1.452 8.933 2.02l4.964-11.841z" fill="#FAA330"/><g fill="#3B484A"><path d="M43.79 114.31c0 21.07 6.533 40.58 17.64 56.535-23.546-12.808-38.81-33.361-38.81-56.535 0-23.17 15.264-43.726 38.81-56.53-11.107 15.954-17.64 35.466-17.64 56.53zM199.844 146.854c-10.213 15.552-27.721 27.678-49.777 33.658-9.772 2.65-20.438 4.094-31.756 4.094-8.184 0-16.132-.754-23.715-2.176-16.763-17.597-27.094-41.626-27.094-68.119 0-26.489 10.331-50.518 27.094-68.115 7.583-1.423 15.53-2.176 23.715-2.176 25.794 0 48.193 7.494 64.368 19.684 4.768 3.595 8.998 7.592 12.61 11.928l4.555 71.222z"/></g><path d="M150.067 167.849c-9.773 2.65-20.438 4.095-31.756 4.095-8.185 0-16.132-.754-23.716-2.177a120.382 120.382 0 01-12.083-2.913 97.884 97.884 0 0012.083 15.576c.948.177 1.902.345 2.861.501 17.42 2.847 35.55 2.208 52.611-2.42 17.946-4.867 35.183-14.522 46.714-29.376a66.814 66.814 0 003.063-4.281l-.74-11.567c-10.306 15.025-27.502 26.725-49.037 32.562z" fill="#333E40"/><path d="M209.767 114.31c.09 11.538-3.585 22.945-9.923 32.544-24.66 37.345-82.952 35.05-103.483-6.877-3.896-7.952-5.996-16.61-5.996-25.667 0-12.563 4.043-24.359 11.31-34.567 14.137-19.871 42.786-22.801 60.23-5.763.276.271.55.542.822.822.275-.28.55-.55.821-.822.055-.055.11-.106.165-.16 9.015-8.697 23.555-7.808 31.575 1.812 9.052 10.857 14.368 24.427 14.479 38.678z" fill="#FFCE1C"/><path d="M209.735 112.853a58.52 58.52 0 00-.33-4.568c-1.065 9.226-4.443 18.156-9.561 25.907-10.213 15.552-27.721 27.679-49.777 33.658a116.037 116.037 0 01-16.4 3.175c23.8 6.572 51.195-1.482 66.176-24.17 5.761-8.726 9.305-18.956 9.849-29.418.08-1.5.092-3.042.043-4.584z" fill="#FAA330"/><path d="M23.005 107.979a51.318 51.318 0 00-.185 1.799c-.018.209-.032.419-.048.628a52.793 52.793 0 001.966 18.682c3.527 12.11 11.218 22.605 20.695 30.779 4.742 4.09 10.11 7.776 15.998 10.978a98.107 98.107 0 01-10.415-19.23c-15.616-11.351-25.944-26.619-28.011-43.636z" fill="#333E40"/><path d="M163.75 145.733a3.165 3.165 0 01-3.165-3.165v-5.403a3.165 3.165 0 116.33 0v5.403a3.165 3.165 0 01-3.165 3.165z" fill="#3B484A"/><path d="M185.665 122.733a3.165 3.165 0 01-3.165-3.165l.17-15.568a3.165 3.165 0 116.33 0l-.17 15.568a3.165 3.165 0 01-3.165 3.165z" fill="#FFF"/><path d="M185.665 122.733a3.165 3.165 0 01-3.165-3.165v-5.403a3.165 3.165 0 116.33 0v5.403a3.165 3.165 0 01-3.165 3.165z" fill="#3B484A"/><path d="M141.165 122.733a3.165 3.165 0 01-3.165-3.165l.17-15.568a3.165 3.165 0 116.33 0l-.17 15.568a3.165 3.165 0 01-3.165 3.165z" fill="#FFF"/><path d="M141.165 122.733a3.165 3.165 0 01-3.165-3.165v-5.403a3.165 3.165 0 116.33 0v5.403a3.165 3.165 0 01-3.165 3.165z" fill="#3B484A"/><circle fill="#FFCE1C" cx="160.234" cy="20.779" r="7.455"/><path d="M167.378 18.678a7.453 7.453 0 01-6.232 5.277c-3.676.454-7.05-1.856-8.057-5.3a7.455 7.455 0 1014.543 1.208 7.433 7.433 0 00-.254-1.185z" fill="#FAA330"/><circle fill="#FFCE1C" cx="186.175" cy="26.089" r="7.455"/><path d="M193.318 23.99a7.453 7.453 0 01-6.232 5.278c-3.677.454-7.05-1.856-8.058-5.3a7.455 7.455 0 1014.543 1.208 7.414 7.414 0 00-.253-1.185z" fill="#FAA330"/></g></svg>