<svg width="82" height="103" xmlns="http://www.w3.org/2000/svg"><g fill-rule="nonzero" fill="none"><path d="M81.981 58.168c-26.027-19.878-52.053 19.879-78.08 0V6.014c26.027 19.878 52.053-19.879 78.08 0v52.154z" fill="#F2F2F2"/><g fill="#40596B"><path d="M16.914 24.61c-4.266-.641-8.746-2.138-13.013-5.558V6.014c4.267 3.206 8.747 4.916 13.013 5.557V24.61zM29.928 36.366c-4.267 1.069-8.747 1.71-13.014 1.069V24.396c4.267.641 8.747 0 13.014-1.069v13.039zM16.914 50.687c-4.266-.641-8.746-2.138-13.013-5.557V32.09c4.267 3.207 8.747 4.917 13.013 5.558v13.039zM29.928 62.443c-4.267 1.069-8.747 1.71-13.014 1.069V50.473c4.267.641 8.747 0 13.014-1.068v13.038zM42.941 19.052c-4.267 1.71-8.747 3.207-13.013 4.49v-13.04c4.266-1.068 8.746-2.778 13.013-4.488v13.038zM55.954 27.602c-4.266 1.069-8.746 2.779-13.013 4.489V19.052c4.267-1.71 8.747-3.42 13.013-4.489v13.04zM42.941 45.13c-4.267 1.71-8.747 3.206-13.013 4.488V36.58c4.266-1.069 8.746-2.78 13.013-4.49v13.04zM55.954 53.68c-4.266 1.068-8.746 2.778-13.013 4.488V45.13c4.267-1.71 8.747-3.207 13.013-4.49v13.04zM68.968 13.495c-4.267-.641-8.747 0-13.014 1.068V1.525C60.221.456 64.701-.185 68.968.456v13.039z"/><path d="M81.981 32.09c-4.267-3.205-8.747-4.915-13.013-5.556v-13.04c4.266.642 8.746 2.138 13.013 5.558v13.039z"/><path d="M68.968 39.572c-4.267-.641-8.747 0-13.014 1.069V27.602c4.267-1.068 8.747-1.71 13.014-1.068v13.038z"/><path d="M81.981 58.168c-4.267-3.206-8.747-4.916-13.013-5.557V39.572c4.266.641 8.746 2.138 13.013 5.558v13.038z"/></g><path d="M11.154 10.075C8.808 9.22 6.248 7.937 3.901 6.014v52.154c2.347 1.924 4.907 3.207 7.253 4.062V10.075z" fill="#231F20" opacity=".1"/><path d="M4.114 102.842h-.64c-1.92 0-3.413-1.497-3.413-3.42V3.662c0-1.923 1.493-3.42 3.413-3.42h.64c1.92 0 3.414 1.497 3.414 3.42v95.76c0 1.923-1.494 3.42-3.414 3.42z" fill="#FF9F00"/></g></svg>