
<svg width="166" height="123" viewBox="0 0 166 123" fill="none" xmlns="http://www.w3.org/2000/svg">
<g clip-path="url(#clip0_11719_35926)">
<path opacity="0.632115" d="M145.866 109.27C138.349 126.39 119.525 138.19 102.653 141.408C85.6813 144.683 70.7196 139.475 56.1015 144.986C41.583 150.439 27.6651 166.596 20.5458 164.848C13.4265 163.101 13.1634 143.549 3.38896 128.69C-6.44317 113.731 -25.7868 103.464 -32.9083 88.1384C-40.0875 72.7128 -35.1442 52.2852 -22.1397 41.4487C-9.1352 30.6122 11.9882 29.4667 27.3585 36.3023C42.7865 43.2378 52.519 58.2544 71.4238 61.3187C90.229 64.4406 118.264 55.71 134.007 62.7301C149.791 69.5929 153.482 92.0915 145.866 109.27Z" fill="url(#paint0_linear_11719_35926)" fill-opacity="0.6"/>
<path fill-rule="evenodd" clip-rule="evenodd" d="M74.7428 86.5767C74.3446 87.7117 73.8023 88.8247 73.1155 89.8833C70.1973 94.376 65.3405 96.8464 60.3558 96.9171C58.3929 92.3346 58.6736 86.8931 61.5917 82.3996C62.2757 81.3474 63.0626 80.4013 63.9382 79.5756C63.1041 82.9612 63.3834 86.5086 64.6571 89.6888C64.7463 89.9117 64.9706 90.0567 65.2097 90.0477C68.6337 89.9168 71.9911 88.7243 74.7428 86.5767Z" fill="#FFDCA1"/>
<path fill-rule="evenodd" clip-rule="evenodd" d="M75.1149 85.7821C72.4145 87.8901 69.1204 89.0601 65.7607 89.1888C65.5257 89.1977 65.3058 89.0543 65.2176 88.8361C63.9689 85.7153 63.694 82.235 64.5128 78.9126C63.6535 79.7224 62.8809 80.6508 62.2108 81.6836C62.0224 81.9738 61.8463 82.2678 61.6808 82.5654C61.4785 82.8363 61.281 83.1144 61.0946 83.4025C58.2315 87.8113 57.9554 93.151 59.8812 97.6479C64.7727 97.5781 69.5386 95.1549 72.4017 90.7461C72.5883 90.4588 72.7608 90.1671 72.9262 89.8729C73.1311 89.5989 73.3289 89.3183 73.5179 89.0272C74.1925 87.9885 74.7237 86.8966 75.1149 85.7821Z" fill="#FFDCA1"/>
<path fill-rule="evenodd" clip-rule="evenodd" d="M61.3373 82.7125C60.4006 83.5979 59.5578 84.6125 58.8227 85.7444C58.6786 85.9653 58.5439 86.1841 58.4085 86.4031C57.4188 90.4261 57.8014 94.6369 59.4081 98.381C60.6478 98.3618 61.8815 98.2217 63.0912 97.9646C65.8532 97.3775 68.4864 96.1799 70.7632 94.4128C70.9081 94.2 71.0531 93.9872 71.1895 93.7762C71.9237 92.6362 72.5059 91.445 72.9339 90.2299C72.8987 90.2571 72.8643 90.2841 72.829 90.3112C72.4708 90.8244 72.0862 91.3103 71.6791 91.7675C69.4187 94.6953 66.2555 96.5893 62.8416 97.315C61.8704 97.5214 60.8791 97.6329 59.8826 97.6471C58.1114 93.5109 58.2029 88.6606 60.4575 84.4787C60.7038 83.9327 60.9841 83.396 61.2996 82.8706C61.3114 82.8181 61.3248 82.7652 61.3373 82.7125Z" fill="#FFE5B9"/>
<path fill-rule="evenodd" clip-rule="evenodd" d="M61.3022 82.871C60.9905 83.3966 60.7138 83.9333 60.4716 84.4781C60.6648 84.1143 60.8753 83.7548 61.102 83.4017C61.1437 83.3377 61.1854 83.2738 61.2279 83.2097C61.2517 83.0973 61.2761 82.9839 61.3022 82.871ZM72.8328 90.3116C72.739 90.3844 72.644 90.4557 72.5488 90.5263C72.5034 90.5999 72.4571 90.6729 72.4108 90.746C72.1832 91.0995 71.9438 91.4402 71.6926 91.7679C72.0965 91.3105 72.4779 90.8245 72.8328 90.3116Z" fill="#FFC675"/>
<path fill-rule="evenodd" clip-rule="evenodd" d="M61.2237 83.2107C61.1806 83.2739 61.1384 83.3378 61.0972 83.4023C60.8672 83.7554 60.6549 84.1145 60.4585 84.4785C58.2032 88.6614 58.1124 93.5108 59.8838 97.6478C60.8802 97.6336 61.8714 97.5213 62.8426 97.3149C66.2557 96.5894 69.4189 94.6954 71.6801 91.7673C71.9327 91.4398 72.1743 91.099 72.4043 90.7459C72.4518 90.6727 72.4986 90.5996 72.5444 90.5259C70.4996 92.0264 68.165 93.0548 65.7269 93.573C64.7338 93.7841 63.7236 93.9111 62.7095 93.9504C62.4478 93.965 62.2063 93.8007 62.1149 93.5635C60.8058 90.3055 60.4766 86.6892 61.2237 83.2107Z" fill="#FFC675"/>
<path fill-rule="evenodd" clip-rule="evenodd" d="M63.3069 99.5628C62.0424 99.8315 60.7422 99.9792 59.4204 99.9978C58.7714 100.007 58.1799 99.6236 57.924 99.0253C55.2991 92.8978 55.8945 85.9094 59.5162 80.3325C60.3895 78.9868 61.4069 77.7637 62.5392 76.6949C63.1821 76.086 64.1976 76.1153 64.8062 76.7607C65.4138 77.4047 65.3845 78.4203 64.7404 79.0278C63.7941 79.9218 62.9413 80.9475 62.2062 82.0795C59.3684 86.4493 58.7471 91.8541 60.4725 96.7389C65.6379 96.3304 70.3225 93.5629 73.1609 89.1921C73.8893 88.0715 74.4808 86.8692 74.9195 85.6199C75.2132 84.7835 76.1279 84.3423 76.9646 84.6375C77.8001 84.9305 78.2399 85.8464 77.946 86.682C77.4234 88.173 76.7183 89.6043 75.8509 90.939C72.9473 95.4122 68.4224 98.4754 63.3069 99.5628Z" fill="#3C1659"/>
<path fill-rule="evenodd" clip-rule="evenodd" d="M97.6152 84.3086C95.3352 87.8195 92.2919 90.5473 88.8478 92.4042C88.6027 92.5318 88.3576 92.6593 88.1125 92.7868C88.6201 91.7688 89.0303 90.7248 89.3426 89.6557C89.4841 89.2026 89.601 88.7423 89.699 88.2812C90.7067 83.6371 89.9496 78.795 87.6474 74.6986C92.4715 71.8932 96.8058 68.4155 100.555 64.4243C101.787 68.6669 101.853 73.2328 100.647 77.5937C99.9983 79.9173 98.995 82.1828 97.6152 84.3086Z" fill="#B297FF"/>
<path fill-rule="evenodd" clip-rule="evenodd" d="M69.5523 62.9492L69.3589 62.9378C63.1947 62.4164 56.9654 64.8826 52.8389 69.8822C52.8689 69.2322 52.9215 68.5773 53.0044 67.9333C53.0309 67.7301 53.0575 67.5277 53.0908 67.3295C53.5799 64.014 54.775 60.7452 56.7189 57.7518C60.4804 51.9607 66.3082 48.3156 72.5961 47.1586C72.9581 47.0874 73.3336 47.0256 73.6995 46.9765C73.2136 48.1235 72.7712 49.29 72.3672 50.4713C71.3137 53.5075 70.5128 56.64 69.9818 59.8431L69.9692 59.8917C69.8076 60.9058 69.6646 61.9226 69.5523 62.9492Z" fill="#B297FF"/>
<path fill-rule="evenodd" clip-rule="evenodd" d="M101.249 74.3884C101.11 75.4607 100.898 76.5292 100.611 77.5856C99.9759 79.9046 98.9873 82.1673 97.621 84.2932C95.5023 87.59 92.7091 90.202 89.5406 92.0559C89.4944 92.2721 89.4438 92.4868 89.3892 92.7024C92.8131 90.8337 95.8341 88.0991 98.0904 84.5883C99.4566 82.4625 100.445 80.1997 101.08 77.8807C101.222 76.717 101.278 75.5501 101.249 74.3884ZM90.1178 84.757C89.8531 84.9707 89.5838 85.178 89.3114 85.3787C89.2287 85.4492 89.1427 85.5082 89.0535 85.5745C89.0401 85.9651 89.0117 86.3656 88.9626 86.7534C88.8735 87.6769 88.7143 88.5929 88.484 89.5007C88.7123 89.3753 88.9344 89.2365 89.16 89.1027C89.0794 89.5671 88.9819 90.0294 88.8652 90.4894C88.963 90.436 89.0587 90.3765 89.1554 90.3185C89.2276 90.0977 89.2956 89.8763 89.359 89.6526C89.4976 89.1993 89.6119 88.7398 89.7078 88.2779C89.9541 87.1117 90.0899 85.9328 90.1178 84.757Z" fill="#C09AE6"/>
<path fill-rule="evenodd" clip-rule="evenodd" d="M99.6993 65.6531C99.5415 65.8137 99.3827 65.9729 99.2229 66.1315C99.1856 70.5694 97.9208 75.0377 95.3326 79.0233C93.8779 81.2634 92.1116 83.1835 90.1284 84.7578C90.0947 85.9341 89.9528 87.1138 89.6999 88.281C89.6013 88.7431 89.4842 89.2025 89.3427 89.6556C89.2778 89.8785 89.2086 90.1007 89.1349 90.3213C89.1735 90.2983 89.2129 90.2752 89.2524 90.2529C89.1669 90.7417 89.0644 91.2275 88.9392 91.7108C89.1701 91.5863 89.394 91.4477 89.621 91.3158C89.5768 91.563 89.5275 91.8096 89.4731 92.0549C92.6603 90.2123 95.4743 87.6054 97.6154 84.3085C98.996 82.1826 99.9985 79.9173 100.647 77.5937C100.94 76.5352 101.157 75.464 101.302 74.3888C101.263 72.4547 100.992 70.5339 100.499 68.6676C100.344 67.7347 100.14 66.8097 99.8771 65.8998L99.7836 65.9959C99.756 65.8813 99.7277 65.7676 99.6993 65.6531Z" fill="#CEC3F4"/>
<path fill-rule="evenodd" clip-rule="evenodd" d="M72.5746 46.9113C69.851 47.4902 67.2255 48.5386 64.8299 50.0284C67.053 48.7376 69.4596 47.8169 71.9471 47.2882C72.1644 47.242 72.3824 47.199 72.6001 47.1584C72.7725 47.1251 72.9477 47.0927 73.1235 47.0636C73.1576 46.9694 73.1927 46.8759 73.2275 46.7816C73.0099 46.8221 72.7911 46.8653 72.5746 46.9113Z" fill="#C09AE6"/>
<path fill-rule="evenodd" clip-rule="evenodd" d="M71.9439 47.288C69.4564 47.8167 67.0497 48.7374 64.8267 50.0282C61.9118 51.8407 59.3391 54.3061 57.3471 57.3745C55.4032 60.368 54.2081 63.6368 53.7183 66.9524C53.819 66.84 53.9236 66.7342 54.0267 66.6253C53.8519 67.3422 53.7051 68.0629 53.5982 68.7867C54.4781 67.8002 55.4469 66.9269 56.4717 66.1589C56.9571 65.0866 57.5343 64.0374 58.1974 63.0143C61.448 58.0098 66.2369 54.6068 71.5415 53.0284C71.9796 51.5406 72.4769 50.073 73.0311 48.6303C72.9823 48.6398 72.9337 48.6502 72.8858 48.6603C72.8356 48.671 72.7862 48.6815 72.736 48.6922C72.6899 48.7028 72.6428 48.7128 72.5957 48.7228C72.5761 48.727 72.5573 48.731 72.5377 48.7352C72.7242 48.174 72.9173 47.6165 73.1195 47.0635C72.9438 47.0935 72.7693 47.1248 72.5968 47.1582C72.3784 47.1989 72.1612 47.2418 71.9439 47.288Z" fill="#CEC3F4"/>
<path fill-rule="evenodd" clip-rule="evenodd" d="M88.4403 94.3539C87.9171 94.4651 87.3617 94.3093 86.9709 93.9177C86.4844 93.4299 86.3639 92.6856 86.6715 92.0693C89.4674 86.4646 89.0703 79.7208 85.6343 74.4717C85.1495 73.7302 85.3565 72.7367 86.098 72.252C86.8391 71.7657 87.8337 71.9741 88.3182 72.7148C91.4849 77.553 92.4653 83.4652 91.175 88.9746C93.1582 87.4347 94.8832 85.5635 96.2662 83.4338C100.209 77.3614 100.994 69.7047 98.3659 62.9507C98.0445 62.1253 98.4536 61.1955 99.2791 60.8749C100.104 60.5545 101.035 60.9624 101.356 61.7872C104.357 69.5 103.46 78.2454 98.957 85.1805C96.4409 89.054 92.9355 92.1809 88.8198 94.2224C88.6972 94.2821 88.5697 94.3264 88.4403 94.3539Z" fill="#3C1659"/>
<path fill-rule="evenodd" clip-rule="evenodd" d="M53.1778 71.453C52.882 71.5159 52.5678 71.4958 52.2716 71.3825C51.6273 71.1365 51.213 70.5063 51.2421 69.818C51.4322 65.2271 52.862 60.7524 55.3782 56.8789C59.8812 49.9439 67.5069 45.5689 75.7733 45.172C76.658 45.1299 77.4099 45.813 77.452 46.6977C77.4943 47.5832 76.8089 48.3356 75.9264 48.3765C68.6864 48.7224 62.0111 52.5543 58.0682 58.6258C56.6851 60.7555 55.6765 63.0927 55.0767 65.5323C59.5844 62.1103 65.3843 60.6012 71.0924 61.527C71.9671 61.6691 72.5611 62.4923 72.419 63.367C72.2778 64.2415 71.4543 64.838 70.5791 64.6936C64.3879 63.69 58.0655 66.0694 54.0825 70.9032C53.8461 71.1913 53.5245 71.3793 53.1778 71.453Z" fill="#3C1659"/>
<path fill-rule="evenodd" clip-rule="evenodd" d="M106.965 56.2609C102.012 63.8886 95.2698 70.3534 87.1833 74.9715L69.4937 63.4838C71.9547 39.1384 89.8086 18.0952 115.029 12.7286C118.35 28.3488 115.028 43.8449 106.965 56.2609Z" fill="#B297FF"/>
<path fill-rule="evenodd" clip-rule="evenodd" d="M116.054 30.8625L116.073 30.8749C115.146 40.1318 111.98 48.9217 107.026 56.5504C106.731 57.0148 106.408 57.4607 106.102 57.9111L106.043 57.981C105.097 59.3546 104.092 60.6832 103.029 61.9669L102.891 62.1275C101.128 64.2486 99.2059 66.2395 97.141 68.0968C97.0788 68.151 97.0086 68.2069 96.948 68.269C95.6999 69.3788 94.4071 70.4325 93.0555 71.4413L92.9854 71.4972C92.092 72.1545 91.1718 72.801 90.2353 73.41L90.1776 73.4469C88.0333 74.8537 85.7772 76.1204 83.4329 77.2418C82.5556 77.6661 81.6559 78.0623 80.7529 78.4428L73.2955 73.5999C75.8975 72.8418 78.3983 71.9167 80.8075 70.8307C83.5671 69.58 86.2033 68.1342 88.7002 66.4966L88.758 66.4597C89.6928 65.8428 90.6147 65.2041 91.5064 64.5391L91.5765 64.4832C92.9297 63.4822 94.2209 62.4206 95.469 61.3109C95.5313 61.2566 95.6014 61.2007 95.662 61.1387C97.7286 59.2892 99.6487 57.2904 101.412 55.1693L101.55 55.0088C102.613 53.725 103.618 52.3964 104.566 51.0307L104.623 50.9529C104.929 50.5025 105.252 50.0566 105.549 49.6C110.503 41.9714 113.669 33.1815 114.594 23.9167L114.575 23.9044C114.938 20.3672 114.973 16.7522 114.651 13.1147C114.79 13.0768 114.94 13.0452 115.081 13.0151C116.361 19.0398 116.644 25.0387 116.054 30.8625Z" fill="white"/>
<path fill-rule="evenodd" clip-rule="evenodd" d="M110.033 21.2256C90.3199 28.3708 76.2109 45.331 72.1983 65.1999L69.7727 63.6247C71.8131 43.4027 84.219 25.4196 102.611 16.4056L110.033 21.2256Z" fill="#957EE8"/>
<path fill-rule="evenodd" clip-rule="evenodd" d="M116.278 26.4007L115.425 26.3737L102.404 17.917L102.032 17.15C106.088 15.203 110.437 13.7048 115.03 12.7285C116.006 17.3216 116.406 21.9042 116.278 26.4007Z" fill="#B297FF"/>
<path fill-rule="evenodd" clip-rule="evenodd" d="M105.44 15.6496C105.431 15.6531 105.423 15.6565 105.415 15.6599C105.423 15.6565 105.431 15.6531 105.44 15.6496ZM105.36 15.6774C104.601 15.985 103.852 16.307 103.112 16.6434L103.112 16.6442C103.853 16.3069 104.601 15.9852 105.36 15.6774ZM115.332 14.2494C115.356 14.3766 115.38 14.5047 115.404 14.632C115.406 14.643 115.408 14.6541 115.41 14.665C115.385 14.5266 115.359 14.3883 115.332 14.2494Z" fill="#C09AE6"/>
<path fill-rule="evenodd" clip-rule="evenodd" d="M107.457 14.8782C106.777 15.1223 106.104 15.3787 105.438 15.646C105.429 15.6494 105.421 15.6528 105.413 15.6562C105.395 15.6634 105.377 15.6703 105.36 15.6773C104.6 15.9841 103.851 16.3049 103.11 16.6418L103.112 16.644C104.527 16.0006 105.975 15.4113 107.457 14.8782ZM115.298 14.0744C115.301 14.0894 115.304 14.1051 115.307 14.1201C115.304 14.1051 115.301 14.0894 115.298 14.0744ZM115.307 14.1362C115.337 14.2932 115.366 14.4496 115.395 14.6068C115.396 14.6148 115.398 14.6234 115.4 14.6312C115.377 14.5046 115.353 14.3757 115.328 14.2493C115.321 14.2116 115.314 14.1738 115.307 14.1362Z" fill="#8CD5E6"/>
<path fill-rule="evenodd" clip-rule="evenodd" d="M115.398 14.6057C115.586 15.6595 115.745 16.712 115.873 17.763C115.748 16.7318 115.593 15.6981 115.409 14.6633C115.406 14.6523 115.405 14.6419 115.402 14.6309C115.401 14.6223 115.4 14.6135 115.398 14.6057Z" fill="#C09AE6"/>
<path fill-rule="evenodd" clip-rule="evenodd" d="M115.029 12.7311C112.425 13.2846 109.9 14.0049 107.462 14.879C105.979 15.4123 104.529 16.0017 103.112 16.6448L103.18 16.7747L110.038 21.2284C111.988 20.527 113.988 19.9052 116.045 19.4022C115.996 18.8569 115.938 18.3108 115.872 17.7633C115.743 16.7125 115.584 15.6598 115.396 14.606C115.368 14.4489 115.339 14.291 115.31 14.134C115.309 14.1285 115.308 14.1231 115.307 14.1176C115.304 14.1025 115.301 14.0876 115.299 14.0725C115.214 13.6248 115.124 13.1782 115.029 12.7311Z" fill="#957EE8"/>
<path fill-rule="evenodd" clip-rule="evenodd" d="M81.5719 78.976L68.12 70.2403L70.2694 63.9859L86.4113 74.4685L81.5719 78.976Z" fill="#E8F3FF"/>
<path fill-rule="evenodd" clip-rule="evenodd" d="M104.517 45.1102C101.865 49.1964 96.4007 50.3578 92.3144 47.7041C88.2282 45.0512 87.0668 39.5874 89.7205 35.501C92.3742 31.4147 97.838 30.2533 101.924 32.9072C106.01 35.5609 107.171 41.0247 104.517 45.1102Z" fill="#B297FF"/>
<path fill-rule="evenodd" clip-rule="evenodd" d="M94.7418 32.409C92.8567 32.8097 91.1255 33.9303 89.992 35.6758C87.7312 39.1654 88.7217 43.8251 92.2065 46.0942C92.7582 46.4525 93.3414 46.7278 93.9439 46.9277C91.6843 44.4629 91.2806 40.6853 93.1901 37.7533C94.3203 36.0078 96.0517 34.8879 97.9377 34.4878C99.2265 34.2139 100.588 34.2755 101.877 34.7032C101.45 34.2414 100.962 33.8196 100.41 33.4614C98.6642 32.3279 96.6268 32.0083 94.7418 32.409Z" fill="#957EE8"/>
<path fill-rule="evenodd" clip-rule="evenodd" d="M115.762 27.9403C115.36 28.0257 114.926 27.9581 114.555 27.7164L100.981 18.9016C100.238 18.4191 100.027 17.426 100.51 16.6831C100.991 15.9404 101.985 15.7291 102.728 16.2116L116.302 25.0264C117.045 25.5088 117.256 26.502 116.773 27.2449C116.532 27.6168 116.164 27.855 115.762 27.9403Z" fill="#3C1659"/>
<path fill-rule="evenodd" clip-rule="evenodd" d="M71.3511 62.7396L87.3781 73.0264C94.6889 68.6309 100.985 62.5156 105.63 55.2884C112.432 44.7034 115.497 32.0053 114.26 19.5321C114.107 17.9328 113.875 16.3019 113.566 14.6606C110.138 15.5121 106.796 16.6809 103.61 18.1444C85.8459 26.313 73.5573 43.3404 71.3511 62.7396ZM87.6825 76.4642C87.2747 76.5531 86.8398 76.4802 86.4782 76.2475L68.7952 64.8978C68.2912 64.5751 68.0107 63.9966 68.0676 63.4011C70.0776 42.4726 83.1857 24.0184 102.277 15.2398C106.16 13.4559 110.261 12.0863 114.468 11.1689C115.33 10.9809 116.183 11.5279 116.37 12.3899C116.87 14.6879 117.231 16.986 117.444 19.2216C118.751 32.4017 115.512 45.8266 108.321 57.0148C103.227 64.9429 96.2478 71.6069 88.1413 76.2864C87.9959 76.3705 87.8411 76.4296 87.6825 76.4642Z" fill="#3C1659"/>
<path fill-rule="evenodd" clip-rule="evenodd" d="M98.7645 39.8568C98.3629 39.9421 97.9287 39.8745 97.5576 39.6328C97.1858 39.3921 96.6891 39.4969 96.4476 39.8688C95.9659 40.6115 94.972 40.8228 94.2291 40.3403C93.4862 39.8579 93.2751 38.8648 93.7576 38.1219C94.9621 36.267 97.4504 35.7381 99.3045 36.9428C100.047 37.4253 100.258 38.4184 99.776 39.1613C99.5353 39.533 99.1661 39.7714 98.7645 39.8568Z" fill="white"/>
<path fill-rule="evenodd" clip-rule="evenodd" d="M72.5335 66.0575L70.5379 71.8397L68.4975 70.5106L70.5421 64.5925L72.5335 66.0575Z" fill="#B8DAF2"/>
<path fill-rule="evenodd" clip-rule="evenodd" d="M70.0613 69.6192L81.4119 76.9041L83.8117 74.6468L71.1161 66.4987L70.0613 69.6192ZM81.9412 80.4841C81.5365 80.5724 81.1025 80.5034 80.7361 80.2676L67.2863 71.6362C66.6689 71.24 66.4009 70.4748 66.6359 69.7798L68.7459 63.5371C68.9039 63.0708 69.2681 62.7027 69.7325 62.5393C70.1996 62.3769 70.7118 62.4369 71.1256 62.7025L87.2675 73.0624C87.6821 73.3278 87.9501 73.7699 87.9954 74.2597C88.0407 74.7496 87.8572 75.2338 87.4985 75.5712L82.6952 80.0874C82.4785 80.2909 82.2169 80.424 81.9412 80.4841Z" fill="#3C1659"/>
<path fill-rule="evenodd" clip-rule="evenodd" d="M86.2037 57.1205C84.7398 56.1698 82.779 56.6382 81.9028 58.1478L68.1919 81.7639C67.7413 82.541 67.9789 83.535 68.7322 84.0243C69.4856 84.5135 70.4903 84.3262 71.017 83.5985L87.0146 61.4674C88.0372 60.053 87.6676 58.0711 86.2037 57.1205Z" fill="#B297FF"/>
<path fill-rule="evenodd" clip-rule="evenodd" d="M84.1642 58.2698C84.1517 58.2725 84.1402 58.2758 84.1277 58.2786C83.7408 58.3735 83.4181 58.6165 83.2193 58.9625L69.6625 82.57C69.6412 82.6074 69.6534 82.6562 69.6905 82.68C69.7259 82.7034 69.7745 82.6936 69.8004 82.6585L85.6439 60.5186C85.876 60.194 85.9628 59.7996 85.8874 59.4079C85.812 59.0163 85.586 58.6811 85.2502 58.4656C84.9249 58.2568 84.5408 58.1876 84.1642 58.2698ZM70.4295 85.8156C69.6076 85.9948 68.7186 85.8582 67.9578 85.3706C66.4862 84.4254 66.0155 82.4964 66.8859 80.9799L80.4419 57.3726C81.0713 56.2751 82.1375 55.4742 83.3667 55.1734C84.6107 54.8735 85.9111 55.0921 86.9765 55.7759C88.0399 56.4584 88.7868 57.5624 89.025 58.8036C89.2634 60.0455 88.9775 61.3486 88.2416 62.3777L72.3982 84.5177C71.9062 85.2048 71.1966 85.6483 70.4295 85.8156Z" fill="#3C1659"/>
<path fill-rule="evenodd" clip-rule="evenodd" d="M95.5932 33.2775C93.7151 33.6871 92.1087 34.8037 91.0694 36.42C90.0302 38.037 89.6831 39.9612 90.0917 41.8383C90.5003 43.7155 91.6156 45.3207 93.2327 46.3585C96.5712 48.5005 101.031 47.528 103.176 44.1902C104.215 42.5733 104.563 40.649 104.154 38.7719C103.745 36.8947 102.629 35.2896 101.013 34.2516C99.3961 33.2146 97.4713 32.868 95.5932 33.2775ZM99.3314 50.4509C96.7307 51.018 93.9146 50.5958 91.5041 49.0481C89.1681 47.5495 87.5571 45.2312 86.9668 42.5193C86.3767 39.8082 86.878 37.0285 88.3795 34.6931C89.8802 32.3579 92.2002 30.7454 94.9134 30.1537C97.6259 29.5622 100.407 30.0625 102.742 31.5612C105.077 33.0599 106.689 35.3789 107.279 38.09C107.869 40.8018 107.367 43.581 105.866 45.9162C104.318 48.3273 101.932 49.8838 99.3314 50.4509Z" fill="#3C1659"/>
<path fill-rule="evenodd" clip-rule="evenodd" d="M128.343 29.7762C128.326 29.8052 128.308 29.8335 128.288 29.8608C128.318 29.8775 128.345 29.8954 128.372 29.9158C128.389 29.886 128.407 29.8585 128.427 29.8312C128.398 29.8145 128.37 29.7958 128.343 29.7762Z" fill="#C09AE6"/>
<path fill-rule="evenodd" clip-rule="evenodd" d="M59.8779 39.4095C59.8611 39.4385 59.8434 39.4668 59.8229 39.4941C59.8527 39.5108 59.8803 39.5287 59.9076 39.5491C59.9242 39.5193 59.9421 39.4918 59.9626 39.4645C59.9328 39.4478 59.9051 39.4291 59.8779 39.4095Z" fill="#C09AE6"/>
</g>
<defs>
<linearGradient id="paint0_linear_11719_35926" x1="10.0898" y1="134.916" x2="111.444" y2="36.8986" gradientUnits="userSpaceOnUse">
<stop stop-color="#957EE8"/>
<stop offset="1" stop-color="#F7F5FF"/>
</linearGradient>
<clipPath id="clip0_11719_35926">
<path d="M0 16C0 7.16344 7.16344 0 16 0H150C158.837 0 166 7.16344 166 16V107C166 115.837 158.837 123 150 123H16C7.16344 123 0 115.837 0 107V16Z" fill="white"/>
</clipPath>
</defs>
</svg>
