<svg xmlns="http://www.w3.org/2000/svg" width="200" height="148" fill="none"><path fill="#FDF2FF" d="M131.221 131.685H56.364V23.977h83.08V124.67c0 3.875-3.682 7.014-8.223 7.014"/><path fill="#FADDFF" d="M139.285 23.977H56.342v5h82.943z"/><path fill="#C1C7D0" d="M118.493 83.212c1.118 0 1.118-1.265 0-1.265H76.86c-1.119 0-1.119 1.265 0 1.265z"/><path fill="#5B94FF" d="M96.007 32.446c-6.672 0-12.64 2.953-16.69 7.622l16.69 14.462 16.689-14.462c-4.046-4.67-10.017-7.622-16.69-7.622"/><path fill="#2044DC" d="m119.456 51.291-21.857 3.143v22.084c12.207 0 22.084-9.877 22.084-22.084a22 22 0 0 0-.227-3.143"/><path fill="#DDD9E7" d="M79.343 40.14c-7.869 9.332-6.682 23.249 2.65 31.117.816.688 1.67 1.302 2.548 1.853l11.684-18.735L79.34 40.143z"/><path fill="#3D68FF" d="M96.197 76.487a22 22 0 0 1-11.94-3.507l11.94-18.574z"/><path fill="#0D25B3" d="M120.577 50.076a22 22 0 0 0-5.168-11.32L98.719 53.22z"/><path fill="#8845FF" d="M70.269 126.845h-.162a3.974 3.974 0 0 1-3.975-3.975v-15.565h8.111v15.565a3.974 3.974 0 0 1-3.974 3.975"/><path fill="#C86FFF" d="M74.243 108.922h-8.11v-5.208a3.974 3.974 0 0 1 3.974-3.975h.162a3.974 3.974 0 0 1 3.974 3.975z"/><path fill="#8845FF" d="M123.676 127.727h-.162a3.973 3.973 0 0 1-3.974-3.975v-15.565h8.111v15.565a3.974 3.974 0 0 1-3.975 3.975"/><path fill="#C86FFF" d="M127.704 109.803h-8.164V95.671a3.973 3.973 0 0 1 3.974-3.974h.215a3.974 3.974 0 0 1 3.975 3.974z"/><path fill="#8845FF" d="M105.871 127.287h-.162a3.97 3.97 0 0 1-3.974-3.974v-11.616h8.111v11.616a3.973 3.973 0 0 1-3.975 3.974"/><path fill="#C86FFF" d="M109.849 118.507h-8.111v-9.725a3.974 3.974 0 0 1 3.975-3.975h.162a3.973 3.973 0 0 1 3.974 3.975z"/><path fill="#8845FF" d="M88.07 127.175h-.162a3.973 3.973 0 0 1-3.974-3.974V99.453h8.11V123.2a3.973 3.973 0 0 1-3.974 3.974"/><path fill="#C86FFF" d="M92.045 110.894h-8.111V92.697a3.973 3.973 0 0 1 3.974-3.975h.162a3.973 3.973 0 0 1 3.975 3.975z"/><g fill="#fff"><path d="M59.514 27.89c-.59 0-1.066-.48-1.066-1.066s.48-1.065 1.066-1.065c.585 0 1.065.48 1.065 1.065s-.48 1.065-1.065 1.065m0-1.957a.89.89 0 0 0-.888.888.89.89 0 0 0 .888.887.89.89 0 0 0 .887-.887.89.89 0 0 0-.888-.888M62.803 27.89c-.589 0-1.065-.48-1.065-1.066s.48-1.065 1.065-1.065c.586 0 1.065.48 1.065 1.065s-.48 1.065-1.065 1.065m0-1.957a.89.89 0 0 0-.888.888.89.89 0 0 0 .888.887.89.89 0 0 0 .888-.887.89.89 0 0 0-.888-.888M66.092 27.89c-.589 0-1.065-.48-1.065-1.066s.48-1.065 1.065-1.065c.586 0 1.065.48 1.065 1.065s-.48 1.065-1.065 1.065m0-1.957a.89.89 0 0 0-.888.888.89.89 0 0 0 .888.887.89.89 0 0 0 .888-.887.89.89 0 0 0-.888-.888"/></g><path fill="#174462" d="M58.6 134.822H5.642V53.035h57.874v76.872a4.92 4.92 0 0 1-4.919 4.918z" opacity=".07"/><path fill="#DFE1E6" d="M54.261 132.533H-.934v-85.69h62.363v78.522a7.165 7.165 0 0 1-7.165 7.164z"/><path fill="#fff" d="M56.168 53.686H5.685V85.61h50.483z"/><path fill="#F5F5F5" d="M37.665 64.76c.209.423.573.781 1.259 1.04 1.277.476 2.996.134 3.734-.938 1.23-1.788.885-4.348 2.212-6.208a4.34 4.34 0 0 1 2.327-1.641c.965-.277 2.077-.197 2.937.28 1.402.773 1.888 2.367 1.9 3.816.025 2.781-.361 5.656-.863 8.4-.243 1.328-.617 2.692-1.579 3.742-1.305 1.423-3.454 2.015-5.51 2.332-5.202.801-10.535.312-15.786-.18l-12.671-1.187c-1.19-.112-4.698.069-5.408-.757-.695-.806-.15-3.535.259-4.376.906-1.875 3.385-2.934 5.712-2.816 5.249.268 3.174-5.214 4.853-7.815.894-1.383 2.86-2.377 4.551-1.8 1.614.548 2.29 2.17 3.084 3.513.414.698 1 1.424 1.881 1.573 1.502.255 2.754-1.268 4.283-1.212.906.035 1.676.645 2.065 1.358.533.972.346 2.044.76 2.879z"/><path fill="url(#a)" d="m52.869 83.879.01-2.424c.012-3.43.012-6.859.015-10.285.003-3.277.274-6.55.221-9.818-.025-1.51-.676-2.302-2.268-1.897a7.35 7.35 0 0 0-3.987 2.613c-.67.87-1.224 1.96-2.261 2.308-1.856.626-3.376-1.467-5.046-2.495-1.797-1.109-4.295-.922-5.909.443-1.947 1.647-2.395 4.494-4.043 6.441-1.813 2.143-5.108 2.869-7.656 1.685-1.047-.486-1.944-1.243-2.975-1.76-4.09-2.05-9.771.9-10.45 5.423v9.357s44.433.496 44.349.412z"/><path fill="#F1F1F1" d="M9.728 90.476H7.087a.576.576 0 0 0-.576.576v2.641c0 .319.258.576.576.576h2.641a.576.576 0 0 0 .577-.576v-2.641a.576.576 0 0 0-.577-.576M9.728 96.086H7.087a.576.576 0 0 0-.576.576v2.641c0 .319.258.577.576.577h2.641a.576.576 0 0 0 .577-.577v-2.641a.576.576 0 0 0-.577-.576"/><path fill="#F5F5F5" d="M23.916 91.631h-9.902a.576.576 0 0 0-.576.577v.003c0 .318.258.576.576.576h9.902a.576.576 0 0 0 .577-.576v-.003a.576.576 0 0 0-.577-.577M23.75 97.736H13.85a.576.576 0 0 0-.576.577v.003c0 .318.257.576.576.576h9.902a.576.576 0 0 0 .576-.576v-.003a.576.576 0 0 0-.576-.577M54.557 106.349H7.63a.623.623 0 0 0-.623.623v.003c0 .344.279.623.623.623h46.928a.623.623 0 0 0 .623-.623v-.003a.623.623 0 0 0-.623-.623"/><path fill="#C86FFF" d="M26.608 109.975H8.85a1.844 1.844 0 0 0-1.844 1.844v13.406c0 1.018.825 1.844 1.844 1.844h17.758a1.844 1.844 0 0 0 1.844-1.844v-13.406a1.844 1.844 0 0 0-1.844-1.844"/><path fill="#F5F5F5" d="M53.333 110.14H33.594a1.844 1.844 0 0 0-1.844 1.844v3.756c0 1.019.826 1.844 1.844 1.844h19.739a1.844 1.844 0 0 0 1.844-1.844v-3.756a1.844 1.844 0 0 0-1.844-1.844M53.087 119.543h-19.74a1.844 1.844 0 0 0-1.843 1.844v3.757c0 1.018.826 1.844 1.844 1.844h19.739a1.844 1.844 0 0 0 1.844-1.844v-3.757a1.844 1.844 0 0 0-1.844-1.844"/><path fill="#4A94FF" d="M34.423 11.433H-4.989c-.153 0-.274.134-.274.3V32.61c0 5.149 3.831 9.32 8.553 9.32h16.34l6.682 9.375c.178.25.573.128.58-.18l.137-9.195h7.394c.153 0 .274-.134.274-.3V11.733c0-.165-.124-.299-.274-.299"/><g fill="#DDD9E7"><path d="M24.446 16.423H-.105v1.022h24.55zM29.177 24.223H-.105v1.021h29.282zM29.177 32.022H-.105v1.022h29.282z"/></g><path fill="#C86FFF" d="M60.065 21.223H30.832V.5h27.373l5.862 6.192v10.251c0 2.364-1.79 4.28-4.002 4.28"/><path fill="#F5F5F5" d="m64.088 6.742-5.883.147V.5z"/><g fill="#F5F5F5"><path d="M57.498 5.88H38.849v.887h18.649zM57.498 10.172H35.893v.887h21.605zM57.498 14.464H35.893v.888h21.605z"/></g><g fill="#3D68FF"><path d="M118.948 62.7a.224.224 0 0 1-.221-.193 10 10 0 0 1-.081-.918.223.223 0 0 1 .215-.234.223.223 0 0 1 .233.215c.013.29.038.586.078.875a.224.224 0 0 1-.193.252h-.031zM118.97 60.016h-.034a.226.226 0 0 1-.19-.256c.09-.592.236-1.187.433-1.775a.22.22 0 0 1 .283-.14c.118.04.181.168.14.283a10 10 0 0 0-.414 1.7.22.22 0 0 1-.221.19zm1.124-3.386a.226.226 0 0 1-.199-.327c.271-.524.586-1.05.941-1.56a.22.22 0 0 1 .311-.057.22.22 0 0 1 .056.312 14 14 0 0 0-.909 1.51.23.23 0 0 1-.2.122m2.028-2.947a.226.226 0 0 1-.168-.374c.389-.445.813-.884 1.258-1.305a.226.226 0 0 1 .318.01.226.226 0 0 1-.009.317c-.436.411-.851.841-1.227 1.274a.23.23 0 0 1-.169.078zm2.604-2.458a.22.22 0 0 1-.177-.087.223.223 0 0 1 .037-.314c.47-.371.966-.726 1.473-1.056a.224.224 0 0 1 .312.065.224.224 0 0 1-.066.312c-.495.323-.978.672-1.442 1.034a.23.23 0 0 1-.14.046zm2.997-1.968a.23.23 0 0 1-.196-.115.225.225 0 0 1 .09-.306 32 32 0 0 1 1.607-.822.224.224 0 1 1 .193.405 32 32 0 0 0-1.585.81.23.23 0 0 1-.109.028m3.236-1.536a.224.224 0 0 1-.084-.433 32 32 0 0 1 1.691-.632.225.225 0 1 1 .147.427 34 34 0 0 0-1.667.623.2.2 0 0 1-.084.015zm3.389-1.168a.224.224 0 0 1-.062-.44 37 37 0 0 1 1.744-.454.225.225 0 1 1 .103.44c-.583.136-1.162.29-1.723.451a.2.2 0 0 1-.062.01zm28.675-.635h-.183a.226.226 0 1 1 .003-.452h.18c.558 0 1.094-.019 1.592-.06a.23.23 0 0 1 .243.206.23.23 0 0 1-.205.243q-.773.06-1.63.06zm-1.971-.072h-.016a55 55 0 0 1-1.794-.15.223.223 0 0 1-.202-.245.224.224 0 0 1 .246-.203 54 54 0 0 0 1.778.15c.125.009.218.115.209.24a.225.225 0 0 1-.224.211zm-23.215-.118a.225.225 0 0 1-.221-.184.223.223 0 0 1 .18-.262c.58-.109 1.178-.208 1.776-.299a.223.223 0 0 1 .255.19.224.224 0 0 1-.19.256q-.894.131-1.76.296-.022.002-.043.003zm28.572-.106a.226.226 0 0 1-.043-.449 13 13 0 0 0 1.7-.451.225.225 0 1 1 .147.426c-.558.194-1.15.35-1.763.468q-.022.001-.044.003zm-8.927-.112h-.025l-.532-.06q-.621-.066-1.246-.127a.225.225 0 1 1 .043-.449q.627.061 1.252.128l.536.06a.225.225 0 0 1-.025.448zm-16.101-.306a.226.226 0 0 1-.224-.199.227.227 0 0 1 .199-.25 53 53 0 0 1 1.795-.161c.124-.01.23.084.239.209a.223.223 0 0 1-.208.24c-.601.043-1.199.096-1.779.158h-.025zm12.531-.04h-.018a97 97 0 0 0-1.785-.125.226.226 0 0 1-.212-.236.225.225 0 0 1 .237-.212c.585.034 1.187.078 1.794.127a.224.224 0 0 1-.019.449zm-3.578-.215h-.01a59 59 0 0 0-1.788-.047.22.22 0 0 1-.221-.227.22.22 0 0 1 .227-.221c.586.01 1.19.025 1.798.05a.224.224 0 0 1-.01.448zm-5.377-.006a.223.223 0 0 1-.224-.215.223.223 0 0 1 .215-.234c.589-.025 1.193-.04 1.797-.047.122 0 .228.097.228.222a.224.224 0 0 1-.222.227c-.601.006-1.202.022-1.784.047zm24.826-.499a.226.226 0 0 1-.109-.424 11.4 11.4 0 0 0 1.476-.95.224.224 0 1 1 .271.359c-.492.374-1.009.707-1.536.987a.2.2 0 0 1-.105.028zm2.853-2.149a.23.23 0 0 1-.159-.065.226.226 0 0 1 0-.318 15 15 0 0 0 1.174-1.32.227.227 0 0 1 .315-.038.223.223 0 0 1 .037.314c-.386.486-.791.944-1.208 1.359a.23.23 0 0 1-.159.065zm2.23-2.797a.25.25 0 0 1-.121-.034.227.227 0 0 1-.069-.312q.469-.726.894-1.532a.225.225 0 1 1 .399.212c-.29.545-.598 1.071-.913 1.563a.23.23 0 0 1-.19.103M176.557 36.327a.223.223 0 0 1-.205-.314c.118-.268.233-.546.346-.823a.224.224 0 0 1 .292-.124.224.224 0 0 1 .125.292q-.174.427-.352.835a.22.22 0 0 1-.206.134"/></g><path fill="#3D68FF" d="m187.671 18.398-.941 21.33-7.042-7.394s8.011-14.534 8.067-14.294l-.308-.256c.236-.068-8.569 13.998-8.569 13.998l-9.887-2.56 18.185-11.189.492.365z"/><path fill="#174462" d="M175.215 87.476H133.65v30.049h41.565z" opacity=".07"/><path fill="#DDD" d="M176.918 85.732H135.07v30.139h41.848z"/><path fill="#7A869A" d="M176.859 85.732H135.07v2.398h41.789z"/><path fill="#576170" d="M176.828 93.31v-.093h-5.136v-5.04h-.094v5.04h-6.158v-5.04h-.093v5.04h-6.158v-5.04h-.094v5.04h-6.158v-5.04h-.093v5.04h-6.158v-5.04h-.094v5.04h-6.158v-5.04h-.093v5.04h-5.131v.093h5.131v5.694h-5.131v.094h5.131v5.694h-5.131v.093h5.131v5.694h-5.131v.094h5.131v5.298h.093v-5.298h6.158v5.298h.094v-5.298h6.158v5.298h.093v-5.298h6.158v5.298h.094v-5.298h6.158v5.298h.093v-5.298h6.158v5.298h.094v-5.298h5.136v-.094h-5.136v-5.694h5.136v-.093h-5.136v-5.694h5.136v-.094h-5.136V93.31zm-11.478 0v5.694h-6.158V93.31zm-12.41 5.79h6.158v5.695h-6.158zm-.093 5.695h-6.158v-5.694h6.158zm6.345-5.694h6.158v5.694h-6.158zm-.094-5.79v5.693h-6.158V93.31zm-6.251 0v5.693h-6.158V93.31zm-12.41 0h6.158v5.693h-6.158zm0 5.79h6.158v5.694h-6.158zm0 11.481v-5.694h6.158v5.694zm6.252 0v-5.694h6.158v5.694zm6.251 0v-5.694h6.158v5.694zm6.252 0v-5.694h6.158v5.694zm12.406 0h-6.158v-5.694h6.158zm0-5.787h-6.158v-5.694h6.158zm0-5.788h-6.158v-5.694h6.158z" opacity=".03"/><path fill="#8A49FF" d="M172.414 91.996a1.28 1.28 0 0 0-.897 2.187l-4.441 3.824-.337.29a1.26 1.26 0 0 0-.8-.283 1.279 1.279 0 0 0-.695 2.348l-.972 2.343q-.207.5-.414 1a1.275 1.275 0 0 0-1.392.601l-4.293-2.713-3.18-2.01a1.279 1.279 0 0 0-1.187-1.75 1.28 1.28 0 0 0-1.249 1.539l-6.606 2.697a1.279 1.279 0 0 0-2.449.508c0 .368.156.695.402.928l-.894 1.016q-2.133 2.42-4.267 4.843a1.28 1.28 0 0 0-1.991 1.059 1.28 1.28 0 0 0 1.278 1.277 1.28 1.28 0 0 0 1.277-1.277c0-.271-.088-.523-.231-.732a2761 2761 0 0 0 3.641-4.133l1.58-1.794a1.279 1.279 0 0 0 1.756-1.184v-.05a1 1 0 0 1 .088-.034l6.594-2.691a1.272 1.272 0 0 0 2.009.177l2.884 1.823c1.561.984 3.118 1.971 4.679 2.956q-.016.092-.016.19c0 .704.573 1.277 1.277 1.277a1.279 1.279 0 0 0 .714-2.337q.697-1.672 1.389-3.348.131.028.268.028c.704 0 1.277-.573 1.277-1.277 0-.234-.066-.455-.175-.642q.393-.337.785-.676l3.364-2.896q.363-.315.726-.626a1.279 1.279 0 0 0 1.772-1.177c0-.705-.573-1.278-1.277-1.278z"/><path fill="#CDD1D9" d="m180.454 72.438-5.009 8.024-28.413-17.902 5.008-8.023z"/><path fill="#253858" d="m190.244 84.06-.059.093c-1.579 2.529-4.398 3.62-6.295 2.435l-21.81-13.387 5.731-9.64 21.857 13.773c1.897 1.184 2.155 4.196.576 6.725"/><path fill="#BABBBF" d="m149.019 63.757 1.376 1 12.45-3.23-10.372-6.623z" opacity=".2" style="mix-blend-mode:multiply"/><path fill="#8845FF" d="M143.234 20.613c-13.334-8.326-30.893-4.265-39.216 9.07-8.326 13.335-4.264 30.893 9.071 39.216 13.334 8.326 30.893 4.264 39.216-9.07 8.326-13.335 4.264-30.894-9.071-39.216m5.697 37.11c-7.161 11.472-22.265 14.964-33.737 7.803s-14.963-22.265-7.802-33.737 22.265-14.964 33.737-7.803 14.964 22.265 7.802 33.737"/><path fill="#FDF2FF" d="M145.475 62.07c9.562-9.562 9.562-25.065 0-34.628-9.563-9.562-25.066-9.562-34.629 0-9.562 9.563-9.562 25.066 0 34.629 9.563 9.562 25.066 9.562 34.629 0" opacity=".5"/><path fill="#fff" d="M110.516 43.772c-.122-7.806 4.952-14.87 12.484-17.039 7.513-2.161 15.702 1.153 19.655 7.897 1.115 1.9 4.146.311 3.028-1.592-4.551-7.762-13.572-11.78-22.368-9.908-8.669 1.844-15.064 9.294-16.107 18.003-.1.841-.125 1.692-.112 2.539.034 2.196 3.454 2.311 3.42.1" opacity=".22"/><path fill="#fff" d="M147.766 37.975a2.253 2.253 0 1 1-2.389 3.822 2.256 2.256 0 0 1 2.389-3.825z" opacity=".31"/><path fill="#8993A4" d="m162.366 72.88 5.454-9.17a.71.71 0 0 0-.19-.938l-.096-.071a.717.717 0 0 0-1.044.215l-5.37 9.235a.716.716 0 0 0 .271.984l.013.007a.714.714 0 0 0 .959-.259z"/><path fill="#F5F5F5" d="M152.046 44.934c-.021 5.884-2.158 11.59-6.045 16.013-3.838 4.367-9.177 7.19-14.924 8.002-5.874.832-11.936-.657-16.845-3.95-4.781-3.205-8.267-8.151-9.796-13.683-1.586-5.738-.928-11.998 1.744-17.306 2.576-5.115 7.002-9.233 12.285-11.444 5.513-2.308 11.771-2.448 17.406-.495 5.426 1.878 10.036 5.787 12.927 10.73 2.146 3.673 3.236 7.887 3.252 12.13 0 .84 1.305.84 1.302 0a25.8 25.8 0 0 0-5.766-16.154c-3.616-4.473-8.796-7.6-14.406-8.812-5.822-1.255-11.974-.38-17.247 2.364-5.068 2.638-9.152 7.058-11.466 12.273-2.417 5.448-2.816 11.671-1.19 17.4 1.573 5.534 5.087 10.378 9.74 13.733 4.782 3.45 10.759 5.067 16.627 4.663 5.819-.402 11.351-2.863 15.618-6.819 5.155-4.781 8.068-11.637 8.093-18.645 0-.841-1.299-.841-1.302 0z"/><path fill="#F5C4AF" d="M186.87 89.43c.636-1.667 1.464-4.455 2.171-6.785a9.3 9.3 0 0 0-.084-5.644c-1.523-4.52-3.616-9.88-4.32-11.659a1.32 1.32 0 0 0-.866-.788l-4.077-1.19a1.33 1.33 0 0 0-1.667.963c-.202.828-.433 1.728-.486 1.713-.077-.022-.109-.645-.134-1.361l-.401-4.06a.77.77 0 0 0-.573-.715 30 30 0 0 0-1.851-.387 1.957 1.957 0 0 0-2.305 1.75c-.087.976-.196 2.02-.283 2.493l-.442-.23-.405-4.639a2.6 2.6 0 0 0-2.078-2.323l-.178-.038a2.6 2.6 0 0 0-3.068 2.059l-.626 3.252s-1.766 13.313-1.968 14.26c-.293 1.386-1.221 2.629-1.087 4.009.149 1.541.825 2.974 1.492 4.382q2.416 5.088 4.834 10.176c.352 2.302.719 7.579 1.249 9.843 5.962-1.202 11.948-2.111 18.583-4.223.187-.06-1.831-9.821-1.436-10.862z"/><path fill="#F5F5F5" d="m168.081 113.183-1.376-12.101 23.834-8.824 4.143 14.752-26.52 7.917z"/><path fill="#3D68FF" d="M192.957 100.901c-6.476 3.648-22.897 12.781-26.941 13.84l-1.211 28.579a4.223 4.223 0 0 0 4.22 4.404h32.012c2.7 0 4.709-2.501 4.124-5.136l-8.902-40.207a2.247 2.247 0 0 0-3.302-1.473z"/><path fill="#242448" d="M171.77 106.01a1.359 1.359 0 1 1-2.626-.697 1.359 1.359 0 0 1 2.626.697"/><path fill="#F5C4AF" d="m160.774 80.555-3.18-5.015-4.601-4.286s-.894-2.582 1.991-2.654c2.884-.071 4.825 2.34 6.102 4.252.56.841 3.273 3.292 5.379 4.79 2.754 1.96-.125 10.591-.125 10.591s-5.248-7.201-5.566-7.681z"/><defs><linearGradient id="a" x1="8.52" x2="53.121" y1="71.615" y2="71.615" gradientUnits="userSpaceOnUse"><stop stop-color="#4A94FF"/><stop offset="1" stop-color="#C86FFF"/></linearGradient></defs></svg>