<svg width="200" height="148" viewBox="0 0 200 148" fill="none" xmlns="http://www.w3.org/2000/svg">
<g id="Group">
<g id="Calque 1">
<g id="Group_2">
<g id="Group_3">
<g id="Group_4">
<path id="Vector" d="M131.221 131.685H56.3643V23.9768H139.444V124.671C139.444 128.546 135.762 131.685 131.221 131.685Z" fill="#FDF2FF"/>
<path id="Vector_2" d="M139.285 23.9768H56.3423V28.9762H139.285V23.9768Z" fill="#FADDFF"/>
</g>
<path id="Vector_3" d="M118.493 83.2119C119.611 83.2119 119.611 81.9473 118.493 81.9473H76.8597C75.7414 81.9473 75.7414 83.2119 76.8597 83.2119H118.493Z" fill="#C1C7D0"/>
<g id="Group_5">
<path id="Vector_4" d="M96.0068 32.446C89.3348 32.446 83.3667 35.3989 79.3174 40.0681L96.0068 54.5304L112.696 40.0681C108.65 35.3989 102.679 32.446 96.0068 32.446Z" fill="#5B94FF"/>
<path id="Vector_5" d="M119.456 51.291L97.5986 54.4339V76.5183C109.806 76.5183 119.683 66.641 119.683 54.4339C119.683 53.3655 119.602 52.3189 119.456 51.291Z" fill="#2044DC"/>
<path id="Vector_6" d="M79.3425 40.1396C71.4744 49.4718 72.6612 63.3889 81.9933 71.2571C82.8094 71.9455 83.6628 72.5591 84.5412 73.1104L96.2251 54.3746L79.3394 40.1428L79.3425 40.1396Z" fill="#DDD9E7"/>
<path id="Vector_7" d="M96.1966 76.4872C92.0601 76.4872 87.9048 75.3316 84.2573 72.9799L96.1966 54.406V76.4872Z" fill="#3D68FF"/>
<path id="Vector_8" d="M120.577 50.0762C119.966 45.7777 118.119 41.8842 115.409 38.7568L98.7197 53.2191L120.577 50.0762Z" fill="#0D25B3"/>
</g>
<g id="Group_6">
<g id="Group_7">
<path id="Vector_9" d="M70.2689 126.845H70.1069C67.9109 126.845 66.1323 125.066 66.1323 122.87V107.305H74.2434V122.87C74.2434 125.066 72.4648 126.845 70.2689 126.845Z" fill="#8845FF"/>
<path id="Vector_10" d="M74.2434 108.922H66.1323V103.714C66.1323 101.518 67.9109 99.7393 70.1069 99.7393H70.2689C72.4648 99.7393 74.2434 101.518 74.2434 103.714V108.922Z" fill="#C86FFF"/>
</g>
<g id="Group_8">
<path id="Vector_11" d="M123.676 127.727H123.514C121.318 127.727 119.54 125.948 119.54 123.752V108.187H127.651V123.752C127.651 125.948 125.872 127.727 123.676 127.727Z" fill="#8845FF"/>
<path id="Vector_12" d="M127.704 109.803H119.54V95.6713C119.54 93.4754 121.318 91.6968 123.514 91.6968H123.729C125.925 91.6968 127.704 93.4754 127.704 95.6713V109.803Z" fill="#C86FFF"/>
</g>
<g id="Group_9">
<path id="Vector_13" d="M105.871 127.287H105.709C103.513 127.287 101.735 125.509 101.735 123.313V111.697H109.846V123.313C109.846 125.509 108.067 127.287 105.871 127.287Z" fill="#8845FF"/>
<path id="Vector_14" d="M109.849 118.507H101.738V108.782C101.738 106.586 103.517 104.807 105.713 104.807H105.875C108.071 104.807 109.849 106.586 109.849 108.782V118.507Z" fill="#C86FFF"/>
</g>
<g id="Group_10">
<path id="Vector_15" d="M88.0701 127.175H87.9082C85.7122 127.175 83.9336 125.397 83.9336 123.201V99.4529H92.0447V123.201C92.0447 125.397 90.2661 127.175 88.0701 127.175Z" fill="#8845FF"/>
<path id="Vector_16" d="M92.0447 110.894H83.9336V92.6967C83.9336 90.5008 85.7122 88.7222 87.9082 88.7222H88.0701C90.2661 88.7222 92.0447 90.5008 92.0447 92.6967V110.894Z" fill="#C86FFF"/>
</g>
</g>
<g id="Group_11">
<path id="Vector_17" d="M59.5135 27.8891C58.9248 27.8891 58.4482 27.4094 58.4482 26.8238C58.4482 26.2382 58.9279 25.7585 59.5135 25.7585C60.0991 25.7585 60.5788 26.2382 60.5788 26.8238C60.5788 27.4094 60.0991 27.8891 59.5135 27.8891ZM59.5135 25.933C59.0245 25.933 58.6258 26.3317 58.6258 26.8207C58.6258 27.3097 59.0245 27.7084 59.5135 27.7084C60.0026 27.7084 60.4013 27.3097 60.4013 26.8207C60.4013 26.3317 60.0026 25.933 59.5135 25.933Z" fill="white"/>
<path id="Vector_18" d="M62.8031 27.8891C62.2144 27.8891 61.7378 27.4094 61.7378 26.8238C61.7378 26.2382 62.2175 25.7585 62.8031 25.7585C63.3887 25.7585 63.8684 26.2382 63.8684 26.8238C63.8684 27.4094 63.3887 27.8891 62.8031 27.8891ZM62.8031 25.933C62.314 25.933 61.9153 26.3317 61.9153 26.8207C61.9153 27.3097 62.314 27.7084 62.8031 27.7084C63.2921 27.7084 63.6908 27.3097 63.6908 26.8207C63.6908 26.3317 63.2921 25.933 62.8031 25.933Z" fill="white"/>
<path id="Vector_19" d="M66.0921 27.8891C65.5034 27.8891 65.0269 27.4094 65.0269 26.8238C65.0269 26.2382 65.5065 25.7585 66.0921 25.7585C66.6777 25.7585 67.1574 26.2382 67.1574 26.8238C67.1574 27.4094 66.6777 27.8891 66.0921 27.8891ZM66.0921 25.933C65.6031 25.933 65.2044 26.3317 65.2044 26.8207C65.2044 27.3097 65.6031 27.7084 66.0921 27.7084C66.5812 27.7084 66.9799 27.3097 66.9799 26.8207C66.9799 26.3317 66.5812 25.933 66.0921 25.933Z" fill="white"/>
</g>
</g>
<path id="Vector_20" opacity="0.07" d="M58.6005 134.822H5.6416V53.0352H63.5157V129.907C63.5157 132.623 61.3135 134.825 58.5973 134.825L58.6005 134.822Z" fill="#174462"/>
<g id="Group_12">
<path id="Vector_21" d="M54.2613 132.533H-0.934082V46.8428H61.4286V125.365C61.4286 129.321 58.2202 132.529 54.2644 132.529L54.2613 132.533Z" fill="#DFE1E6"/>
<path id="Vector_22" d="M56.1676 53.686H5.68506V85.6102H56.1676V53.686Z" fill="white"/>
<path id="Vector_23" d="M37.6652 64.7594C37.8739 65.183 38.2384 65.5413 38.9236 65.7998C40.2007 66.2764 41.9201 65.9337 42.6583 64.8622C43.8887 63.0743 43.543 60.5139 44.8699 58.6543C45.4088 57.9005 46.228 57.2869 47.1967 57.0128C48.1623 56.7355 49.2743 56.8165 50.134 57.2931C51.5357 58.0656 52.0216 59.6604 52.0341 61.1088C52.059 63.8904 51.6728 66.7654 51.1713 69.5096C50.9283 70.8365 50.5545 72.2008 49.592 73.2505C48.2869 74.674 46.1376 75.2658 44.0818 75.5835C38.88 76.3841 33.5474 75.895 28.2957 75.4029C24.072 75.0073 19.8482 74.6117 15.6245 74.2161C14.4346 74.104 10.9273 74.2846 10.2171 73.4592C9.52247 72.6525 10.0676 69.9239 10.4756 69.0828C11.382 67.2077 13.8615 66.1486 16.1883 66.267C21.4368 66.5349 19.3623 61.0527 21.0412 58.4518C21.9352 57.0688 23.9007 56.0752 25.592 56.6514C27.2055 57.1997 27.8814 58.8225 28.6757 60.165C29.09 60.8627 29.6756 61.5885 30.5571 61.738C32.0585 61.9934 33.3107 60.4703 34.8401 60.5263C35.7465 60.5606 36.5159 61.1711 36.9052 61.8844C37.4379 62.8562 37.251 63.9277 37.6652 64.7625V64.7594Z" fill="#F5F5F5"/>
<path id="Vector_24" d="M52.8689 83.8785C52.8689 83.8785 52.8783 81.5797 52.8783 81.4551C52.8907 78.0256 52.8907 74.5962 52.8938 71.1698C52.8969 67.893 53.1679 64.6193 53.115 61.3518C53.0901 59.8411 52.4391 59.0499 50.8474 59.4549C49.2806 59.8536 47.8446 60.7849 46.8603 62.0682C46.1906 62.9373 45.6362 64.0275 44.599 64.3763C42.7425 65.0024 41.2225 62.9092 39.5529 61.8813C37.7556 60.7724 35.2575 60.9593 33.644 62.3236C31.6972 63.9714 31.2487 66.8184 29.6009 68.7652C27.7881 70.9082 24.4925 71.634 21.9446 70.4503C20.898 69.9644 20.0009 69.2075 18.9699 68.6904C14.8801 66.6408 9.19857 69.5906 8.51953 74.1134V83.4704C8.51953 83.4704 52.953 83.9657 52.8689 83.8816V83.8785Z" fill="url(#paint0_linear_11765_2527)"/>
<path id="Vector_25" d="M9.7284 90.4756H7.08698C6.76873 90.4756 6.51074 90.7336 6.51074 91.0518V93.6932C6.51074 94.0115 6.76873 94.2695 7.08698 94.2695H9.7284C10.0467 94.2695 10.3046 94.0115 10.3046 93.6932V91.0518C10.3046 90.7336 10.0467 90.4756 9.7284 90.4756Z" fill="#F1F1F1"/>
<path id="Vector_26" d="M9.7284 96.0857H7.08698C6.76873 96.0857 6.51074 96.3437 6.51074 96.6619V99.3033C6.51074 99.6216 6.76873 99.8796 7.08698 99.8796H9.7284C10.0467 99.8796 10.3046 99.6216 10.3046 99.3033V96.6619C10.3046 96.3437 10.0467 96.0857 9.7284 96.0857Z" fill="#F1F1F1"/>
<path id="Vector_27" d="M23.9164 91.6313H14.0142C13.696 91.6313 13.438 91.8893 13.438 92.2076V92.2107C13.438 92.529 13.696 92.7869 14.0142 92.7869H23.9164C24.2346 92.7869 24.4926 92.529 24.4926 92.2107V92.2076C24.4926 91.8893 24.2346 91.6313 23.9164 91.6313Z" fill="#F5F5F5"/>
<path id="Vector_28" d="M23.7508 97.7363H13.8487C13.5304 97.7363 13.2725 97.9943 13.2725 98.3126V98.3157C13.2725 98.6339 13.5304 98.8919 13.8487 98.8919H23.7508C24.0691 98.8919 24.3271 98.6339 24.3271 98.3157V98.3126C24.3271 97.9943 24.0691 97.7363 23.7508 97.7363Z" fill="#F5F5F5"/>
<path id="Vector_29" d="M54.5573 106.349H7.62883C7.28477 106.349 7.00586 106.628 7.00586 106.972V106.975C7.00586 107.319 7.28477 107.598 7.62883 107.598H54.5573C54.9014 107.598 55.1803 107.319 55.1803 106.975V106.972C55.1803 106.628 54.9014 106.349 54.5573 106.349Z" fill="#F5F5F5"/>
<path id="Vector_30" d="M26.6077 109.975H8.84987C7.83146 109.975 7.00586 110.8 7.00586 111.819V125.225C7.00586 126.243 7.83146 127.069 8.84987 127.069H26.6077C27.6261 127.069 28.4517 126.243 28.4517 125.225V111.819C28.4517 110.8 27.6261 109.975 26.6077 109.975Z" fill="#C86FFF"/>
<path id="Vector_31" d="M53.3329 110.14H33.594C32.5756 110.14 31.75 110.965 31.75 111.984V115.74C31.75 116.759 32.5756 117.584 33.594 117.584H53.3329C54.3513 117.584 55.1769 116.759 55.1769 115.74V111.984C55.1769 110.965 54.3513 110.14 53.3329 110.14Z" fill="#F5F5F5"/>
<path id="Vector_32" d="M53.0868 119.543H33.3479C32.3295 119.543 31.5039 120.369 31.5039 121.387V125.144C31.5039 126.162 32.3295 126.988 33.3479 126.988H53.0868C54.1052 126.988 54.9308 126.162 54.9308 125.144V121.387C54.9308 120.369 54.1052 119.543 53.0868 119.543Z" fill="#F5F5F5"/>
</g>
<g id="Group_13">
<path id="Vector_33" d="M34.4233 11.4331H-4.98907C-5.1417 11.4331 -5.26318 11.5671 -5.26318 11.7321V32.611C-5.26318 37.7599 -1.43192 41.9307 3.29021 41.9307H19.6308L26.3122 51.3064C26.4897 51.5556 26.8853 51.4341 26.8915 51.1258L27.0286 41.9307H34.4233C34.5759 41.9307 34.6974 41.7968 34.6974 41.6317V11.7321C34.6974 11.5671 34.5728 11.4331 34.4233 11.4331Z" fill="#4A94FF"/>
<g id="Group_14">
<path id="Vector_34" d="M24.4459 16.4231H-0.105469V17.4448H24.4459V16.4231Z" fill="#DDD9E7"/>
<path id="Vector_35" d="M29.1773 24.2227H-0.105469V25.2443H29.1773V24.2227Z" fill="#DDD9E7"/>
<path id="Vector_36" d="M29.1773 32.0222H-0.105469V33.0439H29.1773V32.0222Z" fill="#DDD9E7"/>
</g>
</g>
<g id="Group_15">
<g id="Group_16">
<path id="Vector_37" d="M60.0645 21.2232H30.8315V0.5H58.2049L64.0671 6.69234V16.9433C64.0671 19.3075 62.2761 21.2232 60.0645 21.2232Z" fill="#C86FFF"/>
<path id="Vector_38" d="M64.0885 6.74217L58.2046 6.88857V0.5L64.0885 6.74217Z" fill="#F5F5F5"/>
</g>
<g id="Group_17">
<path id="Vector_39" d="M57.4978 5.87939H38.8491V6.76713H57.4978V5.87939Z" fill="#F5F5F5"/>
<path id="Vector_40" d="M57.4977 10.1716H35.8931V11.0594H57.4977V10.1716Z" fill="#F5F5F5"/>
<path id="Vector_41" d="M57.4977 14.4641H35.8931V15.3518H57.4977V14.4641Z" fill="#F5F5F5"/>
</g>
</g>
<g id="Group_18">
<path id="Vector_42" d="M118.948 62.7006C118.839 62.7006 118.742 62.6196 118.727 62.5075C118.686 62.2054 118.658 61.8939 118.646 61.5886C118.64 61.464 118.736 61.3613 118.861 61.355C118.985 61.3488 119.088 61.4454 119.094 61.5699C119.107 61.8596 119.132 62.1555 119.172 62.4452C119.188 62.5667 119.104 62.682 118.979 62.6975C118.97 62.6975 118.957 62.6975 118.948 62.6975V62.7006Z" fill="#3D68FF"/>
<path id="Vector_43" d="M118.97 60.0156C118.97 60.0156 118.948 60.0156 118.936 60.0156C118.814 59.9969 118.727 59.8816 118.746 59.7601C118.836 59.1683 118.982 58.5734 119.179 57.9847C119.219 57.8663 119.347 57.804 119.462 57.8445C119.58 57.885 119.643 58.0127 119.602 58.1279C119.412 58.6917 119.272 59.2649 119.188 59.8287C119.172 59.9408 119.076 60.0187 118.967 60.0187L118.97 60.0156ZM120.094 56.6297C120.06 56.6297 120.026 56.6204 119.992 56.6048C119.883 56.5487 119.839 56.4117 119.895 56.3026C120.166 55.7794 120.481 55.2529 120.836 54.7421C120.907 54.6393 121.048 54.6144 121.147 54.686C121.25 54.7577 121.275 54.8978 121.203 54.9975C120.861 55.4928 120.555 56.0005 120.294 56.5082C120.253 56.5861 120.175 56.6297 120.094 56.6297ZM122.122 53.6831C122.069 53.6831 122.016 53.6644 121.976 53.627C121.882 53.546 121.873 53.4027 121.954 53.3093C122.343 52.8638 122.767 52.4246 123.212 52.0041C123.303 51.92 123.446 51.9232 123.53 52.0135C123.614 52.1038 123.611 52.2471 123.521 52.3312C123.085 52.7424 122.67 53.1722 122.294 53.6052C122.25 53.655 122.188 53.6831 122.125 53.6831H122.122ZM124.726 51.2254C124.661 51.2254 124.592 51.1974 124.549 51.1382C124.471 51.0416 124.489 50.8984 124.586 50.8236C125.056 50.4529 125.552 50.0978 126.059 49.7677C126.162 49.6991 126.302 49.7272 126.371 49.8331C126.439 49.9359 126.411 50.076 126.305 50.1446C125.81 50.4685 125.327 50.8174 124.863 51.1787C124.823 51.2099 124.773 51.2254 124.723 51.2254H124.726ZM127.723 49.2568C127.645 49.2568 127.567 49.2132 127.527 49.1416C127.467 49.0326 127.508 48.8955 127.617 48.8363C128.14 48.5498 128.682 48.2725 129.224 48.014C129.336 47.9611 129.47 48.0078 129.523 48.1199C129.576 48.2321 129.529 48.366 129.417 48.4189C128.881 48.6744 128.349 48.9454 127.832 49.2288C127.797 49.2475 127.76 49.2568 127.723 49.2568ZM130.959 47.7212C130.869 47.7212 130.785 47.6683 130.75 47.581C130.704 47.4658 130.76 47.335 130.875 47.2882C131.426 47.064 131.993 46.8522 132.566 46.6559C132.685 46.6154 132.812 46.6777 132.853 46.7961C132.893 46.9145 132.831 47.0422 132.713 47.0827C132.149 47.2758 131.588 47.4876 131.046 47.7056C131.018 47.7181 130.99 47.7212 130.962 47.7212H130.959ZM134.348 46.5531C134.251 46.5531 134.161 46.4877 134.133 46.3912C134.099 46.2728 134.167 46.1482 134.286 46.1139C134.853 45.952 135.441 45.7962 136.03 45.6592C136.152 45.6311 136.273 45.7059 136.301 45.8274C136.329 45.9489 136.254 46.0703 136.133 46.0984C135.55 46.2354 134.971 46.3881 134.41 46.55C134.389 46.5563 134.37 46.5594 134.348 46.5594V46.5531ZM163.023 45.9177H162.84C162.715 45.9177 162.615 45.8149 162.615 45.6903C162.615 45.5657 162.712 45.4661 162.843 45.4661H163.023C163.581 45.4661 164.117 45.4474 164.615 45.4069C164.74 45.3975 164.846 45.491 164.858 45.6125C164.867 45.737 164.774 45.843 164.653 45.8554C164.139 45.8959 163.593 45.9146 163.023 45.9146V45.9177ZM161.052 45.8461C161.052 45.8461 161.042 45.8461 161.036 45.8461C160.5 45.8118 159.915 45.762 159.242 45.6966C159.117 45.6841 159.027 45.5751 159.04 45.4505C159.052 45.3259 159.161 45.2356 159.286 45.248C159.952 45.3134 160.535 45.3633 161.064 45.3975C161.189 45.4069 161.282 45.5128 161.273 45.6374C161.267 45.7557 161.167 45.8492 161.049 45.8492L161.052 45.8461ZM137.837 45.7277C137.731 45.7277 137.637 45.6529 137.616 45.5439C137.594 45.4224 137.672 45.3041 137.796 45.2823C138.376 45.1733 138.974 45.0736 139.572 44.9833C139.696 44.9646 139.808 45.0487 139.827 45.1733C139.846 45.2947 139.762 45.41 139.637 45.4287C139.042 45.5159 138.453 45.6156 137.877 45.7246C137.862 45.7246 137.849 45.7277 137.834 45.7277H137.837ZM166.409 45.6218C166.303 45.6218 166.21 45.547 166.188 45.438C166.163 45.3165 166.244 45.1982 166.366 45.1733C166.958 45.058 167.531 44.9054 168.066 44.7216C168.185 44.6811 168.312 44.7434 168.353 44.8618C168.393 44.9801 168.331 45.1078 168.213 45.1483C167.655 45.3415 167.063 45.4972 166.45 45.6156C166.434 45.6156 166.422 45.6187 166.406 45.6187L166.409 45.6218ZM157.482 45.5097C157.482 45.5097 157.467 45.5097 157.457 45.5097L156.925 45.4505C156.51 45.4069 156.096 45.3633 155.679 45.3228C155.554 45.3103 155.464 45.2013 155.476 45.0767C155.489 44.9521 155.598 44.8618 155.722 44.8742C156.14 44.9147 156.557 44.9583 156.974 45.0019L157.51 45.0611C157.635 45.0736 157.722 45.1857 157.71 45.3103C157.697 45.4256 157.6 45.5097 157.485 45.5097H157.482ZM141.381 45.2044C141.269 45.2044 141.17 45.1203 141.157 45.0051C141.145 44.8805 141.232 44.7714 141.356 44.7559C141.942 44.6936 142.543 44.6375 143.151 44.5939C143.275 44.5846 143.381 44.678 143.39 44.8026C143.4 44.9272 143.306 45.0331 143.182 45.0424C142.581 45.086 141.983 45.139 141.403 45.2013C141.394 45.2013 141.388 45.2013 141.378 45.2013L141.381 45.2044ZM153.912 45.1639C153.912 45.1639 153.9 45.1639 153.894 45.1639C153.293 45.1172 152.691 45.0736 152.109 45.0393C151.984 45.0331 151.891 44.9241 151.897 44.8026C151.903 44.678 152.012 44.5845 152.134 44.5908C152.719 44.625 153.321 44.6687 153.928 44.7185C154.053 44.7278 154.143 44.8369 154.134 44.9614C154.124 45.0798 154.025 45.167 153.909 45.167L153.912 45.1639ZM150.334 44.949C150.334 44.949 150.327 44.949 150.324 44.949C149.72 44.9241 149.119 44.9085 148.536 44.9023C148.412 44.9023 148.312 44.7995 148.315 44.6749C148.315 44.5503 148.418 44.4475 148.542 44.4537C149.128 44.4631 149.732 44.4786 150.34 44.5036C150.464 44.5098 150.561 44.6126 150.555 44.7372C150.548 44.8587 150.449 44.9521 150.33 44.9521L150.334 44.949ZM144.957 44.9428C144.836 44.9428 144.739 44.8493 144.733 44.7278C144.727 44.6032 144.823 44.5004 144.948 44.4942C145.537 44.4693 146.141 44.4537 146.745 44.4475C146.867 44.4475 146.973 44.5441 146.973 44.6687C146.973 44.7932 146.876 44.896 146.751 44.896C146.15 44.9023 145.549 44.9178 144.967 44.9428C144.963 44.9428 144.96 44.9428 144.957 44.9428ZM169.783 44.4444C169.702 44.4444 169.624 44.4008 169.583 44.326C169.524 44.217 169.565 44.0799 169.674 44.0208C170.178 43.7498 170.677 43.4289 171.15 43.0707C171.25 42.996 171.39 43.0147 171.465 43.1143C171.539 43.214 171.521 43.3542 171.421 43.4289C170.929 43.8027 170.412 44.136 169.885 44.4163C169.851 44.435 169.814 44.4444 169.78 44.4444H169.783ZM172.636 42.2951C172.58 42.2951 172.521 42.2733 172.477 42.2297C172.39 42.1425 172.39 41.9992 172.477 41.912C172.882 41.5102 173.274 41.0648 173.651 40.5913C173.729 40.4947 173.869 40.4792 173.966 40.5539C174.063 40.6318 174.081 40.772 174.003 40.8685C173.617 41.3544 173.212 41.8123 172.795 42.2266C172.751 42.2702 172.692 42.292 172.636 42.292V42.2951ZM174.866 39.498C174.826 39.498 174.782 39.4855 174.745 39.4637C174.639 39.3952 174.611 39.2581 174.676 39.1522C174.988 38.6694 175.287 38.1555 175.57 37.6197C175.629 37.5107 175.763 37.4671 175.875 37.5263C175.984 37.5855 176.028 37.7194 175.969 37.8315C175.679 38.3766 175.371 38.9031 175.056 39.3952C175.013 39.4606 174.941 39.498 174.866 39.498Z" fill="#3D68FF"/>
<path id="Vector_44" d="M176.557 36.3271C176.526 36.3271 176.495 36.3208 176.467 36.3084C176.355 36.2585 176.302 36.1246 176.352 36.0125C176.47 35.7446 176.585 35.4674 176.698 35.1901C176.744 35.0749 176.875 35.0188 176.99 35.0656C177.106 35.1123 177.162 35.2431 177.115 35.3584C177 35.6418 176.881 35.9221 176.763 36.1931C176.726 36.2772 176.645 36.3271 176.557 36.3271Z" fill="#3D68FF"/>
</g>
<path id="Vector_45" d="M187.671 18.3978L186.73 39.7284L179.688 32.3337C179.688 32.3337 187.699 17.7998 187.755 18.0396L187.447 17.7842C187.683 17.7157 178.878 31.7824 178.878 31.7824L168.991 29.2219L187.176 18.0334L187.668 18.3978H187.671Z" fill="#3D68FF"/>
<g id="Group_19">
<path id="Vector_46" opacity="0.07" d="M175.215 87.4763H133.65V117.525H175.215V87.4763Z" fill="#174462"/>
<g id="Group_20">
<g id="Group_21">
<g id="Group_22">
<path id="Vector_47" d="M176.918 85.7319H135.07V115.871H176.918V85.7319Z" fill="#DDDDDD"/>
<path id="Vector_48" d="M176.859 85.7319H135.07V88.1304H176.859V85.7319Z" fill="#7A869A"/>
</g>
<path id="Vector_49" opacity="0.03" d="M176.828 93.3103V93.2168H171.692V88.177H171.598V93.2168H165.44V88.177H165.347V93.2168H159.189V88.177H159.095V93.2168H152.937V88.177H152.844V93.2168H146.686V88.177H146.592V93.2168H140.434V88.177H140.341V93.2168H135.21V93.3103H140.341V99.0043H135.21V99.0977H140.341V104.792H135.21V104.885H140.341V110.579H135.21V110.673H140.341V115.971H140.434V110.673H146.592V115.971H146.686V110.673H152.844V115.971H152.937V110.673H159.095V115.971H159.189V110.673H165.347V115.971H165.44V110.673H171.598V115.971H171.692V110.673H176.828V110.579H171.692V104.885H176.828V104.792H171.692V99.0977H176.828V99.0043H171.692V93.3103H176.828ZM165.35 93.3103V99.0043H159.192V93.3103H165.35ZM152.94 99.1008H159.098V104.795H152.94V99.1008ZM152.847 104.795H146.689V99.1008H152.847V104.795ZM159.192 99.1008H165.35V104.795H159.192V99.1008ZM159.098 93.3103V99.0043H152.94V93.3103H159.098ZM152.847 93.3103V99.0043H146.689V93.3103H152.847ZM140.437 93.3103H146.595V99.0043H140.437V93.3103ZM140.437 99.1008H146.595V104.795H140.437V99.1008ZM140.437 110.582V104.888H146.595V110.582H140.437ZM146.689 110.582V104.888H152.847V110.582H146.689ZM152.94 110.582V104.888H159.098V110.582H152.94ZM159.192 110.582V104.888H165.35V110.582H159.192ZM171.598 110.582H165.44V104.888H171.598V110.582ZM171.598 104.795H165.44V99.1008H171.598V104.795ZM171.598 99.0074H165.44V93.3134H171.598V99.0074Z" fill="#576170"/>
</g>
<path id="Vector_50" d="M172.414 91.9958C171.711 91.9958 171.137 92.569 171.137 93.2729C171.137 93.628 171.284 93.9489 171.517 94.1825C170.038 95.4565 168.555 96.7335 167.076 98.0075C166.963 98.1041 166.851 98.2006 166.739 98.2972C166.521 98.1197 166.244 98.0138 165.939 98.0138C165.235 98.0138 164.662 98.5869 164.662 99.2908C164.662 99.7394 164.892 100.135 165.244 100.362C164.92 101.144 164.596 101.923 164.272 102.705C164.135 103.038 163.995 103.371 163.858 103.705C163.765 103.683 163.668 103.67 163.568 103.67C163.098 103.67 162.687 103.926 162.466 104.306C161.036 103.402 159.606 102.499 158.173 101.593C157.114 100.923 156.052 100.253 154.993 99.5836C155.052 99.4372 155.083 99.2784 155.083 99.1102C155.083 98.4062 154.51 97.8331 153.806 97.8331C153.102 97.8331 152.529 98.4062 152.529 99.1102C152.529 99.2005 152.539 99.2877 152.557 99.3718C150.551 100.191 148.545 101.01 146.539 101.829C146.343 101.91 146.147 101.991 145.951 102.069C145.754 101.618 145.303 101.3 144.779 101.3C144.075 101.3 143.502 101.873 143.502 102.577C143.502 102.945 143.658 103.272 143.904 103.505C143.605 103.845 143.309 104.181 143.01 104.521C141.587 106.134 140.166 107.748 138.743 109.364C138.54 109.227 138.294 109.146 138.03 109.146C137.326 109.146 136.752 109.719 136.752 110.423C136.752 111.127 137.326 111.7 138.03 111.7C138.733 111.7 139.307 111.127 139.307 110.423C139.307 110.152 139.219 109.9 139.076 109.691C140.291 108.315 141.506 106.935 142.717 105.558C143.244 104.96 143.77 104.362 144.297 103.764C144.446 103.823 144.608 103.857 144.776 103.857C145.48 103.857 146.053 103.284 146.053 102.58C146.053 102.561 146.053 102.546 146.053 102.53C146.081 102.518 146.113 102.505 146.141 102.496C148.34 101.599 150.536 100.702 152.735 99.8048C152.962 100.16 153.358 100.394 153.809 100.394C154.18 100.394 154.513 100.235 154.744 99.9824C155.706 100.59 156.666 101.197 157.628 101.805C159.189 102.789 160.746 103.776 162.307 104.761C162.297 104.823 162.291 104.885 162.291 104.951C162.291 105.655 162.864 106.228 163.568 106.228C164.272 106.228 164.845 105.655 164.845 104.951C164.845 104.508 164.621 104.119 164.282 103.891C164.746 102.776 165.21 101.661 165.671 100.543C165.758 100.562 165.848 100.571 165.939 100.571C166.643 100.571 167.216 99.9979 167.216 99.294C167.216 99.0603 167.15 98.8392 167.041 98.6523C167.303 98.428 167.565 98.2007 167.826 97.9764C168.948 97.0108 170.069 96.0452 171.19 95.0796C171.433 94.8709 171.673 94.6622 171.916 94.4535C172.069 94.5189 172.237 94.5532 172.411 94.5532C173.115 94.5532 173.688 93.98 173.688 93.2761C173.688 92.5721 173.115 91.999 172.411 91.999L172.414 91.9958Z" fill="#8A49FF"/>
</g>
</g>
<g id="Group_23">
<g id="Group_24">
<g id="Group_25">
<g id="Group_26">
<g id="Group_27">
<g id="Group_28">
<path id="Vector_51" d="M180.454 72.4377L175.445 80.4616L147.032 62.5605L152.04 54.5366L180.454 72.4377Z" fill="#CDD1D9"/>
<path id="Vector_52" d="M190.244 84.0592L190.185 84.1526C188.606 86.6819 185.787 87.7721 183.89 86.5885L162.08 73.2008L167.811 63.5603L189.668 77.3342C191.565 78.5179 191.823 81.5299 190.244 84.0592Z" fill="#253858"/>
</g>
<g id="Vector_53" style="mix-blend-mode:multiply" opacity="0.2">
<path d="M149.019 63.7565L150.395 64.7563L162.845 61.5262L152.473 54.9041L149.019 63.7565Z" fill="#BABBBF"/>
</g>
</g>
<g id="Group_29">
<path id="Vector_54" d="M143.234 20.6125C129.9 12.2865 112.341 16.3483 104.018 29.683C95.6922 43.0177 99.754 60.5761 113.089 68.899C126.423 77.2251 143.982 73.1633 152.305 59.8286C160.631 46.4939 156.569 28.9354 143.234 20.6125ZM148.931 57.7229C141.77 69.195 126.666 72.6867 115.194 65.5257C103.722 58.3646 100.231 43.2606 107.392 31.7886C114.553 20.3166 129.657 16.8248 141.129 23.9859C152.601 31.147 156.093 46.2509 148.931 57.7229Z" fill="#8845FF"/>
<path id="Vector_55" opacity="0.5" d="M145.475 62.0705C155.037 52.5081 155.037 37.0045 145.475 27.4422C135.912 17.8798 120.409 17.8798 110.846 27.4422C101.284 37.0045 101.284 52.5082 110.846 62.0705C120.409 71.6328 135.912 71.6328 145.475 62.0705Z" fill="#FDF2FF"/>
</g>
</g>
<g id="Group_30">
<g id="Group_31" opacity="0.22">
<path id="Vector_56" d="M110.516 43.7717C110.394 35.9659 115.468 28.9014 123 26.7334C130.513 24.5717 138.702 27.8859 142.655 34.6296C143.77 36.5297 146.801 34.9411 145.683 33.0379C141.132 25.2757 132.111 21.2575 123.315 23.1296C114.646 24.9736 108.251 32.4243 107.208 41.1334C107.108 41.9744 107.083 42.8248 107.096 43.672C107.13 45.868 110.55 45.9833 110.516 43.7717Z" fill="white"/>
</g>
<path id="Vector_57" opacity="0.31" d="M147.766 37.9751C148.822 38.6354 149.143 40.0246 148.483 41.0806C147.822 42.1365 146.433 42.4573 145.377 41.797C144.321 41.1366 144 39.7474 144.661 38.6915C145.321 37.6355 146.71 37.3147 147.766 37.9719V37.9751Z" fill="white"/>
</g>
</g>
<path id="Vector_58" d="M162.366 72.8799L167.82 63.7098C168.007 63.3952 167.926 62.9903 167.63 62.7722L167.534 62.7006C167.191 62.4483 166.705 62.5479 166.49 62.9155L161.12 72.151C160.918 72.4968 161.042 72.9391 161.391 73.1354L161.404 73.1416C161.74 73.3285 162.167 73.2132 162.363 72.883L162.366 72.8799Z" fill="#8993A4"/>
<path id="Vector_59" d="M152.046 44.9336C152.025 50.8176 149.888 56.524 146.001 60.9471C142.163 65.3141 136.824 68.1362 131.077 68.9492C125.203 69.7808 119.141 68.2919 114.232 64.9995C109.451 61.7943 105.965 56.8479 104.436 51.3159C102.85 45.5784 103.508 39.3175 106.18 34.0098C108.756 28.8952 113.182 24.7773 118.465 22.5658C123.978 20.2577 130.236 20.1175 135.871 22.0705C141.297 23.9488 145.907 27.8579 148.798 32.8012C150.944 36.4736 152.034 40.688 152.05 44.9305C152.05 45.7715 153.355 45.7715 153.352 44.9305C153.33 39.0341 151.29 33.3557 147.586 28.7768C143.97 24.3039 138.79 21.1766 133.18 19.9649C127.358 18.7096 121.206 19.5849 115.933 22.3291C110.865 24.9674 106.781 29.3873 104.467 34.6016C102.05 40.0495 101.651 46.273 103.277 52.0012C104.85 57.5363 108.364 62.3799 113.017 65.7346C117.799 69.1859 123.776 70.8025 129.644 70.3976C135.463 69.9957 140.995 67.535 145.262 63.5791C150.417 58.7978 153.33 51.942 153.355 44.9336C153.355 44.0926 152.056 44.0926 152.053 44.9336H152.046Z" fill="#F5F5F5"/>
</g>
<path id="Vector_60" d="M186.87 89.4292C187.506 87.7628 188.334 84.975 189.041 82.6451C189.599 80.8011 189.571 78.8263 188.957 77.0009C187.434 72.4813 185.341 67.1206 184.637 65.342C184.488 64.9589 184.167 64.6692 183.771 64.554L179.694 63.3641C178.965 63.1523 178.208 63.5884 178.027 64.3266C177.825 65.1552 177.594 66.0553 177.541 66.0398C177.464 66.018 177.432 65.395 177.407 64.6786L177.006 60.6199C176.993 60.2804 176.76 59.9907 176.433 59.9035C175.962 59.782 175.264 59.6419 174.582 59.5173C173.448 59.3086 172.38 60.1184 172.277 61.2678C172.19 62.2428 172.081 63.2862 171.994 63.7597L171.552 63.5292L171.147 58.8912C171.047 57.7418 170.2 56.7949 169.069 56.5675L168.891 56.5301C167.474 56.2435 166.097 57.1687 165.823 58.589L165.197 61.8409C165.197 61.8409 163.431 75.1538 163.229 76.1007C162.936 77.4869 162.008 78.7297 162.142 80.1096C162.291 81.6514 162.967 83.0843 163.634 84.4922C165.244 87.8843 166.857 91.2764 168.468 94.6684C168.82 96.9703 169.187 102.247 169.717 104.511C175.679 103.309 181.665 102.4 188.3 100.288C188.487 100.228 186.469 90.4665 186.864 89.4261L186.87 89.4292Z" fill="#F5C4AF"/>
<g id="Group_32">
<path id="Vector_61" d="M168.081 113.183L166.705 101.082L190.539 92.2576L194.682 107.01L168.162 114.927L168.081 113.183Z" fill="#F5F5F5"/>
<path id="Vector_62" d="M192.957 100.901C186.481 104.549 170.06 113.682 166.016 114.741L164.805 143.32C164.702 145.721 166.621 147.724 169.025 147.724H201.037C203.737 147.724 205.746 145.223 205.161 142.588L196.259 102.381C195.932 100.904 194.274 100.163 192.957 100.908V100.901Z" fill="#3D68FF"/>
<path id="Vector_63" d="M171.77 106.01C171.577 106.735 170.832 107.168 170.11 106.975C169.384 106.782 168.951 106.038 169.144 105.315C169.337 104.592 170.082 104.156 170.804 104.349C171.53 104.543 171.963 105.287 171.77 106.01Z" fill="#242448"/>
</g>
<path id="Vector_64" d="M160.774 80.555L157.594 75.5401L152.993 71.254C152.993 71.254 152.099 68.6718 154.984 68.6002C157.868 68.5286 159.809 70.9394 161.086 72.852C161.646 73.693 164.359 76.1444 166.465 77.6426C169.219 79.6019 166.34 88.2331 166.34 88.2331C166.34 88.2331 161.092 81.0316 160.774 80.5519V80.555Z" fill="#F5C4AF"/>
</g>
</g>
</g>
</g>
<defs>
<linearGradient id="paint0_linear_11765_2527" x1="8.51953" y1="71.6153" x2="53.1212" y2="71.6153" gradientUnits="userSpaceOnUse">
<stop stop-color="#4A94FF"/>
<stop offset="1" stop-color="#C86FFF"/>
</linearGradient>
</defs>
</svg>
