<?xml version="1.0" encoding="UTF-8"?>
<svg width="161px" height="161px" viewBox="0 0 161 161" version="1.1" xmlns="http://www.w3.org/2000/svg" xmlns:xlink="http://www.w3.org/1999/xlink">
    <defs>
        <linearGradient x1="0%" y1="0%" x2="99.1156684%" y2="100%" id="linearGradient-1">
            <stop stop-color="#388AFF" offset="0%"></stop>
            <stop stop-color="#985FFF" offset="100%"></stop>
        </linearGradient>
    </defs>
    <g id="Elements" stroke="none" stroke-width="1" fill="none" fill-rule="evenodd">
        <g id="Icons" transform="translate(-654.000000, -577.000000)" fill-rule="nonzero">
            <g id="icn-algo" transform="translate(654.281250, 577.781250)">
                <path d="M159.923129,79.9615644 C159.923129,124.123149 124.123149,159.923129 79.9615644,159.923129 C35.7999793,159.923129 0,124.123149 0,79.9615644 C0,35.7999793 35.7999793,0 79.9615644,0 C124.123149,0 159.923129,35.7999793 159.923129,79.9615644 Z" id="Shape" fill="url(#linearGradient-1)"></path>
                <g id="Group" transform="translate(0.000000, 27.862958)">
                    <path d="M138.058639,91.4546887 C138.058639,94.9049053 135.261858,97.701686 131.811641,97.701686 L14.2771998,97.701686 C5.27933735,84.7660288 0,69.0501456 0,52.0986063 C0,32.313429 7.1896691,14.2096311 19.093947,0.248529344 L131.811641,0.248529344 C135.261858,0.248529344 138.058639,3.04531 138.058639,6.49552656 L138.058639,91.4546887 Z" id="Shape" fill="#1E233C"></path>
                    <path d="M67.46757,4.93377726 C67.46757,6.65888554 66.0691796,8.05727587 64.3440714,8.05727587 C62.6189631,8.05727587 61.2205727,6.65888554 61.2205727,4.93377726 C61.2205727,3.20866898 62.6189631,1.81027865 64.3440714,1.81027865 C66.0691796,1.81027865 67.46757,3.20866898 67.46757,4.93377726 Z" id="Shape" fill="#6D7D99"></path>
                    <path d="M65.9058207,4.93377726 C65.9058207,5.79617522 65.2064693,6.49552656 64.3440714,6.49552656 C63.4816734,6.49552656 62.782322,5.79617522 62.782322,4.93377726 C62.782322,4.07137929 63.4816734,3.37202795 64.3440714,3.37202795 C65.2064693,3.37202795 65.9058207,4.07137929 65.9058207,4.93377726 Z" id="Shape" fill="#41465F"></path>
                    <path d="M11.8208805,93.9534876 L145.242685,93.9534876 C146.105083,93.9534876 146.804435,94.652839 146.804435,95.5152369 C146.804435,95.68047 146.799125,95.844766 146.791941,96.008125 C144.469619,99.5358043 141.878677,102.870764 139.042541,105.978645 C138.03896,106.282561 136.974785,106.44717 135.87219,106.44717 L21.3166286,106.44717 C17.7611501,102.612763 14.576431,98.4297735 11.8208805,93.9534876 Z" id="Shape" fill="#D2D2D7"></path>
                    <path d="M90.1526033,93.9534876 C88.3978218,97.6467124 84.6346307,100.200485 80.2739143,100.200485 L48.4142284,100.200485 C44.053512,100.200485 40.2903209,97.6467124 38.5355394,93.9534876 L90.1526033,93.9534876 Z" id="Shape" fill="#A0A0A5"></path>
                    <path d="M131.811641,11.8054742 L131.811641,86.7694408 C131.811641,87.6318388 131.11229,88.3311901 130.249892,88.3311901 L8.66333574,88.3311901 C3.12443566,77.4539186 0,65.1413994 0,52.0986063 C0,36.7528576 4.32635792,22.4188101 11.8208805,10.2437249 L130.249892,10.2437249 C131.11229,10.2437249 131.811641,10.9427639 131.811641,11.8054742 Z" id="Shape" fill="#D2FAE6"></path>
                    <path d="M39.6337615,29.4963456 C39.7240306,30.2184985 39.1608638,30.8566293 38.4330886,30.8566293 L30.2838808,30.8566293 C29.5561056,30.8566293 28.9929388,30.2188108 29.0832079,29.4963456 L29.8581479,23.2958885 C30.0096376,22.0849081 31.0391427,21.17597 32.2594936,21.17597 L36.4571634,21.17597 C37.6778267,21.17597 38.7073318,22.0849081 38.8585091,23.2958885 L39.6337615,29.4963456 Z M38.4330886,67.7182858 L30.2838808,67.7182858 C29.5561056,67.7182858 28.9929388,68.3561042 29.0832079,69.0785694 L29.8581479,75.2790265 C30.0096376,76.4900069 31.0391427,77.398945 32.2594936,77.398945 L36.4571634,77.398945 C37.6778267,77.398945 38.7073318,76.4900069 38.8585091,75.2790265 L39.6334492,69.0785694 C39.7240306,68.3564165 39.1608638,67.7182858 38.4330886,67.7182858 Z M24.0943559,31.5628523 L19.1620393,27.7265713 C18.1987523,26.977244 16.8278488,27.0628279 15.9648261,27.9258505 L12.9965654,30.8937989 C12.1335427,31.7568216 12.0482712,33.1274128 12.7975985,34.0906997 L16.6338795,39.0233287 C17.0808521,39.5977401 17.9301314,39.6508396 18.4445716,39.136087 L24.2071142,33.3735444 C24.7215544,32.8587919 24.6687673,32.009825 24.0943559,31.5628523 Z M52.0830899,59.5515863 C51.6361173,58.9771749 50.786838,58.9240754 50.2723978,59.438828 L44.5101675,65.2010582 C43.995415,65.7154984 44.0485144,66.5650901 44.6229258,67.0117504 L49.5552425,70.8480314 C50.5185295,71.5973587 51.889433,71.5117748 52.7524557,70.6487521 L55.7207164,67.6808038 C56.5837391,66.8177811 56.6690106,65.4471899 55.9196833,64.4839029 L52.0830899,59.5515863 Z M15.9276565,53.3620614 L15.9276565,45.2128536 C15.9276565,44.4850784 15.289838,43.9219116 14.5673728,44.0121807 L8.36691572,44.7871207 C7.15593531,44.9386104 6.24699722,45.9681155 6.24699722,47.1887788 L6.24699722,51.3861362 C6.24699722,52.6067995 7.15593531,53.6363046 8.36691572,53.787482 L14.5673728,54.562422 C15.2895257,54.6530034 15.9276565,54.0898366 15.9276565,53.3620614 Z M60.3500537,44.7871207 L54.1495966,44.0121807 C53.4274437,43.9219116 52.7893129,44.4850784 52.7893129,45.2128536 L52.7893129,53.3620614 C52.7893129,54.0898366 53.4271314,54.6530034 54.1495966,54.5627343 L60.3500537,53.7877943 C61.5610341,53.6363046 62.4699722,52.6067995 62.4699722,51.3864486 L62.4699722,47.1890911 C62.4699722,45.9681155 61.5610341,44.9386104 60.3500537,44.7871207 Z M18.4445716,59.438828 C17.9298191,58.9240754 17.0805398,58.9768625 16.6338795,59.5515863 L12.7975985,64.4842153 C12.0482712,65.4475023 12.1335427,66.8180935 12.9965654,67.6811161 L15.9648261,70.6490645 C16.8278488,71.5120872 18.1984399,71.597671 19.1620393,70.8483437 L24.0943559,67.0120627 C24.6687673,66.5650901 24.7218668,65.7158108 24.2071142,65.2013706 L18.4445716,59.438828 Z M50.2723978,39.136087 C50.7871503,39.6508396 51.6364296,39.5980525 52.0830899,39.0233287 L55.9193709,34.0906997 C56.6686982,33.1274128 56.5834267,31.7565092 55.720404,30.8937989 L52.7521433,27.9258505 C51.8891206,27.0628279 50.5185295,26.977244 49.5549301,27.7265713 L44.6226135,31.5628523 C44.0482021,32.009825 43.9951026,32.8587919 44.5098552,33.3735444 L50.2723978,39.136087 Z" id="Shape" fill="#147D73"></path>
                    <path d="M121.816446,23.6747689 L121.816446,26.7982675 C121.816446,27.6606655 121.117094,28.3600168 120.254696,28.3600168 L73.4022173,28.3600168 C72.5398194,28.3600168 71.840468,27.6606655 71.840468,26.7982675 L71.840468,23.6747689 C71.840468,22.8123709 72.5398194,22.1130196 73.4022173,22.1130196 L120.254696,22.1130196 C121.117094,22.1130196 121.816446,22.8123709 121.816446,23.6747689 Z M120.254696,36.1687633 L73.4022173,36.1687633 C72.5398194,36.1687633 71.840468,36.8681147 71.840468,37.7305127 L71.840468,40.8540113 C71.840468,41.7164092 72.5398194,42.4157606 73.4022173,42.4157606 L120.254696,42.4157606 C121.117094,42.4157606 121.816446,41.7164092 121.816446,40.8540113 L121.816446,37.7305127 C121.816446,36.8681147 121.117094,36.1687633 120.254696,36.1687633 Z M120.254696,48.6627578 L73.4022173,48.6627578 C72.5398194,48.6627578 71.840468,49.3621091 71.840468,50.2245071 L71.840468,53.3480057 C71.840468,54.2104037 72.5398194,54.909755 73.4022173,54.909755 L120.254696,54.909755 C121.117094,54.909755 121.816446,54.2104037 121.816446,53.3480057 L121.816446,50.2245071 C121.816446,49.3621091 121.117094,48.6627578 120.254696,48.6627578 Z" id="Shape" fill="#96E1BE"></path>
                    <path d="M34.3584847,26.7982675 C21.9378925,26.7982675 11.8692947,36.8668653 11.8692947,49.2874575 C11.8692947,61.7080497 21.9378925,71.7766475 34.3584847,71.7766475 C46.7787646,71.7766475 56.8476747,61.7080497 56.8476747,49.2874575 C56.8476747,36.8668653 46.7787646,26.7982675 34.3584847,26.7982675 Z M34.3584847,56.8941137 C30.1573791,56.8941137 26.7518285,53.4885631 26.7518285,49.2874575 C26.7518285,45.0863519 30.1573791,41.6808013 34.3584847,41.6808013 C38.5595903,41.6808013 41.9651409,45.0863519 41.9651409,49.2874575 C41.9651409,53.4885631 38.5595903,56.8941137 34.3584847,56.8941137 Z M121.816446,64.2802508 L121.816446,73.6507467 C121.816446,74.5131446 121.117094,75.212496 120.254696,75.212496 L73.4022173,75.212496 C72.5398194,75.212496 71.840468,74.5131446 71.840468,73.6507467 L71.840468,64.2802508 C71.840468,63.4178529 72.5398194,62.7185015 73.4022173,62.7185015 L120.254696,62.7185015 C121.117094,62.7185015 121.816446,63.4178529 121.816446,64.2802508 Z" id="Shape" fill="#3CAF96"></path>
                    <path d="M51.8869342,49.2874575 C51.8869342,58.9681167 44.0391439,66.815907 34.3584847,66.815907 C24.6778255,66.815907 16.8300352,58.9681167 16.8300352,49.2874575 C16.8300352,39.6067983 24.6778255,31.759008 34.3584847,31.759008 C44.0391439,31.759008 51.8869342,39.6067983 51.8869342,49.2874575 Z M41.9651409,49.2874575 C41.9651409,45.0863519 38.5595903,41.6808013 34.3584847,41.6808013 C30.1573791,41.6808013 26.7518285,45.0863519 26.7518285,49.2874575 C26.7518285,53.4885631 30.1573791,56.8941137 34.3584847,56.8941137 C38.5595903,56.8941137 41.9651409,53.4885631 41.9651409,49.2874575 Z M85.8962118,29.9217661 L89.0197104,29.9217661 C89.8821083,29.9217661 90.5814597,29.2224148 90.5814597,28.3600168 L90.5814597,22.1130196 C90.5814597,21.2506216 89.8821083,20.5512703 89.0197104,20.5512703 L85.8962118,20.5512703 C85.0338138,20.5512703 84.3344624,21.2506216 84.3344624,22.1130196 L84.3344624,28.3600168 C84.3344624,29.2224148 85.0338138,29.9217661 85.8962118,29.9217661 Z M84.3344624,48.6627578 C84.3344624,47.8003598 83.6351111,47.1010085 82.7727131,47.1010085 L79.6492145,47.1010085 C78.7868166,47.1010085 78.0874652,47.8003598 78.0874652,48.6627578 L78.0874652,54.909755 C78.0874652,55.772153 78.7868166,56.4715043 79.6492145,56.4715043 L82.7727131,56.4715043 C83.6351111,56.4715043 84.3344624,55.772153 84.3344624,54.909755 L84.3344624,48.6627578 Z M107.760702,34.607014 L104.637203,34.607014 C103.774805,34.607014 103.075454,35.3063654 103.075454,36.1687633 L103.075454,42.4157606 C103.075454,43.2781585 103.774805,43.9775099 104.637203,43.9775099 L107.760702,43.9775099 C108.6231,43.9775099 109.322451,43.2781585 109.322451,42.4157606 L109.322451,36.1687633 C109.322451,35.3063654 108.6231,34.607014 107.760702,34.607014 Z M108.697752,67.4037494 L84.9591622,67.4037494 C84.6140156,67.4037494 84.3344624,67.6836149 84.3344624,68.0284492 L84.3344624,69.9025483 C84.3344624,70.2473826 84.6140156,70.5272481 84.9591622,70.5272481 L108.697752,70.5272481 C109.042898,70.5272481 109.322451,70.2473826 109.322451,69.9025483 L109.322451,68.0284492 C109.322451,67.6836149 109.042898,67.4037494 108.697752,67.4037494 Z" id="Shape" fill="#147D73"></path>
                </g>
            </g>
        </g>
    </g>
</svg>
