<svg width="132px" height="148px" viewBox="0 0 132 148" xmlns="http://www.w3.org/2000/svg" xmlns:xlink="http://www.w3.org/1999/xlink">
  <defs>
    <linearGradient x1="10.1009831%" y1="0%" x2="89.1933377%" y2="100%" id="bluePurpleGradient">
      <stop stop-color="#388AFF" offset="0%"/>
      <stop stop-color="#985FFF" offset="100%"/>
    </linearGradient>
  </defs>
  <g stroke-width="1" fill="none">
    <g transform="translate(-989.000000, -175.000000)" stroke="url(#bluePurpleGradient)" stroke-width="5">
      <g transform="translate(991.500000, 177.250488)">
        <path d="M57.5409566,2.50726467 L6.31008495,32.6430715 C2.58330187,34.1607279 0.282923578,38.1233235 0.282923578,41.6838136 L0.282923578,101.955427 C0.282923578,105.515917 2.58330187,109.478513 6.31008495,110.996169 L57.5409566,141.131976 C61.2677396,143.17481 65.8684962,143.17481 69.5952793,141.131976 L120.826151,110.996169 C124.552934,109.478513 126.853312,105.515917 126.853312,101.955427 L126.853312,41.6838136 C126.853312,38.1233235 124.552934,34.1607279 120.826151,32.6430715 L69.5952793,2.50726467 C65.8684962,0.464431019 61.2677396,0.464431019 57.5409566,2.50726467 Z">
        </path>
      </g>
    </g>
  </g>
</svg>
