<svg xmlns="http://www.w3.org/2000/svg" width="63" height="80" viewBox="0 0 63 80">
    <g fill="#3D68FF" fill-rule="evenodd">
        <path d="M56.882 14.67H46.208V4.404A4.244 4.244 0 0 0 41.974.16c-.501 0-.996.09-1.473.265L1.75 14.775c-.008.003-.013.01-.021.013a1.671 1.671 0 0 0-.452.265c-.024.02-.048.038-.071.06a1.726 1.726 0 0 0-.538.949c-.003.02-.003.041-.006.06-.012.084-.025.169-.025.256v61.754c0 .943.764 1.708 1.705 1.708h54.539c2.988 0 5.42-2.435 5.42-5.428V20.097c-.001-2.993-2.433-5.428-5.42-5.428zM41.685 3.63c.489-.183 1.11.14 1.11.775v10.264H11.877L41.685 3.63zM58.89 74.412c0 1.11-.9 2.011-2.008 2.011H4.05V18.086h52.832c1.107 0 2.008.902 2.008 2.011v54.315z"/>
        <path d="M45.08 66.576H17.86a1.707 1.707 0 0 0 0 3.416h27.218c.942 0 1.706-.765 1.706-1.708s-.763-1.708-1.704-1.708zM17.86 34.235h27.218c.942 0 1.706-.765 1.706-1.708v-6.302c0-.943-.764-1.709-1.706-1.709H17.86c-.942 0-1.705.765-1.705 1.71v6.301c0 .943.763 1.708 1.705 1.708zm1.707-6.302h23.807v2.884H19.567v-2.884zM54.587 42.024h-16.57a10.386 10.386 0 0 0-6.547-2.32c-2.477 0-4.754.872-6.546 2.32H8.35c-.941 0-1.705.765-1.705 1.708v.801a7.695 7.695 0 0 0 6.58 7.609c.703 3.517 3.81 6.176 7.527 6.176h4.172a10.384 10.384 0 0 0 6.547 2.32c2.477 0 4.753-.872 6.546-2.32h4.173c3.687 0 6.776-2.617 7.51-6.174a7.695 7.695 0 0 0 6.594-7.61v-.8a1.71 1.71 0 0 0-1.708-1.71zm-44.433 3.417h11.995c-.031.063-.054.131-.084.195a10.282 10.282 0 0 0-.699 1.91c-.025.099-.053.196-.076.296a9.999 9.999 0 0 0-.157.882c-.004.028-.011.055-.015.083h-6.795a4.28 4.28 0 0 1-4.17-3.366zm10.598 9.46c-1.771 0-3.291-1.088-3.935-2.68h4.407c.019.094.044.185.065.278.023.103.052.204.079.306a10.302 10.302 0 0 0 .694 1.892c.033.067.056.138.089.205h-1.4zm5.832.335a8.317 8.317 0 0 1-.474-.505 7.574 7.574 0 0 1-.23-.291c-.064-.084-.129-.166-.189-.252a6.808 6.808 0 0 1-.247-.39c-.039-.063-.08-.126-.117-.192a7.137 7.137 0 0 1-.264-.527c-.015-.032-.032-.063-.046-.095a7.042 7.042 0 0 1-.588-2.813c0-.976.205-1.935.589-2.815.012-.028.027-.054.039-.08.082-.185.172-.366.27-.541.035-.061.073-.12.11-.179.082-.137.166-.272.256-.403.057-.081.119-.16.18-.24.078-.102.157-.205.24-.303.075-.089.155-.174.235-.26.079-.083.158-.167.241-.247a7.003 7.003 0 0 1 10.01.257c.076.081.151.161.224.246.086.102.167.207.247.313.058.077.118.153.174.233.092.132.175.267.258.406.036.059.073.117.107.178.098.176.187.355.269.538l.041.085c.384.88.59 1.839.59 2.814 0 .084-.01.165-.014.249 0 .031-.01.062-.01.093l.003.03a7.047 7.047 0 0 1-.569 2.44c-.014.034-.032.066-.047.099a7.045 7.045 0 0 1-.263.523c-.036.066-.077.128-.116.192-.08.132-.16.264-.248.391-.058.084-.122.165-.184.246-.076.101-.154.203-.236.3-.075.088-.155.173-.235.258-.08.085-.16.17-.245.252a7.003 7.003 0 0 1-4.877 1.978 7.011 7.011 0 0 1-4.884-1.988zm15.604-.334H40.79c.034-.067.057-.137.089-.205a10.085 10.085 0 0 0 .694-1.892c.027-.102.055-.203.079-.306.022-.093.047-.184.065-.278h4.423a4.27 4.27 0 0 1-3.952 2.68zm6.43-6.097h-6.795c-.004-.03-.013-.06-.016-.089a10.38 10.38 0 0 0-.156-.874c-.023-.101-.052-.202-.079-.304a11.064 11.064 0 0 0-.358-1.122 10.374 10.374 0 0 0-.34-.78c-.03-.064-.052-.132-.084-.195h11.995a4.273 4.273 0 0 1-4.167 3.364z"/>
    </g>
</svg>
