<svg xmlns="http://www.w3.org/2000/svg" width="74" height="56" viewBox="0 0 74 56">
    <path fill="#3D68FF" fill-rule="evenodd" d="M13.756 44.123C13.756 50.893 23.718 56 37 56s23.244-5.107 23.244-11.877v-18.29l9.961-4.633V47.45c0 1.068.83 1.9 1.898 1.9a1.875 1.875 0 0 0 1.897-1.9V17.756c-.237-.594-.593-.95-1.186-1.188L37.83.178a1.757 1.757 0 0 0-1.542 0L1.068 16.45C.355 16.806 0 17.4 0 18.112c0 .713.474 1.426 1.067 1.663l12.57 5.82v18.528h.12zM37 3.979L67.596 18.23 37 32.484 6.404 18.23 37 3.98zM17.551 44.123V27.495l18.619 8.79c.237.118.474.118.83.118s.593 0 .83-.119l18.737-8.67v16.628c0 3.8-8.064 8.076-19.448 8.076-11.385 0-19.568-4.394-19.568-8.195z"/>
</svg>
