<svg xmlns="http://www.w3.org/2000/svg" width="80" height="70" viewBox="0 0 80 70">
    <path fill="#3D68FF" fill-rule="evenodd" d="M55.238 5.312A5.314 5.314 0 0 0 49.905 0h-19.81a5.314 5.314 0 0 0-5.333 5.312v7.493H0V70h80V12.805H55.238V5.312zm-26.952 0c0-1.044.857-1.897 1.904-1.897h19.715c1.047 0 1.905.853 1.905 1.897v7.493H28.286V5.312zm48.19 61.179H3.524V31.3C10.667 34.43 31.334 43.157 40 43.157c8.667 0 29.333-8.726 36.476-11.856v35.19zm0-50.177v11.098C71.43 29.783 48.571 39.648 40 39.648c-8.571 0-31.429-9.96-36.476-12.236V16.314h72.952z"/>
</svg>
