<?xml version="1.0" encoding="UTF-8"?>
<svg width="13px" height="20px" viewBox="0 0 13 20" version="1.1" xmlns="http://www.w3.org/2000/svg" xmlns:xlink="http://www.w3.org/1999/xlink">
    <!-- Generator: sketchtool 49.3 (51167) - http://www.bohemiancoding.com/sketch -->
    <title>5BF656F3-A5BD-425C-A71C-4364CE57CE77</title>
    <desc>Created with sketchtool.</desc>
    <defs></defs>
    <g id="↳-CERTIFICATION-Profil" stroke="none" stroke-width="1" fill="none" fill-rule="evenodd">
        <g id="Certif--home" transform="translate(-380.000000, -268.000000)" fill="#AAAAAA" fill-rule="nonzero">
            <g id="Group-11" transform="translate(168.000000, 156.000000)">
                <path d="M212.125,112 L224.125,112 L224.125,118 L220.125,122 L224.125,126 L224.125,132 L212.125,132 L212.125,126 L216.125,122 L212.125,118 L212.125,112 Z M222.125,126.5 L218.125,122.5 L214.125,126.5 L214.125,130 L222.125,130 L222.125,126.5 Z M218.125,121.5 L222.125,117.5 L222.125,114 L214.125,114 L214.125,117.5 L218.125,121.5 Z M216.125,116 L220.125,116 L220.125,116.75 L218.125,118.75 L216.125,116.75 L216.125,116 Z" id="sablier"></path>
            </g>
        </g>
    </g>
</svg>