<svg xmlns="http://www.w3.org/2000/svg" width="302" height="155" fill="none"><g clip-path="url(#a)"><path fill="#CEC3F4" d="M0 0h302v155H0z"/><path fill="#fff" stroke="#fff" stroke-miterlimit="10" stroke-width="1.574" d="M237.205 102.103c-4.129 5.944-10.214 11.277-18.084 15.851-7.872 4.575-17.059 8.117-27.307 10.528-9.899 2.327-20.365 3.508-31.111 3.508-10.744.001-21.224-1.18-31.149-3.508-10.275-2.412-19.502-5.953-27.424-10.526-7.924-4.574-14.068-9.908-18.263-15.852-4.052-5.742-6.125-11.808-6.16-18.032-.032-6.224 1.97-12.29 5.956-18.032 4.128-5.944 10.214-11.277 18.085-15.852 7.871-4.574 17.057-8.116 27.306-10.526 9.899-2.328 20.367-3.508 31.11-3.509 10.745 0 21.224 1.18 31.15 3.509 10.275 2.41 19.502 5.952 27.426 10.526 7.923 4.575 14.066 9.907 18.261 15.851 4.051 5.742 6.125 11.808 6.159 18.031.035 6.225-1.969 12.29-5.955 18.033ZM102.29 117.862c32.271 18.632 84.61 18.632 116.672-.001 32.061-18.632 31.889-48.948-.381-67.58-32.272-18.632-84.611-18.632-116.672 0s-31.891 48.95.381 67.581Z"/><path fill="#fff" stroke="#fff" stroke-miterlimit="10" stroke-width="1.623" d="M239.635 102.674c-4.259 6.132-10.537 11.634-18.657 16.352-8.119 4.719-17.598 8.373-28.17 10.861-10.213 2.401-21.01 3.618-32.096 3.619-11.084.001-21.896-1.217-32.135-3.619-10.6-2.488-20.119-6.141-28.293-10.859-8.174-4.719-14.512-10.222-18.84-16.354-4.18-5.923-6.318-12.181-6.355-18.602-.033-6.421 2.032-12.68 6.145-18.603 4.258-6.132 10.537-11.635 18.656-16.353 8.12-4.719 17.598-8.373 28.17-10.86 10.213-2.402 21.012-3.62 32.096-3.62s21.896 1.217 32.135 3.62c10.601 2.487 20.12 6.14 28.294 10.86 8.173 4.718 14.511 10.22 18.84 16.352 4.179 5.923 6.317 12.182 6.352 18.602.038 6.422-2.03 12.68-6.142 18.604Zm-139.186 16.258c33.292 19.221 87.288 19.222 120.364 0s32.9-50.5-.392-69.72c-33.294-19.223-87.29-19.222-120.366 0s-32.9 50.498.394 69.72Z"/><path fill="#fff" stroke="#fff" stroke-miterlimit="10" stroke-width="1.623" d="M194.676 84.072c.03 5.298-3.503 10.279-9.949 14.026-6.447 3.746-15.035 5.809-24.182 5.809s-17.757-2.063-24.245-5.81-10.079-8.727-10.108-14.024c-.031-5.298 3.504-10.28 9.949-14.026 6.448-3.747 15.035-5.809 24.182-5.809s17.758 2.063 24.246 5.81c6.488 3.745 10.078 8.727 10.107 14.024Zm-58.212 13.931c13.304 7.681 34.88 7.681 48.097 0 13.217-7.68 13.147-20.178-.157-27.86-13.305-7.68-34.881-7.68-48.098 0s-13.146 20.178.158 27.86Z"/><path fill="#F6F6F6" d="M171.475 92.997c-.011.035-.044.047-.069.066q-.665.486-1.37.91a18.53 18.53 0 0 1-9.819 2.659 15 15 0 0 1-1.082-.044c-.196-.016-.393-.026-.589-.047-.245-.026-.489-.06-.733-.09q-.449-.06-.893-.146a18.517 18.517 0 0 1-8.935-4.437 18.58 18.58 0 0 1-6.191-13.92q0-.522.029-1.043.036-.6.109-1.197a18.5 18.5 0 0 1 2.74-7.67q.032-.048.066-.096-.006.054-.014.108a.7.7 0 0 0-.004.176c.008.06.026.118.086.147.041.02.047.047.041.088-.047.348-.09.696-.138 1.044a1 1 0 0 0 .019.361c.044.19.137.355.258.505.147.183.326.332.522.462q.338.223.713.374l.101.04c.04.017.045.027.042.067l-.006.039q-.038.292-.08.585c-.01.065.003.11.056.155.156.13.306.269.461.402.049.042.079.09.095.154.08.329.165.656.246.985a.23.23 0 0 0 .087.135q.224.17.445.343.085.068.179.122.188.107.263.308a.9.9 0 0 1 .057.269q.011.236-.04.47c-.056.259-.145.504-.304.72q-.126.176-.25.353-.233.325-.463.65-.139.2-.251.412a1.1 1.1 0 0 0-.122.353q-.022.13-.037.263a2.76 2.76 0 0 0 .131 1.233.23.23 0 0 1 .011.125c-.049.255-.002.496.113.726q.09.177.209.332.128.164.26.322c.092.11.188.22.272.337.294.415.663.752 1.084 1.035.144.096.131.057.085.223-.063.22-.093.443-.071.672a1.05 1.05 0 0 0 .419.773c.029.018.035.045.03.076l-.008.049-.167 1.25a3 3 0 0 1-.094.481c-.023.069-.036.14-.052.21a2.4 2.4 0 0 0-.066.655c.01.175.039.346.156.489q.023.029.02.063l-.007.069-.055.41c-.026.178-.047.357-.079.535a6 6 0 0 0-.088.624c-.017.22-.013.44.031.657a.9.9 0 0 0 .16.388c.023.03.029.065.035.1l.216 1.522a.4.4 0 0 0 .053.156c.153.26.316.515.498.757.178.237.371.46.588.662.178.167.37.315.583.435.12.068.246.124.38.16q.044.01.087.014c.018.002.031-.012.029-.03l-.012-.079-.125-.678q-.124-.678-.251-1.355a.24.24 0 0 1 .019-.152l.538-1.184a.4.4 0 0 1 .078-.112q.33-.318.656-.639a1 1 0 0 1 .123-.099l1.26-.845a.4.4 0 0 0 .124-.123q.25-.377.501-.755c.094-.143.186-.287.265-.439a1 1 0 0 1 .085-.132l.448-.575q.144-.18.283-.366a.18.18 0 0 1 .129-.079q.014-.001.029-.006a5 5 0 0 0 .607-.166c.261-.09.513-.201.749-.346a.5.5 0 0 0 .157-.147q.364-.51.732-1.014a1 1 0 0 0 .12-.224q.261-.697.52-1.394a.4.4 0 0 1 .159-.201c.65-.447.933-1.079.929-1.854a.35.35 0 0 0-.091-.231 3.4 3.4 0 0 0-.796-.684 4.7 4.7 0 0 0-1.34-.559 3 3 0 0 0-.385-.079c-.048-.007-.078-.028-.095-.073q-.013-.031-.029-.062a5 5 0 0 0-.251-.47 2.7 2.7 0 0 0-.479-.61.17.17 0 0 1-.05-.093 3.382 3.382 0 0 0-1.076-1.696 4.6 4.6 0 0 0-1.577-.89.23.23 0 0 1-.13-.095 2 2 0 0 0-.359-.39 2.4 2.4 0 0 0-1.023-.507 1 1 0 0 1-.231-.08q-.379-.189-.76-.374a.4.4 0 0 1-.111-.08 1 1 0 0 0-.172-.147.7.7 0 0 0-.25-.113.5.5 0 0 0-.559.249 1.5 1.5 0 0 1-.189.275.9.9 0 0 1-.312.236.87.87 0 0 1-.578.042 1.6 1.6 0 0 1-.54-.255 1 1 0 0 0-.099-.064.96.96 0 0 1-.531-.842 6 6 0 0 1 .028-.886l.031-.283c.003-.033-.007-.056-.039-.072a2 2 0 0 1-.137-.078.6.6 0 0 1-.148-.128.274.274 0 0 1-.029-.33.45.45 0 0 1 .153-.163q.1-.065.196-.132.13-.09.236-.207a.7.7 0 0 0 .12-.18.32.32 0 0 0-.059-.365.7.7 0 0 0-.204-.152.14.14 0 0 0-.122-.012 2 2 0 0 1-.297.072 1.2 1.2 0 0 1-.421.01.56.56 0 0 1-.456-.386 1.223 1.223 0 0 1-.052-.438q.015-.257.081-.505c.09-.33.064-.282.269-.538a3.13 3.13 0 0 1 1.61-1.08c.26-.074.523-.126.796-.089.183.026.363.057.537.12.13.048.254.11.362.196a.8.8 0 0 1 .31.55c.026.234.091.458.182.674a1 1 0 0 0 .108.198q.045.065.109.114a.3.3 0 0 0 .126.053.23.23 0 0 0 .167-.044c.037-.026.035-.07.041-.107q.14-.885.277-1.771c.019-.123.017-.112.124-.147a6 6 0 0 0 1.937-1.07l.038-.032c.02-.016.04-.02.062-.003.109.088.232.096.364.075a1.6 1.6 0 0 0 .33-.096 3 3 0 0 0 .482-.246.5.5 0 0 1 .134-.06q.45-.13.897-.262a.4.4 0 0 1 .146-.015q.117.014.236.02c.187.007.374.004.56-.02q.265-.032.519-.11a.2.2 0 0 0 .131-.108 1.1 1.1 0 0 1 .175-.26.7.7 0 0 1 .141-.122.37.37 0 0 1 .392-.017q.084.045.149.112.036.04.084.067.109.059.227.095c.102.03.206.04.312.02a.6.6 0 0 0 .336-.21c.073-.086.127-.183.172-.285.131-.306.184-.629.21-.958.005-.062-.009-.07-.068-.044-.073.03-.146.06-.223.077-.032.007-.065.012-.098.007-.052-.009-.082-.043-.079-.096q.002-.04.015-.076a.7.7 0 0 1 .075-.16q.059-.097.121-.192.08-.119.139-.249a.5.5 0 0 0 .048-.2.29.29 0 0 0-.083-.213 1 1 0 0 0-.122-.101l-.177-.125a.8.8 0 0 1-.23-.254 1 1 0 0 0-.062-.088.32.32 0 0 0-.288-.12.5.5 0 0 0-.153.037.9.9 0 0 0-.3.203q-.061.065-.124.126a1 1 0 0 1-.274.19.45.45 0 0 1-.391-.002q-.052-.027-.105-.054-.035-.02-.071-.034-.087-.031-.136.045a.3.3 0 0 0-.04.08.9.9 0 0 1-.272.392 2.5 2.5 0 0 1-.833.476c-.191.07-.382-.025-.458-.215a1 1 0 0 1-.04-.141 1.3 1.3 0 0 1-.017-.295c.013-.17.036-.34.078-.505.03-.12.015-.101.117-.168l.678-.439a1 1 0 0 0 .154-.121q.135-.136.295-.246a.8.8 0 0 1 .228-.116c.101-.032.193 0 .241.094.049.096.135.14.239.152q.129.013.254-.013.17-.035.328-.102c.033-.014.066-.03.104-.03l.59-.019q.05-.002.092.027c.15.106.3.213.432.343.059.058.111.12.142.199q.004.005.019.014.04-.033.08-.07a10 10 0 0 1 1.034-.865l.039-.03.024-.017q.032-.025.015-.061l-.036-.081q-.157-.339-.317-.678c-.064-.136-.036-.124-.196-.13a17 17 0 0 0-1.448.02 14 14 0 0 0-.873.068c-.082.01-.163.014-.245.021.101-.029.206-.04.309-.055q.355-.051.712-.093c.166-.02.333-.032.499-.048.252-.025.504-.038.757-.049q.266-.011.531-.014.29-.002.58 0c.03 0 .059.005.089.007.02.104.049.206.098.299.049.095.036.176-.001.27-.136.338-.265.678-.399 1.017a.4.4 0 0 0-.029.192c.014.11.024.221.042.331.05.306.131.603.258.886.091.201.204.389.353.554q.166.185.383.305.04.02.079.039.046.024.079-.017l.044-.053q.106-.13.211-.26c.399-.495.806-.985 1.23-1.46a.28.28 0 0 1 .172-.1c.227-.034.453-.077.679-.115a.13.13 0 0 0 .095-.062q.064-.105.13-.208l.68-1.085c.206.042.407.1.609.157a18.5 18.5 0 0 1 5.032 2.282c.027.017.058.03.078.058-.11.024-.222.026-.333.038q-.352.036-.706.067l-.166.016c-.079.008-.086.016-.097.096l-.001.01c-.021.232-.03.465-.017.698.009.181.029.36.072.536.029.118.067.234.123.342a.8.8 0 0 0 .177.235c.036.032.074.05.123.056.175.023.351.05.527.071a.13.13 0 0 1 .108.07q.07.12.142.238.08.13.157.262.03.052.086.057l.03.004.488.065.263.038c.023.003.034.02.033.042q-.006.068-.016.137-.034.25-.069.497a.3.3 0 0 0 .024.182q.09.202.175.407l.027.063a.06.06 0 0 1-.008.066l-.023.032-.461.602a.3.3 0 0 1-.07.068l-.643.403a.13.13 0 0 1-.102.018 1.1 1.1 0 0 0-.392-.005c-.229.031-.448.1-.662.186a1 1 0 0 0-.08.038l-.352.197c-.09.05-.09.051-.041.14l.518.929q.159.282.391.504c.104.098.216.181.344.244a.96.96 0 0 0 .699.07l.123-.035q.345-.086.688-.173c.066-.017.07-.022.076-.085q.02-.206.043-.411c.026-.232.055-.463.1-.692q.016-.082.039-.163a.4.4 0 0 1 .029-.073c.016-.03.045-.03.06-.003a.1.1 0 0 1 .013.027c.01.043.043.062.08.079q.094.042.189.086l.842.385c.069.03.08.03.127-.023a.3.3 0 0 1 .108-.083q.068-.03.116.025a.2.2 0 0 1 .049.095q.037.12.039.242.004.163.003.325c0 .038.003.072.027.103.052.068.111.13.186.174a.35.35 0 0 0 .167.052.35.35 0 0 0 .244-.09.9.9 0 0 0 .157-.176c.025-.035.05-.07.085-.096q.075-.057.139.013.033.037.055.082.036.075.065.155.05.138.097.278.036.104.086.199a.4.4 0 0 0 .079.1.13.13 0 0 0 .138.022.2.2 0 0 0 .087-.061q.052-.06.1-.122c.042-.055.08-.112.123-.166a.6.6 0 0 1 .067-.072c.032-.027.065-.018.079.02q.018.061.03.124c.018.094.039.187.076.275q.114.27.394.36.127.037.261.042c.299.012.556.12.764.336a1.5 1.5 0 0 1 .236.326 2.4 2.4 0 0 1 .254.784q.002.037-.035.034l-.068-.013a3.3 3.3 0 0 0-.496-.07 6 6 0 0 0-.895-.007c-.03.003-.06 0-.089.004a.13.13 0 0 1-.1-.034q-.035-.03-.07-.054-.72-.552-1.436-1.106a.7.7 0 0 0-.207-.11q-.06-.02-.123-.037a3 3 0 0 0-.651-.096 6 6 0 0 0-.542 0 .45.45 0 0 1-.191-.032 3.4 3.4 0 0 0-.956-.221 3.7 3.7 0 0 0-.864.019 2.4 2.4 0 0 0-.376.075l-1.103.335a.3.3 0 0 0-.159.106c-.226.286-.464.562-.703.838a.26.26 0 0 1-.145.088 2.07 2.07 0 0 0-1.262.848 2.4 2.4 0 0 0-.274.533.28.28 0 0 0 .017.264c.054.09.071.189.074.292q.005.174-.018.344c-.027.195-.06.39-.117.578-.188.626-.344 1.261-.425 1.912a4 4 0 0 0-.032.844c.012.138.036.274.085.404a.3.3 0 0 0 .079.123c.309.3.614.603.933.891s.651.562 1.013.797c.224.146.457.273.705.371.31.123.629.183.963.157.285-.023.571-.034.856-.053.232-.016.465-.017.698.007.127.013.253.036.374.081a.57.57 0 0 1 .287.214l.019.023a.24.24 0 0 0 .255.087.8.8 0 0 0 .157-.056c.057-.026.113-.054.171-.076.141-.053.219-.016.263.13q.088.283.099.58c.006.213-.027.419-.09.621-.05.163-.115.321-.177.48a6 6 0 0 0-.196.557 1.7 1.7 0 0 0-.069.496 2 2 0 0 0 .09.532c.049.164.112.322.172.482.046.123.09.246.123.374.061.236.076.473.023.712a1.8 1.8 0 0 1-.257.594 2.6 2.6 0 0 1-.316.39q-.136.14-.272.284a2.3 2.3 0 0 0-.381.537q-.09.18-.175.363a2.4 2.4 0 0 0-.118.313 1.3 1.3 0 0 0-.056.535q.02.16.056.32.09.403.159.811a.8.8 0 0 1-.036.426q-.06.162-.126.32c-.125.293-.267.58-.406.866-.146.301-.293.602-.42.912a3 3 0 0 0-.138.4.7.7 0 0 0-.031.224.31.31 0 0 0 .291.293.6.6 0 0 0 .193-.031 1.3 1.3 0 0 0 .226-.098c.023-.015.046-.037.079-.028m-1.92-26.305c.105-.001.2-.028.291-.065q.156-.066.29-.165.114-.087.225-.176.05-.037.031-.095l-.007-.029a2.6 2.6 0 0 0-.552-1.076 1.4 1.4 0 0 0-.521-.394.5.5 0 0 1-.178-.136l-.13-.16a1 1 0 0 0-.117-.12.2.2 0 0 0-.097-.045.35.35 0 0 0-.289.097.14.14 0 0 0-.034.171c.036.082.059.167.08.253.037.144.044.116-.067.202q-.173.132-.345.264c-.057.043-.057.045-.026.104l.201.36.015.026c.02.03.031.032.067.018l.054-.024.355-.17c.112-.053.104-.049.126.067q.061.318.118.638a.6.6 0 0 0 .154.302.47.47 0 0 0 .356.153m-5.185-3.554c.036.003.049-.004.062-.044q.052-.168.1-.34a.2.2 0 0 1 .08-.118.5.5 0 0 0 .125-.124c.068-.1.068-.194.002-.294a.6.6 0 0 0-.108-.114 1.2 1.2 0 0 0-.226-.14.13.13 0 0 0-.112-.006c-.114.042-.23.08-.343.123q-.346.13-.69.263c-.143.057-.188.211-.106.341a.4.4 0 0 0 .049.062.86.86 0 0 0 .354.225c.264.083.535.131.813.166m-12.782 7.396c.134 0 .233.002.33-.018a.3.3 0 0 0 .119-.044.09.09 0 0 0 .036-.113.16.16 0 0 0-.067-.084.4.4 0 0 0-.126-.054q-.1-.026-.202-.04a8 8 0 0 0-.452-.04.87.87 0 0 1-.508-.189 3 3 0 0 0-.262-.192.5.5 0 0 0-.28-.076c-.039.002-.079 0-.118.004a.6.6 0 0 0-.354.133.9.9 0 0 0-.213.293c-.017.034-.011.052.023.075q.075.048.162.07c.079.024.16.035.241.048.372.062.743.132 1.118.178.196.024.392.045.553.05m1.543.89c.004-.043 0-.055-.031-.064a2 2 0 0 0-.122-.037.6.6 0 0 1-.179-.079q-.131-.086-.265-.169c-.106-.067-.089-.067-.204-.013-.232.108-.459.225-.696.322q-.073.031-.14.072a.4.4 0 0 0-.071.053c-.039.037-.032.071.015.091a.3.3 0 0 0 .096.021q.161.014.324.006.158-.007.314-.007c.242.001.475.048.694.157a1 1 0 0 0 .072.032c.041.014.068.002.09-.037q.008-.012.013-.026c.043-.11.064-.223.09-.322"/><path fill="#fff" d="M157.332 59.616q.123-.009.245-.02a17.077 17.077 0 0 1 2.321-.088c.161.005.132-.007.197.13l.316.677.037.081q.016.036-.016.06l-.023.02-.039.029a10 10 0 0 0-1.034.864q-.04.036-.08.07-.016-.01-.019-.014a.6.6 0 0 0-.143-.199 3.4 3.4 0 0 0-.431-.343.14.14 0 0 0-.092-.027l-.591.018c-.037.001-.07.017-.103.03-.107.044-.215.082-.328.103a.8.8 0 0 1-.255.013c-.104-.013-.189-.055-.239-.152-.048-.094-.139-.126-.241-.093a1 1 0 0 0-.227.115 2 2 0 0 0-.296.246 1 1 0 0 1-.153.121q-.34.219-.678.439c-.103.067-.088.047-.118.168a3 3 0 0 0-.077.506q-.01.148.017.294a.7.7 0 0 0 .039.142c.077.189.267.284.459.214.304-.11.589-.259.833-.476a.9.9 0 0 0 .271-.392.4.4 0 0 1 .04-.08q.05-.075.137-.044.035.013.071.034.052.027.105.053.194.091.391.002a1 1 0 0 0 .273-.19q.064-.061.124-.126a.9.9 0 0 1 .301-.202q.073-.03.153-.037a.33.33 0 0 1 .288.12 1 1 0 0 1 .062.088.8.8 0 0 0 .23.253q.088.064.177.125a1 1 0 0 1 .121.101q.087.089.084.214a.6.6 0 0 1-.048.2 1.5 1.5 0 0 1-.139.248l-.122.191a.7.7 0 0 0-.074.161.4.4 0 0 0-.016.077q-.001.08.08.095c.033.005.065 0 .097-.007.078-.016.151-.046.223-.077.06-.025.073-.017.068.044-.026.33-.079.652-.21.958q-.064.156-.172.286a.58.58 0 0 1-.648.189 1.3 1.3 0 0 1-.226-.095.3.3 0 0 1-.084-.067.6.6 0 0 0-.149-.112.37.37 0 0 0-.392.017.7.7 0 0 0-.141.122q-.106.12-.175.26c-.029.06-.072.088-.132.108a3 3 0 0 1-.519.11 3.3 3.3 0 0 1-.56.02q-.118-.006-.235-.02a.4.4 0 0 0-.146.015q-.448.133-.898.262a.6.6 0 0 0-.134.06 3 3 0 0 1-.482.246 1.6 1.6 0 0 1-.33.096c-.131.022-.255.013-.363-.075-.022-.018-.042-.013-.062.004l-.038.03a6 6 0 0 1-1.937 1.072c-.106.034-.105.023-.125.146q-.137.885-.277 1.772c-.006.038-.003.08-.04.106a.23.23 0 0 1-.168.044.3.3 0 0 1-.126-.053.5.5 0 0 1-.108-.114 1 1 0 0 1-.109-.198 2.5 2.5 0 0 1-.181-.673.8.8 0 0 0-.31-.55 1.3 1.3 0 0 0-.362-.197 2.6 2.6 0 0 0-.537-.12c-.274-.037-.537.015-.796.09a3.14 3.14 0 0 0-1.61 1.08c-.206.255-.18.207-.269.538a2.4 2.4 0 0 0-.081.504q-.011.183.029.362.01.04.022.076.115.326.457.386c.141.026.281.014.421-.01q.152-.024.296-.071a.15.15 0 0 1 .123.01c.075.042.146.088.204.153q.144.165.059.365a.7.7 0 0 1-.12.18 1.4 1.4 0 0 1-.236.208q-.098.068-.197.13a.44.44 0 0 0-.152.164.274.274 0 0 0 .028.33.6.6 0 0 0 .149.129q.067.04.137.077.045.023.038.072l-.03.284c-.03.294-.044.59-.028.885.02.376.194.661.53.842q.052.028.099.064c.165.116.343.207.541.255s.39.043.578-.041a.95.95 0 0 0 .312-.236 1.5 1.5 0 0 0 .189-.276c.11-.201.335-.3.559-.249.091.02.173.062.249.114q.094.064.172.147.048.049.111.08.38.184.761.373.11.053.231.08c.38.09.723.256 1.023.507q.206.17.358.39a.23.23 0 0 0 .131.096 4.6 4.6 0 0 1 1.576.89 3.37 3.37 0 0 1 1.076 1.695.18.18 0 0 0 .051.094c.194.176.342.388.478.61q.138.227.252.47.015.03.029.062.023.064.094.072.195.029.386.08c.474.12.924.3 1.34.558q.451.279.796.684a.35.35 0 0 1 .09.231c.004.775-.279 1.408-.928 1.854a.4.4 0 0 0-.159.201c-.171.466-.347.928-.52 1.394a1 1 0 0 1-.121.224q-.367.506-.732 1.014a.5.5 0 0 1-.156.147 4 4 0 0 1-.749.346 5 5 0 0 1-.607.166l-.029.006a.18.18 0 0 0-.129.08q-.14.183-.284.366-.222.287-.448.575a1 1 0 0 0-.085.132 6 6 0 0 1-.264.438q-.25.378-.502.755a.4.4 0 0 1-.124.124q-.63.421-1.26.845a1 1 0 0 0-.122.099l-.656.639a.4.4 0 0 0-.079.112q-.267.592-.538 1.183a.23.23 0 0 0-.018.152q.126.678.251 1.355l.125.679.012.078c.002.018-.011.033-.03.03a1 1 0 0 1-.086-.015 1.7 1.7 0 0 1-.381-.159 3 3 0 0 1-.582-.434 5 5 0 0 1-.588-.663 8 8 0 0 1-.499-.756.4.4 0 0 1-.053-.157q-.107-.76-.216-1.52a.2.2 0 0 0-.035-.102.9.9 0 0 1-.159-.388 2.4 2.4 0 0 1-.032-.657c.016-.21.051-.417.088-.624.032-.177.054-.356.079-.535l.056-.41.007-.069a.1.1 0 0 0-.02-.063c-.117-.142-.146-.313-.157-.489-.013-.221.02-.44.066-.655q.02-.106.053-.21c.051-.157.072-.32.093-.482l.168-1.25.008-.048c.005-.031-.001-.059-.031-.076l-.015-.012a1.05 1.05 0 0 1-.403-.76 1.8 1.8 0 0 1 .07-.673c.047-.166.059-.127-.084-.223a4.1 4.1 0 0 1-1.085-1.034c-.083-.118-.179-.227-.271-.338a12 12 0 0 1-.26-.321 2 2 0 0 1-.209-.333 1.1 1.1 0 0 1-.113-.726.22.22 0 0 0-.011-.125 2.8 2.8 0 0 1-.132-1.233c.009-.087.025-.175.038-.263.018-.125.063-.24.121-.353q.113-.215.251-.411.23-.326.463-.65.123-.178.251-.354a1.8 1.8 0 0 0 .303-.72q.051-.233.041-.47a.9.9 0 0 0-.057-.269.6.6 0 0 0-.264-.308 1.5 1.5 0 0 1-.178-.121q-.222-.173-.445-.343a.22.22 0 0 1-.088-.136c-.08-.328-.166-.655-.245-.984a.28.28 0 0 0-.096-.155c-.154-.133-.304-.27-.46-.402-.052-.044-.066-.09-.057-.155q.043-.292.08-.585l.006-.039c.004-.04-.001-.05-.041-.067l-.101-.04a4 4 0 0 1-.714-.374 2.4 2.4 0 0 1-.522-.462 1.25 1.25 0 0 1-.257-.504 1 1 0 0 1-.02-.362c.049-.348.092-.696.138-1.044.006-.04 0-.068-.04-.088-.059-.029-.078-.087-.086-.147a.6.6 0 0 1 .004-.176l.014-.108q.023-.043.049-.085a18.7 18.7 0 0 1 2.324-2.9 18.6 18.6 0 0 1 8.68-5.02q.663-.17 1.336-.29c.063-.014.132-.021.2-.03M171.476 92.997c-.033-.009-.057.013-.082.026a1.4 1.4 0 0 1-.225.098.6.6 0 0 1-.194.031.31.31 0 0 1-.291-.293.8.8 0 0 1 .031-.224c.036-.137.085-.269.138-.4.127-.31.274-.611.42-.912.139-.287.281-.572.406-.865q.066-.16.126-.322a.8.8 0 0 0 .036-.425 16 16 0 0 0-.159-.812 3 3 0 0 1-.056-.32 1.3 1.3 0 0 1 .056-.534q.048-.161.118-.313.084-.183.175-.364c.099-.198.23-.374.381-.536q.136-.144.272-.285c.116-.122.225-.248.316-.39.119-.182.209-.379.257-.593a1.5 1.5 0 0 0-.023-.712 4 4 0 0 0-.123-.374c-.06-.16-.123-.319-.172-.482a2 2 0 0 1-.09-.532q-.002-.254.069-.496c.054-.19.124-.374.196-.557.062-.159.128-.317.177-.48.063-.202.096-.408.09-.62a2.2 2.2 0 0 0-.099-.582c-.044-.144-.122-.181-.263-.13q-.086.036-.171.076a1 1 0 0 1-.157.057.24.24 0 0 1-.255-.087l-.018-.023a.57.57 0 0 0-.288-.214 1.5 1.5 0 0 0-.374-.082 4 4 0 0 0-.698-.006c-.285.019-.571.03-.855.052a2.1 2.1 0 0 1-.963-.156 4 4 0 0 1-.705-.37 8 8 0 0 1-1.014-.798c-.319-.288-.624-.592-.933-.89a.3.3 0 0 1-.079-.124 1.4 1.4 0 0 1-.084-.404 4 4 0 0 1 .031-.844c.081-.65.238-1.285.425-1.912.058-.189.09-.383.117-.578a2 2 0 0 0 .018-.344.6.6 0 0 0-.074-.292.28.28 0 0 1-.017-.264c.071-.189.159-.368.274-.534a2.08 2.08 0 0 1 1.262-.847.26.26 0 0 0 .146-.089c.239-.275.476-.55.702-.838a.3.3 0 0 1 .159-.105q.552-.165 1.103-.335a3.69 3.69 0 0 1 1.241-.095c.328.032.648.099.956.222a.4.4 0 0 0 .191.032q.27-.012.541 0c.221.01.439.038.652.096q.06.018.122.037a.7.7 0 0 1 .207.11q.717.554 1.436 1.106.036.026.07.053a.13.13 0 0 0 .1.034l.089-.003c.298-.023.597-.014.895.008.167.012.333.032.497.07l.067.011c.025.004.038-.01.035-.033l-.014-.088a2.4 2.4 0 0 0-.24-.696 1.5 1.5 0 0 0-.236-.326 1.08 1.08 0 0 0-.764-.336 1 1 0 0 1-.261-.043.61.61 0 0 1-.394-.36 1.5 1.5 0 0 1-.076-.274c-.009-.041-.016-.083-.03-.124-.013-.038-.047-.047-.079-.02a.4.4 0 0 0-.067.071q-.062.084-.123.167a2 2 0 0 1-.1.122.2.2 0 0 1-.087.061.13.13 0 0 1-.138-.021.3.3 0 0 1-.078-.101 1 1 0 0 1-.086-.199q-.048-.14-.098-.279a2 2 0 0 0-.065-.154.4.4 0 0 0-.054-.082q-.064-.07-.14-.013c-.035.026-.06.06-.085.096a.8.8 0 0 1-.157.175.36.36 0 0 1-.244.09.35.35 0 0 1-.167-.05.6.6 0 0 1-.186-.175c-.024-.032-.027-.066-.027-.103q0-.162-.003-.325a.9.9 0 0 0-.039-.242.25.25 0 0 0-.049-.095q-.048-.055-.116-.026a.3.3 0 0 0-.108.084c-.047.054-.058.055-.127.022q-.42-.193-.842-.384-.094-.044-.189-.086c-.037-.017-.07-.036-.08-.08q-.005-.013-.013-.026c-.016-.028-.044-.027-.059.003a.3.3 0 0 0-.03.073 2 2 0 0 0-.039.163c-.045.229-.074.46-.1.692q-.022.206-.042.411c-.007.063-.011.068-.077.084q-.343.088-.688.174-.061.016-.123.034a.97.97 0 0 1-.699-.069 1.4 1.4 0 0 1-.344-.245 2.2 2.2 0 0 1-.39-.503l-.519-.93c-.049-.088-.049-.089.041-.139q.175-.1.353-.197.04-.021.079-.038a2.8 2.8 0 0 1 .662-.186c.13-.017.261-.024.392.005q.055.013.102-.018.32-.203.643-.403a.3.3 0 0 0 .07-.068l.461-.602.024-.032a.06.06 0 0 0 .007-.066l-.027-.063q-.085-.204-.175-.407a.3.3 0 0 1-.024-.182 43 43 0 0 0 .085-.635q.002-.035-.033-.041l-.263-.038-.488-.065q-.014 0-.03-.004a.11.11 0 0 1-.086-.057q-.077-.132-.157-.262-.073-.12-.141-.237a.13.13 0 0 0-.109-.07c-.176-.022-.351-.05-.527-.072a.2.2 0 0 1-.122-.056.8.8 0 0 1-.178-.235 1.5 1.5 0 0 1-.123-.342 3 3 0 0 1-.072-.536 5 5 0 0 1 .017-.699l.001-.01c.011-.08.018-.087.097-.095l.166-.016c.236-.023.471-.042.706-.067.111-.012.223-.013.333-.038.033.008.057.03.085.048a18.6 18.6 0 0 1 2.795 2.268 18.6 18.6 0 0 1 5.099 9.136 18.5 18.5 0 0 1 .413 2.793 18.6 18.6 0 0 1-.068 3.451 18.7 18.7 0 0 1-.781 3.633 18.647 18.647 0 0 1-6.347 9.022q-.09.067-.183.132l-.035.021h.003l-.023.02.003-.002a.07.07 0 0 0-.042.023l.003-.002c-.032.013-.069.02-.081.06z"/><path fill="#F6F6F6" d="m164.913 59.898-.68 1.084q-.067.105-.131.209a.12.12 0 0 1-.094.061c-.227.039-.453.081-.679.116a.27.27 0 0 0-.173.099c-.424.475-.829.965-1.229 1.461l-.212.26-.044.053q-.032.039-.079.016-.041-.019-.079-.039a1.5 1.5 0 0 1-.383-.304 2.1 2.1 0 0 1-.352-.554 3.5 3.5 0 0 1-.258-.886c-.018-.11-.028-.221-.043-.332a.4.4 0 0 1 .03-.192c.134-.338.262-.679.398-1.016.038-.094.051-.176.001-.27a1.1 1.1 0 0 1-.098-.3c.151-.006.301 0 .453.009q.27.013.54.032.279.02.558.05.273.029.547.064a17.42 17.42 0 0 1 1.913.355q.045.01.094.024M171.474 92.998c.012-.04.048-.048.08-.06a.1.1 0 0 1-.08.06M171.611 92.9l.035-.022q-.013.02-.035.021"/><path fill="#F6F6F6" d="M171.552 92.94a.07.07 0 0 1 .043-.024q-.015.026-.043.023"/><path fill="#F6F6F6" d="m171.591 92.918.023-.021q-.005.017-.023.021"/><path fill="#fff" d="M169.556 66.692a.46.46 0 0 1-.354-.155.6.6 0 0 1-.155-.302 45 45 0 0 0-.118-.638c-.023-.116-.014-.12-.126-.066l-.355.17-.054.023c-.035.015-.047.012-.067-.018l-.014-.025-.202-.361c-.032-.057-.031-.061.026-.104l.345-.263c.111-.087.104-.058.068-.203a1.6 1.6 0 0 0-.081-.252.14.14 0 0 1 .035-.172.35.35 0 0 1 .288-.097.2.2 0 0 1 .097.045.7.7 0 0 1 .117.12q.065.08.131.16a.5.5 0 0 0 .178.136c.206.088.375.227.521.395.271.313.448.676.552 1.075q.002.015.006.029.019.058-.03.096-.113.088-.225.175a1.4 1.4 0 0 1-.29.165.8.8 0 0 1-.293.067"/><path fill="#F6F6F6" d="M164.37 63.138a4.6 4.6 0 0 1-.812-.165.9.9 0 0 1-.354-.225.4.4 0 0 1-.049-.062c-.083-.13-.037-.285.106-.341q.343-.135.69-.263c.113-.043.229-.08.343-.123a.13.13 0 0 1 .112.006c.08.04.157.083.226.14a.5.5 0 0 1 .108.114c.066.1.066.195-.002.294a.5.5 0 0 1-.125.124.2.2 0 0 0-.08.119 10 10 0 0 1-.101.34c-.013.038-.026.044-.062.042"/><path fill="#fff" d="M151.588 70.534a6 6 0 0 1-.552-.049c-.375-.045-.746-.116-1.119-.178-.08-.014-.162-.023-.241-.047a.6.6 0 0 1-.162-.07c-.033-.023-.039-.042-.023-.076a.9.9 0 0 1 .214-.292.6.6 0 0 1 .353-.133q.059-.004.118-.004a.5.5 0 0 1 .281.076q.07.046.137.096.063.046.125.096a.86.86 0 0 0 .508.188q.226.014.451.04c.069.008.136.025.203.04q.066.015.126.055.046.03.066.083a.09.09 0 0 1-.035.113.3.3 0 0 1-.119.044c-.097.019-.196.018-.331.018M153.131 71.424c-.025.099-.047.212-.087.32l-.013.025c-.023.039-.049.05-.09.037a.4.4 0 0 1-.072-.031 1.54 1.54 0 0 0-.694-.157q-.158 0-.314.006a2.4 2.4 0 0 1-.324-.006.3.3 0 0 1-.096-.02c-.047-.02-.054-.056-.015-.092a.3.3 0 0 1 .071-.053 1 1 0 0 1 .14-.072c.237-.097.463-.214.696-.322.116-.054.098-.054.204.013q.134.083.265.17a.5.5 0 0 0 .179.078q.06.016.122.037c.028.012.033.023.028.067"/><path fill="#562CCD" d="M146.472 56.142c-.411-.237-.748-.046-.749.427l-.004 1.575c-.002.472.334 1.053.745 1.29l5.439 3.14c.206.12.719 1.222.745 1.279l.006-1.705.004-1.575c.002-.473-.334-1.054-.745-1.29z"/><path fill="#957EE8" d="M171.367 66.075c-.411-.237-.749-.045-.75.428l-.004 1.573-.005 1.705c.027-.027.543-.535.749-.416l5.436 3.14c.411.236.748.044.75-.428l.004-1.573c.002-.473-.333-1.053-.744-1.29zM209.571 98.826l-9.103 5.256-.147.085-9.104 5.256-10.308-5.991 18.354-10.597zM191.071 109.509l-9.103 5.256-.147.085-9.104 5.255-10.31-5.991 18.355-10.597zM211.068 110.243l9.105-5.256 10.309 5.99-9.104 5.257-.147.084-9.103 5.257-10.31-5.991 9.104-5.256zM172.57 120.19l-9.105 5.256-.146.084-9.104 5.257-10.309-5.991 18.354-10.597zM202.73 127l-9.104 5.256-10.309-5.99 9.104-5.257.147-.084 9.104-5.256 10.308 5.99-9.103 5.256zM231.978 122.395l9.104-5.257 10.31 5.992-2.04 1.177-7.065 4.078-.044.027-.102.059-6.344 3.662-2.76 1.593-10.309-5.991 9.103-5.256zM260.787 117.873l10.309 5.991-18.354 10.597-10.309-5.99 9.25-5.341zM154.068 130.872l-9.104 5.256-.146.085-9.104 5.255-10.309-5.99 18.354-10.597zM174.066 131.606l9.104-5.256 10.309 5.991-9.103 5.256-.148.085-9.103 5.256-10.309-5.992 9.104-5.255zM213.477 133.076l9.105-5.256 10.308 5.991-9.103 5.256-.147.084-9.104 5.257-10.309-5.991 9.104-5.256zM233.182 133.811l9.105-5.256 10.308 5.99-18.354 10.598-10.309-5.992 9.104-5.255zM135.567 141.553l-9.251 5.341-9.103 5.256-10.31-5.991 18.355-10.596zM155.565 142.289l9.104-5.257 10.309 5.991-9.104 5.256-.147.085-9.104 5.256-10.308-5.991 9.103-5.256zM194.976 143.758l9.103-5.256 10.31 5.991-9.104 5.256-.147.085-9.104 5.256-10.309-5.991 9.104-5.256zM214.682 144.493l9.104-5.256 10.307 5.99-18.354 10.597-10.308-5.99 9.104-5.256zM146.168 147.713l10.309 5.992-9.25 5.34-9.105 5.257-10.308-5.992 9.103-5.256zM167.224 159.78l9.104-5.256.146-.084 9.105-5.256 10.309 5.99-9.104 5.256-.147.085-6.527 3.769-2.576 1.487zM196.18 155.174l9.104-5.256 10.309 5.991-18.355 10.597-10.308-5.991 9.104-5.256z"/><path fill="#AAA" d="m106.611 146.159 10.6 6.16 9.251-5.341 10.309 5.992-9.251 5.341 10.6 6.16 9.251-5.341 10.31 5.992-9.251 5.34 10.6 6.161 9.251-5.341 10.455 6.076 18.501-10.682 18.501-10.682 18.501-10.682 18.501-10.682 18.648-10.766-10.6-6.161-9.251 5.341-10.31-5.991 9.251-5.341-10.6-6.16-9.251 5.34-10.309-5.991 9.251-5.34-10.601-6.161-9.251 5.34-10.455-6.075-18.501 10.682-18.501 10.682-18.501 10.682-18.501 10.682zm28.956-4.606-9.251 5.341-9.103 5.256-10.309-5.991 18.353-10.597zm44.543 22.731-2.576 1.487-10.31-5.991 9.104-5.256.147-.085 9.104-5.256 10.31 5.991-9.104 5.256-.146.085zm-33.795-16.655 9.103-5.256.147-.085 9.104-5.256 10.309 5.991-9.103 5.256-.147.085-9.104 5.256zm38.206-9.948 9.104-5.255.147-.086 9.104-5.255 10.309 5.991-9.104 5.256-.147.084-9.104 5.256zm27.459-16.022-9.103 5.256-.147.085-9.104 5.256-10.309-5.991 9.104-5.256.146-.085 9.105-5.256zm-47.164 15.288 9.103-5.256.147-.085 9.104-5.256 10.309 5.991-9.103 5.256-.147.085-9.104 5.256zm-1.205-11.417 9.104-5.255.147-.085 9.104-5.256 10.31 5.992-9.104 5.256-.147.085-9.104 5.256zm47.165-15.287-9.104 5.256-.147.085-9.104 5.256-10.31-5.992 9.105-5.255.146-.085 9.104-5.256zm20.909 12.151-9.104 5.256-.146.085-9.105 5.256L203.021 127l9.104-5.256.147-.085 9.104-5.256zm1.206 11.417-9.104 5.256-.146.085-9.105 5.256-10.309-5.991 9.103-5.256.147-.085 9.104-5.256zm-18.502 10.681-9.103 5.256-.147.085-9.104 5.256-10.31-5.991 9.104-5.256.146-.085 9.104-5.256zm-48.369 3.871 9.104-5.256.147-.085 9.104-5.256 10.309 5.992-9.104 5.256-.147.084-9.104 5.256zm-20.911-12.151 9.105-5.256.146-.084 9.105-5.256 10.309 5.992-9.104 5.255-.147.086-9.104 5.255zm8.96-5.341-9.105 5.256-.146.085-9.104 5.256-10.308-5.991 18.354-10.597zm18.501-10.682-9.105 5.256-.146.085-9.104 5.256-10.309-5.991 18.354-10.597zm18.501-10.681-9.105 5.256-.146.085-9.104 5.256-10.309-5.991 18.354-10.597zm18.501-10.681-9.104 5.255-.147.085-9.103 5.256-10.309-5.991 18.354-10.597zm19.706.734-9.105 5.256-.146.084-9.104 5.256-10.31-5.991 9.104-5.256.147-.084 9.104-5.256zm1.204 11.417-9.104 5.255-.147.086-9.103 5.255-10.31-5.991 9.105-5.256.146-.085 9.104-5.256zm19.705.734-9.104 5.256-.147.084-9.104 5.256-10.309-5.991 9.104-5.256.147-.084 9.104-5.256zm1.205 11.417-2.04 1.178-7.065 4.078-.044.026-.102.059-6.345 3.663-2.759 1.593-10.31-5.991 9.103-5.256.147-.085 9.104-5.256zm19.704.735-18.354 10.597-10.309-5.991 9.251-5.341 9.104-5.255zm-18.501 10.681-18.354 10.597-10.309-5.991 9.104-5.255.146-.086 9.105-5.255zm-18.501 10.682-18.354 10.597-10.309-5.991 9.104-5.256.146-.085 9.105-5.255zm-18.502 10.682-18.354 10.597-10.308-5.991 9.103-5.256.147-.085 9.104-5.256zm-47.164 15.288 9.104-5.256.147-.085 9.104-5.256 10.308 5.991-18.354 10.596zm-10.601-5.991 9.251-5.341 10.309 5.991-9.251 5.341-4.63 2.674-4.474 2.583-10.31-5.992zm-10.309-6.161 9.104-5.256 9.251-5.341 10.31 5.992-9.251 5.341-9.104 5.255zm-10.601-5.99 9.251-5.341 10.309 5.991-9.25 5.341-9.104 5.256-10.309-5.991zm-10.308-6.161 9.104-5.256 9.251-5.341 10.309 5.992-9.251 5.341-9.104 5.255z"/><path fill="#957EE8" d="m241.083 116.969-.147.084-9.104 5.257-10.309-5.992 9.104-5.256.146-.085 9.105-5.256 10.309 5.991zM222.583 127.65l-.147.085-9.104 5.256-10.31-5.99 9.104-5.257.147-.084 9.104-5.257 10.309 5.991zM193.625 132.425l.146-.084 9.104-5.257 10.31 5.992-9.104 5.255-.147.086-9.103 5.255-10.31-5.991zM175.27 143.023l9.104-5.256 10.31 5.991-9.104 5.256-.147.085-9.104 5.256-10.309-5.992 9.104-5.255zM165.873 148.448l10.309 5.991-9.25 5.34-9.104 5.257-10.31-5.991 9.104-5.256zM220.174 104.817l-.147.085-9.104 5.256-10.31-5.991 9.104-5.256.147-.085 9.104-5.256 10.31 5.991zM201.671 115.498l-.146.086-9.104 5.255-10.309-5.991 9.104-5.256.147-.085 9.103-5.256 10.309 5.992zM172.715 120.274l.147-.085 9.104-5.255 10.309 5.99-9.104 5.257-.147.084-9.104 5.257-10.308-5.992zM154.36 130.871l9.104-5.256 10.31 5.99-9.104 5.257-.147.084-9.104 5.257-10.31-5.991 9.105-5.257zM144.963 136.296l10.309 5.992-9.25 5.341-9.104 5.255-10.309-5.99 9.104-5.257z"/><path fill="#C0C4C7" d="M208.036 129.54q-.001.145-.007.292l-.01.197q-.004.085-.011.171-.008.099-.018.197l-.019.169-.027.199a5 5 0 0 1-.06.368 8 8 0 0 1-.074.362l-.038.167-.053.199-.045.162-.062.203q-.024.08-.05.158-.036.104-.074.21l-.052.148q-.06.156-.124.309l-.021.054q-.077.182-.161.361l-.054.111q-.06.125-.122.249l-.074.139q-.058.11-.118.219l-.074.127-.145.246-.09.143-.147.227q-.05.074-.1.147-.076.112-.156.223l-.105.146-.173.227-.116.15-.058.072a10 10 0 0 1-.211.255l-.038.045q-.124.144-.253.287l-.063.07q-.114.125-.232.248l-.044.047a11 11 0 0 1-.348.349q-.125.122-.252.242-.026.024-.051.047l-.161.145q-.096.089-.196.177l-.166.142q-.1.086-.202.171-.086.072-.175.142-.102.083-.208.167-.09.072-.184.142-.105.082-.214.163l-.193.141-.22.158q-.1.07-.201.139a13 13 0 0 1-.437.294l-.235.153-.216.135-.242.15q-.191.117-.389.231a24 24 0 0 1-.765.425q-.231.123-.467.245l-.158.081q-.306.154-.617.301l-.11.05a32 32 0 0 1-1.378.602q-.325.132-.655.258l-.164.061q-.26.097-.523.19-.098.035-.197.069-.315.11-.636.215l-.049.016a30 30 0 0 1-1.167.355l-.218.061q-.186.053-.374.103l-.247.065q-.174.046-.352.09-.129.033-.259.063l-.344.083-.268.061q-.17.038-.34.075l-.275.058-.338.07-.28.055-.338.063-.244.043q-.286.05-.573.098l-.179.029q-.369.059-.738.11l-.158.021-.599.078-.226.026q-.309.037-.619.068l-.143.015q-.336.033-.672.062l-.111.008q-.282.024-.565.043-.117.007-.235.015a63 63 0 0 1-.709.039l-.422.018-.279.009-.356.01-.291.006q-.18.004-.359.004l-.289.002-.364-.001-.283-.001-.373-.007-.276-.006q-.172-.005-.343-.012l-.29-.01-.349-.017q-.141-.006-.284-.014l-.355-.021-.277-.018-.366-.027-.264-.02-.383-.035q-.123-.01-.245-.023l-.434-.045-.192-.02a32 32 0 0 1-.696-.084 32 32 0 0 1-.548-.074l-.151-.022q-.242-.035-.48-.073l-.232-.038q-.198-.03-.396-.066-.129-.022-.257-.046l-.368-.067q-.133-.024-.267-.052-.176-.034-.353-.07l-.251-.053q-.203-.042-.404-.088l-.255-.058q-.2-.046-.397-.093l-.249-.06-.413-.105-.222-.057-.506-.139-.12-.033q-.361-.104-.718-.214l-.192-.059q-.288-.09-.573-.186l-.158-.052a30 30 0 0 1-1.401-.511l-.215-.084-.225-.091-.29-.12q-.112-.047-.224-.096l-.285-.124-.22-.098-.284-.13-.214-.1q-.144-.068-.284-.137l-.206-.101-.291-.148-.191-.098q-.16-.084-.317-.169l-.156-.084a21 21 0 0 1-.464-.262c-5.136-2.965-7.701-6.857-7.689-10.742l-.004 1.321c-.011 3.886 2.554 7.779 7.689 10.743q.23.132.465.261l.155.085q.157.086.318.17.094.05.189.097.146.075.293.148l.205.101.284.137.214.101.283.13.22.098.286.125.224.095.289.12.225.091.106.043.11.041q.274.108.555.211l.152.058q.345.125.693.243l.158.052q.286.094.574.186l.191.06q.357.11.719.213l.012.004.106.029q.252.072.508.14l.222.058q.206.054.413.105l.248.06q.198.048.397.094l.254.057q.202.046.405.088l.163.035.087.017.355.07a21 21 0 0 0 .634.119q.128.024.257.046l.395.066q.117.019.232.039.242.037.486.072l.137.021.009.001q.287.04.574.077l.047.007q.312.04.625.074.099.011.199.021.214.024.427.044l.245.023.382.035.025.002.24.018q.182.016.366.028l.279.018.352.021q.143.008.287.014.173.009.346.016.144.005.29.009l.344.012.061.001.212.004.375.007.282.002h.365l.289-.001.359-.005.291-.006.357-.009.138-.004q.07-.002.14-.006l.424-.018.261-.013.446-.026.234-.015q.283-.02.566-.042l.109-.009q.337-.028.673-.062l.035-.003.109-.012q.31-.032.619-.068.114-.013.225-.027a39 39 0 0 0 1.496-.209l.178-.03q.288-.046.574-.097l.12-.021.124-.023.337-.064.281-.054a41 41 0 0 0 .613-.128q.17-.037.339-.076l.269-.06.343-.083.26-.063.352-.091.246-.064.375-.103.218-.061q.23-.066.458-.135l.128-.038q.291-.089.581-.182l.008-.003.04-.014a32 32 0 0 0 1.356-.474l.164-.061q.33-.127.655-.258.066-.028.131-.054.264-.11.525-.222l.19-.084a32 32 0 0 0 1.258-.593l.158-.08q.236-.12.467-.245l.173-.093q.3-.163.591-.332l.318-.187.072-.045q.123-.074.242-.149.11-.067.217-.136l.233-.152.21-.138.226-.156.203-.14.218-.158q.099-.07.194-.141l.214-.163.185-.142q.105-.083.206-.167l.176-.142q.102-.085.202-.171l.167-.143.196-.176q.07-.062.138-.124l.023-.021.051-.048a12 12 0 0 0 .321-.309q.143-.14.279-.281l.044-.047q.118-.123.232-.248l.063-.07q.129-.143.253-.287l.038-.046q.109-.127.211-.255l.057-.072q.022-.025.042-.052l.074-.097.173-.228a18 18 0 0 0 .261-.367l.1-.147.147-.227.09-.143q.074-.123.145-.246l.059-.1.016-.028.118-.219.074-.138q.062-.124.123-.25l.053-.109q.084-.18.16-.361l.022-.054a10 10 0 0 0 .129-.321q.024-.069.047-.136.04-.105.075-.211l.05-.157q.033-.102.062-.203.023-.082.044-.163.029-.099.053-.198l.039-.167q.022-.098.043-.196l.008-.035.023-.13.036-.2.024-.168.027-.198.018-.17.019-.197.011-.17q.006-.099.009-.197l.004-.064q.003-.114.003-.229zM244.818 49.685q0 .145-.007.292-.004.098-.009.197-.005.085-.011.17l-.019.198-.018.17-.027.198-.024.169-.036.2-.031.165q-.02.098-.043.196l-.039.167a5 5 0 0 1-.053.199q-.02.081-.044.162l-.062.203-.05.157q-.036.105-.074.21-.026.075-.053.15-.058.154-.123.308l-.022.054q-.076.181-.16.361l-.054.11-.123.25q-.036.069-.073.139l-.118.218-.074.128-.145.246-.091.143a8 8 0 0 1-.246.374 11 11 0 0 1-.434.596l-.117.15-.057.071q-.103.13-.211.256l-.038.045q-.124.144-.253.287l-.063.07q-.114.125-.232.248l-.044.047q-.137.142-.279.281l-.069.068q-.125.121-.252.241-.026.025-.052.048l-.16.145-.196.177-.166.142q-.1.086-.202.17l-.175.142q-.102.085-.208.168-.09.072-.184.142-.106.082-.214.163l-.193.14q-.109.08-.221.16l-.2.138-.228.157-.209.137-.235.153-.216.135-.242.15q-.192.117-.39.231a25 25 0 0 1-.591.332l-.173.093q-.231.123-.467.245l-.158.08a30 30 0 0 1-.728.352q-.263.123-.53.242l-.19.083q-.26.113-.526.222l-.131.055a39 39 0 0 1-.655.258l-.164.06a25 25 0 0 1-.72.26q-.315.11-.636.215l-.049.016a34 34 0 0 1-1.167.355l-.218.061q-.186.053-.374.103l-.247.065-.352.09q-.13.033-.259.063l-.344.083-.269.06q-.168.04-.339.076a24 24 0 0 1-.613.128q-.14.028-.281.054l-.337.064q-.123.023-.244.043-.286.05-.573.097l-.179.03q-.369.06-.738.11l-.158.021q-.299.04-.599.077l-.226.027q-.31.037-.619.068l-.143.015q-.336.033-.673.061l-.11.01q-.282.022-.565.042l-.235.014q-.223.015-.444.026l-.264.014-.422.018-.279.01-.357.009-.291.006q-.179.003-.358.004l-.289.002h-.364q-.143-.002-.283-.002l-.374-.008a28 28 0 0 1-.619-.017l-.29-.01q-.174-.007-.348-.017l-.284-.014-.355-.021q-.139-.01-.277-.018-.183-.013-.366-.028l-.264-.02q-.192-.016-.383-.034-.123-.01-.245-.023-.217-.022-.434-.045l-.192-.02a38 38 0 0 1-1.245-.158q-.075-.012-.151-.022-.24-.035-.48-.073l-.232-.038q-.198-.032-.396-.066l-.257-.046-.367-.067q-.134-.024-.267-.052a23 23 0 0 1-.605-.123q-.202-.043-.403-.088l-.256-.058q-.2-.046-.397-.093l-.248-.06-.413-.105-.222-.057q-.254-.068-.507-.14-.06-.014-.119-.032a37 37 0 0 1-1.484-.46l-.158-.051a36 36 0 0 1-1.4-.511l-.215-.084a26 26 0 0 1-.739-.307q-.144-.06-.285-.124l-.221-.098-.283-.13-.214-.1q-.143-.068-.284-.137l-.206-.101-.291-.148-.191-.098q-.16-.084-.317-.17l-.156-.083a25 25 0 0 1-.465-.262c-5.135-2.965-7.7-6.857-7.689-10.742l-.003 1.321c-.011 3.886 2.554 7.778 7.689 10.743q.23.132.464.261l.156.084a18 18 0 0 0 .507.268q.145.075.292.148l.205.101.284.137.215.101.283.13.22.098q.142.064.285.124l.224.096.289.12.226.091.106.043.11.041q.275.108.554.211l.153.058a29 29 0 0 0 1.425.48l.191.06q.357.11.719.214l.012.004q.053.014.106.03.253.071.508.139l.222.058.414.105.247.06.398.094.253.057q.202.046.406.088l.162.035q.044.008.088.017l.354.07.267.052q.184.036.368.067.127.025.256.046l.396.066.232.038q.242.039.485.073l.137.021.01.001q.287.04.573.077l.048.006q.311.04.624.075.1.011.2.02.213.025.426.045l.245.023.383.035.024.002q.12.01.241.018.182.015.365.028l.279.017.353.022.286.014.347.016.29.01.343.01.061.002.213.004.374.007.282.002h.365l.289-.001.36-.005.291-.006q.178-.003.357-.01l.138-.003.139-.006q.213-.007.424-.018l.261-.013.447-.026.233-.015a39 39 0 0 0 1.492-.129 37 37 0 0 0 1.443-.171l.159-.022q.37-.052.738-.11l.179-.03q.288-.046.573-.097.06-.01.121-.021l.123-.023.338-.064q.14-.026.28-.054l.338-.07.275-.058q.17-.036.34-.076l.268-.06.344-.083q.13-.03.26-.063l.351-.09.247-.065.374-.103.218-.061q.231-.067.459-.135.064-.02.127-.038.292-.089.581-.182l.009-.003.04-.014q.319-.105.635-.214l.197-.07q.263-.093.523-.19l.164-.06q.332-.127.656-.258l.13-.054q.265-.11.525-.223l.191-.083q.267-.118.53-.241.056-.026.11-.05.312-.149.618-.302l.158-.08q.235-.12.467-.246l.173-.093a24 24 0 0 0 .909-.519l.072-.044a21 21 0 0 0 .458-.286q.119-.075.234-.152l.209-.138q.114-.076.227-.155l.202-.14q.111-.078.219-.158l.194-.142q.107-.08.213-.162l.185-.142q.104-.083.207-.167l.176-.142q.103-.085.201-.171l.167-.143q.1-.087.196-.176l.138-.124.023-.021.051-.048q.129-.12.253-.241l.069-.068q.141-.14.278-.281l.045-.047q.119-.124.231-.248l.064-.07q.129-.143.252-.287.02-.023.039-.046.108-.128.211-.256l.057-.07.042-.053.073-.097a11 11 0 0 0 .278-.373l.157-.222.099-.148q.076-.112.147-.226l.091-.144q.074-.122.145-.245l.059-.1q.007-.015.015-.028.06-.11.118-.219.038-.069.074-.138.064-.124.123-.25.028-.054.053-.11.085-.18.161-.36l.022-.054q.064-.155.123-.31l.005-.012c.018-.045.031-.09.048-.135q.038-.105.075-.211l.049-.157q.034-.102.063-.203l.044-.163.053-.199q.02-.082.038-.166.023-.098.044-.197l.007-.034.024-.13q.019-.1.035-.2l.025-.169.027-.198q.01-.084.018-.169a7 7 0 0 0 .029-.367q.006-.099.01-.197.002-.031.003-.064a6 6 0 0 0 .004-.229z"/><path fill="#F6F6F6" d="M237.129 38.943c10.205 5.892 10.26 15.444.121 21.336-10.14 5.893-26.631 5.893-36.836 0-10.206-5.892-10.259-15.445-.12-21.336 10.138-5.893 26.63-5.893 36.835 0"/><path fill="#413C35" d="m206.432 31.776-.028 9.805-.426-.247.027-9.805z"/><path fill="#696054" d="m206.856 31.53-.425.246-.426-.247.424-.246z"/><path fill="#5E564C" d="m201.328 31.53-.028 9.804-.423.247.027-9.805z"/><path fill="#696054" d="m201.328 31.53-.424.246-.427-.247.424-.246z"/><path fill="#5E564C" d="m206.847 34.553-.001.49-2.755 1.602.001-.49z"/><path fill="#413C35" d="m203.242 36.154-.002.491-2.772-1.601.001-.49zM206.442 38.002l-.001.49-2.774-1.6.002-.491z"/><path fill="#5E564C" d="m206.866 37.755-.002.49-.423.247.001-.49z"/><path fill="#413C35" d="m200.913 38.002-.001.49-.427-.246.001-.491z"/><path fill="#5E564C" d="m203.669 36.4-.002.491-2.755 1.601.002-.49zM206.856 31.53l-.027 9.804-.425.247.028-9.805z"/><path fill="#413C35" d="m200.904 31.776-.027 9.805-.428-.247.028-9.805z"/><path fill="#696054" d="m206.423 34.8-2.33 1.354 2.773 1.602-.425.246-2.772-1.601-2.755 1.601-.427-.246 2.755-1.602-2.346-1.354.423-.247 2.346 1.356 2.332-1.356z"/><path fill="#9D9D9C" d="M206.011 32.649c.002-.747-1.041-1.355-2.33-1.358s-2.336.598-2.338 1.345c-.002.746 1.041 1.355 2.33 1.358s2.336-.598 2.338-1.345"/><path fill="#100F0B" d="M206.011 33.424c.002-.747-1.041-1.355-2.33-1.358s-2.336.598-2.338 1.345c-.002.746 1.041 1.355 2.33 1.358s2.336-.598 2.338-1.345"/><path fill="#fff" d="m206.307 32.696-.003.04-.004.035-.006.039-.007.035-.01.038-.01.035-.013.038-.013.034a1 1 0 0 1-.032.073l-.02.04-.018.032-.028.047-.019.027-.037.052-.018.023-.009.011-.042.05-.012.014-.055.058-.011.01-.045.042-.038.033-.036.03-.041.033-.039.029-.045.031-.041.029-.048.03-.061.038-.121.066-.035.018-.097.046-.033.015-.131.053-.024.01-.115.04-.047.015-.065.019-.054.016-.065.017-.056.014-.067.015-.055.012-.069.014-.053.01-.148.023-.021.003-.131.016-.051.005-.084.007q-.026.002-.054.003l-.139.006-.076.002h-.184q-.038-.003-.077-.003l-.051-.002-.082-.005-.045-.004q-.05-.004-.101-.01l-.026-.002q-.063-.006-.126-.016l-.021-.003-.151-.025-.082-.016-.042-.01q-.044-.008-.089-.02-.025-.005-.048-.012l-.08-.02q-.023-.008-.045-.013l-.126-.04-.021-.007a2 2 0 0 1-.195-.073l-.043-.019q-.031-.013-.062-.027l-.04-.019-.066-.032-.032-.016-.094-.052c-.52-.3-.778-.693-.778-1.086l-.009 3.513c-.001.392.258.785.777 1.085q.046.027.095.052.015.007.032.017l.066.033.04.018.061.028.044.018a2 2 0 0 0 .193.074l.022.007q.062.02.124.039l.021.006.024.006.08.02q.024.008.049.013l.088.02.033.008.01.001.082.016.044.009.107.016.02.004h.001q.062.009.125.015l.027.003.1.01h.003l.043.002.082.005.053.003.075.002h.049l.082.001h.054l.077-.002h.014l.035-.002q.044-.001.089-.004l.054-.004.084-.007.029-.002.021-.003q.067-.007.131-.016l.021-.002.163-.026.039-.008a2 2 0 0 0 .124-.026l.067-.016.055-.014q.033-.008.065-.017l.055-.016.064-.019.028-.008.02-.007.115-.04.023-.009q.067-.025.131-.054l.033-.015q.05-.022.097-.046l.036-.018a2 2 0 0 0 .121-.066l.032-.019.029-.018.047-.03.042-.03.044-.03.039-.03.041-.032.037-.03.038-.033.015-.014.03-.029.01-.01.067-.072q.023-.024.043-.05l.008-.011.005-.005.014-.02.037-.05.018-.03.029-.046.008-.013.009-.02.02-.039.016-.033.016-.04a.1.1 0 0 0 .013-.034l.013-.038.011-.035.009-.038.006-.021.002-.014.006-.04.005-.034.002-.04.002-.023v-.024l.01-3.512z"/><path fill="#F6F6F6" d="M205.532 31.565c1.031.595 1.037 1.56.012 2.156-1.025.595-2.691.595-3.721 0-1.032-.596-1.037-1.56-.013-2.156s2.69-.596 3.722 0m-3.5 2.033c.914.528 2.392.528 3.3 0s.903-1.384-.01-1.91c-.914-.529-2.391-.529-3.301 0-.908.526-.904 1.382.011 1.91"/><path fill="#5E564C" d="m201.345 34.732-.027 9.805-.424.246.028-9.804z"/><path fill="#413C35" d="m200.922 34.979-.028 9.804-.426-.246.028-9.805z"/><path fill="#696054" d="m201.345 34.732-.424.247-.426-.247.424-.247z"/><path fill="#5E564C" d="m206.874 34.732-.028 9.805-.424.246.028-9.804z"/><path fill="#413C35" d="m206.45 34.979-.028 9.804-.426-.246.028-9.805z"/><path fill="#696054" d="m206.874 34.732-.424.247-.426-.247.423-.247z"/><path fill="#957EE8" d="M205.187 23.492s.603 1.441.475 2.902c-.128 1.46-.329 2.281-.229 3.23.101.95.077 2.719-.459 3.75l-.407.027s.018-3.34.273-4.608c.129-.502.147-4.151.347-5.3"/><path fill="#613FDD" d="M200.06 25.486s.134 1.29.158 1.898c.025.61.329 2.689 1.18 3.893l.563.82s-.976-1.976-1.207-3.046-.329-2.87-.694-3.565"/><path fill="#452D9D" d="M201.609 30.195s-.649-1.788-.04-2.822c0 0 .316 1.57.547 2.105s-.507.717-.507.717"/><path fill="#957EE8" d="M200.924 27.287s-.334.937.113 2.19.897 3.249.897 3.249l.48.675s-.213-2.409-.639-3.372c-.426-.965-.79-1.756-.851-2.742"/><path fill="#452D9D" d="M199.658 29.35s1.095.262 1.862 1.8.894 2.25.894 2.25l-.602-.127s-.456-1.35-1.022-1.899c-.567-.547-1.077-1.148-1.132-2.024"/><path fill="#957EE8" d="M204.732 33.352s.474-1.795 1.764-3.39c.815-.9.742-1.191 1.18-1.374-.17.377-.425.864-.523 1.387-.097.523-1.532 2.423-1.715 3.377z"/><path fill="#613FDD" d="M203.016 23.62s-1.277 1.97-1.277 4.36.255 4.107.675 5.42l.237-.036s-.291-2.427-.237-3.595c.055-1.167.292-2.791.347-3.777s.255-2.373.255-2.373M206.593 24.039s-.401 1.368-.565 1.952c-.164.585-.255 2.063-.237 2.939s-.328 3.303-.949 4.47l.31.019s.694-1.716 1.04-3.577.784-3.814.401-5.803"/><path fill="#452D9D" d="M206.349 23.114s-1.703 1.18-1.947 3.88l.171 2.482s.364-2.846.742-3.71.985-1.752 1.034-2.652"/><path fill="#613FDD" d="M203.016 33.352s.675-6.047.73-6.996.603-2.318.603-2.318.364 2.5.301 3.96-1.08 5.354-1.08 5.354z"/><path fill="#452D9D" d="M202.87 26.886s.328 1.131.146 2.25c-.183 1.12.34 1.691.219 4.21l-.585.019s-.621-2.124-.352-3.462c.268-1.338.645-2.482.572-3.017M205.188 27.89s-1.095.894-1.077 2.81.073 2.7.073 2.7h.383s.31-1.605.364-2.847c.055-1.242.129-2.317.257-2.663"/><path fill="#613FDD" d="M203.591 27.479s.914 1.254.889 2.69c-.024 1.434-.296 3.232-.296 3.232l-.393-.1s.128-2.035-.027-3.176c-.156-1.141-.237-2.099-.173-2.646"/><path fill="#957EE8" d="M203.235 33.345s.207-2.263 1.74-2.554c-.413.486-.9 1.374-.949 2.554-.778.061-.791 0-.791 0"/><path fill="#B7A89E" d="m207.525 37.727-.009-.185-.005-.083-.017-.209-.005-.05-.029-.256-.006-.048a11 11 0 0 0-.053-.354l-.001-.008q-.031-.177-.068-.353l-.011-.053-.059-.26-.012-.047-.073-.273q-.059-.208-.125-.409l-.013-.042a13 13 0 0 0-.119-.333l-.02-.052a10 10 0 0 0-.231-.536l-.022-.048a6 6 0 0 0-.134-.261l-.082-.149-.038-.063-.073-.122-.037-.058-.085-.128-.025-.037-.115-.156q-.012-.017-.026-.033l-.1-.122-.035-.04q-.076-.087-.153-.163l-.063-.058-.047-.044q-.033-.029-.067-.056l-.045-.037q-.038-.029-.076-.055l-.036-.026-.115-.072a1 1 0 0 0-.14-.07l-.044-.017-.079-.027-.05-.014-.047-.01-.059-.008-.034-.004a1 1 0 0 0-.074 0h-.015a1 1 0 0 0-.083.01l-.021.004a1 1 0 0 0-.062.019l-.019.006a1 1 0 0 0-.074.036l12.111-7.038.006-.003a.4.4 0 0 1 .057-.028q.005-.002.01-.003l.02-.007q.014-.006.029-.01l.052-.012.011-.003.069-.007h.018q.028-.002.057-.001l.017.002q.017 0 .034.003l.033.003.027.007q.022.004.046.01.013 0 .026.004l.025.009q.039.011.079.027l.029.01q.007.003.015.007a1.5 1.5 0 0 1 .255.142l.036.026.077.055.044.037.068.056.046.043q.03.027.06.056l.003.003q.077.076.153.162.01.01.017.02l.019.022q.05.059.099.122l.021.025q.004.003.006.008a4 4 0 0 1 .119.161l.022.032.085.127.013.019.024.04q.039.059.074.12l.02.034.017.03.082.148.02.036.006.012q.055.104.108.214l.008.015.014.033q.049.102.095.206l.016.034.007.018a9 9 0 0 1 .113.277q.005.012.009.025l.01.027a10 10 0 0 1 .126.351l.007.025q.066.2.124.408l.007.023.009.037.056.213q.005.023.012.047.032.13.059.26l.004.02.006.032q.038.175.068.353l.002.009q.03.176.053.353l.004.03.002.018q.017.128.029.257l.005.051.017.208.005.082a6 6 0 0 1 .012.262q.004.128.003.255l-.002.575-12.11 7.037.002-.575a7 7 0 0 0-.006-.332"/><path fill="#CCBEB4" d="M205.293 32.45c-.618-.356-1.126-.067-1.128.644l-.032 11.313c-.001.297.209.66.467.81l2.438 1.407.469.27.015-5.495.008-2.765.002-.575c.006-2.297-1-4.893-2.239-5.608"/><path fill="#CCBEB4" d="m207.522 41.4-.015 5.495 13.794 7.964.015-5.495z"/><path fill="#DDD2CA" d="m207.53 38.635-.008 2.765 13.794 7.964.008-2.765z"/><path fill="#EEE5DE" d="m221.324 46.598 12.11-7.037-13.793-7.964-12.111 7.037z"/><path fill="#CCBEB4" d="M223.589 43.013c-1.238-.714-2.257.712-2.263 3.01l-.023 8.296-.002.54.469.27 2.438 1.408c.257.148.469.028.47-.268l.032-11.313c.001-.712-.503-1.586-1.121-1.943"/><path fill="#EEE5DE" d="m221.461 27.712-.108-.053-.061-.028-.098-.042q-.033-.014-.064-.025l-.073-.027a3 3 0 0 0-.242-.08l-.031-.007a3 3 0 0 0-.226-.053l-.037-.008a3 3 0 0 0-.192-.029l-.04-.003-.152-.011-.064-.002h-.109q-.032 0-.064.002l-.115.008-.054.006a2 2 0 0 0-.122.018q-.019.002-.037.006-.08.014-.157.034-.048.012-.094.027l-.045.013a3 3 0 0 0-.139.048l2.756-1.073q.067-.026.138-.049l.045-.013.09-.026h.004q.078-.02.157-.034.019-.004.037-.006.061-.011.123-.019l.013-.001.041-.004a2 2 0 0 1 .289-.01h.036l.028.001q.075.004.151.012.02 0 .04.003.094.01.192.029.006 0 .013.002l.024.006a3.4 3.4 0 0 1 .5.14l.026.008.047.02.063.024.099.043.061.028q.053.025.108.053.026.012.053.027.08.041.16.087l6.294 3.633q.095.056.189.116l.063.042q.062.041.122.084.037.026.074.054l.108.081q.039.03.076.063.05.04.1.082l.077.069q.048.041.095.085l.076.073a4 4 0 0 1 .254.259l.074.081.063.071.015.019a9 9 0 0 1 .244.302l.191.26q.007.012.015.023.063.093.125.19l.026.04q.073.115.143.235l.008.013.043.078.074.133.052.1.068.131.014.028.013.03q.099.204.187.414l.008.017.011.03q.086.207.158.417l.006.015.033.102q.02.055.037.112l.038.128.033.113.006.02.025.096q.017.066.033.133.014.06.026.117.016.066.03.133l.006.026.014.076q.016.083.029.164.01.053.017.108l.023.157.006.051.005.047q.013.123.024.247l.005.064q.01.15.014.303l.001.021v.212l-.004.143-.004.094q-.004.079-.011.158l-.006.078a6 6 0 0 1-.026.233l-2.756 1.074q.015-.117.026-.234.003-.04.006-.079.007-.078.011-.156l.004-.097.004-.141v-.103l-.001-.13a6 6 0 0 0-.014-.304l-.005-.064-.024-.248-.012-.098-.023-.158a5 5 0 0 0-.046-.272l-.02-.101-.029-.135-.026-.115-.035-.136q-.014-.057-.03-.113-.015-.058-.034-.115a6 6 0 0 0-.074-.24l-.038-.117a8 8 0 0 0-.159-.417l-.019-.048a9 9 0 0 0-.188-.414l-.027-.057-.068-.132-.051-.099-.075-.134-.051-.09a8 8 0 0 0-.143-.236l-.026-.04-.125-.19-.043-.06a5 5 0 0 0-.206-.278 6 6 0 0 0-.28-.337l-.073-.081-.088-.093-.074-.077-.092-.09-.076-.072q-.047-.044-.095-.086l-.077-.068q-.05-.043-.101-.082l-.075-.062-.109-.082-.072-.053q-.062-.044-.125-.085l-.06-.04a5 5 0 0 0-.189-.116l-6.293-3.633a4 4 0 0 0-.214-.112"/><path fill="#DDD2CA" d="M221.674 27.826c-2.071-1.195-4.029-.103-4.372 2.44l-.393 2.918 13.794 7.964.393-2.918c.343-2.543-1.058-5.575-3.129-6.77z"/><path fill="#B7A89E" d="m234.554 35.933.011-.007q.057-.032.116-.057h.001q.002 0 .004-.002a1 1 0 0 1 .105-.037q.006-.002.014-.003l.036-.009q.029-.007.057-.013l.034-.004.041-.006q.016-.002.031-.003.035-.002.068-.001h.041a1 1 0 0 1 .123.013l.035.008q.042.007.085.018.007.004.018.006l.082.029q.028.009.056.019l.02.01.026.01a1.7 1.7 0 0 1 .247.14l.034.024.07.053.038.032.064.056.037.034.023.022.024.026.075.08.023.025.02.025a1 1 0 0 1 .072.087l.023.031.031.043.021.029.035.052.021.033.009.013q.03.047.058.095l.004.006.011.02.055.101.017.034.016.03.035.078.008.016.003.005.06.156.02.052.011.038.014.047.009.03.012.05q.008.03.014.058l.006.02.007.042.015.088q.003.014.004.025l.006.055.003.04q.005.063.005.123l-.032 11.313c0 .148-.053.252-.137.3l-12.11 7.038c.084-.048.137-.152.137-.3l.032-11.313q0-.06-.005-.123l-.004-.04q-.004-.04-.009-.08l-.016-.089-.012-.062-.014-.057-.021-.081-.014-.046a3 3 0 0 0-.094-.25l-.008-.017-.05-.107-.018-.033-.054-.101-.012-.02q-.034-.06-.071-.116l-.022-.033-.055-.08-.031-.043-.051-.065-.044-.054-.043-.05-.075-.08q-.023-.024-.048-.047l-.037-.035-.064-.055-.038-.032q-.035-.028-.07-.053l-.034-.025a1.5 1.5 0 0 0-.247-.139l-.025-.011q-.038-.016-.077-.029a1 1 0 0 0-.184-.053l-.035-.008a1 1 0 0 0-.133-.012h-.03q-.05-.001-.099.004-.021.002-.041.005l-.091.017-.037.01q-.06.015-.119.04h-.004q-.065.028-.128.065z"/><path fill="#2D1A73" d="M225.209 17.206s-2.22.163-2.616 2.938.541 6.991.541 6.991 4.15.479 6.626-.418c-.513-1.545-.981-3.753-.847-6.14.133-2.388-2.095-3.87-3.704-3.37"/><path fill="#FFBAC6" d="M219.877 25.841s-.632 4.224-1.198 4.938c-.565.714-4.358 4.533-4.358 4.533s-.602-.18-1.115-.078c-.514.1-.67.11-.982.022s-.022.433.603.49c-.446.079-1.026.115-1.584-.05-.326-.073.572 1.04 1.904 1.031 1.332-.008 2.324-.733 2.324-.733s4.147-3.187 4.701-4.12c.553-.935 1.665-5.898 1.665-5.898zM213.273 37.442s-2.803 1.963-3.517 2.915c-.714.951-1.933 10.99-2.469 11.822 0 0-.802.821-1.962 1.699s-1.844 1.755-.907 2.23 2.245-.014 3.033-.98c.61-.67.952-.833 1.309-.908s1.071-.922.759-1.815c-.015-1.04 2.289-8.895 2.794-9.223.505-.327 5.415-4.1 5.415-4.1l-3.542-1.942z"/><path fill="#FFD1D9" d="M216.23 41.368s-5.187-.49-5.499-.38c-.313.112-1.955 2.517-4.632 4.592s-2.496 1.576-2.753 2.246c-.089.435.256 1.427-.391 1.795-.647.369-1.494.268-2.019 0-.524-.267-1.769.287-3.454-.405 0 0-1.174-.484-.788-1.644.253-.759 2.053.149 4.417-.58 0 0 .597.102 1.668-1.192s6.145-7.288 6.888-7.814 4.432-.303 4.432-.303l1.577-.543 1.64 3.053z"/><path fill="#2D1A73" d="M201.906 48.718c-2.442.335-3.825-.435-3.692-.892.134-.458.614-.528.614-.528-1.174-.013-1.972-.211-2.134.275-.386 1.16.788 1.644.788 1.644 1.685.69 2.93.137 3.454.405.525.268 1.372.368 2.019 0s.302-1.36.391-1.795c-.413.166-.514.757-1.44.891"/><path fill="#F9FAFB" d="M219.877 25.841s.625-2.755 1.791-2.766 3.986.803 5.236-.223c-.111.981-.357 1.94.156 2.276.513.334 2.856.87 3.19 1.985s0 3.66 0 3.66-1.026.267-2.018-.168c-.246.865-2.31 4.317-2.399 4.942-.089.624.714 5.242-2.654 5.822-3.369.58-5.414.149-6.949 0 .457-1.07.248-3.383-2.131-3.684-.349-.19-.579-.253-.825-.242 0 0 2.973-1.904 3.773-2.588s1.614-1.308 2.59-2.14c.56-.656.798-1.31.872-2.544-.357-.194-1.204-1.28-.282-2.514.431-.58.699-.981.803-1.235-.254-.03-.863-.224-1.153-.58"/><path fill="#FFBAC6" d="M227.06 25.128c-.513-.335-.268-1.294-.156-2.276-.605.497-1.576.562-2.551.498l-.32.527s-1.309-.323-1.204 1.594c.104 1.916 2.424 2.66 4.402 1.485.803-.476.86-1.398.259-1.629a2.7 2.7 0 0 1-.43-.2"/><path fill="#FFD1D9" d="M223.044 19.305c-.155.602-.178 1.54-.133 2.186-.294.67-.117 3.1.957 3.28 1.073.178 2.702-.536 3.036-1.92.624-.11.948-.446 1.015-.88.067-.436-.502-.636-.814-.257 0 0-2.332-.68-3.146-2.889-.39.402-.915.48-.915.48"/><path fill="#8F81FF" d="m213.872 34.972-3-.084 5.15 2.973 3 .085z"/><path fill="#fff" d="M219.374 38.001c.174.101.192.18.039.176l-2.981-.085c-.153-.004-.42-.09-.595-.19l-5.317-3.07c-.175-.102-.192-.18-.039-.176l2.98.084c.153.004.421.09.595.19zm-3.352-.14 3 .084-5.151-2.974-3-.084z"/><path fill="#332D4F" d="m219.505 38.159-.001.002-.019.008-.002.001-.028.005h-.003q-.017.002-.039.001l-2.981-.084-.059-.005-.007-.001a1 1 0 0 1-.091-.018l-.043-.01-.041-.011-.041-.012-.021-.007-.067-.024a2 2 0 0 1-.153-.065q-.002 0-.004-.002l-.067-.035-5.318-3.07-.034-.021-.003-.003-.028-.02-.011-.008-.014-.01q-.014-.012-.024-.023l-.003-.003-.014-.018-.003-.006-.006-.013-.001-.005a.03.03 0 0 1 .001-.016l-.089.244a.03.03 0 0 0-.001.016l.002.005.005.013.004.006.013.018.003.003.024.023.002.002.011.008.013.009.002.002.025.017q.003 0 .005.003l.017.01.016.01 5.317 3.07.008.005.023.013.024.012.012.006.004.002.009.004.026.013.027.012.01.004.006.002.013.005.03.012.033.013.038.014.028.01.022.007.012.003q.014.004.029.009l.041.011q.006 0 .01.003l.033.007.029.007.007.002.043.008q.006 0 .011.002h.007l.013.002.025.003h.021l2.981.085h.042l.009-.002.013-.002.005-.002.003-.001h.003q.006-.003.011-.005l.004-.004.002-.001.002-.002q.004-.004.006-.008l.002-.003.088-.244q0 .006-.009.012"/><path fill="#FFD1D9" d="M227.507 30.281s-.647 3.793-.982 4.373-5.22.736-6.507 1.003c-.282-.237-2.219-.163-2.364-.182s-.234.082-.148.22c.13.1 1.018.238 1.018.238s-2.097.989-2.335 1.1-.156.409 0 .372c.156-.038 1.629-.633 1.629-.633s.937.804 1.22.714 1.502-.743 1.502-.743 5.652.313 7.005-.134c.823-.272 1.773-3.25 2.337-5.79-1.082.198-2.375-.538-2.375-.538"/><path fill="#2D1A73" d="M205.486 54.73c-.557-.256-.387-.674-.387-.675-1.017.817-1.555 1.61-.681 2.054.937.476 2.246-.014 3.034-.98.61-.67.952-.834 1.309-.908s1.07-.922.759-1.815c0 0-.856.65-1.257 1.007-.647.558-2.22 1.573-2.777 1.317M231.867 54.117c.514-2.36 3.183-16.984 4.003-20.75l.568-2.61h-.709l1.127 6.684c.598 3.548 2.068 14.638 2.206 15.448.078.467.787.269.709-.195-.376-2.228-3.195-21.321-3.333-22.132-.06-.36-.634-.342-.709 0-.514 2.36-3.183 16.984-4.003 20.75l-.569 2.61c-.1.46.609.658.71.195"/><path fill="#2D1A73" d="m237.691 57.373-.419-8.224c-.222-4.37-.445-11.111-.667-15.482l-.153-3.01c-.024-.47-.759-.473-.735 0l.418 8.226c.223 4.369.445 11.11.667 15.48q.078 1.504.153 3.01c.024.471.76.474.736 0"/><path fill="#452D9D" d="M238.94 24.728a4 4 0 0 0-.266-.14l-.026-.013a5 5 0 0 0-.268-.117l-.024-.01-.02-.008a4 4 0 0 0-.215-.078l-.034-.01a6 6 0 0 0-.224-.07l-.037-.01-.123-.033-.075-.019-.136-.03-.052-.011-.014-.003-.125-.023q-.033-.008-.068-.013-.081-.015-.162-.026l-.033-.005h-.001q-.097-.014-.194-.024l-.04-.004-.155-.014h-.003l-.069-.005-.124-.008-.081-.004-.116-.004h-.009l-.066-.001q-.063-.002-.126-.001h-.083l-.119.003h-.022l-.054.003-.137.007-.082.006-.13.01-.045.004q-.016.002-.032.003l-.201.025-.033.004a6 6 0 0 0-.876.19l-.099.03-.044.013-.03.01q-.089.03-.175.062l-.037.013a5 5 0 0 0-.202.082l-.051.023q-.077.035-.151.071l-.055.028a4 4 0 0 0-.187.1l-.049.03q-.023.016-.045.028l-.074.047-.064.043-.068.049-.06.045-.064.05q-.028.022-.055.047l-.058.05-.025.022-.02.02-.092.09-.029.032a2 2 0 0 0-.11.128l-.021.028-.057.078-.028.044-.045.072q-.005.01-.012.02l-.015.03-.031.06-.024.051-.026.062-.012.028-.007.025-.019.058q-.01.027-.016.054l-.014.06-.008.031q-.002.011-.003.022l-.01.06-.007.054-.004.06-.003.036-.001.036-.012 4.26q0-.036.004-.072l.004-.06.007-.053.01-.061.011-.054.015-.06.015-.053.019-.058.02-.052.026-.062.024-.051q.015-.03.031-.06l.028-.05q.02-.037.044-.072l.028-.044a2 2 0 0 1 .187-.235l.03-.031q.044-.046.092-.092l.044-.04.058-.052.056-.047.063-.049.06-.045.069-.049q.031-.022.064-.043l.074-.047q.046-.03.094-.057.091-.054.186-.101l.056-.028q.074-.037.15-.07l.051-.024q.1-.042.203-.082l.036-.013q.087-.033.176-.062l.073-.023.099-.03.084-.025q.05-.014.101-.027l.085-.022.103-.023.086-.02.106-.02.081-.016q.113-.02.23-.036l.034-.004.201-.025.077-.008.131-.01.082-.006.135-.007q.04-.002.078-.003l.118-.003h.209a2 2 0 0 1 .19.005l.082.004.124.008.072.005.149.015.046.005q.097.01.193.024l.035.005.162.025.067.013.126.025.064.014.137.03.074.02q.062.014.124.033l.068.02q.097.028.192.06l.034.01q.108.037.215.078l.044.019q.137.054.268.117l.026.013q.137.066.267.14c.499.288.842.633 1.029.998q.168.332.166.673l.013-4.26c.001-.608-.397-1.214-1.196-1.675"/><path fill="#fff" d="M236.078 30.459a1.816 1.816 0 1 0 0-3.632 1.816 1.816 0 0 0 0 3.632"/><path fill="#613FDD" d="M240.685 26.482a1.265 1.265 0 0 1-.013.13l-.01.069-.013.06q-.007.034-.017.067l-.018.06-.021.068-.023.059q-.014.035-.03.07l-.026.057-.036.07-.031.055a1 1 0 0 1-.083.132q-.031.045-.065.089l-.029.038a3 3 0 0 1-.119.14l-.034.035a3 3 0 0 1-.155.15q-.032.03-.066.059l-.063.053q-.036.029-.072.056l-.069.052-.077.054-.074.05-.083.053-.107.065q-.104.06-.212.115l-.063.03a4 4 0 0 1-.171.082l-.058.026a5 5 0 0 1-.47.178l-.084.027q-.055.018-.112.034-.047.014-.095.027a6 6 0 0 1-.329.082l-.097.021q-.06.014-.12.024l-.093.017a6 6 0 0 1-.615.082q-.074.007-.149.012l-.093.006q-.077.005-.154.008-.044.002-.088.003-.067.002-.133.003-.048 0-.095.002l-.143-.002h-.086l-.133-.006-.091-.003-.145-.01-.079-.005-.172-.017-.049-.004a6 6 0 0 1-.22-.028l-.034-.005-.266-.044a6 6 0 0 1-.216-.044q-.078-.016-.155-.035l-.085-.021-.14-.037-.079-.023q-.11-.032-.217-.068l-.039-.012a7 7 0 0 1-.34-.128l-.077-.03a4 4 0 0 1-.176-.08l-.116-.058-.056-.028-.166-.091c-.908-.524-1.361-1.212-1.359-1.899l-.012 4.26c-.001.687.452 1.375 1.359 1.899a6 6 0 0 0 .222.119q.058.03.116.057.034.015.069.032l.107.048q.038.014.077.032.036.016.073.03l.023.01q.12.046.243.088l.038.012q.108.035.218.068l.037.01.042.012.14.038.085.021.156.035.057.013.016.003q.07.014.142.026l.077.015q.094.016.188.03l.033.005h.001q.11.015.22.028l.055.005.167.016h.005l.31.019.133.005h.323q.068 0 .134-.002h.025l.063-.004q.078-.003.154-.008l.093-.006.149-.012.052-.005q.018 0 .036-.004l.229-.027.037-.004q.132-.018.261-.042.011-.002.024-.003l.069-.013.12-.024.097-.021.118-.027.096-.025.115-.03.095-.027.112-.034.05-.015.034-.012q.101-.033.2-.07l.042-.015q.117-.044.229-.094l.058-.026q.087-.04.171-.08l.063-.032q.108-.055.212-.114l.056-.033.05-.032.084-.053.074-.05.078-.055.068-.05.072-.057.064-.053q.034-.029.066-.058l.027-.024.022-.022q.055-.051.105-.104l.033-.035a2 2 0 0 0 .125-.145q.013-.016.024-.033l.065-.09.032-.05q.026-.04.05-.08l.014-.024.018-.033a2 2 0 0 0 .062-.128q.016-.034.03-.07l.013-.03.009-.03.022-.066.018-.061.017-.067.008-.036.004-.025.01-.068a1 1 0 0 0 .013-.13q.002-.02.003-.041l.001-.041.012-4.26a1 1 0 0 1-.003.082"/><path fill="#fff" d="M239.33 24.501c1.805 1.042 1.814 2.731.021 3.772-1.792 1.042-4.708 1.042-6.512 0s-1.814-2.73-.021-3.772c1.792-1.04 4.708-1.04 6.512 0m-6.1 3.546c1.587.916 4.152.917 5.729 0 1.577-.916 1.568-2.403-.019-3.319-1.588-.916-4.153-.916-5.729 0-1.577.917-1.569 2.403.019 3.319"/><path fill="#452D9D" d="m167.542 116.47 5.321-3.072c.399-.231.766-.244 1.047-.082v-.001l1.453.839v.001c-.283-.169-.653-.157-1.057.076l-5.321 3.072c-.882.509-1.604 1.888-1.604 3.064v10.563c0 .66.229 1.122.585 1.31l-1.39-.808c-.387-.167-.638-.641-.638-1.335v-10.563c0-1.176.722-2.554 1.604-3.064"/><path fill="#613FDD" d="M167.381 130.93v-10.563c0-1.176.722-2.555 1.604-3.063l5.321-3.072c.404-.234.774-.245 1.057-.077v-.001l1.452.839c.33.202.538.651.538 1.283v10.563c0 1.176-.722 2.555-1.604 3.064l-5.321 3.072c-.393.227-.754.244-1.035.088l-1.427-.825c-.356-.185-.585-.647-.585-1.308"/><path fill="#C6C6C6" d="M175.659 127.513c.112-.065.203-.24.203-.389v-9.411c0-.15-.091-.219-.203-.154-.112.064-.203.24-.203.389v9.411c0 .149.092.219.203.154M170.518 130.481c.112-.064.203-.239.203-.389v-9.41c0-.15-.091-.219-.203-.154-.112.064-.204.239-.204.389v9.411c0 .149.092.218.204.153M173.946 128.502c.112-.064.203-.239.203-.389v-9.41c0-.15-.091-.219-.203-.154-.112.064-.204.24-.204.389v9.411c0 .149.092.218.204.153M172.232 129.492c.112-.064.203-.24.203-.389v-9.411c0-.149-.091-.218-.203-.153-.112.064-.203.239-.203.389v9.41c-.001.149.091.218.203.154"/><path fill="#B2B2B2" d="m171.157 115.203.304-.177v-10.898l-.304.175zM168.944 116.481l.304-.176v-10.899l-.304.175z"/><path fill="#878787" d="m171.157 115.203-.42-.243v-10.413l.42-.243zM168.944 116.481l-.421-.243-.005-10.411.426-.246z"/><path fill="#1D1D1B" d="m168.098 104.506 3.367-1.944c.085-.048.162-.052.221-.019l.425.246h-.001c-.059-.037-.139-.034-.225.016l-3.368 1.944c-.188.108-.341.4-.341.652v.168c0 .134.044.229.113.273h-.001l-.406-.235-.011-.006-.009-.005c-.066-.045-.108-.138-.108-.269v-.168c.003-.252.156-.544.344-.653"/><path fill="#452D9D" d="M168.177 105.569v-.168c0-.251.153-.543.341-.652l3.367-1.944c.087-.051.166-.053.226-.016.07.042.116.138.116.273v.169c0 .251-.153.543-.342.652l-3.367 1.944c-.088.05-.168.052-.228.015-.069-.044-.113-.139-.113-.273"/><path fill="#D78B8B" d="M173.428 102.082s-1.52.679-2.345.723c-.76 1.174-.869 1.129 1.215 1.389 1.51 0 2.492-.405 2.492-.405z"/><path fill="#545976" d="M188.276 126.761c.485.106 1.471.166 2.274-.778h.001s.289.753.437.976.572 1.379-.551 1.834c-1.166.382-1.676.424-2.142.69-.318.18-.908.417-1.486.547.053-.317.105-1.098.153-2.09 1.072-.544 1.315-.762 1.314-1.179M186.566 130.279s-.01.837.064 1.24.021 1.082-.626 1.453c-.488.297-1.007 1.113-1.421 1.77-.413.657-2.47 1.506-2.82.063-.35-1.442 1.919-2.025 2.286-4.68a2.42 2.42 0 0 0 2.517.154"/><path fill="#92A3BF" d="M185.334 109.677c.268.098-.458 4.187-.983 7.104-.812-2.905-2.082-8.743-2.082-8.743.195.622 2.675 1.499 3.065 1.639M188.275 126.76c-.186-.04-.299-.087-.299-.087s-.375-.959-.883-2.278c.052-1.754.084-3.387.084-4.028.289-.93.569-1.866.833-2.773-.028.101 1.387 3.565 2.851 7.955a3 3 0 0 1-.311.434c-.803.943-1.79.884-2.275.777"/><path fill="#A1B1CB" d="M182.887 107.586c.093-.554.158-1.193.202-1.885h.001c.652.18 1.747.449 2.743.531.371 2.153 1.221 3.819 1.805 4.09 1.002.236 1.767.199 2.352.021v.001s-.845 3.357-1.979 7.25c-.264.907-.545 1.843-.833 2.773 0 .641-.032 2.274-.084 4.028-.037 1.221-.082 2.5-.132 3.545-.048.992-.1 1.773-.153 2.09a1 1 0 0 1-.027.121 2.423 2.423 0 0 1-2.733-.026q-.09-.06-.179-.132c-.029-3.196-.142-9.316 0-10.447.044-.353.242-1.438.481-2.766.527-2.916 1.252-7.006.983-7.103-.389-.142-2.87-1.018-3.065-1.64.293-.018.552-.178.618-.451"/><path fill="#F5F5F5" d="M173.428 102.083a2 2 0 0 1-.015-.166c.427-.254.675-.362.675-.362.069.477.645 1.222 1.488 1.731v.001l-.785.502s-1.226-.739-1.363-1.706"/><path fill="#894948" d="m196.862 108.756.504-.328c-.074-.354-.267-.622-.531-.772.008.235-.021.463-.116.639.041.074.065.156.087.238q.01.044.017.087l.001.008a.3.3 0 0 0 .038.128m-.041-.148c-.002-.014-.002-.009 0 0M194.764 109.208l.011.004c-.076.282-.025.582.063.868l-.489.321a.4.4 0 0 1-.025-.055c-.192-.557-.246-1.174.076-1.695q.112-.179.262-.329c.032.048.26.402.102.886"/><path fill="#452D9D" d="M194.375 118.921s-1.104.102-1.274-.209-1.603-5.782-1.53-6.307c.006.235.146.618.337 1.036.546 1.642 1.933 5.295 2.467 5.48"/><path fill="#452D9D" d="M191.909 113.441c.351.763.87 1.637 1.037 1.907.212.382.679.283 1.909-.551.16-.109.392-.262.674-.445l.006.013a.35.35 0 0 0 .457.18l.165-.072a.35.35 0 0 0 .18-.457l-.063-.145c.901-.583 2.028-1.311 3.018-1.978l.019.044a.35.35 0 0 0 .457.18l.165-.072a.35.35 0 0 0 .179-.457l-.072-.165-.017-.03c.727-.506 1.299-.935 1.521-1.175 0 0 1.343 3.136 1.004 3.462-.34.325-7.819 5.33-8.101 5.245a.1.1 0 0 1-.07-.003c-.536-.185-1.923-3.839-2.468-5.481"/><path fill="#613FDD" d="m196.862 108.755.504-.327c1.195-.774 2.15-1.379 2.324-1.452.509-.213 2.079 2.589 1.951 3.097a.4.4 0 0 1-.098.145c-.222.24-.794.669-1.521 1.174a.347.347 0 0 0-.439-.148l-.165.072a.35.35 0 0 0-.18.457l.052.12c-.99.667-2.118 1.396-3.018 1.978l-.009-.02a.35.35 0 0 0-.457-.179l-.165.072a.35.35 0 0 0-.179.456l.066.152c-.283.183-.514.335-.675.444-1.23.835-1.697.934-1.909.551a21 21 0 0 1-1.036-1.906c-.191-.417-.332-.801-.337-1.036-.003-.1.02-.174.073-.211.158-.109 1.313-.877 2.703-1.793l.489-.322z"/><path fill="#F5D066" d="M200.111 111.588a.35.35 0 0 1-.179.457l-.165.072a.35.35 0 0 1-.457-.18l-.019-.044-.052-.12a.347.347 0 0 1 .18-.457l.165-.072a.347.347 0 0 1 .439.148l.017.031zM196.157 114.473l-.165.072a.347.347 0 0 1-.457-.18l-.006-.013-.066-.151a.347.347 0 0 1 .18-.456l.165-.072a.35.35 0 0 1 .457.179l.008.019.064.145a.35.35 0 0 1-.18.457"/><path fill="#D78B8B" d="M196.61 106.547s.208.568.225 1.109c.008.234-.021.463-.116.638a.6.6 0 0 1-.207.224c-.662.411-1.252.882-1.738.693l-.011-.003a1.03 1.03 0 0 0-.106-.891s-.69.657-1.103.594-.254-.318.043-.584 1.032-1.393 1.032-1.393c1.107.264 1.734-.156 1.981-.387"/><path fill="#F5F5F5" d="m184.115 91.688-.06.134a.6.6 0 0 1 .06-.134M185.814 96.515c-.87 2.863-.361 7.402 0 9.607l.019.109c-.995-.082-2.09-.351-2.743-.531h-.001c.055-.87.077-1.823.078-2.799.158.374.521 1.264.731 1.292.212.028.806-.368.778-.75s-.254-4.043-.184-5.16.05-4.552.128-4.645c.212-.042.339-.346.251-.547l.006.001c.025.01.13.107.323.932.785-.392 1.813-1.304 1.855-1.856q.013-.19-.008-.34c.637.699-.364 1.824-1.233 4.687M183.756 93.334c.103-.113.188-.278.286-.374-.018.087.013.242.125.494-.06.488-.425 4.136-.552 4.744-.112.54-.405 3.632-.448 4.488-.009-3.33-.251-6.854-.237-8.1.02-1.885.87-2.862.91-2.907h.001c-.147.48-.113 1.358-.085 1.654"/><path fill="#CE7878" d="M185.684 92.538c-.607.254-.815.551-.815.551s-.194-.237-.64-.208c-.273-.52-.232-.877-.174-1.058l.06-.134.001-.003c1.04-.002 2.143-.39 2.849-1.802-.141.495-.113.92-.113.92l.011.504c.085.308-.573.976-1.179 1.23M184.876 93.091l-.006-.001z"/><path fill="#BEC9DA" d="M187.054 92.168c-.043.551-1.071 1.463-1.856 1.855-.193-.825-.298-.92-.323-.931l-.006-.002s.207-.297.814-.551 1.265-.922 1.18-1.23c0 0 .138.182.182.519q.023.15.009.34"/><path fill="#B0BCD0" d="M174.02 101.438c2.149-1.287 4.604-2.463 4.71-3.014.849-4.094 2.185-6.596 2.185-6.596-.297 1.612.594 6.172.742 7.317-.081 1.738-5.622 4.169-5.834 4.169-.779.133-1.918-1.202-1.803-1.876"/><path fill="#BEC9DA" d="M180.915 91.828c.076-.4.811-1.025 1.766-.814.167.332.409.575.757.623q.197.028.401.04c-.04.046-.89 1.024-.91 2.908-.014 1.246.229 4.77.237 8.1a2 2 0 0 0-.003.206l.004.01a45 45 0 0 1-.078 2.798 19 19 0 0 1-.202 1.885c-.066.274-.325.434-.619.453a.935.935 0 0 1-.951-.644c-.043-1.93.488-7.104.339-8.25s-1.038-5.703-.741-7.315"/><path fill="#605F74" d="M184.167 93.455c-.112-.252-.143-.408-.125-.495.055-.055.116-.089.188-.079.445-.028.64.209.64.209.088.201-.039.505-.251.548-.078.092-.056 3.528-.128 4.644-.07 1.117.156 4.779.184 5.161.029.382-.565.778-.778.749-.21-.028-.573-.918-.731-1.291l-.004-.01c-.004-.028-.002-.1.003-.206.044-.855.336-3.947.449-4.488.128-.608.492-4.255.553-4.743"/><path fill="#D78B8B" d="M184.753 87.269c.763-.234 1.166-.268 1.166-.268s.565.82.522 1.668c-.013.353.071.65.071.65h.155s.396-.848.948-.848.805 1.215-.651 1.413c-.706 1.411-1.808 1.8-2.849 1.802h-.005l-.271-.01-.001.002h-.001a5 5 0 0 1-.402-.04c-.349-.05-.591-.291-.757-.624-.41-.822-.358-2.199-.286-2.621-.047-.403 0-1.632 0-1.632.384.417 1.101.703 2.361.508"/><path fill="#613FDD" d="M186.966 89.884c1.456-.198 1.202-1.414.65-1.414s-.947.849-.947.849h-.155s-.086-.297-.071-.65c.043-.85-.522-1.669-.522-1.669s-.403.036-1.167.269c-1.26.196-1.977-.09-2.358-.508-.569-.622-.393-1.533-.165-1.571.509.106 1.336-.806 2.673-1.166 2.375-.615 2.99 1.463 2.99 1.463 1.888 1.272.473 3.958-.078 4.312-.551.353-.961 1.003-.961 1.003s-.031-.423.111-.918"/><path fill="#F5F5F5" d="m196.626 105.737.109.675s-.041.057-.125.136c-.247.231-.874.651-1.981.387l-.093-.648c.749.148 1.744-.198 2.09-.55"/><path fill="#BEC9DA" d="M184.042 92.96c-.099.097-.182.262-.286.374-.029-.297-.064-1.176.084-1.656l.001-.003.271.01h.004l-.002.003a.6.6 0 0 0-.059.135c-.059.18-.099.538.174 1.057-.071-.01-.132.025-.187.08M191.347 109.423l.036-.046zM191.276 109.509l.04-.047zM191.722 108.821l.014-.029zM191.412 109.337q.016-.023.032-.045zM191.119 109.677l.045-.046zM191.684 108.894l.017-.033zM191.201 109.594l.042-.047zM191.599 109.05l.022-.038zM191.032 109.76q.025-.022.047-.044zM191.551 109.132l.024-.04zM191.756 108.749l.011-.021zM191.473 109.247"/><path fill="#BEC9DA" d="M187.637 110.321c-.583-.271-1.434-1.937-1.805-4.09l-.019-.109c-.36-2.205-.869-6.744 0-9.607s1.87-3.987 1.232-4.687c0 0 2.31 1.223 2.875 1.676s4.44 4.173 4.779 5.027c.34.855 1.923 6.284 2.036 7.047a.5.5 0 0 1-.109.159c-.346.353-1.341.698-2.09.55a1.4 1.4 0 0 1-.346-.115c-.621-1.838-1.93-5.882-2.333-6.242s-1.993-1.59-1.993-1.59l-1.061-.849s-.254 3.479.467 6.108c.587 2.14 1.404 4.645 1.674 6.236l.007-.007a2.7 2.7 0 0 1-.962.515c-.585.177-1.35.214-2.352-.022"/><path fill="#B0BCD0" d="M189.27 103.599c-.721-2.63-.466-6.108-.466-6.108l1.06.849s-.148 2.545.234 4.05c.382 1.506 1.993 5.621 1.696 6.278l-.028.06-.01.021-.021.044-.014.028-.021.042-.016.032-.022.041-.019.035-.023.042-.021.037-.025.043-.024.038-.032.05q-.022.034-.045.067l-.03.044-.032.043-.03.041-.035.044-.032.04-.038.045-.035.04-.041.045-.037.039-.043.045-.042.04-.045.042-.08.07-.008.007c-.271-1.589-1.088-4.094-1.675-6.234"/><path fill="#1E5F7E" d="m165.668 101.079.019.087-.004.002-.019-.087z"/><path fill="#1D5B7A" d="m165.663 101.081.019.087q-.016.005-.03.007l-.019-.087z"/><path fill="#1C5875" d="m165.633 101.087.019.088c-.078.011-.154-.026-.18-.091l-.019-.088c.025.066.102.103.18.091"/><path fill="#fff" d="M173.455 102.911c.158.06.249.222.203.36l-.422 1.264c-.046.137-.212.201-.37.141l-2.964-1.126c-.157-.06-.249-.222-.203-.359l.422-1.264c.046-.137.213-.202.371-.142zm-.549 1.498.423-1.264c.022-.066-.021-.143-.097-.172l-2.743-1.042c-.075-.028-.156.002-.178.068l-.423 1.264c-.022.066.022.144.098.173l2.743 1.042c.076.028.156-.003.177-.069"/><path fill="#957EE8" d="M173.232 102.972c.076.029.119.107.098.172l-.423 1.264c-.023.066-.102.097-.178.069l-2.743-1.042c-.076-.029-.12-.107-.098-.173l.422-1.264c.022-.066.103-.097.178-.068z"/><path fill="#EDEDED" d="m173.077 104.738.016-.008.025-.016q.007-.004.012-.009l.029-.028.004-.003.026-.039.035-.07a.2.2 0 0 1-.029.044l-.029.028-.012.008-.041.025-.027.011-.017.005-.023.005a.2.2 0 0 1-.036.005l-.025.001-.022-.001-.031-.003-.019-.003q-.023-.005-.047-.014l-2.965-1.127-.043-.02-.014-.007a.4.4 0 0 1-.046-.033l-.011-.011-.027-.028-.012-.016-.02-.028-.009-.018q-.008-.015-.013-.029l-.007-.019q-.005-.015-.007-.03l-.004-.019v-.051a.2.2 0 0 1 .01-.049l-.036.069a.3.3 0 0 0-.01.05v.016q-.001.018.001.034l.003.019.007.031.007.019.013.028.01.019q.009.014.019.027l.012.016.038.039q.021.017.045.032l.001.001.014.007q.017.01.036.017l.008.004 2.964 1.126.038.012.01.002.018.003.017.004.014.001.023.001.012.001.012-.002.037-.005.013-.002.01-.004.017-.005z"/><path fill="#D78B8B" d="M172.672 102.387s-.576.152-.924.173c-.347.022-.043.398.493.369.535-.028 1.259.131 1.36-.115z"/><path fill="#594A42" d="M106.596 70.974q0 .145-.007.291l-.009.198-.012.17-.018.198-.018.169-.027.199-.024.168-.036.2-.031.166q-.02.097-.044.196-.017.083-.038.167-.025.1-.053.199l-.044.162q-.03.102-.063.203l-.049.157-.074.21-.053.149q-.06.155-.123.309l-.022.054q-.076.18-.161.361l-.053.11-.123.25q-.035.069-.074.138-.058.11-.118.22-.035.063-.074.127a11 11 0 0 1-.235.389q-.071.114-.147.227l-.099.147a19 19 0 0 1-.435.596 6 6 0 0 1-.173.221q-.103.128-.211.255l-.038.046q-.124.144-.253.287l-.064.07-.231.248-.045.047q-.137.141-.278.281l-.069.068-.253.241-.051.048-.161.145q-.096.09-.196.176-.082.072-.166.143-.098.086-.201.17-.086.073-.175.142l-.208.168-.184.141q-.106.083-.215.164l-.192.14q-.109.08-.221.16l-.2.138-.229.156-.208.138q-.117.076-.236.152-.107.068-.216.136l-.241.15a21 21 0 0 1-.981.563l-.173.093q-.232.123-.467.245l-.158.08a29 29 0 0 1-1.258.593l-.19.084a32 32 0 0 1-1.313.535l-.164.061a25 25 0 0 1-.72.26q-.314.11-.635.214l-.05.017q-.288.093-.58.182l-.128.037q-.229.07-.459.136l-.218.06-.374.104-.246.064q-.176.046-.352.09l-.26.064-.344.083-.268.06q-.17.039-.34.076a25 25 0 0 1-.612.127q-.14.029-.28.055l-.339.063-.244.044q-.286.05-.573.097l-.178.03q-.369.058-.739.11l-.158.02q-.297.042-.599.078l-.225.027a37 37 0 0 1-.762.082q-.336.034-.673.062-.055.005-.11.009-.282.024-.566.042-.118.008-.235.015-.221.014-.444.026l-.264.013-.422.018-.279.01-.357.01a31 31 0 0 1-.939.012l-.363-.001-.283-.002-.374-.007-.275-.006-.344-.011-.29-.01-.348-.017a30 30 0 0 1-.64-.036l-.276-.017-.367-.028-.264-.02q-.19-.015-.383-.035l-.244-.022q-.218-.022-.434-.045l-.192-.02a37 37 0 0 1-1.245-.158l-.15-.023q-.242-.034-.48-.072l-.233-.038-.396-.066-.257-.046-.367-.067-.267-.052a26 26 0 0 1-.605-.123l-.404-.088-.255-.058q-.2-.046-.397-.093l-.248-.06-.636-.162-.506-.14-.12-.032q-.36-.104-.718-.214l-.192-.06a32 32 0 0 1-.73-.238 35 35 0 0 1-.694-.243l-.152-.056a28 28 0 0 1-.555-.211l-.216-.085-.224-.09-.29-.12-.225-.096q-.143-.061-.284-.124l-.22-.098-.284-.13-.214-.1-.284-.138-.206-.1-.291-.148-.191-.098q-.16-.084-.317-.17-.079-.04-.156-.084a24 24 0 0 1-.465-.261c-5.135-2.965-7.7-6.857-7.689-10.743l-.003 1.322c-.011 3.885 2.553 7.778 7.689 10.742q.23.134.464.262l.156.084a19 19 0 0 0 .507.267l.292.149.205.1.284.138.215.1q.14.066.283.13.11.05.22.099.142.063.285.124l.224.096.29.12.225.09q.053.023.106.043l.11.042q.275.107.554.21.077.03.153.058a29 29 0 0 0 1.425.481l.19.06q.358.11.72.214l.011.003.106.03.508.14.222.058.414.105.247.06.398.094.253.057q.202.045.406.087l.162.035.088.018.354.07.267.052q.183.035.368.067l.256.046.396.066.232.038q.242.038.485.073l.137.02.01.002q.287.04.573.077l.048.006q.311.039.624.075.1.011.2.02l.426.045.245.022.383.035.024.003.24.018q.183.015.366.028l.28.017.352.022.286.014q.174.008.347.015l.29.01.343.011.061.002.213.003a53 53 0 0 0 .656.01h.365a31 31 0 0 0 .649-.006l.29-.006.358-.01.138-.003q.07-.004.14-.006.21-.008.423-.019.132-.005.261-.013.224-.011.447-.025.116-.008.233-.015.284-.02.567-.043l.109-.008a43 43 0 0 0 .707-.066q.055-.004.11-.012a38 38 0 0 0 1.442-.172l.16-.021q.368-.053.737-.11l.179-.03q.288-.047.573-.097l.12-.021.124-.024q.169-.03.338-.063l.28-.055q.169-.034.338-.07.138-.028.275-.058.17-.037.34-.075l.268-.06.344-.083.26-.064.351-.09.247-.064.374-.104.218-.06.459-.136.127-.037q.292-.09.581-.183l.009-.002.04-.014q.319-.105.635-.215.099-.033.197-.069.264-.094.523-.19.083-.03.164-.062.331-.126.656-.258l.13-.053a31 31 0 0 0 .525-.223l.19-.083q.268-.119.531-.241.056-.027.11-.05.312-.149.618-.302l.158-.08q.235-.12.467-.246l.173-.093a26 26 0 0 0 .909-.519q.035-.023.072-.044l.241-.15q.11-.067.217-.136.12-.076.234-.152l.209-.138q.114-.077.227-.155l.202-.14q.111-.078.219-.158l.194-.142q.107-.08.213-.162l.185-.142q.104-.084.207-.167l.176-.143q.103-.084.201-.17l.167-.143q.1-.087.196-.176l.138-.125.023-.02.051-.048a15 15 0 0 0 .6-.59l.045-.047q.118-.124.231-.249l.064-.07q.129-.142.252-.287.02-.022.039-.046.107-.127.211-.255l.057-.071.043-.052.073-.098q.088-.113.173-.227l.105-.145a15 15 0 0 0 .403-.597q.046-.07.09-.143.075-.122.145-.245l.059-.1q.008-.016.016-.028.06-.11.118-.219.038-.069.074-.138.062-.125.123-.25.028-.054.054-.11.084-.18.161-.36l.021-.054a10 10 0 0 0 .129-.322l.048-.135q.039-.105.074-.211.026-.079.05-.157.033-.102.062-.204.023-.08.045-.162l.053-.199q.02-.083.038-.167l.043-.196.008-.035q.013-.064.024-.13.019-.1.035-.2.013-.083.024-.168.016-.099.027-.198l.019-.17a7 7 0 0 0 .029-.367q.006-.098.01-.197l.003-.063a6 6 0 0 0 .004-.23z"/><path fill="#341F12" d="m60.438 40.555 3.825-2.236 7.22 4.193 7.319 4.25-3.826 2.236-7.318-4.25z"/><path fill="#957EE8" d="m70.953 51.35-3.826 2.236-7.318-4.25-7.22-4.192 3.827-2.237 7.22 4.193zM104.678 57.217l-3.825 2.236-7.22-4.192-.098-.057-7.218-4.193 3.825-2.236z"/><path fill="#341F12" d="m36.894 54.318 3.825-2.236 7.22 4.192 7.318 4.25-3.826 2.237-7.318-4.25zM29.046 58.907l3.825-2.237 7.22 4.193 7.317 4.25-3.825 2.236-7.317-4.25z"/><path fill="#957EE8" d="m88.982 66.393-3.826 2.236-7.22-4.192-.098-.057-7.219-4.193 3.826-2.237 7.22 4.193.098.057z"/><path fill="#341F12" d="m47.507 65.17 7.219 4.192.099.058 7.219 4.192-3.826 2.237L51 71.656l-.098-.058-7.22-4.192z"/><path fill="#341F12" d="m130.125 76.569-7.318-4.25-3.826 2.237 7.318 4.25-4.023 2.35-7.318-4.249-3.825 2.237 7.318 4.25-4.023 2.35-7.318-4.249-3.825 2.236 7.318 4.25-4.022 2.351-7.318-4.25-3.827 2.237 7.318 4.25-4.022 2.351-7.318-4.25-3.826 2.237 7.319 4.25-4.022 2.35-7.318-4.25-3.924 2.295-14.636-8.5-14.636-8.5-14.636-8.5L21 63.494l4.022-2.35 7.319 4.25 3.825-2.236-7.32-4.25 4.024-2.353 7.319 4.25 3.825-2.236-7.318-4.25 4.022-2.352 7.32 4.25 3.825-2.236-7.319-4.25 4.022-2.351 7.319 4.25 3.826-2.237-7.32-4.25 4.024-2.351 7.319 4.25 3.826-2.237-7.319-4.25 4.022-2.352 7.32 4.25 3.923-2.292 14.635 8.5 14.636 8.5 14.636 8.5 14.734 8.556zM65.007 88.937l3.826-2.237-7.219-4.192-.1-.058-7.219-4.193-3.827 2.237zm-29.273-17 3.827-2.237-7.318-4.25-7.22-4.192-3.827 2.236zm14.636 8.5 3.827-2.237-7.22-4.192-.098-.057-7.22-4.192-3.826 2.236zm42.634-16.395 3.827-2.237-7.22-4.192-.098-.058-7.22-4.192-3.826 2.237 7.219 4.192.099.057zm-14.635-8.5 3.826-2.237-7.219-4.192-.099-.057-7.219-4.193-3.826 2.237 7.219 4.192.099.058zm47.733 23.263-7.219-4.193-7.318-4.25-3.827 2.238 7.318 4.249 7.219 4.192zm-46.46 18.631 3.826-2.236-7.219-4.192-.099-.058-7.219-4.192-3.826 2.237zm20.681-29.144.099.057 7.219 4.192 3.827-2.236-7.219-4.193-.099-.057-7.22-4.192-3.826 2.237zm-45.4 1.07 7.219 4.193.099.057 7.219 4.192 3.826-2.237-7.22-4.192-.098-.057-7.22-4.192zm7.849-4.588 7.219 4.193.099.057 7.219 4.192 3.825-2.237-7.219-4.192-.099-.057-7.219-4.192zm22.384 3.856 3.825-2.237-7.219-4.192-.099-.058-7.219-4.192-3.826 2.237 7.22 4.192.098.058zM51.43 62.876l-.098-.057-7.22-4.192-3.825 2.237 7.219 4.192.099.057 7.219 4.192 3.825-2.237zm15.696-9.175-.1-.057-7.218-4.193-3.826 2.237 7.22 4.192.098.058 7.22 4.192 3.825-2.237zm-7.848 4.587-.099-.057-7.219-4.192-3.826 2.236 7.22 4.193.098.057 7.22 4.192 3.825-2.237zm43.278 34.28-7.219-4.192-7.318-4.25-3.826 2.237 7.318 4.25 7.22 4.192zm7.849-4.588-7.219-4.192-7.318-4.25-3.826 2.237 7.318 4.25 7.219 4.192zm7.848-4.587-7.22-4.193-7.318-4.25-3.825 2.238 7.318 4.25 7.219 4.191zm-48.695-5.53 7.22 4.192.098.057 7.22 4.192 3.825-2.237-7.22-4.192-.098-.057-7.22-4.192zm7.849-4.588 7.219 4.192.099.058 7.219 4.192 3.826-2.237-7.22-4.192-.099-.057-7.218-4.193zm15.066-.395.1.057 7.219 4.192 3.825-2.236-7.219-4.192-.099-.058-7.219-4.192-3.826 2.237zM75.506 40.276l-3.825 2.236 7.22 4.192.098.057 7.22 4.193 3.824-2.236zm14.635 8.499-3.825 2.236 7.22 4.192.099.057 7.219 4.193 3.824-2.236zM54.294 78.143l.1.057 7.218 4.192 3.825-2.236-7.219-4.192-.099-.057-7.219-4.192-3.825 2.236zm-14.635-8.5.099.057 7.219 4.192 3.825-2.235-7.22-4.193-.098-.057-7.22-4.192-3.824 2.236zm55.05 27.513-7.219-4.192-7.318-4.25-3.825 2.236 7.319 4.25 7.219 4.192zm20.879-29.145 7.318 4.25 7.219 4.192 3.825-2.236-14.536-8.442zm-10.811-10.735-3.824 2.236 7.219 4.192.099.057 7.219 4.192 3.825-2.236zM68.93 86.643l.1.057 7.218 4.192 3.825-2.236-7.219-4.192-.099-.057-7.219-4.192-3.825 2.236z"/><path fill="#957EE8" d="m78.802 46.761-3.826 2.237-7.318-4.25-7.22-4.193 3.826-2.236 7.22 4.193zM90.042 48.718l-3.825 2.236-7.219-4.193-.099-.057-7.219-4.192 3.826-2.236zM52.59 45.143l3.826-2.236 7.22 4.193 7.317 4.25-3.826 2.236-7.318-4.25zM82.195 53.306l-3.826 2.236-7.219-4.192-.099-.058-7.219-4.192 3.827-2.236 7.219 4.192.098.057zM93.437 55.26l-3.826 2.238-7.22-4.192-.098-.059-7.22-4.192 3.827-2.237 7.22 4.193.097.058z"/><path fill="#957EE8" d="m86.218 51.069 7.219 4.192-3.826 2.237-7.22-4.193-.098-.058-7.22-4.192 3.827-2.237 7.22 4.193z"/><path fill="#341F12" d="m44.741 49.731 3.826-2.236 7.22 4.193 7.317 4.25-3.825 2.236-7.318-4.25z"/><path fill="#957EE8" d="m63.104 55.938-3.825 2.236-7.318-4.25-7.22-4.193 3.826-2.236 7.22 4.193zM74.346 57.893l-3.826 2.236-7.219-4.192-.099-.057-7.218-4.193 3.826-2.236 7.219 4.192.098.057zM85.589 59.85l-3.827 2.236-7.219-4.193-.099-.057-7.218-4.192 3.826-2.237 7.219 4.192.099.058z"/><path fill="#957EE8" d="m85.588 59.85-3.826 2.236-7.219-4.193-.098-.057-7.219-4.192 3.826-2.237 7.219 4.192.098.057zM55.256 60.525l-3.825 2.236-7.318-4.25-7.22-4.192 3.826-2.237 7.22 4.193zM96.83 61.805l-3.826 2.237-7.219-4.193-.098-.057-7.22-4.193 3.826-2.236 7.22 4.192.099.058zM66.5 62.481l-3.827 2.236-7.22-4.192-.097-.057-7.22-4.193 3.826-2.236 7.22 4.192.099.057zM108.074 63.76l-3.827 2.237-7.219-4.192-.099-.058-7.219-4.192 3.826-2.237 7.219 4.192.1.059z"/><path fill="#957EE8" d="m100.855 59.569 7.219 4.192-3.827 2.236-7.219-4.192-.099-.058-7.219-4.192 3.826-2.237 7.219 4.192z"/><path fill="#341F12" d="m77.74 64.438-3.825 2.236-7.22-4.193-.097-.058-7.22-4.192 3.825-2.236 7.22 4.192.098.058z"/><path fill="#957EE8" d="m77.74 64.438-3.825 2.236-7.22-4.193-.097-.058-7.22-4.192 3.825-2.236 7.22 4.192.098.058zM47.409 65.113l-3.826 2.236-7.317-4.25-7.22-4.193 3.825-2.236 7.22 4.193zM119.315 65.717l-3.826 2.237-7.219-4.193-.098-.057-7.219-4.193 3.825-2.236zM58.65 67.069l-3.826 2.236-7.219-4.192-.098-.057-7.22-4.193 3.827-2.236 7.219 4.192.099.058zM100.225 68.349l-3.827 2.237-7.218-4.192-.1-.059-7.219-4.192 3.826-2.236 7.219 4.192.1.058z"/><path fill="#957EE8" d="m100.225 68.349-3.827 2.237-7.218-4.192-.1-.059-7.219-4.192 3.826-2.236 7.219 4.192.1.058z"/><path fill="#341F12" d="m62.674 64.831 7.219 4.193-3.827 2.237-7.219-4.193-.098-.057-7.22-4.192 3.826-2.237 7.22 4.192z"/><path fill="#957EE8" d="m69.893 69.024-3.827 2.237-7.219-4.193-.098-.057-7.22-4.192 3.826-2.237 7.22 4.192.099.057zM39.56 69.7l-3.826 2.237-14.537-8.443 3.826-2.237 7.22 4.193zM111.467 70.306l-3.826 2.236-7.219-4.193-.099-.057-7.219-4.192 3.826-2.237 7.219 4.192.099.058zM81.134 70.98l-3.826 2.237-7.219-4.192-.098-.058-7.22-4.193 3.826-2.236 7.22 4.193.098.057zM50.802 71.656l-3.826 2.236-7.219-4.192-.098-.057-7.22-4.192 3.826-2.237 7.219 4.193.099.057zM122.709 72.261l-3.826 2.237-7.219-4.192-.099-.057-7.219-4.193 3.826-2.236 7.219 4.192.099.057z"/><path fill="#957EE8" d="m115.49 68.07 7.219 4.191-3.826 2.237-7.219-4.192-.099-.058-7.219-4.193 3.826-2.236 7.219 4.193zM92.376 72.938l-3.825 2.235-7.219-4.192-.1-.058-7.219-4.192 3.825-2.236 7.22 4.192.1.058z"/><path fill="#957EE8" d="m85.157 68.745 7.22 4.192-3.826 2.236-7.219-4.192-.1-.058-7.219-4.192 3.825-2.236 7.22 4.192zM62.044 73.613l-3.826 2.236L51 71.656l-.099-.058-7.22-4.192 3.826-2.236 7.219 4.192.099.058zM133.95 74.217l-3.825 2.237-7.219-4.193-7.318-4.25 3.826-2.236zM103.619 74.893l-3.826 2.236-7.22-4.192-.098-.057-7.22-4.193 3.827-2.236 7.219 4.192.099.057zM73.286 75.569l-3.826 2.236-7.219-4.192-.099-.057-7.219-4.193 3.826-2.237 7.219 4.193.099.057z"/><path fill="#341F12" d="m103.717 74.835-7.22-4.192 3.827-2.237 7.218 4.192.099.059 7.219 4.192-3.825 2.237-7.219-4.193z"/><path fill="#957EE8" d="m114.86 76.849-3.825 2.237-7.219-4.192-.099-.059-7.22-4.192 3.827-2.237 7.218 4.193.099.058z"/><path fill="#341F12" d="m69.992 69.082 7.219 4.192.099.058 7.219 4.192-3.826 2.237-7.219-4.192-.1-.058-7.219-4.192z"/><path fill="#957EE8" d="m84.529 77.524-3.826 2.237-7.219-4.192-.1-.058-7.219-4.192 3.827-2.237 7.218 4.192.1.058zM54.196 78.2l-3.825 2.237-14.538-8.442 3.827-2.237 7.218 4.192.1.057zM126.102 78.805l-3.825 2.236-7.219-4.192-7.318-4.25 3.826-2.236 7.317 4.25zM95.771 79.48l-3.826 2.237-7.219-4.193-.099-.057-7.219-4.192 3.827-2.237 7.218 4.192.099.058zM65.438 80.156l-3.825 2.236-7.22-4.192-.098-.057-7.22-4.193 3.826-2.236 7.219 4.192.099.058z"/><path fill="#341F12" d="m95.869 79.423-7.22-4.192 3.827-2.236 7.218 4.192.099.057 7.219 4.193-3.825 2.236-7.219-4.192z"/><path fill="#957EE8" d="m107.012 81.437-3.825 2.236-7.219-4.192-.099-.057-7.22-4.193 3.827-2.236 7.219 4.192.098.057z"/><path fill="#341F12" d="m62.143 73.67 7.22 4.192.098.058 7.22 4.193-3.826 2.236-7.219-4.193-.1-.058-7.219-4.192z"/><path fill="#957EE8" d="m76.68 82.113-3.825 2.236-7.219-4.193-.1-.058-7.219-4.192 3.826-2.236 7.22 4.192.098.058zM118.254 83.392l-3.826 2.237-7.219-4.192-7.318-4.25 3.826-2.237 7.318 4.25zM87.922 84.068l-3.826 2.237-7.219-4.192-.099-.057-7.219-4.193 3.827-2.236 7.219 4.192.098.057z"/><path fill="#341F12" d="m88.02 84.01-7.219-4.192 3.827-2.236 7.219 4.192.099.057 7.218 4.193-3.826 2.237-7.219-4.193z"/><path fill="#957EE8" d="m99.164 86.024-3.826 2.237-7.219-4.193-.099-.058-7.219-4.192 3.827-2.236 7.219 4.193.099.057zM68.833 86.7l-3.826 2.237-14.538-8.442 3.826-2.237 7.22 4.192.1.058zM110.406 87.98l-3.826 2.236-7.219-4.192-7.317-4.25 3.826-2.236 7.318 4.25zM80.073 88.656l-3.824 2.236-7.22-4.192-.099-.058-7.219-4.192 3.826-2.236 7.22 4.192.098.058z"/><path fill="#341F12" d="m76.78 82.17 7.219 4.192.099.058 7.219 4.192-3.826 2.236-7.22-4.192-.098-.058-7.218-4.192z"/><path fill="#957EE8" d="m91.317 90.613-3.826 2.235-7.22-4.192-.098-.057-7.218-4.193 3.825-2.236 7.219 4.192.099.058zM102.558 92.568l-3.826 2.237-7.22-4.192-7.317-4.25 3.826-2.237 7.318 4.25zM83.468 95.2l-3.826 2.237-14.536-8.443 3.825-2.236 7.22 4.192.098.058zM94.71 97.156l-3.826 2.236-7.22-4.192-7.316-4.25 3.825-2.237 7.318 4.25z"/><path fill="#1E0F56" d="m85.926 73.307-5.9-.742-13.613 4.172-.283.766 13.613-4.173 5.9.742 9.283 7.051.283-.765z"/><path fill="#452D9D" d="m85.644 74.072 9.282 7.051-1.275-.16-8.86-5.758-4.25-.534-12.618 3.057-1.793-.226 13.613-4.172z"/><path fill="#E8C2C1" d="m91.153 58.753-5.9-.742-13.612 4.172-.283.765 13.612-4.172 5.901.742 9.282 7.051.283-.765z"/><path fill="#452D9D" d="m90.871 59.517 9.282 7.052-1.274-.16-8.862-5.759-4.248-.533-12.618 3.057-1.793-.226 13.612-4.172z"/><path fill="#1E0F56" d="m62.759 70.727 1.418.174 5.51-15.32-1.418-.174zM93.88 58.544l-.468-.057-5.51 15.32.468.057.404-.35 5.51-15.32zM95.124 57.466l-5.51 15.32 15.349-13.313 5.51-15.32z"/><path fill="#452D9D" d="m110.473 44.153-5.51 15.32-15.35 13.313-.839.728-.404.35-.468-.057-23.725-2.906-1.418-.174-.002.572 16.967 2.078 5.907.723 3.057.374 16.798-14.57 5.51-15.32z"/><path fill="#4F37AC" d="m69.693 53.22-.056-.007-.072-.005-.069-.002-.034.001h-.033a1.4 1.4 0 0 0-.195.02h-.003l-.066.013q-.034.007-.067.017l-.069.02-.002.001-.004.001-.066.023q-.04.015-.078.034-.017.007-.034.017l-.02.01-.031.017a1 1 0 0 0-.1.062q-.006.007-.015.012-.02.016-.04.033a1 1 0 0 0-.206.225l-.03.045a1 1 0 0 0-.074.154l-5.51 15.32a1 1 0 0 1 .075-.155q.014-.023.03-.044.032-.05.072-.097l.04-.044q.044-.044.093-.084.02-.017.04-.033a1 1 0 0 1 .167-.102q.083-.043.177-.073l.003-.001a1.499 1.499 0 0 1 .428-.071h.01q.113-.002.232.012l22.872 2.8 5.509-15.319z"/><path fill="#1E0F56" d="M102.874 58.279c.322.039.645.169.908.385.596.492.673 1.249.171 1.685l-14.34 12.437-.84.729a1.4 1.4 0 0 1-.87.292l-23.726-2.905c-.78-.096-1.417-.705-1.414-1.354.002-.65.642-1.103 1.42-1.008l22.872 2.801 14.73-12.775c.28-.244.684-.338 1.089-.287"/><path fill="#4F37AC" d="m109.794 44.303-.002-.06-.006-.06-.006-.043-.001-.007-.002-.01-.012-.059-.015-.058-.012-.035-.002-.008-.005-.015-.022-.06-.026-.058-.013-.025-.006-.01-.012-.025-.037-.064-.043-.066h-.001l-.002-.003-.05-.068a1 1 0 0 0-.07-.08l-.002-.002q-.004-.005-.009-.009a2 2 0 0 0-.096-.095l-.047-.04a2 2 0 0 0-.197-.139l-.071-.037q-.056-.032-.114-.062l-.034-.013-.041-.017q-.032-.014-.066-.027a2 2 0 0 0-.109-.035l-.028-.007-.018-.005-.047-.012q-.044-.01-.085-.017-.04-.008-.08-.012l-.019-.003q-.029-.004-.058-.006l-.073-.005h-.028l-.042-.001h-.069l-.023.002-.016.001-.028.002-.067.007-.036.005-.014.002q-.01 0-.017.003l-.067.013-.044.01q-.007 0-.012.003l-.012.002a1 1 0 0 0-.111.036l-.015.006-.014.005-.077.032-.021.012-.026.013-.035.019-.045.027-.039.026-.015.01q-.043.031-.084.065L92.565 56.021l-5.51 15.32 14.731-12.776a1.1 1.1 0 0 1 .244-.16 2 2 0 0 1 .127-.055 1.4 1.4 0 0 1 .408-.083h.015a2 2 0 0 1 .135-.003h.014a1.6 1.6 0 0 1 .376.056l.019.004a2 2 0 0 1 .244.085q.076.035.148.075.036.018.07.037.104.063.198.14.077.064.144.135l.008.008q.068.075.123.15l.002.002q.053.076.093.156l.006.011q.04.078.066.157l.003.009a1.4 1.4 0 0 1 .042.168q.013.081.014.163v.002a1 1 0 0 1-.015.174q-.014.077-.039.151l5.51-15.32.01-.029a1 1 0 0 0 .023-.084l.007-.037.003-.017q0-.01.003-.02l.007-.07q.002-.033.002-.065v-.002q-.002.002-.002 0"/><path fill="#F09B9A" d="M68.61 65.738s-.8.595-1.454.815c-.655.22-1.8.344-2.22.349-.419.005-.293 1.355.757 1.606.773.193 1.57-.098 1.872-.078.301.02 2.101.27 2.405-.091.303-.36-1.36-2.602-1.36-2.602"/><path fill="#F2B9B8" d="M69.616 73.82s.301 1.916-.029 2.406-1.85 2.032-2.572 2.368c-.721.336-1.292 1.272.493 1.703.815.113 1.917-.352 2.391-.748s1.391-.86 1.708-1 1.154-.514.967-1.464c-.186-.951-.608-2.792-.587-3.278z"/><path fill="#452D9D" d="M90.153 51.865s-1.576 1.455-2.308 1.979c-.731.523-1.08.746-1.424.817s-4.555.817-5.831 1.22c-.058.667.678 1.28.678 1.28l4.8.991 5.82-6.873z"/><path fill="#B3B5BF" d="M84.015 56.45c-2.45.731-10.052-2.558-10.985-2.923-.933-.364-2.469-.606-2.99.526s-.256 2.875-.65 6.83c-1.599.235-1.546 1.906-1.353 2.987.193 1.08.83 5.86 1.34 9.877.547.875 2.791.57 3.228-.181.342-.731-.242-8.095-.02-8.141.22-.046 3.95.756 7.106 1.02 3.155.263 5.675-.956 5.675-.956.822-1.293.966-7.49-1.351-9.038m-10.841 4.243s.332-2.452.473-2.481c.528.236 4.832 2.526 5.282 2.547-1.437-.013-5.755-.066-5.755-.066"/><path fill="#613FDD" d="M94.334 50.768s.558.065 1.258 1.996c.701 1.931 1.237 3.864.959 5.373s-1.908 6.567-3.433 6.96c-1.138.238-3.088-.69-3.088-.69s-2.142.993-4.377 1.188c-.784-.083.05-1.42-.048-2.71-.096-1.29-.528-5.48-1.484-6.27-.585-.67.958-.744 1.606-.719s2.685-.995 3.227-2.072c.542-1.08 2.781-4.17 5.38-3.056"/><path fill="#452D9D" d="M88.127 61.219s2.999.239 3.153-.017c.153-.255 1.29-3.337 2.322-4.195-.496.821-1.425 3.71-1.6 4.292-.175.58-.515.849-3.875-.08M85.548 63.815l3.132 1.112c.814-.273 1.35-.52 1.35-.52l-4.424-1.523c.023.313-.009.63-.058.93"/><path fill="#F09B9A" d="M92.085 52.222s.403-.015.449.322c.045.336-.532 1.113.36 1.717.779.418 2.392-1.33 2.076-2.19-.316-.862-.404-.473-.635-1.302l-.442-.93z"/><path fill="#F2B9B8" d="M89.303 47.514s-.062 1.055.275 1.957c.013.772.011 3.05 1.334 2.987 1.322-.063 2.658-.77 2.742-2.108l.24-.511 1.326-1.383s-5.11-1.823-5.917-.942"/><path fill="#391E9E" d="M92.552 49.657s.222-1.696-.364-1.737-2.858.053-3.716-.971c-.857-1.025.05-2.681 1.318-2.452 2.094.683 4.167-.806 5.103 1.224 1.019.298 1.537 1.278 1.401 2.28-.137 1-2.006 2.315-1.96 2.768-.306-.514-.443-.93-.443-.93s.465-.856-.126-1.079c-.59-.223-.82.963-.82.963z"/><path fill="#A1A4B2" d="M73.605 58.275c-.175.254-.892 1.23-1.959 1.724-.697.322-1.582.453-2.219.505l-.036.378s2.103-.244 3.782-.19c0 0 .275-2.03.431-2.417"/><path fill="#957EE8" d="m74.139 56.92.045.05q.016.022.033.041l5.162 5.772q.068.075.133.074c.15.07.341.1.5.067l5.236-1.095c.12-.025.2-.081.229-.152l-.065.2-.002-.002c-.024.077-.103.14-.232.166l-5.236 1.095c-.232.049-.535-.037-.672-.19l-5.2-5.815c-.059-.065-.076-.132-.062-.191l.001-.002q.003-.016.012-.034l.052-.162q-.013.086.066.177"/><path fill="#452D9D" d="m74.183 56.97-.045-.051q-.078-.091-.066-.176l.003-.016a.8.8 0 0 0 .108.242M85.25 61.828l-5.237 1.095a.83.83 0 0 1-.5-.068.1.1 0 0 0 .053-.013l.128-.04q.012-.002.022-.006l.019-.007-.001-.001c.061-.033.11-.123.13-.262l.042-.282 2.717-.568c.137-.028.182-.125.102-.214l-2.331-2.607.06-.417.854.955c.036.04.115.063.177.05l1.377-.288c.062-.013.082-.057.046-.097l-1.367-1.529c-.037-.04-.116-.063-.177-.05l-.796.167.153-1.061a1.2 1.2 0 0 0-.02-.407l4.724 5.281c.066.074.082.151.054.216-.031.072-.11.128-.23.153"/><path fill="#23135C" d="M81.362 57.481c.062-.013.14.01.177.05l1.368 1.53c.036.04.015.084-.046.096l-1.378.288c-.061.013-.14-.01-.177-.05l-.854-.955.114-.792zM82.724 61.463c.08.09.035.187-.101.215l-2.718.568.488-3.39z"/><path fill="#D8EEFE" d="M75.042 50.04h.001zM80.72 56.586l-.154 1.06-.113.793-.06.417-.488 3.39-.041.282c-.02.14-.07.229-.131.262v.002l-.018.006q-.011.005-.022.006l-.128.04c.062-.033.111-.125.131-.264l.856-5.941c.038-.264-.043-.606-.18-.758l-5.161-5.772q-.084-.091-.161-.07l.16-.049v.002c.052-.018.111 0 .168.065l5.162 5.771c.07.08.126.209.158.352.03.133.04.279.021.406"/><path fill="#957EE8" d="m74.893 50.312-.855 5.941c-.022.15-.006.323.037.474a.8.8 0 0 0 .108.242q.016.023.033.041l5.163 5.772q.068.075.132.074a.1.1 0 0 0 .053-.014c.062-.033.112-.124.132-.263l.855-5.942c.038-.264-.043-.605-.18-.758l-5.161-5.771q-.085-.092-.16-.07h-.006l-.003.002c-.07.025-.126.12-.148.272m2.51 5.685c.191.452.155.898-.081.998-.237.1-.582-.186-.772-.637-.191-.452-.155-.898.081-.998s.582.187.772.637"/><path fill="#fff" d="M77.318 56.993c.235-.1.272-.546.081-.998-.19-.451-.536-.736-.772-.636s-.273.546-.082.997c.19.452.537.737.773.637"/><path fill="#F2B9B8" d="M86.06 60.876s-1.202-.863-1.617-1.27-1.501-.027-2.572-.338c-.595-.164.344 1.67 1.154 1.913s1.608.603 2.551 1.32c-.208-.838.485-1.625.485-1.625"/><path fill="#957EE8" d="M190.261 79.168c-.411-.237-.748-.045-.749.427l-.005 1.574-.005 1.704c.027-.027.544-.534.75-.415l5.436 3.139c.411.237.748.045.749-.427l.005-1.574c.001-.472-.334-1.052-.744-1.289z"/><path fill="#fff" d="M228.756 10.102c-.41-.237-.748-.046-.749.427l-.004 1.573-.005 1.705c.026-.027.543-.534.749-.415l5.436 3.139c.411.237.748.045.75-.428l.004-1.573c.002-.472-.333-1.052-.744-1.29zM168.968 54.264c-.411-.237-.748-.045-.749.427l-.005 1.574-.005 1.704c.027-.027.544-.534.75-.415l5.436 3.139c.411.237.748.045.749-.427l.005-1.573c.001-.473-.334-1.053-.744-1.29z"/><path fill="#331781" d="m161.259 49.437 1.442-.827V34.513l-1.442-.832z"/><path fill="#2E1478" d="m159.866 23.324-1.443.828 5.128 10.851 1.441-.828z"/><path fill="#452D9D" d="m158.424 24.152-5.127 4.931 2.292 1.323v15.758l5.67 3.273V33.681l1.442.832.85.49z"/><path fill="#957EE8" d="M162.507 47.425v4.924l1.143-.656v-3.608l.328.19zM161.895 40.792l-1.142.657 3.225 6.826 1.142-.656z"/><path fill="#6D4FD9" d="m160.753 41.449-3.225 3.101 1.47.85v4.924l3.509 2.026v-4.925l1.471.85z"/></g><defs><clipPath id="a"><path fill="#fff" d="M0 0h302v155H0z"/></clipPath></defs></svg>