<svg xmlns="http://www.w3.org/2000/svg" width="302" height="155" fill="none"><g clip-path="url(#a)"><path fill="#B9D8CD" d="M0 0h302v155H0z"/><path fill="#D3D8F9" d="M34.374 109.804v2.534l3.976 2.315-.01-2.534z"/><path fill="#9DAAE2" d="m38.34 112.121.011 2.534L62.4 100.761l-.01-2.533z"/><path fill="#F0EFF7" d="m34.374 109.805 3.966 2.316 24.048-13.893-3.966-2.306z"/><path fill="#D3D8F9" d="m38.33 114.596.01 2.533 3.977 2.306-.01-2.534z"/><path fill="#9DAAE2" d="m42.307 116.901.01 2.533 24.049-13.883-.01-2.533z"/><path fill="#F0EFF7" d="m38.33 114.596 3.977 2.305 24.048-13.882-3.967-2.316z"/><path fill="#9DAAE2" d="m252.645 115.838.807 2.42L138.3 186l.029-7.194z"/><path fill="#D3D8F9" d="M138.329 178.806 138.3 186 22 117.721l1.344-1.345z"/><path fill="#67AB92" d="m253.114 116.452-114.759 66.694-115.528-66.684 114.77-66.704z"/><path fill="#26511F" d="m80.227 117.387.01 3.458 19.428 11.287-.01-3.447z"/><path fill="#C3DFF4" d="m99.655 128.685.01 3.447 42.116-24.308-.01-3.458z"/><path fill="#23814E" d="m80.227 117.386 19.428 11.298 42.115-24.319-19.427-11.297z"/><path fill="#C3DFF4" d="M153.421 12.107c-1.63-.945-3.25-1.89-4.87-2.835-.726-.416-1.723-.353-2.824.27l4.87 2.835c1.111-.634 2.108-.686 2.824-.27"/><path fill="#23814E" d="m153.421 12.103-4.87-2.834a2 2 0 0 0-.322-.156l4.881 2.835c.104.041.218.093.311.155M153.1 11.96l-4.881-2.835c-.083-.031-.187-.052-.28-.073l4.87 2.835a.8.8 0 0 1 .291.073"/><path fill="#23814E" d="m152.829 11.877-4.87-2.835-.228-.031 4.88 2.835zM152.601 11.845l-4.88-2.835c-.062-.01-.135-.01-.197-.01l4.87 2.835c.073 0 .145 0 .207.01M152.393 11.835 147.523 9c-.062 0-.124 0-.187.01l4.881 2.835c.052-.01.114-.01.176-.01M152.217 11.846l-4.88-2.835c-.052 0-.115.01-.177.01l4.87 2.835c.062 0 .125-.01.187-.01M152.03 11.866l-4.87-2.835c-.062.01-.125.02-.177.031l4.881 2.835a.5.5 0 0 1 .166-.031"/><path fill="#23814E" d="m151.864 11.887-4.881-2.835-.155.032 4.87 2.834zM151.697 11.928l-4.87-2.835c-.052.01-.104.031-.166.041l4.88 2.835c.052-.01.104-.031.156-.041M151.532 11.97l-4.881-2.834c-.052.01-.103.031-.155.052l4.88 2.845c.062-.02.104-.052.156-.062"/><path fill="#23814E" d="m151.376 12.021-4.88-2.845c-.052.031-.104.042-.156.062l4.88 2.835a1 1 0 0 0 .156-.052M151.22 12.084l-4.88-2.835c-.052.02-.104.041-.156.073l4.88 2.834q.078-.043.156-.072"/><path fill="#23814E" d="m151.054 12.147-4.881-2.835c-.052.02-.104.052-.155.073l4.88 2.834a.6.6 0 0 0 .156-.072M150.898 12.23l-4.88-2.834-.156.093 4.87 2.835a1 1 0 0 1 .166-.094"/><path fill="#23814E" d="m150.732 12.314-4.87-2.835c-.041.02-.093.041-.135.062l4.87 2.835c.052-.02.093-.042.135-.062M63.696 120.448l.021 6.833c0 .311.031.592.083.851v.042c.052.249.125.477.218.695v.011c.083.176.197.322.312.467a1 1 0 0 0 .103.125c.135.145.28.259.436.363L59.99 127a2 2 0 0 1-.425-.353.8.8 0 0 1-.115-.145 1 1 0 0 1-.135-.166c-.052-.083-.114-.177-.155-.27 0-.011 0-.011-.01-.021-.032-.062-.053-.135-.084-.197a2 2 0 0 1-.073-.208 1.4 1.4 0 0 1-.051-.197c0-.031 0-.062-.01-.083v-.031c-.011-.021-.011-.042-.022-.083-.01-.063-.02-.125-.03-.198-.011-.062-.011-.124-.022-.187-.01-.062-.01-.124-.02-.187v-.207l-.021-6.822z"/><path fill="#26511F" d="m100.216 120.904-15.742-1.049 12.242-7.071z"/><path fill="#23814E" d="m102.604 92.619-3.987-2.316-2.389 28.295 3.988 2.305z"/><path fill="#23814E" d="m125.521 79.4-3.988-2.326-22.916 13.229 3.987 2.315z"/><path fill="#8EBED6" d="m102.604 92.618-2.388 28.285 27.018-15.596-1.713-25.907z"/><path fill="#C0DDFF" d="m117.754 100.635-17.538 20.268 27.018-15.596-1.713-25.907z"/><path fill="#DCC9A0" d="m154.73 67.907-4.88-2.845-91.023 52.562 4.87 2.824z"/><path fill="#584245" d="m151.012 16.749-4.87-2.835.145 49.125 4.87 2.835z"/><path fill="#62494D" d="m151.157 65.872-4.869-2.835-83.246 48.055 4.87 2.835z"/><path fill="#ADD3EA" d="m63.697 120.449.02 6.833c0 2.502 1.776 3.53 3.967 2.263l83.121-47.993c2.18-1.256 3.945-4.33 3.935-6.832l-.021-6.832z"/><path fill="#5C8FC6" d="m67.777 64.803.135 49.125 83.245-48.055-.145-49.125z"/><path fill="#237740" d="m67.912 112.89 82.352-47.546-.145-48.076-82.342 47.536z"/><path fill="#82B3B8" d="m67.778 64.803-4.88-2.835.145 49.125 4.87 2.835z"/><path fill="#92C8CE" d="m151.012 16.749-4.869-2.835L62.898 61.97l4.88 2.835z"/><path fill="#23814E" d="m63.541 67.202-4.87-2.835.156 53.258 4.87 2.824z"/><path fill="#C3DFF4" d="m150.607 12.375-4.88-2.834-83.11 47.993 4.87 2.834z"/><path fill="#E3F1FE" d="M150.607 12.375c2.191-1.257 3.967-.25 3.977 2.263l.145 53.257-91.032 52.552-.146-53.258c-.01-2.512 1.755-5.565 3.936-6.832zM67.912 113.926l83.246-48.055-.146-49.125-83.235 48.055z"/><path fill="#C3DFF4" d="M58.67 64.367v-.177c0-.062 0-.125.011-.197 0-.062.01-.125.021-.187.01-.062.01-.125.01-.197.01-.063.032-.135.042-.198v-.01l.031-.187c.01-.073.031-.135.042-.208.02-.072.03-.135.052-.207.01-.073.03-.135.052-.208a.8.8 0 0 1 .051-.166c0-.01.01-.02.01-.042.032-.062.042-.135.074-.207.02-.063.041-.135.062-.208q.043-.094.072-.187c.021-.062.052-.124.083-.197.021-.052.042-.094.053-.146 0-.01 0-.01.01-.01 0-.01 0-.02.01-.031.021-.062.063-.125.083-.187.042-.073.073-.145.104-.208.042-.083.083-.156.114-.239.052-.093.104-.176.156-.27 0 0 0-.01.01-.01.01-.02.021-.041.032-.073h.01c.093-.155.187-.311.29-.467.084-.114.157-.239.24-.343.01-.01.01-.02.02-.03a3 3 0 0 0 .166-.219c.052-.062.104-.135.156-.187l.146-.176c.051-.062.103-.114.155-.177l.032-.03c0-.011.01-.011.02-.022.042-.041.073-.083.114-.114l.167-.166c.062-.052.114-.114.176-.166.052-.052.114-.104.177-.145.03-.021.062-.052.093-.073.01-.01.01-.01.02-.01.022-.021.053-.042.063-.052.063-.042.114-.094.177-.135s.114-.084.176-.125c.052-.042.114-.073.177-.114.052-.031.104-.073.166-.104.01 0 .031-.02.041-.02l4.87 2.834c-.27.156-.53.343-.778.55-.01.01-.021.01-.032.021a7 7 0 0 0-.716.665l-.02.02a10 10 0 0 0-.665.79c-.01 0-.01 0-.01.01-.208.28-.395.57-.572.872-.01.01-.01.02-.01.031a8.6 8.6 0 0 0-.83 1.91l-.011.011a8 8 0 0 0-.229.966v.01a6 6 0 0 0-.072.956z"/><path fill="#476F99" d="M115.728 94.073c1.122-.643 2.025-.124 2.025 1.153s-.893 2.845-2.014 3.489c-1.111.644-2.015.124-2.025-1.163.01-1.267.903-2.835 2.014-3.479"/><path fill="#23814E" d="M115.635 94.064c1.069-.612 1.921-.114 1.921 1.09.01 1.226-.852 2.71-1.911 3.323s-1.921.114-1.931-1.1c.01-1.215.851-2.7 1.921-3.313"/><path fill="#FF66A8" d="M75.814 65.3c.914-.53 1.662-.115 1.672.944 0 1.05-.737 2.337-1.661 2.877-.914.53-1.662.104-1.672-.956 0-1.059.747-2.336 1.661-2.866"/><path fill="#FFB420" d="M80.009 62.881c.924-.53 1.671-.114 1.671.945 0 1.049-.737 2.347-1.661 2.876-.914.53-1.672.104-1.672-.955s.748-2.336 1.662-2.866"/><path fill="#70A6C5" d="M84.214 60.45c.914-.529 1.651-.103 1.662.956 0 1.049-.738 2.336-1.651 2.866-.925.54-1.662.104-1.672-.945 0-1.07.737-2.337 1.661-2.876M157.097 21.701v1.007l-5.431 3.136v-1.007zM157.096 19.789v1.007l-5.43 3.136-.011-1.008zM157.086 17.89v.997l-5.431 3.136v-1.007z"/><path fill="#26511F" d="m71.339 65.353 88.883-51.315.031 9.106L71.36 74.46zm8.68 1.35c.914-.53 1.662-1.817 1.662-2.876 0-1.06-.748-1.475-1.672-.945-.914.53-1.661 1.807-1.65 2.866 0 1.059.747 1.485 1.66.955m-4.194 2.43c.924-.53 1.66-1.817 1.66-2.876 0-1.06-.757-1.485-1.67-.945-.915.53-1.662 1.806-1.662 2.866.01 1.048.758 1.474 1.672.955m8.4-4.86c.914-.53 1.65-1.806 1.65-2.865 0-1.07-.747-1.485-1.66-.956-.925.53-1.662 1.807-1.662 2.876.01 1.05.748 1.485 1.672.945m72.861-45.386v-.997l-5.43 3.136v.997zm.011 3.82v-.996l-5.431 3.136v.997zm0-1.91V19.8l-5.431 3.136v.997z"/><path fill="#2D509E" d="m63.094 79.424-1.765-.997z"/><path fill="#2E53A3" d="m63.094 79.424-1.765-.997c.02.01.031.01.052.02l1.755.998a.1.1 0 0 1-.042-.021"/><path fill="#3055A8" d="m63.146 79.453-1.755-.996c.02 0 .031.01.052.02l1.755.997c-.02-.01-.042-.02-.052-.02"/><path fill="#3158AD" d="m63.198 79.464-1.765-.997c.02 0 .042.01.052.01l1.765.998c-.02 0-.041 0-.052-.01"/><path fill="#325AB3" d="m63.25 79.474-1.765-.997c.02.01.041.01.062.01l1.755.997c-.01 0-.041-.01-.052-.01"/><path fill="#345DB8" d="m63.302 79.484-1.755-.996h.063l1.765.996z"/><path fill="#355FBD" d="m63.364 79.484-1.765-.997c.02 0 .042-.01.073-.01l1.765.997c-.02 0-.041.01-.073.01"/><path fill="#3762C2" d="m63.437 79.474-1.765-.997c.031 0 .062-.01.083-.02l1.765.996c-.031.01-.052.021-.083.021"/><path fill="#3865C7" d="m63.52 79.455-1.765-.997a.5.5 0 0 0 .114-.042l1.765.997c-.041.02-.072.041-.114.041"/><path fill="#3A67CC" d="m63.634 79.423-1.765-.997c.042-.02.094-.041.135-.062l1.765.996c-.041.01-.093.042-.135.063M63.77 79.352l-1.766-.996c.115-.063.218-.156.312-.25l1.755.997a1.3 1.3 0 0 1-.301.25"/><path fill="#3865C7" d="m64.082 79.103-1.755-.997c.03-.031.072-.072.104-.114l1.765 1.007a1 1 0 0 0-.114.104"/><path fill="#3762C2" d="m64.185 79-1.766-1.007c.032-.032.052-.052.073-.094l1.765.997c-.02.041-.052.073-.072.104"/><path fill="#355FBD" d="m64.258 78.896-1.765-.997a.3.3 0 0 1 .072-.083l1.755.996c-.02.032-.041.063-.062.084"/><path fill="#345DB8" d="m64.32 78.812-1.755-.997c.01-.03.032-.052.052-.083l1.755.997a.2.2 0 0 1-.052.083"/><path fill="#325AB3" d="m64.372 78.73-1.755-.997c.021-.03.031-.052.052-.083l1.765.997c-.03.031-.041.062-.062.083"/><path fill="#3158AD" d="m64.424 78.656-1.765-.997c.01-.03.03-.052.041-.083l1.755.997c-.01.02-.02.052-.031.083"/><path fill="#3055A8" d="m64.466 78.574-1.755-.997a.3.3 0 0 1 .041-.083l1.766.997c-.021.031-.042.052-.052.083"/><path fill="#2E53A3" d="m64.507 78.49-1.765-.996a.3.3 0 0 0 .041-.083l1.765.997a.3.3 0 0 0-.041.083"/><path fill="#2D509E" d="m64.548 78.407-1.765-.997c.01-.03.021-.062.031-.083l1.755.997c0 .031-.01.052-.02.083"/><path fill="#2B4D99" d="m64.58 78.325-1.755-.997.031-.094 1.755.997z"/><path fill="#2A4B94" d="m64.61 78.23-1.764-.996.03-.094 1.756.997c-.01.031-.01.062-.021.094"/><path fill="#28488F" d="m64.632 78.138-1.755-.996c.01-.042.02-.073.02-.115l1.756.997c0 .042-.01.083-.021.114"/><path fill="#27468A" d="m64.662 78.033-1.754-.997c.01-.041.02-.083.02-.124l1.755.996a.4.4 0 0 0-.02.125"/><path fill="#254385" d="m64.683 77.899-1.754-.997c.01-.063.01-.125.01-.187 0-.301-.114-.509-.28-.603l1.765 1.008c.166.093.28.3.28.602-.01.052-.01.114-.02.177"/><path fill="#3A67CC" d="m61.35 80.773-1.755-.997a2 2 0 0 0 .312-.25l1.755.997a1.8 1.8 0 0 1-.312.25"/><path fill="#3865C7" d="m61.672 80.523-1.755-.997c.032-.041.073-.072.104-.114l1.765.997c-.051.041-.083.083-.114.114"/><path fill="#3762C2" d="m61.776 80.42-1.766-.996c.031-.032.052-.063.083-.094l1.755 1.007a.3.3 0 0 0-.072.083"/><path fill="#355FBD" d="m61.849 80.317-1.755-1.007c.02-.021.041-.063.062-.084l1.755.997a.4.4 0 0 1-.062.094"/><path fill="#345DB8" d="m61.911 80.234-1.755-.997c.021-.031.042-.052.052-.083l1.755.997c-.02.03-.031.062-.052.083"/><path fill="#325AB3" d="m61.963 80.15-1.755-.996a.3.3 0 0 0 .041-.084l1.755.997a.2.2 0 0 1-.041.083"/><path fill="#3158AD" d="m62.015 80.067-1.755-.997a.3.3 0 0 0 .041-.083l1.755.997c-.02.031-.031.062-.041.083"/><path fill="#3055A8" d="m62.056 79.994-1.755-.996c.01-.032.031-.052.042-.084l1.755 1.008c-.01.02-.032.041-.042.072"/><path fill="#2E53A3" d="m62.098 79.91-1.755-1.007c.01-.03.03-.052.041-.083l1.755.997c-.02.042-.031.062-.041.094"/><path fill="#2D509E" d="m62.129 79.828-1.755-.997a1 1 0 0 1 .031-.083l1.765.996c-.02.032-.02.052-.041.084"/><path fill="#2B4D99" d="m62.17 79.745-1.765-.997.031-.093 1.755 1.007c-.01.02-.01.052-.02.083"/><path fill="#2A4B94" d="m62.191 79.661-1.755-1.007.032-.093 1.754.996c0 .032-.01.063-.03.104"/><path fill="#28488F" d="m62.222 79.559-1.755-.997c.01-.042.021-.073.021-.114l1.755 1.007c0 .031-.01.062-.02.104"/><path fill="#27468A" d="m62.253 79.454-1.755-1.007c.01-.042.021-.083.021-.135l1.755.997c-.01.052-.01.093-.02.145"/><path fill="#254385" d="m62.274 79.319-1.755-.997c.01-.062.01-.125.01-.187 0-.301-.114-.509-.28-.602l1.755.997c.176.103.28.311.28.612 0 .052-.01.115-.01.177"/><path fill="#752289" d="m61.33 78.595-1.766-.997c.052-.031.093-.052.135-.073l1.765.997c-.052.031-.093.052-.135.073"/><path fill="#722285" d="m61.465 78.531-1.765-.997a.5.5 0 0 1 .114-.041l1.765.997c-.041.01-.083.03-.114.041"/><path fill="#6F2182" d="m61.568 78.49-1.765-.997c.031-.01.052-.01.083-.02l1.765 1.007c-.02 0-.051.01-.083.01"/><path fill="#6C207F" d="m61.651 78.48-1.765-1.008c.031 0 .042-.01.073-.01l1.755.997c-.01.01-.031.01-.063.02"/><path fill="#691F7B" d="m61.724 78.459-1.755-.997h.063l1.765 1.007c-.031-.01-.052-.01-.073-.01"/><path fill="#661E78" d="m61.787 78.47-1.765-1.008c.02 0 .041.01.062.01l1.755 1.007c-.01-.01-.032-.01-.052-.01"/><path fill="#631D74" d="m61.849 78.47-1.755-1.008c.01.01.03.01.052.01L61.9 78.48c-.021 0-.032 0-.052-.01"/><path fill="#601C71" d="m61.9 78.49-1.754-1.008c.02 0 .031.01.052.02l1.755.998c-.021-.01-.042-.01-.052-.01"/><path fill="#5D1C6D" d="m61.942 78.5-1.755-.998c.021.01.032.01.052.021l1.766.997a.2.2 0 0 1-.063-.02"/><path fill="#5B1B6A" d="m61.994 78.522-1.755-.997 1.766 1.007z"/><path fill="#4C1659" d="m60.686 80.85-1.766-1.008c-.166-.094-.28-.301-.28-.602 0-.063 0-.125.01-.187l1.755 1.007c0 .062-.01.124-.01.187.01.29.114.498.29.602"/><path fill="#4F175C" d="m60.405 80.06-1.755-1.008c0-.042.01-.083.021-.135l1.765 1.007c-.02.052-.02.093-.03.135"/><path fill="#521860" d="m60.437 79.935-1.766-1.008c.01-.03.021-.072.032-.114l1.754 1.007a.4.4 0 0 0-.02.115"/><path fill="#551963" d="m60.458 79.821-1.755-1.007.03-.094 1.756.997c-.01.042-.021.073-.031.104"/><path fill="#581A67" d="m60.489 79.717-1.755-.997a1 1 0 0 1 .031-.083l1.755.997a1 1 0 0 1-.031.083"/><path fill="#5B1B6A" d="m60.52 79.634-1.754-.997c.01-.031.02-.063.03-.083l1.766.996a.2.2 0 0 0-.041.084"/><path fill="#5D1C6D" d="m60.55 79.55-1.764-.997a.3.3 0 0 1 .041-.083l1.755.997a1 1 0 0 0-.031.083"/><path fill="#601C71" d="m60.593 79.457-1.755-.996c.01-.021.031-.052.041-.084l1.755 1.008c-.02.02-.03.052-.041.072"/><path fill="#631D74" d="m60.624 79.384-1.755-1.007c.01-.02.03-.052.041-.083l1.765.997c-.02.041-.03.073-.051.093"/><path fill="#661E78" d="m60.676 79.3-1.765-.996c.02-.021.03-.053.052-.073l1.765.997a.3.3 0 0 0-.052.072"/><path fill="#691F7B" d="m60.717 79.218-1.765-.997c.02-.031.042-.052.052-.083l1.755.997c0 .03-.02.062-.042.083"/><path fill="#6C207F" d="m60.78 79.145-1.756-.997c.021-.03.042-.062.063-.083l1.755.997a1 1 0 0 0-.063.083"/><path fill="#6F2182" d="m60.842 79.052-1.755-.997a.4.4 0 0 1 .073-.093l1.765 1.007a.3.3 0 0 0-.083.083"/><path fill="#722285" d="m60.914 78.96-1.765-1.008c.031-.041.062-.073.104-.114l1.755.997c-.032.052-.063.083-.094.124"/><path fill="#752289" d="m61.019 78.845-1.755-.997c.093-.104.207-.187.311-.25l1.765.997a1.6 1.6 0 0 0-.322.25"/><path fill="#2D509E" d="m58.266 82.27-1.755-1.008 1.765 1.007z"/><path fill="#2E53A3" d="m58.276 82.27-1.755-.997c.021.01.032.02.052.02l1.755.998c-.02 0-.03-.01-.052-.021"/><path fill="#3055A8" d="m58.328 82.29-1.755-.997c.021.01.031.01.052.01l1.755 1.008c-.02-.01-.041-.021-.052-.021"/><path fill="#3158AD" d="m58.37 82.31-1.755-1.007c.02 0 .03.01.052.01l1.755 1.007c-.01 0-.032-.01-.052-.01"/><path fill="#325AB3" d="m58.422 82.32-1.755-1.007c.02 0 .041.01.062.01l1.766.998z"/><path fill="#345DB8" d="m58.484 82.322-1.766-.996h.063l1.765.996z"/><path fill="#355FBD" d="m58.547 82.32-1.766-.996c.021 0 .052-.01.073-.01l1.755 1.007z"/><path fill="#3762C2" d="m58.62 82.321-1.756-1.007c.021-.01.063-.01.083-.02l1.755.996c-.031.02-.052.02-.083.031"/><path fill="#3865C7" d="m58.702 82.3-1.755-.996a.5.5 0 0 0 .114-.042l1.755 1.007c-.041.01-.083.021-.114.032"/><path fill="#3A67CC" d="m58.816 82.26-1.755-1.008c.042-.02.084-.042.136-.062l1.754 1.007c-.052.02-.093.052-.135.062"/><path fill="#3A67CC" d="m58.94 82.196-1.754-1.007q.171-.094.312-.25l1.754.997a1.5 1.5 0 0 1-.311.26"/><path fill="#3865C7" d="m59.263 81.948-1.755-.996c.041-.042.062-.073.104-.115l1.765.997c-.052.042-.083.083-.114.114"/><path fill="#3762C2" d="m59.356 81.833-1.765-.996c.031-.032.052-.063.072-.094l1.755.997a.25.25 0 0 1-.062.093"/><path fill="#355FBD" d="m59.439 81.74-1.755-.996c.02-.031.042-.052.062-.094l1.755 1.007c-.02.032-.041.052-.062.084"/><path fill="#345DB8" d="m59.491 81.657-1.755-1.007a.2.2 0 0 0 .052-.083l1.755 1.007c-.01.031-.031.052-.052.083"/><path fill="#325AB3" d="M59.554 81.574 57.8 80.567c.021-.02.032-.052.052-.073l1.755.997c-.02.031-.041.052-.052.083"/><path fill="#3158AD" d="m59.605 81.49-1.754-.996c.01-.031.03-.052.041-.083l1.755 1.007a.2.2 0 0 0-.042.073"/><path fill="#3055A8" d="m59.647 81.418-1.755-1.008c.02-.02.031-.051.042-.083l1.755.997a.4.4 0 0 0-.042.094"/><path fill="#2E53A3" d="m59.688 81.335-1.754-.997c.01-.031.02-.052.03-.083l1.766.997c-.02.02-.031.052-.042.083"/><path fill="#2D509E" d="m59.72 81.252-1.766-.997c.01-.03.02-.051.031-.093l1.755 1.007c.01.021-.01.052-.02.083"/><path fill="#2B4D99" d="m59.75 81.169-1.754-1.007c.01-.032.02-.052.031-.084l1.755.997c-.01.031-.01.063-.031.094"/><path fill="#2A4B94" d="m59.792 81.075-1.754-.997c0-.042.02-.062.02-.094l1.755.997a.3.3 0 0 0-.02.094"/><path fill="#28488F" d="m59.813 80.972-1.755-.997c.01-.041.02-.072.031-.104l1.766.997c-.021.031-.032.073-.042.104"/><path fill="#27468A" d="m59.844 80.867-1.765-.996a.6.6 0 0 0 .02-.135l1.756 1.007c0 .041 0 .083-.01.124"/><path fill="#254385" d="m59.865 80.743-1.755-1.007c.01-.062.01-.125.01-.187 0-.301-.114-.509-.28-.613l1.765 1.007c.166.094.27.302.28.603a1.3 1.3 0 0 0-.02.197"/><path fill="#BBD2FF" d="M97.88 55.168c.966-.571 1.765-.125 1.775.997l.042 3.894-43.891 25.875-.042-3.893c-.02-1.122.758-2.492 1.724-3.063zM63.77 79.35c.519-.311.934-1.038.924-1.64-.01-.603-.426-.841-.955-.53-.52.301-.935 1.049-.924 1.64 0 .603.436.842.955.53m-2.42 1.423c.52-.312.935-1.049.935-1.64-.01-.603-.436-.842-.955-.54-.52.3-.935 1.048-.924 1.64 0 .602.425.84.944.54m-2.409 1.422c.52-.311.935-1.048.925-1.64-.01-.602-.437-.841-.956-.53-.519.301-.934 1.038-.934 1.64.02.593.446.832.965.53"/><path fill="#FF66A8" d="M63.738 77.182c.52-.301.945-.062.956.53.01.602-.405 1.329-.925 1.64-.519.312-.955.063-.955-.53-.01-.602.405-1.339.924-1.64"/><path fill="#70A6C5" d="M61.33 78.594c.518-.312.944-.063.954.54.01.591-.405 1.329-.934 1.64-.52.301-.945.063-.956-.53 0-.602.416-1.339.935-1.65"/><path fill="#FFB420" d="M58.92 80.016c.52-.311.945-.073.956.53 0 .592-.405 1.34-.924 1.64-.52.301-.945.063-.956-.53-.01-.591.405-1.339.924-1.64"/><path fill="#D7E9FF" d="m55.764 82.04.041 3.893 43.902-25.865.353 29.551c.01 1.122-.758 2.482-1.724 3.063l-40.392 23.81c-.966.561-1.765.125-1.775-.997z"/><path fill="#91A2C5" d="m85.533 90.46.01 1.464-25.969 14.994-.01-1.474zM85.523 87.128l.01 1.484-25.969 14.994-.01-1.484zM85.513 83.825l.01 1.464-25.97 14.994v-1.475zM85.492 76.08l.01 1.474-25.969 14.993v-1.474zM85.503 79.402l.01 1.475-25.97 14.994-.01-1.475zM96.26 78.695l.02 6.636-8.981 5.191-.021-6.635zM96.24 69.86l.01 6.635-8.982 5.192-.01-6.635z"/><path fill="#000" d="m141.678 43.88-.011-3.053c0-1.371-.965-1.911-2.16-1.226l-17.963 10.373c-1.194.686-2.15 2.347-2.139 3.707l.01 3.043.094 33.113c0 1.37.965 1.92 2.159 1.236l17.964-10.374c1.194-.685 2.149-2.346 2.139-3.707zm-19.74 14.432.084 29.677zm8.702 22.149 1.942-1.111zl.01 1.652z" opacity=".1"/><path fill="#D7E9FF" d="m120.952 54.877 22.252-12.855.093 33.113c0 1.371-.955 3.022-2.149 3.707l-17.964 10.374c-1.184.695-2.149.145-2.149-1.226zm9.449 27.298-.083-29.676-6.843 3.956.083 29.677zm10.404-14.672-.041-13.8-8.65 4.995.042 13.8zm.01 4.06-.01-1.65-8.649 4.994.01 1.64zm-.072-23.487v-1.651l-8.65 4.994v1.64zm.083 27.194v-1.64l-8.65 4.994.011 1.651zm-.062-23.487v-1.651l-8.65 4.994.01 1.651z"/><path fill="#FFB420" d="M123.443 49.445c.55-.311.997-.062.997.56.01.634-.436 1.392-.997 1.714-.54.312-.986.062-.997-.571.021-.613.457-1.391.997-1.703"/><path fill="#FF66A8" d="M126.683 47.587c.54-.311.987-.062.987.56 0 .634-.447 1.392-.987 1.704-.55.322-.996.072-1.007-.56.011-.624.457-1.392 1.007-1.704"/><path fill="#91A2C5" d="m140.815 73.62.011 1.65-8.65 4.995v-1.65zM140.805 69.922l.01 1.64-8.649 4.995v-1.65zM140.763 53.705l.041 13.8-8.649 4.994-.042-13.8zM140.753 50.13l.01 1.652-8.649 4.994-.01-1.65zM140.742 46.426v1.65l-8.639 4.995-.01-1.651z"/><path fill="#BBD2FF" d="M141.044 37.755c1.194-.695 2.16-.145 2.16 1.236v3.042l-22.252 12.855-.011-3.052c0-1.371.956-3.022 2.139-3.707zm-14.35 12.097c.54-.311.986-1.07.986-1.703 0-.623-.446-.872-.986-.56-.55.311-.997 1.08-.997 1.703-.01.633.436.882.997.56m-3.24 1.87c.551-.323.997-1.08.997-1.714 0-.623-.446-.883-.997-.56-.54.31-.986 1.09-.986 1.702 0 .644.446.883.986.571"/><path fill="#58C17C" d="m130.318 52.51.083 29.665-6.843 3.957-.094-29.677z"/><path fill="#BBD2FF" d="m147.077 34.813 14.433-8.504c.343-.197.633-.041.633.353l.021 1.392-15.679 9.241-.021-1.391c-.01-.395.27-.883.613-1.09"/><path fill="#D7E9FF" d="m146.454 35.904.02 1.39 15.68-9.24.124 10.56c.011.394-.27.882-.612 1.09l-14.434 8.504c-.342.197-.633.042-.633-.353z"/><path fill="#CEC3F4" d="M150.452 36.465v.944l8.805-5.087v-.935zM150.452 38.439v.944l8.805-5.088v-.934zM150.452 41.066v.945l8.805-5.088v-.935zM150.452 43.04v.934l8.805-5.088v-.935z"/><path fill="#BBD2FF" d="m147.087 52.332 14.433-8.504c.343-.208.623-.042.633.353l.021 1.391-15.689 9.242-.021-1.392c0-.394.28-.882.623-1.09"/><path fill="#D7E9FF" d="m146.474 53.425.021 1.39 15.689-9.24.125 10.56c0 .394-.27.882-.613 1.09l-14.443 8.504c-.343.197-.623.042-.634-.363z"/><path fill="#CEC3F4" d="M150.461 53.994v.934l8.806-5.088v-.934zM150.461 55.955v.945l8.806-5.088v-.934zM150.461 58.583v.934l8.806-5.077v-.935zM150.461 60.554v.935l8.806-5.078v-.944z"/><g opacity=".8"><path fill="#237740" d="m200.273 44.274-.063 23.311 12.326 7.124.062-23.312zM177.107 38.54l-.021 8.4 19.49 11.256.032-8.4z"/><path fill="#C8DDED" d="m214.996 78.299-39.675-22.906.083-28.202 39.676 22.906zM200.21 67.583l12.326 7.113.062-23.311-12.325-7.113zM177.086 46.94l19.5 11.256.032-8.39-19.511-11.266zm.031-10.601 19.511 11.255.01-5.43-19.5-11.245zm-.052 17.88 19.501 11.256.01-5.244-19.5-11.255z"/><path fill="#237740" d="m177.075 48.976-.01 5.244 19.5 11.266.011-5.243zM177.138 30.92l-.021 5.42 19.501 11.256.01-5.42zM175.404 24.39l-.01 2.803L215.069 50.1l.011-2.793z"/></g><path fill="#FF66A8" d="M213.055 47.286c-.415-.24-.747-.052-.747.425 0 .468.332 1.05.737 1.278.405.238.747.041.747-.426 0-.468-.332-1.039-.737-1.277"/><path fill="#26511F" d="M211.186 46.206c-.415-.239-.748-.052-.748.426 0 .467.333 1.049.738 1.288.415.238.747.041.747-.426 0-.478-.332-1.049-.737-1.288"/><path fill="#FFB420" d="M209.306 45.126c-.405-.239-.737-.052-.737.426 0 .467.322 1.038.737 1.277s.748.052.748-.426c-.011-.467-.343-1.038-.748-1.277"/><path fill="#26511F" d="m176.754 27.818-.01.446 2.429 1.402v-.447zM176.754 26.965v.446l2.419 1.402v-.447zM176.754 26.113v.447l2.419 1.401v-.446z"/><path fill="#23814E" d="M215.038 51.387 175.342 28.46l.01-4.07 39.707 22.926zm-3.862-3.468c.415.239.747.041.747-.426 0-.478-.332-1.049-.737-1.288-.415-.238-.748-.051-.748.426 0 .468.322 1.049.738 1.288m1.869 1.08c.405.238.747.041.747-.426 0-.478-.332-1.049-.737-1.288-.415-.238-.748-.052-.748.426s.333 1.049.738 1.288m-3.749-2.17c.415.238.748.051.748-.426 0-.478-.333-1.039-.738-1.288-.404-.239-.737-.052-.737.426-.01.478.322 1.059.727 1.288m-32.542-20.27 2.419 1.402v-.446l-2.419-1.402zm-.01 1.704 2.429 1.401v-.446l-2.429-1.402zm.01-.852 2.43 1.402v-.447l-2.43-1.401z"/><g opacity=".8"><path fill="#237740" d="m188.715 50.276-.052 18.804 9.937 5.742.052-18.804zM170.025 45.646l-.021 6.77 15.732 9.086.02-6.77z"/><path fill="#C8DDED" d="M200.584 77.721 168.582 59.25l.062-22.75 32.012 18.482zm-11.921-8.639 9.948 5.742.052-18.804-9.937-5.743zm-18.659-16.666 15.731 9.086.021-6.77-15.731-9.086zm.021-8.545 15.731 9.085.01-4.371-15.731-9.086zm-.031 14.423 15.731 9.085.01-4.226-15.731-9.086z"/><path fill="#237740" d="m170.004 54.067-.01 4.226 15.72 9.086.021-4.226zM170.046 39.499l-.021 4.371 15.741 9.086.011-4.382zM168.654 34.234l-.01 2.253 32.013 18.483v-2.253z"/></g><path fill="#FF66A8" d="M199.026 52.706c-.332-.187-.602-.041-.602.343s.27.841.602 1.038.602.042.602-.342c-.01-.384-.28-.852-.602-1.039"/><path fill="#26511F" d="M197.51 51.834c-.332-.187-.602-.042-.602.342 0 .385.27.841.602 1.039.333.187.603.041.603-.343s-.27-.851-.603-1.038"/><path fill="#FFB420" d="M195.994 50.962c-.332-.187-.602-.042-.602.342 0 .385.26.842.592 1.039s.602.041.602-.343c.011-.394-.259-.851-.592-1.038"/><path fill="#26511F" d="M169.734 36.996v.363l1.952 1.132.011-.363zM169.734 36.31v.353l1.963 1.132v-.353zM169.734 35.616v.364l1.963 1.131v-.363z"/><path fill="#7392DC" d="m200.625 56.009-32.022-18.483.01-3.281 32.023 18.493zm-3.115-2.804c.333.187.603.042.603-.343 0-.384-.27-.84-.603-1.038-.332-.187-.602-.041-.602.343s.27.851.602 1.038m1.506.872c.332.198.602.042.602-.342 0-.385-.27-.841-.602-1.039-.332-.187-.602-.041-.602.343s.27.851.602 1.038m-3.022-1.744c.333.197.603.041.603-.343s-.26-.84-.592-1.038c-.332-.187-.602-.042-.602.343-.011.384.259.851.591 1.038m-26.26-16.354 1.963 1.132v-.364l-1.952-1.132zm0 1.38 1.963 1.133v-.364l-1.963-1.132zm0-.695 1.963 1.132v-.353l-1.963-1.132z"/><path fill="#297450" d="M176.484 92.278c.052.01 2.928-.083 2.284.913-.415.644-.986.758-1.422.769-.436.01-1.215-.218-1.413-.104s-1.163.748-1.723.114c-.114-.135-.187-.498-.114-.737.083-.228 2.076-1.018 2.388-.955"/><path fill="#14451C" d="M178.778 93.192c-.415.644-.986.758-1.422.768s-1.215-.218-1.412-.104c-.198.115-1.163.748-1.724.115a.75.75 0 0 1-.135-.364c.395.54 1.339.384 1.609.218a1.6 1.6 0 0 1 1.111-.228c.374.073 1.195-.01 1.6-.384.249-.218.228-.478.186-.644.26.135.374.332.187.623"/><path fill="#297450" d="M180.616 94.149c2.056-.27 4.226.062 3.416 1.121-.519.686-1.246.8-1.796.8-.551 0-1.547-.26-1.797-.135-.249.124-1.474.778-2.191.093-.145-.135-.373-.737-.28-.986.104-.25 2.243-.841 2.648-.893"/><path fill="#223A7A" d="M174.386 70.66s-1.557 3.021.052 7.196c0 0 1.236 3.53.955 4.703-.322 1.413-.81 1.018-1.152 5.701-.301 4.133-.291 3.478-.218 5.005.02.478 1.962.893 2.274-.322.799-3.094 2.72-9.563 2.367-13.312a257 257 0 0 1-.571-7.248s-2.471-.654-3.707-1.723"/><path fill="#2C4481" d="M176.246 72.414s-.914 3.27 1.516 6.812c0 0 1.827 3.987 1.578 5.326-.26 1.381-.706 1.267-1.174 5.504-.301 2.689-.488 3.374-.28 5.098.083.644 2.544.696 2.689-.197.499-3.136 2.856-9.896 2.503-13.644-.353-3.749-1.111-7.965-1.111-7.965s-4.091-.03-5.721-.934"/><path fill="#14451C" d="M184.043 95.26c-.519.685-1.246.8-1.796.8-.551 0-1.548-.26-1.797-.135-.249.124-1.474.779-2.191.093-.083-.073-.207-.311-.238-.467.498.581 1.775.52 2.107.332a2.3 2.3 0 0 1 1.413-.228c.477.083 1.516 0 2.035-.385.311-.238.405-.685.342-.872.322.166.353.561.125.862"/><path fill="#223A7A" d="M183.067 81.315c.353 3.748-1.994 10.508-2.503 13.644-.041.301-.342.488-.726.592.602-2.97 2.149-10.488 2.367-11.526.27-1.298.353-6.864-1.121-7.29-1.475-.425-3.448-2.99-3.448-2.99l.644-.716c1.734.3 3.665.322 3.665.322s.769 4.215 1.122 7.964"/><path fill="#FFAA83" d="M180.304 51.243s.353-1.807 1.381-2.056c1.039-.239 1.246-.104.945.312-.301.415-1.09 1.557-.851 1.536.228-.02.644-.311.675-.103.031.207-1.226 1.027-1.226 1.027l-1.131-.02z"/><path fill="#6F0304" d="M174.282 60.038s-1.339 1.11-.166 2.43c1.246 1.39 3.541-1.59 3.541-1.59s2.17-2.377 2.627-3.353c.612-1.288 1.308-5.576 1.308-5.576s-.914-.634-1.651-.332c0 0-.914 3.769-1.651 4.786-.799 1.122-3.831 3.396-4.008 3.635"/><path fill="#183923" d="M182.008 63.899s.425-1.983-2.897-3.178c-3.333-1.194-5.379-1.152-5.421.707-.041 1.858.821 4.33.935 5.17.093.665.748 1.247-.062 3.168-.79 1.91-1.911 3.499 3.229 4.537.903.187 4.891.55 4.403-1.588-.613-2.67-.582-6.605-.187-8.816"/><path fill="#FFAA83" d="M178.841 58.542s-.353 1.412.343 2.264c.363.456-1.641.747-2.835.135 0 0 .436-2.212-.447-3.053z"/><path fill="#F79F7C" d="M178.757 59.55s-.83-.135-1.329-.395l-.052.031-.27.395-.155-.229s.27 1.464 2.045 1.153c0 0-.187-.384-.239-.956"/><path fill="#FFAA83" d="M179.101 53.278s1.142.26 1.412 2.035c.259 1.682.332 3.634-.499 4.361-.841.737-3.488.042-4.506-2.097-1.007-2.16.498-5.285 3.593-4.3"/><path fill="#3A2528" d="M180.897 55.053c.083.26-.198.333-.748.55-.758.312-1.713.343-1.796.852-.083.52.602 2.129-1.091 2.7-1.277.436-.124 2.492-1.37.696-.405-.582-1.61-3.22-.603-5.369 0 0 .717-1.557 2.679-1.516 0 0 2.306.032 2.929 2.087"/><path fill="#FFAA83" d="M177.761 58.168c.373.363.861.436 1.1.176s.125-.768-.239-1.131c-.373-.364-.861-.436-1.1-.177-.229.26-.125.769.239 1.132"/><path fill="#3A2528" d="M176.743 59.861s.208 1.662.467 2.908c.218 1.08-.197 3.24-1.048 4.36 0 0-1.579-3.467-.478-7.268z"/><path fill="#CEC3F4" d="M175.518 59.663c0 .166.321.301.716.301s.717-.135.717-.301c0-.177-.322-.312-.717-.312-.395.01-.706.146-.716.312"/><path fill="#FFAA83" d="M190.761 60.317s1.454-1.132 1.194-2.17c-.249-1.028-.467-1.153-.706-.696-.228.457-.893 1.672-.976 1.454s-.021-.717-.207-.654c-.198.062-.364 1.557-.364 1.557l.53.997z"/><path fill="#082F11" d="M179.983 61.7s-1.734-.084-1.64 1.692c.093 1.89 3.727 1.235 3.727 1.235s3.157-.3 4.122-.706c1.278-.54 4.497-3.26 4.497-3.26s-.312-1.1-1.08-1.37c0 0-3.063 2.18-4.268 2.43-1.308.28-5.067-.084-5.358-.022"/><path fill="#297450" d="M110.039 139.148c-.062.02-3.479-.104-2.71 1.173.488.82 1.173.966 1.682.986.509.011 1.443-.28 1.672-.135.239.146 1.381.945 2.045.146.135-.166.218-.634.135-.935s-2.45-1.308-2.824-1.235"/><path fill="#14451C" d="M107.329 140.321c.488.82 1.173.965 1.682.986.509.01 1.443-.28 1.672-.135.239.145 1.381.945 2.045.145.073-.083.135-.27.156-.457-.457.686-1.589.499-1.91.27-.353-.249-.873-.384-1.319-.29-.447.093-1.412-.021-1.9-.488a.8.8 0 0 1-.218-.821c-.302.167-.426.416-.208.79"/><path fill="#223A7A" d="M111.7 111.808s2.877 4.257.8 10.373c-.457 1.329-1.36 4.164-1.059 5.566.363 1.672.893 1.204 1.267 6.739.332 4.89.28 3.831.384 5.815.031.56-2.046 1.152-2.357.28-1.371-3.832-3.282-11.868-2.887-16.302.384-4.434.633-8.567.633-8.567s1.869-2.637 3.219-3.904"/><path fill="#297450" d="M103.601 141.432c-.063 0-3.583-.789-3.012.685.374.945 1.06 1.236 1.579 1.35.529.114 1.547-.01 1.755.187.218.197 1.277 1.256 2.097.55.177-.145.343-.612.301-.934-.031-.332-2.315-1.838-2.72-1.838"/><path fill="#14451C" d="M100.59 142.117c.373.945 1.059 1.235 1.578 1.35.53.114 1.547-.011 1.755.187.218.197 1.277 1.256 2.097.55.094-.073.187-.249.239-.447-.592.613-1.734.198-2.025-.093-.322-.332-.841-.571-1.318-.561-.478.011-1.464-.29-1.89-.872a.85.85 0 0 1-.094-.893c-.322.114-.508.353-.342.779"/><path fill="#2C4481" d="M110.755 115.868s2.337 2.482-1.848 8.764c0 0-2.025 4.475-1.952 5.898.083 1.723.779 1.879.104 7.476-.592 4.859-.343 4.963-.717 5.368-.394.436-2.378.021-2.45-.851-.374-4.766-1.122-11.754-.686-16.178.499-5.088.852-9.262.852-9.262s5.16-.218 6.697-1.215"/><path fill="#223A7A" d="M103.196 126.356c-.426 4.424.311 11.412.685 16.178.031.374.436.664.904.841-.146-3.645-.395-10.352-.499-14.599-.104-4.476 1.506-9.543 2.368-11.89-1.413.167-2.607.219-2.607.219s-.353 4.163-.851 9.251"/><path fill="#E3B1E5" d="M109.956 104.403s-.228-1.921 1.63-1.973c1.973-.051 1.568 4.06 1.568 4.06s-.073 3.552-.415 4.652c-.457 1.475-3.032 5.286-3.032 5.286s-1.163-.26-1.506-1.08c0 0 2.025-3.593 2.201-4.964.177-1.485-.488-5.648-.446-5.981"/><path fill="#183923" d="M109.707 116.427s2.575-3.811 3.032-5.285c.342-1.101.415-4.652.415-4.652s.664-3.967-1.558-4.122c-.903-.073-1.048.311-1.266.612 1.433.073 1.578 1.028 1.464 3.157-.125 2.315.176 2.959.062 4.942-.114 1.973-2.191 3.915-2.502 4.382-.208.301-.717-.062-1.039-.353l-.135.239c.364.81 1.527 1.08 1.527 1.08"/><path fill="#2D5139" d="M103.872 118.008c0-.031.986-5.504.031-11.505 0 0-.54-1.994 2.928-3.375 3.468-1.371 5.628-1.423 5.763.457.124 1.879-.727 4.434-.758 5.296-.094 3.198.768 4.527 1.422 6.572.561 2.108-9.501 4.548-9.386 2.555"/><path fill="#FFAA83" d="M107.007 100.604s.498 1.506-.218 2.503c-.395.54 3.489 1.381 3.115-.208-.311-1.308.218-2.482 1.173-3.478z"/><path fill="#F79F7C" d="M107.173 101.705s.965-.228 1.516-.55l.062.031.364.093.135.052s-.27 1.765-2.347 1.578c.01 0 .259-.571.27-1.204"/><path fill="#FFAA83" d="M106.539 94.457s-.425.903-1.048 2.72c-.654 1.88-1.226 3.479-.177 4.309.623.488 3.956.924 5.42-2.834.935-2.389-1.121-5.504-4.195-4.195"/><path fill="#3A2528" d="M106.664 94.114c-1.256.374-2.118 1.444-.29 1.973 1.495.426.124 2.72.602 3.084.27.208.259-.166.965-.675.281-.197.893-.062.707.737-.177.738-.457 1.994-.073 2.222.54.312 1.038.146 1.64-.446 1.049-1.038 2.721-3.728 1.143-5.618-1.589-1.879-3.687-1.578-4.694-1.277"/><path fill="#FFAA83" d="M96.208 105.06s-.363-.135-.81-.717c-.446-.581-.405-.841-.498-1.298-.094-.457-.094-.737.093-.862.25-.155.727.063.987.976.28.935 1.183 1.028 1.298 1.205.114.176-.852.82-1.07.696"/><path fill="#FFAA83" d="M96.312 104.207c-.104-.062.114-.446-.218-1.37-.26-.717.425.072.488.239.072.166.695 1.318.695 1.318s-.591.021-.965-.187"/><path fill="#183923" d="M107.205 105.9c.093-.426.052-1.9-1.205-2.067-1.64-.218-5.295 3.52-5.867 3.448-.29-.031-2.865-3.302-2.865-3.302s.02.862-1.288 1.152c0 0 2.482 4.922 3.78 4.735 2.242-.311 6.998-2.014 7.445-3.966"/><path fill="#5E6C84" d="m173.565 101.811-.02 5.389-.25 3.749.011-5.4zM167.626 105.598l-.021 5.409-.197 2.804.021-5.399zM173.306 105.548l-.011 5.4-.218 3.011.021-5.399z"/><path fill="#5C75B0" d="m173.098 108.559-.02 5.399-5.67-.145.021-5.399z"/><path fill="#237740" d="m155.456 109.929-.021 5.4-3.696-2.306.021-5.399zM190.522 107.759l-.01 5.399-4.122 2.388.01-5.399z"/><path fill="#6782C5" d="m182.475 107.77-.021 5.4-4.195 2.44.01-5.4z"/><path fill="#465A87" d="m163.857 110.346-.01 5.4-4.403-2.741.011-5.4z"/><path fill="#475B89" d="m182.298 112.536-.01 5.399-4.029-2.326.01-5.399z"/><path fill="#6782C5" d="m186.4 110.148-.01 5.4-4.102 2.388.01-5.4z"/><path fill="#465A87" d="m159.714 112.588-.021 5.389-4.257-2.648.02-5.399z"/><path fill="#6783C5" d="m163.857 110.345-.01 5.399-4.154 2.232.021-5.389z"/><path fill="#5E77B4" d="m157.772 114.892-.021 5.389-5.856.156.01-5.399zM189.754 115.152l-.021 5.4-6.023.155.011-5.409z"/><path fill="#23814E" d="M177.543 112.599a10 10 0 0 0-1.298-.623c-.031-.01-.052-.031-.083-.042-.011-.01-.031-.01-.052-.01a11 11 0 0 0-1.028-.353c-.031-.01-.052-.021-.083-.021l-.229-.062a11 11 0 0 0-.612-.146c-.052-.01-.104-.031-.146-.041-.072-.01-.155-.021-.228-.042-.177-.031-.343-.062-.519-.083a2 2 0 0 1-.198-.041c-.072-.011-.155-.011-.218-.021l-.488-.062c-.072 0-.145-.021-.218-.021-.072-.01-.135-.01-.207-.01l-.499-.032c-.072 0-.156-.01-.239-.01h-.965c-.052 0-.094.01-.146.01-.218.011-.436.021-.664.042-.083 0-.166.01-.249.01-.021 0-.052.011-.083.011-.364.031-.717.083-1.08.145-.011 0-.042.011-.052.011a3 3 0 0 0-.333.072c-.166.031-.332.062-.498.104-.135.042-.27.073-.405.114l-.457.125c-.041.01-.083.021-.114.031-.062.021-.125.042-.187.073-.249.083-.488.176-.727.27-.093.041-.197.083-.29.124a9 9 0 0 0-.893.447c-.042.021-.084.041-.115.072a3 3 0 0 0-.249.167c-.114.083-.228.145-.343.228-.093.062-.176.135-.259.208-.104.083-.208.166-.301.249-.011.021-.042.031-.052.052-.031.031-.063.062-.094.104-.145.145-.29.29-.405.436l-.093.093-.062.094c-.083.103-.156.218-.229.332-.031.041-.062.093-.093.135-.011.031-.011.052-.031.073a6 6 0 0 0-.135.29c-.021.063-.052.115-.083.177-.011.021-.011.041-.021.062-.031.094-.052.187-.083.281-.011.062-.042.135-.052.197v.052a1.5 1.5 0 0 0-.031.301 1 1 0 0 0-.021.197v.083l-.011 5.4c0-.094.011-.187.021-.281a3 3 0 0 1 .042-.301c.01-.083.041-.166.062-.259.031-.094.042-.177.083-.27.031-.083.062-.156.104-.239.042-.094.083-.197.135-.291.042-.073.083-.135.135-.208.062-.114.135-.218.218-.332l.156-.187q.186-.218.405-.436c.052-.041.104-.104.155-.145.094-.083.198-.166.302-.249.083-.073.176-.135.259-.208.104-.083.229-.156.353-.229.125-.083.229-.155.353-.228.281-.166.582-.312.893-.447.094-.051.187-.083.281-.124.238-.104.488-.197.737-.28.093-.042.197-.073.291-.104.155-.052.321-.094.477-.135.125-.031.26-.073.384-.104.167-.042.343-.073.52-.114.124-.032.249-.052.373-.073.353-.062.717-.114 1.08-.156.115-.01.218-.021.333-.021.218-.02.436-.041.654-.051.135-.011.259-.011.394-.011h.551c.135 0 .27.011.415.011l.498.031c.146.01.291.02.437.041.155.021.321.031.477.052.146.011.281.042.416.052l.529.093c.125.021.249.052.374.084.208.041.415.093.612.145.104.031.208.052.312.083q.53.156 1.028.343c.052.02.083.041.135.052.457.186.893.384 1.298.623 1.879 1.079 2.824 2.512 2.824 3.935l.011-5.399c-.032-1.402-.976-2.835-2.866-3.915"/><path fill="#435580" d="m158.042 118.174-.021 5.399-.27-3.292.021-5.389z"/><path fill="#5E77B4" d="m158.042 118.175-.021 5.399-6.012.146.01-5.4z"/><path fill="#237740" d="m195.641 118.298-.021 5.389-6.022.156.02-5.4zM152.019 118.319l-.01 5.399-5.638.146.01-5.4z"/><path fill="#23814E" d="m146.381 118.464-.01 5.399-.27-3.281.01-5.399z"/><path fill="#5E77B4" d="m189.618 118.446-.02 5.399-5.628.146.01-5.4z"/><path fill="#435580" d="m183.98 118.59-.01 5.4-.26-3.282.011-5.409z"/><path fill="#6783C5" d="m181.945 120.427-.01 5.4-4.154 2.232.021-5.399z"/><path fill="#475B89" d="m164.438 122.919-.01 5.389-4.029-2.326.01-5.399z"/><path fill="#23814E" d="M189.442 118.943c-.114.322-.27.633-.436.945-.052.072-.083.155-.125.228-.062.094-.114.187-.176.28-.063.104-.135.198-.198.302-.062.093-.135.176-.197.27-.073.093-.145.176-.218.27-.094.124-.208.249-.312.373-.072.083-.145.156-.218.239-.114.125-.249.249-.373.374a5 5 0 0 1-.229.218 9 9 0 0 1-.747.633l-.011 5.4c.26-.208.509-.426.748-.644a.4.4 0 0 0 .072-.062c.052-.052.104-.104.156-.146q.19-.186.364-.373c.072-.083.145-.156.218-.239.114-.125.218-.249.322-.364.041-.052.083-.093.114-.135.031-.041.062-.083.093-.135.063-.093.135-.187.198-.27.072-.103.135-.207.207-.301.052-.093.114-.187.166-.28.031-.042.063-.094.094-.145a.2.2 0 0 1 .041-.084 7 7 0 0 0 .436-.944.1.1 0 0 0 .021-.052c.052-.146.104-.291.146-.447l.02-5.399c-.052.155-.114.322-.176.488"/><path fill="#465A87" d="m186.202 123.075-.021 5.4-4.247-2.648.01-5.4z"/><path fill="#23814E" d="m152.019 118.319-.01 5.399c.519 1.765 1.775 3.468 3.769 4.943l.021-5.4c-2.004-1.464-3.261-3.177-3.78-4.942"/><path fill="#6782C5" d="m160.409 120.583-.01 5.399-4.621 2.69.011-5.4z"/><path fill="#5C75B0" d="m174.697 124.664-.02 5.4-5.659-.146.01-5.399z"/><path fill="#465A87" d="m182.194 125.403-.021 5.389-4.392-2.731.021-5.399z"/><path fill="#6782C5" d="m164.438 122.921-.01 5.389-4.538 2.637.021-5.399z"/><path fill="#5E6C84" d="m174.697 124.664-.02 5.4-.177 2.689.01-5.399z"/><path fill="#23814E" d="M182.194 125.4c-.633.27-1.287.52-1.962.727-.405.135-.821.249-1.236.364-.187.052-.374.114-.561.155-.612.156-1.246.291-1.889.405-.675.125-1.35.218-2.036.291l-.01 5.4c.685-.073 1.36-.177 2.025-.291h.021c.633-.114 1.256-.26 1.879-.405.187-.042.363-.104.55-.146.374-.103.748-.197 1.122-.321.041-.021.083-.032.135-.052a22 22 0 0 0 1.962-.738zM166.816 127.29c-.135-.01-.27-.02-.384-.041a28 28 0 0 1-2.108-.364c-.239-.051-.478-.114-.717-.176-.457-.114-.913-.218-1.35-.353-.477-.146-.934-.312-1.401-.467-.312-.115-.634-.208-.935-.333l-.021 5.4c.083.041.167.062.25.093.218.083.436.146.664.229.478.166.945.342 1.433.477.073.021.135.052.208.073.374.114.768.187 1.152.28.239.052.468.125.717.177.041.01.083.021.135.031a36 36 0 0 0 1.879.322c.021 0 .063.01.083.01.135.021.26.031.395.042a21 21 0 0 0 2.014.197l.011-5.399a31 31 0 0 1-2.025-.198"/><path fill="#5E6C84" d="m169.028 124.519-.01 5.399-.208 2.97.01-5.399z"/><path fill="#23814E" d="m189.909 125.38-.01 5.399-4.164 2.233.021-5.4z"/><path fill="#237740" d="m185.756 127.612-.021 5.399-3.562-2.222.021-5.389zM159.911 125.546l-.021 5.399-3.686 2.15.01-5.4z"/><path fill="#23814E" d="m156.215 127.696-.011 5.399-4.029-2.326.011-5.399z"/><path fill="#EAFFE2" d="m189.618 118.444-5.638.135zl6.023-.155-.26-3.282-5.617.135c-.384-1.765-1.506-3.489-3.354-5.005l4.112-2.388-4.029-2.326-4.018 2.337c-2.731-1.226-5.909-1.963-9.169-2.212l.259-3.749-5.669-.135-.27 3.936c-2.897.28-5.701.945-8.172 2.004l-3.551-2.212-4.143 2.233 3.697 2.294c-1.963 1.537-3.136 3.302-3.552 5.109l-5.794.145.27 3.282 5.639-.146c.519 1.766 1.775 3.468 3.769 4.953l-3.603 2.087 4.029 2.326 3.696-2.149c2.7 1.101 5.773 1.744 8.909 1.942l-.259 3.779 5.669.146.28-4.06.187-2.69-5.669-.145 5.669.145-.187 2.69c2.731-.302 5.358-.956 7.684-1.952l3.562 2.222 4.153-2.233-3.707-2.305c1.776-1.391 2.918-2.98 3.416-4.621m-25.512 1.963c-3.738-2.16-3.759-5.649-.041-7.809 3.717-2.159 9.739-2.159 13.477 0 3.738 2.16 3.759 5.659.052 7.809-3.707 2.16-9.75 2.16-13.488 0"/><path fill="#23814E" d="m174.23 131.414-.021 5.399-5.659-.145.011-5.4z"/><path fill="#237740" d="m174.51 127.354-.01 5.399-.291 4.06.021-5.399z"/><path fill="#5E6C84" d="m149.081 124.427-.01 5.389-.26 3.748.01-5.389zM143.142 128.215l-.011 5.399-.197 2.814.01-5.4zM148.821 128.173l-.01 5.389-.208 3.011.021-5.399z"/><path fill="#5C75B0" d="m148.624 131.174-.021 5.4-5.669-.146.01-5.399z"/><path fill="#237740" d="m130.973 132.546-.011 5.399-3.696-2.305.01-5.399zM166.038 130.374l-.01 5.399-4.123 2.388.021-5.399z"/><path fill="#6782C5" d="m157.99 130.385-.021 5.4-4.195 2.44.021-5.399z"/><path fill="#465A87" d="m139.373 132.962-.011 5.399-4.392-2.741.011-5.4z"/><path fill="#475B89" d="m157.824 135.152-.021 5.389-4.029-2.316.021-5.399z"/><path fill="#6782C5" d="m161.926 132.764-.021 5.399-4.101 2.378.02-5.389z"/><path fill="#465A87" d="m135.229 135.194-.01 5.4-4.258-2.648.011-5.4z"/><path fill="#6783C5" d="m139.373 132.96-.011 5.399-4.143 2.233.011-5.4z"/><path fill="#5E77B4" d="m133.288 137.509-.011 5.4-5.866.145.02-5.399zM165.269 137.769l-.01 5.389-6.033.156.021-5.389z"/><path fill="#23814E" d="M153.068 135.214a10 10 0 0 0-1.298-.623c-.031-.01-.052-.031-.083-.041-.01 0-.031-.01-.052-.01a8 8 0 0 0-1.028-.343c-.031-.01-.052-.021-.083-.031-.083-.021-.156-.031-.228-.052a28 28 0 0 0-.623-.156c-.052-.01-.094-.021-.146-.031-.072-.021-.155-.021-.228-.042l-.519-.093c-.063-.01-.125-.031-.198-.031a1.5 1.5 0 0 0-.218-.021 7 7 0 0 0-.477-.052c-.083-.01-.156-.021-.229-.031-.072 0-.145 0-.207-.01l-.499-.032c-.072 0-.156-.01-.228-.01h-.976c-.042 0-.094.01-.146.01-.218.011-.446.021-.654.042-.083.01-.166.01-.249.021-.031 0-.052 0-.083.01-.363.042-.717.083-1.08.145-.01 0-.041.011-.052.011-.114.021-.218.052-.332.073-.166.031-.332.062-.488.103-.146.032-.27.073-.405.115l-.467.124c-.042.021-.073.021-.115.031a1.3 1.3 0 0 0-.176.073 9 9 0 0 0-.727.28l-.28.125c-.312.145-.613.291-.893.457-.042.021-.083.041-.115.073a2 2 0 0 0-.249.166 4 4 0 0 0-.332.228c-.093.073-.177.135-.26.208-.103.083-.207.166-.301.249-.021.01-.041.031-.062.042-.031.031-.062.072-.094.103-.155.146-.29.291-.415.437-.021.031-.062.062-.083.093l-.062.093a7 7 0 0 0-.229.333c-.031.052-.062.093-.093.135-.01.02-.021.052-.031.072-.052.094-.094.198-.135.291-.021.062-.052.114-.083.166-.011.021-.011.042-.021.063a3 3 0 0 0-.083.28c-.011.062-.042.124-.062.197v.052a1.5 1.5 0 0 0-.032.301c-.01.063-.02.135-.02.198v.083l-.021 5.399c0-.093.021-.187.031-.291l.031-.29.062-.25c.021-.093.052-.187.084-.28.02-.083.062-.156.103-.239.042-.093.083-.197.135-.291.042-.072.083-.145.125-.207.073-.114.145-.229.228-.333.052-.062.094-.124.156-.186.125-.156.26-.302.405-.447.052-.052.104-.093.145-.145.094-.083.198-.166.302-.26.083-.062.166-.124.259-.197.114-.083.239-.156.353-.239.114-.073.229-.156.353-.228.281-.167.582-.312.893-.457l.281-.125c.238-.093.488-.197.737-.28l.291-.094c.155-.052.321-.093.477-.135a7.76 7.76 0 0 1 .893-.207c.125-.032.249-.063.374-.083.353-.063.717-.115 1.08-.146.104-.01.218-.01.322-.031.228-.021.446-.031.664-.041.135-.011.26-.011.395-.011h.55c.135 0 .27.011.416.011.166.01.332.01.498.02.145.011.291.021.436.042.156.01.322.021.478.052.145.01.28.031.415.052l.519.093c.125.021.25.052.374.073.208.052.405.093.613.156.104.031.207.051.311.083q.53.155 1.028.342c.052.021.094.042.135.063.457.176.893.384 1.298.623 1.88 1.09 2.824 2.512 2.824 3.935l.011-5.4c-.021-1.412-.955-2.834-2.835-3.925"/><path fill="#435580" d="m133.558 140.79-.011 5.4-.27-3.281.011-5.4z"/><path fill="#5E77B4" d="m133.558 140.79-.011 5.399-6.022.156.021-5.399z"/><path fill="#237740" d="m171.156 140.904-.01 5.399-6.022.156.01-5.4zM127.546 140.947l-.021 5.399-5.628.135.01-5.399z"/><path fill="#23814E" d="m121.907 141.079-.01 5.4-.27-3.282.01-5.399z"/><path fill="#5E77B4" d="m165.134 141.059-.011 5.4-5.627.145.01-5.399z"/><path fill="#435580" d="m159.506 141.206-.01 5.399-.27-3.291.021-5.389z"/><path fill="#6783C5" d="m157.471 143.043-.021 5.4-4.143 2.232.011-5.399z"/><path fill="#475B89" d="m139.964 145.535-.021 5.389-4.028-2.326.02-5.389z"/><path fill="#23814E" d="M164.958 141.567c-.125.322-.27.634-.436.945-.042.083-.094.156-.135.229a4 4 0 0 1-.177.28 5 5 0 0 1-.197.301c-.062.094-.135.187-.197.281-.063.093-.146.176-.218.27-.104.124-.208.249-.322.363l-.218.249a7 7 0 0 1-.374.374 5 5 0 0 1-.229.218 9 9 0 0 1-.747.633l-.021 5.4c.27-.208.509-.426.748-.633.02-.021.052-.042.072-.063l.156-.156c.125-.124.249-.238.374-.373.073-.083.145-.156.218-.239.104-.125.218-.239.311-.364.032-.041.073-.093.115-.135.031-.041.062-.093.093-.135.062-.093.135-.186.197-.27.073-.103.135-.207.198-.301.062-.093.114-.187.176-.28.031-.052.063-.104.094-.145a.4.4 0 0 0 .041-.094q.25-.467.436-.934a.14.14 0 0 0 .021-.063c.062-.145.114-.301.156-.446l.01-5.4a2.6 2.6 0 0 1-.145.488"/><path fill="#465A87" d="m161.718 145.691-.02 5.399-4.247-2.647.02-5.4z"/><path fill="#23814E" d="m127.546 140.946-.021 5.4c.519 1.765 1.775 3.468 3.769 4.942l.011-5.399c-1.994-1.475-3.251-3.178-3.759-4.943"/><path fill="#6782C5" d="m135.935 143.209-.02 5.389-4.621 2.69.01-5.4z"/><path fill="#5C75B0" d="m150.213 147.279-.01 5.399-5.67-.145.021-5.4z"/><path fill="#465A87" d="m157.71 148.018-.011 5.389-4.392-2.731.011-5.399z"/><path fill="#6782C5" d="m139.964 145.536-.021 5.389-4.527 2.637.021-5.399z"/><path fill="#5E6C84" d="m150.213 147.28-.01 5.399-.198 2.689.021-5.399z"/><path fill="#23814E" d="M157.71 148.016c-.634.27-1.298.508-1.963.737-.405.135-.82.249-1.235.363-.198.052-.374.114-.561.156-.613.156-1.256.291-1.89.405-.664.114-1.35.218-2.025.301l-.02 5.389c.685-.083 1.37-.176 2.035-.291h.01a27 27 0 0 0 1.88-.405c.187-.051.363-.114.55-.155.374-.104.758-.198 1.121-.312.052-.01.094-.031.135-.041a23 23 0 0 0 1.963-.738zM142.332 149.906c-.135-.011-.26-.032-.395-.042a34 34 0 0 1-2.097-.363c-.249-.052-.478-.125-.717-.177-.457-.114-.913-.218-1.35-.343-.477-.134-.934-.311-1.401-.477-.312-.114-.634-.208-.935-.332l-.01 5.399c.072.031.156.062.239.104.218.083.446.145.664.218.467.166.935.332 1.423.478.072.02.135.051.207.072.385.114.769.187 1.153.281.239.052.467.124.716.166l.125.031c.623.124 1.246.239 1.879.332.032 0 .052.011.083.011.125.02.26.031.385.041.457.052.913.114 1.37.156.218.021.426.031.644.052l.01-5.4a45 45 0 0 1-1.993-.207"/><path fill="#5E6C84" d="m144.554 147.133-.021 5.4-.197 2.97.01-5.4z"/><path fill="#23814E" d="m165.425 147.995-.011 5.399-4.153 2.233.01-5.4z"/><path fill="#237740" d="m161.272 150.227-.011 5.399-3.561-2.222.01-5.389zM135.437 148.163l-.021 5.399-3.696 2.139.02-5.389z"/><path fill="#23814E" d="m131.741 150.311-.021 5.39-4.029-2.316.021-5.399z"/><path fill="#EAFFE2" d="m165.134 141.06-5.628.145zl6.023-.156-.26-3.281-5.628.145c-.384-1.765-1.495-3.489-3.343-5.005l4.111-2.388-4.028-2.326-4.029 2.336c-2.731-1.225-5.898-1.962-9.169-2.211l.26-3.749-5.67-.145-.27 3.935c-2.897.28-5.7.945-8.161 2.004l-3.562-2.212-4.143 2.233 3.697 2.295c-1.963 1.536-3.136 3.291-3.541 5.108l-5.794.146.27 3.281 5.628-.135c.519 1.765 1.775 3.468 3.769 4.953l-3.593 2.097 4.029 2.326 3.697-2.149c2.699 1.101 5.773 1.744 8.909 1.942l-.26 3.779 5.67.146.28-4.06.187-2.7-5.67-.145 5.67.145-.187 2.7c2.721-.312 5.358-.956 7.684-1.963l3.561 2.212 4.154-2.233-3.707-2.315c1.786-1.381 2.928-2.959 3.416-4.61m-25.502 1.962c-3.738-2.16-3.759-5.649-.041-7.808 3.706-2.16 9.739-2.16 13.477 0 3.738 2.159 3.759 5.648.052 7.808-3.717 2.16-9.76 2.16-13.488 0"/><path fill="#23814E" d="m149.746 154.029-.021 5.399-5.659-.145.01-5.399z"/><path fill="#237740" d="m150.026 149.969-.021 5.399-.28 4.06.02-5.399z"/><path fill="#297450" d="M177.46 144.007s-.571 1.183.28 1.557c.862.364.862-.207 2.451 1.101s3.001.727 3.26.488c.436-.384.187-1.495-3.354-3.292z"/><path fill="#14451C" d="M177.74 145.553c.862.364.862-.207 2.451 1.101 1.599 1.308 3.021.758 3.26.488.031-.031.114-.093.125-.166-1.485.519-2.357-.208-3.012-.706-.674-.519-1.246-.717-2.263-.945-1.018-.218-.654-1.007-.654-1.007a.53.53 0 0 0-.281-.104c-.114.363-.249 1.069.374 1.339"/><path fill="#297450" d="M182.454 140.466s-.571 1.183.28 1.557c.862.364.862-.207 2.451 1.101 1.599 1.308 3.032.758 3.26.488.177-.197.187-1.495-3.354-3.302z"/><path fill="#14451C" d="M182.735 142.025c.862.363.862-.208 2.45 1.1 1.599 1.309 3.043.758 3.261.488.031-.031.052-.083.052-.155-1.485.529-2.295-.218-2.949-.717-.675-.519-1.236-.727-2.264-.945-1.017-.218-.644-1.007-.644-1.007-.062-.062-.166-.093-.28-.104-.114.364-.249 1.07.374 1.34"/><path fill="#223A7A" d="M174.926 124.902s1.693-.25 2.627-1.246c0 0 6.448 4.475 6.988 5.918.509 1.371 1.257 8.079 1.205 10.965-.011.924-3.468 1.599-3.676.27-.374-2.378-.665-9.054-.665-9.054s-7.694-2.741-6.479-6.853"/><path fill="#282528" d="M169.267 124.465s-.935 3.23 1.433 5.047c2.357 1.806 6.531 4.33 6.531 4.33s-.228 2.211-.145 5.96c.072 3.426.01 3.333.145 4.527.104.862 3.458 1.153 3.624-.374.332-3.104.249-10.996-.415-12.429-.665-1.422-5.234-4.61-5.234-4.61l.727-2.222c0 .01-4.309 1.08-6.666-.229"/><path fill="#2C4481" d="M169.267 124.465s-.935 3.23 1.433 5.047c2.357 1.806 6.531 4.33 6.531 4.33s-.228 2.211-.145 5.96c.072 3.426.01 3.333.145 4.527.104.862 3.458 1.153 3.624-.374.332-3.104.249-10.996-.415-12.429-.665-1.422-5.234-4.61-5.234-4.61l.727-2.222c0 .01-4.309 1.08-6.666-.229"/><path fill="#FFAA83" d="M184.167 117.861s.343-.26 1.132-.353c.789-.094.997.104 1.454.28s.789.353.695.582c-.093.228-1.131.612-1.754.457-.385-.094-1.361.436-1.579.436-.239 0-.187-1.267.052-1.402"/><path fill="#F29C79" d="M184.105 119.263c.218 0 1.194-.54 1.578-.436.447.114 1.111-.062 1.485-.239-.01-.01-.01-.02-.01-.031-.094-.135-.426-.041-.644-.093s-.862-.011-1.288-.083c-.425-.073-1.194.394-1.194.394l-.073.052c.011.249.063.436.146.436"/><path fill="#18263C" d="M174.531 111.101s1.267-1.62 2.524.177c.809 1.173 2.18 5.835 2.71 6.23.259.197 4.579.031 4.579.031s-.654.633.197 1.869c0 0-5.628 1.786-6.552.633-1.599-1.973-4.257-6.977-3.458-8.94"/><path fill="#FFE9FE" d="M176.847 120.592c-.01-.145-.031-.332-.042-.56v-.021c-.02-.675-.083-1.35.675-3.001.509-1.121.54-2.721.198-3.79-.156-1.693-1.018-2.814-1.475-3.157-.685-.519-6.739 2.004-6.905 2.119-2.232 1.609.8 4.703 0 10.082-.426 2.835-.239 2.99-.239 2.99 4.175 2.046 8.723-1.484 8.723-1.484s-.104-.146-.25-.426c-.218-.696-.633-2.098-.685-2.752"/><path fill="#253858" d="M176.847 120.592c-.01-.145-.031-.332-.042-.56v-.021c-.02-.675-.083-1.35.675-3.001.509-1.121.54-2.721.198-3.79-.156-1.693-1.018-2.814-1.475-3.157-.685-.519-6.739 2.004-6.905 2.119-2.232 1.609.8 4.703 0 10.082-.426 2.835-.239 2.99-.239 2.99 4.175 2.046 8.723-1.484 8.723-1.484s-.104-.146-.25-.426c-.218-.696-.633-2.098-.685-2.752"/><path fill="#F79F7C" d="M174.874 109.388s-.321 1.475 0 2.254c.322.778-.851 1.028-1.412.83-.56-.187-1.453-.581-1.339-1.08.124-.498.623-2.128.301-2.72s2.45.716 2.45.716"/><path fill="#FFAA83" d="M172.018 104.85s-1.692 1.672-1.225 3.437c.249.976 1.371 1.609 2.004 2.108.644.498 2.243 1.63 2.907.467.675-1.163 1.444-4.517 0-6.022-1.443-1.485-3.686.01-3.686.01"/><path fill="#3A2528" d="M175.705 105.577s-.198 1.163-2.409 1.505c-.634.094-.52 2.015-1.008 1.527-.186-.187-.685-.55-.737-.27-.28 1.319 1.63 1.713 1.319 2.585-.467 1.35-4.288 3.199-2.959-4.6.311-1.837 1.443-3.146 4.091-2.928 2.076.166 2.959 1.973 2.211 2.212-.135.031-.062-.083-.508-.031"/><path fill="#FFAA83" d="M173.805 123.386s.446-.052 1.194.301c.747.343.82.623 1.142 1.028.311.405.509.737.301.893s-1.329-.062-1.796-.54c-.301-.291-1.444-.342-1.641-.457-.208-.114.519-1.235.8-1.225"/><path fill="#F29C79" d="M172.994 124.621c.198.114 1.34.166 1.641.457.343.343 1.018.55 1.443.581 0-.01.011-.02 0-.031-.01-.166-.363-.259-.519-.425-.156-.167-.758-.478-1.09-.769s-1.267-.291-1.267-.291h-.093c-.125.218-.187.426-.115.478"/><path fill="#18263C" d="M169.413 112.13c.404-.229 1.287-.426 1.484 1.048.187 1.475-1.36 6.905-1.111 7.539.125.311 4.341 2.471 4.341 2.471s-.914.218-.831 1.776c0 0-5.95-1.433-6.147-2.97-.343-2.617.332-8.795 2.264-9.864"/><path fill="#223A7A" d="M177.231 144.331c-.135-1.194-.072-1.101-.145-4.528-.073-3.748.145-5.96.145-5.96s-4.174-2.523-6.531-4.33c-1.184-.903-1.537-2.16-1.599-3.198.862 2.129 6.106 5.763 7.767 6.293 2.118.664.986 3.26 1.038 3.831.031.457-.124 6.168-.187 8.369-.28-.124-.467-.28-.488-.477"/><g opacity=".8"><path fill="#237740" d="m195.091 100.853.052 16.749-8.847 5.108-.052-16.738zM211.735 96.731l.021 6.033-14.018 8.089-.01-6.033z"/><path fill="#fff" d="m184.468 105.039 28.503-16.458.062 20.258-28.502 16.458zm10.675 12.564-.052-16.749-8.858 5.109.052 16.749zm16.613-14.838-.01-6.033-14.008 8.089.021 6.033zm-.02-7.611-.011-3.894-14.007 8.088v3.905zm.031 12.844-.011-3.769-14.018 8.089.021 3.769z"/><path fill="#237740" d="m211.756 104.229.011 3.769-14.008 8.089-.01-3.769zM211.715 91.259l.021 3.894-14.018 8.088v-3.893zM212.961 86.566v2.014l-28.493 16.458-.01-2.014z"/></g><path fill="#FF66A8" d="M185.911 103.023c.291-.166.54-.041.54.301 0 .333-.238.748-.529.925-.291.166-.53.031-.54-.312 0-.343.239-.747.529-.914"/><path fill="#26511F" d="M187.261 102.244c.291-.176.53-.041.54.302 0 .342-.238.758-.529.924s-.53.031-.54-.312c0-.332.239-.747.529-.914"/><path fill="#FFB420" d="M188.611 101.466c.291-.166.53-.031.53.312 0 .332-.229.758-.53.913-.301.177-.529.032-.529-.301 0-.353.228-.758.529-.924"/><path fill="#26511F" d="M211.995 89.026v.322l-1.744 1.007v-.322zM211.985 88.413v.321l-1.734 1.008v-.322zM211.985 87.8v.323l-1.734 1.007v-.322z"/><path fill="#23814E" d="m184.479 103.034 28.523-16.468.011 2.928-28.514 16.458zm2.782.436c.291-.166.53-.581.53-.924s-.249-.478-.54-.301c-.291.176-.53.581-.53.924.011.332.25.467.54.301m-1.339.779c.291-.177.529-.582.529-.924s-.238-.478-.54-.301c-.29.166-.529.581-.529.913.01.343.249.478.54.312m2.689-1.568c.301-.166.53-.582.53-.914 0-.342-.239-.477-.53-.311a1.16 1.16 0 0 0-.529.924c0 .342.238.477.529.301m23.374-14.558v-.322l-1.745 1.007v.322zm.01 1.225v-.322l-1.744 1.008v.322zm-.01-.612v-.322l-1.745 1.007v.322z"/><g opacity=".8"><path fill="#237740" d="m203.397 105.164.041 13.509-7.144 4.122-.031-13.509zM216.823 101.841l.011 4.86-11.298 6.521-.01-4.86z"/><path fill="#fff" d="m194.831 108.537 22.989-13.28.041 16.344-22.989 13.28zm8.608 10.135-.042-13.509-7.144 4.122.031 13.509zm13.394-11.972-.01-4.87-11.297 6.521.02 4.869zm-.01-6.137-.01-3.146-11.298 6.521v3.146zm.021 10.363v-3.032l-11.308 6.531.01 3.032z"/><path fill="#237740" d="M216.844 107.884v3.043l-11.297 6.521-.011-3.032zM216.813 97.418l.01 3.146-11.307 6.521v-3.146zM217.81 93.638l.01 1.62-22.989 13.281-.011-1.62z"/></g><path fill="#FF66A8" d="M195.994 106.908c.239-.145.436-.031.436.239s-.197.602-.426.747c-.238.135-.436.021-.436-.249s.187-.602.426-.737"/><path fill="#26511F" d="M197.084 106.275c.239-.135.426-.032.436.249 0 .28-.197.612-.425.747-.239.135-.436.032-.436-.249-.011-.27.187-.602.425-.747"/><path fill="#FFB420" d="M198.175 105.652c.239-.135.426-.031.426.239s-.187.602-.426.747c-.239.135-.426.031-.426-.249-.01-.27.187-.602.426-.737"/><path fill="#26511F" d="M217.031 95.622v.26l-1.412.81v-.25zM217.031 95.132v.26l-1.412.81v-.26zM217.031 94.636v.26l-1.412.81v-.26z"/><path fill="#7392DC" d="m194.842 106.919 22.999-13.28.011 2.356-23.01 13.281zm2.243.353c.238-.135.425-.468.425-.748 0-.27-.197-.384-.436-.249s-.425.467-.425.748c0 .27.197.384.436.249m-1.091.623c.239-.146.436-.468.426-.748 0-.27-.197-.384-.436-.239-.239.135-.426.468-.426.738.011.28.208.384.436.249m2.181-1.246c.239-.135.436-.468.426-.748 0-.27-.198-.384-.426-.239-.239.135-.426.468-.426.738-.01.269.187.384.426.249m18.857-11.755v-.26l-1.402.81v.26zm0 .987v-.26l-1.402.81v.26zm0-.488v-.26l-1.402.81v.26z"/></g><defs><clipPath id="a"><path fill="#fff" d="M0 0h302v155H0z"/></clipPath></defs></svg>