<svg xmlns="http://www.w3.org/2000/svg" width="302" height="155" fill="none"><g clip-path="url(#a)"><path fill="#CEC3F4" d="M0 0h302v155H0z"/><path fill="#7035E4" d="M134.406 93.55v1.732l-48.875 19.057v-1.778zM134.406 84.112v1.732c-6.566 2.554 13.586-5.288-32.553 12.675l9.255-5.334z"/><path fill="#A26D42" d="m134.406 84.112-23.252 9.073 20.197-11.672z"/><path fill="#BA6EF7" d="M92.37 104.036v-1.733l41.717-24.072v1.732c-9.073 5.198-22.979 13.267-41.717 24.073"/><path fill="#A5B3BF" d="M132.126 93.504 86.352 111.33v-6.747l4.194-1.642 1.87 1.049 9.483-5.471 30.227-11.763zM131.852 78.413 92.78 100.981v-6.61l39.072-22.569z"/><path fill="#BA6EF7" d="M92.37 94.598v-1.733l41.717-24.072v1.733A75173 75173 0 0 1 92.37 94.598"/><path fill="#7035E4" d="M90.546 102.941c-4.924 1.915-3.966 1.55-5.015 1.961v-1.733l3.237-1.276z"/><path fill="#4C1CAA" d="m88.768 101.893-3.237 1.276-11.215-9.574z"/><path fill="#8757E4" d="m86.352 111.33 45.774-17.826v-1.915l2.28 1.96-48.875 19.058-9.3-7.979c.136-.456.41-.866.775-1.276z"/><path fill="#DFE3E7" d="M86.352 104.583v6.747l-9.346-7.978c.41-.456.957-.821 1.641-1.14v-.228c-1.459-1.277-2.963-2.508-4.422-3.784q-1.095.547-1.778 1.23c-.091-.09.045.046-8.344-7.157-.729-.638-1.276-1.96-1.276-2.964v-2.416l5.288 3.055 17.417 14.908z"/><path fill="#B879EC" d="M85.531 112.561v1.733l-9.483-8.116c-.045-.592 0-1.094.183-1.595zM85.531 103.169v1.733L68.115 89.993l6.246 3.602z"/><path fill="#7035E4" d="M78.602 101.984c-2.417 1.185-3.42 3.055-2.508 5.699l-4.422-3.784c-.867-2.599.09-4.514 2.507-5.7 1.505 1.232 2.964 2.508 4.422 3.785"/><path fill="#C95B68" d="M76.094 107.683c-.866-2.644.09-4.514 2.507-5.699v.228c-2.37 1.185-3.1 2.963-2.28 5.334z"/><path fill="#DFE3E7" d="M63.055 77.684c.228.09-1.778-1.05 29.36 16.914l.365-.228v6.611l-28.13-16.23c-.911-.502-1.595-1.779-1.595-2.782-.046-4.285-.046-4.103 0-4.285"/><path fill="#7035E4" d="M63.055 77.684c-.046.228 0 0 0 4.24 0 1.048.729 2.28 1.595 2.78l28.13 16.231 39.072-22.568v-1.504l2.28 1.322-41.716 24.072L63.328 85.48c-.912-.502-1.596-1.733-1.596-2.781v-3.967c0-.319.092-.73.32-.912.182-.228.547-.319 1.003-.136"/><path fill="#8757E4" d="M62.781 86.939v2.416c0 1.003.547 2.325 1.277 2.963 9.665 8.298 8.206 7.022 8.343 7.158a3.6 3.6 0 0 0-.82 1.231c-.046 0 0 0-9.074-7.796-.729-.593-1.276-1.915-1.276-2.963 0-4.377 0-3.921.046-3.967.319.32.547.365 1.504.958"/><path fill="#7035E4" d="M60.638 75.085c44.771-25.85 41.717-24.118 41.99-24.164.274-.045.502 0 .866.228l30.592 17.644L92.37 92.865C59.772 74.036 61.641 75.04 61.23 74.995c-.181-.046-.41 0-.592.09"/><path fill="#B878ED" d="m100.713 61.225 13.267 7.66c.548.318 1.414.318 1.961 0l.638-.365c.547-.32.547-.821 0-1.14l-13.267-7.66c-.547-.319-1.413-.319-1.96 0l-.639.365c-.547.32-.547.82 0 1.14"/><path fill="#B879EC" d="M60.182 83.565c0 .82.456 1.778 1.095 2.37-.046.046-.046-.273-.046 3.967 0 1.003.547 2.325 1.276 2.964 9.256 7.933 9.073 7.796 9.073 7.796a4 4 0 0 0-.273 1.504c-.046 0 .136.137-10.03-8.571-.73-.593-1.277-1.915-1.277-2.963V83.2c0-.228.046-.501.137-.73v1.095z"/><path fill="#B0A7C2" fill-opacity=".2" d="M96.61 113.108c-.957.365-1.915.73-2.827 1.094-.866.365-1.686.32-2.325-.41-.684-.729-1.413-.821-2.325-.365a10 10 0 0 1-2.052.775c-.456.137-1.595.183-1.595.183v-1.733s1.96-.775 2.644-1.231c-.593-.045-1.824 0-1.824 0v-3.647s-.273-1.003-.684-1.368c-3.738-3.146-7.431-6.337-11.124-9.528-.547-.456-1.14-.593-1.732-.684-1.368-.228-2.69-.502-4.058-.684-1.094-.137-1.55-.775-1.778-1.733-.183-.73-.41-1.504-.502-2.234-.182-1.14-1.003-2.826-2.006-3.601 2.918 1.413 6.383 3.693 9.438 5.425h-1.87c4.56 3.92 13.541 11.58 13.541 11.58v-1.732l3.237-1.277.593.365s1.915 1.094 2.963 1.687c.046-.638.092-1.14.137-1.687.547-.365 1.277-.775 2.006-1.231a63 63 0 0 0-1.687-.091s-.045-2.097.046-3.01c.046-.82-.274-1.093-.957-1.458L73.404 85.844l-7.112-4.103c-1.505-.866-2.007-.547-2.052 1.14v1.504c-1.003 0-1.824-.319-2.416-.866 0 0-.32-.73-.137-1.368 0 0-.365-3.738-.183-4.24.32-.775 1.323-.319 1.323-.319.41.183.82.41 1.23.639 8.845 5.106 17.736 10.212 26.58 15.364a88 88 0 0 1 1.733 1.003v-1.733l41.716-24.072v1.733l-2.279 1.322v5.06l2.279 1.323v1.732l-1.732 1.003c5.79 3.465 11.671 6.61 17.507 10.076-.593.365-1.003.638-1.459.912-12.082 6.975-24.163 13.951-36.245 20.881-1.094.638-2.234 1.276-3.328 1.96-.867.547-1.687.456-2.554.046a9 9 0 0 1-1.094-.639c-.638-.455-1.276-.364-1.915 0-.319.183-.683.365-1.003.593-.911.593-1.869.547-2.78 0a93 93 0 0 0-2.873-1.687"/><path fill="#C5BED1" d="M77.462 107.5c-.502 0-.958.183-1.368.183-.866-2.781.182-4.651 2.507-5.699.502.866.183 2.097.502 3.146-.547.228-1.049.41-1.641.638zM64.422 87.85c-1.368.867-.866 2.326-.638 4.104-.638-.274-1.87-1.505-2.508-1.778v-4.24c.867.136 2.052 1.048 3.146 1.914"/><path fill="#BA6EF7" d="M60.501 75.176c.183-.182.456-.228.73-.182.41.045-1.46-.958 31.139 17.871v1.733C61.322 76.68 63.1 77.638 62.735 77.592a.98.98 0 0 0-.73.183c-.227.228-.318.592-.318.911v3.967c0 1.049.73 2.28 1.595 2.781l29.088 16.778v1.732c-.82-.501-27.583-15.957-30.592-17.644-.866-.501-1.596-1.732-1.596-2.78v-7.432c0-.274.091-.684.32-.912"/><path fill="#EAE8ED" d="M209.905 149.354c1.459.82 1.459 2.188 0 3.054-1.459.821-3.784.821-5.243 0-1.459-.82-1.459-2.188 0-3.054 1.459-.821 3.784-.821 5.243 0"/><path fill="url(#b)" d="M128.251 113.063c.136 1.504.456 2.644 1.139 4.057.548 1.14 1.551 2.553 2.508 3.374 1.049.912 2.371 1.55 3.602 2.234 1.869 1.003 3.647 2.097 5.471 3.191.456.274 30.364 17.553 30.865 17.736 2.462 1.048 4.332-.456 4.332-3.283.182-82.475.091-67.02.136-71.898 0-3.602.092-7.204.046-10.805 0-2.371-.091-4.742-.046-7.158 0-1.003.046-2.006-.045-3.01-.411-2.963-2.143-5.653-4.058-7.157-.775-.593-1.641-1.094-2.553-1.55-1.413-.775-2.781-1.596-4.149-2.417-4.696-2.735-9.346-5.288-15.592-8.936-11.353-6.747-10.532-5.835-13.495-7.75-2.052-1.322-4.788-3.465-6.794-2.006-1.413 1.003-1.276 3.146-1.231 4.741.092 2.28-.136 1.824 0 10.167.046 3.921-.182 79.239-.136 80.47m29.042-78.418v.137c0 .045 0 .09-.046.136 0 .046-.046.046-.091.092-.319.136.228.364-8.982-4.97l-.137-.137c-.091-.09-.227-.228-.273-.319-.228-.364-.182-.547-.182-1.276 0-.183.045-.32.182-.41.046-.046.182-.046.273 0 .046 0 .092 0 .137.045 1.322.82 8.526 4.878 8.708 5.06.137.137.274.228.365.548.091.228.046.592.046 1.094"/><path fill="#FCFCFC" d="m140.925 41.393-6.747-3.876c-.821-.456-1.505-1.55-1.505-2.37s.684-1.095 1.505-.639l6.747 3.875c.821.456 1.505 1.55 1.505 2.371 0 .82-.684 1.094-1.505.639M140.925 45.587l-6.748-3.875c-.821-.456-1.504-1.55-1.504-2.371 0-.82.683-1.094 1.504-.638l6.748 3.875c.82.456 1.504 1.55 1.504 2.37s-.684 1.095-1.504.639M168.371 50.42l-32.643-18.83c-1.687-1.003-3.055-3.145-3.055-4.832s1.368-2.28 3.055-1.277l32.643 18.83c1.687 1.002 3.055 3.145 3.055 4.832s-1.368 2.28-3.055 1.277" opacity=".69"/><path fill="#3F4F5D" d="M148.265 28.034c9.119 5.243 8.754 4.878 8.936 5.517.046.045.046.136.046.182v.729c-9.301-5.38-8.435-4.878-8.663-5.06a1.25 1.25 0 0 1-.364-.866v-.502z"/><path fill="#5D6571" d="M147.992 27.897c.045 0 .091 0 .137.046l.091.045c0 .639 0 .639.045.821.137.365.365.638.593.775l8.389 4.878v.274c0 .046 0 .091-.046.137 0 .045-.045.045-.091.091-.137.046-.091.046-.273.046-.046 0-.092-.046-.137-.046-8.708-5.06-8.845-5.015-8.982-5.425-.228-.365-.182-.639-.182-1.277 0-.091 0-.182.046-.32.136-.045.227-.09.41-.045"/><path fill="#8140FF" d="M133.494 16.545c-1.733-1.003-3.237-1.049-4.377-.456 6.702-3.784 6.611-3.92 7.523-4.058 1.322-.136 2.188.183 3.328.775l37.841 21.839c3.146 1.778 6.2 6.565 6.2 10.76-.228 98.25-.182 92.14-.273 93.052-.183 1.094-.821 2.325-1.733 2.873-8.115 4.65-6.246 3.692-5.881 3.282.866-.866 1.231-2.371 1.231-3.602l.182-91.912c0-3.876-2.598-8.663-6.2-10.76z"/><path fill="#A68EFE" d="m171.335 38.384-37.841-21.839c-1.733-1.003-3.237-1.049-4.377-.456-1.322.593-1.824 2.508-1.824 4.012l-.182 86.579v5.38c0 3.829 2.507 8.571 6.2 10.759l37.841 21.839c3.192 1.869 6.155.592 6.246-3.602l.183-91.913c-.046-3.784-2.644-8.617-6.246-10.76m4.969 30.09c-.045 4.65.046-10.213-.136 71.898 0 2.827-1.824 4.331-4.332 3.283-.501-.183-30.409-17.462-30.865-17.735-1.824-1.095-3.556-2.189-5.471-3.192-1.231-.684-2.553-1.322-3.602-2.234-.957-.821-1.96-2.234-2.508-3.374-.683-1.413-1.003-2.507-1.139-4.057-.046-1.14 0-.639 0-4.696 0-53.616.182-71.807.136-75.728-.091-8.389.092-7.888 0-10.167-.045-1.277-.136-2.644.456-3.83.411-.775 1.003-1.14 1.596-1.276 1.778-.593 4.377 1.367 5.973 2.37 1.641 1.049 3.465 1.96 5.197 2.918 4.149 2.234 6.976 4.15 16.595 9.575 10.167 5.79 8.891 5.151 11.444 6.61 1.778.958 2.918 1.642 4.24 3.283.866 1.14 1.368 2.052 1.778 3.1.775 2.097.684 3.192.638 5.334-.045 2.417 0 4.788.046 7.158.091 3.557 0 7.204-.046 10.76"/><path fill="#FCFCFC" d="M171.426 109.917c0 1.368-1.094 1.823-2.462 1.048L135.18 91.452c-1.367-.775-2.461-2.507-2.461-3.875V68.702c0-1.368 1.094-1.824 2.461-1.049l33.784 19.514c1.368.775 2.462 2.507 2.462 3.875z" opacity=".69"/><path fill="#9D8CF9" d="M156.444 95.115c1.811-1.362 1.341-5.044-1.05-8.223s-5.799-4.653-7.61-3.29c-1.811 1.361-1.341 5.043 1.051 8.223s5.798 4.652 7.609 3.29"/><path fill="#FCFCFC" d="M154.876 90.495c.183.228.319.501.319.73 0 .227-.136.364-.319.364h-3.647c-.182 0-.456-.137-.638-.365-.183-.228-.32-.501-.32-.73V86.3c0-.228.137-.364.32-.364.182 0 .456.136.638.364zM171.426 135.722c0 1.367-1.094 1.823-2.462 1.048l-33.784-19.513c-1.367-.775-2.461-2.507-2.461-3.875V94.507c0-1.368 1.094-1.824 2.461-1.049l33.784 19.513c1.368.776 2.462 2.508 2.462 3.876z" opacity=".69"/><path fill="#9D8CF9" d="M157.521 118.26c0 3.009-2.417 4.012-5.426 2.28-3.009-1.733-5.425-5.563-5.425-8.572s2.416-4.012 5.425-2.279c3.009 1.778 5.426 5.608 5.426 8.571"/><path fill="#FCFCFC" d="M154.876 116.3c.183.228.319.501.319.729s-.136.365-.319.365h-3.647c-.182 0-.456-.137-.638-.365-.183-.228-.32-.501-.32-.729v-4.195c0-.228.137-.365.32-.365.182 0 .456.137.638.365zM171.426 84.203c0 1.368-1.094 1.824-2.462 1.049l-33.738-19.514c-1.368-.775-2.462-2.507-2.462-3.875v-16.14c0-1.367 1.094-1.823 2.462-1.048l33.784 19.513c1.367.775 2.462 2.508 2.462 3.876v16.139z" opacity=".69"/><path fill="#9D8CF9" d="M157.521 68.11c0 3.008-2.417 4.011-5.426 2.279s-5.425-5.562-5.425-8.571c0-3.01 2.416-4.012 5.425-2.28s5.426 5.562 5.426 8.571"/><path fill="#FCFCFC" d="M154.876 66.103c.183.228.319.502.319.73s-.136.364-.319.364h-3.647c-.182 0-.456-.136-.638-.364-.183-.228-.32-.502-.32-.73V61.91c0-.228.137-.365.32-.365.182 0 .456.137.638.365z" opacity=".69"/><path fill="#B0A7C2" fill-opacity=".2" d="m177.399 110.282.136-61.093s4.696.775 5.836-7.25c.912 1.277.638 9.62.638 9.62l-.136 58.996s8.525.182 12.993.091c4.058-.045 7.705.958 11.17 2.964.046.045 14.316 8.161 26.58 15.364 1.641.958 3.511 1.641 4.65 3.693-2.644 2.28-5.243 3.83-8.89 3.739-10.988-.183-22.021 0-33.008-.137-2.69-.046-4.97.638-7.249 2.006-4.149 2.462-8.344 4.787-12.493 7.249-1.686 1.003-3.328.821-5.151-.228 6.154 1.915 4.878-7.979 4.878-7.979z"/><path fill="#C5BED1" d="M204.571 130.296c2.28 1.322 2.28 3.465 0 4.787s-5.973 1.323-8.252 0-2.28-3.465 0-4.787 5.972-1.322 8.252 0"/><path fill="#000" d="M205.574 79.553c-.091-.046-.182-.091-.273-.183 0 .046.045.046.273.183"/><path fill="#613FDD" d="M196.319 106.27c-.501-.411-.912-.958-.912-1.596v-2.189c0 .365.137.73.365 1.049 1.322 1.824 5.38 2.234 7.796.866.73-.41 1.413-1.094 1.413-1.96v2.188c0 .866-.683 1.505-1.413 1.961-2.143 1.276-5.562 1.048-7.249-.319"/><path fill="#8C88C0" d="M195.863 103.078c.091.228.228.41.411.593 1.413 1.504 4.969 1.823 7.112.592.456-.273.957-.683 1.185-1.185.046-.045.137-.365.411-.821.136.912-.593 1.687-1.368 2.143-2.371 1.368-6.474.958-7.796-.866-.274-.41-.456-.866-.365-1.368.137.319.273.593.41.912"/><path fill="#9E85F6" d="M202.976 110.783c-2.052 1.505-5.517 1.231-6.52 0-.41-.501-.319-1.049.182-1.504 1.186 1.094 4.423 1.231 6.338-.183.41-.273.775-.684.957-1.094.501 1.049 0 2.097-.957 2.781"/><path fill="#9E85F6" d="M196.41 112.105c.046-.091.137-.228.183-.228 1.185 1.14 4.422 1.231 6.383-.182.41-.319.775-.684.957-1.094.501 1.048-.046 2.097-.957 2.781-1.323.957-3.329 1.231-4.879.912-.82-.183-1.869-.684-1.915-1.459 0-.274.092-.502.228-.73"/><path fill="#000" d="M203.979 113.519c.091-.228.136-.411.136-.639.046.183 0 .411-.136.639"/><path fill="#000" d="M204.115 112.881v-.092c.046.046.046.046 0 .092q.069 0 0 0"/><path fill="#613FDD" d="M196.228 111.057v-.912c0 1.595 4.24 2.507 6.747.638.684-.501 1.14-1.14 1.14-1.869v.866c0 .821-.501 1.459-1.14 1.96-1.96 1.414-5.197 1.277-6.382.183-.228-.274-.365-.547-.365-.866"/><path fill="#613FDD" d="M196.228 108.458v-.912c0 .365.228.729.638 1.003 1.368.957 4.331.912 6.109-.365.639-.456 1.14-1.139 1.14-1.96v.912c0 .82-.501 1.459-1.14 1.96-1.914 1.413-5.151 1.277-6.337.183-.228-.183-.41-.502-.41-.821"/><path fill="#9E85F6" d="M202.976 108.184c-1.779 1.277-4.742 1.322-6.11.365-.729-.501-.912-1.231-.228-1.869.958.866 2.781.957 4.149.729 1.185-.091 2.462-.456 3.374-1.185-.046.821-.547 1.459-1.185 1.96"/><path fill="#000" d="M203.887 113.656c0-.046.046-.092.046-.092s0 .092-.046.092M203.614 114.021c0-.047.046-.047.046-.047s0 .047-.046.047M203.568 114.066c0-.046.046-.046.046-.046zM202.976 114.522q0-.069 0 0l.091-.092c0 .046-.046.046-.091.092"/><path fill="url(#c)" d="M211.638 89.173c-.182-7.204-8.571-14.043-16.595-9.757-3.329 1.778-5.882 5.06-6.383 8.708-.319 2.234.182 4.377 1.276 6.383 1.87 3.647 4.924 5.972 5.973 8.571.091.228.228.41.41.593 1.414 1.504 4.97 1.823 7.112.592.456-.273.958-.683 1.186-1.185.045-.046.137-.365.41-.821 1.687-3.191 6.748-7.249 6.611-13.084"/><path fill="#8C88C0" d="M200.787 107.409c-1.186.228-2.644.183-3.648-.364-.319-.183-.638-.411-.82-.73 1.14.866 2.963 1.185 4.468 1.094"/><path fill="#C0AD88" d="M203.477 114.157c.045-.046.091-.046.091-.091-.182.228-1.003 1.048-1.368 1.413-.866.912-3.191.912-4.057 0-.046-.046-.092-.137-.183-.182-.364-.411-.775-.775-1.139-1.186l-.046-.045c.182.182.41.364.684.501.182.091.365.182.547.228.045 0 .091.046.137.046.045 0 .045 0 .091.045h.091c.046 0 .137.046.182.046.046 0 .092 0 .137.045.046 0 .091 0 .137.046.137.046.273.046.41.091.046 0 .091 0 .137.046.091 0 .182 0 .274.045h.638c.41 0 .821-.045 1.231-.091.091 0 .137-.045.228-.045h.045l.411-.137a4.1 4.1 0 0 0 1.185-.593c0-.091.046-.137.137-.182"/><path fill="#613FDD" d="M204.115 111.467v1.413c0 .411-.182.775-.501 1.095l-.046.045-.045.046c-.046.045-.092.045-.092.091-.045.045-.091.091-.182.137-.319.273-.729.456-1.185.592l-.411.137h-.045c-.091 0-.137.046-.228.046-.41.091-.821.091-1.231.091h-.638c-.092 0-.183 0-.274-.046-.046 0-.091 0-.137-.045-.137 0-.273-.046-.41-.091-.091 0-.137-.046-.228-.046-.046 0-.137-.046-.182-.046h-.092c-.273-.091-.547-.182-.775-.319s-.456-.273-.638-.456l-.046-.045a2.2 2.2 0 0 1-.41-.547c-.137-.228-.137-.456-.137-.684v.182c0 .046 0 .046.046.091 0 .046 0 .046.046.091 0 .046.045.046.045.092 0 .045.046.045.046.091 0 .045.045.045.045.091l.137.137.091.091a.6.6 0 0 0 .183.137c.091.045.182.137.319.182.045 0 .091.046.091.046.046 0 .091.045.137.045a5.8 5.8 0 0 0 1.687.365h.82c.228 0 .502-.046.73-.091h.091c.046 0 .137 0 .182-.046a4.8 4.8 0 0 0 1.55-.547 1 1 0 0 0 .365-.228c.046-.045.137-.091.183-.137.319-.228.547-.455.775-.775a1 1 0 0 0 .136-.228c.046-.045.046-.091.092-.182 0-.046.045-.091.045-.137 0-.045.046-.091.046-.137 0-.045.045-.091.045-.136s0-.091.046-.137v-.046c-.046-.045-.046-.091-.046-.182"/><path fill="#EDDFDF" d="M202.839 92.318c-.092.183-.365.183-.502 0-.091-.09-.091-.182-.091-.228.045-.182.365-.182.501-.045.092.091.137.182.092.273"/><path fill="#866AEC" d="M201.015 97.653c-.046.182-.456.182-.593.045-.045-.045-.045-.09-.045-.136 0 0 1.869-5.426 1.869-5.471-.046.182.228.364.41.319q.137 0 .137-.137c-.365 1.23-1.778 5.38-1.778 5.38"/><path fill="#957EE8" d="M201.015 97.653c.091-.274.183-.593.319-.867.502.32.411.821-.091 1.14-.638.365-1.732.32-2.234-.137-.456-.364-.273-.866.274-1.094.091.365.091.365.182.456.182.137.593.046.547-.137-.045-.182-.091-.319-.137-.501.32-.046.639-.046.912.045l-.365 1.003c-.045.183.32.274.548.183 0 0 0-.046.045-.091"/><path fill="#713DD7" d="M201.471 97.698a.52.52 0 0 0 .137-.364v2.553c0 .273-.183.456-.411.592-.912.547-2.462.137-2.462-.592v-2.553c0 .182.092.364.228.455.639.547 2.052.456 2.508-.09"/><path fill="#A28BF8" d="M201.654 97.744v2.143c0 .273-.183.456-.411.592-.866.502-2.462.183-2.462-.592v-2.143c-2.69.593-3.419 2.599-1.368 3.738 1.551.867 4.058.912 5.608 0 2.006-1.185 1.231-3.145-1.367-3.738"/><path fill="#EDDFDF" d="M198.052 89.4c-.183.183-.639.228-.593.092 0 0 0-.046.046-.046.182-.137.592-.182.547-.046"/><path fill="#866AEC" d="M198.052 89.355c.592 2.37 1.778 7.203 1.869 7.614.045.182-.365.273-.547.137-.046-.046-.091-.046-.091-.092l-1.87-7.522c.046.09.411.045.547-.092.092 0 .137 0 .092-.045"/><path fill="#7658E6" d="M204.161 99.841v2.188c-.046.548-.41 1.14-1.185 1.551-1.551.911-4.058.911-5.608 0-.775-.456-1.186-1.049-1.186-1.642v-2.142c0 .592.411 1.185 1.186 1.641 1.55.912 4.057.912 5.608 0 .775-.411 1.185-1.003 1.185-1.596"/><path fill="#613FDD" d="M197.641 86.984c-.319.593-.957 1.778-1.504 2.189-.684.501-1.049-.41-1.14-1.277-.274-2.599 1.459-5.517 3.328-6.52.41-.228 1.003-.364 1.185.046.502 1.003-1.367 4.65-1.869 5.562"/><path fill="#452D9D" d="m199.693 97.835-.091-.182c-.228-.456-.365-.958-.411-.958 0 0-.045.046-.045.091-.274.32-.137.639.182.867z"/><path fill="#5324B0" d="M204.89 102.85v2.052c-.137.592-.273.775-.638 1.139a.6.6 0 0 0-.137.183v.182c0 .73 0 .958-.045 1.186 0 .045 0 .091-.046.136v.046c0 .046-.046.091-.046.137 0 0 0 .045-.045.091.137.41.182.41.182 1.094v.137c0 .912 0 .912-.182 1.368.137.41.182.456.182 1.048v1.231c0 .411-.182.775-.501 1.094l-.046.046-.046.046c-.182.228-1.003 1.048-1.367 1.413-.867.912-3.192.912-4.058 0-.046-.046-.091-.137-.182-.182v-.137c0-.091 0-.091-.274-.41-.091-.092-.137-.183-.182-.228l-.046-.046c.183.137.411.228.593.319.045 0 .091.046.137.046.045 0 .091.045.136.045h.046c.046 0 .137.046.182.046.046 0 .092 0 .137.045.365.092.73.137 1.14.183h.137v-.775s.228 0 .456-.046h.364c.092 0 .137-.045.183-.045h-.091c-.502 0-1.14-.137-1.596-.274-.866-.319-1.55-.729-1.733-1.231-.045-.091-.045-.273-.045-.365 0 0 .045 0 .137.046.045.046.136.046.182.091q.273.137.684.137h.137c.364.045.775.045 1.094.045h.273v-.957c.73-.046.912-.091.958-.091h-.319c-.639-.046-1.277-.182-1.87-.502-.729-.364-1.276-.775-1.367-1.276v-.137c.045 0 .091 0 .182.046.046 0 .046.045.091.045.638.274 1.55.274 2.234.274v-.046c0-.091 0-.091-.137-.273-.136-.183-.501-.593-.592-.639l-.183-.091c-.638-.273-1.185-.821-1.367-1.368-.092-.182-.183-.364-.137-.456v-.091s-.091-.045-.137-.091a1.4 1.4 0 0 0-.319-.228c-.091-.091-.228-.273-.228-.319h.046c.045.046.091.046.136.091.091.046.137.091.228.137.046.046.137.046.228.091.228.091.411.183.684.228.319.091.684.182 1.003.228.046 0 .137 0 .182.046.183.045.411.045.548.045v-2.371c1.231 0 1.778.046 3.1-.501.091-.046.319-.137.228-.091h-.091c-.092.045-.183.045-.274.045-.41.046-2.827-.228-2.872-.228-.046 0 0-1.459 0-2.142h.364c1.414 0 2.736-.502 3.42-1.186.137-.137.273-.319.273-.365 0 0-.045 0-.091.046-.091 0-.228.046-.319.046-.137 0-3.146.045-3.328 0V97.06c-.046 0-.319.091-.319.091s-1.87-7.477-1.87-7.614a.7.7 0 0 1 .137-.09l1.733 7.02s.729-.045.912.046l.045-.183c0 .046.091.228.183.41.182.366-.046-.911.091-.592 0 0 .045.183.091.274.045.09.045.136.091.09l1.322-4.102h.046c.182.045.273-.092.273-.092-.045.228-1.55 4.468-1.55 4.468s.319.183.319.41v1.824c.183 0 .456.046.639.046.045 0 1.185-.502 1.185-.502l.274.274c0 .046-.411.182-.411.182h.046c.091 0 .41.046.456.092.045 0 .137.045.137.136.091.274.091.274.091 1.687.045.046.045.091.091.091.319.32.501.639.638 1.049.046.091.046.091.046.182-.046.183-.046.32-.046.593"/><path fill="#EEE6D9" d="M202.018 92.546c-.319-.045-.41-.364-.41-.684.228-.182.501-.501.501-.729 0-.274-.319-.41-.592.137a.87.87 0 0 0-.137.456c-.502.319-.958.09-.958-.547.228-.183.502-.502.502-.73 0-.273-.319-.41-.593.137a.9.9 0 0 0-.137.456c-.501.319-1.003.091-.957-.547.228-.183.502-.502.502-.73 0-.273-.32-.41-.593.137a.9.9 0 0 0-.137.456c-.182.091-.365.182-.501.137-.456-.046-.548-.684-.32-1.14.137.091.274.045.32-.091.182-.456-.228-.684-.548-.046-.319.593-.182 1.46.502 1.55.182.046.365 0 .547-.09.046.683.593.957 1.185.683.046.684.639.957 1.186.684.045.365.228.73.638.775q.137 0 .137-.137 0-.069-.137-.137m-.182-1.322c-.046.046-.046.137-.091.182 0-.045.045-.136.091-.182m-1.186-.684c-.045.046-.045.137-.091.183a.35.35 0 0 1 .091-.183m-1.185-.684c-.046.046-.046.137-.091.183 0-.046.045-.137.091-.183m-1.231-.729c-.046.046-.046.137-.091.182.045-.045.045-.09.091-.182"/><path fill="#EED9D9" d="M201.835 91.224c-.045.046-.045.137-.091.183a.35.35 0 0 1 .091-.183M200.65 90.54c-.045.046-.045.137-.091.183a.35.35 0 0 1 .091-.183M199.465 89.856c-.046.046-.046.137-.091.183 0-.046.045-.137.091-.183"/><path fill="#957EE8" d="M195.863 155.372v-5.107c0-.729-.502-1.55-1.094-1.914l28.768-16.596c.593.365 1.094 1.231 1.094 1.915v5.106c0 .411-.136.639-.319.73-9.574 5.516-19.148 11.079-28.723 16.595.183-.182.274-.456.274-.729"/><path fill="#452D9D" d="m223.492 131.755-28.769 16.596-2.37-1.368c-.684-6.793-1.414-13.587-2.098-20.38l12.128-7.021zM195.407 156.147a.9.9 0 0 1-.684-.137l-1.55-.912c-.046-.41-.091-.866-.137-1.276.639.364.775.456 1.003.501.183.046.411-.045.411-.091.182-.091.273-.319.273-.502.046-.136 0 .092 0-2.917 0-.73-.501-1.551-1.094-1.915l-1.231-.684c-.046-.411-.091-.866-.137-1.277l2.371 1.368c.593.365 1.094 1.231 1.094 1.915v5.106c0 .274-.091.547-.319.73.137.045.046.091 0 .091"/><path fill="#C8D1DD" d="M194.814 153.776c-.136-.046-.045 0-1.823-1.049-.137-1.504-.319-3.009-.456-4.513l1.231.684c.638.364 1.094 1.231 1.094 1.915-.046 3.009-.046 2.826-.046 2.963"/><path fill="#452D9D" d="M194.495 154.323c-.273.137-.547.046-.775-.091l-.638-.365a9 9 0 0 1-.091-1.14c1.778 1.003 1.732 1.003 1.823 1.049-.045.228-.136.41-.319.547q0-.067 0 0"/><path fill="#522BA5" d="M193.173 155.144c.046.592.137 1.14.183 1.732.045.228-.091.547-.456.821l-4.423 3.1c-.638.456-1.595.502-2.234.137l-2.872-28.358v-2.28c0-.228-.137-.41-.319-.547.593.365 1.596.319 2.234-.137l4.422-3.1c.32-.228.502-.547.456-.82.046 0 1.231 12.264 3.009 29.452"/><path fill="#7B4AE2" d="M187.976 126.33c-.046-.046-.137-.091-.183-.137l-.091-1.003c.41.274.547.729.274 1.14"/><path fill="#C8D1DD" d="M187.976 126.33c-.137.228-.183.182-2.644 1.96-.639.456-1.596.502-2.234.137l-18.602-10.76c3.784-2.69 3.1-2.188 3.83-2.69 20.926 12.082 19.513 11.262 19.65 11.353"/><path fill="#7B4AE2" d="m187.748 126.193-19.422-11.216-.547.411-.183-1.778 20.061 11.58z"/><path fill="#311669" d="m183.417 132.576 2.872 28.358-2.872-1.687z"/><path fill="#6A56B5" d="M183.416 163.487c0 .182-.136.456-.455.638l-4.423 2.553c-.456.228-1.14.365-1.778.183v-32.735a.73.73 0 0 0-.137-.41 2 2 0 0 0-.319-.274c.593.365 1.596.365 2.234 0 4.833-2.781 4.605-2.644 4.742-2.827a.52.52 0 0 0 .136-.364z"/><path fill="#5A45A4" d="M181.319 130.16c.046.182-.045.455-.273.638-.091-.091 1.231.684-19.559-11.307l-.638.365v-1.778l20.06 11.58c.137.091.365.274.41.502"/><path fill="#C8D1DD" d="M178.493 132.302c-.639.365-1.596.365-2.234 0l-18.51-10.668c3.465-2.006 2.826-1.641 3.647-2.097 20.79 11.99 19.468 11.215 19.559 11.306-.046.046 0 0-2.462 1.459"/><path fill="#7740BE" d="M176.715 134.126v33.191c0 .182-.137.456-.456.638l-4.423 2.553c-.592.365-1.595.365-2.234 0v-33.191c.639.365 1.596.365 2.234 0l4.423-2.553c.228-.137.456-.364.456-.638"/><path fill="#582F8E" d="M174.663 133.989c.045.183-.046.456-.274.638-.091-.091 1.231.684-19.559-11.306l-.638.364v-1.778l20.061 11.581c.136.091.319.319.41.501"/><path fill="#CCC8DD" d="M174.344 134.673c-.091.091-.046.046-2.508 1.459-.592.365-1.595.365-2.234 0l-18.464-10.668c3.465-2.006 2.826-1.642 3.647-2.098 20.79 11.991 19.468 11.216 19.559 11.307"/><path fill="#8255BF" d="M169.602 137.317v33.191l-21.063-12.173v-33.191z"/><path fill="#B0A7C2" fill-opacity=".2" d="M170.469 170.873v-33.236c1.367-.137 2.416-1.003 3.556-1.642.957-.547 1.276-1.96 2.234-2.462.273-.182.866.091 1.413.183.319.045.638-.183.957-.365.365-.182.639-.365 1.003-.593.32-.182.593-.319.912-.501.912-.547 1.778-1.094 2.69-1.642.137-.091-.319-.82-.137-.82 0-.137.684.41.684.273.046-.045.091-.091.183-.091.82 0 1.459-.41 2.051-.866 1.322-.958 2.69-2.188 4.149-3.237.091.912.183 1.96.274 2.735.364 3.648.775 7.249 1.139 10.897.046.456.092 1.094.137 1.55.046.593.228.912.821 1.231a204 204 0 0 1 5.38 3.055c.82.501 1.595 1.048 2.507 1.641 7.979-4.559 15.866-9.164 24.118-13.86 0 1.094.137 2.006.091 2.872-.045.775.228 1.094.912 1.459 1.14.593 2.28 1.277 3.374 1.961.228.136.41.273.73.501a4222 4222 0 0 1-24.438 14.088c.228.182.411.319.548.456 2.461 1.413 4.969 2.872 7.431 4.286.365.227.912.364.866.911-.045.456-.501.639-.866.821-1.277.684-2.599 1.322-3.875 2.052-.775.456-1.55.684-2.462.501-.046.319-.046.638-.183.866-.182.228-.456.411-.729.593-1.049.638-2.143 1.231-3.192 1.869-.729.456-1.504.867-2.507.639.046.729-.365 1.048-.912 1.322-1.322.729-2.599 1.504-3.875 2.234-.547.319-1.14.365-1.733.365h-22.157c-.319-.046-.684-.046-1.094-.046"/><path fill="#7E63EB" d="m187.657 125.19-20.061-11.58 1.049-.73 21.109 12.173c.547.319.638.958 0 1.414l-4.422 3.1c-.639.456-1.596.501-2.234.137-.092-.092 1.367.775-21.064-12.173l1.049-.73c2.143 1.231-.912-.547 20.06 11.58.593.365 1.596.32 2.234-.136l2.325-1.642c.593-.456.547-1.048-.045-1.413"/><path fill="#7146AA" d="M174.663 134.126c0-.274-.228-.502-.456-.638l-20.06-11.581 1.048-.592c22.523 12.993 21.246 12.218 21.428 12.446.319.411.092.775-.319 1.003l-4.422 2.553c-.593.365-1.596.365-2.234 0l-21.109-12.173 1.048-.592c1.87 1.048-2.188-1.277 20.061 11.58.638.365 1.595.365 2.234 0 2.507-1.459 2.507-1.413 2.69-1.641 0-.091.091-.228.091-.365"/><path fill="#6A56B5" d="M183.097 129.749c.183.137.32.319.32.547 0 .274-.228.502-.456.639l-4.423 2.553c-.638.364-1.595.364-2.234 0l-21.109-12.173 1.049-.593c12.857 7.431 20.015 11.535 20.06 11.58.593.365 1.596.365 2.234 0 2.325-1.367 2.417-1.367 2.508-1.459a.65.65 0 0 0 .273-.547c0-.273-.228-.501-.456-.638l-20.06-11.58 1.049-.593s21.109 12.173 21.245 12.264"/><path fill="#957EE8" d="m199.237 126.33 13.267 7.659c.547.319 1.413.319 1.96 0l.639-.365c.547-.319.547-.82 0-1.139l-13.222-7.66c-.547-.319-1.413-.319-1.96 0l-.639.365c-.592.319-.592.821-.045 1.14"/><path fill="#6819A5" d="m165.681 142.515-13.267-7.66c-.547-.319-1.003-.136-1.003.411v.638c0 .547.456 1.231 1.003 1.55l13.267 7.66c.547.319 1.003.136 1.003-.411v-.638c0-.547-.456-1.231-1.003-1.55M165.681 147.165l-13.267-7.659c-.547-.319-1.003-.137-1.003.41v.638c0 .548.456 1.231 1.003 1.551l13.267 7.659c.547.319 1.003.137 1.003-.41v-.639c0-.547-.456-1.231-1.003-1.55"/><path fill="url(#d)" d="m93.829 162.471.058-9.51h19.721l1.379 4.32h5.897l1.416 5.19z" style="mix-blend-mode:multiply"/><path fill="url(#e)" d="M112.002 156.69c0-3.715 2.35-3.817 2.35-3.817s1.277 0 3.343-.861c2.044-.847 4.919-.518 3.314 2.452a.4.4 0 0 1-.059.11c-.102.16-.27.306-.525.459l-5.146 3.015c-.781.445-3.277-.584-3.291-1.351z"/><path fill="#131147" d="M112.017 156.362c.044.766 2.503 1.781 3.277 1.335l5.145-3.014c.168-.102.467-.292.723-.525a6 6 0 0 1-.146.313c-.015.037-.029.073-.058.11-.103.16-.271.306-.526.46l-5.145 3.014c-.73.416-2.964-.46-3.263-1.204a.7.7 0 0 1-.022-.154c-.007-.116 0-.219 0-.328z"/><path fill="#FACFA7" d="M113.542 152.056c.665 0 2.496.591 2.496.591s.015.321.205.605c.022.03.044.052.066.081.459.321.926.824-.161 1.511-.89.562-1.62.204-1.963-.139-.139-.263-.343-.555-.635-.715-.292-.168-.475-.249-.606-.256v-.058s.328-1.613.606-1.613z"/><path fill="url(#f)" d="M113.396 113.403c2.54.043 7.08.532 9.62.576-.949 7.634-1.431 13.181-2.701 20.575-1.364 7.181-2.897 12.232-4.24 18.217-.489 1.116-2.416.81-2.868-.263.511-6.955-.635-12.334 1-18.691-.146-3.606.416-7.985-.161-9.62-1.336-3.766-1.336-7.298-.642-10.802z"/><path fill="url(#g)" d="M116.819 117.14c2.54.043 8.539.649 11.079.693 1.613 8.984 1.168 13.648-.102 21.041-1.365 7.182-2.897 12.233-4.24 18.218-.489 1.116-2.577.693-3.036-.38.335-6.204-.468-12.218 1.16-18.575-.292-3.744-.854-9.342-1.328-10.604-.891-2.402-4-5.241-3.54-10.401z"/><path fill="#6848DF" d="M114.287 91.004c-2.591 2.503-6.386 14.268-1.54 20.844 2.744-3.613 1.54-20.844 1.54-20.844"/><path fill="url(#h)" d="M138.437 78.742c-1.54 3.248-3.051 8.08-3.919 9.014-1.54 1.664-5.321 2.759-9.065 3.46-.394.072-1.292.138-1.409.087a6.4 6.4 0 0 1-1.569-.934c-1.875-1.475-2.89-2.314-3.795-2.504-7.444-1.518-6.481 11.59-5.861 25.735.577 3.759 1.38 4.16 2.752 4.963 3.321 1.773 10.824 3.313 12.765-.438-1.358-3.365-2.525-8.357-2.62-12.021-.059-2.321 1.562-4.175 2.109-6.773a8.4 8.4 0 0 0-.372-1.678c5.466-3.044 9.524-5.693 10.086-7.124 1.373-3.467 2.555-6.963 3.219-10.765l-2.328-1.03z"/><path fill="#FCD1A9" d="M138.853 78.093v.022c-.007-1 .204-1.592.591-1.76.081-.24.168-.489.256-.73.496-1.4 2.065-2.598 2.401-2.27.204.205-.599.818-1.015 1.482-.277.438-.277.686-.35 1.051 0 0 1.876.176 1.876 1.737 0 1.27-.686.767-.686.519-.482 1.284-1.059.525-1.285 1.569l-2.029-.898s.095-.292.241-.722"/><path fill="#20196F" d="M125.555 82.15c-.438-2.284-2.853-5.882-6.911-5.006-3.92.846-4.985 3.386-4.759 7.335.153 2.715-.963 10.663-7.079 11.086 3.269 4.416 21.859 2.635 18.749-13.415"/><path fill="url(#i)" d="M114.549 90.923c2.642-5.21.635-8.794 2.029-11.203.803-1.387 3.182-3.27 6.605-1.489-1.138-.941-2.671-1.496-4.547-1.087-3.919.846-4.985 3.386-4.758 7.335.153 2.715-.964 10.663-7.08 11.086 2.452.679 6.08-1.35 7.751-4.634z"/><path fill="url(#j)" d="M124.409 107.476c1.022 1.993 2.132 9.722 2.029 12.371.818-.365 1.482-.927 1.898-1.722-1.358-3.365-2.525-8.357-2.62-12.021-.059-2.321 1.562-4.175 2.109-6.773a8.4 8.4 0 0 0-.372-1.678c-1.168 1.167-2.182 2.19-2.525 3.211-.343 1.022-1.54 4.613-.519 6.605z" style="mix-blend-mode:multiply"/></g><defs><linearGradient id="b" x1="128.238" x2="176.398" y1="80.623" y2="80.623" gradientUnits="userSpaceOnUse"><stop stop-color="#C4B8E9"/><stop offset=".417" stop-color="#C8B2DE"/><stop offset="1" stop-color="#B96AF7"/></linearGradient><linearGradient id="c" x1="200.041" x2="200.257" y1="86.175" y2="106.326" gradientUnits="userSpaceOnUse"><stop stop-color="#A28AF7"/><stop offset="1" stop-color="#613FDD"/></linearGradient><linearGradient id="d" x1="122.3" x2="93.829" y1="157.719" y2="157.719" gradientUnits="userSpaceOnUse"><stop stop-color="#C4CAE9"/><stop offset=".09" stop-color="#CDD2EC"/><stop offset=".41" stop-color="#E8EAF6"/><stop offset=".69" stop-color="#F9F9FC"/><stop offset=".9" stop-color="#fff"/></linearGradient><linearGradient id="e" x1="121.476" x2="111.995" y1="154.88" y2="154.88" gradientUnits="userSpaceOnUse"><stop stop-color="#362E94"/><stop offset=".52" stop-color="#29217E"/><stop offset="1" stop-color="#20196F"/></linearGradient><linearGradient id="f" x1="117.622" x2="118.79" y1="116.921" y2="156.143" gradientUnits="userSpaceOnUse"><stop stop-color="#131147"/><stop offset=".18" stop-color="#1A1656"/><stop offset=".72" stop-color="#2E2782"/><stop offset="1" stop-color="#362E94"/></linearGradient><linearGradient id="g" x1="122.673" x2="123.84" y1="116.76" y2="155.946" gradientUnits="userSpaceOnUse"><stop stop-color="#20196F"/><stop offset=".32" stop-color="#292280"/><stop offset=".96" stop-color="#403CAC"/><stop offset="1" stop-color="#423EAF"/></linearGradient><linearGradient id="h" x1="112.403" x2="156.202" y1="99.594" y2="99.594" gradientUnits="userSpaceOnUse"><stop stop-color="#957EE8"/><stop offset=".21" stop-color="#613FDD"/><stop offset=".71" stop-color="#957EE8"/><stop offset="1" stop-color="#613FDD"/></linearGradient><linearGradient id="i" x1="107.309" x2="121.015" y1="95.266" y2="76.735" gradientUnits="userSpaceOnUse"><stop stop-color="#423EAF"/><stop offset=".06" stop-color="#403CAC"/><stop offset=".61" stop-color="#38319A"/><stop offset="1" stop-color="#362E94"/></linearGradient><linearGradient id="j" x1="126.168" x2="126.168" y1="119.847" y2="85.588" gradientUnits="userSpaceOnUse"><stop stop-color="#fff"/><stop offset=".57" stop-color="#E2E5F7"/><stop offset="1" stop-color="#D1D7F3"/></linearGradient><clipPath id="a"><path fill="#fff" d="M0 0h302v155H0z"/></clipPath></defs></svg>