<svg xmlns="http://www.w3.org/2000/svg" width="302" height="155" fill="none"><g clip-path="url(#a)"><path fill="#FFEFC0" d="M0 0h302v155H0z"/><g fill="#E8ECF7" style="mix-blend-mode:multiply"><path d="M59.25 125.434c.755.435 1.975.435 2.726 0 .755-.434.755-1.14 0-1.575-.754-.435-1.975-.435-2.726 0s-.751 1.141 0 1.575M65.923 129.287c.751.435 1.975.435 2.727 0 .754-.434.754-1.14 0-1.575-.752-.435-1.976-.435-2.727 0s-.75 1.141 0 1.575M72.593 133.137c.755.435 1.976.435 2.727 0 .754-.435.754-1.141 0-1.575-.751-.435-1.975-.435-2.727 0-.754.434-.754 1.14 0 1.575M81.993 135.415c-.755-.435-1.975-.435-2.727 0-.75.434-.75 1.14 0 1.575.755.435 1.976.435 2.727 0s.751-1.141 0-1.575M52.58 129.287c.751.435 1.975.435 2.727 0 .754-.434.754-1.14 0-1.575-.755-.435-1.976-.435-2.727 0-.755.435-.755 1.141 0 1.575M59.25 133.137c.755.435 1.975.435 2.726 0 .755-.435.755-1.141 0-1.575-.75-.435-1.975-.435-2.726 0-.751.434-.751 1.14 0 1.575M65.923 136.99c.755.435 1.975.435 2.727 0 .75-.435.75-1.141 0-1.575-.752-.435-1.972-.435-2.727 0-.75.434-.75 1.14 0 1.575M75.32 139.268c-.752-.435-1.976-.435-2.727 0s-.751 1.141 0 1.575c.755.435 1.975.435 2.727 0 .754-.434.754-1.14 0-1.575M45.907 133.137c.754.435 1.975.435 2.726 0s.751-1.141 0-1.575c-.755-.435-1.975-.435-2.726 0-.751.434-.751 1.14 0 1.575M52.58 136.99c.751.435 1.975.435 2.727 0 .754-.435.754-1.141 0-1.575-.755-.435-1.976-.435-2.727 0-.755.434-.755 1.14 0 1.575M59.25 140.843c.75.435 1.975.435 2.726 0 .755-.434.755-1.14 0-1.575-.751-.435-1.975-.435-2.726 0-.755.435-.755 1.141 0 1.575M68.65 143.121c-.755-.435-1.976-.435-2.727 0s-.75 1.141 0 1.575c.755.435 1.975.435 2.727 0 .75-.434.75-1.14 0-1.575M39.237 136.99c.754.435 1.975.435 2.726 0s.751-1.141 0-1.575c-.755-.435-1.975-.435-2.726 0-.751.434-.751 1.14 0 1.575M45.907 140.843c.75.435 1.975.435 2.726 0 .751-.434.751-1.14 0-1.575s-1.975-.435-2.726 0c-.755.435-.755 1.141 0 1.575M52.58 144.693c.751.435 1.975.435 2.727 0 .754-.435.754-1.141 0-1.575-.755-.435-1.976-.435-2.727 0-.755.434-.755 1.14 0 1.575M61.976 146.971c-.75-.435-1.975-.435-2.726 0-.751.434-.751 1.14 0 1.575s1.975.435 2.726 0c.755-.435.755-1.141 0-1.575M35.29 139.268c-.755-.435-1.975-.435-2.727 0-.75.435-.75 1.141 0 1.575.755.435 1.976.435 2.727 0 .75-.434.75-1.14 0-1.575M41.963 143.121c-.755-.435-1.975-.435-2.726 0s-.751 1.141 0 1.575c.754.435 1.975.435 2.726 0 .755-.434.755-1.14 0-1.575M48.633 146.971c-.751-.435-1.975-.435-2.726 0-.755.434-.755 1.14 0 1.575.75.435 1.975.435 2.726 0s.751-1.141 0-1.575M55.307 150.824c-.755-.435-1.976-.435-2.727 0-.755.434-.755 1.14 0 1.575s1.975.435 2.727 0c.75-.435.75-1.141 0-1.575"/></g><path fill="url(#b)" d="m209.226 131.05-20.608-14.609-42.6 39.255-.605.348-1.652.956h1.561l1.655-.956h19.134l-.09-.053z" style="mix-blend-mode:multiply"/><path fill="url(#c)" d="M113.086 146.981h7.623l3.752-2.166h7.623l3.756-2.167-22.761-13.142-11.257 19.642h7.508z" style="mix-blend-mode:multiply"/><path fill="url(#d)" d="m258.794 102.865-23.512-12.116-2.726 1.572-37.13 34.849h21.269z" style="mix-blend-mode:multiply"/><path fill="#593709" d="m196.408 125.472-66.606-38.454 41.119-23.741 66.609 38.454z"/><path fill="#CED3F8" d="M232.63 89.591v12.279l-38.549 22.257v-12.28z"/><path fill="#593709" d="m195.427 112.626-66.606-38.454 42.103-24.308 66.602 38.458z"/><path fill="#6F5719" d="m195.426 127.169 42.099-24.304.004-1.134-41.122 23.741v-12.279l41.122-23.741-.004-1.13-42.099 24.304z"/><path fill="#94652E" d="m195.427 127.169-66.606-38.458v-14.54l66.606 38.455z"/><path fill="#6F5719" d="m183.301 108.266 4.705 2.716v9.26l-4.705-2.719zM136.242 81.1l4.709 2.715v9.257l-4.709-2.716z"/><path fill="#F59E0B" d="m196.408 107.928-66.606-38.454 41.119-23.742 66.609 38.455z"/><path fill="#CED3F8" d="M232.63 78.856v5.47l-38.549 22.256v-5.47z"/><path fill="#F59E0B" d="m195.427 99.203-66.606-38.458 42.103-24.305 66.602 38.455z"/><path fill="#78350F" d="m195.426 109.625 42.099-24.304.004-1.134-41.122 23.741v-8.162l41.122-23.74-.004-1.13-42.099 24.307z"/><path fill="#F59E0B" d="m195.427 109.625-66.606-38.454V60.745L195.427 99.2z"/><path fill="#FC780B" d="m133.2 66.66 57.849 33.402v3.648L133.2 70.308zM133.2 64.814l57.849 33.402v.945L133.2 65.763zM133.2 71.16l57.849 33.402v.946L133.2 72.11z"/><path fill="#FFE5C0" d="m166.921 34.243 66.609 38.45-38.103 22-66.606-38.455z"/><path fill="url(#e)" d="M235.297 61.49c.229.493.354 1.112.354 1.835 0 2.921-2.058 6.486-4.59 7.946l2.466 1.423c2.531-1.46 4.59-5.025 4.59-7.946 0-2.198-1.165-3.415-2.82-3.259"/><path fill="#CED3F8" d="m232.424 61.461-35.55 20.525v10.596l35.55-20.525c2.532-1.46 4.591-5.025 4.591-7.946 0-2.918-2.059-4.107-4.587-2.646z"/><path fill="#F6F6FB" d="m132.619 44.894 64.255 37.092v10.596l-64.255-37.095z"/><path fill="#F59E0B" d="m166.921 22.45 66.609 38.451-38.103 22-66.606-38.455z"/><path fill="#FD9009" d="m169.387 23.873 61.678 35.606-35.638 20.573-61.678-35.606z"/><path fill="#78350F" d="M128.821 44.446 195.427 82.9v1.197l-66.606-38.455zM128.821 56.238l66.606 38.455v1.2l-66.606-38.455z"/><path fill="#F59E0B" d="m237.613 60.575-66.606-38.452c-1.036-.654-2.479-.598-4.082.327l66.605 38.451z"/><path fill="#78350F" d="M239.153 64.15c0-3.586-2.518-5.043-5.623-3.249l-38.104 22V84.1l38.104-21.999c2.528-1.46 4.587-.271 4.587 2.65s-2.056 6.486-4.591 7.946l-38.1 21.996v1.2l38.104-22c3.105-1.794 5.623-6.158 5.623-9.744"/><path fill="#CED3F8" d="m196.408 76.488-66.606-38.455 41.119-23.741 66.609 38.455z"/><path fill="#E8ECF7" d="M232.63 47.416v5.473l-38.549 22.256v-5.473z"/><path fill="#E8E8FC" d="m195.427 67.763-66.606-38.455L170.924 5l66.602 38.455z"/><path fill="#A7AED8" d="m195.426 78.188 42.099-24.308.004-1.133-41.122 23.74V68.33l41.122-23.742-.004-1.133-42.099 24.308z"/><path fill="#CED3F8" d="M195.427 78.185 128.821 39.73V29.308l66.606 38.455z"/><g fill="#E8ECF7" style="mix-blend-mode:multiply"><path d="m160.77 51.397 2.709 1.565v3.13l-2.709-1.565zM155.348 48.268l2.709 1.564v3.13l-2.709-1.565zM149.926 45.138l2.713 1.565v3.13l-2.713-1.565zM144.505 42.008l2.712 1.565v3.13l-2.712-1.565zM139.083 38.878l2.713 1.565v3.13l-2.713-1.565zM133.666 35.748l2.709 1.565v3.13l-2.709-1.565zM187.874 67.046l2.709 1.565v3.13l-2.709-1.565zM182.452 63.916l2.713 1.565v3.13l-2.713-1.565zM177.03 60.787l2.713 1.565v3.13l-2.713-1.566zM171.613 57.657l2.709 1.565v3.13l-2.709-1.565zM166.191 54.527l2.709 1.565v3.13l-2.709-1.565z"/></g><path fill="url(#f)" d="M173.219 47.377h-10.363v1.582h10.363z" style="mix-blend-mode:multiply"/><path fill="url(#g)" d="M159.81 39.633h-10.363v1.582h10.363z" style="mix-blend-mode:multiply"/><path fill="url(#h)" d="m162.856 48.956.977 5.571-1.944-1.078z" style="mix-blend-mode:multiply"/><path fill="url(#i)" d="m149.447 41.215.973 5.571-1.94-1.081z" style="mix-blend-mode:multiply"/><path fill="#5B3808" d="m122.013 91.74 66.605 38.458-44.857 25.898-66.605-38.458z"/><path fill="#BBC0E6" d="M143.67 143.191v11.952l43.292-24.997v-11.848l-43.201 24.945z"/><path fill="#E8ECF7" d="m78.898 105.79-.09 11.9 64.863 37.453v-11.952z"/><path fill="#5B3808" d="m122.013 77.987 66.605 38.454-44.857 25.898-66.605-38.455z"/><path fill="#C85A2B" d="m143.761 137.693-.223-.129-58.332-33.684 36.81-21.25 58.558 33.811-36.81 21.252zM86.994 103.88l56.767 32.78 35.019-20.219-56.771-32.78L86.99 103.88z" style="mix-blend-mode:screen"/><path fill="#94652E" d="M188.618 131.099v.004L143.761 157v-.904l44.074-25.445v-12.853l-44.074 25.445v-.904l44.857-25.898z"/><path fill="#593709" d="m143.761 142.339-66.605-38.455v.901l66.605 38.458zM143.761 156.096l-66.605-38.458v.904L143.76 157z"/><path fill="#6B67E9" d="m140.503 99.937 10.14 5.853-25.33 14.626-10.144-5.853z"/><path fill="#593709" d="m187.836 130.651-.873-.505v-11.848l.873-.5z"/><path fill="#E8ECF7" d="M143.67 148.302v3.36l43.292-24.993v-3.36z" style="mix-blend-mode:multiply"/><path fill="#E8ECF7" d="m78.898 110.905-.09 3.307 64.863 37.45v-3.359z" style="mix-blend-mode:multiply"/><path fill="#5B3808" d="m137.561 106.735 1.509-.872 1.51.872-1.51.87zM134.226 108.659l1.509-.87 1.509.87-1.509.872zM130.888 110.585l1.512-.873 1.51.873-1.51.873zM127.552 112.512l1.513-.873 1.509.873-1.509.873z"/><path fill="#DAE0F5" d="M143.67 155.143h1.743l42.422-24.492-.873-.505z" style="mix-blend-mode:multiply"/><path fill="#FFE5C0" d="m122.013 73.855 66.605 38.455-44.857 25.897-66.605-38.454z"/><path fill="#BBC0E6" d="m144.544 137.759 43.292-24.997v-3.797l-43.292 24.993z"/><path fill="#E8ECF7" d="M77.938 95.503V99.3l66.605 38.459v-3.801z"/><path fill="#F59E0B" d="m122.013 69.154 66.605 38.454-44.857 25.901-66.605-38.458z"/><path fill="#78350F" d="m188.618 113.214-44.857 25.897v-.904l44.074-25.445v-3.797l-44.074 25.445v-.901l44.857-25.901z"/><path fill="#FC780B" d="M143.761 133.509 77.156 95.051v.904l66.605 38.455zM143.761 138.207 77.156 99.753v.9l66.605 38.458z"/><path fill="#F59E0B" d="m175.309 107.608-53.297-30.773-31.548 18.216 53.297 30.773zM127.413 80.65l2.097 1.21-30.345 17.52-2.097-1.21zM96.466 97.823l-2.097-1.21 30.345-17.52 2.097 1.21zm33.645-15.611 2.097 1.21-30.345 17.52-2.097-1.21zm2.702 1.558 30.488 17.603-30.345 17.52-30.488-17.603zm31.09 17.951 2.097 1.21-30.345 17.52-2.097-1.21zm2.702 1.558 2.097 1.21-30.345 17.52-2.097-1.21zm2.702 1.558 2.097 1.21-30.345 17.52-2.097-1.21zm-47.295-27.306 2.097 1.21-30.345 17.52-2.097-1.21zm19.652 46.387 30.345-17.52 2.097 1.21-30.345 17.52z" style="mix-blend-mode:screen"/><path fill="#FD9009" d="m140.662 95.037 3.123 1.805-18.674 10.78-3.127-1.801zM132 96.452l1.561.904-7.56 4.365-1.565-.904z"/><path fill="#E8ECF7" d="M123.56 145.336v-.904l-10.481-6.051.003.904zM123.56 144.432h1.561l-12.042-6.955v.904z" style="mix-blend-mode:multiply"/><path fill="url(#j)" d="m125.121 144.432-2.629-8.357-6.106-3.526v6.841z" style="mix-blend-mode:multiply"/><path fill="#CED3F8" d="m105.574 142.645-19.398-11.198v-4.403l19.398 11.198z"/><path fill="#F6F6FB" d="m105.574 138.242-19.398-11.198 3.756-2.166 19.394 11.198z"/><path fill="#CED3F8" d="m109.326 136.075-19.394-11.197-.004-4.403 19.398 11.198z"/><path fill="#F6F6FB" d="m109.326 131.673-19.398-11.198 3.756-2.166 19.394 11.197z"/><path fill="#CED3F8" d="M101.822 149.148 82.424 137.95v-4.337l19.394 11.198z"/><path fill="#F6F6FB" d="m101.818 144.811-19.394-11.198 3.752-2.166 19.398 11.198z"/><path fill="#BBC0E6" d="M105.574 142.645v-4.403l3.752-2.167v-4.402l3.753-2.167.003 13.139-11.26 6.503-.004-4.337z"/><path fill="url(#k)" d="M87.759 142.53h-4.67l-.77 2.295h9.415z" style="mix-blend-mode:multiply"/><path fill="url(#l)" d="M98.483 138.552h-3.891l-.765 2.295 8.617-.007z" style="mix-blend-mode:multiply"/><path fill="#FCD1A9" d="M81.155 123.125c.306.525.835 1.075.96 1.412.129.337.163.807.163.984s-.135.696-.354.605c-.22-.087-.303.136-.522.094-.219-.045-.139-.122-.139-.122-.115.042-.271.042-.317-.045-.097.035-.142.136-.305-.059-.133-.16-.174-.456-.275-.615-.33-.515-.192-2.024-.258-2.177s.835-.439 1.047-.073z"/><path fill="#EF9816" d="M84.08 110.836c-4.344 2.775-4.845 8.248-4.1 12.72.51.745 1.61.379 1.484-.309-.448-5.095.362-9.89 2.616-12.411"/><path fill="#612F02" d="M80.81 144.046c0-1.986 1.26-2.041 1.26-2.041s.681 0 1.787-.459c1.092-.453 2.632-.279 1.77 1.311l-.028.059a.76.76 0 0 1-.278.243l-2.747 1.614c-.421.24-1.75-.313-1.76-.724z"/><path fill="#131147" d="M80.818 143.869c.024.406 1.335.949 1.753.712l2.747-1.61c.09-.052.247-.156.386-.281-.024.052-.045.104-.08.167l-.028.059a.76.76 0 0 1-.278.243l-2.747 1.614c-.393.222-1.586-.247-1.743-.644q-.012-.047-.014-.08c-.003-.062 0-.118 0-.177z"/><path fill="#fff" d="M81.322 141.74c.323 0 1.464.289 1.464.289s.007.156.1.296c.011.013.022.024.032.041.226.157.452.404-.08.737-.438.275-.793.101-.96-.069-.07-.129-.167-.271-.31-.351-.142-.084-.232-.122-.299-.125v-.028s-.083-.79.053-.79"/><path fill="#AC720F" d="M81.3 122.336c1.246.02 4.351.076 5.593.1-.463 3.735-1.395 7.129-2.017 10.746-.668 3.516-1.42 5.988-2.077 8.913-.24.546-1.338.337-1.56-.184-.175-2.695-.377-5.978.423-9.087-.132-3.353-.441-7.105-.365-10.488z"/><path fill="#8E5017" d="M92.304 140.068c0-1.982 1.26-2.042 1.26-2.042s.68 0 1.787-.459c1.091-.452 2.629-.278 1.77 1.308a.3.3 0 0 1-.032.059.75.75 0 0 1-.278.243l-2.747 1.611c-.42.24-1.75-.313-1.76-.724z"/><path fill="#131147" d="M92.31 139.89c.025.407 1.336.95 1.754.713l2.747-1.61a2.4 2.4 0 0 0 .386-.282 2 2 0 0 1-.08.167.3.3 0 0 1-.032.06.8.8 0 0 1-.278.243l-2.747 1.61c-.393.223-1.586-.247-1.742-.643q-.012-.048-.014-.08c-.007-.063 0-.119 0-.178z"/><path fill="#fff" d="M92.815 137.766c.324 0 1.464.288 1.464.288s.007.157.101.296c.01.014.021.024.032.038.226.157.455.403-.08.741-.439.274-.793.101-.96-.07-.07-.125-.17-.271-.31-.351-.146-.083-.233-.122-.299-.125v-.028s-.083-.789.052-.789"/><path fill="#AF7B3E" d="M89.904 125.646c-1.231.181-7.431-2.73-8.662-2.545-.258 7.219 5.647 6.913 10.766 6.503l.042-.007c-.212 3.039.1 6.061.681 8.565.306.48 1.423.504 1.572-.073.17-2.994.922-5.557 1.005-9.132.024-3.672-2.573-3.224-5.407-3.307z"/><path fill="#EFA516" d="M83.881 126.679c2.664 1.495 5.45 1.499 6.399-.341-.355-3.422-.689-6.207 0-9.483-.202-1.812-.344-2.083-.115-3.14-.083-.355-1.172-1.109-1.965-1.836-.859-.783-1.436-1.527-1.878-1.617-3.64-.745-5.41 5.748-5.108 12.665.282 1.84 1.356 3.015 2.667 3.752"/><path fill="#FCD1A9" d="M84.303 110.676c.789-.571 1.123-1.979 1.241-2.755a3.8 3.8 0 0 1 .17-1.349c.515-1.652 2.014-2.751 3.273-2.26 2.542.987 1.655 2.211 1.14 3.863-.476 1.53-1.498 2.368-2.716 2.184-.076.25.025.783.355 1.113-.89.532-2.187.282-2.698.052-.546-.247-1.138-.459-.766-.842z"/><path fill="#A55C18" d="M90.235 103.738c-.014-.226-.38-.459-1.875-.258-.01 0-.362.049-.386.056-2.789.487-2.876 3.551-2.681 4.413.07.306.108.55-.021.963 1.005.199 1.182.832 1.954.425.553-.289 1.346-.595 1.51-.762.163-.17.17-.303.208-.459.338-1.398.78-.389.682-.073.295-.066.414-.629.542-1.259 2.529-1.088 1.642-2.469.07-3.046z"/><path fill="#FCD1A9" d="M93.486 123.748c.616.372.98-.007 1.332.177.33.17.198.403.369.483.173.08.455.164.556.71.146.803-.536 1.234-.9 1.325-.335.083-.46.281-1.242-.386-.317-.272-.122-.598-.81-1.03.163-.076.695-1.283.695-1.283z"/><path fill="#EF7116" d="M88.715 113.117c.873-.178 1.318.153 1.45.594.1.856.678 6.263.699 6.636.761.942 1.547 2.013 2.817 3.355.72.762-.16 1.99-.908 1.562-.327-.188-3.237-2.448-3.88-3.419-1.166-1.359-1.6-5.188-1.68-6.117-.181-1.339.629-2.437 1.502-2.615z"/><path fill="url(#m)" d="m137.164 91.285-1.339.775 1.339.776h12.704v-1.551z" style="mix-blend-mode:multiply"/><path fill="url(#n)" d="m150.581 99.033-1.343.772 1.343.775h12.703v-1.547z" style="mix-blend-mode:multiply"/><path fill="#94652E" d="m151.92 99.805-1.294.427 12.919-60.05 1.294-.431zM138.506 92.06l-1.29.431 12.915-60.053 1.294-.428z"/><path fill="#5B3808" d="m151.425 32.01-1.293.428-1.388-.8 1.29-.431zM162.407 43.799l-1.29.428-12.025-6.942 1.29-.43zM160.936 50.632l-1.29.431-12.025-6.944 1.293-.428zM159.469 57.47l-1.294.427-12.025-6.941 1.294-.432zM157.998 64.302l-1.293.432-12.026-6.945 1.294-.428zM156.527 71.14l-1.294.427-12.025-6.941 1.294-.431zM155.056 77.973l-1.294.43-12.022-6.944 1.29-.428zM153.585 84.81l-1.291.427-12.025-6.94 1.29-.432zM152.114 91.643l-1.29.431-12.026-6.945 1.294-.427zM164.838 39.75l-1.294.432-1.391-.803 1.294-.428z"/><path fill="#593709" d="m138.798 85.13 1.096-5.085 12.025 6.941-1.095 5.085zm1.471-6.834 1.096-5.084 12.025 6.941-1.095 5.084zm1.472-6.833 1.095-5.084 12.025 6.94-1.095 5.085zm1.47-6.834 1.092-5.08 12.026 6.94-1.092 5.081zm1.471-6.833 1.092-5.08 12.026 6.94-1.092 5.081zm1.472-6.834 1.091-5.08 12.026 6.941-1.092 5.08zm1.471-6.833 1.091-5.08 12.026 6.94-1.092 5.081zm15.923-3.936-1.387-.8-1.044 4.844-12.025-6.941 1.043-4.844-1.391-.804-12.919 60.05 1.391.804 1.207-5.61 12.025 6.942-1.206 5.609 1.387.8z"/><path fill="url(#o)" d="M68.864 87.981c-3.76-2.184-9.87-2.184-13.653 0s-3.801 5.724-.045 7.908c.925.539 1.996.942 3.136 1.214v.417h4.135v-.007c2.316-.063 4.6-.602 6.374-1.624 3.78-2.184 3.801-5.724.046-7.908z" style="mix-blend-mode:multiply"/><path fill="url(#p)" d="M67.434 96.244c1.903-1.1 2.855-2.542 2.849-3.982l-.008-2.786c.004 1.44-.945 2.883-2.848 3.982-3.783 2.184-9.893 2.184-13.649 0-1.867-1.085-2.8-2.504-2.806-3.926l.007 2.786c.003 1.422.939 2.84 2.806 3.926 3.756 2.184 9.87 2.184 13.65 0"/><path fill="#F6F6FB" d="M67.427 93.455c3.78-2.184 3.801-5.724.045-7.908-3.759-2.184-9.869-2.184-13.652 0-3.784 2.184-3.801 5.724-.046 7.908s9.87 2.184 13.65 0z"/><path fill="#C66719" d="M64.38 87.164c.543.313.547.82.008 1.137-.54.313-1.42.313-1.962 0s-.546-.82-.007-1.137c.54-.313 1.419-.313 1.962 0M59.315 88.593l.806-.466 2.601 1.502-.803.466-.556-.323-3.074 1.777.556.32-.803.466-2.605-1.506.807-.462.556.32 3.074-1.774z"/></g><defs><linearGradient id="b" x1="143.761" x2="209.226" y1="136.719" y2="136.719" gradientUnits="userSpaceOnUse"><stop stop-color="#D1D7F3"/><stop offset=".48" stop-color="#E9ECF9"/><stop offset="1" stop-color="#fff"/></linearGradient><linearGradient id="c" x1="101.822" x2="135.84" y1="139.327" y2="139.327" gradientUnits="userSpaceOnUse"><stop stop-color="#D1D7F3"/><stop offset=".34" stop-color="#E6EAF8"/><stop offset=".72" stop-color="#F8F9FD"/><stop offset="1" stop-color="#fff"/></linearGradient><linearGradient id="d" x1="195.426" x2="258.794" y1="108.958" y2="108.958" gradientUnits="userSpaceOnUse"><stop stop-color="#DAE0F5"/><stop offset="1" stop-color="#fff"/></linearGradient><linearGradient id="e" x1="232.584" x2="237.588" y1="71.351" y2="62.682" gradientUnits="userSpaceOnUse"><stop stop-color="#FFAD02"/><stop offset=".27" stop-color="#FEA403"/><stop offset=".71" stop-color="#FD8B07"/><stop offset="1" stop-color="#FC780B"/></linearGradient><linearGradient id="f" x1="162.856" x2="173.223" y1="48.167" y2="48.167" gradientUnits="userSpaceOnUse"><stop stop-color="#C6CBE7"/><stop offset=".65" stop-color="#EEEFF7"/><stop offset="1" stop-color="#fff"/></linearGradient><linearGradient id="g" x1="149.447" x2="159.81" y1="40.426" y2="40.426" gradientUnits="userSpaceOnUse"><stop stop-color="#C6CBE7"/><stop offset=".65" stop-color="#EEEFF7"/><stop offset="1" stop-color="#fff"/></linearGradient><linearGradient id="h" x1="163.708" x2="162.925" y1="49.471" y2="53.644" gradientUnits="userSpaceOnUse"><stop stop-color="#C6CBE7"/><stop offset=".65" stop-color="#EEEFF7"/><stop offset="1" stop-color="#fff"/></linearGradient><linearGradient id="i" x1="150.299" x2="149.516" y1="41.726" y2="45.899" gradientUnits="userSpaceOnUse"><stop stop-color="#C6CBE7"/><stop offset=".65" stop-color="#EEEFF7"/><stop offset="1" stop-color="#fff"/></linearGradient><linearGradient id="j" x1="116.386" x2="125.121" y1="138.492" y2="138.492" gradientUnits="userSpaceOnUse"><stop stop-color="#fff"/><stop offset=".43" stop-color="#F8F9FC"/><stop offset="1" stop-color="#E8ECF7"/></linearGradient><linearGradient id="k" x1="82.32" x2="91.734" y1="143.677" y2="143.677" gradientUnits="userSpaceOnUse"><stop stop-color="#C4CAE9"/><stop offset=".09" stop-color="#CDD2EC"/><stop offset=".41" stop-color="#E8EAF6"/><stop offset=".69" stop-color="#F9F9FC"/><stop offset=".9" stop-color="#fff"/></linearGradient><linearGradient id="l" x1="93.827" x2="102.444" y1="139.699" y2="139.699" gradientUnits="userSpaceOnUse"><stop stop-color="#C4CAE9"/><stop offset=".09" stop-color="#CDD2EC"/><stop offset=".41" stop-color="#E8EAF6"/><stop offset=".69" stop-color="#F9F9FC"/><stop offset=".9" stop-color="#fff"/></linearGradient><linearGradient id="m" x1="135.825" x2="149.868" y1="92.06" y2="92.06" gradientUnits="userSpaceOnUse"><stop stop-color="#C4CAE9"/><stop offset=".09" stop-color="#CDD2EC"/><stop offset=".41" stop-color="#E8EAF6"/><stop offset=".69" stop-color="#F9F9FC"/><stop offset=".9" stop-color="#fff"/></linearGradient><linearGradient id="n" x1="149.238" x2="163.284" y1="99.805" y2="99.805" gradientUnits="userSpaceOnUse"><stop stop-color="#C4CAE9"/><stop offset=".09" stop-color="#CDD2EC"/><stop offset=".41" stop-color="#E8EAF6"/><stop offset=".69" stop-color="#F9F9FC"/><stop offset=".9" stop-color="#fff"/></linearGradient><linearGradient id="o" x1="52.363" x2="71.666" y1="91.932" y2="91.932" gradientUnits="userSpaceOnUse"><stop stop-color="#C4CAE9"/><stop offset=".31" stop-color="#D1D6EE"/><stop offset=".88" stop-color="#F6F7FB"/><stop offset="1" stop-color="#fff"/></linearGradient><linearGradient id="p" x1="51.005" x2="70.911" y1="93.824" y2="93.391" gradientUnits="userSpaceOnUse"><stop stop-color="#CED3F8"/><stop offset="1" stop-color="#BBC0E6"/></linearGradient><clipPath id="a"><path fill="#fff" d="M0 0h302v155H0z"/></clipPath></defs></svg>