<svg xmlns="http://www.w3.org/2000/svg" width="302" height="155" fill="none"><g clip-path="url(#a)"><path fill="#C3D0FF" d="M0 0h302v155H0z"/><path fill="#C0C4C7" d="M227.892 118.95q-.002.023-.006.046l-.009.037q-.005.023-.012.044l-.015.036q-.01.023-.022.045l-.02.033-.033.05-.024.03a1 1 0 0 1-.062.067l-.024.023-.043.036-.041.032-.051.034-.055.036-78.242 45.469a1 1 0 0 1-.136.069l-.041.018a2 2 0 0 1-.287.094l-.079.017-.055.011a2 2 0 0 1-.216.027l-.1.007-.063.001h-.081l-.066-.001-.075-.004-.066-.005-.074-.009-.065-.009-.077-.014q-.03-.005-.06-.012l-.091-.022-.049-.013a3 3 0 0 1-.156-.052q-.037-.015-.072-.031l-.037-.016q-.055-.026-.106-.055l-78.752-45.47c-.285-.164-.428-.381-.427-.599l-.002.789c0 .217.141.434.427.599l78.753 45.468q.051.03.106.055l.036.016.064.028.009.003a2 2 0 0 0 .167.056q.019.005.037.009l.091.023.023.005.037.006.077.014.03.005.034.004.074.008q.016.003.033.004l.033.002.075.004.037.002h.15l.023-.002a2 2 0 0 0 .139-.009l.011-.001q.084-.01.166-.023l.009-.002.046-.01q.04-.007.08-.017l.057-.015.074-.021.017-.005.026-.01q.058-.02.113-.043l.041-.017a2 2 0 0 0 .136-.069l78.242-45.469.017-.011.039-.025q.026-.016.051-.034l.04-.033q.024-.018.044-.035l.008-.007.016-.016q.032-.033.062-.067.006-.007.013-.014l.01-.016.033-.05.015-.022.005-.011.021-.045.013-.026.003-.009.012-.044.008-.029.001-.008.006-.046.003-.03v-.013l.002-.789q0 .023-.003.043"/><path fill="#96ADFF" d="M227.469 118.31c.566.327.569.862.006 1.189l-78.241 45.469c-.563.326-1.486.326-2.052 0l-78.753-45.469c-.567-.327-.57-.861-.008-1.188l78.242-45.47c.563-.326 1.486-.326 2.053 0z"/><path fill="#EFB7B9" d="M180.586 60.642c4.041-1.956 4.585-6.303 5.31-10.347.013 1.874-.687 7.807-1.005 8.174-.311.155-3.657 2.364-3.657 2.364-2.084 1.068-4.351 2.714-6.494 3.972-.001.007.855 2.19 1.092 2.21 2.17-.45 12.226-4.18 13.241-5.8.121-.191.272-.572.44-1.088 1.257-3.853 3.494-15.524 1.281-16.59-.871-1.322-3.823-4.988-6.786-6.614.163.248-4.221.278-4.262.243-1.05.151-2.146.108-2.69-.314-.177-.137-.298-.347-.385-.601-.757.14-1.401.38-1.793.77-1.532 1.52-6.065 13.467-6.065 13.467s-7.059 4.784-8.378 5.636c-.396.13.664 2.313.693 2.33 2.361-.859 7.033-2.552 9.587-3.985 1.599-.675 3.017-3.685 3.961-6.22.365-1.751.722-4.445.912-6.018.15 1.41.29 2.279.29 2.279s.333 3.261.607 4.72-1.44 6.604-1.394 7.419c.003.068.021.148.045.233.248.88 1.64 2.588 5.45 3.76"/><path fill="#0A1848" d="M185.896 50.296c-.725 4.043-1.269 8.39-5.31 10.346l-.003.002q.314.098.652.19s3.345-2.208 3.656-2.364c.318-.368 1.018-6.3 1.005-8.175"/><path fill="#1A2C6B" d="M190.795 43.537c-.871-1.322-3.823-4.988-6.786-6.614.163.248-4.221.278-4.262.243-1.05.151-2.146.108-2.69-.314-.177-.137-.298-.347-.385-.601-.758.14-1.401.38-1.793.77-.876.869-2.731 5.142-4.161 8.645 1.686 2.11 3.958 2.583 3.958 2.583.365-1.751.722-4.445.912-6.018.15 1.41.29 2.279.29 2.279s.333 3.261.607 4.72-1.44 6.604-1.394 7.419c.003.068.021.148.045.233.248.88 1.64 2.588 5.449 3.76 4.041-1.956 4.586-6.303 5.31-10.347.005.706-.091 1.988-.23 3.33 2.152.785 3.909.844 5.248.63.861-4.656 1.347-10.012-.118-10.718"/><path fill="#81ADE7" d="m186.96 103.949-.294 1.601c3.155.871 3.53-1.131 3.53-1.131l-.149-1.035c-1.072 1.057-2.338.846-3.087.565"/><path fill="#00001F" d="M189.289 109.046c.223-.775.517-1.52.773-1.739.115-.099.173-.406.197-.785-.83.571-.852 1.652-.97 2.524"/><path fill="#3D68FF" d="M186.666 105.55c-.472 1.372-1.889 3.584-2.226 3.917-.24.237-1.035 1.89-.911 3.022.256.443.836 1.01 2.035.461 0 0 2.006-.79 3.512-3.066.058-.268.129-.555.211-.838.118-.872.14-1.953.972-2.524.055-.864-.063-2.103-.063-2.103s-.376 2.002-3.53 1.131"/><path fill="#00001F" d="M185.564 112.949c-1.199.55-1.779-.017-2.035-.461.051.457.25.829.697.989 1.556.555 4.599-2.064 4.753-3.075.025-.158.058-.334.097-.519v.002c-1.506 2.275-3.512 3.064-3.512 3.064"/><path fill="#81ADE7" d="M175.69 98.958c.003.43-.126 1.055-.72 1.68.336.379.322.986.369 1.31 2.564.927 4.059-.342 4.263-.783 0 0-.413-.908-.687-2.733-1.096.932-2.411.77-3.225.526"/><path fill="#3D68FF" d="M175.339 101.948c-.047-.325-.033-.931-.369-1.31a1 1 0 0 0-.138-.13c-.251-.103-1.112 1.063-2.462 1.678-1.35.616-4.83 1.595-4.368 3.193 1.235.637 2.811.402 4.042.087s2.172-1.11 2.827-1.407 1.8-.132 2.442-.108c2.587.299 2.722-.767 2.722-.767.013-.722.119-2.085-.433-2.019-.204.441-1.699 1.71-4.263.783"/><path fill="#00001F" d="M177.313 103.951c-.642-.024-1.788-.189-2.442.108s-1.596 1.091-2.827 1.406-2.808.55-4.042-.086c0 0 .701 1.312 3.923.417 1.788-.549 2.547-1.461 3.353-1.509.805-.048 2.059.078 2.059.078s.032.217.635.227 2.317-.34 2.063-1.409c0 .001-.135 1.068-2.722.768"/><path fill="#2D389B" d="M174.882 64.673a.5.5 0 0 1 .117-.052h-.001l1.67-.98q0-.012.003-.023c2.107-1.166 2.481-1.716 4.565-2.784a20 20 0 0 1-.652-.19l.003-.001c-3.808-1.172-5.201-2.88-5.449-3.76-.079 0-.723 5.815-.95 7.99a7 7 0 0 1 .555-.068.5.5 0 0 1 .139-.132"/><path fill="#143394" d="M189.514 60.128c-.168.515-.319.896-.44 1.087-1.016 1.62-13.071 5.838-13.241 5.801-.375.425-1.024.83-1.991 1.144-.708 6.757-.816 7.836-1.045 11.662-.134 2.244 2.129 18.836 2.129 18.836s.303.162.764.3c.814.245 2.13.407 3.226-.526.14-.12.276-.25.407-.407-.447-3.318-.09-17.45-.506-18.165.134-.332 2.695-9.868 2.695-9.868s.388 11.74.324 13.032c-.065 1.293 4.471 20.611 4.471 20.611s.254.166.652.314c.75.281 2.015.493 3.088-.564.201-.197.396-.431.578-.725-1.799-14.654-2.538-18.017-2.5-18.777.203-4.052 5.1-17.854 1.389-23.755"/><path fill="#E1E7EF" d="M179.922 37.876v-.006z"/><path fill="#0A1848" d="m174.677 48.248-.001.002c.988-2.27 1.203-3.741 1.203-3.741s-.14-.869-.29-2.28c-.19 1.575-.547 4.268-.912 6.02"/><path fill="#EFB7B9" d="M175.833 67.016c.385-.436.487-.892.348-1.292-.303-.87-1.032-.928-1.351-.925l-.088.006a7.562 7.562 0 0 0-1.812.372c-1 .34-2.541.877-3.479.901s-1.371 1.628-2.361 2.41c-.171.384 1.022.88 1.468.94.801.123 1.435-.469 1.763-.777s1.121-.643 1.312-.52c-.787.477-1.659 1.27-1.657 1.588s.621.349 1.154-.16c.535-.508 1.585-1.112 2.071-1.215.23-.057.44-.12.641-.185.966-.313 1.616-.718 1.991-1.143M161.434 57.02c-.087-.327-.442-.68-.998-.897a3.1 3.1 0 0 0-1.048-.204c-1.155-.03-2.168-.801-2.49-.952-.322-.152-.461.348-.164.656.296.307.7.625 1.142.794-.784.352-1.582.933-2.247 1.3-.664.365-1.147.517-1.595.52s-1.11.518-.1 1.219 2.349 1.423 3.864.691c1.044-.504 2.619-.875 3.331-1.692.321-.37.467-.83.305-1.435"/><path fill="#E8A5A8" d="M182.137 36.33c-.374.35-1.359.687-2.39.836a.6.6 0 0 1 .107.118c.073.111.106.261.073.51q-.003.038-.005.076v.006c-.438 2.105 4.41 1.833 4.211-.335v-.002a4.7 4.7 0 0 1-.143-.769c-.103-.834-.141-1.932-.15-2.262-.075.085-.981 1.143-1.703 1.822"/><path fill="#9093AC" d="m182.518 29.112-.004.002c.012.655.061.847.264 1.222.693 1.056.365 2.84.365 2.84l.29.16s.177.032.338-.283c.162-.316.752-.932 1.241-.89.599.15.789.536.762.94.661-.738 2.082-2.775.584-5.464-.675-.091-1.825.932-3.349 1.373q-.252.054-.491.1"/><path fill="#EFB7B9" d="M179.747 37.166c1.031-.149 2.016-.485 2.39-.836.722-.68 1.628-1.737 1.701-1.823l.014-.016s.683.137 1.284-.264c.315-.21.608-.679.638-1.124.028-.405-.163-.79-.762-.94-.489-.042-1.079.574-1.24.89s-.339.283-.339.283l-.29-.16s.328-1.784-.365-2.84c-.202-.375-.252-.567-.264-1.222l.001-.002c-2.693.517-4.157.003-4.885-.787-.166.599-.468 1.84-.421 2.857-.366 1.212-.975 3.772-.536 5.068.086.254.208.465.385.601.543.423 1.639.466 2.689.315"/><path fill="#585268" d="M182.515 29.112h.003c.161-.031.322-.063.491-.102 1.524-.441 2.674-1.464 3.349-1.373 0 0-.459-3.63-5.842-2.272-.75.025-1.491-1.044-3.085.144-.454.325-.736 1.8.199 2.817.727.79 2.191 1.303 4.885.786"/><path fill="#122647" d="M125.906 92.62h-.004s-.208 3.334-.413 4.93c-.205 1.597-.593 5.064 1.984 5.178 1.505-.114 2.189-1.574 1.983-3.33s-.11-5.745.036-6.282h-.002c-1.305.293-2.693.035-3.584-.495M134.18 87.868h-.001s-.252.927-.412 1.428c-.159.502-.364 2.212.206 2.532s2.874.912 3.238 1.14c.365.228 1.802 2.304 5.314 1.483 1.004-.365.389-2.007-1.015-2.783-1.402-.775-3.48-2.049-3.491-3.237-.838.335-2.305.61-3.839-.563"/><path fill="#3B3E53" d="m135.179 66.275-.004-.133q.004.068.004.133M135.205 67.519l-.002-.14zM135.129 65.092l-.008-.127zM135.2 69.41v-.012zM135.207 68.81l.001-.142zM134.797 61.994l-.018-.1z"/><path fill="#081889" d="M131.765 57.271a4 4 0 0 1-.209.308c-.548.718-.89.957-2.19.65-1.009-.24-1.955-.69-2.649-1.375-.226 4.259.52 16.034.323 19.1-.227 3.558-1.186 10.902-1.687 16.238.149.157.338.3.553.43.891.53 2.279.787 3.585.495q.33-.074.651-.195c.547-1.642 3.512-20.252 4.561-31.415l2.6-.718-2.131 9.962c-.168 6.062-.867 12.942-1.188 16.96q.099.081.196.156c1.533 1.173 3 .9 3.839.564.451-.18.72-.378.72-.378s1.847-12.212 2.359-16.592c.512-4.378.403-18.98.403-18.98-.525 2.146-5.547 4.639-9.736 4.79"/><path fill="#3B3E53" d="M135.089 64.467v-.005zM134.939 62.942l-.014-.11zM135.049 63.978l-.01-.12z"/><path fill="#2F2F40" d="m137.303 60.788-2.599.718q.04.19.075.388l.018.099a15 15 0 0 1 .142.947q.029.22.053.45v.002q.024.23.046.466l.011.118q.02.238.039.485v.005q.017.246.032.498l.007.126q.015.255.026.516v.007q.012.26.02.527l.005.132.014.545v.008l.011.69.004.569v.01q0 .284-.002.573v.14l-.007.59v.01l-.01.592-.003.141-.015.608z"/><path fill="#894948" d="M157.794 54.322c-.667-.787-1.676-.969-2.862-2.04 2.007-.389 1.437-1.118.913-1.027-.981.16-2.578-.183-3.467-.502 0 0-4.915-5.804-5.565-6.683s-3.006-6.952-3.006-6.952c-.847 1.048-2.502 1.468-2.502 1.468s-.215 1.506-.305 3.024c0 0 1.137 2.483 2.187 4.307s5.063 4.402 7.72 6.591c.93 1.865 3.586 2.292 4.287 2.72s1.454.12 2.035.051c.583-.067 1.078-.272.565-.957"/><path fill="#F5F5F5" d="m141.006 43.89.005.06zM141.025 44.148l.005.056zM141.047 44.423l.004.042zM140.991 43.648l.004.063zM141.072 44.715l.003.025zM140.969 43.22l.002.057zM140.978 43.424l.003.064z"/><path fill="#D8D7DF" d="m127.332 47.286-.001.096z"/><path fill="#804343" d="M132.285 36.546c2.304 1.208 5.315-.898 4.357-3.209h-.001c-2.653.062-4.722-2.32-5.051-3.439 0 0 .223 1.812.049 2.685-.037.188-.093.333-.174.406-.457.41-1.482 2.348.82 3.557"/><path fill="#494949" d="M130.735 27.435c.855-.069 1.231.991 1.231.991l.411-.068c-.274-1.984.548-3.147 1.574-3.352s2.942-.274 3.66-1.163c.397-.346.56-1.528.126-1.893-.685.25-3.17-1.323-5.428-.866-6.226 1.277-2.317 7.343-2.317 7.343l.014.006c-.089-.534.276-.962.729-.998"/><path fill="#894948" d="M136.641 33.336a4 4 0 0 0 .32-.018c1.146-.104 1.836-1.677 2.039-3.027.063-.421.08-.821.047-1.147-.137-1.368.274-3.728-1.437-5.302-.718.89-2.634.957-3.66 1.163s-1.847 1.368-1.574 3.352l-.411.068s-.376-1.06-1.231-.992c-.452.036-.819.465-.729.998.079.474.52 1.03 1.584 1.466.33 1.119 2.4 3.502 5.052 3.44"/><path fill="#101E67" d="M139 30.293c-.203 1.348-.892 2.922-2.039 3.026q-.162.014-.32.018l.001.001c.959 2.311-2.053 4.417-4.357 3.208-2.303-1.208-1.277-3.147-.82-3.557.081-.073.137-.218.174-.407 0 0-3.983 2.003-5.351 3.303s-3.147 4.755-3.147 4.755.124.305.407.709l.005.006.032.045c.08.11.182.242.307.384l.021.024.044.048c.254.276.572.559.963.8l.003.003a5.6 5.6 0 0 0 1.491.57q.358.068.763.078l1.825-2.11s.151 2.46.142 5.005l-.05-.004.05.005a45 45 0 0 1-.05 2.039c-.022.443-.052.866-.092 1.257-.155 1.505-.263 3.47-.309 5.326.216.26.411.516.605.633.513.308 2.292.615 2.668.547.325-.059.191.618-.201 1.266 4.19-.151 9.211-2.644 9.736-4.79q.035-.14.044-.28c.101-1.738-.244-4.906-.446-7.18l-.025-.282-.002-.025-.021-.25-.004-.042-.018-.22-.004-.056-.015-.197-.004-.06-.012-.178-.004-.064-.01-.16q0-.033-.003-.064l-.007-.147-.003-.058-.005-.185A18 18 0 0 1 141 41.61c.09-1.518.305-3.024.305-3.024s1.654-.42 2.501-1.468c.12-.148.224-.308.304-.481-1.163-3.557-2.01-7.148-5.11-6.344"/><path fill="#B2A0F2" d="M127.461 45.845q.023.008.048.02-.024-.012-.048-.02M127.765 48.005q.086.02.171.04-.085-.02-.171-.04M128.542 46.133l.042.006zM128.807 46.17l.103.01zM128.212 48.109q.109.02.217.039-.108-.019-.217-.039M127.997 46.02l.077.02zM128.23 46.074l.067.014zM128.669 48.19q.118.017.238.03-.12-.013-.238-.03"/><path fill="#0D2472" d="m129.002 41.198-1.825 2.109c.081.595.128 1.477.146 2.48q.009.494.01 1.02v.005q0 .234-.002.474v.095a82 82 0 0 1-.041 2.049c-.059 1.777-.173 3.382-.31 4.07l-.007.034.41.582c.551-.148.958.284 1.31.707.046-1.855.153-3.82.309-5.326.04-.39.07-.813.091-1.255v-.002c.033-.655.047-1.35.05-2.039l-.05-.005.05.004c.01-2.543-.141-5.002-.141-5.002"/><path fill="#894948" d="M131.556 57.578q.114-.15.209-.307c.393-.648.526-1.325.202-1.266-.377.068-2.156-.24-2.669-.548-.195-.117-.39-.372-.605-.632-.352-.424-.758-.857-1.31-.708l-.41-.582-3.558-5.053 3.592-5.175s-.22.003-.592-.078a5.6 5.6 0 0 1-1.491-.57l-.004-.003a4.2 4.2 0 0 1-.962-.8l-.044-.048-.021-.025a5 5 0 0 1-.307-.383l-.032-.046-.005-.006a4 4 0 0 1-.153-.232s-4.291 5.27-4.359 7.356 4.926 5.884 7.149 7.732q.232.355.532.65c.694.684 1.64 1.134 2.65 1.374 1.298.308 1.64.068 2.188-.65"/><path fill="#006189" d="m131.931 50.718-.008 2.851q0 .07.035.14l.631 1.592.008-2.852-.631-1.591a.3.3 0 0 1-.035-.14M147.974 54.484l.102-1.635.008-2.85-.102 1.634zM158.611 52.3l-.003.01q-.006.021-.014.044l-.008.018-.018.035-.015.022q-.015.022-.035.044l-1.172 1.482-.008 2.85 1.172-1.48.025-.03.01-.015.014-.022.009-.013.01-.022.008-.018.004-.008.011-.036.002-.009.001-.001a.3.3 0 0 0 .005-.048v-.007l.008-2.852a.4.4 0 0 1-.006.056M122.333 54.084l-.008 2.85c0 .11.061.218.187.308l1.635 1.336.009-2.852-1.636-1.335c-.126-.09-.188-.2-.187-.307M146.005 64.196l-.12-.06-.073-.034-.113-.052-.077-.032-.112-.046h-.002a7 7 0 0 0-.613-.208h-.003l-.023-.007-.216-.057-.08-.019-.173-.039q-.024-.006-.047-.01l-.041-.008-.147-.029-.09-.016-.165-.026-.062-.01-.013-.001-.198-.025-.038-.005a6 6 0 0 0-.238-.023h-.008l-.064-.005q-.083-.007-.167-.012l-.093-.004-.178-.007-.066-.001-.151-.002-.1.001-.148.003-.056.001-.041.002-.181.01-.079.004-.257.022h-.002l-.011.001q-.14.014-.277.033l-.078.01-.251.04-.03.005-.01.002-.234.046-.027.006q-.101.022-.203.047l-.078.02-.148.04-.089.026q-.068.02-.134.042l-.035.01-.076.026-.083.029q-.06.02-.118.042l-.076.029a6 6 0 0 0-.377.161 6 6 0 0 0-.393.207l-.009 2.85a6 6 0 0 1 .58-.289q.031-.014.063-.026l.204-.08a5 5 0 0 1 .201-.071q.055-.02.11-.036.067-.022.135-.04l.088-.027.149-.04.078-.02.202-.047.028-.006q.116-.025.233-.046l.041-.007a9 9 0 0 1 .606-.083l.013-.002q.128-.012.257-.021l.078-.005a7 7 0 0 1 .279-.012q.073-.002.148-.003h.251l.096.002.148.006.092.004a6 6 0 0 1 .24.017l.238.023.037.004.275.037.164.026.09.016.147.029a13 13 0 0 1 .341.076 8 8 0 0 1 .521.15l.066.023q.137.046.269.099l.113.046.078.032.112.052.073.033.12.06.06.03q.088.047.175.096l.008-2.851a4 4 0 0 0-.174-.096z"/><path fill="#9D9D9C" d="M115.939 62.52a1 1 0 0 0 .08.04l.021.01.02.008q.033.015.071.025l2.39.871.008-2.85-2.389-.872a1 1 0 0 1-.092-.034l-.021-.01a1 1 0 0 1-.079-.04c-.161-.092-.249-.219-.249-.347l-.008 2.85c0 .13.088.257.248.35M116.572 69.256c.004.922.153 1.846.449 2.76l.009-2.851a9 9 0 0 1-.45-2.76l-2.784-.277q-.025-.001-.05-.004l-.045-.006-.031-.004-.05-.009-.026-.005-.078-.02-.007-.001-.086-.03-.017-.006-.04-.017-.02-.009-.055-.029c-.155-.09-.249-.212-.249-.345l-.008 2.85c-.001.134.094.257.249.347a1 1 0 0 0 .115.055l.007.003.01.003q.04.015.086.029l.005.001.001.001a1 1 0 0 0 .103.024l.05.008.014.002.017.002.046.005.018.003.031.002z"/><path fill="#9D9D9C" d="m120.829 77.487.008-2.85a15 15 0 0 1-2.246-2.452l-2.745.361q-.053.009-.107.014l-.03.002-.077.004h-.031q-.04 0-.081-.003h-.021a1 1 0 0 1-.192-.03l-.039-.01-.052-.014-.056-.019-.051-.019-.022-.01-.075-.037a.53.53 0 0 1-.211-.205l-.974-1.884a.3.3 0 0 1-.035-.14l-.009 2.852q0 .07.035.14l.975 1.884c.041.08.115.149.211.204q.036.02.075.038l.022.01.024.01.026.008.056.02.022.007.03.008.039.009.021.005.048.009.026.004.009.002.089.01h.021l.053.004h.084l.052-.003.029-.003h.01l.097-.013 2.745-.362a15 15 0 0 0 2.247 2.45"/><path fill="#9D9D9C" d="m121.864 78.071-.014.005-.053.015-.021.006-.077.016h-.005q-.045.009-.09.013-.015 0-.029.003l-.058.003-.029.002h-.082l-.062-.003h-.017l-.079-.01-.018-.002q-.03-.004-.061-.011l-.024-.005-.084-.022q-.046-.013-.09-.03l-.04-.018-.022-.01-.058-.03-2.202-1.564c-.127-.09-.188-.2-.188-.308l-.008 2.851c0 .109.061.218.188.308l2.202 1.564a1 1 0 0 0 .119.057h.001q.043.018.09.03l.011.005.013.003.059.014.017.004q.003 0 .008.002l.06.01q.009.002.016.003h.003l.078.009h.017q.03.004.063.004h.092l.019-.002q.029 0 .058-.004h.016l.012-.002q.047-.005.09-.012l.005-.001h.001a1 1 0 0 0 .098-.022l.052-.015.007-.001.008-.004q.058-.019.111-.043l2.3-.943.009-2.851-2.301.943a1 1 0 0 1-.111.043"/><path fill="#76030A" d="M137.574 69.01q.005-.039.012-.076.007-.035.015-.068l.018-.075.02-.068q.011-.037.024-.073a1 1 0 0 1 .059-.143q.014-.033.03-.065l.04-.077.034-.061.055-.09.037-.056q.033-.047.069-.095l.038-.05.019-.024.083-.096.021-.025.107-.11.023-.023.083-.076.073-.065.07-.058.079-.062q.037-.03.075-.056l.086-.06.08-.055.092-.058.119-.073.008-2.85-.066.038q-.027.016-.052.034l-.092.058q-.042.026-.08.054l-.086.06a4 4 0 0 0-.224.177l-.074.065-.033.029-.049.047-.024.023a3 3 0 0 0-.21.231l-.019.024-.011.013-.028.038q-.035.047-.068.095l-.037.056q-.029.045-.055.09l-.016.025-.019.035-.039.077-.031.065-.033.077q-.007.018-.015.037l-.01.03-.025.073-.02.068-.018.074q-.006.021-.01.042l-.004.026-.012.076-.008.068q-.004.037-.006.076-.001.024-.003.046v.045l-.009 2.851q0-.045.004-.091l.005-.076zM166.6 59.879l.001-.001a1 1 0 0 0 .058-.04q.006-.003.013-.01.019-.014.036-.029l.002-.002a.4.4 0 0 0 .048-.052l.002-.002.013-.02.021-.031.017-.036.005-.011v-.001a.3.3 0 0 0 .014-.048v-.001l.002-.015.003-.032v-.008l.009-2.85q-.001.018-.004.038l-.002.016a.2.2 0 0 1-.014.05l-.005.01-.019.04-.019.027-.014.022a.4.4 0 0 1-.049.052l-.038.032-.012.01a.788.788 0 0 1-.132.079l-2.066 1.11-.009 2.85 2.066-1.11a1 1 0 0 0 .073-.037M170.921 65.932l.016-.003.054-.011q.013-.004.025-.006l.048-.014.014-.005.006-.002a1 1 0 0 0 .089-.034l.014-.007a1 1 0 0 0 .079-.04l.005-.002.01-.007.038-.026.015-.01.039-.032.006-.004a1 1 0 0 0 .048-.052l.005-.006.003-.004a.3.3 0 0 0 .031-.045l.001-.001.002-.004a.2.2 0 0 0 .017-.039l.003-.005.002-.01.008-.028.003-.009.001-.007q.002-.015.003-.031l.001-.01v-.008l.009-2.85-.002.016-.004.031-.003.016-.008.029q-.002.007-.006.014l-.017.038-.003.006a.3.3 0 0 1-.031.045l-.008.01a1 1 0 0 1-.048.051l-.006.005a.4.4 0 0 1-.054.043l-.038.025-.015.009a1 1 0 0 1-.079.04l-.014.007a1 1 0 0 1-.089.034l-.021.007-.047.014-.025.006-.055.011-.028.006-2.641.565-.009 2.851 2.642-.565q.008 0 .014-.002M171.917 69.172q-.004.016-.009.032-.002.01-.006.02l-.01.023-.011.025-.011.017-.021.031-.011.014-.036.039-.017.016-.027.022-.022.017-.031.02-.023.015a1 1 0 0 1-.08.042l-.019.008q-.038.016-.08.03l-.018.006-.046.013-.029.009a1 1 0 0 1-.207.033l-.053.004h-.082q-.035 0-.069-.002l-2.821-.064q-.06.165-.126.33l-.011.026q-.06.151-.127.303l-.009.02a9 9 0 0 1-.14.301l-.021.045-.146.289-.028.051q-.074.14-.153.28l-.052.09-.127.213-.064.103q-.065.105-.134.209l-.06.092q-.098.149-.202.296l-.008 2.85q.103-.146.201-.294l.061-.092.133-.209.063-.103q.066-.106.127-.214.028-.045.052-.09l.019-.032q.07-.124.135-.247l.028-.051q.075-.145.146-.29l.021-.044a12 12 0 0 0 .276-.623l.011-.027.078-.202.047-.128 2.822.064.052.002h.098l.053-.004.025-.002.009-.001q.048-.005.095-.013h.001l.022-.005.084-.02.046-.014.007-.001.012-.005q.04-.014.08-.03l.018-.008a1 1 0 0 0 .087-.045l.017-.011.031-.021.022-.017q.014-.011.027-.022l.009-.008.008-.008.036-.04.008-.008.003-.005.021-.031.009-.014.002-.003.011-.025q.005-.01.009-.02l.001-.002.006-.02.007-.024.001-.007.344-1.954.008-2.851z"/><path fill="#76030A" d="m169.598 73.555-.014.044-.009.018-.018.035-.015.021a.3.3 0 0 1-.035.044l-1.608 1.727a.7.7 0 0 1-.116.095l-.026.016a1 1 0 0 1-.08.04l-.017.008a1 1 0 0 1-.077.029l-.023.007-.043.013-.033.008-.047.01-.031.006a2 2 0 0 1-.183.02h-.037q-.022.001-.045 0h-.04l-.041-.002q-.02-.002-.041-.003l-.04-.005-.04-.005-.042-.008-.037-.008-.05-.012q-.026-.006-.05-.014l-2.562-.683q-.158.135-.32.265-.054.044-.108.086a22 22 0 0 1-.568.434l-.143.104-.212.152-.149.104a13 13 0 0 1-.369.25l-.24.156-.139.09q-.144.09-.29.18l-.1.062q-.202.123-.41.244l-.009 2.852.397-.236.014-.008.099-.062.29-.18.14-.09.239-.156.149-.1.222-.151q.074-.053.147-.103l.213-.153.143-.104.211-.158.132-.1q.114-.087.224-.176l.108-.086q.164-.132.321-.264l2.562.683.029.008.02.005.051.013.017.004.02.003.042.008q.01 0 .02.004l.019.002.041.005.021.002h.02l.041.003.021.001h.1l.058-.004q.011 0 .022-.002h.008q.049-.005.096-.014l.005-.001.026-.005.047-.01.032-.009.044-.012q.005 0 .01-.003l.013-.005q.04-.013.077-.029l.017-.007a1 1 0 0 0 .08-.04l.007-.005.018-.012.029-.019.025-.02.026-.02.008-.007.028-.028 1.608-1.727.025-.03.01-.014q.008-.011.015-.022l.009-.013.01-.02.008-.019.004-.007.011-.036.002-.01h.001a.3.3 0 0 0 .005-.048v-.008l.009-2.851q0 .028-.006.056z"/><path fill="#359B12" d="M146.597 64.55a4 4 0 0 0-.358-.228l-.008 2.851q.188.109.357.229c.772.55 1.147 1.211 1.145 1.868l.008-2.852c.003-.656-.372-1.317-1.144-1.867"/><path fill="#fff" d="M142.696 71.128c4.097 0 7.419-2.262 7.419-5.051s-3.322-5.051-7.419-5.051-7.419 2.261-7.419 5.05c0 2.79 3.322 5.052 7.419 5.052"/><path fill="#122AA5" d="m162.969 78.768-.001.016a.2.2 0 0 1-.015.05l-.005.01-.019.038q-.008.015-.019.029l-.014.021a.6.6 0 0 1-.087.084l-.012.01a.7.7 0 0 1-.132.08l-2.629 1.236a1 1 0 0 1-.111.044l-.014.005q-.026.008-.052.015l-.022.006-.076.016h-.005q-.046.009-.091.013l-.028.003-.058.004-.029.001h-.082l-.063-.003h-.017l-.078-.009-.019-.003-.06-.01-.025-.006-.058-.014-.024-.007a1 1 0 0 1-.09-.03l-.04-.018-.022-.01-.058-.03-1.981-1.239a29 29 0 0 1-.943.34l-.16.054-.349.117q-.065.02-.13.043l-.176.055q-.212.067-.427.132l-.213.063a31 31 0 0 1-.612.175q-.206.057-.414.111-.097.026-.192.05a40 40 0 0 1-.608.153l-.006 2.209-3.175.545a1.2 1.2 0 0 1-.214.02h-.032q-.04 0-.081-.003h-.02a1 1 0 0 1-.097-.012l-.027-.005a1 1 0 0 1-.107-.023l-.052-.014-.056-.019-.051-.019-.022-.01-.075-.038a.53.53 0 0 1-.211-.204l-.984-1.532q-.224.023-.448.045l-.452.041-.213.019-.633.047-.029.002q-.332.022-.664.039l-.208.01-.461.019-.231.007a57 57 0 0 1-1.423.023l-.469 1.612q-.002.016-.008.031l-.006.02-.01.023q-.005.012-.012.025l-.01.016-.021.032-.011.013q-.017.02-.037.04l-.017.015q-.013.012-.027.022l-.023.017-.031.021-.023.014a.8.8 0 0 1-.179.08l-.018.007q-.022.007-.046.013l-.029.008-.058.012-.021.004-.095.013-.033.004-.053.003-.041.001h-.042q-.035 0-.069-.002l-3.375-.205-.049-.005-.045-.005-.03-.005-.051-.008-.026-.005-.079-.02-.006-.002a1 1 0 0 1-.087-.029l-.017-.006q-.02-.008-.04-.018l-.019-.008-.056-.03a.7.7 0 0 1-.148-.115l.005-1.912q-.36-.045-.718-.095l-.239-.035-.37-.055-.256-.04-.368-.061-.25-.043-.38-.07q-.117-.02-.233-.043l-.421-.083-.188-.038q-.194-.04-.386-.082l-.193-.041-.574-.133-1.495 1.382-.036.034-.026.021-.025.019-.029.019-.025.015a1 1 0 0 1-.081.041l-.017.007q-.037.016-.077.03l-.023.008a1 1 0 0 1-.123.03l-.031.007q-.047.008-.096.013l-.03.002q-.029.003-.057.004l-.037.001h-.085l-.041-.003q-.02 0-.041-.003l-.04-.005-.04-.005-.043-.008-.037-.007-.05-.013-.05-.013-2.163-.68.007-2.4a28 28 0 0 1-3.662-1.76l-.009 2.851q1.146.66 2.399 1.224l-.007 2.246c0 .13.088.256.249.349a1 1 0 0 0 .08.04l.02.009.02.008q.034.015.072.025l2.986.938.029.009.021.005.051.012.017.005.019.003.042.007.021.004.019.003.041.004.021.002.019.001.042.002.021.002h.099l.058-.004.022-.002h.008q.049-.005.096-.015h.005l.025-.006.047-.01.032-.008.044-.012.01-.003.013-.005.077-.03.017-.007a1 1 0 0 0 .08-.041l.007-.004.018-.012.029-.02q.013-.007.024-.018l.026-.02.009-.009.028-.027 1.495-1.381q.287.069.575.132l.192.041q.193.043.386.083.015.004.029.006l.158.031q.21.044.421.084l.234.043.378.07.25.042.368.061.256.04q.184.03.37.056l.154.023.085.011q.308.043.617.082l-.005 1.696c-.001.133.094.256.249.345l.056.03.019.008.041.017.007.003.01.004q.041.015.087.029l.005.001h.001q.038.012.079.02l.008.001.018.004.05.008.014.002.017.002.064.007.031.003 3.375.205.052.002h.099l.053-.005.025-.001q.004 0 .009-.002l.095-.013h.001l.02-.004.057-.012.029-.008.047-.013.006-.002.012-.004.08-.03.018-.009a1 1 0 0 0 .081-.042l.006-.003.017-.011.031-.02.022-.018.028-.022.009-.007.007-.009.037-.039.009-.009.003-.005.021-.031.009-.013.002-.002.011-.025q.005-.01.009-.02l.001-.002.006-.02q.005-.013.007-.025l.002-.007.468-1.612q.352 0 .703-.006l.213-.004q.253-.005.507-.013l.13-.003a35 35 0 0 1 .562-.024l.208-.01q.333-.016.664-.038l.029-.002q.317-.021.633-.048l.214-.018a46 46 0 0 0 .899-.087l.984 1.532c.042.08.116.15.212.205a1 1 0 0 0 .074.038l.023.01.024.01.026.009.056.018.022.008.03.008.038.009.021.005.048.008.027.005.009.002.088.01h.02l.054.003h.085q.026 0 .05-.003.015 0 .031-.002h.011q.048-.006.096-.014l3.25-.558.01-.002.015-.003q.029-.005.056-.012l.025-.006.048-.014.015-.004.006-.002q.046-.015.089-.034l.014-.006a1 1 0 0 0 .084-.043l.01-.007.053-.036.044-.037h.001a1 1 0 0 0 .056-.062q.016-.022.031-.045l.003-.005a.2.2 0 0 0 .017-.038l.003-.006.002-.009.008-.029.003-.009v-.006l.004-.032.001-.01v-.007l.005-1.9q.064-.016.128-.034.208-.054.414-.111.11-.03.22-.062.197-.056.392-.113l.214-.063q.214-.065.426-.132l.132-.041.044-.015q.066-.02.13-.042.176-.058.349-.117l.161-.055.332-.116.145-.051q.234-.085.466-.171l1.98 1.238.058.03.022.01.039.016h.001q.043.018.09.03l.011.005.014.003.058.014.017.004q.004 0 .007.002l.06.01.016.003h.002l.079.009h.017q.03.004.063.004h.091l.019-.002q.03 0 .059-.004h.016l.012-.002.09-.012.004-.001h.001l.076-.016.022-.006.052-.015.006-.001q.004-.002.008-.003.058-.019.111-.044l2.629-1.237a1 1 0 0 0 .072-.039h.002l.058-.04q.007-.004.012-.01l.036-.03.002-.001.049-.052.001-.002.014-.02.019-.028.002-.002.016-.036.006-.012a.3.3 0 0 0 .013-.048v-.002l.002-.015.004-.031v-.008l.008-2.851a.1.1 0 0 1 0 .037"/><path fill="#000" d="m140.543 54.94.13.075-.124.538.442.255.124-.634q.185.036.363.02a.8.8 0 0 0 .342-.112q.117-.068.147-.138a.18.18 0 0 0 .001-.144.3.3 0 0 0-.102-.131 1.5 1.5 0 0 0-.194-.13l-.581-.335-1.434.834.36.208zm.645-.374.12.07q.063.035.101.061a.2.2 0 0 1 .057.054q.027.041.009.075a.2.2 0 0 1-.072.066.386.386 0 0 1-.231.055.4.4 0 0 1-.128-.029 1 1 0 0 1-.138-.069l-.103-.06zM141.281 55.84q.017.18.326.357a1.6 1.6 0 0 0 .411.168l.107.026.278-.16-.036-.022a2 2 0 0 1-.212-.032 1 1 0 0 1-.268-.1.7.7 0 0 1-.114-.082.2.2 0 0 1-.058-.083.11.11 0 0 1 .008-.088.3.3 0 0 1 .094-.092l.743.43.121-.071q.25-.145.258-.295.007-.151-.242-.295a1.1 1.1 0 0 0-.585-.156 1.14 1.14 0 0 0-.576.158q-.274.156-.255.336m.958-.284a.4.4 0 0 1 .214.056q.096.056.088.116-.01.06-.113.123l-.41-.237a.5.5 0 0 1 .221-.058M139.25 56.766q.006-.096-.1-.19l.008-.004q.132.03.267.014a.6.6 0 0 0 .239-.078.3.3 0 0 0 .122-.114.14.14 0 0 0-.006-.131.35.35 0 0 0-.103-.118 2 2 0 0 0-.228-.146l-.511-.294-1.434.833.579.333q.15.086.274.127a1.1 1.1 0 0 0 .513.036.7.7 0 0 0 .228-.086q.147-.085.152-.182m-.442-.114q-.01.038-.076.076a.35.35 0 0 1-.249.035.5.5 0 0 1-.137-.049l-.198-.111-.02-.012.359-.209.067.04q.097.055.153.09a.3.3 0 0 1 .077.06q.034.044.024.08m.2-.278a.4.4 0 0 1-.097-.033l-.132-.074-.046-.026.303-.177.026.015.144.084q.047.03.068.06a.05.05 0 0 1 .002.063.13.13 0 0 1-.052.051.4.4 0 0 1-.1.04.3.3 0 0 1-.116-.003M142.824 58.356l-.744.06.84-.489-.34-.196-1.498.87.34.197.4-.233.122-.01-.176.444.403.232.207-.593.846-.051zM147.817 58.457a1.13 1.13 0 0 0-.586-.156 1.15 1.15 0 0 0-.576.158q-.272.157-.252.337.017.18.325.358a1.6 1.6 0 0 0 .289.13q.074.026.123.038l.106.026.279-.161-.036-.02a2 2 0 0 1-.212-.034 1 1 0 0 1-.269-.1.7.7 0 0 1-.113-.08.2.2 0 0 1-.059-.084.1.1 0 0 1 .009-.088.3.3 0 0 1 .094-.092l.743.43.121-.071q.25-.144.258-.295.005-.152-.244-.296m-.267.35-.41-.237a.5.5 0 0 1 .221-.057.4.4 0 0 1 .213.055q.096.055.088.115t-.112.123M142.597 56.734l.767-.446q.063.007.122.019.059.011.1.036.055.03.07.058.015.027-.006.055a.3.3 0 0 1-.071.063q-.053.035-.131.08l-.541.314.341.198.767-.446q.076.008.13.02t.094.034a.2.2 0 0 1 .07.059.05.05 0 0 1-.005.055.3.3 0 0 1-.072.062l-.133.08-.54.314.341.198.704-.41a.7.7 0 0 0 .165-.121.2.2 0 0 0 .055-.112.14.14 0 0 0-.029-.1.4.4 0 0 0-.112-.092.7.7 0 0 0-.225-.074 2 2 0 0 0-.323-.026q.054-.076.025-.148a.28.28 0 0 0-.128-.13.6.6 0 0 0-.205-.072 2 2 0 0 0-.267-.027l.12-.07-.339-.195-1.082.629zM140.676 57.186q-.036-.129-.317-.291a2 2 0 0 0-.247-.12 3 3 0 0 0-.197-.073l-.261.15.03.018q.11.025.211.058a1 1 0 0 1 .163.069.5.5 0 0 1 .165.134q.031.06-.058.11l-.006.004a6 6 0 0 0-.302-.143 1.4 1.4 0 0 0-.281-.091.8.8 0 0 0-.257-.013.6.6 0 0 0-.243.085q-.147.086-.147.197-.001.111.144.194.077.044.132.063a1 1 0 0 0 .242.048l.115.006-.115.066.338.196.735-.428q.19-.111.156-.24m-.947.308a.6.6 0 0 1-.253-.057q-.08-.046-.093-.086t.063-.085a.3.3 0 0 1 .108-.035.3.3 0 0 1 .116.014 1 1 0 0 1 .129.046l.155.072zM144.338 57.601q-.004.174.261.329.269.155.569.15.3-.003.568-.158.268-.156.274-.33t-.261-.329a1.1 1.1 0 0 0-.567-.15q-.3.003-.57.16-.268.154-.274.328m.42.057a.2.2 0 0 1 .055-.082 1.067 1.067 0 0 1 .325-.188.7.7 0 0 1 .15-.033.37.37 0 0 1 .218.047.2.2 0 0 1 .07.06q.021.03.011.071a.2.2 0 0 1-.058.085 1.037 1.037 0 0 1-.321.187.6.6 0 0 1-.145.032q-.06.005-.12-.01a.4.4 0 0 1-.1-.037.2.2 0 0 1-.072-.062.08.08 0 0 1-.013-.07M141.221 58.284q-.034 0-.08-.002a.8.8 0 0 1-.345-.093q-.126-.072-.122-.163.003-.09.166-.185a.7.7 0 0 1 .313-.1.5.5 0 0 1 .292.064.332.332 0 0 1 .139.136q.015.031.022.062.006.03.008.054l.043.025.289-.168a.6.6 0 0 0-.115-.142 1 1 0 0 0-.16-.117 1.3 1.3 0 0 0-.261-.114 1.15 1.15 0 0 0-.917.1.6.6 0 0 0-.205.172.25.25 0 0 0-.049.176.32.32 0 0 0 .09.173 1.12 1.12 0 0 0 .552.294q.054.014.096.023l.29-.168zM146.197 58.552a1 1 0 0 1-.083-.035q-.066-.037-.081-.07a.06.06 0 0 1 .006-.058.2.2 0 0 1 .061-.053l.098-.058.383-.223.326.19.235-.138-.326-.188.309-.18-.339-.196-.309.18-.13-.075-.235.137.13.075-.505.293q-.194.112-.183.216.01.105.217.223a1.6 1.6 0 0 0 .301.138l.237-.138-.029-.017a1 1 0 0 1-.083-.023M143.288 59.875l1.082-.628-.339-.196-.766.445a1 1 0 0 1-.139-.024.4.4 0 0 1-.102-.04.2.2 0 0 1-.074-.062q-.014-.03.003-.057a.3.3 0 0 1 .069-.065 2 2 0 0 1 .133-.082l.536-.312-.341-.196-.704.409q-.204.12-.216.23-.011.111.152.204a.7.7 0 0 0 .213.08q.111.02.272.029l-.119.07zM145.331 59.767a.7.7 0 0 0-.219-.08 2 2 0 0 0-.256-.028l.113-.066-.34-.196-1.478.86.339.195.451-.262a.4.4 0 0 0 .194.2.87.87 0 0 0 .485.095q.291-.016.55-.167.258-.15.303-.296.046-.145-.142-.255m-.333.194q-.022.07-.181.161a.7.7 0 0 1-.302.107.44.44 0 0 1-.265-.06 1 1 0 0 1-.073-.047.2.2 0 0 1-.043-.044l.544-.316a1 1 0 0 1 .132.026.5.5 0 0 1 .105.044q.106.06.083.129"/><path fill="#1DCAFF" d="M142.54 55.727q.01-.06-.088-.115a.4.4 0 0 0-.213-.056.5.5 0 0 0-.221.057l.41.237q.104-.063.112-.123M144.844 57.792a.4.4 0 0 0 .1.037q.06.014.119.01a.7.7 0 0 0 .146-.032 1.1 1.1 0 0 0 .321-.187.2.2 0 0 0 .058-.085.08.08 0 0 0-.012-.072.2.2 0 0 0-.07-.06.37.37 0 0 0-.217-.047.6.6 0 0 0-.15.033 1 1 0 0 0-.326.188.2.2 0 0 0-.055.082.08.08 0 0 0 .013.072q.023.032.073.06"/><path fill="#3D68FF" d="m157.346 53.953 1.172-1.482c.179-.192.108-.427-.149-.576a1 1 0 0 0-.193-.083l-2.986-.938c-.406-.127-.919-.04-1.137.196l-1.495 1.38a41 41 0 0 0-4.575-.818l.102-1.634c.026-.152-.071-.295-.246-.395a1.15 1.15 0 0 0-.505-.139l-3.374-.205c-.46-.028-.875.167-.921.433l-.468 1.612c-1.593 0-3.187.083-4.764.252l-.984-1.532a.52.52 0 0 0-.211-.204c-.212-.123-.529-.176-.834-.124l-3.249.558c-.443.076-.696.348-.563.604l.631 1.592c-1.455.35-2.87.78-4.225 1.293l-1.982-1.238c-.299-.173-.786-.191-1.121-.034l-2.629 1.237c-.358.169-.412.476-.12.684l1.635 1.335 14.888 8.595q.186-.107.393-.207c2.038-.958 4.974-.85 6.803.207l14.769-8.608a28 28 0 0 0-3.662-1.761"/><path fill="#1DCAFF" d="M141.043 54.919a.41.41 0 0 0 .359-.026.2.2 0 0 0 .073-.066q.018-.035-.01-.075a.2.2 0 0 0-.057-.054 2 2 0 0 0-.1-.062l-.121-.07-.386.224.103.06q.076.044.139.069M139.223 56.337a.2.2 0 0 0 .053-.05.06.06 0 0 0-.003-.064.2.2 0 0 0-.068-.06l-.144-.084-.025-.015-.304.177.046.026q.094.054.132.074a.4.4 0 0 0 .213.035.3.3 0 0 0 .1-.039M138.707 56.512l-.153-.09-.067-.04-.359.21.02.011q.141.081.198.112.055.03.137.049a.34.34 0 0 0 .249-.036q.066-.038.076-.075.012-.038-.024-.08a.3.3 0 0 0-.077-.06M139.67 57.245a.4.4 0 0 0-.116-.013.24.24 0 0 0-.107.034q-.076.045-.064.085.013.04.093.087.046.025.112.04a.7.7 0 0 0 .142.016l.225-.13-.154-.072a1 1 0 0 0-.131-.047"/><path fill="#FF1D33" d="M156.548 66.667q.022-.07-.081-.13a.5.5 0 0 0-.105-.043 1 1 0 0 0-.132-.026l-.543.316q.014.022.042.043.028.022.073.047a.45.45 0 0 0 .265.06.7.7 0 0 0 .301-.106q.159-.09.18-.16M157.716 67.259a.5.5 0 0 0-.105-.044 1 1 0 0 0-.133-.026l-.543.316q.015.022.042.043.029.022.073.048a.45.45 0 0 0 .265.06.7.7 0 0 0 .302-.106q.157-.092.18-.161.023-.07-.081-.13M158.954 67.945a.4.4 0 0 0-.218-.047.7.7 0 0 0-.149.033 1 1 0 0 0-.326.189.2.2 0 0 0-.055.08.08.08 0 0 0 .013.072.2.2 0 0 0 .073.062q.041.024.1.037.06.015.12.008a.7.7 0 0 0 .145-.03 1.1 1.1 0 0 0 .321-.188.2.2 0 0 0 .058-.085.08.08 0 0 0-.011-.072.3.3 0 0 0-.071-.059"/><path fill="#C5E3FF" d="M172.015 66.823a1.2 1.2 0 0 0-.506-.14l-2.784-.276a9 9 0 0 0-.449-2.76l2.641-.565c.442-.076.696-.348.563-.604l-.973-1.884a.54.54 0 0 0-.211-.204c-.212-.122-.53-.176-.835-.123l-2.745.36a15 15 0 0 0-2.247-2.451l2.066-1.11c.358-.168.412-.476.12-.684l-2.203-1.564c-.3-.173-.786-.192-1.121-.034l-2.301.943-14.791 8.596q.187.108.357.228c1.663 1.184 1.483 2.887-.334 3.94l14.887 8.595a21 21 0 0 0 3.05-2.128l2.562.683c.406.128.917.04 1.136-.196l1.609-1.727c.18-.193.108-.428-.149-.577a1 1 0 0 0-.192-.082l-2.389-.871a11 11 0 0 0 1.4-2.648l2.821.064c.459.029.873-.166.92-.433l.343-1.954c.027-.15-.071-.293-.245-.394"/><path fill="#EDEDED" d="M128.404 64.544a.7.7 0 0 0-.144.102.2.2 0 0 0-.055.081.08.08 0 0 0 .013.071.2.2 0 0 0 .073.062.37.37 0 0 0 .218.047.7.7 0 0 0 .146-.031 1 1 0 0 0 .176-.085.7.7 0 0 0 .145-.103.2.2 0 0 0 .059-.085.08.08 0 0 0-.012-.072.2.2 0 0 0-.07-.059.4.4 0 0 0-.096-.04.4.4 0 0 0-.122-.007.6.6 0 0 0-.149.033q-.083.029-.182.086M124.312 65.23q.087.045.211.062a.88.88 0 0 0 .577-.123.5.5 0 0 0 .192-.17.17.17 0 0 0 .007-.177.3.3 0 0 0-.111-.116l-.189-.114-.006-.004-.898.522.007.004q.121.07.21.116M129.459 65.51q.03.023.064.042.122.072.264.06a.74.74 0 0 0 .303-.106q.162-.094.182-.163t-.083-.129a.5.5 0 0 0-.105-.044 1 1 0 0 0-.132-.026l-.543.316q.021.028.05.05M120.494 65.542a.3.3 0 0 0-.115-.013.25.25 0 0 0-.109.034q-.076.045-.063.084t.093.087q.045.025.111.042.066.015.142.016l.225-.131-.155-.072a1 1 0 0 0-.129-.047M126.411 65.782q.008-.06-.088-.116a.4.4 0 0 0-.214-.055.5.5 0 0 0-.221.057l.41.237q.102-.064.113-.124M132.648 66.577a.4.4 0 0 0-.213-.055q-.115 0-.221.057l.41.236q.104-.065.113-.123.008-.06-.089-.115M123.012 67.21l.225-.13-.154-.072a1 1 0 0 0-.129-.047.3.3 0 0 0-.116-.013.25.25 0 0 0-.108.035q-.076.044-.063.084t.093.086q.045.026.111.041t.141.016M124.756 67.56a.45.45 0 0 0-.328-.107.66.66 0 0 0-.281.092 1 1 0 0 0-.11.074.2.2 0 0 0-.052.07.08.08 0 0 0 .009.068.2.2 0 0 0 .081.07.5.5 0 0 0 .105.042q.06.015.129.023l.49-.285a.2.2 0 0 0-.043-.047M126.03 68.304q.008-.06-.088-.115a.4.4 0 0 0-.214-.055.5.5 0 0 0-.221.057l.41.237q.104-.065.113-.124M129.101 70.077q.01-.06-.087-.116a.4.4 0 0 0-.214-.056.5.5 0 0 0-.221.058l.41.237q.103-.064.112-.124"/><path fill="#C5E3FF" d="M138.709 68.26c-1.663-1.184-1.483-2.886.334-3.94l-14.888-8.594a21 21 0 0 0-3.049 2.128l-2.562-.683c-.406-.128-.918-.04-1.137.195l-1.609 1.727c-.18.193-.108.427.149.575q.084.049.192.083l2.389.871a11.1 11.1 0 0 0-1.399 2.647l-2.821-.064c-.459-.028-.873.167-.92.433l-.343 1.954c-.026.151.072.294.245.395.132.075.307.127.506.139l2.784.276c.004.922.153 1.846.449 2.76l-2.641.565c-.442.076-.696.348-.563.604l.975 1.885c.041.08.115.149.211.204.212.122.529.176.834.124l2.745-.361a15 15 0 0 0 2.246 2.451l-2.065 1.11c-.357.168-.412.476-.12.684l2.201 1.564c.301.174.788.192 1.123.035l2.301-.943 14.79-8.596a4 4 0 0 1-.357-.228"/><path fill="#EDEDED" d="M130.383 68.076q.008-.06-.088-.116a.4.4 0 0 0-.213-.055.5.5 0 0 0-.222.057l.41.237q.104-.064.113-.123"/><path fill="#1DCAFF" d="M140.032 73.46a.4.4 0 0 0 .131-.049.2.2 0 0 0 .065-.053q.018-.025.012-.046-.002-.02-.021-.034a.2.2 0 0 0-.066-.038.249.249 0 0 0-.132-.005.3.3 0 0 0-.082.032q-.056.033-.068.083a.3.3 0 0 0 .001.122 1 1 0 0 0 .16-.012M139.223 73.9a.5.5 0 0 0 .26.076l-.023-.436a1 1 0 0 0-.107.022.5.5 0 0 0-.125.052.25.25 0 0 0-.089.077.11.11 0 0 0-.02.077.13.13 0 0 0 .031.072q.03.035.073.06M145.775 74.41q.105-.065.113-.125.01-.06-.088-.115a.4.4 0 0 0-.214-.055.5.5 0 0 0-.221.057zM146.972 74.904a.5.5 0 0 0-.105-.044 1 1 0 0 0-.132-.026l-.543.316q.02.027.05.05a1 1 0 0 0 .064.041q.123.072.264.06a.74.74 0 0 0 .304-.107q.162-.094.181-.163.02-.067-.083-.127M138.909 75.704a.4.4 0 0 0-.218-.048.7.7 0 0 0-.149.033 1.1 1.1 0 0 0-.325.189.2.2 0 0 0-.056.081.08.08 0 0 0 .013.071q.024.033.073.062a.4.4 0 0 0 .1.038q.06.014.12.009a.7.7 0 0 0 .145-.031q.074-.026.177-.085a.7.7 0 0 0 .144-.103.2.2 0 0 0 .058-.085.08.08 0 0 0-.011-.072.2.2 0 0 0-.071-.06M144.51 76.666a.4.4 0 0 0-.116-.013.24.24 0 0 0-.108.034q-.075.045-.063.085.013.04.093.086.045.026.112.04.066.016.141.017l.225-.131-.154-.072a1 1 0 0 0-.13-.046M143.932 78.63a.45.45 0 0 0-.328-.107.77.77 0 0 0-.39.166.16.16 0 0 0-.052.07.08.08 0 0 0 .008.069.2.2 0 0 0 .081.068.5.5 0 0 0 .105.043q.06.018.129.023l.49-.284a.3.3 0 0 0-.043-.048"/><path fill="#3D68FF" d="m162.785 78.421-1.634-1.335-14.888-8.596q-.186.107-.394.207c-2.037.958-4.973.85-6.802-.207l-14.769 8.608a28 28 0 0 0 3.662 1.76l-1.17 1.483c-.181.193-.109.428.148.576q.084.048.192.083l2.986.938c.407.127.919.04 1.138-.196l1.496-1.382c1.484.355 3.016.628 4.575.82l-.102 1.633c-.027.152.071.295.245.395.131.076.307.128.505.14l3.375.205c.459.028.873-.167.92-.433l.469-1.612c1.592 0 3.187-.083 4.763-.252l.984 1.532c.041.08.115.15.211.204.212.123.529.176.834.124l3.249-.558c.442-.077.696-.348.563-.604l-.631-1.592c1.455-.35 2.869-.78 4.225-1.293l1.98 1.238c.301.174.787.191 1.123.034l2.628-1.236c.357-.169.411-.476.119-.684"/><path fill="#FBBEBE" d="M157.148 81.9s-2.682-1.487-3.716-1.722c-1.033-.236-2.663.38-3.461.544-.2.04-.463.155-.756.307-.324.168-1.507.408-2.065.558-.401-.027-.326.415.102.537a3 3 0 0 1-.553.26c-.598.218-.242.515-.038.529.186.01.836-.161.836-.161s-.344.48-.671.688c-.327.21.254.309.453.254.417-.136 1.187-.996 1.504-.996-.245.371-.516.745-.553 1.147-.036.402-.009.72-.054.91-.045.189.426.117.562-.191s0-.68.181-.87.499-.498.897-.525c.399-.028 1.713-.263 2.23-.997.099-.127.335-.1 1.024.644.689.742 2.664 2.79 2.664 2.79z"/><path fill="#3D68FF" d="M163.517 128.817s.961 2.738-.615 3.919c-1.341 2.224 2.795 4.514 5.537.318-.298-1.077-.994-2.568-.614-4.558-2.672.25-4.308.321-4.308.321"/><path fill="#111572" d="M168.398 132.761s-.815.194-1.555 1.033c-.739.78-2.661 1.506-3.985.109.087-.61.045-1.167.045-1.167s-2.179 1.171-4.252 1.368-1.412 1.876-.989 2.34 2.347 1.611 4.142 1.1 2.621-.25 3.326.099 2.576 1.022 4.184-1.118c-.005-.858-.196-.919-.196-.919s.411-1.054-.72-2.845"/><path fill="#0B1650" d="M169.314 136.525c-.004-.859-.195-.92-.195-.92-.781 1.717-3.186 1.726-4.524 1.414-1.336-.312-2.108-.123-3.688.094s-3.573-1.235-3.573-1.235c.091.239.217.443.328.565.423.463 2.347 1.61 4.142 1.1 1.795-.511 2.621-.25 3.326.099s2.576 1.022 4.184-1.117"/><path fill="#C3D0FF" d="M175.183 88.474 173.655 96c-1.09 5.365-7.497 17.147-6.821 20.804s1.586 13.008 1.586 13.008-1.678 2.916-5.055.888c-.717-5.789-2.751-11.469-2.8-14.802-.049-3.332 3.755-26.041 3.755-26.041z"/><path fill="#3D68FF" d="M179.909 124.4s1.817 2.423.143 4.233c-.489 2.55 4.184 3.269 5.305-1.617-.466-.87-1.21-2.076-1.54-4.076-2.422 1.161-3.908 1.46-3.908 1.46"/><path fill="#111572" d="M185.217 126.756s-.698.465-1.102 1.507c-.423.987-1.975 2.333-3.701 1.481-.13-.603-.362-1.111-.362-1.111s-1.639 1.853-3.517 2.754c-1.876.902-.676 2.249-.119 2.538.558.288 2.759.7 4.268-.401s2.372-1.14 3.155-1.057 2.77.068 3.54-2.495c-.301-.803-.502-.795-.502-.795s.021-1.13-1.66-2.421"/><path fill="#0B1650" d="M187.379 129.971c-.301-.803-.502-.794-.502-.794-.138 1.88-2.392 2.721-3.754 2.891s-2.022.612-3.429 1.363-3.779.078-3.779.078c.167.192.356.341.502.416.557.288 2.759.699 4.267-.401s2.373-1.14 3.156-1.057 2.769.068 3.539-2.496"/><path fill="#C3D0FF" d="M178.559 83.23s.984 1.751 1.384 7.211-1.977 18.373-.338 21.713c1.638 3.339 5.037 12.098 5.037 12.098s-.829 3.26-4.629 2.218c-2.252-5.38-5.744-10.302-6.69-13.497s-3.299-23.224-3.299-23.224z"/><path fill="#FBBEBE" d="M165.487 51.31c-1.206.596-2.385 2.741-2.056 4.796-.304.584-1.116 4.594.711 6.065.558.432 1.827-.025 2.106.381s.863 2.842.863 2.842l4.466-1.802s-1.091-1.827-.635-3.146c.457-1.32 2.563-2.715 1.955-5.507s-3.146-5.735-7.41-3.629"/><path fill="#CF9898" d="M164.929 54.876s.329 2.867.266 4.466c.216.114.304.153.304.153s.432-2.335 1.866-1.764c.913.406.621 1.332.292 1.764.304.672.951 1.763 2.499 1.674.571-.063.679-.14.679-.14s1.169-2.39 1.733-3.248c-2.208-1.09-7.639-2.905-7.639-2.905"/><path fill="#7C5C5C" d="M164.27 53.975s-1.853.127-1.599-2.867c.356.076 1.739-1.764 3.959-1.117-.102-.482 4.847-.66 5.938 2.335.635.254 1.65 3.73 0 5.456-.635.457-6.75 1.09-8.298-3.807"/><path fill="#3D68FF" d="M169.827 64.937c2.311-.673 6.902-1.827 8.069.254s6.649 13.602.965 13.146c.102 2.487.787 5.938 1.04 6.978.254 1.04-.736 2.716-3.578 4.188s-8.095 3.4-12.003.355c-.71-.635-.812-.939-.735-1.7.076-.76.735-5.608.456-9.846-.685 3.705-1.471 10.1-4.999 9.288s-3.756-1.599-3.832-2.31c-.076-.71.254-3.806 2.183-3.653.33.076.533.101.533.101s2.233-10.708 3.35-11.8 5.151-4.011 8.551-5"/><path fill="#2A4668" d="M179.752 78.296c-.145-1.204-.576-4.951-.765-8.283-.202 3.146-.126 8.323-.126 8.323.335.028.63.012.891-.04M164.041 78.312c.279 4.237-.381 9.085-.457 9.846s.026 1.066.736 1.7q.414.32.845.57c-.449-2.178-.014-4.575.018-8.474.038-4.644-.571-6.357-.571-6.357z"/><path fill="#FDFEFE" d="M165.641 66.828s-.471-1.814 1.407-2.169 3.623-1.137 4.235-1.653c.396-.047 1.069.321 1.031 1.666-.165.318-1.77 1.612-5.358 1.44-.537.28-1.315.716-1.315.716"/><path fill="#A85A5A" d="M105.607 120.895s-.532 3.497-.627 7.733c-.119.766-1.03 3.04 1.005 3.758 2.034.718 3.638-.551 4.332-.575.695-.023 3.734.575 4.764-2.297.191-.981-1.293-1.748-3.926-1.221-.766.048-2.561-.67-2.49-1.388.072-.718.999-5.929.999-5.929z"/><path fill="#122647" d="M115.081 129.514c-1.03 2.873-4.069 2.274-4.763 2.298-.695.023-2.298 1.292-4.333.574-1.582-.558-1.384-2.056-1.161-3.055-.034 2.089 6.547 1.475 6.331.47s0-1.508 0-1.508c2.633-.526 4.117.24 3.926 1.221"/><path fill="#415ADD" d="M118.235 80.949s2.59 11.138 2.686 18.989c.095 7.85-.449 19.148-.766 20.68s-5.425 5.33-11.744 3.415c-3.064-1.341-6.191-4.692-10.15-4.564-1.914-.862 5.516-21.43 5.803-24.015.288-2.585-.047-9.848 2.211-14.767 11.7-.419 11.96.262 11.96.262"/><path fill="#A85A5A" d="M118.208 76.96s.734 4.947 1.165 6.287c.43 1.34 3.255 7.85 3.255 7.85s-.718 1.341-.479 2.155.303 2.537-.079 3.59c-.383 1.053 2.361.414 2.521-.958s.83-3.223.128-4.882c-.096-4.66-1.819-8.393-1.979-9.925s-.069-4.972-.069-4.972-3.154-1.06-4.463.855M101.8 68.963s-2.293 4.758-.665 6.195c1.627 1.436 7.063-.309 7.063-.309l-1.845-6.872z"/><path fill="#DADADA" d="M116.101 64.227s5.33 2.522 5.713 4.053 2.202 6.862 2.202 6.862-.479.83-1.468.99c-.99.16-2.266.223-2.713.606-.446.383-1.627.223-1.627.223s-.351 1.947-.064 3.192c.288 1.244 0 2.393-2.043 3.191-2.042.798-6.701.16-8.201-.83s-1.755-1.276-1.66-3.16c.096-1.882.16-4.722-.287-6.35-.448-1.628-1.837-2.802-1.837-2.802s-.717-.07-1.355-.549c-.798-1.148-1.404-.35-2.106-1.18 1.46-3.966 2.776-7.843 5.776-7.313 4.182.801 9.67 3.067 9.67 3.067"/><path fill="#A85A5A" d="M116.334 51.285s.566 1.804.661 3.4c.303.909 2.043 5.137-2.329 5.904-.607.223-.99 2.361 0 2.903.989.543 1.436.735 1.436.735s-2.425 1.372-4.979.35l-.702-9.86z"/><path fill="#1A2C6B" d="M114.953 56.249s-.414-1.309 0-1.82c.415-.51 2.649-3.702.543-6.446-1.468-1.723-3.702-1.021-4.213-.447s-2.522 1.34-3.287 1.787-2.617 1.947-2.841 5.01c-.223 3.064.798 5.905.033 8.745-1.181 4.994-2.857 9.781 3.463 11.935 6.107 2.082 6.59-4.308 5.313-7.979-1.276-3.67-.414-9.159-.414-9.159s-1.404-.51-1.181-1.564c.223-1.053 1.372-.574 2.074.032z"/><path fill="#A85A5A" d="M109.661 124.342s-.532 3.497-.627 7.733c-.12.766-1.03 3.04 1.005 3.757 2.034.719 3.638-.55 4.332-.574.695-.024 3.734.574 4.763-2.297.192-.982-1.292-1.748-3.925-1.221-.766.048-2.562-.67-2.49-1.388s.999-5.93.999-5.93z"/><path fill="#122647" d="M119.134 132.96c-1.03 2.873-4.069 2.274-4.764 2.298-.694.024-2.297 1.292-4.332.574-1.583-.558-1.384-2.055-1.161-3.055-.035 2.089 6.546 1.475 6.331.47-.216-1.005 0-1.508 0-1.508 2.633-.525 4.117.24 3.926 1.221"/></g><defs><clipPath id="a"><path fill="#fff" d="M0 0h302v155H0z"/></clipPath></defs></svg>