<svg xmlns="http://www.w3.org/2000/svg" width="302" height="155" fill="none"><g clip-path="url(#a)"><path fill="#C3D0FF" d="M0 0h302v155H0z"/><path fill="#2E4DBB" d="M32.005 102.3c-.002.403.264.808.795 1.115l122.437 70.688q.096.054.196.103.035.016.068.03l.136.057q.14.054.288.098.045.014.092.025.084.022.168.042.056.013.112.022l.145.025.12.017.137.016.124.011q.07.005.139.007.06.003.123.003h.149l.117-.003.185-.012.095-.008q.157-.016.308-.044l.103-.02q.076-.014.148-.031l.108-.028q.07-.018.138-.039.04-.013.079-.028.108-.037.209-.079l.078-.033q.132-.058.252-.128l79.547-46.227c.037-.022.068-.044.102-.067q.05-.031.095-.064.04-.03.077-.061.043-.033.081-.067l.043-.042a1.5 1.5 0 0 0 .223-.271l.036-.06a1 1 0 0 0 .039-.085q.015-.032.028-.065.012-.04.023-.081l.017-.068a1 1 0 0 0 .009-.088c.002-.026.007-.051.007-.077l-.005 1.468v.023c0 .019-.005.036-.006.054q-.003.044-.01.088l-.001.015q-.006.028-.016.053l-.023.081-.005.017-.021.048q-.019.043-.039.085l-.01.021q-.013.021-.026.039a1 1 0 0 1-.064.094q-.01.013-.019.028-.012.013-.025.026a1 1 0 0 1-.115.123q-.013.015-.028.03l-.015.012q-.038.035-.081.067-.037.03-.077.061-.044.032-.095.064-.034.024-.07.046l-.032.019-79.547 46.228a2.5 2.5 0 0 1-.33.16 4 4 0 0 1-.209.08l-.048.018-.031.01q-.068.02-.139.039-.052.015-.107.028-.073.017-.148.031l-.087.018q-.008.002-.017.002a5 5 0 0 1-.33.047q-.037.003-.073.004-.093.008-.186.013-.02.001-.043.003h-.277q-.035-.002-.069-.003l-.138-.008-.061-.003-.062-.008q-.07-.007-.137-.015-.033-.005-.066-.008l-.056-.01-.145-.024-.068-.013-.044-.011a2 2 0 0 1-.168-.042l-.07-.017-.022-.008a3 3 0 0 1-.303-.103q-.061-.024-.12-.052-.036-.014-.069-.03-.102-.048-.196-.103L32.796 104.881c-.531-.306-.796-.711-.796-1.114z"/><path fill="#96ADFF" d="M238.588 125.664c1.054.608 1.059 1.603.013 2.212l-79.547 46.228c-1.046.608-2.765.608-3.819 0L32.798 103.415c-1.054-.608-1.06-1.605-.014-2.212l79.547-46.228c1.046-.608 2.765-.608 3.82.002z"/><path fill="#C3D0FF" d="M115.494 116.421c.413.238.414.625.004.864-.41.238-1.077.238-1.491 0-.411-.239-.414-.626-.004-.863.41-.24 1.077-.24 1.491-.001M91.32 121.129c.411.238.414.625.004.862-.41.239-1.077.239-1.49 0s-.414-.625-.005-.862c.41-.239 1.077-.239 1.49 0M81.249 126.981c.412.239.415.625.004.862-.41.239-1.077.239-1.49 0-.412-.238-.414-.625-.005-.862.41-.239 1.077-.239 1.49 0M83.262 125.811c.412.238.415.625.004.862-.41.239-1.077.239-1.49 0s-.415-.625-.005-.864c.41-.237 1.079-.237 1.49.002M81.247 124.647c.413.238.415.625.006.862-.41.239-1.077.239-1.49 0s-.416-.625-.005-.862c.409-.239 1.076-.239 1.489 0M192.061 123.294c.413.239.415.625.006.863-.41.238-1.077.238-1.491 0-.412-.239-.415-.626-.004-.863.409-.237 1.076-.237 1.489 0M186.018 126.806c.413.239.415.625.004.864-.41.239-1.077.239-1.49 0-.412-.239-.415-.625-.005-.863.412-.24 1.079-.24 1.491-.001M177.971 143.158c.413.239.415.625.006.863-.41.238-1.077.238-1.491 0-.412-.239-.414-.626-.004-.863.409-.239 1.076-.239 1.489 0M151.782 149.039c.412.239.415.625.005.862-.411.239-1.078.239-1.49 0-.411-.238-.414-.625-.004-.862s1.077-.237 1.489 0M153.797 147.866c.412.239.415.625.004.863-.41.238-1.077.238-1.49 0-.412-.239-.415-.626-.005-.863.41-.239 1.077-.239 1.491 0M125.527 73.217c.414.238.415.625.005.863-.411.24-1.078.24-1.491 0-.412-.238-.415-.625-.004-.862.41-.24 1.077-.24 1.49-.002M107.41 81.421c.413.239.414.625.004.864s-1.077.239-1.491 0l-.006-.003-.004-.003c-.413-.239-.415-.625-.006-.862.41-.24 1.077-.24 1.491 0l.004.002zM99.344 88.432c.413.239.415.625.005.864s-1.078.239-1.491 0c-.412-.239-.415-.625-.005-.862.412-.24 1.08-.24 1.491-.002M123.53 83.729c.414.238.415.625.006.862-.41.239-1.077.239-1.49 0l-.005-.003-.006-.003c-.413-.239-.415-.625-.004-.864.41-.239 1.077-.239 1.49 0l.005.003zM157.819 136.191c.412.238.415.625.004.862-.41.239-1.077.239-1.489 0s-.415-.625-.006-.862c.411-.239 1.078-.239 1.491 0M159.835 139.688c.412.238.415.625.004.862-.41.239-1.077.239-1.49 0s-.415-.625-.005-.864c.411-.236 1.078-.236 1.491.002M155.806 139.694c.413.239.414.626.004.864-.41.239-1.077.239-1.491 0-.411-.238-.414-.625-.004-.862.41-.24 1.079-.24 1.491-.002M143.721 146.716c.413.239.415.625.005.864-.411.239-1.078.239-1.491 0-.412-.239-.415-.625-.005-.862.412-.241 1.079-.241 1.491-.002M105.133 68.846c.412.24.415.626.004.863-.329.192-.828.23-1.225.112a1.2 1.2 0 0 1-.265-.112.8.8 0 0 1-.194-.154c-.205-.23-.142-.518.188-.71.412-.237 1.08-.237 1.492.001M147.752 149.043c.414.239.415.626.005.864-.411.239-1.078.239-1.491 0-.412-.238-.415-.625-.004-.862.412-.239 1.079-.239 1.49-.002M201.487 137.511c.412.238.415.625.005.862-.411.237-1.078.239-1.49 0-.332-.192-.398-.48-.197-.71a.7.7 0 0 1 .193-.154q.12-.069.264-.112c.394-.116.892-.079 1.225.114M119.48 69.723c.413.239.415.626.004.864-.41.239-1.077.239-1.49 0-.412-.239-.415-.625-.005-.862.411-.239 1.078-.239 1.491-.002M121.495 70.888c.411.239.414.625.004.862-.41.24-1.077.24-1.489 0-.413-.238-.415-.625-.005-.862.411-.239 1.078-.239 1.49 0M117.465 70.894c.414.239.415.625.005.864-.411.239-1.078.239-1.491 0-.412-.239-.415-.625-.004-.863s1.078-.238 1.49-.001M123.511 72.052c.412.238.415.625.004.862-.41.239-1.077.239-1.489 0s-.415-.625-.006-.862c.411-.24 1.078-.24 1.491 0M119.481 72.057c.412.239.415.625.005.863s-1.077.238-1.489 0c-.414-.24-.415-.626-.005-.863.411-.237 1.076-.239 1.489 0M115.452 72.065c.413.239.415.625.006.862-.41.239-1.077.239-1.491 0-.412-.239-.415-.625-.004-.862.409-.239 1.076-.239 1.489 0M111.422 72.07c.412.24.415.626.005.863-.41.239-1.077.239-1.489 0-.414-.239-.415-.625-.006-.862.41-.24 1.077-.24 1.49 0M121.498 73.222c.412.239.415.625.004.863-.41.239-1.077.239-1.489 0s-.415-.625-.006-.863c.41-.238 1.077-.238 1.491 0M117.467 73.23c.412.238.415.625.004.862-.41.239-1.077.239-1.49 0s-.415-.625-.005-.862c.412-.24 1.077-.24 1.491 0M113.437 73.235c.413.239.415.625.004.864-.41.239-1.077.239-1.49 0-.412-.239-.415-.625-.005-.862.412-.24 1.079-.24 1.491-.002M109.407 73.242c.412.24.415.626.005.863-.411.239-1.078.239-1.489 0-.414-.239-.415-.625-.006-.863.41-.238 1.077-.238 1.49 0M127.542 74.379c.412.239.415.625.005.862-.411.24-1.078.24-1.49 0-.413-.238-.414-.625-.006-.862.411-.237 1.078-.237 1.491 0M123.513 74.386c.413.238.414.625.004.864-.41.238-1.077.238-1.491 0-.411-.24-.414-.626-.004-.863.412-.24 1.079-.24 1.491-.001M119.483 74.391c.412.239.415.625.004.863-.41.238-1.077.238-1.49 0-.414-.24-.415-.626-.005-.864.411-.236 1.078-.236 1.491.001M115.454 74.4c.411.238.414.624.004.862s-1.077.238-1.489 0c-.413-.24-.415-.626-.005-.863.411-.239 1.076-.239 1.49 0M111.424 74.405c.413.239.415.625.006.862-.411.24-1.078.24-1.491 0-.412-.238-.415-.625-.004-.862.408-.237 1.075-.237 1.489 0M125.528 75.55c.412.238.415.625.005.862-.41.239-1.077.239-1.489 0-.414-.239-.415-.625-.006-.863.41-.238 1.077-.238 1.49 0M121.497 75.555c.414.24.415.626.006.863-.41.239-1.077.239-1.49 0-.412-.239-.415-.625-.005-.863.411-.238 1.078-.238 1.489 0M117.469 75.563c.412.238.415.625.005.862-.41.239-1.077.239-1.489 0-.414-.239-.415-.625-.006-.862.41-.24 1.077-.24 1.49 0M113.438 75.57c.412.238.415.624.005.862s-1.077.238-1.489 0c-.414-.24-.415-.626-.005-.863.411-.237 1.076-.239 1.489 0M109.409 75.574c.413.24.415.626.006.863-.41.239-1.077.239-1.491 0-.412-.239-.414-.625-.004-.863.41-.237 1.077-.237 1.489 0M127.543 76.713c.414.239.415.625.005.864-.411.239-1.078.239-1.491 0-.412-.239-.415-.625-.004-.862.412-.24 1.079-.24 1.49-.002M123.514 76.72c.411.238.414.624.004.862-.41.239-1.077.239-1.491 0-.413-.239-.414-.625-.004-.864.41-.237 1.077-.237 1.491.001M119.485 76.726c.413.239.415.625.004.864-.41.239-1.077.239-1.49 0-.412-.239-.415-.625-.005-.862.412-.24 1.079-.24 1.491-.002M115.455 76.733c.412.24.415.626.004.863-.41.239-1.077.239-1.489 0s-.415-.625-.006-.863c.41-.238 1.077-.238 1.491 0M111.425 76.74c.412.239.415.625.005.862-.411.239-1.078.239-1.491 0s-.415-.625-.004-.862c.41-.237 1.077-.239 1.49 0M129.559 77.877c.412.239.415.625.005.862-.41.24-1.077.24-1.489 0-.412-.238-.415-.625-.005-.862.409-.239 1.078-.239 1.489 0M125.53 77.884c.413.239.415.625.006.862-.41.24-1.077.24-1.491 0-.411-.238-.414-.625-.004-.862.409-.239 1.076-.239 1.489 0M121.501 77.89c.411.239.414.625.004.862-.41.24-1.077.24-1.489 0-.413-.238-.415-.625-.006-.862.41-.239 1.077-.239 1.491 0M117.482 77.903c.411.239.414.625.004.862-.41.24-1.077.24-1.489 0l-.006-.002-.006-.004c-.412-.238-.415-.625-.005-.862.411-.239 1.078-.239 1.49 0l.006.003zM113.441 77.903c.412.239.415.625.005.862-.41.24-1.077.24-1.491 0-.413-.238-.415-.625-.004-.863.41-.238 1.077-.238 1.49.001M109.649 78.566a.7.7 0 0 1-.234.207c-.41.239-1.077.239-1.489 0s-.415-.625-.005-.862c.105-.062.227-.106.357-.136zM127.545 79.046c.412.24.415.626.004.863-.41.239-1.077.239-1.49 0-.412-.239-.415-.625-.005-.863.412-.237 1.079-.237 1.491 0M123.516 79.054c.413.24.414.626.004.864-.41.239-1.077.239-1.491 0-.412-.239-.415-.625-.004-.862.412-.24 1.079-.24 1.491-.002M119.496 79.066c.414.238.415.625.006.862-.41.239-1.077.239-1.49 0l-.005-.003-.006-.003c-.413-.239-.415-.625-.006-.862.411-.24 1.078-.24 1.491 0l.006.002zM115.467 79.073c.412.238.415.625.004.862-.41.239-1.077.239-1.49 0l-.005-.003-.006-.003c-.412-.239-.415-.625-.004-.862.41-.24 1.077-.24 1.489 0l.006.003zM111.665 79.73a.7.7 0 0 1-.234.207c-.41.238-1.077.238-1.489 0-.414-.24-.415-.626-.006-.863.104-.061.227-.106.356-.136zM129.561 80.21c.412.239.415.625.004.863-.41.238-1.077.238-1.49 0-.414-.24-.415-.625-.005-.864.411-.238 1.078-.238 1.491.001M125.532 80.22c.411.238.414.624.004.862-.41.239-1.077.239-1.489 0s-.415-.625-.005-.863c.409-.238 1.078-.238 1.49 0M121.512 80.23c.412.239.415.625.005.862-.411.24-1.078.24-1.489 0l-.006-.002-.006-.004c-.412-.238-.415-.625-.005-.862.411-.239 1.078-.239 1.489 0l.006.003zM117.483 80.237c.413.238.415.625.006.862-.41.239-1.077.239-1.491 0l-.004-.003-.006-.003c-.413-.239-.415-.625-.005-.864.411-.239 1.078-.239 1.491 0l.006.003zM113.691 80.9a.7.7 0 0 1-.235.207c-.41.24-1.077.24-1.489 0l-.006-.002-.006-.004c-.412-.238-.415-.625-.004-.862.104-.061.226-.106.356-.136zM109.424 80.252c.413.238.415.625.006.862-.41.239-1.077.239-1.491 0l-.004-.003-.006-.003c-.414-.239-.415-.625-.005-.864.411-.239 1.078-.239 1.491 0l.005.003zM127.548 81.38c.412.24.415.626.004.863-.41.239-1.077.239-1.489 0s-.415-.625-.006-.862c.411-.238 1.078-.238 1.491 0M123.528 81.395c.412.239.415.625.005.862-.41.239-1.077.239-1.489 0l-.006-.003-.006-.003c-.412-.239-.415-.625-.005-.862.411-.239 1.078-.239 1.489 0l.006.003zM119.498 81.4c.412.239.415.625.005.862-.411.239-1.078.239-1.491 0l-.005-.003-.006-.003c-.411-.238-.414-.625-.004-.862.41-.239 1.077-.239 1.489 0l.006.003zM115.707 82.065a.7.7 0 0 1-.234.207c-.411.239-1.078.239-1.491 0l-.005-.003-.006-.003c-.413-.239-.414-.625-.006-.862.105-.061.227-.106.357-.136zM111.439 81.415c.412.239.415.625.005.863-.411.238-1.078.238-1.491 0l-.005-.003-.006-.003c-.411-.239-.414-.626-.004-.863.41-.239 1.077-.239 1.489 0l.006.003zM129.563 82.544c.413.239.415.626.004.864-.41.239-1.077.239-1.49 0-.412-.239-.415-.625-.005-.862.411-.24 1.079-.24 1.491-.002M125.543 82.558c.414.24.415.626.006.863-.41.239-1.077.239-1.49 0l-.006-.003-.005-.003c-.413-.239-.415-.625-.006-.863.411-.238 1.078-.238 1.491 0l.004.003zM121.514 82.565c.412.238.415.625.005.862-.411.239-1.078.239-1.491 0l-.004-.003-.006-.003c-.412-.239-.415-.625-.005-.862.41-.24 1.077-.24 1.489 0l.006.003zM117.723 83.227a.7.7 0 0 1-.234.208c-.41.239-1.077.239-1.489 0l-.006-.003-.006-.003c-.412-.239-.415-.626-.005-.863.105-.06.227-.106.357-.136zM113.455 82.579c.414.239.415.625.006.862-.41.24-1.077.24-1.491 0l-.004-.003-.006-.003c-.413-.238-.415-.625-.004-.864.41-.238 1.077-.238 1.49 0l.006.003zM109.425 82.584c.412.24.415.626.005.863-.41.239-1.077.239-1.489 0l-.006-.003-.006-.003c-.412-.239-.415-.625-.005-.862.411-.24 1.078-.24 1.491 0l.004.003zM105.386 82.585c.412.238.415.625.004.862-.41.239-1.077.239-1.489 0s-.415-.625-.006-.862c.411-.24 1.078-.24 1.491 0M127.548 83.716c.413.239.415.625.006.863-.411.238-1.078.238-1.491 0-.412-.24-.415-.626-.004-.863.41-.237 1.077-.237 1.489 0M119.738 84.392a.7.7 0 0 1-.234.207c-.41.239-1.077.239-1.489 0l-.006-.003-.006-.003c-.412-.239-.415-.625-.005-.862.105-.061.227-.106.357-.136zM115.47 83.742c.412.239.415.625.004.863-.41.239-1.077.239-1.49 0l-.005-.003-.006-.003c-.412-.239-.415-.626-.004-.863.41-.239 1.077-.239 1.489 0l.006.003zM111.44 83.748c.414.238.415.625.005.864-.411.238-1.078.238-1.491 0l-.004-.003-.006-.003c-.414-.24-.415-.625-.006-.863.41-.239 1.077-.239 1.49 0l.005.003zM107.411 83.755c.412.24.415.626.004.863-.41.239-1.077.239-1.489 0l-.006-.003-.006-.003c-.412-.239-.415-.625-.004-.863.41-.238 1.077-.238 1.489 0l.006.003zM103.371 83.756c.411.238.414.625.004.862-.41.239-1.077.239-1.491 0-.413-.239-.414-.625-.004-.864.41-.237 1.077-.237 1.491.001M99.34 83.763c.413.24.416.626.005.863-.41.239-1.077.239-1.489 0s-.415-.625-.004-.863c.41-.238 1.075-.238 1.489 0M129.564 84.88c.412.239.415.625.005.862-.411.239-1.078.239-1.49 0-.413-.239-.414-.625-.006-.862.411-.239 1.078-.239 1.491 0M125.545 84.893c.412.239.415.625.005.862-.411.239-1.078.239-1.491 0l-.005-.003-.006-.003c-.411-.239-.414-.625-.004-.862.41-.239 1.077-.239 1.489 0l.006.003zM121.754 85.555a.7.7 0 0 1-.234.208c-.41.239-1.077.239-1.491 0l-.006-.003-.004-.003c-.414-.239-.415-.625-.006-.863.104-.06.227-.106.357-.135zM117.486 84.906c.412.239.415.625.004.862-.41.24-1.077.24-1.49 0l-.005-.003-.006-.003c-.412-.238-.415-.625-.004-.862.41-.239 1.077-.239 1.489 0l.006.003zM113.457 84.912c.411.238.414.625.004.862-.41.239-1.077.239-1.489 0l-.006-.003-.006-.003c-.412-.239-.415-.625-.004-.862.41-.239 1.077-.239 1.49 0l.005.003zM109.427 84.92c.413.239.414.625.006.863-.411.238-1.078.238-1.491 0l-.005-.003-.006-.003c-.413-.239-.414-.626-.006-.863.411-.239 1.078-.239 1.491 0l.006.003zM105.387 84.919c.413.239.415.625.006.862-.41.24-1.077.24-1.491 0-.411-.238-.414-.625-.004-.862.409-.239 1.076-.239 1.489 0M101.357 84.926c.412.239.415.625.005.862-.411.24-1.078.24-1.49 0-.413-.238-.415-.625-.006-.862.411-.237 1.078-.237 1.491 0M127.561 86.055c.414.238.415.625.006.862-.41.239-1.077.239-1.491 0l-.004-.003-.006-.003c-.413-.239-.415-.625-.004-.864.41-.239 1.077-.239 1.49 0l.006.003zM123.769 86.72a.7.7 0 0 1-.235.207c-.41.238-1.077.238-1.489 0l-.006-.003-.006-.003c-.412-.24-.415-.626-.004-.863.104-.061.227-.106.356-.136zM119.501 86.069c.413.238.414.625.006.862-.411.239-1.078.239-1.491 0l-.005-.003-.006-.003c-.413-.239-.414-.625-.004-.864s1.077-.239 1.491 0l.004.003zM115.473 86.075c.412.24.415.626.004.863-.41.239-1.077.239-1.489 0l-.006-.003-.006-.003c-.412-.239-.415-.625-.004-.863.41-.238 1.077-.238 1.49 0l.005.003zM111.442 86.083c.411.238.414.625.004.862-.41.239-1.077.239-1.489 0l-.006-.003-.006-.003c-.412-.239-.415-.625-.005-.862.411-.239 1.078-.239 1.49 0l.006.003zM107.412 86.09c.414.239.415.625.006.862-.41.239-1.077.239-1.49 0l-.005-.003-.006-.003c-.413-.239-.415-.625-.004-.864.41-.238 1.077-.238 1.49 0l.006.003zM103.372 86.088c.414.239.415.626.005.864-.41.239-1.077.239-1.491 0-.412-.239-.415-.625-.004-.862.412-.24 1.079-.24 1.49-.002M99.342 86.098c.412.239.415.625.005.862-.41.24-1.078.24-1.491 0-.413-.238-.415-.625-.004-.863.41-.238 1.077-.238 1.49.001M141.666 87.2c.412.239.415.625.004.862-.41.239-1.077.239-1.49 0s-.415-.625-.005-.862c.411-.239 1.078-.239 1.491 0M129.566 87.213c.413.239.415.625.006.862-.411.24-1.078.24-1.491 0-.412-.238-.415-.625-.004-.862.408-.239 1.077-.239 1.489 0M125.785 87.884a.7.7 0 0 1-.234.207c-.411.239-1.078.239-1.491 0l-.004-.003-.006-.003c-.414-.238-.415-.625-.006-.862.104-.061.226-.106.356-.136zM121.517 87.232c.412.239.415.625.005.863-.411.238-1.078.238-1.491 0l-.005-.003-.005-.003c-.412-.24-.415-.626-.005-.863.41-.239 1.077-.239 1.489 0l.006.003zM117.487 87.24c.414.239.415.625.005.864-.411.239-1.078.239-1.491 0l-.006-.003-.004-.003c-.414-.239-.415-.625-.006-.863.41-.238 1.077-.238 1.49 0l.005.003zM113.458 87.245c.412.239.415.625.005.862-.411.24-1.078.24-1.49 0l-.006-.003-.006-.003c-.411-.238-.414-.625-.004-.862.41-.239 1.077-.239 1.489 0l.006.003zM109.428 87.253c.412.24.415.626.005.863-.411.239-1.078.239-1.491 0l-.004-.003-.006-.003c-.412-.239-.415-.625-.005-.863.411-.238 1.078-.238 1.489 0l.006.003zM105.388 87.253c.412.239.415.626.005.863-.411.239-1.078.239-1.489 0-.414-.239-.415-.626-.006-.863.41-.239 1.077-.239 1.49 0M101.357 87.26c.414.238.415.624.006.861-.41.24-1.077.24-1.49 0-.412-.238-.415-.625-.005-.862s1.077-.237 1.489 0M143.681 88.362c.413.24.415.626.006.863-.41.239-1.077.239-1.491 0-.412-.239-.415-.625-.004-.863.409-.237 1.076-.237 1.489 0M139.651 88.37c.412.238.415.625.005.862-.411.239-1.078.239-1.489 0-.414-.239-.415-.625-.005-.863s1.076-.238 1.489 0M131.592 88.384c.412.239.415.625.005.862-.411.24-1.078.24-1.491 0-.413-.238-.415-.625-.004-.864.41-.237 1.077-.237 1.49.002M127.802 89.048a.7.7 0 0 1-.234.207c-.411.239-1.078.239-1.491 0l-.006-.003-.006-.003c-.412-.239-.415-.625-.005-.862.105-.062.227-.106.357-.136zM123.532 88.396c.413.239.415.625.006.862-.41.239-1.077.239-1.491 0l-.004-.003-.006-.003c-.414-.238-.415-.625-.005-.864.411-.238 1.078-.238 1.491 0l.006.003zM119.504 88.403c.411.238.414.625.004.862-.41.239-1.077.239-1.489 0l-.006-.003-.006-.003c-.412-.239-.415-.625-.005-.862.411-.239 1.078-.239 1.491 0l.005.003zM115.472 88.41c.414.238.415.625.006.862-.41.239-1.077.239-1.49 0l-.006-.003-.005-.003c-.413-.239-.414-.625-.006-.862.411-.239 1.078-.239 1.491 0l.005.003zM111.444 88.417c.412.239.415.625.005.863s-1.077.238-1.491 0l-.004-.003-.006-.003c-.412-.24-.415-.626-.005-.863.411-.239 1.078-.239 1.49 0l.005.003zM107.415 88.423c.412.239.415.625.005.862-.411.24-1.078.24-1.49 0l-.006-.003-.006-.002c-.411-.24-.414-.626-.004-.863.41-.239 1.077-.239 1.491 0l.004.003zM103.374 88.423c.411.239.414.625.004.862-.41.24-1.077.24-1.491 0-.413-.238-.415-.625-.004-.864.41-.237 1.077-.237 1.491.002M141.668 89.533c.413.239.415.625.004.864-.41.239-1.077.239-1.49 0-.412-.239-.415-.625-.005-.862.411-.24 1.078-.24 1.491-.002M137.95 89.974c0-.337-.47-.612-1.052-.613s-1.054.27-1.055.607.469.611 1.051.613 1.055-.27 1.056-.607M133.607 89.547c.414.239.415.625.006.863-.41.238-1.077.238-1.49 0-.412-.24-.415-.626-.005-.863.41-.239 1.077-.239 1.489 0M125.548 89.56c.414.24.415.626.006.863-.41.239-1.077.239-1.491 0-.411-.239-.414-.625-.004-.862.41-.24 1.077-.24 1.489 0M121.519 89.566c.413.239.415.625.004.864-.41.239-1.077.239-1.49 0-.412-.239-.415-.625-.005-.862.412-.24 1.079-.24 1.491-.002M117.489 89.574c.412.24.415.626.004.863-.41.239-1.077.239-1.489 0s-.415-.625-.004-.863c.41-.238 1.075-.238 1.489 0M113.459 89.58c.414.238.415.625.006.862-.41.239-1.077.239-1.49 0-.412-.239-.415-.625-.005-.862.411-.238 1.078-.238 1.489 0M109.43 89.587c.412.238.415.625.004.862-.41.239-1.077.239-1.489 0s-.415-.625-.006-.862c.41-.24 1.079-.24 1.491 0M105.4 89.593c.412.24.415.626.005.863-.411.239-1.078.239-1.491 0-.412-.239-.415-.625-.004-.863.41-.237 1.078-.237 1.49 0M143.683 90.697c.413.239.414.625.004.864-.41.238-1.077.238-1.491 0-.412-.239-.415-.626-.004-.863.412-.238 1.079-.238 1.491-.001M139.653 90.703c.413.239.415.625.006.862-.411.24-1.078.24-1.491 0-.412-.238-.415-.625-.004-.862.408-.239 1.075-.239 1.489 0M135.623 90.711c.412.239.415.625.005.862-.411.24-1.078.24-1.491 0-.414-.238-.415-.625-.005-.862.412-.239 1.078-.239 1.491 0M131.832 91.374a.7.7 0 0 1-.234.207c-.41.239-1.077.239-1.491 0-.411-.239-.414-.625-.004-.862a1.3 1.3 0 0 1 .357-.136zM127.564 90.724c.412.239.415.626.005.863-.41.239-1.077.239-1.491 0-.413-.239-.415-.625-.004-.864.41-.237 1.077-.237 1.49.001M123.535 90.73c.413.239.415.625.005.864-.411.239-1.078.239-1.491 0-.412-.239-.415-.625-.005-.863.411-.24 1.079-.24 1.491-.001M119.504 90.736c.413.239.415.625.006.862-.411.24-1.078.24-1.491 0-.412-.238-.415-.625-.004-.862.41-.237 1.077-.237 1.489 0M115.476 90.744c.412.239.415.625.005.862-.411.24-1.078.24-1.491 0-.413-.238-.415-.625-.005-.862.411-.239 1.078-.239 1.491 0M111.446 90.75c.414.239.415.625.005.864-.411.239-1.078.239-1.491 0-.412-.239-.415-.625-.004-.863.41-.238 1.077-.238 1.49-.001M107.417 90.758c.412.24.415.626.004.863-.41.239-1.077.239-1.49 0s-.415-.625-.005-.864c.411-.237 1.078-.237 1.491.001M103.387 90.764c.412.239.415.625.005.862-.411.24-1.078.24-1.49 0-.411-.238-.414-.625-.004-.862.409-.237 1.076-.237 1.489 0M145.698 91.86c.412.24.415.626.005.863-.41.239-1.078.239-1.489 0-.414-.239-.415-.625-.006-.863.41-.238 1.077-.238 1.49 0M141.668 91.867c.413.239.415.625.006.862-.411.24-1.078.24-1.491 0-.412-.238-.415-.625-.004-.862.41-.237 1.077-.239 1.489 0M137.638 91.875c.413.238.415.625.006.862-.41.239-1.077.239-1.491 0-.412-.239-.414-.625-.004-.862.41-.238 1.077-.238 1.489 0M133.848 92.539a.7.7 0 0 1-.235.207c-.41.239-1.077.239-1.489 0s-.415-.625-.004-.862a1.3 1.3 0 0 1 .356-.136zM129.579 91.888c.413.238.415.625.006.862-.41.239-1.077.239-1.491 0-.412-.239-.415-.625-.004-.862.41-.238 1.077-.238 1.489 0M125.551 91.895c.412.238.415.625.004.862-.41.239-1.077.239-1.489 0s-.415-.625-.006-.862c.411-.24 1.078-.24 1.491 0M121.52 91.9c.413.24.415.626.006.863-.41.239-1.077.239-1.491 0-.412-.239-.415-.625-.004-.863.41-.237 1.077-.237 1.489 0M117.491 91.909c.413.238.414.625.006.862-.411.239-1.078.239-1.491 0-.412-.239-.415-.625-.005-.862.411-.239 1.078-.239 1.49 0M113.461 91.914c.412.24.415.626.005.863-.41.239-1.078.239-1.489 0-.414-.239-.415-.625-.005-.863.411-.237 1.078-.238 1.489 0M109.432 91.922c.413.239.414.625.006.862-.411.24-1.078.24-1.491 0-.412-.238-.415-.625-.005-.862.409-.239 1.078-.239 1.49 0M105.402 91.928c.412.239.415.625.004.862-.41.239-1.077.239-1.489 0s-.415-.625-.006-.862c.411-.239 1.078-.239 1.491 0M101.372 91.934c.412.238.415.625.005.862-.41.239-1.077.239-1.49 0-.411-.239-.414-.625-.004-.862.411-.238 1.078-.238 1.489 0M143.684 93.032c.412.239.415.625.005.863-.411.238-1.078.238-1.49 0-.413-.24-.414-.626-.005-.863.41-.239 1.077-.239 1.49 0M139.655 93.038c.413.24.414.626.006.863-.411.239-1.078.239-1.491 0-.412-.239-.415-.625-.005-.863.411-.238 1.078-.238 1.49 0M135.864 93.7a.7.7 0 0 1-.235.208c-.41.239-1.077.239-1.49 0-.412-.239-.415-.625-.005-.862.105-.062.227-.106.357-.136zM131.595 93.052c.412.239.415.625.005.863-.411.238-1.078.238-1.491 0-.413-.239-.415-.626-.004-.863.411-.239 1.077-.239 1.49 0M127.566 93.057c.413.239.415.625.004.864-.41.239-1.077.239-1.49 0-.412-.239-.415-.625-.005-.862.41-.24 1.079-.24 1.491-.002M123.536 93.064c.412.239.415.626.005.863-.411.238-1.078.238-1.489 0-.414-.239-.415-.626-.006-.863.41-.238 1.077-.238 1.49 0M119.507 93.071c.413.239.415.626.006.863-.411.239-1.078.239-1.491 0-.412-.239-.415-.626-.004-.863.408-.237 1.075-.237 1.489 0M115.477 93.078c.413.239.415.625.004.864-.41.239-1.077.239-1.49 0-.412-.239-.415-.625-.005-.862.411-.24 1.078-.24 1.491-.002M111.447 93.084c.412.24.415.626.005.863-.411.239-1.078.239-1.491 0s-.415-.625-.004-.863c.41-.237 1.077-.237 1.49 0M107.418 93.091c.414.239.415.626.005.864-.41.239-1.078.239-1.491 0-.412-.239-.415-.625-.004-.862.41-.24 1.077-.24 1.49-.002M103.389 93.099c.412.238.415.625.004.862-.41.239-1.077.239-1.489 0s-.415-.625-.006-.862c.41-.24 1.077-.24 1.491 0M145.701 94.195c.413.238.414.625.006.862-.411.239-1.078.239-1.491 0-.412-.239-.415-.625-.005-.862.409-.238 1.076-.238 1.49 0M141.671 94.203c.412.239.415.626.004.863-.41.239-1.077.239-1.49 0s-.415-.626-.005-.864c.411-.237 1.078-.237 1.491.001M137.88 94.865a.7.7 0 0 1-.234.208c-.41.239-1.077.239-1.491 0-.412-.239-.415-.625-.004-.863.104-.06.227-.106.356-.135zM129.582 94.221c.412.239.415.625.005.863-.41.239-1.077.239-1.489 0-.414-.239-.415-.626-.005-.863.409-.237 1.076-.239 1.489 0M125.551 94.228c.413.239.415.625.006.862-.41.24-1.077.24-1.491 0-.411-.238-.414-.625-.004-.862.41-.239 1.077-.239 1.489 0M121.523 94.235c.412.239.415.625.004.863-.41.239-1.077.239-1.49 0s-.415-.626-.005-.864c.411-.237 1.078-.237 1.491.001"/><path fill="#1A2C6B" d="M103.455 69.555a.8.8 0 0 0 .194.153q.122.07.266.112l-4.236 2.461 39.575 22.848-.13.076-.326.19-.274-.159-.642-.371-1.373-.793-.643-.371-1.373-.793-.643-.371-1.372-.793-.643-.372-1.373-.792-2.658-1.534-1.384-.799-.632-.365-1.384-.799-.633-.365-1.383-.799-.633-.365-1.383-.799-.633-.366-1.384-.798-.633-.366-1.383-.798-.633-.366-1.383-.798-.633-.366-1.384-.798-.643-.372-1.373-.792-.643-.372-1.372-.793-9.514-5.492z"/><path fill="#C3D0FF" d="M117.494 94.242c.413.239.414.625.004.864s-1.077.239-1.491 0c-.412-.239-.414-.625-.004-.863.41-.24 1.077-.24 1.491-.001M113.462 94.248c.414.238.415.625.006.862-.41.239-1.077.239-1.49 0-.412-.239-.415-.625-.005-.862.41-.238 1.077-.24 1.489 0M105.403 94.26c.414.24.415.626.005.865-.411.239-1.078.239-1.491 0-.412-.239-.415-.626-.004-.863.411-.24 1.078-.24 1.49-.001M101.374 94.27c.412.238.415.625.004.862-.41.239-1.077.239-1.49 0s-.415-.625-.005-.864c.411-.237 1.078-.237 1.491.002M143.685 95.364c.414.239.415.626.006.863-.41.239-1.077.239-1.49 0-.412-.239-.415-.626-.005-.863.411-.237 1.078-.237 1.489 0M139.658 95.371c.412.239.415.626.004.863-.41.239-1.077.239-1.489 0s-.415-.625-.006-.863c.105-.06.227-.106.357-.135l.274.158.326-.19c.195.024.382.08.534.167M135.626 95.38c.414.24.415.626.006.863-.41.239-1.077.239-1.49 0-.412-.239-.415-.625-.005-.862.411-.24 1.078-.24 1.489 0M131.597 95.385c.413.239.414.625.004.864s-1.077.239-1.491 0c-.411-.239-.414-.625-.004-.862.412-.24 1.079-.24 1.491-.002M127.88 95.825c.001-.337-.47-.612-1.052-.613s-1.054.27-1.055.607.47.612 1.051.613c.582.002 1.055-.27 1.056-.607M123.538 95.4c.413.238.415.625.006.862-.41.239-1.077.239-1.491 0-.412-.239-.415-.625-.004-.862.409-.239 1.076-.239 1.489 0M119.508 95.406c.412.238.415.625.005.862-.41.239-1.077.239-1.489 0-.414-.239-.415-.625-.006-.862.41-.238 1.077-.238 1.49 0M115.478 95.413c.414.238.415.625.006.862-.41.239-1.077.239-1.49 0-.412-.239-.415-.625-.005-.862.409-.24 1.076-.24 1.489 0M103.39 95.432c.413.238.415.625.006.862-.41.239-1.077.239-1.491 0-.412-.239-.415-.625-.004-.862.409-.238 1.076-.238 1.489 0M145.702 96.528c.411.239.414.625.004.862-.41.24-1.077.24-1.491 0-.413-.238-.414-.625-.004-.864.41-.237 1.077-.237 1.491.002M141.672 96.536c.414.239.415.625.005.864-.411.239-1.078.239-1.491 0-.412-.239-.415-.625-.004-.862.41-.24 1.077-.24 1.49-.002M137.643 96.542c.411.24.414.626.004.863-.41.239-1.077.239-1.491 0-.413-.239-.414-.625-.004-.864.41-.236 1.077-.236 1.491.001M133.613 96.55c.414.239.415.625.005.864-.411.239-1.078.239-1.491 0-.412-.239-.415-.625-.004-.862.41-.24 1.077-.24 1.49-.002M125.554 96.564c.412.238.415.625.005.862-.411.239-1.078.239-1.491 0s-.415-.625-.005-.862c.411-.24 1.078-.24 1.491 0M121.524 96.57c.414.238.415.624.005.863-.411.239-1.078.239-1.491 0-.412-.239-.415-.625-.004-.862.41-.24 1.077-.24 1.49-.002M117.495 96.576c.412.24.415.626.005.863-.411.239-1.078.239-1.491 0s-.415-.625-.005-.864c.411-.237 1.078-.237 1.491.001M105.405 96.596c.412.239.415.625.004.862-.41.24-1.077.24-1.49 0-.414-.238-.415-.625-.005-.862.412-.237 1.077-.239 1.491 0M141.892 98.119c.004-.152.106-.303.305-.418.2-.116.46-.176.723-.179zM139.658 97.706c.413.239.414.625.006.862-.411.239-1.078.239-1.491 0-.412-.239-.415-.625-.005-.862.411-.239 1.078-.239 1.49 0M135.629 97.714c.412.239.415.625.005.862-.411.24-1.078.24-1.49 0-.413-.238-.415-.625-.006-.862.411-.239 1.078-.239 1.491 0M139.877 99.289c.004-.153.106-.303.306-.42s.459-.174.722-.179zM141.674 98.87c.412.239.414.625.004.862-.41.24-1.077.24-1.491 0q-.04-.024-.076-.049l1.478-.858a1 1 0 0 1 .085.045M137.644 98.876c.413.24.415.625.004.864-.41.239-1.077.239-1.49 0-.412-.239-.415-.625-.005-.862.411-.24 1.078-.24 1.491-.002M143.69 100.034c.412.239.415.626.004.863-.41.239-1.077.239-1.49 0s-.415-.625-.005-.864c.411-.237 1.078-.237 1.491.001M115.482 100.08c.413.239.415.625.004.864-.41.239-1.077.239-1.49 0-.412-.239-.415-.625-.005-.862.412-.24 1.079-.24 1.491-.002M107.423 100.094c.413.239.415.625.004.864-.41.239-1.077.239-1.49 0-.412-.239-.415-.625-.005-.862.412-.24 1.079-.24 1.491-.002M109.439 101.259c.412.239.415.625.005.863-.411.238-1.078.238-1.49 0-.413-.239-.414-.626-.006-.863.411-.239 1.078-.239 1.491 0M115.483 102.415c.412.238.415.625.005.862-.41.239-1.078.239-1.491 0s-.415-.625-.004-.862c.412-.239 1.077-.239 1.49 0M107.424 102.429c.412.238.415.625.004.862-.41.239-1.077.239-1.489 0s-.415-.625-.006-.862c.411-.239 1.078-.239 1.491 0M117.498 103.578c.413.239.415.626.006.863-.41.239-1.077.239-1.491 0-.412-.239-.415-.625-.004-.863.41-.238 1.077-.238 1.489 0M107.426 104.763c.248.143.348.34.3.527l-1.209-.697c.321-.03.661.027.909.17M92.225 104.374a.8.8 0 0 1 .194.154c.205.229.142.517-.19.71-.41.239-1.077.239-1.489 0s-.414-.625-.005-.863c.33-.192.828-.229 1.225-.112q.144.041.265.111M111.455 104.755c.412.239.415.625.005.862-.411.239-1.078.239-1.49 0-.413-.238-.414-.625-.005-.862.41-.237 1.077-.237 1.49 0M105.919 104.772l1.495.863c-.412.228-1.066.224-1.473-.011-.407-.234-.415-.613-.022-.852M109.442 105.927c.248.143.348.34.298.525l-1.208-.697c.321-.03.661.027.91.172M70.567 105.437c.333.192.399.48.197.71a.7.7 0 0 1-.192.154q-.12.069-.264.112c-.396.118-.894.08-1.227-.112-.412-.239-.415-.625-.004-.863.411-.24 1.078-.24 1.49-.001M113.47 105.92c.413.239.415.625.006.862-.41.239-1.077.239-1.491 0-.411-.238-.414-.625-.004-.862.41-.239 1.077-.239 1.489 0M107.933 105.937l1.495.862c-.412.229-1.065.224-1.471-.01s-.416-.613-.024-.852M105.413 105.933c.413.239.414.626.004.864-.41.239-1.077.239-1.491 0-.412-.238-.415-.625-.004-.862.41-.24 1.077-.24 1.491-.002M111.457 107.09c.247.143.347.34.3.527l-1.209-.697c.321-.03.661.027.909.17M115.799 107.517c.001-.337-.47-.612-1.052-.614-.581-.002-1.054.27-1.055.607-.002.337.469.612 1.051.614s1.054-.27 1.056-.607M109.949 107.1l1.496.863c-.412.228-1.066.224-1.473-.011-.407-.234-.415-.611-.023-.852M107.427 107.098c.412.238.415.625.004.862-.41.239-1.077.239-1.489 0s-.415-.625-.006-.862c.411-.239 1.079-.239 1.491 0M103.397 107.103c.414.239.415.625.006.862-.41.239-1.077.239-1.49 0-.414-.238-.415-.625-.005-.862.409-.237 1.076-.239 1.489 0M113.473 108.252c.247.144.347.341.3.527l-1.209-.698c.319-.028.66.028.909.171M117.501 108.246c.413.239.415.625.006.862-.41.239-1.077.239-1.489 0-.413-.238-.415-.625-.006-.862.41-.237 1.077-.237 1.489 0M111.964 108.264l1.495.864c-.412.228-1.065.224-1.473-.01-.405-.236-.414-.615-.022-.854M109.443 108.259c.414.238.415.625.005.863-.411.239-1.078.239-1.491 0-.412-.238-.415-.625-.004-.862.41-.239 1.077-.239 1.49-.001M105.414 108.267c.411.239.414.625.004.863s-1.077.238-1.491 0c-.413-.239-.414-.626-.004-.864s1.077-.238 1.491.001M101.384 108.272c.414.238.415.625.005.864-.411.238-1.078.238-1.491 0-.413-.239-.415-.626-.004-.863.41-.239 1.077-.239 1.49-.001M115.488 109.418c.249.143.348.34.3.527l-1.209-.697c.321-.031.661.027.909.17M119.517 109.409c.413.239.415.625.006.863-.409.237-1.077.239-1.491 0-.412-.239-.415-.625-.004-.863.41-.237 1.077-.237 1.489 0M113.98 109.429l1.496.862c-.412.229-1.066.224-1.472-.01-.407-.234-.416-.613-.024-.852M111.46 109.422c.413.239.414.625.004.864s-1.077.239-1.491 0c-.413-.239-.414-.625-.006-.862.412-.241 1.079-.241 1.493-.002M107.429 109.432c.413.238.414.625.006.862-.411.239-1.078.239-1.491 0-.412-.239-.415-.625-.005-.862.409-.239 1.078-.239 1.49 0M103.399 109.437c.411.238.414.625.004.862-.41.239-1.077.239-1.489 0s-.415-.625-.006-.862c.41-.239 1.079-.239 1.491 0M117.504 110.58c.248.143.348.34.3.527l-1.209-.697c.321-.03.661.028.909.17M118.752 111.566l-.076.045-.064-.038a2 2 0 0 1 .14-.007M115.997 110.592l1.496.863c-.412.228-1.066.224-1.473-.01s-.415-.614-.023-.853M113.475 110.587c.413.239.415.625.004.864-.41.239-1.077.239-1.489 0s-.415-.625-.006-.863c.41-.24 1.077-.24 1.491-.001M109.445 110.596c.413.238.415.625.006.862-.411.239-1.078.239-1.491 0s-.415-.625-.004-.864c.408-.237 1.075-.237 1.489.002M101.386 110.609c.412.238.415.625.004.862-.41.239-1.077.239-1.489 0s-.415-.625-.006-.862c.411-.239 1.078-.239 1.491 0"/><path fill="#1A2C6B" d="m143.387 97.78-1.261.733-.537.312-1.478.858-20.677 12.015-.757.44-.667-.385-.521-.3-1.495-.862-.521-.302-1.496-.862-.521-.3-1.495-.864-.521-.3-1.495-.863-.521-.301-1.496-.863-.52-.3-1.496-.863-6.983-4.031-6.516 3.787a.8.8 0 0 0-.194-.154 1.2 1.2 0 0 0-.265-.112l6.97-4.052 7.587 4.38 1.209.697.807.466 1.209.697.807.465 1.209.697.807.466 1.209.699.808.465 1.209.697.807.466 1.209.697.807.465 21.267-12.284 1.029-.597.986-.573 1.028-.597z"/><path fill="#C3D0FF" d="M179.967 111.645c.413.239.415.625.004.864-.41.239-1.077.239-1.491 0-.411-.239-.414-.625-.004-.862.41-.241 1.077-.241 1.491-.002M175.935 111.65c.412.239.415.626.005.863-.41.239-1.077.239-1.489 0-.414-.239-.415-.625-.005-.863.411-.237 1.078-.237 1.489 0M171.906 111.66c.413.238.415.625.006.862-.41.239-1.077.239-1.491 0-.411-.239-.414-.625-.004-.862.41-.239 1.077-.239 1.489 0M119.52 111.744c.412.239.415.625.005.863-.411.238-1.078.238-1.491 0-.407-.235-.415-.614-.023-.852l.667.385.757-.441zM115.491 111.751c.413.238.414.625.004.864-.41.238-1.077.238-1.491 0-.411-.239-.414-.626-.004-.863.41-.24 1.077-.24 1.491-.001M111.459 111.757c.414.239.415.625.006.862-.41.239-1.077.239-1.49 0-.414-.238-.415-.625-.005-.864.411-.235 1.078-.235 1.489.002M107.43 111.765c.413.238.415.625.004.864-.41.238-1.077.238-1.49 0-.414-.239-.415-.626-.006-.863.412-.24 1.08-.24 1.492-.001M103.4 111.77c.414.239.415.625.006.862-.41.239-1.077.239-1.49 0-.412-.238-.415-.625-.005-.862.409-.237 1.076-.237 1.489 0M181.979 112.809c.415.24.418.627.008.864-.41.239-1.077.239-1.491 0s-.416-.625-.007-.864c.41-.239 1.077-.239 1.49 0M177.952 112.815c.413.239.414.625.006.863-.411.238-1.078.238-1.491 0-.412-.239-.415-.626-.005-.863.409-.239 1.076-.239 1.49 0M173.922 112.823c.412.239.415.626.004.863-.41.239-1.077.239-1.49 0s-.415-.625-.005-.863c.412-.238 1.078-.238 1.491 0M121.535 112.908c.413.239.414.626.006.863-.411.239-1.078.239-1.491 0-.412-.239-.415-.625-.005-.863.409-.238 1.078-.238 1.49 0M117.506 112.913c.411.239.414.626.004.863-.41.239-1.077.239-1.489 0-.414-.239-.415-.625-.006-.863.41-.237 1.077-.237 1.491 0M113.475 112.92c.414.239.415.626.006.863-.41.239-1.077.239-1.49 0-.412-.239-.415-.625-.005-.863.409-.238 1.076-.238 1.489 0M109.446 112.928c.414.239.415.626.005.864-.41.239-1.077.239-1.489 0-.414-.238-.415-.625-.006-.862.41-.239 1.077-.239 1.49-.002M105.728 113.371c.002-.337-.469-.612-1.051-.614s-1.054.269-1.056.606c-.001.337.47.612 1.052.614.581.002 1.054-.269 1.055-.606M101.388 112.941c.413.238.414.625.006.862-.411.239-1.078.239-1.491 0-.412-.239-.415-.625-.005-.862.409-.238 1.076-.238 1.49 0M183.996 113.971c.412.238.415.625.004.862-.41.239-1.077.239-1.489 0s-.415-.625-.006-.862c.41-.238 1.077-.238 1.491 0M179.965 113.979c.415.24.418.626.007.864-.41.238-1.077.238-1.49 0-.415-.239-.417-.626-.008-.864.409-.239 1.079-.239 1.491 0M175.936 113.985c.414.239.415.625.006.862-.41.239-1.077.239-1.49 0-.412-.239-.415-.625-.005-.862.411-.237 1.078-.237 1.489 0M171.909 113.993c.412.239.415.625.005.862-.411.239-1.078.239-1.49 0-.413-.238-.414-.625-.004-.862.409-.239 1.076-.239 1.489 0M119.522 114.079c.413.239.415.625.004.864-.41.239-1.077.239-1.49 0-.412-.239-.415-.625-.005-.863.411-.24 1.078-.24 1.491-.001M115.492 114.085c.412.239.415.626.005.863-.411.239-1.078.239-1.491 0s-.415-.625-.005-.864c.411-.237 1.078-.237 1.491.001M111.461 114.092c.413.239.415.625.004.864-.41.239-1.077.239-1.49 0-.412-.239-.415-.625-.005-.863.412-.238 1.079-.238 1.491-.001M107.431 114.099c.414.239.415.625.006.863-.41.238-1.077.238-1.489 0-.413-.239-.415-.626-.006-.863.409-.239 1.077-.239 1.489 0M103.402 114.105c.414.239.415.625.006.863-.41.238-1.077.238-1.49 0-.414-.239-.415-.626-.005-.864.409-.238 1.076-.238 1.489.001M186.011 115.135c.413.239.414.625.004.864s-1.077.239-1.491 0c-.411-.239-.414-.625-.004-.862.41-.241 1.079-.241 1.491-.002M181.981 115.142c.411.238.414.625.004.862-.41.239-1.077.239-1.489 0s-.415-.625-.006-.862c.409-.238 1.077-.239 1.491 0M177.951 115.148c.415.24.418.627.008.864-.41.239-1.077.239-1.491 0s-.416-.625-.006-.864c.409-.237 1.076-.237 1.489 0M173.922 115.155c.415.239.416.626.006.864-.411.239-1.078.239-1.491 0-.415-.238-.416-.625-.007-.864.412-.238 1.079-.238 1.492 0M121.537 115.243c.412.238.415.625.004.862-.41.239-1.077.239-1.489 0s-.415-.625-.006-.862c.41-.239 1.077-.239 1.491 0M117.507 115.249c.413.239.415.625.006.862-.411.239-1.078.239-1.491 0-.412-.238-.415-.625-.004-.862.408-.237 1.075-.237 1.489 0M113.478 115.256c.412.239.415.625.004.862-.41.239-1.077.239-1.489 0-.413-.238-.415-.625-.006-.862.41-.239 1.077-.239 1.491 0M109.76 115.697c.001-.338-.47-.612-1.052-.614-.581-.001-1.054.27-1.055.608s.47.611 1.052.613c.582.001 1.054-.27 1.055-.607M105.418 115.269c.414.239.415.625.006.862-.41.239-1.077.239-1.49 0-.412-.238-.415-.625-.005-.862.409-.239 1.076-.239 1.489 0M101.389 115.275c.412.239.415.625.004.862-.41.239-1.077.239-1.489 0-.413-.238-.415-.625-.006-.862.41-.237 1.077-.237 1.491 0M188.027 116.299c.412.238.415.625.004.862-.41.239-1.077.239-1.489 0s-.415-.625-.004-.862c.408-.239 1.075-.239 1.489 0M183.996 116.305c.413.239.415.625.006.862-.41.239-1.077.239-1.491 0-.412-.238-.415-.625-.004-.862.41-.237 1.077-.237 1.489 0M179.968 116.312c.412.239.415.625.004.862-.41.239-1.077.239-1.49 0-.414-.238-.415-.625-.005-.864.41-.237 1.077-.237 1.491.002M175.938 116.318c.415.24.418.626.008.864s-1.077.238-1.491 0c-.415-.239-.416-.626-.007-.864.41-.238 1.077-.238 1.49 0M163.849 116.34c.414.239.415.626.006.863-.41.239-1.077.239-1.49 0-.412-.239-.415-.625-.005-.863.411-.238 1.078-.238 1.489 0M119.523 116.412c.412.239.415.626.005.863-.41.239-1.077.239-1.491 0-.413-.239-.415-.625-.004-.864.41-.237 1.077-.237 1.49.001M111.463 116.426c.411.239.414.626.004.863-.41.239-1.077.239-1.489 0-.414-.239-.415-.625-.006-.863.409-.237 1.079-.237 1.491 0M107.433 116.434c.412.238.415.625.004.862-.41.239-1.077.239-1.49 0-.412-.239-.415-.625-.005-.862.412-.239 1.079-.239 1.491 0M103.404 116.439c.413.239.415.626.004.864-.41.239-1.077.239-1.491 0-.411-.238-.414-.625-.004-.862.412-.24 1.079-.24 1.491-.002M99.374 116.447c.412.239.415.625.005.862-.41.239-1.078.239-1.491 0s-.415-.625-.005-.864c.41-.237 1.078-.237 1.491.002M120.049 117.577c.235-.138.556-.196.864-.175l-1.164.676c-.036-.179.064-.364.3-.501M190.042 117.463c.411.238.414.625.004.862-.41.239-1.077.239-1.489 0s-.415-.625-.006-.862c.41-.239 1.079-.239 1.491 0M186.012 117.47c.412.238.415.625.005.862-.411.239-1.078.239-1.49 0s-.414-.625-.004-.862c.409-.238 1.077-.238 1.489 0M181.983 117.477c.413.238.415.625.006.862-.411.239-1.078.239-1.491 0-.412-.239-.415-.625-.004-.862.408-.239 1.075-.239 1.489 0M177.953 117.482c.412.239.415.626.004.863-.41.239-1.077.239-1.489 0s-.415-.625-.006-.863c.41-.238 1.077-.238 1.491 0M173.924 117.49c.413.238.415.625.006.862-.411.239-1.078.239-1.491 0-.412-.239-.415-.625-.004-.862.408-.239 1.075-.239 1.489 0M166.176 117.936c.001-.337-.47-.612-1.052-.613-.581-.002-1.054.27-1.055.607s.47.612 1.052.613 1.054-.27 1.055-.607M121.538 117.576c.413.239.415.625.006.863-.41.238-1.077.238-1.491 0l-.004-.003 1.485-.863zM117.508 117.582c.412.239.415.625.005.862-.41.239-1.077.239-1.489 0-.414-.238-.415-.625-.006-.862.41-.237 1.077-.237 1.49 0M113.479 117.59c.413.239.415.625.006.863-.409.237-1.078.238-1.491 0-.412-.239-.415-.626-.004-.863.409-.239 1.076-.239 1.489 0M109.449 117.597c.412.239.415.626.005.863-.411.239-1.078.239-1.491 0s-.415-.625-.004-.864c.41-.237 1.077-.237 1.49.001M105.42 117.603c.412.239.415.625.004.863-.41.238-1.077.238-1.489 0-.412-.239-.415-.625-.004-.863.41-.238 1.077-.238 1.489 0M97.361 117.617c.412.239.415.625.004.863-.41.238-1.077.238-1.489 0-.413-.239-.415-.626-.006-.863.41-.239 1.078-.239 1.491 0M118.034 118.748c.235-.138.556-.196.865-.175l-1.164.676c-.037-.178.063-.364.299-.501M188.028 118.633c.412.239.415.625.005.863s-1.077.238-1.489 0c-.414-.239-.415-.626-.006-.863.41-.239 1.077-.239 1.49 0M183.999 118.64c.412.239.415.625.004.863-.41.238-1.077.238-1.49 0-.412-.239-.415-.626-.005-.863.411-.237 1.078-.237 1.491 0M179.969 118.647c.413.239.415.625.005.864-.411.239-1.078.239-1.491 0-.412-.239-.415-.625-.005-.862.411-.241 1.078-.241 1.491-.002M175.94 118.654c.412.238.415.625.004.862-.41.239-1.077.239-1.49 0s-.415-.625-.005-.864c.411-.237 1.078-.237 1.491.002M171.909 118.659c.413.239.414.625.004.864-.378.22-.973.237-1.388.052l-.098-.92c.413-.235 1.073-.233 1.482.004M167.879 118.667c.412.239.415.625.005.863-.411.239-1.078.239-1.49 0-.413-.239-.415-.625-.006-.863.411-.238 1.078-.238 1.491 0M163.85 118.673c.411.239.414.625.004.863s-1.077.238-1.491 0c-.412-.239-.415-.626-.004-.863.412-.239 1.079-.239 1.491 0M123.554 118.741c.412.238.415.625.005.862-.411.239-1.078.239-1.491 0-.412-.239-.415-.625-.005-.862.411-.239 1.078-.239 1.491 0M119.524 118.748c.414.239.415.625.005.864s-1.077.239-1.491 0l-.004-.003 1.484-.863q.004 0 .006.002M115.495 118.754c.412.239.415.625.005.863-.411.237-1.078.238-1.489 0-.414-.239-.415-.626-.006-.863.408-.237 1.077-.239 1.49 0M107.436 118.767c.412.239.415.625.005.862-.411.239-1.078.239-1.49 0-.413-.238-.414-.625-.006-.862.411-.239 1.078-.239 1.491 0M95.348 118.787c.412.239.415.625.004.862-.243.142-.577.199-.895.172l-.894-.516c-.048-.184.05-.378.294-.52.41-.237 1.077-.237 1.49.002M103.405 118.773c.412.239.415.625.005.862-.411.239-1.078.239-1.491 0-.412-.238-.415-.625-.005-.862.412-.237 1.079-.237 1.491 0M99.375 118.781c.414.238.415.625.005.864-.41.238-1.078.238-1.49 0-.413-.239-.416-.626-.005-.863.412-.24 1.079-.24 1.49-.001M91.316 118.793c.414.239.415.625.006.862-.41.239-1.077.239-1.49 0-.412-.238-.415-.625-.005-.862.41-.239 1.077-.239 1.49 0M116.021 119.916c.236-.137.556-.196.864-.175l-1.164.676c-.036-.177.064-.364.3-.501M190.043 119.797c.414.239.415.625.006.862-.41.239-1.077.239-1.49 0-.412-.238-.415-.625-.005-.862.409-.239 1.078-.239 1.489 0M186.014 119.803c.412.239.414.625.004.862-.41.239-1.077.239-1.491 0-.413-.238-.414-.625-.004-.864.41-.237 1.079-.237 1.491.002M181.984 119.81c.412.238.415.625.005.862-.411.239-1.078.239-1.489 0s-.415-.625-.005-.862c.41-.239 1.077-.239 1.489 0M177.954 119.817c.414.239.415.625.006.863-.41.238-1.077.238-1.49 0-.412-.239-.415-.626-.005-.863.409-.237 1.076-.237 1.489 0M173.925 119.823c.412.239.415.625.004.862-.41.239-1.077.239-1.489 0-.413-.238-.415-.625-.006-.862.411-.239 1.078-.239 1.491 0M169.895 119.831l.012.007.064.603.139.079a.7.7 0 0 1-.209.175c-.41.239-1.077.239-1.49 0-.412-.239-.415-.625-.005-.863.409-.238 1.076-.238 1.489-.001M165.866 119.838c.412.239.415.625.004.863-.41.238-1.077.238-1.491 0-.413-.239-.414-.626-.004-.864s1.077-.238 1.491.001M161.836 119.843c.412.239.415.625.005.863-.411.238-1.078.238-1.489 0-.412-.239-.415-.626-.005-.863.409-.239 1.077-.239 1.489 0M157.806 119.851c.413.239.414.625.006.863-.411.238-1.078.238-1.491 0-.412-.239-.415-.626-.005-.863.411-.239 1.078-.239 1.49 0M153.777 119.857c.412.239.415.625.004.862-.41.239-1.077.239-1.489 0-.413-.238-.415-.625-.006-.862.411-.239 1.078-.239 1.491 0M149.748 119.863c.413.239.415.625.004.864-.41.239-1.077.239-1.49 0-.412-.239-.415-.625-.005-.863.411-.238 1.078-.238 1.491-.001M125.569 119.904c.412.239.415.626.004.863-.41.239-1.077.239-1.49 0s-.415-.625-.005-.864c.41-.237 1.079-.237 1.491.001M121.539 119.91c.412.239.415.625.004.863-.41.238-1.077.238-1.489 0-.412-.239-.415-.626-.004-.863.41-.239 1.077-.239 1.489 0M117.51 119.917c.414.238.415.625.006.862-.41.239-1.077.239-1.491 0l-.004-.003 1.485-.862zM113.48 119.924c.412.238.415.625.005.862-.41.239-1.077.239-1.491 0-.413-.239-.415-.625-.004-.864.41-.237 1.077-.237 1.49.002M109.451 119.93c.413.239.414.626.004.864-.41.239-1.077.239-1.491 0-.411-.238-.414-.625-.004-.862.412-.239 1.079-.239 1.491-.002M97.362 119.952c.414.238.415.625.005.864-.243.141-.578.198-.897.171l-.894-.516c-.048-.184.05-.378.294-.519.412-.239 1.08-.239 1.492 0M105.421 119.937c.412.238.415.625.005.862-.411.239-1.078.239-1.491 0s-.415-.625-.004-.864c.41-.237 1.077-.237 1.49.002M101.392 119.943c.412.239.415.626.004.863-.41.239-1.077.239-1.489 0s-.415-.625-.004-.863c.409-.237 1.077-.237 1.489 0M93.333 119.957c.411.238.414.625.004.862-.41.239-1.077.239-1.49 0s-.415-.625-.005-.864c.41-.235 1.077-.236 1.49.002M89.303 119.965c.413.238.415.625.005.864-.41.238-1.078.238-1.491 0-.412-.239-.415-.626-.005-.863.41-.24 1.078-.24 1.491-.001M114.006 121.088c.236-.137.556-.196.864-.175l-1.164.676c-.036-.179.064-.364.3-.501M192.059 120.962c.412.238.415.625.005.862-.411.239-1.078.239-1.49 0-.413-.239-.414-.625-.005-.862.41-.239 1.077-.239 1.49 0M188.03 120.968c.413.238.415.625.006.862-.41.239-1.077.239-1.491 0-.411-.239-.414-.625-.004-.862.409-.239 1.076-.239 1.489 0M184 120.973c.412.239.415.626.005.863-.411.239-1.078.239-1.49 0-.413-.239-.414-.625-.006-.863.411-.237 1.078-.237 1.491 0M179.971 120.981c.411.239.414.626.004.863-.41.239-1.077.239-1.491 0-.411-.239-.414-.625-.004-.863s1.077-.238 1.491 0M175.94 120.986c.413.239.415.626.004.864-.41.239-1.077.239-1.49 0-.412-.238-.415-.625-.005-.862.412-.239 1.079-.239 1.491-.002M163.853 121.008c.412.238.414.625.004.862-.41.239-1.077.239-1.489 0s-.415-.625-.006-.862c.41-.239 1.077-.239 1.491 0M159.822 121.014c.412.239.415.625.004.862-.41.239-1.077.239-1.49 0-.414-.238-.415-.625-.005-.862.412-.237 1.079-.237 1.491 0M155.792 121.02c.413.239.415.626.004.864-.41.239-1.077.239-1.49 0-.412-.238-.415-.625-.005-.862.412-.24 1.079-.24 1.491-.002M151.764 121.026c.412.239.415.626.004.863-.41.239-1.077.239-1.489 0s-.415-.625-.006-.863c.41-.238 1.077-.238 1.491 0M147.733 121.034c.413.239.415.625.006.862-.411.239-1.078.239-1.491 0-.412-.238-.415-.625-.004-.862.408-.239 1.077-.239 1.489 0M123.556 121.075c.412.239.415.625.004.862-.41.239-1.077.239-1.489 0-.413-.238-.415-.625-.006-.862.41-.239 1.077-.239 1.491 0M119.526 121.081c.412.239.415.625.005.863-.411.238-1.078.238-1.489 0-.412-.239-.415-.626-.005-.863s1.076-.237 1.489 0M115.497 121.088c.413.239.415.626.006.863-.41.239-1.077.239-1.491 0l-.004-.003 1.485-.863zM111.467 121.094c.412.239.415.625.004.862-.41.239-1.077.239-1.489 0-.413-.238-.415-.625-.006-.862.411-.239 1.078-.239 1.491 0M99.378 121.115c.412.239.415.625.005.863-.243.141-.578.198-.895.171l-.893-.514c-.048-.184.05-.378.294-.52.409-.239 1.076-.239 1.49 0M107.436 121.101c.413.239.415.625.006.863-.41.238-1.077.238-1.491 0-.412-.239-.415-.625-.004-.863.41-.239 1.077-.239 1.489 0M103.408 121.107c.412.239.415.625.004.863-.41.238-1.077.238-1.489 0-.413-.239-.415-.626-.006-.863.411-.239 1.078-.239 1.491 0M95.347 121.121c.413.239.415.625.006.863-.41.238-1.077.238-1.49 0-.412-.239-.415-.626-.005-.863.41-.239 1.077-.239 1.49 0M87.288 121.134c.413.239.415.625.006.863-.41.238-1.077.238-1.49 0-.413-.239-.416-.624-.005-.863.41-.237 1.077-.237 1.489 0M145.72 122.203c.212.123.315.284.312.444l-1.077-.623c.276-.003.553.057.765.179M111.993 122.26c.235-.138.556-.196.865-.175l-1.164.676c-.037-.179.063-.364.299-.501M190.044 122.131c.412.239.415.626.005.863-.41.239-1.077.239-1.491 0-.413-.239-.415-.625-.004-.864.41-.237 1.079-.237 1.49.001M186.016 122.137c.413.239.414.625.004.864s-1.077.239-1.491 0c-.412-.239-.415-.625-.004-.863.412-.24 1.079-.24 1.491-.001M181.986 122.146c.412.239.415.626.004.863-.41.239-1.077.239-1.49 0s-.415-.625-.005-.864c.41-.237 1.077-.237 1.491.001M177.956 122.15c.412.239.415.625.005.863s-1.077.238-1.489 0c-.412-.239-.415-.626-.005-.863.411-.237 1.078-.237 1.489 0M165.868 122.171c.413.239.414.625.004.864s-1.077.239-1.491 0c-.411-.239-.414-.625-.004-.863.412-.24 1.079-.24 1.491-.001M161.838 122.177c.412.239.415.626.004.863-.41.239-1.077.239-1.49 0s-.415-.625-.005-.864c.411-.237 1.078-.237 1.491.001M157.808 122.184c.412.239.415.626.004.863-.41.239-1.077.239-1.489 0s-.415-.625-.004-.863c.409-.238 1.076-.238 1.489 0M153.779 122.191c.413.239.415.625.004.864-.41.239-1.077.239-1.491 0-.411-.239-.414-.625-.004-.862.41-.241 1.077-.241 1.491-.002M149.749 122.199c.412.239.415.625.004.862-.41.239-1.077.239-1.49 0-.414-.238-.415-.625-.005-.864.411-.237 1.078-.237 1.491.002M145.781 123.033l-.057.035c-.41.239-1.077.239-1.491 0-.411-.238-.414-.625-.004-.862q.029-.017.061-.033zM125.57 122.237a.65.65 0 0 1 .276.276l-1.285.746a1.4 1.4 0 0 1-.476-.158c-.411-.238-.414-.625-.004-.862.41-.239 1.077-.239 1.489-.002M175.942 123.323a.8.8 0 0 1 .186.144l-.436-.252q.136.04.25.108M121.541 122.244c.412.239.415.626.005.863-.411.239-1.078.239-1.49 0-.413-.239-.414-.625-.006-.863.409-.237 1.078-.238 1.491 0M117.511 122.252c.412.238.415.625.005.862-.411.239-1.078.239-1.491 0-.412-.239-.415-.625-.005-.862.412-.238 1.079-.238 1.491 0M101.394 122.277c.411.239.414.625.004.862-.243.142-.577.199-.895.172l-.894-.516c-.048-.184.05-.378.294-.52.41-.235 1.079-.235 1.491.002M109.453 122.266c.411.239.414.625.004.862-.41.239-1.077.239-1.491 0-.413-.238-.414-.625-.004-.864.41-.237 1.077-.237 1.491.002M105.423 122.272c.413.239.415.625.004.864-.41.239-1.077.239-1.49 0-.412-.239-.415-.625-.005-.863.412-.24 1.079-.24 1.491-.001M93.334 122.29c.414.239.415.626.005.864-.41.239-1.078.239-1.49 0-.413-.238-.416-.625-.005-.862.41-.239 1.077-.239 1.49-.002M89.304 122.298c.412.239.415.625.005.862-.41.239-1.078.239-1.49 0-.413-.238-.416-.625-.005-.862.41-.239 1.077-.239 1.49 0M85.275 122.304c.414.238.415.625.006.862-.41.239-1.077.239-1.49 0-.412-.239-.415-.625-.005-.862.409-.238 1.076-.238 1.49 0M147.735 123.368c.212.123.315.284.31.443l-1.077-.622c.277-.003.556.057.767.179M109.977 123.428c.236-.137.557-.196.864-.175l-1.164.676c-.035-.177.065-.364.3-.501M188.031 123.301c.412.239.415.625.005.862-.41.239-1.077.239-1.489 0-.414-.238-.415-.625-.006-.862.41-.239 1.077-.239 1.49 0M184.002 123.307c.413.238.415.625.006.862-.411.239-1.078.239-1.491 0-.412-.239-.415-.625-.004-.862.408-.238 1.076-.238 1.489 0M179.972 123.315c.412.238.415.625.005.862-.411.239-1.078.239-1.489 0-.414-.239-.415-.625-.006-.862.41-.239 1.077-.239 1.49 0M176.156 124.009a.8.8 0 0 1-.209.174c-.41.239-1.077.239-1.489 0-.412-.238-.415-.625-.004-.862q.135-.078.299-.122zM171.912 123.329c.413.239.415.625.006.862-.41.239-1.077.239-1.491 0-.412-.238-.415-.625-.004-.862.41-.239 1.077-.239 1.489 0M167.884 123.334c.412.238.415.625.004.862-.41.239-1.077.239-1.489 0s-.415-.625-.006-.862c.411-.239 1.078-.239 1.491 0M163.852 123.342c.414.239.415.625.006.863-.41.238-1.077.238-1.49 0-.412-.239-.415-.626-.005-.863.411-.239 1.078-.239 1.489 0M159.824 123.348c.412.239.415.625.005.863-.411.238-1.078.238-1.489 0-.414-.239-.415-.626-.006-.863.41-.237 1.077-.237 1.49 0M155.795 123.355c.412.239.415.625.005.862-.411.239-1.078.239-1.489 0-.412-.238-.415-.625-.005-.862.409-.239 1.076-.239 1.489 0M151.764 123.361c.413.239.415.625.006.863-.41.238-1.077.238-1.491 0-.412-.239-.415-.626-.004-.863.41-.237 1.077-.237 1.489 0M147.797 124.196l-.057.036c-.41.239-1.077.239-1.489 0s-.415-.625-.006-.862l.061-.033zM177.958 124.485a.8.8 0 0 1 .186.145l-.436-.253q.136.043.25.108M119.528 123.415c.412.238.415.625.004.862-.41.239-1.077.239-1.49 0s-.415-.625-.005-.864c.41-.237 1.077-.237 1.491.002M103.409 123.443c.414.238.415.625.005.864-.244.141-.578.198-.897.171l-.894-.516c-.048-.184.051-.378.294-.519.412-.239 1.079-.239 1.492 0M111.467 123.428c.414.239.415.626.006.863-.41.239-1.077.239-1.491 0l-.004-.003 1.485-.863zM107.439 123.435c.412.239.415.626.005.863-.411.239-1.078.239-1.49 0-.413-.239-.414-.625-.006-.863.411-.238 1.078-.238 1.491 0M95.351 123.454c.412.239.415.626.004.863-.41.239-1.077.239-1.489 0s-.415-.625-.004-.863c.409-.238 1.076-.238 1.489 0M91.32 123.463c.413.238.415.625.006.862-.41.239-1.078.239-1.491 0-.412-.239-.415-.624-.004-.862.41-.239 1.077-.239 1.489 0M87.29 123.469c.411.239.414.625.004.862-.41.239-1.077.239-1.49 0-.414-.238-.416-.625-.005-.864.41-.237 1.079-.237 1.49.002M83.26 123.475c.414.239.415.626.005.864-.41.239-1.077.239-1.49 0-.412-.238-.415-.625-.005-.862.412-.239 1.079-.239 1.49-.002M149.751 124.532c.212.122.315.283.31.443l-1.077-.622a1.56 1.56 0 0 1 .767.179M190.046 124.465c.413.239.415.626.004.864-.41.239-1.077.239-1.49 0-.412-.238-.415-.625-.005-.862.412-.24 1.079-.24 1.491-.002M186.017 124.471c.411.238.414.625.004.862-.41.239-1.077.239-1.491 0-.413-.239-.414-.625-.004-.864.41-.237 1.077-.237 1.491.002M181.987 124.479c.413.239.415.626.004.864-.41.239-1.077.239-1.49 0-.412-.238-.415-.625-.005-.862.412-.24 1.079-.24 1.491-.002M178.173 125.174a.8.8 0 0 1-.209.174c-.411.239-1.078.239-1.49 0-.413-.239-.414-.625-.006-.862q.136-.078.3-.123zM169.898 124.498c.414.239.415.626.005.864-.411.239-1.078.239-1.491 0-.412-.238-.415-.625-.004-.862.412-.24 1.079-.24 1.49-.002M165.869 124.506c.411.238.414.625.004.862-.41.239-1.077.239-1.491 0-.413-.239-.414-.625-.004-.864.41-.237 1.077-.237 1.491.002M161.839 124.511c.414.239.415.626.005.864-.411.239-1.078.239-1.491 0-.412-.238-.415-.625-.004-.862.41-.24 1.078-.24 1.49-.002M157.81 124.519c.412.238.415.625.004.862-.41.239-1.077.239-1.489 0s-.415-.625-.006-.862c.41-.239 1.077-.239 1.491 0M153.78 124.526c.412.238.415.625.005.862-.411.239-1.078.239-1.491 0-.412-.239-.415-.625-.005-.862.411-.238 1.078-.238 1.491 0M149.812 125.359l-.057.036c-.41.238-1.077.238-1.49 0-.412-.239-.415-.626-.005-.863q.03-.017.061-.033zM145.721 124.538c.412.238.415.625.005.862-.411.239-1.078.239-1.489 0-.414-.239-.415-.625-.006-.862.41-.239 1.077-.239 1.49 0M179.974 125.648a.8.8 0 0 1 .186.145l-.435-.252q.133.042.249.107M85.277 124.638c.411.239.414.625.004.863s-1.077.238-1.49 0c-.413-.239-.414-.626-.005-.863.41-.239 1.077-.239 1.49 0M151.767 125.695c.212.123.315.284.31.443l-1.077-.622c.276-.001.555.057.767.179M192.062 125.628c.412.239.415.625.005.863s-1.077.238-1.489 0c-.412-.239-.415-.626-.005-.863.411-.237 1.078-.237 1.489 0M188.033 125.635c.413.239.414.625.006.863-.411.238-1.078.238-1.491 0-.412-.239-.415-.626-.005-.863.409-.239 1.076-.239 1.49 0M184.004 125.642c.411.239.414.625.004.863s-1.077.238-1.489 0c-.413-.239-.415-.626-.006-.863.41-.237 1.077-.237 1.491 0M180.188 126.338a.7.7 0 0 1-.209.175c-.41.239-1.077.239-1.49 0-.412-.239-.415-.625-.005-.863q.136-.078.3-.122zM167.884 125.668c.413.239.415.625.006.862-.411.239-1.078.239-1.491 0-.412-.238-.415-.625-.005-.862.411-.237 1.078-.237 1.49 0M163.856 125.675c.411.239.414.626.004.863-.41.239-1.077.239-1.489 0s-.415-.625-.006-.863c.41-.238 1.077-.238 1.491 0M159.826 125.681c.413.239.415.625.005.864-.411.239-1.078.239-1.491 0-.412-.239-.415-.625-.005-.863.411-.238 1.078-.238 1.491-.001M155.796 125.688c.412.239.415.626.005.863-.411.239-1.078.239-1.491 0s-.415-.625-.004-.864c.41-.237 1.077-.237 1.49.001M151.828 126.524l-.057.035c-.41.239-1.077.239-1.489 0-.412-.238-.415-.625-.004-.862q.029-.017.061-.033zM147.736 125.701c.413.239.415.626.006.863-.411.239-1.078.239-1.491 0-.412-.239-.415-.625-.004-.863.408-.238 1.077-.238 1.489 0M181.989 126.813a.8.8 0 0 1 .186.145l-.435-.252q.134.04.249.107"/><path fill="#1A2C6B" d="m149.509 101.314-27.976 16.259-1.485.863-.529.307-1.485.863-.528.307-1.485.863-.528.307-1.485.863-.529.307-1.485.863-.528.307-1.485.863-4.335 2.519L70.31 106.41q.144-.043.264-.112a.8.8 0 0 0 .192-.154l22.797 13.162.894.516 1.122.648.894.516 1.123.648.892.515 1.122.647.894.517 1.123.648.894.516 3.12 1.801 4.042-2.349 1.164-.676.85-.494 1.165-.676.849-.494 1.164-.676.851-.494 1.164-.676.85-.494 1.164-.676.85-.494 1.164-.676 28.136-16.351z"/><path fill="#C3D0FF" d="M153.782 126.86c.212.122.315.284.31.443l-1.077-.622c.278-.003.555.057.767.179M194.079 126.793c.412.238.415.625.004.862-.41.239-1.077.239-1.489 0s-.415-.625-.006-.862c.41-.239 1.077-.239 1.491 0M190.047 126.799c.412.239.415.625.005.862-.411.239-1.078.239-1.491 0-.412-.239-.415-.625-.004-.862.411-.239 1.078-.239 1.49 0M182.203 127.501a.7.7 0 0 1-.209.174c-.41.239-1.077.239-1.489 0-.413-.238-.415-.625-.006-.862q.136-.078.3-.123zM169.9 126.833c.412.239.415.625.004.862-.41.239-1.077.239-1.49 0-.412-.238-.415-.625-.005-.862.412-.237 1.079-.237 1.491 0M165.87 126.839c.413.239.415.625.005.864-.411.238-1.078.238-1.491 0-.412-.239-.415-.625-.005-.863.411-.238 1.079-.238 1.491-.001M161.841 126.846c.412.239.415.625.004.862-.41.239-1.077.239-1.489 0-.413-.238-.415-.625-.006-.862.411-.239 1.079-.239 1.491 0M157.811 126.854c.414.239.415.625.006.863-.41.238-1.077.238-1.49 0-.412-.239-.415-.626-.005-.863.409-.239 1.076-.239 1.489 0M153.843 127.687l-.057.036c-.41.239-1.077.239-1.489 0s-.415-.625-.006-.863q.03-.017.061-.033zM150.064 127.3c.001-.337-.47-.612-1.051-.614-.582-.001-1.055.271-1.056.608s.47.611 1.052.613 1.054-.27 1.055-.607M145.723 126.873c.413.239.414.625.006.863-.411.238-1.078.238-1.491 0-.412-.239-.415-.626-.005-.863.409-.239 1.076-.239 1.49 0M184.005 127.976a.8.8 0 0 1 .187.145l-.436-.253q.133.043.249.108M155.798 128.025c.212.122.315.283.311.443l-1.078-.622a1.53 1.53 0 0 1 .767.179M196.094 127.956c.413.239.414.625.004.864s-1.077.239-1.491 0c-.411-.239-.414-.625-.004-.863.412-.24 1.079-.24 1.491-.001M192.064 127.963c.412.238.415.625.004.862-.41.239-1.077.239-1.49 0s-.415-.625-.005-.864c.411-.237 1.078-.237 1.491.002M184.22 128.665a.8.8 0 0 1-.209.175c-.411.239-1.078.239-1.491 0-.412-.239-.415-.625-.004-.862q.135-.079.299-.123zM167.887 128.002c.411.239.414.626.004.863-.41.239-1.077.239-1.489 0s-.415-.625-.005-.863c.409-.237 1.076-.237 1.49 0M163.857 128.009c.414.239.415.626.005.864-.411.239-1.078.239-1.491 0-.412-.238-.415-.625-.004-.862.41-.24 1.077-.24 1.49-.002M159.828 128.016c.411.239.414.625.004.862-.41.239-1.077.239-1.491 0-.413-.238-.414-.625-.004-.864.41-.235 1.077-.235 1.491.002M155.859 128.851l-.056.035c-.411.239-1.078.239-1.491 0-.412-.238-.415-.625-.004-.862q.029-.017.061-.033zM151.769 128.031c.412.239.415.625.004.862-.41.239-1.077.239-1.489 0-.413-.238-.415-.625-.006-.862.41-.239 1.077-.239 1.491 0M147.737 128.037c.412.239.415.625.005.862-.411.239-1.078.239-1.491 0-.412-.238-.415-.625-.004-.862.411-.239 1.078-.239 1.49 0M157.677 129.12q-.17.014-.331.061l-.3-.173c.221-.003.443.035.631.112"/><path fill="#1A2C6B" d="m162.825 109.002-20.148 11.708 2.276 1.315 1.078.622.937.542 1.077.623.939.541 1.078.623.938.541 1.078.623.939.541 1.077.623.939.542 1.077.622.938.542.3.173a1.2 1.2 0 0 0-.264.112.8.8 0 0 0-.193.153l-.507-.292-.526-.303-1.491-.861-.525-.303-1.491-.861-.525-.303-1.49-.86-.525-.303-1.491-.861-.525-.303-1.491-.861-.526-.303-1.491-.861-2.529-1.46 20.603-11.973z"/><path fill="#C3D0FF" d="M194.078 129.126c.414.239.415.625.006.863-.41.238-1.077.238-1.49 0-.412-.239-.415-.626-.005-.863.411-.237 1.078-.237 1.489 0M173.931 129.161c.413.239.415.625.006.863-.41.238-1.077.238-1.491 0-.412-.239-.415-.626-.004-.863.41-.239 1.077-.239 1.489 0M169.903 129.166c.412.239.415.625.004.862-.41.239-1.077.239-1.489 0-.413-.238-.415-.625-.006-.862.411-.239 1.078-.239 1.491 0M157.088 130.157q.064.037.137.067c-.318.027-.652-.031-.897-.173-.413-.238-.414-.625-.006-.862l.062-.033.507.292c-.201.229-.136.517.197.709M165.872 129.172c.412.239.415.625.004.863-.41.238-1.077.238-1.489 0-.412-.239-.415-.626-.004-.863.41-.237 1.077-.237 1.489 0M161.842 129.18c.413.239.415.626.006.863-.41.239-1.077.239-1.491 0-.411-.239-.414-.625-.004-.863.409-.238 1.077-.238 1.489 0M153.783 129.194c.413.238.415.625.006.862-.41.239-1.077.239-1.491 0-.411-.239-.414-.625-.004-.862.409-.238 1.076-.239 1.489 0"/><path fill="#C3D0FF" d="M158.573 129.292c.413.239.414.625.004.864-.367.213-.942.236-1.353.066a1 1 0 0 1-.138-.068c-.332-.192-.398-.48-.197-.71a.8.8 0 0 1 .193-.154q.12-.069.264-.111.157-.047.331-.062c.318-.023.652.035.896.175M175.947 130.324c.412.239.415.625.005.862-.411.239-1.078.239-1.491 0-.413-.238-.415-.625-.004-.864.41-.237 1.077-.237 1.49.002M171.918 130.331c.413.238.415.625.004.864-.41.238-1.077.238-1.49 0-.412-.239-.415-.626-.005-.863.411-.24 1.078-.24 1.491-.001M167.888 130.337c.412.238.415.625.004.862-.41.239-1.077.239-1.489 0s-.415-.625-.006-.862c.41-.239 1.077-.239 1.491 0M163.858 130.344c.412.238.415.625.005.862-.411.239-1.078.239-1.491 0-.412-.239-.415-.625-.004-.862.41-.239 1.077-.239 1.49 0M159.829 130.351c.413.239.415.625.004.864-.41.239-1.077.239-1.49 0-.412-.239-.415-.625-.005-.863.411-.238 1.078-.238 1.491-.001M155.799 130.358c.412.239.415.625.005.862-.41.239-1.077.239-1.489 0-.414-.238-.415-.625-.006-.862.41-.239 1.077-.239 1.49 0M151.769 130.363c.413.239.415.625.006.862-.41.239-1.077.239-1.491 0-.412-.238-.415-.625-.004-.862.41-.237 1.077-.237 1.489 0M177.962 131.488c.414.238.415.625.006.862-.41.239-1.077.239-1.49 0-.412-.239-.415-.625-.005-.862.41-.238 1.077-.238 1.489 0M173.934 131.494c.412.239.415.626.004.863-.41.239-1.077.239-1.489 0s-.415-.625-.006-.863c.41-.238 1.077-.238 1.491 0M169.905 131.501c.413.239.415.625.004.864-.41.239-1.077.239-1.491 0-.411-.239-.414-.625-.004-.862.41-.24 1.077-.24 1.491-.002M165.874 131.508c.411.239.414.625.004.862-.41.239-1.077.239-1.491 0-.413-.238-.415-.625-.004-.864.41-.237 1.079-.237 1.491.002M161.844 131.515c.411.238.414.625.004.862-.41.239-1.077.239-1.489 0s-.415-.625-.005-.862c.411-.239 1.078-.239 1.49 0M157.814 131.522c.414.238.415.625.006.862s-1.077.239-1.49 0c-.412-.239-.415-.625-.005-.862.409-.239 1.076-.239 1.489 0M153.785 131.528c.411.238.414.625.004.862-.41.239-1.077.239-1.491 0-.413-.239-.414-.625-.004-.864.41-.237 1.077-.237 1.491.002M171.919 132.665c.412.239.415.625.005.863-.411.238-1.078.238-1.49 0-.413-.239-.414-.626-.006-.863.411-.239 1.078-.239 1.491 0M167.89 132.671c.413.239.414.625.006.862-.411.239-1.078.239-1.491 0-.412-.238-.415-.625-.005-.862.409-.237 1.076-.237 1.49 0M159.83 132.684c.412.239.415.625.005.863-.41.237-1.077.238-1.489 0-.412-.239-.415-.626-.005-.863.411-.237 1.076-.237 1.489 0M155.801 132.691c.413.239.415.625.006.863-.41.238-1.077.238-1.491 0-.411-.239-.414-.626-.004-.863.409-.239 1.076-.239 1.489 0M173.935 133.827c.414.239.415.626.005.864-.41.239-1.077.239-1.491 0-.412-.238-.415-.625-.004-.862.41-.239 1.077-.239 1.49-.002M169.906 133.835c.412.239.415.625.005.862-.411.239-1.078.239-1.491 0-.413-.238-.415-.625-.004-.864.408-.237 1.077-.237 1.49.002M165.874 133.84c.414.239.415.626.005.864-.41.239-1.077.239-1.491 0-.412-.238-.415-.625-.004-.862.412-.239 1.079-.239 1.49-.002M161.845 133.847c.412.239.415.625.005.863-.411.239-1.078.239-1.489 0-.414-.239-.415-.625-.006-.863.409-.237 1.077-.238 1.49 0M157.816 133.856c.412.239.415.625.004.862-.41.239-1.077.239-1.49 0-.412-.238-.415-.625-.005-.862.412-.239 1.079-.239 1.491 0M175.95 134.991c.412.239.415.626.005.863-.411.239-1.078.239-1.49 0s-.414-.625-.004-.863c.41-.237 1.077-.237 1.489 0M171.921 134.999c.413.239.415.626.006.863-.411.239-1.078.239-1.491 0-.412-.239-.415-.625-.004-.863.408-.238 1.075-.238 1.489 0M167.891 135.005c.412.239.415.626.005.863-.411.239-1.078.239-1.489 0-.414-.239-.415-.625-.006-.863.41-.238 1.077-.238 1.49 0M163.862 135.013c.413.238.415.625.006.862s-1.078.239-1.491 0c-.412-.239-.415-.625-.005-.862.409-.239 1.076-.239 1.49 0M159.832 135.019c.412.238.415.625.004.862-.41.239-1.077.239-1.49 0s-.415-.625-.005-.864c.411-.236 1.078-.236 1.491.002M155.803 135.027c.411.238.414.625.004.862-.41.239-1.077.239-1.489 0s-.415-.625-.005-.862c.409-.239 1.078-.239 1.49 0M177.966 136.155c.412.239.415.625.005.863s-1.077.238-1.489 0c-.414-.239-.415-.626-.006-.863.41-.239 1.077-.239 1.49 0M173.937 136.163c.412.239.415.625.005.862-.41.239-1.077.239-1.491 0-.412-.238-.415-.625-.004-.862.41-.239 1.077-.239 1.49 0M169.906 136.169c.413.239.415.625.005.864-.411.239-1.078.239-1.491 0-.412-.239-.415-.625-.005-.863.412-.24 1.079-.24 1.491-.001M165.877 136.176c.411.239.414.625.004.862-.41.238-1.077.239-1.489 0s-.415-.625-.006-.862c.409-.238 1.079-.239 1.491 0M161.847 136.182c.413.239.414.625.006.863-.411.238-1.078.238-1.491 0-.412-.239-.415-.626-.005-.863.411-.239 1.078-.239 1.49 0M153.788 136.196c.411.239.414.625.004.863s-1.077.238-1.491 0c-.412-.239-.415-.626-.004-.863.412-.239 1.079-.239 1.491 0"/><path fill="#1A2C6B" d="m169.805 112.836.624 5.819.098.921.075.7 5.09 2.938.436.252 1.579.912.436.252 1.579.912.436.253 1.579.911.436.253 1.579.912.435.252 16.071 9.278a1.2 1.2 0 0 0-.264.112.8.8 0 0 0-.193.154l-15.585-8.998-1.405-.812-.61-.352-1.404-.812-.611-.352-1.404-.812-.611-.352-1.404-.812-.61-.352-1.405-.811-4.641-2.68-.139-.079-.064-.603-.748-6.98z"/><path fill="#C3D0FF" d="M175.952 137.325c.411.238.414.625.004.862-.41.239-1.077.239-1.491 0-.413-.239-.414-.625-.004-.864.41-.236 1.077-.236 1.491.002M171.922 137.333c.412.238.415.625.005.862-.411.239-1.078.239-1.489 0s-.415-.625-.005-.862c.41-.239 1.077-.239 1.489 0M167.892 137.338c.414.239.415.626.006.863-.408.237-1.077.239-1.49 0-.412-.239-.415-.625-.005-.863.409-.237 1.076-.237 1.489 0M163.863 137.346c.412.239.415.625.005.862-.411.239-1.078.239-1.491 0-.413-.238-.415-.625-.004-.863.41-.238 1.077-.238 1.49.001M159.833 137.351c.414.239.415.626.005.864-.41.239-1.077.239-1.491 0-.412-.238-.415-.625-.004-.862.412-.239 1.079-.239 1.49-.002M155.804 137.361c.412.239.415.625.005.863-.411.238-1.078.238-1.491 0-.413-.239-.415-.626-.005-.864.411-.238 1.078-.238 1.491.001M177.968 138.491c.413.238.415.625.006.862-.41.239-1.077.239-1.491 0-.411-.239-.414-.625-.004-.862.409-.239 1.076-.239 1.489 0M173.938 138.497c.412.239.415.626.005.863-.411.239-1.078.239-1.49 0-.413-.239-.414-.625-.006-.863.411-.238 1.078-.238 1.491 0M170.22 138.936c.001-.337-.47-.612-1.052-.613s-1.054.27-1.055.607.469.612 1.051.613 1.055-.27 1.056-.607M165.878 138.509c.413.239.415.626.006.863-.411.239-1.078.239-1.491 0-.412-.239-.415-.625-.004-.863.41-.237 1.077-.237 1.489 0M161.85 138.517c.412.238.415.625.004.862-.41.239-1.077.239-1.489 0s-.415-.625-.006-.862c.41-.239 1.077-.239 1.491 0M157.819 138.525c.413.238.415.625.006.862-.411.239-1.078.239-1.491 0-.412-.239-.415-.625-.004-.862.41-.239 1.077-.239 1.489 0M153.791 138.53c.412.239.414.626.004.863-.41.239-1.077.239-1.489 0s-.415-.625-.006-.863c.41-.238 1.077-.238 1.491 0M179.983 139.654c.412.239.415.625.004.863-.41.239-1.077.239-1.49 0s-.415-.625-.005-.864c.411-.237 1.078-.237 1.491.001M175.954 139.66c.413.238.414.625.004.864-.41.238-1.077.238-1.491 0-.412-.239-.415-.626-.004-.863.412-.239 1.079-.239 1.491-.001M171.923 139.668c.412.239.415.625.005.862-.41.239-1.077.239-1.489 0-.414-.238-.415-.625-.006-.862s1.077-.239 1.49 0M167.894 139.674c.412.239.415.625.004.863-.41.238-1.077.238-1.49 0-.412-.239-.415-.626-.005-.863.412-.237 1.079-.237 1.491 0M163.865 139.68c.413.239.414.625.004.864s-1.077.239-1.491 0c-.411-.239-.414-.625-.004-.863.412-.24 1.079-.24 1.491-.001M151.776 139.699c.412.239.415.625.004.863-.41.238-1.077.238-1.489 0-.413-.239-.415-.626-.006-.863s1.078-.237 1.491 0M177.969 140.825c.412.239.415.625.005.862-.41.239-1.077.239-1.489 0-.414-.238-.415-.625-.006-.862.41-.239 1.077-.239 1.49 0M173.94 140.831c.413.238.415.625.006.862-.411.239-1.078.239-1.491 0-.412-.239-.415-.625-.004-.862.408-.239 1.075-.239 1.489 0M169.91 140.838c.412.239.415.625.005.862-.411.239-1.078.239-1.491 0s-.415-.625-.005-.864c.411-.237 1.078-.237 1.491.002M165.881 140.843c.412.238.415.625.004.862-.41.239-1.077.239-1.489 0s-.415-.625-.004-.862c.408-.238 1.075-.238 1.489 0M161.849 140.851c.414.239.415.625.006.862-.41.239-1.077.239-1.49 0-.412-.238-.415-.625-.005-.862.411-.239 1.078-.239 1.489 0M157.821 140.858c.412.238.415.625.005.862-.41.239-1.077.239-1.489 0-.414-.239-.415-.625-.006-.862.41-.239 1.077-.239 1.49 0M153.79 140.864c.414.239.415.626.006.863-.41.239-1.077.239-1.49 0-.412-.239-.415-.625-.005-.863.411-.237 1.078-.238 1.489 0M149.763 140.872c.412.239.415.625.004.863-.41.238-1.077.238-1.491 0-.413-.239-.414-.626-.004-.864s1.077-.238 1.491.001M147.748 142.041a.7.7 0 0 1 .26.244l-.682-.394c.155.03.3.079.422.15M179.984 141.987c.414.239.415.625.005.864-.411.239-1.078.239-1.491 0-.412-.239-.415-.625-.004-.862.411-.241 1.078-.241 1.49-.002M175.955 141.994c.412.239.415.626.004.863-.41.239-1.077.239-1.489 0s-.415-.625-.006-.863c.41-.237 1.077-.237 1.491 0M171.925 142.002c.414.239.415.626.006.863-.41.239-1.077.239-1.491 0-.411-.239-.414-.625-.004-.863s1.077-.238 1.489 0M167.897 142.007c.411.239.414.626.004.863-.41.239-1.077.239-1.489 0s-.415-.625-.006-.863c.41-.238 1.077-.238 1.491 0M163.866 142.016c.411.238.414.625.004.862-.41.239-1.077.239-1.491 0-.411-.239-.414-.625-.004-.862.412-.239 1.079-.239 1.491 0M159.837 142.021c.413.239.415.625.004.864-.41.239-1.077.239-1.49 0-.412-.239-.415-.625-.005-.862.41-.239 1.079-.239 1.491-.002M155.807 142.028c.412.239.415.625.004.863-.41.238-1.077.238-1.489 0-.413-.239-.415-.626-.006-.863s1.077-.239 1.491 0M147.928 142.768a.8.8 0 0 1-.176.136c-.41.238-1.077.238-1.489 0-.413-.239-.415-.625-.006-.863q.109-.063.234-.103zM149.765 143.205a.7.7 0 0 1 .259.244l-.682-.393c.154.029.299.079.423.149M173.941 143.166c.412.239.415.625.005.863s-1.077.238-1.491 0c-.413-.239-.415-.626-.004-.864.41-.238 1.077-.238 1.49.001M169.912 143.172c.413.238.415.625.004.864-.41.238-1.077.238-1.49 0-.412-.239-.415-.626-.005-.863.411-.24 1.078-.24 1.491-.001M165.882 143.178c.412.239.415.625.005.863-.411.238-1.078.238-1.491 0-.413-.239-.415-.625-.004-.864.41-.237 1.077-.237 1.49.001M161.853 143.186c.412.239.415.625.004.863-.41.238-1.077.238-1.489 0-.412-.239-.415-.626-.004-.863.409-.239 1.076-.239 1.489 0M157.822 143.192c.413.239.414.626.006.863-.411.239-1.078.239-1.491 0-.412-.239-.415-.625-.005-.863.411-.238 1.078-.238 1.49 0M153.794 143.198c.412.239.415.625.004.863-.41.238-1.077.238-1.49 0-.414-.239-.415-.626-.005-.864.411-.238 1.078-.238 1.491.001M145.733 143.211c.412.239.415.625.004.863-.41.238-1.077.238-1.49 0-.414-.239-.415-.626-.005-.864.412-.238 1.079-.238 1.491.001M151.779 144.369c.123.07.209.155.26.243l-.682-.394c.155.03.3.081.422.151M175.956 144.329c.414.238.415.625.006.862-.41.239-1.077.239-1.49 0-.412-.239-.415-.625-.005-.862.411-.238 1.078-.238 1.489 0M171.928 144.336c.412.238.415.625.005.862-.411.239-1.078.239-1.489 0-.414-.239-.415-.625-.006-.862.41-.239 1.077-.239 1.49 0M167.897 144.341c.413.238.415.625.006.862-.411.239-1.078.239-1.491 0-.412-.239-.415-.625-.004-.862.41-.238 1.077-.238 1.489 0M163.869 144.349c.412.239.415.625.005.862-.411.239-1.078.239-1.489 0-.414-.238-.415-.625-.006-.862.41-.239 1.077-.239 1.49 0M160.15 144.789c.001-.337-.47-.611-1.052-.613s-1.054.27-1.055.607.47.612 1.051.614c.582.001 1.055-.271 1.056-.608M155.808 144.363c.414.239.415.625.006.863-.41.238-1.077.238-1.49 0-.412-.239-.415-.626-.005-.863.409-.239 1.076-.239 1.489 0M151.96 145.096a.8.8 0 0 1-.177.136c-.41.239-1.077.239-1.489 0s-.415-.625-.006-.862q.108-.063.235-.103zM147.749 144.375c.414.239.415.625.006.862-.41.239-1.077.239-1.49 0-.412-.238-.415-.625-.005-.862.409-.239 1.076-.239 1.489 0M153.795 145.532c.123.07.209.155.26.245l-.68-.394c.152.028.296.077.42.149M165.884 145.512c.413.239.415.625.004.864-.41.239-1.077.239-1.491 0-.411-.239-.414-.625-.004-.862.41-.239 1.077-.239 1.491-.002M161.855 145.519c.411.239.414.626.004.863-.41.239-1.077.239-1.489 0s-.415-.625-.006-.863c.41-.238 1.077-.238 1.491 0M157.825 145.527c.411.238.414.625.004.862-.41.239-1.077.239-1.491 0-.411-.239-.414-.625-.004-.862.41-.239 1.077-.239 1.491 0M153.975 146.26a.8.8 0 0 1-.176.136c-.41.238-1.077.238-1.49 0-.412-.239-.415-.626-.005-.863q.109-.063.234-.103zM149.766 145.54c.411.238.414.625.004.862-.41.239-1.077.239-1.491 0-.413-.239-.414-.625-.004-.864.41-.237 1.077-.237 1.491.002M145.735 145.546c.413.239.415.626.004.864-.41.239-1.077.239-1.49 0-.412-.238-.415-.625-.005-.862.412-.24 1.079-.24 1.491-.002M155.81 146.697c.123.07.209.155.26.243l-.68-.392c.153.028.298.077.42.149M163.869 146.683c.413.239.415.625.006.863-.41.238-1.077.238-1.491 0-.412-.239-.415-.626-.004-.863.41-.239 1.077-.239 1.489 0M159.839 146.689c.412.239.415.625.005.862-.411.239-1.078.239-1.491 0-.413-.238-.415-.625-.004-.863.41-.238 1.078-.238 1.49.001M155.99 147.423a.7.7 0 0 1-.176.136c-.41.239-1.077.239-1.489 0s-.415-.625-.004-.862q.107-.063.234-.103zM151.781 146.702c.413.239.414.625.006.863-.411.238-1.078.238-1.491 0-.412-.239-.415-.626-.005-.863.409-.237 1.076-.237 1.49 0M147.751 146.71c.411.239.414.625.004.863s-1.077.238-1.489 0c-.413-.239-.415-.626-.006-.863.41-.239 1.077-.239 1.491 0M157.826 147.861c.122.07.209.155.26.243l-.682-.394c.155.03.3.079.422.151M161.855 147.853c.414.238.415.625.006.862-.41.239-1.077.239-1.49 0-.412-.239-.415-.625-.005-.862.409-.239 1.076-.239 1.489 0M158.007 148.588a.8.8 0 0 1-.176.136c-.411.239-1.078.239-1.489 0-.414-.239-.415-.625-.006-.862a1 1 0 0 1 .234-.103z"/><path fill="#1A2C6B" d="m156.397 105.292-36.114 20.987 27.043 15.613.682.394 1.334.77.682.394 1.334.771.682.394 1.335.77.68.394 1.334.77.681.392 1.334.77.682.394 1.663.96a1.2 1.2 0 0 0-.264.112.8.8 0 0 0-.193.154l-1.284-.742-1.437-.83-.579-.334-1.437-.83-.579-.334-1.437-.83-.579-.334-1.438-.83-.577-.335-1.437-.829-.579-.335-1.438-.829-27.123-15.66 5.195-3.02 1.285-.746 30.089-17.487z"/><path fill="#C3D0FF" d="M155.812 149.031c.411.238.414.625.004.862-.41.239-1.077.239-1.491 0-.413-.239-.415-.625-.004-.864.41-.237 1.077-.237 1.491.002M160.973 149.176c.412.239.415.625.005.863s-1.077.238-1.491 0c-.333-.193-.398-.481-.197-.711a.8.8 0 0 1 .193-.153 1.1 1.1 0 0 1 .264-.112c.395-.117.894-.079 1.226.113M111.464 118.76c.413.239.415.625.006.862-.411.239-1.078.239-1.491 0-.412-.238-.415-.625-.004-.862.41-.237 1.077-.237 1.489 0M115.498 123.424c.412.239.415.625.004.862-.41.239-1.077.239-1.489 0-.412-.238-.415-.625-.004-.862.409-.239 1.077-.239 1.489 0M113.482 122.259c.413.239.415.625.004.864-.41.239-1.077.239-1.49 0l-.005-.003 1.485-.863q.004 0 .006.002M101.39 117.61c.413.239.415.626.006.863-.41.239-1.077.239-1.49 0s-.416-.625-.005-.863c.409-.237 1.076-.237 1.489 0M97.364 122.285c.412.239.415.625.004.862-.41.239-1.077.239-1.49 0-.414-.238-.415-.625-.005-.862.41-.239 1.079-.239 1.49 0M99.38 123.45c.412.239.415.625.004.862-.41.239-1.077.239-1.49 0-.414-.238-.415-.625-.005-.863s1.078-.238 1.49.001M171.916 127.997c.412.239.415.625.004.862-.41.239-1.077.239-1.49 0-.414-.238-.415-.625-.005-.864.411-.237 1.078-.237 1.491.002M179.986 144.323c.412.239.415.625.004.863-.41.238-1.077.238-1.489 0-.412-.239-.415-.626-.004-.863.41-.239 1.077-.239 1.489 0M177.973 145.494c.411.238.414.625.004.862-.41.239-1.077.239-1.491 0-.412-.239-.414-.625-.004-.862.41-.239 1.079-.239 1.491 0M143.689 97.7c.412.239.415.625.004.862-.41.24-1.077.24-1.489 0l-.076-.049 1.261-.733-.451-.26c.27 0 .542.06.751.18M133.61 94.216c.414.239.415.625.006.863-.41.238-1.077.238-1.49 0-.412-.24-.415-.626-.005-.863.41-.239 1.077-.239 1.489 0M129.582 96.557c.414.238.415.625.006.862-.41.239-1.077.239-1.49 0-.412-.239-.415-.625-.005-.862.411-.238 1.078-.238 1.489 0M117.497 98.91c.413.24.414.626.004.865s-1.077.239-1.491 0c-.412-.239-.415-.625-.004-.863.41-.24 1.077-.24 1.491-.001M149.945 143.932a.8.8 0 0 1-.176.136c-.411.238-1.078.238-1.491 0-.412-.239-.415-.626-.005-.863q.108-.063.235-.103zM151.778 142.036c.413.239.415.625.006.862-.411.239-1.078.239-1.491 0-.412-.238-.415-.625-.004-.862.408-.237 1.075-.237 1.489 0M149.767 147.874c.413.239.415.625.004.864-.41.239-1.077.239-1.49 0-.412-.239-.415-.625-.005-.863.411-.238 1.078-.238 1.491-.001M145.737 147.881c.412.239.415.625.005.863s-1.077.238-1.489 0c-.414-.239-.415-.626-.006-.863.41-.239 1.077-.239 1.49 0M107.421 97.762c.414.238.415.625.006.862-.41.239-1.077.239-1.49 0-.412-.239-.415-.625-.005-.862.409-.24 1.076-.24 1.489 0M105.406 98.93c.414.24.415.626.005.865-.411.239-1.078.239-1.491 0-.412-.239-.415-.625-.005-.863.412-.24 1.079-.24 1.491-.001M105.415 110.602c.414.238.415.625.005.864-.41.238-1.077.238-1.491 0-.412-.239-.415-.626-.004-.863.41-.24 1.077-.24 1.49-.001"/><path fill="#B7A89E" d="M143.38 83.812a7 7 0 0 0-.014-.28l-.007-.124q-.012-.157-.026-.315l-.006-.075q-.02-.195-.044-.387l-.01-.072q-.035-.267-.081-.533l-.001-.012a16 16 0 0 0-.209-1.003q-.01-.035-.018-.07-.041-.162-.084-.32l-.025-.093a15 15 0 0 0-.188-.616l-.02-.064a12 12 0 0 0-.18-.501l-.029-.079a11 11 0 0 0-.171-.418l-.034-.078q-.07-.159-.143-.313l-.034-.072a12 12 0 0 0-.203-.393l-.124-.224-.056-.094-.111-.184-.055-.088-.129-.193-.038-.056a6 6 0 0 0-.173-.235l-.04-.049q-.075-.094-.151-.183l-.054-.062a5 5 0 0 0-.231-.245l-.094-.087-.07-.065q-.05-.044-.103-.085l-.066-.055q-.058-.043-.116-.085l-.055-.04a2.391 2.391 0 0 0-.385-.214q-.034-.014-.066-.026a2 2 0 0 0-.195-.062l-.07-.015-.089-.015q-.026-.001-.05-.005-.058-.003-.112-.002h-.022a1 1 0 0 0-.126.016l-.03.008a1 1 0 0 0-.093.027l-.028.01a1 1 0 0 0-.111.053l18.265-10.615.009-.005a1 1 0 0 1 .103-.048l.028-.01q.022-.009.045-.016.023-.006.047-.011l.031-.008.017-.004a1 1 0 0 1 .102-.011h.027l.086-.001.027.002.05.005.05.005.041.01q.034.005.069.013l.039.008q.018.007.037.013.057.017.119.041l.043.015q.01.008.024.012a2 2 0 0 1 .385.214l.055.04q.057.04.115.084l.067.056.103.084.069.064.091.085.004.004q.117.116.229.245l.027.028.028.035q.077.089.15.183l.031.037.009.013q.089.114.173.235.003.003.007.009l.032.049q.065.093.128.19l.019.029.036.059q.056.09.112.183l.031.05q.012.022.025.045.064.11.125.223l.03.055.009.018q.083.158.163.322l.012.023.023.05q.073.154.142.312.012.026.023.051a7 7 0 0 1 .182.445l.016.036.015.043q.094.245.18.501.004.014.01.028l.012.036a14 14 0 0 1 .198.652q.007.027.015.056.043.16.083.32l.018.071q.047.195.09.391l.007.032.009.047q.056.265.103.532l.002.013a12 12 0 0 1 .089.604q.025.194.044.387l.006.077q.014.158.026.313l.007.124q.008.14.014.279.004.058.004.116.007.193.005.385l-.002.867-18.266 10.616.003-.868q-.001-.19-.005-.384-.005-.057-.007-.116"/><path fill="#CCBEB4" d="M140.014 75.854c-.932-.538-1.699-.102-1.702.97l-.048 17.064c-.002.447.315.996.704 1.22l3.677 2.123c.178.103.372.214.708.41l.023-8.29.011-4.17.003-.867c.01-3.467-1.508-7.382-3.376-8.46"/><path fill="#CCBEB4" d="m143.376 89.352-.023 8.288 20.805 12.011.023-8.288z"/><path fill="#DDD2CA" d="m143.388 85.18-.013 4.171 20.805 12.012.012-4.17z"/><path fill="#EEE5DE" d="m164.192 97.192 18.265-10.616-20.803-12.012-18.266 10.616z"/><path fill="#CCBEB4" d="M167.609 91.786c-1.867-1.079-3.404 1.073-3.413 4.54l-.036 12.513-.002.813.708.409 3.677 2.123c.388.224.708.042.709-.405l.049-17.064c.002-1.072-.76-2.39-1.692-2.93"/><path fill="#EEE5DE" d="m164.4 68.707-.162-.08-.094-.041-.148-.065-.097-.038-.11-.041a5 5 0 0 0-.753-.212l-.056-.011a5 5 0 0 0-.29-.044l-.06-.005a5 5 0 0 0-.23-.017l-.095-.002h-.165l-.096.002q-.087.005-.174.013-.04.003-.082.008a4 4 0 0 0-.184.027l-.057.009a4 4 0 0 0-.379.092l-.07.02q-.105.034-.207.072l4.156-1.62q.103-.039.208-.073l.069-.019.136-.04h.008q.117-.03.236-.052.027-.004.056-.01.092-.015.186-.026l.019-.002q.032-.003.063-.006.087-.008.175-.013l.096-.002h.219l.043.002q.113.006.228.017.03.003.06.005.144.016.29.044l.019.002.036.01q.17.032.341.079l.046.011q.181.052.366.12l.038.013.072.028.096.038q.075.031.149.064.047.02.093.043l.241.119q.12.063.242.132l9.492 5.48q.144.083.285.175.047.03.095.064.093.06.184.126l.112.082q.082.06.161.121l.116.094q.076.06.151.124l.117.103.143.128.116.11.137.134q.058.058.113.117.066.068.132.138l.11.123.097.107.021.027a12 12 0 0 1 .368.455q.127.165.248.339l.041.055.023.034q.096.141.189.285l.039.06a8 8 0 0 1 .229.377q.033.06.065.118l.112.2.078.15q.052.1.101.198l.022.041q.01.022.021.044.15.308.282.624l.011.026q.01.022.018.046.127.311.239.629l.009.023q.026.076.05.153l.055.171.058.192.05.171.009.03.037.144q.028.101.051.202l.04.175.045.202.009.04.02.114q.024.123.045.247l.026.162.033.237.012.077q.002.035.006.07.022.188.036.373l.008.096q.016.229.021.456l.002.034v.318l-.007.216-.005.143a9 9 0 0 1-.065.708l-4.157 1.62q.025-.176.04-.353l.009-.12q.01-.117.017-.235l.005-.145.006-.214v-.154q0-.098-.002-.198a10 10 0 0 0-.022-.457l-.008-.096a12 12 0 0 0-.088-.759l-.026-.161q-.022-.124-.045-.248l-.029-.154-.045-.203-.04-.174-.053-.204-.045-.172q-.024-.087-.05-.173l-.056-.191-.056-.172-.058-.174q-.11-.318-.237-.629-.016-.037-.03-.073-.133-.317-.282-.624l-.041-.086q-.05-.1-.101-.2-.039-.075-.079-.148l-.113-.203-.076-.136q-.106-.181-.217-.356l-.04-.062a10 10 0 0 0-.189-.284q-.03-.046-.064-.091a12 12 0 0 0-.309-.42 10 10 0 0 0-.305-.373q-.058-.067-.118-.135l-.11-.123-.132-.138-.113-.117q-.069-.068-.139-.135l-.114-.109-.145-.13c-.038-.032-.075-.068-.115-.1q-.076-.064-.153-.125-.056-.047-.114-.092a5 5 0 0 0-.165-.123l-.108-.08q-.095-.066-.189-.128l-.089-.062q-.142-.09-.286-.174l-9.492-5.48a6 6 0 0 0-.243-.132.5.5 0 0 1-.08-.034"/><path fill="#DDD2CA" d="M164.722 68.88c-3.123-1.803-6.077-.155-6.594 3.68l-.593 4.4 20.804 12.013.594-4.4c.518-3.837-1.595-8.409-4.719-10.212z"/><path fill="#B7A89E" d="m184.148 81.105.016-.01q.087-.049.176-.087h.001l.006-.003q.078-.033.159-.056.01-.003.021-.005l.056-.013q.042-.012.084-.02l.053-.006.061-.008c.016 0 .032-.005.048-.005q.05-.001.102 0 .023-.001.047 0h.015q.086.003.174.017.005 0 .011.003.028.004.052.011.064.011.128.027.013.005.026.009.062.02.124.042.043.013.086.03l.031.014.039.018a2.6 2.6 0 0 1 .372.21l.051.037q.054.04.106.08l.058.047.096.084.057.052c.011.012.023.02.034.032l.038.04q.057.06.112.12l.036.038q.016.017.03.036l.066.08.043.052.034.046.048.064.032.043.053.078.033.049q.006.009.013.02.046.071.088.145l.005.01q.01.015.017.03.03.051.058.104.013.023.024.048l.026.052.023.046q.028.057.052.115l.012.025.004.007.063.153.009.026.019.055.028.08.018.057.022.07.014.047.018.075.022.088.007.032.011.061q.013.068.023.134.003.018.006.038.005.042.008.082l.006.06q.008.095.008.186l-.049 17.064c0 .222-.079.38-.206.453l-18.266 10.615c.127-.074.207-.231.207-.453l.048-17.063q0-.092-.007-.186-.002-.03-.007-.06-.005-.06-.014-.121a2 2 0 0 0-.023-.134l-.018-.093q-.01-.043-.022-.087-.015-.06-.032-.12l-.021-.072-.047-.137-.019-.055a3 3 0 0 0-.087-.21q-.037-.081-.076-.162-.012-.025-.025-.051l-.082-.153-.017-.03-.108-.174-.033-.048a2 2 0 0 0-.085-.122l-.047-.064-.077-.098-.067-.08-.065-.075-.185-.192-.056-.053a4 4 0 0 0-.154-.13q-.053-.043-.107-.08l-.051-.037a4 4 0 0 0-.16-.103 3 3 0 0 0-.211-.108l-.038-.018q-.058-.024-.117-.043a1.6 1.6 0 0 0-.278-.079q-.027-.006-.053-.011a2 2 0 0 0-.2-.02h-.046q-.075 0-.15.007l-.062.008a2 2 0 0 0-.137.025l-.055.013a2 2 0 0 0-.181.062l-.005.001a2 2 0 0 0-.194.096z"/><path fill="#EFB7B9" d="M153.696 69.047s-.859 2.733-1.233 3.49c-.375.756-7.046 11.14-7.046 11.14l2.046.374s6.409-7.425 7.484-8.834c1.076-1.41 2.333-3.974 2.333-3.974z"/><path fill="#81ADE7" d="m159.471 107.168.225 1.172s-.091 1.844-1.293 2.026-1.65-.93-1.65-.93l.338-2.494z"/><path fill="#00001F" d="M159.11 112.292c.159-.666.379-1.307.586-1.502.094-.089.131-.35.136-.672-.681.514-.656 1.43-.722 2.174"/><path fill="#2748BE" d="M159.696 108.34s-.238 1.708-2.943 1.097c-.345 1.18-1.457 3.107-1.729 3.402-.193.21-.801 1.64-.651 2.593.233.366.747.822 1.74.311 0 0 1.666-.748 2.851-2.732v-.001c.039-.229.087-.474.146-.717.066-.743.041-1.659.722-2.174.013-.735-.136-1.779-.136-1.779"/><path fill="#00001F" d="M156.113 115.741c-.993.512-1.507.056-1.74-.31.06.385.243.693.628.809 1.337.408 3.81-1.927 3.901-2.789a9 9 0 0 1 .061-.442v.001c-1.185 1.984-2.85 2.731-2.85 2.731"/><path fill="#81ADE7" d="M147.675 101.385s.431 1.021-.59 2.041c.227 1.52 1.656 2.131 3.538 1.836.544-1.179.522-1.672.522-1.672s-.454-.89-.749-2.726c-1-.223-2.721.521-2.721.521"/><path fill="#2748BE" d="M144.886 107.474c1.032-.307 1.803-1.01 2.347-1.281.544-.272 1.52-.171 2.063-.171 2.2.171 2.279-.737 2.279-.737-.011-.612.035-1.77-.43-1.696-.159.38-1.384 1.503-3.584.8-.056-.306-.056-.918-.476-1.201-.215-.08-.906.935-2.03 1.499-1.122.564-4.037 1.506-3.595 2.843 1.067.499 2.394.25 3.426-.056"/><path fill="#00001F" d="M151.577 105.285s-.08.906-2.279.737c-.544 0-1.52-.103-2.064.171-.544.273-1.316.974-2.347 1.281-1.032.306-2.358.555-3.424.056 0 0 .635 1.089 3.334.227 1.497-.522 2.11-1.318 2.79-1.385s1.747 0 1.747 0 .034.184.543.172c.508-.012 1.949-.363 1.7-1.259"/><path fill="#101E67" d="M157.087 79.725s-12.13 4.483-13.481 5.825c-1.352 1.341 3.62 16.039 3.62 16.039s2.152 1.397 3.754-.255c-.167-2.832-2.475-12.179-2.782-12.809.134-.272 11.202-4.03 11.202-4.03l1.996 1.247s-6.941 4.6-7.076 5.687c-.136 1.087 2.114 16.783 2.114 16.783s2.122 1.632 3.709-.55c-.59-12.493-1.514-14.057-1.015-14.466s13.234-5.647 9.58-10.49c-2.73-2.526-11.621-2.981-11.621-2.981"/><path fill="#ACC9EF" d="m143.175 87.616.08.046q.03.023.061.04l9.147 5.281q.12.068.203.039c.225.028.485-.016.678-.126l6.319-3.649c.146-.084.224-.19.232-.293l.001.286h-.003c.002.109-.074.224-.229.314l-6.319 3.649c-.281.162-.711.18-.954.04l-9.215-5.32c-.103-.06-.154-.139-.16-.222v-.003a.2.2 0 0 1 0-.049v-.233c.011.074.064.145.159.2"/><path fill="#C7E3FE" d="m143.254 87.663-.081-.047c-.095-.055-.147-.125-.16-.201l-.003-.02c.076.11.159.203.244.267M159.661 89.248l-6.319 3.648c-.192.11-.452.154-.677.126a.14.14 0 0 0 .063-.041l.149-.105q.013-.007.026-.018l.021-.016h-.001c.065-.07.091-.207.058-.396l-.068-.383 3.279-1.893c.164-.095.182-.24.04-.322l-4.131-2.384-.1-.566 1.515.875c.064.037.177.032.251-.01l1.662-.96c.074-.042.082-.108.018-.145l-2.423-1.399c-.064-.037-.177-.032-.251.01l-.961.554-.254-1.44a1.5 1.5 0 0 0-.2-.518l8.37 4.832c.118.068.171.16.163.257-.005.103-.083.21-.23.294"/><path fill="#A8CBF1" d="M152.774 85.269c.074-.043.187-.048.251-.01l2.422 1.398c.064.038.057.103-.018.145l-1.661.96c-.075.042-.188.047-.252.01l-1.514-.875-.19-1.074z"/><path fill="#313D73" d="M156.233 89.849c.143.082.125.227-.039.322l-3.279 1.892-.811-4.6z"/><path fill="#EFB7B9" d="M170.456 77.19c-2.284 1.27-4.676.242-4.676.242l-.758 3.507-2.622 2.113-.224.083c-2.263-.574-3.602-1.398-4.329-2.115.751.742 2.157 1.6 4.569 2.175-1.734.957-2.66 1.72-5.336 3.515-.119.796-.109 1.789.908 1.849.32-.043 10.247-3.849 11.064-5.243.362-.618 1.021-3.442 1.456-6.48z"/><path fill="#3D68FF" d="m170.935 71.438-.001-.064-.005-.212-.003-.06q-.004-.107-.009-.21 0-.022-.003-.04l-.011-.193-.003-.036-.016-.201-.004-.046q-.01-.097-.021-.191l-.005-.041-.026-.189-.003-.022q-.014-.089-.03-.173l-.004-.026-.034-.169-.008-.033a3 3 0 0 0-.039-.158l-.007-.028q-.022-.08-.045-.153l-.004-.01a3 3 0 0 0-.049-.139l-.006-.017a2 2 0 0 0-.054-.127q-.005-.013-.01-.022l-.068-.131a2 2 0 0 0-.067-.106l-.001-.003a1 1 0 0 0-.071-.091l-.01-.012a1 1 0 0 0-.088-.088l-.08-.062-.013-.008a1 1 0 0 0-.09-.048c-.601-.856-2.084-2.733-3.918-4.132a12 12 0 0 0-.659-.472l-.011-.008c-.708-.468-1.456-.845-2.215-1.057a5 5 0 0 0-.429-.092 17 17 0 0 0-2.626-.226h-.004c-.41-.002-1.716-.241-2.904.481-2.134 1.297-3.584 6.22-3.584 6.22.175 1.189 2.596 2.24 3.584 2.196l.284-.95.26 1.642c.103.65.203 1.229.278 1.577.148.674-.183 2.308-.501 3.755-.26 1.182-.512 2.241-.485 2.55l.009.067.004.02q.005.025.012.052.004.017.01.035l.013.043.016.045.014.037.025.056.014.032.032.064.014.027.054.095.051.08.012.018.061.088.011.014q.034.046.073.095l.007.01.09.106.096.106.004.003.108.11.001.002c.726.716 2.065 1.54 4.329 2.115l.223-.084 2.623-2.112.758-3.507s2.391 1.027 4.676-.242l.051-.354.006-.042q.022-.154.043-.308l.007-.057.046-.356.022-.17.008-.062.035-.283.011-.093.028-.247.012-.104.022-.204.015-.145.014-.142.017-.168.015-.166.013-.14.015-.178.013-.154.009-.118.016-.211.007-.114.013-.215.005-.098q.006-.089.009-.176l.005-.11.008-.194.003-.088.006-.22.001-.083.004-.22v-.066l.001-.194v-.054z"/><path fill="#FFCB33" d="M166.083 74.169c.06 1.584-.378 6.615-.638 6.934-.259.14-3.029 2.092-3.029 2.092a16 16 0 0 1-.555-.143c3.368-1.758 3.714-5.446 4.222-8.883"/><path fill="#EFB7B9" d="M157.08 86.71c.269-.01.889.02 1.168.749.28.728-.39 1.717-2.456 2.295-.409.1-1.282.64-1.722 1.083-.439.444-.963.435-.974.164-.01-.27.708-.963 1.362-1.388-.164-.1-.827.206-1.097.475-.271.27-.792.787-1.473.704-.379-.04-1.403-.43-1.267-.76.818-.688 1.143-2.056 1.937-2.101s2.084-.539 2.923-.853c.838-.314 1.599-.368 1.599-.368"/><path fill="#D8EEFE" d="m151.56 84.383.254 1.44.189 1.075.1.565.811 4.6.068.384c.033.189.008.326-.058.395l.002.002-.022.015q-.013.01-.026.018l-.149.105c.066-.07.091-.208.058-.396l-1.422-8.063c-.063-.36-.313-.767-.554-.906l-9.147-5.281c-.098-.057-.18-.06-.239-.023l.186-.132.002.002c.059-.045.143-.046.244.013l9.147 5.281c.125.072.253.217.354.389.098.159.172.344.202.517"/><path fill="#ACC9EF" d="m141.339 78.733 1.423 8.063c.036.202.131.42.25.597.074.11.159.204.243.268q.03.024.061.04l9.147 5.282q.12.068.203.038a.14.14 0 0 0 .063-.041c.066-.07.091-.208.058-.396l-1.422-8.063c-.063-.36-.313-.767-.554-.906l-9.147-5.281c-.098-.057-.18-.06-.239-.023q-.003.001-.006.005l-.004.002c-.079.062-.113.21-.076.415m5.674 6.3c.44.503.582 1.097.32 1.327-.263.23-.833.007-1.273-.497s-.582-1.097-.319-1.327.832-.008 1.272.496"/><path fill="#fff" d="M147.327 86.36c.263-.23.12-.824-.319-1.328-.44-.504-1.009-.726-1.272-.497-.263.23-.12.824.319 1.328s1.009.726 1.272.497"/><path fill="#E8A5A8" d="M161.726 63.779v-.005c.002-.022 0-.042.003-.064.022-.212-.01-.337-.076-.43a.65.65 0 0 0-.196-.17c-.159-1.027 3.493-2.37 3.493-2.37s.062 1.16.191 1.998a4 4 0 0 0 .143.65c.266.413-.103 1.75-2.529 1.91-.29-.061-.439-.15-.439-.15s-.611-.673-.59-1.369"/><path fill="#A0636D" d="M166.311 59.851s2.292-2.077.599-4.907c-.713-.599-3.216 1.349-3.216 1.349l-.171 4.178z"/><path fill="#EFB7B9" d="M159.618 55.448s-.453 1.556-.363 2.734c-.332 1.24-.916 4.125.018 4.805s3.668.044 4.287-.575c.62-.62 1.406-1.602 1.406-1.602s.582.099 1.08-.256.914-1.511-.159-1.746c-.416-.023-.899.514-1.027.786-.129.272-.28.25-.28.25l-.249-.13s.232-1.517-.382-2.393c-.181-.312-.228-.475-.255-1.028.234-.392-4.076-.845-4.076-.845"/><path fill="#A0636D" d="M166.91 54.944s-.484-3.063-5.006-1.772c-.635.04-1.289-.847-2.608.2-.685.524-.796 4.272 4.814 2.821 1.279-.413 2.227-1.31 2.8-1.249"/><path fill="#FDD786" d="m159.619 54.218.01-.01zM159.578 54.262l.041-.045z"/><path fill="#7375A8" d="M166.33 59.446c.006-.265-.157-1.172-.157-1.172-.522-1.98-1.762-3.878-3.21-4.714a2.9 2.9 0 0 0-1.218-.398c.157.048 3.412 1.84 3.97 7.436.354-.227.658-.605.615-1.15q-.002 0 0-.002"/><path fill="#121633" d="m166.368 58.998-.391-.227-.003.004c-.141-.087-.326-.087-.531.032-.441.254-.797.937-.797 1.524 0 .321.107.542.275.64l-.002.006.43.248.152-.332c.413-.28.74-.922.74-1.483 0-.042-.005-.077-.009-.116z"/><path fill="#121633" d="M165.714 60.6c-.452-4.075-2.191-6.546-3.971-7.436.261.26 3.033 1.526 3.89 7.4l-.001.086zM165.48 60.84l.005-.007-.093-.005c-.716 1.01-1.548 1.522-2.316 1.531q.117.06.238.1c.73-.11 1.5-.651 2.166-1.618"/><path fill="#121633" d="M163.159 62.669a.283.283 0 1 0 0-.567.283.283 0 0 0 0 .567"/><path fill="#7375A8" d="M166.505 60.377c.265-.623.195-1.25-.158-1.4s-.853.234-1.118.857-.195 1.25.158 1.4c.352.15.853-.234 1.118-.857"/><path fill="#EFB7B9" d="m170.536 68.879.011.022zM170.932 72.19l-.001.085zM170.4 68.64l.002.004q-.001-.003-.002-.003M170.715 75.217l-.028.248zM170.319 68.536l.01.012zM170.6 69.028l.006.019zM170.933 71.373l.001.065zM170.468 68.748l.01.017zM170.749 74.907l-.022.204q.01-.102.022-.204M170.635 75.902l-.022.17zM170.605 76.127l-.04.302q.021-.152.04-.302M170.675 75.557l-.034.283q.019-.142.034-.283M170.138 68.38l.013.008zM170.914 70.851q0 .02.003.04-.002-.02-.003-.04M170.88 73.373l-.008.112zM170.898 73.06l-.005.099zM157.847 81.02l-.108-.11zM170.777 74.622l-.014.142zM170.836 73.97l-.016.177zM170.9 70.623l.002.036zM170.655 69.186l.004.01q-.001-.007-.004-.01M170.856 73.698q-.004.06-.009.118.006-.058.009-.118M170.79 69.736l.004.025q-.001-.014-.004-.025M170.823 69.934l.004.022zM170.749 69.533l.008.034zM170.703 69.347l.008.029zM170.923 72.493l-.003.088zM170.878 70.376l.004.046zM170.913 72.774l-.005.11q.001-.054.005-.11M170.853 70.143l.005.041zM170.926 71.102l.002.06zM157.22 80.171l-.025-.055zM157.634 80.794l-.085-.1zM157.151 79.992l-.01-.035q.007.017.01.035M157.183 80.08l-.017-.046q.006.024.017.045M157.323 80.367l-.042-.073q.02.035.042.073M158.103 73.51c.147.675-.183 2.309-.501 3.756.318-1.447.648-3.08.501-3.755M157.13 79.904l-.004-.02zM157.267 80.268q-.017-.033-.032-.065.014.032.032.065M170.558 76.485l-.042.308zM157.735 80.906l-.096-.105zM165.459 63.719c-.708-.468-1.454-.845-2.214-1.057.759.212 1.506.59 2.214 1.057M157.387 80.47l-.052-.082z"/><path fill="#D8EEFE" d="m159.76 69.953.004-.002q-.004.001-.004.002"/><path fill="#FFCB33" d="m157.565 70.293-.345-1.757.061 2.706z"/><path fill="#F1F3F4" d="M161.331 42.31a.52.52 0 0 1 .233.405c0 .148-.105.21-.236.134l-13.931-8.042a.52.52 0 0 1-.234-.406c0-.148.107-.21.236-.134z"/><path fill="#979797" d="M156.977 38.073a.52.52 0 0 1 .234.405c0 .148-.106.21-.236.134l-9.573-5.526a.52.52 0 0 1-.234-.406c0-.148.107-.21.236-.134z"/><path fill="#3EB66F" d="M145.802 30.376c.138.08.267.381.151.487l-.837.755c-.03.027-.083.018-.136-.013a.4.4 0 0 1-.142-.148l-.451-.88c-.123-.24.008-.39.15-.308q.069.037.129.149l.306.597q.352-.316.703-.633c.039-.033.083-.031.127-.006"/><path fill="#979797" d="M157.036 17.513a.52.52 0 0 1 .234.405c0 .149-.106.21-.236.135l-9.573-5.527a.52.52 0 0 1-.234-.406c0-.148.107-.209.236-.134zM157.858 27.916a.52.52 0 0 1 .234.405v.176c0 .149-.107.21-.236.135l-12.842-7.415a.52.52 0 0 1-.234-.405v-.176c0-.148.106-.21.236-.135z"/><path fill="#fff" d="M169.172 42.59c.837.483 1.52 1.667 1.517 2.63l-.011 3.8c-.003.962-.69 1.354-1.528.87l-29.134-16.822c-.837-.483-1.52-1.665-1.517-2.628l.011-3.8c.003-.963.69-1.354 1.527-.87zm-3.198 4.186c1.141.658 2.069.13 2.072-1.18s-.919-2.908-2.059-3.566-2.069-.13-2.072 1.181.917 2.907 2.059 3.565m-4.645-3.927c.129.075.235.014.236-.134a.52.52 0 0 0-.233-.406L147.4 34.268c-.129-.075-.235-.014-.236.134 0 .148.105.332.234.405zm-13.925-10.302c-.129-.075-.235-.015-.236.134 0 .148.105.33.234.406l9.573 5.526c.129.075.235.014.236-.134a.52.52 0 0 0-.234-.405z"/><path fill="#C3D0FF" d="M169.726 33.116c1.512.873 2.733 2.99 2.729 4.727s-1.234 2.438-2.746 1.565c-1.512-.872-2.734-2.988-2.729-4.726s1.234-2.438 2.746-1.566"/><path fill="#fff" d="M174.545 34.635c.78.46 1.417 1.583 1.415 2.498l-.016 5.87c-.002.914-.643 1.287-1.423.827l-36.924-21.739c-.78-.46-1.417-1.583-1.414-2.498l.016-5.87c.002-.915.643-1.287 1.423-.827zm-4.838 4.773c1.512.873 2.743.173 2.747-1.565s-1.217-3.854-2.73-4.727c-1.511-.872-2.741-.171-2.746 1.566s1.217 3.854 2.729 4.726m-5.844-5.294v-.176a.52.52 0 0 0-.233-.406l-18.619-10.75c-.129-.074-.235-.013-.236.135v.176c0 .148.105.33.234.406l18.619 10.75c.129.073.234.013.235-.135m-19.082-13.478v.176c0 .148.105.33.234.405l12.842 7.415c.13.074.235.014.236-.135v-.176a.52.52 0 0 0-.233-.405L145.017 20.5c-.13-.074-.236-.014-.236.135M169.23 22.03c.838.483 1.521 1.666 1.518 2.627l-.011 3.8c-.003.963-.69 1.355-1.528.87l-29.134-16.82c-.838-.484-1.521-1.666-1.517-2.629l.01-3.8c.003-.963.691-1.354 1.527-.87zm-3.199 4.186c1.141.659 2.069.13 2.073-1.181.003-1.31-.919-2.907-2.06-3.566-1.14-.658-2.069-.129-2.072 1.181s.919 2.907 2.059 3.566m-4.643-3.926c.129.074.235.014.236-.135a.52.52 0 0 0-.234-.405l-13.932-8.043c-.129-.075-.234-.015-.235.134s.104.331.233.406zm-13.925-10.304c-.129-.075-.235-.014-.236.134 0 .149.104.331.234.406l9.573 5.527c.129.074.234.015.235-.135a.52.52 0 0 0-.233-.405z"/><path fill="#C3D0FF" d="M165.987 42.03c1.14.658 2.062 2.254 2.059 3.565s-.932 1.838-2.072 1.18-2.062-2.254-2.059-3.565c.004-1.31.931-1.84 2.072-1.18"/><path fill="#F1F3F4" d="M163.63 33.533a.52.52 0 0 1 .234.405v.176c0 .148-.107.21-.236.134l-18.619-10.75a.52.52 0 0 1-.234-.405v-.176c0-.148.106-.21.236-.134zM161.389 21.75a.52.52 0 0 1 .234.405c0 .148-.106.21-.236.135l-13.932-8.043a.52.52 0 0 1-.233-.406c0-.148.106-.209.236-.134z"/><path fill="#C3D0FF" d="M167.502 26.352c.806-.468.804-1.974-.004-3.364s-2.116-2.138-2.922-1.67c-.805.468-.803 1.974.005 3.365.808 1.39 2.116 2.137 2.921 1.67"/><path fill="#1A2C6B" d="M150.386 66.557q-.081-2.887-.108-5.773c-.013-.962-.016-1.923-.024-2.886l-.007-2.886.007-2.886c.008-.963.011-1.924.024-2.886q.027-2.887.108-5.773.082 2.887.109 5.773c.013.962.016 1.923.024 2.886l.007 2.886-.007 2.886c-.008.963-.011 1.924-.024 2.886a300 300 0 0 1-.109 5.773"/></g><defs><clipPath id="a"><path fill="#fff" d="M0 0h302v155H0z"/></clipPath></defs></svg>