<svg width="64" height="82" viewBox="0 0 64 82" fill="none" xmlns="http://www.w3.org/2000/svg">
<g id="zoom">
<g id="Object">
<g id="Settings_File">
<path id="Path" d="M62.6231 20.6932L63.2926 77.4854C63.2926 79.3822 61.7305 80.9443 59.8337 80.9443H4.54773C2.65093 80.9443 1.08887 79.3822 1.08887 77.4854V4.45886C1.08887 2.56207 2.65093 1 4.54773 1H44.6036L62.6231 20.6932Z" fill="white"/>
<path id="Path_2" d="M62.6796 21.083L63.2933 77.7079C63.2933 79.5489 61.8428 80.9994 60.0018 80.9994H7.56103C5.72002 80.9994 4.26953 79.5489 4.26953 77.7079V7.24755C4.26953 5.40654 5.72002 3.95605 7.56103 3.95605H47.5053L62.6796 21.083Z" fill="#EAF6FF"/>
<path id="Path_3" d="M44.6592 1.05566V16.7321C44.6592 18.9078 46.556 20.7488 48.7317 20.7488H62.6787" fill="white"/>
<path id="Path_4" d="M46.6123 2.61768V16.8436C46.6123 18.7962 48.3417 20.4699 50.2943 20.4699H62.9582" fill="#96C5FF"/>
<path id="Path_5" d="M46.6123 5.51855V19.7445C46.6123 21.6971 48.3417 23.3707 50.2943 23.3707H62.9582V20.4698" fill="#96C5FF"/>
<path id="Path_6" d="M44.6592 13.2729V16.676C44.6592 18.8518 46.556 20.6928 48.7317 20.6928H62.6787" stroke="#3A6CFF" stroke-width="0.921905" stroke-linecap="round" stroke-linejoin="round"/>
<path id="Path_7" d="M44.6598 1.05566V9.47966" stroke="#3A6CFF" stroke-width="0.921905" stroke-linecap="round" stroke-linejoin="round"/>
<path id="Path_8" d="M1.08949 19.6892V18.9082" stroke="#3A6CFF" stroke-width="0.921905" stroke-linecap="round" stroke-linejoin="round"/>
<path id="Path_9" d="M1.08887 14.8911V4.51452C1.08887 2.61773 2.65093 1.05566 4.54773 1.05566H44.6036L62.6231 20.7488L63.2926 77.5411C63.2926 79.4379 61.7305 80.9999 59.8337 80.9999H4.54773C2.65093 80.9999 1.08887 79.4379 1.08887 77.5411V28.336" stroke="#3A6CFF" stroke-width="0.921905" stroke-linecap="round" stroke-linejoin="round"/>
<path id="Path_10" d="M51.2987 37.318V35.3654C51.2987 34.8633 50.9082 34.417 50.4061 34.3055L49.5693 34.1939C49.1788 34.1381 48.844 33.8592 48.7324 33.5244C48.6209 33.2455 48.5093 32.9666 48.3977 32.7434C48.2304 32.4087 48.2861 31.9624 48.5093 31.6834L49.0114 31.014C49.3461 30.6235 49.2903 30.0098 48.8998 29.6193L47.5051 28.2246C47.1146 27.8341 46.5567 27.8341 46.1104 28.113L45.441 28.6151C45.1062 28.8382 44.7157 28.894 44.381 28.7267C44.102 28.6151 43.8789 28.5035 43.5999 28.3919C43.2094 28.2804 42.9863 27.9456 42.9305 27.5551L42.8189 26.7183C42.7631 26.2162 42.3168 25.8257 41.7589 25.8257H39.8064C39.3043 25.8257 38.858 26.2162 38.7464 26.7183L38.6348 27.5551C38.579 27.9456 38.3001 28.2804 37.9654 28.3919C37.6864 28.5035 37.4075 28.6151 37.1843 28.7267C36.8496 28.894 36.4033 28.8382 36.1243 28.6151L35.4549 28.113C35.0644 27.7783 34.4507 27.8341 34.0602 28.2246L32.6655 29.6193C32.275 30.0098 32.275 30.5677 32.5539 31.014L33.056 31.6834C33.2792 32.0182 33.3349 32.4087 33.1676 32.7434C33.056 33.0223 32.9444 33.2455 32.8329 33.5244C32.7213 33.915 32.3865 34.1381 31.996 34.1939L31.1592 34.3055C30.6571 34.3613 30.2666 34.8076 30.2666 35.3654V37.318C30.2666 37.8201 30.6571 38.2664 31.1592 38.378L31.996 38.4896C32.3865 38.5454 32.7213 38.8243 32.8329 39.159C32.9444 39.438 33.056 39.7169 33.1676 39.9401C33.3349 40.2748 33.2792 40.7211 33.056 41L32.5539 41.6695C32.2192 42.06 32.275 42.6737 32.6655 43.0642L34.0602 44.4589C34.4507 44.8494 35.0086 44.8494 35.4549 44.5705L36.1243 44.0684C36.4591 43.8452 36.8496 43.7894 37.1843 43.9568C37.4633 44.0684 37.6864 44.18 37.9654 44.2915C38.3559 44.4031 38.579 44.7378 38.6348 45.1283L38.7464 45.9652C38.8022 46.4673 39.2485 46.8578 39.8064 46.8578H41.7589C42.261 46.8578 42.7073 46.4673 42.8189 45.9652L42.9305 45.1283C42.9863 44.7378 43.2652 44.4031 43.5999 44.2915C43.8789 44.18 44.1578 44.0684 44.381 43.9568C44.7157 43.7894 45.162 43.8452 45.441 44.0684L46.1104 44.5705C46.5009 44.9052 47.1146 44.8494 47.5051 44.4589L48.8998 43.0642C49.2903 42.6737 49.2903 42.1158 49.0114 41.6695L48.5093 41C48.2861 40.6653 48.2304 40.2748 48.3977 39.9401C48.5093 39.6611 48.6209 39.438 48.7324 39.159C48.844 38.7685 49.1788 38.5454 49.5693 38.4896L50.4061 38.378C50.9082 38.2664 51.2987 37.8759 51.2987 37.318Z" fill="white"/>
<path id="Path_11" d="M42.9859 50.6512V47.9734C42.9859 47.2481 42.4838 46.6344 41.7585 46.5229L40.6428 46.3555C40.0849 46.2997 39.6944 45.9092 39.4712 45.4071C39.3596 45.0166 39.1923 44.6819 39.0249 44.3471C38.8018 43.845 38.8575 43.2872 39.1923 42.8409L39.8617 41.9482C40.308 41.3904 40.2522 40.5535 39.7502 40.0514L37.8534 38.1547C37.3513 37.6526 36.5702 37.5968 35.9566 38.0431L35.064 38.7125C34.6177 39.0473 34.0598 39.1031 33.5577 38.8799C33.2229 38.7125 32.8324 38.5452 32.4977 38.4336C31.9956 38.2662 31.6051 37.8199 31.5493 37.262L31.3819 36.1463C31.2704 35.421 30.6567 34.9189 29.9315 34.9189H27.2536C26.5284 34.9189 25.9147 35.421 25.8031 36.1463L25.6358 37.262C25.58 37.8199 25.1895 38.2104 24.6874 38.4336C24.2969 38.5452 23.9621 38.7125 23.6274 38.8799C23.1253 39.1031 22.5674 39.0473 22.1211 38.7125L21.2285 38.0431C20.6706 37.5968 19.8338 37.6526 19.3317 38.1547L17.4349 40.0514C16.9328 40.5535 16.877 41.3346 17.3234 41.9482L17.9928 42.8409C18.3275 43.2872 18.3833 43.845 18.1602 44.3471C17.9928 44.6819 17.8254 45.0724 17.7139 45.4071C17.5465 45.9092 17.1002 46.2997 16.5423 46.3555L15.4266 46.5229C14.7013 46.6344 14.1992 47.2481 14.1992 47.9734V50.6512C14.1992 51.3764 14.7013 51.9901 15.4266 52.1017L16.5423 52.269C17.1002 52.3248 17.4907 52.7153 17.7139 53.2174C17.8254 53.6079 17.9928 53.9427 18.1602 54.2774C18.3833 54.7795 18.3275 55.3374 17.9928 55.7837L17.3234 56.6763C16.877 57.2342 16.9328 58.071 17.4349 58.5731L19.3317 60.4699C19.8338 60.972 20.6148 61.0278 21.2285 60.5815L22.1211 59.912C22.5674 59.5773 23.1253 59.5215 23.6274 59.7446C23.9621 59.912 24.3526 60.0794 24.6874 60.1909C25.1895 60.3583 25.58 60.8046 25.6358 61.3625L25.8031 62.4783C25.9147 63.2035 26.5284 63.7056 27.2536 63.7056H29.9315C30.6567 63.7056 31.2704 63.2035 31.3819 62.4783L31.5493 61.3625C31.6051 60.8046 31.9956 60.4141 32.4977 60.1909C32.8882 60.0794 33.2229 59.912 33.5577 59.7446C34.0598 59.5215 34.6177 59.5773 35.064 59.912L35.9566 60.5815C36.5144 61.0278 37.3513 60.972 37.8534 60.4699L39.7502 58.5731C40.2522 58.071 40.308 57.29 39.8617 56.6763L39.1923 55.7837C38.8575 55.3374 38.8018 54.7795 39.0249 54.2774C39.1923 53.9427 39.3596 53.5522 39.4712 53.2174C39.6386 52.7153 40.0849 52.3248 40.6428 52.269L41.7585 52.1017C42.4838 51.9901 42.9859 51.3764 42.9859 50.6512Z" fill="white"/>
<path id="Path_12" d="M42.8193 33.3008C43.8235 33.9702 44.4929 35.086 44.4929 36.3691C44.4929 38.3775 42.8751 40.0511 40.8109 40.0511C38.7468 40.0511 37.1289 38.4333 37.1289 36.3691C37.1289 35.8112 37.2405 35.3092 37.4636 34.8628" stroke="#3A6CFF" stroke-width="0.921905" stroke-linecap="round" stroke-linejoin="round"/>
<path id="Path_13" d="M39.0249 33.134C39.0807 33.134 39.0807 33.0782 39.1365 33.0782" stroke="#3A6CFF" stroke-width="0.921905" stroke-linecap="round" stroke-linejoin="round"/>
<path id="Path_14" d="M43.6556 28.3919C43.2651 28.2804 43.0419 27.9456 42.9862 27.5551L42.8746 26.7183C42.8188 26.2162 42.3725 25.8257 41.8146 25.8257H39.862C39.3599 25.8257 38.9136 26.2162 38.8021 26.7183L38.6905 27.5551C38.6347 27.9456 38.3557 28.2804 38.021 28.3919C37.7421 28.5035 37.4631 28.6151 37.24 28.7267C36.9053 28.894 36.459 28.8382 36.18 28.6151L35.5106 28.113C35.12 27.7783 34.5064 27.8341 34.1159 28.2246L32.7212 29.6193C32.3306 30.0098 32.3306 30.5677 32.6096 31.014L33.1117 31.6834C33.3348 32.0182 33.3906 32.4087 33.2232 32.7434C33.1117 33.0223 33.0001 33.2455 32.8885 33.5244C32.7769 33.915 32.4422 34.1381 32.0517 34.1939L31.2149 34.3055C30.7128 34.3613 30.3223 34.8076 30.3223 35.3654V37.318C30.3223 37.8201 30.7128 38.2664 31.2149 38.378L32.0517 38.4896C32.4422 38.5454 32.7769 38.8243 32.8885 39.159C33.0001 39.438 33.1117 39.7169 33.2232 39.9401C33.3906 40.2748 33.3348 40.7211 33.1117 41L32.6096 41.6695C32.2748 42.06 32.3306 42.6737 32.7212 43.0642L34.1159 44.4589C34.5064 44.8494 35.0643 44.8494 35.5106 44.5705L36.18 44.0684C36.5147 43.8452 36.9053 43.7894 37.24 43.9568C37.5189 44.0684 37.7421 44.18 38.021 44.2915C38.4115 44.4031 38.6347 44.7378 38.6905 45.1284L38.8021 45.9652C38.8578 46.4673 39.3041 46.8578 39.862 46.8578H41.8146C42.3167 46.8578 42.763 46.4673 42.8746 45.9652L42.9862 45.1284C43.0419 44.7378 43.3209 44.4031 43.6556 44.2915C43.9346 44.18 44.2135 44.0684 44.4366 43.9568C44.7714 43.7894 45.2177 43.8452 45.4966 44.0684L46.1661 44.5705C46.5566 44.9052 47.1703 44.8494 47.5608 44.4589L48.9555 43.0642C49.346 42.6737 49.346 42.1158 49.0671 41.6695L48.565 41C48.3418 40.6653 48.286 40.2748 48.4534 39.9401C48.565 39.6611 48.6765 39.438 48.7881 39.159C48.8997 38.7685 49.2344 38.5454 49.6249 38.4896L50.4618 38.378C50.9638 38.3222 51.3544 37.8759 51.3544 37.318V35.3654C51.3544 34.8633 50.9638 34.417 50.4618 34.3055L49.6249 34.1939C49.2344 34.1381 48.8997 33.8592 48.7881 33.5244C48.6765 33.2455 48.565 32.9666 48.4534 32.7434C48.286 32.4087 48.3418 31.9624 48.565 31.6834L49.0671 31.014C49.4018 30.6235 49.346 30.0098 48.9555 29.6193L47.5608 28.2246C47.3376 28.0014 47.0587 27.8898 46.7797 27.9456" stroke="#3A6CFF" stroke-width="0.921905" stroke-linecap="round" stroke-linejoin="round"/>
<path id="Path_15" d="M24.2969 45.8533C25.2453 44.9607 26.4726 44.4028 27.9231 44.4028C30.7683 44.4028 33.0556 46.6901 33.0556 49.5353C33.0556 52.3805 30.7683 54.6678 27.9231 54.6678C25.0779 54.6678 22.7906 52.3805 22.7906 49.5353C22.7348 48.0848 23.3485 46.8017 24.2969 45.8533Z" fill="white"/>
<path id="Path_16" d="M25.2452 45.1286L25.301 45.0728" stroke="#1676EE" stroke-width="0.921905" stroke-linecap="round" stroke-linejoin="round"/>
<path id="Path_17" d="M28.9834 44.4595C31.3265 44.9616 33.1117 47.0257 33.1117 49.4804C33.1117 52.3256 30.8244 54.6129 27.9792 54.6129C25.134 54.6129 22.8467 52.3256 22.8467 49.4804C22.8467 48.532 23.1256 47.6394 23.5161 46.9141" stroke="#3A6CFF" stroke-width="0.921905" stroke-linecap="round" stroke-linejoin="round"/>
<path id="Path_18" d="M20.2246 37.8752C20.2804 37.8752 20.3362 37.931 20.3362 37.931L21.2846 38.6005C21.7309 38.9352 22.2888 38.991 22.7909 38.7678C23.1256 38.6005 23.5161 38.4331 23.9066 38.3215C24.4087 38.1542 24.7992 37.7079 24.855 37.15L25.0224 35.9784C25.134 35.2532 25.7476 34.6953 26.4729 34.6953" stroke="#3A6CFF" stroke-width="0.921905" stroke-linecap="round" stroke-linejoin="round"/>
<path id="Path_19" d="M17.4351 39.1028L17.5466 38.9912" stroke="#3A6CFF" stroke-width="0.921905" stroke-linecap="round" stroke-linejoin="round"/>
<path id="Path_20" d="M39.8623 52.6603C39.5275 52.8277 39.1928 53.1066 39.0812 53.4971C38.9696 53.8876 38.8023 54.2224 38.6349 54.6129C38.5233 54.8918 38.4676 55.1708 38.5233 55.4497C38.5791 55.6728 38.6349 55.9518 38.8023 56.1749L39.4717 57.1233C39.6949 57.4581 39.8065 57.8486 39.7507 58.2391C39.6949 58.518 39.5833 58.797 39.3602 59.0201L37.4076 60.9727C37.1844 61.1959 36.9055 61.3074 36.6265 61.3632C36.236 61.419 35.8455 61.3632 35.5108 61.0843L34.5624 60.4148C34.3392 60.2475 34.1161 60.1917 33.8929 60.1359C33.614 60.0801 33.2793 60.1359 33.0561 60.2475C32.7214 60.4148 32.3309 60.5822 31.9403 60.6938C31.4383 60.8611 31.0477 61.3074 30.992 61.8653L30.8246 63.0369C30.713 63.7621 30.0993 64.32 29.3741 64.32H26.6405C26.1942 64.32 25.8037 64.1526 25.5247 63.8179C25.3574 63.5948 25.19 63.3158 25.1342 63.0369L24.9668 61.8653C24.9111 61.6422 24.8553 61.419 24.6879 61.2517V61.2517C24.5205 61.0285 24.2416 60.8053 23.9627 60.6938C23.7953 60.638 23.5721 60.5822 23.4048 60.4706V60.4706C23.2374 60.4148 23.0143 60.3033 22.8469 60.2475C22.3448 60.0243 21.7869 60.0801 21.3406 60.4148L20.3922 61.0843C19.7786 61.5306 18.9975 61.4748 18.4396 60.9169L16.4871 58.9643C16.2081 58.6854 16.0965 58.3507 16.0408 58.0159C16.0408 57.6812 16.0965 57.3465 16.3197 57.0675L16.9891 56.1192C17.3239 55.6728 17.3797 55.115 17.1565 54.6129C16.9891 54.2781 16.8218 53.8876 16.7102 53.4971C16.5428 52.995 16.0965 52.6045 15.5387 52.5487L14.3671 52.3814C13.6419 52.2698 13.084 51.6561 13.084 50.9309V48.1972C13.084 47.472 13.6419 46.8583 14.3671 46.7468L15.5387 46.5794C16.0965 46.5236 16.5428 46.1331 16.7102 45.631C16.8218 45.2405 16.9891 44.9058 17.1565 44.5152C17.3797 44.0131 17.3239 43.4553 16.9891 43.009L16.3197 42.0606C16.2081 41.8932 16.1523 41.7816 16.0965 41.6143" stroke="#3A6CFF" stroke-width="0.921905" stroke-linecap="round" stroke-linejoin="round"/>
<path id="Path_21" d="M42.652 49.9819V50.8745" stroke="#3A6CFF" stroke-width="0.921905" stroke-linecap="round" stroke-linejoin="round"/>
</g>
</g>
</g>
</svg>
