<svg width="82" height="68" viewBox="0 0 82 68" fill="none" xmlns="http://www.w3.org/2000/svg">
<g id="Group 612">
<path id="Path" d="M47.5961 24.6846C47.2709 24.6846 46.8373 24.6846 46.3495 24.6846C42.7723 24.6846 41.0921 25.9312 40.2249 26.7984L39.3034 27.7198L39.2492 27.4488L38.5988 26.7984C36.9186 25.1182 34.1544 25.1182 32.4742 26.7984L32.3116 26.961C31.607 27.6656 30.4687 27.6656 29.7641 26.961L26.0243 23.2212L11.8779 37.3676L37.4064 62.896L39.1408 62.625L42.4471 65.9313C43.6937 67.1779 45.6449 67.1779 46.8915 65.9313C48.1381 64.6847 48.1381 62.7334 46.8915 61.4868L47.2709 61.8662C48.5176 63.1129 50.4688 63.1129 51.7154 61.8662L51.9322 61.6494C53.1788 60.4028 53.1788 58.4516 51.9322 57.205L51.9864 57.2592C53.233 58.5058 55.1842 58.5058 56.4308 57.2592L56.6476 57.0424C57.8943 55.7958 57.8943 53.8445 56.6476 52.5979L55.0216 50.9719C56.2682 52.2185 58.2195 52.2185 59.4661 50.9719L59.6829 50.7551C60.9295 49.5085 60.9295 47.5573 59.6829 46.3107L58.5447 45.1724L67.8672 35.8499L56.5392 24.522H53.504" fill="white"/>
<path id="Path_2" d="M60.0617 47.0147C61.2 48.2071 60.3327 50.4836 59.1945 51.676L58.9777 51.8928C57.7853 53.031 55.9425 53.031 54.7501 51.8928L56.3219 53.4646C57.4601 54.6028 57.4601 56.4998 56.3219 57.6922L56.1051 57.909C54.9669 59.0473 53.0699 59.0473 51.8774 57.909C52.9615 59.1015 52.9615 60.8901 51.8232 62.0283L51.6064 62.2451C50.4682 63.3833 48.5712 63.3833 47.3788 62.2451L47.0536 61.9199C48.1918 63.0581 48.1918 64.9551 47.0536 66.1475C45.9154 67.2857 44.0184 67.2857 42.8259 66.1475L39.6823 63.0039L38.0021 63.2207L13.7744 38.993L27.2162 25.5513L30.7392 29.0743C31.3896 29.7247 32.4736 29.7247 33.124 29.0743L33.2866 28.9117C34.9127 27.2857 37.5143 27.2857 39.0861 28.9117L39.7365 29.5621L39.7907 29.7789L40.6579 28.9117C41.4709 28.0445 43.0969 26.9063 46.4574 26.9063C49.1674 26.9063 49.1674 26.9063 49.1674 26.9063H56.2135L66.9452 37.638L59.0319 46.0391L60.0617 47.0147Z" fill="#F5FDF9"/>
<path id="Path_3" d="M58.2185 45.2264L47.1074 34.1153C47.9746 33.248 49.3296 33.248 50.1969 34.1153L59.7362 43.6546L58.2185 45.2264Z" fill="#89E5AF"/>
<path id="Path_4" d="M42.7716 33.4104L37.3516 38.8305L37.5684 39.0473C38.2188 39.6977 39.3028 39.6977 39.9532 39.0473L45.5359 33.4646L45.4817 33.4104C44.7228 32.6516 43.5304 32.6516 42.7716 33.4104Z" fill="#89E5AF"/>
<path id="Path_5" d="M30.1977 18.9921L10.4687 38.7212L3.53102 31.7835C2.77221 31.0247 2.77221 29.7239 3.53102 28.9651L20.4416 12.0545C21.2004 11.2956 22.5012 11.2956 23.26 12.0545L30.1977 18.9921Z" fill="#D3F1E0"/>
<path id="Path_6" d="M51.5518 19.4272L71.335 39.2104L78.3269 32.2185C79.0857 31.4597 79.0857 30.2673 78.3269 29.5627L61.2537 12.4895C60.4949 11.7307 59.3024 11.7307 58.5978 12.4895L51.5518 19.4272Z" fill="#D3F1E0"/>
<path id="Path_7" d="M51.4443 24.6846H56.5392" stroke="#1D8F8A" stroke-width="0.827489" stroke-linecap="round" stroke-linejoin="round"/>
<path id="Path_8" d="M48.5176 24.6846C48.6802 24.6846 48.7886 24.6846 48.8428 24.6846" stroke="#1D8F8A" stroke-width="0.827489" stroke-linecap="round" stroke-linejoin="round"/>
<path id="Path_9" d="M50.9561 47.0147L55.0212 51.0798C56.2678 52.3264 58.219 52.3264 59.4656 51.0798L59.6824 50.863C60.929 49.6164 60.929 47.6651 59.6824 46.4185L47.5415 34.2776C46.0239 32.76 43.639 32.76 42.1214 34.2776L40.1702 36.2288L39.4114 36.9876C36.8097 39.5351 32.6363 39.5351 30.0889 36.9876V36.9876L40.2244 26.8521C40.9832 26.0933 42.3382 25.0635 44.9398 24.7925" stroke="#1D8F8A" stroke-width="0.827489" stroke-linecap="round" stroke-linejoin="round"/>
<g id="Group">
<path id="Path_10" d="M28.2461 47.8827L24.5604 51.5684C23.368 52.7608 21.4168 52.7608 20.2786 51.5684L20.0076 51.2973C18.8152 50.1049 18.8152 48.1537 20.0076 47.0155L23.6932 43.3299C24.8856 42.1374 26.8369 42.1374 27.9751 43.3299L28.2461 43.6009C29.4385 44.7933 29.4385 46.6903 28.2461 47.8827Z" fill="#89E5AF"/>
<path id="Path_11" d="M34.5875 50.7011L26.9452 58.3434C25.7528 59.5358 23.8558 59.5358 22.6634 58.3434L22.3924 58.0724C21.1999 56.8799 21.1999 54.9829 22.3924 53.7905L30.0346 46.1482C31.2271 44.9558 33.1241 44.9558 34.3165 46.1482L34.5875 46.4192C35.7799 47.6116 35.7799 49.5629 34.5875 50.7011Z" fill="#89E5AF"/>
<path id="Path_12" d="M38.5987 53.953C38.7613 54.9286 38.4903 55.9584 37.7315 56.7172L32.8534 61.5952C31.661 62.7877 29.7098 62.7877 28.5174 61.5952L28.3006 61.3784C27.1081 60.186 27.1081 58.2348 28.3006 57.0424L33.1786 52.1643C34.371 50.9719 36.3223 50.9719 37.5147 52.1643L37.7315 52.3811C38.1651 52.8147 38.4903 53.4109 38.5987 53.953Z" fill="#89E5AF"/>
<path id="Path_13" d="M41.1999 62.4628L40.2785 63.3842L39.7907 62.8964L38.1104 63.1132L34.75 59.7528L36.647 57.8557C37.8394 56.6633 39.8449 56.6633 41.0373 57.8557L41.1999 58.0183C42.3923 59.265 42.3923 61.2704 41.1999 62.4628Z" fill="#89E5AF"/>
</g>
<path id="Path_14" d="M51.2813 47.3408L56.6472 52.7067C57.8938 53.9533 57.8938 55.9045 56.6472 57.1511L56.4304 57.3679C55.1838 58.6145 53.2326 58.6145 51.9859 57.3679L48.2461 53.6281" stroke="#1D8F8A" stroke-width="0.827489" stroke-linecap="round" stroke-linejoin="round"/>
<path id="Path_15" d="M47.4327 52.7598L51.9314 57.2584C53.178 58.505 53.178 60.4563 51.9314 61.7029L51.7146 61.9197C50.4679 63.1663 48.5167 63.1663 47.2701 61.9197L43.7471 58.3966" stroke="#1D8F8A" stroke-width="0.827489" stroke-linecap="round" stroke-linejoin="round"/>
<path id="Path_16" d="M44.9948 59.644L46.946 61.5953C48.1926 62.8419 48.1926 64.7931 46.946 66.0397V66.0397C45.6994 67.2863 43.7482 67.2863 42.5016 66.0397L39.1953 62.7335" stroke="#1D8F8A" stroke-width="0.827489" stroke-linecap="round" stroke-linejoin="round"/>
<g id="Group_2">
<path id="Path_17" d="M26.0244 48.3163L22.3388 52.0019C21.1464 53.1944 19.1951 53.1944 18.0569 52.0019L17.7859 51.7309C16.5935 50.5385 16.5935 48.5873 17.7859 47.4491L21.4716 43.7635C22.664 42.571 24.6152 42.571 25.7534 43.7635L26.0244 44.0345C27.2168 45.2269 27.2168 47.1239 26.0244 48.3163Z" fill="white"/>
<path id="Path_18" d="M32.3658 51.1889L24.7235 58.8312C23.5311 60.0236 21.6341 60.0236 20.4417 58.8312L20.1707 58.5601C18.9783 57.3677 18.9783 55.4707 20.1707 54.2783L27.813 46.636C29.0054 45.4436 30.9024 45.4436 32.0948 46.636L32.3658 46.907C33.5582 48.0452 33.5582 49.9964 32.3658 51.1889Z" fill="white"/>
<path id="Path_19" d="M36.376 54.4412C36.5386 55.4168 36.2676 56.4467 35.5088 57.2055L30.6308 62.0835C29.4383 63.2759 27.4871 63.2759 26.2947 62.0835L26.0779 61.8667C24.8855 60.6743 24.8855 58.7231 26.0779 57.5307L30.956 52.6526C32.1484 51.4602 34.0996 51.4602 35.292 52.6526L35.5088 52.8694C35.9966 53.303 36.2676 53.845 36.376 54.4412Z" fill="white"/>
<path id="Path_20" d="M38.978 62.8969L36.7558 65.1191C35.5633 66.3115 33.5579 66.3115 32.3655 65.1191L32.2029 64.9565C31.0105 63.7641 31.0105 61.7587 32.2029 60.5662L34.4251 58.344C35.6175 57.1516 37.623 57.1516 38.8154 58.344L38.978 58.5066C40.1704 59.7532 40.1704 61.7045 38.978 62.8969Z" fill="white"/>
</g>
<g id="Group_3">
<path id="Path_21" d="M25.4274 48.9112L21.7418 52.5969C20.8746 53.4641 19.4654 53.4641 18.544 52.5969L18.3272 52.3801C17.46 51.5129 17.46 50.1037 18.3272 49.1822L22.0128 45.4966C22.88 44.6294 24.2892 44.6294 25.2106 45.4966L25.4274 45.7134C26.3489 46.5806 26.3489 48.044 25.4274 48.9112Z" fill="#F5FDF9"/>
<path id="Path_22" d="M31.6053 51.9469L24.1256 59.4266C23.2584 60.2938 21.8492 60.2938 20.982 59.4266L20.8194 59.264C19.9521 58.3968 19.9521 56.9875 20.8194 56.1203L28.299 48.6406C29.1662 47.7734 30.5755 47.7734 31.4427 48.6406L31.6053 48.8032C32.4725 49.6163 32.4725 51.0255 31.6053 51.9469Z" fill="#F5FDF9"/>
<path id="Path_23" d="M35.1835 57.4753L30.1428 62.516C29.2214 63.4374 27.7038 63.4374 26.7824 62.516L26.6198 62.3534C25.6984 61.432 25.6984 59.9144 26.6198 58.9929L31.6604 53.9523C32.5818 53.0309 34.0995 53.0309 35.0209 53.9523L35.1835 54.1149C36.1049 55.0905 36.1049 56.5539 35.1835 57.4753Z" fill="#F5FDF9"/>
<path id="Path_24" d="M38.6524 63.2202L36.0508 65.8218C35.2377 66.6348 33.8827 66.6348 33.0697 65.8218L32.8529 65.605C32.0399 64.792 32.0399 63.437 32.8529 62.624L35.4546 60.0224C36.2676 59.2093 37.6226 59.2093 38.4356 60.0224L38.6524 60.2392C39.4654 61.0522 39.4654 62.4072 38.6524 63.2202Z" fill="#F5FDF9"/>
</g>
<g id="Group_4">
<path id="Path_25" d="M21.851 43.4374C23.0434 42.6244 24.6694 42.7328 25.7534 43.7626L26.0244 44.0336C27.2168 45.2261 27.2168 47.1773 26.0244 48.3155L22.3388 52.0011C21.1464 53.1935 19.1951 53.1935 18.0569 52.0011L17.7859 51.7301C16.5935 50.5377 16.5935 48.5865 17.7859 47.4483L19.8997 45.3345" stroke="#1D8F8A" stroke-width="0.827489" stroke-linecap="round" stroke-linejoin="round"/>
<path id="Path_26" d="M21.2547 59.4269C20.9295 59.2643 20.6585 59.1017 20.4417 58.8307L20.1707 58.5597C18.9783 57.3672 18.9783 55.4702 20.1707 54.2778L27.813 46.6355C29.0054 45.4431 30.9024 45.4431 32.0948 46.6355L32.3658 46.9065C33.5582 48.0989 33.5582 49.996 32.3658 51.1884L28.1924 55.3618" stroke="#1D8F8A" stroke-width="0.827489" stroke-linecap="round" stroke-linejoin="round"/>
<path id="Path_27" d="M36.1597 53.6814C36.7017 54.8196 36.4849 56.2288 35.5635 57.1502L30.6854 62.0283C29.493 63.2207 27.5418 63.2207 26.3494 62.0283L26.1326 61.8115C24.9402 60.619 24.9402 58.6678 26.1326 57.4754L31.0106 52.5974C31.8779 51.7301 33.1245 51.5133 34.2085 51.8927" stroke="#1D8F8A" stroke-width="0.827489" stroke-linecap="round" stroke-linejoin="round"/>
<path id="Path_28" fill-rule="evenodd" clip-rule="evenodd" d="M38.978 62.8959L36.7558 65.1181C35.5633 66.3105 33.5579 66.3105 32.3655 65.1181L32.2029 64.9555C31.0105 63.7631 31.0105 61.7577 32.2029 60.5653L34.4251 58.343C35.6175 57.1506 37.623 57.1506 38.8154 58.343L38.978 58.5056C40.1704 59.7523 40.1704 61.7035 38.978 62.8959Z" stroke="#1D8F8A" stroke-width="0.827489" stroke-linecap="round" stroke-linejoin="round"/>
</g>
<path id="Path_29" d="M39.3031 27.4488L38.6527 26.7984C36.9725 25.1182 34.2082 25.1182 32.528 26.7984L32.3654 26.961C31.6608 27.6656 30.5226 27.6656 29.818 26.961L26.0781 23.2212" stroke="#1D8F8A" stroke-width="0.827489" stroke-linecap="round" stroke-linejoin="round"/>
<path id="Path_30" d="M13.3413 38.8843L11.8779 37.4209" stroke="#1D8F8A" stroke-width="0.827489" stroke-linecap="round" stroke-linejoin="round"/>
<path id="Path_31" d="M15.5632 41.1072L15.4006 40.9446" stroke="#1D8F8A" stroke-width="0.827489" stroke-linecap="round" stroke-linejoin="round"/>
<path id="Path_32" d="M19.8448 45.3882L17.3516 42.895" stroke="#1D8F8A" stroke-width="0.827489" stroke-linecap="round" stroke-linejoin="round"/>
<path id="Path_33" d="M58.5439 45.281L67.8665 36.0127" stroke="#1D8F8A" stroke-width="0.827489" stroke-linecap="round" stroke-linejoin="round"/>
<path id="Path_34" d="M6.07778 37.7467L0.603516 32.2725" stroke="#1D8F8A" stroke-width="0.827489" stroke-linecap="round" stroke-linejoin="round"/>
<path id="Path_35" d="M29.6549 19.6973L8.78762 40.5103L7.86621 39.5347" stroke="#1D8F8A" stroke-width="0.827489" stroke-linecap="round" stroke-linejoin="round"/>
<circle id="Oval" cx="8.08354" cy="32.7608" r="1.78862" fill="white" stroke="#1D8F8A" stroke-width="0.827489" stroke-linecap="round" stroke-linejoin="round"/>
<path id="Path_36" d="M51.5518 19.6973L72.3648 40.5103L80.6033 32.2718" stroke="#1D8F8A" stroke-width="0.827489" stroke-linecap="round" stroke-linejoin="round"/>
<circle id="Oval_2" cx="73.0699" cy="32.7608" r="1.78862" fill="white" stroke="#1D8F8A" stroke-width="0.827489" stroke-linecap="round" stroke-linejoin="round"/>
<path id="Path_37" d="M41.7417 2.24515V0.998535" stroke="#49C2BD" stroke-width="0.827489" stroke-linecap="round" stroke-linejoin="round"/>
<path id="Path_38" d="M41.7417 13.8986V5.93115" stroke="#49C2BD" stroke-width="0.827489" stroke-linecap="round" stroke-linejoin="round"/>
<path id="Path_39" d="M52.6904 8.20722L57.1891 0.998535" stroke="#49C2BD" stroke-width="0.827489" stroke-linecap="round" stroke-linejoin="round"/>
<path id="Path_40" d="M49.1133 13.898L50.6851 11.4048" stroke="#49C2BD" stroke-width="0.827489" stroke-linecap="round" stroke-linejoin="round"/>
<path id="Path_41" d="M34.3707 13.8986L29.7637 6.52734" stroke="#49C2BD" stroke-width="0.827489" stroke-linecap="round" stroke-linejoin="round"/>
</g>
</svg>
