<svg width="77" height="82" viewBox="0 0 77 82" fill="none" xmlns="http://www.w3.org/2000/svg">
<g id="zoom">
<g id="Object">
<g id="Edit_File Copy">
<path id="Path Copy 2" d="M62.6696 52.3061L33.9758 81H4.89225C2.95721 81 1.40918 79.452 1.40918 77.5169V4.48307C1.40918 2.54803 2.95721 1 4.89225 1H44.8673L62.8908 20.6821L63.2778 51.698" fill="white"/>
<path id="Path" d="M62.6695 52.3061L33.9756 81H10.2878C8.35272 81 6.80469 79.452 6.80469 77.5169V4.48307C6.80469 2.54803 8.35272 1 10.2878 1H44.8671L62.8906 20.6821L63.2776 51.698" fill="#EAF6FF"/>
<path id="Path_2" d="M20.707 63.6954H34.2523" stroke="#91C2FF" stroke-width="0.966106" stroke-linecap="round" stroke-linejoin="round"/>
<path id="Path_3" d="M11.75 63.6954H17.0022" stroke="#91C2FF" stroke-width="0.966106" stroke-linecap="round" stroke-linejoin="round"/>
<path id="Path_4" d="M37.2373 54.7388H50.672" stroke="#91C2FF" stroke-width="0.966106" stroke-linecap="round" stroke-linejoin="round"/>
<path id="Path_5" d="M11.9717 54.7388H31.5985" stroke="#91C2FF" stroke-width="0.966106" stroke-linecap="round" stroke-linejoin="round"/>
<path id="Path_6" d="M46.6367 45.8375H51.3361" stroke="#91C2FF" stroke-width="0.966106" stroke-linecap="round" stroke-linejoin="round"/>
<path id="Path_7" d="M12.248 45.8375H40.9419" stroke="#91C2FF" stroke-width="0.966106" stroke-linecap="round" stroke-linejoin="round"/>
<path id="Path_8" d="M32.7041 36.8809H51.2252" stroke="#91C2FF" stroke-width="0.966106" stroke-linecap="round" stroke-linejoin="round"/>
<path id="Path_9" d="M12.5244 36.8809H26.7884" stroke="#91C2FF" stroke-width="0.966106" stroke-linecap="round" stroke-linejoin="round"/>
<path id="Path_10" d="M12.7451 12.3892H36.8502" stroke="#1676EE" stroke-width="0.966106" stroke-linecap="round" stroke-linejoin="round"/>
<path id="Path_11" d="M12.7451 18.7466H21.978" stroke="#1676EE" stroke-width="0.966106" stroke-linecap="round" stroke-linejoin="round"/>
<path id="Path_12" d="M44.3145 1V16.6462C44.3145 18.8023 46.2495 20.6268 48.4057 20.6268H62.3379" fill="white"/>
<path id="Path_13" d="M46.249 2.60352V16.8122C46.249 18.7473 47.9629 20.4612 49.9532 20.4612H62.6139" fill="#96C5FF"/>
<path id="Path_14" d="M46.249 5.47852V19.6872C46.249 21.6223 47.9629 23.3362 49.9532 23.3362H62.6139V20.4612" fill="#96C5FF"/>
<path id="Path_15" d="M44.3145 13.2739V16.7017C44.3145 18.8579 46.2495 20.6824 48.4057 20.6824H62.338" stroke="#3A6CFF" stroke-width="0.966106" stroke-linecap="round" stroke-linejoin="round"/>
<path id="Path_16" d="M44.3145 1V9.45888" stroke="#1676EE" stroke-width="0.966106" stroke-linecap="round" stroke-linejoin="round"/>
<path id="Path_17" d="M0.748114 19.6872V18.8579" stroke="#3A6CFF" stroke-width="0.966106" stroke-linecap="round" stroke-linejoin="round"/>
<path id="Path_18" d="M0.748047 28.312V77.5173C0.748047 79.4523 2.29608 81.0003 4.23112 81.0003H4.78398H39.9464" stroke="#3A6CFF" stroke-width="0.966106" stroke-linecap="round" stroke-linejoin="round"/>
<path id="Path_19" d="M62.6696 49.1548L62.3379 20.6821L44.3144 1H4.83965H4.28678C2.35174 1 0.803711 2.54803 0.803711 4.48307V14.877" stroke="#3A6CFF" stroke-width="0.966106" stroke-linecap="round" stroke-linejoin="round"/>
<path id="Path_20" fill-rule="evenodd" clip-rule="evenodd" d="M51.2804 78.0147L45.0883 80.4473C44.259 80.779 43.4297 79.9497 43.7614 79.1204L46.194 72.9283C46.4705 72.2649 46.8575 71.6567 47.3551 71.1591L70.1332 48.381C70.6861 47.8281 71.626 47.8281 72.2341 48.381L75.8278 51.9746C76.3806 52.5275 76.3806 53.4673 75.8278 54.0755L53.0496 76.8537C52.552 77.3512 51.9439 77.7382 51.2804 78.0147Z" stroke="#3A6CFF" stroke-width="0.966106" stroke-linecap="round" stroke-linejoin="round"/>
<path id="Path_21" d="M71.4046 52.8594L50.8379 73.3708" stroke="#3A6CFF" stroke-width="0.966106" stroke-linecap="round" stroke-linejoin="round"/>
</g>
</g>
</g>
</svg>
