<svg width="82" height="65" viewBox="0 0 82 65" fill="none" xmlns="http://www.w3.org/2000/svg">
<g id="zoom">
<g id="Object">
<g id="Group 5">
<g id="Desktop_3 Copy">
<path id="Path" d="M33.5053 59.3469C35.0491 57.3069 35.3247 54.2745 35.3799 51.7935H47.8954C47.9505 54.3296 48.2262 57.3069 49.7699 59.3469H50.1007C50.9829 59.3469 51.6445 60.0636 51.6445 60.8906V63.5922H30.8037V60.8906C30.8037 60.0085 31.5205 59.3469 32.3475 59.3469H33.5053Z" fill="#C5E0FE"/>
<path id="Path_2" d="M81.3066 43.2471H1.30664V4.92871H81.3066" fill="white"/>
<g id="Group">
<path id="Path_3" d="M81.3062 5.75573V48.3195C81.3062 50.1941 79.7984 51.7378 77.9138 51.7378H8.61305C6.72841 51.7378 5.2207 50.1941 5.2207 48.3195V5.75573C5.2207 5.48006 5.27455 5.20439 5.3284 4.92872C5.70532 3.44009 6.99765 2.3374 8.61305 2.3374H77.9138C79.4754 2.3374 80.8215 3.44009 81.1985 4.92872C81.2523 5.20439 81.3062 5.48006 81.3062 5.75573Z" fill="#96C5FF"/>
<path id="Path_4" d="M81.3062 4.92871V43.2471H5.2207V5.75573C5.2207 5.48005 5.27459 5.20438 5.32847 4.92871H81.3062Z" fill="#EAF6FF"/>
<g id="Group 4">
<rect id="Rectangle" x="10.9111" y="12.0527" width="20.1461" height="18.7567" fill="white"/>
<g id="Gallery">
<path id="Shape" fill-rule="evenodd" clip-rule="evenodd" d="M10.7024 31.2957H31.96C32.2976 31.2957 32.5852 31.0081 32.5852 30.6705V11.9138C32.5852 11.5637 32.2976 11.2886 31.96 11.2886H10.7024C10.3572 11.2886 10.0771 11.5687 10.0771 11.9138V30.6705C10.0771 31.0081 10.3572 31.2957 10.7024 31.2957ZM31.3347 30.0451H11.3276V12.5389H31.3347V30.0451Z" fill="#1676EE"/>
<path id="Path_5" d="M31.9605 31.2958C31.7229 31.2958 31.5103 31.1583 31.3978 30.9457L25.033 18.2349L20.6064 25.9739C20.5064 26.1365 20.3313 26.249 20.1437 26.274C19.9437 26.2991 19.7561 26.224 19.6186 26.0865L16.4049 22.8728L11.1905 30.9632C11.003 31.2508 10.6153 31.3384 10.3152 31.1508C10.0151 30.9632 9.94008 30.5756 10.1277 30.2755L15.7547 21.5223C15.8547 21.3598 16.0173 21.2597 16.2048 21.2347C16.3799 21.2097 16.58 21.2723 16.705 21.4098L19.8686 24.5734L24.4578 16.5281C24.5703 16.328 24.7704 16.1904 25.008 16.2029C25.2331 16.2029 25.4456 16.3405 25.5457 16.5406L32.4231 30.2955C32.5732 30.5956 32.4481 30.9707 32.1355 31.1333C32.0355 31.1708 31.948 31.1958 31.8479 31.1958L31.9605 31.2958Z" fill="#1676EE"/>
<path id="Shape_2" fill-rule="evenodd" clip-rule="evenodd" d="M13.8291 16.9152C13.8291 18.6283 15.2296 20.0413 16.9552 20.0413C18.6683 20.0413 20.0813 18.6283 20.0813 16.9152C20.0813 15.1896 18.6683 13.7891 16.9552 13.7891C15.2296 13.7891 13.8291 15.1896 13.8291 16.9152ZM15.0796 16.915C15.0796 15.8809 15.9211 15.0394 16.9552 15.0394C17.9806 15.0394 18.8309 15.8772 18.8309 16.915C18.8309 17.9404 17.9893 18.7907 16.9552 18.7907C15.9211 18.7907 15.0796 17.9492 15.0796 16.915Z" fill="#1676EE"/>
<path id="Path_6" d="M30.7091 37.5485C30.5966 37.5485 30.4965 37.5235 30.3965 37.461L19.1425 31.2088C18.8398 31.0337 18.7298 30.6586 18.8924 30.3584C19.0549 30.0458 19.4301 29.9458 19.7427 30.1084L30.4615 36.0605L38.6019 22.093L31.5869 17.4176C31.2993 17.2175 31.2118 16.8299 31.4118 16.5422C31.5994 16.2546 31.9871 16.1671 32.2747 16.3672L39.7773 21.369C40.0524 21.544 40.1275 21.9067 39.9649 22.1943L31.2118 37.1996C31.0867 37.3872 30.8867 37.4998 30.6616 37.4998L30.7091 37.5485Z" fill="#1676EE"/>
</g>
</g>
<path id="Path_7" d="M16.4686 0.684082H77.7229C79.7077 0.684082 81.2515 2.28298 81.2515 4.21268V48.2099C81.2515 50.1948 79.6526 51.7385 77.7229 51.7385H4.83524C2.8504 51.7385 1.30664 50.1396 1.30664 48.2099V4.21268C1.30664 2.22784 2.90554 0.684082 4.83524 0.684082H10.2935" stroke="#1676EE" stroke-width="0.847384" stroke-linecap="round" stroke-linejoin="round"/>
<g id="Path_8">
<path d="M13.3809 0.683875H13.9322H13.3809Z" fill="#58A3FF"/>
<path d="M13.3809 0.683875H13.9322" stroke="#1676EE" stroke-width="0.847384" stroke-linecap="round" stroke-linejoin="round"/>
</g>
<g id="Path_9">
<path d="M24.5176 4.92948H80.8649H24.5176Z" fill="#3A6CFF"/>
<path d="M24.5176 4.92948H80.8649" stroke="#1676EE" stroke-width="0.847384" stroke-linecap="round" stroke-linejoin="round"/>
</g>
<g id="Path_10">
<path d="M5.11133 4.92948H19.7771H5.11133Z" fill="#3A6CFF"/>
<path d="M5.11133 4.92948H19.7771" stroke="#1676EE" stroke-width="0.847384" stroke-linecap="round" stroke-linejoin="round"/>
</g>
<g id="Path_11">
<path d="M73.0918 43.2474H77.8334H73.0918Z" fill="#58A3FF"/>
<path d="M73.0918 43.2474H77.8334" stroke="#1676EE" stroke-width="0.847384" stroke-linecap="round" stroke-linejoin="round"/>
</g>
<g id="Path_12">
<path d="M19.7764 43.2474H70.0038H19.7764Z" fill="#58A3FF"/>
<path d="M19.7764 43.2474H70.0038" stroke="#1676EE" stroke-width="0.847384" stroke-linecap="round" stroke-linejoin="round"/>
</g>
<g id="Path_13">
<path d="M1.52734 43.2474H15.8071H1.52734Z" fill="#58A3FF"/>
<path d="M1.52734 43.2474H15.8071" stroke="#1676EE" stroke-width="0.847384" stroke-linecap="round" stroke-linejoin="round"/>
</g>
<circle id="Oval" cx="41.279" cy="47.7683" r="1.65403" fill="#C5E0FE" stroke="#1676EE" stroke-width="0.847384" stroke-linecap="round" stroke-linejoin="round"/>
</g>
<g id="Group_2">
<path id="Path_14" d="M39.7356 59.3467H50.2111C51.0932 59.3467 51.7549 60.0634 51.7549 60.8904V63.592H30.9141V60.8904C30.9141 60.0083 31.6308 59.3467 32.4578 59.3467H35.5454" stroke="#1676EE" stroke-width="0.847384" stroke-linecap="round" stroke-linejoin="round"/>
<path id="Path_15" d="M47.9502 51.7935C48.0053 54.3296 48.281 57.3069 49.8248 59.3469" stroke="#1676EE" stroke-width="0.847384" stroke-linecap="round" stroke-linejoin="round"/>
<path id="Path_16" d="M35.3804 51.7935C35.3253 54.3296 35.0496 57.3069 33.5059 59.3469" stroke="#1676EE" stroke-width="0.847384" stroke-linecap="round" stroke-linejoin="round"/>
</g>
</g>
<g id="music-folder">
<g id="Group_3">
<g id="Combined Shape">
<path fill-rule="evenodd" clip-rule="evenodd" d="M55.0439 30.2838V17.1856C55.0439 16.5265 55.4929 15.948 56.1348 15.7897L67.6482 12.9113C68.0742 12.8048 68.5318 12.8998 68.883 13.1732C69.2313 13.4438 69.4356 13.864 69.4356 14.3073V30.1382C69.4356 30.1572 69.4353 30.1761 69.4345 30.1949C69.3937 31.8321 67.5905 33.0164 65.1177 33.0164C62.6164 33.0164 60.8002 31.8046 60.8002 30.1381C60.8002 28.4715 62.6164 27.2597 65.1177 27.2597C65.6295 27.2597 66.1126 27.3104 66.5573 27.4054V16.1523L57.9223 18.3111V33.0166C57.9223 33.0263 57.9222 33.036 57.922 33.0457C57.9009 34.6972 56.0913 35.8949 53.6046 35.8949C51.1033 35.8949 49.2871 34.6831 49.2871 33.0165C49.2871 31.35 51.1033 30.1382 53.6046 30.1382C54.1163 30.1382 54.5993 30.1889 55.0439 30.2838Z" fill="white"/>
<path d="M55.0439 30.2838L54.9252 30.8399L55.6126 30.9867V30.2838H55.0439ZM56.1348 15.7897L56.271 16.3418L56.2727 16.3413L56.1348 15.7897ZM67.6482 12.9113L67.5103 12.3596L67.6482 12.9113ZM68.883 13.1732L68.5336 13.6219L68.5341 13.6223L68.883 13.1732ZM69.4345 30.1949L68.8663 30.1728L68.8661 30.1807L69.4345 30.1949ZM66.5573 27.4054L66.4385 27.9615L67.1259 28.1083V27.4054H66.5573ZM66.5573 16.1523H67.1259V15.424L66.4194 15.6006L66.5573 16.1523ZM57.9223 18.3111L57.7843 17.7594L57.3536 17.8671V18.3111H57.9223ZM57.922 33.0457L57.3534 33.0344L57.3533 33.0385L57.922 33.0457ZM55.6126 30.2838V17.1856H54.4752V30.2838H55.6126ZM55.6126 17.1856C55.6126 16.7861 55.8851 16.4369 56.271 16.3418L55.9986 15.2375C55.1008 15.459 54.4752 16.267 54.4752 17.1856H55.6126ZM56.2727 16.3413L67.7861 13.463L67.5103 12.3596L55.9969 15.238L56.2727 16.3413ZM67.7861 13.463C68.0429 13.3988 68.3207 13.4561 68.5336 13.6219L69.2324 12.7246C68.7429 12.3434 68.1055 12.2108 67.5103 12.3596L67.7861 13.463ZM68.5341 13.6223C68.7424 13.7841 68.867 14.038 68.867 14.3073H70.0043C70.0043 13.6901 69.7201 13.1035 69.2319 12.7242L68.5341 13.6223ZM68.867 14.3073V30.1382H70.0043V14.3073H68.867ZM68.867 30.1382C68.867 30.1498 68.8667 30.1614 68.8663 30.1728L70.0028 30.217C70.0038 30.1908 70.0043 30.1645 70.0043 30.1382H68.867ZM65.1177 33.5851C66.4384 33.5851 67.6221 33.2697 68.4995 32.6954C69.3827 32.1173 69.9769 31.2558 70.003 30.2091L68.8661 30.1807C68.8513 30.7712 68.5235 31.3204 67.8767 31.7438C67.2241 32.171 66.2698 32.4477 65.1177 32.4477V33.5851ZM60.2315 30.1381C60.2315 31.2026 60.8183 32.0837 61.7055 32.6753C62.586 33.2625 63.7821 33.5851 65.1177 33.5851V32.4477C63.9521 32.4477 62.9894 32.1645 62.3365 31.7291C61.6903 31.2982 61.3689 30.74 61.3689 30.1381H60.2315ZM65.1177 26.6911C63.7821 26.6911 62.586 27.0137 61.7055 27.6008C60.8183 28.1924 60.2315 29.0735 60.2315 30.1381H61.3689C61.3689 29.5361 61.6903 28.9779 62.3365 28.547C62.9894 28.1117 63.9521 27.8284 65.1177 27.8284V26.6911ZM66.676 26.8493C66.1898 26.7455 65.6668 26.6911 65.1177 26.6911V27.8284C65.5922 27.8284 66.0353 27.8754 66.4385 27.9615L66.676 26.8493ZM67.1259 27.4054V16.1523H65.9886V27.4054H67.1259ZM66.4194 15.6006L57.7843 17.7594L58.0602 18.8628L66.6952 16.704L66.4194 15.6006ZM57.3536 18.3111V33.0166H58.4909V18.3111H57.3536ZM57.3536 33.0166C57.3536 33.0226 57.3535 33.0285 57.3534 33.0344L58.4905 33.0571C58.4908 33.0436 58.4909 33.03 58.4909 33.0166H57.3536ZM53.6046 36.4635C54.9326 36.4635 56.1223 36.1446 57.0013 35.5641C57.8864 34.9795 58.4771 34.1085 58.4906 33.053L57.3533 33.0385C57.3457 33.6345 57.021 34.1881 56.3745 34.6151C55.7217 35.0463 54.7633 35.3262 53.6046 35.3262V36.4635ZM48.7185 33.0165C48.7185 34.0811 49.3052 34.9621 50.1924 35.5538C51.0729 36.1409 52.269 36.4635 53.6046 36.4635V35.3262C52.439 35.3262 51.4763 35.0429 50.8234 34.6075C50.1772 34.1766 49.8558 33.6185 49.8558 33.0165H48.7185ZM53.6046 29.5695C52.269 29.5695 51.0729 29.8921 50.1924 30.4793C49.3052 31.0709 48.7185 31.9519 48.7185 33.0165H49.8558C49.8558 32.4145 50.1772 31.8564 50.8234 31.4255C51.4763 30.9901 52.439 30.7068 53.6046 30.7068V29.5695ZM55.1626 29.7277C54.6765 29.6239 54.1536 29.5695 53.6046 29.5695V30.7068C54.079 30.7068 54.522 30.7539 54.9252 30.8399L55.1626 29.7277Z" fill="#1676EE"/>
</g>
</g>
</g>
</g>
</g>
<path id="Shape_3" opacity="0.25" fill-rule="evenodd" clip-rule="evenodd" d="M73.4873 8.11651C73.4873 10.0546 75.073 11.6403 77.011 11.6403C78.9491 11.6403 80.5348 10.0546 80.5348 8.11651C80.5348 6.17846 78.9491 4.59277 77.011 4.59277C75.073 4.59277 73.4873 6.17846 73.4873 8.11651ZM75.2497 8.11627C75.2497 7.14724 76.0425 6.3544 77.0116 6.3544C77.9806 6.3544 78.7734 7.14724 78.7734 8.11627C78.7734 9.0853 77.9806 9.87814 77.0116 9.87814C76.0425 9.87814 75.2497 9.0853 75.2497 8.11627Z" fill="white"/>
</g>
</svg>
