<svg width="82" height="54" viewBox="0 0 82 54" fill="none" xmlns="http://www.w3.org/2000/svg">
<g id="Upload">
<g id="Group">
<path id="Path" d="M1.86786 52.5834H1.37319" stroke="#95689B" stroke-width="0.809867" stroke-linecap="round" stroke-linejoin="round"/>
<path id="Path_2" d="M14.3452 52.5834H3.95703" stroke="#95689B" stroke-width="0.809867" stroke-linecap="round" stroke-linejoin="round"/>
<path id="Path_3" d="M17.0378 52.5834H16.5431" stroke="#91C2FF" stroke-width="0.809867" stroke-linecap="round" stroke-linejoin="round"/>
<path id="Path_4" d="M58.7006 52.5834H19.7861" stroke="#91C2FF" stroke-width="0.809867" stroke-linecap="round" stroke-linejoin="round"/>
<path id="Path_5" d="M77.9373 52.5834H60.8984" stroke="#95689B" stroke-width="0.809867" stroke-linecap="round" stroke-linejoin="round"/>
<path id="Path_6" d="M81.3459 52.5834H80.5215" stroke="#95689B" stroke-width="0.809867" stroke-linecap="round" stroke-linejoin="round"/>
</g>
<g id="Group_2">
<path id="Path_7" d="M71.8914 48.4604V50.0544C71.8914 51.4835 70.6822 52.6927 69.1432 52.6927H13.5197C11.9807 52.6927 10.7715 51.5384 10.7715 50.0544V48.4604H35.945C36.1648 49.0651 36.7145 49.4498 37.429 49.4498H45.2888C46.0034 49.4498 46.553 49.0101 46.7729 48.4604H71.8914Z" fill="white"/>
<path id="Path_8" d="M68.7583 48.4605H13.9043V13.9981C13.9043 12.734 14.8936 11.7446 16.1578 11.7446H66.4498C67.714 11.7446 68.7033 12.734 68.7033 13.9981V48.4605H68.7583Z" fill="white"/>
<path id="Path_9" d="M68.7582 48.4604H15.2783V14.2728C15.2783 13.4484 15.9379 12.8438 16.7074 12.8438H66.5597C67.7689 12.8438 68.7582 13.8331 68.7582 15.0423V48.4604Z" fill="#D5D0F5"/>
<path id="Path_10" d="M34.0761 48.4609H13.9043V30.5977" stroke="#5E2665" stroke-width="0.809867" stroke-linecap="round" stroke-linejoin="round"/>
<path id="Path_11" d="M55.0725 11.7446H66.505C67.7692 11.7446 68.7585 12.734 68.7585 13.9981V48.4605H54.248" stroke="#5E2665" stroke-width="0.809867" stroke-linecap="round" stroke-linejoin="round"/>
<path id="Path_12" d="M13.9043 22.0778V13.9981C13.9043 12.734 14.8936 11.7446 16.1578 11.7446H27.5903" stroke="#5E2665" stroke-width="0.809867" stroke-linecap="round" stroke-linejoin="round"/>
<path id="Path_13" d="M13.9037 25.8155V25.5407" stroke="#5E2665" stroke-width="0.809867" stroke-linecap="round" stroke-linejoin="round"/>
<path id="Path_14" d="M71.8914 49.7241V50.8234C71.8914 51.8677 70.6822 52.6922 69.1982 52.6922H15.0038C13.5198 52.6922 12.3105 51.8677 12.3105 50.8234V49.7241H35.3404C35.5603 50.1638 36.1099 50.4387 36.7695 50.4387H45.9485C46.608 50.4387 47.2126 50.1638 47.3775 49.7241H71.8914Z" fill="#D5D0F5"/>
<path id="Path_15" d="M55.1269 48.6252H16.4873V14.6025H66.0098V48.6252H60.8432" fill="white"/>
<path id="Path_16" d="M64.5811 14.6025H66.0101V22.4624" stroke="#5E2665" stroke-width="0.809867" stroke-linecap="round" stroke-linejoin="round"/>
<path id="Path_17" d="M32.9215 48.4603H16.4873V14.6025H19.2905" stroke="#5E2665" stroke-width="0.809867" stroke-linecap="round" stroke-linejoin="round"/>
<path id="Path_18" d="M51.1144 48.4609H50.8396" stroke="#5E2665" stroke-width="0.809867" stroke-linecap="round" stroke-linejoin="round"/>
<path id="Path_19" d="M66.01 48.4609H53.1484" stroke="#5E2665" stroke-width="0.809867" stroke-linecap="round" stroke-linejoin="round"/>
<path id="Path_20" d="M66.0102 26.1445V48.4599" stroke="#5E2665" stroke-width="0.809867" stroke-linecap="round" stroke-linejoin="round"/>
<path id="Path_21" d="M66.0102 48.4604H71.8914V50.0544C71.8914 51.4835 70.6822 52.6927 69.1432 52.6927H13.5197C11.9807 52.6927 10.7715 51.5384 10.7715 50.0544V48.4604H35.945C36.1648 49.0651 36.7145 49.4498 37.429 49.4498H45.2888C45.7835 49.4498 46.2232 49.2299 46.498 48.9002" stroke="#5E2665" stroke-width="0.809867" stroke-linecap="round" stroke-linejoin="round"/>
</g>
<g id="Group_3">
<path id="Path_22" d="M2.80216 17.4611V17.1862" stroke="#91C2FF" stroke-width="0.809867" stroke-linecap="round" stroke-linejoin="round"/>
<path id="Path_23" d="M2.80176 13.1736V6.46799C2.80176 4.87403 4.06593 3.60986 5.65988 3.60986H19.6757" stroke="#5E2665" stroke-width="0.809867" stroke-linecap="round" stroke-linejoin="round" stroke-dasharray="0.28 1.95"/>
<path id="Path_24" d="M21.7097 3.61027H21.9845" stroke="#5E2665" stroke-width="0.809867" stroke-linecap="round" stroke-linejoin="round"/>
</g>
<ellipse id="Oval" cx="2.80156" cy="17.8455" rx="1.31913" ry="1.31913" fill="white" stroke="#5E2665" stroke-width="0.809867" stroke-linecap="round" stroke-linejoin="round"/>
<path id="Path_25" d="M74.7098 26.7553C77.403 24.062 79.0519 20.3245 79.0519 16.2022C79.0519 7.90265 72.3463 1.14209 63.9918 1.14209C62.0131 1.14209 60.1443 1.52684 58.4404 2.1864" stroke="#5E2665" stroke-width="0.809867" stroke-linecap="round" stroke-linejoin="round" stroke-dasharray="0.27 1.89"/>
<circle id="Oval_2" cx="75.9191" cy="6.85858" r="1.9787" fill="#E2DFFD" stroke="#5E2665" stroke-width="0.809867" stroke-linecap="round" stroke-linejoin="round"/>
<path id="Path_26" d="M34.0774 12.0743C36.1111 10.7002 38.5845 9.93066 41.2227 9.93066C48.423 9.93066 54.2492 15.7568 54.2492 22.9571C54.2492 30.1574 48.423 35.9836 41.2227 35.9836C34.0225 35.9836 28.1963 30.1574 28.1963 22.9571C28.1963 18.4501 30.5597 14.4377 34.0774 12.0743Z" fill="#D5D0F5"/>
<path id="Path_27" d="M35.8905 11.744C37.7043 10.5348 39.9029 9.82031 42.2663 9.82031C48.6971 9.82031 53.8637 15.0419 53.8637 21.4177C53.8637 27.8485 48.6421 33.0151 42.2663 33.0151C35.8356 33.0151 30.6689 27.7935 30.6689 21.4177C30.6689 17.3504 32.7576 13.7777 35.8905 11.744Z" fill="#A99FF3"/>
<path id="Path_28" d="M38.6387 10.3702C38.7486 10.3702 38.8585 10.3153 38.9135 10.2603C39.9578 9.93052 41.112 9.76562 42.2663 9.76562C44.8496 9.76562 47.268 10.5901 49.1917 12.0191" stroke="#5E2665" stroke-width="0.809867" stroke-linecap="round" stroke-linejoin="round"/>
<path id="Path_29" d="M53.7538 19.7142C53.8637 20.2639 53.8637 20.8685 53.8637 21.4181C53.8637 27.8489 48.6421 33.0155 42.2663 33.0155C35.8356 33.0155 30.6689 27.7939 30.6689 21.4181C30.6689 17.8454 32.3179 14.6026 34.9012 12.459" stroke="#5E2665" stroke-width="0.809867" stroke-linecap="round" stroke-linejoin="round"/>
<path id="Path_30" d="M51.8305 14.7671C51.9404 14.932 52.1053 15.1518 52.2152 15.3717" stroke="#5E2665" stroke-width="0.809867" stroke-linecap="round" stroke-linejoin="round"/>
<g id="Group_4">
<path id="Path_31" d="M42.4866 14.4379C43.5309 14.4379 44.4103 15.3173 44.4103 16.3616V21.803L44.5752 21.6382C44.96 21.2534 45.3997 21.0885 45.9493 21.0885C46.4989 21.0885 46.9387 21.3084 47.3234 21.6382C47.7082 21.9679 47.873 22.4626 47.873 23.0122C47.873 23.5069 47.6532 24.0016 47.3234 24.3863L43.9156 27.7941C43.5309 28.1789 43.0912 28.3438 42.5415 28.3438C42.0469 28.3438 41.5522 28.1239 41.1674 27.7941L37.7597 24.3863C36.9902 23.6169 36.9902 22.4076 37.7597 21.6931C38.1444 21.3084 38.5841 21.1435 39.1338 21.1435C39.6285 21.1435 40.1231 21.3633 40.5079 21.6931L40.6728 21.858V16.4166C40.5628 15.3173 41.4423 14.4379 42.4866 14.4379Z" fill="white"/>
<path id="Shape" fill-rule="evenodd" clip-rule="evenodd" d="M44.4094 28.344C43.9147 28.8936 43.2002 29.1685 42.4856 29.1685C41.7711 29.1685 41.0566 28.8936 40.452 28.344L37.0442 24.9362C36.4946 24.4416 36.2198 23.727 36.2198 23.0125C36.2198 22.298 36.5495 21.5834 37.0442 21.0888C37.5389 20.5391 38.2534 20.2643 38.968 20.2643C39.2428 20.2643 39.4626 20.3193 39.6825 20.3742L39.6825 20.3742V16.4168C39.6825 14.8778 40.8917 13.6686 42.4307 13.6686C43.9697 13.6686 45.1789 14.9328 45.1789 16.4168V20.3742C45.3987 20.3193 45.6735 20.2643 45.8934 20.2643C46.6079 20.2643 47.3225 20.5941 47.8171 21.0888C48.3668 21.5834 48.6416 22.298 48.6416 23.0125C48.6416 23.727 48.3118 24.4416 47.8171 24.9362L44.4094 28.344ZM41.7161 27.1899C41.9359 27.4098 42.2108 27.5197 42.4856 27.5197C42.7604 27.5197 43.0352 27.4098 43.365 27.1899L46.7728 23.7822C46.9926 23.5623 47.1025 23.2875 47.1025 23.0127C47.1025 22.7379 46.9926 22.463 46.7728 22.2432C46.5529 22.0233 46.2781 21.9134 46.0033 21.9134C45.7284 21.9134 45.4536 22.0233 45.2338 22.2432L43.6398 23.8371V16.417C43.6398 15.8124 43.1451 15.3177 42.5405 15.3177C41.9359 15.3177 41.4413 15.8124 41.4413 16.417V23.8371L39.8473 22.2432C39.6275 22.0233 39.3526 21.9134 39.0778 21.9134C38.803 21.9134 38.5282 22.0233 38.3083 22.2432C37.8686 22.6829 37.8686 23.3425 38.3083 23.7822L41.7161 27.1899Z" fill="#5E2665"/>
</g>
<g id="Group_5">
<path id="Path_32" d="M26.162 43.1838C24.678 43.1838 23.4688 41.9746 23.4688 40.4906C23.4688 39.0066 24.678 37.7974 26.162 37.7974H58.206C59.69 37.7974 60.8992 39.0066 60.8992 40.4906C60.8992 41.9746 59.69 43.1838 58.206 43.1838H26.162Z" fill="white"/>
<path id="Shape_2" fill-rule="evenodd" clip-rule="evenodd" d="M26.1612 36.9727H58.2052C60.1289 36.9727 61.7229 38.5666 61.7229 40.4903C61.7229 42.4141 60.1289 44.008 58.2052 44.008H26.1612C24.2375 44.008 22.6436 42.4141 22.6436 40.4903C22.6436 38.5666 24.2375 36.9727 26.1612 36.9727ZM60.0739 40.4904C60.0739 39.446 59.2494 38.6216 58.2051 38.6216H26.1611C25.1168 38.6216 24.2923 39.446 24.2923 40.4904C24.2923 41.5347 25.1168 42.3591 26.1611 42.3591H58.2051C59.2494 42.3591 60.0739 41.5347 60.0739 40.4904Z" fill="#5E2665"/>
</g>
<path id="Path_33" d="M36.9346 41.3154H26.4365C25.9968 41.3154 25.667 40.9856 25.667 40.5459C25.667 40.1062 25.9968 39.7764 26.4365 39.7764H36.9346C37.3743 39.7764 37.7041 40.1062 37.7041 40.5459C37.7041 40.9856 37.3743 41.3154 36.9346 41.3154Z" fill="#877AEA"/>
</g>
</svg>
