<svg width="82" height="81" viewBox="0 0 82 81" fill="none" xmlns="http://www.w3.org/2000/svg">
<g id="Servers">
<g id="Group">
<path id="Path" d="M65.6418 24.1136H13.788C12.3265 24.1136 11.1357 22.9228 11.1357 21.4614V13.0717C11.1357 11.6102 12.3265 10.4194 13.788 10.4194H65.5877C67.0491 10.4194 68.2399 11.6102 68.2399 13.0717V21.4614C68.294 22.9228 67.1032 24.1136 65.6418 24.1136Z" fill="white"/>
<path id="Path Copy" d="M31.1299 24.1133H11.3408C10.8043 24.1133 10.375 23.0307 10.375 21.6775V14.4245C10.375 13.0713 10.8043 11.9888 11.3408 11.9888H31.1085C31.645 11.9888 32.0743 13.0713 32.0743 14.4245V21.6775C32.0958 23.0307 31.6665 24.1133 31.1299 24.1133Z" fill="#FFF4E8"/>
<path id="Path_2" opacity="0.585775" d="M66.2726 24.1133H25.0454C23.9275 24.1133 23.0332 23.0307 23.0332 21.6775V14.4245C23.0332 13.0713 23.9275 11.9888 25.0454 11.9888H66.2279C67.3458 11.9888 68.2401 13.0713 68.2401 14.4245V21.6775C68.2848 23.0307 67.3905 24.1133 66.2726 24.1133Z" fill="#FBD3A9"/>
<path id="Path_3" d="M40.6892 24.1136H13.788C12.3265 24.1136 11.1357 22.9228 11.1357 21.4614V13.0717C11.1357 11.6102 12.3265 10.4194 13.788 10.4194H17.0897" stroke="#F24F45" stroke-width="0.956479" stroke-linecap="round" stroke-linejoin="round"/>
<path id="Path_4" d="M26.2373 10.4194H65.6419C67.1033 10.4194 68.2941 11.6102 68.2941 13.0717V21.4614C68.2941 22.9228 67.1033 24.1136 65.6419 24.1136H44.8029" stroke="#F24F45" stroke-width="0.956479" stroke-linecap="round" stroke-linejoin="round"/>
<path id="Path_5" d="M20.1748 10.4196H20.3372" stroke="#F24F45" stroke-width="0.956479" stroke-linecap="round" stroke-linejoin="round"/>
<g id="Path_6">
<path d="M16.0078 17.2931H17.794H16.0078Z" fill="white"/>
<path d="M16.0078 17.2931H17.794" stroke="#F24F45" stroke-width="0.956479" stroke-linecap="round" stroke-linejoin="round"/>
</g>
<g id="Path_7">
<path d="M20.8789 17.2931H22.6651H20.8789Z" fill="white"/>
<path d="M20.8789 17.2931H22.6651" stroke="#F24F45" stroke-width="0.956479" stroke-linecap="round" stroke-linejoin="round"/>
</g>
<g id="Path_8">
<path d="M25.751 17.2931H27.5372H25.751Z" fill="white"/>
<path d="M25.751 17.2931H27.5372" stroke="#F24F45" stroke-width="0.956479" stroke-linecap="round" stroke-linejoin="round"/>
</g>
<g id="Path_9">
<path d="M30.6221 17.2931H32.4083H30.6221Z" fill="white"/>
<path d="M30.6221 17.2931H32.4083" stroke="#F24F45" stroke-width="0.956479" stroke-linecap="round" stroke-linejoin="round"/>
</g>
<g id="Path_10">
<path d="M35.4932 17.2931H37.2794H35.4932Z" fill="white"/>
<path d="M35.4932 17.2931H37.2794" stroke="#F24F45" stroke-width="0.956479" stroke-linecap="round" stroke-linejoin="round"/>
</g>
<g id="Path_11">
<path d="M40.3643 17.2931H42.1505H40.3643Z" fill="white"/>
<path d="M40.3643 17.2931H42.1505" stroke="#F24F45" stroke-width="0.956479" stroke-linecap="round" stroke-linejoin="round"/>
</g>
<g id="Path_12">
<path d="M45.2363 17.2931H47.0225H45.2363Z" fill="white"/>
<path d="M45.2363 17.2931H47.0225" stroke="#F24F45" stroke-width="0.956479" stroke-linecap="round" stroke-linejoin="round"/>
</g>
<circle id="Oval" cx="60.9871" cy="17.2932" r="2.00271" fill="#FFBF7C" stroke="#F24F45" stroke-width="0.956479" stroke-linecap="round" stroke-linejoin="round"/>
</g>
<g id="Group_2">
<path id="Path_13" d="M65.6418 43.5457H13.788C12.3265 43.5457 11.1357 42.3549 11.1357 40.8935V32.5038C11.1357 31.0424 12.3265 29.8516 13.788 29.8516H65.5877C67.0491 29.8516 68.2399 31.0424 68.2399 32.5038V40.8935C68.294 42.3549 67.1032 43.5457 65.6418 43.5457Z" fill="white"/>
<path id="Path Copy 3" d="M53.6144 43.5454H12.3872C11.2693 43.5454 10.375 42.4628 10.375 41.1097V33.8566C10.375 32.5034 11.2693 31.4209 12.3872 31.4209H53.5697C54.6876 31.4209 55.5819 32.5034 55.5819 33.8566V41.1097C55.6266 42.4087 54.7323 43.5454 53.6144 43.5454Z" fill="#FFF4E8"/>
<path id="Path_14" opacity="0.585775" d="M66.2726 43.5454H25.0454C23.9275 43.5454 23.0332 42.4628 23.0332 41.1097V33.8566C23.0332 32.5034 23.9275 31.4209 25.0454 31.4209H66.2279C67.3458 31.4209 68.2401 32.5034 68.2401 33.8566V41.1097C68.2848 42.4087 67.3905 43.5454 66.2726 43.5454Z" fill="#FBD3A9"/>
<path id="Path_15" d="M40.6892 43.5457H13.788C12.3265 43.5457 11.1357 42.3549 11.1357 40.8935V32.5038C11.1357 31.0424 12.3265 29.8516 13.788 29.8516H17.0897" stroke="#F24F45" stroke-width="0.956479" stroke-linecap="round" stroke-linejoin="round"/>
<path id="Path_16" d="M26.2373 29.7969H65.6419C67.1033 29.7969 68.2941 30.9877 68.2941 32.4491V40.8388C68.2941 42.3003 67.1033 43.4911 65.6419 43.4911H44.8029" stroke="#F24F45" stroke-width="0.956479" stroke-linecap="round" stroke-linejoin="round"/>
<path id="Path_17" d="M20.1748 29.797H20.3372" stroke="#F24F45" stroke-width="0.956479" stroke-linecap="round" stroke-linejoin="round"/>
<g id="Path_18">
<path d="M16.0078 36.671H17.794H16.0078Z" fill="white"/>
<path d="M16.0078 36.671H17.794" stroke="#F24F45" stroke-width="0.956479" stroke-linecap="round" stroke-linejoin="round"/>
</g>
<g id="Path_19">
<path d="M20.8789 36.671H22.6651H20.8789Z" fill="white"/>
<path d="M20.8789 36.671H22.6651" stroke="#F24F45" stroke-width="0.956479" stroke-linecap="round" stroke-linejoin="round"/>
</g>
<g id="Path_20">
<path d="M25.751 36.671H27.5372H25.751Z" fill="white"/>
<path d="M25.751 36.671H27.5372" stroke="#F24F45" stroke-width="0.956479" stroke-linecap="round" stroke-linejoin="round"/>
</g>
<g id="Path_21">
<path d="M30.6221 36.671H32.4083H30.6221Z" fill="white"/>
<path d="M30.6221 36.671H32.4083" stroke="#F24F45" stroke-width="0.956479" stroke-linecap="round" stroke-linejoin="round"/>
</g>
<g id="Path_22">
<path d="M35.4932 36.671H37.2794H35.4932Z" fill="white"/>
<path d="M35.4932 36.671H37.2794" stroke="#F24F45" stroke-width="0.956479" stroke-linecap="round" stroke-linejoin="round"/>
</g>
<g id="Path_23">
<path d="M40.3643 36.671H42.1505H40.3643Z" fill="white"/>
<path d="M40.3643 36.671H42.1505" stroke="#F24F45" stroke-width="0.956479" stroke-linecap="round" stroke-linejoin="round"/>
</g>
<g id="Path_24">
<path d="M45.2363 36.671H47.0225H45.2363Z" fill="white"/>
<path d="M45.2363 36.671H47.0225" stroke="#F24F45" stroke-width="0.956479" stroke-linecap="round" stroke-linejoin="round"/>
</g>
<circle id="Oval_2" cx="60.9871" cy="36.6712" r="2.00271" fill="#FFBF7C" stroke="#F24F45" stroke-width="0.956479" stroke-linecap="round" stroke-linejoin="round"/>
</g>
<g id="Group_3">
<circle id="Oval_3" cx="39.7152" cy="75.8046" r="3.73478" fill="#F28243" stroke="#F24F45" stroke-width="0.956479" stroke-linecap="round" stroke-linejoin="round"/>
<circle id="Oval_4" cx="39.7155" cy="75.8049" r="0.216509" stroke="#F24F45" stroke-width="0.956479" stroke-linecap="round" stroke-linejoin="round"/>
<path id="Path_25" d="M72.0293 75.8043H72.733" stroke="#F24F45" stroke-width="0.956479" stroke-linecap="round" stroke-linejoin="round"/>
<path id="Path_26" d="M43.4502 75.8043H68.5652" stroke="#F24F45" stroke-width="0.956479" stroke-linecap="round" stroke-linejoin="round"/>
<path id="Path_27" d="M12.8682 75.8043H35.9805" stroke="#F24F45" stroke-width="0.956479" stroke-linecap="round" stroke-linejoin="round"/>
<path id="Path_28" d="M9.08008 75.8043H9.89199" stroke="#F24F45" stroke-width="0.956479" stroke-linecap="round" stroke-linejoin="round"/>
<path id="Path_29" d="M6.69795 75.8043H6.80621" stroke="#F24F45" stroke-width="0.956479" stroke-linecap="round" stroke-linejoin="round"/>
<path id="Path_30" d="M39.715 29.093V24.1133" stroke="#F24F45" stroke-width="0.956479" stroke-linecap="round" stroke-linejoin="round"/>
<path id="Path_31" d="M39.715 48.0374V43.8696" stroke="#F24F45" stroke-width="0.956479" stroke-linecap="round" stroke-linejoin="round"/>
<path id="Path_32" d="M39.715 72.0162V61.7861" stroke="#F24F45" stroke-width="0.956479" stroke-linecap="round" stroke-linejoin="round"/>
</g>
<g id="Group_4">
<path id="Path_33" d="M65.6418 62.9227H13.788C12.3265 62.9227 11.1357 61.7319 11.1357 60.2705V51.8807C11.1357 50.4193 12.3265 49.2285 13.788 49.2285H65.5877C67.0491 49.2285 68.2399 50.4193 68.2399 51.8807V60.2705C68.294 61.7319 67.1032 62.9227 65.6418 62.9227Z" fill="white"/>
<path id="Path Copy 4" d="M65.7995 62.9223H14.6777C13.2915 62.9223 12.1826 61.8397 12.1826 60.4865V53.1794C12.1826 51.8262 13.2915 50.7437 14.6777 50.7437H65.7441C67.1302 50.7437 68.2392 51.8262 68.2392 53.1794V60.4324C68.2946 61.8397 67.1857 62.9223 65.7995 62.9223Z" fill="#FFF4E8"/>
<path id="Path_34" opacity="0.585775" d="M66.2726 62.9228H25.0454C23.9275 62.9228 23.0332 61.8402 23.0332 60.487V53.1799C23.0332 51.8267 23.9275 50.7441 25.0454 50.7441H66.2279C67.3458 50.7441 68.2401 51.8267 68.2401 53.1799V60.4329C68.2848 61.8402 67.3905 62.9228 66.2726 62.9228Z" fill="#FBD3A9"/>
<path id="Path_35" d="M40.6892 62.9227H13.788C12.3265 62.9227 11.1357 61.7319 11.1357 60.2705V51.8807C11.1357 50.4193 12.3265 49.2285 13.788 49.2285H17.0897" stroke="#F24F45" stroke-width="0.956479" stroke-linecap="round" stroke-linejoin="round"/>
<path id="Path_36" d="M26.2373 49.1748H65.6419C67.1033 49.1748 68.2941 50.3656 68.2941 51.827V60.2167C68.2941 61.6782 67.1033 62.869 65.6419 62.869H44.8029" stroke="#F24F45" stroke-width="0.956479" stroke-linecap="round" stroke-linejoin="round"/>
<path id="Path_37" d="M20.1758 49.1744H20.3382" stroke="#F24F45" stroke-width="0.956479" stroke-linecap="round" stroke-linejoin="round"/>
<g id="Path_38">
<path d="M16.0068 56.048H17.793H16.0068Z" fill="white"/>
<path d="M16.0068 56.048H17.793" stroke="#F24F45" stroke-width="0.956479" stroke-linecap="round" stroke-linejoin="round"/>
</g>
<g id="Path_39">
<path d="M20.8789 56.048H22.6651H20.8789Z" fill="white"/>
<path d="M20.8789 56.048H22.6651" stroke="#F24F45" stroke-width="0.956479" stroke-linecap="round" stroke-linejoin="round"/>
</g>
<g id="Path_40">
<path d="M25.75 56.048H27.5362H25.75Z" fill="white"/>
<path d="M25.75 56.048H27.5362" stroke="#F24F45" stroke-width="0.956479" stroke-linecap="round" stroke-linejoin="round"/>
</g>
<g id="Path_41">
<path d="M30.6221 56.048H32.4083H30.6221Z" fill="white"/>
<path d="M30.6221 56.048H32.4083" stroke="#F24F45" stroke-width="0.956479" stroke-linecap="round" stroke-linejoin="round"/>
</g>
<g id="Path_42">
<path d="M35.4932 56.048H37.2794H35.4932Z" fill="white"/>
<path d="M35.4932 56.048H37.2794" stroke="#F24F45" stroke-width="0.956479" stroke-linecap="round" stroke-linejoin="round"/>
</g>
<g id="Path_43">
<path d="M40.3643 56.048H42.1505H40.3643Z" fill="white"/>
<path d="M40.3643 56.048H42.1505" stroke="#F24F45" stroke-width="0.956479" stroke-linecap="round" stroke-linejoin="round"/>
</g>
<g id="Path_44">
<path d="M45.2363 56.048H47.0225H45.2363Z" fill="white"/>
<path d="M45.2363 56.048H47.0225" stroke="#F24F45" stroke-width="0.956479" stroke-linecap="round" stroke-linejoin="round"/>
</g>
<circle id="Oval_5" cx="60.9871" cy="56.0486" r="2.00271" fill="#FFBF7C" stroke="#F24F45" stroke-width="0.956479" stroke-linecap="round" stroke-linejoin="round"/>
</g>
<g id="Group_5">
<path id="Path_45" d="M2.42103 29.8511V29.6345" stroke="#91C2FF" stroke-width="0.956479" stroke-linecap="round" stroke-linejoin="round"/>
<path id="Path_46" d="M2.42188 25.9001V4.68224C2.42188 2.51715 4.20807 0.730957 6.37316 0.730957H36.089" stroke="#FFCA92" stroke-width="0.956479" stroke-linecap="round" stroke-linejoin="round" stroke-dasharray="0.33 2.3"/>
<path id="Path_47" d="M37.9827 0.730597H38.1992" stroke="#FFCA92" stroke-width="0.956479" stroke-linecap="round" stroke-linejoin="round"/>
</g>
<circle id="Oval_6" cx="2.42138" cy="30.3926" r="1.84032" fill="white" stroke="#FFCA92" stroke-width="0.956479" stroke-linecap="round" stroke-linejoin="round"/>
<g id="Group_6">
<path id="Path_48" d="M78.6857 38.7276V38.9982" stroke="#91C2FF" stroke-width="0.956479" stroke-linecap="round" stroke-linejoin="round"/>
<path id="Path_49" d="M78.6862 42.4082V65.0875C78.6862 67.2526 76.9 69.0388 74.7349 69.0388H69.9717" stroke="#FFCA92" stroke-width="0.956479" stroke-linecap="round" stroke-linejoin="round" stroke-dasharray="0.31 2.15"/>
<path id="Path_50" d="M68.2936 69.0387H68.023" stroke="#FFCA92" stroke-width="0.956479" stroke-linecap="round" stroke-linejoin="round"/>
</g>
<circle id="Oval_7" cx="78.7407" cy="37.9697" r="1.84032" fill="white" stroke="#FFCA92" stroke-width="0.956479" stroke-linecap="round" stroke-linejoin="round"/>
</g>
</svg>
