<svg width="82" height="56" viewBox="0 0 82 56" fill="none" xmlns="http://www.w3.org/2000/svg">
<g id="Group 614">
<g id="Laptop">
<path id="Path" d="M81.1211 49.4312V51.4992C81.1211 53.4039 79.4884 54.9277 77.5293 54.9277H4.71293C2.69933 54.9277 1.12109 53.4039 1.12109 51.4992V49.4312H34.0463C34.3184 50.1931 35.0803 50.7373 36.0054 50.7373H46.2912C47.2163 50.7373 47.9782 50.1931 48.2503 49.4312H81.1211Z" fill="white"/>
<path id="Path_2" d="M77.0389 49.4304H5.20215V4.31496C5.20215 2.68232 6.50827 1.32178 8.19535 1.32178H74.0457C75.6783 1.32178 77.0389 2.62789 77.0389 4.31496V49.4304Z" fill="white"/>
<path id="Path_3" d="M77.0389 49.4313H6.99805V4.69675C6.99805 3.66274 7.8688 2.79199 8.90281 2.79199H74.1545C75.7327 2.79199 77.0389 4.09811 77.0389 5.67633V49.4313Z" fill="#D3F1E0"/>
<path id="Path_4" d="M31.5977 49.4306H5.20312V26.0293" stroke="#1D8F8A" stroke-linecap="round" stroke-linejoin="round"/>
<path id="Path_5" d="M5.20215 14.8185V4.26076C5.20215 2.62812 6.50827 1.26758 8.19535 1.26758H74.0457C75.6783 1.26758 77.0389 2.5737 77.0389 4.26076V49.3762H57.9913" stroke="#1D8F8A" stroke-linecap="round" stroke-linejoin="round"/>
<path id="Path_6" d="M5.20277 19.7171V19.3906" stroke="#1D8F8A" stroke-width="1.63265" stroke-linecap="round" stroke-linejoin="round"/>
<path id="Path_7" d="M81.1209 51.0635V52.5329C81.1209 53.8934 79.5427 54.9818 77.5835 54.9818H6.61749C4.65831 54.9818 3.08008 53.8934 3.08008 52.5329V51.0635H33.2297C33.5018 51.6077 34.2638 51.9886 35.1345 51.9886H47.1073C47.978 51.9886 48.7399 51.6077 49.012 51.0635H81.1209Z" fill="#D3F1E0"/>
<path id="Path_8" d="M59.135 49.595H8.57715V5.07812H73.4479V49.595H66.6452" fill="#F6FFFA"/>
<path id="Path_9" d="M30.0737 49.4317H8.57715V5.07812H73.4479V15.3638" stroke="#1D8F8A" stroke-linecap="round" stroke-linejoin="round"/>
<path id="Path_10" d="M53.9645 49.4313H53.5836" stroke="#1D8F8A" stroke-width="1.63265" stroke-linecap="round" stroke-linejoin="round"/>
<path id="Path_11" d="M73.4479 49.4313H56.5771" stroke="#1D8F8A" stroke-linecap="round" stroke-linejoin="round"/>
<path id="Path_12" d="M73.4479 20.1519V49.4307" stroke="#1D8F8A" stroke-linecap="round" stroke-linejoin="round"/>
<path id="Path_13" d="M73.3932 49.4312H81.1211V51.4992C81.1211 53.4039 79.4884 54.9277 77.5293 54.9277H4.71293C2.69933 54.9277 1.12109 53.4039 1.12109 51.4992V49.4312H34.0463C34.3184 50.1931 35.0803 50.7373 36.0054 50.7373H46.2912C46.9442 50.7373 47.4884 50.4652 47.8694 49.9754" stroke="#1D8F8A" stroke-linecap="round" stroke-linejoin="round"/>
</g>
<g id="ID">
<path id="Path_14" d="M65.0119 11.5976V41.1812C65.0119 42.324 64.065 43.2709 62.9221 43.2709H19.4282C18.2854 43.2709 17.3711 42.324 17.3711 41.1812V11.5976C17.3711 10.4547 18.318 9.50781 19.4609 9.50781H62.9221C63.8037 9.50781 64.5874 10.0629 64.8813 10.8466C64.9793 11.1078 65.0119 11.3364 65.0119 11.5976Z" fill="white"/>
<path id="Path_15" d="M45.8449 10.8784L33.9265 43.3028H18.449C18.351 43.0742 18.3184 42.813 18.3184 42.5518V12.9682C18.3184 11.8254 19.2653 10.8784 20.4082 10.8784H45.8449Z" fill="#D3F1E0"/>
<path id="Path_16" d="M62.5298 10.8784L50.6114 43.2701H42.9053L54.791 10.8784H62.5298Z" fill="#D3F1E0"/>
<path id="Path_17" d="M64.0328 18.7808V41.2133C64.0328 42.3562 63.0858 43.3031 61.943 43.3031H55.0205L64.0328 18.7808Z" fill="#D3F1E0"/>
<path id="Path_18" d="M65.0119 31.94V41.2134C65.0119 42.3562 64.065 43.3032 62.9221 43.3032H19.4609C18.318 43.3032 17.3711 42.3562 17.3711 41.2134V11.6298C17.3711 10.487 18.318 9.54004 19.4609 9.54004H23.2486" stroke="#1D8F8A" stroke-width="0.97959" stroke-linecap="round" stroke-linejoin="round"/>
<path id="Path_19" d="M65.0119 26.585V27.4339" stroke="#1D8F8A" stroke-width="0.97959" stroke-linecap="round" stroke-linejoin="round"/>
<path id="Path_20" d="M33.9258 9.50781H62.9217C64.0646 9.50781 65.0115 10.4547 65.0115 11.5976V24.3649" stroke="#1D8F8A" stroke-width="0.97959" stroke-linecap="round" stroke-linejoin="round"/>
<path id="Path_21" d="M27.3311 9.5075H27.6576" stroke="#1D8F8A" stroke-width="0.97959" stroke-linecap="round" stroke-linejoin="round"/>
<path id="Path_22" d="M28.2116 16.8545H61.4851C62.1055 16.8545 62.6279 17.3769 62.6279 17.9973V39.6462C62.6279 40.2666 62.1055 40.7891 61.4851 40.7891H20.93C20.3096 40.7891 19.7871 40.2666 19.7871 39.6462V17.9973C19.7871 17.3769 20.3096 16.8545 20.93 16.8545H25.4687" fill="white"/>
<path id="Path_23" d="M22.1385 18.0952H43.1997L34.8732 40.789H21.0283V19.2381C21.0283 18.6177 21.5181 18.0952 22.1385 18.0952Z" fill="#D3F1E0"/>
<path id="Path_24" d="M59.853 18.0952L51.5264 40.789H43.8203L52.1468 18.0952H59.853Z" fill="#D3F1E0"/>
<path id="Path_25" d="M62.5958 22.6992V39.6461C62.5958 40.2665 62.0733 40.7889 61.4529 40.7889H55.9346L62.5958 22.6992Z" fill="#D3F1E0"/>
<path id="Path_26" d="M50.5467 40.7891H20.8977C20.2773 40.7891 19.7549 40.2666 19.7549 39.6462V17.9973C19.7549 17.3769 20.2773 16.8545 20.8977 16.8545H23.0855" stroke="#1D8F8A" stroke-width="0.97959" stroke-linecap="round" stroke-linejoin="round"/>
<path id="Path_27" d="M28.3428 16.8545H61.453C62.0734 16.8545 62.5958 17.3769 62.5958 17.9973V39.6462C62.5958 40.2666 62.0734 40.7891 61.453 40.7891H58.155" stroke="#1D8F8A" stroke-width="0.97959" stroke-linecap="round" stroke-linejoin="round"/>
<path id="Path_28" d="M27.1348 22.3072C27.396 22.1439 27.6572 21.948 27.9184 21.8174" stroke="#1D8F8A" stroke-width="0.97959" stroke-linecap="round" stroke-linejoin="round"/>
<path id="Path_29" d="M32.9467 37.2296C32.5876 37.2622 32.261 37.2949 31.9018 37.2949C27.3304 37.2949 23.6406 33.6051 23.6406 29.0337C23.6406 27.2051 24.2284 25.5072 25.2406 24.1357" stroke="#1D8F8A" stroke-width="0.97959" stroke-linecap="round" stroke-linejoin="round"/>
<path id="Path_30" d="M29.8447 21.0664C30.4978 20.9031 31.1835 20.8052 31.9019 20.8052C36.4406 20.8052 40.1631 24.495 40.1631 29.0664C40.1631 32.0051 38.6284 34.5521 36.3427 36.0214" stroke="#1D8F8A" stroke-width="0.97959" stroke-linecap="round" stroke-linejoin="round"/>
<path id="Path_31" d="M43.3301 23.0256H58.775" stroke="#1D8F8A" stroke-width="0.97959" stroke-linecap="round" stroke-linejoin="round"/>
<path id="Path_32" d="M54.2041 26.8786H58.7755" stroke="#1D8F8A" stroke-width="0.97959" stroke-linecap="round" stroke-linejoin="round"/>
<path id="Path_33" d="M43.3301 26.8786H51.9505" stroke="#1D8F8A" stroke-width="0.97959" stroke-linecap="round" stroke-linejoin="round"/>
<path id="Path_34" d="M50.0898 30.7316H58.7756" stroke="#1D8F8A" stroke-width="0.97959" stroke-linecap="round" stroke-linejoin="round"/>
<path id="Path_35" d="M43.3301 30.7316H47.8362" stroke="#1D8F8A" stroke-width="0.97959" stroke-linecap="round" stroke-linejoin="round"/>
<path id="Path_36" d="M43.3301 34.6174H52.2444" stroke="#1D8F8A" stroke-width="0.97959" stroke-linecap="round" stroke-linejoin="round"/>
<path id="Path_37" d="M47.4126 14.3403H34.9717C34.8411 14.3403 34.7432 14.2423 34.7432 14.1117V12.4791C34.7432 12.3484 34.8411 12.2505 34.9717 12.2505H47.4126C47.5432 12.2505 47.6411 12.3484 47.6411 12.4791V14.1117C47.6411 14.2423 47.5432 14.3403 47.4126 14.3403Z" fill="white" stroke="#1D8F8A" stroke-width="0.97959" stroke-linecap="round" stroke-linejoin="round"/>
<path id="Path_38" d="M38.2036 7.12368V2.12778C38.2036 1.50737 38.6933 1.01758 39.3138 1.01758H43.0362C43.6566 1.01758 44.1464 1.50737 44.1464 2.12778V12.7726H38.1709V9.53999" fill="white"/>
<path id="Path_39" d="M44.2116 2.16064V12.7728H39.3789V3.27084C39.3789 2.65044 39.8687 2.16064 40.4891 2.16064H44.2116Z" fill="#89E5AF"/>
<path id="Path_40" d="M38.2036 7.09102V2.12778C38.2036 1.50737 38.6933 1.01758 39.3138 1.01758H43.0362C43.6566 1.01758 44.1464 1.50737 44.1464 2.12778V12.7726H38.1709V9.53999" stroke="#1D8F8A" stroke-width="0.97959" stroke-linecap="round" stroke-linejoin="round"/>
<g id="Path_41">
<path d="M40.4238 2.78094C40.6524 2.68298 40.9136 2.61768 41.1748 2.61768C42.1544 2.61768 42.9707 3.40135 42.9707 4.41359C42.9707 5.39318 42.1871 6.2095 41.1748 6.2095C40.1626 6.2095 39.3789 5.42583 39.3789 4.41359" fill="white"/>
<path d="M40.4238 2.78094C40.6524 2.68298 40.9136 2.61768 41.1748 2.61768C42.1544 2.61768 42.9707 3.40135 42.9707 4.41359C42.9707 5.39318 42.1871 6.2095 41.1748 6.2095C40.1626 6.2095 39.3789 5.42583 39.3789 4.41359" stroke="#1D8F8A" stroke-width="0.97959" stroke-linecap="round" stroke-linejoin="round"/>
</g>
<path id="Path_42" d="M29.5185 27.9239C29.943 28.7075 30.7593 29.23 31.6736 29.23C33.045 29.23 34.1226 28.1198 34.1226 26.781C34.1226 25.4096 33.0124 24.332 31.6736 24.332C30.3348 24.332 29.2246 25.4422 29.2246 26.781C29.2573 27.1728 29.3552 27.5647 29.5185 27.9239Z" fill="white"/>
<ellipse id="Oval" cx="32.0972" cy="27.1729" rx="2.05714" ry="2.05714" fill="#89E5AF"/>
<path id="Path_43" d="M34.4163 29.5891C35.5265 30.4381 36.3755 31.5809 36.3755 32.887C36.3755 33.3115 35.951 33.3115 35.951 33.3115H32.9142H31.053H28.0163C28.0163 33.3115 27.5918 33.3115 27.5918 32.887C27.5918 31.1891 28.9306 29.8177 30.5632 28.936" fill="white"/>
<path id="Path_44" d="M31.4122 29.5893C29.9101 30.1117 28.8652 31.5158 28.8652 32.9852C28.8652 33.3444 29.2244 33.3444 29.2244 33.3444H31.8367H33.4367H36.0489C36.0489 33.3444 36.4081 33.3444 36.4081 32.9852C36.4081 31.8423 35.8856 30.8301 34.9714 30.0138C34.6775 29.7526 34.3836 29.524 34.0244 29.3934C33.2081 29.0995 32.3265 29.2954 31.5428 29.5566C31.4775 29.5566 31.4448 29.5566 31.4122 29.5893Z" fill="#89E5AF"/>
<path id="Path_45" d="M30.563 28.9361C30.8895 29.0994 31.2813 29.23 31.7058 29.23C33.0772 29.23 34.1548 28.1198 34.1548 26.781C34.1548 25.4096 33.0446 24.332 31.7058 24.332C30.367 24.332 29.2568 25.4422 29.2568 26.781C29.2568 27.0749 29.2895 27.3361 29.3874 27.5647" stroke="#1D8F8A" stroke-width="0.97959" stroke-linecap="round" stroke-linejoin="round"/>
<path id="Path_46" d="M34.4163 29.5891C35.5265 30.4381 36.3755 31.5809 36.3755 32.887C36.3755 33.3115 35.951 33.3115 35.951 33.3115H32.9142H31.053H28.0163C28.0163 33.3115 27.5918 33.3115 27.5918 32.887C27.5918 31.1891 28.9306 29.8177 30.5632 28.936" stroke="#1D8F8A" stroke-width="0.97959" stroke-linecap="round" stroke-linejoin="round"/>
</g>
</g>
</svg>
