<svg width="82" height="74" viewBox="0 0 82 74" fill="none" xmlns="http://www.w3.org/2000/svg">
<g id="Group 613">
<path id="Path" d="M50.4837 9.03355L44.481 3.41283C43.6624 2.64885 42.4073 2.64885 41.5888 3.41283L35.6406 8.97898" fill="white"/>
<path id="Path_2" d="M48.2461 9.03217L44.0442 5.10312C43.444 4.55742 42.5708 4.55742 42.0251 5.10312L37.8232 9.03217" fill="#89E5AF"/>
<path id="Path_3" d="M22.107 21.585L14.1943 28.9519V61.9122C14.1943 62.6762 14.8492 63.3311 15.6132 63.3311H70.4015C71.1655 63.3311 71.8203 62.6762 71.8203 61.9122V28.9519L63.9622 21.585" fill="white"/>
<path id="Path_4" d="M23.0898 23.4941L14.4678 31.6251V62.5663C14.4678 63.3303 15.068 63.3849 15.832 63.3849H70.2384C71.0024 63.3849 71.6026 62.7846 71.6026 62.0206V31.6251L62.9806 23.4941" fill="#89E5AF"/>
<path id="Path_5" d="M71.6026 29.1699V62.0211C71.6026 62.6214 71.2207 63.1125 70.7295 63.2762C70.5658 63.3308 70.4021 63.3854 70.2384 63.3854H15.832C15.068 63.3854 14.4678 63.3308 14.4678 62.5668V30.0976L15.9412 30.2613L42.2439 46.5778L69.8564 30.043L71.6026 29.1699Z" fill="#D3F1E0"/>
<path id="Path_6" d="M70.7287 48.4333V63.2764C70.565 63.3309 70.4013 63.3855 70.2375 63.3855H53.5937C53.2662 62.2941 53.1025 61.1481 53.1025 59.9476C53.1025 53.0172 58.7233 47.3965 65.6537 47.3965C67.509 47.3965 69.2007 47.7785 70.7287 48.4333Z" fill="#65D292"/>
<path id="Path_7" d="M63.9628 12.4155V33.7524L42.4076 46.6309L22.1621 33.9161V12.47C22.1621 10.5601 23.6901 9.03213 25.6 9.03213H60.5794C62.3803 8.97756 63.9628 10.5601 63.9628 12.4155Z" fill="#ECF8F1"/>
<path id="Path_8" d="M63.9628 12.4174V30.4801L42.4076 43.3586L22.1621 30.6438V12.4174C22.1621 10.5075 23.6901 8.97949 25.6 8.97949H60.5794C62.3803 8.97949 63.9628 10.562 63.9628 12.4174Z" fill="#F5FDF9"/>
<path id="Path_9" d="M50.4837 9.03355L44.481 3.41283C43.6624 2.64885 42.4073 2.64885 41.5888 3.41283L35.6406 8.97898" stroke="#1D8F8A" stroke-width="1.02366" stroke-linecap="round" stroke-linejoin="round"/>
<path id="Path_10" d="M22.107 21.585L14.1943 28.9519V61.9122C14.1943 62.6762 14.8492 63.3311 15.6132 63.3311H70.4015C71.1655 63.3311 71.8203 62.6762 71.8203 61.9122V28.9519L63.9622 21.585" stroke="#1D8F8A" stroke-width="1.02366" stroke-linecap="round" stroke-linejoin="round"/>
<path id="Path_11" d="M57.9594 66.2766C56.6497 64.312 55.8857 61.911 55.8857 59.4007C55.8857 52.4703 61.5065 46.8496 68.4369 46.8496C75.3673 46.8496 80.988 52.4703 80.988 59.4007C80.988 66.3311 75.3673 71.9518 68.4369 71.9518C64.0713 71.9518 60.1968 69.7145 57.9594 66.2766Z" fill="#89E5AF"/>
<path id="Path_12" d="M56.5406 63.3851C56.486 63.276 56.486 63.1668 56.4314 63.0577C56.104 61.9117 55.8857 60.7112 55.8857 59.4561C55.8857 56.673 56.8134 54.1082 58.3414 51.98" stroke="#1D8F8A" stroke-width="1.02366" stroke-linecap="round" stroke-linejoin="round"/>
<path id="Path_13" d="M66.5818 47.0134C67.1821 46.9043 67.7824 46.9043 68.4372 46.9043C75.3676 46.9043 80.9883 52.525 80.9883 59.4554C80.9883 66.3858 75.3676 72.0065 68.4372 72.0065C64.5627 72.0065 61.0703 70.2603 58.7783 67.4772" stroke="#1D8F8A" stroke-width="1.02366" stroke-linecap="round" stroke-linejoin="round"/>
<path id="Path_14" d="M61.2881 49.1415C61.5064 48.9778 61.7246 48.8687 61.9429 48.705" stroke="#1D8F8A" stroke-width="1.02366" stroke-linecap="round" stroke-linejoin="round"/>
<g id="Group">
<path id="Path_15" d="M70.1833 65.1311C69.6376 65.1311 69.1464 64.9128 68.7645 64.5308C68.0005 63.7669 68.0005 62.5117 68.7645 61.6932L69.0373 61.4203H62.98C61.8886 61.4203 60.9609 60.5472 60.9609 59.4012C60.9609 58.3098 61.8341 57.3822 62.98 57.3822H69.0373L68.7645 57.1093C68.3825 56.7273 68.1642 56.2362 68.1642 55.6905C68.1642 55.1448 68.3825 54.6536 68.7645 54.2717C69.1464 53.8897 69.6376 53.6714 70.1833 53.6714C70.729 53.6714 71.2201 53.8897 71.6021 54.2717L75.3129 57.9824C75.6949 58.3644 75.9131 58.8555 75.9131 59.4012C75.9131 59.9469 75.6949 60.4381 75.3129 60.8201L71.6021 64.5308C71.2201 64.9128 70.6744 65.1311 70.1833 65.1311Z" fill="white"/>
<path id="Shape" fill-rule="evenodd" clip-rule="evenodd" d="M68.2182 53.7258C68.7093 53.1801 69.4187 52.9072 70.1827 52.9072C70.8921 52.9072 71.6016 53.1801 72.1473 53.7258L75.858 57.4365C76.4037 57.9277 76.6766 58.6371 76.6766 59.4011C76.6766 60.1105 76.4037 60.8199 75.858 61.3656L72.1473 65.0764C71.6561 65.6221 70.9467 65.8949 70.1827 65.8949C69.4733 65.8949 68.7639 65.6221 68.2182 65.0764C67.6725 64.5852 67.3997 63.8758 67.3997 63.1118C67.3997 62.839 67.4542 62.5116 67.5634 62.2387H63.0886C61.5061 62.2387 60.251 60.9836 60.251 59.4011C60.251 57.8185 61.5607 56.5634 63.0886 56.5634H67.5634C67.4542 56.2906 67.3997 56.0177 67.3997 55.6903C67.3997 54.9809 67.7271 54.2715 68.2182 53.7258ZM71.0011 54.8716C70.7828 54.6533 70.51 54.5442 70.1826 54.5442C69.8551 54.5442 69.5823 54.6533 69.364 54.7625C68.9274 55.2536 68.9274 56.0176 69.364 56.4542L71.0557 58.1458H63.0339C62.379 58.1458 61.8333 58.6915 61.8333 59.3464C61.8333 60.0012 62.379 60.5469 63.0339 60.5469H71.0557L69.364 62.2386C68.9274 62.7297 68.9274 63.4937 69.364 63.9303C69.5823 64.1485 69.8551 64.2577 70.1826 64.2577C70.4554 64.2577 70.7828 64.1485 71.0011 63.9303L74.7119 60.2195C74.9302 60.0012 75.0393 59.6738 75.0393 59.4009C75.0393 59.1281 74.9302 58.8007 74.7119 58.5824L71.0011 54.8716Z" fill="#1D8F8A"/>
</g>
<path id="Path_16" d="M38.8601 44.341L14.249 29.0068" stroke="#1D8F8A" stroke-width="1.02366" stroke-linecap="round" stroke-linejoin="round"/>
<path id="Path_17" d="M29.3652 54.6548L71.8208 29.0068" stroke="#1D8F8A" stroke-width="1.02366" stroke-linecap="round" stroke-linejoin="round"/>
<path id="Path_18" d="M24.4531 57.6001L25.9265 56.6724" stroke="#1D8F8A" stroke-width="1.02366" stroke-linecap="round" stroke-linejoin="round"/>
<path id="Path_19" d="M35.585 9.03271H60.4689C62.3789 9.03271 63.9068 10.5607 63.9068 12.4706V33.8075" stroke="#1D8F8A" stroke-width="1.02366" stroke-linecap="round" stroke-linejoin="round"/>
<path id="Path_20" d="M22.1064 33.9167V12.4706C22.1064 10.5607 23.6344 9.03271 25.5444 9.03271H30.8922" stroke="#1D8F8A" stroke-width="1.02366" stroke-linecap="round" stroke-linejoin="round"/>
<path id="Path_21" d="M63.0346 5.26736V0.628906" stroke="#49C2BD" stroke-width="1.02366" stroke-linecap="round" stroke-linejoin="round"/>
<path id="Path_22" d="M67.6729 11.8168H72.3113" stroke="#49C2BD" stroke-width="1.02366" stroke-linecap="round" stroke-linejoin="round"/>
<path id="Path_23" d="M66.4727 7.8859L69.7469 4.55713" stroke="#49C2BD" stroke-width="1.02366" stroke-linecap="round" stroke-linejoin="round"/>
<path id="Path_24" d="M28.6006 17.3822H56.4859" stroke="#1D8F8A" stroke-width="1.02366" stroke-linecap="round" stroke-linejoin="round"/>
<path id="Path_25" d="M28.6006 24.8041H44.4259" stroke="#1D8F8A" stroke-width="1.02366" stroke-linecap="round" stroke-linejoin="round"/>
<g id="Group_2">
<path id="Path_26" d="M2.68008 46.4689V46.7418" stroke="#91C2FF" stroke-width="1.02366" stroke-linecap="round" stroke-linejoin="round"/>
<path id="Path_27" d="M2.67969 50.6167V69.4979C2.67969 71.517 4.31679 73.0996 6.28131 73.0996H33.1844" stroke="#D3F1E0" stroke-width="1.02366" stroke-linecap="round" stroke-linejoin="round" stroke-dasharray="0.35 2.43"/>
<path id="Path_28" d="M35.1491 73.099H35.422" stroke="#91C2FF" stroke-width="1.02366" stroke-linecap="round" stroke-linejoin="round"/>
</g>
<circle id="Oval" cx="2.67995" cy="45.9768" r="1.69167" fill="white" stroke="#1D8F8A" stroke-width="1.02366" stroke-linecap="round" stroke-linejoin="round"/>
</g>
</svg>
