<svg width="82" height="82" viewBox="0 0 82 82" fill="none" xmlns="http://www.w3.org/2000/svg">
<g id="Group 616">
<g id="Group 2">
<g id="Search_user">
<path id="Path" d="M70.1141 64.4753L64.6069 69.9826L48.6357 54.2318L54.143 48.6694L70.1141 64.4753Z" fill="#F28243" stroke="#F24F45" stroke-width="1.17373" stroke-linecap="round" stroke-linejoin="round"/>
<circle id="Oval" cx="30.7369" cy="31.0464" r="24.7828" fill="#FFF4E8"/>
<path id="Shape" fill-rule="evenodd" clip-rule="evenodd" d="M9.86487 52.8549C-1.97579 41.0142 -1.97579 21.7387 9.86487 9.89807C21.7055 -1.94259 40.9259 -1.94259 52.8217 9.89807C64.6623 21.7387 64.6623 41.0142 52.8217 52.8549C40.981 64.6955 21.7055 64.6955 9.86487 52.8549ZM13.6651 49.055C23.413 58.8029 39.2189 58.8029 48.9668 49.055C58.7147 39.3071 58.7147 23.5012 48.9668 13.7533C39.2189 4.00539 23.413 4.00539 13.6651 13.7533C3.9172 23.5012 3.9172 39.3071 13.6651 49.055Z" fill="white"/>
<path id="Shape_2" fill-rule="evenodd" clip-rule="evenodd" d="M10.8007 53.7913C-0.544259 42.4463 -0.544259 24.052 10.8007 12.707C22.1458 1.36199 40.5401 1.36199 51.8851 12.707C63.2301 24.052 63.2301 42.4463 51.8851 53.7913C40.5401 65.1363 22.1458 65.1363 10.8007 53.7913ZM13.6646 49.0549C23.4125 58.8028 39.2184 58.8028 48.9663 49.0549C58.7142 39.307 58.7142 23.5011 48.9663 13.7532C39.2184 4.0053 23.4125 4.0053 13.6646 13.7532C3.91672 23.5011 3.91672 39.307 13.6646 49.0549Z" fill="#FFCA92"/>
<path id="Shape_3" d="M10.769 9.70107C10.9642 9.50581 10.9642 9.18923 10.769 8.99396C10.5737 8.7987 10.2571 8.7987 10.0619 8.99396L10.769 9.70107ZM9.95173 9.10411C9.75647 9.29937 9.75647 9.61595 9.95173 9.81122C10.147 10.0065 10.4636 10.0065 10.6588 9.81122L9.95173 9.10411ZM8.26785 12.364C8.44356 12.151 8.41332 11.8359 8.2003 11.6601C7.98728 11.4844 7.67215 11.5147 7.49643 11.7277L8.26785 12.364ZM16.0627 4.50594C15.8221 4.6416 15.7371 4.94655 15.8728 5.18708C16.0084 5.4276 16.3134 5.51262 16.5539 5.37697L16.0627 4.50594ZM25.7273 56.2068C25.9969 56.2667 26.2639 56.0967 26.3239 55.8271C26.3838 55.5576 26.2138 55.2905 25.9442 55.2306L25.7273 56.2068ZM38.3588 54.7992C38.0943 54.8785 37.9442 55.1573 38.0236 55.4218C38.1029 55.6863 38.3817 55.8363 38.6462 55.757L38.3588 54.7992ZM10.0619 8.99396C10.0342 9.02164 10.0207 9.03512 10.0068 9.04904C9.99318 9.06266 9.97912 9.07672 9.95173 9.10411L10.6588 9.81122C10.6865 9.78354 10.7 9.77005 10.7139 9.75614C10.7275 9.74252 10.7416 9.72846 10.769 9.70107L10.0619 8.99396ZM7.49643 11.7277C-2.52402 23.8754 -1.85245 41.8447 9.51121 53.2084L10.2183 52.5013C-0.777596 41.5054 -1.42778 24.1179 8.26785 12.364L7.49643 11.7277ZM9.51121 53.2084C21.5471 65.2443 41.1392 65.2443 53.1751 53.2084L52.468 52.5013C40.8226 64.1467 21.8637 64.1467 10.2183 52.5013L9.51121 53.2084ZM53.1751 53.2084C65.2111 41.1725 65.2111 21.5804 53.1751 9.54446L52.468 10.2516C64.1134 21.897 64.1134 40.8559 52.468 52.5013L53.1751 53.2084ZM53.1751 9.54446C43.0978 -0.532848 27.8717 -2.1541 16.0627 4.50594L16.5539 5.37697C27.9856 -1.07032 42.7191 0.502651 52.468 10.2516L53.1751 9.54446ZM25.9442 55.2306C21.5751 54.2597 17.4198 52.0478 14.0182 48.6462L13.3111 49.3533C16.8487 52.8909 21.1746 55.195 25.7273 56.2068L25.9442 55.2306ZM14.0182 48.6462C4.46558 39.0936 4.46558 23.6043 14.0182 14.0516L13.3111 13.3445C3.36795 23.2877 3.36795 39.4102 13.3111 49.3533L14.0182 48.6462ZM14.0182 14.0516C23.5708 4.49901 39.0602 4.49901 48.6128 14.0516L49.3199 13.3445C39.3768 3.40138 23.2543 3.40138 13.3111 13.3445L14.0182 14.0516ZM48.6128 14.0516C58.1654 23.6043 58.1654 39.0936 48.6128 48.6462L49.3199 49.3533C59.2631 39.4102 59.2631 23.2877 49.3199 13.3445L48.6128 14.0516ZM48.6128 48.6462C45.6427 51.6163 42.1353 53.6662 38.3588 54.7992L38.6462 55.757C42.5799 54.5769 46.232 52.4413 49.3199 49.3533L48.6128 48.6462Z" fill="#F24F45"/>
<path id="Path_2" d="M78.7607 78.5741C76.2824 81.0524 72.3172 81.0524 69.8389 78.5741L51.8301 60.7856L60.7519 51.8638L78.7607 69.6523C81.1839 72.1306 81.1839 76.1509 78.7607 78.5741Z" fill="white"/>
<path id="Path_3" d="M77.4393 79.8956C75.677 81.6579 72.4277 81.2724 70.2248 79.0144L53.8682 62.823L60.2566 56.4346L76.6132 72.626C78.8162 74.884 79.2017 78.1333 77.4393 79.8956Z" fill="#FFCA92"/>
<path id="Path_4" d="M66.3697 57.4813L78.706 69.7075C81.1843 72.1858 81.1843 76.151 78.706 78.6293V78.6293C76.2277 81.1075 72.2625 81.1075 69.7842 78.6293L51.7754 60.8407L60.6972 51.9189L62.2943 53.5161" stroke="#F24F45" stroke-width="1.17373" stroke-linecap="round" stroke-linejoin="round"/>
</g>
</g>
<path id="Shape_4" fill-rule="evenodd" clip-rule="evenodd" d="M31.6547 15.4414C22.5269 15.4414 15.1328 22.8864 15.1328 31.9633C15.1328 41.0911 22.5778 48.4851 31.6547 48.4851C40.7825 48.4851 48.1765 41.0401 48.1765 31.9633C48.1765 22.8864 40.7825 15.4414 31.6547 15.4414ZM35.9184 38.7929C36.1251 36.902 36.2801 34.8066 36.2801 32.7624H40.9816C40.8782 35.5221 40.3616 38.0774 39.4833 40.2239C38.3467 39.6617 37.1584 39.1506 35.9184 38.7929ZM33.7865 46.3531C35.8014 45.4614 37.7082 43.7321 38.9998 41.1617C38.0182 40.5846 36.8347 40.0058 35.698 39.6911C35.2847 42.4189 34.6131 44.7794 33.7865 46.3531ZM23.8261 40.2239C22.9478 38.0263 22.3795 35.471 22.3278 32.7624H27.0293C27.0293 34.8066 27.1843 36.902 27.3909 38.7929C26.151 39.0995 24.9627 39.6106 23.8261 40.2239ZM29.5229 46.3531C28.6446 44.8319 28.0246 42.4713 27.6113 39.6911C26.4747 40.0583 25.4414 40.4779 24.4597 41.0025C25.6997 43.5729 27.508 45.5138 29.5229 46.3531ZM27.391 25.1337C27.1843 27.0246 27.0293 29.12 27.0293 31.1642H22.3278C22.4311 28.4045 22.9478 25.8492 23.8261 23.7027C24.9627 24.2649 26.151 24.7759 27.391 25.1337ZM29.5229 17.5735C27.508 18.4652 25.7514 20.3537 24.4597 22.9241C25.4414 23.5011 26.4747 23.9207 27.6113 24.2355C28.0246 21.5077 28.6963 19.1472 29.5229 17.5735ZM28.5577 25.5676C29.555 25.7675 30.6048 25.8674 31.6545 25.8674C32.7043 25.8674 33.7541 25.7675 34.7514 25.5676C34.9613 27.2165 35.0663 29.1152 35.1188 31.1637H28.1903C28.1903 29.1152 28.3478 27.2165 28.5577 25.5676ZM35.1188 32.7624H28.1903C28.1903 34.7928 28.3466 36.6747 28.5549 38.3585C29.5447 38.1604 30.5866 38.0614 31.6285 38.0614C32.6704 38.0614 33.7123 38.1604 34.7542 38.309C34.9625 36.6252 35.1188 34.7928 35.1188 32.7624ZM36.28 31.1642C36.28 29.12 36.125 27.0246 35.9184 25.1337C37.1583 24.7759 38.3983 24.316 39.4833 23.7027C40.3616 25.9003 40.9299 28.4556 40.9815 31.1642H36.28ZM33.7865 17.5735C34.6648 19.0947 35.2847 21.4553 35.698 24.2355C36.8347 23.8683 37.868 23.4486 38.8496 22.9241C37.6096 20.3012 35.8014 18.4128 33.7865 17.5735ZM37.5172 18.1066C39.0771 18.7235 40.533 19.5302 41.7809 20.5268C41.313 20.9064 40.845 21.2386 40.325 21.5708C39.5451 20.2421 38.6092 19.0557 37.5172 18.1066ZM31.2549 24.7683C32.2043 24.7683 33.6634 24.578 34.5627 24.3764C34.1007 19.4698 32.528 17.2285 31.6286 17.279C30.6793 17.279 29.3807 20.0228 28.6812 24.5598C29.5805 24.711 30.3056 24.7683 31.2549 24.7683ZM22.9843 21.5708C22.4643 21.2386 21.9964 20.9064 21.5284 20.5268C22.7763 19.5302 24.2322 18.676 25.7921 18.1066C24.7002 19.0557 23.7642 20.2421 22.9843 21.5708ZM20.9264 31.1636C20.977 28.0856 21.5834 25.2164 22.5942 22.7645C22.4551 22.6568 22.3133 22.549 22.1707 22.4407L22.1707 22.4407C21.6916 22.0768 21.2032 21.7058 20.7748 21.3038C18.3994 23.9122 16.8833 27.3553 16.7316 31.1636H20.9264ZM20.9265 32.7624C21.0276 35.8403 21.634 38.7096 22.5943 41.1615C21.9373 41.631 21.3308 42.1005 20.7749 42.6222C18.3995 40.0138 16.8833 36.5707 16.7317 32.7624H20.9265ZM26.1427 46.0869C25.1859 44.9791 23.8262 43.3998 22.9844 42.0823C22.6484 42.31 22.2074 42.6762 21.7925 43.0209L21.7924 43.0209C21.6328 43.1535 21.4771 43.2828 21.3327 43.3998C22.5806 44.3829 24.5828 45.4784 26.1427 46.0869ZM28.8149 39.4062C29.7143 39.255 30.6794 39.1797 31.6287 39.1797C32.578 39.1797 33.5179 39.255 34.4173 39.4062C33.7178 43.9436 32.3639 47.3356 31.6161 47.3356C30.8683 47.3356 29.5229 43.9436 28.8149 39.4062ZM41.6121 43.2625C41.1734 42.9051 40.649 42.4779 40.1896 42.1844C39.4097 43.5132 37.9171 45.1378 36.8251 46.0869C38.385 45.5175 40.533 44.3964 41.7809 43.3998L41.6121 43.2625ZM40.7149 41.1615C41.7257 38.7096 42.3322 35.8403 42.3827 32.7624H46.5775C46.4259 36.5707 44.9097 40.0138 42.5343 42.6222C42.1059 42.2202 41.6175 41.8492 41.1385 41.4853L41.1384 41.4852C40.9958 41.3769 40.854 41.2692 40.7149 41.1615ZM42.3827 31.1636H46.5775C46.4259 27.3553 44.9097 23.9122 42.5343 21.3038C41.9784 21.8254 41.3719 22.295 40.7149 22.7645C41.6752 25.2164 42.2816 28.0856 42.3827 31.1636Z" fill="#F24F45"/>
</g>
</svg>
