<svg width="82" height="58" viewBox="0 0 82 58" fill="none" xmlns="http://www.w3.org/2000/svg">
<g id="Group 611">
<circle id="Oval" cx="75.748" cy="29.8496" r="4.97949" fill="white"/>
<circle id="Oval_2" cx="68.2881" cy="7.76562" r="4.97945" transform="rotate(-45 68.2881 7.76562)" fill="white"/>
<circle id="Oval_3" cx="67.6162" cy="50.2363" r="4.97945" transform="rotate(-45 67.6162 50.2363)" fill="white"/>
<circle id="Oval_4" cx="5.70703" cy="29.8496" r="4.97949" fill="white"/>
<circle id="Oval_5" cx="13.1309" cy="7.76416" r="4.97945" transform="rotate(-45 13.1309 7.76416)" fill="white"/>
<circle id="Oval_6" cx="13.7705" cy="50.2319" r="4.97945" transform="rotate(-45 13.7705 50.2319)" fill="white"/>
<circle id="Oval_7" cx="76.5689" cy="30.6709" r="4.1587" fill="#E1F6EA"/>
<circle id="Oval_8" cx="69.1293" cy="8.59131" r="4.15866" transform="rotate(-45 69.1293 8.59131)" fill="#E1F6EA"/>
<circle id="Oval_9" cx="68.3795" cy="51.0068" r="4.21338" transform="rotate(-45 68.3795 51.0068)" fill="#E1F6EA"/>
<ellipse id="Oval_10" cx="6.41853" cy="30.6158" rx="4.26814" ry="4.26814" fill="#E1F6EA"/>
<circle id="Oval_11" cx="13.9721" cy="8.58984" r="4.15866" transform="rotate(-45 13.9721 8.58984)" fill="#E1F6EA"/>
<circle id="Oval_12" cx="14.5348" cy="51.0039" r="4.21338" transform="rotate(-45 14.5348 51.0039)" fill="#E1F6EA"/>
<g id="Group">
<path id="Path" d="M52.4916 41.1767C45.8705 47.7978 35.1455 47.7978 28.5791 41.1767C21.958 34.5556 21.958 23.8305 28.5791 17.2642C35.2002 10.6431 45.9252 10.6431 52.4916 17.2642C59.1127 23.8305 59.1127 34.5556 52.4916 41.1767Z" fill="white"/>
<path id="Path_2" d="M52.7651 41.3959C46.527 47.634 36.4039 47.634 30.2205 41.3959C23.9825 35.1579 23.9825 25.0894 30.2205 18.8514C36.4586 12.6133 46.527 12.6133 52.7651 18.8514C59.0031 25.0347 59.0031 35.1579 52.7651 41.3959Z" fill="#F5FDF9"/>
<path id="Shape" d="M40.7867 11.8853C40.5658 11.8824 40.3845 12.0591 40.3816 12.28C40.3787 12.5008 40.5555 12.6822 40.7763 12.6851L40.7867 11.8853ZM52.4915 17.2646L52.2064 17.5451L52.2087 17.5474L52.4915 17.2646ZM52.4915 41.1772L52.2099 40.8932L52.2087 40.8944L52.4915 41.1772ZM45.2587 45.0636C45.0479 45.1295 44.9304 45.3538 44.9962 45.5646C45.0621 45.7754 45.2864 45.8929 45.4973 45.827L45.2587 45.0636ZM33.3387 13.4536C33.1377 13.545 33.0488 13.7821 33.1402 13.9832C33.2316 14.1843 33.4686 14.2732 33.6697 14.1818L33.3387 13.4536ZM35.4699 13.4922C35.683 13.4341 35.8087 13.2142 35.7505 13.0011C35.6924 12.788 35.4726 12.6624 35.2595 12.7205L35.4699 13.4922ZM36.7018 46.1092C36.9176 46.1563 37.1307 46.0195 37.1778 45.8037C37.2249 45.5879 37.0881 45.3748 36.8723 45.3278L36.7018 46.1092ZM28.5244 41.1768L28.2416 41.4595L28.5244 41.1768ZM28.5244 17.2642L28.806 17.5482L28.8072 17.547L28.5244 17.2642ZM29.5186 16.8904C29.6747 16.7342 29.6747 16.481 29.5186 16.3248C29.3624 16.1686 29.1092 16.1686 28.953 16.3248L29.5186 16.8904ZM40.7763 12.6851C44.8905 12.7385 49.056 14.3413 52.2064 17.5451L52.7767 16.9842C49.4701 13.6216 45.0994 11.9413 40.7867 11.8853L40.7763 12.6851ZM52.2087 17.5474C58.6743 24.013 58.6726 34.4839 52.2099 40.8932L52.7731 41.4611C59.5526 34.7377 59.5509 23.7585 52.7743 16.9819L52.2087 17.5474ZM52.2087 40.8944C50.2328 42.8703 47.8278 44.2607 45.2587 45.0636L45.4973 45.827C48.1813 44.9883 50.701 43.5333 52.7743 41.46L52.2087 40.8944ZM33.6697 14.1818C34.2672 13.9102 34.9001 13.6476 35.4699 13.4922L35.2595 12.7205C34.6255 12.8934 33.9451 13.178 33.3387 13.4536L33.6697 14.1818ZM36.8723 45.3278C33.9366 44.6872 31.1053 43.1921 28.8072 40.894L28.2416 41.4595C30.6494 43.8674 33.6184 45.4365 36.7018 46.1092L36.8723 45.3278ZM28.8072 40.894C22.3416 34.4284 22.3433 23.9575 28.806 17.5482L28.2428 16.9803C21.4633 23.7037 21.465 34.6829 28.2416 41.4595L28.8072 40.894ZM28.8072 17.547C28.9068 17.4474 29.0208 17.3459 29.1458 17.2348C29.267 17.1271 29.3993 17.0097 29.5186 16.8904L28.953 16.3248C28.8534 16.4244 28.7394 16.5259 28.6144 16.637C28.4931 16.7448 28.3609 16.8622 28.2416 16.9814L28.8072 17.547Z" fill="#1D8F8A"/>
<g id="Group_2">
<path id="Path_3" d="M35.4193 26.3482C36.2948 27.9898 38.0458 29.1389 40.0158 29.1389C42.9159 29.1389 45.2141 26.786 45.2141 23.9406C45.2141 21.0404 42.8612 18.7422 40.0158 18.7422C37.1703 18.7422 34.8174 21.0951 34.8174 23.9406C34.8174 24.8161 35.0363 25.6369 35.4193 26.3482Z" fill="white"/>
<ellipse id="Oval_13" cx="40.8913" cy="24.7609" rx="4.37758" ry="4.37758" fill="#E1F6EA"/>
<path id="Path_4" d="M45.8708 29.9051C48.2785 31.7109 50.0295 34.1186 50.0295 36.9093C50.0295 37.7848 49.154 37.7848 49.154 37.7848H42.6971H38.7572H32.3003C32.3003 37.7848 31.4248 37.7848 31.4248 36.9093C31.4248 33.2978 34.2702 30.3976 37.7176 28.4824" fill="white"/>
<path id="Path_5" d="M39.4143 29.8504C36.2405 30.9448 34.0518 33.9543 34.0518 37.0734C34.0518 37.8394 34.8178 37.8394 34.8178 37.8394H40.3445H43.7371H49.2638C49.2638 37.8394 50.0299 37.8394 50.0299 37.0734C50.0299 34.6657 48.9355 32.4769 46.9656 30.7806C46.3637 30.2334 45.7071 29.7409 44.941 29.4673C43.2447 28.8107 41.3295 29.2485 39.6332 29.7956C39.5784 29.8504 39.469 29.8504 39.4143 29.8504Z" fill="#E1F6EA"/>
<path id="Path_6" d="M37.6081 28.537C38.3194 28.9201 39.1402 29.1389 40.0158 29.1389C42.9159 29.1389 45.2141 26.786 45.2141 23.9406C45.2141 21.0404 42.8612 18.7422 40.0158 18.7422C37.1703 18.7422 34.8174 21.0951 34.8174 23.9406C34.8174 24.5425 34.9268 25.0897 35.091 25.6369" stroke="#1D8F8A" stroke-width="0.799857" stroke-linecap="round" stroke-linejoin="round"/>
<path id="Path_7" d="M45.8708 29.9051C48.2785 31.7109 50.0295 34.1186 50.0295 36.9093C50.0295 37.7848 49.154 37.7848 49.154 37.7848H42.6971H38.7572H32.3003C32.3003 37.7848 31.4248 37.7848 31.4248 36.9093C31.4248 33.2978 34.2702 30.3976 37.7176 28.4824" stroke="#1D8F8A" stroke-width="0.799857" stroke-linecap="round" stroke-linejoin="round"/>
</g>
</g>
<circle id="Oval_14" cx="75.748" cy="29.8496" r="4.97949" stroke="#1D8F8A" stroke-width="0.799857" stroke-linecap="round" stroke-linejoin="round"/>
<path id="Path_8" d="M68.3611 29.8498H62.1777" stroke="#1D8F8A" stroke-width="0.799857" stroke-linecap="round" stroke-linejoin="round"/>
<circle id="Oval_15" cx="68.2881" cy="7.76562" r="4.97945" transform="rotate(-45 68.2881 7.76562)" stroke="#1D8F8A" stroke-width="0.799849" stroke-linecap="round" stroke-linejoin="round"/>
<path id="Path_9" d="M63.0533 12.9961L58.7305 17.3737" stroke="#1D8F8A" stroke-width="0.799857" stroke-linecap="round" stroke-linejoin="round"/>
<path id="Path_10" d="M66.6655 45.3345C65.7352 45.4986 64.805 45.9911 64.0936 46.7025C62.1237 48.6724 62.1237 51.8461 64.0936 53.7613C66.0636 55.7312 69.2373 55.7312 71.1525 53.7613C73.1224 51.7914 73.1224 48.6177 71.1525 46.7025C70.8789 46.4289 70.5506 46.1553 70.2223 45.9364" stroke="#1D8F8A" stroke-width="0.799857" stroke-linecap="round" stroke-linejoin="round"/>
<path id="Path_11" d="M62.3971 45.0617L58.0742 40.6841" stroke="#1D8F8A" stroke-width="0.799857" stroke-linecap="round" stroke-linejoin="round"/>
<circle id="Oval_16" cx="5.70703" cy="29.8496" r="4.97949" stroke="#1D8F8A" stroke-width="0.799857" stroke-linecap="round" stroke-linejoin="round"/>
<path id="Path_12" d="M13.0947 29.8498H19.2233" stroke="#1D8F8A" stroke-width="0.799857" stroke-linecap="round" stroke-linejoin="round"/>
<path id="Path_13" d="M17.0885 10.8613C18.6207 8.8914 18.5112 6.04597 16.7055 4.24022C15.6111 3.14583 14.1337 2.65335 12.7109 2.81751" stroke="#1D8F8A" stroke-width="0.799857" stroke-linecap="round" stroke-linejoin="round"/>
<path id="Path_14" d="M9.37365 4.45996C7.62262 6.42987 7.73206 9.43946 9.59253 11.2999C10.6322 12.3396 12.0002 12.8321 13.3682 12.7774" stroke="#1D8F8A" stroke-width="0.799857" stroke-linecap="round" stroke-linejoin="round"/>
<path id="Path_15" d="M18.3477 12.9961L22.7252 17.3737" stroke="#1D8F8A" stroke-width="0.799857" stroke-linecap="round" stroke-linejoin="round"/>
<path id="Path_16" d="M17.636 53.4887C17.5266 53.5982 17.4719 53.7076 17.3624 53.817C15.3925 55.7869 12.2188 55.7869 10.3036 53.817C8.33369 51.8471 8.33369 48.6734 10.3036 46.7582C12.2735 44.7883 15.4473 44.7883 17.3624 46.7582C18.1832 47.579 18.6757 48.6734 18.7852 49.7678" stroke="#1D8F8A" stroke-width="0.799857" stroke-linecap="round" stroke-linejoin="round"/>
<path id="Path_17" d="M19.0039 45.0617L23.3815 40.6841" stroke="#1D8F8A" stroke-width="0.799857" stroke-linecap="round" stroke-linejoin="round"/>
</g>
</svg>
