<svg width="81" height="81" viewBox="0 0 81 81" fill="none" xmlns="http://www.w3.org/2000/svg">
<path fill-rule="evenodd" clip-rule="evenodd" d="M75.4368 40.7673C75.4368 42.0635 75.1421 42.3581 73.8458 42.3581H67.8188V48.2191C67.8188 49.602 67.4825 49.9347 66.1031 49.9347H65.6003C64.2174 49.9347 63.8846 49.5986 63.8846 48.2191V42.3581H57.8576C56.5613 42.3581 56.2666 42.0635 56.2666 40.7673V40.3063C56.2666 39.0932 56.5613 38.7154 57.8576 38.7154H63.8846V32.8128C63.8846 31.4334 64.2209 31.0972 65.6003 31.0972H66.1031C67.486 31.0972 67.8188 31.4334 67.8188 32.8128V38.7154H73.8458C75.1421 38.7154 75.4368 39.0932 75.4368 40.3063V40.7673Z" fill="url(#paint0_linear_11563_42540)"/>
<path fill-rule="evenodd" clip-rule="evenodd" d="M45.5012 42.0045L50.8633 48.5517C51.8371 49.7994 51.7886 50.0282 50.1665 50.0282H49.612C47.9898 50.0282 47.3869 49.7059 46.4127 48.5517L43.46 44.9679L44.1633 44.1118C44.7909 43.3874 45.2345 42.6907 45.5012 42.0045ZM50.2461 31C51.7921 31.0069 51.8198 31.2496 50.8633 32.4765L45.5012 39.0237C45.238 38.3375 44.7909 37.6373 44.1633 36.9164L43.46 36.0603L46.4127 32.4765C47.3626 31.3501 47.9587 31.0139 49.4977 31H49.6085H50.2426H50.2461Z" fill="url(#paint1_linear_11563_42540)"/>
<path fill-rule="evenodd" clip-rule="evenodd" d="M35.2729 50.0282C33.6507 50.0282 33.6056 49.796 34.5761 48.5517L40.1355 41.7618C40.5515 41.2524 40.7835 40.8364 40.7835 40.5141C40.7835 40.1432 40.5515 39.7273 40.1355 39.2664L34.5761 32.4765C33.6021 31.2287 33.6507 31 35.2729 31H35.8273C37.4495 31 38.0524 31.3223 39.0263 32.4765L43.2895 37.6477C45.0952 39.7273 45.0952 41.2974 43.2895 43.3735L39.0263 48.5448C38.0524 49.6989 37.4495 50.0213 35.8273 50.0213H35.2729V50.0282Z" fill="url(#paint2_linear_11563_42540)"/>
<path fill-rule="evenodd" clip-rule="evenodd" d="M26.3862 48.261C26.3862 49.6405 26.7328 49.9836 28.1158 49.9836H28.6149C29.9978 49.9836 30.3444 49.6405 30.3444 48.261V32.7092C30.3444 31.3297 29.9978 30.9866 28.6149 30.9866H28.1158C26.7328 30.9866 26.3862 31.3297 26.3862 32.7092V48.261ZM26.6566 26.8482C27.6167 27.7667 29.1556 27.7667 30.0775 26.8482C31.0376 25.8916 31.0376 24.3596 30.0775 23.4377C29.1556 22.4811 27.6167 22.4811 26.6566 23.4377C25.6965 24.3562 25.6965 25.8881 26.6566 26.8482Z" fill="url(#paint3_linear_11563_42540)"/>
<path fill-rule="evenodd" clip-rule="evenodd" d="M5.12988 55.9519C5.12988 57.3313 5.47648 57.6745 6.85941 57.6745H7.32039C8.70332 57.6745 9.04992 57.3313 9.04992 55.9519V47.9454C10.0862 49.5917 11.9717 50.434 14.6994 50.434C20.0405 50.434 22.692 47.6369 22.692 42.0844V38.7536C22.692 33.2011 19.8464 30.5947 13.8919 30.5947C8.35672 30.5947 5.12988 33.2774 5.12988 38.7536V55.9519ZM18.7338 42.1641C18.7338 45.3806 17.6594 46.7219 13.93 46.7219C10.2006 46.7219 9.04992 45.3424 9.04992 42.1641V38.8715C9.04992 35.655 10.2041 34.2756 13.93 34.2756C17.6559 34.2756 18.7338 35.655 18.7338 38.8715V42.1641Z" fill="url(#paint4_linear_11563_42540)"/>
<defs>
<linearGradient id="paint0_linear_11563_42540" x1="65.85" y1="31.0972" x2="65.85" y2="49.9313" gradientUnits="userSpaceOnUse">
<stop stop-color="#FFBE00"/>
<stop offset="1" stop-color="#FF9F00"/>
</linearGradient>
<linearGradient id="paint1_linear_11563_42540" x1="47.4839" y1="31" x2="47.4839" y2="50.0282" gradientUnits="userSpaceOnUse">
<stop stop-color="#12A3FF"/>
<stop offset="1" stop-color="#3D68FF"/>
</linearGradient>
<linearGradient id="paint2_linear_11563_42540" x1="39.2864" y1="31" x2="39.2864" y2="50.0282" gradientUnits="userSpaceOnUse">
<stop stop-color="#FFBE00"/>
<stop offset="1" stop-color="#FF9F00"/>
</linearGradient>
<linearGradient id="paint3_linear_11563_42540" x1="28.3688" y1="22.7202" x2="28.3688" y2="49.9836" gradientUnits="userSpaceOnUse">
<stop stop-color="#12A3FF"/>
<stop offset="1" stop-color="#3D68FF"/>
</linearGradient>
<linearGradient id="paint4_linear_11563_42540" x1="13.9092" y1="30.5947" x2="13.9092" y2="57.6745" gradientUnits="userSpaceOnUse">
<stop stop-color="#12A3FF"/>
<stop offset="1" stop-color="#3D68FF"/>
</linearGradient>
</defs>
</svg>
