<svg width="82" height="82" viewBox="0 0 82 82" fill="none" xmlns="http://www.w3.org/2000/svg">
<g id="zoom">
<g id="Object">
<g id="Settings">
<path id="Path" d="M0.943359 7.7366C3.05556 5.63641 5.0566 3.53622 7.1688 1.43604C7.44672 1.60184 7.78023 1.76764 8.05815 1.98872C12.0046 4.75212 15.8955 7.57079 19.842 10.3342C22.5101 12.2133 23.5662 15.1425 22.5656 18.2375C22.3433 18.956 22.4545 19.3982 23.0103 19.9508C26.9012 23.7643 30.7365 27.5778 34.5718 31.3913C34.9054 31.723 35.2944 31.8888 35.6835 32.1651C34.3495 33.4915 33.2378 34.5969 32.015 35.7575C31.7371 35.4812 31.4035 35.2048 31.07 34.8732C27.2347 31.0597 23.3438 27.2462 19.5085 23.3775C19.0083 22.8801 18.5636 22.7143 17.841 22.9353C14.4503 23.9302 11.7823 22.8801 9.72568 20.0061C6.77971 15.9163 3.83374 11.7712 0.943359 7.7366Z" fill="white"/>
<path id="Path_2" d="M74.9815 27.8539C70.5347 31.4464 65.5322 32.2754 60.1405 30.0647C59.4735 29.7883 59.0844 29.8436 58.5841 30.3963C51.0247 37.9127 22.1764 67.2048 10.4481 78.8111C8.33594 80.9113 4.88971 80.9113 2.77751 78.8111C0.665309 76.7109 0.665309 73.2843 2.77751 71.1841C14.5058 59.5226 43.354 30.2857 50.9691 22.7693C51.6361 22.1061 51.4693 21.6087 51.247 20.9454C48.4122 12.3236 53.4148 3.20437 62.1971 1.26999C64.1426 0.827846 66.2548 1.04892 68.2558 1.10419C68.6449 1.10419 69.2563 1.4358 69.3675 1.7674C69.4786 2.09901 69.2007 2.70696 68.9228 2.9833C66.8662 5.08349 64.6984 7.12841 62.6418 9.2286C59.0288 12.9868 60.4184 18.9558 65.3654 20.6138C68.089 21.5534 70.5348 20.8902 72.5914 18.9005C74.5924 16.9661 76.5379 14.9765 78.5389 13.0421C78.928 12.7105 79.595 12.2131 79.9285 12.3789C80.3732 12.6 80.7623 13.2632 80.8178 13.7606C81.4848 19.5085 79.4838 24.2615 74.9815 27.8539Z" fill="white"/>
<path id="Path_3" d="M80.8739 15.7496C80.9851 20.6132 78.9285 24.7031 74.982 27.8533C70.5353 31.4458 65.5327 32.2748 60.141 30.0641C59.474 29.7877 59.0849 29.843 58.5846 30.3957C51.0252 37.9121 22.1769 67.2042 10.4487 78.8105C9.2258 80.0264 7.61386 80.5238 6.0575 80.358C5.11256 79.3079 4.6123 78.0368 4.6123 76.7104C4.6123 75.3287 5.11256 73.9469 6.22425 72.8969C17.9525 61.2353 46.8008 31.9985 54.4158 24.482C55.0828 23.8188 54.9161 23.3214 54.6937 22.6581C51.8589 14.0363 56.8615 4.91709 65.6438 2.98271C66.7555 2.76163 67.9784 2.70637 69.1457 2.76163C69.0901 2.8169 69.0345 2.92744 68.9789 2.98271C66.9223 5.08289 64.7545 7.12781 62.6979 9.228C59.0849 12.9862 60.4745 18.9552 65.4215 20.6132C65.755 20.7238 66.0329 20.779 66.3109 20.8896C66.9779 21.4975 66.6999 20.8896 67.7005 21.2212C70.4241 22.1607 71.7025 20.3369 73.7592 18.3472C75.0376 17.0761 78.5394 13.152 80.3737 12.5441C80.8739 12.323 80.4848 16.0812 80.8739 15.7496Z" fill="#D7D2F7"/>
<path id="Path_4" d="M41.4082 53.6644C45.4659 49.5746 49.4123 45.6506 53.5812 41.4502C56.0269 43.9373 58.417 46.5349 60.9183 48.9667C66.1988 54.2171 71.5349 59.4676 76.8154 64.7181C78.5385 66.4314 80.1504 68.0894 80.7063 70.5765C81.4845 74.2242 79.8725 77.8719 76.5931 79.8063C73.5359 81.5748 69.3671 81.2985 66.7546 78.8667C63.2528 75.5506 59.8622 72.124 56.4715 68.6974C51.6913 63.9443 46.9666 59.1913 42.1864 54.4382C41.8529 54.2171 41.6305 53.8855 41.4082 53.6644Z" fill="white"/>
<path id="Path_5" d="M63.8087 51.8406C68.1443 56.1515 72.4799 60.4624 76.8155 64.7181C78.5386 66.4314 80.1505 68.0894 80.7064 70.5765C81.4846 74.2242 79.8726 77.8719 76.5931 79.8063C73.536 81.5748 69.3672 81.2985 66.7547 78.8667C63.2529 75.5506 59.8623 72.124 56.4716 68.6974C51.6914 63.9443 46.9667 59.1913 42.1865 54.4382C41.9085 54.1619 41.6862 53.8855 41.4639 53.6644C45.5215 49.5746 49.468 45.6506 53.6368 41.4502C56.0825 43.9373 58.4727 46.5349 60.9739 48.9667C61.8633 49.9615 62.8082 50.901 63.8087 51.8406Z" fill="#A99FF3"/>
<path id="Path_6" d="M13.8944 75.3846C12.6159 76.6557 11.4487 77.8164 10.4481 78.8112C8.33594 80.9114 4.88971 80.9114 2.77751 78.8112V78.8112C0.665309 76.711 0.665309 73.2844 2.77751 71.1842C14.5058 59.5226 43.354 30.2858 50.9691 22.7694C51.6361 22.1061 51.4693 21.6087 51.247 20.9455C49.5795 15.8608 50.6356 10.6104 53.526 6.79688" stroke="#5E2665" stroke-width="0.930056" stroke-linecap="round" stroke-linejoin="round"/>
<path id="Path_7" d="M64.142 1.04965C65.476 0.994387 66.8656 1.10492 68.1996 1.10492C68.5887 1.10492 69.2002 1.43653 69.3113 1.76814C69.4225 2.09975 69.1446 2.7077 68.8667 2.98404C66.81 5.08423 64.6422 7.12915 62.5856 9.22933C58.9727 12.9876 60.3623 18.9565 65.3093 20.6146C68.0329 21.5541 70.4786 20.8909 72.5352 18.9013C74.5362 16.9669 76.4817 14.9772 78.4827 13.0428C78.8718 12.7112 79.5388 12.2138 79.8723 12.3796C80.317 12.6007 80.7061 13.2639 80.7617 13.7613C81.5399 19.5092 79.4833 24.2623 75.0365 27.8547C70.5898 31.4471 65.5872 32.2761 60.1955 30.0654C59.5285 29.7891 59.1394 29.8443 58.6391 30.397C52.636 36.366 33.126 56.152 19.5078 69.8032" stroke="#5E2665" stroke-width="0.930056" stroke-linecap="round" stroke-linejoin="round"/>
<path id="Path_8" d="M55.6934 4.41979C56.3048 3.92238 56.9162 3.42496 57.6388 3.03809" stroke="#5E2665" stroke-width="0.930056" stroke-linecap="round" stroke-linejoin="round"/>
<path id="Path_9" d="M61.641 49.7408C66.6991 54.7702 71.7573 59.7443 76.8155 64.7737C78.5386 66.487 80.1505 68.1451 80.7064 70.6322C81.4845 74.2798 79.8726 77.9275 76.5931 79.8619C73.536 81.6305 69.3672 81.3542 66.7547 78.9224C63.2529 75.6063 59.8623 72.1797 56.4716 68.753C51.6914 64 46.9667 59.2469 42.1865 54.4939C41.9085 54.2175 41.6862 53.9412 41.4639 53.7201C45.5215 49.6303 49.468 45.7062 53.6368 41.5059C53.9147 41.7822 54.1927 42.0585 54.4706 42.3901" stroke="#5E2665" stroke-width="0.930056" stroke-linecap="round" stroke-linejoin="round"/>
<path id="Path_10" fill-rule="evenodd" clip-rule="evenodd" d="M0.943359 7.7366C3.05556 5.63641 5.0566 3.53622 7.1688 1.43604C7.44672 1.60184 7.78023 1.76764 8.05815 1.98872C12.0046 4.75212 15.8955 7.57079 19.842 10.3342C22.5101 12.2133 23.5662 15.1425 22.5656 18.2375C22.3433 18.956 22.4545 19.3982 23.0103 19.9508C26.9012 23.7643 30.7365 27.5778 34.5719 31.3913C34.9054 31.723 35.2944 31.8888 35.6835 32.1651C34.3495 33.4915 33.2378 34.5969 32.015 35.7575C31.7371 35.4812 31.4035 35.2048 31.07 34.8732C27.2347 31.0597 23.3438 27.2462 19.5085 23.3775C19.0083 22.8801 18.5636 22.7143 17.841 22.9353C14.4503 23.9302 11.7823 22.8801 9.72568 20.0061C6.77971 15.9163 3.83374 11.7712 0.943359 7.7366Z" stroke="#5E2665" stroke-width="0.930056" stroke-linecap="round" stroke-linejoin="round"/>
<path id="Path_11" d="M49.1348 53.1665L71.7576 75.6606" stroke="#5E2665" stroke-width="0.930056" stroke-linecap="round" stroke-linejoin="round"/>
<path id="Path_12" d="M53.1367 49.1875L75.7595 71.6816" stroke="#5E2665" stroke-width="0.930056" stroke-linecap="round" stroke-linejoin="round"/>
<ellipse id="Oval" cx="7.0575" cy="74.5005" rx="1.44519" ry="1.43697" stroke="#5E2665" stroke-width="0.930056" stroke-linecap="round" stroke-linejoin="round"/>
<path id="Path_13" d="M13.061 68.5308L12.0049 69.5809" stroke="#5E2665" stroke-width="0.930056" stroke-linecap="round" stroke-linejoin="round"/>
<path id="Path_14" d="M53.1367 28.7373L15.0059 66.596" stroke="#5E2665" stroke-width="0.930056" stroke-linecap="round" stroke-linejoin="round"/>
</g>
</g>
</g>
</svg>
