<svg width="82" height="60" viewBox="0 0 82 60" fill="none" xmlns="http://www.w3.org/2000/svg">
<g id="zoom">
<g id="Object">
<g id="Code Copy">
<path id="Path" d="M77.554 54.2173H12.7523C11.1935 54.2173 9.91309 52.9369 9.91309 51.3781V5.7831C9.91309 4.22429 11.1935 2.94385 12.7523 2.94385H77.554C79.1128 2.94385 80.3932 4.22429 80.3932 5.7831V51.3781C80.3932 52.9369 79.1128 54.2173 77.554 54.2173Z" fill="#CDEAFF"/>
<path id="Path_2" d="M8.07617 3.22205C8.52154 1.66324 9.969 0.494141 11.6948 0.494141H76.9975C79.113 0.494141 80.7832 2.16429 80.7832 4.2798V50.0975C80.7832 52.046 79.3357 53.6604 77.4429 53.8831" stroke="#82BAFF" stroke-width="0.831993" stroke-linecap="round" stroke-linejoin="round"/>
<path id="Path_3" d="M73.9912 10.125V55.72C73.9912 57.8355 72.2654 59.5057 70.2056 59.5057H4.84719C2.73167 59.5057 1.06152 57.7799 1.06152 55.72V6.1167H69.9829C72.2097 6.1167 73.9912 7.89819 73.9912 10.125Z" fill="white"/>
<path id="Path_4" d="M68.702 6.11719C71.5969 6.11719 73.9908 8.51106 73.9908 11.406V55.7205C73.9908 57.836 72.3763 59.5062 70.3721 59.5062H7.96435C5.96018 59.5062 4.3457 57.7804 4.3457 55.7205V6.11719H68.702Z" fill="#EAF6FF"/>
<path id="Path_5" d="M49.4957 15.6922H1.06152V9.90236C1.06152 7.78684 2.73167 6.1167 4.84719 6.1167H70.1499C72.2654 6.1167 73.9355 7.78684 73.9355 9.90236V15.6922H61.1868" fill="white"/>
<path id="Path_6" d="M69.3154 15.5259H73.4351" stroke="#1676EE" stroke-width="0.831993" stroke-linecap="round" stroke-linejoin="round"/>
<path id="Path_7" d="M63.9702 15.5254H64.4713" stroke="#1676EE" stroke-width="0.831993" stroke-linecap="round" stroke-linejoin="round"/>
<path id="Path_8" d="M1.33984 15.5254H45.209" stroke="#3A6CFF" stroke-width="0.831993" stroke-linecap="round" stroke-linejoin="round"/>
<circle id="Oval" cx="7.51975" cy="10.9607" r="1.61447" fill="#99C7FF"/>
<circle id="Oval_2" cx="12.9192" cy="10.9607" r="1.61447" fill="#B8D9FF"/>
<circle id="Oval_3" cx="18.3196" cy="10.9607" r="1.61447" fill="#B8D9FF"/>
<path id="Path_9" d="M27.5616 46.256L19.6006 36.7361L27.5616 27.2163" stroke="#1676EE" stroke-width="0.831993" stroke-linecap="round" stroke-linejoin="round"/>
<path id="Path_10" d="M47.6582 46.256L55.6192 36.7361L47.6582 27.2163" stroke="#1676EE" stroke-width="0.831993" stroke-linecap="round" stroke-linejoin="round"/>
<path id="Path_11" d="M41.0888 26.9937L34.1299 46.9241" stroke="#1676EE" stroke-width="0.831993" stroke-linecap="round" stroke-linejoin="round"/>
<path id="Path_12" d="M1.06156 37.627V37.0146" stroke="#1676EE" stroke-width="0.831993" stroke-linecap="round" stroke-linejoin="round"/>
<path id="Path_13" d="M1.06152 33.8416V9.84719C1.06152 7.73167 2.73167 6.06152 4.84719 6.06152H70.1499C72.2654 6.06152 73.9355 7.73167 73.9355 9.84719V55.6648C73.9355 57.7804 72.2654 59.4505 70.1499 59.4505H4.84719C2.73167 59.4505 1.06152 57.7804 1.06152 55.6648V44.9202" stroke="#3A6CFF" stroke-width="0.831993" stroke-linecap="round" stroke-linejoin="round"/>
</g>
</g>
<path id="Shape" opacity="0.25" fill-rule="evenodd" clip-rule="evenodd" d="M72.3154 11.1043C72.3154 12.9658 73.8385 14.4889 75.7 14.4889C77.5615 14.4889 79.0846 12.9658 79.0846 11.1043C79.0846 9.24278 77.5615 7.71973 75.7 7.71973C73.8385 7.71973 72.3154 9.24278 72.3154 11.1043ZM74.0076 11.1046C74.0076 10.1738 74.7691 9.41232 75.6999 9.41232C76.6307 9.41232 77.3922 10.1738 77.3922 11.1046C77.3922 12.0354 76.6307 12.7969 75.6999 12.7969C74.7691 12.7969 74.0076 12.0354 74.0076 11.1046Z" fill="white"/>
</g>
</svg>
