<svg width="82" height="75" viewBox="0 0 82 75" fill="none" xmlns="http://www.w3.org/2000/svg">
<g id="zoom">
<g id="Object">
<g id="Heart Copy">
<path id="Path" d="M69.2332 34.1255C63.69 24.6501 50.1401 23.3709 43.0335 32.2304C35.9268 23.4183 22.3769 24.6501 16.7864 34.1255C12.0486 42.1796 15.4598 49.6178 21.5241 56.7718H21.4767C27.6832 64.1626 36.448 70.6059 40.6172 73.2117C41.3279 73.6381 42.1333 73.875 42.8913 73.875C43.7441 73.9223 44.5969 73.6855 45.3549 73.2117C49.5242 70.6059 58.289 64.1626 64.4954 56.7718H64.448C70.5123 49.6652 74.0183 42.227 69.2332 34.1255Z" fill="white"/>
<path id="Path_2" d="M70.0381 42.0378C69.7538 40.4744 69.1379 38.8635 68.143 37.2053C62.8367 28.4879 49.9501 27.2561 43.1751 35.4524C36.4001 27.3035 23.5135 28.4405 18.2072 37.2053C15.3172 41.943 15.6014 46.4913 17.686 50.85C18.8705 53.3136 20.6234 55.7298 22.7081 58.146H22.6607C28.5829 64.9684 36.9213 70.9379 40.901 73.3541C41.5643 73.7805 42.3223 73.97 43.0803 73.97C43.8858 74.0174 44.7385 73.7805 45.4492 73.3541C49.4289 70.9379 57.7673 64.9684 63.6895 58.146C68.0956 53.0293 71.0804 47.6757 70.0381 42.0378Z" fill="#FB7BB6"/>
<path id="Path_3" d="M70.0381 42.0378C69.7538 40.4744 69.1379 38.8635 68.143 37.2053C62.8367 28.4879 49.9501 27.2561 43.1751 35.4524C36.4001 27.3035 23.5135 28.4405 18.2072 37.2053C15.3172 41.943 15.6014 46.4913 17.686 50.85C24.6979 57.767 32.8942 63.547 37.1582 66.1054C38.011 66.6266 39.0059 66.9108 40.0008 66.9108C41.0431 66.9582 42.1328 66.6739 43.033 66.1054C48.1971 62.9785 58.9991 55.256 66.6269 46.4439L66.5795 46.3965C67.8113 44.9752 68.9958 43.5065 70.0381 42.0378Z" fill="#F9D9E8"/>
<path id="Path_4" d="M39.2904 45.9696L43.4122 57.2928L48.908 42.9849L51.4664 47.2962L53.6931 42.7954C53.6931 42.7954 57.6728 47.1067 58.0045 47.1067C58.3361 47.1067 64.4952 44.264 64.4952 44.264L71.2228 44.1693L71.3649 43.6481C71.4123 43.2217 71.4597 42.748 71.4597 42.3216C71.4597 33.5094 64.3057 26.3555 55.4935 26.3555C50.4715 26.3555 45.9706 28.677 43.0332 32.325C40.0958 28.677 35.595 26.3555 30.573 26.3555C24.6982 26.3555 19.5814 29.5297 16.7861 34.2201" stroke="#B3058D" stroke-width="1.06401" stroke-linecap="round" stroke-linejoin="round"/>
<path id="Path_5" d="M61.9364 59.7568C56.0616 65.9158 49.0497 71.0326 45.4491 73.3067C43.9804 74.2069 42.1326 74.2069 40.6639 73.3067C34.3154 69.327 17.3069 56.2983 14.8906 44.8804H15.0328H19.0125L23.4186 40.9007L29.8145 54.0242L36.4473 38.2476L37.3475 40.7585" stroke="#B3058D" stroke-width="1.06401" stroke-linecap="round" stroke-linejoin="round"/>
</g>
<g id="Group">
<ellipse id="Oval" cx="65.9917" cy="51.247" rx="14.5922" ry="14.5922" fill="#F9D9E8"/>
<path id="Path_6" d="M61.3487 65.0811C55.5686 63.1386 51.3994 57.6903 51.3994 51.247C51.3994 43.1928 57.9375 36.6548 65.9917 36.6548C66.7971 36.6548 67.5551 36.7022 68.3131 36.8443" stroke="#B3058D" stroke-width="1.06401" stroke-linecap="round" stroke-linejoin="round"/>
<path id="Path_7" d="M78.6889 43.9985C79.9208 46.1305 80.584 48.5941 80.584 51.2472C80.584 59.3014 74.046 65.8394 65.9918 65.8394C65.897 65.8394 65.8023 65.8394 65.6602 65.8394" stroke="#B3058D" stroke-width="1.06401" stroke-linecap="round" stroke-linejoin="round"/>
<path id="Path_8" d="M72.1982 38.0288C73.051 38.4078 73.8091 38.8816 74.5671 39.4501" stroke="#B3058D" stroke-width="1.06401" stroke-linecap="round" stroke-linejoin="round"/>
<path id="Path_9" d="M64.6185 56.9804C64.0973 56.9804 63.5762 56.7909 63.2445 56.4119L59.1701 52.3375C58.4121 51.5794 58.4121 50.3476 59.1701 49.5422C59.9281 48.7842 61.1599 48.7842 61.9654 49.5422L64.6659 52.2427L70.8249 46.0837C71.583 45.3256 72.8148 45.3256 73.6202 46.0837C74.3782 46.8417 74.3782 48.0735 73.6202 48.8789L66.0398 56.4593C65.6134 56.7435 65.1396 56.9804 64.6185 56.9804Z" fill="white" stroke="#B3058D" stroke-width="1.06401" stroke-linecap="round" stroke-linejoin="round"/>
</g>
<g id="Group 9">
<path id="Path_10" d="M55.9597 11.4316C54.064 9.04822 50.5824 8.69354 48.1902 10.6045C45.798 12.5156 44.1715 20.8912 44.1715 20.8912C44.1715 20.8912 52.6773 21.1492 55.0695 19.2381C57.4913 17.3022 57.8554 13.815 55.9597 11.4316Z" fill="#FBC9E0"/>
<path id="Path_11" d="M57.1546 18.192C54.7625 20.103 46.2763 19.9283 46.2763 19.9283C46.2763 19.9283 47.9272 11.5822 50.3193 9.67128C52.7114 7.76036 56.1684 8.08586 58.064 10.4691C59.9648 12.7983 59.5223 16.2519 57.1546 18.192Z" fill="#FBC9E0"/>
<path id="Path_12" d="M47.8259 18.6236C47.8259 18.6236 49.1947 11.798 51.2058 9.06238C50.8895 9.22865 50.6274 9.39917 50.3303 9.64883C47.9346 11.5627 46.2812 19.9219 46.2812 19.9219C46.2812 19.9219 54.7803 20.0968 57.1761 18.1829C57.5028 17.9083 57.8051 17.6044 58.0532 17.2964C55.044 18.78 47.8259 18.6236 47.8259 18.6236Z" fill="#FB7BB6"/>
<path id="Shape" fill-rule="evenodd" clip-rule="evenodd" d="M46.0579 19.9141C46.0178 20.0473 46.0614 20.1597 46.1348 20.2472C46.2081 20.3347 46.311 20.3973 46.4192 20.4058C46.4353 20.4058 46.4679 20.4062 46.5156 20.4069C47.5179 20.4212 55.2059 20.5309 57.5747 18.635C60.1453 16.5739 60.5605 12.8452 58.5428 10.3161L58.445 10.1995C56.3925 7.7494 52.7187 7.40741 50.2074 9.41856C47.9295 11.2418 46.4092 18.2916 46.1089 19.6841C46.082 19.8086 46.065 19.8879 46.0579 19.9141ZM50.6952 10.0027C52.88 8.26602 56.0665 8.56988 57.8502 10.6989L57.9235 10.7864C59.7263 12.9987 59.3583 16.2402 57.1142 18.0268C55.1912 19.5933 48.7012 19.6304 46.9299 19.6281C47.2893 17.8848 48.7425 11.5941 50.6952 10.0027Z" fill="#B3058D"/>
<path id="Path_13" d="M52.3267 15.0168C52.3023 14.9877 52.3023 14.9877 52.278 14.9587C52.1857 14.7884 52.2361 14.5479 52.438 14.4278C52.4971 14.3781 58.9056 10.778 59.301 4.15289C59.3218 3.93718 59.4993 3.78808 59.6907 3.77591C59.9065 3.79282 60.0527 3.96729 60.0615 4.15814C59.6783 11.2189 53.0976 14.9142 52.8122 15.0549C52.6348 15.204 52.4485 15.1622 52.3267 15.0168Z" fill="#B3058D"/>
<path id="Path_14" opacity="0.5" d="M56.4912 16.6037C56.3689 16.4578 56.3654 16.2121 56.5137 16.0874C57.2958 15.3306 57.2221 13.5524 57.1469 12.9193C57.1137 12.6986 57.2673 12.5197 57.4891 12.4826C57.7108 12.4454 57.8872 12.5956 57.9204 12.8163C57.9396 12.8997 58.319 15.4654 57.0324 16.6461C56.9137 16.7459 56.6675 16.7539 56.4912 16.6037Z" fill="white"/>
<path id="Path_15" opacity="0.5" d="M51.3567 10.9011C51.3323 10.8719 51.3078 10.8427 51.2834 10.8135C51.1908 10.6427 51.2955 10.4055 51.4683 10.31C51.5521 10.2893 53.2646 9.49653 55.117 10.078C55.3283 10.1491 55.4156 10.374 55.3703 10.5613C55.2952 10.7736 55.0683 10.8648 54.8815 10.8229C53.3486 10.3211 51.8089 11.0183 51.8089 11.0183C51.6413 11.0597 51.4545 11.0178 51.3567 10.9011Z" fill="white"/>
</g>
<g id="recycling">
<path id="Path_16" d="M9.44478 58.4448C12.2032 58.1559 18.9102 62.4473 18.9102 62.4473C18.9102 62.4473 13.8364 68.0012 11.078 68.2901C8.31963 68.5791 5.70028 66.6103 5.26439 63.9056C4.79451 61.1893 6.67625 58.7663 9.44478 58.4448Z" fill="#FBC9E0"/>
<path id="Path_17" d="M8.86503 59.8845C6.06226 60.1945 4.16007 62.6829 4.58586 65.4205C5.0355 68.2023 7.68908 70.1828 10.4817 69.9054C13.2845 69.5954 18.4231 63.9546 18.4231 63.9546C18.4231 63.9546 11.6678 59.5744 8.86503 59.8845Z" fill="#FBC9E0"/>
<path id="Path_18" d="M11.572 66.545C8.82075 66.8329 6.20819 64.8718 5.77344 62.1775C5.71515 61.7632 5.70089 61.3279 5.75444 60.9155C5.25771 61.7876 5.03579 62.8604 5.21719 63.9621C5.65194 66.6564 8.2645 68.6175 11.0157 68.3297C13.1435 68.1177 16.6218 64.7758 18.1375 63.2803C15.971 64.6988 13.1543 66.3994 11.572 66.545Z" fill="#FB7BB6"/>
<path id="Shape_2" fill-rule="evenodd" clip-rule="evenodd" d="M4.72875 63.8043C5.10565 65.7862 6.65204 67.5307 8.6704 68.227C9.45722 68.4985 10.2933 68.6089 11.1201 68.5025C13.8567 68.2747 18.3805 63.6267 19.0911 62.8965C19.1363 62.85 19.1661 62.8194 19.179 62.8068C19.2329 62.7542 19.2625 62.6576 19.2579 62.5491C19.2092 62.4611 19.1605 62.3731 19.0677 62.3054C19.0536 62.2974 19.0105 62.271 18.9416 62.2287C18.2243 61.7878 14.7041 59.6246 11.8327 58.6339C10.738 58.2562 9.87751 58.1018 9.2171 58.1588C6.22813 58.4096 4.20226 60.9515 4.72875 63.8043ZM9.31521 58.8382C9.86296 58.778 10.6449 58.941 11.6366 59.2831C14.1673 60.1562 17.2678 62.0089 18.3175 62.6559C17.2539 63.784 13.2649 67.6764 10.9713 67.8819C10.267 67.9593 9.54365 67.8522 8.85968 67.6162C7.08136 67.0027 5.73544 65.4704 5.42648 63.7619C4.98247 61.2593 6.71845 59.0459 9.31521 58.8382Z" fill="#B3058D"/>
<path id="Path_19" d="M0.931606 68.4184C0.89751 68.4068 0.863414 68.3953 0.829319 68.3837C0.669011 68.2931 0.627744 68.0623 0.712689 67.9104C4.22774 62.6697 11.1869 63.0797 11.48 63.1069C11.6607 63.1321 11.8347 63.2996 11.818 63.4746C11.8012 63.6496 11.6379 63.8111 11.4573 63.7859C11.3789 63.7955 4.60038 63.4106 1.30966 68.2937C1.26898 68.4245 1.10208 68.4763 0.931606 68.4184Z" fill="#B3058D"/>
<path id="Path_20" opacity="0.5" d="M7.93893 60.7931C7.87167 60.7706 7.8044 60.7481 7.7808 60.705C7.64274 60.5534 7.66929 60.3514 7.82035 60.2262C7.87404 60.1739 9.31083 59.0377 12.7749 60.1967C13.7839 60.5343 16.6266 62.0127 16.7511 62.0895C16.9093 62.1776 16.9936 62.3815 16.8998 62.561C16.816 62.7088 16.6077 62.7797 16.416 62.6804C16.3823 62.6691 13.5059 61.1795 12.5643 60.8644C9.53738 59.8517 8.28174 60.7672 8.28174 60.7672C8.19442 60.8083 8.07346 60.8381 7.93893 60.7931Z" fill="white"/>
</g>
</g>
</g>
</svg>
