<svg width="82" height="62" viewBox="0 0 82 62" fill="none" xmlns="http://www.w3.org/2000/svg">
<g id="Key">
<path id="Shape" fill-rule="evenodd" clip-rule="evenodd" d="M19.6051 23.4084C27.8701 23.4084 34.8762 28.7177 37.3941 36.1617L41.5539 36.2711L70.454 36.2711C71.1109 36.2711 71.7677 36.4353 72.3698 36.7637L80.1422 41.1425C80.799 41.5257 80.9632 42.4562 80.4158 43.0035L76.3654 47.2729C75.6539 47.9844 74.6139 48.4223 73.5739 48.4223H72.0414C71.6035 48.4223 71.1656 48.2581 70.7825 47.9844L68.5931 46.1782C68.1552 45.8498 67.5531 45.9045 67.1699 46.2876L65.6921 47.8202C65.309 48.2034 64.7616 48.4223 64.2143 48.4223H62.5175C62.0248 48.4223 61.587 48.2581 61.2038 47.9297L59.1239 46.1234C58.686 45.6856 57.9197 45.795 57.5913 46.3424C57.2082 46.8897 56.6061 47.2729 55.8945 47.2729H53.3767L52.8841 48.0392C52.7746 48.2581 52.5557 48.3676 52.282 48.3676C52.0631 48.3676 51.8989 48.2581 51.7346 48.0939L49.2168 45.1382C48.8337 44.7003 48.2316 44.6456 47.7937 44.974L45.057 47.0539C43.9075 47.875 42.4844 48.3676 41.0613 48.3676H37.2846C34.712 55.6473 27.7607 60.8472 19.6051 60.8472C9.26021 60.8472 0.885742 52.4727 0.885742 42.1278C0.885742 31.7829 9.26021 23.4084 19.6051 23.4084ZM10.7928 37.6944C8.32976 37.6944 6.3593 39.6648 6.3593 42.1279C6.3593 44.591 8.32976 46.5614 10.7928 46.5614C13.2559 46.5614 15.2264 44.591 15.2264 42.1279C15.2264 39.6648 13.2559 37.6944 10.7928 37.6944Z" fill="white"/>
<path id="Shape_2" fill-rule="evenodd" clip-rule="evenodd" d="M21.9585 59.2593C12.3252 59.2593 4.49805 51.5416 4.49805 42.0177C4.49805 32.4938 12.3252 24.7762 21.9585 24.8309C23.5459 24.8309 25.0237 24.9951 26.3921 25.3783C31.8109 26.7467 35.697 30.6876 37.558 36.1063L71.2749 36.1063C71.9317 36.1063 72.5338 36.2158 73.0811 36.5442L80.3061 41.0325C80.963 41.4156 81.0724 42.2367 80.5798 42.784L76.8031 46.7249C76.0915 47.4365 75.161 47.8197 74.1758 47.8197H72.7527C72.3148 47.8197 71.8769 47.6554 71.5485 47.3818L68.155 45.7397C67.7718 45.4113 67.1697 45.466 66.8413 45.7945L65.4729 47.2176C65.0898 47.546 64.5972 47.7649 64.1046 47.7649H62.5172C62.0246 47.7649 61.5867 47.6007 61.2583 47.327L59.2879 45.6302C58.7953 45.2471 58.1384 45.3566 57.81 45.8492C57.4816 46.3965 56.8795 46.7249 56.2227 46.7249H53.9238L53.486 47.4365C53.3217 47.6554 53.1028 47.7649 52.8839 47.7649C52.6649 47.7649 52.446 47.7102 52.3365 47.546L49.9829 44.8092C49.6545 44.4261 49.1071 44.3166 48.6693 44.645L46.0967 46.5607C45.0567 47.327 42.32 47.7649 41.0064 47.7649H37.5033C35.095 54.4426 29.5667 59.2593 21.9585 59.2593ZM10.2998 46.5604C12.7629 46.5604 14.7334 44.5899 14.7334 42.1268C14.7334 39.6638 12.7629 37.6933 10.2998 37.6933C7.83673 37.6933 5.86627 39.6638 5.86627 42.1268C5.86627 44.5899 7.83673 46.5604 10.2998 46.5604Z" fill="#F3C5DB"/>
<path id="Path" d="M18.6258 27.8949C25.4424 28.6463 30.9071 32.8015 34.0337 39.1314L55.7044 36.0858C52.5378 40.5651 47.6256 43.7171 41.7758 44.5392C30.8834 46.1384 20.6937 38.7498 18.6258 27.8949Z" fill="#FB7BB6"/>
<path id="Shape_3" d="M73.2475 37.6307C73.4545 37.7505 73.7195 37.6799 73.8394 37.4728C73.9592 37.2658 73.8886 37.0008 73.6815 36.8809L73.2475 37.6307ZM72.4246 36.6537L72.6417 36.2787L72.632 36.2735L72.4246 36.6537ZM41.6087 35.728C41.3695 35.728 41.1756 35.9219 41.1756 36.1611C41.1756 36.4003 41.3695 36.5942 41.6087 36.5942V35.728ZM5.1667 53.4084C5.01869 53.2204 4.74636 53.188 4.55842 53.336C4.37048 53.484 4.3381 53.7564 4.4861 53.9443L5.1667 53.4084ZM37.2843 48.4218V47.9886C37.1007 47.9886 36.9371 48.1044 36.8759 48.2775L37.2843 48.4218ZM45.0567 47.1081L45.3086 47.4608L45.3188 47.453L45.0567 47.1081ZM47.7934 45.0282L47.5336 44.6817L47.5314 44.6833L47.7934 45.0282ZM49.2166 45.1924L49.5463 44.9115L49.5425 44.9072L49.2166 45.1924ZM51.7344 48.1481L51.4046 48.429C51.4121 48.4378 51.4199 48.4462 51.4281 48.4544L51.7344 48.1481ZM52.8838 48.0934L52.5195 47.8591C52.511 47.8722 52.5033 47.8857 52.4964 47.8997L52.8838 48.0934ZM53.3764 47.3271V46.8939C53.229 46.8939 53.0918 46.9689 53.0121 47.0928L53.3764 47.3271ZM57.591 46.3966L57.9459 46.645C57.9517 46.6367 57.9572 46.6281 57.9624 46.6194L57.591 46.3966ZM59.1236 46.1776L58.8173 46.4839C58.8245 46.4911 58.8319 46.498 58.8396 46.5047L59.1236 46.1776ZM61.2035 47.9839L60.9195 48.3109L60.9216 48.3128L61.2035 47.9839ZM65.6918 47.8744L65.9982 48.1808L66.0036 48.1751L65.6918 47.8744ZM67.1697 46.3418L66.8633 46.0355L66.8579 46.0412L67.1697 46.3418ZM68.5928 46.2324L68.8684 45.8983C68.8633 45.894 68.858 45.8899 68.8527 45.8859L68.5928 46.2324ZM70.7822 48.0386L70.5065 48.3727C70.5143 48.3791 70.5222 48.3853 70.5304 48.3911L70.7822 48.0386ZM76.3652 47.3271L76.6715 47.6335L76.6794 47.6252L76.3652 47.3271ZM80.4156 43.0577L80.1092 42.7514L80.1013 42.7596L80.4156 43.0577ZM80.1419 41.1967L80.3601 40.8226L80.3561 40.8203L80.1419 41.1967ZM77.1814 39.014C76.9735 38.8957 76.7091 38.9684 76.5908 39.1763C76.4725 39.3842 76.5451 39.6487 76.753 39.767L77.1814 39.014ZM2.8058 49.3224C2.69882 49.1085 2.43864 49.0217 2.22467 49.1287C2.01071 49.2357 1.92398 49.4959 2.03096 49.7098L2.8058 49.3224ZM2.30464 50.3119C2.41162 50.5259 2.6718 50.6126 2.88577 50.5056C3.09973 50.3987 3.18646 50.1385 3.07948 49.9245L2.30464 50.3119ZM36.9837 36.2999C37.0604 36.5265 37.3062 36.6481 37.5328 36.5714C37.7594 36.4948 37.881 36.2489 37.8044 36.0223L36.9837 36.2999ZM0.452825 41.511C0.445028 41.7501 0.632532 41.9503 0.871625 41.9581C1.11072 41.9658 1.31086 41.7783 1.31866 41.5393L0.452825 41.511ZM13.3166 37.9809C13.1123 37.8566 12.8458 37.9214 12.7214 38.1257C12.5971 38.3301 12.6619 38.5965 12.8662 38.7209L13.3166 37.9809ZM9.8238 46.0245C9.58783 45.9851 9.36466 46.1445 9.32534 46.3805C9.28601 46.6165 9.44541 46.8396 9.68138 46.879L9.8238 46.0245ZM6.8826 45.0612C7.02164 45.2558 7.29217 45.3009 7.48683 45.1619C7.68149 45.0228 7.72658 44.7523 7.58753 44.5576L6.8826 45.0612ZM12.7967 38.7111C12.9958 38.8438 13.2647 38.79 13.3974 38.5909C13.5301 38.3919 13.4763 38.123 13.2773 37.9903L12.7967 38.7111ZM73.6815 36.8809L72.6416 36.2789L72.2075 37.0286L73.2475 37.6307L73.6815 36.8809ZM72.632 36.2735C71.9664 35.9104 71.2383 35.728 70.5088 35.728V36.5942C71.093 36.5942 71.6785 36.7402 72.2171 37.034L72.632 36.2735ZM70.5088 35.728L41.6087 35.728V36.5942L70.5088 36.5942V35.728ZM4.4861 53.9443C8.01136 58.4208 13.4431 61.3345 19.6049 61.3345V60.4682C13.7249 60.4682 8.53806 57.6894 5.1667 53.4084L4.4861 53.9443ZM19.6049 61.3345C27.9489 61.3345 35.0606 56.0143 37.6927 48.5661L36.8759 48.2775C34.3629 55.3888 27.5719 60.4682 19.6049 60.4682V61.3345ZM37.2843 48.8549H41.061V47.9886H37.2843V48.8549ZM41.061 48.8549C42.5813 48.8549 44.0914 48.3299 45.3085 47.4606L44.8049 46.7557C43.7231 47.5284 42.3869 47.9886 41.061 47.9886V48.8549ZM45.3188 47.453L48.0555 45.3731L47.5314 44.6833L44.7946 46.7633L45.3188 47.453ZM48.0533 45.3747C48.3078 45.1839 48.6548 45.2082 48.8906 45.4776L49.5425 44.9072C49.012 44.3008 48.1549 44.2157 47.5336 44.6817L48.0533 45.3747ZM48.8868 45.4733L51.4046 48.429L52.0641 47.8672L49.5463 44.9115L48.8868 45.4733ZM51.4281 48.4544C51.6234 48.6497 51.8925 48.8549 52.2817 48.8549V47.9886C52.25 47.9886 52.2242 47.982 52.1929 47.9651C52.1559 47.9452 52.1079 47.909 52.0407 47.8418L51.4281 48.4544ZM52.2817 48.8549C52.6741 48.8549 53.0701 48.6894 53.2712 48.2871L52.4964 47.8997C52.4786 47.9352 52.4367 47.9886 52.2817 47.9886V48.8549ZM53.2482 48.3276L53.7408 47.5613L53.0121 47.0928L52.5195 47.8591L53.2482 48.3276ZM53.3764 47.7602L55.8942 47.7602V46.8939L53.3764 46.8939V47.7602ZM55.8942 47.7602C56.7716 47.7602 57.4968 47.2865 57.9459 46.645L57.2362 46.1482C56.9189 46.6014 56.4399 46.8939 55.8942 46.8939V47.7602ZM57.9624 46.6194C58.1553 46.298 58.5915 46.2581 58.8173 46.4839L59.4299 45.8714C58.78 45.2214 57.6836 45.4005 57.2196 46.1737L57.9624 46.6194ZM58.8396 46.5047L60.9195 48.3109L61.4875 47.6569L59.4076 45.8506L58.8396 46.5047ZM60.9216 48.3128C61.3812 48.7067 61.9184 48.9097 62.5172 48.9097V48.0434C62.1307 48.0434 61.7922 47.9179 61.4854 47.655L60.9216 48.3128ZM62.5172 48.9097H64.214V48.0434H62.5172V48.9097ZM64.214 48.9097C64.8714 48.9097 65.5304 48.6484 65.9981 48.1807L65.3855 47.5681C65.0869 47.8668 64.6512 48.0434 64.214 48.0434V48.9097ZM66.0036 48.1751L67.4815 46.6425L66.8579 46.0412L65.38 47.5738L66.0036 48.1751ZM67.4759 46.6481C67.7121 46.412 68.0735 46.3844 68.3329 46.5789L68.8527 45.8859C68.2363 45.4236 67.3935 45.5054 66.8634 46.0356L67.4759 46.6481ZM68.3171 46.5665L70.5065 48.3727L71.0578 47.7045L68.8684 45.8983L68.3171 46.5665ZM70.5304 48.3911C70.9711 48.7058 71.4951 48.9097 72.0411 48.9097V48.0434C71.7113 48.0434 71.3596 47.9188 71.0339 47.6862L70.5304 48.3911ZM72.0411 48.9097H73.5737V48.0434H72.0411V48.9097ZM73.5737 48.9097C74.7286 48.9097 75.8787 48.4261 76.6714 47.6334L76.0589 47.0208C75.4285 47.6511 74.4987 48.0434 73.5737 48.0434V48.9097ZM76.6794 47.6252L80.7298 43.3559L80.1013 42.7596L76.0509 47.029L76.6794 47.6252ZM80.7218 43.364C81.4878 42.598 81.24 41.3359 80.3601 40.8226L79.9236 41.5709C80.3574 41.8239 80.438 42.4228 80.1093 42.7515L80.7218 43.364ZM80.3561 40.8203L77.1814 39.014L76.753 39.767L79.9277 41.5732L80.3561 40.8203ZM2.03096 49.7098C2.07931 49.8065 2.11582 49.8915 2.15709 49.9878C2.19792 50.0831 2.24351 50.1897 2.30464 50.3119L3.07948 49.9245C3.03113 49.8278 2.99462 49.7429 2.95334 49.6466C2.91252 49.5513 2.86692 49.4447 2.8058 49.3224L2.03096 49.7098ZM37.8044 36.0223C35.2287 28.4073 28.061 22.9747 19.6051 22.9747V23.841C27.6793 23.841 34.5238 29.0269 36.9837 36.2999L37.8044 36.0223ZM19.6051 22.9747C9.24474 22.9747 0.788831 31.2069 0.452825 41.511L1.31866 41.5393C1.63947 31.7009 9.71356 23.841 19.6051 23.841V22.9747ZM12.8662 38.7209C13.9942 39.4075 14.7382 40.6894 14.7382 42.1277H15.6045C15.6045 40.3912 14.7064 38.8269 13.3166 37.9809L12.8662 38.7209ZM14.7382 42.1277C14.7382 44.3515 12.9617 46.128 10.7378 46.128V46.9943C13.4401 46.9943 15.6045 44.8299 15.6045 42.1277H14.7382ZM10.7378 46.128C10.4514 46.128 10.1586 46.0803 9.8238 46.0245L9.68138 46.879C10.0034 46.9326 10.3675 46.9943 10.7378 46.9943V46.128ZM7.58753 44.5576C7.07821 43.8446 6.73772 43.0003 6.73772 42.1274H5.87142C5.87142 43.2249 6.29722 44.2416 6.8826 45.0612L7.58753 44.5576ZM6.73772 42.1274C6.73772 39.9035 8.51425 38.127 10.7381 38.127V37.2607C8.03581 37.2607 5.87142 39.4251 5.87142 42.1274H6.73772ZM10.7381 38.127C11.5381 38.127 12.2187 38.3257 12.7967 38.7111L13.2773 37.9903C12.5416 37.4998 11.6897 37.2607 10.7381 37.2607V38.127Z" fill="#B3058D"/>
<path id="Path_2" d="M37.0654 48.9697C37.558 47.7108 37.8865 46.3972 38.1054 45.0835" stroke="#B3058D" stroke-width="0.866295" stroke-linecap="round" stroke-linejoin="round"/>
<path id="Path_3" d="M71.4395 41.0877H72.3699" stroke="#B3058D" stroke-width="0.866295" stroke-linecap="round" stroke-linejoin="round"/>
<path id="Path_4" d="M54.9639 41.0877H62.8457" stroke="#B3058D" stroke-width="0.866295" stroke-linecap="round" stroke-linejoin="round"/>
<path id="Path_5" d="M38.3789 41.0877H51.2417" stroke="#B3058D" stroke-width="0.866295" stroke-linecap="round" stroke-linejoin="round"/>
<path id="Path_6" d="M32.4679 36.9819C33.1247 38.6239 33.4531 40.3755 33.4531 42.2365C33.4531 44.1522 33.07 46.0132 32.3584 47.71" stroke="#FB7BB6" stroke-width="0.866295" stroke-linecap="round" stroke-linejoin="round"/>
<path id="Path_7" d="M28.0889 30.9614C28.3078 31.1256 28.5267 31.3446 28.7457 31.5088" stroke="#91C2FF" stroke-width="0.866295" stroke-linecap="round" stroke-linejoin="round"/>
<path id="Path_8" d="M13.0918 29.1001C14.8981 28.2791 16.9233 27.8412 19.0579 27.8412C21.6305 27.8412 23.9841 28.498 26.064 29.6475" stroke="#FB7BB6" stroke-width="0.866295" stroke-linecap="round" stroke-linejoin="round"/>
<path id="Path_9" d="M19.0575 56.687C15.7186 56.687 12.7082 55.5923 10.2451 53.6766" stroke="#FB7BB6" stroke-width="0.866295" stroke-linecap="round" stroke-linejoin="round"/>
<path id="Path_10" d="M28.4726 53.1839C28.1442 53.4575 27.8158 53.7312 27.4326 54.0049" stroke="#FB7BB6" stroke-width="0.866295" stroke-linecap="round" stroke-linejoin="round"/>
<g id="Group">
<ellipse id="Oval" cx="38.6754" cy="21.3285" rx="20.2301" ry="20.2301" transform="rotate(-90 38.6754 21.3285)" fill="#FFF0F7"/>
<g id="finger-print">
<g id="Group_2">
<path id="Path_11" d="M44.6795 31.9072C44.5579 31.9072 44.434 31.8679 44.3304 31.786C40.9351 29.1088 37.228 25.958 36.2144 22.4471C35.7854 20.9603 36.6503 19.404 38.1424 18.9754C39.6345 18.5501 41.1975 19.4107 41.6266 20.8964C42.2257 22.9711 46.2932 26.1791 47.8247 27.3864C48.0691 27.5783 48.1096 27.9317 47.9171 28.1741C47.7245 28.4176 47.372 28.4591 47.1265 28.2661C44.2178 25.9726 41.1604 23.3391 40.5444 21.206C40.2865 20.314 39.3473 19.799 38.4532 20.0537C37.559 20.3106 37.0399 21.2453 37.2966 22.1362C38.2178 25.3274 41.7707 28.3357 45.0286 30.9052C45.273 31.0971 45.3135 31.4505 45.1209 31.6929C45.0106 31.8343 44.8462 31.9072 44.6795 31.9072Z" fill="#B3058D"/>
<path id="Path_12" d="M30.365 29.0664C30.1252 29.0664 29.9022 28.9127 29.8279 28.6725C29.7344 28.3763 29.8999 28.0621 30.1972 27.9701C30.8267 27.7738 32.8087 26.8862 31.8853 23.6872C31.3459 21.8145 31.5688 19.8441 32.5159 18.1408C33.463 16.4353 35.0193 15.1999 36.8999 14.6613C40.6882 13.5863 44.6983 15.7295 45.8919 19.4503C46.1724 19.7128 48.0946 21.2949 49.4099 22.3587C49.6509 22.5539 49.6881 22.9073 49.4922 23.1475C49.2973 23.3887 48.9415 23.4257 48.7005 23.2294C45.08 20.3019 44.9595 20.0988 44.901 20.0023C44.8773 19.963 44.8593 19.9215 44.8458 19.8789C43.8694 16.6776 40.4427 14.8217 37.2096 15.7407C35.6195 16.1951 34.3019 17.2409 33.5001 18.6828C32.6995 20.1246 32.5103 21.792 32.9664 23.3764C33.9258 26.6988 32.2546 28.5042 30.5317 29.0406C30.4776 29.0574 30.4213 29.0664 30.365 29.0664Z" fill="#B3058D"/>
<path id="Path_13" d="M32.1638 31.2096C31.924 31.2096 31.7021 31.0558 31.6267 30.8157C31.5332 30.5206 31.6988 30.2053 31.9961 30.1133C34.3294 29.3862 35.1785 28.1923 34.0411 23.033C33.4251 20.2346 34.9206 17.5641 37.5197 16.819C40.2032 16.0538 43.0185 17.6034 43.7899 20.2761C43.9464 20.8181 44.6615 21.8627 48.8405 25.1594C49.0849 25.3512 49.1255 25.7047 48.9329 25.9482C48.7403 26.1905 48.3878 26.2343 48.1424 26.0402C43.5286 22.4024 42.9273 21.3511 42.7077 20.5881C42.1075 18.51 39.9228 17.3026 37.8294 17.8996C35.8091 18.4786 34.6526 20.5824 35.1402 22.794C36.299 28.0543 35.5906 30.1716 32.3305 31.186C32.2765 31.2017 32.219 31.2096 32.1638 31.2096Z" fill="#B3058D"/>
<path id="Path_14" d="M46.2408 30.087C46.0967 30.087 45.9525 30.032 45.8422 29.9231C45.6361 29.7178 45.1834 29.3756 44.6597 28.9795C42.6429 27.4546 39.2668 24.903 38.3794 21.8263C38.2938 21.5278 38.4661 21.2181 38.7645 21.1317C39.0674 21.0465 39.3749 21.2181 39.4616 21.5155C40.2453 24.2331 43.4345 26.6433 45.3399 28.0841C45.9199 28.5228 46.3782 28.8695 46.6383 29.1287C46.8579 29.3475 46.8579 29.7032 46.6383 29.922C46.5291 30.032 46.385 30.087 46.2408 30.087Z" fill="#B3058D"/>
<path id="Path_15" d="M37.7946 34.5747C37.7822 34.5747 37.771 34.5747 37.7586 34.5736C37.4489 34.5545 37.2124 34.2886 37.2316 33.9789C37.2732 33.3292 37.5739 30.0864 39.4838 30.0864C40.8881 30.0864 41.7338 31.2309 42.2935 31.9883C42.4432 32.1903 42.5739 32.3721 42.6966 32.4955C42.9162 32.7143 42.9162 33.07 42.6966 33.2888C42.477 33.5076 42.12 33.5076 41.9004 33.2888C41.745 33.134 41.575 32.9096 41.3858 32.6548C40.9106 32.0097 40.3194 31.2085 39.4838 31.2085C38.8734 31.2085 38.4286 32.8882 38.3565 34.0484C38.3374 34.3458 38.0897 34.5747 37.7946 34.5747Z" fill="#B3058D"/>
<path id="Path_16" d="M34.4161 33.4527C34.1785 33.4527 33.9577 33.3023 33.88 33.0644C33.7843 32.7693 33.9465 32.454 34.2415 32.3575C35.6649 31.8964 36.612 28.9521 36.1312 27.4519C36.0366 27.1568 36.1998 26.8415 36.496 26.7472C36.7922 26.6485 37.1086 26.8156 37.2032 27.1108C37.8012 28.9745 36.7562 32.7245 34.5884 33.4258C34.5321 33.4437 34.4735 33.4527 34.4161 33.4527Z" fill="#B3058D"/>
<path id="Path_17" d="M29.9117 22.2324C29.6009 22.2324 29.3486 21.9811 29.3486 21.6714C29.3486 16.4122 33.6425 12.1338 38.9206 12.1338C44.1166 12.1338 45.9758 15.1241 47.3328 17.3076C47.9735 18.3366 48.5264 19.2264 49.2303 19.4542C49.5264 19.5495 49.6886 19.866 49.5918 20.1611C49.4972 20.455 49.1807 20.6189 48.8823 20.5213C47.7855 20.1667 47.1323 19.1153 46.3756 17.8979C45.0895 15.8299 43.4893 13.2559 38.9206 13.2559C34.263 13.2559 30.4748 17.0305 30.4748 21.6714C30.4748 21.9811 30.2225 22.2324 29.9117 22.2324Z" fill="#B3058D"/>
<path id="Path_18" d="M30.4748 26.1597C30.2675 26.1597 30.0693 26.0463 29.9703 25.85C29.8666 25.6424 29.3486 24.5753 29.3486 23.9155C29.3486 23.6058 29.6009 23.3545 29.9117 23.3545C30.2225 23.3545 30.4748 23.6058 30.4748 23.9155C30.4748 24.2084 30.7754 24.9433 30.9781 25.3473C31.1178 25.6244 31.004 25.9611 30.7259 26.1002C30.6459 26.1406 30.5603 26.1597 30.4748 26.1597Z" fill="#B3058D"/>
<path id="Path_19" d="M46.8029 14.3774C46.6126 14.3774 46.4267 14.2821 46.3209 14.107C45.7657 13.1959 42.6858 11.0112 38.357 11.0112C33.8547 11.0112 31.4448 13.3036 30.955 14.107C30.7951 14.3729 30.4482 14.456 30.1825 14.2955C29.9167 14.1351 29.8311 13.7906 29.9933 13.5258C30.6093 12.5137 33.3131 9.88916 38.357 9.88916C43.1002 9.88916 46.5112 12.2567 47.2837 13.5258C47.4459 13.7906 47.3603 14.1351 47.0945 14.2966C47.0033 14.3516 46.9031 14.3774 46.8029 14.3774Z" fill="#B3058D"/>
<path id="Path_20" d="M44.5508 9.88965C44.49 9.88965 44.4281 9.87955 44.3673 9.85935C44.1398 9.78193 43.9236 9.70114 43.7085 9.62259C42.5227 9.18274 41.4022 8.76758 38.3572 8.76758C35.6533 8.76758 35.0441 9.07839 34.204 9.50814C33.9968 9.61362 33.7772 9.72582 33.5193 9.84027C33.2367 9.96819 32.9022 9.84027 32.775 9.55863C32.6477 9.27587 32.775 8.94374 33.0576 8.81695C33.2952 8.71035 33.4968 8.60712 33.6883 8.5095C34.6342 8.02701 35.3808 7.64551 38.3572 7.64551C41.6049 7.64551 42.874 8.11565 44.1015 8.57009C44.3087 8.64639 44.5159 8.72382 44.7344 8.79899C45.0283 8.89998 45.1848 9.21865 45.0835 9.51151C45.0024 9.74378 44.7839 9.88965 44.5508 9.88965Z" fill="#B3058D"/>
</g>
<path id="Path_21" d="M49.2183 17.498C49.0094 17.498 48.8163 17.3502 48.7493 17.1171C48.5237 16.3369 47.8213 15.0608 47.8134 15.0488C47.6705 14.7916 47.7434 14.4546 47.975 14.2959C48.2065 14.1361 48.5099 14.2171 48.6528 14.4754C48.6843 14.5323 49.4261 15.8761 49.6872 16.7844C49.77 17.0723 49.6271 17.3798 49.368 17.4717C49.3178 17.4892 49.2675 17.498 49.2183 17.498Z" fill="#B3058D"/>
</g>
<path id="Path_22" d="M57.8546 27.7654C55.1616 35.7786 47.6082 41.5586 38.6754 41.5586C27.5094 41.5586 18.4453 32.4945 18.4453 21.3285C18.4453 20.2119 18.511 19.161 18.708 18.1101" stroke="#B3058D" stroke-width="1.03955" stroke-linecap="round" stroke-linejoin="round"/>
<path id="Path_23" d="M28.626 3.72552C31.5817 2.01778 34.9971 1.09824 38.6753 1.09824C49.8413 1.09824 58.9054 10.1624 58.9054 21.3283C58.9054 21.4597 58.9054 21.591 58.9054 21.7881" stroke="#B3058D" stroke-width="1.03955" stroke-linecap="round" stroke-linejoin="round"/>
<path id="Path_24" d="M20.3496 12.7246C20.8751 11.5423 21.5319 10.4914 22.3201 9.44051" stroke="#B3058D" stroke-width="1.03955" stroke-linecap="round" stroke-linejoin="round"/>
</g>
</g>
</svg>
