<svg width="81" height="74" viewBox="0 0 81 74" fill="none" xmlns="http://www.w3.org/2000/svg">
<g id="zoom">
<g id="Object">
<g id="Secure_Payments">
<g id="Group">
<path id="Path" d="M80.5114 67.4761V69.5441C80.5114 71.4489 78.8787 72.9727 76.9195 72.9727H4.10354C2.08994 72.9727 0.511719 71.4489 0.511719 69.5441V67.4761H33.4367C33.7089 68.238 34.4708 68.7822 35.3959 68.7822H45.6816C46.6068 68.7822 47.3687 68.238 47.6408 67.4761H80.5114Z" fill="white"/>
<path id="Path_2" d="M76.4292 67.4761H4.59277V22.3604C4.59277 20.7277 5.89889 19.3672 7.58596 19.3672H73.436C75.0686 19.3672 76.4292 20.6733 76.4292 22.3604V67.4761Z" fill="white"/>
<path id="Path_3" d="M76.4292 67.4754H6.38867V22.7407C6.38867 21.7067 7.25942 20.8359 8.29343 20.8359H73.5448C75.1231 20.8359 76.4292 22.1421 76.4292 23.7203V67.4754Z" fill="#FFC4DF"/>
<path id="Path_4" d="M30.9872 67.4756H4.59277V44.0742" stroke="#B3058D" stroke-width="0.959449" stroke-linecap="round" stroke-linejoin="round"/>
<path id="Path_5" d="M4.59277 32.9182V22.3604C4.59277 20.7277 5.89889 19.3672 7.58596 19.3672H73.436C75.0687 19.3672 76.4292 20.6733 76.4292 22.3604V67.4761H57.3817" stroke="#B3058D" stroke-width="0.959449" stroke-linecap="round" stroke-linejoin="round"/>
<path id="Path_6" d="M4.5934 37.8161V37.4351" stroke="#B3058D" stroke-width="0.959449" stroke-linecap="round" stroke-linejoin="round"/>
<path id="Path_7" d="M80.5119 69.1089V70.5783C80.5119 71.9388 78.9337 73.0273 76.9745 73.0273H5.95439C3.99522 73.0273 2.41699 71.9388 2.41699 70.5783V69.1089H32.5665C32.8386 69.6531 33.6005 70.0341 34.4713 70.0341H46.444C47.3148 70.0341 48.0767 69.6531 48.3488 69.1089H80.5119Z" fill="#FFC4DF"/>
<path id="Path_8" d="M58.5254 67.6396H7.96777V23.1226H72.7838V67.6396H66.0355" fill="#FFF0F7"/>
<path id="Path_9" d="M29.4643 67.4763H7.96777V23.1226H72.7838V33.4083" stroke="#B3058D" stroke-width="0.959449" stroke-linecap="round" stroke-linejoin="round"/>
<path id="Path_10" d="M53.3552 67.4762H52.9742" stroke="#B3058D" stroke-width="0.959449" stroke-linecap="round" stroke-linejoin="round"/>
<path id="Path_11" d="M72.784 67.4762H55.9678" stroke="#B3058D" stroke-width="0.959449" stroke-linecap="round" stroke-linejoin="round"/>
<path id="Path_12" d="M72.7838 38.1963V67.4752" stroke="#B3058D" stroke-width="0.959449" stroke-linecap="round" stroke-linejoin="round"/>
<path id="Path_13" d="M72.7835 67.4761H80.5114V69.5441C80.5114 71.4489 78.8787 72.9727 76.9195 72.9727H4.10354C2.08994 72.9727 0.511719 71.4489 0.511719 69.5441V67.4761H33.4367C33.7089 68.238 34.4708 68.7822 35.3959 68.7822H45.6816C46.3346 68.7822 46.8789 68.5101 47.2598 68.0203" stroke="#B3058D" stroke-width="0.959449" stroke-linecap="round" stroke-linejoin="round"/>
</g>
<g id="Group_2">
<path id="Path_14" d="M50.8524 57.7892H46.2266" stroke="#B3058D" stroke-width="0.959449" stroke-linecap="round" stroke-linejoin="round"/>
<path id="Path_15" d="M40.6212 57.7892H21.4648" stroke="#B3058D" stroke-width="0.959449" stroke-linecap="round" stroke-linejoin="round"/>
<path id="Path_16" d="M59.778 51.3131H38.9346" stroke="#B3058D" stroke-width="0.959449" stroke-linecap="round" stroke-linejoin="round"/>
<path id="Path_17" d="M33.1114 51.3131H21.7373" stroke="#B3058D" stroke-width="0.959449" stroke-linecap="round" stroke-linejoin="round"/>
<path id="Path_18" d="M12.2129 33.0275H25.5462" stroke="#B3058D" stroke-width="0.959449" stroke-linecap="round" stroke-linejoin="round"/>
<path id="Path_19" d="M12.2129 37.5993H21.2469" stroke="#B3058D" stroke-width="0.959449" stroke-linecap="round" stroke-linejoin="round"/>
</g>
<g id="Group_3">
<path id="Path_20" d="M59.1785 7.39492C59.1241 18.0072 58.6887 24.9187 56.1309 30.3065C53.6275 35.6943 49.0017 39.5582 40.5119 44.1297C40.4575 44.1297 40.4031 44.1841 40.3487 44.1841C23.2603 34.9324 21.6821 28.565 21.5732 7.3405C21.7365 7.3405 21.8998 7.3405 22.063 7.3405C26.8521 7.3405 34.7433 4.78267 40.4031 0.973145C46.1718 5.00036 54.4438 7.55819 59.1785 7.39492Z" fill="#FB7BB6" stroke="#B3058D" stroke-width="0.959449" stroke-linecap="round" stroke-linejoin="round"/>
<path id="Path_21" d="M40.3482 39.3401C28.0489 32.3741 26.1986 27.6938 25.8721 11.3673C30.4979 10.6054 35.8856 8.70063 40.3482 6.08838C44.8108 8.6462 50.1985 10.6054 54.8243 11.3673C54.6611 19.4761 54.0624 24.5918 52.2665 28.5102C50.4162 32.4285 46.9876 35.5306 40.3482 39.3401Z" fill="#FFF0F7" stroke="#B3058D" stroke-width="0.959449" stroke-linecap="round" stroke-linejoin="round"/>
<g id="Group_4">
<path id="Path_22" d="M39.9677 27.6388C39.2058 27.6388 38.4439 27.3666 37.8997 26.8224L34.3623 23.3939C33.9814 23.0129 33.7637 22.5231 33.7637 22.0333C33.7637 21.4891 33.9269 20.9993 34.3079 20.6183C34.6888 20.2374 35.1786 20.0197 35.7228 20.0197C36.2126 20.0197 36.7024 20.2374 37.0834 20.5639L39.9133 23.3394L45.8997 17.353C46.2806 16.9721 46.7704 16.7544 47.3146 16.7544C47.8588 16.7544 48.3486 16.9721 48.7296 17.353C49.1105 17.734 49.3282 18.2238 49.3282 18.768C49.3282 19.3122 49.1105 19.802 48.7296 20.183L42.0357 26.8769C41.4915 27.3666 40.7296 27.6388 39.9677 27.6388Z" fill="white"/>
<path id="Shape" fill-rule="evenodd" clip-rule="evenodd" d="M45.3547 16.7548C45.8445 16.2106 46.5519 15.9385 47.3138 15.9385C48.0757 15.9385 48.7832 16.2106 49.3819 16.8636C49.9261 17.3534 50.1982 18.1153 50.1982 18.8228C50.1982 19.5303 49.9261 20.2378 49.3819 20.782L42.688 27.4215C41.9805 28.129 41.0554 28.5099 40.0214 28.5099C39.0418 28.5099 38.1166 28.129 37.4091 27.4215L33.8717 23.9929C33.3275 23.4487 33.001 22.7956 33.001 22.0337C32.9466 21.2718 33.2187 20.5643 33.7629 20.0201C34.3071 19.4759 35.0146 19.1494 35.7765 19.1494C36.5384 19.1494 37.1914 19.4759 37.7356 19.9657L39.9669 22.1426L45.3547 16.7548ZM48.1304 17.8975C47.9128 17.6798 47.5862 17.571 47.3141 17.571C47.042 17.571 46.7155 17.6798 46.389 18.0063L39.8584 24.537L36.4842 21.2172C36.2666 20.9995 35.94 20.8907 35.6679 20.8907C35.3958 20.8907 35.0693 20.9995 34.8516 21.2172C34.3618 21.6526 34.4162 22.4145 34.8516 22.8499L38.389 26.2785C38.8244 26.6594 39.3686 26.8771 39.9128 26.8771C40.5114 26.8771 41.0556 26.605 41.4366 26.224L48.1304 19.5301C48.5658 19.0948 48.5658 18.3329 48.1304 17.8975Z" fill="#B3058D"/>
</g>
</g>
</g>
</g>
</g>
</svg>
