<svg width="64" height="82" viewBox="0 0 64 82" fill="none" xmlns="http://www.w3.org/2000/svg">
<g id="Group 615">
<path id="Path" d="M62.6703 20.6838L63.3301 77.5361C63.3301 79.4605 61.7906 81 59.8662 81H4.60845C2.68405 81 1.14453 79.4605 1.14453 77.5361V4.46392C1.14453 2.53952 2.68405 1 4.60845 1H44.6909L62.6703 20.6838Z" fill="#FFF4E8"/>
<path id="Path_2" d="M10.3818 39.2124H55.8526" stroke="#F24F45" stroke-linecap="round" stroke-linejoin="round"/>
<path id="Path_3" d="M10.3818 46.2515H55.8526" stroke="#F24F45" stroke-linecap="round" stroke-linejoin="round"/>
<path id="Path_4" d="M10.3818 53.3433H55.8526" stroke="#F24F45" stroke-linecap="round" stroke-linejoin="round"/>
<path id="Path_5" d="M26.0518 68.9038H28.0311" stroke="#FFCA92" stroke-width="1.64948" stroke-linecap="round" stroke-linejoin="round"/>
<path id="Path_6" d="M10.6562 68.9038H22.4226" stroke="#FFCA92" stroke-width="1.64948" stroke-linecap="round" stroke-linejoin="round"/>
<path id="Path_7" fill-rule="evenodd" clip-rule="evenodd" d="M55.8526 33.9342V58.0166C55.8526 59.0613 55.0279 59.941 53.9832 59.941H12.2513C11.2066 59.941 10.3818 59.0613 10.3818 58.0166V33.9342C10.3818 32.8895 11.2066 32.0098 12.2513 32.0098C19.6739 32.0098 46.3956 32.0098 53.9832 32.0098C54.9729 32.0098 55.8526 32.8895 55.8526 33.9342Z" stroke="#F24F45" stroke-linecap="round" stroke-linejoin="round"/>
<path id="Path_8" d="M11.2061 11.8316H37.7628" stroke="#F24F45" stroke-linecap="round" stroke-linejoin="round"/>
<path id="Path_9" d="M11.2061 18.1558H21.3779" stroke="#F24F45" stroke-linecap="round" stroke-linejoin="round"/>
<path id="Path_10" d="M44.6904 1.05469V16.7248C44.6904 18.8691 46.6148 20.7385 48.7592 20.7385H62.6698" fill="white"/>
<path id="Path_11" d="M46.6152 2.59375V16.8343C46.6152 18.8137 48.3747 20.4632 50.2991 20.4632H62.9451" fill="#FFCA92"/>
<path id="Path_12" d="M46.6152 5.45312V19.6937C46.6152 21.6731 48.3747 23.3225 50.2991 23.3225H62.9451V20.4634" fill="#FFCA92"/>
<path id="Path_13" d="M44.6904 13.2617V16.6707C44.6904 18.815 46.6148 20.6844 48.7592 20.6844H62.6698" stroke="#F24F45" stroke-linecap="round" stroke-linejoin="round"/>
<path id="Path_14" d="M44.6909 1.05469V9.46706" stroke="#F24F45" stroke-linecap="round" stroke-linejoin="round"/>
<path id="Path_15" d="M1.08937 19.6939V18.8691" stroke="#F24F45" stroke-width="1.64948" stroke-linecap="round" stroke-linejoin="round"/>
<path id="Path_16" d="M1.08887 14.8557V4.46392C1.08887 2.53952 2.62839 1 4.55278 1H44.6353L62.6146 20.6838L63.2744 77.5361C63.2744 79.4605 61.7349 81 59.8105 81H4.60777C2.68337 81 1.14385 79.4605 1.14385 77.5361V28.3265" stroke="#F24F45" stroke-linecap="round" stroke-linejoin="round"/>
<path id="Path_17" d="M40.0718 32.0098V59.3912" stroke="#F24F45" stroke-linecap="round" stroke-linejoin="round"/>
<path id="Path_18" d="M25.6665 32.0098V59.3912" stroke="#F24F45" stroke-linecap="round" stroke-linejoin="round"/>
</g>
</svg>
