<?xml version="1.0" encoding="UTF-8"?>
<svg width="278px" height="84px" viewBox="0 0 278 84" version="1.1" xmlns="http://www.w3.org/2000/svg" xmlns:xlink="http://www.w3.org/1999/xlink">
    <g id="COMPETENCES" stroke="none" stroke-width="1" fill="none" fill-rule="evenodd">
        <g transform="translate(-1187.000000, -810.000000)" fill="#FFFFFF" fill-rule="nonzero">
            <path d="M1256.032,812.4 L1263.248,812.4 C1269.716,812.4 1272.972,815.612 1272.972,821.992 C1272.972,828.372 1269.716,831.54 1263.248,831.54 L1256.648,831.54 L1256.648,838.448 C1256.648,840.428 1256.164,841 1254.096,841 L1253.304,841 C1251.236,841 1250.752,840.428 1250.752,838.448 L1250.752,817.68 C1250.752,813.984 1252.336,812.4 1256.032,812.4 Z M1263.248,817.9 L1257.968,817.9 C1257.088,817.9 1256.648,818.34 1256.648,819.22 L1256.648,826.04 L1263.248,826.04 C1266.02,826.04 1267.076,824.764 1267.076,821.992 C1267.076,819.22 1266.02,817.9 1263.248,817.9 Z M1293.168,826.04 L1293.168,834.444 C1293.168,839.196 1290.264,841.528 1283.62,841.528 C1276.976,841.528 1274.072,839.196 1274.072,834.576 C1274.072,830 1277.064,827.712 1283.004,827.712 L1287.448,827.712 L1287.448,826.04 C1287.448,823.928 1285.908,823.356 1282.872,823.356 C1281.64,823.356 1280.364,823.444 1279.044,823.62 C1277.108,823.928 1276.58,823.488 1276.58,821.552 L1276.58,821.376 C1276.58,819.484 1277.064,819 1278.956,818.692 C1280.056,818.56 1281.244,818.472 1282.52,818.472 C1289.428,818.472 1293.168,820.584 1293.168,826.04 Z M1287.448,834.136 L1287.448,832.024 L1282.916,832.024 C1280.848,832.024 1279.792,832.816 1279.792,834.444 C1279.968,836.556 1281.376,836.776 1283.532,836.732 C1285.776,836.776 1287.228,836.512 1287.448,834.136 Z M1296.38,838.052 L1296.38,837.568 C1296.38,835.5 1296.908,834.972 1298.8,835.5 C1300.472,835.984 1302.452,836.204 1304.784,836.204 C1307.38,836.204 1308.172,835.94 1308.172,834.928 C1308.172,834.18 1307.732,833.828 1305.4,832.904 L1301.308,831.188 C1298.184,829.912 1296.732,828.328 1296.732,824.94 C1296.732,820.54 1299.328,818.472 1305.708,818.472 C1307.424,818.472 1308.964,818.648 1310.372,819 C1312.308,819.484 1312.792,819.968 1312.792,821.904 L1312.792,822.344 C1312.792,824.324 1312.264,824.808 1310.328,824.324 C1308.876,823.972 1307.292,823.796 1305.62,823.796 C1303.112,823.796 1302.364,824.148 1302.364,824.984 C1302.364,825.644 1302.76,825.908 1304.168,826.48 L1308.744,828.284 C1312.22,829.648 1313.804,831.364 1313.804,834.884 C1313.804,839.46 1311.032,841.528 1304.344,841.528 C1302.188,841.528 1300.34,841.352 1298.8,840.956 C1296.864,840.472 1296.38,839.988 1296.38,838.052 Z M1333.252,827.36 L1333.252,838.536 C1333.252,840.516 1332.768,841 1330.788,841 L1329.952,841 C1327.972,841 1327.488,840.516 1327.488,838.536 L1327.488,827.36 C1327.488,821.596 1330.744,818.472 1336.904,818.472 C1339.94,818.472 1342.14,819.396 1343.416,821.288 C1344.78,819.396 1346.936,818.472 1349.884,818.472 C1356.264,818.472 1359.212,821.376 1359.212,827.36 L1359.212,838.536 C1359.212,840.516 1358.728,841 1356.748,841 L1355.912,841 C1353.932,841 1353.448,840.516 1353.448,838.536 L1353.448,827.36 C1353.448,824.896 1352.744,823.884 1349.884,823.884 C1346.892,823.884 1346.144,824.896 1346.144,827.36 L1346.144,838.536 C1346.144,840.516 1345.66,841 1343.68,841 L1343.02,841 C1341.04,841 1340.556,840.516 1340.556,838.536 L1340.556,827.36 C1340.556,824.896 1339.852,823.884 1336.904,823.884 C1334.044,823.884 1333.252,824.896 1333.252,827.36 Z M1381.52,826.04 L1381.52,834.444 C1381.52,839.196 1378.616,841.528 1371.972,841.528 C1365.328,841.528 1362.424,839.196 1362.424,834.576 C1362.424,830 1365.416,827.712 1371.356,827.712 L1375.8,827.712 L1375.8,826.04 C1375.8,823.928 1374.26,823.356 1371.224,823.356 C1369.992,823.356 1368.716,823.444 1367.396,823.62 C1365.46,823.928 1364.932,823.488 1364.932,821.552 L1364.932,821.376 C1364.932,819.484 1365.416,819 1367.308,818.692 C1368.408,818.56 1369.596,818.472 1370.872,818.472 C1377.78,818.472 1381.52,820.584 1381.52,826.04 Z M1375.8,834.136 L1375.8,832.024 L1371.268,832.024 C1369.2,832.024 1368.144,832.816 1368.144,834.444 C1368.32,836.556 1369.728,836.776 1371.884,836.732 C1374.128,836.776 1375.58,836.512 1375.8,834.136 Z M1385.392,834.356 L1385.392,812.664 C1385.392,810.684 1385.876,810.2 1387.856,810.2 L1388.648,810.2 C1390.628,810.2 1391.112,810.684 1391.112,812.664 L1391.112,833.08 C1391.112,835.324 1391.684,836.028 1393.048,836.028 L1393.268,836.028 C1394.456,836.028 1394.764,836.336 1394.764,838.052 L1394.764,838.888 C1394.764,840.648 1394.456,841.132 1393.268,841.352 C1392.96,841.396 1392.52,841.44 1391.948,841.44 C1387.944,841.44 1385.392,839.152 1385.392,834.356 Z M1398.152,847.292 L1397.976,847.248 C1397.404,847.116 1397.316,846.94 1397.184,846.368 C1397.14,846.016 1397.096,845.224 1397.096,844.036 C1397.096,838.008 1398.24,835.016 1400.572,835.016 C1402.024,835.016 1402.948,836.116 1402.948,837.876 C1402.948,838.932 1402.508,840.384 1401.672,842.188 C1400.836,843.992 1400.044,845.532 1399.252,846.808 C1398.988,847.248 1398.636,847.424 1398.152,847.292 Z M1193.156,871.36 L1193.156,882.536 C1193.156,884.516 1192.672,885 1190.692,885 L1189.856,885 C1187.876,885 1187.392,884.516 1187.392,882.536 L1187.392,871.36 C1187.392,865.596 1190.648,862.472 1196.808,862.472 C1199.844,862.472 1202.044,863.396 1203.32,865.288 C1204.684,863.396 1206.84,862.472 1209.788,862.472 C1216.168,862.472 1219.116,865.376 1219.116,871.36 L1219.116,882.536 C1219.116,884.516 1218.632,885 1216.652,885 L1215.816,885 C1213.836,885 1213.352,884.516 1213.352,882.536 L1213.352,871.36 C1213.352,868.896 1212.648,867.884 1209.788,867.884 C1206.796,867.884 1206.048,868.896 1206.048,871.36 L1206.048,882.536 C1206.048,884.516 1205.564,885 1203.584,885 L1202.924,885 C1200.944,885 1200.46,884.516 1200.46,882.536 L1200.46,871.36 C1200.46,868.896 1199.756,867.884 1196.808,867.884 C1193.948,867.884 1193.156,868.896 1193.156,871.36 Z M1241.424,870.04 L1241.424,878.444 C1241.424,883.196 1238.52,885.528 1231.876,885.528 C1225.232,885.528 1222.328,883.196 1222.328,878.576 C1222.328,874 1225.32,871.712 1231.26,871.712 L1235.704,871.712 L1235.704,870.04 C1235.704,867.928 1234.164,867.356 1231.128,867.356 C1229.896,867.356 1228.62,867.444 1227.3,867.62 C1225.364,867.928 1224.836,867.488 1224.836,865.552 L1224.836,865.376 C1224.836,863.484 1225.32,863 1227.212,862.692 C1228.312,862.56 1229.5,862.472 1230.776,862.472 C1237.684,862.472 1241.424,864.584 1241.424,870.04 Z M1235.704,878.136 L1235.704,876.024 L1231.172,876.024 C1229.104,876.024 1228.048,876.816 1228.048,878.444 C1228.224,880.556 1229.632,880.776 1231.788,880.732 C1234.032,880.776 1235.484,880.512 1235.704,878.136 Z M1245.736,882.536 L1245.736,865.464 C1245.736,863.484 1246.22,863 1248.2,863 L1248.992,863 C1250.972,863 1251.456,863.484 1251.456,865.464 L1251.456,882.536 C1251.456,884.516 1250.972,885 1248.992,885 L1248.2,885 C1246.22,885 1245.736,884.516 1245.736,882.536 Z M1246.176,858.82 C1244.812,857.456 1244.812,855.344 1246.176,853.98 C1247.54,852.616 1249.652,852.616 1251.016,853.98 C1252.38,855.344 1252.38,857.456 1251.016,858.82 C1249.652,860.184 1247.54,860.184 1246.176,858.82 Z M1255.548,882.052 L1255.548,881.568 C1255.548,879.5 1256.076,878.972 1257.968,879.5 C1259.64,879.984 1261.62,880.204 1263.952,880.204 C1266.548,880.204 1267.34,879.94 1267.34,878.928 C1267.34,878.18 1266.9,877.828 1264.568,876.904 L1260.476,875.188 C1257.352,873.912 1255.9,872.328 1255.9,868.94 C1255.9,864.54 1258.496,862.472 1264.876,862.472 C1266.592,862.472 1268.132,862.648 1269.54,863 C1271.476,863.484 1271.96,863.968 1271.96,865.904 L1271.96,866.344 C1271.96,868.324 1271.432,868.808 1269.496,868.324 C1268.044,867.972 1266.46,867.796 1264.788,867.796 C1262.28,867.796 1261.532,868.148 1261.532,868.984 C1261.532,869.644 1261.928,869.908 1263.336,870.48 L1267.912,872.284 C1271.388,873.648 1272.972,875.364 1272.972,878.884 C1272.972,883.46 1270.2,885.528 1263.512,885.528 C1261.356,885.528 1259.508,885.352 1257.968,884.956 C1256.032,884.472 1255.548,883.988 1255.548,882.052 Z M1286.656,891.336 L1286.656,872.108 C1286.656,865.552 1290.836,862.472 1297.128,862.472 C1304.124,862.472 1307.644,865.684 1307.644,872.108 L1307.644,875.628 C1307.644,881.964 1304.432,885.528 1298.404,885.528 C1295.632,885.528 1293.608,884.692 1292.376,883.02 L1292.376,891.336 C1292.376,893.316 1291.892,893.8 1289.912,893.8 L1289.12,893.8 C1287.14,893.8 1286.656,893.316 1286.656,891.336 Z M1301.88,875.76 L1301.88,872.24 C1301.88,869.116 1301,867.884 1297.172,867.884 C1293.432,867.884 1292.376,869.204 1292.376,872.24 L1292.376,875.76 C1292.376,878.796 1293.432,880.116 1297.172,880.116 C1300.912,880.116 1301.88,878.796 1301.88,875.76 Z M1329.512,870.04 L1329.512,878.444 C1329.512,883.196 1326.608,885.528 1319.964,885.528 C1313.32,885.528 1310.416,883.196 1310.416,878.576 C1310.416,874 1313.408,871.712 1319.348,871.712 L1323.792,871.712 L1323.792,870.04 C1323.792,867.928 1322.252,867.356 1319.216,867.356 C1317.984,867.356 1316.708,867.444 1315.388,867.62 C1313.452,867.928 1312.924,867.488 1312.924,865.552 L1312.924,865.376 C1312.924,863.484 1313.408,863 1315.3,862.692 C1316.4,862.56 1317.588,862.472 1318.864,862.472 C1325.772,862.472 1329.512,864.584 1329.512,870.04 Z M1323.792,878.136 L1323.792,876.024 L1319.26,876.024 C1317.192,876.024 1316.136,876.816 1316.136,878.444 C1316.312,880.556 1317.72,880.776 1319.876,880.732 C1322.12,880.776 1323.572,880.512 1323.792,878.136 Z M1332.724,882.052 L1332.724,881.568 C1332.724,879.5 1333.252,878.972 1335.144,879.5 C1336.816,879.984 1338.796,880.204 1341.128,880.204 C1343.724,880.204 1344.516,879.94 1344.516,878.928 C1344.516,878.18 1344.076,877.828 1341.744,876.904 L1337.652,875.188 C1334.528,873.912 1333.076,872.328 1333.076,868.94 C1333.076,864.54 1335.672,862.472 1342.052,862.472 C1343.768,862.472 1345.308,862.648 1346.716,863 C1348.652,863.484 1349.136,863.968 1349.136,865.904 L1349.136,866.344 C1349.136,868.324 1348.608,868.808 1346.672,868.324 C1345.22,867.972 1343.636,867.796 1341.964,867.796 C1339.456,867.796 1338.708,868.148 1338.708,868.984 C1338.708,869.644 1339.104,869.908 1340.512,870.48 L1345.088,872.284 C1348.564,873.648 1350.148,875.364 1350.148,878.884 C1350.148,883.46 1347.376,885.528 1340.688,885.528 C1338.532,885.528 1336.684,885.352 1335.144,884.956 C1333.208,884.472 1332.724,883.988 1332.724,882.052 Z M1369.596,871.36 L1369.596,882.536 C1369.596,884.516 1369.112,885 1367.132,885 L1366.296,885 C1364.316,885 1363.832,884.516 1363.832,882.536 L1363.832,871.36 C1363.832,865.596 1367.088,862.472 1373.248,862.472 C1376.284,862.472 1378.484,863.396 1379.76,865.288 C1381.124,863.396 1383.28,862.472 1386.228,862.472 C1392.608,862.472 1395.556,865.376 1395.556,871.36 L1395.556,882.536 C1395.556,884.516 1395.072,885 1393.092,885 L1392.256,885 C1390.276,885 1389.792,884.516 1389.792,882.536 L1389.792,871.36 C1389.792,868.896 1389.088,867.884 1386.228,867.884 C1383.236,867.884 1382.488,868.896 1382.488,871.36 L1382.488,882.536 C1382.488,884.516 1382.004,885 1380.024,885 L1379.364,885 C1377.384,885 1376.9,884.516 1376.9,882.536 L1376.9,871.36 C1376.9,868.896 1376.196,867.884 1373.248,867.884 C1370.388,867.884 1369.596,868.896 1369.596,871.36 Z M1417.864,870.04 L1417.864,878.444 C1417.864,883.196 1414.96,885.528 1408.316,885.528 C1401.672,885.528 1398.768,883.196 1398.768,878.576 C1398.768,874 1401.76,871.712 1407.7,871.712 L1412.144,871.712 L1412.144,870.04 C1412.144,867.928 1410.604,867.356 1407.568,867.356 C1406.336,867.356 1405.06,867.444 1403.74,867.62 C1401.804,867.928 1401.276,867.488 1401.276,865.552 L1401.276,865.376 C1401.276,863.484 1401.76,863 1403.652,862.692 C1404.752,862.56 1405.94,862.472 1407.216,862.472 C1414.124,862.472 1417.864,864.584 1417.864,870.04 Z M1412.144,878.136 L1412.144,876.024 L1407.612,876.024 C1405.544,876.024 1404.488,876.816 1404.488,878.444 C1404.664,880.556 1406.072,880.776 1408.228,880.732 C1410.472,880.776 1411.924,880.512 1412.144,878.136 Z M1428.864,865.156 L1430.8,868.94 C1431.636,870.568 1431.768,870.788 1432.604,870.788 C1433.44,870.788 1433.572,870.568 1434.408,868.94 L1436.344,865.156 C1437.224,863.396 1437.928,863 1439.908,863 L1441.272,863 C1443.252,863 1443.516,863.44 1442.504,865.156 L1439.996,869.6 C1439.424,870.612 1439.028,871.36 1438.632,871.932 C1438.236,872.548 1437.796,873.032 1437.136,873.296 C1437.62,873.56 1437.972,873.912 1438.324,874.264 C1438.5,874.44 1438.896,875.1 1439.028,875.32 C1439.204,875.54 1439.776,876.552 1439.996,876.948 L1443.384,882.844 C1444.396,884.56 1444.132,885 1442.152,885 L1440.744,885 C1438.764,885 1438.06,884.56 1437.136,882.844 L1434.364,877.608 C1433.484,875.892 1433.352,875.76 1432.604,875.76 C1431.856,875.76 1431.724,875.892 1430.844,877.608 L1428.072,882.844 C1427.148,884.56 1426.444,885 1424.464,885 L1423.056,885 C1421.076,885 1420.812,884.56 1421.824,882.844 L1425.212,876.948 L1425.696,876.112 C1426.18,875.364 1426.18,875.276 1426.488,874.792 C1427.016,873.956 1427.368,873.692 1428.028,873.296 C1427.5,873.032 1427.192,872.768 1426.796,872.284 L1426.268,871.448 L1425.96,870.964 L1425.212,869.6 L1422.704,865.156 C1421.692,863.44 1421.956,863 1423.936,863 L1425.3,863 C1427.28,863 1427.984,863.396 1428.864,865.156 Z M1461.336,856.4 L1461.776,856.4 C1463.844,856.4 1464.328,856.972 1464.328,858.952 L1464.328,865.464 C1464.328,869.116 1464.108,872.108 1463.624,874.44 C1463.404,875.628 1463.008,875.98 1461.776,875.98 L1461.336,875.98 C1460.104,875.98 1459.796,875.672 1459.488,874.44 C1459.004,872.108 1458.784,869.116 1458.784,865.464 L1458.784,858.952 C1458.784,856.972 1459.268,856.4 1461.336,856.4 Z M1459.092,884.516 C1457.728,883.152 1457.728,881.04 1459.092,879.676 C1460.456,878.312 1462.568,878.312 1463.932,879.676 C1465.296,881.04 1465.296,883.152 1463.932,884.516 C1462.568,885.88 1460.456,885.88 1459.092,884.516 Z" id="Pasmal,maispasmax-mobile"></path>
        </g>
    </g>
</svg>
