<?xml version="1.0" encoding="UTF-8"?>
<svg width="486px" height="45px" viewBox="0 0 486 45" version="1.1" xmlns="http://www.w3.org/2000/svg" xmlns:xlink="http://www.w3.org/1999/xlink">
    <g id="COMPETENCES" stroke="none" stroke-width="1" fill="none" fill-rule="evenodd">
        <g transform="translate(-1168.000000, -1650.000000)" fill="#FFFFFF" fill-rule="nonzero">
            <path d="M1174.368,1653.8 L1182.24,1653.8 C1189.296,1653.8 1192.848,1657.304 1192.848,1664.264 C1192.848,1671.224 1189.296,1674.68 1182.24,1674.68 L1175.04,1674.68 L1175.04,1682.216 C1175.04,1684.376 1174.512,1685 1172.256,1685 L1171.392,1685 C1169.136,1685 1168.608,1684.376 1168.608,1682.216 L1168.608,1659.56 C1168.608,1655.528 1170.336,1653.8 1174.368,1653.8 Z M1182.24,1659.8 L1176.48,1659.8 C1175.52,1659.8 1175.04,1660.28 1175.04,1661.24 L1175.04,1668.68 L1182.24,1668.68 C1185.264,1668.68 1186.416,1667.288 1186.416,1664.264 C1186.416,1661.24 1185.264,1659.8 1182.24,1659.8 Z M1214.88,1668.68 L1214.88,1677.848 C1214.88,1683.032 1211.712,1685.576 1204.464,1685.576 C1197.216,1685.576 1194.048,1683.032 1194.048,1677.992 C1194.048,1673 1197.312,1670.504 1203.792,1670.504 L1208.64,1670.504 L1208.64,1668.68 C1208.64,1666.376 1206.96,1665.752 1203.648,1665.752 C1202.304,1665.752 1200.912,1665.848 1199.472,1666.04 C1197.36,1666.376 1196.784,1665.896 1196.784,1663.784 L1196.784,1663.592 C1196.784,1661.528 1197.312,1661 1199.376,1660.664 C1200.576,1660.52 1201.872,1660.424 1203.264,1660.424 C1210.8,1660.424 1214.88,1662.728 1214.88,1668.68 Z M1208.64,1677.512 L1208.64,1675.208 L1203.696,1675.208 C1201.44,1675.208 1200.288,1676.072 1200.288,1677.848 C1200.48,1680.152 1202.016,1680.392 1204.368,1680.344 C1206.816,1680.392 1208.4,1680.104 1208.64,1677.512 Z M1218.384,1681.784 L1218.384,1681.256 C1218.384,1679 1218.96,1678.424 1221.024,1679 C1222.848,1679.528 1225.008,1679.768 1227.552,1679.768 C1230.384,1679.768 1231.248,1679.48 1231.248,1678.376 C1231.248,1677.56 1230.768,1677.176 1228.224,1676.168 L1223.76,1674.296 C1220.352,1672.904 1218.768,1671.176 1218.768,1667.48 C1218.768,1662.68 1221.6,1660.424 1228.56,1660.424 C1230.432,1660.424 1232.112,1660.616 1233.648,1661 C1235.76,1661.528 1236.288,1662.056 1236.288,1664.168 L1236.288,1664.648 C1236.288,1666.808 1235.712,1667.336 1233.6,1666.808 C1232.016,1666.424 1230.288,1666.232 1228.464,1666.232 C1225.728,1666.232 1224.912,1666.616 1224.912,1667.528 C1224.912,1668.248 1225.344,1668.536 1226.88,1669.16 L1231.872,1671.128 C1235.664,1672.616 1237.392,1674.488 1237.392,1678.328 C1237.392,1683.32 1234.368,1685.576 1227.072,1685.576 C1224.72,1685.576 1222.704,1685.384 1221.024,1684.952 C1218.912,1684.424 1218.384,1683.896 1218.384,1681.784 Z M1258.608,1670.12 L1258.608,1682.312 C1258.608,1684.472 1258.08,1685 1255.92,1685 L1255.008,1685 C1252.848,1685 1252.32,1684.472 1252.32,1682.312 L1252.32,1670.12 C1252.32,1663.832 1255.872,1660.424 1262.592,1660.424 C1265.904,1660.424 1268.304,1661.432 1269.696,1663.496 C1271.184,1661.432 1273.536,1660.424 1276.752,1660.424 C1283.712,1660.424 1286.928,1663.592 1286.928,1670.12 L1286.928,1682.312 C1286.928,1684.472 1286.4,1685 1284.24,1685 L1283.328,1685 C1281.168,1685 1280.64,1684.472 1280.64,1682.312 L1280.64,1670.12 C1280.64,1667.432 1279.872,1666.328 1276.752,1666.328 C1273.488,1666.328 1272.672,1667.432 1272.672,1670.12 L1272.672,1682.312 C1272.672,1684.472 1272.144,1685 1269.984,1685 L1269.264,1685 C1267.104,1685 1266.576,1684.472 1266.576,1682.312 L1266.576,1670.12 C1266.576,1667.432 1265.808,1666.328 1262.592,1666.328 C1259.472,1666.328 1258.608,1667.432 1258.608,1670.12 Z M1311.264,1668.68 L1311.264,1677.848 C1311.264,1683.032 1308.096,1685.576 1300.848,1685.576 C1293.6,1685.576 1290.432,1683.032 1290.432,1677.992 C1290.432,1673 1293.696,1670.504 1300.176,1670.504 L1305.024,1670.504 L1305.024,1668.68 C1305.024,1666.376 1303.344,1665.752 1300.032,1665.752 C1298.688,1665.752 1297.296,1665.848 1295.856,1666.04 C1293.744,1666.376 1293.168,1665.896 1293.168,1663.784 L1293.168,1663.592 C1293.168,1661.528 1293.696,1661 1295.76,1660.664 C1296.96,1660.52 1298.256,1660.424 1299.648,1660.424 C1307.184,1660.424 1311.264,1662.728 1311.264,1668.68 Z M1305.024,1677.512 L1305.024,1675.208 L1300.08,1675.208 C1297.824,1675.208 1296.672,1676.072 1296.672,1677.848 C1296.864,1680.152 1298.4,1680.392 1300.752,1680.344 C1303.2,1680.392 1304.784,1680.104 1305.024,1677.512 Z M1315.488,1677.752 L1315.488,1654.088 C1315.488,1651.928 1316.016,1651.4 1318.176,1651.4 L1319.04,1651.4 C1321.2,1651.4 1321.728,1651.928 1321.728,1654.088 L1321.728,1676.36 C1321.728,1678.808 1322.352,1679.576 1323.84,1679.576 L1324.08,1679.576 C1325.376,1679.576 1325.712,1679.912 1325.712,1681.784 L1325.712,1682.696 C1325.712,1684.616 1325.376,1685.144 1324.08,1685.384 C1323.744,1685.432 1323.264,1685.48 1322.64,1685.48 C1318.272,1685.48 1315.488,1682.984 1315.488,1677.752 Z M1329.408,1691.864 L1329.216,1691.816 C1328.592,1691.672 1328.496,1691.48 1328.352,1690.856 C1328.304,1690.472 1328.256,1689.608 1328.256,1688.312 C1328.256,1681.736 1329.504,1678.472 1332.048,1678.472 C1333.632,1678.472 1334.64,1679.672 1334.64,1681.592 C1334.64,1682.744 1334.16,1684.328 1333.248,1686.296 C1332.336,1688.264 1331.472,1689.944 1330.608,1691.336 C1330.32,1691.816 1329.936,1692.008 1329.408,1691.864 Z M1356.816,1670.12 L1356.816,1682.312 C1356.816,1684.472 1356.288,1685 1354.128,1685 L1353.216,1685 C1351.056,1685 1350.528,1684.472 1350.528,1682.312 L1350.528,1670.12 C1350.528,1663.832 1354.08,1660.424 1360.8,1660.424 C1364.112,1660.424 1366.512,1661.432 1367.904,1663.496 C1369.392,1661.432 1371.744,1660.424 1374.96,1660.424 C1381.92,1660.424 1385.136,1663.592 1385.136,1670.12 L1385.136,1682.312 C1385.136,1684.472 1384.608,1685 1382.448,1685 L1381.536,1685 C1379.376,1685 1378.848,1684.472 1378.848,1682.312 L1378.848,1670.12 C1378.848,1667.432 1378.08,1666.328 1374.96,1666.328 C1371.696,1666.328 1370.88,1667.432 1370.88,1670.12 L1370.88,1682.312 C1370.88,1684.472 1370.352,1685 1368.192,1685 L1367.472,1685 C1365.312,1685 1364.784,1684.472 1364.784,1682.312 L1364.784,1670.12 C1364.784,1667.432 1364.016,1666.328 1360.8,1666.328 C1357.68,1666.328 1356.816,1667.432 1356.816,1670.12 Z M1409.472,1668.68 L1409.472,1677.848 C1409.472,1683.032 1406.304,1685.576 1399.056,1685.576 C1391.808,1685.576 1388.64,1683.032 1388.64,1677.992 C1388.64,1673 1391.904,1670.504 1398.384,1670.504 L1403.232,1670.504 L1403.232,1668.68 C1403.232,1666.376 1401.552,1665.752 1398.24,1665.752 C1396.896,1665.752 1395.504,1665.848 1394.064,1666.04 C1391.952,1666.376 1391.376,1665.896 1391.376,1663.784 L1391.376,1663.592 C1391.376,1661.528 1391.904,1661 1393.968,1660.664 C1395.168,1660.52 1396.464,1660.424 1397.856,1660.424 C1405.392,1660.424 1409.472,1662.728 1409.472,1668.68 Z M1403.232,1677.512 L1403.232,1675.208 L1398.288,1675.208 C1396.032,1675.208 1394.88,1676.072 1394.88,1677.848 C1395.072,1680.152 1396.608,1680.392 1398.96,1680.344 C1401.408,1680.392 1402.992,1680.104 1403.232,1677.512 Z M1414.176,1682.312 L1414.176,1663.688 C1414.176,1661.528 1414.704,1661 1416.864,1661 L1417.728,1661 C1419.888,1661 1420.416,1661.528 1420.416,1663.688 L1420.416,1682.312 C1420.416,1684.472 1419.888,1685 1417.728,1685 L1416.864,1685 C1414.704,1685 1414.176,1684.472 1414.176,1682.312 Z M1414.656,1656.44 C1413.168,1654.952 1413.168,1652.648 1414.656,1651.16 C1416.144,1649.672 1418.448,1649.672 1419.936,1651.16 C1421.424,1652.648 1421.424,1654.952 1419.936,1656.44 C1418.448,1657.928 1416.144,1657.928 1414.656,1656.44 Z M1424.88,1681.784 L1424.88,1681.256 C1424.88,1679 1425.456,1678.424 1427.52,1679 C1429.344,1679.528 1431.504,1679.768 1434.048,1679.768 C1436.88,1679.768 1437.744,1679.48 1437.744,1678.376 C1437.744,1677.56 1437.264,1677.176 1434.72,1676.168 L1430.256,1674.296 C1426.848,1672.904 1425.264,1671.176 1425.264,1667.48 C1425.264,1662.68 1428.096,1660.424 1435.056,1660.424 C1436.928,1660.424 1438.608,1660.616 1440.144,1661 C1442.256,1661.528 1442.784,1662.056 1442.784,1664.168 L1442.784,1664.648 C1442.784,1666.808 1442.208,1667.336 1440.096,1666.808 C1438.512,1666.424 1436.784,1666.232 1434.96,1666.232 C1432.224,1666.232 1431.408,1666.616 1431.408,1667.528 C1431.408,1668.248 1431.84,1668.536 1433.376,1669.16 L1438.368,1671.128 C1442.16,1672.616 1443.888,1674.488 1443.888,1678.328 C1443.888,1683.32 1440.864,1685.576 1433.568,1685.576 C1431.216,1685.576 1429.2,1685.384 1427.52,1684.952 C1425.408,1684.424 1424.88,1683.896 1424.88,1681.784 Z M1458.816,1691.912 L1458.816,1670.936 C1458.816,1663.784 1463.376,1660.424 1470.24,1660.424 C1477.872,1660.424 1481.712,1663.928 1481.712,1670.936 L1481.712,1674.776 C1481.712,1681.688 1478.208,1685.576 1471.632,1685.576 C1468.608,1685.576 1466.4,1684.664 1465.056,1682.84 L1465.056,1691.912 C1465.056,1694.072 1464.528,1694.6 1462.368,1694.6 L1461.504,1694.6 C1459.344,1694.6 1458.816,1694.072 1458.816,1691.912 Z M1475.424,1674.92 L1475.424,1671.08 C1475.424,1667.672 1474.464,1666.328 1470.288,1666.328 C1466.208,1666.328 1465.056,1667.768 1465.056,1671.08 L1465.056,1674.92 C1465.056,1678.232 1466.208,1679.672 1470.288,1679.672 C1474.368,1679.672 1475.424,1678.232 1475.424,1674.92 Z M1505.568,1668.68 L1505.568,1677.848 C1505.568,1683.032 1502.4,1685.576 1495.152,1685.576 C1487.904,1685.576 1484.736,1683.032 1484.736,1677.992 C1484.736,1673 1488,1670.504 1494.48,1670.504 L1499.328,1670.504 L1499.328,1668.68 C1499.328,1666.376 1497.648,1665.752 1494.336,1665.752 C1492.992,1665.752 1491.6,1665.848 1490.16,1666.04 C1488.048,1666.376 1487.472,1665.896 1487.472,1663.784 L1487.472,1663.592 C1487.472,1661.528 1488,1661 1490.064,1660.664 C1491.264,1660.52 1492.56,1660.424 1493.952,1660.424 C1501.488,1660.424 1505.568,1662.728 1505.568,1668.68 Z M1499.328,1677.512 L1499.328,1675.208 L1494.384,1675.208 C1492.128,1675.208 1490.976,1676.072 1490.976,1677.848 C1491.168,1680.152 1492.704,1680.392 1495.056,1680.344 C1497.504,1680.392 1499.088,1680.104 1499.328,1677.512 Z M1509.072,1681.784 L1509.072,1681.256 C1509.072,1679 1509.648,1678.424 1511.712,1679 C1513.536,1679.528 1515.696,1679.768 1518.24,1679.768 C1521.072,1679.768 1521.936,1679.48 1521.936,1678.376 C1521.936,1677.56 1521.456,1677.176 1518.912,1676.168 L1514.448,1674.296 C1511.04,1672.904 1509.456,1671.176 1509.456,1667.48 C1509.456,1662.68 1512.288,1660.424 1519.248,1660.424 C1521.12,1660.424 1522.8,1660.616 1524.336,1661 C1526.448,1661.528 1526.976,1662.056 1526.976,1664.168 L1526.976,1664.648 C1526.976,1666.808 1526.4,1667.336 1524.288,1666.808 C1522.704,1666.424 1520.976,1666.232 1519.152,1666.232 C1516.416,1666.232 1515.6,1666.616 1515.6,1667.528 C1515.6,1668.248 1516.032,1668.536 1517.568,1669.16 L1522.56,1671.128 C1526.352,1672.616 1528.08,1674.488 1528.08,1678.328 C1528.08,1683.32 1525.056,1685.576 1517.76,1685.576 C1515.408,1685.576 1513.392,1685.384 1511.712,1684.952 C1509.6,1684.424 1509.072,1683.896 1509.072,1681.784 Z M1549.296,1670.12 L1549.296,1682.312 C1549.296,1684.472 1548.768,1685 1546.608,1685 L1545.696,1685 C1543.536,1685 1543.008,1684.472 1543.008,1682.312 L1543.008,1670.12 C1543.008,1663.832 1546.56,1660.424 1553.28,1660.424 C1556.592,1660.424 1558.992,1661.432 1560.384,1663.496 C1561.872,1661.432 1564.224,1660.424 1567.44,1660.424 C1574.4,1660.424 1577.616,1663.592 1577.616,1670.12 L1577.616,1682.312 C1577.616,1684.472 1577.088,1685 1574.928,1685 L1574.016,1685 C1571.856,1685 1571.328,1684.472 1571.328,1682.312 L1571.328,1670.12 C1571.328,1667.432 1570.56,1666.328 1567.44,1666.328 C1564.176,1666.328 1563.36,1667.432 1563.36,1670.12 L1563.36,1682.312 C1563.36,1684.472 1562.832,1685 1560.672,1685 L1559.952,1685 C1557.792,1685 1557.264,1684.472 1557.264,1682.312 L1557.264,1670.12 C1557.264,1667.432 1556.496,1666.328 1553.28,1666.328 C1550.16,1666.328 1549.296,1667.432 1549.296,1670.12 Z M1601.952,1668.68 L1601.952,1677.848 C1601.952,1683.032 1598.784,1685.576 1591.536,1685.576 C1584.288,1685.576 1581.12,1683.032 1581.12,1677.992 C1581.12,1673 1584.384,1670.504 1590.864,1670.504 L1595.712,1670.504 L1595.712,1668.68 C1595.712,1666.376 1594.032,1665.752 1590.72,1665.752 C1589.376,1665.752 1587.984,1665.848 1586.544,1666.04 C1584.432,1666.376 1583.856,1665.896 1583.856,1663.784 L1583.856,1663.592 C1583.856,1661.528 1584.384,1661 1586.448,1660.664 C1587.648,1660.52 1588.944,1660.424 1590.336,1660.424 C1597.872,1660.424 1601.952,1662.728 1601.952,1668.68 Z M1595.712,1677.512 L1595.712,1675.208 L1590.768,1675.208 C1588.512,1675.208 1587.36,1676.072 1587.36,1677.848 C1587.552,1680.152 1589.088,1680.392 1591.44,1680.344 C1593.888,1680.392 1595.472,1680.104 1595.712,1677.512 Z M1613.952,1663.352 L1616.064,1667.48 C1616.976,1669.256 1617.12,1669.496 1618.032,1669.496 C1618.944,1669.496 1619.088,1669.256 1620,1667.48 L1622.112,1663.352 C1623.072,1661.432 1623.84,1661 1626,1661 L1627.488,1661 C1629.648,1661 1629.936,1661.48 1628.832,1663.352 L1626.096,1668.2 C1625.472,1669.304 1625.04,1670.12 1624.608,1670.744 C1624.176,1671.416 1623.696,1671.944 1622.976,1672.232 C1623.504,1672.52 1623.888,1672.904 1624.272,1673.288 C1624.464,1673.48 1624.896,1674.2 1625.04,1674.44 C1625.232,1674.68 1625.856,1675.784 1626.096,1676.216 L1629.792,1682.648 C1630.896,1684.52 1630.608,1685 1628.448,1685 L1626.912,1685 C1624.752,1685 1623.984,1684.52 1622.976,1682.648 L1619.952,1676.936 C1618.992,1675.064 1618.848,1674.92 1618.032,1674.92 C1617.216,1674.92 1617.072,1675.064 1616.112,1676.936 L1613.088,1682.648 C1612.08,1684.52 1611.312,1685 1609.152,1685 L1607.616,1685 C1605.456,1685 1605.168,1684.52 1606.272,1682.648 L1609.968,1676.216 L1610.496,1675.304 C1611.024,1674.488 1611.024,1674.392 1611.36,1673.864 C1611.936,1672.952 1612.32,1672.664 1613.04,1672.232 C1612.464,1671.944 1612.128,1671.656 1611.696,1671.128 L1611.12,1670.216 L1610.784,1669.688 L1609.968,1668.2 L1607.232,1663.352 C1606.128,1661.48 1606.416,1661 1608.576,1661 L1610.064,1661 C1612.224,1661 1612.992,1661.432 1613.952,1663.352 Z M1649.376,1653.8 L1649.856,1653.8 C1652.112,1653.8 1652.64,1654.424 1652.64,1656.584 L1652.64,1663.688 C1652.64,1667.672 1652.4,1670.936 1651.872,1673.48 C1651.632,1674.776 1651.2,1675.16 1649.856,1675.16 L1649.376,1675.16 C1648.032,1675.16 1647.696,1674.824 1647.36,1673.48 C1646.832,1670.936 1646.592,1667.672 1646.592,1663.688 L1646.592,1656.584 C1646.592,1654.424 1647.12,1653.8 1649.376,1653.8 Z M1646.928,1684.472 C1645.44,1682.984 1645.44,1680.68 1646.928,1679.192 C1648.416,1677.704 1650.72,1677.704 1652.208,1679.192 C1653.696,1680.68 1653.696,1682.984 1652.208,1684.472 C1650.72,1685.96 1648.416,1685.96 1646.928,1684.472 Z" id="Pasmal,maispasmax!"></path>
        </g>
    </g>
</svg>
