<svg width="628" height="664" viewBox="0 0 628 664" fill="none" xmlns="http://www.w3.org/2000/svg">
  <path d="M549.569 193.372C561.909 243.307 523.911 304.611 512.636 361.571C501.722 418.673 517.281 472.06 496.561 500.215C475.841 528.37 418.481 531.151 361.207 547.412C303.934 563.672 247.232 593.241 211.71 575.576C176.549 558.054 162.929 493.441 141.055 443.374C119.181 393.308 89.4151 357.93 83.6865 320.781C77.5975 283.491 95.3101 243.973 121.226 204.788C147.018 165.917 180.416 126.78 230.046 103.503C279.676 80.2263 345.177 72.6665 409.447 88.2408C473.953 104.272 536.868 143.295 549.569 193.372Z" fill="#FFEACB"/>
  <path opacity="0.3" d="M495.84 200.682C547.167 263.122 595.793 317.082 596.179 371.428C596.179 425.773 548.711 480.119 497.383 524.058C446.056 567.612 391.641 600.759 330.665 606.926C269.69 613.093 202.925 592.279 177.841 548.726C152.756 504.787 169.736 438.107 161.632 362.948C153.528 287.789 119.952 204.536 145.037 142.096C170.122 79.6565 253.481 38.03 322.175 52.6763C390.869 67.3227 444.898 138.242 495.84 200.682Z" fill="#FFBC57"/>
  <g clip-path="url(#clip0_3157_83930)">
    <path d="M125.231 220.127C125.02 218.762 125.956 217.484 127.321 217.273C128.687 217.063 129.964 217.998 130.175 219.364C130.315 220.27 129.949 221.138 129.288 221.68C128.719 222.148 128.175 222.807 128.288 223.536L128.542 225.184" stroke="#B5853E" stroke-width="3" stroke-linecap="round"/>
    <path d="M129.571 230.761C130.39 230.635 130.952 229.868 130.825 229.049C130.699 228.23 129.932 227.668 129.113 227.795C128.294 227.921 127.732 228.688 127.859 229.507C127.985 230.326 128.752 230.888 129.571 230.761Z" fill="#B5853E"/>
    <path d="M119.983 213.464C121.75 212.043 123.902 211.053 126.304 210.682C133.586 209.557 140.4 214.548 141.524 221.829C142.647 229.11 137.655 235.924 130.373 237.049C123.09 238.173 116.276 233.183 115.153 225.902C114.782 223.5 115.077 221.15 115.9 219.038" stroke="#B5853E" stroke-width="3" stroke-linecap="round"/>
  </g>
  <g clip-path="url(#clip1_3157_83930)">
    <path d="M194.276 285.158C194.065 283.793 195.001 282.516 196.366 282.305C197.732 282.094 199.01 283.03 199.22 284.395C199.36 285.301 198.995 286.169 198.334 286.712C197.764 287.179 197.221 287.839 197.333 288.567L197.588 290.215" stroke="#B5853E" stroke-width="3" stroke-linecap="round"/>
    <path d="M198.618 295.792C199.437 295.666 199.998 294.899 199.872 294.08C199.746 293.261 198.979 292.699 198.16 292.826C197.34 292.952 196.779 293.719 196.905 294.538C197.032 295.357 197.798 295.918 198.618 295.792Z" fill="#B5853E"/>
    <path d="M189.028 278.494C190.794 277.073 192.947 276.084 195.349 275.713C202.631 274.589 209.446 279.58 210.57 286.861C211.694 294.142 206.702 300.956 199.42 302.079C192.137 303.203 185.323 298.212 184.199 290.931C183.828 288.53 184.122 286.18 184.945 284.067" stroke="#B5853E" stroke-width="3" stroke-linecap="round"/>
  </g>
  <g clip-path="url(#clip2_3157_83930)">
    <path d="M278.306 87.0757C278.722 85.7586 280.128 85.0283 281.445 85.4444C282.763 85.8605 283.493 87.2655 283.077 88.5826C282.8 89.4569 282.088 90.0727 281.255 90.2662C280.537 90.4328 279.757 90.7833 279.535 91.4858L279.032 93.0756" stroke="#B5853E" stroke-width="3" stroke-linecap="round"/>
    <path d="M277.481 98.5316C278.272 98.7812 279.115 98.343 279.365 97.5528C279.615 96.7625 279.177 95.9195 278.386 95.6698C277.596 95.4202 276.752 95.8584 276.503 96.6486C276.253 97.4389 276.691 98.2819 277.481 98.5316Z" fill="#B5853E"/>
    <path d="M276.557 78.7776C278.771 78.2865 281.139 78.3534 283.456 79.0853C290.483 81.3045 294.378 88.798 292.156 95.8224C289.935 102.847 282.438 106.742 275.412 104.523C268.385 102.303 264.49 94.8099 266.712 87.7856C267.445 85.469 268.751 83.4927 270.425 81.9639" stroke="#B5853E" stroke-width="3" stroke-linecap="round"/>
  </g>
  <g clip-path="url(#clip3_3157_83930)">
    <path d="M378.456 147.938C378.159 146.853 378.798 145.734 379.883 145.437C380.967 145.14 382.088 145.779 382.384 146.863C382.581 147.584 382.366 148.319 381.882 148.819C381.464 149.25 381.086 149.834 381.244 150.412L381.602 151.721" stroke="#B5853E" stroke-width="2.44214" stroke-linecap="round"/>
    <path d="M382.95 156.136C383.601 155.958 383.985 155.286 383.806 154.636C383.628 153.985 382.956 153.602 382.305 153.78C381.655 153.958 381.271 154.63 381.449 155.28C381.627 155.931 382.299 156.314 382.95 156.136Z" fill="#B5853E"/>
    <path d="M373.595 143.034C374.892 141.721 376.541 140.722 378.45 140.2C384.235 138.618 390.209 142.024 391.791 147.809C393.374 153.593 389.967 159.566 384.181 161.148C378.396 162.731 372.422 159.324 370.84 153.539C370.318 151.632 370.338 149.704 370.808 147.919" stroke="#B5853E" stroke-width="2.44214" stroke-linecap="round"/>
  </g>
  <g clip-path="url(#clip4_3157_83930)">
    <path d="M461.206 90.7529C461.495 89.6664 462.611 89.0206 463.698 89.3105C464.785 89.6003 465.431 90.7161 465.141 91.8026C464.948 92.5238 464.392 93.0509 463.721 93.2389C463.144 93.4009 462.523 93.7147 462.368 94.2942L462.018 95.6057" stroke="#B5853E" stroke-width="2.44214" stroke-linecap="round"/>
    <path d="M460.959 100.098C461.611 100.272 462.28 99.8849 462.454 99.233C462.628 98.5811 462.241 97.9117 461.589 97.7378C460.937 97.5638 460.267 97.9513 460.093 98.6032C459.919 99.2551 460.307 99.9245 460.959 100.098Z" fill="#B5853E"/>
    <path d="M459.476 84.0689C461.258 83.5879 463.186 83.555 465.098 84.0648C470.893 85.6107 474.338 91.5614 472.792 97.3559C471.246 103.15 465.294 106.595 459.498 105.049C453.703 103.503 450.258 97.5521 451.804 91.7576C452.314 89.8466 453.303 88.1911 454.608 86.8861" stroke="#B5853E" stroke-width="2.44214" stroke-linecap="round"/>
  </g>
  <g clip-path="url(#clip5_3157_83930)">
    <path d="M233.111 211.15C232.972 210.253 233.588 209.413 234.485 209.275C235.383 209.136 236.223 209.751 236.361 210.649C236.453 211.244 236.213 211.815 235.779 212.172C235.404 212.479 235.047 212.913 235.121 213.391L235.288 214.475" stroke="#B5853E" stroke-width="1.9722" stroke-linecap="round"/>
    <path d="M235.965 218.14C236.504 218.057 236.873 217.554 236.79 217.015C236.707 216.477 236.203 216.108 235.664 216.191C235.126 216.274 234.756 216.778 234.839 217.316C234.923 217.855 235.427 218.224 235.965 218.14Z" fill="#B5853E"/>
    <path d="M229.661 206.77C230.822 205.836 232.237 205.185 233.816 204.941C238.603 204.203 243.083 207.484 243.823 212.27C244.562 217.057 241.28 221.536 236.492 222.275C231.705 223.014 227.225 219.732 226.486 214.946C226.242 213.367 226.436 211.822 226.977 210.434" stroke="#B5853E" stroke-width="1.9722" stroke-linecap="round"/>
  </g>
  <defs>
    <clipPath id="clip0_3157_83930">
      <rect width="32.0202" height="32.0148" fill="white" transform="matrix(0.988283 -0.152633 0.152497 0.988304 110.075 210.489)"/>
    </clipPath>
    <clipPath id="clip1_3157_83930">
      <rect width="32.0202" height="32.0148" fill="white" transform="matrix(0.988298 -0.152539 0.152591 0.988289 179.119 275.519)"/>
    </clipPath>
    <clipPath id="clip2_3157_83930">
      <rect width="32.0198" height="32.0152" fill="white" transform="matrix(0.953564 0.301192 -0.301539 0.953454 268.995 71.7192)"/>
    </clipPath>
    <clipPath id="clip3_3157_83930">
      <rect width="26.0657" height="26.0617" fill="white" transform="matrix(0.964569 -0.26383 0.263916 0.964546 365.304 141.542)"/>
    </clipPath>
    <clipPath id="clip4_3157_83930">
      <rect width="26.0657" height="26.0617" fill="white" transform="matrix(0.966216 0.257735 -0.25782 0.966193 453.065 78.605)"/>
    </clipPath>
    <clipPath id="clip5_3157_83930">
      <rect width="21.0501" height="21.0465" fill="white" transform="matrix(0.988298 -0.152539 0.152591 0.988289 223.146 204.813)"/>
    </clipPath>
  </defs>
</svg>
