<svg width="1194" height="834" viewBox="0 0 1194 834" fill="none" xmlns="http://www.w3.org/2000/svg">
  <g clip-path="url(#clip0_364_11695)">
    <path
      d="M695.204 278.845C707.541 328.764 669.579 390.042 658.319 446.981C647.419 504.062 662.973 557.431 642.271 585.574C621.57 613.717 564.252 616.49 507.023 632.739C449.794 648.987 393.137 678.539 357.639 660.876C322.502 643.356 308.885 578.764 287.022 528.713C265.159 478.661 235.41 443.293 229.682 406.157C223.593 368.878 241.288 329.376 267.18 290.208C292.948 251.354 326.317 212.235 375.908 188.971C425.498 165.708 490.95 158.158 555.174 173.735C619.635 189.767 682.507 228.784 695.204 278.845Z"
      fill="#FFC5C5"/>
    <path opacity="0.3"
          d="M641.525 286.09C692.82 348.501 741.415 402.437 741.801 456.757C741.801 511.078 694.363 565.399 643.068 609.318C591.773 652.852 537.392 685.984 476.455 692.148C415.519 698.312 348.797 677.508 323.728 633.974C298.659 590.055 315.628 523.406 307.529 448.282C299.43 373.157 265.876 289.942 290.945 227.531C316.014 165.12 399.32 123.512 467.971 138.152C536.621 152.792 590.616 223.678 641.525 286.09Z"
          fill="#E73D3D"/>
    <path
      d="M448.389 238.947C447.631 238.889 446.969 239.458 446.912 240.217C446.854 240.975 447.423 241.637 448.181 241.694L459.171 242.526C459.929 242.584 460.592 242.015 460.65 241.256C460.707 240.498 460.139 239.836 459.38 239.779L448.389 238.947Z"
      fill="#E73D3D"/>
    <path
      d="M452.801 230.013C452.306 229.437 451.437 229.371 450.861 229.866L449.687 230.874L448.685 229.708C448.189 229.132 447.321 229.066 446.744 229.561C446.168 230.056 446.102 230.925 446.597 231.501L447.6 232.667L446.429 233.673C445.852 234.168 445.787 235.036 446.282 235.613C446.777 236.189 447.646 236.255 448.222 235.759L449.393 234.754L450.406 235.932C450.902 236.508 451.771 236.574 452.347 236.079C452.923 235.584 452.989 234.716 452.494 234.139L451.481 232.961L452.655 231.953C453.231 231.458 453.297 230.589 452.801 230.013Z"
      fill="#E73D3D"/>
    <path
      d="M460.478 230.594C461.054 230.099 461.923 230.164 462.418 230.74C462.914 231.317 462.848 232.185 462.272 232.68L461.098 233.688L462.111 234.867C462.606 235.443 462.54 236.311 461.964 236.807C461.388 237.302 460.519 237.236 460.024 236.66L459.011 235.481L457.839 236.487C457.263 236.982 456.394 236.916 455.899 236.34C455.404 235.764 455.47 234.896 456.046 234.401L457.217 233.395L456.215 232.229C455.719 231.652 455.785 230.784 456.361 230.289C456.938 229.794 457.807 229.86 458.302 230.436L459.304 231.602L460.478 230.594Z"
      fill="#E73D3D"/>
    <path fill-rule="evenodd" clip-rule="evenodd"
          d="M452.948 251.727C461.294 252.359 468.572 246.105 469.204 237.759C469.836 229.413 463.582 222.135 455.236 221.503C446.89 220.872 439.612 227.125 438.98 235.471C438.348 243.818 444.602 251.096 452.948 251.727ZM453.157 248.97C446.333 248.454 441.221 242.504 441.737 235.68C442.254 228.857 448.204 223.744 455.027 224.26C461.851 224.777 466.964 230.727 466.447 237.551C465.931 244.374 459.98 249.487 453.157 248.97Z"
          fill="#E73D3D"/>
    <path
      d="M375.105 312.973C374.518 313.108 374.151 313.693 374.286 314.28C374.42 314.867 375.006 315.234 375.593 315.1L384.099 313.15C384.686 313.016 385.054 312.431 384.919 311.843C384.785 311.256 384.199 310.889 383.612 311.024L375.105 312.973Z"
      fill="#E73D3D"/>
    <path
      d="M376.346 305.181C375.837 304.862 375.164 305.016 374.844 305.525L374.193 306.563L373.162 305.917C372.652 305.597 371.979 305.751 371.66 306.261C371.34 306.77 371.494 307.443 372.004 307.762L373.035 308.409L372.386 309.444C372.066 309.954 372.22 310.626 372.73 310.945C373.24 311.265 373.912 311.111 374.232 310.601L374.881 309.566L375.924 310.219C376.434 310.539 377.106 310.385 377.426 309.875C377.746 309.366 377.591 308.693 377.082 308.374L376.039 307.72L376.69 306.682C377.01 306.173 376.856 305.501 376.346 305.181Z"
      fill="#E73D3D"/>
    <path
      d="M382.288 303.82C382.608 303.311 383.28 303.157 383.79 303.476C384.3 303.796 384.454 304.468 384.134 304.977L383.483 306.015L384.525 306.669C385.035 306.988 385.189 307.661 384.869 308.17C384.55 308.68 383.877 308.834 383.367 308.514L382.325 307.861L381.675 308.896C381.356 309.406 380.683 309.56 380.173 309.24C379.664 308.921 379.51 308.249 379.829 307.739L380.479 306.704L379.447 306.057C378.938 305.738 378.784 305.065 379.103 304.556C379.423 304.046 380.095 303.892 380.605 304.212L381.637 304.858L382.288 303.82Z"
      fill="#E73D3D"/>
    <path fill-rule="evenodd" clip-rule="evenodd"
          d="M381.552 321.568C388.012 320.088 392.049 313.651 390.568 307.191C389.088 300.731 382.651 296.694 376.191 298.175C369.731 299.655 365.694 306.092 367.175 312.552C368.655 319.012 375.092 323.049 381.552 321.568ZM381.063 319.435C375.782 320.645 370.519 317.345 369.309 312.063C368.098 306.782 371.399 301.519 376.68 300.309C381.961 299.098 387.224 302.399 388.434 307.68C389.645 312.962 386.344 318.224 381.063 319.435Z"
          fill="#E73D3D"/>
    <path
      d="M526.31 291.205C525.732 291.377 525.403 291.984 525.575 292.561C525.746 293.139 526.354 293.468 526.931 293.296L535.296 290.812C535.874 290.64 536.204 290.032 536.032 289.455C535.861 288.877 535.253 288.548 534.676 288.72L526.31 291.205Z"
      fill="#E73D3D"/>
    <path
      d="M527.054 283.351C526.525 283.065 525.864 283.261 525.577 283.79L524.993 284.867L523.922 284.287C523.393 284.001 522.732 284.197 522.445 284.726C522.159 285.255 522.355 285.916 522.884 286.202L523.955 286.782L523.372 287.857C523.085 288.386 523.281 289.047 523.81 289.333C524.339 289.62 525.001 289.424 525.287 288.895L525.87 287.82L526.952 288.406C527.481 288.693 528.142 288.496 528.429 287.967C528.716 287.439 528.519 286.778 527.99 286.491L526.909 285.905L527.493 284.828C527.779 284.299 527.583 283.638 527.054 283.351Z"
      fill="#E73D3D"/>
    <path
      d="M532.897 281.615C533.184 281.086 533.845 280.89 534.374 281.177C534.903 281.463 535.099 282.124 534.812 282.653L534.228 283.73L535.31 284.316C535.839 284.603 536.036 285.264 535.749 285.793C535.462 286.322 534.801 286.518 534.272 286.231L533.19 285.645L532.607 286.72C532.321 287.249 531.659 287.445 531.13 287.159C530.601 286.872 530.405 286.211 530.692 285.682L531.274 284.608L530.204 284.028C529.675 283.741 529.479 283.08 529.765 282.551C530.052 282.022 530.713 281.826 531.242 282.112L532.313 282.692L532.897 281.615Z"
      fill="#E73D3D"/>
    <path fill-rule="evenodd" clip-rule="evenodd"
          d="M533.289 299.374C539.642 297.487 543.262 290.807 541.375 284.454C539.487 278.101 532.807 274.481 526.454 276.368C520.101 278.255 516.481 284.935 518.368 291.288C520.255 297.641 526.936 301.262 533.289 299.374ZM532.665 297.276C527.471 298.819 522.01 295.859 520.467 290.665C518.924 285.471 521.884 280.01 527.078 278.467C532.272 276.924 537.733 279.884 539.276 285.078C540.819 290.272 537.859 295.733 532.665 297.276Z"
          fill="#E73D3D"/>
    <path
      d="M602.826 191.572C602.227 191.639 601.796 192.179 601.862 192.778C601.929 193.376 602.469 193.808 603.068 193.741L611.74 192.773C612.339 192.707 612.771 192.167 612.704 191.568C612.637 190.969 612.098 190.538 611.499 190.605L602.826 191.572Z"
      fill="#E73D3D"/>
    <path
      d="M604.946 183.973C604.476 183.597 603.791 183.674 603.415 184.144L602.65 185.101L601.698 184.341C601.228 183.965 600.543 184.041 600.167 184.511C599.791 184.981 599.868 185.667 600.338 186.042L601.289 186.802L600.526 187.757C600.15 188.227 600.226 188.912 600.697 189.287C601.167 189.663 601.852 189.586 602.228 189.117L602.991 188.162L603.953 188.93C604.423 189.306 605.108 189.229 605.484 188.759C605.859 188.289 605.783 187.604 605.313 187.229L604.352 186.46L605.117 185.503C605.493 185.034 605.416 184.348 604.946 183.973Z"
      fill="#E73D3D"/>
    <path
      d="M611.004 183.297C611.38 182.827 612.065 182.751 612.535 183.126C613.005 183.502 613.082 184.187 612.706 184.657L611.941 185.614L612.902 186.382C613.372 186.757 613.449 187.443 613.073 187.913C612.697 188.382 612.012 188.459 611.542 188.083L610.58 187.315L609.817 188.27C609.441 188.74 608.756 188.816 608.286 188.441C607.816 188.065 607.739 187.38 608.115 186.91L608.878 185.955L607.927 185.195C607.457 184.82 607.381 184.135 607.756 183.665C608.132 183.195 608.818 183.118 609.288 183.494L610.239 184.254L611.004 183.297Z"
      fill="#E73D3D"/>
    <path fill-rule="evenodd" clip-rule="evenodd"
          d="M608.251 200.846C614.837 200.111 619.581 194.176 618.846 187.59C618.112 181.003 612.177 176.259 605.59 176.994C599.004 177.729 594.26 183.664 594.994 190.25C595.729 196.837 601.664 201.581 608.251 200.846ZM608.008 198.67C602.623 199.271 597.771 195.392 597.17 190.008C596.569 184.623 600.448 179.77 605.833 179.17C611.218 178.569 616.07 182.447 616.671 187.832C617.271 193.217 613.393 198.069 608.008 198.67Z"
          fill="#E73D3D"/>
    <path
      d="M267.252 324.297C266.578 324.497 266.194 325.205 266.394 325.879C266.594 326.553 267.303 326.937 267.977 326.737L277.736 323.838C278.41 323.638 278.795 322.929 278.595 322.255C278.394 321.581 277.686 321.197 277.012 321.397L267.252 324.297Z"
      fill="#E73D3D"/>
    <path
      d="M268.12 315.132C267.503 314.798 266.731 315.027 266.397 315.644L265.715 316.901L264.466 316.224C263.849 315.89 263.078 316.119 262.743 316.736C262.408 317.353 262.637 318.124 263.255 318.459L264.504 319.135L263.824 320.389C263.489 321.006 263.718 321.777 264.336 322.111C264.953 322.446 265.724 322.217 266.059 321.6L266.739 320.346L268.001 321.03C268.618 321.364 269.389 321.135 269.724 320.518C270.058 319.901 269.829 319.13 269.212 318.795L267.95 318.112L268.631 316.855C268.966 316.238 268.737 315.467 268.12 315.132Z"
      fill="#E73D3D"/>
    <path
      d="M274.937 313.107C275.272 312.49 276.043 312.261 276.66 312.595C277.277 312.93 277.506 313.701 277.172 314.318L276.49 315.574L277.753 316.258C278.37 316.592 278.599 317.364 278.264 317.981C277.93 318.598 277.158 318.827 276.541 318.493L275.279 317.809L274.599 319.062C274.265 319.679 273.493 319.909 272.876 319.574C272.259 319.24 272.03 318.469 272.364 317.852L273.044 316.598L271.795 315.922C271.178 315.587 270.949 314.816 271.283 314.199C271.618 313.582 272.389 313.353 273.007 313.687L274.256 314.364L274.937 313.107Z"
      fill="#E73D3D"/>
    <path fill-rule="evenodd" clip-rule="evenodd"
          d="M275.394 333.827C282.805 331.625 287.029 323.832 284.827 316.42C282.626 309.008 274.832 304.784 267.42 306.986C260.009 309.188 255.785 316.981 257.987 324.393C260.188 331.805 267.982 336.029 275.394 333.827ZM274.666 331.378C268.607 333.179 262.235 329.725 260.435 323.666C258.635 317.606 262.088 311.235 268.148 309.434C274.207 307.634 280.579 311.087 282.379 317.147C284.179 323.207 280.726 329.578 274.666 331.378Z"
          fill="#E73D3D"/>
    <path
      d="M337.252 388.297C336.578 388.497 336.194 389.205 336.394 389.879C336.594 390.553 337.303 390.937 337.977 390.737L347.736 387.838C348.41 387.638 348.795 386.929 348.595 386.255C348.394 385.581 347.686 385.197 347.012 385.397L337.252 388.297Z"
      fill="#E73D3D"/>
    <path
      d="M338.12 379.132C337.503 378.798 336.731 379.027 336.397 379.644L335.715 380.901L334.466 380.224C333.849 379.89 333.078 380.119 332.743 380.736C332.408 381.353 332.637 382.124 333.255 382.459L334.504 383.135L333.824 384.389C333.489 385.006 333.718 385.777 334.336 386.111C334.953 386.446 335.724 386.217 336.059 385.6L336.739 384.346L338.001 385.03C338.618 385.364 339.389 385.135 339.724 384.518C340.058 383.901 339.829 383.13 339.212 382.795L337.95 382.112L338.631 380.855C338.966 380.238 338.737 379.467 338.12 379.132Z"
      fill="#E73D3D"/>
    <path
      d="M344.937 377.107C345.272 376.49 346.043 376.261 346.66 376.595C347.277 376.93 347.506 377.701 347.172 378.318L346.49 379.574L347.753 380.258C348.37 380.592 348.599 381.364 348.264 381.981C347.93 382.598 347.158 382.827 346.541 382.493L345.279 381.809L344.599 383.062C344.265 383.679 343.493 383.909 342.876 383.574C342.259 383.24 342.03 382.469 342.364 381.852L343.044 380.598L341.795 379.922C341.178 379.587 340.949 378.816 341.283 378.199C341.618 377.582 342.389 377.353 343.007 377.687L344.256 378.364L344.937 377.107Z"
      fill="#E73D3D"/>
    <path fill-rule="evenodd" clip-rule="evenodd"
          d="M345.394 397.827C352.805 395.625 357.029 387.832 354.827 380.42C352.626 373.008 344.832 368.784 337.42 370.986C330.009 373.188 325.785 380.981 327.987 388.393C330.188 395.805 337.982 400.029 345.394 397.827ZM344.666 395.378C338.607 397.179 332.235 393.725 330.435 387.666C328.635 381.606 332.088 375.235 338.148 373.434C344.207 371.634 350.579 375.087 352.379 381.147C354.179 387.207 350.726 393.578 344.666 395.378Z"
          fill="#E73D3D"/>
  </g>
  <defs>
    <clipPath id="clip0_364_11695">
      <rect width="1194" height="834" fill="white"/>
    </clipPath>
  </defs>
</svg>
