<svg width="628" height="663" viewBox="0 0 628 663" fill="none" xmlns="http://www.w3.org/2000/svg">
  <g clip-path="url(#clip0_3157_83306)">
    <path opacity="0.8" d="M690.834 350.379C706.96 415.63 657.308 495.737 642.574 570.167C628.312 644.784 648.644 714.546 621.569 751.337C594.493 788.127 519.539 791.761 444.699 813.009C369.858 834.257 295.764 872.895 249.347 849.812C203.401 826.916 185.604 742.485 157.021 677.062C128.439 611.639 89.5423 565.41 82.0566 516.867C74.0999 468.138 97.2455 416.499 131.11 365.296C164.813 314.503 208.455 263.362 273.307 232.945C338.159 202.529 423.751 192.65 507.734 213.001C592.026 233.949 674.238 284.941 690.834 350.379Z" fill="#D5D4F3"/>
    <path opacity="0.1" d="M614.146 369.859C681.206 451.546 744.737 522.139 745.242 593.237C745.242 664.334 683.223 735.431 616.163 792.915C549.102 849.893 478.008 893.258 398.342 901.326C318.676 909.393 231.447 882.165 198.673 825.186C165.899 767.703 188.085 680.47 177.496 582.143C166.908 483.817 123.041 374.902 155.815 293.215C188.589 211.529 297.499 157.071 387.249 176.232C477 195.393 547.59 288.173 614.146 369.859Z" fill="#7673D9"/>
    <path fill-rule="evenodd" clip-rule="evenodd" d="M260.512 369.401C260.498 368.44 259.224 368.113 258.748 368.948L253.869 377.509L241.82 377.464C240.893 377.461 240.517 378.657 241.28 379.184L250.865 385.802L251.713 395.627C251.793 396.551 253.018 396.818 253.475 396.01L258.67 386.822L270.383 385.864C271.332 385.786 271.582 384.513 270.733 384.082L260.648 378.966L260.512 369.401Z" fill="#54529A"/>
    <path fill-rule="evenodd" clip-rule="evenodd" d="M597.725 174.312C597.712 173.351 596.438 173.024 595.962 173.859L591.083 182.42L579.034 182.375C578.106 182.372 577.731 183.568 578.494 184.095L588.079 190.713L588.927 200.537C589.007 201.461 590.232 201.727 590.688 200.92L595.882 191.734L607.597 190.776C608.545 190.698 608.796 189.425 607.947 188.994L597.862 183.878L597.725 174.312Z" fill="#FFA233"/>
    <path fill-rule="evenodd" clip-rule="evenodd" d="M330.094 186.628C330.075 185.346 328.377 184.91 327.743 186.023L321.238 197.436L305.175 197.376C303.939 197.372 303.438 198.967 304.456 199.67L317.228 208.489L318.36 221.595C318.466 222.827 320.1 223.182 320.708 222.106L327.634 209.858L343.259 208.579C344.524 208.476 344.857 206.778 343.726 206.203L330.275 199.38L330.094 186.628Z" fill="#54529A"/>
    <path fill-rule="evenodd" clip-rule="evenodd" d="M452.995 265.324C452.981 264.394 451.749 264.077 451.289 264.885L446.569 273.166L434.911 273.123C434.014 273.12 433.651 274.277 434.389 274.787L443.66 281.188L444.481 290.691C444.558 291.585 445.743 291.843 446.185 291.062L451.209 282.176L462.54 281.249C463.458 281.174 463.7 279.942 462.879 279.525L453.126 274.578L452.995 265.324Z" fill="#54529A"/>
    <path fill-rule="evenodd" clip-rule="evenodd" d="M297.897 263.323C297.884 262.393 296.652 262.076 296.191 262.884L291.472 271.165L279.813 271.122C278.916 271.119 278.553 272.276 279.291 272.786L288.562 279.187L289.383 288.69C289.46 289.584 290.645 289.842 291.087 289.061L296.111 280.175L307.443 279.248C308.36 279.173 308.602 277.941 307.781 277.525L298.029 272.577L297.897 263.323Z" fill="#54529A"/>
    <path fill-rule="evenodd" clip-rule="evenodd" d="M210.02 461.754C210.002 460.472 208.304 460.036 207.669 461.149L201.164 472.562L185.1 472.502C183.864 472.498 183.363 474.093 184.381 474.796L197.155 483.616L198.286 496.721C198.393 497.953 200.026 498.308 200.635 497.232L207.56 484.984L223.185 483.705C224.45 483.602 224.784 481.904 223.652 481.329L210.202 474.506L210.02 461.754Z" fill="#FFA233"/>
    <path fill-rule="evenodd" clip-rule="evenodd" d="M125.966 331.694C125.948 330.413 124.25 329.976 123.615 331.089L117.111 342.502L101.047 342.442C99.81 342.437 99.3093 344.033 100.327 344.735L113.103 353.557L114.234 366.661C114.341 367.893 115.974 368.249 116.583 367.172L123.508 354.924L139.132 353.646C140.396 353.542 140.73 351.844 139.598 351.27L126.148 344.446L125.966 331.694Z" fill="#FFA233"/>
    <path d="M379.818 346.824L377.681 345.841C378.358 344.227 377.786 341.265 376.828 339.323C376.618 338.898 376.396 338.473 376.174 338.048C375.286 336.361 374.375 334.625 374.142 332.586C373.85 330.049 374.644 327.354 376.559 324.368C377.085 323.555 377.646 322.766 378.218 321.977C379.187 320.629 380.098 319.367 380.799 317.959C382.89 313.759 382.726 308.418 380.379 304.364L382.388 303.113C385.144 307.872 385.343 314.147 382.878 319.076C382.096 320.654 381.079 322.074 380.087 323.433C379.549 324.186 379.001 324.938 378.498 325.715C376.898 328.204 376.232 330.352 376.454 332.294C376.63 333.86 377.4 335.329 378.218 336.871C378.452 337.32 378.685 337.757 378.907 338.206C380.087 340.597 380.869 344.324 379.818 346.812V346.824Z" fill="#6346CE"/>
    <path d="M468.104 407.517C468.104 420.931 457.651 431.795 444.745 431.795C434.771 431.795 426.268 425.313 422.916 416.172C421.923 413.477 421.386 410.564 421.386 407.517C421.386 394.104 431.839 383.24 444.745 383.24C454.241 383.24 462.405 389.127 466.049 397.576C467.369 400.611 468.104 403.973 468.104 407.517Z" fill="#6346CE"/>
    <path d="M340.797 407.517C340.797 420.931 330.343 431.795 317.437 431.795C307.463 431.795 298.96 425.313 295.608 416.172C294.615 413.477 294.078 410.564 294.078 407.517C294.078 394.104 304.531 383.24 317.437 383.24C326.933 383.24 335.097 389.127 338.741 397.576C340.061 400.611 340.797 403.973 340.797 407.517Z" fill="#6346CE"/>
    <path d="M454.261 441.017C448.305 464.083 420.557 470.043 380.826 470.043C341.096 470.043 315.099 461.655 307.216 441.017C299.333 420.367 310.206 381.35 326.79 364.221C339.683 350.891 360.085 345.016 378.082 345.016C392.996 345.016 420.709 350.564 435.214 363.614C453.806 380.318 460.241 417.951 454.273 441.017H454.261Z" fill="url(#paint0_linear_3157_83306)"/>
    <path d="M331.02 520.454C327.294 509.493 324.374 496.347 332.912 488.809C342.057 480.737 377.809 484.124 381.967 484.124C385.809 484.124 423.254 480.64 431.605 488.773C438.344 495.34 435.985 506.131 433.182 515.259L429.818 526.244C418.431 554.843 397.758 576.838 383.357 576.838C369.797 576.838 346.285 557.307 332.994 526.244L331.02 520.442V520.454Z" fill="url(#paint1_linear_3157_83306)"/>
    <path d="M380.04 396.933L378.872 396.909C378.872 396.581 379.479 363.94 378.463 345.332L379.631 345.259C380.647 363.916 380.051 396.605 380.04 396.933Z" fill="#6346CE"/>
    <path d="M381.196 417.338C357.124 417.338 333.8 412.81 305.757 403.706L306.107 402.541C360.873 420.312 397.606 420.579 457.265 403.609L457.569 404.775C428.195 413.126 404.345 417.326 381.184 417.326L381.196 417.338Z" fill="#6346CE"/>
    <path d="M380.413 434.489C387.456 434.659 394.347 436.686 401.378 437.16C411.504 437.84 421.817 435.157 430.46 429.597C433.181 427.85 435.786 425.774 437.596 423.031C441.521 417.095 441.1 409.144 439.477 402.128C437.865 395.148 434.758 387.877 428.65 384.624C424.048 382.184 418.605 382.475 413.478 383.01C403.048 384.114 392.606 385.996 382.165 386.396C381.219 386.433 377.726 386.445 376.921 386.408C366.339 386.044 355.757 384.126 345.175 383.01C340.048 382.463 334.605 382.172 330.003 384.624C323.895 387.877 320.788 395.148 319.176 402.128C317.553 409.144 317.144 417.095 321.057 423.031C322.867 425.774 325.472 427.85 328.193 429.597C336.848 435.157 347.149 437.84 357.275 437.16C364.307 436.686 371.198 434.659 378.24 434.489H380.389H380.413Z" fill="#432977"/>
    <path d="M419.365 383.859C422.974 383.859 425.753 384.441 428.124 385.704C432.948 388.265 436.382 393.885 438.344 402.407C440.306 410.928 439.734 417.641 436.639 422.326C435.179 424.523 433.03 426.502 429.853 428.541C422.226 433.445 413.443 436.03 404.45 436.03C403.445 436.03 402.441 435.994 401.448 435.933C398.294 435.727 395.094 435.181 391.999 434.659C388.238 434.015 384.349 433.36 380.413 433.263H378.229C374.316 433.36 370.427 434.015 366.666 434.659C363.571 435.181 360.359 435.727 357.217 435.933C356.224 435.994 355.208 436.03 354.215 436.03C345.222 436.03 336.439 433.445 328.812 428.541C325.635 426.502 323.486 424.523 322.026 422.326C318.931 417.628 318.347 410.928 320.321 402.407C322.283 393.885 325.729 388.265 330.541 385.704C332.912 384.441 335.703 383.859 339.301 383.859C341.309 383.859 343.342 384.041 345.059 384.223C348.644 384.599 352.312 385.085 355.839 385.546C362.718 386.456 369.843 387.391 376.874 387.634C377.213 387.634 378.019 387.646 378.918 387.646C380.121 387.646 381.604 387.646 382.2 387.61C389.091 387.343 396.064 386.432 402.803 385.546C406.342 385.085 409.997 384.599 413.595 384.223C415.312 384.041 417.344 383.859 419.353 383.859M419.365 382.633C417.402 382.633 415.428 382.803 413.49 383.009C403.06 384.114 392.618 385.995 382.177 386.396C381.628 386.42 380.191 386.432 378.941 386.432C378.065 386.432 377.271 386.432 376.944 386.42C366.362 386.056 355.781 384.138 345.199 383.021C343.26 382.815 341.286 382.645 339.324 382.645C336.089 382.645 332.888 383.106 330.027 384.624C323.918 387.877 320.812 395.148 319.2 402.127C317.576 409.143 317.168 417.094 321.08 423.03C322.891 425.773 325.495 427.849 328.217 429.597C335.995 434.598 345.105 437.269 354.227 437.269C355.255 437.269 356.283 437.232 357.299 437.172C364.33 436.698 371.221 434.671 378.264 434.501H380.413C387.456 434.671 394.347 436.698 401.378 437.172C402.406 437.244 403.433 437.269 404.45 437.269C413.571 437.269 422.682 434.598 430.46 429.597C433.182 427.849 435.786 425.773 437.596 423.03C441.521 417.094 441.1 409.143 439.477 402.127C437.865 395.148 434.758 387.877 428.65 384.624C425.788 383.106 422.6 382.645 419.353 382.645L419.365 382.633Z" fill="#6346CE"/>
    <path d="M419.622 411.159C419.622 418.855 413.619 425.094 406.202 425.094C400.479 425.094 395.585 421.379 393.658 416.136C393.086 414.594 392.782 412.919 392.782 411.159C392.782 403.463 398.786 397.224 406.202 397.224C411.657 397.224 416.352 400.598 418.442 405.454C419.202 407.202 419.622 409.119 419.622 411.159Z" fill="#514AAB"/>
    <path d="M406.202 397.223C411.656 397.223 416.352 400.598 418.442 405.453C419.202 407.201 419.622 409.119 419.622 411.159C419.622 418.854 413.619 425.094 406.202 425.094C400.479 425.094 395.585 421.379 393.658 416.135C393.086 414.594 392.782 412.919 392.782 411.159C392.782 403.463 398.786 397.223 406.202 397.223ZM406.202 394.771C397.512 394.771 390.435 402.127 390.435 411.159C390.435 413.174 390.785 415.14 391.474 417.009C393.787 423.309 399.708 427.546 406.202 427.546C414.892 427.546 421.97 420.19 421.97 411.159C421.97 408.816 421.502 406.558 420.58 404.446C418.045 398.571 412.404 394.771 406.202 394.771Z" fill="#E6E6FF"/>
    <path d="M365.896 411.159C365.896 418.855 359.893 425.094 352.477 425.094C346.754 425.094 341.86 421.367 339.933 416.136C339.36 414.594 339.057 412.919 339.057 411.159C339.057 403.463 345.06 397.224 352.477 397.224C357.931 397.224 362.626 400.598 364.717 405.454C365.476 407.202 365.896 409.119 365.896 411.159Z" fill="#514AAB"/>
    <path d="M352.477 397.223C357.931 397.223 362.626 400.598 364.717 405.453C365.476 407.201 365.896 409.119 365.896 411.159C365.896 418.854 359.893 425.094 352.477 425.094C346.753 425.094 341.86 421.367 339.933 416.135C339.36 414.594 339.057 412.919 339.057 411.159C339.057 403.463 345.06 397.223 352.477 397.223ZM352.477 394.771C343.787 394.771 336.709 402.127 336.709 411.159C336.709 413.161 337.059 415.128 337.748 417.009C340.061 423.309 345.983 427.546 352.488 427.546C361.178 427.546 368.256 420.19 368.256 411.159C368.256 408.816 367.789 406.558 366.866 404.446C364.331 398.571 358.69 394.771 352.488 394.771H352.477Z" fill="#E6E6FF"/>
    <path d="M382.937 521.353C382.634 521.353 382.377 521.11 382.353 520.782C381.36 505.828 382.213 492.463 382.622 486.042C382.645 485.702 382.926 485.435 383.241 485.471C383.568 485.495 383.802 485.787 383.79 486.114C383.381 492.511 382.528 505.815 383.521 520.685C383.545 521.025 383.299 521.304 382.984 521.329C382.972 521.329 382.961 521.329 382.937 521.329V521.353Z" fill="#6346CE"/>
    <path d="M374.878 379.696L372.542 382.318C372.822 382.5 373.149 382.622 373.5 382.622C374.469 382.622 375.252 381.808 375.252 380.801C375.252 380.534 375.193 380.279 375.1 380.06C375.041 379.927 374.96 379.806 374.878 379.696Z" fill="#6346CE"/>
    <path d="M372.11 381.918L374.446 379.284C374.177 379.101 373.85 378.992 373.5 378.992C372.531 378.992 371.748 379.805 371.748 380.813C371.748 381.044 371.795 381.262 371.865 381.456C371.923 381.626 372.017 381.772 372.11 381.918Z" fill="#6346CE"/>
    <path d="M385.764 380.886C385.764 381.092 385.799 381.286 385.869 381.468C386.126 382.148 386.768 382.634 387.527 382.634C388.38 382.634 389.092 382.015 389.256 381.189L385.764 380.886Z" fill="#6346CE"/>
    <path d="M389.268 380.57C389.244 380.388 389.209 380.218 389.139 380.06C388.859 379.429 388.24 378.979 387.528 378.979C386.733 378.979 386.068 379.526 385.846 380.266L389.28 380.57H389.268Z" fill="#6346CE"/>
    <path d="M392.024 446.398C390.949 453.135 384.922 457.662 378.557 456.509C373.64 455.623 369.972 451.593 369.05 446.713C368.781 445.269 368.746 443.751 368.991 442.222C369.26 440.535 374.936 442.598 380.507 442.489C386.079 442.38 391.533 440.086 391.813 441.227C392.222 442.865 392.316 444.625 392.024 446.398Z" fill="#432977"/>
    <path d="M353.645 412.069C356.87 412.069 359.484 410.031 359.484 407.517C359.484 405.003 356.87 402.965 353.645 402.965C350.419 402.965 347.805 405.003 347.805 407.517C347.805 410.031 350.419 412.069 353.645 412.069Z" fill="#E6E6FF"/>
    <path d="M406.202 412.069C409.427 412.069 412.042 410.031 412.042 407.517C412.042 405.003 409.427 402.965 406.202 402.965C402.977 402.965 400.362 405.003 400.362 407.517C400.362 410.031 402.977 412.069 406.202 412.069Z" fill="#E6E6FF"/>
    <path d="M381.219 295.903C382.738 296.097 384.256 296.486 385.576 297.287C386.896 298.088 388.624 299.739 388.683 301.487C388.776 304.619 384.209 304.91 382.142 305.298C380.577 305.59 378.708 305.808 377.295 304.886C375.975 304.024 374.936 302.604 374.714 300.965C374.177 296.983 378.101 295.502 381.208 295.891L381.219 295.903Z" fill="#FFA233"/>
    <path d="M408.574 559.954C408.574 559.954 408.539 559.954 408.516 559.954C408.2 559.929 407.955 559.626 407.99 559.298C409.275 544.416 410.011 521.377 406.799 518.889C406.565 518.707 406.343 518.682 406.04 518.804C388.742 522.724 363.806 520.2 356.775 518.537C356.214 518.403 355.922 518.585 355.747 518.731C353.949 520.272 354.17 527.968 354.462 537.716C354.626 543.336 354.824 549.721 354.696 556.518C354.696 556.858 354.416 557.15 354.1 557.113C353.773 557.113 353.516 556.834 353.528 556.494C353.657 549.721 353.47 543.372 353.294 537.752C352.967 526.888 352.757 519.714 355 517.796C355.56 517.311 356.249 517.165 357.032 517.347C363.981 518.998 388.672 521.498 405.701 517.651C406.285 517.396 406.939 517.481 407.5 517.918C412.265 521.62 409.485 555.559 409.158 559.407C409.135 559.723 408.878 559.966 408.574 559.966V559.954Z" fill="#6346CE"/>
    <path d="M405.618 527.434C405.595 527.082 405.525 526.754 405.385 526.451C404.929 525.395 403.89 524.654 402.698 524.654C401.32 524.654 400.176 525.625 399.849 526.936L405.618 527.434Z" fill="#6346CE"/>
    <path d="M399.778 528.053C399.813 528.296 399.86 528.538 399.942 528.769C400.362 529.91 401.437 530.723 402.698 530.723C404.03 530.723 405.151 529.801 405.513 528.55L399.778 528.053Z" fill="#6346CE"/>
    <path d="M359.157 528.928L363.911 525.614C363.385 525.031 362.65 524.667 361.82 524.667C360.209 524.667 358.9 526.027 358.9 527.702C358.9 528.078 358.97 528.442 359.087 528.782C359.111 528.831 359.134 528.879 359.157 528.928Z" fill="#6346CE"/>
    <path d="M359.777 529.85C360.303 530.396 361.027 530.724 361.821 530.724C363.433 530.724 364.741 529.364 364.741 527.689C364.741 527.277 364.659 526.9 364.519 526.536L359.777 529.838V529.85Z" fill="#6346CE"/>
    <path d="M275.752 446.968C287.443 446.677 294.93 458.694 299.812 477.302C308.362 505.828 321.735 503.935 313.886 509.907C306.049 515.879 279.688 502.199 271.232 478.019C264.563 459.568 266.256 448.085 275.74 446.968H275.752Z" fill="url(#paint2_linear_3157_83306)"/>
    <path d="M282.457 453.062C286.299 453.426 289.324 457.322 291.952 463.549C295.479 472.459 295.012 475.215 293.622 476.95C292.244 478.674 283.823 481.539 279.233 469.449C274.643 457.347 278.439 452.697 282.457 453.074V453.062Z" fill="#6346CE"/>
    <path d="M451.309 500.487C449.16 529.522 442.456 534.038 440.004 547.488C437.551 560.937 444.185 572.772 454.264 569.689C469.016 565.671 471.469 534.73 466.061 514.398C460.653 494.066 452.653 490.048 451.309 500.487Z" fill="url(#paint3_linear_3157_83306)"/>
    <path d="M448.109 568.511C448.003 568.511 447.898 568.475 447.793 568.414C447.525 568.232 447.443 567.856 447.618 567.577C449.907 563.826 452.196 556.409 452.477 552.974C452.5 552.646 452.792 552.391 453.107 552.416C453.434 552.44 453.668 552.731 453.645 553.071C453.364 556.664 451.052 564.227 448.611 568.232C448.506 568.414 448.307 568.511 448.12 568.511H448.109Z" fill="#6346CE"/>
    <path d="M455.83 568.584C455.725 568.584 455.608 568.548 455.515 568.487C455.246 568.305 455.164 567.929 455.34 567.65C457.197 564.688 458.481 560.087 458.773 555.353C458.797 555.013 459.042 554.746 459.392 554.783C459.72 554.807 459.965 555.086 459.941 555.426C459.638 560.366 458.283 565.185 456.321 568.317C456.204 568.499 456.017 568.596 455.83 568.596V568.584Z" fill="#6346CE"/>
    <path d="M341.38 387.246C333.625 388.533 328.871 391.531 326.442 399.421C325.577 401.703 324.666 403.912 323.919 406.292C323.697 403.779 324.152 401.266 324.701 398.863C325.25 396.471 325.986 393.922 327.61 391.75C330.821 387.513 336.521 386.105 341.38 387.234V387.246Z" fill="#ACACFC"/>
    <path d="M384.383 618.208C394.078 618.208 401.938 615.483 401.938 612.121C401.938 608.759 394.078 606.034 384.383 606.034C374.688 606.034 366.829 608.759 366.829 612.121C366.829 615.483 374.688 618.208 384.383 618.208Z" fill="#C7C7FF"/>
    <path d="M487.473 471.005L480.007 471.005L487.473 459.005L487.473 471.005Z" fill="white"/>
    <path d="M487.474 431.005C487.474 422.168 494.637 415.005 503.474 415.005H591.474C600.31 415.005 607.474 422.168 607.474 431.005V455.005C607.474 463.841 600.31 471.005 591.474 471.005H487.474V431.005Z" fill="white"/>
    <path d="M519.154 451.245C518.45 451.245 517.746 451.189 517.042 451.077C516.338 450.981 515.674 450.829 515.05 450.621C514.426 450.397 513.866 450.125 513.37 449.805C513.082 449.613 512.882 449.381 512.77 449.109C512.658 448.837 512.618 448.573 512.65 448.317C512.698 448.045 512.802 447.813 512.962 447.621C513.138 447.413 513.354 447.285 513.61 447.237C513.866 447.189 514.146 447.261 514.45 447.453C515.154 447.869 515.898 448.173 516.682 448.365C517.466 448.557 518.29 448.653 519.154 448.653C520.418 448.653 521.338 448.445 521.914 448.029C522.49 447.597 522.778 447.045 522.778 446.373C522.778 445.813 522.57 445.373 522.154 445.053C521.754 444.733 521.058 444.469 520.066 444.261L517.426 443.709C515.906 443.389 514.77 442.853 514.018 442.101C513.282 441.333 512.914 440.325 512.914 439.077C512.914 438.293 513.074 437.581 513.394 436.941C513.714 436.301 514.162 435.749 514.738 435.285C515.33 434.821 516.026 434.469 516.826 434.229C517.642 433.973 518.538 433.845 519.514 433.845C520.474 433.845 521.386 433.965 522.25 434.205C523.114 434.445 523.89 434.797 524.578 435.261C524.834 435.437 525.002 435.653 525.082 435.909C525.178 436.165 525.202 436.421 525.154 436.677C525.106 436.917 524.994 437.125 524.818 437.301C524.642 437.477 524.418 437.581 524.146 437.613C523.89 437.645 523.594 437.565 523.258 437.373C522.666 437.037 522.066 436.797 521.458 436.653C520.85 436.509 520.194 436.437 519.49 436.437C518.754 436.437 518.122 436.541 517.594 436.749C517.066 436.957 516.658 437.253 516.37 437.637C516.098 438.005 515.962 438.445 515.962 438.957C515.962 439.533 516.154 439.997 516.538 440.349C516.922 440.685 517.578 440.949 518.506 441.141L521.122 441.693C522.706 442.029 523.882 442.557 524.65 443.277C525.434 443.997 525.826 444.957 525.826 446.157C525.826 446.925 525.666 447.621 525.346 448.245C525.042 448.869 524.594 449.405 524.002 449.853C523.426 450.301 522.73 450.645 521.914 450.885C521.098 451.125 520.178 451.245 519.154 451.245ZM532.038 451.245C531.19 451.245 530.43 451.085 529.758 450.765C529.102 450.429 528.582 449.981 528.198 449.421C527.83 448.861 527.646 448.229 527.646 447.525C527.646 446.661 527.87 445.981 528.318 445.485C528.766 444.973 529.494 444.605 530.502 444.381C531.51 444.157 532.862 444.045 534.558 444.045H535.758V445.773H534.582C533.59 445.773 532.798 445.821 532.206 445.917C531.614 446.013 531.19 446.181 530.934 446.421C530.694 446.645 530.574 446.965 530.574 447.381C530.574 447.909 530.758 448.341 531.126 448.677C531.494 449.013 532.006 449.181 532.662 449.181C533.19 449.181 533.654 449.061 534.054 448.821C534.47 448.565 534.798 448.221 535.038 447.789C535.278 447.357 535.398 446.861 535.398 446.301V443.541C535.398 442.741 535.222 442.165 534.87 441.813C534.518 441.461 533.926 441.285 533.094 441.285C532.63 441.285 532.126 441.341 531.582 441.453C531.054 441.565 530.494 441.757 529.902 442.029C529.598 442.173 529.326 442.213 529.086 442.149C528.862 442.085 528.686 441.957 528.558 441.765C528.43 441.557 528.366 441.333 528.366 441.093C528.366 440.853 528.43 440.621 528.558 440.397C528.686 440.157 528.902 439.981 529.206 439.869C529.942 439.565 530.646 439.349 531.318 439.221C532.006 439.093 532.63 439.029 533.19 439.029C534.342 439.029 535.286 439.205 536.022 439.557C536.774 439.909 537.334 440.445 537.702 441.165C538.07 441.869 538.254 442.781 538.254 443.901V449.661C538.254 450.157 538.134 450.541 537.894 450.813C537.654 451.069 537.31 451.197 536.862 451.197C536.414 451.197 536.062 451.069 535.806 450.813C535.566 450.541 535.446 450.157 535.446 449.661V448.509H535.638C535.526 449.069 535.302 449.557 534.966 449.973C534.646 450.373 534.238 450.685 533.742 450.909C533.246 451.133 532.678 451.245 532.038 451.245ZM545.307 451.245C543.979 451.245 542.979 450.869 542.307 450.117C541.635 449.349 541.299 448.229 541.299 446.757V435.405C541.299 434.909 541.427 434.533 541.683 434.277C541.939 434.021 542.307 433.893 542.787 433.893C543.267 433.893 543.635 434.021 543.891 434.277C544.163 434.533 544.299 434.909 544.299 435.405V446.613C544.299 447.349 544.451 447.893 544.755 448.245C545.075 448.597 545.523 448.773 546.099 448.773C546.227 448.773 546.347 448.773 546.459 448.773C546.571 448.757 546.683 448.741 546.795 448.725C547.019 448.693 547.171 448.757 547.251 448.917C547.331 449.061 547.371 449.365 547.371 449.829C547.371 450.229 547.291 450.541 547.131 450.765C546.971 450.989 546.707 451.125 546.339 451.173C546.179 451.189 546.011 451.205 545.835 451.221C545.659 451.237 545.483 451.245 545.307 451.245ZM553.211 451.245C552.235 451.245 551.427 451.069 550.787 450.717C550.147 450.349 549.667 449.805 549.347 449.085C549.043 448.365 548.891 447.469 548.891 446.397V440.589C548.891 440.077 549.019 439.701 549.275 439.461C549.531 439.205 549.899 439.077 550.379 439.077C550.859 439.077 551.227 439.205 551.483 439.461C551.755 439.701 551.891 440.077 551.891 440.589V446.445C551.891 447.277 552.059 447.893 552.395 448.293C552.731 448.693 553.267 448.893 554.003 448.893C554.803 448.893 555.459 448.621 555.971 448.077C556.483 447.517 556.739 446.781 556.739 445.869V440.589C556.739 440.077 556.867 439.701 557.123 439.461C557.379 439.205 557.747 439.077 558.227 439.077C558.707 439.077 559.075 439.205 559.331 439.461C559.603 439.701 559.739 440.077 559.739 440.589V449.661C559.739 450.685 559.251 451.197 558.275 451.197C557.811 451.197 557.451 451.069 557.195 450.813C556.939 450.541 556.811 450.157 556.811 449.661V447.837L557.147 448.557C556.811 449.421 556.299 450.085 555.611 450.549C554.939 451.013 554.139 451.245 553.211 451.245ZM568.238 451.245C567.198 451.245 566.326 451.069 565.622 450.717C564.934 450.365 564.422 449.853 564.086 449.181C563.75 448.493 563.582 447.645 563.582 446.637V441.525H562.334C561.95 441.525 561.654 441.429 561.446 441.237C561.238 441.029 561.134 440.749 561.134 440.397C561.134 440.029 561.238 439.749 561.446 439.557C561.654 439.365 561.95 439.269 562.334 439.269H563.582V437.085C563.582 436.589 563.71 436.213 563.966 435.957C564.238 435.701 564.614 435.573 565.094 435.573C565.574 435.573 565.942 435.701 566.198 435.957C566.454 436.213 566.582 436.589 566.582 437.085V439.269H569.126C569.51 439.269 569.806 439.365 570.014 439.557C570.222 439.749 570.326 440.029 570.326 440.397C570.326 440.749 570.222 441.029 570.014 441.237C569.806 441.429 569.51 441.525 569.126 441.525H566.582V446.469C566.582 447.237 566.75 447.813 567.086 448.197C567.422 448.581 567.966 448.773 568.718 448.773C568.99 448.773 569.23 448.749 569.438 448.701C569.646 448.653 569.83 448.621 569.99 448.605C570.182 448.589 570.342 448.653 570.47 448.797C570.598 448.925 570.662 449.197 570.662 449.613C570.662 449.933 570.606 450.221 570.494 450.477C570.398 450.717 570.214 450.885 569.942 450.981C569.734 451.045 569.462 451.101 569.126 451.149C568.79 451.213 568.494 451.245 568.238 451.245ZM580.028 446.133C579.724 446.133 579.484 446.037 579.308 445.845C579.148 445.653 579.052 445.381 579.02 445.029L578.3 435.861C578.252 435.269 578.38 434.797 578.684 434.445C578.988 434.077 579.436 433.893 580.028 433.893C580.604 433.893 581.036 434.077 581.324 434.445C581.628 434.797 581.756 435.269 581.708 435.861L580.988 445.029C580.972 445.381 580.876 445.653 580.7 445.845C580.54 446.037 580.316 446.133 580.028 446.133ZM580.028 451.125C579.484 451.125 579.044 450.957 578.708 450.621C578.388 450.285 578.228 449.853 578.228 449.325C578.228 448.813 578.388 448.397 578.708 448.077C579.044 447.741 579.484 447.573 580.028 447.573C580.588 447.573 581.02 447.741 581.324 448.077C581.644 448.397 581.804 448.813 581.804 449.325C581.804 449.853 581.644 450.285 581.324 450.621C581.02 450.957 580.588 451.125 580.028 451.125Z" fill="#2A2D3A"/>
  </g>
  <defs>
    <linearGradient id="paint0_linear_3157_83306" x1="380.521" y1="470.059" x2="380.521" y2="345.017" gradientUnits="userSpaceOnUse">
      <stop stop-color="#6346CE"/>
      <stop offset="0.11" stop-color="#6954DD"/>
      <stop offset="0.26" stop-color="#6E5FE9"/>
      <stop offset="0.47" stop-color="#8176F9"/>
      <stop offset="1" stop-color="#887FF8"/>
    </linearGradient>
    <linearGradient id="paint1_linear_3157_83306" x1="381.675" y1="576.85" x2="381.675" y2="483.383" gradientUnits="userSpaceOnUse">
      <stop stop-color="#6346CE"/>
      <stop offset="0.11" stop-color="#6954DD"/>
      <stop offset="0.26" stop-color="#6E5FE9"/>
      <stop offset="0.47" stop-color="#8176F9"/>
      <stop offset="1" stop-color="#887FF8"/>
    </linearGradient>
    <linearGradient id="paint2_linear_3157_83306" x1="291.738" y1="511.31" x2="291.738" y2="446.964" gradientUnits="userSpaceOnUse">
      <stop stop-color="#6346CE"/>
      <stop offset="0.11" stop-color="#6954DD"/>
      <stop offset="0.26" stop-color="#6E5FE9"/>
      <stop offset="0.47" stop-color="#8176F9"/>
      <stop offset="1" stop-color="#887FF8"/>
    </linearGradient>
    <linearGradient id="paint3_linear_3157_83306" x1="454.094" y1="570.193" x2="454.094" y2="494.919" gradientUnits="userSpaceOnUse">
      <stop stop-color="#6346CE"/>
      <stop offset="0.11" stop-color="#6954DD"/>
      <stop offset="0.26" stop-color="#6E5FE9"/>
      <stop offset="0.47" stop-color="#8176F9"/>
      <stop offset="1" stop-color="#887FF8"/>
    </linearGradient>
    <clipPath id="clip0_3157_83306">
      <rect width="628" height="663" fill="white" transform="translate(0.397461 0.303711)"/>
    </clipPath>
  </defs>
</svg>
