<svg width="628" height="664" viewBox="0 0 628 664" fill="none" xmlns="http://www.w3.org/2000/svg">
  <path
    d="M549.569 193.372C561.909 243.307 523.911 304.611 512.636 361.571C501.722 418.673 517.281 472.06 496.561 500.215C475.841 528.37 418.481 531.151 361.207 547.412C303.934 563.672 247.232 593.241 211.71 575.576C176.549 558.054 162.929 493.441 141.055 443.374C119.181 393.308 89.4151 357.93 83.6865 320.781C77.5975 283.491 95.3101 243.973 121.226 204.788C147.018 165.917 180.416 126.78 230.046 103.503C279.676 80.2263 345.177 72.6665 409.447 88.2408C473.953 104.272 536.868 143.295 549.569 193.372Z"
    fill="#F5C8C8"/>
  <path opacity="0.3"
        d="M495.84 200.682C547.167 263.122 595.793 317.082 596.179 371.428C596.179 425.773 548.711 480.119 497.383 524.058C446.056 567.612 391.641 600.759 330.665 606.926C269.69 613.093 202.925 592.279 177.841 548.726C152.756 504.787 169.736 438.107 161.632 362.948C153.528 287.789 119.952 204.536 145.037 142.096C170.122 79.6565 253.481 38.03 322.175 52.6763C390.869 67.3227 444.898 138.242 495.84 200.682Z"
        fill="#DE4F4F"/>
  <path
    d="M302.517 142.447C301.759 142.389 301.097 142.958 301.04 143.717C300.982 144.475 301.551 145.137 302.309 145.194L313.299 146.026C314.058 146.084 314.72 145.515 314.778 144.756C314.835 143.998 314.267 143.336 313.508 143.279L302.517 142.447Z"
    fill="#DE4F4F"/>
  <path
    d="M306.929 133.513C306.434 132.937 305.565 132.872 304.989 133.367L303.815 134.375L302.813 133.209C302.317 132.633 301.449 132.567 300.872 133.062C300.296 133.557 300.23 134.425 300.725 135.002L301.728 136.168L300.557 137.174C299.98 137.669 299.915 138.537 300.41 139.113C300.905 139.689 301.774 139.755 302.35 139.26L303.521 138.254L304.534 139.433C305.03 140.009 305.898 140.075 306.475 139.58C307.051 139.084 307.117 138.216 306.622 137.64L305.609 136.461L306.782 135.453C307.359 134.958 307.425 134.09 306.929 133.513Z"
    fill="#DE4F4F"/>
  <path
    d="M314.606 134.094C315.183 133.599 316.051 133.665 316.546 134.241C317.042 134.817 316.976 135.686 316.4 136.181L315.226 137.189L316.239 138.367C316.734 138.944 316.668 139.812 316.092 140.307C315.516 140.802 314.647 140.736 314.152 140.16L313.139 138.982L311.967 139.988C311.391 140.483 310.522 140.417 310.027 139.841C309.532 139.264 309.598 138.396 310.174 137.901L311.345 136.895L310.343 135.729C309.847 135.153 309.913 134.285 310.489 133.789C311.066 133.294 311.935 133.36 312.43 133.936L313.432 135.102L314.606 134.094Z"
    fill="#DE4F4F"/>
  <path fill-rule="evenodd" clip-rule="evenodd"
        d="M307.076 155.227C315.422 155.859 322.7 149.605 323.332 141.259C323.964 132.913 317.71 125.635 309.364 125.003C301.018 124.372 293.74 130.625 293.108 138.971C292.476 147.318 298.73 154.596 307.076 155.227ZM307.285 152.47C300.461 151.954 295.349 146.004 295.865 139.18C296.382 132.357 302.332 127.244 309.155 127.76C315.979 128.277 321.092 134.227 320.575 141.051C320.059 147.874 314.108 152.987 307.285 152.47Z"
        fill="#DE4F4F"/>
  <path
    d="M229.233 216.473C228.646 216.608 228.279 217.193 228.414 217.78C228.548 218.367 229.133 218.734 229.721 218.6L238.226 216.65C238.814 216.516 239.182 215.931 239.047 215.343C238.912 214.756 238.327 214.389 237.74 214.524L229.233 216.473Z"
    fill="#DE4F4F"/>
  <path
    d="M230.474 208.682C229.964 208.362 229.292 208.516 228.972 209.026L228.321 210.064L227.29 209.417C226.78 209.098 226.107 209.252 225.788 209.761C225.468 210.271 225.622 210.943 226.132 211.263L227.163 211.909L226.514 212.945C226.194 213.454 226.348 214.126 226.858 214.446C227.368 214.766 228.04 214.611 228.36 214.102L229.009 213.066L230.052 213.72C230.562 214.039 231.234 213.885 231.554 213.376C231.873 212.866 231.719 212.194 231.21 211.874L230.167 211.221L230.818 210.183C231.138 209.673 230.984 209.001 230.474 208.682Z"
    fill="#DE4F4F"/>
  <path
    d="M236.416 207.32C236.736 206.81 237.408 206.656 237.918 206.976C238.427 207.295 238.581 207.967 238.262 208.477L237.61 209.515L238.653 210.168C239.163 210.488 239.317 211.16 238.997 211.67C238.677 212.179 238.005 212.333 237.495 212.014L236.453 211.36L235.803 212.396C235.483 212.905 234.811 213.059 234.301 212.74C233.791 212.42 233.637 211.748 233.957 211.239L234.607 210.203L233.575 209.557C233.065 209.237 232.911 208.565 233.231 208.055C233.551 207.546 234.223 207.392 234.733 207.711L235.765 208.358L236.416 207.32Z"
    fill="#DE4F4F"/>
  <path fill-rule="evenodd" clip-rule="evenodd"
        d="M235.68 225.068C242.14 223.588 246.177 217.151 244.696 210.691C243.216 204.231 236.779 200.194 230.319 201.675C223.859 203.155 219.822 209.592 221.303 216.052C222.783 222.512 229.22 226.549 235.68 225.068ZM235.191 222.935C229.91 224.145 224.647 220.845 223.437 215.563C222.226 210.282 225.526 205.019 230.808 203.809C236.089 202.598 241.352 205.899 242.562 211.18C243.773 216.462 240.472 221.724 235.191 222.935Z"
        fill="#DE4F4F"/>
  <path
    d="M380.438 194.705C379.86 194.877 379.531 195.484 379.703 196.062C379.874 196.639 380.482 196.969 381.059 196.797L389.424 194.312C390.002 194.141 390.332 193.533 390.16 192.955C389.989 192.378 389.381 192.049 388.804 192.22L380.438 194.705Z"
    fill="#DE4F4F"/>
  <path
    d="M381.182 186.851C380.653 186.564 379.992 186.761 379.705 187.29L379.121 188.367L378.05 187.787C377.521 187.5 376.86 187.697 376.573 188.226C376.287 188.754 376.483 189.415 377.012 189.702L378.083 190.282L377.5 191.357C377.213 191.885 377.41 192.546 377.939 192.833C378.468 193.119 379.129 192.923 379.416 192.394L379.998 191.32L381.08 191.906C381.609 192.192 382.27 191.996 382.557 191.467C382.844 190.938 382.647 190.277 382.119 189.991L381.037 189.404L381.621 188.327C381.907 187.798 381.711 187.137 381.182 186.851Z"
    fill="#DE4F4F"/>
  <path
    d="M387.025 185.115C387.312 184.586 387.973 184.39 388.502 184.677C389.031 184.963 389.227 185.624 388.94 186.153L388.356 187.23L389.438 187.816C389.967 188.103 390.164 188.764 389.877 189.293C389.59 189.822 388.929 190.018 388.4 189.731L387.318 189.145L386.735 190.22C386.449 190.749 385.787 190.945 385.258 190.659C384.729 190.372 384.533 189.711 384.82 189.182L385.402 188.108L384.332 187.528C383.803 187.241 383.606 186.58 383.893 186.051C384.18 185.522 384.841 185.326 385.37 185.612L386.441 186.192L387.025 185.115Z"
    fill="#DE4F4F"/>
  <path fill-rule="evenodd" clip-rule="evenodd"
        d="M387.416 202.874C393.769 200.987 397.39 194.307 395.503 187.954C393.615 181.601 386.935 177.981 380.582 179.868C374.229 181.755 370.609 188.435 372.496 194.788C374.383 201.141 381.063 204.762 387.416 202.874ZM386.793 200.776C381.599 202.319 376.138 199.359 374.595 194.165C373.052 188.971 376.012 183.51 381.206 181.967C386.4 180.424 391.861 183.384 393.404 188.578C394.947 193.772 391.987 199.233 386.793 200.776Z"
        fill="#DE4F4F"/>
  <path
    d="M456.953 95.0719C456.355 95.1387 455.923 95.6783 455.99 96.2771C456.057 96.8759 456.596 97.3071 457.195 97.2403L465.868 96.2729C466.467 96.2061 466.899 95.6664 466.832 95.0676C466.765 94.4688 466.226 94.0376 465.627 94.1044L456.953 95.0719Z"
    fill="#DE4F4F"/>
  <path
    d="M459.074 87.4727C458.604 87.0972 457.918 87.1737 457.543 87.6435L456.777 88.6005L455.826 87.8405C455.356 87.465 454.671 87.5415 454.295 88.0113C453.919 88.4812 453.996 89.1665 454.466 89.542L455.417 90.302L454.654 91.2567C454.278 91.7265 454.354 92.4118 454.824 92.7874C455.294 93.1629 455.98 93.0865 456.356 92.6166L457.119 91.662L458.08 92.43C458.55 92.8056 459.236 92.7291 459.612 92.2592C459.987 91.7893 459.911 91.104 459.441 90.7285L458.48 89.9604L459.245 89.0034C459.62 88.5335 459.544 87.8482 459.074 87.4727Z"
    fill="#DE4F4F"/>
  <path
    d="M465.132 86.7968C465.508 86.327 466.193 86.2505 466.663 86.626C467.133 87.0015 467.21 87.6869 466.834 88.1567L466.069 89.1137L467.03 89.8819C467.5 90.2573 467.577 90.9426 467.201 91.4125C466.825 91.8824 466.14 91.9589 465.67 91.5833L464.708 90.8153L463.945 91.7699C463.569 92.2398 462.884 92.3163 462.414 91.9407C461.944 91.5652 461.867 90.8798 462.243 90.4101L463.006 89.4554L462.055 88.6953C461.585 88.3198 461.509 87.6345 461.884 87.1647C462.26 86.6948 462.946 86.6183 463.416 86.9938L464.367 87.7539L465.132 86.7968Z"
    fill="#DE4F4F"/>
  <path fill-rule="evenodd" clip-rule="evenodd"
        d="M462.379 104.346C468.965 103.611 473.709 97.6761 472.974 91.0895C472.24 84.503 466.305 79.7591 459.718 80.4939C453.131 81.2286 448.388 87.1637 449.122 93.7502C449.857 100.337 455.792 105.081 462.379 104.346ZM462.136 102.17C456.751 102.771 451.899 98.8925 451.298 93.5075C450.697 88.1226 454.576 83.2703 459.961 82.6696C465.346 82.0689 470.198 85.9473 470.799 91.3322C471.399 96.7172 467.521 101.569 462.136 102.17Z"
        fill="#DE4F4F"/>
  <path
    d="M121.38 227.797C120.706 227.997 120.322 228.705 120.522 229.379C120.722 230.053 121.431 230.437 122.105 230.237L131.864 227.338C132.538 227.138 132.923 226.429 132.722 225.755C132.522 225.081 131.814 224.697 131.14 224.897L121.38 227.797Z"
    fill="#DE4F4F"/>
  <path
    d="M122.247 218.633C121.63 218.299 120.859 218.528 120.524 219.145L119.843 220.402L118.594 219.725C117.977 219.391 117.205 219.62 116.871 220.237C116.536 220.854 116.765 221.625 117.382 221.96L118.631 222.636L117.952 223.89C117.617 224.507 117.846 225.278 118.463 225.612C119.081 225.947 119.852 225.718 120.187 225.101L120.866 223.847L122.129 224.531C122.746 224.865 123.517 224.636 123.852 224.019C124.186 223.402 123.957 222.631 123.34 222.296L122.078 221.613L122.759 220.356C123.094 219.739 122.865 218.968 122.247 218.633Z"
    fill="#DE4F4F"/>
  <path
    d="M129.065 216.608C129.399 215.991 130.171 215.761 130.788 216.096C131.405 216.43 131.634 217.201 131.3 217.818L130.618 219.075L131.881 219.759C132.498 220.093 132.727 220.864 132.392 221.481C132.058 222.098 131.286 222.327 130.669 221.993L129.407 221.309L128.727 222.563C128.393 223.18 127.621 223.409 127.004 223.075C126.387 222.74 126.158 221.969 126.492 221.352L127.172 220.099L125.923 219.422C125.306 219.088 125.077 218.317 125.411 217.7C125.746 217.083 126.517 216.853 127.134 217.188L128.384 217.864L129.065 216.608Z"
    fill="#DE4F4F"/>
  <path fill-rule="evenodd" clip-rule="evenodd"
        d="M129.522 237.327C136.933 235.126 141.157 227.332 138.955 219.92C136.754 212.508 128.96 208.285 121.548 210.487C114.136 212.688 109.913 220.482 112.115 227.894C114.316 235.305 122.11 239.529 129.522 237.327ZM128.794 234.879C122.735 236.679 116.363 233.226 114.563 227.166C112.763 221.107 116.216 214.735 122.276 212.935C128.335 211.135 134.707 214.588 136.507 220.648C138.307 226.707 134.854 233.079 128.794 234.879Z"
        fill="#DE4F4F"/>
  <path
    d="M191.38 291.797C190.706 291.997 190.322 292.705 190.522 293.379C190.722 294.053 191.431 294.437 192.105 294.237L201.864 291.338C202.538 291.138 202.923 290.429 202.722 289.755C202.522 289.081 201.814 288.697 201.14 288.897L191.38 291.797Z"
    fill="#DE4F4F"/>
  <path
    d="M192.247 282.633C191.63 282.299 190.859 282.528 190.524 283.145L189.843 284.402L188.594 283.725C187.977 283.391 187.205 283.62 186.871 284.237C186.536 284.854 186.765 285.625 187.382 285.96L188.631 286.636L187.952 287.89C187.617 288.507 187.846 289.278 188.463 289.612C189.081 289.947 189.852 289.718 190.187 289.101L190.866 287.847L192.129 288.531C192.746 288.865 193.517 288.636 193.852 288.019C194.186 287.402 193.957 286.631 193.34 286.296L192.078 285.613L192.759 284.356C193.094 283.739 192.865 282.968 192.247 282.633Z"
    fill="#DE4F4F"/>
  <path
    d="M199.065 280.608C199.399 279.991 200.171 279.761 200.788 280.096C201.405 280.43 201.634 281.201 201.3 281.818L200.618 283.075L201.881 283.759C202.498 284.093 202.727 284.864 202.392 285.481C202.058 286.098 201.286 286.327 200.669 285.993L199.407 285.309L198.727 286.563C198.393 287.18 197.621 287.409 197.004 287.075C196.387 286.74 196.158 285.969 196.492 285.352L197.172 284.099L195.923 283.422C195.306 283.088 195.077 282.317 195.411 281.7C195.746 281.083 196.517 280.853 197.134 281.188L198.384 281.864L199.065 280.608Z"
    fill="#DE4F4F"/>
  <path fill-rule="evenodd" clip-rule="evenodd"
        d="M199.522 301.327C206.933 299.126 211.157 291.332 208.955 283.92C206.754 276.508 198.96 272.285 191.548 274.487C184.136 276.688 179.913 284.482 182.115 291.894C184.316 299.305 192.11 303.529 199.522 301.327ZM198.794 298.879C192.735 300.679 186.363 297.226 184.563 291.166C182.763 285.107 186.216 278.735 192.276 276.935C198.335 275.135 204.707 278.588 206.507 284.648C208.307 290.707 204.854 297.079 198.794 298.879Z"
        fill="#DE4F4F"/>
</svg>
