<svg width="237" height="109" viewBox="0 0 237 109" fill="none" xmlns="http://www.w3.org/2000/svg">
  <path fill-rule="evenodd" clip-rule="evenodd" d="M126.22 60.1358L142.982 80.5511C146.024 84.4398 145.879 85.16 140.809 85.16H139.07C134 85.16 132.116 84.1518 129.074 80.5511L119.84 69.3742L122.042 66.7104C124.002 64.4563 125.394 62.2797 126.22 60.1358ZM141.147 25.8215C145.884 25.8547 145.955 26.6289 142.982 30.4292L126.22 50.8452C125.395 48.701 124.002 46.5242 122.042 44.2699L119.84 41.605L129.074 30.4292C132.011 26.9527 133.868 25.8929 138.557 25.824L139.07 25.8203L141.147 25.8215Z" fill="url(#paint0_linear_125_10071)"/>
  <path d="M94.2396 85.16C89.169 85.16 89.024 84.4398 92.0664 80.5511L109.452 59.3789C110.755 57.7947 111.48 56.4982 111.48 55.49C111.48 54.3378 110.755 53.0416 109.452 51.6014L92.0664 30.4292C89.024 26.5405 89.169 25.8203 94.2396 25.8203H95.9782C101.049 25.8203 102.932 26.8285 105.975 30.4292L119.303 46.5603C124.954 53.0416 124.954 57.9387 119.303 64.4199L105.975 80.5511C102.932 84.1518 101.049 85.16 95.9782 85.16H94.2396Z" fill="url(#paint1_linear_125_10071)"/>
  <path fill-rule="evenodd" clip-rule="evenodd" d="M0 103.625C0 107.925 1.08137 109 5.40687 109H6.84856C11.1741 109 12.2554 107.925 12.2554 103.625V78.6606C15.4996 83.7968 21.3871 86.4247 29.9177 86.4247C46.6188 86.4247 54.9092 77.705 54.9092 60.3851V49.9931C54.9092 32.6731 46.018 24.5508 27.3945 24.5508C10.0927 24.5508 0 32.9121 0 49.9931V103.625ZM42.5337 60.6239C42.5337 70.6575 39.1695 74.8383 27.5148 74.8383C15.6197 74.8383 12.2554 70.5381 12.2554 60.6239V50.3513C12.2554 40.3178 15.8601 36.0176 27.5148 36.0176C39.4097 36.0176 42.5337 40.3178 42.5337 50.3513V60.6239Z" fill="url(#paint2_linear_125_10071)"/>
  <path fill-rule="evenodd" clip-rule="evenodd" d="M66.4665 79.6418C66.4665 83.942 67.5479 85.0171 71.8734 85.0171H73.4352C77.7607 85.0171 78.842 83.942 78.842 79.6418V31.146C78.842 26.8459 77.7607 25.7708 73.4352 25.7708H71.8734C67.5479 25.7708 66.4665 26.8459 66.4665 31.146V79.6418ZM67.3075 12.8705C70.3114 15.7372 75.1173 15.7372 78.0011 12.8705C81.0048 9.88422 81.0048 5.10644 78.0011 2.23974C75.1173 -0.746579 70.3114 -0.746579 67.3075 2.23974C64.3038 5.10644 64.3038 9.88422 67.3075 12.8705Z" fill="url(#paint3_linear_125_10071)"/>
  <path d="M174.496 85C169.609 85 167.69 84.0635 164.832 80.7775L164.522 80.4164L151.226 64.3738C145.709 58.0699 145.594 53.2696 150.881 47.0216L151.226 46.6208L164.522 30.58C167.452 27.1261 169.304 26.0722 173.983 26.0036L174.496 26H209.504C214.565 26 216.443 27.0028 219.478 30.58L232.774 46.6208C238.409 53.066 238.409 57.9358 232.774 64.3738L219.478 80.4164C216.443 83.9954 214.565 85 209.504 85H174.496Z" fill="url(#paint4_linear_125_10071)"/>
  <path d="M175.992 65.9996C175.438 65.9996 175 65.8503 174.68 65.5516C174.382 65.2316 174.232 64.8049 174.232 64.2716C174.232 63.7169 174.382 63.3009 174.68 63.0236C175 62.7463 175.438 62.6076 175.992 62.6076H179.576V46.8956H181.56L176.856 49.7436C176.451 49.9783 176.067 50.0743 175.704 50.0316C175.363 49.9676 175.064 49.8183 174.808 49.5836C174.574 49.3276 174.414 49.0289 174.328 48.6876C174.243 48.3463 174.264 48.0049 174.392 47.6636C174.542 47.3009 174.819 47.0023 175.224 46.7676L179.64 44.1116C180.067 43.8556 180.494 43.6423 180.92 43.4716C181.347 43.2796 181.742 43.1836 182.104 43.1836C182.552 43.1836 182.926 43.3116 183.224 43.5676C183.523 43.8023 183.672 44.1969 183.672 44.7516V62.6076H186.936C187.491 62.6076 187.918 62.7463 188.216 63.0236C188.536 63.3009 188.696 63.7169 188.696 64.2716C188.696 64.8263 188.536 65.2529 188.216 65.5516C187.918 65.8503 187.491 65.9996 186.936 65.9996H175.992Z" fill="white"/>
  <path d="M194.828 65.9996C194.124 65.9996 193.58 65.8183 193.196 65.4556C192.833 65.0716 192.652 64.5276 192.652 63.8236V45.6156C192.652 44.9116 192.833 44.3783 193.196 44.0156C193.58 43.6316 194.124 43.4396 194.828 43.4396H201.036C204.812 43.4396 207.724 44.4103 209.772 46.3516C211.841 48.2929 212.876 51.0769 212.876 54.7036C212.876 56.5169 212.609 58.1276 212.076 59.5356C211.564 60.9223 210.796 62.0956 209.772 63.0556C208.769 64.0156 207.532 64.7516 206.06 65.2636C204.609 65.7543 202.935 65.9996 201.036 65.9996H194.828ZM196.748 62.6076H200.78C202.103 62.6076 203.244 62.4476 204.204 62.1276C205.185 61.7863 205.996 61.2956 206.636 60.6556C207.297 59.9943 207.788 59.1729 208.108 58.1916C208.428 57.1889 208.588 56.0263 208.588 54.7036C208.588 52.0583 207.937 50.0849 206.636 48.7836C205.335 47.4823 203.383 46.8316 200.78 46.8316H196.748V62.6076Z" fill="white"/>
  <defs>
    <linearGradient id="paint0_linear_125_10071" x1="130.17" y1="25.8203" x2="152.101" y2="77.8066" gradientUnits="userSpaceOnUse">
      <stop stop-color="#12A3FF"/>
      <stop offset="1" stop-color="#3D68FF"/>
    </linearGradient>
    <linearGradient id="paint1_linear_125_10071" x1="115" y1="57.499" x2="115.348" y2="26.2979" gradientUnits="userSpaceOnUse">
      <stop stop-color="#FFBC57"/>
      <stop offset="1" stop-color="#3D68FF"/>
    </linearGradient>
    <linearGradient id="paint2_linear_125_10071" x1="15.9066" y1="24.5508" x2="61.2341" y2="94.6186" gradientUnits="userSpaceOnUse">
      <stop stop-color="#12A3FF"/>
      <stop offset="1" stop-color="#3D68FF"/>
    </linearGradient>
    <linearGradient id="paint3_linear_125_10071" x1="72.4126" y1="1.08983e-07" x2="87.0859" y2="82.493" gradientUnits="userSpaceOnUse">
      <stop stop-color="#12A3FF"/>
      <stop offset="1" stop-color="#3D68FF"/>
    </linearGradient>
    <linearGradient id="paint4_linear_125_10071" x1="209.5" y1="55" x2="168.966" y2="84.8392" gradientUnits="userSpaceOnUse">
      <stop stop-color="#FFBC57"/>
      <stop offset="1" stop-color="#3D68FF"/>
    </linearGradient>
  </defs>
</svg>
