<svg width="150" height="81" viewBox="0 0 150 81" fill="none" xmlns="http://www.w3.org/2000/svg">
  <g clip-path="url(#clip0_4178_7118)">
    <path
      d="M25.1778 11.2667C25.1778 11.2667 25.173 11.2547 25.173 11.2475C23.8237 6.6506 20.6792 3.88239 15.2794 2.53783C15.2746 2.53783 15.2698 2.53783 15.265 2.53304C13.9684 2.22865 11.6292 1.92188 9.32834 1.92188C5.43367 1.92188 2.74456 2.73676 1.33768 4.34256C0.479659 5.32282 0.124945 6.59547 0.314286 8.02392C1.42157 17.5533 3.11844 26.9963 5.35937 36.0847C5.57987 37.0146 5.925 37.9829 6.93162 38.7067C7.65303 39.2531 8.53742 39.5647 9.36429 39.5647C9.59917 39.5647 9.82925 39.5383 10.0474 39.488C11.2337 39.2819 12.3746 38.5317 13.0337 37.5203C13.5921 36.6647 13.7671 35.6748 13.5274 34.7353C13.1535 33.1679 12.7604 31.5189 12.3937 29.8652C14.9798 29.1078 17.3238 27.8999 19.3754 26.2629C24.2527 22.4042 26.5871 16.3765 25.1826 11.2643H25.1778V11.2667ZM14.999 19.0896C14.999 19.0896 14.9918 19.0967 14.987 19.1015C13.8749 20.1944 12.4321 21.0836 10.7664 21.7116C9.97305 17.3855 9.37627 13.685 8.92329 10.2481C9.24925 10.2337 9.58479 10.2265 9.91793 10.2265C10.9725 10.2265 12.516 10.296 13.8845 10.6339C15.555 11.0294 16.5832 11.921 16.9547 13.2871C17.446 15.1014 16.6263 17.5437 15.0038 19.0896H14.999Z"
      fill="url(#paint0_linear_4178_7118)"/>
    <path
      d="M38.1086 15.2658C37.3728 14.5085 36.2488 14.125 34.7748 14.125C33.3487 14.125 32.2678 14.5013 31.5608 15.2419C30.5422 16.3084 30.6093 17.7848 30.6452 18.5781C30.837 22.7987 30.789 26.2596 30.6452 30.4754C30.6405 30.612 30.6333 30.7414 30.6261 30.8661C30.5829 31.5395 30.523 32.4623 31.2157 33.2005C31.8077 33.8308 32.74 34.1136 34.2403 34.1136C36.7329 34.1136 37.0732 32.0381 37.277 30.799L37.2937 30.6959C37.4208 29.9194 37.5574 29.1284 37.6964 28.3303C38.3004 24.8263 38.9235 21.2049 39.0337 17.9094C39.0625 16.8141 38.7509 15.9297 38.1086 15.2706V15.2658Z"
      fill="url(#paint1_linear_4178_7118)"/>
    <path
      d="M97.1663 60.7431C96.5096 59.957 95.455 59.5136 94.0314 59.4201C93.854 59.4081 93.6791 59.4033 93.5137 59.4033C91.0714 59.4033 89.6214 60.6808 89.5352 62.9049C89.4297 66.21 89.818 69.865 90.1895 73.4001C90.2757 74.2054 90.3596 75.0035 90.4363 75.7873L90.4459 75.8927C90.5681 77.1414 90.7719 79.2338 93.2597 79.3967C93.4873 79.4111 93.7054 79.4183 93.9068 79.4183C97.0752 79.4183 97.0776 77.3739 97.08 76.3936C97.08 76.269 97.08 76.1396 97.0848 76.0126C97.2166 71.7872 97.394 68.3311 97.8613 64.132C97.95 63.3435 98.113 61.8743 97.1663 60.7431Z"
      fill="url(#paint2_linear_4178_7118)"/>
    <path
      d="M75.9664 35.1636C74.4565 34.9575 73.6991 34.7514 73.3324 34.6124C73.3204 34.6076 73.3061 34.6028 73.2917 34.598C66.9572 32.4769 61.4663 28.3593 60.8168 27.6954C60.7928 27.6571 60.7736 27.6211 60.7569 27.59C60.8527 27.4462 60.9318 27.312 60.9965 27.1825L61.0517 27.0747L61.1499 26.8758C61.1739 26.8374 61.2698 26.6936 61.5693 26.2957C61.8617 25.9075 62.286 25.3562 62.8276 24.6612C63.7647 23.5227 64.7809 22.2165 65.8499 20.7809C67.1441 19.0409 67.6738 18.3842 67.8871 18.1421C67.8919 18.1373 67.8967 18.1301 67.9015 18.1253C68.5294 17.3848 68.9081 16.601 69.0303 15.7981C69.1621 14.9209 69.0135 14.1444 68.5893 13.4901C68.2322 12.9388 67.7649 12.4787 67.2016 12.124C66.5929 11.7381 65.9074 11.544 65.1644 11.544C64.4214 11.544 63.688 11.774 63.0841 12.227C62.7365 12.4883 62.1374 13.0707 60.5963 15.2733C59.4818 16.8455 58.353 18.3506 57.2433 19.7455C56.8934 20.1841 56.6177 20.5197 56.3996 20.7761C56.251 20.5029 56.0665 20.1578 55.8412 19.7192C55.0479 18.1877 54.372 16.7568 53.8327 15.4602C53.8327 15.4554 53.828 15.4506 53.8256 15.4458C53.4493 14.5782 53.0298 13.7537 52.5721 12.994C52.0017 12.0449 51.5678 11.5344 51.1173 11.2875C51.1053 11.2803 51.0909 11.2731 51.0789 11.2683C50.6451 11.0526 50.1945 10.9424 49.7368 10.9424C49.593 10.9424 49.4468 10.9544 49.303 10.9759C48.6175 11.079 48.0662 11.4145 47.7043 11.9442C47.1651 12.7016 47.0165 13.84 47.2394 15.5273C47.4287 16.9677 47.8434 18.516 48.4761 20.129C48.8787 21.1788 49.3581 22.3172 49.8997 23.5036C50.4246 24.6516 50.8249 25.5408 51.0909 26.1496C51.2012 26.4036 51.2731 26.5834 51.321 26.708C51.2515 26.7943 51.146 26.9117 50.9926 27.0675C50.5468 27.5253 49.9477 28.043 49.2191 28.6062C48.4761 29.1766 44.9553 33.148 44.3993 33.9365C43.7498 34.852 43.3423 35.619 43.1482 36.2829C42.7959 37.5004 43.0619 38.6892 43.9223 39.7198C44.8666 40.8558 45.9116 41.0931 46.621 41.0931C46.7744 41.0931 46.9326 41.0811 47.0908 41.0595C47.1195 41.0547 47.1483 41.0499 47.1747 41.0451C47.678 40.9373 48.2029 40.6497 48.7781 40.1656C49.0849 39.9067 50.1849 38.7251 52.5385 36.1726C53.1185 35.5423 53.6218 34.9982 53.9046 34.6962C54.8561 33.7064 55.4361 33.1336 55.7885 32.8028C55.2037 33.3517 66.2549 40.0505 67.3215 40.4939C70.4971 41.8145 79.3458 45.1363 79.3458 38.7898C79.3458 36.7622 78.1115 35.4416 75.9616 35.1684L75.9664 35.1636Z"
      fill="url(#paint3_linear_4178_7118)"/>
    <path
      d="M59.3143 64.8708C59.0938 62.6706 58.7343 60.6837 58.2166 58.8023C57.8356 57.2804 56.3664 56.1348 54.7869 56.1348C54.449 56.1348 54.1159 56.1875 53.7995 56.2906C53.7947 56.2906 53.7875 56.2953 53.7827 56.2953C51.9277 56.9305 50.8923 58.7496 51.3261 60.6238C51.3285 60.6382 51.3333 60.6502 51.3357 60.6646C52.268 64.1374 52.5939 67.1285 52.3351 69.8104C51.942 73.5541 50.329 73.5541 49.797 73.5541C47.9707 73.5541 47.314 71.1166 47.2013 70.6277C47.1965 70.6085 47.1917 70.5894 47.1869 70.5726C46.5566 68.3508 47.1342 62.5004 47.3499 60.3003L47.3595 60.214V60.1924C47.429 59.3224 47.0935 58.4188 46.4416 57.7142C45.7609 56.976 44.8094 56.535 43.8963 56.535C43.8483 56.535 43.8028 56.535 43.7549 56.5374C41.8231 56.5901 40.4474 57.9371 40.2437 59.9743C40.0663 61.4818 39.9513 63.0685 39.8722 65.1177C39.666 70.2418 40.0855 76.5093 45.2097 79.5243C46.5398 80.32 48.0905 80.7419 49.6915 80.7419C51.9085 80.7419 54.0631 79.9533 55.7648 78.5225C57.9794 76.7417 59.2424 73.8369 59.5181 69.8847C59.6619 68.1926 59.4773 66.4335 59.3143 64.878V64.8708Z"
      fill="url(#paint4_linear_4178_7118)"/>
    <path
      d="M85.2753 67.6319C85.2585 65.7601 85.2417 63.8259 85.1578 61.9133C85.0356 58.498 84.3621 55.6244 83.0967 53.1414C82.4376 51.8471 81.5244 50.7255 80.3812 49.8099C80.374 49.8051 80.3692 49.8003 80.362 49.7955C79.5879 49.1988 78.6987 48.8536 78.0995 48.6427C77.4931 48.4366 76.8508 48.3359 76.1821 48.3359C75.849 48.3359 75.4991 48.3623 75.1396 48.4102C73.3684 48.6116 71.7866 49.4456 70.4396 50.8884C70.3581 50.9723 70.279 51.0562 70.2023 51.1425C69.6032 50.0831 68.527 49.3977 67.2807 49.3977C67.2088 49.3977 67.1345 49.4001 67.0602 49.4049C65.1908 49.5007 63.7552 51.1617 63.7935 53.1869C63.8199 54.1839 63.8199 55.1666 63.8199 56.1181V56.2091C63.7935 60.4418 63.7671 64.8182 63.7671 69.1251C63.736 70.9777 65.047 72.5428 66.823 72.7705C66.9763 72.7896 67.1202 72.7968 67.2592 72.7968C68.9776 72.7968 70.4276 71.5601 70.708 69.8561C70.8039 69.2377 70.895 68.581 70.9909 67.886C71.5733 63.6438 72.3738 57.8317 75.4056 55.8161C75.6597 55.6507 75.8945 55.5548 76.0599 55.5548C76.115 55.5548 76.2852 55.5548 76.5584 55.8856C76.5896 55.9215 76.6207 55.9575 76.6567 55.9911C76.7789 56.1061 76.8221 56.1756 76.834 56.1996C76.8556 56.2427 76.8796 56.2834 76.9059 56.3218C77.4548 57.1391 77.8119 58.1888 78.0012 59.5262C78.0012 59.5406 78.006 59.5526 78.0084 59.567C78.2217 60.7677 78.356 62.0667 78.4087 63.4257C78.4806 65.053 78.4902 66.817 78.4351 68.6769C78.3272 70.8387 79.7149 72.5643 81.6682 72.6914C81.7425 72.6962 81.8168 72.6986 81.8911 72.6986C83.7965 72.6986 85.2873 71.0952 85.2873 69.0484C85.2825 68.5666 85.2777 68.0993 85.2729 67.6295L85.2753 67.6319Z"
      fill="url(#paint5_linear_4178_7118)"/>
    <path
      d="M122.28 59.2425C121.274 56.6373 119.328 54.3892 116.938 53.0782C115.598 52.3328 114.23 51.9541 112.873 51.9541C107.644 51.9541 103.735 57.5648 102.709 62.8448C102.205 65.2655 102.436 67.8803 103.363 70.1931C104.334 72.6186 106.009 74.536 108.085 75.5977C109.4 76.264 110.8 76.5995 112.248 76.5995C115.356 76.5995 118.45 74.9866 120.521 72.2855C123.217 68.6952 123.922 63.4536 122.28 59.2401V59.2425ZM115.5 67.6142C114.738 68.7119 113.58 69.3686 112.401 69.3686C111.778 69.3686 110.879 69.1769 110.139 68.2662C110.134 68.259 110.127 68.2518 110.122 68.247C109.237 67.226 108.919 65.8287 109.221 64.314C109.539 62.6171 110.321 61.1287 111.481 59.9999C111.488 59.9927 111.495 59.9855 111.502 59.9783C112.018 59.4391 112.566 59.1658 113.132 59.1658C113.75 59.1658 114.412 59.499 114.992 60.1029C115.965 61.1167 116.528 62.6698 116.466 64.1534C116.418 65.6873 116.116 66.7778 115.514 67.5975C115.51 67.6023 115.505 67.6095 115.502 67.6166H115.5V67.6142Z"
      fill="url(#paint6_linear_4178_7118)"/>
    <path
      d="M148.532 66.8703C148.228 66.669 147.811 66.4173 147.329 66.1249C145.546 65.0464 142.435 63.1626 140.539 61.1086C141.098 60.7347 141.596 60.3368 142.032 59.9198C142.039 59.9126 142.044 59.9078 142.051 59.9006C143.08 58.8677 143.775 57.7124 144.12 56.4709C144.482 55.1671 144.4 53.8681 143.878 52.6098C143.434 51.5097 142.684 50.5415 141.656 49.741C140.661 48.9668 139.473 48.4084 138.121 48.08C137.16 47.8523 136.163 47.7373 135.147 47.7373C133.239 47.7373 131.204 48.1424 129.095 48.9405C128.141 49.3024 127.513 50.0573 127.321 51.0711C127.288 51.1958 127.268 51.3252 127.264 51.4522C127.048 52.9981 127.031 54.8148 127.211 56.852C127.307 58.187 127.544 59.9989 127.916 62.235C127.944 62.4579 127.985 62.7479 128.038 63.0955C128.038 63.1027 128.04 63.1122 128.043 63.1194C128.354 64.917 128.565 66.2543 128.673 67.0932C128.834 68.4378 128.922 69.6217 128.939 70.602C128.951 71.3617 129.255 72.0496 129.814 72.5889C130.36 73.1161 131.046 73.3966 131.796 73.3966H131.846C132.625 73.3822 133.318 73.0754 133.847 72.5074C134.368 71.9513 134.636 71.2587 134.622 70.5061C134.602 69.3341 134.492 67.9368 134.296 66.3526C134.219 65.7558 134.111 64.9985 133.977 64.0901C134.928 64.3466 136.062 65.1255 137.603 66.5563C142.739 71.6613 145.632 71.9801 146.584 72.0856C146.66 72.0951 146.737 72.0975 146.816 72.0975C148 72.0975 149.232 71.0861 149.618 69.7967C149.961 68.6559 149.546 67.5342 148.535 66.8679H148.532V66.8703ZM138.629 54.9107C138.619 54.9418 138.61 54.973 138.6 55.0065C138.543 55.2438 138.351 55.5266 138.047 55.8238C137.049 56.7993 135.369 57.5878 133.049 58.1702C132.965 57.5087 132.898 56.8976 132.846 56.3439C132.764 55.3924 132.738 54.52 132.767 53.7483C133.622 53.535 134.43 53.4271 135.175 53.4271C135.731 53.4271 136.266 53.487 136.764 53.6069C137.469 53.7866 138.353 54.1246 138.6 54.7285C138.605 54.7405 138.61 54.7525 138.615 54.7645C138.646 54.8364 138.643 54.8651 138.627 54.9131H138.629V54.9107Z"
      fill="url(#paint7_linear_4178_7118)"/>
    <path
      d="M102.355 34.5525C102.062 34.169 101.513 34.0971 101.13 34.3895C100.341 34.9911 93.6976 40.4077 92.6718 52.317C91.6651 52.3673 91.1067 52.5375 90.5171 52.7508C90.4069 52.7891 90.2942 52.8323 90.1648 52.8706C89.2421 53.1534 88.722 54.1313 89.0048 55.054C89.2876 55.9768 90.2655 56.4945 91.1882 56.214C91.3751 56.1565 91.5405 56.0966 91.7011 56.0391C92.1205 55.8881 92.3458 55.797 93.3069 55.797C94.268 55.797 94.6682 55.9264 95.1763 56.0918C95.3561 56.1493 95.5334 56.2069 95.7228 56.2596C95.881 56.3027 96.0368 56.3243 96.1878 56.3243C96.9547 56.3243 97.6593 55.8162 97.8726 55.0421C98.1291 54.1121 97.5826 53.1486 96.6527 52.8922C96.5137 52.8515 96.3843 52.8107 96.2525 52.7676C95.7947 52.6166 95.253 52.444 94.4238 52.3577C95.4136 41.2753 101.473 36.3285 102.192 35.7772C102.575 35.4848 102.647 34.936 102.355 34.5525Z"
      fill="#6346CE"/>
    <path
      d="M106.852 36.0963C108.213 34.7354 107.937 32.2528 106.235 30.5512C104.533 28.8496 102.051 28.5734 100.69 29.9343C99.3288 31.2952 99.605 33.7779 101.307 35.4795C103.008 37.1811 105.491 37.4573 106.852 36.0963Z"
      fill="#FFA233"/>
    <path
      d="M35.67 7.97298C38.1402 7.56093 39.8756 5.6255 39.5461 3.65008C39.2166 1.67466 36.947 0.407299 34.4767 0.819348C32.0064 1.2314 30.271 3.16682 30.6005 5.14224C30.93 7.11766 33.1997 8.38502 35.67 7.97298Z"
      fill="url(#paint8_linear_4178_7118)"/>
    <path
      d="M38.4346 43.7461L38.3027 43.7174C37.3249 43.5017 36.3302 43.274 35.326 43.0463C30.952 42.0517 26.4294 41.0235 22.3047 40.5441C22.0482 40.5154 21.8037 40.501 21.5737 40.501C19.316 40.501 17.957 41.7976 17.7461 44.1536C17.6359 45.3783 17.8971 46.3633 18.525 47.0872C19.5868 48.3119 21.3795 48.4077 22.4485 48.4653C24.5767 48.5803 26.5492 48.7169 28.4882 48.8823C28.4642 49.1244 28.4474 49.3736 28.4522 49.6325C28.4259 50.2988 28.3947 51.2095 28.3612 52.2617C28.2198 56.7291 27.9801 64.2069 27.4025 67.0183C27.1316 68.3604 26.4821 69.9542 24.9267 69.9542C23.3712 69.9542 21.334 68.4563 20.567 66.038C20.1093 64.6359 18.7839 63.6988 17.262 63.6988C16.821 63.6988 16.3872 63.7779 15.9725 63.9337C15.9629 63.9385 15.951 63.9409 15.9414 63.9457C14.2014 64.6623 13.2714 66.654 13.8682 68.3844C13.873 68.4012 13.8802 68.4155 13.885 68.4323C15.7952 73.2929 20.4568 76.6866 25.2167 76.6866C25.7679 76.6866 26.3263 76.6411 26.8752 76.5548C30.1683 76.0587 32.4548 74.194 33.6579 71.0112C34.6477 68.3916 34.8035 65.1967 34.9401 62.3806L34.9497 62.1769C35.0935 60.1972 35.465 52.8201 35.6232 49.5989C36.2775 49.6732 36.9438 49.7499 37.6269 49.829C37.8042 49.8482 37.9768 49.8721 38.1446 49.8961C38.516 49.9488 38.8995 50.0016 39.2758 50.0016C41.6629 50.0016 41.8762 47.6384 41.9457 46.8619C42.1519 44.5682 40.0907 44.1152 38.4346 43.7485V43.7461Z"
      fill="url(#paint9_linear_4178_7118)"/>
  </g>
  <defs>
    <linearGradient id="paint0_linear_4178_7118" x1="12.9258" y1="-4.10347" x2="12.9258" y2="43.7134"
                    gradientUnits="userSpaceOnUse">
      <stop offset="0.08" stop-color="#7268F2"/>
      <stop offset="0.31" stop-color="#6F62EC"/>
      <stop offset="0.6" stop-color="#6953DC"/>
      <stop offset="0.8" stop-color="#6346CE"/>
    </linearGradient>
    <linearGradient id="paint1_linear_4178_7118" x1="34.8179" y1="-5.72221" x2="34.8179" y2="42.0923"
                    gradientUnits="userSpaceOnUse">
      <stop offset="0.08" stop-color="#7268F2"/>
      <stop offset="0.31" stop-color="#6F62EC"/>
      <stop offset="0.6" stop-color="#6953DC"/>
      <stop offset="0.8" stop-color="#6346CE"/>
    </linearGradient>
    <linearGradient id="paint2_linear_4178_7118" x1="93.7246" y1="79.4183" x2="93.7246" y2="59.4033"
                    gradientUnits="userSpaceOnUse">
      <stop offset="0.11" stop-color="#F48811"/>
      <stop offset="0.21" stop-color="#F68D17"/>
      <stop offset="0.56" stop-color="#FC9C2B"/>
      <stop offset="0.8" stop-color="#FFA233"/>
    </linearGradient>
    <linearGradient id="paint3_linear_4178_7118" x1="61.1715" y1="-10.2997" x2="61.1715" y2="37.4549"
                    gradientUnits="userSpaceOnUse">
      <stop offset="0.08" stop-color="#7268F2"/>
      <stop offset="0.31" stop-color="#6F62EC"/>
      <stop offset="0.6" stop-color="#6953DC"/>
      <stop offset="0.8" stop-color="#6346CE"/>
    </linearGradient>
    <linearGradient id="paint4_linear_4178_7118" x1="49.7011" y1="80.7419" x2="49.7011" y2="56.1348"
                    gradientUnits="userSpaceOnUse">
      <stop offset="0.11" stop-color="#F48811"/>
      <stop offset="0.21" stop-color="#F68D17"/>
      <stop offset="0.56" stop-color="#FC9C2B"/>
      <stop offset="0.8" stop-color="#FFA233"/>
    </linearGradient>
    <linearGradient id="paint5_linear_4178_7118" x1="74.526" y1="72.7968" x2="74.526" y2="48.3359"
                    gradientUnits="userSpaceOnUse">
      <stop offset="0.11" stop-color="#F48811"/>
      <stop offset="0.21" stop-color="#F68D17"/>
      <stop offset="0.56" stop-color="#FC9C2B"/>
      <stop offset="0.8" stop-color="#FFA233"/>
    </linearGradient>
    <linearGradient id="paint6_linear_4178_7118" x1="112.801" y1="76.5995" x2="112.801" y2="51.9541"
                    gradientUnits="userSpaceOnUse">
      <stop offset="0.11" stop-color="#F48811"/>
      <stop offset="0.21" stop-color="#F68D17"/>
      <stop offset="0.56" stop-color="#FC9C2B"/>
      <stop offset="0.8" stop-color="#FFA233"/>
    </linearGradient>
    <linearGradient id="paint7_linear_4178_7118" x1="138.411" y1="73.3966" x2="138.411" y2="47.7373"
                    gradientUnits="userSpaceOnUse">
      <stop offset="0.11" stop-color="#F48811"/>
      <stop offset="0.21" stop-color="#F68D17"/>
      <stop offset="0.56" stop-color="#FC9C2B"/>
      <stop offset="0.8" stop-color="#FFA233"/>
    </linearGradient>
    <linearGradient id="paint8_linear_4178_7118" x1="35.0725" y1="-5.72369" x2="35.0725" y2="42.0908"
                    gradientUnits="userSpaceOnUse">
      <stop offset="0.08" stop-color="#7268F2"/>
      <stop offset="0.31" stop-color="#6F62EC"/>
      <stop offset="0.6" stop-color="#6953DC"/>
      <stop offset="0.8" stop-color="#6346CE"/>
    </linearGradient>
    <linearGradient id="paint9_linear_4178_7118" x1="27.8219" y1="76.6866" x2="27.8219" y2="40.501"
                    gradientUnits="userSpaceOnUse">
      <stop offset="0.11" stop-color="#F48811"/>
      <stop offset="0.21" stop-color="#F68D17"/>
      <stop offset="0.56" stop-color="#FC9C2B"/>
      <stop offset="0.8" stop-color="#FFA233"/>
    </linearGradient>
    <clipPath id="clip0_4178_7118">
      <rect width="149.471" height="80" fill="white" transform="translate(0.263672 0.74707)"/>
    </clipPath>
  </defs>
</svg>
