<svg width="123" height="103" xmlns="http://www.w3.org/2000/svg"><g fill="none"><ellipse fill="#B7B7B7" cx="61.5" cy="66.101" rx="8.223" ry="8.263"/><path d="M61.275 60.668c-1.24-1.924-.45-4.527 1.802-5.546l26.695-13.356c2.253-1.132 2.478-.68.563.792L67.02 61.348c-1.915 1.584-4.505 1.244-5.744-.68z" fill="#415E6D"/><path d="M64.316 63.498c-1.69 0-3.154-.793-4.055-2.264a4.476 4.476 0 01-.563-3.961c.338-1.359 1.464-2.604 2.816-3.283l26.695-13.356c1.351-.68 1.802-.792 2.14-.792.563 0 1.014.34 1.239.792.338.906-.563 1.698-1.69 2.603L67.695 62.253c-.901.792-2.14 1.245-3.38 1.245zM85.04 45.275L63.527 56.027c-.788.453-1.464 1.132-1.576 1.925-.226.679-.113 1.471.337 2.037.902 1.358 2.816 1.585 4.168.453l18.585-15.167z" fill="#233E49"/><ellipse fill="#D4D6D6" cx="61.5" cy="60.781" rx="8.223" ry="8.263"/><path d="M61.5 70.176c-5.181 0-9.349-4.188-9.349-9.395 0-5.206 4.168-9.394 9.349-9.394s9.349 4.188 9.349 9.394c0 5.207-4.168 9.395-9.349 9.395zm0-16.525c-3.942 0-7.096 3.169-7.096 7.13 0 3.962 3.154 7.131 7.096 7.131s7.096-3.17 7.096-7.13c0-3.962-3.154-7.131-7.096-7.131z" fill="#233E49"/><path d="M24.78 90.889c-6.307-8.036-10.137-18.11-10.137-29.089 0-25.92 20.95-46.973 46.744-46.973S108.132 35.88 108.132 61.8c0 10.98-3.83 21.166-10.137 29.089l10.813 8.376c8.11-10.3 12.953-23.317 12.953-37.465 0-33.503-27.033-60.668-60.374-60.668-33.34 0-60.373 27.165-60.373 60.668 0 14.148 4.843 27.165 12.953 37.465l10.813-8.376z" fill="#F99900"/><path d="M99.234 63.045h-5.858c-.675 0-1.126-.453-1.126-1.132 0-.679.45-1.132 1.126-1.132h5.858c.675 0 1.126.453 1.126 1.132a1.13 1.13 0 01-1.126 1.132zm-71.3 0h-5.857c-.676 0-1.126-.453-1.126-1.132 0-.679.45-1.132 1.126-1.132h5.857c.676 0 1.126.453 1.126 1.132a1.13 1.13 0 01-1.126 1.132zm33.228-33.39c-.676 0-1.126-.453-1.126-1.132v-5.886c0-.679.45-1.132 1.126-1.132.676 0 1.126.453 1.126 1.132v5.886c0 .566-.45 1.132-1.126 1.132zm22.528 9.621c-.338 0-.564-.113-.789-.34a1.098 1.098 0 010-1.584l4.168-4.188a1.085 1.085 0 011.577 0c.45.452.45 1.132 0 1.584l-4.168 4.188c-.225.227-.45.34-.788.34zm-46.182 0c-.338 0-.563-.113-.788-.34l-4.168-4.188a1.098 1.098 0 010-1.584 1.085 1.085 0 011.577 0l4.168 4.188c.45.452.45 1.132 0 1.584-.226.227-.563.34-.789.34zM96.53 76.854c-.112 0-.225 0-.45-.113l-5.52-2.15c-.563-.227-.9-.906-.675-1.472.225-.566.9-.906 1.464-.68l5.52 2.151c.562.226.9.906.675 1.472-.225.452-.563.792-1.014.792zM30.187 50.368c-.113 0-.225 0-.45-.113l-5.52-2.15c-.563-.227-.901-.906-.676-1.472.225-.566.901-.906 1.464-.68l5.52 2.151c.563.227.9.906.676 1.472a1.083 1.083 0 01-1.014.792zm17.683-18.11c-.45 0-.9-.226-1.013-.679l-2.253-5.433c-.225-.566 0-1.245.564-1.471.563-.227 1.239 0 1.464.566l2.253 5.433c.225.566 0 1.245-.564 1.471-.225.113-.337.113-.45.113zm24.781-.339c-.113 0-.225 0-.45-.114-.564-.226-.902-.905-.676-1.47l2.14-5.547c.225-.566.9-.906 1.464-.68.563.227.901.906.676 1.472l-2.14 5.546c-.113.566-.563.793-1.014.793zM25.23 78.099c-.45 0-.9-.226-1.013-.68-.225-.565 0-1.244.563-1.47l5.407-2.378c.563-.226 1.239 0 1.464.566.225.566 0 1.245-.563 1.472l-5.407 2.377c-.112 0-.225.113-.45.113zm65.443-27.391c-.45 0-.901-.227-1.014-.68-.225-.565 0-1.244.564-1.47l5.406-2.378c.563-.226 1.24 0 1.464.566.226.566 0 1.245-.563 1.472l-5.406 2.377c-.113.113-.338.113-.45.113z" fill="#233E49"/><path d="M61.162 14.827V1.132C28.16 1.472 1.126 28.523 1.126 61.8c0 14.148 4.844 27.165 12.954 37.465l10.813-8.376c-6.308-8.036-10.138-18.11-10.138-29.089 0-25.693 20.951-46.52 46.407-46.973z" fill="#FBD000"/><path d="M114.552 32.937L102.5 39.276c3.604 6.678 5.745 14.375 5.745 22.524a46.72 46.72 0 01-10.138 29.089l10.813 8.376c8.11-10.3 12.954-23.317 12.954-37.465 0-10.413-2.704-20.26-7.322-28.863z" fill="#FF4848"/><path d="M8.898 32.937l12.053 6.339c-3.605 6.678-5.745 14.375-5.745 22.524 0 10.98 3.83 21.166 10.137 29.089L14.53 99.265C6.42 88.965 1.577 75.948 1.577 61.8 1.69 51.387 4.28 41.54 8.898 32.937z" fill="#75B600"/><path d="M14.08 100.397c-.338 0-.676-.113-.901-.453C4.505 88.964 0 75.835 0 61.8 0 27.73 27.596 0 61.5 0 95.404 0 123 27.73 123 61.8c0 14.035-4.505 27.165-13.179 38.144-.337.453-1.126.566-1.576.226L97.43 91.795c-.225-.227-.338-.453-.45-.793 0-.34 0-.566.225-.792 6.42-8.15 9.8-17.997 9.8-28.41 0-25.24-20.5-45.84-45.619-45.84-25.118 0-45.618 20.6-45.618 45.84 0 10.413 3.38 20.26 9.8 28.41.225.226.225.566.225.792 0 .34-.225.566-.45.793L14.53 100.17c0 .227-.225.227-.45.227zM61.5 2.264C28.835 2.264 2.253 28.976 2.253 61.8c0 13.13 4.167 25.467 12.052 35.88l9.01-7.017C17.009 82.287 13.63 72.326 13.63 61.8c0-26.486 21.514-48.104 47.871-48.104 26.357 0 47.87 21.618 47.87 48.104 0 10.526-3.378 20.487-9.686 28.863l9.011 7.017c7.885-10.413 12.052-22.75 12.052-35.88 0-32.824-26.582-59.536-59.247-59.536z" fill="#233E49"/><path d="M66.23 61.913c-.675 0-1.126-.453-1.126-1.132 0-1.924-1.577-3.622-3.604-3.622-1.915 0-3.604 1.585-3.604 3.622 0 .68-.45 1.132-1.127 1.132-.676 0-1.126-.453-1.126-1.132 0-3.169 2.59-5.885 5.857-5.885 3.266 0 5.857 2.603 5.857 5.885a1.13 1.13 0 01-1.126 1.132z" fill="#FFF"/><path d="M108.92 90.21c-.225 0-.338 0-.563-.113-.563-.34-.676-1.019-.338-1.585 4.956-8.376 7.547-17.883 7.547-27.73 0-.68.45-1.133 1.126-1.133.676 0 1.127.453 1.127 1.132 0 10.187-2.704 20.148-7.885 28.863-.225.34-.563.566-1.014.566zM6.308 61.913c-.676 0-1.127-.453-1.127-1.132 0-31.24 25.231-56.593 56.319-56.593 19.486 0 37.396 9.96 47.758 26.599.338.566.226 1.245-.338 1.584-.563.34-1.239.227-1.577-.34C97.32 15.96 80.198 6.452 61.5 6.452c-29.849 0-54.066 24.336-54.066 54.33a1.13 1.13 0 01-1.126 1.132zm71.75 36.22H70.06c-.675 0-1.126-.453-1.126-1.132 0-.679.45-1.132 1.126-1.132h7.998c.676 0 1.126.453 1.126 1.132 0 .68-.45 1.132-1.126 1.132zm-26.132 0h-7.997c-.676 0-1.127-.453-1.127-1.132 0-.679.45-1.132 1.127-1.132h7.997c.676 0 1.126.453 1.126 1.132 0 .68-.45 1.132-1.126 1.132z" fill="#FFF" opacity=".5"/><path d="M83.577 97.114c0-.452-.45-.905-1.126-1.018l-2.14-.34c-.564-.113-1.24-.68-1.24-1.245l-.337-2.15c-.113-.566-.564-1.132-1.014-1.132-.45 0-.901.452-1.014 1.131l-.338 2.151c-.113.566-.676 1.245-1.239 1.245l-2.14.34c-.563.113-1.126.566-1.126 1.018 0 .453.45.906 1.126 1.019l2.14.34c.563.113 1.24.679 1.24 1.245l.337 2.15c.113.566.563 1.132 1.014 1.132.45 0 .9-.453.9-1.132l.339-2.377c.112-.566.676-1.132 1.239-1.245l2.027-.113c.901-.226 1.352-.566 1.352-1.019z" fill="#FFF"/></g></svg>