
<svg width="242" height="209" viewBox="0 0 242 209" fill="none" xmlns="http://www.w3.org/2000/svg">
<g clip-path="url(#clip0_11670_41828)">
<path opacity="0.500744" d="M103.847 208.97C161.173 208.97 207.641 162.284 207.641 104.691C207.641 47.0987 161.173 0.412598 103.847 0.412598C46.5215 0.412598 0.0493164 47.0987 0.0493164 104.691C0.0493164 162.284 46.5215 208.97 103.847 208.97Z" fill="#F7F5FF"/>
<path opacity="0.143601" d="M103.915 194.788C153.445 194.788 193.593 154.451 193.593 104.691C193.593 54.9311 153.445 14.5942 103.915 14.5942C54.3859 14.5942 14.2339 54.9311 14.2339 104.691C14.2339 154.451 54.3859 194.788 103.915 194.788Z" fill="#CEC3F4"/>
<path d="M201.735 159.439H20.6106V44.5991C20.6106 40.8613 23.5115 37.9531 27.2422 37.9531H195.101C198.834 37.9531 201.735 40.8613 201.735 44.5991V159.439Z" fill="#452D9D"/>
<path d="M156.15 165.179H25.3914V44.6494H195.016V165.179H175.073" fill="white"/>
<path opacity="0.345308" d="M66.9567 77.2637L65.6011 84.1192C65.5345 84.4522 65.6624 84.7906 65.9286 84.9978C66.1948 85.2033 66.5539 85.237 66.8516 85.0864L69.9622 83.5133L73.0727 85.0864C73.1971 85.1484 73.3302 85.1803 73.465 85.1803C73.6524 85.1803 73.8416 85.1183 73.9975 84.9978C74.2619 84.7923 74.3898 84.4522 74.325 84.1192L72.9694 77.2637C74.8241 76.1973 76.0939 74.2008 76.0939 71.8944C76.0939 68.4755 73.3442 65.6943 69.9639 65.6943C66.5837 65.6943 63.8339 68.4755 63.8339 71.8944C63.8322 74.2008 65.1019 76.1973 66.9567 77.2637ZM94.4822 72.7801H78.5354C78.1203 72.7801 77.763 73.0742 77.6772 73.4852C77.3427 75.1167 76.5108 76.5887 75.276 77.7384C75.0518 77.9492 74.9502 78.261 75.0098 78.5639L76.0396 83.7737C76.234 84.7622 75.8505 85.795 75.0571 86.4061C74.2812 87.0066 73.1638 87.1147 72.2881 86.6718L70.3527 85.6922C70.1058 85.5682 69.815 85.5682 69.5698 85.6922L67.6363 86.6718C66.7308 87.1271 65.6677 87.0261 64.8638 86.4079C64.0721 85.7967 63.6885 84.764 63.883 83.7755L64.9128 78.5657C64.9723 78.2628 64.8725 77.9492 64.6466 77.7402C63.4101 76.5905 62.5799 75.1202 62.2454 73.4869C62.1613 73.076 61.8023 72.7801 61.3872 72.7801H45.4404C44.957 72.7801 44.5647 73.1769 44.5647 73.6659V112.638C44.5647 113.127 44.957 113.523 45.4404 113.523H94.4804C94.9638 113.523 95.3561 113.127 95.3561 112.638V73.6659C95.3579 73.1769 94.9656 72.7801 94.4822 72.7801ZM76.9679 106.438H62.9564C62.4731 106.438 62.0807 106.041 62.0807 105.552C62.0807 105.063 62.4731 104.666 62.9564 104.666H76.9679C77.4513 104.666 77.8436 105.063 77.8436 105.552C77.8436 106.041 77.4513 106.438 76.9679 106.438ZM83.9736 99.3519H55.9507C55.4673 99.3519 55.075 98.9551 55.075 98.4661C55.075 97.9772 55.4673 97.5804 55.9507 97.5804H83.9736C84.457 97.5804 84.8493 97.9772 84.8493 98.4661C84.8493 98.9551 84.457 99.3519 83.9736 99.3519ZM87.4764 92.2661H52.4479C51.9645 92.2661 51.5722 91.8693 51.5722 91.3803C51.5722 90.8914 51.9645 90.4946 52.4479 90.4946H87.4764C87.9598 90.4946 88.3522 90.8914 88.3522 91.3803C88.3522 91.8693 87.9598 92.2661 87.4764 92.2661Z" fill="#452D9D"/>
<path d="M212.271 159.439V164.754C212.271 169.642 208.125 170.918 203.126 170.918H19.1982C14.2152 170.918 10.0635 169.855 10.0635 164.754V159.439H93.3123C93.9362 161.353 96.011 162.84 98.2952 162.84H124.037C126.321 162.84 128.191 161.353 129.02 159.439H212.271Z" fill="#291A5D"/>
<path d="M212.271 159.439C212.271 164.154 208.125 165.178 203.126 165.178H19.1982C14.2152 165.178 10.0635 164.154 10.0635 159.439H93.3123C93.9362 161.284 96.011 162.718 98.2952 162.718H124.037C126.321 162.718 128.191 161.284 129.02 159.439H212.271Z" fill="#452D9D"/>
<path opacity="0.291085" d="M32.1149 52.3019C33.1731 52.3019 34.0306 51.4442 34.0306 50.3887C34.0306 49.3315 33.1731 48.4756 32.1149 48.4756C31.0566 48.4756 30.1973 49.3315 30.1973 50.3887C30.1973 51.4442 31.0566 52.3019 32.1149 52.3019Z" fill="#452D9D"/>
<path opacity="0.291085" d="M37.8544 52.3019C38.9127 52.3019 39.772 51.4442 39.772 50.3887C39.772 49.3315 38.9127 48.4756 37.8544 48.4756C36.7962 48.4756 35.9387 49.3315 35.9387 50.3887C35.9387 51.4442 36.7962 52.3019 37.8544 52.3019Z" fill="#452D9D"/>
<path opacity="0.291085" d="M43.5956 52.3019C44.6539 52.3019 45.5132 51.4442 45.5132 50.3887C45.5132 49.3315 44.6539 48.4756 43.5956 48.4756C42.5374 48.4756 41.6799 49.3315 41.6799 50.3887C41.6799 51.4442 42.5374 52.3019 43.5956 52.3019Z" fill="#452D9D"/>
<path opacity="0.177641" d="M181.206 84.8261H114.883C113.617 84.8261 112.606 83.9978 112.606 82.9639V63.7304C112.606 62.6965 113.617 61.8682 114.883 61.8682H181.206C182.47 61.8682 183.486 62.6965 183.486 63.7304V82.9639C183.733 83.9978 182.718 84.8261 181.206 84.8261Z" fill="#452D9D"/>
<path opacity="0.371559" d="M122.795 79.0863C122.395 79.0863 121.995 78.9524 121.728 78.6175L118.797 75.6466C118.198 75.0378 118.198 74.0941 118.797 73.4853C119.397 72.8765 120.33 72.8765 120.929 73.4853L122.795 75.3726L128.124 69.9725C128.724 69.3698 129.656 69.3698 130.256 69.9725C130.855 70.5813 130.855 71.525 130.256 72.1338L123.86 78.6175C123.594 78.9524 123.194 79.0863 122.795 79.0863Z" fill="#452D9D"/>
<path d="M172.901 70.4771H136.628C136.011 70.4771 135.597 70.0934 135.597 69.5215C135.597 68.9477 136.011 68.564 136.628 68.564H172.901C173.527 68.564 173.93 68.9477 173.93 69.5215C173.728 70.0934 173.325 70.4771 172.901 70.4771Z" fill="#613FDD" fill-opacity="0.6"/>
<path d="M160.23 78.13H136.632C136.012 78.13 135.597 77.7477 135.597 77.1734C135.597 76.5991 136.012 76.2168 136.632 76.2168H160.436C161.058 76.2168 161.472 76.5991 161.472 77.1734C161.265 77.5575 160.852 78.13 160.23 78.13Z" fill="#613FDD" fill-opacity="0.6"/>
<path opacity="0.177641" d="M181.206 112.567H114.883C113.617 112.567 112.606 111.739 112.606 110.705V91.4712C112.606 90.4372 113.617 89.6089 114.883 89.6089H181.206C182.47 89.6089 183.486 90.4372 183.486 91.4712V110.705C183.733 111.739 182.718 112.567 181.206 112.567Z" fill="#452D9D"/>
<path opacity="0.371559" d="M122.795 106.827C122.395 106.827 121.995 106.693 121.728 106.358L118.797 103.387C118.198 102.779 118.198 101.835 118.797 101.226C119.397 100.617 120.33 100.617 120.929 101.226L122.795 103.113L128.124 97.7133C128.724 97.1106 129.656 97.1106 130.256 97.7133C130.855 98.3221 130.855 99.2657 130.256 99.8745L123.86 106.358C123.594 106.693 123.194 106.827 122.795 106.827Z" fill="#452D9D"/>
<path d="M172.901 98.2179H136.628C136.011 98.2179 135.597 97.8341 135.597 97.2622C135.597 96.6884 136.011 96.3047 136.628 96.3047H172.901C173.527 96.3047 173.93 96.6884 173.93 97.2622C173.728 97.8341 173.325 98.2179 172.901 98.2179Z" fill="#613FDD" fill-opacity="0.6"/>
<path d="M160.23 105.871H136.632C136.012 105.871 135.597 105.488 135.597 104.914C135.597 104.34 136.012 103.958 136.632 103.958H160.436C161.058 103.958 161.472 104.34 161.472 104.914C161.265 105.298 160.852 105.871 160.23 105.871Z" fill="#613FDD" fill-opacity="0.6"/>
<path opacity="0.177641" d="M181.206 140.308H114.883C113.617 140.308 112.606 139.479 112.606 138.445V119.212C112.606 118.178 113.617 117.35 114.883 117.35H181.206C182.47 117.35 183.486 118.178 183.486 119.212V138.445C183.733 139.479 182.718 140.308 181.206 140.308Z" fill="#452D9D"/>
<path opacity="0.371559" d="M122.795 134.568C122.395 134.568 121.995 134.434 121.728 134.099L118.797 131.129C118.198 130.52 118.198 129.576 118.797 128.967C119.397 128.358 120.33 128.358 120.929 128.967L122.795 130.855L128.124 125.454C128.724 124.852 129.656 124.852 130.256 125.454C130.855 126.063 130.855 127.007 130.256 127.616L123.86 134.099C123.594 134.434 123.194 134.568 122.795 134.568Z" fill="#452D9D"/>
<path d="M172.901 125.959H136.628C136.011 125.959 135.597 125.575 135.597 125.003C135.597 124.429 136.011 124.045 136.628 124.045H172.901C173.527 124.045 173.93 124.429 173.93 125.003C173.728 125.575 173.325 125.959 172.901 125.959Z" fill="#613FDD" fill-opacity="0.6"/>
<path d="M160.23 133.611H136.632C136.012 133.611 135.597 133.229 135.597 132.655C135.597 132.081 136.012 131.698 136.632 131.698H160.436C161.058 131.698 161.472 132.081 161.472 132.655C161.265 133.039 160.852 133.611 160.23 133.611Z" fill="#613FDD" fill-opacity="0.6"/>
<path opacity="0.345308" d="M94.8212 131.721H45.7787C45.2521 131.721 44.856 131.107 44.856 130.286C44.856 129.467 45.2521 128.851 45.7787 128.851H94.8212C95.349 128.851 95.7439 129.467 95.7439 130.286C95.6123 131.107 95.2161 131.721 94.8212 131.721Z" fill="#452D9D"/>
<path opacity="0.345308" d="M94.8212 123.111H45.7787C45.2521 123.111 44.856 122.496 44.856 121.676C44.856 120.857 45.2521 120.242 45.7787 120.242H94.8212C95.349 120.242 95.7439 120.857 95.7439 121.676C95.6123 122.496 95.2161 123.111 94.8212 123.111Z" fill="#452D9D"/>
<path opacity="0.345308" d="M63.4427 140.329H45.8415C45.2791 140.329 44.856 139.714 44.856 138.894C44.856 138.075 45.2791 137.46 45.8415 137.46H63.4427C64.0065 137.46 64.4283 138.075 64.4283 138.894C64.2877 139.714 63.8645 140.329 63.4427 140.329Z" fill="#452D9D"/>
<path d="M242.149 132.736C242.149 136.54 241.638 140.344 240.875 143.918C240.367 146.187 239.604 148.226 238.84 150.266C234.002 162.961 223.821 173.135 211.092 177.97C210.075 178.222 209.312 178.726 208.293 178.978C203.456 180.491 198.62 181.27 193.274 181.27C166.291 181.27 144.399 159.409 144.399 132.484C144.399 105.536 166.291 83.6982 193.274 83.6982C220.257 83.9503 242.149 105.788 242.149 132.736Z" fill="url(#paint0_linear_11670_41828)"/>
<mask id="mask0_11670_41828" style="mask-type:alpha" maskUnits="userSpaceOnUse" x="157" y="97" width="72" height="72">
<rect x="157.091" y="97.1831" width="71.3881" height="71.3881" fill="#D9D9D9"/>
</mask>
<g mask="url(#mask0_11670_41828)">
<path d="M192.713 157.278C185.916 157.278 180.15 154.91 175.415 150.175C170.68 145.44 168.312 139.674 168.312 132.877C168.312 126.08 170.68 120.314 175.415 115.579C180.15 110.844 185.916 108.477 192.713 108.477C196.241 108.477 199.605 109.201 202.805 110.649C206.005 112.098 208.744 114.177 211.023 116.888V111.593C211.023 110.71 211.321 109.97 211.919 109.373C212.516 108.775 213.256 108.477 214.139 108.477C215.023 108.477 215.763 108.775 216.36 109.373C216.958 109.97 217.256 110.71 217.256 111.593V126.786C217.256 127.735 216.93 128.537 216.276 129.19C215.623 129.843 214.822 130.17 213.873 130.17H198.644C197.766 130.17 197.03 129.871 196.436 129.274C195.843 128.676 195.546 127.936 195.546 127.052C195.546 126.174 195.844 125.438 196.442 124.845C197.039 124.251 197.779 123.954 198.662 123.954H207.932C206.346 121.248 204.203 119.12 201.504 117.57C198.805 116.019 195.875 115.244 192.713 115.244C187.815 115.244 183.652 116.958 180.223 120.386C176.794 123.816 175.079 127.979 175.079 132.877C175.079 137.775 176.794 141.939 180.223 145.368C183.652 148.796 187.815 150.511 192.713 150.511C195.954 150.511 198.93 149.7 201.643 148.078C204.355 146.457 206.485 144.286 208.034 141.565C208.497 140.798 209.148 140.263 209.988 139.962C210.828 139.661 211.665 139.658 212.5 139.953C213.392 140.248 214.035 140.828 214.429 141.692C214.823 142.557 214.799 143.371 214.355 144.136C212.251 148.114 209.283 151.299 205.45 153.691C201.617 156.082 197.371 157.278 192.713 157.278Z" fill="url(#paint1_linear_11670_41828)"/>
</g>
</g>
<defs>
<linearGradient id="paint0_linear_11670_41828" x1="144.399" y1="83.6982" x2="244.786" y2="86.4919" gradientUnits="userSpaceOnUse">
<stop stop-color="#3D68FF"/>
<stop offset="1" stop-color="#8845FF"/>
</linearGradient>
<linearGradient id="paint1_linear_11670_41828" x1="205.491" y1="138.194" x2="184.813" y2="121.98" gradientUnits="userSpaceOnUse">
<stop stop-color="#DCD2FF"/>
<stop offset="1" stop-color="white"/>
</linearGradient>
<clipPath id="clip0_11670_41828">
<rect width="241.926" height="208.557" fill="white" transform="translate(0.0368652 0.412598)"/>
</clipPath>
</defs>
</svg>
