<?xml version="1.0" encoding="UTF-8"?>
<svg width="38px" height="32px" viewBox="0 0 38 32" version="1.1" xmlns="http://www.w3.org/2000/svg" xmlns:xlink="http://www.w3.org/1999/xlink">
    <title>mini logo FWB</title>
    <defs>
        <polygon id="path-1" points="0 0 9 0 9 30 0 30"></polygon>
    </defs>
    <g id="mini-logo-FWB" stroke="none" stroke-width="1" fill="none" fill-rule="evenodd">
        <g id="Group-8" transform="translate(1.000000, 1.000000)">
            <g id="Group-3">
                <mask id="mask-2" fill="white">
                    <use xlink:href="#path-1"></use>
                </mask>
                <g id="Clip-2"></g>
                <path d="M5.20714203,-0.000116886608 C4.21664991,-0.000116886608 3.54089361,0.556847802 3.50155163,0.934391547 C3.45989542,1.35167674 3.72371809,1.75902657 4.08011011,2.03897 C6.69635156,4.10552523 -0.850365254,8.12525569 0.0799567819,16.3119937 C0.740092007,22.1019719 7.33797291,30 8.6981639,30 C8.7496556,30 8.79420461,29.9877269 8.83065379,29.9643496 C9.88131599,29.2770563 5.73768016,21.6922843 4.78826569,19.1891576 C2.68173427,13.5721716 5.86264879,9.97849286 7.10365673,7.88856031 C8.73345596,5.13880285 9.13092564,2.53632251 7.85809698,1.28037591 C6.88785441,0.319567987 5.95695382,-0.000116886608 5.20714203,-0.000116886608" id="Fill-1" fill="#E12024" mask="url(#mask-2)"></path>
            </g>
            <path d="M24.5844044,2 C24.495359,2 24.4039702,2.00172405 24.310824,2.00574684 C14.578507,2.43446105 13.1537797,14.143646 13.1297608,18.385388 C13.1297608,18.7497376 13.1590521,20.6071161 12.7249555,20.6071161 C12.6370817,20.6071161 12.5298756,20.5301084 12.3986508,20.3479336 C11.8924976,19.6393484 10.4484381,17.5791065 10.0172706,17.0245365 C9.89307561,16.8664984 9.7243579,16.787192 9.5603268,16.787192 C9.214104,16.787192 8.88779926,17.1377492 9.03718473,17.8446105 C9.11217038,18.2037879 10.0776106,22.2030133 11.4654309,23.8489081 C11.8649638,24.3264704 12.7829522,25 13.7314035,25 C14.6546643,25 15.608388,24.3626755 16.1444182,22.2869172 C17.0729514,19.0755834 15.9710139,6.30840538 27.058345,4.84928289 C27.9347398,4.73262206 28.2721752,3.71198341 27.7572347,3.11086402 C27.3916796,2.68559792 26.2780256,2 24.5844044,2" id="Fill-4" fill="#FAB900"></path>
            <path d="M30.0601415,13.9535827 C29.7069575,13.844031 29.6910377,13.6272584 29.9516509,13.2426618 C30.3974057,12.5853514 32.2181604,8.61934504 29.9740566,6.53786185 C29.7918632,6.36828974 29.5542453,6.19230767 29.2977594,6.06993604 C28.8856132,5.87472415 28.3667453,6.08217321 28.3738208,6.76803707 C28.4268868,11.7969284 25.9257075,12.7613334 22.4245283,12.7986276 L22.0088443,12.7986276 L22.0088443,15.1091206 L25.1084906,15.3212314 L25.1645047,15.3264759 C28.5141509,15.5869527 30.5306604,17.7739085 30.5306604,20.2947642 C30.5306604,23.3255016 27.9829009,25.2846131 25.165684,25.2846131 C24.2305425,25.2846131 23.271816,25.0934803 22.4970519,24.6139 C22.3508255,24.5235781 22.1527123,24.3825594 22,24.2677631 C22,24.6593524 22.0029481,29.1993399 22.0029481,29.1993399 C23.071934,29.7016463 24.2836085,30 25.8525943,30 C30.3608491,30 36,26.7163612 36,20.9753835 C36,17.982523 33.4893868,15.0164678 30.0601415,13.9535827" id="Fill-6" fill="#293276"></path>
        </g>
    </g>
</svg>