<svg width="137" height="80" xmlns="http://www.w3.org/2000/svg"><g fill="none" fill-rule="evenodd"><g fill-rule="nonzero"><path d="M14.26 32.553v-9.355h2.86a3.719 3.719 0 012.453.726c.59.5.954 1.272.908 2.044 0 .545-.136 1.044-.409 1.499a2.775 2.775 0 01-1.09.953l2.907 4.133h-2.27l-2.498-3.77h-.954v3.77H14.26zm2.951-7.766h-1.044v2.362h1.044c.364.045.682-.091.954-.318a1.24 1.24 0 00.363-.863 1.24 1.24 0 00-.363-.863c-.272-.227-.59-.318-.954-.318zM23.07 32.553v-9.355h5.495v1.59h-3.588v2.179h3.043v1.635h-3.043v2.316h3.588v1.635H23.07zm3.587-10.173h-1.725l1.498-1.816h1.998l-1.77 1.816zM30.744 32.553v-9.355h3.134a3.777 3.777 0 012.407.726c1.135 1.045 1.226 2.77.182 3.906-.046.045-.091.136-.182.181a3.564 3.564 0 01-2.407.772h-1.226v3.77h-1.908zm3.18-7.766h-1.272v2.362h1.271c.364.045.682-.091.954-.318a1.24 1.24 0 00.363-.863 1.24 1.24 0 00-.363-.863c-.272-.227-.59-.318-.954-.318zM44.278 29.056v-5.858h1.907v5.676a4.037 4.037 0 01-1.045 2.907 4.162 4.162 0 01-5.54 0 4.28 4.28 0 01-1-2.907v-5.676h1.908v5.858a1.908 1.908 0 00.5 1.453c.363.363.863.59 1.362.545.545.046 1.045-.182 1.408-.545.363-.409.545-.908.5-1.453zM48.546 32.553v-9.355h2.68c.817-.046 1.635.181 2.27.68a2.16 2.16 0 01.863 1.863c0 .363-.09.726-.272 1.044-.182.318-.409.59-.727.772.454.182.863.545 1.135.954.273.363.41.817.41 1.272.045.817-.319 1.544-.955 2.043-.726.545-1.634.772-2.543.727h-2.86zm2.68-7.766h-.772v2.09h.772c.318 0 .635-.092.863-.273.408-.409.408-1.136 0-1.544-.228-.182-.545-.273-.863-.273zm.272 3.724h-1.044v2.407h1.044c.363.045.772-.09 1.045-.318.272-.227.408-.545.408-.908 0-.364-.136-.681-.408-.909-.318-.181-.682-.317-1.045-.272zM56.811 32.553v-9.355h1.908v7.63h3.587v1.725zM63.987 32.553v-9.355h1.907v9.355zM76.384 32.326c.273.272.636.5 1 .68.317.137.635.228.953.228h.318l.363-.09v1.634l-.454.136h-.545c-.5 0-1.044-.136-1.498-.318-.545-.227-1-.545-1.454-.953l-1.09-.954-.635.09h-.681a5.075 5.075 0 01-1.999-.408c-.59-.272-1.135-.59-1.59-1.044a5.192 5.192 0 01-1.361-3.497c0-1.317.5-2.543 1.362-3.497.454-.454.999-.817 1.59-1.044a5.075 5.075 0 011.998-.41c.68 0 1.407.137 2.043.41.59.272 1.135.59 1.59 1.044a5.192 5.192 0 011.362 3.497c0 .772-.182 1.498-.5 2.18a4.611 4.611 0 01-1.362 1.725l.59.59zm-3.723-1.272c.817 0 1.589-.363 2.18-.908.272-.318.453-.636.635-1a3.51 3.51 0 000-2.542c-.136-.364-.363-.682-.636-1-.272-.272-.59-.499-.953-.68-.409-.137-.818-.228-1.226-.228-.41 0-.818.091-1.181.227a2.319 2.319 0 00-.954.682c-.272.272-.5.635-.636.999a3.51 3.51 0 000 2.543c.137.363.364.726.636.999.273.318.59.5.954.636a2.65 2.65 0 001.18.272zM85.013 29.056v-5.858h1.907v5.676a4.037 4.037 0 01-1.044 2.907 4.162 4.162 0 01-5.54 0 4.037 4.037 0 01-1.045-2.907v-5.676h1.907v5.858c-.045.545.182 1.09.545 1.453.363.363.863.59 1.363.545.544.046 1.044-.182 1.407-.545.364-.409.545-.908.5-1.453zM89.282 32.553v-9.355h5.45v1.59h-3.543v2.179h2.997v1.635H91.19v2.316h3.542v1.635h-5.45zM14.26 46.722v-9.355h5.45v1.589h-3.543v2.18h3.043v1.635h-3.043v3.95H14.26zM21.39 46.722v-9.355h2.86a3.719 3.719 0 012.453.726c.59.5.953 1.272.908 2.044 0 .545-.136 1.044-.409 1.498a2.775 2.775 0 01-1.09.954l2.952 4.133h-2.27l-2.498-3.77h-1v3.77H21.39zm2.997-7.766h-1.09v2.361h1.09c.318.046.68-.09.908-.317a1.24 1.24 0 00.363-.863 1.24 1.24 0 00-.363-.863 1.388 1.388 0 00-.908-.318zM29.473 46.722l3.542-9.355h2.498l3.542 9.355h-2.044l-.908-2.453H32.38l-.908 2.453h-1.998zm3.497-4.042h2.543l-1.272-3.542-1.271 3.542zM40.508 46.722v-9.355h2.407l4.224 6.675v-6.675h1.907v9.355h-2.452L42.37 40v6.722h-1.862zM55.812 45.223c.5 0 1-.136 1.454-.363.408-.227.726-.545.999-.909l1.498 1.136c-.363.5-.817.908-1.362 1.226a5.1 5.1 0 01-1.817.636l-1.18 1.952h-1.68l1.18-1.998c-.59-.09-1.18-.272-1.68-.59-.454-.318-.908-.681-1.272-1.09a4.824 4.824 0 01-.817-1.499 5.211 5.211 0 011.09-5.177c.454-.454.999-.817 1.59-1.044a5.075 5.075 0 011.997-.409c.818 0 1.59.182 2.316.5A4.442 4.442 0 0159.763 39l-1.498 1.136c-.273-.364-.59-.681-1-.909a3.277 3.277 0 00-1.453-.363c-.408 0-.817.091-1.18.227-.364.182-.727.409-1 .681-.226.318-.454.636-.59 1a3.51 3.51 0 000 2.543c.136.363.364.68.59.999.273.272.636.5 1 .635a2.65 2.65 0 001.18.273zM60.172 46.722l3.542-9.355h2.498l3.542 9.355h-1.998l-.908-2.453h-3.724l-.908 2.453h-2.044zm3.542-4.042h2.543l-1.271-3.542-1.272 3.542zM71.207 46.722v-9.355h1.908v9.355h-1.908zM74.886 45.45l1.408-1.272c.272.318.59.59.953.818.318.227.727.318 1.136.318.317 0 .635-.091.862-.273.227-.227.318-.5.318-.817 0-.409-.272-.818-.68-.954l-1.454-.726c-.545-.227-1.045-.59-1.499-.954a2.383 2.383 0 01-.636-1.771c0-.363.046-.727.228-1.045a2.42 2.42 0 01.59-.908c.272-.227.59-.409.954-.545.363-.182.817-.227 1.226-.227.636 0 1.271.136 1.862.409.545.318.999.68 1.407 1.18l-1.407 1.227a3.888 3.888 0 00-.863-.863c-.318-.182-.636-.318-1-.318-.272 0-.59.09-.771.318a.817.817 0 00-.318.681c0 .409.272.817.681.954l1.453.726c.545.227 1.045.59 1.499 1 .454.453.726 1.09.681 1.77a4.976 4.976 0 01-.272 1.181 4.319 4.319 0 01-.682.908c-.272.227-.59.41-.953.545a3.825 3.825 0 01-1.226.182 5.075 5.075 0 01-1.999-.409 4.677 4.677 0 01-1.498-1.135zM83.514 46.722v-9.355h5.45v1.589h-3.588v2.18h3.043v1.635h-3.043v2.316h3.588v1.635h-5.45z" fill="#000"/><path d="M28.883 15.205l.408-.409c.227-.272.545-.59.818-.817l.272-.227c.046-.046.046-.046.046-.091l-.318.182s-.046 0 0-.046l.227-.181h-.046a.97.97 0 00-.772.363h-.09c-.364.136-.636.454-1 .59l-.454.182a1.296 1.296 0 01-.59 0l-.908.182-.454.181h-.046c0 .046 0 .046-.045.046l-.137.136c-.136.09-.272.182-.408.318h-.046l-.408.408h-.046c.046 0 .046-.045.091-.09 0-.046 0-.046.045-.091a.344.344 0 00.091-.182l.409-.272c-.045 0-.045 0-.045-.046h-.091c-.046.091-.091.182-.182.182 0-.045 0-.045.046-.045l.181-.137.273-.181h.045l-.409.181h-.045s0 .046-.045 0l.136-.136h.045c.772-.59 1.862-.454 2.77-.772l.227-.136c.091-.046.182-.182.364-.227.181-.137.318-.364.408-.59h-.045a2.694 2.694 0 01-1.044.226 4.94 4.94 0 01-1.635.273h.136c0-.046.045-.09.09-.136h.092c0-.046 0-.046.045-.046h.09c-.09-.09-.226.091-.362 0-.137-.09.045-.09.09-.136h.091c0-.045 0-.045.046-.09.363-.228.726-.364 1.044-.591.318-.227-.09.09-.182.045-.09-.045 0-.09.046-.09.272-.091.545-.182.772-.318-.091 0-.182.09-.273 0h.137v-.091c0-.046 0-.046.045-.046h-.045l.136-.09h-.046a.412.412 0 01.318-.137c-.045-.045-.136 0-.136-.045 0-.046.046-.046.09-.046h-.09c-.045 0-.045 0-.045-.045s0-.045.045-.045c.09-.182.182-.41.227-.59h-.045a2.59 2.59 0 01-1 .499h-.136a.441.441 0 01-.408-.046l-.227-.181-.636-.318c-.59-.227-1.226-.409-1.862-.454.272-.091.59-.182.863-.227.408-.182.817-.227 1.226-.227-.09-.046-.182 0-.227 0a3.87 3.87 0 00-1.045.136l-.726.181c-.136.046-.227.227-.364.182v-.09c.228-.319.545-.546.909-.591a3.989 3.989 0 011.271.045l.954.182c.09 0 .136.182.227.227.09.045.272 0 .454.09.182.092-.045-.09 0-.135.046-.046.182 0 .318-.046.136-.045-.182-.318-.272-.5.181.182.363.319.59.455.136.09.409.136.363 0a2.77 2.77 0 00-.545-.727v-.09h-.09v-.228c-.091-.045-.046-.136-.137-.181-.09-.046 0-.318-.045-.455a1.326 1.326 0 01-.091-.408c-.09-.409-.182-.772-.227-1.181-.046-.454.272-.817.5-1.226.136-.318.363-.59.68-.772a1.93 1.93 0 01.455-.772c.181-.227.454-.409.726-.5l.682-.272h4.859l.09.09.364.182c.182.091.318.227.454.364.045.09.136.227.09.318-.045.09-.09.317-.18.363-.182.09-.364.09-.546.09l-.272-.09c.363.136.726.363.953.681l.227.09c-.045.046-.09.092-.045.137h.045c.137-.045.091-.272.273-.182.136.046.182.182.136.273 0 .045-.045.045-.045.09l-.273.228a.138.138 0 000 .181l.137.273.136.545c.136.363.181.726.181 1.09 0 .181-.09.363-.045.545l.272.545c.137.09.228.227.273.363.136.227.409.5.318.772-.091.272-.363.136-.545.272-.182.137 0 .318.09.41.092.09-.18.362-.317.453-.136.091.136.046.136.091 0 .046.182.182.09.318-.09.136-.408.227-.226.454.181.227 0 .363-.046.5a.624.624 0 01-.454.363.537.537 0 01-.454.045h-.136c-.409-.09-.818-.136-1.226-.181l-.364.09-.272.273h-.136l-.182.273c0 .045 0 .045-.045.045l-.182.454c-.136.545-.09 1.045.045 1.135.137.091.818.273 1.317.545l.59.273h-9.99c.5-.318 1.044-.59 1.59-.818a4.172 4.172 0 001.226-.726m-3.724-1.726c-.046 0-.137.046-.137 0 0-.045.182-.136.318-.182.137-.045.091-.09.137-.045l.181.09c-.136.137-.318.092-.5.137m-3.723-.545a8.07 8.07 0 00.772-1.226c.272-.182.545-.363.817-.59.364-.454.863-.818 1.363-1.09.227-.046.454-.046.635.045-.09.091-.227.091-.317.136h-.046v-.09c-.227.272-.59.408-.772.726-.181.318-.227.545-.545.59-.318.046 0-.045-.045-.045-.681.5-1.317 1.045-1.862 1.68m1.998-1.589c0 .045-.045.045-.045.09 0 .046-.046.092-.091.092h-.046c0-.091.091-.227.182-.182m1.135 3.588c0 .045-.045.045-.045.09 0 .046.045 0 .045.046l-.181.09c-.046 0-.046 0-.046.046h-.09c-.046.045-.182.045-.137 0l.182-.182c.045-.045.09-.045.09-.09h.182m-.408-.182l-.318.182-.318.136h-.046l-.227.181h-.136c0 .046 0 .046-.045.046h-.046c0 .045 0 .045-.045.045h-.046c-.045.046-.09.046-.09.091l-.137.136h-.136l.091-.09h.09c0-.046.046-.091.092-.091 0-.046 0-.046.045-.046.045-.045.045-.045.045-.09.046-.046.091-.091.091-.137l-.09.091c-.046 0-.046 0-.046-.045.045 0 .045 0 .045-.046h.046l.09-.136h.092v-.09c.272-.228.635-.182.953-.364.318-.182.273.045.364 0h.227l-.59.409m.499-1.68c-.046-.046.045 0 .09-.092h-.181l-.409.137-.5.181c-.226.137-.499.273-.771.41-.046 0-.046 0-.046-.046l.182-.137c.182-.227.409-.454.681-.635v-.091l.273-.273a.547.547 0 01.227-.227h-.091c-.091 0-.182.046-.273-.045l.137-.091h-.046c-.045-.09.046-.136.136-.136l.273-.091c-.182-.045-.363.045-.545-.045.09-.318.318-.59.636-.727h.045c0 .136-.045.227-.182.227l.59.182c0 .045 0 .045-.045.045s-.045 0-.045-.045c.09.09.272.045.363.136.091.09-.136 0-.181 0 .726.227 1.544.363 2.18.863-.545.181-1.09.227-1.68.227h-.228c-.09 0-.182 0-.227.09h-.318" fill="#FFF"/><path d="M28.883 15.205l.408-.409c.227-.272.545-.59.818-.817l.272-.227c.046-.046.046-.046.046-.091l-.318.182s-.046 0 0-.046l.227-.181h-.046a.97.97 0 00-.772.363h-.09c-.364.136-.636.454-1 .59l-.454.182a1.296 1.296 0 01-.59 0l-.908.182-.454.181h-.046c0 .046 0 .046-.045.046l-.137.136-.408.318c-.046 0-.046 0-.046.045l-.408.363h-.046c.046 0 .046-.045.091-.09 0-.046 0-.046.045-.091a.344.344 0 00.091-.182l.409-.272c-.045 0-.045 0-.045-.046h-.091c-.046.091-.091.182-.182.182 0-.045 0-.045.046-.045l.181-.137.273-.181h.045l-.409.181h-.045s0 .046-.045 0l.136-.136h.045c.772-.59 1.862-.454 2.77-.772l.227-.136c.091-.046.182-.182.364-.227.181-.137.318-.364.408-.59h-.045a2.694 2.694 0 01-1.044.226 4.94 4.94 0 01-1.635.273h.136c0-.046.045-.09.09-.136h.092c0-.046 0-.046.045-.046h.09c-.09-.09-.226.091-.362 0-.137-.09.045-.09.09-.136h.091c0-.045 0-.045.046-.09.363-.228.726-.364 1.044-.591.318-.227-.09.09-.182.045-.09-.045 0-.09.046-.09.272-.091.545-.182.772-.318-.091 0-.182.09-.273 0h.137v-.091c0-.046 0-.046.045-.046h-.045l.136-.09h-.046a.412.412 0 01.318-.137c-.045-.045-.136 0-.136-.045 0-.046.046-.046.09-.046h-.09c-.045 0-.045 0-.045-.045s0-.045.045-.045c.09-.182.182-.41.227-.59h-.045a2.59 2.59 0 01-1 .499h-.136a.441.441 0 01-.408-.046l-.227-.181-.636-.318c-.59-.227-1.226-.409-1.862-.454.272-.091.59-.182.863-.227.408-.182.817-.227 1.226-.227-.09-.046-.182 0-.227 0a3.87 3.87 0 00-1.045.136l-.726.181c-.136.046-.227.227-.364.182v-.09c.228-.319.545-.546.909-.591a3.989 3.989 0 011.271.045l.954.182c.09 0 .136.182.227.227.09.045.272 0 .454.09.182.092-.045-.09 0-.135.046-.046.182 0 .318-.046.136-.045-.182-.318-.272-.5.227.137.363.364.59.455.227.09.409.136.363 0a2.77 2.77 0 00-.545-.727v-.09h-.09v-.228c-.091-.045-.046-.136-.091-.181-.046-.046-.046-.318-.091-.455a1.326 1.326 0 01-.091-.408c-.09-.409-.182-.772-.227-1.181-.046-.454.272-.817.5-1.226.136-.318.363-.59.68-.772a1.93 1.93 0 01.455-.772c.181-.227.454-.409.726-.5l.682-.272H14.26v12.897h11.807c.5-.318 1.044-.59 1.59-.817a4.172 4.172 0 001.226-.727m-3.724-1.726c-.046 0-.137.046-.137 0 0-.045.182-.136.318-.181.137-.046.091-.091.137-.046l.181.091c-.136.136-.318.09-.5.136m-3.723-.545a8.07 8.07 0 00.772-1.226c.318-.181.59-.454.817-.726.364-.454.863-.818 1.363-1.09.227-.046.454-.046.635.045-.09.091-.227.091-.317.136h-.046v-.09c-.227.272-.59.408-.772.726-.181.318-.227.545-.545.59-.318.046 0-.045-.045-.045-.681.5-1.317 1.045-1.862 1.68m1.998-1.589c0 .045-.045.045-.045.09 0 .046-.046.092-.091.092h-.046c0-.091.091-.227.182-.182m1.135 3.588c0 .045-.045.045-.045.09 0 .046.045 0 .045.046l-.181.09h-.137c-.045.046-.181.046-.136 0l.182-.181c.045-.045.09-.045.09-.09.046 0 .046 0 .046-.046h.136m-.408-.182l-.318.182-.318.136h-.046l-.227.182h-.136c0 .045 0 .045-.045.045h-.046c0 .045 0 .045-.045.045h-.046c-.045.046-.09.046-.09.091l-.137.137h-.136l.091-.091h.09c0-.046.046-.091.092-.091 0-.046 0-.046.045-.046.045-.045.045-.045.045-.09.046-.046.091-.091.091-.137l-.09.091c-.046 0-.046 0-.046-.045.045 0 .045 0 .045-.046h.046l.09-.136h.092v-.09c.272-.228.635-.182.953-.364.318-.182.273.045.364 0h.227l-.59.409m.499-1.68c-.046-.046.045 0 .09-.091h-.181l-.409.136-.5.182c-.226.136-.499.272-.771.408-.046 0-.046 0-.046-.045l.182-.136c.182-.227.409-.455.681-.636v-.091l.273-.272a.547.547 0 01.227-.228h-.091c-.091 0-.182.046-.273-.045l.137-.09h-.046c-.045-.092.046-.137.136-.137l.273-.09c-.182-.046-.363.045-.545-.046.09-.318.318-.59.636-.727h.045c0 .136-.045.227-.182.227l.59.182c0 .045 0 .045-.045.045s-.045 0-.045-.045c.09.09.272.045.363.136.091.09-.136 0-.181 0 .726.227 1.544.363 2.18.863-.545.182-1.09.318-1.68.318h-.228c-.09 0-.182 0-.227.09h-.318" fill="#000091"/><path d="M49.636 3.852H35.831l.09.09.364.182c.182.091.318.227.454.364.045.09.136.227.09.318-.045.09-.09.317-.18.363-.182.09-.364.09-.546.09l-.272-.09c.363.136.726.363.953.681l.227.09c-.045.046-.09.092-.045.137h.045c.137-.045.091-.272.273-.182.136.046.182.182.136.273 0 .045-.045.045-.045.09l-.273.228a.138.138 0 000 .181l.137.273.136.545c.136.363.181.726.181 1.09 0 .181-.09.363 0 .545.046.181.137.363.227.545.137.09.228.227.273.363.182.227.409.5.318.772-.091.272-.363.136-.545.272-.182.137 0 .318.09.41.092.09-.18.362-.317.453-.136.091.136.046.136.091 0 .046.182.182.09.318-.09.136-.408.227-.226.454.181.227 0 .363-.046.5a.624.624 0 01-.454.363.537.537 0 01-.454.045h-.136c-.409-.09-.818-.136-1.226-.181l-.364.09-.272.273h-.136l-.182.273c0 .045 0 .045-.045.045l-.182.454c-.136.545-.09 1.045.045 1.135.137.091.818.273 1.317.545l.59.273h13.58V3.852z" fill="#E1000F"/><path d="M36.648 8.575h.227c-.045.227-.318.272-.5.454h-.045c-.09.045-.045.182-.136.182h-.227c.09.136.227.181.363.181l.091.091h.09v.136c-.09.091-.18.046-.272.091h.545c.137-.09 0-.318.091-.454s0-.045-.045-.045c-.046 0 .09-.137.136-.137.045 0 .136-.045.136-.09 0-.046-.09-.091-.045-.137.045-.045.272-.227.227-.363-.045-.136-.227-.09-.363-.136-.137-.046-.273 0-.41.045l-.362.09-.455.228a1.21 1.21 0 01.545-.136.63.63 0 01.41 0" fill="#9C9B9B"/></g><path d="M17.138 76.515l.07-.219c-.938-.177-1.057-.177-.683-1.199l.38-1.05h1.037c.465 0 .472.19.402.698h.269l.62-1.7h-.268c-.233.402-.417.698-.924.698h-1.023l.543-1.488c.17-.474.268-.573.903-.573h.452c.655 0 .733.177.733.84h.26l.22-1.156h-3.894l-.07.218c.754.156.825.226.472 1.2l-.847 2.313c-.353.967-.5 1.044-1.368 1.2l-.064.218h2.78zm5.403-2.836c.135-.459.064-.861-.29-.861-.415 0-.52.318-.944 1.228v-.522c0-.374-.12-.706-.459-.706-.394 0-.754.614-1.03 1.221h.184c.19-.275.367-.437.508-.437.169 0 .261.26 0 .84l-.763 1.692c-.14.318.008.522.318.522.191 0 .275-.049.353-.254l.748-1.982c.212-.261.402-.488.642-.741h.733zm3.43-1.023l-.297-.02-.333.324h-.07c-1.607 0-2.998 1.805-2.998 3.118 0 .367.226.578.578.578.417 0 .826-.592 1.285-1.227l-.022.225c-.056.65.141 1.002.48 1.002.395 0 .755-.613 1.03-1.22h-.183c-.19.275-.368.437-.509.437-.147 0-.253-.269 0-.839l1.038-2.378zM23 75.555c0-.868.966-2.045 1.508-2.045.12 0 .233.014.332.043l-.564 1.502c-.325.395-.825.874-1.058.874-.134 0-.219-.113-.219-.374zm3.56-2.193h.65l-1.03 2.815c-.091.24.036.479.283.479.584 0 1.53-.578 1.862-1.368h-.183c-.262.275-.762.64-1.193.719l.946-2.645h.967l.119-.402h-.939l.36-1.016h-.373l-.67 1.016-.798.113v.29zm4.608 1.933h-.24c-.303.359-.628.642-.952.642-.331 0-.502-.197-.502-.642 0-.184.022-.368.057-.537l1.954-.64c.382-.905-.077-1.3-.613-1.3-.924 0-1.976 1.545-1.976 2.9 0 .606.289.938.74.938.53 0 1.08-.515 1.532-1.361zm-.67-1.954c.261 0 .486.197.367.698l-1.214.282c.211-.564.564-.98.847-.98zm4.33.338c.135-.459.065-.861-.288-.861-.417 0-.522.318-.946 1.228v-.522c0-.374-.12-.706-.458-.706-.395 0-.755.614-1.03 1.221h.183c.19-.275.367-.437.508-.437.17 0 .262.26 0 .84l-.761 1.692c-.141.318.006.522.317.522.19 0 .275-.049.353-.254l.747-1.982c.212-.261.402-.488.642-.741h.734zm.015 2.455c-.142.318.007.522.318.522.19 0 .275-.049.353-.254l.747-1.982c.346-.423 1.058-.875 1.34-.875.205 0 .176.17.042.423l-1.149 2.209a.323.323 0 00.282.479c.564 0 1.235-.507 1.503-1.22h-.184c-.183.26-.493.55-.783.599l.988-1.996c.126-.254.19-.494.19-.685 0-.324-.183-.536-.522-.536-.487 0-.98.551-1.566 1.228v-.522c0-.374-.12-.706-.459-.706-.212 0-.416.184-.606.445v.07c.367-.02.53.53.268 1.109l-.762 1.692zm6.214-4.317a.466.466 0 10.001-.931.466.466 0 000 .931zm-.197 1.411c.078-.261-.098-.41-.232-.41-.564 0-1.235.508-1.503 1.221h.184c.183-.261.493-.55.783-.6l-1.08 2.808c-.099.261.098.409.234.409.535 0 1.162-.515 1.432-1.22h-.185c-.183.26-.492.55-.782.599l1.15-2.807zm.876.134h.649l-1.031 2.815c-.092.24.036.479.283.479.585 0 1.53-.578 1.861-1.368h-.183c-.261.275-.761.64-1.192.719l.946-2.645h.966l.12-.402h-.939l.36-1.016h-.373l-.67 1.016-.797.113v.29zm4.217-.903l1.376-1.284v-.149h-.74l-.847 1.433h.211zm.389 2.836h-.24c-.304.359-.628.642-.952.642-.333 0-.502-.197-.502-.642 0-.184.022-.368.057-.537l1.955-.64c.38-.905-.078-1.3-.614-1.3-.926 0-1.976 1.545-1.976 2.9 0 .606.29.938.74.938.53 0 1.08-.515 1.532-1.361zm-.67-1.954c.26 0 .486.197.366.698l-1.213.282c.212-.564.565-.98.846-.98zM18.534 62.202l1.376-.946v-.148h-.832l-.762 1.094h.218zm-.564 2.955c.466 0 .472.19.402.699h.268l.621-1.7h-.268c-.233.402-.416.698-.924.698h-1.023l.515-1.417c.169-.474.268-.565.904-.565h.45c.656 0 .734.176.734.832h.261l.219-1.156h-3.894l-.071.218c.755.156.826.226.473 1.199l-.847 2.314c-.353.967-.5 1.044-1.368 1.2l-.064.218h4.332l.776-1.227h-.297c-.494.465-1.115.91-1.982.91-1.15 0-1.045-.05-.663-1.1l.41-1.123h1.036zm4.93 3.02c0-.452-.4-.614-1.056-.811-.565-.17-.82-.219-.82-.403 0-.147.12-.324.36-.452.925-.05 1.524-.882 1.524-1.58a.947.947 0 00-.077-.387h.783l.12-.402h-1.242a.949.949 0 00-.5-.142c-.981 0-1.616.86-1.616 1.56 0 .529.339.86.748.938-.459.204-.712.444-.712.727 0 .162.055.275.189.38-1.057.31-1.474.663-1.474 1.164 0 .487.642.691 1.404.691 1.29 0 2.37-.697 2.37-1.283zm-1.53-1.934c-.232 0-.324-.197-.324-.422 0-.629.338-1.553.868-1.553.233 0 .324.198.324.424 0 .627-.34 1.551-.868 1.551zm-1.46 2.28c0-.374.36-.608.875-.812.169.085.423.176.761.289.537.177.742.247.742.409 0 .346-.586.607-1.383.607-.67 0-.995-.14-.995-.493zm7.181-4.684l-.295-.022-.333.325h-.07c-1.608 0-2.998 1.805-2.998 3.118 0 .366.226.578.578.578.416 0 .826-.592 1.285-1.227l-.022.225c-.056.649.141 1.002.48 1.002.395 0 .754-.613 1.03-1.22h-.183c-.19.275-.368.437-.509.437-.148 0-.253-.269 0-.839l1.037-2.377zm-2.97 2.898c0-.868.967-2.045 1.51-2.045.12 0 .233.014.332.043l-.564 1.502c-.325.395-.826.874-1.058.874-.135 0-.22-.113-.22-.374zm3.74.48l1.967-5.156-.063-.078-1.234.14v.149l.239.183c.218.17.149.333-.049.854l-1.538 4.05a.323.323 0 00.282.479c.565 0 1.164-.507 1.432-1.22h-.184c-.182.26-.563.55-.852.599zm3.752-4.218a.466.466 0 100-.931.466.466 0 000 .931zm-.198 1.41c.078-.26-.098-.409-.232-.409-.564 0-1.235.508-1.503 1.221h.184c.184-.261.493-.55.783-.6l-1.08 2.808c-.099.261.099.409.234.409.536 0 1.164-.515 1.432-1.22h-.184c-.183.26-.494.55-.783.599l1.15-2.808zm.875.135h.65l-1.03 2.815c-.092.24.035.479.282.479.586 0 1.53-.578 1.862-1.368h-.183c-.262.275-.762.64-1.193.719l.946-2.645h.967l.119-.402h-.939l.361-1.016h-.374l-.67 1.016-.798.113v.29zm4.22-.903l1.374-1.284v-.149h-.74l-.846 1.433h.211zm.387 2.836h-.24c-.303.359-.628.642-.952.642-.332 0-.501-.199-.501-.642 0-.184.02-.368.056-.537l1.955-.64c.38-.905-.078-1.3-.614-1.3-.924 0-1.975 1.546-1.975 2.9 0 .606.29.938.74.938.53 0 1.08-.515 1.531-1.361zm-.67-1.954c.261 0 .486.197.367.698l-1.214.282c.212-.564.565-.98.847-.98zM18.789 53.729H16.22l-.071.219c.755.155.826.226.473 1.198l-.833 2.315c-.352.967-.5 1.044-1.367 1.199l-.065.218h3.909l.846-1.51h-.296c-.48.53-1.045 1.194-1.912 1.194-.656 0-.734-.114-.381-1.101l.833-2.315c.345-.965.5-1.043 1.367-1.198l.065-.219zm2.842.452a.465.465 0 10.001-.93.465.465 0 000 .93zm-.197 1.41c.078-.26-.099-.409-.233-.409-.564 0-1.235.509-1.502 1.22h.183c.183-.26.494-.55.783-.599l-1.08 2.808c-.098.26.1.41.233.41.537 0 1.164-.516 1.433-1.221h-.184c-.184.26-.494.55-.783.6l1.15-2.808zm3.837.375c0-.572-.212-.784-.606-.784-.494 0-.96.522-1.426 1.157l1.179-3.097-.064-.078-1.234.142v.148l.24.183c.218.17.147.347-.05.854l-1.27 3.273c-.09.24-.204.522-.204.6 0 .338.458.656.875.656.959 0 2.56-1.728 2.56-3.054zm-2.222 2.482c-.19 0-.465-.176-.465-.33 0-.05.084-.27.19-.545l.318-.839c.338-.401.854-.833 1.142-.833.177 0 .31.113.31.374 0 .77-.719 2.173-1.495 2.173zm4.79-.79h-.24c-.303.36-.628.642-.952.642-.332 0-.5-.197-.5-.642 0-.183.02-.366.056-.535l1.953-.642c.381-.903-.077-1.299-.613-1.299-.925 0-1.976 1.545-1.976 2.9 0 .606.29.938.742.938.53 0 1.079-.515 1.53-1.362zm-.67-1.954c.26 0 .487.197.367.699l-1.214.283c.212-.565.565-.982.846-.982zm4.332.34c.134-.46.063-.862-.29-.862-.416 0-.522.317-.945 1.228v-.522c0-.374-.12-.706-.459-.706-.394 0-.755.613-1.03 1.22h.184c.19-.274.367-.436.508-.436.17 0 .26.26 0 .839l-.763 1.692c-.14.318.008.523.318.523.19 0 .276-.05.353-.254l.748-1.982c.212-.262.402-.487.642-.74h.734zm.507-.318h.515l-1.03 2.814c-.092.24.036.48.283.48.584 0 1.53-.579 1.862-1.369h-.184c-.261.275-.761.642-1.192.72l.946-2.645h.966l.12-.403h-.939l.36-1.016h-.373l-.67 1.016-.664.113v.29zm4.042-.903l1.376-1.284v-.148h-.741l-.846 1.432h.211zm.388 2.835h-.24c-.303.36-.628.642-.952.642-.331 0-.5-.197-.5-.642 0-.183.021-.366.056-.535l1.954-.642c.38-.903-.078-1.299-.614-1.299-.924 0-1.976 1.545-1.976 2.9 0 .606.29.938.742.938.528 0 1.08-.515 1.53-1.362zm-.67-1.954c.261 0 .486.197.367.699l-1.214.283c.212-.565.565-.982.847-.982z" fill="#000"/></g></svg>