<svg width="419" height="82" viewBox="0 0 419 82" fill="none" xmlns="http://www.w3.org/2000/svg">
<g clip-path="url(#clip0_13301_83486)">
<path d="M74.8786 38.1979V36.6152H72.4981V34.8853H76.7774V38.8815C75.9088 40.0481 74.4503 40.7986 72.6982 40.7986C69.6626 40.7986 67.5889 38.5189 67.5889 35.8379C67.5889 33.157 69.6077 30.8773 72.5633 30.8773C74.262 30.8773 75.6524 31.6411 76.5091 32.781L75.0106 33.9476C74.4755 33.1837 73.6335 32.6606 72.5633 32.6606C70.798 32.6606 69.541 34.0412 69.541 35.8379C69.541 37.6347 70.8647 39.0153 72.6967 39.0153C73.5802 39.0153 74.3421 38.7062 74.8772 38.1979H74.8786Z" fill="#1D1D1B"/>
<path d="M88.1314 35.8379C88.1314 38.5189 86.1126 40.7986 83.1703 40.7986C80.228 40.7986 78.1958 38.5189 78.1958 35.8379C78.1958 33.157 80.2146 30.8773 83.1703 30.8773C86.1259 30.8773 88.1314 33.157 88.1314 35.8379ZM86.1793 35.8379C86.1793 34.0412 84.9223 32.6606 83.1703 32.6606C81.4182 32.6606 80.1479 34.0412 80.1479 35.8379C80.1479 37.6347 81.4049 39.0153 83.1703 39.0153C84.9357 39.0153 86.1793 37.6347 86.1793 35.8379Z" fill="#1D1D1B"/>
<path d="M95.4745 31.1462H97.3733V36.8589C97.3733 39.3259 95.9296 40.8016 93.5757 40.8016C91.2219 40.8016 89.7915 39.3274 89.7915 36.8589V31.1462H91.6903V37.0194C91.6903 38.2796 92.3988 39.0168 93.5891 39.0168C94.7793 39.0168 95.4745 38.2796 95.4745 37.0194V31.1462Z" fill="#1D1D1B"/>
<path d="M100.571 31.1462L103.339 38.4803L106.108 31.1462H108.127L104.583 40.5326H102.096L98.5518 31.1462H100.571Z" fill="#1D1D1B"/>
<path d="M109.571 31.1462H115.027V32.7691H111.47V34.9418H114.492V36.5647H111.47V38.9112H115.027V40.5341H109.571V31.1477V31.1462Z" fill="#1D1D1B"/>
<path d="M117.234 31.1462H120.097C122.155 31.1462 123.427 32.2058 123.427 33.9491C123.427 35.0756 122.879 35.9197 121.93 36.3759L124.872 40.5326H122.599L120.111 36.7385H119.135V40.5326H117.236V31.1462H117.234ZM119.133 32.7691V35.1157H120.203C121.005 35.1157 121.474 34.6862 121.474 33.9223C121.474 33.212 121.005 32.7691 120.203 32.7691H119.133Z" fill="#1D1D1B"/>
<path d="M126.048 31.1462H128.482L132.668 37.8635V31.1462H134.566V40.5326H132.133L127.947 33.7886V40.5326H126.048V31.1462Z" fill="#1D1D1B"/>
<path d="M137.188 31.1462H142.645V32.7691H139.087V34.9418H142.11V36.5647H139.087V38.9112H142.645V40.5341H137.188V31.1477V31.1462Z" fill="#1D1D1B"/>
<path d="M144.852 31.1462H147.246L149.506 35.0072L151.767 31.1462H154.161V40.5326H152.262V33.8554L150.175 37.3151H148.838L146.751 33.8554V40.5326H144.852V31.1462Z" fill="#1D1D1B"/>
<path d="M156.768 31.1462H162.224V32.7691H158.666V34.9418H161.689V36.5647H158.666V38.9112H162.224V40.5341H156.768V31.1477V31.1462Z" fill="#1D1D1B"/>
<path d="M164.433 31.1462H166.866L171.052 37.8635V31.1462H172.951V40.5326H170.517L166.331 33.7886V40.5326H164.433V31.1462Z" fill="#1D1D1B"/>
<path d="M174.61 31.1462H182.287V32.8761H179.398V40.5326H177.499V32.8761H174.61V31.1462Z" fill="#1D1D1B"/>
<path d="M98.8541 66.4522C99.1076 66.4522 99.3284 66.6454 99.2113 67.1328L98.0314 67.4078C98.2375 66.8579 98.5799 66.4507 98.8556 66.4507M99.5078 68.3574H99.2751C98.9801 68.7081 98.6644 68.983 98.3486 68.983C98.0329 68.983 97.861 68.7899 97.861 68.3574C97.861 68.1791 97.8817 67.9992 97.9158 67.8343L99.8176 67.2086C100.188 66.3273 99.742 65.9424 99.2202 65.9424C98.3205 65.9424 97.2977 67.4494 97.2977 68.7705C97.2977 69.362 97.5793 69.686 98.0181 69.686C98.5324 69.686 99.0675 69.1837 99.5078 68.3574ZM99.1298 65.5902L100.468 64.3374V64.1933H99.7479L98.9238 65.5902H99.1298ZM95.0254 66.4715H95.6568L94.6548 69.2179C94.5659 69.4512 94.6889 69.686 94.9291 69.686C95.4982 69.686 96.4187 69.1213 96.7419 68.3514H96.564C96.3105 68.6204 95.8229 68.9771 95.4034 69.0529L96.3239 66.4715H97.2636L97.3807 66.0792H96.4676L96.8175 65.0879H96.4543L95.8021 66.0792L95.0269 66.1891V66.4715H95.0254ZM94.1746 66.3407C94.2502 66.0866 94.0782 65.9409 93.9478 65.9409C93.3994 65.9409 92.7472 66.4358 92.4863 67.1313H92.6641C92.842 66.8772 93.1444 66.5948 93.426 66.5458L92.3766 69.2847C92.2802 69.5389 92.4729 69.6845 92.6034 69.6845C93.1251 69.6845 93.7358 69.1822 93.9967 68.4941H93.8188C93.641 68.7482 93.3386 69.0306 93.057 69.0796L94.1761 66.3407H94.1746ZM94.3673 64.9646C94.6148 64.9646 94.8209 64.7654 94.8209 64.5098C94.8209 64.2542 94.6148 64.0551 94.3673 64.0551C94.1197 64.0551 93.9137 64.2616 93.9137 64.5098C93.9137 64.758 94.1123 64.9646 94.3673 64.9646ZM88.3196 69.1762C88.1818 69.4854 88.327 69.686 88.6279 69.686C88.8132 69.686 88.8962 69.6384 88.9718 69.4378L89.6996 67.5044C90.0361 67.0912 90.7298 66.6513 91.004 66.6513C91.2026 66.6513 91.176 66.8163 91.0455 67.0645L89.9264 69.2179C89.8167 69.4319 89.9605 69.686 90.2006 69.686C90.7491 69.686 91.4013 69.1911 91.6621 68.4956H91.4843C91.3064 68.7497 91.004 69.0321 90.7224 69.0811L91.6829 67.1343C91.8059 66.8861 91.8682 66.6528 91.8682 66.467C91.8682 66.1505 91.6903 65.9439 91.3598 65.9439C90.8854 65.9439 90.4052 66.4804 89.836 67.1417V66.632C89.836 66.2679 89.7189 65.9439 89.3898 65.9439C89.1838 65.9439 88.9852 66.1223 88.7999 66.3779V66.4462C89.1571 66.4254 89.3142 66.9619 89.0608 67.5266L88.3196 69.1777V69.1762ZM88.3063 66.7821C88.4367 66.3348 88.3685 65.9424 88.0247 65.9424C87.62 65.9424 87.5162 66.2516 87.1042 67.1403V66.6305C87.1042 66.2664 86.9871 65.9424 86.658 65.9424C86.2741 65.9424 85.9243 66.5413 85.656 67.1328H85.8339C86.0192 66.8638 86.1911 66.7063 86.3275 66.7063C86.492 66.7063 86.5809 66.9604 86.3275 67.5252L85.5863 69.1762C85.4485 69.4854 85.5938 69.686 85.8946 69.686C86.0799 69.686 86.1629 69.6384 86.2385 69.4378L86.9663 67.5044C87.1724 67.2502 87.3576 67.0288 87.5904 66.7821H88.3048H88.3063ZM84.0922 66.4522C84.3457 66.4522 84.5665 66.6454 84.4494 67.1328L83.2696 67.4078C83.4756 66.8579 83.818 66.4507 84.0937 66.4507M84.7459 68.3574H84.5132C84.2182 68.7081 83.9025 68.983 83.5868 68.983C83.271 68.983 83.0991 68.7899 83.0991 68.3574C83.0991 68.1791 83.1199 67.9992 83.1539 67.8343L85.0557 67.2086C85.4263 66.3273 84.9801 65.9424 84.4583 65.9424C83.5586 65.9424 82.5358 67.4494 82.5358 68.7705C82.5358 69.362 82.8175 69.686 83.2562 69.686C83.7706 69.686 84.3057 69.1837 84.7459 68.3574ZM80.2635 66.4715H80.895L79.893 69.2179C79.804 69.4512 79.9271 69.686 80.1672 69.686C80.7364 69.686 81.6569 69.1213 81.98 68.3514H81.8021C81.5487 68.6204 81.061 68.9771 80.6415 69.0529L81.562 66.4715H82.5017L82.6188 66.0792H81.7058L82.0556 65.0879H81.6924L81.0402 66.0792L80.265 66.1891V66.4715H80.2635ZM76.798 68.6115C76.798 67.7644 77.7377 66.6157 78.2669 66.6157C78.384 66.6157 78.4937 66.629 78.5901 66.6573L78.0416 68.1226C77.7259 68.5075 77.2382 68.9756 77.0114 68.9756C76.881 68.9756 76.798 68.8656 76.798 68.6115ZM79.6884 65.7834L79.4009 65.7626L79.0777 66.0792H79.0095C77.4443 66.0792 76.0924 67.8402 76.0924 69.1213C76.0924 69.4794 76.3118 69.686 76.6557 69.686C77.0604 69.686 77.4591 69.1079 77.9052 68.4882L77.8845 68.7081C77.8297 69.3412 78.0223 69.686 78.3514 69.686C78.7353 69.686 79.0851 69.0871 79.3534 68.4956H79.1755C78.9903 68.7646 78.8183 68.9221 78.682 68.9221C78.5382 68.9221 78.4344 68.6606 78.682 68.1033L79.6914 65.7834H79.6884ZM76.3533 66.7806C76.4838 66.3333 76.4156 65.9409 76.0717 65.9409C75.667 65.9409 75.5633 66.2501 75.1512 67.1388V66.629C75.1512 66.2649 75.0341 65.9409 74.705 65.9409C74.3211 65.9409 73.9713 66.5399 73.703 67.1313H73.8809C74.0662 66.8623 74.2381 66.7048 74.3745 66.7048C74.539 66.7048 74.628 66.9589 74.3745 67.5237L73.6334 69.1748C73.4955 69.4839 73.6408 69.6845 73.9417 69.6845C74.127 69.6845 74.21 69.6369 74.2856 69.4363L75.0133 67.5029C75.2194 67.2487 75.4047 67.0273 75.6374 66.7806H76.3518H76.3533ZM71.0957 69.5478L71.1639 69.3338C70.2508 69.1614 70.1337 69.1614 70.4984 68.1642L70.8689 67.1388H71.8784C72.3319 67.1388 72.3379 67.3245 72.2697 67.8194H72.5306L73.1353 66.1609H72.8744C72.6477 66.5532 72.4698 66.8415 71.9747 66.8415H70.9801L71.5093 65.3896C71.6738 64.9289 71.7702 64.8323 72.3883 64.8323H72.827C73.4659 64.8323 73.5415 65.0047 73.5415 65.6512H73.7949L74.0084 64.5232H70.2197L70.1515 64.7372C70.8852 64.8888 70.9549 64.9571 70.611 65.9068L69.7869 68.1642C69.443 69.1064 69.2992 69.1822 68.4558 69.3338L68.3936 69.5478H71.0972H71.0957Z" fill="#1D1D1B"/>
<path d="M89.6641 57.8489C89.9175 57.8489 90.1384 58.0421 90.0213 58.5296L88.8414 58.8045C89.0475 58.2547 89.3899 57.8475 89.6656 57.8475M90.3178 59.7542H90.085C89.7901 60.1049 89.4744 60.3798 89.1586 60.3798C88.8429 60.3798 88.671 60.1866 88.671 59.7542C88.671 59.5758 88.6917 59.396 88.7258 59.231L90.6276 58.6054C90.9981 57.7241 90.552 57.3392 90.0302 57.3392C89.1305 57.3392 88.1077 58.8461 88.1077 60.1673C88.1077 60.7588 88.3893 61.0828 88.8281 61.0828C89.3424 61.0828 89.8775 60.5804 90.3178 59.7542ZM89.9398 56.987L91.2783 55.7342V55.59H90.5579L89.7338 56.987H89.9398ZM85.8354 57.8683H86.4668L85.4648 60.6146C85.3759 60.8479 85.4989 61.0828 85.739 61.0828C86.3082 61.0828 87.2287 60.518 87.5519 59.7482H87.374C87.1205 60.0172 86.6329 60.3739 86.2134 60.4497L87.1339 57.8683H88.0736L88.1907 57.4759H87.2776L87.6275 56.4847H87.2643L86.6121 57.4759L85.8369 57.5859V57.8683H85.8354ZM84.9846 57.7375C85.0602 57.4834 84.8882 57.3377 84.7578 57.3377C84.2094 57.3377 83.5572 57.8326 83.2963 58.5281H83.4741C83.652 58.274 83.9544 57.9916 84.236 57.9426L83.1866 60.6815C83.0902 60.9356 83.2829 61.0813 83.4134 61.0813C83.9351 61.0813 84.5458 60.579 84.8067 59.8909H84.6288C84.451 60.145 84.1486 60.4274 83.8669 60.4764L84.9861 57.7375H84.9846ZM85.1773 56.3613C85.4248 56.3613 85.6308 56.1622 85.6308 55.9066C85.6308 55.651 85.4248 55.4518 85.1773 55.4518C84.9297 55.4518 84.7237 55.6584 84.7237 55.9066C84.7237 56.1548 84.9223 56.3613 85.1773 56.3613ZM81.525 60.4764L83.4401 55.4459L83.3778 55.3701L82.1772 55.5083V55.6525L82.4099 55.8308C82.6233 55.9957 82.5537 56.1548 82.3624 56.663L80.8668 60.6131C80.7572 60.8271 80.9009 61.0813 81.1411 61.0813C81.6895 61.0813 82.2735 60.5864 82.5344 59.8909H82.3565C82.1786 60.145 81.8081 60.4274 81.5265 60.4764M77.889 60.0083C77.889 59.1612 78.8287 58.0124 79.3579 58.0124C79.475 58.0124 79.5847 58.0258 79.681 58.054L79.1326 59.5194C78.8169 59.9043 78.3292 60.3724 78.1024 60.3724C77.972 60.3724 77.889 60.2624 77.889 60.0083ZM80.7794 57.1802L80.4918 57.1594L80.1687 57.4759H80.1005C78.5352 57.4759 77.1834 59.237 77.1834 60.518C77.1834 60.8762 77.4028 61.0828 77.7467 61.0828C78.1513 61.0828 78.5501 60.5047 78.9962 59.8849L78.9755 60.1049C78.9206 60.738 79.1133 61.0828 79.4424 61.0828C79.8263 61.0828 80.1761 60.4839 80.4444 59.8924H80.2665C80.0812 60.1614 79.9093 60.3189 79.7729 60.3189C79.6292 60.3189 79.5254 60.0573 79.7729 59.5L80.7824 57.1802H80.7794ZM73.792 61.75C73.792 61.3859 74.1418 61.1586 74.6428 60.9579C74.8073 61.0411 75.0549 61.1303 75.3839 61.2403C75.9057 61.4127 76.1043 61.481 76.1043 61.6401C76.1043 61.9774 75.5351 62.2315 74.7584 62.2315C74.1062 62.2315 73.7905 62.0933 73.7905 61.75M75.212 59.5268C74.9852 59.5268 74.8963 59.3336 74.8963 59.1136C74.8963 58.5014 75.2253 57.5993 75.7412 57.5993C75.968 57.5993 76.0569 57.7925 76.0569 58.0124C76.0569 58.6247 75.7278 59.5268 75.212 59.5268ZM76.7017 61.4127C76.7017 60.9728 76.3104 60.8138 75.6715 60.6206C75.1231 60.4556 74.8755 60.4066 74.8755 60.2282C74.8755 60.0841 74.9926 59.9117 75.2253 59.7883C76.1251 59.7408 76.7076 58.9279 76.7076 58.2472C76.7076 58.1031 76.6794 57.9782 76.632 57.8683H77.3939L77.511 57.4759H76.3029C76.1592 57.3868 75.9872 57.3377 75.8153 57.3377C74.8607 57.3377 74.2441 58.1774 74.2441 58.858C74.2441 59.3737 74.5731 59.6977 74.9719 59.7735C74.5257 59.9726 74.2782 60.2074 74.2782 60.4824C74.2782 60.6414 74.333 60.7514 74.4635 60.8539C73.4333 61.1571 73.0286 61.5004 73.0286 61.9893C73.0286 62.4782 73.6527 62.664 74.3953 62.664C75.6508 62.664 76.7017 61.9834 76.7017 61.4112M71.9036 58.4657C72.3572 58.4657 72.3631 58.6515 72.2949 59.1463H72.5558L73.1606 57.4878H72.8997C72.6729 57.8802 72.495 58.1685 71.9999 58.1685H71.0053L71.5063 56.7849C71.6709 56.3242 71.7672 56.235 72.3853 56.235H72.8241C73.4629 56.235 73.5385 56.4074 73.5385 57.0464H73.792L74.0054 55.9185H70.2168L70.1486 56.1325C70.8823 56.2841 70.952 56.3524 70.6081 57.3021L69.784 59.5595C69.4401 60.5017 69.2963 60.5775 68.4529 60.7291L68.3906 60.9431H72.6047L73.3592 59.7452H73.0716C72.5914 60.2 71.9866 60.6325 71.1432 60.6325C70.0241 60.6325 70.1278 60.5849 70.4984 59.5595L70.8971 58.4657H71.9066H71.9036ZM72.452 55.5826L73.7905 54.6597V54.5156H72.9812L72.2401 55.5826H72.4535H72.452Z" fill="#1D1D1B"/>
<path d="M89.2179 49.2473C89.4714 49.2473 89.6922 49.4405 89.5751 49.9279L88.3953 50.2029C88.6013 49.653 88.9437 49.2458 89.2194 49.2458M89.8716 51.1525H89.6389C89.3439 51.5032 89.0282 51.7781 88.7125 51.7781C88.3967 51.7781 88.2248 51.585 88.2248 51.1525C88.2248 50.9742 88.2456 50.7943 88.2796 50.6294L90.1814 50.0037C90.552 49.1224 90.1058 48.7375 89.584 48.7375C88.6843 48.7375 87.6615 50.2445 87.6615 51.5656C87.6615 52.1571 87.9432 52.4811 88.3819 52.4811C88.8963 52.4811 89.4314 51.9788 89.8716 51.1525ZM89.4936 48.3853L90.8321 47.1325V46.9884H90.1117L89.2876 48.3853H89.4936ZM85.5612 49.2666H86.0622L85.0602 52.013C84.9712 52.2463 85.0943 52.4811 85.3344 52.4811C85.9036 52.4811 86.8241 51.9164 87.1472 51.1465H86.9693C86.7159 51.4155 86.2282 51.7722 85.8087 51.848L86.7292 49.2666H87.669L87.7861 48.8743H86.873L87.2228 47.883H86.8596L86.2074 48.8743L85.5627 48.9842V49.2666H85.5612ZM85.0676 49.5757C85.198 49.1284 85.1298 48.736 84.786 48.736C84.3813 48.736 84.2775 49.0452 83.8655 49.9339V49.4241C83.8655 49.06 83.7484 48.736 83.4193 48.736C83.0354 48.736 82.6856 49.335 82.4173 49.9264H82.5952C82.7804 49.6574 82.9524 49.4999 83.0888 49.4999C83.2533 49.4999 83.3422 49.754 83.0888 50.3188L82.3476 51.9699C82.2098 52.279 82.355 52.4796 82.6559 52.4796C82.8412 52.4796 82.9242 52.432 82.9998 52.2314L83.7276 50.298C83.9336 50.0438 84.1189 49.8224 84.3517 49.5757H85.0661H85.0676ZM80.8535 49.2458C81.107 49.2458 81.3278 49.439 81.2107 49.9264L80.0308 50.2014C80.2369 49.6515 80.5793 49.2443 80.855 49.2443M81.5072 51.151H81.2745C80.9795 51.5017 80.6638 51.7767 80.3481 51.7767C80.0323 51.7767 79.8604 51.5835 79.8604 51.151C79.8604 50.9727 79.8811 50.7928 79.9152 50.6279L81.817 50.0022C82.1875 49.121 81.7414 48.736 81.2196 48.736C80.3199 48.736 79.2971 50.243 79.2971 51.5641C79.2971 52.1556 79.5788 52.4796 80.0175 52.4796C80.5318 52.4796 81.067 51.9773 81.5072 51.151ZM76.8469 51.9223C76.6617 51.9223 76.3934 51.7499 76.3934 51.5983C76.3934 51.5508 76.4764 51.3368 76.5787 51.0678L76.887 50.2489C77.216 49.8566 77.717 49.4375 77.9987 49.4375C78.1706 49.4375 78.301 49.5475 78.301 49.8016C78.301 50.5521 77.6014 51.9208 76.8455 51.9208M79.0081 49.4984C79.0081 48.9411 78.802 48.7346 78.4181 48.7346C77.9379 48.7346 77.4843 49.2443 77.0322 49.8625L78.178 46.8412L78.1158 46.7654L76.9151 46.9037V47.0478L77.1478 47.2261C77.3613 47.3911 77.2916 47.5635 77.1004 48.0584L75.8642 51.2521C75.7753 51.4854 75.6656 51.7618 75.6656 51.8376C75.6656 52.1675 76.1117 52.4781 76.5164 52.4781C77.4502 52.4781 79.0081 50.7914 79.0081 49.4984ZM75.2743 49.1343C75.3499 48.8802 75.1779 48.7346 75.0475 48.7346C74.499 48.7346 73.8468 49.2294 73.586 49.9249H73.7638C73.9417 49.6708 74.2441 49.3885 74.5257 49.3394L73.4763 52.0783C73.3799 52.3325 73.5726 52.4781 73.7031 52.4781C74.2248 52.4781 74.8355 51.9758 75.0964 51.2877H74.9185C74.7406 51.5419 74.4383 51.8242 74.1566 51.8733L75.2757 49.1343H75.2743ZM75.467 47.7582C75.7145 47.7582 75.9205 47.559 75.9205 47.3034C75.9205 47.0478 75.7145 46.8487 75.467 46.8487C75.2194 46.8487 75.0134 47.0552 75.0134 47.3034C75.0134 47.5516 75.212 47.7582 75.467 47.7582ZM72.701 47.3183H70.202L70.1338 47.5323C70.8675 47.6839 70.9372 47.7522 70.5933 48.7019L69.784 50.9593C69.4401 51.9015 69.2963 51.9773 68.4529 52.1289L68.3906 52.3429H72.1926L73.0168 50.8701H72.7292C72.2623 51.3858 71.7139 52.0338 70.869 52.0338C70.2301 52.0338 70.1545 51.9238 70.4984 50.9608L71.3077 48.7034C71.6442 47.7611 71.7954 47.6854 72.6388 47.5338L72.701 47.3198V47.3183Z" fill="#1D1D1B"/>
<path d="M82.4918 23.4451C82.6252 23.3114 82.7601 23.1672 82.8935 23.0231H82.8905C83.1395 22.7392 83.3841 22.4703 83.6746 22.2221C83.7621 22.1433 83.848 22.0735 83.9296 22.017C83.9533 21.9932 83.9533 21.9456 83.977 21.9234C83.8599 21.9709 83.7887 22.0645 83.6717 22.1121C83.6479 22.1121 83.6242 22.0883 83.6479 22.0645C83.7309 22.0021 83.8154 21.9382 83.8984 21.8758C83.894 21.8758 83.8881 21.8758 83.8821 21.8758C83.8584 21.8758 83.8584 21.852 83.8584 21.8282C83.5531 21.7807 83.3174 21.9932 83.1069 22.1819C83.0595 22.2057 83.0135 22.1582 82.9898 22.1582C82.637 22.2756 82.3791 22.5817 82.0263 22.7229V22.6753C81.8855 22.7229 81.7492 22.8076 81.6039 22.8403C81.3919 22.8879 81.2052 22.8641 81.0169 22.8641C80.7323 22.8923 80.4477 22.9562 80.1631 23.0171C80.1542 23.0186 80.1468 23.0216 80.1379 23.0231C79.9853 23.0647 79.8415 23.1227 79.7007 23.1999C79.6947 23.2029 79.6903 23.2059 79.6844 23.2089C79.6725 23.2237 79.6606 23.2371 79.6503 23.249C79.5999 23.304 79.5569 23.356 79.4887 23.3902C79.3449 23.4645 79.2263 23.5923 79.0989 23.6963C79.09 23.7037 79.0752 23.7067 79.0618 23.7082C78.9358 23.8301 78.8113 23.9519 78.6838 24.0708C78.6749 24.0797 78.6379 24.0842 78.6127 24.0797C78.6127 24.0797 78.6142 24.0797 78.6142 24.0782C78.6186 24.0708 78.6231 24.0634 78.6275 24.0559C78.6468 24.0233 78.6675 23.9891 78.6883 23.9564C78.7105 23.9192 78.7342 23.8836 78.7579 23.8464C78.7906 23.7974 78.8232 23.7498 78.8573 23.7037C78.8662 23.6918 78.8632 23.6814 78.8573 23.6725C78.8498 23.6651 78.838 23.6606 78.8246 23.6606C78.9417 23.5462 79.0811 23.4496 79.2189 23.3649C79.2189 23.3649 79.2189 23.3619 79.2189 23.3604C79.2026 23.3664 79.1804 23.353 79.1923 23.3367C79.2071 23.3159 79.2189 23.2936 79.2323 23.2728C79.2352 23.2653 79.2367 23.2594 79.2397 23.252C79.2337 23.246 79.2278 23.2401 79.2219 23.2326C79.1834 23.2579 79.1433 23.2802 79.1122 23.3099C79.0559 23.3604 79.0114 23.4645 78.9269 23.463C78.921 23.463 78.9047 23.463 78.8913 23.4585C78.881 23.457 78.8721 23.4541 78.8662 23.4496C78.8662 23.4481 78.8676 23.4466 78.8691 23.4437C78.8691 23.4422 78.8721 23.4392 78.8721 23.4377C78.8721 23.4362 78.875 23.4333 78.875 23.4318C78.878 23.4243 78.8825 23.4184 78.8869 23.411C78.8914 23.4035 78.8943 23.3976 78.8988 23.3902C78.9017 23.3842 78.9047 23.3798 78.9077 23.3738C78.9136 23.3634 78.918 23.3545 78.924 23.3441C78.9284 23.3367 78.9329 23.3292 78.9358 23.3233C78.9462 23.3055 78.9566 23.2891 78.9655 23.2713C78.9699 23.2624 78.9758 23.2549 78.9803 23.246C78.9892 23.2311 78.9966 23.2178 79.0055 23.2029C79.0173 23.1836 79.0055 23.1672 78.9877 23.1613C79.0307 23.1048 79.084 23.0573 79.1493 23.0201H79.1419C79.2323 22.974 79.3212 22.9191 79.4116 22.8685C79.425 22.8566 79.4368 22.8462 79.4502 22.8344C79.3168 22.8789 79.1952 22.9399 79.0766 23.0186C79.0766 23.0186 79.0455 23.032 79.0366 23.0394C79.0366 23.0394 79.0099 23.0498 78.9773 23.0186C78.9744 23.0142 78.9714 23.0097 78.9714 23.0008C78.9951 22.9532 79.0648 22.9295 79.1122 22.8834C79.1359 22.8834 79.1596 22.8834 79.1596 22.9072C79.9111 22.3187 80.9443 22.4598 81.8144 22.1537C81.8855 22.1062 81.9552 22.0601 82.0263 22.0125C82.1434 21.965 82.2383 21.8476 82.3791 21.7777C82.5674 21.6365 82.7082 21.4716 82.7779 21.2368C82.7779 21.213 82.7541 21.1892 82.7541 21.1892C82.4488 21.5191 82.096 21.7777 81.721 21.9665C81.2274 22.225 80.6879 22.179 80.1705 22.2488C80.1943 22.2013 80.2417 22.2013 80.2876 22.2013C80.2876 22.1299 80.3351 22.1076 80.381 22.0601H80.4522C80.4759 22.0601 80.4759 22.0125 80.4996 22.0125C80.547 22.0125 80.6167 21.9887 80.593 21.9887C80.5218 21.8951 80.381 22.0601 80.2639 21.9887C80.3114 21.9412 80.2876 21.8713 80.3351 21.8476H80.4285C80.4285 21.8 80.4759 21.7539 80.4759 21.7539C80.8287 21.5414 81.1577 21.3765 81.4853 21.1892C81.4142 21.1892 81.3682 21.2605 81.2971 21.213C81.3445 21.213 81.2971 21.1417 81.3445 21.1417C81.6024 21.0703 81.8144 20.9291 82.0723 20.8355C81.9789 20.8355 81.9078 20.9068 81.8144 20.8355C81.8618 20.8117 81.8855 20.7642 81.9552 20.7642V20.6928C81.9552 20.6691 81.9789 20.6691 82.0026 20.6691C81.9789 20.6691 81.9552 20.6453 81.9552 20.6453C81.9789 20.5977 82.0486 20.6215 82.096 20.574C82.0723 20.574 82.0249 20.574 82.0249 20.5502C82.096 20.4565 82.2131 20.4328 82.3302 20.409C82.3065 20.3614 82.2368 20.409 82.2368 20.3614C82.2368 20.3377 82.2605 20.3377 82.2843 20.3377H82.2368C82.1894 20.3139 82.2131 20.2663 82.2131 20.244C82.3539 20.0791 82.3539 19.8666 82.4251 19.6793C82.4014 19.6793 82.3776 19.6793 82.3776 19.6555C82.1434 19.9141 81.7669 20.0092 81.4142 20.1029H81.2971C81.18 20.1504 81.0154 20.1504 80.8983 20.0791C80.8049 20.0315 80.7575 19.9617 80.6641 19.8903C80.4759 19.7729 80.2876 19.6778 80.0772 19.608C79.4902 19.4192 78.8795 19.3256 78.2688 19.3494C78.5267 19.2082 78.8128 19.1963 79.0915 19.1146C79.4902 18.9972 79.8667 18.856 80.2891 18.8798C80.218 18.856 80.1246 18.8798 80.0549 18.8798C79.7259 18.856 79.3968 18.9511 79.0455 19.021C78.8113 19.0685 78.5993 19.1621 78.3637 19.2097C78.2228 19.2572 78.1517 19.3984 77.9872 19.3746V19.3033C78.2214 19.021 78.5045 18.7386 78.8795 18.7148C79.3019 18.6435 79.7021 18.7148 80.1246 18.7624C80.4299 18.7861 80.7116 18.856 81.0169 18.9273C81.134 18.9273 81.1577 19.1161 81.2526 19.1398C81.3934 19.1874 81.5342 19.1398 81.675 19.2335C81.675 19.1859 81.6513 19.1398 81.675 19.0923C81.7684 18.9987 81.887 19.1161 81.9804 19.0685C82.1686 18.9511 81.8159 18.7386 81.7225 18.5736C81.7225 18.5499 81.7462 18.5261 81.7462 18.5261C81.9344 18.691 82.0753 18.8798 82.3095 18.9972C82.4265 19.0447 82.7082 19.1146 82.6622 18.9734C82.5451 18.7148 82.3094 18.5023 82.1227 18.2675V18.1739C82.0753 18.1739 82.0753 18.1501 82.0515 18.1263V18.0327C81.9582 17.9851 81.9804 17.8915 81.9344 17.8202C81.8633 17.7028 81.9107 17.5378 81.8633 17.3966C81.8159 17.2554 81.7921 17.138 81.7699 16.9968C81.6988 16.5971 81.6054 16.2434 81.5579 15.8659C81.5105 15.4186 81.8159 15.0649 82.0278 14.6651C82.1923 14.3828 82.3806 14.1004 82.6859 13.9116C82.7571 13.6293 82.9439 13.393 83.1321 13.1582C83.3204 12.9278 83.6316 12.7881 83.8569 12.6871C84.1845 12.54 84.481 12.4478 84.481 12.4478H68.3599V24.9105H79.7763C80.2239 24.588 80.6701 24.4349 81.2941 24.1258C81.5891 23.9802 82.2635 23.6696 82.4918 23.4407V23.4451ZM78.8795 21.7584C78.8321 21.7584 78.7387 21.7822 78.7624 21.7346C78.7861 21.6172 78.9506 21.6172 79.044 21.5697C79.0915 21.5459 79.1611 21.4983 79.2086 21.5221C79.256 21.5934 79.3257 21.5697 79.3731 21.6157C79.2323 21.7569 79.044 21.6871 78.8795 21.7569V21.7584ZM75.285 21.2397C75.285 21.2397 75.2613 21.216 75.2613 21.1922C75.5666 20.7924 75.8008 20.4149 76.0128 19.9914C76.3181 19.8264 76.5716 19.5872 76.8117 19.3316C77.2105 18.908 77.6344 18.5305 78.1265 18.2957C78.3148 18.2244 78.5489 18.2482 78.7372 18.3195C78.666 18.4131 78.5489 18.3908 78.4556 18.4607C78.4318 18.4607 78.4081 18.4607 78.3844 18.4369C78.4081 18.4131 78.4081 18.3893 78.4081 18.3656C78.1739 18.6242 77.8449 18.743 77.6566 19.0492C77.5158 19.284 77.4224 19.5916 77.1171 19.6615C77.0237 19.6853 77.1408 19.5901 77.0934 19.6139C76.3656 20.0612 75.8483 20.6037 75.285 21.2383V21.2397ZM77.2342 19.6853C77.2105 19.7328 77.1853 19.7373 77.163 19.7789C77.1393 19.8264 77.1156 19.8502 77.0696 19.8725C77.0459 19.8725 77.0222 19.8725 77.0222 19.8487C77.0459 19.7551 77.1156 19.66 77.2105 19.6362C77.2342 19.6362 77.2342 19.66 77.2342 19.6838V19.6853ZM78.3251 23.2133C78.3147 23.2386 78.291 23.2609 78.2673 23.2817C78.297 23.2876 78.3177 23.301 78.2984 23.3188C78.2436 23.3694 78.1917 23.4199 78.1206 23.4437C78.1161 23.4452 78.1013 23.4481 78.085 23.4481C78.0568 23.4764 78.0272 23.5031 77.9975 23.5299C77.9694 23.5551 77.8404 23.5373 77.8804 23.5016C77.9397 23.4481 77.9946 23.3917 78.0539 23.3367C78.0865 23.3069 78.1221 23.2772 78.1517 23.243C78.168 23.2237 78.1813 23.2059 78.2021 23.191C78.2214 23.1776 78.3459 23.1658 78.3266 23.2133H78.3251ZM77.9042 23.0186C77.9042 23.0186 77.8997 23.0216 77.8982 23.0231C77.8108 23.0855 77.7233 23.1479 77.6299 23.2029C77.5291 23.2609 77.4239 23.3055 77.3202 23.356C77.3202 23.3545 77.3187 23.3515 77.3172 23.35C77.3098 23.3396 77.2935 23.3322 77.2772 23.3411C77.1882 23.3887 77.1126 23.4526 77.04 23.5209C77.0296 23.5313 77.0178 23.5417 77.0074 23.5522C77.0074 23.5522 77.0074 23.5522 77.0059 23.5536C77.0059 23.5536 77.0059 23.5536 77.0044 23.5551C76.9926 23.5655 76.9822 23.5774 76.9703 23.5878C76.9703 23.5878 76.9674 23.5908 76.9659 23.5923C76.9659 23.5923 76.9659 23.5923 76.9659 23.5938C76.9496 23.6101 76.9333 23.6279 76.9155 23.6488C76.9036 23.6621 76.8992 23.671 76.8844 23.6814C76.8695 23.6918 76.8295 23.6904 76.8325 23.6636C76.8325 23.6621 76.8325 23.6606 76.8325 23.6592C76.8191 23.6666 76.8043 23.674 76.791 23.68C76.7776 23.6859 76.7658 23.6933 76.7539 23.7008C76.7495 23.6993 76.7436 23.6978 76.7376 23.6978C76.7317 23.6978 76.7258 23.6993 76.7213 23.7037C76.6931 23.726 76.6635 23.7498 76.6368 23.7751C76.5879 23.8197 76.542 23.8687 76.5005 23.9207C76.5005 23.9207 76.5005 23.9207 76.499 23.9222C76.4975 23.9237 76.496 23.9267 76.4945 23.9281C76.4916 23.9311 76.4901 23.9341 76.4871 23.9371C76.4842 23.94 76.4827 23.943 76.4797 23.9475C76.4797 23.9475 76.4782 23.9489 76.4767 23.9504C76.4708 23.9579 76.4664 23.9668 76.4604 23.9742C76.456 23.9787 76.4501 23.9816 76.4412 23.9831C76.4382 23.9787 76.4352 23.9742 76.4323 23.9698C76.4293 23.9668 76.4278 23.9623 76.4263 23.9579C76.4189 23.946 76.413 23.9326 76.4056 23.9207C76.4041 23.9163 76.4011 23.9133 76.3997 23.9088C76.4249 23.8821 76.4501 23.8523 76.4738 23.8241C76.4753 23.8226 76.4767 23.8197 76.4782 23.8182C76.4871 23.8078 76.4945 23.7974 76.5019 23.7884C76.5153 23.7721 76.5286 23.7543 76.542 23.7379C76.5464 23.732 76.5509 23.726 76.5568 23.7186C76.582 23.6844 76.6072 23.6517 76.6309 23.619C76.6309 23.619 76.6309 23.6175 76.6324 23.6161C76.6353 23.6116 76.6398 23.6057 76.6428 23.6012C76.6546 23.5848 76.665 23.567 76.6754 23.5507C76.6843 23.5358 76.6932 23.5195 76.7006 23.5031C76.7006 23.5031 76.7006 23.5001 76.702 23.5001C76.702 23.4987 76.7035 23.4972 76.705 23.4957C76.705 23.4927 76.708 23.4897 76.7095 23.4868C76.7184 23.4689 76.7258 23.4511 76.7317 23.4318C76.7317 23.4303 76.7317 23.4273 76.7332 23.4258C76.7347 23.4214 76.7361 23.4154 76.7391 23.411C76.7421 23.4021 76.7436 23.3931 76.7465 23.3857C76.7465 23.3857 76.7465 23.3812 76.7465 23.3798C76.7495 23.3679 76.7524 23.3575 76.7554 23.3456C76.7554 23.3396 76.7554 23.3337 76.7524 23.3292C76.7776 23.2846 76.8088 23.243 76.8458 23.2014C76.8429 23.2029 76.8384 23.2059 76.8354 23.2074C76.8014 23.2297 76.7791 23.2594 76.748 23.2832C76.7228 23.3025 76.6754 23.2713 76.705 23.2475C76.7258 23.2326 76.7406 23.2148 76.7584 23.1985C76.7584 23.1985 76.7584 23.1955 76.7613 23.194C76.7999 23.1554 76.8369 23.1063 76.8814 23.0751C76.9081 23.0558 76.9318 23.0394 76.954 23.0201C76.957 23.0171 76.9614 23.0142 76.9644 23.0112C76.9807 22.9889 76.9985 22.9696 77.0163 22.9518C77.0163 22.9518 77.0178 22.9503 77.0192 22.9488C77.2446 22.7318 77.6225 22.7407 77.919 22.6025C78.0361 22.555 78.1769 22.6263 78.2955 22.6025C78.3666 22.6025 78.4363 22.6025 78.5074 22.6501C78.297 22.766 78.1013 22.8953 77.9086 23.0171L77.9042 23.0186ZM78.3859 21.3809C78.3622 21.3571 78.4571 21.3809 78.4793 21.3334H78.291C78.2673 21.3334 78.2673 21.3096 78.2673 21.2858C78.1502 21.3096 78.0094 21.3571 77.8908 21.3794C77.7263 21.427 77.5855 21.5444 77.3972 21.5919C77.1393 21.6856 76.9273 21.8981 76.6457 21.9917C76.622 21.9917 76.622 21.9679 76.622 21.9442C76.6457 21.8728 76.7391 21.8505 76.7865 21.7792C76.7865 21.7554 76.7865 21.7316 76.7628 21.7316C76.9511 21.4731 77.209 21.3319 77.4447 21.1194V21.048C77.5158 20.9544 77.6329 20.9068 77.6789 20.7894C77.7026 20.7181 77.796 20.6245 77.9131 20.5769C77.8893 20.5531 77.8419 20.5531 77.8419 20.5056C77.7485 20.5056 77.6537 20.5531 77.5603 20.4818C77.6047 20.4372 77.6537 20.4135 77.707 20.3986C77.6863 20.3941 77.6685 20.3837 77.6537 20.3644C77.6299 20.3169 77.6996 20.2648 77.7708 20.247C77.8641 20.2232 77.9827 20.2232 78.0524 20.1534C77.8879 20.1296 77.6996 20.2009 77.5351 20.1058C77.6522 19.7997 77.8404 19.5411 78.1221 19.3999C78.1458 19.3999 78.1932 19.3999 78.1932 19.4237C78.1932 19.5411 78.1221 19.6362 78.005 19.6585C78.1932 19.7061 78.3815 19.7061 78.5682 19.7997C78.5445 19.8472 78.4971 19.8235 78.4748 19.8235C78.5919 19.8948 78.7327 19.8472 78.8513 19.9409C78.7802 20.0122 78.7105 19.9409 78.6394 19.9409C79.3672 20.1534 80.1424 20.3183 80.7531 20.788C80.2358 21.0465 79.6962 21.1654 79.133 21.2828C79.0618 21.2828 79.0159 21.2828 78.9447 21.2591C78.9447 21.2828 78.9447 21.3304 78.921 21.3304C78.8276 21.3304 78.7565 21.3304 78.6868 21.3779C78.5934 21.4255 78.4511 21.4493 78.3814 21.3779L78.3859 21.3809Z" fill="#273375"/>
<path d="M102.545 12.4508H89.1736C89.1736 12.4508 89.1988 12.4553 89.3011 12.5103C89.4093 12.5682 89.5501 12.644 89.6391 12.6901C89.811 12.7807 89.9785 12.8937 90.0867 13.0675C90.1341 13.1389 90.2038 13.2801 90.1579 13.3737C90.1104 13.4911 90.0867 13.6798 89.9696 13.7274C89.8288 13.7987 89.6405 13.7987 89.476 13.7749C89.3826 13.7749 89.2878 13.7512 89.1944 13.7274C89.5472 13.8686 89.8762 14.0335 90.1104 14.3635C90.1341 14.411 90.2275 14.4348 90.3224 14.4348C90.3461 14.4348 90.3461 14.4823 90.3461 14.5061C90.2987 14.5537 90.2527 14.5775 90.275 14.6473H90.3461C90.4632 14.5997 90.4395 14.3649 90.604 14.4348C90.7211 14.5061 90.7686 14.6696 90.6974 14.7885C90.604 14.8821 90.5092 14.9534 90.4158 15.0233C90.3921 15.0708 90.3921 15.1407 90.4158 15.1883C90.4869 15.2819 90.5092 15.377 90.5329 15.4706C90.604 15.6356 90.6263 15.8243 90.6974 15.9893C90.7908 16.343 90.8857 16.6952 90.8619 17.0489C90.8619 17.2376 90.7685 17.4026 90.8382 17.5898C90.8856 17.7786 91.0028 17.9198 91.0961 18.0847C91.1895 18.2259 91.2844 18.3195 91.354 18.4622C91.4949 18.697 91.7528 18.9333 91.6357 19.2157C91.5645 19.3806 91.3066 19.3568 91.1421 19.4505C91.0013 19.5679 91.1184 19.7566 91.1895 19.874C91.3066 20.0865 91.0487 20.2277 90.8842 20.2976C90.9316 20.3689 91.025 20.3451 91.0487 20.3912C91.0724 20.5086 91.1895 20.5799 91.1198 20.6973C91.0265 20.8385 90.7433 20.9098 90.8856 21.1209C90.979 21.2858 90.9183 21.4686 90.8619 21.6395C90.7908 21.852 90.604 21.9457 90.4395 21.9932C90.2987 22.0408 90.1341 22.0408 89.9933 22.017C89.9459 21.9932 89.8999 21.9694 89.8525 21.9694C89.4538 21.9219 89.0536 21.8045 88.6548 21.8045C88.5377 21.8283 88.4206 21.852 88.3258 21.8981C88.2191 21.9769 88.1257 22.0616 88.0412 22.1508C88.0412 22.1508 88.0397 22.1522 88.0382 22.1537C88.0204 22.173 88.0041 22.1909 87.9863 22.2102C87.976 22.2221 87.9656 22.234 87.9567 22.2459C87.9493 22.2533 87.9434 22.2622 87.9374 22.2696C87.8692 22.3558 87.807 22.4465 87.7521 22.5416C87.7492 22.5475 87.7447 22.5535 87.7418 22.5594C87.7358 22.5698 87.7299 22.5817 87.724 22.5921C87.6469 22.7348 87.5891 22.8819 87.5461 23.0246C87.386 23.5641 87.4557 24.0262 87.5683 24.1392C87.5995 24.1704 88.3436 24.4007 88.8624 24.6326C89.1055 24.7411 89.2759 24.8243 89.4167 24.9135H102.548V12.4508H102.545Z" fill="#E30613"/>
<path d="M89.9683 16.9983C90.0617 17.0221 90.2025 17.0221 90.2025 17.0696C90.1551 17.2584 89.8734 17.3044 89.7326 17.4932H89.6615C89.5903 17.5407 89.614 17.6581 89.5444 17.6581C89.4732 17.6344 89.4036 17.6581 89.3324 17.6819C89.4258 17.7756 89.5444 17.8469 89.6852 17.8231C89.7089 17.8231 89.7563 17.8707 89.7563 17.9167C89.7563 17.9167 89.7801 17.9167 89.8038 17.893C89.8275 17.893 89.8512 17.893 89.8512 17.9167V18.0104C89.7801 18.104 89.663 18.0579 89.5696 18.0817C89.7578 18.1292 89.9461 18.1292 90.1091 18.0817C90.2499 18.0341 90.1091 17.7993 90.2025 17.6819C90.1551 17.6819 90.2025 17.6106 90.1551 17.6106C90.2025 17.563 90.2485 17.4932 90.2959 17.4694C90.3433 17.4694 90.413 17.4456 90.4367 17.3981C90.4367 17.3505 90.3433 17.3282 90.3655 17.2807C90.5064 17.187 90.6235 17.0459 90.5775 16.9032C90.5538 16.8319 90.3656 16.8319 90.2485 16.7858C90.1314 16.7382 89.9905 16.7858 89.8497 16.8096C89.7326 16.8096 89.614 16.8809 89.4969 16.9032C89.3324 16.9508 89.1916 17.0444 89.0508 17.138C89.2153 17.0667 89.3799 17.0444 89.5681 16.9968C89.7089 16.9968 89.829 16.9626 89.9668 16.9968L89.9683 16.9983Z" fill="#9D9D9C"/>
<path d="M56.1634 12.4507H55.7188V69.6859H56.1634V12.4507Z" fill="#1D1D1B"/>
<path d="M0.210938 20.9915V12.4612H4.78076V13.4599H1.35376V16.1527H4.29458V17.1395H1.35376V20.9901H0.210938V20.9915Z" fill="#1D1D1B"/>
<path d="M6.83523 13.2533C6.63216 13.2533 6.46022 13.1819 6.3194 13.0393C6.17711 12.8966 6.10596 12.7242 6.10596 12.5206C6.10596 12.317 6.17711 12.1565 6.3194 12.0153C6.4617 11.8727 6.63364 11.8013 6.83523 11.8013C7.03682 11.8013 7.20728 11.8727 7.34513 12.0153C7.48298 12.158 7.55116 12.3259 7.55116 12.5206C7.55116 12.7153 7.4815 12.8966 7.34513 13.0393C7.20728 13.1819 7.03682 13.2533 6.83523 13.2533ZM6.31199 20.9915V14.8494H7.34513V20.9915H6.31199Z" fill="#1D1D1B"/>
<path d="M9.53273 20.9915V14.8494H10.5659V15.5434C10.8164 15.267 11.1069 15.0411 11.4345 14.8672C11.7621 14.6933 12.1534 14.6057 12.6069 14.6057C13.2873 14.6057 13.8565 14.833 14.3145 15.2878C14.7725 15.7425 15.0008 16.4054 15.0008 17.2747V20.9915H13.9558V17.3119C13.9558 16.768 13.8135 16.3429 13.5304 16.0383C13.2473 15.7336 12.8693 15.5806 12.3994 15.5806C11.9622 15.5806 11.5946 15.692 11.2996 15.9164C11.0031 16.1393 10.7586 16.4143 10.5644 16.7382V20.9915H9.53125H9.53273Z" fill="#1D1D1B"/>
<path d="M18.7586 21.2353C18.1583 21.2353 17.6721 21.0763 17.3 20.7597C16.9265 20.4432 16.7412 20.0167 16.7412 19.4802C16.7412 19.0091 16.9132 18.6108 17.257 18.2853C17.6009 17.9599 18.1019 17.7459 18.7586 17.6389L20.813 17.297V16.8705C20.813 16.4485 20.6751 16.1185 20.3994 15.8837C20.1237 15.6489 19.771 15.53 19.3426 15.53C18.9854 15.53 18.6637 15.6058 18.3761 15.7559C18.0886 15.906 17.8559 16.1156 17.678 16.3831L16.8998 15.7857C17.1666 15.4201 17.512 15.1318 17.933 14.9207C18.3539 14.7097 18.8327 14.6042 19.3678 14.6042C20.146 14.6042 20.7537 14.8137 21.191 15.2313C21.6282 15.6504 21.8476 16.1958 21.8476 16.8705V20.9901H20.8145V20.2099C20.5877 20.5353 20.2912 20.7865 19.9266 20.9648C19.562 21.1431 19.1736 21.2323 18.7601 21.2323L18.7586 21.2353ZM17.7743 19.4445C17.7743 19.7046 17.8796 19.9245 18.0901 20.1029C18.3006 20.2812 18.5807 20.3704 18.929 20.3704C19.3337 20.3704 19.6968 20.2693 20.017 20.0657C20.3372 19.8621 20.6025 19.5872 20.813 19.2364V18.0669L19.0017 18.3834C18.5807 18.4488 18.2709 18.5751 18.0723 18.7609C17.8737 18.9481 17.7743 19.1755 17.7743 19.443V19.4445Z" fill="#1D1D1B"/>
<path d="M23.9361 20.9915V14.8494H24.9692V15.5434C25.2197 15.267 25.5102 15.0411 25.8378 14.8672C26.1654 14.6933 26.5567 14.6057 27.0103 14.6057C27.6906 14.6057 28.2598 14.833 28.7178 15.2878C29.1759 15.7425 29.4041 16.4054 29.4041 17.2747V20.9915H28.3591V17.3119C28.3591 16.768 28.2168 16.3429 27.9337 16.0383C27.6506 15.7336 27.2726 15.5806 26.8028 15.5806C26.3655 15.5806 25.9979 15.692 25.7029 15.9164C25.4065 16.1393 25.1619 16.4143 24.9677 16.7382V20.9915H23.9346H23.9361Z" fill="#1D1D1B"/>
<path d="M34.3044 20.2603C34.6765 20.2603 35.0129 20.1771 35.3138 20.0107C35.6133 19.8442 35.8564 19.6228 36.0431 19.3464L36.8702 19.9795C36.5871 20.3614 36.2254 20.6661 35.7882 20.8934C35.3509 21.1208 34.8529 21.2352 34.2926 21.2352C33.7901 21.2352 33.3321 21.1461 32.9185 20.9677C32.505 20.7894 32.1551 20.5501 31.8676 20.2485C31.58 19.9483 31.3577 19.596 31.1991 19.1948C31.0405 18.7935 30.9619 18.3685 30.9619 17.9212C30.9619 17.4739 31.0405 17.0503 31.1991 16.6476C31.3577 16.2448 31.58 15.8941 31.8676 15.5939C32.1551 15.2937 32.5064 15.0544 32.9185 14.8746C33.3321 14.6963 33.7901 14.6071 34.2926 14.6071C34.844 14.6071 35.339 14.723 35.7822 14.9549C36.224 15.1867 36.5856 15.4899 36.8702 15.8629L36.0431 16.496C35.8564 16.2196 35.6118 15.9981 35.3079 15.8317C35.004 15.6652 34.6661 15.582 34.2926 15.582C33.9679 15.582 33.667 15.6429 33.3869 15.7648C33.1068 15.8867 32.8711 16.0531 32.6754 16.2641C32.4812 16.4752 32.3271 16.7234 32.2129 17.0072C32.0988 17.2911 32.0425 17.5957 32.0425 17.9212C32.0425 18.2466 32.0988 18.5528 32.2129 18.8411C32.3271 19.1294 32.4827 19.3776 32.6813 19.5842C32.88 19.7907 33.1171 19.9557 33.3928 20.0775C33.6685 20.1994 33.9724 20.2603 34.3044 20.2603Z" fill="#1D1D1B"/>
<path d="M43.493 19.9795C43.2099 20.3614 42.8423 20.666 42.3931 20.8934C41.944 21.1208 41.4356 21.2352 40.8679 21.2352C40.358 21.2352 39.894 21.1461 39.476 20.9677C39.0581 20.7894 38.7068 20.5501 38.4192 20.2484C38.1316 19.9482 37.9108 19.596 37.7566 19.1948C37.6025 18.792 37.5254 18.3685 37.5254 17.9212C37.5254 17.4738 37.598 17.0235 37.7448 16.6178C37.89 16.2121 38.0946 15.8599 38.3584 15.5642C38.6223 15.2669 38.9454 15.0336 39.3308 14.8627C39.7162 14.6918 40.1431 14.6071 40.6129 14.6071C41.0265 14.6071 41.403 14.674 41.7439 14.8077C42.0848 14.9415 42.3739 15.1273 42.6125 15.3621C42.8512 15.5984 43.0364 15.8792 43.1654 16.2092C43.2944 16.5376 43.3596 16.8943 43.3596 17.2762C43.3596 17.3981 43.3507 17.5184 43.3359 17.6358C43.3196 17.7532 43.3033 17.8528 43.2869 17.9345H38.5956V17.9583C38.5956 18.633 38.809 19.1918 39.2344 19.6347C39.6598 20.0775 40.2127 20.299 40.8931 20.299C41.2814 20.299 41.6342 20.2157 41.9499 20.0493C42.2657 19.8829 42.5251 19.6614 42.7281 19.385L43.4945 19.9824L43.493 19.9795ZM40.6248 15.4943C40.1297 15.4943 39.7132 15.6325 39.3723 15.909C39.0314 16.1854 38.8016 16.5866 38.6801 17.1157H42.3146C42.2983 16.6773 42.1382 16.2968 41.8343 15.9758C41.5305 15.6548 41.1273 15.4943 40.6248 15.4943ZM41.1599 13.873H40.1505L41.4149 11.8503H42.5814L41.1599 13.873Z" fill="#1D1D1B"/>
<path d="M25.5161 36.6211V27.4815H26.5493V28.1636C26.825 27.8634 27.1466 27.633 27.5157 27.4755C27.8848 27.3165 28.2879 27.2377 28.7252 27.2377C29.204 27.2377 29.6368 27.3269 30.0252 27.5052C30.4135 27.6836 30.7441 27.9243 31.0153 28.2245C31.2866 28.5247 31.497 28.8769 31.6468 29.2782C31.7965 29.6809 31.8721 30.1045 31.8721 30.5518C31.8721 30.9991 31.7965 31.4227 31.6468 31.8254C31.497 32.2281 31.2866 32.5789 31.0153 32.8791C30.7441 33.1793 30.4135 33.42 30.0252 33.5984C29.6368 33.7767 29.2025 33.8659 28.7252 33.8659C28.2879 33.8659 27.8848 33.7871 27.5157 33.6281C27.1466 33.4691 26.825 33.2402 26.5493 32.94V36.6196H25.5161V36.6211ZM26.5493 31.7229C26.7834 32.0959 27.0799 32.3857 27.4371 32.5878C27.7929 32.7914 28.1827 32.8924 28.6037 32.8924C28.9283 32.8924 29.2247 32.8315 29.4975 32.7097C29.7687 32.5878 30 32.4213 30.1897 32.2103C30.3794 31.9993 30.5276 31.7511 30.6329 31.4672C30.7381 31.1834 30.7915 30.8787 30.7915 30.5533C30.7915 30.2278 30.7381 29.9232 30.6329 29.6393C30.5276 29.3555 30.3794 29.1073 30.1897 28.8962C29.9985 28.6852 29.7687 28.5188 29.4975 28.3969C29.2262 28.275 28.9283 28.2141 28.6037 28.2141C28.1827 28.2141 27.7929 28.3152 27.4371 28.5188C27.0799 28.7224 26.7849 29.0107 26.5493 29.3837V31.7229Z" fill="#1D1D1B"/>
<path d="M35.1062 33.8674C34.5059 33.8674 34.0197 33.7083 33.6477 33.3918C33.2742 33.0753 33.0889 32.6487 33.0889 32.1122C33.0889 31.6411 33.2608 31.2429 33.6047 30.9174C33.9486 30.5919 34.4496 30.3779 35.1062 30.2709L37.1606 29.9291V29.5026C37.1606 29.0806 37.0228 28.7506 36.7471 28.5158C36.4714 28.281 36.1186 28.1621 35.6902 28.1621C35.333 28.1621 35.0114 28.2379 34.7238 28.388C34.4362 28.5381 34.2035 28.7477 34.0257 29.0152L33.2475 28.4177C33.5143 28.0522 33.8596 27.7638 34.2806 27.5528C34.7016 27.3418 35.1803 27.2363 35.7154 27.2363C36.4936 27.2363 37.1014 27.4458 37.5386 27.8634C37.9759 28.2825 38.1953 28.8279 38.1953 29.5026V33.6222H37.1621V32.8419C36.9353 33.1674 36.6389 33.4186 36.2743 33.5969C35.9096 33.7752 35.5213 33.8644 35.1077 33.8644L35.1062 33.8674ZM34.122 32.0766C34.122 32.3367 34.2272 32.5566 34.4377 32.7349C34.6482 32.9133 34.9284 33.0024 35.2767 33.0024C35.6813 33.0024 36.0445 32.9014 36.3647 32.6978C36.6848 32.4942 36.9502 32.2192 37.1606 31.8685V30.6989L35.3493 31.0155C34.9284 31.0809 34.6186 31.2072 34.4199 31.393C34.2213 31.5802 34.122 31.8076 34.122 32.0751V32.0766Z" fill="#1D1D1B"/>
<path d="M40.2842 33.6236V27.4815H41.3173V28.2498C41.5441 27.9823 41.802 27.7668 42.0896 27.6033C42.3771 27.4414 42.7151 27.3596 43.1049 27.3596C43.2028 27.3596 43.2947 27.3656 43.3851 27.3775C43.474 27.3893 43.5555 27.4087 43.6282 27.4324V28.5054C43.5392 28.4816 43.4458 28.4608 43.348 28.4445C43.2502 28.4281 43.142 28.4207 43.0204 28.4207C42.6232 28.4207 42.2867 28.5158 42.011 28.7075C41.7353 28.8992 41.5041 29.1489 41.3188 29.4565V33.6236H40.2857H40.2842Z" fill="#1D1D1B"/>
<path d="M235.79 69.5284C251.354 69.5284 263.971 56.8786 263.971 41.2742C263.971 25.6698 251.354 13.02 235.79 13.02C220.226 13.02 207.609 25.6698 207.609 41.2742C207.609 56.8786 220.226 69.5284 235.79 69.5284Z" fill="white"/>
<path d="M235.78 69.6592C220.019 69.6592 207.196 56.8027 207.196 41.0007C207.196 25.1988 220.019 12.3423 235.78 12.3423C251.541 12.3423 264.364 25.1988 264.364 41.0007C264.364 56.8027 251.541 69.6592 235.78 69.6592ZM235.78 13.9161C220.885 13.9161 208.767 26.0652 208.767 40.9993C208.767 55.9333 220.885 68.0824 235.78 68.0824C250.675 68.0824 262.793 55.9333 262.793 40.9993C262.793 26.0652 250.675 13.9161 235.78 13.9161Z" fill="#139B62"/>
<path d="M235.78 55.59C227.756 55.59 221.229 49.0451 221.229 41.0007C221.229 32.9563 227.756 26.4114 235.78 26.4114C243.803 26.4114 250.331 32.9563 250.331 41.0007C250.331 49.0451 243.803 55.59 235.78 55.59ZM235.78 27.0014C228.081 27.0014 221.817 33.2818 221.817 41.0007C221.817 48.7197 228.081 55.0001 235.78 55.0001C243.479 55.0001 249.743 48.7197 249.743 41.0007C249.743 33.2818 243.479 27.0014 235.78 27.0014Z" fill="#139B62"/>
<path d="M250.046 37.7205L245.262 46.0282L249.752 48.6274L254.536 40.3197L250.046 37.7205Z" fill="#E20A17"/>
<path d="M245.558 35.1237L240.774 43.4315L245.265 46.0307L250.049 37.723L245.558 35.1237Z" fill="white"/>
<path d="M241.065 32.5223L236.281 40.8301L240.771 43.4293L245.555 35.1216L241.065 32.5223Z" fill="#263473"/>
<path d="M241.257 33.2461L253.809 40.5118L249.554 47.8994L237.003 40.6337L241.257 33.2461ZM241.063 32.5194L236.278 40.8269L249.749 48.6246L254.533 40.3156L241.063 32.5179V32.5194Z" fill="#253473"/>
<path d="M241.226 31.9151L231.714 48.4328L232.223 48.7278L241.735 32.2101L241.226 31.9151Z" fill="#253473"/>
<path d="M230.498 32.4838L217.027 40.2816L221.811 48.5893L235.282 40.7916L230.498 32.4838Z" fill="#253473"/>
<path d="M227.587 43.7902L227.756 43.4261L228.14 43.4707L227.848 43.2121L228.023 42.8599L227.685 43.0561L227.396 42.8019L227.47 43.1794L227.129 43.3771L227.51 43.4083L227.587 43.7902Z" fill="#FFE91A"/>
<path d="M224.562 38.3688L224.729 38.0106L225.115 38.0493L224.827 37.7892L224.999 37.4385L224.661 37.6346L224.371 37.3879L224.446 37.758L224.108 37.9542L224.486 37.9809L224.562 38.3688Z" fill="#FFE91A"/>
<path d="M223.262 42.6771L223.428 42.3189L223.822 42.3516L223.535 42.093L223.714 41.7482L223.372 41.9459L223.075 41.6962L223.15 42.0752L222.809 42.2728L223.184 42.2922L223.262 42.6771Z" fill="#FFE91A"/>
<path d="M228.868 39.421L229.036 39.0629L229.424 39.0985L229.139 38.834L229.313 38.4966L228.975 38.6928L228.683 38.4417L228.752 38.8206L228.415 39.0168L228.79 39.0361L228.868 39.421Z" fill="#FFE91A"/>
<path d="M226.198 37.9141L226.37 37.5529L226.759 37.5901L226.471 37.33L226.644 36.9838L226.306 37.1784L226.013 36.9243L226.084 37.3077L225.743 37.5054L226.123 37.5321L226.198 37.9141Z" fill="#FFE91A"/>
<path d="M227.767 38.3346L227.939 37.9735L228.327 38.0106L228.036 37.7476L228.211 37.4013L227.873 37.596L227.58 37.3448L227.647 37.7268L227.309 37.923L227.691 37.9482L227.767 38.3346Z" fill="#FFE91A"/>
<path d="M229.185 40.977L229.356 40.6218L229.748 40.656L229.459 40.3974L229.636 40.0437L229.295 40.2413L229.001 39.9902L229.071 40.3706L228.73 40.5683L229.111 40.5995L229.185 40.977Z" fill="#FFE91A"/>
<path d="M228.745 42.5761L228.914 42.212L229.305 42.2521L229.016 41.9876L229.193 41.6398L228.856 41.8345L228.56 41.5863L228.629 41.9653L228.292 42.1614L228.671 42.1882L228.745 42.5761Z" fill="#FFE91A"/>
<path d="M226.028 44.1483L226.197 43.7842L226.591 43.8229L226.299 43.5613L226.475 43.2121L226.135 43.4097L225.843 43.1586L225.912 43.5375L225.57 43.7367L225.949 43.7634L226.028 44.1483Z" fill="#FFE91A"/>
<path d="M224.497 43.701L224.666 43.3459L225.052 43.3785L224.768 43.1229L224.943 42.7707L224.602 42.9684L224.311 42.7217L224.378 43.0977L224.04 43.2938L224.421 43.3236L224.497 43.701Z" fill="#FFE91A"/>
<path d="M222.85 41.1806L223.018 40.8224L223.41 40.8566L223.121 40.5936L223.299 40.2443L222.957 40.442L222.66 40.1938L222.73 40.5728L222.394 40.7689L222.772 40.7957L222.85 41.1806Z" fill="#FFE91A"/>
<path d="M223.244 39.635L223.412 39.2753L223.8 39.3125L223.512 39.0524L223.686 38.7062L223.349 38.9008L223.05 38.6482L223.127 39.0301L222.785 39.2278L223.164 39.2545L223.244 39.635Z" fill="#FFE91A"/>
<path d="M230.329 31.9226L229.819 32.2176L239.331 48.7352L239.841 48.4403L230.329 31.9226Z" fill="#253473"/>
<path d="M214.246 30.6053L216.288 27.0222L217.321 27.6152L215.99 29.9499L217.443 30.7836L218.574 28.7996L219.608 29.3911L218.477 31.3751L221.086 32.8716L220.375 34.1185L214.246 30.6053Z" fill="#139B62"/>
<path d="M218.716 24.1436L220.373 22.7586C221.566 21.7614 222.813 21.7614 223.652 22.7704C224.2 23.4303 224.289 24.1852 223.945 24.9075L227.642 25.8987L226.348 26.9792L223.074 25.9909L222.507 26.4635L224.334 28.6615L223.234 29.5799L218.716 24.1421V24.1436ZM220.578 24.1421L221.746 25.548L222.365 25.0294C222.831 24.6415 222.875 24.1436 222.507 23.7008C222.165 23.2891 221.663 23.2356 221.197 23.6235L220.578 24.1421Z" fill="#139B62"/>
<path d="M228.872 18.1025L230.688 17.6284L235.055 23.8033L233.581 24.1882L232.465 22.5787L229.732 23.292L229.541 25.2433L228.067 25.6282L228.875 18.1025H228.872ZM231.727 21.5057L230.12 19.1755L229.852 21.9947L231.726 21.5057H231.727Z" fill="#139B62"/>
<path d="M237.483 16.9433L239.281 17.3178L241.332 22.9725L242.371 17.9613L243.773 18.2541L242.337 25.1854L240.539 24.8109L238.488 19.1561L237.449 24.1659L236.045 23.8731L237.483 16.9433Z" fill="#139B62"/>
<path d="M249.273 27.5468L249.624 28.9304C248.575 29.2217 247.401 29.0151 246.394 28.2215C244.644 26.8394 244.507 24.5448 245.756 22.9562C247.002 21.3675 249.26 20.9618 251.01 22.3424C252.017 23.136 252.485 24.2387 252.461 25.3146L251.031 25.3057C251.069 24.6028 250.813 23.8999 250.18 23.399C249.135 22.5742 247.748 22.8046 246.912 23.8686C246.076 24.9327 246.178 26.3386 247.224 27.1649C247.857 27.6657 248.6 27.7489 249.273 27.5468Z" fill="#139B62"/>
<path d="M255.618 27.5854L257.609 31.1953L256.567 31.7734L255.269 29.4193L253.804 30.2322L254.907 32.2311L253.866 32.8092L252.764 30.8089L251.175 31.6901L252.473 34.0427L251.433 34.6208L249.44 31.011L255.618 27.5854Z" fill="#139B62"/>
<path d="M219.43 46.3642L220.391 48.3006C221.081 49.6946 220.795 50.9103 219.621 51.4958C218.854 51.8777 218.101 51.7915 217.48 51.2877L215.664 54.6657L214.914 53.1543L216.629 50.188L216.301 49.5267L213.746 50.8018L213.108 49.5163L219.429 46.3642H219.43ZM219.002 48.1817L217.368 48.9961L217.727 49.7199C217.997 50.2638 218.47 50.4213 218.984 50.1657C219.463 49.9279 219.63 49.4479 219.361 48.9055L219.002 48.1817Z" fill="#139B62"/>
<path d="M222.587 51.9609L225.547 54.8262L224.72 55.6852L222.79 53.8171L221.628 55.0238L223.268 56.611L222.442 57.47L220.801 55.8828L219.541 57.1921L221.471 59.0602L220.644 59.9191L217.684 57.0539L222.587 51.9609Z" fill="#139B62"/>
<path d="M226.787 55.593L228.073 56.2217L225.555 61.4112L227.965 62.5882L227.397 63.7608L223.698 61.9551L226.787 55.593Z" fill="#139B62"/>
<path d="M233.464 57.9351L235.334 58.0897L237.416 65.3643L235.898 65.2395L235.377 63.3491L232.562 63.1158L231.738 64.8932L230.22 64.7669L233.464 57.9337V57.9351ZM235.034 62.0933L234.289 59.3633L233.104 61.9328L235.034 62.0933Z" fill="#139B62"/>
<path d="M238.593 58.1432L240.317 57.5101L245.035 61.2239L243.279 56.4208L244.623 55.9274L247.054 62.5704L245.33 63.2049L240.611 59.4911L242.367 64.2943L241.023 64.7877L238.593 58.1432Z" fill="#139B62"/>
<path d="M252.916 54.9896L254.329 54.8068C254.491 55.8858 254.147 57.0301 253.239 57.9351C251.661 59.5119 249.372 59.3707 247.949 57.9381C246.526 56.5055 246.396 54.2094 247.974 52.6341C248.882 51.7291 250.03 51.3947 251.092 51.5478L250.911 52.97C250.22 52.8466 249.492 53.0175 248.92 53.5867C247.977 54.5289 248.038 55.9363 248.991 56.8963C249.944 57.8564 251.35 57.9232 252.292 56.9825C252.864 56.4119 253.036 55.6836 252.916 54.9896Z" fill="#139B62"/>
<path d="M250.511 49.763L252.201 46.0031L253.286 46.492L252.183 48.9441L253.709 49.6337L254.646 47.5516L255.731 48.0405L254.794 50.1241L256.45 50.8716L257.551 48.4195L258.637 48.9099L256.945 52.6713L250.511 49.763Z" fill="#139B62"/>
<path d="M333.214 24.0485H289.494V53.8127H333.214V24.0485Z" fill="white"/>
<path d="M332.371 24.8658H290.334V52.964H332.371V24.8658Z" fill="#034EA2"/>
<path d="M310.458 30.9872L311.344 30.3378L312.231 30.9872L311.894 29.938L312.795 29.2886H311.684L311.344 28.226L311.005 29.2901L309.895 29.2886L310.794 29.938L310.458 30.9872Z" fill="#FAEA27"/>
<path d="M305.867 32.2237L306.753 31.5742L307.64 32.2237L307.303 31.1745L308.203 30.525H307.093L306.753 29.4625L306.412 30.5265L305.304 30.525L306.203 31.1745L305.867 32.2237Z" fill="#FAEA27"/>
<path d="M303.395 32.8375L303.056 33.9015L301.945 33.9L302.845 34.5495L302.509 35.5987L303.395 34.9507L304.281 35.5987L303.945 34.5495L304.845 33.9H303.734L303.395 32.8375Z" fill="#FAEA27"/>
<path d="M302.163 39.5473L303.049 40.1952L302.713 39.146L303.613 38.4966H302.502L302.163 37.434L301.824 38.4996L300.712 38.4966L301.613 39.146L301.275 40.1952L302.163 39.5473Z" fill="#FAEA27"/>
<path d="M303.734 43.1081L303.395 42.044L303.056 43.1081H301.945L302.845 43.756L302.509 44.8067L303.395 44.1558L304.281 44.8067L303.945 43.756L304.845 43.1081H303.734Z" fill="#FAEA27"/>
<path d="M307.101 46.4816L306.76 45.419L306.42 46.4831L305.31 46.4816L306.211 47.131L305.873 48.1802L306.761 47.5308L307.648 48.1802L307.31 47.131L308.211 46.4816H307.101Z" fill="#FAEA27"/>
<path d="M311.685 47.7046L311.344 46.6406L311.005 47.7046H309.895L310.796 48.3526L310.458 49.4033L311.346 48.7538L312.232 49.4033L311.894 48.3526L312.795 47.7046H311.685Z" fill="#FAEA27"/>
<path d="M316.27 46.4816L315.93 45.419L315.589 46.4831L314.48 46.4816L315.38 47.131L315.042 48.1802L315.93 47.5308L316.817 48.1802L316.479 47.131L317.38 46.4816H316.27Z" fill="#FAEA27"/>
<path d="M319.636 43.1081L319.295 42.044L318.954 43.1081H317.845L318.746 43.756L318.408 44.8067L319.295 44.1558L320.181 44.8067L319.843 43.756L320.745 43.1081H319.636Z" fill="#FAEA27"/>
<path d="M321.965 38.4847H320.855L320.514 37.4207L320.174 38.4847H319.064L319.965 39.1327L319.627 40.1834L320.514 39.5324L321.4 40.1834L321.064 39.1327L321.965 38.4847Z" fill="#FAEA27"/>
<path d="M318.408 35.5853L319.295 34.9359L320.181 35.5853L319.843 34.5361L320.745 33.8882H319.636L319.295 32.8241L318.954 33.8882H317.845L318.746 34.5361L318.408 35.5853Z" fill="#FAEA27"/>
<path d="M315.942 29.4625L315.603 30.528L314.493 30.525L315.392 31.176L315.056 32.2252L315.944 31.5742L316.83 32.2252L316.492 31.176L317.393 30.525H316.282L315.942 29.4625Z" fill="#FAEA27"/>
<path d="M337.576 31.1403V24.8644H341.867V25.9255H338.839V27.4116H341.452V28.4727H338.839V31.1403H337.574H337.576Z" fill="#034EA2"/>
<path d="M342.9 25.9775V24.8644H344.101V25.9775H342.9ZM342.9 31.1403V26.5942H344.101V31.1403H342.9Z" fill="#034EA2"/>
<path d="M349.456 31.1403H348.256V28.8205C348.256 28.3301 348.23 28.012 348.179 27.8679C348.127 27.7237 348.044 27.6123 347.928 27.532C347.812 27.4518 347.675 27.4116 347.512 27.4116C347.304 27.4116 347.117 27.4681 346.953 27.5825C346.788 27.697 346.674 27.8486 346.613 28.0358C346.553 28.2231 346.521 28.5723 346.521 29.0806V31.1403H345.322V26.5943H346.437V27.2615C346.833 26.7473 347.331 26.4902 347.931 26.4902C348.196 26.4902 348.438 26.5378 348.657 26.6329C348.877 26.728 349.043 26.8499 349.155 26.9985C349.268 27.1471 349.347 27.315 349.39 27.5038C349.433 27.6925 349.456 27.9615 349.456 28.3122V31.1374V31.1403Z" fill="#034EA2"/>
<path d="M351.57 27.9808L350.48 27.7832C350.604 27.3433 350.814 27.0178 351.112 26.8068C351.411 26.5958 351.855 26.4902 352.444 26.4902C352.98 26.4902 353.378 26.5541 353.641 26.6805C353.903 26.8068 354.087 26.9688 354.194 27.1634C354.3 27.3596 354.354 27.7178 354.354 28.2409L354.34 29.6453C354.34 30.045 354.36 30.3393 354.398 30.5295C354.437 30.7197 354.508 30.9233 354.614 31.1403H353.427C353.396 31.0601 353.358 30.9427 353.312 30.7851C353.292 30.7138 353.277 30.6662 353.269 30.644C353.064 30.8431 352.845 30.9932 352.61 31.0928C352.376 31.1923 352.127 31.2429 351.863 31.2429C351.396 31.2429 351.029 31.1165 350.759 30.8624C350.491 30.6083 350.356 30.2873 350.356 29.8994C350.356 29.6423 350.417 29.4134 350.54 29.2128C350.663 29.0122 350.833 28.8576 351.054 28.7506C351.275 28.6436 351.592 28.55 352.009 28.4698C352.569 28.3642 352.959 28.2662 353.175 28.174V28.0536C353.175 27.8218 353.119 27.6583 353.005 27.5588C352.891 27.4607 352.676 27.4116 352.36 27.4116C352.147 27.4116 351.981 27.4532 351.86 27.538C351.74 27.6227 351.644 27.7698 351.57 27.9808ZM353.175 28.9572C353.021 29.0092 352.778 29.0701 352.444 29.1415C352.111 29.2128 351.893 29.2827 351.791 29.351C351.634 29.4625 351.557 29.6037 351.557 29.7746C351.557 29.9455 351.619 30.0881 351.745 30.2115C351.869 30.3348 352.029 30.3958 352.224 30.3958C352.44 30.3958 352.646 30.3244 352.843 30.1818C352.988 30.0733 353.083 29.941 353.129 29.7835C353.16 29.6809 353.177 29.4848 353.177 29.1965V28.9572H353.175Z" fill="#034EA2"/>
<path d="M359.662 31.1403H358.461V28.8205C358.461 28.3301 358.436 28.012 358.384 27.8679C358.332 27.7237 358.249 27.6123 358.134 27.532C358.018 27.4518 357.88 27.4116 357.717 27.4116C357.51 27.4116 357.323 27.4681 357.158 27.5825C356.994 27.697 356.88 27.8486 356.819 28.0358C356.758 28.2231 356.727 28.5723 356.727 29.0806V31.1403H355.528V26.5943H356.642V27.2615C357.038 26.7473 357.536 26.4902 358.137 26.4902C358.402 26.4902 358.644 26.5378 358.863 26.6329C359.082 26.728 359.248 26.8499 359.361 26.9985C359.474 27.1471 359.552 27.315 359.595 27.5038C359.638 27.6925 359.662 27.9615 359.662 28.3122V31.1374V31.1403Z" fill="#034EA2"/>
<path d="M364.833 27.9377L363.65 28.1517C363.61 27.9154 363.52 27.7371 363.379 27.6167C363.238 27.4963 363.055 27.4369 362.831 27.4369C362.531 27.4369 362.294 27.5409 362.115 27.7475C361.937 27.9541 361.848 28.3003 361.848 28.7863C361.848 29.3258 361.938 29.7062 362.119 29.9291C362.3 30.1521 362.543 30.2635 362.847 30.2635C363.075 30.2635 363.261 30.1981 363.406 30.0688C363.551 29.9395 363.653 29.7151 363.713 29.3986L364.891 29.5992C364.768 30.1416 364.534 30.5518 364.187 30.8282C363.84 31.1047 363.375 31.2429 362.791 31.2429C362.128 31.2429 361.599 31.0333 361.205 30.6142C360.81 30.1951 360.613 29.6141 360.613 28.871C360.613 28.1279 360.81 27.5365 361.206 27.1174C361.602 26.6998 362.137 26.4902 362.811 26.4902C363.364 26.4902 363.803 26.6091 364.129 26.8484C364.455 27.0862 364.69 27.4503 364.832 27.9377H364.833Z" fill="#034EA2"/>
<path d="M368.368 29.6928L369.565 29.8934C369.411 30.3333 369.169 30.6677 368.837 30.8981C368.505 31.1284 368.09 31.2428 367.592 31.2428C366.803 31.2428 366.219 30.9843 365.841 30.4686C365.542 30.0554 365.394 29.5323 365.394 28.9022C365.394 28.1487 365.589 27.5587 365.982 27.1322C366.375 26.7057 366.871 26.4917 367.472 26.4917C368.146 26.4917 368.678 26.7146 369.068 27.1619C369.458 27.6093 369.645 28.2929 369.627 29.2143H366.621C366.63 29.5709 366.726 29.8489 366.911 30.0465C367.097 30.2442 367.326 30.3437 367.604 30.3437C367.792 30.3437 367.949 30.2917 368.078 30.1892C368.207 30.0866 368.303 29.9202 368.368 29.6928ZM368.437 28.4772C368.428 28.1294 368.339 27.8649 368.167 27.6836C367.995 27.5023 367.789 27.4116 367.543 27.4116C367.28 27.4116 367.064 27.5067 366.894 27.6984C366.723 27.8901 366.639 28.1487 366.642 28.4772H368.435H368.437ZM366.904 26.0369L367.494 24.7574H368.838L367.664 26.0369H366.904Z" fill="#034EA2"/>
<path d="M373.002 26.5927H374.121V27.26C374.266 27.0311 374.462 26.8469 374.71 26.7027C374.957 26.56 375.231 26.4887 375.534 26.4887C376.06 26.4887 376.507 26.6953 376.875 27.1099C377.243 27.5245 377.427 28.0997 377.427 28.8398C377.427 29.5799 377.241 30.1892 376.872 30.6097C376.502 31.0303 376.054 31.2413 375.526 31.2413C375.276 31.2413 375.049 31.1908 374.846 31.0912C374.643 30.9917 374.428 30.8208 374.203 30.577V32.8672H373.002V26.5912V26.5927ZM374.189 28.7892C374.189 29.3005 374.29 29.6779 374.492 29.9217C374.693 30.1654 374.941 30.2872 375.23 30.2872C375.519 30.2872 375.741 30.1758 375.926 29.9514C376.112 29.727 376.204 29.3599 376.204 28.8487C376.204 28.3716 376.109 28.0179 375.918 27.7876C375.726 27.5557 375.491 27.4413 375.209 27.4413C374.927 27.4413 374.672 27.5543 374.478 27.7816C374.284 28.009 374.188 28.3449 374.188 28.7892H374.189Z" fill="#034EA2"/>
<path d="M379.275 27.9808L378.186 27.7832C378.309 27.3433 378.519 27.0178 378.817 26.8068C379.116 26.5958 379.56 26.4902 380.15 26.4902C380.685 26.4902 381.083 26.5541 381.346 26.6805C381.608 26.8068 381.792 26.9688 381.899 27.1634C382.005 27.3596 382.059 27.7178 382.059 28.2409L382.045 29.6453C382.045 30.045 382.065 30.3393 382.103 30.5295C382.142 30.7197 382.213 30.9233 382.32 31.1403H381.132C381.101 31.0601 381.063 30.9427 381.017 30.7851C380.997 30.7138 380.983 30.6662 380.974 30.644C380.769 30.8431 380.55 30.9932 380.316 31.0928C380.081 31.1923 379.832 31.2429 379.569 31.2429C379.102 31.2429 378.734 31.1165 378.464 30.8624C378.196 30.6083 378.061 30.2873 378.061 29.8994C378.061 29.6423 378.122 29.4134 378.245 29.2128C378.368 29.0122 378.538 28.8576 378.759 28.7506C378.98 28.6436 379.297 28.55 379.714 28.4698C380.274 28.3642 380.664 28.2662 380.88 28.174V28.0536C380.88 27.8218 380.824 27.6583 380.71 27.5588C380.596 27.4607 380.381 27.4116 380.065 27.4116C379.852 27.4116 379.686 27.4532 379.566 27.538C379.445 27.6227 379.349 27.7698 379.275 27.9808ZM380.88 28.9572C380.726 29.0092 380.483 29.0701 380.15 29.1415C379.816 29.2128 379.598 29.2827 379.496 29.351C379.339 29.4625 379.262 29.6037 379.262 29.7746C379.262 29.9455 379.324 30.0881 379.45 30.2115C379.574 30.3348 379.735 30.3958 379.929 30.3958C380.145 30.3958 380.351 30.3244 380.548 30.1818C380.694 30.0733 380.788 29.941 380.834 29.7835C380.866 29.6809 380.882 29.4848 380.882 29.1965V28.9572H380.88Z" fill="#034EA2"/>
<path d="M384.39 31.1403H383.189V26.5942H384.304V27.2407C384.495 26.9361 384.666 26.7339 384.818 26.6373C384.971 26.5407 385.143 26.4917 385.337 26.4917C385.61 26.4917 385.874 26.5675 386.127 26.7191L385.755 27.7683C385.554 27.6375 385.365 27.5706 385.192 27.5706C385.019 27.5706 384.882 27.6167 384.765 27.7103C384.648 27.8025 384.556 27.9704 384.489 28.2126C384.423 28.4549 384.389 28.9631 384.389 29.7374V31.1418L384.39 31.1403Z" fill="#034EA2"/>
<path d="M337.558 41.6621V35.3862H338.759V41.6621H337.558Z" fill="#034EA2"/>
<path d="M339.959 35.4025H341.16V36.263C341.16 36.6107 341.13 36.8857 341.069 37.0878C341.01 37.2884 340.896 37.4697 340.73 37.6287C340.564 37.7892 340.352 37.9141 340.096 38.0062L339.861 37.5099C340.103 37.4296 340.275 37.3196 340.379 37.1799C340.481 37.0402 340.536 36.8485 340.54 36.6063H339.959V35.4025Z" fill="#034EA2"/>
<path d="M342.418 35.3862H343.683V38.7849C343.683 39.3244 343.699 39.6736 343.73 39.8341C343.784 40.0912 343.913 40.2978 344.117 40.4524C344.32 40.6084 344.599 40.6857 344.952 40.6857C345.304 40.6857 345.58 40.6129 345.762 40.4658C345.945 40.3186 346.054 40.1388 346.092 39.9248C346.129 39.7108 346.148 39.3556 346.148 38.8592V35.3877H347.412V38.6839C347.412 39.4373 347.378 39.9694 347.31 40.2815C347.242 40.5921 347.116 40.8551 346.932 41.0691C346.748 41.2831 346.502 41.454 346.195 41.5803C345.888 41.7067 345.487 41.7706 344.992 41.7706C344.394 41.7706 343.941 41.7007 343.631 41.5625C343.323 41.4243 343.078 41.2445 342.899 41.023C342.719 40.8016 342.601 40.5698 342.544 40.3275C342.461 39.9679 342.42 39.4374 342.42 38.7344V35.3862H342.418Z" fill="#034EA2"/>
<path d="M352.86 41.6621H351.659V39.3422C351.659 38.8518 351.634 38.5338 351.582 38.3896C351.53 38.2454 351.447 38.134 351.331 38.0537C351.216 37.9735 351.078 37.9334 350.915 37.9334C350.707 37.9334 350.521 37.9898 350.356 38.1043C350.192 38.2187 350.077 38.3703 350.017 38.5575C349.956 38.7448 349.925 39.094 349.925 39.6023V41.6621H348.726V37.116H349.84V37.7833C350.236 37.2691 350.734 37.012 351.334 37.012C351.6 37.012 351.841 37.0595 352.061 37.1546C352.28 37.2497 352.446 37.3716 352.559 37.5202C352.671 37.6688 352.75 37.8368 352.793 38.0255C352.836 38.2142 352.86 38.4832 352.86 38.834V41.6591V41.6621Z" fill="#034EA2"/>
<path d="M354.077 36.4993V35.3862H355.277V36.4993H354.077ZM354.077 41.6621V37.116H355.277V41.6621H354.077Z" fill="#034EA2"/>
<path d="M356.229 39.3244C356.229 38.9246 356.326 38.5382 356.523 38.1637C356.721 37.7892 356.998 37.5039 357.358 37.3077C357.718 37.11 358.12 37.012 358.565 37.012C359.251 37.012 359.813 37.2349 360.251 37.6822C360.69 38.1295 360.909 38.6928 360.909 39.3749C360.909 40.057 360.689 40.6322 360.245 41.0854C359.802 41.5372 359.245 41.7646 358.573 41.7646C358.158 41.7646 357.761 41.671 357.385 41.4822C357.008 41.2935 356.721 41.0171 356.523 40.6545C356.328 40.2904 356.229 39.8475 356.229 39.3244ZM357.459 39.3883C357.459 39.8386 357.566 40.1848 357.779 40.4241C357.992 40.6634 358.256 40.7838 358.569 40.7838C358.882 40.7838 359.144 40.6634 359.358 40.4241C359.57 40.1848 359.676 39.8356 359.676 39.3794C359.676 38.9231 359.57 38.5917 359.358 38.3524C359.146 38.1132 358.883 37.9928 358.569 37.9928C358.255 37.9928 357.992 38.1132 357.779 38.3524C357.566 38.5917 357.459 38.938 357.459 39.3883Z" fill="#034EA2"/>
<path d="M365.973 41.6621H364.772V39.3422C364.772 38.8518 364.747 38.5338 364.695 38.3896C364.643 38.2454 364.56 38.134 364.445 38.0537C364.329 37.9735 364.191 37.9334 364.028 37.9334C363.821 37.9334 363.634 37.9898 363.469 38.1043C363.305 38.2187 363.191 38.3703 363.13 38.5575C363.069 38.7448 363.038 39.094 363.038 39.6023V41.6621H361.839V37.116H362.954V37.7833C363.349 37.2691 363.847 37.012 364.448 37.012C364.713 37.012 364.955 37.0595 365.174 37.1546C365.393 37.2497 365.559 37.3716 365.672 37.5202C365.785 37.6688 365.863 37.8368 365.906 38.0255C365.949 38.2142 365.973 38.4832 365.973 38.834V41.6591V41.6621Z" fill="#034EA2"/>
<path d="M372.246 40.2146L373.442 40.4152C373.288 40.8551 373.046 41.1895 372.714 41.4199C372.382 41.6502 371.967 41.7646 371.469 41.7646C370.681 41.7646 370.097 41.5061 369.719 40.9904C369.419 40.5772 369.271 40.0541 369.271 39.424C369.271 38.6705 369.467 38.0805 369.859 37.654C370.252 37.2275 370.749 37.0135 371.349 37.0135C372.024 37.0135 372.556 37.2364 372.945 37.6837C373.335 38.1311 373.522 38.8147 373.504 39.7361H370.498C370.507 40.0927 370.604 40.3707 370.789 40.5683C370.974 40.766 371.204 40.8655 371.481 40.8655C371.669 40.8655 371.826 40.8135 371.955 40.711C372.084 40.6084 372.181 40.442 372.246 40.2146ZM372.314 38.999C372.305 38.6512 372.216 38.3867 372.044 38.2054C371.872 38.0241 371.666 37.9334 371.42 37.9334C371.158 37.9334 370.941 38.0285 370.771 38.2202C370.601 38.4119 370.516 38.6705 370.519 38.999H372.313H372.314Z" fill="#034EA2"/>
<path d="M377.468 41.6621V40.9814C377.303 41.2237 377.086 41.4154 376.817 41.5551C376.549 41.6948 376.264 41.7646 375.965 41.7646C375.666 41.7646 375.387 41.6978 375.145 41.564C374.904 41.4303 374.729 41.2415 374.621 40.9993C374.512 40.757 374.459 40.4212 374.459 39.9932V37.116H375.658V39.2055C375.658 39.8446 375.68 40.2369 375.725 40.381C375.769 40.5252 375.849 40.6396 375.966 40.7229C376.084 40.8076 376.232 40.8492 376.411 40.8492C376.616 40.8492 376.799 40.7927 376.963 40.6798C377.126 40.5668 377.235 40.4271 377.296 40.2607C377.355 40.0942 377.385 39.6841 377.385 39.0346V37.116H378.584V41.6621H377.469H377.468Z" fill="#034EA2"/>
<path d="M380.974 41.6621H379.773V37.116H380.888V37.7625C381.079 37.4578 381.249 37.2557 381.402 37.1591C381.555 37.0625 381.727 37.0135 381.921 37.0135C382.193 37.0135 382.457 37.0893 382.711 37.2409L382.339 38.2901C382.137 38.1593 381.949 38.0924 381.775 38.0924C381.602 38.0924 381.466 38.1385 381.349 38.2321C381.232 38.3243 381.14 38.4922 381.073 38.7344C381.006 38.9767 380.972 39.4849 380.972 40.2592V41.6636L380.974 41.6621Z" fill="#034EA2"/>
<path d="M382.951 39.3244C382.951 38.9246 383.049 38.5382 383.246 38.1637C383.443 37.7892 383.72 37.5039 384.081 37.3077C384.441 37.11 384.843 37.012 385.287 37.012C385.974 37.012 386.535 37.2349 386.974 37.6822C387.413 38.1295 387.632 38.6928 387.632 39.3749C387.632 40.057 387.411 40.6322 386.968 41.0854C386.525 41.5372 385.968 41.7646 385.296 41.7646C384.881 41.7646 384.484 41.671 384.107 41.4822C383.731 41.2935 383.443 41.0171 383.246 40.6545C383.051 40.2904 382.951 39.8475 382.951 39.3244ZM384.181 39.3883C384.181 39.8386 384.288 40.1848 384.502 40.4241C384.715 40.6634 384.979 40.7838 385.292 40.7838C385.604 40.7838 385.867 40.6634 386.08 40.4241C386.292 40.1848 386.399 39.8356 386.399 39.3794C386.399 38.9231 386.292 38.5917 386.08 38.3524C385.868 38.1132 385.606 37.9928 385.292 37.9928C384.977 37.9928 384.715 38.1132 384.502 38.3524C384.288 38.5917 384.181 38.938 384.181 39.3883Z" fill="#034EA2"/>
<path d="M388.536 37.1145H389.655V37.7818C389.801 37.5529 389.996 37.3687 390.244 37.2245C390.491 37.0818 390.765 37.0105 391.068 37.0105C391.594 37.0105 392.042 37.2171 392.409 37.6317C392.777 38.0463 392.961 38.6215 392.961 39.3615C392.961 40.1016 392.775 40.711 392.406 41.1315C392.036 41.5521 391.588 41.7631 391.06 41.7631C390.81 41.7631 390.583 41.7126 390.38 41.613C390.177 41.5135 389.962 41.3426 389.737 41.0988V43.389H388.536V37.113V37.1145ZM389.723 39.311C389.723 39.8222 389.824 40.1997 390.026 40.4435C390.227 40.6872 390.475 40.809 390.764 40.809C391.053 40.809 391.275 40.6976 391.461 40.4732C391.646 40.2488 391.738 39.8817 391.738 39.3705C391.738 38.8934 391.643 38.5397 391.452 38.3094C391.261 38.0775 391.025 37.9631 390.743 37.9631C390.462 37.9631 390.207 38.0761 390.012 38.3034C389.818 38.5308 389.722 38.8667 389.722 39.311H389.723Z" fill="#034EA2"/>
<path d="M396.539 40.2146L397.735 40.4152C397.581 40.8551 397.339 41.1895 397.007 41.4198C396.675 41.6502 396.26 41.7646 395.762 41.7646C394.974 41.7646 394.39 41.506 394.012 40.9904C393.712 40.5772 393.564 40.0541 393.564 39.424C393.564 38.6705 393.76 38.0805 394.152 37.654C394.545 37.2275 395.042 37.0135 395.642 37.0135C396.317 37.0135 396.849 37.2364 397.239 37.6837C397.628 38.1311 397.815 38.8147 397.797 39.7361H394.791C394.8 40.0927 394.897 40.3706 395.082 40.5683C395.267 40.766 395.497 40.8655 395.774 40.8655C395.962 40.8655 396.119 40.8135 396.248 40.711C396.377 40.6084 396.474 40.442 396.539 40.2146ZM396.607 38.999C396.598 38.6512 396.509 38.3867 396.337 38.2054C396.165 38.024 395.959 37.9334 395.713 37.9334C395.451 37.9334 395.234 38.0285 395.064 38.2202C394.894 38.4119 394.809 38.6705 394.812 38.999H396.606H396.607ZM395.074 36.5587L395.664 35.2792H397.009L395.835 36.5587H395.074Z" fill="#034EA2"/>
<path d="M401.402 40.2146L402.598 40.4152C402.444 40.8551 402.203 41.1895 401.871 41.4199C401.539 41.6502 401.123 41.7646 400.625 41.7646C399.837 41.7646 399.253 41.5061 398.875 40.9904C398.575 40.5772 398.427 40.0541 398.427 39.424C398.427 38.6705 398.623 38.0805 399.016 37.654C399.409 37.2275 399.905 37.0135 400.505 37.0135C401.18 37.0135 401.712 37.2364 402.102 37.6837C402.492 38.1311 402.678 38.8147 402.661 39.7361H399.655C399.663 40.0927 399.76 40.3707 399.945 40.5683C400.13 40.766 400.36 40.8655 400.637 40.8655C400.826 40.8655 400.983 40.8135 401.112 40.711C401.241 40.6084 401.337 40.442 401.402 40.2146ZM401.47 38.999C401.461 38.6512 401.372 38.3867 401.201 38.2054C401.029 38.0241 400.823 37.9334 400.577 37.9334C400.314 37.9334 400.098 38.0285 399.927 38.2202C399.757 38.4119 399.672 38.6705 399.675 38.999H401.469H401.47Z" fill="#034EA2"/>
<path d="M407.765 41.6621H406.565V39.3422C406.565 38.8518 406.54 38.5338 406.488 38.3896C406.436 38.2454 406.353 38.134 406.237 38.0537C406.122 37.9735 405.984 37.9334 405.821 37.9334C405.613 37.9334 405.426 37.9898 405.262 38.1043C405.097 38.2187 404.983 38.3703 404.922 38.5575C404.862 38.7448 404.831 39.094 404.831 39.6023V41.6621H403.631V37.116H404.746V37.7833C405.142 37.2691 405.64 37.012 406.24 37.012C406.505 37.012 406.747 37.0595 406.966 37.1546C407.186 37.2497 407.352 37.3716 407.464 37.5202C407.577 37.6688 407.656 37.8368 407.699 38.0255C407.742 38.2142 407.765 38.4832 407.765 38.834V41.6591V41.6621Z" fill="#034EA2"/>
<path d="M413.108 41.6621H411.907V39.3422C411.907 38.8518 411.882 38.5338 411.83 38.3896C411.778 38.2454 411.695 38.134 411.579 38.0537C411.464 37.9735 411.326 37.9334 411.163 37.9334C410.955 37.9334 410.769 37.9898 410.604 38.1043C410.44 38.2187 410.325 38.3703 410.265 38.5575C410.204 38.7448 410.173 39.094 410.173 39.6023V41.6621H408.974V37.116H410.088V37.7833C410.484 37.2691 410.982 37.012 411.582 37.012C411.848 37.012 412.089 37.0595 412.309 37.1546C412.528 37.2497 412.694 37.3716 412.807 37.5202C412.919 37.6688 412.998 37.8368 413.041 38.0255C413.084 38.2142 413.108 38.4832 413.108 38.834V41.6591V41.6621Z" fill="#034EA2"/>
<path d="M416.95 40.2146L418.146 40.4152C417.992 40.8551 417.75 41.1895 417.418 41.4199C417.086 41.6502 416.671 41.7646 416.173 41.7646C415.384 41.7646 414.8 41.5061 414.422 40.9904C414.123 40.5772 413.975 40.0541 413.975 39.424C413.975 38.6705 414.17 38.0805 414.563 37.654C414.956 37.2275 415.452 37.0135 416.053 37.0135C416.727 37.0135 417.259 37.2364 417.649 37.6837C418.039 38.1311 418.226 38.8147 418.208 39.7361H415.202C415.211 40.0927 415.307 40.3707 415.492 40.5683C415.678 40.766 415.908 40.8655 416.185 40.8655C416.373 40.8655 416.53 40.8135 416.659 40.711C416.788 40.6084 416.884 40.442 416.95 40.2146ZM417.018 38.999C417.009 38.6512 416.92 38.3867 416.748 38.2054C416.576 38.0241 416.37 37.9334 416.124 37.9334C415.862 37.9334 415.645 38.0285 415.475 38.2202C415.304 38.4119 415.22 38.6705 415.223 38.999H417.016H417.018Z" fill="#034EA2"/>
<path d="M337.568 52.9536V47.5278H338.304L341.147 51.787V47.5278H341.833V52.9536H341.098L338.256 48.6899V52.9536H337.57H337.568Z" fill="#595A5C"/>
<path d="M345.635 51.6874L346.321 51.7722C346.213 52.1749 346.013 52.487 345.719 52.7084C345.426 52.9299 345.052 53.0413 344.597 53.0413C344.023 53.0413 343.568 52.8645 343.233 52.5108C342.897 52.1571 342.729 51.6607 342.729 51.0217C342.729 50.3826 342.9 49.8476 343.239 49.482C343.579 49.1164 344.019 48.9337 344.56 48.9337C345.101 48.9337 345.513 49.112 345.845 49.4701C346.177 49.8283 346.343 50.3306 346.343 50.9801C346.343 51.0202 346.343 51.0781 346.34 51.1584H343.417C343.442 51.5908 343.564 51.9208 343.782 52.1496C344 52.3785 344.274 52.4944 344.602 52.4944C344.845 52.4944 345.054 52.4305 345.226 52.3027C345.398 52.1749 345.534 51.9698 345.635 51.6889V51.6874ZM343.453 50.61H345.642C345.612 50.2801 345.529 50.0319 345.392 49.8669C345.18 49.6098 344.905 49.482 344.569 49.482C344.264 49.482 344.007 49.5846 343.8 49.7897C343.592 49.9948 343.477 50.2682 343.454 50.6115L343.453 50.61Z" fill="#595A5C"/>
<path d="M346.712 52.9536L348.144 50.9102L346.819 49.0228H347.649L348.251 49.9442C348.364 50.1196 348.456 50.2667 348.524 50.3841C348.632 50.2206 348.731 50.0765 348.823 49.9517L349.484 49.0228H350.277L348.922 50.8731L350.381 52.9536H349.566L348.761 51.732L348.547 51.4021L347.517 52.9521H346.712V52.9536Z" fill="#595A5C"/>
<path d="M352.385 52.3577L352.481 52.9462C352.295 52.9848 352.127 53.0056 351.979 53.0056C351.737 53.0056 351.551 52.967 351.417 52.8912C351.284 52.8154 351.19 52.7144 351.137 52.5895C351.082 52.4647 351.056 52.2031 351.056 51.8034V49.543H350.568V49.0243H351.056V48.0509L351.717 47.6511V49.0243H352.385V49.543H351.717V51.8405C351.717 52.0307 351.728 52.1526 351.752 52.2076C351.776 52.2626 351.813 52.3057 351.866 52.3369C351.92 52.3696 351.995 52.3844 352.093 52.3844C352.167 52.3844 352.264 52.3755 352.385 52.3592V52.3577Z" fill="#595A5C"/>
<path d="M355.652 50.8255V50.1894L357.944 50.1865V52.2002C357.591 52.481 357.229 52.6936 356.854 52.8347C356.479 52.9759 356.097 53.0473 355.702 53.0473C355.17 53.0473 354.689 52.9328 354.254 52.7054C353.82 52.4766 353.492 52.1467 353.27 51.7157C353.049 51.2847 352.938 50.8017 352.938 50.2682C352.938 49.7347 353.048 49.2472 353.269 48.7895C353.489 48.3318 353.805 47.9915 354.219 47.77C354.632 47.5486 355.108 47.4371 355.648 47.4371C356.039 47.4371 356.393 47.501 356.709 47.6274C357.025 47.7537 357.274 47.932 357.453 48.1579C357.632 48.3838 357.769 48.681 357.862 49.0466L357.216 49.2249C357.134 48.9485 357.033 48.7315 356.913 48.574C356.793 48.4165 356.62 48.2902 356.396 48.1951C356.172 48.0999 355.923 48.0524 355.651 48.0524C355.323 48.0524 355.04 48.1029 354.801 48.2025C354.563 48.3021 354.37 48.4343 354.223 48.5963C354.076 48.7583 353.962 48.9381 353.882 49.1328C353.744 49.4687 353.676 49.8328 353.676 50.2251C353.676 50.7081 353.759 51.1138 353.925 51.4393C354.091 51.7647 354.333 52.007 354.65 52.1645C354.967 52.322 355.305 52.4008 355.661 52.4008C355.971 52.4008 356.273 52.3414 356.57 52.221C356.865 52.1021 357.088 51.9743 357.241 51.8376V50.827H355.651L355.652 50.8255Z" fill="#595A5C"/>
<path d="M361.599 51.6874L362.285 51.7722C362.177 52.1749 361.977 52.487 361.683 52.7084C361.39 52.9299 361.016 53.0413 360.561 53.0413C359.987 53.0413 359.532 52.8645 359.197 52.5108C358.861 52.1571 358.693 51.6607 358.693 51.0217C358.693 50.3826 358.864 49.8476 359.203 49.482C359.543 49.1164 359.983 48.9337 360.524 48.9337C361.065 48.9337 361.477 49.112 361.809 49.4701C362.141 49.8283 362.307 50.3306 362.307 50.9801C362.307 51.0202 362.307 51.0781 362.304 51.1584H359.381C359.406 51.5908 359.528 51.9208 359.746 52.1496C359.964 52.3785 360.238 52.4944 360.565 52.4944C360.809 52.4944 361.018 52.4305 361.19 52.3027C361.361 52.1749 361.498 51.9698 361.599 51.6889V51.6874ZM359.417 50.61H361.606C361.576 50.2801 361.493 50.0319 361.356 49.8669C361.144 49.6098 360.869 49.482 360.533 49.482C360.227 49.482 359.971 49.5846 359.764 49.7897C359.556 49.9948 359.44 50.2682 359.418 50.6115L359.417 50.61Z" fill="#595A5C"/>
<path d="M363.12 52.9536V49.0228H363.718V49.5816C364.006 49.1506 364.423 48.9337 364.967 48.9337C365.202 48.9337 365.42 48.9768 365.619 49.0615C365.817 49.1462 365.966 49.2576 366.063 49.3958C366.161 49.5341 366.231 49.6975 366.269 49.8877C366.295 50.0111 366.306 50.2266 366.306 50.5357V52.9521H365.642V50.561C365.642 50.289 365.617 50.0869 365.565 49.9517C365.513 49.8179 365.422 49.7094 365.29 49.6292C365.158 49.5489 365.004 49.5088 364.827 49.5088C364.544 49.5088 364.299 49.5994 364.095 49.7793C363.889 49.9591 363.787 50.3009 363.787 50.8047V52.9507H363.123L363.12 52.9536Z" fill="#595A5C"/>
<path d="M370.008 51.6874L370.694 51.7722C370.586 52.1749 370.386 52.487 370.092 52.7084C369.799 52.9299 369.425 53.0413 368.97 53.0413C368.397 53.0413 367.942 52.8645 367.607 52.5108C367.27 52.1571 367.103 51.6607 367.103 51.0217C367.103 50.3826 367.273 49.8476 367.612 49.482C367.952 49.1164 368.392 48.9337 368.933 48.9337C369.474 48.9337 369.886 49.112 370.218 49.4701C370.55 49.8283 370.716 50.3306 370.716 50.9801C370.716 51.0202 370.716 51.0781 370.713 51.1584H367.79C367.816 51.5908 367.937 51.9208 368.155 52.1496C368.373 52.3785 368.647 52.4944 368.975 52.4944C369.218 52.4944 369.427 52.4305 369.599 52.3027C369.771 52.1749 369.907 51.9698 370.008 51.6889V51.6874ZM367.826 50.61H370.015C369.986 50.2801 369.903 50.0319 369.765 49.8669C369.553 49.6098 369.279 49.482 368.942 49.482C368.637 49.482 368.38 49.5846 368.173 49.7897C367.965 49.9948 367.85 50.2682 367.827 50.6115L367.826 50.61Z" fill="#595A5C"/>
<path d="M371.521 52.9536V49.0228H372.118V49.6188C372.271 49.3394 372.412 49.1566 372.541 49.0674C372.67 48.9782 372.812 48.9337 372.968 48.9337C373.192 48.9337 373.42 49.005 373.651 49.1477L373.423 49.7659C373.26 49.6693 373.098 49.6217 372.935 49.6217C372.79 49.6217 372.659 49.6648 372.544 49.7525C372.428 49.8402 372.345 49.9621 372.296 50.1166C372.222 50.3529 372.185 50.613 372.185 50.8939V52.9521H371.521V52.9536Z" fill="#595A5C"/>
<path d="M376.604 52.4691C376.358 52.6787 376.121 52.8273 375.894 52.9135C375.667 52.9997 375.423 53.0428 375.162 53.0428C374.73 53.0428 374.4 52.9373 374.169 52.7262C373.937 52.5152 373.822 52.2462 373.822 51.9178C373.822 51.7261 373.865 51.5492 373.952 51.3902C374.04 51.2312 374.154 51.1034 374.296 51.0068C374.437 50.9102 374.597 50.8374 374.773 50.7883C374.904 50.7541 375.101 50.72 375.363 50.6887C375.9 50.6248 376.294 50.5476 376.548 50.4599C376.551 50.3692 376.551 50.3113 376.551 50.286C376.551 50.014 376.488 49.8238 376.362 49.7124C376.193 49.5623 375.94 49.4865 375.606 49.4865C375.294 49.4865 375.062 49.5415 374.914 49.6514C374.766 49.7614 374.655 49.9561 374.584 50.234L373.934 50.1448C373.994 49.8654 374.09 49.641 374.226 49.4701C374.361 49.2992 374.557 49.167 374.813 49.0733C375.07 48.9812 375.366 48.9351 375.703 48.9351C376.039 48.9351 376.309 48.9752 376.518 49.054C376.727 49.1328 376.881 49.2323 376.979 49.3512C377.077 49.4701 377.146 49.6217 377.185 49.8045C377.207 49.9175 377.218 50.1225 377.218 50.4183V51.307C377.218 51.9267 377.232 52.3175 377.261 52.4825C377.289 52.646 377.345 52.8035 377.428 52.9536H376.734C376.666 52.8154 376.622 52.6534 376.601 52.4691H376.604ZM376.549 50.9815C376.308 51.0796 375.946 51.1643 375.464 51.2327C375.191 51.2728 374.997 51.3159 374.885 51.3664C374.772 51.4155 374.684 51.4883 374.622 51.5834C374.56 51.6785 374.53 51.784 374.53 51.8999C374.53 52.0783 374.597 52.2254 374.732 52.3443C374.865 52.4632 375.062 52.5226 375.32 52.5226C375.578 52.5226 375.804 52.4662 376.004 52.3547C376.202 52.2432 376.349 52.0887 376.442 51.894C376.514 51.7439 376.549 51.521 376.549 51.2282V50.9845V50.9815Z" fill="#595A5C"/>
<path d="M379.7 52.3577L379.796 52.9462C379.61 52.9848 379.442 53.0056 379.294 53.0056C379.052 53.0056 378.866 52.967 378.732 52.8912C378.599 52.8154 378.505 52.7144 378.452 52.5895C378.397 52.4647 378.37 52.2031 378.37 51.8034V49.543H377.883V49.0243H378.37V48.0509L379.032 47.6511V49.0243H379.7V49.543H379.032V51.8405C379.032 52.0307 379.043 52.1526 379.067 52.2076C379.091 52.2626 379.128 52.3057 379.181 52.3369C379.235 52.3696 379.31 52.3844 379.408 52.3844C379.482 52.3844 379.579 52.3755 379.7 52.3592V52.3577Z" fill="#595A5C"/>
<path d="M380.354 48.2947V47.5293H381.018V48.2947H380.354ZM380.354 52.9537V49.0229H381.018V52.9537H380.354Z" fill="#595A5C"/>
<path d="M381.781 50.9889C381.781 50.2607 381.983 49.7228 382.386 49.372C382.722 49.0808 383.135 48.9351 383.619 48.9351C384.159 48.9351 384.599 49.112 384.941 49.4657C385.284 49.8194 385.454 50.3083 385.454 50.9325C385.454 51.4378 385.379 51.836 385.228 52.1258C385.076 52.4156 384.855 52.64 384.566 52.8005C384.277 52.961 383.962 53.0413 383.619 53.0413C383.071 53.0413 382.626 52.8644 382.288 52.5122C381.95 52.16 381.781 51.6518 381.781 50.9875V50.9889ZM382.465 50.9889C382.465 51.4927 382.574 51.8687 382.794 52.1199C383.013 52.3696 383.289 52.4959 383.621 52.4959C383.953 52.4959 384.225 52.3696 384.443 52.1184C384.663 51.8672 384.772 51.4838 384.772 50.9667C384.772 50.4807 384.663 50.1121 384.442 49.8625C384.221 49.6113 383.948 49.4865 383.621 49.4865C383.293 49.4865 383.013 49.6113 382.794 49.861C382.574 50.1106 382.465 50.4866 382.465 50.9889Z" fill="#595A5C"/>
<path d="M386.232 52.9536V49.0228H386.831V49.5816C387.119 49.1506 387.535 48.9337 388.079 48.9337C388.315 48.9337 388.533 48.9768 388.731 49.0615C388.93 49.1462 389.078 49.2576 389.176 49.3958C389.274 49.5341 389.344 49.6975 389.382 49.8877C389.407 50.0111 389.419 50.2266 389.419 50.5357V52.9521H388.755V50.561C388.755 50.289 388.73 50.0869 388.678 49.9517C388.626 49.8179 388.534 49.7094 388.402 49.6292C388.271 49.5489 388.116 49.5088 387.94 49.5088C387.657 49.5088 387.412 49.5994 387.208 49.7793C387.002 49.9591 386.899 50.3009 386.899 50.8047V52.9507H386.235L386.232 52.9536Z" fill="#595A5C"/>
<path d="M390.537 52.9536V47.5278H394.45V48.1683H391.253V49.8298H394.247V50.4658H391.253V52.3131H394.575V52.9536H390.537Z" fill="#595A5C"/>
<path d="M399.115 47.5278H399.831V50.662C399.831 51.2074 399.769 51.6399 399.646 51.9609C399.522 52.2819 399.3 52.542 398.978 52.7441C398.657 52.9447 398.236 53.0458 397.714 53.0458C397.192 53.0458 396.792 52.9581 396.471 52.7827C396.149 52.6074 395.918 52.3547 395.78 52.0218C395.642 51.6904 395.574 51.2372 395.574 50.662V47.5278H396.29V50.6591C396.29 51.1302 396.333 51.4779 396.42 51.7008C396.508 51.9238 396.657 52.0961 396.871 52.2165C397.084 52.3369 397.344 52.3978 397.652 52.3978C398.178 52.3978 398.553 52.2775 398.778 52.0382C399.002 51.7989 399.115 51.3382 399.115 50.6576V47.5263V47.5278Z" fill="#595A5C"/>
</g>
<defs>
<clipPath id="clip0_13301_83486">
<rect width="418" height="82" fill="white" transform="translate(0.210938)"/>
</clipPath>
</defs>
</svg>
