<svg id="Calque_1" xmlns="http://www.w3.org/2000/svg" viewBox="0 0 50 46.91"><defs><style>.cls-1{fill:#fff}</style></defs><path class="cls-1" d="M27.14 36.66c-2.7-2.78-4.06-6.54-4.07-11.38a19.07 19.07 0 011-6.3A13.76 13.76 0 0127 14a12.64 12.64 0 014.72-3.15A17.11 17.11 0 0138 9.78a16 16 0 015.88 1 23.45 23.45 0 10-.3 29.4 18.37 18.37 0 01-5 .64c-4.97.01-8.74-1.39-11.44-4.16z" transform="translate(-2 -1.85)"/><path class="cls-1" d="M31.12 23.26H44.4a.86.86 0 00.89-.81 9.77 9.77 0 00-2.26-6 7 7 0 00-5.29-2.14 6.74 6.74 0 00-5.15 2.17 10.26 10.26 0 00-2.36 5.89c-.08.5.4.89.89.89zM46 26.8H31.09a.84.84 0 00-.9.89 10.66 10.66 0 001.11 4.49 7.67 7.67 0 007 4.36 9.91 9.91 0 002.7-.34 8.88 8.88 0 002.38-1.09 17.54 17.54 0 002.06-1.55c.62-.54 1.83-1.67 2.24-2.05a1.87 1.87 0 01.43-.28 23.42 23.42 0 00.72-4.69 14 14 0 01-2.83.26zM44.16 40c3-1 6.27-4 6.83-6.75.37-1.81-.74-2.21-1.34-2.29h-.36a2.53 2.53 0 00-1.14.25 23.38 23.38 0 01-4.58 9zM48.88 26.53a6.67 6.67 0 001.67-.53c.92-.47 1.44-1.53 1.45-3.43a12.71 12.71 0 00-1.58-6.05 12.89 12.89 0 00-6.54-5.7 23.35 23.35 0 015 14.51q.03.59 0 1.2z" transform="translate(-2 -1.85)"/><path d="M45.48 33.56a17.54 17.54 0 01-2.06 1.55A8.88 8.88 0 0141 36.2a9.91 9.91 0 01-2.7.35 7.67 7.67 0 01-7-4.36 10.66 10.66 0 01-1.11-4.49.84.84 0 01.9-.89H46a14 14 0 002.89-.27v-1.23a23.35 23.35 0 00-5-14.51 16 16 0 00-5.88-1 17.11 17.11 0 00-6.27 1.1A12.64 12.64 0 0027 14a13.76 13.76 0 00-2.92 5 19.07 19.07 0 00-1 6.3c0 4.84 1.37 8.6 4.07 11.38s6.47 4.17 11.43 4.17a18.37 18.37 0 005-.64 23.38 23.38 0 004.58-9 1.87 1.87 0 00-.43.28c-.42.39-1.62 1.51-2.25 2.07zM30.23 22.39a10.26 10.26 0 012.36-5.89 6.74 6.74 0 015.15-2.17A7 7 0 0143 16.47a9.77 9.77 0 012.26 6 .86.86 0 01-.89.81H31.12c-.49-.02-.97-.41-.89-.89z" transform="translate(-2 -1.85)" fill="#1b2e57"/></svg>