<svg height="512pt" viewBox="0 -32 512.00025 512" width="512pt" xmlns="http://www.w3.org/2000/svg"><path d="m353.960938 367.929688c-.652344 0-1.3125-.070313-1.949219-.199219-.640625-.128907-1.269531-.320313-1.882813-.570313-.597656-.25-1.179687-.558594-1.71875-.921875-.550781-.359375-1.0625-.777343-1.519531-1.238281-.460937-.460938-.882813-.96875-1.242187-1.519531-.359376-.539063-.667969-1.121094-.917969-1.730469-.25-.601562-.449219-1.230469-.582031-1.871094-.128907-.640625-.1875-1.296875-.1875-1.949218 0-.648438.058593-1.308594.1875-1.960938.132812-.628906.332031-1.257812.582031-1.867188.25-.601562.550781-1.179687.917969-1.722656.359374-.546875.78125-1.058594 1.242187-1.519531.457031-.460937.96875-.878906 1.519531-1.25.539063-.359375 1.121094-.667969 1.71875-.917969.613282-.25 1.242188-.441406 1.882813-.570312 1.277343-.261719 2.609375-.261719 3.898437 0 .640625.128906 1.269532.320312 1.871094.570312.609375.25 1.1875.558594 1.726562.917969.550782.371094 1.0625.789063 1.523438 1.25s.878906.972656 1.238281 1.519531c.359375.542969.667969 1.121094.917969 1.722656.25.609376.453125 1.238282.570312 1.867188.132813.652344.203126 1.3125.203126 1.960938 0 .652343-.070313 1.3125-.203126 1.949218-.128906.640625-.320312 1.269532-.570312 1.871094-.25.609375-.558594 1.191406-.917969 1.730469-.359375.550781-.777343 1.058593-1.238281 1.519531s-.972656.878906-1.523438 1.238281c-.539062.363281-1.117187.671875-1.726562.921875-.601562.25-1.230469.441406-1.871094.570313-.640625.128906-1.300781.199219-1.949218.199219zm0 0"/><path d="m10 139.980469h492v137.65625h-492zm0 0" fill="#ededed"/><g fill="#8e8d9b"><path d="m413.027344 139.980469-107.851563 137.65625h83.714844l107.847656-137.65625zm0 0"/><path d="m265.4375 139.980469-107.847656 137.65625h83.710937l107.847657-137.65625zm0 0"/><path d="m117.851562 139.980469-107.851562 137.65625h83.710938l107.851562-137.65625zm0 0"/></g><path d="m152.863281 139.980469h-84.0625v-42.007813c0-23.214844 18.820313-42.03125 42.03125-42.03125 23.214844 0 42.03125 18.820313 42.03125 42.03125zm0 0" fill="#fec357"/><path d="m110.191406 31.511719c-5.523437 0-10-4.480469-10-10v-11.511719c0-5.523438 4.476563-10 10-10 5.523438 0 10 4.476562 10 10v11.511719c0 5.519531-4.476562 10-10 10zm0 0"/><path d="m48.425781 57.089844c-2.558593 0-5.117187-.976563-7.070312-2.929688l-8.140625-8.136718c-3.90625-3.90625-3.90625-10.238282-.003906-14.144532 3.90625-3.90625 10.238281-3.90625 14.144531 0l8.140625 8.136719c3.90625 3.902344 3.90625 10.234375.003906 14.140625-1.953125 1.953125-4.515625 2.933594-7.074219 2.933594zm0 0"/><path d="m171.957031 57.089844c-2.558593 0-5.117187-.980469-7.070312-2.933594-3.90625-3.902344-3.90625-10.234375 0-14.140625l8.140625-8.136719c3.90625-3.90625 10.238281-3.90625 14.144531 0 3.902344 3.90625 3.902344 10.238282-.003906 14.144532l-8.140625 8.136718c-1.953125 1.953125-4.511719 2.929688-7.070313 2.929688zm0 0"/><path d="m209.054688 118.839844h-11.511719c-5.523438 0-10-4.476563-10-10 0-5.523438 4.476562-10 10-10h11.511719c5.523437 0 10 4.476562 10 10 0 5.519531-4.476563 10-10 10zm0 0"/><path d="m22.839844 118.839844h-11.511719c-5.523437 0-10-4.476563-10-10 0-5.523438 4.476563-10 10-10h11.511719c5.523437 0 10 4.476562 10 10 0 5.519531-4.476563 10-10 10zm0 0"/><path d="m444.480469 139.980469h-84.058594v-42.007813c0-23.210937 18.816406-42.03125 42.03125-42.03125 23.210937 0 42.027344 18.820313 42.027344 42.03125zm0 0" fill="#fec357"/><path d="m401.808594 31.511719c-5.519532 0-10-4.480469-10-10v-11.511719c0-5.523438 4.480468-10 10-10 5.523437 0 10 4.476562 10 10v11.511719c0 5.519531-4.476563 10-10 10zm0 0"/><path d="m340.042969 57.089844c-2.558594 0-5.117188-.976563-7.070313-2.929688l-8.140625-8.136718c-3.90625-3.90625-3.90625-10.238282 0-14.144532 3.902344-3.90625 10.234375-3.90625 14.140625 0l8.140625 8.136719c3.90625 3.902344 3.90625 10.234375.003907 14.140625-1.953126 1.953125-4.515626 2.933594-7.074219 2.933594zm0 0"/><path d="m463.574219 57.089844c-2.558594 0-5.117188-.980469-7.070313-2.933594-3.90625-3.902344-3.902344-10.234375.003906-14.140625l8.140626-8.136719c3.90625-3.90625 10.234374-3.90625 14.140624 0 3.902344 3.90625 3.902344 10.238282-.003906 14.144532l-8.140625 8.136718c-1.953125 1.953125-4.511719 2.929688-7.070312 2.929688zm0 0"/><path d="m500.671875 118.839844h-11.511719c-5.523437 0-10-4.476563-10-10 0-5.523438 4.476563-10 10-10h11.511719c5.523437 0 10 4.476562 10 10 0 5.519531-4.476563 10-10 10zm0 0"/><path d="m314.460938 118.839844h-11.515626c-5.523437 0-10-4.476563-10-10 0-5.523438 4.476563-10 10-10h11.515626c5.519531 0 10 4.476562 10 10 0 5.519531-4.480469 10-10 10zm0 0"/><path d="m48.566406 277.636719h66.976563v160.582031h-66.976563zm0 0" fill="#ccccce"/><path d="m396.457031 277.636719h66.976563v160.582031h-66.976563zm0 0" fill="#ccccce"/><path d="m502 129.980469h-47.519531v-32.007813c0-28.691406-23.339844-52.03125-52.027344-52.03125-28.691406 0-52.03125 23.339844-52.03125 52.03125v32.007813h-187.558594v-32.007813c0-28.691406-23.339843-52.03125-52.03125-52.03125-28.6875 0-52.03125 23.339844-52.03125 52.03125v32.007813h-48.800781c-5.523438 0-10 4.480469-10 10v137.601562c0 .265625.0078125.53125.0273438.796875 0 .019532 0 .035156.0039062.054688.0039062.0625.0117188.128906.015625.191406l.0117188.117188c.0039062.035156.0078124.070312.0117187.105468.0078125.046875.015625.09375.0195313.140625 0 .007813.0039062.015625.0039062.023438.195312 1.429687.695312 2.761719 1.425781 3.929687.003907.003906.007813.007813.007813.015625.027344.042969.054687.085938.082031.128907.015625.019531.03125.042968.046875.066406.019531.03125.039062.0625.0625.089844.035156.058593.078125.117187.117188.171874.007812.011719.015624.027344.027343.039063.039063.054687.078125.105469.117188.160156.003906.003907.007812.007813.011719.015625.480468.640625 1.03125 1.21875 1.644531 1.722656.003906.003907.003906.003907.007812.007813.054688.046875.113281.089844.171875.136719.003906.003906.011719.007812.015625.011718.054688.046876.113281.089844.167969.132813.023438.015625.042969.03125.066406.046875.03125.023438.0625.046875.09375.066406.03125.023438.066406.046875.097656.070313.011719.011719.023438.019531.035157.027343 1.382812.960938 3.015625 1.582032 4.78125 1.746094.023437 0 .050781.003906.074219.003906.042968.003907.082031.007813.121093.011719.066407.003907.132813.007813.199219.011719.023438 0 .046875.003906.070312.003906.054688.003906.109376.003906.167969.003906.019531.003907.042969.003907.0625.003907.078125 0 .15625.003906.230469.003906h28.566406v150.582031c0 5.519532 4.480469 10 10 10h66.976563c5.523437 0 10-4.480468 10-10v-70.292968h185.648437c5.523438 0 10-4.476563 10-10 0-5.523438-4.476562-10-10-10h-185.648437v-60.289063h260.914062v150.582031c0 5.519532 4.476563 10 10 10h66.976563c5.523437 0 10-4.480468 10-10v-150.585937h28.566406c5.523438 0 10-4.476563 10-10v-137.65625c0-5.519531-4.476562-10-10-10zm-131.578125-32.007813c0-17.660156 14.367187-32.03125 32.03125-32.03125 17.660156 0 32.027344 14.371094 32.027344 32.03125v32.007813h-64.058594zm-108.582031 169.664063 92.179687-117.65625h38.46875l-92.179687 117.65625zm-147.589844 0 92.179688-117.65625h38.46875l-92.179688 117.65625zm-35.449219-169.664063c0-17.660156 14.371094-32.03125 32.03125-32.03125 17.664063 0 32.03125 14.371094 32.03125 32.03125v32.007813h-64.0625zm18.511719 52.007813-77.3125 98.679687v-98.679687zm25.40625 0h58.304688l-92.179688 117.65625h-58.304688zm-17.175781 278.238281h-46.976563v-140.582031h46.980469v140.582031zm72.585937-160.582031 92.179688-117.65625h58.304687l-92.179687 117.65625zm147.585938 0 92.179687-117.65625h58.304688l-92.179688 117.65625zm127.71875 160.582031h-46.976563v-140.582031h46.976563zm-44.007813-160.582031 82.574219-105.390625v105.390625zm0 0"/></svg>