<?xml version="1.0" encoding="UTF-8"?>
<svg width="120px" height="120px" viewBox="-10 -10 120 120" version="1.1" xmlns="http://www.w3.org/2000/svg" xmlns:xlink="http://www.w3.org/1999/xlink">
    <!-- Generator: sketchtool 51.3 (57544) - http://www.bohemiancoding.com/sketch -->
    <title>5DE8631F-1F92-40DC-80E7-D8BD935227CF</title>
    <desc>Created with sketchtool.</desc>
    <defs></defs>
    <g id="Campagne" stroke="none" stroke-width="1" fill="none" fill-rule="evenodd">
        <g transform="translate(-411.000000, -1397.000000)" fill-rule="nonzero" id="Group-4">
            <g transform="translate(295.000000, 585.515625)">
                <g id="icon-certif" transform="translate(116.500000, 812.000000)">
                    <path d="M93.8666084,1.70660015 C90.0966081,1.70660015 87.0400078,4.76320043 87.0400078,8.53320076 L87.0400078,11.9466011 L100.693409,11.9466011 L100.693409,8.53340076 C100.693409,4.76340043 97.6368087,1.70660015 93.8666084,1.70660015 Z" id="Shape" fill="#FFE495"></path>
                    <path d="M87.0400078,1.70660015 L22.186602,1.70660015 C18.4166016,1.70660015 15.3600014,4.76320043 15.3600014,8.53320076 L15.3600014,100.693209 L80.2134072,100.693209 C83.9834075,100.693209 87.0400078,97.6366087 87.0400078,93.8666084 L87.0400078,8.53340076 C87.0400078,4.76340043 90.0966081,1.70680015 93.8666084,1.70660015 L87.0400078,1.70680015 L87.0400078,1.70660015 Z" id="Shape" fill="#FFF3D0"></path>
                    <g id="Group" transform="translate(23.800002, 17.000002)" fill="#C7C7C7">
                        <rect id="Rectangle-path" x="15.4534014" y="0.066600006" width="22.186602" height="3.41340031"></rect>
                        <rect id="Rectangle-path" x="0.0934000084" y="10.3066009" width="54.6134049" height="3.41340031"></rect>
                        <rect id="Rectangle-path" x="0.0934000084" y="20.5466018" width="37.5466034" height="3.41340031"></rect>
                        <rect id="Rectangle-path" x="44.466604" y="20.5466018" width="10.2400009" height="3.41340031"></rect>
                        <rect id="Rectangle-path" x="0.0934000084" y="30.7866028" width="54.6134049" height="3.41340031"></rect>
                        <rect id="Rectangle-path" x="0.0934000084" y="41.0266037" width="20.4800018" height="3.41340031"></rect>
                        <rect id="Rectangle-path" x="0.0934000084" y="49.5600044" width="8.53340076" height="3.41340031"></rect>
                        <rect id="Rectangle-path" x="15.4534014" y="49.5600044" width="5.12000046" height="3.41340031"></rect>
                    </g>
                    <path d="M73.3866066,93.8666084 L73.3866066,90.4532081 L1.70660015,90.4532081 L1.70660015,93.8666084 C1.70660015,97.6366087 4.76320043,100.693209 8.53320076,100.693209 L80.2132072,100.693209 C76.4434068,100.693409 73.3866066,97.6368087 73.3866066,93.8666084 Z" id="Shape" fill="#DECA91"></path>
                    <polygon id="Shape" fill="#F46B27" points="63.1466056 71.6800064 63.1466056 83.6266075 68.2666061 80.2134072 73.3866066 83.6266075 73.3866066 71.6800064"></polygon>
                    <path d="M63.1466056,73.3866066 L63.1466056,76.8000069 C66.1656059,79.1228071 70.3676063,79.1228071 73.3866066,76.8000069 L73.3866066,73.3866066 L63.1466056,73.3866066 Z" id="Shape" fill="#E65F1C"></path>
                    <circle id="Oval" fill="#FFBE00" cx="68.2666061" cy="66.560006" r="8.53340076"></circle>
                    <circle id="Oval" fill="#FFBE00" cx="68.2666061" cy="66.560006" r="5.12000046"></circle>
                    <path d="M68.2666061,56.320005 C62.6108056,56.332005 58.0368052,60.9280054 58.0504052,66.582206 C58.0572052,69.4768062 59.2894053,72.2346065 61.4398055,74.1718066 L61.4398055,83.6268075 C61.4416055,84.2566075 61.7896055,84.8334076 62.3444056,85.1286076 C62.8872056,85.4068076 63.5390057,85.3744076 64.0510057,85.0432076 L68.2664061,82.2614074 L72.4478065,85.0432076 C73.2346065,85.5620076 74.2928066,85.3436076 74.8116067,84.5568076 C74.9942067,84.2804075 75.0914067,83.9578075 75.0932067,83.6266075 L75.0932067,74.1716066 C79.2968071,70.3880063 79.6380071,63.9146057 75.8560068,59.7094053 C73.9192066,57.5590051 71.1612064,56.326805 68.2666061,56.320005 Z M71.6800064,80.4352072 L69.2054062,78.728607 C68.6354061,78.353207 67.8980061,78.353207 67.328006,78.728607 L64.8534058,80.4352072 L64.8534058,76.2026068 C67.060206,76.9996069 69.4734062,76.9996069 71.6800064,76.2026068 L71.6800064,80.4352072 Z M68.2666061,73.3866066 C64.4966058,73.3866066 61.4400055,70.3300063 61.4400055,66.560006 C61.4400055,62.7900056 64.4966058,59.7334053 68.2666061,59.7334053 C72.0366064,59.7334053 75.0932067,62.7900056 75.0932067,66.560006 C75.0932067,70.3300063 72.0366064,73.3866066 68.2666061,73.3866066 Z" id="Shape" fill="#000000"></path>
                    <rect id="Rectangle-path" fill="#000000" x="39.2534035" y="17.0666015" width="22.186602" height="3.41340031"></rect>
                    <rect id="Rectangle-path" fill="#000000" x="23.8934021" y="27.3066024" width="54.6134049" height="3.41340031"></rect>
                    <rect id="Rectangle-path" fill="#000000" x="23.8934021" y="37.5466034" width="37.5466034" height="3.41340031"></rect>
                    <rect id="Rectangle-path" fill="#000000" x="68.2666061" y="37.5466034" width="10.2400009" height="3.41340031"></rect>
                    <rect id="Rectangle-path" fill="#000000" x="23.8934021" y="47.7866043" width="54.6134049" height="3.41340031"></rect>
                    <rect id="Rectangle-path" fill="#000000" x="23.8934021" y="58.0266052" width="20.4800018" height="3.41340031"></rect>
                    <rect id="Rectangle-path" fill="#000000" x="23.8934021" y="66.560006" width="8.53340076" height="3.41340031"></rect>
                    <rect id="Rectangle-path" fill="#000000" x="39.2534035" y="66.560006" width="5.12000046" height="3.41340031"></rect>
                    <path d="M93.8666084,0 L22.186602,0 C17.4746016,0 13.6534012,3.82120034 13.6534012,8.53340076 L13.6534012,88.7468079 L1.70660015,88.7468079 C0.764600068,88.7468079 0,89.511408 0,90.4534081 L0,93.8668084 C0,98.5788088 3.82120034,102.400009 8.53340076,102.400009 L80.2134072,102.400009 C84.9256076,102.400009 88.7468079,98.5788088 88.7468079,93.8666084 L88.7468079,13.6534012 L100.693409,13.6534012 C101.635409,13.6534012 102.400009,12.8888012 102.400009,11.9468011 L102.400009,8.53340076 C102.400009,3.82120034 98.5788088,0 93.8666084,0 Z M15.3600014,98.9866089 L8.53340076,98.9866089 C5.70540051,98.9866089 3.41340031,96.6946086 3.41340031,93.8666084 L3.41340031,92.1600082 L71.6800064,92.1600082 L71.6800064,93.8666084 C71.6800064,95.7132086 72.2790065,97.5104087 73.3866066,98.9866089 L15.3600014,98.9866089 Z M85.3334076,93.8666084 C85.3334076,96.6946086 83.0414074,98.9866089 80.2134072,98.9866089 C77.3854069,98.9866089 75.0934067,96.6946086 75.0934067,93.8666084 L75.0934067,90.4532081 C75.0934067,89.511208 74.3288066,88.7466079 73.3868066,88.7466079 L17.0668015,88.7466079 L17.0668015,8.53340076 C17.0668015,5.70540051 19.3588017,3.41340031 22.186802,3.41340031 L87.0400078,3.41340031 L86.9034078,3.61820032 L86.6304077,4.06200036 C86.4546077,4.34880039 86.2942077,4.64560042 86.1526077,4.94940044 C86.1526077,5.12000046 85.9990077,5.29080047 85.9308077,5.46140049 C85.8044077,5.79080052 85.6970077,6.12700055 85.6066077,6.46840058 C85.6066077,6.63900059 85.6066077,6.79260061 85.4872076,6.94620062 C85.3916076,7.47020067 85.3404076,8.00100072 85.3336076,8.53340076 L85.3336076,93.8666084 L85.3334076,93.8666084 Z M98.9866089,10.2400009 L88.7466079,10.2400009 L88.7466079,8.53340076 C88.7466079,5.70540051 91.0386081,3.41340031 93.8666084,3.41340031 C96.6946086,3.41340031 98.9866089,5.70540051 98.9866089,8.53340076 L98.9866089,10.2400009 Z" id="Shape" fill="#000000"></path>
                </g>
            </g>
        </g>
    </g>
</svg>
