<?xml version="1.0" encoding="UTF-8"?>
<svg width="120px" height="120px" viewBox="-10 -10 120 120" version="1.1" xmlns="http://www.w3.org/2000/svg" xmlns:xlink="http://www.w3.org/1999/xlink">
    <!-- Generator: sketchtool 51.3 (57544) - http://www.bohemiancoding.com/sketch -->
    <title>9FBB7060-F736-4046-B70B-AE68A546A7D3</title>
    <desc>Created with sketchtool.</desc>
    <defs></defs>
    <g id="Campagne" stroke="none" stroke-width="1" fill="none" fill-rule="evenodd">
        <g transform="translate(-413.000000, -739.000000)" fill-rule="nonzero" id="Group-4">
            <g transform="translate(295.000000, 585.515625)">
                <g id="icon-mesurer" transform="translate(118.000000, 154.192017)">
                    <rect id="Rectangle-path" fill="#FFBE00" x="6.93457031" y="1.96855469" width="25.5449219" height="18.2484375"></rect>
                    <g id="Group" transform="translate(10.546875, 9.179688)" fill="#FFFFFF">
                        <rect id="Rectangle-path" x="14.6380859" y="0.08828125" width="3.64941406" height="3.64941406"></rect>
                        <rect id="Rectangle-path" x="7.33671875" y="0.08828125" width="3.64941406" height="3.64941406"></rect>
                        <rect id="Rectangle-path" x="0.0380859375" y="0.08828125" width="3.64941406" height="3.64941406"></rect>
                    </g>
                    <g id="Group" fill="#242D3C">
                        <polygon id="Shape" points="100 22.0416016 6.93457031 22.0416016 6.93457031 18.3919922 96.3505859 18.3919922 96.3505859 3.79355469 6.93457031 3.79355469 6.93457031 0.144140625 100 0.144140625"></polygon>
                        <rect id="Rectangle-path" x="0" y="0.144140625" width="3.64941406" height="21.8974609"></rect>
                    </g>
                    <rect id="Rectangle-path" fill="#FFBE00" x="6.93496094" y="27.5140625" width="80.2900391" height="18.2480469"></rect>
                    <g id="Group" transform="translate(65.234375, 34.765625)" fill="#FFFFFF">
                        <rect id="Rectangle-path" x="14.690625" y="0.05" width="3.64941406" height="3.64941406"></rect>
                        <rect id="Rectangle-path" x="7.39570312" y="0.05" width="3.65" height="3.64941406"></rect>
                        <rect id="Rectangle-path" x="0.095703125" y="0.05" width="3.65" height="3.64941406"></rect>
                    </g>
                    <g id="Group" transform="translate(0.000000, 25.585938)" fill="#242D3C">
                        <polygon id="Shape" points="100 22.0037109 6.93496094 22.0037109 6.93496094 18.3537109 96.3505859 18.3537109 96.3505859 3.75507812 6.93496094 3.75507812 6.93496094 0.105664062 100 0.105664062"></polygon>
                        <rect id="Rectangle-path" x="0" y="0.103125" width="3.64941406" height="21.8980469"></rect>
                    </g>
                    <rect id="Rectangle-path" fill="#FFBE00" x="6.93457031" y="53.0640625" width="43.7949219" height="18.2484375"></rect>
                    <g id="Group" transform="translate(28.710938, 60.351562)" fill="#FFFFFF">
                        <rect id="Rectangle-path" x="14.7191406" y="0.0125" width="3.64941406" height="3.65"></rect>
                        <rect id="Rectangle-path" x="7.41914062" y="0.0125" width="3.64941406" height="3.65"></rect>
                        <rect id="Rectangle-path" x="0.12109375" y="0.0125" width="3.64941406" height="3.65"></rect>
                    </g>
                    <g id="Group" transform="translate(0.000000, 51.171875)" fill="#242D3C">
                        <polygon id="Shape" points="100 21.9646484 6.93457031 21.9646484 6.93457031 18.3152344 96.3505859 18.3152344 96.3505859 3.71660156 6.93457031 3.71660156 6.93457031 0.0666015625 100 0.0666015625"></polygon>
                        <rect id="Rectangle-path" x="0" y="0.0671875" width="3.64941406" height="21.8980469"></rect>
                    </g>
                    <rect id="Rectangle-path" fill="#FFBE00" x="6.93457031" y="78.6140625" width="65.6949219" height="18.2480469"></rect>
                    <g id="Group" transform="translate(50.585938, 85.742188)" fill="#FFFFFF">
                        <rect id="Rectangle-path" x="14.7441406" y="0.166796875" width="3.64941406" height="3.64941406"></rect>
                        <rect id="Rectangle-path" x="7.44414062" y="0.166796875" width="3.64941406" height="3.64941406"></rect>
                        <rect id="Rectangle-path" x="0.144140625" y="0.166796875" width="3.64941406" height="3.64941406"></rect>
                    </g>
                    <g id="Group" transform="translate(0.000000, 76.757812)" fill="#242D3C">
                        <polygon id="Shape" points="100 21.9261719 6.93457031 21.9261719 6.93457031 18.2767578 96.3505859 18.2767578 96.3505859 3.67832031 6.93457031 3.67832031 6.93457031 0.0283203125 100 0.0283203125"></polygon>
                        <rect id="Rectangle-path" x="0" y="0.026171875" width="3.64941406" height="21.8980469"></rect>
                    </g>
                </g>
            </g>
        </g>
    </g>
</svg>
