<svg width="42" height="46" viewBox="0 0 42 46" fill="none" xmlns="http://www.w3.org/2000/svg">
  <path d="M18.4851 18.6208C23.5188 18.6208 27.5994 14.5339 27.5994 9.49253C27.5994 4.45112 23.5188 0.364258 18.4851 0.364258C13.4514 0.364258 9.37082 4.45112 9.37082 9.49253C9.37082 14.5339 13.4514 18.6208 18.4851 18.6208Z" fill="#FFBC57"/>
  <path fill-rule="evenodd" clip-rule="evenodd" d="M26.49 44.8359C27.6578 46.0057 29.5376 46.0057 33.297 46.0057C37.0564 46.0057 38.9363 46.0057 40.104 44.8359C41.272 43.6664 41.272 41.7837 41.272 38.0185C41.272 34.2533 41.272 32.3706 40.104 31.201C38.9363 30.0312 37.0564 30.0312 33.297 30.0312C29.5376 30.0312 27.6578 30.0312 26.49 31.201C25.322 32.3706 25.322 34.2533 25.322 38.0185C25.322 41.7837 25.322 43.6664 26.49 44.8359ZM31.0791 41.388C29.4793 40.2408 27.6006 38.8932 27.6006 36.5575C27.6006 33.979 30.7336 32.1501 33.297 34.6292C35.8604 32.1501 38.9935 33.979 38.9935 36.5575C38.9935 38.8932 37.1148 40.2408 35.515 41.388C35.3489 41.5071 35.1855 41.6242 35.0278 41.7401C34.4363 42.1739 33.8667 42.5826 33.297 42.5826C32.7274 42.5826 32.1577 42.1739 31.5662 41.7401C31.4085 41.6242 31.2452 41.5071 31.0791 41.388Z" fill="#9469F0"/>
  <path d="M26.6754 45.0072C26.6113 44.9531 26.5493 44.8961 26.4894 44.8358C25.3214 43.6663 25.3214 41.7836 25.3214 38.0184C25.3214 34.2532 25.3214 32.3705 26.4894 31.2009C27.6572 30.0311 29.537 30.0311 33.2964 30.0311C33.6384 30.0311 33.9647 30.0311 34.2764 30.032C31.1249 26.962 25.2335 24.8965 18.4857 24.8965C8.41834 24.8965 0.257141 29.4942 0.257141 35.1658C0.257141 40.8374 0.257141 45.4351 18.4857 45.4351C21.7728 45.4351 24.467 45.2856 26.6754 45.0072Z" fill="#C3D0FF"/>
</svg>
