<svg width="54" height="46" viewBox="0 0 54 46" fill="none" xmlns="http://www.w3.org/2000/svg">
  <path opacity="0.5" d="M8.47959 1.92711C6.92011 3.48896 6.9201 6.00274 6.9201 11.0303V29.6942H47.636V11.0303C47.636 6.00274 47.636 3.48896 46.0765 1.92711C44.517 0.365234 42.0071 0.365234 36.9872 0.365234H17.5688C12.549 0.365234 10.039 0.365234 8.47959 1.92711Z" fill="#C3D0FF"/>
  <path fill-rule="evenodd" clip-rule="evenodd" d="M52.2799 35.922C52.3984 36.0446 52.4578 36.1059 52.5131 36.1667C53.368 37.1068 53.8591 38.3216 53.8983 39.5923C53.9009 39.6747 53.9009 39.76 53.9009 39.9307C53.9009 40.3285 53.9009 40.5274 53.8903 40.6954C53.7212 43.3758 51.5886 45.5117 48.9123 45.681C48.7445 45.6917 48.5459 45.6917 48.1487 45.6917H6.40936C6.01216 45.6917 5.81356 45.6917 5.64584 45.681C2.96973 45.5117 0.836897 43.3758 0.667822 40.6954C0.657226 40.5274 0.657227 40.3285 0.657227 39.9307C0.657227 39.76 0.657227 39.6747 0.659783 39.5923C0.698997 38.3216 1.19025 37.1068 2.04494 36.1667C2.10026 36.1059 2.15947 36.0449 2.27767 35.9225L5.72366 32.3604H48.8345L52.2799 35.922ZM18.627 40.3592C18.627 39.2548 19.5209 38.3595 20.6236 38.3595H33.9345C35.0372 38.3595 35.9312 39.2548 35.9312 40.3592C35.9312 41.4635 35.0372 42.3589 33.9345 42.3589H20.6236C19.5209 42.3589 18.627 41.4635 18.627 40.3592Z" fill="#FFBC57"/>
  <path d="M29.2757 7.69794C29.2757 8.80234 28.3818 9.69765 27.2791 9.69765C26.1764 9.69765 25.2825 8.80234 25.2825 7.69794C25.2825 6.59355 26.1764 5.69824 27.2791 5.69824C28.3818 5.69824 29.2757 6.59355 29.2757 7.69794Z" fill="#3D68FF"/>
</svg>
