<svg width="59" height="48" viewBox="0 0 59 48" fill="none" xmlns="http://www.w3.org/2000/svg">
  <path opacity="0.5" d="M8.29657 1.654C6.64258 3.30796 6.64258 5.97001 6.64258 11.2941V31.0588H49.8261V11.2941C49.8261 5.97001 49.8261 3.30796 48.1721 1.654C46.518 -1.68295e-07 43.856 0 38.532 0H17.9367C12.6126 0 9.95054 -1.68295e-07 8.29657 1.654Z" fill="#C3D0FF"/>
  <path fill-rule="evenodd" clip-rule="evenodd" d="M54.7513 37.6545C54.877 37.7844 54.94 37.8493 54.9987 37.9137C55.9053 38.9093 56.4263 40.1957 56.4678 41.5414C56.4706 41.6286 56.4706 41.719 56.4706 41.8997C56.4706 42.3209 56.4706 42.5316 56.4593 42.7094C56.28 45.5479 54.0181 47.8099 51.1796 47.9892C51.0017 48.0005 50.7911 48.0005 50.3698 48.0005H6.10074C5.67947 48.0005 5.46884 48.0005 5.29096 47.9892C2.45266 47.8099 0.19056 45.5479 0.0112374 42.7094C-2.22203e-07 42.5316 0 42.3209 0 41.8997C0 41.719 3.15225e-07 41.6286 0.0027109 41.5414C0.0443015 40.1957 0.565327 38.9093 1.47182 37.9137C1.53049 37.8493 1.59329 37.7846 1.71865 37.655L5.37349 33.8828H51.0971L54.7513 37.6545ZM19.0588 42.3534C19.0588 41.1839 20.0069 40.2358 21.1765 40.2358H35.2941C36.4636 40.2358 37.4118 41.1839 37.4118 42.3534C37.4118 43.5229 36.4636 44.471 35.2941 44.471H21.1765C20.0069 44.471 19.0588 43.5229 19.0588 42.3534Z" fill="#FFBC57"/>
  <path d="M30.3535 7.76413C30.3535 8.93367 29.4053 9.88178 28.2358 9.88178C27.0663 9.88178 26.1182 8.93367 26.1182 7.76413C26.1182 6.5946 27.0663 5.64648 28.2358 5.64648C29.4053 5.64648 30.3535 6.5946 30.3535 7.76413Z" fill="#3D68FF"/>
  <path d="M50.2624 20.1035L54.7453 24.5862C55.2093 25.0504 55.4415 25.2824 55.7003 25.3897C56.0456 25.5327 56.4333 25.5327 56.7786 25.3897C57.0374 25.2824 57.2696 25.0504 57.7337 24.5862C58.1979 24.1222 58.4299 23.89 58.5372 23.6312C58.6801 23.2859 58.6801 22.8981 58.5372 22.5528C58.4299 22.2941 58.1979 22.0619 57.7337 21.5978L53.251 17.115L54.62 15.7462C56.0214 14.3448 56.722 13.644 56.5566 12.8909C56.3913 12.1377 55.4614 11.7951 53.6016 11.11L47.3992 8.82485C43.6892 7.45802 41.8342 6.77461 40.8781 7.73067C39.9221 8.68674 40.6055 10.5417 41.9723 14.2517L44.2574 20.4541C44.9426 22.3139 45.2852 23.2438 46.0384 23.4092C46.7915 23.5745 47.4922 22.8739 48.8936 21.4725L50.2624 20.1035Z" fill="#9469F0"/>
</svg>
