<?xml version="1.0" encoding="UTF-8"?>
<svg width="9px" height="6px" viewBox="0 0 9 6" version="1.1" xmlns="http://www.w3.org/2000/svg" xmlns:xlink="http://www.w3.org/1999/xlink">
    <!-- Generator: sketchtool 50 (54983) - http://www.bohemiancoding.com/sketch -->
    <title>88E7765A-1B41-4805-84FC-E7EAFB3AE493</title>
    <desc>Created with sketchtool.</desc>
    <defs></defs>
    <g id="↳-CERTIFICATION-Profil" stroke="none" stroke-width="1" fill="none" fill-rule="evenodd">
        <g id="Certif--home" transform="translate(-1321.000000, -413.000000)">
            <g id="icon-arrow-down" transform="translate(1318.675781, 409.000000)">
                <rect id="Rectangle" x="0" y="0" width="14" height="14"></rect>
                <path d="M8.82899719,6.84051973 L5.25686852,3.06664222 C5.17276243,2.97778593 5.0378753,2.97778593 4.9537692,3.06664222 C4.86966311,3.15549851 4.86966311,3.29800388 4.9537692,3.38686017 L8.37355475,6.99979043 L4.9537692,10.6127207 C4.86966311,10.701577 4.86966311,10.8440824 4.9537692,10.9329386 C4.99502879,10.9765285 5.05057055,11 5.10452541,11 C5.15848026,11 5.21402202,10.9782051 5.25528162,10.9329386 L8.82741028,7.15906114 C8.91151637,7.07188139 8.91151637,6.92769948 8.82899719,6.84051973 Z" id="Shape" stroke="#3D68FF" fill-rule="nonzero" transform="translate(6.890690, 7.000000) rotate(90.000000) translate(-6.890690, -7.000000) "></path>
            </g>
        </g>
    </g>
</svg>