<?xml version="1.0" encoding="UTF-8"?>
<svg width="210px" height="179px" viewBox="0 0 210 179" version="1.1" xmlns="http://www.w3.org/2000/svg" xmlns:xlink="http://www.w3.org/1999/xlink">
    <!-- Generator: sketchtool 62 (101010) - https://sketch.com -->
    <title>48E02571-86F2-48B1-B50E-1E2447545314@2.00x</title>
    <desc>Created with sketchtool.</desc>
    <g id="Fin-Parcours" stroke="none" stroke-width="1" fill="none" fill-rule="evenodd">
        <g id="FinParcours--R&amp;D2" transform="translate(-615.000000, -141.000000)" fill-rule="nonzero">
            <g id="bee" transform="translate(615.000000, 135.000000)">
                <g id="Group" transform="translate(0.000000, 17.207550)" fill="#333E40">
                    <path d="M148.458142,42.1638248 C148.453225,42.1638248 148.448309,42.1638248 148.443802,42.1638248 C146.696416,42.1556307 145.286217,40.7360078 145.292342,38.9890317 C145.29564,38.0770316 145.512373,16.4864722 157.788731,1.55974154 C158.899028,0.209358531 160.894284,0.0151590326 162.244667,1.12586545 C163.59505,2.23616215 163.78925,4.2310089 162.678953,5.58180161 C151.858272,18.7382031 151.62515,38.8136786 151.623512,39.0152528 C151.613679,40.756493 150.198563,42.1638248 148.458142,42.1638248 Z" id="Path"></path>
                    <path d="M174.397705,47.4764512 C174.392788,47.4764512 174.387872,47.4764512 174.383365,47.4764512 C172.635979,47.4682571 171.225779,46.0486342 171.231905,44.3016581 C171.235203,43.3896579 171.451936,21.7990985 183.728294,6.8723679 C184.839,5.52198489 186.833847,5.32778539 188.18423,6.4384918 C189.534613,7.54878851 189.728813,9.54363525 188.618516,10.894428 C177.797835,24.0508294 177.564713,44.126305 177.563075,44.3278791 C177.553242,46.0691194 176.138125,47.4764512 174.397705,47.4764512 Z" id="Path"></path>
                    <path d="M1.32252316,95.5043633 C-0.440841055,95.8427785 -0.440841055,98.3669623 1.32252316,98.7049677 L27.2768354,106.849465 L27.2768354,87.3553591 L1.32252316,95.5043633 Z" id="Path"></path>
                </g>
                <ellipse id="Oval" fill="#D9D9D9" transform="translate(107.584934, 32.688869) rotate(106.887476) translate(-107.584934, -32.688869) " cx="107.584934" cy="32.6888689" rx="26.5617189" ry="24.5864906"></ellipse>
                <g id="Group" transform="translate(24.582215, 2.458221)" fill="#F0F0F0">
                    <path d="M72.9993455,49.0152978 C72.8047363,49.0152978 72.6076689,48.9976806 72.4101918,48.9599878 C70.6931241,48.636322 69.5627519,46.9839875 69.8851886,45.2669197 C70.0269461,44.5106069 73.4877122,26.6155738 84.4956281,15.8497928 C85.7456337,14.6272373 87.7503133,14.649771 88.9720494,15.8997766 C90.1941952,17.1493726 90.1720712,19.1540522 88.9220656,20.376198 C79.3604034,29.7276823 76.1380847,46.2711032 76.1069472,46.4370332 C75.8189256,47.9558044 74.4906666,49.0152978 72.9993455,49.0152978 Z" id="Path"></path>
                    <ellipse id="Oval" transform="translate(35.722492, 37.475361) rotate(-106.887476) translate(-35.722492, -37.475361) " cx="35.7224922" cy="37.4753609" rx="30.3462414" ry="28.0899498"></ellipse>
                </g>
                <path d="M71.7321324,60.9462758 C70.2395822,60.9462758 68.9109135,59.885963 68.6253501,58.365553 C68.5864283,58.1607012 64.8810691,39.1357056 53.8563554,28.3531267 C52.6067594,27.1309809 52.5842257,25.1263013 53.8063715,23.8767054 C55.0285173,22.6279289 57.0327872,22.6037564 58.2827929,23.8267216 C70.7586767,36.0285137 74.6856855,56.3371105 74.846699,57.1958493 C75.1691357,58.9141461 74.0375344,60.5681194 72.3192376,60.8905562 C72.1221702,60.9282489 71.9255125,60.9462758 71.7321324,60.9462758 Z" id="Path" fill="#D9D9D9"></path>
                <path d="M81.5162636,130.112844 L81.5162636,92.0468748 L98.2161914,59.3836664 L94.5960505,46.1948984 C82.4438325,48.4687532 71.2191835,52.4572176 61.4297261,57.7792672 L44.1824344,69.8573288 L34.3634783,100.642456 L34.3634783,129.867432 L46.3968822,157.618294 L61.4293164,170.844345 C71.2187738,176.166805 82.4434228,180.155269 94.5956408,182.428714 L100.671545,167.932582 L81.5162636,130.112844 Z" id="Path" fill="#FFCE1C"></path>
                <path d="M99.5591997,170.587871 C97.8896576,170.344097 96.2328163,170.074512 94.5956408,169.767235 C82.4434228,167.49338 71.2187738,163.504915 61.4293164,158.182866 C52.8566786,153.51962 45.3857338,147.827608 39.3458836,141.358388 L46.3968822,157.619114 L61.4293164,170.845165 C62.0414135,171.177844 62.6584271,171.505197 63.2811766,171.827224 C65.1502443,172.793715 67.0680668,173.712271 69.0321858,174.580842 C74.3206396,176.91902 79.9950342,178.897889 85.6628736,180.408876 C88.5766855,181.186083 91.5568693,181.861275 94.5952311,182.429943 L99.5591997,170.587871 Z" id="Path" fill="#FAA330"></path>
                <g id="Group" transform="translate(22.533697, 43.838283)" fill="#3B484A">
                    <path d="M21.256651,70.4718841 C21.256651,91.5413006 27.7897843,111.052205 38.896029,127.006472 C15.3499544,114.198318 0.0860377524,93.6455382 0.0860377524,70.4718841 C0.0860377524,47.3023271 15.3499544,26.7458596 38.896029,13.9418032 C27.7897843,29.8960704 21.256651,49.4073841 21.256651,70.4718841 Z" id="Path"></path>
                    <path d="M177.310287,103.015869 C167.097606,118.567807 149.589333,130.694214 127.53376,136.673428 C117.761101,139.32421 107.095697,140.768005 95.7776356,140.768005 C87.5929872,140.768005 79.6455571,140.014151 72.0619438,138.59166 C55.2989217,120.994481 44.9678361,96.9653663 44.9678361,70.4727036 C44.9678361,43.9837281 55.2993314,19.9550227 72.0619438,2.35784412 C79.6451474,0.934943576 87.5929872,0.181498687 95.7776356,0.181498687 C121.571754,0.181498687 143.970658,7.67579662 160.145346,19.866117 C164.913067,23.4608563 169.142846,27.4579244 172.754793,31.7938174 L177.310287,103.015869 Z" id="Path"></path>
                </g>
                <path d="M150.067048,167.849003 C140.294388,170.499785 129.628984,171.94358 118.310923,171.94358 C110.126275,171.94358 102.178844,171.189726 94.5952311,169.767235 C90.4523085,168.992076 86.4195961,168.012884 82.512253,166.854242 C86.0221836,172.461036 90.0721035,177.681069 94.5952311,182.429534 C95.5432852,182.607345 96.4966654,182.774914 97.4561912,182.931421 C114.875558,185.778451 133.005352,185.138903 150.067048,180.511301 C168.013294,175.644023 185.249523,165.989358 196.78104,151.135145 C197.864297,149.739285 198.886097,148.311468 199.843575,146.853742 L199.10365,135.286581 C188.797556,150.311641 171.601887,162.011956 150.067048,167.849003 Z" id="Path" fill="#333E40"></path>
                <path d="M209.766596,114.310167 C209.856321,125.84824 206.182099,137.255207 199.843575,146.853742 C175.183926,184.198634 116.892119,181.903884 96.3606438,139.977278 C92.4651822,132.025341 90.3650416,123.366665 90.3650416,114.310167 C90.3650416,101.747427 94.4084063,89.951241 101.674499,79.7426568 C115.812141,59.8716234 144.460664,56.941833 161.905433,73.9801759 C162.180754,74.25099 162.455665,74.5222138 162.726888,74.8016316 C163.002209,74.5222138 163.27712,74.2513997 163.548344,73.9801759 C163.603244,73.9252756 163.658554,73.8740627 163.713455,73.8195721 C172.728163,65.1227942 187.267723,66.0118509 195.287671,75.6321008 C204.339662,86.4892457 209.655566,100.059448 209.766596,114.310167 Z" id="Path" fill="#FFCE1C"></path>
                <path d="M209.734639,112.853262 C209.685065,111.327116 209.573625,109.802609 209.404827,108.285067 C208.340008,117.511182 204.962002,126.441081 199.843575,134.192263 C189.630894,149.744201 172.122621,161.871018 150.067048,167.849822 C144.844146,169.266167 139.363951,170.334674 133.667023,171.025434 C157.466704,177.59749 184.861534,169.543127 199.843165,146.854562 C205.604417,138.129105 209.148353,127.898806 209.692029,117.437435 C209.771102,115.936691 209.784213,114.394566 209.734639,112.853262 Z" id="Path" fill="#FAA330"></path>
                <path d="M23.0048562,107.979018 C22.9323386,108.576366 22.8712928,109.176172 22.8196701,109.778026 C22.8016432,109.986975 22.7877133,110.196744 22.7721445,110.406102 C22.3009854,116.693413 22.9757672,123.035625 24.738312,129.088176 C28.2650405,141.197375 35.9564058,151.693161 45.4328497,159.866748 C50.1751687,163.956409 55.5439244,167.642922 61.4305455,170.844755 C57.288852,164.895449 53.7838378,158.450402 51.0158804,151.614908 C35.3996187,140.26366 25.0722204,124.996466 23.0048562,107.979018 Z" id="Path" fill="#333E40"></path>
                <g id="Group" transform="translate(137.466332, 100.800560)">
                    <path d="M26.2836678,44.932531 C24.5350529,44.932531 23.1182979,43.5153663 23.1182979,41.7671612 L23.1182979,36.3648097 C23.1182979,34.6166045 24.5350529,33.1994398 26.2836678,33.1994398 C28.0322827,33.1994398 29.4490378,34.6166045 29.4490378,36.3648097 L29.4490378,41.7671612 C29.4494474,43.5149566 28.0322827,44.932531 26.2836678,44.932531 Z" id="Path" fill="#3B484A"></path>
                    <g id="Group-3" transform="translate(45.033668, 0.034070)">
                        <path d="M3.16536988,21.8984611 C1.41675499,21.8984611 4.54747351e-13,20.4812964 4.54747351e-13,18.7330912 L0.16926024,3.16536988 C0.16926024,1.41716469 1.58601523,0 3.33463012,0 C5.08324501,0 6.5,1.41716469 6.5,3.16536988 L6.33073976,18.7330912 C6.33114946,20.4808867 4.91398477,21.8984611 3.16536988,21.8984611 Z" id="Path-Copy-2" fill="#FFFFFF"></path>
                        <path d="M3.16536988,21.8984611 C1.41675499,21.8984611 0,20.4812964 0,18.7330912 L0,13.3307398 C0,11.5825346 1.41675499,10.1653699 3.16536988,10.1653699 C4.91398477,10.1653699 6.33073985,11.5825346 6.33073985,13.3307398 L6.33073985,18.7330912 C6.33114946,20.4808867 4.91398477,21.8984611 3.16536988,21.8984611 Z" id="Path-Copy-2" fill="#3B484A"></path>
                    </g>
                    <g id="Group-3-Copy" transform="translate(0.533668, 0.034070)">
                        <path d="M3.16536988,21.8984611 C1.41675499,21.8984611 4.54747351e-13,20.4812964 4.54747351e-13,18.7330912 L0.16926024,3.16536988 C0.16926024,1.41716469 1.58601523,0 3.33463012,0 C5.08324501,0 6.5,1.41716469 6.5,3.16536988 L6.33073976,18.7330912 C6.33114946,20.4808867 4.91398477,21.8984611 3.16536988,21.8984611 Z" id="Path-Copy-2" fill="#FFFFFF"></path>
                        <path d="M3.16536988,21.8984611 C1.41675499,21.8984611 0,20.4812964 0,18.7330912 L0,13.3307398 C0,11.5825346 1.41675499,10.1653699 3.16536988,10.1653699 C4.91398477,10.1653699 6.33073985,11.5825346 6.33073985,13.3307398 L6.33073985,18.7330912 C6.33114946,20.4808867 4.91398477,21.8984611 3.16536988,21.8984611 Z" id="Path-Copy-2" fill="#3B484A"></path>
                    </g>
                </g>
                <circle id="Oval" fill="#FFCE1C" cx="160.234252" cy="20.7793463" r="7.45455669"></circle>
                <path d="M167.378253,18.6775669 C166.558846,21.4315944 164.180107,23.5808994 161.146252,23.9549588 C157.469572,24.4085006 154.096482,22.0990015 153.088612,18.6558526 C152.804687,19.6108717 152.705129,20.6375889 152.834595,21.6897077 C153.33894,25.7756815 157.059868,28.6796605 161.145842,28.1757251 C165.231816,27.67138 168.135795,23.950452 167.63186,19.8640685 C167.581876,19.4551843 167.490512,19.0614592 167.378253,18.6775669 Z" id="Path" fill="#FAA330"></path>
                <circle id="Oval" fill="#FFCE1C" cx="186.174634" cy="26.088695" r="7.45455669"></circle>
                <path d="M193.317816,23.990603 C192.498409,26.7446305 190.11967,28.8939355 187.085815,29.2679948 C183.409135,29.7215367 180.036045,27.4120376 179.028175,23.9688887 C178.74425,24.9239077 178.644692,25.9506249 178.774158,27.0027437 C179.278503,31.0887176 182.999431,33.9926966 187.085405,33.4887611 C191.171379,32.984416 194.075358,29.2634881 193.571423,25.1771046 C193.521439,24.7678107 193.430075,24.3740855 193.317816,23.990603 Z" id="Path" fill="#FAA330"></path>
            </g>
        </g>
    </g>
</svg>