<svg width="120" height="120" viewBox="0 0 120 120" fill="none" xmlns="http://www.w3.org/2000/svg">
<g id="clock">
<g id="Group">
<path id="Vector" d="M29.0627 35.7186C25.6877 30.5623 27.094 23.3436 32.344 19.8748C37.594 16.4061 44.8127 17.9998 48.1877 23.1561L29.0627 35.7186Z" fill="#EAEAEA"/>
<path id="Vector_2" d="M33.0002 19.5C32.8127 19.5938 32.5315 19.7813 32.344 19.875C27.094 23.3438 25.6877 30.5625 29.0627 35.7188L32.6252 33.375C30.2815 28.9688 30.469 23.625 33.0002 19.5Z" fill="#D4D6D6"/>
<path id="Vector_3" d="M43.3125 86.3438C44.3438 87.375 44.25 89.0625 43.125 90.1875L35.9063 97.4063C34.7813 98.5313 33.0938 98.5313 32.0625 97.5938C31.0313 96.5625 31.125 94.875 32.25 93.75L39.4688 86.5313C40.5938 85.4063 42.375 85.3125 43.3125 86.3438Z" fill="#FBD000"/>
<path id="Vector_4" d="M77.1563 86.3438C76.125 87.375 76.2188 89.0625 77.3438 90.1875L84.5625 97.4063C85.6875 98.5313 87.375 98.5313 88.4063 97.5938C89.4375 96.5625 89.3438 94.875 88.2188 93.75L81 86.5313C79.875 85.4063 78.1875 85.3125 77.1563 86.3438Z" fill="#FBD000"/>
<path id="Vector_5" d="M33.5626 99.375C32.6251 99.375 31.6876 99 31.0314 98.3437C29.6251 96.9375 29.7189 94.5937 31.2189 93.0937L38.6251 85.7812C39.3751 85.0312 40.4064 84.6562 41.4376 84.6562C42.3751 84.6562 43.3126 85.0312 43.9689 85.6875C45.3751 87.0937 45.2814 89.4375 43.7814 90.9375L36.3751 98.25C35.6251 98.9062 34.5939 99.375 33.5626 99.375ZM41.4376 86.625C40.8751 86.625 40.4064 86.8125 40.0314 87.1875L32.6251 94.5C31.8751 95.25 31.7814 96.375 32.4376 97.0312C33.0939 97.6875 34.3126 97.5937 35.0626 96.8437L42.4689 89.5312C43.2189 88.7812 43.3126 87.6562 42.6564 87C42.2814 86.8125 41.9064 86.625 41.4376 86.625Z" fill="#7C4119"/>
<path id="Vector_6" d="M86.4376 99.375C85.4064 99.375 84.3751 98.9062 83.6251 98.25L76.2189 90.9375C74.7189 89.4375 74.6251 87.0937 76.0314 85.6875C76.6876 85.0312 77.6251 84.6562 78.5626 84.6562C79.5939 84.6562 80.6251 85.125 81.3751 85.7812L88.7814 93.0937C90.2814 94.5937 90.3751 96.9375 88.9689 98.3437C88.3126 99 87.3751 99.375 86.4376 99.375ZM78.5626 86.625C78.0939 86.625 77.7189 86.8125 77.4376 87.0937C76.7814 87.75 76.8751 88.875 77.6251 89.625L85.0314 96.9375C85.7814 97.6875 87.0001 97.6875 87.6564 97.125C88.3126 96.4687 88.2189 95.3437 87.4689 94.5937L79.9689 87.1875C79.5939 86.8125 79.0314 86.625 78.5626 86.625Z" fill="#7C4119"/>
<path id="Vector_7" d="M28.9686 36.6562C28.8749 36.6562 28.8749 36.6562 28.7811 36.6562C28.4999 36.5625 28.3124 36.4688 28.2186 36.2812C26.4374 33.5625 25.8749 30.1875 26.5311 26.9062C27.1874 23.625 29.0624 20.8125 31.7811 18.9375C33.7499 17.625 35.9999 16.9688 38.4374 16.9688C42.5624 16.9688 46.4061 19.0312 48.6561 22.5938C48.9374 23.0625 48.8436 23.625 48.3749 23.9062L29.5311 36.4688C29.3436 36.5625 29.1561 36.6562 28.9686 36.6562ZM38.3436 18.75C36.3749 18.75 34.4061 19.3125 32.7186 20.4375C30.3749 21.9375 28.8749 24.375 28.3124 27.1875C27.8436 29.625 28.1249 32.1562 29.2499 34.3125L46.4999 22.7812C44.5311 20.25 41.5311 18.75 38.3436 18.75Z" fill="#7C4119"/>
<path id="Vector_8" d="M90.1875 35.7186C93.5625 30.5623 92.1562 23.3436 86.9062 19.8748C81.6562 16.4061 74.4375 17.9998 71.0625 23.1561L90.1875 35.7186Z" fill="#EAEAEA"/>
<path id="Vector_9" d="M84.9375 18.8436C79.9687 16.8748 74.0625 18.5623 71.0625 23.1561L74.1562 25.1248C76.875 21.6561 80.8125 19.4061 84.9375 18.8436Z" fill="#D4D6D6"/>
<path id="Vector_10" d="M90.0937 36.6562C89.9062 36.6562 89.7187 36.5625 89.625 36.4688L70.6875 23.8125C70.2188 23.5312 70.125 22.9688 70.4062 22.5C72.6562 18.9375 76.5 16.875 80.625 16.875C82.9688 16.875 85.3125 17.5313 87.2812 18.9375C90 20.7188 91.875 23.625 92.5312 26.9063C93.1875 30.1875 92.625 33.4688 90.8438 36.2812C90.6563 36.4688 90.375 36.6562 90.0937 36.6562ZM72.5625 22.7812L89.8125 34.3125C90.9375 32.1562 91.3125 29.625 90.75 27.1875C90.1875 24.375 88.5937 22.0312 86.3437 20.4375C84.6562 19.3125 82.7812 18.75 80.7187 18.75C77.5312 18.75 74.5313 20.25 72.5625 22.7812Z" fill="#7C4119"/>
<path id="Vector_11" d="M60 98.7188C80.7625 98.7188 97.5938 81.8875 97.5938 61.125C97.5938 40.3625 80.7625 23.5312 60 23.5312C39.2375 23.5312 22.4062 40.3625 22.4062 61.125C22.4062 81.8875 39.2375 98.7188 60 98.7188Z" fill="#FBD000"/>
<path id="Vector_12" d="M60 90.9375C76.465 90.9375 89.8125 77.59 89.8125 61.125C89.8125 44.66 76.465 31.3125 60 31.3125C43.535 31.3125 30.1875 44.66 30.1875 61.125C30.1875 77.59 43.535 90.9375 60 90.9375Z" fill="white"/>
<path id="Vector_13" d="M60 40.5937C74.9062 40.5937 87.1875 51.4687 89.4375 65.8125C89.7187 64.3125 89.8125 62.7188 89.8125 61.2188C89.8125 44.7188 76.5 31.4062 60 31.4062C43.5 31.4062 30.1875 44.7188 30.1875 61.2188C30.1875 62.8125 30.2812 64.3125 30.5625 65.8125C32.7187 51.4687 45.0937 40.5937 60 40.5937Z" fill="#EAEAEA"/>
<path id="Vector_14" d="M61.2189 63.5626C60.2814 63.9376 59.1564 63.5626 58.7814 62.6251V62.5314C58.4064 61.5939 58.7814 60.4689 59.7189 60.0939L75.1876 53.3439C76.1251 52.9689 77.2501 53.3439 77.6251 54.2814V54.3751C78.0001 55.3126 77.6251 56.4376 76.6876 56.8126L61.2189 63.5626Z" fill="#EAEAEA"/>
<path id="Vector_15" d="M60 65.625C61.9675 65.625 63.5625 64.03 63.5625 62.0625C63.5625 60.095 61.9675 58.5 60 58.5C58.0325 58.5 56.4375 60.095 56.4375 62.0625C56.4375 64.03 58.0325 65.625 60 65.625Z" fill="#EAEAEA"/>
<path id="Vector_16" d="M60 39.375C59.4375 39.375 59.0625 39 59.0625 38.4375V35.625C59.0625 35.0625 59.4375 34.6875 60 34.6875C60.5625 34.6875 60.9375 35.0625 60.9375 35.625V38.4375C60.9375 39 60.5625 39.375 60 39.375Z" fill="#7C4119"/>
<path id="Vector_17" d="M60 88.125C59.4375 88.125 59.0625 87.75 59.0625 87.1875V84.375C59.0625 83.8125 59.4375 83.4375 60 83.4375C60.5625 83.4375 60.9375 83.8125 60.9375 84.375V87.1875C60.9375 87.75 60.5625 88.125 60 88.125Z" fill="#7C4119"/>
<path id="Vector_18" d="M84.375 62.8125H81.5625C81 62.8125 80.625 62.4375 80.625 61.875C80.625 61.3125 81 60.9375 81.5625 60.9375H84.375C84.9375 60.9375 85.3125 61.3125 85.3125 61.875C85.3125 62.4375 84.9375 62.8125 84.375 62.8125Z" fill="#7C4119"/>
<path id="Vector_19" d="M39.375 62.8125H36.5625C36 62.8125 35.625 62.4375 35.625 61.875C35.625 61.3125 36 60.9375 36.5625 60.9375H39.375C39.9375 60.9375 40.3125 61.3125 40.3125 61.875C40.3125 62.4375 39.9375 62.8125 39.375 62.8125Z" fill="#7C4119"/>
<path id="Vector_20" d="M111.375 100.312H10.5C9.9375 100.312 9.5625 99.9375 9.5625 99.375C9.5625 98.8125 9.9375 98.4375 10.5 98.4375H111.375C111.938 98.4375 112.312 98.8125 112.312 99.375C112.312 99.9375 111.844 100.312 111.375 100.312Z" fill="#7C4119"/>
<path id="Vector_21" d="M60 93.0938C40.2188 93.0938 24 77.8125 22.5 58.3125C22.4063 59.25 22.4062 60.1875 22.4062 61.125C22.4062 81.8437 39.1875 98.7188 60 98.7188C80.7188 98.7188 97.5938 81.9375 97.5938 61.125C97.5938 60.1875 97.5 59.25 97.5 58.3125C96 77.7188 79.7813 93.0938 60 93.0938Z" fill="#F4B10B"/>
<path id="Vector_22" d="M60.9375 64.6875C59.8125 64.6875 58.875 64.0312 58.4062 63V62.9062C58.125 62.25 58.125 61.5 58.4062 60.8438C58.6875 60.1875 59.1563 59.625 59.9063 59.3438L75 52.7813C75.375 52.5938 75.75 52.5938 76.125 52.5938C77.25 52.5938 78.1875 53.25 78.6563 54.2813V54.375C78.9375 55.0313 78.9375 55.7813 78.6563 56.5313C78.375 57.1875 77.9063 57.75 77.1563 58.0313L62.0625 64.5938C61.6875 64.5938 61.3125 64.6875 60.9375 64.6875ZM76.0312 54.375C75.9375 54.375 75.75 54.375 75.6562 54.4687L60.5625 61.0312C60.375 61.125 60.1875 61.3125 60.0937 61.5C60 61.6875 60 61.9688 60.0937 62.1563V62.25C60.2812 62.7188 60.8438 62.9063 61.3125 62.7188L76.4062 56.1563C76.5938 56.0625 76.7812 55.875 76.875 55.6875C76.9688 55.5 76.9688 55.2188 76.875 55.0313V54.9375C76.6875 54.5625 76.4062 54.375 76.0312 54.375Z" fill="#7C4119"/>
<path id="Vector_23" d="M60 99.375C38.8125 99.375 21.5625 82.125 21.5625 60.9375C21.5625 39.75 38.8125 22.5 60 22.5C81.1875 22.5 98.4375 39.75 98.4375 60.9375C98.4375 82.125 81.1875 99.375 60 99.375ZM60 24.375C39.8438 24.375 23.4375 40.7812 23.4375 60.9375C23.4375 81.0938 39.8438 97.5 60 97.5C80.1562 97.5 96.5625 81.0938 96.5625 60.9375C96.5625 40.7812 80.1562 24.375 60 24.375Z" fill="#7C4119"/>
<path id="Vector_24" d="M60 66.5625C62.5888 66.5625 64.6875 64.4638 64.6875 61.875C64.6875 59.2862 62.5888 57.1875 60 57.1875C57.4112 57.1875 55.3125 59.2862 55.3125 61.875C55.3125 64.4638 57.4112 66.5625 60 66.5625Z" fill="#7C4119"/>
<path id="Vector_25" d="M60 91.875C42.9375 91.875 29.0625 78 29.0625 60.9375C29.0625 43.875 42.9375 30 60 30C77.0625 30 90.9375 43.875 90.9375 60.9375C90.9375 78 77.0625 91.875 60 91.875ZM60 31.875C43.9688 31.875 30.9375 44.9062 30.9375 60.9375C30.9375 76.9688 43.9688 90 60 90C76.0312 90 89.0625 76.9688 89.0625 60.9375C89.0625 44.9062 76.0312 31.875 60 31.875Z" fill="#7C4119"/>
<path id="Vector_26" d="M94.0311 66.9374H93.9374C93.4686 66.8436 93.0936 66.3749 93.0936 65.9061C93.2811 64.3124 93.4686 62.7186 93.4686 61.2186C93.4686 46.2186 83.4374 32.9999 68.9999 28.9686C68.5311 28.8749 68.2499 28.3124 68.3436 27.8436C68.4374 27.3749 68.9999 27.0936 69.4686 27.1874C84.6561 31.4061 95.3436 45.4686 95.3436 61.2186C95.3436 62.9061 95.2499 64.5936 94.9686 66.1874C94.8749 66.5624 94.4999 66.9374 94.0311 66.9374Z" fill="white"/>
<path id="Vector_27" d="M39.375 34.5C39.0937 34.5 38.8125 34.4063 38.625 34.125C38.3437 33.75 38.4375 33.0938 38.8125 32.8125C44.9062 28.2188 52.2187 25.7812 59.9062 25.7812C60.4687 25.7812 60.8437 26.1562 60.8437 26.7188C60.8437 27.2812 60.4687 27.6562 59.9062 27.6562C52.5937 27.6562 45.75 29.9062 39.9375 34.3125C39.75 34.4062 39.5625 34.5 39.375 34.5Z" fill="white"/>
<path id="Vector_28" opacity="0.5" d="M105.938 54.375C103.875 54.375 102.188 52.6875 102.188 50.625C102.188 48.5625 103.875 46.875 105.938 46.875C108 46.875 109.688 48.5625 109.688 50.625C109.688 52.6875 108 54.375 105.938 54.375ZM105.938 48.6563C104.812 48.6563 103.969 49.5938 103.969 50.625C103.969 51.75 104.906 52.5937 105.938 52.5937C107.062 52.5937 107.906 51.6562 107.906 50.625C107.906 49.5 107.062 48.6563 105.938 48.6563Z" fill="white"/>
<path id="Vector_29" opacity="0.5" d="M15 75.9375C12.9375 75.9375 11.25 74.25 11.25 72.1875C11.25 70.125 12.9375 68.4375 15 68.4375C17.0625 68.4375 18.75 70.125 18.75 72.1875C18.75 74.25 17.0625 75.9375 15 75.9375ZM15 70.2188C13.875 70.2188 13.0312 71.1562 13.0312 72.1875C13.0312 73.3125 13.9688 74.1562 15 74.1562C16.125 74.1562 16.9688 73.2188 16.9688 72.1875C16.9688 71.0625 16.125 70.2188 15 70.2188Z" fill="white"/>
<path id="Vector_30" opacity="0.5" d="M67.4063 11.4375C67.4063 11.0625 67.0313 10.6875 66.4688 10.5938L64.6875 10.3125C64.2187 10.2188 63.6563 9.75 63.6563 9.28125L63.375 7.5C63.2812 7.03125 62.9062 6.5625 62.5312 6.5625C62.1562 6.5625 61.7813 6.9375 61.6875 7.5L61.4062 9.28125C61.3125 9.75 60.8438 10.3125 60.375 10.3125L58.5937 10.5938C58.125 10.6875 57.6562 11.0625 57.6562 11.4375C57.6562 11.8125 58.0312 12.1875 58.5937 12.2813L60.375 12.5625C60.8438 12.6562 61.4062 13.125 61.4062 13.5938L61.6875 15.375C61.7813 15.8438 62.1562 16.3125 62.5312 16.3125C62.9062 16.3125 63.2812 15.9375 63.375 15.375L63.6563 13.4063C63.75 12.9375 64.2187 12.4688 64.6875 12.375L66.375 12.2813C67.0313 12.1875 67.4063 11.8125 67.4063 11.4375Z" fill="white"/>
<path id="Vector_31" d="M48.6563 81.4687C48.4688 81.4687 48.2813 81.4688 48.1875 81.375C47.7188 81.0938 47.625 80.5312 47.9062 80.0625L58.9688 61.5C59.25 61.0312 59.8125 60.9375 60.2813 61.2188C60.75 61.5 60.8437 62.0625 60.5625 62.5312L49.4063 81C49.2188 81.2812 48.9375 81.4687 48.6563 81.4687Z" fill="#7C4119"/>
<path id="Vector_32" d="M88.7812 31.7817H88.6875C88.2187 31.6879 87.8437 31.2192 87.8437 30.7504C88.4062 25.6879 85.2187 22.9692 85.125 22.7817C84.75 22.4067 84.6562 21.8442 85.0312 21.4692C85.4062 21.0942 85.9687 21.0004 86.3437 21.3754C86.5312 21.4692 90.4687 24.8442 89.8125 30.9379C89.7187 31.4067 89.25 31.7817 88.7812 31.7817Z" fill="white"/>
<path id="Vector_33" d="M44.3439 23.4377C44.1564 23.4377 43.9689 23.344 43.8751 23.2502C39.6564 20.5315 34.7814 22.3127 34.7814 22.3127C34.3126 22.5002 33.7501 22.219 33.5626 21.7502C33.3751 21.2815 33.6564 20.719 34.1251 20.5315C34.3126 20.4377 39.9376 18.469 44.9064 21.6565C45.3751 21.9377 45.4689 22.5002 45.1876 22.969C44.9064 23.2502 44.6251 23.4377 44.3439 23.4377Z" fill="white"/>
</g>
</g>
</svg>
