<svg width="120" height="120" viewBox="0 0 120 120" fill="none" xmlns="http://www.w3.org/2000/svg">
<g id="Group 27011">
<circle id="Ellipse 11" cx="60" cy="60" r="59.5714" fill="#FFFAEB" stroke="#FFCB33" stroke-width="0.857143"/>
<circle id="Ellipse 11_2" cx="60.0005" cy="59.9995" r="54.4737" stroke="#FFCB33" stroke-width="1.57895"/>
<g id="Group 27009">
<path id="Combined-Shape" d="M82.8454 30.7891C86.4258 30.7891 89.2106 31.8231 89.2106 36.3154V92.9025C89.2106 93.478 88.7416 93.9432 88.1662 93.9385C54.1108 93.3863 26.6077 65.8798 26.061 31.8231C26.0565 31.2533 26.517 30.7891 27.0868 30.7891L82.8454 30.7891Z" fill="#FFBE00"/>
<g id="focus-head">
<g id="Group-15">
<g id="Fill-3">
<g id="Vector" filter="url(#filter0_d_9056_510)">
<path d="M80.6362 47.5802C82.8186 58.0114 75.9838 60.547 74.6726 65.6663C73.7012 69.4718 74.9776 72.2613 75.7181 73.7415C75.9359 74.1838 75.7268 74.7181 75.2651 74.8845C67.4196 77.7047 60.929 76.3471 58.6856 75.48C58.1193 75.2611 57.7229 74.7312 57.6837 74.1225C57.6662 73.8597 57.6532 73.5313 57.6532 73.124C57.6532 70.0673 55.131 70.2951 54.0158 70.5403C52.9006 70.7812 49.5072 71.2235 49.5072 68.0047C49.5072 64.9262 49.7947 61.5673 48.2875 61.0856C48.1393 61.0375 47.0111 60.5908 46.8238 60.5426C46.2357 60.385 45.909 59.7543 46.1181 59.1807C46.7018 57.591 48.845 54.8759 49.6466 53.6366C49.8992 53.2381 49.982 52.752 49.847 52.301C48.1176 46.4416 53.3275 39.4393 59.8835 37.7314C66.2086 36.0848 78.4538 37.1446 80.6362 47.5802Z" fill="black"/>
</g>
<path id="Vector_2" d="M80.6362 47.5802C82.8186 58.0114 75.9838 60.547 74.6726 65.6663C73.7012 69.4718 74.9776 72.2613 75.7181 73.7415C75.9359 74.1838 75.7268 74.7181 75.2651 74.8845C67.4196 77.7047 60.929 76.3471 58.6856 75.48C58.1193 75.2611 57.7229 74.7312 57.6837 74.1225C57.6662 73.8597 57.6532 73.5313 57.6532 73.124C57.6532 70.0673 55.131 70.2951 54.0158 70.5403C52.9006 70.7812 49.5072 71.2235 49.5072 68.0047C49.5072 64.9262 49.7947 61.5673 48.2875 61.0856C48.1393 61.0375 47.0111 60.5908 46.8238 60.5426C46.2357 60.385 45.909 59.7543 46.1181 59.1807C46.7018 57.591 48.845 54.8759 49.6466 53.6366C49.8992 53.2381 49.982 52.752 49.847 52.301C48.1176 46.4416 53.3275 39.4393 59.8835 37.7314C66.2086 36.0848 78.4538 37.1446 80.6362 47.5802Z" fill="white"/>
</g>
<path id="Fill-5" fill-rule="evenodd" clip-rule="evenodd" d="M77.42 45.2012C77.5856 45.499 77.4766 45.8712 77.1804 46.0376C77.089 46.0902 76.9844 46.1121 76.8886 46.1121C76.6708 46.1121 76.4617 45.9982 76.3484 45.7968C75.2376 43.7648 72.7502 44.9604 72.6457 45.0085C72.3408 45.1618 71.9748 45.0348 71.8267 44.7283C71.6786 44.4217 71.8049 44.0539 72.1055 43.905C72.3538 43.7867 72.6588 43.6685 72.9942 43.5765C72.9201 43.2569 72.7894 42.8277 72.5629 42.4598C72.3843 42.1708 72.4714 41.7942 72.7589 41.6147C73.0464 41.4351 73.4254 41.5227 73.5997 41.8117C73.9351 42.3547 74.1181 42.9722 74.2052 43.3926C75.3726 43.362 76.6359 43.7692 77.42 45.2012Z" fill="white"/>
<path id="Fill-7" fill-rule="evenodd" clip-rule="evenodd" d="M73.2817 58.4455C73.8219 58.7038 74.532 58.6469 75.3814 58.2747C75.6907 58.1433 76.0522 58.2834 76.1873 58.5987C76.3223 58.9097 76.1786 59.2731 75.8649 59.4045C75.2072 59.6892 74.5929 59.8337 74.0266 59.8337C73.5649 59.8337 73.1336 59.7373 72.7416 59.549C71.5131 58.9535 71.1472 57.6441 71.1342 57.5872C71.0427 57.2587 71.2344 56.9215 71.5611 56.8339C71.8878 56.7463 72.2232 56.9347 72.3103 57.2631C72.319 57.2894 72.563 58.1039 73.2817 58.4455Z" fill="white"/>
<path id="Fill-9" fill-rule="evenodd" clip-rule="evenodd" d="M73.3735 52.16C73.5782 52.4052 73.8527 52.5366 74.2186 52.5672C74.554 52.5935 74.8066 52.8913 74.7805 53.2285C74.7544 53.5525 74.4886 53.7934 74.1706 53.7934H74.1227C72.9945 53.7058 72.1712 52.9789 71.8662 51.8053C71.8227 51.6345 71.7878 51.4768 71.7704 51.3279C69.6925 51.0126 68.8344 49.2171 68.6688 48.2318C68.6122 47.899 68.8387 47.5793 69.1698 47.5224C69.5052 47.4655 69.8189 47.6932 69.8755 48.026C69.8929 48.1136 70.2763 50.1236 72.3846 50.1499C72.6504 50.1499 72.8856 50.3295 72.964 50.5878C72.9945 50.6929 72.9945 50.798 72.9727 50.8988C72.9684 51.0695 73.0163 51.7308 73.3735 52.16Z" fill="white"/>
<path id="Fill-11" fill-rule="evenodd" clip-rule="evenodd" d="M67.2354 42.0712C67.1309 41.7471 67.3051 41.4012 67.6231 41.2917C67.9455 41.1866 68.2896 41.3574 68.3985 41.6814C68.7557 42.7631 68.6904 43.7002 68.1981 44.4754C67.3095 45.8679 65.3492 46.1 65.2665 46.1088C65.2447 46.1132 65.2185 46.1132 65.1968 46.1132C64.8918 46.1132 64.6261 45.8811 64.5913 45.5658C64.5564 45.2286 64.796 44.9264 65.1314 44.887C65.1619 44.8826 66.5994 44.7031 67.1701 43.8053C67.4532 43.3587 67.475 42.7894 67.2354 42.0712Z" fill="white"/>
<path id="Fill-13" fill-rule="evenodd" clip-rule="evenodd" d="M66.2377 50.9839C66.3554 51.3035 66.1898 51.6539 65.8718 51.7721C65.8021 51.7984 65.7324 51.8115 65.6627 51.8115C65.4144 51.8115 65.1792 51.6539 65.0877 51.4086C64.5868 50.0292 64.9091 48.3782 65.898 47.2966C66.1288 47.047 66.5165 47.0338 66.7648 47.2615C67.0131 47.4936 67.0262 47.879 66.7997 48.1286C66.1114 48.8818 65.8849 50.0248 66.2377 50.9839Z" fill="white"/>
</g>
<path id="?" fill-rule="evenodd" clip-rule="evenodd" d="M63.2419 59.2512C64.2046 59.2345 64.3577 59.1047 64.7164 58.3039C65.0452 57.5671 65.7788 56.887 66.8546 56.2326C68.115 55.4798 69.0954 54.7 69.7325 53.8307C70.4006 52.961 70.7205 51.7158 70.6931 50.1589C70.6165 45.8057 68.444 44.1588 63.8787 44.2378C63.1644 44.2502 62.4202 44.3267 61.5845 44.5001C60.5014 44.7413 60.2574 44.9998 60.2759 46.0484L60.2859 46.6203C60.3044 47.6689 60.5883 47.9183 61.6087 47.6463C62.4439 47.4411 63.2186 47.3324 63.964 47.3195C66.4485 47.2764 67.3925 47.9593 67.4322 50.2154C67.4528 51.391 66.8795 52.3545 66.2978 52.8413C66.0223 53.0686 65.562 53.3944 64.9171 53.8188C62.7683 55.2863 61.6449 56.7678 61.5775 58.2311C61.5598 58.9942 61.9065 59.2743 62.9003 59.2571L63.2419 59.2512ZM63.1957 65.5256C64.2972 65.5065 65.1691 64.6174 65.1495 63.5027C65.1304 62.4181 64.2278 61.5597 63.1263 61.5788C62.0248 61.5979 61.1528 62.487 61.1719 63.5716C61.1915 64.6863 62.0942 65.5446 63.1957 65.5256Z" fill="#FFBE00"/>
</g>
</g>
</g>
<defs>
<filter id="filter0_d_9056_510" x="42.8968" y="35.5265" width="41.3236" height="45.7894" filterUnits="userSpaceOnUse" color-interpolation-filters="sRGB">
<feFlood flood-opacity="0" result="BackgroundImageFix"/>
<feColorMatrix in="SourceAlpha" type="matrix" values="0 0 0 0 0 0 0 0 0 0 0 0 0 0 0 0 0 0 127 0" result="hardAlpha"/>
<feOffset dy="1.57895"/>
<feGaussianBlur stdDeviation="1.57895"/>
<feColorMatrix type="matrix" values="0 0 0 0 0.72778 0 0 0 0 0.531643 0 0 0 0 0.194454 0 0 0 0.5 0"/>
<feBlend mode="normal" in2="BackgroundImageFix" result="effect1_dropShadow_9056_510"/>
<feBlend mode="normal" in="SourceGraphic" in2="effect1_dropShadow_9056_510" result="shape"/>
</filter>
</defs>
</svg>
