<svg width="120" height="120" viewBox="0 0 120 120" fill="none" xmlns="http://www.w3.org/2000/svg">
<g id="Group 27010">
<circle id="Ellipse 10" cx="60" cy="60" r="59.6053" fill="#E8F3EF" stroke="#1C825D" stroke-width="0.789474"/>
<circle id="Ellipse 10_2" cx="59.9995" cy="59.9995" r="54.4737" stroke="#1C825D" stroke-width="1.57895"/>
<g id="Group 27008">
<path id="Combined-Shape" d="M80.4773 32.3691C84.0576 32.3691 86.8425 33.4031 86.8425 37.8955V94.4826C86.8425 95.058 86.3735 95.5232 85.798 95.5186C51.7426 94.9664 24.2395 67.4599 23.6929 33.4031C23.6883 32.8334 24.1489 32.3691 24.7186 32.3691L80.4773 32.3691Z" fill="#2EB12D"/>
<g id="Group-5">
<path id="Fill-1" d="M57.4257 44.8721C63.9445 44.8721 69.2312 50.1615 69.2312 56.6838C69.2312 63.2061 63.9445 68.4956 57.4257 68.4956C50.9068 68.4956 45.6201 63.2061 45.6201 56.6838C45.6201 50.1615 50.9068 44.8721 57.4257 44.8721Z" fill="#2EB12D"/>
<g id="Fill-3">
<g id="Vector" filter="url(#filter0_d_9056_491)">
<path d="M69.2307 56.6834C69.2307 50.1611 63.9441 44.8716 57.4252 44.8716C50.9063 44.8716 45.6196 50.1611 45.6196 56.6834C45.6196 63.2057 50.9063 68.4951 57.4252 68.4951C63.9441 68.4951 69.2307 63.2057 69.2307 56.6834ZM78.2936 72.3529C79.804 73.6653 80.0028 76.0117 78.6513 77.523C77.3396 79.074 75.0341 79.2331 73.4839 77.9207C73.3646 77.8014 73.2056 77.6423 73.0864 77.523L66.2495 69.5689C63.7453 71.2791 60.7244 72.3131 57.4252 72.3131C48.7996 72.3131 41.8037 65.3135 41.8037 56.6834C41.8037 48.0533 48.7996 41.0537 57.4649 41.0537C66.0905 41.0537 73.0864 48.0533 73.0864 56.6834C73.0864 59.9446 72.0927 63.0069 70.3437 65.5124L78.2936 72.3529Z" fill="black"/>
</g>
<path id="Vector_2" d="M69.2307 56.6834C69.2307 50.1611 63.9441 44.8716 57.4252 44.8716C50.9063 44.8716 45.6196 50.1611 45.6196 56.6834C45.6196 63.2057 50.9063 68.4951 57.4252 68.4951C63.9441 68.4951 69.2307 63.2057 69.2307 56.6834ZM78.2936 72.3529C79.804 73.6653 80.0028 76.0117 78.6513 77.523C77.3396 79.074 75.0341 79.2331 73.4839 77.9207C73.3646 77.8014 73.2056 77.6423 73.0864 77.523L66.2495 69.5689C63.7453 71.2791 60.7244 72.3131 57.4252 72.3131C48.7996 72.3131 41.8037 65.3135 41.8037 56.6834C41.8037 48.0533 48.7996 41.0537 57.4649 41.0537C66.0905 41.0537 73.0864 48.0533 73.0864 56.6834C73.0864 59.9446 72.0927 63.0069 70.3437 65.5124L78.2936 72.3529Z" fill="white"/>
</g>
</g>
</g>
<g id="?">
<g id="Vector_3" filter="url(#filter1_d_9056_491)">
<path d="M56.4828 59.952C57.1154 59.9409 57.216 59.8624 57.4525 59.3786C57.6692 58.9334 58.1519 58.522 58.8593 58.1259C59.6881 57.6701 60.333 57.1983 60.7524 56.6728C61.1923 56.147 61.4037 55.395 61.3873 54.455C61.3414 51.8268 59.9158 50.8347 56.9165 50.887C56.4472 50.8952 55.9582 50.9421 55.409 51.0477C54.6972 51.1944 54.5367 51.3507 54.5477 51.9838L54.5537 52.3291C54.5648 52.9622 54.7511 53.1124 55.4217 52.9472C55.9706 52.8225 56.4797 52.756 56.9694 52.7475C58.6017 52.719 59.2211 53.1303 59.2449 54.4924C59.2573 55.2022 58.8797 55.7844 58.497 56.0789C58.3157 56.2164 58.013 56.4136 57.5889 56.6705C56.1757 57.5587 55.4362 58.4543 55.3904 59.3378C55.378 59.7986 55.6055 59.9673 56.2584 59.9559L56.4828 59.952ZM56.4264 63.7333C57.1609 63.7204 57.7429 63.1538 57.7305 62.444C57.7185 61.7534 57.117 61.2074 56.3825 61.2202C55.648 61.233 55.066 61.7997 55.0781 62.4903C55.0905 63.2001 55.6919 63.7461 56.4264 63.7333Z" fill="black"/>
</g>
<path id="Vector_4" d="M56.4828 59.952C57.1154 59.9409 57.216 59.8624 57.4525 59.3786C57.6692 58.9334 58.1519 58.522 58.8593 58.1259C59.6881 57.6701 60.333 57.1983 60.7524 56.6728C61.1923 56.147 61.4037 55.395 61.3873 54.455C61.3414 51.8268 59.9158 50.8347 56.9165 50.887C56.4472 50.8952 55.9582 50.9421 55.409 51.0477C54.6972 51.1944 54.5367 51.3507 54.5477 51.9838L54.5537 52.3291C54.5648 52.9622 54.7511 53.1124 55.4217 52.9472C55.9706 52.8225 56.4797 52.756 56.9694 52.7475C58.6017 52.719 59.2211 53.1303 59.2449 54.4924C59.2573 55.2022 58.8797 55.7844 58.497 56.0789C58.3157 56.2164 58.013 56.4136 57.5889 56.6705C56.1757 57.5587 55.4362 58.4543 55.3904 59.3378C55.378 59.7986 55.6055 59.9673 56.2584 59.9559L56.4828 59.952ZM56.4264 63.7333C57.1609 63.7204 57.7429 63.1538 57.7305 62.444C57.7185 61.7534 57.117 61.2074 56.3825 61.2202C55.648 61.233 55.066 61.7997 55.0781 62.4903C55.0905 63.2001 55.6919 63.7461 56.4264 63.7333Z" fill="white"/>
</g>
</g>
<defs>
<filter id="filter0_d_9056_491" x="38.7835" y="39.5436" width="43.7923" height="43.7923" filterUnits="userSpaceOnUse" color-interpolation-filters="sRGB">
<feFlood flood-opacity="0" result="BackgroundImageFix"/>
<feColorMatrix in="SourceAlpha" type="matrix" values="0 0 0 0 0 0 0 0 0 0 0 0 0 0 0 0 0 0 127 0" result="hardAlpha"/>
<feOffset dy="1.51008"/>
<feGaussianBlur stdDeviation="1.51008"/>
<feColorMatrix type="matrix" values="0 0 0 0 0.0721656 0 0 0 0 0.616338 0 0 0 0 0.0316625 0 0 0 0.5 0"/>
<feBlend mode="normal" in2="BackgroundImageFix" result="effect1_dropShadow_9056_491"/>
<feBlend mode="normal" in="SourceGraphic" in2="effect1_dropShadow_9056_491" result="shape"/>
</filter>
<filter id="filter1_d_9056_491" x="52.2818" y="50.1302" width="11.3711" height="17.3784" filterUnits="userSpaceOnUse" color-interpolation-filters="sRGB">
<feFlood flood-opacity="0" result="BackgroundImageFix"/>
<feColorMatrix in="SourceAlpha" type="matrix" values="0 0 0 0 0 0 0 0 0 0 0 0 0 0 0 0 0 0 127 0" result="hardAlpha"/>
<feOffset dy="1.51008"/>
<feGaussianBlur stdDeviation="1.13256"/>
<feColorMatrix type="matrix" values="0 0 0 0 0.0721656 0 0 0 0 0.616338 0 0 0 0 0.0316625 0 0 0 0.5 0"/>
<feBlend mode="normal" in2="BackgroundImageFix" result="effect1_dropShadow_9056_491"/>
<feBlend mode="normal" in="SourceGraphic" in2="effect1_dropShadow_9056_491" result="shape"/>
</filter>
</defs>
</svg>
