<svg width="18" height="16" viewBox="0 0 18 16" fill="none" xmlns="http://www.w3.org/2000/svg">
  <rect width="18" height="16" fill="none"/>
  <path d="M7.92817 13.2997C7.92817 13.2997 7.92818 13.2997 7.92818 13.2997C7.96051 13.742 8.19834 14.1434 8.57074 14.3842C8.94313 14.6249 9.40689 14.6771 9.82336 14.5249C10.2398 14.3728 10.5609 14.0341 10.6905 13.61C10.7425 13.4399 10.7613 13.2638 10.7483 13.0909C10.7138 12.6332 10.6902 12.1202 10.9854 11.7688L12.9155 9.47182C13.0418 9.32158 13.0223 9.09743 12.8719 8.97128V8.97128C12.7219 8.84534 12.4982 8.86469 12.372 9.01453L10.4289 11.3214C10.1377 11.6671 9.63857 11.735 9.18907 11.7826C8.95678 11.8071 8.7303 11.8892 8.53181 12.0269C8.11855 12.3136 7.88864 12.7983 7.92816 13.2997C7.92816 13.2997 7.92817 13.2997 7.92817 13.2997V13.2997Z" fill="#8A49FF"/>
  <path d="M8.69973 5.9714C8.69984 5.9714 8.69993 5.97131 8.69993 5.9712V3.68461C8.69993 3.4586 8.51269 3.27659 8.28737 3.29434C6.39705 3.44328 4.60238 4.1887 3.16276 5.42288C2.9914 5.56979 2.98795 5.83049 3.14756 5.9901L4.49889 7.34144C4.6504 7.49294 4.89358 7.49702 5.05999 7.36206C6.09184 6.52523 7.36625 6.03616 8.69973 5.9714V5.9714Z" fill="#8A49FF"/>
  <path d="M14.851 5.9901C15.0112 5.83061 15.0081 5.56938 14.8364 5.42224C13.3969 4.18843 11.6026 3.44324 9.71254 3.29434C9.48723 3.27659 9.29999 3.4586 9.29999 3.68461V5.58971C9.29999 5.80334 9.46811 5.97789 9.68051 6.00088C10.8745 6.13006 12.0064 6.60014 12.9405 7.35483C13.1067 7.48903 13.3489 7.48501 13.5002 7.33436L14.851 5.9901Z" fill="#8A49FF"/>
  <path d="M2.40001 12.8713C2.48117 12.8718 2.55912 12.8392 2.61604 12.7813C2.67028 12.7249 2.70055 12.6495 2.70001 12.5713V12.2713C2.70014 10.8321 3.19491 9.44089 4.0949 8.32787C4.2293 8.16166 4.22522 7.91918 4.07432 7.76781L2.72475 6.41397C2.56516 6.25388 2.304 6.2572 2.15697 6.42889C0.766271 8.05268 -0.00189712 10.1244 3.51855e-06 12.2715V12.5894C0.00951236 12.7481 0.141165 12.8717 0.300005 12.8715L2.40001 12.8713Z" fill="#8A49FF"/>
  <path d="M15.5671 6.12144C15.5671 6.12146 15.5671 6.12147 15.5671 6.12149L13.9257 7.76802C13.7748 7.91939 13.7708 8.16187 13.9052 8.32807C14.8052 9.44112 15.2999 10.8324 15.3001 12.2715V12.5715C15.2971 12.6529 15.3275 12.7319 15.384 12.7904C15.4424 12.8452 15.5201 12.8743 15.6001 12.8715H17.7001C17.8589 12.8717 17.9906 12.7481 18.0001 12.5894V12.2715C18.0021 9.98643 17.1319 7.78698 15.5672 6.12139C15.5672 6.12134 15.5671 6.12138 15.5671 6.12144V6.12144Z" fill="#8A49FF"/>
</svg>
