<svg viewBox="0 0 64 64" fill="none" xmlns="http://www.w3.org/2000/svg"><g clip-path="url(#a)"><path d="M17.678 45.801c-6.875 0-7.161 4.404-7.161 9.836h2.201c0-4.587.242-8.306 6.048-8.306 5.807 0 6.048 3.718 6.048 8.306h.026c0-5.432-.287-9.836-7.162-9.836Z" fill="#E8F3FF"/><path d="M32 45.801c-6.875 0-7.162 4.404-7.162 9.836h2.202c0-4.587.242-8.306 6.048-8.306s6.048 3.718 6.048 8.306h.026c0-5.432-.287-9.836-7.162-9.836Z" fill="#E8F3FF"/><path d="M46.322 45.801c-6.875 0-7.162 4.404-7.162 9.836h2.202c0-4.587.241-8.306 6.048-8.306 5.806 0 6.048 3.718 6.048 8.306h.025c0-5.432-.286-9.836-7.161-9.836ZM28.808 26.075a2.345 2.345 0 0 0-2.346 2.346v13.33h1.488c0-1.438.75-2.698 1.877-3.418v-9.59h8.883c.53 0 .96-.431.96-.96v-1.71H28.81l-.002.002ZM54.53 8.363H23.555a2.241 2.241 0 0 0-2.241 2.242v.005a2.245 2.245 0 0 0 2.245 2.245H49.36a2.241 2.241 0 0 1 2.242 2.241v19.696h2.926a2.241 2.241 0 0 0 2.242-2.242V10.605a2.241 2.241 0 0 0-2.242-2.242Z" fill="#E8F3FF"/><path d="M24.838 55.637c0-5.432-.286-9.836-7.161-9.836s-7.162 4.404-7.162 9.836M17.678 45.8a4.05 4.05 0 1 0 0-8.1 4.05 4.05 0 0 0 0 8.1ZM22.41 24.105a4.05 4.05 0 1 0 .001-8.099 4.05 4.05 0 0 0 0 8.1ZM39.162 55.637c0-5.432-.287-9.836-7.162-9.836s-7.162 4.404-7.162 9.836M32 45.8a4.05 4.05 0 1 0 0-8.1 4.05 4.05 0 0 0 0 8.1Z" stroke="#3674BF" stroke-width="1.067" stroke-linecap="round" stroke-linejoin="round"/><path d="M53.483 55.637c0-5.432-.286-9.836-7.161-9.836s-7.162 4.404-7.162 9.836M46.322 45.8a4.05 4.05 0 1 0 0-8.1 4.05 4.05 0 0 0 0 8.1ZM31.869 34.792h22.745a2.164 2.164 0 0 0 2.157-2.157V10.52a2.164 2.164 0 0 0-2.157-2.157H23.472a2.164 2.164 0 0 0-2.157 2.157v3.072" stroke="#3674BF" stroke-width="1.067" stroke-linecap="round" stroke-linejoin="round"/><path d="M29.827 38.253v-9.51h8.919a.927.927 0 0 0 .923-.922v-2.423a.927.927 0 0 0-.923-.923H26.01a4.837 4.837 0 0 1-3.598 1.6 4.835 4.835 0 0 1-3.599-1.6h-2.892c-1.016 0-1.847.83-1.847 1.846v13.583M21.728 41.75h6.222M22.411 26.075V41.75M24.814 30.041h2.722M4.931 55.637H59.07M33.403 18.253l1.11 1.317 1.605-2.437" stroke="#3674BF" stroke-width="1.067" stroke-linecap="round" stroke-linejoin="round"/><path d="M38.33 14.632h-7.137v7.136h7.136v-7.136ZM41.3 19.22h9.414M41.3 17.18h5.15" stroke="#3674BF" stroke-width="1.067" stroke-linecap="round" stroke-linejoin="round"/></g><defs><clipPath id="a"><path fill="#fff" d="M0 0h64v64H0z"/></clipPath></defs></svg>