<svg width="17" height="20" viewBox="0 0 17 20" fill="none" xmlns="http://www.w3.org/2000/svg">
  <path fill-rule="evenodd" clip-rule="evenodd" d="M10.231 6.25035C10.231 8.24819 8.56556 9.86737 6.51064 9.86737C4.45572 9.86737 2.79027 8.24819 2.79027 6.25035C2.79027 4.25251 4.45572 2.63333 6.51064 2.63333C8.56556 2.63333 10.231 4.25251 10.231 6.25035ZM0 16.2622C0 13.4787 2.31942 11.2238 5.18235 11.2238H7.83892C8.25863 11.2238 8.66665 11.2722 9.05739 11.3637C8.18308 12.3359 7.59574 13.6974 7.59574 15.6546C8.54379 14.517 10.3915 13.7198 11.9713 13.2206C12.6303 14.0657 13.0213 15.1194 13.0213 16.2622C13.0213 16.7256 12.6347 17.1014 12.158 17.1014H0.863241C0.386569 17.1014 0 16.7256 0 16.2622Z" fill="#5B93FD"/>
  <path d="M14.5769 8.43687C14.2544 8.15025 13.7447 8.37915 13.7447 8.81058V9.36395C12.056 9.79297 9.10092 11.7902 8.31915 14.2076C10.2728 12.4932 13.5836 11.831 13.7447 11.8386V12.371C13.7447 12.8024 14.2544 13.0313 14.5769 12.7447L16.5796 10.9645C16.8033 10.7656 16.8033 10.4159 16.5796 10.2171L14.5769 8.43687Z" fill="#5B93FD"/>
</svg>
