<svg width="120" height="120" viewBox="-10 -10 120 120" xmlns="http://www.w3.org/2000/svg"><g fill-rule="nonzero" fill="none"><path fill="#FFBE00" d="M6.935 2.677H32.48v18.248H6.935z"/><g fill="#FFF"><path d="M25.185 9.975h3.649v3.65h-3.65zM17.884 9.975h3.649v3.65h-3.65zM10.585 9.975h3.649v3.65h-3.65z"/></g><g fill="#242D3C"><path d="M100 22.75H6.935V19.1H96.35V4.5H6.935V.851H100zM0 .852h3.649v21.897H0z"/></g><path fill="#FFBE00" d="M6.935 28.222h80.29V46.47H6.935z"/><g fill="#FFF"><path d="M79.925 35.523h3.65v3.65h-3.65zM72.63 35.523h3.65v3.65h-3.65zM65.33 35.523h3.65v3.65h-3.65z"/></g><g fill="#242D3C"><path d="M100 48.297H6.935v-3.65h89.416V30.05H6.935v-3.65H100zM0 26.397h3.649v21.898H0z"/></g><path fill="#FFBE00" d="M6.935 53.772H50.73V72.02H6.935z"/><g fill="#FFF"><path d="M43.43 61.072h3.649v3.65h-3.65zM36.13 61.072h3.649v3.65h-3.65zM28.832 61.072h3.649v3.65h-3.65z"/></g><g fill="#242D3C"><path d="M100 73.844H6.935v-3.65H96.35V55.597H6.935v-3.65H100zM0 51.947h3.649v21.898H0z"/></g><path fill="#FFBE00" d="M6.935 79.322H72.63V97.57H6.935z"/><g fill="#FFF"><path d="M65.33 86.617h3.649v3.649h-3.65zM58.03 86.617h3.649v3.649h-3.65zM50.73 86.617h3.649v3.649h-3.65z"/></g><g fill="#242D3C"><path d="M100 99.392H6.935v-3.65H96.35V81.144H6.935v-3.65H100zM0 77.491h3.649V99.39H0z"/></g></g></svg>