<svg width="120" height="120" xmlns="http://www.w3.org/2000/svg"><g fill-rule="nonzero" fill="none"><path fill="#AFB8C9" d="M84.647 90.934H96.19v26.933H84.647z"/><path fill="#8C95A4" d="M84.647 92.858H96.19v5.77H84.647z"/><path fill="#AFB8C9" d="M23.086 90.934h11.543v26.933H23.086z"/><path fill="#8C95A4" d="M23.086 92.858h11.543v5.77H23.086z"/><path d="M109.656 15.906a7.696 7.696 0 017.696 7.695v61.562a7.696 7.696 0 01-7.696 7.695H9.62a7.696 7.696 0 01-7.695-7.695V23.6a7.696 7.696 0 017.695-7.695h100.037z" fill="#AFB8C9"/><path fill="#ECECEC" d="M9.619 23.602h100.037v61.56H9.619z"/><path fill="#B6C1CE" d="M9.619 79.392h100.037v5.77H9.619z"/><path fill="#AFB8C9" d="M23.086 64l7.695 11.544L38.476 64z"/><path d="M38.476 19.754h-15.39v-9.62a7.696 7.696 0 0115.39 0v9.62z" fill="#ECECEC"/><path fill="#48C397" d="M78.876 40.915v7.696l7.695 5.77 7.695-5.77v-7.696l-7.695-5.771z"/><path fill="#0FA196" d="M86.57 54.382l7.696-5.771v-7.696l-7.695-5.771z"/><path fill="#FFBE00" d="M63.485 40.915v7.696l7.695 5.77 7.696-5.77v-7.696l-7.696-5.771z"/><path fill="#FFBE00" d="M71.18 54.382l7.696-5.771v-7.696l-7.696-5.771zM55.79 54.382v7.695l7.695 5.771 7.695-5.77v-7.696l-7.695-5.771z"/><path fill="#FFBE00" d="M63.485 67.848l7.695-5.77v-7.696l-7.695-5.771zM71.18 54.382v7.695l7.696 5.771 7.695-5.77v-7.696l-7.695-5.771z"/><path fill="#FFBE00" d="M78.876 67.848l7.695-5.77v-7.696l-7.695-5.771z"/><path fill="#FFBE00" d="M86.57 54.382v7.695l7.696 5.771 7.695-5.77v-7.696l-7.695-5.771z"/><path fill="#FFBE00" d="M94.266 67.848l7.695-5.77v-7.696l-7.695-5.771z"/><path d="M23.086 23.602h15.39v40.4h-15.39z"/><path fill="#FFBE00" d="M30.781 23.602h7.695v40.4h-7.695z"/><path fill="#8C95A4" d="M23.086 19.754h15.39v7.695h-15.39z"/><path d="M109.656 13.982H40.4v-3.847c0-5.304-4.315-9.62-9.62-9.62-5.303 0-9.618 4.316-9.618 9.62v3.847H9.619C4.315 13.982 0 18.297 0 23.602v61.56c0 5.305 4.315 9.62 9.619 9.62h11.543v21.161H7.695v3.848H111.58v-3.848H98.114V94.782h11.542c5.304 0 9.62-4.315 9.62-9.62v-61.56c0-5.305-4.316-9.62-9.62-9.62zM36.552 62.077h-3.847v-25.01h-3.848v25.01h-3.848V29.373h3.848v3.847h3.848v-3.847h3.847v32.704zm-1.67 3.848l-4.101 6.15-4.102-6.15h8.203zm-9.873-40.4v-3.848h11.543v3.848H25.01zm5.772 53.487L40.4 64.584V25.525h67.333v57.714h-96.19V25.525h9.619v39.059l9.619 14.428zm0-74.649a5.778 5.778 0 015.771 5.772v7.695H25.01v-7.695a5.778 5.778 0 015.772-5.772zm-5.772 90.419h7.696v21.161h-7.696V94.782zm57.714 0v21.161h-46.17V94.782h46.17zm11.543 21.161h-7.695V94.782h7.695v21.161zm21.162-30.78a5.778 5.778 0 01-5.772 5.771H9.62a5.778 5.778 0 01-5.771-5.771V23.6a5.778 5.778 0 015.771-5.771h11.543v3.847H7.695v65.41H111.58v-65.41H40.4V17.83h69.256a5.778 5.778 0 015.772 5.771v61.562z" fill="#000"/><path d="M71.18 64.482l7.696 5.771 7.695-5.771 7.695 5.771 9.619-7.214V53.42l-7.695-5.771v-7.696l-9.62-7.214-7.694 5.772-7.696-5.772-9.619 7.214v7.696l-7.695 5.771v9.619l9.62 7.214 7.694-5.771zm1.924-3.367v-5.771l5.772-4.329 5.771 4.329v5.771l-5.771 4.329-5.772-4.329zm26.933 0l-5.771 4.329-5.771-4.329v-5.771l5.771-4.329 5.771 4.329v5.771zm-7.695-19.238v5.772l-5.771 4.328-5.772-4.328v-5.772l5.772-4.328 5.771 4.328zm-26.933 0l5.771-4.328 5.772 4.328v5.772l-5.772 4.328-5.771-4.328v-5.772zm-7.695 13.467l5.771-4.329 5.772 4.329v5.771l-5.772 4.329-5.771-4.329v-5.771zM0 115.944h3.848v3.848H0zM115.428 115.944h3.848v3.848h-3.848zM94.266 73.62h3.848v3.848h-3.848zM82.723 73.62h3.848v3.848h-3.848zM71.18 73.62h3.848v3.848H71.18zM59.638 73.62h3.848v3.848h-3.848z" fill="#000"/></g></svg>