<svg width="120" height="120" viewBox="-10 -10 120 120" xmlns="http://www.w3.org/2000/svg"><g transform="translate(.5 .516)" fill-rule="nonzero" fill="none"><path d="M93.867 1.707a6.827 6.827 0 00-6.827 6.826v3.414h13.653V8.533a6.827 6.827 0 00-6.826-6.826z" fill="#FFE495"/><path d="M87.04 1.707H22.187a6.827 6.827 0 00-6.827 6.826v92.16h64.853a6.827 6.827 0 006.827-6.826V8.533a6.827 6.827 0 016.827-6.826H87.04z" fill="#FFF3D0"/><g fill="#C7C7C7"><path d="M39.253 17.067H61.44v3.413H39.253zM23.893 27.307h54.613v3.413H23.893zM23.893 37.547H61.44v3.413H23.893zM68.267 37.547h10.24v3.413h-10.24zM23.893 47.787h54.613V51.2H23.893zM23.893 58.027h20.48v3.413h-20.48zM23.893 66.56h8.533v3.413h-8.533zM39.253 66.56h5.12v3.413h-5.12z"/></g><path d="M73.387 93.867v-3.414H1.707v3.414a6.827 6.827 0 006.826 6.826h71.68a6.827 6.827 0 01-6.826-6.826z" fill="#DECA91"/><path fill="#F46B27" d="M63.147 71.68v11.947l5.12-3.414 5.12 3.414V71.68z"/><path d="M63.147 73.387V76.8a8.395 8.395 0 0010.24 0v-3.413h-10.24z" fill="#E65F1C"/><circle fill="#FFBE00" cx="68.267" cy="66.56" r="8.533"/><circle fill="#FFBE00" cx="68.267" cy="66.56" r="5.12"/><path d="M68.267 56.32c-5.656.012-10.23 4.608-10.217 10.262a10.25 10.25 0 003.39 7.59v9.455c.002.63.35 1.206.904 1.502a1.71 1.71 0 001.707-.086l4.215-2.782 4.182 2.782a1.706 1.706 0 002.645-1.416v-9.455c4.204-3.784 4.545-10.257.763-14.463a10.249 10.249 0 00-7.59-3.389zm3.413 24.115l-2.475-1.706a1.706 1.706 0 00-1.877 0l-2.475 1.706v-4.232c2.207.797 4.62.797 6.827 0v4.232zm-3.413-7.048a6.827 6.827 0 110-13.654 6.827 6.827 0 010 13.654zM39.253 17.067H61.44v3.413H39.253zM23.893 27.307h54.613v3.413H23.893zM23.893 37.547H61.44v3.413H23.893zM68.267 37.547h10.24v3.413h-10.24zM23.893 47.787h54.613V51.2H23.893zM23.893 58.027h20.48v3.413h-20.48zM23.893 66.56h8.533v3.413h-8.533zM39.253 66.56h5.12v3.413h-5.12z" fill="#000"/><path d="M93.867 0h-71.68a8.534 8.534 0 00-8.534 8.533v80.214H1.707C.765 88.747 0 89.51 0 90.453v3.414a8.534 8.534 0 008.533 8.533h71.68a8.534 8.534 0 008.534-8.533V13.653h11.946c.942 0 1.707-.764 1.707-1.706V8.533A8.534 8.534 0 0093.867 0zM15.36 98.987H8.533a5.12 5.12 0 01-5.12-5.12V92.16H71.68v1.707c0 1.846.599 3.643 1.707 5.12H15.36zm69.973-5.12a5.12 5.12 0 11-10.24 0v-3.414c0-.942-.764-1.706-1.706-1.706h-56.32V8.533a5.12 5.12 0 015.12-5.12H87.04l-.137.205-.273.444a8.877 8.877 0 00-.477.887c0 .171-.154.342-.222.512-.127.33-.234.666-.324 1.007 0 .171 0 .325-.12.478a9.52 9.52 0 00-.153 1.587v85.334zM98.987 10.24h-10.24V8.533a5.12 5.12 0 1110.24 0v1.707z" fill="#000"/></g></svg>