<svg width="684" height="591" viewBox="0 0 684 591" fill="none" xmlns="http://www.w3.org/2000/svg">
  <g opacity="0.5">
    <path d="M175.618 394.758C182.52 461.595 256.295 520.159 295.317 585.194C333.96 650.563 338.432 723.067 376.331 748.519C414.23 773.97 485.936 752.037 563.492 746.712C641.048 741.387 723.782 752.673 759.621 715.259C795.08 678.179 783.265 592.733 788.017 521.521C792.77 450.309 813.711 393.664 804.334 345.467C795.338 296.936 756.113 256.187 706.957 219.473C658.091 183.09 599.763 149.742 528.498 143.064C457.233 136.386 373.413 156.043 301.328 203.594C229.154 251.81 169.095 327.586 175.618 394.758Z" fill="#DED1FA"/>
    <path opacity="0.3" d="M254.28 387.079C218.844 486.589 182.974 574.472 206.547 641.515C230.594 708.388 312.963 754.289 395.47 785.679C477.806 816.594 559.331 833.341 636.979 813.989C714.626 794.637 787.448 739.529 798.998 674.853C810.377 609.702 760.009 535.155 736.71 439.091C713.412 343.026 717.827 225.749 659.378 159.999C600.929 94.2493 480.089 79.857 402.167 128.23C324.246 176.602 289.242 287.74 254.28 387.079Z" fill="#9469F0"/>
    <path opacity="0.3" d="M417.121 819.136C528.303 844.571 627.071 871.938 695.987 838.196C764.66 803.966 803.481 709.843 826.724 617.406C849.479 525.211 857.143 435.675 826.588 354.854C796.033 274.034 727.743 202.903 656.931 198.684C585.632 194.708 512.052 258.132 411.981 295.245C311.91 332.358 185.593 342.431 122.467 413.41C59.3421 484.388 59.1664 615.785 120.876 693.235C182.586 770.685 306.182 794.188 417.121 819.136Z" fill="#9469F0"/>
  </g>
</svg>
