<svg width="655" height="568" viewBox="0 0 655 568" fill="none" xmlns="http://www.w3.org/2000/svg">
  <path opacity="0.8" d="M717.657 251.995C733.778 317.225 684.172 397.298 669.458 471.701C655.215 546.29 675.539 616.029 648.488 652.804C621.437 689.579 546.539 693.203 471.757 714.435C396.974 735.667 322.939 774.283 276.554 751.203C230.64 728.309 212.845 643.906 184.277 578.502C155.708 513.099 116.835 466.882 109.349 418.355C101.393 369.643 124.515 318.024 158.349 266.843C192.021 216.071 235.625 164.953 300.426 134.555C365.226 104.156 450.754 94.2908 534.677 114.645C618.909 135.595 701.065 186.578 717.657 251.995Z" fill="#DED1FA"/>
  <path opacity="0.1" d="M641.037 271.386C708.055 353.035 771.546 423.596 772.05 494.661C772.05 565.726 710.071 636.791 643.053 694.248C576.035 751.201 504.986 794.545 425.37 802.609C345.755 810.673 258.581 783.457 225.828 726.504C193.075 669.047 215.246 581.854 204.665 483.573C194.083 385.292 150.244 276.426 182.997 194.777C215.75 113.128 324.591 58.6954 414.285 77.8477C503.978 96.9999 574.523 189.737 641.037 271.386Z" fill="#9469F0"/>
  <path fill-rule="evenodd" clip-rule="evenodd" d="M287.627 270.932C287.613 269.971 286.34 269.643 285.864 270.478L280.989 279.034L268.949 278.989C268.021 278.985 267.646 280.182 268.409 280.709L277.986 287.323L278.834 297.141C278.914 298.065 280.139 298.332 280.596 297.525L285.786 288.342L297.491 287.385C298.439 287.307 298.689 286.033 297.841 285.603L287.763 280.489L287.627 270.932Z" fill="#694BAA"/>
  <path fill-rule="evenodd" clip-rule="evenodd" d="M624.627 75.9316C624.613 74.9706 623.34 74.6429 622.864 75.4779L617.989 84.0336L605.949 83.9886C605.021 83.9851 604.646 85.1815 605.409 85.7085L614.986 92.3227L615.834 102.14C615.914 103.064 617.139 103.33 617.596 102.523L622.785 93.3434L634.491 92.3854C635.439 92.3078 635.689 91.0342 634.841 90.6036L624.763 85.4903L624.627 75.9316Z" fill="#694BAA"/>
  <path fill-rule="evenodd" clip-rule="evenodd" d="M357.166 88.2421C357.148 86.9608 355.449 86.5238 354.815 87.6372L348.316 99.043L332.265 98.983C331.029 98.9784 330.528 100.574 331.546 101.276L344.308 110.09L345.439 123.188C345.545 124.42 347.179 124.775 347.788 123.699L354.707 111.459L370.321 110.181C371.585 110.077 371.919 108.379 370.787 107.805L357.347 100.986L357.166 88.2421Z" fill="#694BAA"/>
  <path fill-rule="evenodd" clip-rule="evenodd" d="M479.988 166.901C479.975 165.972 478.743 165.655 478.283 166.462L473.567 174.738L461.918 174.694C461.021 174.691 460.658 175.848 461.396 176.358L470.66 182.756L471.48 192.253C471.557 193.147 472.742 193.405 473.184 192.624L478.204 183.744L489.527 182.817C490.444 182.742 490.686 181.51 489.865 181.093L480.12 176.149L479.988 166.901Z" fill="#694BAA"/>
  <path fill-rule="evenodd" clip-rule="evenodd" d="M324.988 164.901C324.975 163.972 323.743 163.655 323.283 164.462L318.567 172.738L306.918 172.694C306.021 172.691 305.658 173.848 306.396 174.358L315.66 180.756L316.48 190.253C316.557 191.147 317.742 191.405 318.184 190.624L323.204 181.744L334.527 180.817C335.444 180.742 335.686 179.51 334.865 179.093L325.12 174.149L324.988 164.901Z" fill="#694BAA"/>
  <path fill-rule="evenodd" clip-rule="evenodd" d="M237.167 363.242C237.149 361.961 235.451 361.524 234.816 362.637L228.317 374.043L212.265 373.983C211.029 373.978 210.528 375.574 211.546 376.276L224.31 385.091L225.441 398.188C225.547 399.42 227.181 399.775 227.789 398.699L234.709 386.459L250.322 385.181C251.587 385.077 251.92 383.379 250.789 382.805L237.349 375.986L237.167 363.242Z" fill="#694BAA"/>
  <path fill-rule="evenodd" clip-rule="evenodd" d="M153.167 233.242C153.149 231.961 151.451 231.524 150.816 232.637L144.318 244.042L128.265 243.982C127.029 243.978 126.528 245.573 127.546 246.275L140.312 255.092L141.442 268.188C141.549 269.42 143.182 269.775 143.791 268.699L150.711 256.458L166.322 255.181C167.587 255.077 167.92 253.379 166.789 252.805L153.349 245.986L153.167 233.242Z" fill="#694BAA"/>
  <path d="M335.369 308.938C332.91 306.491 331 303.665 329.679 300.631C326.632 293.673 326.643 285.65 330.045 278.733C333.499 271.722 340.018 266.728 347.607 264.936C349.751 264.421 351.987 264.168 354.263 264.2C359.45 293.673 335.369 308.938 335.369 308.938Z" fill="url(#paint0_linear_1933_15710)"/>
  <path opacity="0.4" d="M335.368 308.938C332.91 306.491 330.999 303.665 329.679 300.631C332.703 295.38 335.74 289.791 338.736 283.867C342.038 277.334 344.98 271.004 347.606 264.936C349.751 264.421 351.987 264.168 354.263 264.2C347.965 279.113 341.666 294.026 335.368 308.938Z" fill="#1A2C6B"/>
  <path d="M482.541 310.404C485.034 307.991 486.983 305.192 488.346 302.176C491.491 295.262 491.591 287.239 488.286 280.276C484.93 273.217 478.481 268.133 470.918 266.235C468.781 265.69 466.549 265.406 464.273 265.406C458.675 294.805 482.541 310.404 482.541 310.404Z" fill="url(#paint1_linear_1933_15710)"/>
  <path opacity="0.4" d="M482.542 310.402C485.035 307.989 486.985 305.19 488.347 302.174C485.397 296.882 482.438 291.25 479.525 285.286C476.315 278.707 473.461 272.337 470.92 266.233C468.783 265.688 466.551 265.404 464.274 265.404C470.363 280.403 476.453 295.403 482.542 310.402Z" fill="#1A2C6B"/>
  <path d="M481.743 338.647C475.78 360.906 450.058 372.588 410.299 372.59C370.54 372.592 342.472 358.57 334.587 338.647C326.701 318.723 337.575 281.073 354.169 264.534C367.075 251.673 387.485 246.001 405.497 246.001C420.423 246.001 448.152 251.359 462.665 263.95C481.268 280.066 487.706 316.387 481.743 338.647Z" fill="url(#paint2_linear_1933_15710)"/>
  <mask id="mask0_1933_15710" style="mask-type:alpha" maskUnits="userSpaceOnUse" x="331" y="246" width="153" height="127">
    <path d="M481.743 338.647C475.78 360.906 450.058 372.588 410.299 372.59C370.54 372.592 342.472 358.57 334.587 338.647C326.701 318.723 337.575 281.073 354.169 264.534C367.075 251.673 387.485 246.001 405.497 246.001C420.423 246.001 448.152 251.359 462.665 263.95C481.268 280.066 487.706 316.387 481.743 338.647Z" fill="black"/>
  </mask>
  <g mask="url(#mask0_1933_15710)">
    <path opacity="0.4" d="M475.363 279.879C409.878 261.188 337.962 279.879 337.962 279.879L331.53 293.897L332.7 317.26C339.911 321.154 359.361 328.942 379.474 328.942C404.616 328.942 397.6 314.34 409.878 314.34C422.156 314.34 413.971 328.942 439.112 328.942C459.225 328.942 479.456 321.154 487.057 317.26L491.734 303.826C491.734 303.826 540.848 298.569 475.363 279.879Z" fill="#1A2C6B"/>
  </g>
  <path opacity="0.8" d="M408.031 357.553C399.304 357.553 392.516 354.474 387.598 350.505C378.769 343.389 375.961 333.393 378.791 333.172C383.195 332.833 393.7 338.062 405.56 338.062C419.187 338.062 428.474 334.648 435.479 334.364C435.794 334.346 436.097 334.341 436.4 334.341C443.514 334.341 434.805 357.553 408.031 357.553Z" fill="#1A2C6B"/>
  <path d="M450.315 299.886C450.315 307.24 444.322 313.2 436.931 313.2C431.216 313.2 426.34 309.647 424.42 304.635C423.854 303.159 423.542 301.561 423.542 299.886C423.542 292.531 429.534 286.571 436.931 286.571C442.372 286.571 447.053 289.799 449.139 294.436C449.895 296.102 450.315 297.944 450.315 299.886Z" fill="#1A2C6B"/>
  <path opacity="0.1" d="M449.124 294.416C444.128 306.43 431.735 306.073 424.445 304.674C423.875 303.202 423.557 301.604 423.552 299.929C423.527 292.578 429.499 286.596 436.896 286.569C442.337 286.555 447.022 289.783 449.124 294.416Z" fill="white"/>
  <path d="M436.342 295.468C436.342 297.91 434.352 299.888 431.898 299.888C429.445 299.888 427.455 297.91 427.455 295.468C427.455 293.025 429.445 291.047 431.898 291.047C434.352 291.047 436.342 293.025 436.342 295.468Z" fill="white"/>
  <path opacity="0.8" d="M447.423 302.473C448.15 302.956 447.16 307.598 443.847 309.372C440.904 310.948 437.004 309.792 436.913 308.939C436.846 308.311 438.867 308.139 442.249 306.103C445.807 303.959 446.917 302.135 447.423 302.473Z" fill="white"/>
  <path d="M390.936 299.886C390.936 307.236 384.944 313.2 377.552 313.2C371.837 313.2 366.962 309.642 365.041 304.635C364.475 303.159 364.163 301.556 364.163 299.886C364.163 292.531 370.156 286.571 377.552 286.571C382.993 286.571 387.674 289.799 389.761 294.436C390.516 296.102 390.936 297.944 390.936 299.886Z" fill="#1A2C6B"/>
  <g filter="url(#filter0_f_1933_15710)">
    <path d="M377.728 282.212C368.055 282.212 360.186 290.072 360.186 299.734C360.186 301.881 360.573 303.982 361.336 305.981C363.91 312.725 370.498 317.257 377.728 317.257C387.399 317.257 395.267 309.396 395.267 299.734C395.267 297.233 394.748 294.822 393.724 292.559C390.91 286.277 384.629 282.212 377.728 282.212ZM377.726 284.77C383.815 284.77 389.056 288.398 391.392 293.609C392.237 295.482 392.706 297.552 392.706 299.734C392.706 307.996 386.001 314.699 377.728 314.699C371.334 314.699 365.877 310.7 363.728 305.073C363.095 303.413 362.745 301.612 362.745 299.734C362.745 291.468 369.449 284.77 377.726 284.77Z" fill="#C6FCED" fill-opacity="0.5"/>
  </g>
  <path opacity="0.1" d="M389.749 294.411C384.752 306.43 372.359 306.074 365.07 304.674C364.499 303.202 364.182 301.604 364.176 299.929C364.151 292.574 370.124 286.596 377.52 286.569C382.962 286.551 387.646 289.784 389.749 294.411Z" fill="white"/>
  <path d="M376.967 295.468C376.967 297.91 374.978 299.888 372.524 299.888C370.07 299.888 368.081 297.91 368.081 295.468C368.081 293.025 370.07 291.047 372.524 291.047C374.978 291.047 376.967 293.025 376.967 295.468Z" fill="white"/>
  <path opacity="0.8" d="M388.046 302.47C388.773 302.957 387.783 307.594 384.47 309.369C381.526 310.949 377.627 309.793 377.536 308.94C377.469 308.312 379.49 308.141 382.871 306.104C386.43 303.96 387.54 302.131 388.046 302.47Z" fill="white"/>
  <path d="M377.55 284.295C368.906 284.295 361.874 291.289 361.874 299.885C361.874 301.795 362.22 303.664 362.902 305.443C365.202 311.444 371.089 315.476 377.55 315.476C386.191 315.476 393.222 308.482 393.222 299.885C393.222 297.66 392.758 295.515 391.844 293.501C389.328 287.912 383.716 284.295 377.55 284.295ZM377.548 286.571C382.989 286.571 387.672 289.799 389.759 294.436C390.515 296.102 390.934 297.944 390.934 299.885C390.934 307.236 384.942 313.2 377.55 313.2C371.836 313.2 366.96 309.642 365.039 304.635C364.474 303.159 364.161 301.556 364.161 299.885C364.161 292.531 370.152 286.571 377.548 286.571Z" fill="white"/>
  <g filter="url(#filter1_f_1933_15710)">
    <path d="M436.782 282.212C427.109 282.212 419.239 290.072 419.239 299.734C419.239 301.881 419.626 303.982 420.39 305.981C422.964 312.725 429.551 317.257 436.782 317.257C446.453 317.257 454.32 309.396 454.32 299.734C454.32 297.233 453.801 294.822 452.778 292.559C449.963 286.277 443.683 282.212 436.782 282.212ZM436.78 284.77C442.869 284.77 448.11 288.398 450.445 293.609C451.291 295.482 451.76 297.552 451.76 299.734C451.76 307.996 445.055 314.699 436.782 314.699C430.387 314.699 424.931 310.7 422.781 305.073C422.148 303.413 421.799 301.612 421.799 299.734C421.799 291.468 428.503 284.77 436.78 284.77Z" fill="#C6FCED" fill-opacity="0.5"/>
  </g>
  <path d="M436.93 284.295C428.287 284.295 421.254 291.289 421.254 299.885C421.254 301.795 421.6 303.669 422.282 305.448C424.582 311.444 430.469 315.476 436.93 315.476C445.571 315.476 452.602 308.482 452.602 299.885C452.602 297.664 452.138 295.515 451.223 293.501C448.708 287.912 443.096 284.295 436.93 284.295ZM436.928 286.571C442.369 286.571 447.052 289.799 449.139 294.436C449.895 296.102 450.314 297.944 450.314 299.885C450.314 307.24 444.322 313.2 436.93 313.2C431.216 313.2 426.34 309.647 424.419 304.635C423.853 303.159 423.542 301.561 423.542 299.885C423.542 292.531 429.531 286.571 436.928 286.571Z" fill="white"/>
  <path d="M359.405 433.835C354.178 418.986 350.87 400.828 364.333 392.67C377.375 384.768 397.536 381.376 411.063 381.376H410.858C422.499 381.376 439.816 383.869 452.331 389.882C467.917 397.37 465.323 417.355 460.09 433.835C448.245 462.539 439.854 492.232 409.747 492.232C379.64 492.232 373.224 465.013 359.405 433.835Z" fill="url(#paint3_linear_1933_15710)"/>
  <mask id="mask1_1933_15710" style="mask-type:alpha" maskUnits="userSpaceOnUse" x="354" y="381" width="111" height="112">
    <path d="M359.405 433.835C354.178 418.985 350.87 400.827 364.333 392.67C377.375 384.768 397.536 381.376 411.063 381.376H410.858C422.499 381.376 439.816 383.869 452.331 389.881C467.917 397.37 465.323 417.354 460.09 433.835C448.245 462.538 439.854 492.232 409.747 492.232C379.64 492.232 373.224 465.013 359.405 433.835Z" fill="black"/>
  </mask>
  <g mask="url(#mask1_1933_15710)">
    <g opacity="0.95">
      <path d="M445.309 418.672L447.207 416.398C448.896 414.475 450.097 412.618 450.809 410.789L465.261 428.207C467.884 431.525 467.759 432.139 463.387 432.139H461.888C457.516 432.139 455.893 431.279 453.27 428.207L445.309 418.672ZM445.309 394.977L453.27 385.442C455.893 382.37 457.516 381.509 461.888 381.509H463.387C467.759 381.509 467.884 382.124 465.261 385.442L450.809 402.86C450.097 401.031 448.896 399.174 447.207 397.251L445.309 394.977Z" fill="white"/>
      <path d="M423.232 432.139C418.86 432.139 418.735 431.525 421.358 428.207L436.347 410.142C437.471 408.791 438.096 407.685 438.096 406.824C438.096 405.841 437.471 404.735 436.347 403.506L421.358 385.442C418.735 382.124 418.86 381.509 423.232 381.509H424.731C429.102 381.509 430.726 382.37 433.349 385.442L444.841 399.205C449.712 404.735 449.712 408.914 444.841 414.444L433.349 428.207C430.726 431.279 429.102 432.139 424.731 432.139H423.232Z" fill="white"/>
    </g>
    <path opacity="0.4" d="M466.013 414.534C422.086 498.171 387.373 480.685 368.782 469.467L381.615 494.212L433.932 512.523C453.509 475.736 488.67 371.395 466.013 414.534Z" fill="#1A2C6B"/>
  </g>
  <path d="M503.851 436.789C513.005 456.635 514.409 475.514 506.987 478.956C503.362 480.636 499.296 478.158 494.854 474.694C490.412 471.23 481.657 459.408 476.973 449.253C467.819 429.408 467.628 413.219 473.838 407.087C480.047 400.955 484.614 405.905 488.932 410.854C493.251 415.803 499.446 427.238 503.851 436.789Z" fill="url(#paint4_linear_1933_15710)"/>
  <mask id="mask2_1933_15710" style="mask-type:alpha" maskUnits="userSpaceOnUse" x="469" y="404" width="43" height="76">
    <path d="M503.851 436.786C513.005 456.632 514.409 475.511 506.987 478.953C503.362 480.633 499.296 478.155 494.854 474.691C490.412 471.227 481.657 459.405 476.973 449.251C467.819 429.405 467.628 413.216 473.838 407.084C480.047 400.952 484.614 405.903 488.932 410.851C493.251 415.8 499.446 427.235 503.851 436.786Z" fill="black"/>
  </mask>
  <g mask="url(#mask2_1933_15710)">
    <path opacity="0.4" d="M500.284 485.086C511.636 456.877 487.78 417.451 481.035 396.995L533.352 466.775C523.152 476.673 495.981 495.778 500.284 485.086Z" fill="#1A2C6B"/>
  </g>
  <path d="M306.634 390.774C319.833 408.18 335.81 418.266 342.319 413.303C345.498 410.88 345.219 406.117 344.248 400.559C343.276 395.001 336.96 381.708 330.207 372.801C317.008 355.396 302.833 347.644 294.522 350.272C286.21 352.901 288.433 359.265 290.771 365.409C293.108 371.553 300.282 382.398 306.634 390.774Z" fill="url(#paint5_linear_1933_15710)"/>
  <mask id="mask3_1933_15710" style="mask-type:alpha" maskUnits="userSpaceOnUse" x="289" y="349" width="56" height="66">
    <path d="M305.424 390.768C317.966 408.177 333.948 418.27 341.12 413.311C344.623 410.889 344.678 406.127 344.066 400.569C343.455 395.012 337.816 381.717 331.398 372.809C318.856 355.4 304.59 347.642 295.702 350.266C286.814 352.89 288.676 359.255 290.674 365.399C292.672 371.543 299.388 382.39 305.424 390.768Z" fill="url(#paint6_linear_1933_15710)"/>
  </mask>
  <g mask="url(#mask3_1933_15710)">
    <path opacity="0.4" d="M350.137 409.658C320.165 407.01 298.532 367.386 284.436 351.921L317.574 431.182C331.262 426.488 361.497 410.661 350.137 409.658Z" fill="#1A2C6B"/>
  </g>
  <path d="M514.467 372.514L507 372.514L514.467 360.514L514.467 372.514Z" fill="white"/>
  <path d="M514.467 332.514C514.467 323.678 521.63 316.514 530.467 316.514H618.467C627.303 316.514 634.467 323.678 634.467 332.514V356.514C634.467 365.351 627.303 372.514 618.467 372.514H514.467V332.514Z" fill="white"/>
  <path d="M546.147 352.754C545.443 352.754 544.739 352.698 544.035 352.586C543.331 352.49 542.667 352.338 542.043 352.13C541.419 351.906 540.859 351.634 540.363 351.314C540.075 351.122 539.875 350.89 539.763 350.618C539.651 350.346 539.611 350.082 539.643 349.826C539.691 349.554 539.795 349.322 539.955 349.13C540.131 348.922 540.347 348.794 540.603 348.746C540.859 348.698 541.139 348.77 541.443 348.962C542.147 349.378 542.891 349.682 543.675 349.874C544.459 350.066 545.283 350.162 546.147 350.162C547.411 350.162 548.331 349.954 548.907 349.538C549.483 349.106 549.771 348.554 549.771 347.882C549.771 347.322 549.563 346.882 549.147 346.562C548.747 346.242 548.051 345.978 547.059 345.77L544.419 345.218C542.899 344.898 541.763 344.362 541.011 343.61C540.275 342.842 539.907 341.834 539.907 340.586C539.907 339.802 540.067 339.09 540.387 338.45C540.707 337.81 541.155 337.258 541.731 336.794C542.323 336.33 543.019 335.978 543.819 335.738C544.635 335.482 545.531 335.354 546.507 335.354C547.467 335.354 548.379 335.474 549.243 335.714C550.107 335.954 550.883 336.306 551.571 336.77C551.827 336.946 551.995 337.162 552.075 337.418C552.171 337.674 552.195 337.93 552.147 338.186C552.099 338.426 551.987 338.634 551.811 338.81C551.635 338.986 551.411 339.09 551.139 339.122C550.883 339.154 550.587 339.074 550.251 338.882C549.659 338.546 549.059 338.306 548.451 338.162C547.843 338.018 547.187 337.946 546.483 337.946C545.747 337.946 545.115 338.05 544.587 338.258C544.059 338.466 543.651 338.762 543.363 339.146C543.091 339.514 542.955 339.954 542.955 340.466C542.955 341.042 543.147 341.506 543.531 341.858C543.915 342.194 544.571 342.458 545.499 342.65L548.115 343.202C549.699 343.538 550.875 344.066 551.643 344.786C552.427 345.506 552.819 346.466 552.819 347.666C552.819 348.434 552.659 349.13 552.339 349.754C552.035 350.378 551.587 350.914 550.995 351.362C550.419 351.81 549.723 352.154 548.907 352.394C548.091 352.634 547.171 352.754 546.147 352.754ZM559.031 352.754C558.183 352.754 557.423 352.594 556.751 352.274C556.095 351.938 555.575 351.49 555.191 350.93C554.823 350.37 554.639 349.738 554.639 349.034C554.639 348.17 554.863 347.49 555.311 346.994C555.759 346.482 556.487 346.114 557.495 345.89C558.503 345.666 559.855 345.554 561.551 345.554H562.751V347.282H561.575C560.583 347.282 559.791 347.33 559.199 347.426C558.607 347.522 558.183 347.69 557.927 347.93C557.687 348.154 557.567 348.474 557.567 348.89C557.567 349.418 557.751 349.85 558.119 350.186C558.487 350.522 558.999 350.69 559.655 350.69C560.183 350.69 560.647 350.57 561.047 350.33C561.463 350.074 561.791 349.73 562.031 349.298C562.271 348.866 562.391 348.37 562.391 347.81V345.05C562.391 344.25 562.215 343.674 561.863 343.322C561.511 342.97 560.919 342.794 560.087 342.794C559.623 342.794 559.119 342.85 558.575 342.962C558.047 343.074 557.487 343.266 556.895 343.538C556.591 343.682 556.319 343.722 556.079 343.658C555.855 343.594 555.679 343.466 555.551 343.274C555.423 343.066 555.359 342.842 555.359 342.602C555.359 342.362 555.423 342.13 555.551 341.906C555.679 341.666 555.895 341.49 556.199 341.378C556.935 341.074 557.639 340.858 558.311 340.73C558.999 340.602 559.623 340.538 560.183 340.538C561.335 340.538 562.279 340.714 563.015 341.066C563.767 341.418 564.327 341.954 564.695 342.674C565.063 343.378 565.247 344.29 565.247 345.41V351.17C565.247 351.666 565.127 352.05 564.887 352.322C564.647 352.578 564.303 352.706 563.855 352.706C563.407 352.706 563.055 352.578 562.799 352.322C562.559 352.05 562.439 351.666 562.439 351.17V350.018H562.631C562.519 350.578 562.295 351.066 561.959 351.482C561.639 351.882 561.231 352.194 560.735 352.418C560.239 352.642 559.671 352.754 559.031 352.754ZM572.3 352.754C570.972 352.754 569.972 352.378 569.3 351.626C568.628 350.858 568.292 349.738 568.292 348.266V336.914C568.292 336.418 568.42 336.042 568.676 335.786C568.932 335.53 569.3 335.402 569.78 335.402C570.26 335.402 570.628 335.53 570.884 335.786C571.156 336.042 571.292 336.418 571.292 336.914V348.122C571.292 348.858 571.444 349.402 571.748 349.754C572.068 350.106 572.516 350.282 573.092 350.282C573.22 350.282 573.34 350.282 573.452 350.282C573.564 350.266 573.676 350.25 573.788 350.234C574.012 350.202 574.164 350.266 574.244 350.426C574.324 350.57 574.364 350.874 574.364 351.338C574.364 351.738 574.284 352.05 574.124 352.274C573.964 352.498 573.7 352.634 573.332 352.682C573.172 352.698 573.004 352.714 572.828 352.73C572.652 352.746 572.476 352.754 572.3 352.754ZM580.204 352.754C579.228 352.754 578.42 352.578 577.78 352.226C577.14 351.858 576.66 351.314 576.34 350.594C576.036 349.874 575.884 348.978 575.884 347.906V342.098C575.884 341.586 576.012 341.21 576.268 340.97C576.524 340.714 576.892 340.586 577.372 340.586C577.852 340.586 578.22 340.714 578.476 340.97C578.748 341.21 578.884 341.586 578.884 342.098V347.954C578.884 348.786 579.052 349.402 579.388 349.802C579.724 350.202 580.26 350.402 580.996 350.402C581.796 350.402 582.452 350.13 582.964 349.586C583.476 349.026 583.732 348.29 583.732 347.378V342.098C583.732 341.586 583.86 341.21 584.116 340.97C584.372 340.714 584.74 340.586 585.22 340.586C585.7 340.586 586.068 340.714 586.324 340.97C586.596 341.21 586.732 341.586 586.732 342.098V351.17C586.732 352.194 586.244 352.706 585.268 352.706C584.804 352.706 584.444 352.578 584.188 352.322C583.932 352.05 583.804 351.666 583.804 351.17V349.346L584.14 350.066C583.804 350.93 583.292 351.594 582.604 352.058C581.932 352.522 581.132 352.754 580.204 352.754ZM595.231 352.754C594.191 352.754 593.319 352.578 592.615 352.226C591.927 351.874 591.415 351.362 591.079 350.69C590.743 350.002 590.575 349.154 590.575 348.146V343.034H589.327C588.943 343.034 588.647 342.938 588.439 342.746C588.231 342.538 588.127 342.258 588.127 341.906C588.127 341.538 588.231 341.258 588.439 341.066C588.647 340.874 588.943 340.778 589.327 340.778H590.575V338.594C590.575 338.098 590.703 337.722 590.959 337.466C591.231 337.21 591.607 337.082 592.087 337.082C592.567 337.082 592.935 337.21 593.191 337.466C593.447 337.722 593.575 338.098 593.575 338.594V340.778H596.119C596.503 340.778 596.799 340.874 597.007 341.066C597.215 341.258 597.319 341.538 597.319 341.906C597.319 342.258 597.215 342.538 597.007 342.746C596.799 342.938 596.503 343.034 596.119 343.034H593.575V347.978C593.575 348.746 593.743 349.322 594.079 349.706C594.415 350.09 594.959 350.282 595.711 350.282C595.983 350.282 596.223 350.258 596.431 350.21C596.639 350.162 596.823 350.13 596.983 350.114C597.175 350.098 597.335 350.162 597.463 350.306C597.591 350.434 597.655 350.706 597.655 351.122C597.655 351.442 597.599 351.73 597.487 351.986C597.391 352.226 597.207 352.394 596.935 352.49C596.727 352.554 596.455 352.61 596.119 352.658C595.783 352.722 595.487 352.754 595.231 352.754ZM607.021 347.642C606.717 347.642 606.477 347.546 606.301 347.354C606.141 347.162 606.045 346.89 606.013 346.538L605.293 337.37C605.245 336.778 605.373 336.306 605.677 335.954C605.981 335.586 606.429 335.402 607.021 335.402C607.597 335.402 608.029 335.586 608.317 335.954C608.621 336.306 608.749 336.778 608.701 337.37L607.981 346.538C607.965 346.89 607.869 347.162 607.693 347.354C607.533 347.546 607.309 347.642 607.021 347.642ZM607.021 352.634C606.477 352.634 606.037 352.466 605.701 352.13C605.381 351.794 605.221 351.362 605.221 350.834C605.221 350.322 605.381 349.906 605.701 349.586C606.037 349.25 606.477 349.082 607.021 349.082C607.581 349.082 608.013 349.25 608.317 349.586C608.637 349.906 608.797 350.322 608.797 350.834C608.797 351.362 608.637 351.794 608.317 352.13C608.013 352.466 607.581 352.634 607.021 352.634Z" fill="#2A2D3A"/>
  <defs>
    <filter id="filter0_f_1933_15710" x="349.689" y="271.716" width="56.0734" height="56.0373" filterUnits="userSpaceOnUse" color-interpolation-filters="sRGB">
      <feFlood flood-opacity="0" result="BackgroundImageFix"/>
      <feBlend mode="normal" in="SourceGraphic" in2="BackgroundImageFix" result="shape"/>
      <feGaussianBlur stdDeviation="5.24809" result="effect1_foregroundBlur_1933_15710"/>
    </filter>
    <filter id="filter1_f_1933_15710" x="408.743" y="271.716" width="56.0734" height="56.0373" filterUnits="userSpaceOnUse" color-interpolation-filters="sRGB">
      <feFlood flood-opacity="0" result="BackgroundImageFix"/>
      <feBlend mode="normal" in="SourceGraphic" in2="BackgroundImageFix" result="shape"/>
      <feGaussianBlur stdDeviation="5.24809" result="effect1_foregroundBlur_1933_15710"/>
    </filter>
    <linearGradient id="paint0_linear_1933_15710" x1="329.124" y1="280.186" x2="350.852" y2="284.012" gradientUnits="userSpaceOnUse">
      <stop stop-color="#B79BF5"/>
      <stop offset="1" stop-color="#3D68FF"/>
    </linearGradient>
    <linearGradient id="paint1_linear_1933_15710" x1="489.187" y1="281.741" x2="467.407" y2="285.263" gradientUnits="userSpaceOnUse">
      <stop stop-color="#B79BF5"/>
      <stop offset="1" stop-color="#3D68FF"/>
    </linearGradient>
    <linearGradient id="paint2_linear_1933_15710" x1="341.24" y1="291.239" x2="451.754" y2="329.159" gradientUnits="userSpaceOnUse">
      <stop stop-color="#EE5BB3"/>
      <stop offset="1" stop-color="#3D8BFF"/>
    </linearGradient>
    <linearGradient id="paint3_linear_1933_15710" x1="358.619" y1="452.617" x2="445.482" y2="426.524" gradientUnits="userSpaceOnUse">
      <stop stop-color="#EE5BB3"/>
      <stop offset="1" stop-color="#3D8BFF"/>
    </linearGradient>
    <linearGradient id="paint4_linear_1933_15710" x1="483.232" y1="458.504" x2="503.808" y2="446.23" gradientUnits="userSpaceOnUse">
      <stop stop-color="#EE5BB3"/>
      <stop offset="1" stop-color="#3D8BFF"/>
    </linearGradient>
    <linearGradient id="paint5_linear_1933_15710" x1="335.426" y1="382.679" x2="314.914" y2="395.06" gradientUnits="userSpaceOnUse">
      <stop stop-color="#EE5BB3"/>
      <stop offset="1" stop-color="#3D8BFF"/>
    </linearGradient>
    <linearGradient id="paint6_linear_1933_15710" x1="336.139" y1="382.687" x2="313.827" y2="395.152" gradientUnits="userSpaceOnUse">
      <stop stop-color="#EE5BB3"/>
      <stop offset="1" stop-color="#3D8BFF"/>
    </linearGradient>
  </defs>
</svg>
