<svg width="655" height="568" viewBox="0 0 655 568" fill="none" xmlns="http://www.w3.org/2000/svg">
  <path opacity="0.8"
        d="M717.657 251.995C733.778 317.225 684.172 397.298 669.458 471.701C655.215 546.29 675.539 616.029 648.488 652.804C621.437 689.579 546.539 693.203 471.757 714.435C396.974 735.667 322.939 774.283 276.554 751.203C230.64 728.309 212.845 643.906 184.277 578.502C155.708 513.099 116.835 466.882 109.349 418.355C101.393 369.643 124.515 318.024 158.349 266.843C192.021 216.071 235.625 164.953 300.426 134.555C365.226 104.156 450.754 94.2908 534.677 114.645C618.909 135.595 701.065 186.578 717.657 251.995Z"
        fill="#D5D4F3"/>
  <path opacity="0.1"
        d="M641.037 271.386C708.055 353.035 771.546 423.596 772.05 494.661C772.05 565.726 710.071 636.791 643.053 694.248C576.035 751.201 504.986 794.545 425.37 802.609C345.755 810.673 258.581 783.457 225.828 726.504C193.075 669.047 215.246 581.854 204.665 483.573C194.083 385.292 150.244 276.426 182.997 194.777C215.75 113.128 324.591 58.6954 414.285 77.8477C503.978 96.9999 574.523 189.737 641.037 271.386Z"
        fill="#7673D9"/>
  <path fill-rule="evenodd" clip-rule="evenodd"
        d="M287.627 270.932C287.613 269.971 286.34 269.643 285.864 270.478L280.989 279.034L268.949 278.989C268.021 278.985 267.646 280.182 268.409 280.709L277.986 287.323L278.834 297.141C278.914 298.065 280.139 298.332 280.596 297.525L285.786 288.342L297.491 287.385C298.439 287.307 298.689 286.033 297.841 285.603L287.763 280.489L287.627 270.932Z"
        fill="#54529A"/>
  <path fill-rule="evenodd" clip-rule="evenodd"
        d="M624.627 75.9316C624.613 74.9706 623.34 74.6429 622.864 75.4779L617.989 84.0336L605.949 83.9886C605.021 83.9851 604.646 85.1815 605.409 85.7085L614.986 92.3227L615.834 102.14C615.914 103.064 617.139 103.33 617.596 102.523L622.785 93.3434L634.491 92.3854C635.439 92.3078 635.689 91.0342 634.841 90.6036L624.763 85.4903L624.627 75.9316Z"
        fill="#54529A"/>
  <path fill-rule="evenodd" clip-rule="evenodd"
        d="M357.166 88.2421C357.148 86.9608 355.449 86.5238 354.815 87.6372L348.316 99.043L332.265 98.983C331.029 98.9784 330.528 100.574 331.546 101.276L344.308 110.09L345.439 123.188C345.545 124.42 347.179 124.775 347.788 123.699L354.707 111.459L370.321 110.181C371.585 110.077 371.919 108.379 370.787 107.805L357.347 100.986L357.166 88.2421Z"
        fill="#54529A"/>
  <path fill-rule="evenodd" clip-rule="evenodd"
        d="M479.988 166.901C479.975 165.972 478.743 165.655 478.283 166.462L473.567 174.738L461.918 174.694C461.021 174.691 460.658 175.848 461.396 176.358L470.66 182.756L471.48 192.253C471.557 193.147 472.742 193.405 473.184 192.624L478.204 183.744L489.527 182.817C490.444 182.742 490.686 181.51 489.865 181.093L480.12 176.149L479.988 166.901Z"
        fill="#54529A"/>
  <path fill-rule="evenodd" clip-rule="evenodd"
        d="M324.988 164.901C324.975 163.972 323.743 163.655 323.283 164.462L318.567 172.738L306.918 172.694C306.021 172.691 305.658 173.848 306.396 174.358L315.66 180.756L316.48 190.253C316.557 191.147 317.742 191.405 318.184 190.624L323.204 181.744L334.527 180.817C335.444 180.742 335.686 179.51 334.865 179.093L325.12 174.149L324.988 164.901Z"
        fill="#54529A"/>
  <path fill-rule="evenodd" clip-rule="evenodd"
        d="M237.167 363.242C237.149 361.961 235.451 361.524 234.816 362.637L228.317 374.043L212.265 373.983C211.029 373.978 210.528 375.574 211.546 376.276L224.31 385.091L225.441 398.188C225.547 399.42 227.181 399.775 227.789 398.699L234.709 386.459L250.322 385.181C251.587 385.077 251.92 383.379 250.789 382.805L237.349 375.986L237.167 363.242Z"
        fill="#54529A"/>
  <path fill-rule="evenodd" clip-rule="evenodd"
        d="M153.167 233.242C153.149 231.961 151.451 231.524 150.816 232.637L144.318 244.042L128.265 243.982C127.029 243.978 126.528 245.573 127.546 246.275L140.312 255.092L141.442 268.188C141.549 269.42 143.182 269.775 143.791 268.699L150.711 256.458L166.322 255.181C167.587 255.077 167.92 253.379 166.789 252.805L153.349 245.986L153.167 233.242Z"
        fill="#54529A"/>
  <path
    d="M406.811 248.334L404.674 247.351C405.351 245.736 404.779 242.775 403.821 240.832C403.611 240.408 403.389 239.983 403.167 239.558C402.28 237.871 401.369 236.135 401.135 234.096C400.843 231.559 401.637 228.864 403.553 225.878C404.078 225.064 404.639 224.275 405.211 223.486C406.181 222.139 407.092 220.877 407.792 219.469C409.883 215.269 409.719 209.928 407.372 205.873L409.381 204.623C412.137 209.381 412.336 215.657 409.871 220.585C409.089 222.163 408.073 223.584 407.08 224.943C406.543 225.696 405.994 226.448 405.491 227.225C403.891 229.714 403.226 231.862 403.448 233.804C403.623 235.37 404.394 236.839 405.211 238.38C405.445 238.83 405.678 239.267 405.9 239.716C407.08 242.107 407.862 245.834 406.811 248.322V248.334Z"
    fill="#6346CE"/>
  <path
    d="M495.099 309.028C495.099 322.441 484.646 333.305 471.74 333.305C461.766 333.305 453.263 326.823 449.911 317.683C448.918 314.988 448.381 312.075 448.381 309.028C448.381 295.615 458.834 284.751 471.74 284.751C481.236 284.751 489.4 290.638 493.044 299.087C494.364 302.121 495.099 305.484 495.099 309.028Z"
    fill="#6346CE"/>
  <path
    d="M367.79 309.028C367.79 322.441 357.337 333.305 344.431 333.305C334.456 333.305 325.953 326.823 322.601 317.683C321.609 314.988 321.071 312.075 321.071 309.028C321.071 295.615 331.525 284.751 344.431 284.751C353.926 284.751 362.09 290.638 365.734 299.087C367.054 302.121 367.79 305.484 367.79 309.028Z"
    fill="#6346CE"/>
  <path
    d="M481.257 342.527C475.3 365.592 447.552 371.553 407.822 371.553C368.091 371.553 342.095 363.164 334.211 342.527C326.328 321.877 337.201 282.86 353.785 265.731C366.678 252.401 387.08 246.525 405.077 246.525C419.991 246.525 447.704 252.073 462.209 265.124C480.801 281.828 487.236 319.461 481.268 342.527H481.257Z"
    fill="url(#paint0_linear_3068_6900)"/>
  <path
    d="M358.014 421.965C354.288 411.004 351.369 397.858 359.906 390.32C369.052 382.248 404.803 385.634 408.961 385.634C412.804 385.634 450.248 382.151 458.599 390.283C465.339 396.85 462.979 407.642 460.176 416.77L456.812 427.755C445.425 456.354 424.752 478.349 410.351 478.349C396.791 478.349 373.28 458.818 359.988 427.755L358.014 421.953V421.965Z"
    fill="url(#paint1_linear_3068_6900)"/>
  <path
    d="M407.035 298.443L405.867 298.418C405.867 298.091 406.474 265.45 405.458 246.841L406.626 246.769C407.642 265.426 407.046 298.115 407.035 298.443Z"
    fill="#6346CE"/>
  <path
    d="M408.19 318.847C384.118 318.847 360.794 314.319 332.751 305.215L333.101 304.05C387.867 321.821 424.6 322.088 484.259 305.118L484.563 306.283C455.189 314.635 431.339 318.835 408.178 318.835L408.19 318.847Z"
    fill="#6346CE"/>
  <path
    d="M407.407 335.999C414.45 336.169 421.341 338.196 428.372 338.67C438.498 339.349 448.811 336.667 457.454 331.107C460.176 329.359 462.78 327.284 464.59 324.54C468.515 318.604 468.094 310.654 466.471 303.638C464.859 296.658 461.752 289.387 455.644 286.134C451.042 283.694 445.599 283.985 440.472 284.519C430.042 285.624 419.6 287.505 409.159 287.906C408.213 287.942 404.721 287.955 403.915 287.918C393.333 287.554 382.751 285.636 372.169 284.519C367.042 283.973 361.599 283.682 356.998 286.134C350.889 289.387 347.782 296.658 346.171 303.638C344.547 310.654 344.138 318.604 348.051 324.54C349.861 327.284 352.466 329.359 355.187 331.107C363.842 336.667 374.143 339.349 384.27 338.67C391.301 338.196 398.192 336.169 405.235 335.999H407.384H407.407Z"
    fill="#432977"/>
  <path
    d="M446.359 285.37C449.968 285.37 452.747 285.952 455.118 287.215C459.942 289.776 463.376 295.396 465.338 303.917C467.3 312.439 466.728 319.151 463.633 323.837C462.173 326.034 460.024 328.012 456.847 330.052C449.22 334.956 440.437 337.541 431.444 337.541C430.439 337.541 429.435 337.505 428.442 337.444C425.289 337.238 422.088 336.692 418.993 336.17C415.232 335.526 411.343 334.871 407.407 334.774H405.223C401.31 334.871 397.421 335.526 393.66 336.17C390.565 336.692 387.353 337.238 384.211 337.444C383.218 337.505 382.202 337.541 381.21 337.541C372.216 337.541 363.433 334.956 355.806 330.052C352.629 328.012 350.48 326.034 349.02 323.837C345.925 319.139 345.341 312.439 347.315 303.917C349.277 295.396 352.723 289.776 357.535 287.215C359.906 285.952 362.697 285.37 366.295 285.37C368.304 285.37 370.336 285.552 372.053 285.734C375.638 286.11 379.306 286.596 382.833 287.057C389.712 287.967 396.837 288.902 403.868 289.145C404.207 289.145 405.013 289.157 405.912 289.157C407.115 289.157 408.598 289.157 409.194 289.12C416.085 288.853 423.058 287.943 429.797 287.057C433.336 286.596 436.992 286.11 440.589 285.734C442.306 285.552 444.338 285.37 446.347 285.37M446.359 284.144C444.396 284.144 442.423 284.313 440.484 284.52C430.054 285.624 419.612 287.506 409.171 287.907C408.622 287.931 407.185 287.943 405.935 287.943C405.059 287.943 404.265 287.943 403.938 287.931C393.356 287.567 382.775 285.649 372.193 284.532C370.254 284.326 368.28 284.156 366.318 284.156C363.083 284.156 359.883 284.617 357.021 286.134C350.913 289.387 347.806 296.658 346.194 303.638C344.571 310.654 344.162 318.605 348.074 324.541C349.885 327.284 352.489 329.36 355.211 331.108C362.989 336.109 372.099 338.779 381.221 338.779C382.249 338.779 383.277 338.743 384.293 338.682C391.324 338.209 398.215 336.182 405.258 336.012H407.407C414.45 336.182 421.341 338.209 428.372 338.682C429.4 338.755 430.428 338.779 431.444 338.779C440.566 338.779 449.676 336.109 457.454 331.108C460.176 329.36 462.78 327.284 464.591 324.541C468.515 318.605 468.094 310.654 466.471 303.638C464.859 296.658 461.752 289.387 455.644 286.134C452.782 284.617 449.594 284.156 446.347 284.156L446.359 284.144Z"
    fill="#6346CE"/>
  <path
    d="M446.615 312.669C446.615 320.365 440.612 326.605 433.195 326.605C427.472 326.605 422.579 322.89 420.651 317.646C420.079 316.105 419.775 314.43 419.775 312.669C419.775 304.974 425.779 298.734 433.195 298.734C438.65 298.734 443.345 302.109 445.436 306.964C446.195 308.712 446.615 310.63 446.615 312.669Z"
    fill="#514AAB"/>
  <path
    d="M433.195 298.734C438.65 298.734 443.345 302.109 445.436 306.964C446.195 308.712 446.615 310.63 446.615 312.669C446.615 320.365 440.612 326.604 433.195 326.604C427.472 326.604 422.578 322.89 420.651 317.646C420.079 316.105 419.775 314.429 419.775 312.669C419.775 304.973 425.779 298.734 433.195 298.734ZM433.195 296.282C424.506 296.282 417.428 303.638 417.428 312.669C417.428 314.684 417.778 316.651 418.467 318.52C420.78 324.82 426.701 329.056 433.195 329.056C441.885 329.056 448.963 321.7 448.963 312.669C448.963 310.327 448.496 308.069 447.573 305.957C445.038 300.082 439.397 296.282 433.195 296.282Z"
    fill="#E6E6FF"/>
  <path
    d="M392.889 312.669C392.889 320.365 386.885 326.605 379.469 326.605C373.746 326.605 368.852 322.878 366.925 317.646C366.352 316.105 366.049 314.43 366.049 312.669C366.049 304.974 372.052 298.734 379.469 298.734C384.923 298.734 389.618 302.109 391.709 306.964C392.468 308.712 392.889 310.63 392.889 312.669Z"
    fill="#514AAB"/>
  <path
    d="M379.469 298.734C384.923 298.734 389.618 302.109 391.709 306.964C392.468 308.712 392.889 310.63 392.889 312.669C392.889 320.365 386.885 326.604 379.469 326.604C373.746 326.604 368.852 322.878 366.925 317.646C366.352 316.105 366.049 314.429 366.049 312.669C366.049 304.973 372.052 298.734 379.469 298.734ZM379.469 296.282C370.779 296.282 363.701 303.638 363.701 312.669C363.701 314.672 364.052 316.639 364.741 318.52C367.053 324.82 372.975 329.056 379.48 329.056C388.17 329.056 395.248 321.7 395.248 312.669C395.248 310.327 394.781 308.069 393.858 305.957C391.324 300.082 385.682 296.282 379.48 296.282H379.469Z"
    fill="#E6E6FF"/>
  <path
    d="M409.93 422.864C409.627 422.864 409.37 422.621 409.346 422.293C408.354 407.338 409.206 393.974 409.615 387.552C409.638 387.212 409.919 386.945 410.234 386.982C410.561 387.006 410.795 387.297 410.783 387.625C410.374 394.022 409.522 407.326 410.514 422.196C410.538 422.536 410.292 422.815 409.977 422.839C409.965 422.839 409.954 422.839 409.93 422.839V422.864Z"
    fill="#6346CE"/>
  <path
    d="M401.871 281.207L399.535 283.829C399.815 284.011 400.142 284.132 400.493 284.132C401.462 284.132 402.245 283.319 402.245 282.312C402.245 282.045 402.186 281.79 402.093 281.571C402.035 281.438 401.953 281.316 401.871 281.207Z"
    fill="#6346CE"/>
  <path
    d="M399.103 283.427L401.439 280.793C401.171 280.611 400.844 280.502 400.493 280.502C399.524 280.502 398.741 281.315 398.741 282.323C398.741 282.553 398.788 282.772 398.858 282.966C398.916 283.136 399.01 283.282 399.103 283.427Z"
    fill="#6346CE"/>
  <path
    d="M412.756 282.396C412.756 282.602 412.791 282.796 412.861 282.978C413.118 283.658 413.76 284.143 414.519 284.143C415.372 284.143 416.085 283.524 416.248 282.699L412.756 282.396Z"
    fill="#6346CE"/>
  <path
    d="M416.26 282.079C416.237 281.897 416.202 281.727 416.132 281.57C415.851 280.938 415.232 280.489 414.52 280.489C413.726 280.489 413.06 281.036 412.838 281.776L416.272 282.079H416.26Z"
    fill="#6346CE"/>
  <path
    d="M419.018 347.906C417.943 354.643 411.916 359.171 405.551 358.018C400.634 357.132 396.967 353.102 396.044 348.222C395.775 346.777 395.74 345.26 395.985 343.731C396.254 342.043 401.93 344.107 407.502 343.998C413.073 343.889 418.527 341.594 418.807 342.735C419.216 344.374 419.31 346.134 419.018 347.906Z"
    fill="#432977"/>
  <path
    d="M380.637 313.579C383.862 313.579 386.477 311.541 386.477 309.027C386.477 306.513 383.862 304.475 380.637 304.475C377.411 304.475 374.797 306.513 374.797 309.027C374.797 311.541 377.411 313.579 380.637 313.579Z"
    fill="#E6E6FF"/>
  <path
    d="M433.197 313.579C436.422 313.579 439.037 311.541 439.037 309.027C439.037 306.513 436.422 304.475 433.197 304.475C429.972 304.475 427.357 306.513 427.357 309.027C427.357 311.541 429.972 313.579 433.197 313.579Z"
    fill="#E6E6FF"/>
  <path
    d="M408.214 197.412C409.732 197.606 411.25 197.994 412.57 198.796C413.89 199.597 415.618 201.248 415.677 202.996C415.77 206.127 411.203 206.419 409.136 206.807C407.571 207.098 405.702 207.317 404.289 206.394C402.969 205.533 401.93 204.112 401.708 202.474C401.171 198.492 405.095 197.011 408.202 197.4L408.214 197.412Z"
    fill="#FFA233"/>
  <path
    d="M435.567 461.464C435.567 461.464 435.532 461.464 435.509 461.464C435.194 461.44 434.948 461.137 434.983 460.809C436.268 445.927 437.004 422.888 433.792 420.399C433.558 420.217 433.337 420.193 433.033 420.314C415.735 424.235 390.799 421.71 383.768 420.047C383.208 419.914 382.916 420.096 382.74 420.242C380.942 421.783 381.164 429.479 381.456 439.226C381.619 444.847 381.818 451.231 381.689 458.029C381.689 458.369 381.409 458.66 381.094 458.624C380.766 458.624 380.51 458.345 380.521 458.005C380.65 451.231 380.463 444.883 380.288 439.263C379.961 428.399 379.75 421.225 381.993 419.307C382.553 418.821 383.243 418.676 384.025 418.858C390.974 420.509 415.665 423.009 432.694 419.161C433.278 418.906 433.932 418.991 434.493 419.428C439.258 423.131 436.478 457.07 436.151 460.918C436.128 461.234 435.871 461.476 435.567 461.476V461.464Z"
    fill="#6346CE"/>
  <path
    d="M432.613 428.945C432.589 428.593 432.519 428.265 432.379 427.962C431.923 426.905 430.884 426.165 429.693 426.165C428.314 426.165 427.17 427.136 426.843 428.447L432.613 428.945Z"
    fill="#6346CE"/>
  <path
    d="M426.773 429.562C426.808 429.805 426.855 430.048 426.937 430.279C427.357 431.42 428.432 432.233 429.693 432.233C431.025 432.233 432.146 431.31 432.508 430.06L426.773 429.562Z"
    fill="#6346CE"/>
  <path
    d="M386.15 430.438L390.903 427.125C390.378 426.542 389.642 426.178 388.812 426.178C387.201 426.178 385.893 427.537 385.893 429.212C385.893 429.589 385.963 429.953 386.079 430.293C386.103 430.341 386.126 430.39 386.15 430.438Z"
    fill="#6346CE"/>
  <path
    d="M386.769 431.36C387.294 431.906 388.018 432.234 388.812 432.234C390.424 432.234 391.732 430.874 391.732 429.199C391.732 428.786 391.651 428.41 391.51 428.046L386.769 431.348V431.36Z"
    fill="#6346CE"/>
  <path
    d="M302.746 348.477C314.437 348.186 321.924 360.203 326.806 378.811C335.356 407.337 348.729 405.443 340.88 411.415C333.043 417.388 306.682 403.707 298.226 379.527C291.557 361.077 293.251 349.594 302.734 348.477H302.746Z"
    fill="url(#paint2_linear_3068_6900)"/>
  <path
    d="M309.45 354.571C313.292 354.936 316.317 358.832 318.945 365.059C322.473 373.969 322.005 376.724 320.616 378.46C319.237 380.184 310.816 383.049 306.226 370.958C301.636 358.856 305.432 354.207 309.45 354.584V354.571Z"
    fill="#6346CE"/>
  <path
    d="M478.303 401.996C476.154 431.031 469.449 435.547 466.997 448.996C464.544 462.446 471.178 474.281 481.258 471.198C496.009 467.18 498.462 436.239 493.054 415.907C487.646 395.574 479.646 391.557 478.303 401.996Z"
    fill="url(#paint3_linear_3068_6900)"/>
  <path
    d="M475.102 470.019C474.997 470.019 474.891 469.983 474.786 469.922C474.518 469.74 474.436 469.364 474.611 469.085C476.9 465.334 479.19 457.917 479.47 454.482C479.493 454.154 479.785 453.899 480.101 453.923C480.428 453.948 480.661 454.239 480.638 454.579C480.358 458.172 478.045 465.734 475.604 469.74C475.499 469.922 475.3 470.019 475.113 470.019H475.102Z"
    fill="#6346CE"/>
  <path
    d="M482.823 470.092C482.718 470.092 482.601 470.056 482.508 469.995C482.239 469.813 482.158 469.437 482.333 469.157C484.19 466.196 485.475 461.595 485.767 456.861C485.79 456.521 486.035 456.254 486.386 456.29C486.713 456.315 486.958 456.594 486.935 456.934C486.631 461.874 485.276 466.693 483.314 469.825C483.197 470.007 483.01 470.104 482.823 470.104V470.092Z"
    fill="#6346CE"/>
  <path
    d="M368.374 288.755C360.619 290.042 355.865 293.04 353.436 300.93C352.571 303.212 351.66 305.421 350.913 307.8C350.691 305.288 351.146 302.775 351.695 300.372C352.244 297.98 352.98 295.431 354.604 293.258C357.816 289.022 363.515 287.614 368.374 288.743V288.755Z"
    fill="#ACACFC"/>
  <path d="M514.467 372.515L507 372.515L514.467 360.515L514.467 372.515Z" fill="white"/>
  <path
    d="M514.467 332.515C514.467 323.678 521.63 316.515 530.467 316.515H618.467C627.303 316.515 634.467 323.678 634.467 332.515V356.515C634.467 365.351 627.303 372.515 618.467 372.515H514.467V332.515Z"
    fill="white"/>
  <path
    d="M546.147 352.755C545.443 352.755 544.739 352.699 544.035 352.587C543.331 352.491 542.667 352.339 542.043 352.131C541.419 351.907 540.859 351.635 540.363 351.315C540.075 351.123 539.875 350.891 539.763 350.619C539.651 350.347 539.611 350.083 539.643 349.827C539.691 349.555 539.795 349.323 539.955 349.131C540.131 348.923 540.347 348.795 540.603 348.747C540.859 348.699 541.139 348.771 541.443 348.963C542.147 349.379 542.891 349.683 543.675 349.875C544.459 350.067 545.283 350.163 546.147 350.163C547.411 350.163 548.331 349.955 548.907 349.539C549.483 349.107 549.771 348.555 549.771 347.883C549.771 347.323 549.563 346.883 549.147 346.563C548.747 346.243 548.051 345.979 547.059 345.771L544.419 345.219C542.899 344.899 541.763 344.363 541.011 343.611C540.275 342.843 539.907 341.835 539.907 340.587C539.907 339.803 540.067 339.091 540.387 338.451C540.707 337.811 541.155 337.259 541.731 336.795C542.323 336.331 543.019 335.979 543.819 335.739C544.635 335.483 545.531 335.355 546.507 335.355C547.467 335.355 548.379 335.475 549.243 335.715C550.107 335.955 550.883 336.307 551.571 336.771C551.827 336.947 551.995 337.163 552.075 337.419C552.171 337.675 552.195 337.931 552.147 338.187C552.099 338.427 551.987 338.635 551.811 338.811C551.635 338.987 551.411 339.091 551.139 339.123C550.883 339.155 550.587 339.075 550.251 338.883C549.659 338.547 549.059 338.307 548.451 338.163C547.843 338.019 547.187 337.947 546.483 337.947C545.747 337.947 545.115 338.051 544.587 338.259C544.059 338.467 543.651 338.763 543.363 339.147C543.091 339.515 542.955 339.955 542.955 340.467C542.955 341.043 543.147 341.507 543.531 341.859C543.915 342.195 544.571 342.459 545.499 342.651L548.115 343.203C549.699 343.539 550.875 344.067 551.643 344.787C552.427 345.507 552.819 346.467 552.819 347.667C552.819 348.435 552.659 349.131 552.339 349.755C552.035 350.379 551.587 350.915 550.995 351.363C550.419 351.811 549.723 352.155 548.907 352.395C548.091 352.635 547.171 352.755 546.147 352.755ZM559.031 352.755C558.183 352.755 557.423 352.595 556.751 352.275C556.095 351.939 555.575 351.491 555.191 350.931C554.823 350.371 554.639 349.739 554.639 349.035C554.639 348.171 554.863 347.491 555.311 346.995C555.759 346.483 556.487 346.115 557.495 345.891C558.503 345.667 559.855 345.555 561.551 345.555H562.751V347.283H561.575C560.583 347.283 559.791 347.331 559.199 347.427C558.607 347.523 558.183 347.691 557.927 347.931C557.687 348.155 557.567 348.475 557.567 348.891C557.567 349.419 557.751 349.851 558.119 350.187C558.487 350.523 558.999 350.691 559.655 350.691C560.183 350.691 560.647 350.571 561.047 350.331C561.463 350.075 561.791 349.731 562.031 349.299C562.271 348.867 562.391 348.371 562.391 347.811V345.051C562.391 344.251 562.215 343.675 561.863 343.323C561.511 342.971 560.919 342.795 560.087 342.795C559.623 342.795 559.119 342.851 558.575 342.963C558.047 343.075 557.487 343.267 556.895 343.539C556.591 343.683 556.319 343.723 556.079 343.659C555.855 343.595 555.679 343.467 555.551 343.275C555.423 343.067 555.359 342.843 555.359 342.603C555.359 342.363 555.423 342.131 555.551 341.907C555.679 341.667 555.895 341.491 556.199 341.379C556.935 341.075 557.639 340.859 558.311 340.731C558.999 340.603 559.623 340.539 560.183 340.539C561.335 340.539 562.279 340.715 563.015 341.067C563.767 341.419 564.327 341.955 564.695 342.675C565.063 343.379 565.247 344.291 565.247 345.411V351.171C565.247 351.667 565.127 352.051 564.887 352.323C564.647 352.579 564.303 352.707 563.855 352.707C563.407 352.707 563.055 352.579 562.799 352.323C562.559 352.051 562.439 351.667 562.439 351.171V350.019H562.631C562.519 350.579 562.295 351.067 561.959 351.483C561.639 351.883 561.231 352.195 560.735 352.419C560.239 352.643 559.671 352.755 559.031 352.755ZM572.3 352.755C570.972 352.755 569.972 352.379 569.3 351.627C568.628 350.859 568.292 349.739 568.292 348.267V336.915C568.292 336.419 568.42 336.043 568.676 335.787C568.932 335.531 569.3 335.403 569.78 335.403C570.26 335.403 570.628 335.531 570.884 335.787C571.156 336.043 571.292 336.419 571.292 336.915V348.123C571.292 348.859 571.444 349.403 571.748 349.755C572.068 350.107 572.516 350.283 573.092 350.283C573.22 350.283 573.34 350.283 573.452 350.283C573.564 350.267 573.676 350.251 573.788 350.235C574.012 350.203 574.164 350.267 574.244 350.427C574.324 350.571 574.364 350.875 574.364 351.339C574.364 351.739 574.284 352.051 574.124 352.275C573.964 352.499 573.7 352.635 573.332 352.683C573.172 352.699 573.004 352.715 572.828 352.731C572.652 352.747 572.476 352.755 572.3 352.755ZM580.204 352.755C579.228 352.755 578.42 352.579 577.78 352.227C577.14 351.859 576.66 351.315 576.34 350.595C576.036 349.875 575.884 348.979 575.884 347.907V342.099C575.884 341.587 576.012 341.211 576.268 340.971C576.524 340.715 576.892 340.587 577.372 340.587C577.852 340.587 578.22 340.715 578.476 340.971C578.748 341.211 578.884 341.587 578.884 342.099V347.955C578.884 348.787 579.052 349.403 579.388 349.803C579.724 350.203 580.26 350.403 580.996 350.403C581.796 350.403 582.452 350.131 582.964 349.587C583.476 349.027 583.732 348.291 583.732 347.379V342.099C583.732 341.587 583.86 341.211 584.116 340.971C584.372 340.715 584.74 340.587 585.22 340.587C585.7 340.587 586.068 340.715 586.324 340.971C586.596 341.211 586.732 341.587 586.732 342.099V351.171C586.732 352.195 586.244 352.707 585.268 352.707C584.804 352.707 584.444 352.579 584.188 352.323C583.932 352.051 583.804 351.667 583.804 351.171V349.347L584.14 350.067C583.804 350.931 583.292 351.595 582.604 352.059C581.932 352.523 581.132 352.755 580.204 352.755ZM595.231 352.755C594.191 352.755 593.319 352.579 592.615 352.227C591.927 351.875 591.415 351.363 591.079 350.691C590.743 350.003 590.575 349.155 590.575 348.147V343.035H589.327C588.943 343.035 588.647 342.939 588.439 342.747C588.231 342.539 588.127 342.259 588.127 341.907C588.127 341.539 588.231 341.259 588.439 341.067C588.647 340.875 588.943 340.779 589.327 340.779H590.575V338.595C590.575 338.099 590.703 337.723 590.959 337.467C591.231 337.211 591.607 337.083 592.087 337.083C592.567 337.083 592.935 337.211 593.191 337.467C593.447 337.723 593.575 338.099 593.575 338.595V340.779H596.119C596.503 340.779 596.799 340.875 597.007 341.067C597.215 341.259 597.319 341.539 597.319 341.907C597.319 342.259 597.215 342.539 597.007 342.747C596.799 342.939 596.503 343.035 596.119 343.035H593.575V347.979C593.575 348.747 593.743 349.323 594.079 349.707C594.415 350.091 594.959 350.283 595.711 350.283C595.983 350.283 596.223 350.259 596.431 350.211C596.639 350.163 596.823 350.131 596.983 350.115C597.175 350.099 597.335 350.163 597.463 350.307C597.591 350.435 597.655 350.707 597.655 351.123C597.655 351.443 597.599 351.731 597.487 351.987C597.391 352.227 597.207 352.395 596.935 352.491C596.727 352.555 596.455 352.611 596.119 352.659C595.783 352.723 595.487 352.755 595.231 352.755ZM607.021 347.643C606.717 347.643 606.477 347.547 606.301 347.355C606.141 347.163 606.045 346.891 606.013 346.539L605.293 337.371C605.245 336.779 605.373 336.307 605.677 335.955C605.981 335.587 606.429 335.403 607.021 335.403C607.597 335.403 608.029 335.587 608.317 335.955C608.621 336.307 608.749 336.779 608.701 337.371L607.981 346.539C607.965 346.891 607.869 347.163 607.693 347.355C607.533 347.547 607.309 347.643 607.021 347.643ZM607.021 352.635C606.477 352.635 606.037 352.467 605.701 352.131C605.381 351.795 605.221 351.363 605.221 350.835C605.221 350.323 605.381 349.907 605.701 349.587C606.037 349.251 606.477 349.083 607.021 349.083C607.581 349.083 608.013 349.251 608.317 349.587C608.637 349.907 608.797 350.323 608.797 350.835C608.797 351.363 608.637 351.795 608.317 352.131C608.013 352.467 607.581 352.635 607.021 352.635Z"
    fill="#2A2D3A"/>
  <defs>
    <linearGradient id="paint0_linear_3068_6900" x1="407.516" y1="371.569" x2="407.516" y2="246.527"
                    gradientUnits="userSpaceOnUse">
      <stop stop-color="#6346CE"/>
      <stop offset="0.11" stop-color="#6954DD"/>
      <stop offset="0.26" stop-color="#6E5FE9"/>
      <stop offset="0.47" stop-color="#8176F9"/>
      <stop offset="1" stop-color="#887FF8"/>
    </linearGradient>
    <linearGradient id="paint1_linear_3068_6900" x1="408.669" y1="478.361" x2="408.669" y2="384.894"
                    gradientUnits="userSpaceOnUse">
      <stop stop-color="#6346CE"/>
      <stop offset="0.11" stop-color="#6954DD"/>
      <stop offset="0.26" stop-color="#6E5FE9"/>
      <stop offset="0.47" stop-color="#8176F9"/>
      <stop offset="1" stop-color="#887FF8"/>
    </linearGradient>
    <linearGradient id="paint2_linear_3068_6900" x1="318.732" y1="412.819" x2="318.732" y2="348.473"
                    gradientUnits="userSpaceOnUse">
      <stop stop-color="#6346CE"/>
      <stop offset="0.11" stop-color="#6954DD"/>
      <stop offset="0.26" stop-color="#6E5FE9"/>
      <stop offset="0.47" stop-color="#8176F9"/>
      <stop offset="1" stop-color="#887FF8"/>
    </linearGradient>
    <linearGradient id="paint3_linear_3068_6900" x1="481.087" y1="471.701" x2="481.087" y2="396.428"
                    gradientUnits="userSpaceOnUse">
      <stop stop-color="#6346CE"/>
      <stop offset="0.11" stop-color="#6954DD"/>
      <stop offset="0.26" stop-color="#6E5FE9"/>
      <stop offset="0.47" stop-color="#8176F9"/>
      <stop offset="1" stop-color="#887FF8"/>
    </linearGradient>
  </defs>
</svg>
