<svg width="142" height="98" viewBox="0 0 142 98" fill="none" xmlns="http://www.w3.org/2000/svg">
<path d="M108.742 45.7547C108.391 45.7547 108.108 45.4704 108.108 45.1188V1.77324H50.428V45.1204C50.428 45.472 50.1444 45.7563 49.7936 45.7563C49.4428 45.7563 49.1592 45.472 49.1592 45.1204V1.13735C49.1592 0.785725 49.4428 0.501465 49.7936 0.501465H108.742C109.093 0.501465 109.376 0.785725 109.376 1.13735V45.1188C109.376 45.4704 109.093 45.7547 108.742 45.7547Z" fill="#FFCCC2"/>
<path d="M49.9297 1.93262C51.5181 7.12324 60.9978 33.1207 62.1436 40.8006" stroke="#FFCCC2" stroke-width="0.6" stroke-linecap="round" stroke-linejoin="round"/>
<path d="M49.9297 8.83887C52.7541 20.8665 55.6441 37.8662 55.9309 41.7949" stroke="#FFCCC2" stroke-width="0.6" stroke-linecap="round" stroke-linejoin="round"/>
<path d="M58.5176 1.59424C61.0322 5.69711 68.3677 34.0081 69.1693 40.0827" stroke="#FFCCC2" stroke-width="0.6" stroke-linecap="round" stroke-linejoin="round"/>
<path d="M67.3516 1.27051C70.1448 5.78087 76.4837 36.6436 76.964 39.4665" stroke="#FFCCC2" stroke-width="0.6" stroke-linecap="round" stroke-linejoin="round"/>
<path d="M77.1738 1.24268C78.8409 4.69159 84.5619 35.9043 84.5274 39.0328" stroke="#FFCCC2" stroke-width="0.6" stroke-linecap="round" stroke-linejoin="round"/>
<path d="M86.5586 1.26221C89.5453 7.92999 93.2762 35.4408 93.6106 38.7599" stroke="#FFCCC2" stroke-width="0.6" stroke-linecap="round" stroke-linejoin="round"/>
<path d="M95.8574 1.03076C96.8229 3.88158 101.341 37.0332 101.272 38.8636" stroke="#FFCCC2" stroke-width="0.6" stroke-linecap="round" stroke-linejoin="round"/>
<path d="M103.114 1.38232C105.845 7.79214 109.391 37.0594 109.207 39.3121" stroke="#FFCCC2" stroke-width="0.6" stroke-linecap="round" stroke-linejoin="round"/>
<path d="M108.728 1.93262C110.445 7.12159 113.873 39.0326 114.124 40.4244" stroke="#FFCCC2" stroke-width="0.6" stroke-linecap="round" stroke-linejoin="round"/>
<path d="M109.376 45.1188C109.376 45.1188 113.705 42.3255 114.123 40.689" stroke="#FFCCC2" stroke-width="0.6" stroke-linecap="round" stroke-linejoin="round"/>
<path d="M108.728 15.6328C108.941 19.1064 111.637 40.1416 111.624 43.4936" stroke="#FFCCC2" stroke-width="0.6" stroke-linecap="round" stroke-linejoin="round"/>
<path d="M49.7939 44.6356C52.0856 42.9908 54.1346 42.1315 55.9296 41.793" stroke="#FFCCC2" stroke-width="0.6" stroke-linecap="round" stroke-linejoin="round"/>
<path d="M56.2861 41.6846C59.6089 40.6445 103.127 36.2919 114.122 40.6889" stroke="#FFCCC2" stroke-width="0.6" stroke-linecap="round" stroke-linejoin="round"/>
<path d="M108.994 4.80127C100.356 10.9186 53.3112 6.89789 51.2015 6.20778C51.3556 8.18446 51.7326 13.0349 49.7344 12.7868" stroke="#FFCCC2" stroke-width="0.6" stroke-linecap="round" stroke-linejoin="round"/>
<path d="M49.7939 18.6333C51.5151 19.6405 53.8691 15.6215 53.9871 13.8945C59.8179 17.6261 90.601 21.3674 110.923 14.5584C110.318 16.8423 108.726 17.1364 108.726 17.1364" stroke="#FFCCC2" stroke-width="0.6" stroke-linecap="round" stroke-linejoin="round"/>
<path d="M49.7939 27.1972C51.5709 27.4388 56.1542 25.8942 57.4393 24.1689C63.2898 27.0329 95.8581 30.6773 112.311 25.3158C112.06 27.7937 108.726 29.5633 108.726 29.5633" stroke="#FFCCC2" stroke-width="0.6" stroke-linecap="round" stroke-linejoin="round"/>
<path d="M49.7363 38.1207C51.5067 38.0188 58.8669 37.1874 60.688 34.6685C65.1287 36.443 107.044 38.681 113.389 34.3218C113.734 37.2613 108.727 39.4647 108.727 39.4647" stroke="#FFCCC2" stroke-width="0.6" stroke-linecap="round" stroke-linejoin="round"/>
<path d="M60.0597 20.9633C60.0893 21.1687 60.2384 21.3313 60.3827 21.4809C60.0384 21.4957 59.8057 21.9524 59.9942 22.2416C59.7565 22.2466 59.5418 22.4569 59.5336 22.6951C59.5237 22.9334 59.7221 23.1601 59.9581 23.1831C59.7467 23.4871 59.8745 23.9669 60.2089 24.1247C60.1319 24.2545 60.0532 24.3974 60.0679 24.5469C60.0827 24.6965 60.245 24.8378 60.381 24.7737C60.2466 25.0974 60.5318 25.5131 60.881 25.5016C60.8384 25.6708 60.9285 25.9124 61.0843 25.9896C61.24 26.0668 61.4121 26.1276 61.6121 26.1178C61.581 26.3971 61.7678 26.683 62.1219 26.5795C62.1137 26.7356 62.3678 26.8522 62.5366 26.7405C62.9596 26.6271 63.348 26.3839 63.6349 26.052C64.3103 26.3379 65.0971 26.3478 65.7807 26.0816C65.8839 26.0405 65.9938 25.9945 66.102 26.0192C66.1954 26.0405 66.2675 26.1095 66.3397 26.172C66.8576 26.6189 67.6117 26.7717 68.2608 26.563C68.7542 27.0675 69.587 27.1973 70.2099 26.8687C70.2886 26.8276 70.3673 26.7783 70.4558 26.7734C70.564 26.7668 70.664 26.8276 70.7689 26.8522C71.059 26.9196 71.3541 26.7044 71.4803 26.4349C71.6065 26.1654 71.6032 25.8549 71.5983 25.5558C71.8557 25.3948 72.1114 25.2338 72.3688 25.0744C72.4884 24.9988 72.6179 24.9134 72.6589 24.777C72.6851 24.6932 72.6736 24.6012 72.6917 24.5157C72.7409 24.2824 72.9867 24.1542 73.149 23.9801C73.3113 23.8059 73.3326 23.4362 73.0966 23.4C73.5703 23.2407 73.7277 22.5226 73.3654 22.1776C73.7818 21.821 73.708 21.0487 73.2326 20.7776C73.2556 20.5509 73.2785 20.3143 73.1998 20.1006C73.1212 19.887 72.9081 19.7047 72.6835 19.7392C72.6294 19.4516 72.5573 19.1526 72.3671 18.9291C72.177 18.7056 71.8393 18.5824 71.5836 18.7254C71.459 18.2784 71.0836 17.5423 70.6738 17.7576C70.7033 17.5275 69.946 16.4956 69.6017 17.0658C69.5148 16.7832 68.6723 16.0717 68.6444 16.8998C68.469 16.7602 67.5035 15.5969 67.0183 16.6123C66.9117 16.4431 66.7839 16.259 66.5888 16.218C66.3937 16.1769 66.161 16.3971 66.2724 16.563C65.8495 16.2278 65.3758 16.2985 65.2823 16.6912C65.0725 16.402 64.5955 16.4907 64.5611 16.7848C64.3709 16.752 64.1677 16.7207 63.989 16.798C63.812 16.8752 63.689 17.1085 63.7972 17.2696C63.6759 17.1036 63.394 17.1381 63.2645 17.2975C63.135 17.4569 63.1284 17.6853 63.1759 17.8857C63.0087 17.8381 62.8235 17.797 62.6678 17.8726C62.512 17.9482 62.4366 18.193 62.576 18.2965C62.4202 18.1831 62.1858 18.193 62.0399 18.3211C61.8941 18.4493 61.8531 18.6793 61.9449 18.8502C61.758 18.8092 61.4859 18.7352 61.3761 18.8634C61.2662 18.9915 61.3662 19.2955 61.5121 19.4467C61.3269 19.4467 61.1646 19.2249 60.9564 19.4483C60.7482 19.6718 60.9138 19.9807 60.8925 20.2452C60.4614 20.1532 60.0204 20.6955 60.0597 20.96V20.9633Z" fill="#263238"/>
<path d="M62.7612 33.0485C62.9678 33.2555 65.2889 33.6663 65.2889 33.6663L65.8266 33.5989L66.1921 36.6042L62.7317 35.5214L61.7629 35.385H60.74C59.7221 35.3439 59.0779 34.2776 58.7385 34.1412C58.5402 34.0689 58.4238 33.8635 58.4648 33.6548C58.4648 33.6548 57.9681 32.3091 58.5435 31.9394C58.6795 31.8523 58.868 31.9312 59.0025 32.0216C59.0615 31.8375 59.2533 31.7176 59.445 31.6946C59.6368 31.6716 59.8303 31.7241 60.0122 31.7932C60.0417 31.6666 60.1729 31.5713 60.3024 31.5845C60.3548 31.5894 60.4056 31.6108 60.4581 31.6026C60.4942 31.5976 60.5269 31.5779 60.5614 31.5664C61.3318 31.5664 62.5563 32.8448 62.7629 33.0501L62.7612 33.0485Z" fill="#99614D"/>
<path d="M60.0499 33.5435C60.0499 33.5435 59.0844 33.6256 58.7139 33.6256C58.3434 33.6256 57.3779 33.3759 57.3779 33.9542C57.3779 34.5326 58.0451 34.6164 58.4926 34.6986C58.9401 34.7807 60.1351 35.6023 60.9433 35.3821C61.7514 35.1636 61.9399 34.9516 61.9399 34.9516" fill="#99614D"/>
<path d="M60.0497 33.5433C59.3858 33.6451 58.7137 33.7141 58.0433 33.6484C57.8827 33.6484 57.7155 33.6599 57.5941 33.724C57.3433 33.867 57.4942 34.281 57.7335 34.3895C58.0154 34.5538 58.3711 34.5521 58.6793 34.6573C58.8432 34.7197 58.9941 34.7904 59.1465 34.8627C59.7301 35.1223 60.3645 35.492 61.0152 35.3178C61.3349 35.234 61.6676 35.1502 61.9398 34.9547C61.6906 35.1847 61.3546 35.2915 61.0398 35.4033C60.3743 35.63 59.6727 35.285 59.0695 35.027C58.8383 34.9301 58.6351 34.8134 58.3859 34.7772C58.1269 34.7312 57.8745 34.6885 57.6368 34.5521C57.2925 34.3928 57.1139 33.7766 57.5138 33.5728C57.8613 33.4217 58.2056 33.5219 58.5515 33.5548C59.0449 33.5958 59.5514 33.5449 60.0497 33.5433Z" fill="#7A4130"/>
<path d="M60.9793 58.3853C60.9793 58.3853 58.9712 62.2039 59.4843 64.8099C59.7105 65.9584 64.2626 71.5844 65.6281 72.9548C66.992 74.3252 69.3853 76.5138 69.3853 76.5138C69.3574 76.826 69.2656 77.1283 69.1131 77.4027C68.8394 77.9515 67.4723 79.3186 66.3117 79.8691C65.1511 80.4179 65.4249 81.3758 66.3789 81.6469C67.3346 81.9197 70.2032 81.6469 70.8868 81.2361C71.5704 80.8254 72.2539 79.7294 72.7981 79.4583C73.344 79.1855 74.6423 79.2512 74.7783 78.2243C74.9144 77.1973 74.6292 76.6042 74.221 76.3331C73.7948 76.0127 73.821 75.3718 73.4292 75.0087C72.449 73.7829 71.0425 72.3682 70.2049 71.0406C69.2197 69.3104 69.0705 68.4658 66.7231 65.0859C67.8018 64.6258 69.1148 63.1782 69.1148 63.1782L60.9793 58.3853Z" fill="#99614D"/>
<path d="M74.4246 76.2853C74.0017 75.9682 73.8296 75.3783 73.4411 75.0185C73.4329 75.0119 73.4263 75.0037 73.4198 74.9955C72.4592 73.7828 69.5004 68.3573 67.707 66.1423C67.6283 66.0454 67.4775 66.052 67.4087 66.1571C66.83 67.0493 65.3957 68.773 62.7992 69.2676C62.6631 69.2938 62.6057 69.4565 62.6926 69.565C63.863 71.0158 65.0416 72.3714 65.6219 72.9629C66.8514 74.1936 68.9086 76.0898 69.3086 76.4578C69.3528 76.4989 69.3758 76.5564 69.3676 76.6156C69.3315 76.8949 69.243 77.1644 69.1069 77.4092C68.8332 77.958 67.4661 79.3251 66.3055 79.8755C65.1449 80.4243 65.4187 81.3823 66.3727 81.6534C67.3284 81.9262 70.197 81.6534 70.8806 81.2426C71.5642 80.8318 72.2477 79.7359 72.7919 79.4648C73.3378 79.192 74.6361 79.2577 74.7721 78.2308C74.9082 77.2038 74.8344 76.5564 74.4246 76.2853Z" fill="#FC9175"/>
<mask id="mask0_2551_1650" style="mask-type:luminance" maskUnits="userSpaceOnUse" x="62" y="66" width="13" height="16">
<path d="M74.4246 76.2853C74.0017 75.9682 73.8296 75.3783 73.4411 75.0185C73.4329 75.0119 73.4263 75.0037 73.4198 74.9955C72.4592 73.7828 69.5004 68.3573 67.707 66.1423C67.6283 66.0454 67.4775 66.052 67.4087 66.1571C66.83 67.0493 65.3957 68.773 62.7992 69.2676C62.6631 69.2938 62.6057 69.4565 62.6926 69.565C63.863 71.0158 65.0416 72.3714 65.6219 72.9629C66.8514 74.1936 68.9086 76.0898 69.3086 76.4578C69.3528 76.4989 69.3758 76.5564 69.3676 76.6156C69.3315 76.8949 69.243 77.1644 69.1069 77.4092C68.8332 77.958 67.4661 79.3251 66.3055 79.8755C65.1449 80.4243 65.4187 81.3823 66.3727 81.6534C67.3284 81.9262 70.197 81.6534 70.8806 81.2426C71.5642 80.8318 72.2477 79.7359 72.7919 79.4648C73.3378 79.192 74.6361 79.2577 74.7721 78.2308C74.9082 77.2038 74.8344 76.5564 74.4246 76.2853Z" fill="white"/>
</mask>
<g mask="url(#mask0_2551_1650)">
<path d="M61.7009 69.0522C61.7763 69.0013 64.1319 67.8955 64.1319 67.8955L67.9415 65.4341L68.7857 66.7732C68.7857 66.7732 68.4431 67.7952 67.1645 68.8255C65.8859 69.8557 63.3303 70.6083 62.4779 70.5327C61.6255 70.4571 61.7009 69.0522 61.7009 69.0522Z" fill="#F46E4A"/>
</g>
<path d="M74.1045 63.4331C74.1045 63.4331 76.247 68.5843 76.9977 69.4058C77.7485 70.2274 83.1088 73.8373 85.2251 75.2833C87.3413 76.7292 88.0937 77.8153 88.0937 77.8153C88.0937 77.8153 86.7971 79.8709 86.0463 80.487C85.2955 81.1032 84.3382 82.4719 84.9529 82.7463C85.5693 83.0207 87.8872 82.8827 89.0494 82.4046C90.21 81.9264 92.0148 80.0286 92.5606 79.069C93.1065 78.1094 93.5097 76.1311 92.8262 75.7236C92.1426 75.3161 90.8952 75.0927 90.7591 74.8183C90.6231 74.5439 88.2527 71.3743 87.4331 70.0746C86.6135 68.7749 85.3169 66.8491 84.4989 66.3628C84.489 66.3578 84.4808 66.3513 84.471 66.3463C83.6727 65.8715 83.1498 65.0434 83.0564 64.1183L82.7269 60.832L74.1045 63.4364V63.4331Z" fill="#99614D"/>
<path d="M92.8277 75.7168C92.1441 75.306 90.8966 75.0858 90.7606 74.8114C90.6245 74.537 88.2542 71.3674 87.4346 70.0677C86.7609 68.9964 85.7626 67.5094 84.9708 66.7486C84.9462 66.724 84.9069 66.7404 84.9003 66.7749C84.8134 67.3549 84.4692 68.1535 83.4053 68.9718C82.648 69.5567 80.5662 70.4686 79.3679 70.9287C79.1712 71.0043 79.1319 71.2672 79.3007 71.3954C81.0645 72.7427 83.9561 74.422 85.2249 75.283C86.8674 76.3987 87.6887 77.3073 87.9739 77.6573C88.0477 77.7493 88.0559 77.8758 87.9903 77.9744C87.669 78.4706 86.6691 79.9741 86.0462 80.4851C85.2954 81.1029 84.3381 82.47 84.9528 82.7444C85.5691 83.0188 87.887 82.8808 89.0492 82.4026C90.2114 81.9245 92.0146 80.0267 92.5605 79.0671C93.1063 78.1075 93.5096 76.1276 92.826 75.7168H92.8277Z" fill="#FC9175"/>
<mask id="mask1_2551_1650" style="mask-type:luminance" maskUnits="userSpaceOnUse" x="79" y="66" width="15" height="17">
<path d="M92.8277 75.7168C92.1441 75.306 90.8966 75.0858 90.7606 74.8114C90.6245 74.537 88.2542 71.3674 87.4346 70.0677C86.7609 68.9964 85.7626 67.5094 84.9708 66.7486C84.9462 66.724 84.9069 66.7404 84.9003 66.7749C84.8134 67.3549 84.4692 68.1535 83.4053 68.9718C82.648 69.5567 80.5662 70.4686 79.3679 70.9287C79.1712 71.0043 79.1319 71.2672 79.3007 71.3954C81.0645 72.7427 83.9561 74.422 85.2249 75.283C86.8674 76.3987 87.6887 77.3073 87.9739 77.6573C88.0477 77.7493 88.0559 77.8758 87.9903 77.9744C87.669 78.4706 86.6691 79.9741 86.0462 80.4851C85.2954 81.1029 84.3381 82.47 84.9528 82.7444C85.5691 83.0188 87.887 82.8808 89.0492 82.4026C90.2114 81.9245 92.0146 80.0267 92.5605 79.0671C93.1063 78.1075 93.5096 76.1276 92.826 75.7168H92.8277Z" fill="white"/>
</mask>
<g mask="url(#mask1_2551_1650)">
<path d="M80.0183 72.386C81.7854 72.4041 86.408 70.2385 86.7457 68.0729C87.0834 65.9072 84.7622 66.1898 84.7622 66.1898L78.1758 71.1636L80.0183 72.3877V72.386Z" fill="#F46E4A"/>
</g>
<path d="M83.8608 62.4803L82.3674 63.522L82.2904 63.5762C82.2904 63.5762 82.1035 63.6879 81.7691 63.8506C80.2086 64.6229 78.4972 65.0452 76.758 65.0846C73.7533 65.0846 73.8238 65.0846 73.8238 64.5982C73.8238 64.1119 72.0468 61.3794 72.0468 61.3794L69.0421 64.8726C68.0717 64.7461 67.1275 64.4684 66.2423 64.0494C64.808 63.3725 62.0934 62.8039 60.0771 60.1848C60.782 57.541 64.2277 51.0688 64.2277 51.0688L64.844 50.1108C64.844 50.1108 71.9108 53.0356 75.2581 53.3774C78.6054 53.7191 81.6757 52.4884 81.6757 52.4884C81.6757 52.4884 81.9494 54.4733 82.3593 56.3892C82.7691 58.3051 83.8624 62.4786 83.8624 62.4786L83.8608 62.4803Z" fill="#D35429"/>
<mask id="mask2_2551_1650" style="mask-type:luminance" maskUnits="userSpaceOnUse" x="60" y="50" width="24" height="16">
<path d="M83.8608 62.4803L82.3674 63.522L82.2904 63.5762C82.2904 63.5762 82.1035 63.6879 81.7691 63.8506C80.2086 64.6229 78.4972 65.0452 76.758 65.0846C73.7533 65.0846 73.8238 65.0846 73.8238 64.5982C73.8238 64.1119 72.0468 61.3794 72.0468 61.3794L69.0421 64.8726C68.0717 64.7461 67.1275 64.4684 66.2423 64.0494C64.808 63.3725 62.0934 62.8039 60.0771 60.1848C60.782 57.541 64.2277 51.0688 64.2277 51.0688L64.844 50.1108C64.844 50.1108 71.9108 53.0356 75.2581 53.3774C78.6054 53.7191 81.6757 52.4884 81.6757 52.4884C81.6757 52.4884 81.9494 54.4733 82.3593 56.3892C82.7691 58.3051 83.8624 62.4786 83.8624 62.4786L83.8608 62.4803Z" fill="white"/>
</mask>
<g mask="url(#mask2_2551_1650)">
<g style="mix-blend-mode:multiply" opacity="0.6">
<path d="M68.418 56.8247C68.6737 57.1254 68.9917 57.3686 69.2556 57.6627C69.5195 57.9568 69.7376 58.3232 69.7277 58.7192C69.7277 58.7389 69.7261 58.7603 69.7162 58.7767C69.7031 58.8014 69.6736 58.8145 69.6474 58.826C69.4884 58.895 69.3277 58.9641 69.1687 59.0331C70.1392 59.7988 70.7506 60.9999 70.7981 62.2371C70.808 62.5083 70.8063 62.8139 70.9998 63.0045C71.1997 63.2033 71.5538 63.1787 71.7718 62.9979C71.9882 62.8172 72.0817 62.5214 72.0817 62.2388C72.0767 61.1494 71.3866 60.2293 70.7703 59.3863C70.0851 58.4481 69.295 57.5871 68.418 56.8247Z" fill="#929292"/>
</g>
</g>
<path d="M82.37 63.5236L82.2929 63.5778C82.2929 63.5778 82.1061 63.6896 81.7717 63.8522L78.6719 53.3872L79.7652 53.8736L82.37 63.5253V63.5236Z" fill="#FFA78F"/>
<path d="M66.9262 30.9274C66.9262 30.9274 64.5804 32.5623 64.2067 35.0746C63.751 38.139 64.0034 42.117 64.2067 43.5548C64.41 44.9925 64.3968 47.6872 64.2067 49.3829C64.1346 50.0237 63.0625 52.9978 63.0625 52.9978C63.0625 52.9978 68.4277 55.0862 72.3209 55.2259C76.2124 55.3639 80.1728 54.9515 81.2662 54.1989C82.0629 53.6813 82.9087 53.2459 83.7939 52.8992C83.7939 52.8992 82.0858 50.2981 81.5399 48.3132C80.9941 46.3284 80.6531 39.8249 78.7401 37.0874C76.8288 34.35 76.8353 32.1679 74.0306 30.234C72.5979 29.2465 68.7703 29.7624 66.9262 30.9257V30.9274Z" fill="#F46E4A"/>
<path d="M64.5365 45.0269C64.5365 45.0269 63.9202 45.7794 63.4431 45.9191C62.9661 46.0571 62.7596 46.6716 63.2366 46.7406C63.6333 46.7538 64.0283 46.6831 64.3972 46.5336L64.5349 45.0269H64.5365Z" fill="#99614D"/>
<path d="M66.7901 48.1061C67.3376 48.1061 68.1539 48.2754 68.5375 47.2566C69.1129 46.8409 72.5471 48.1784 77.4189 46.997C79.3302 46.3792 81.5711 45.6973 81.9366 44.6096C82.3022 43.5218 81.812 41.8738 81.3334 41.1886C80.8547 40.5034 76.1452 42.3569 74.642 43.3164C74.642 43.3164 71.3636 44.4798 69.8604 44.6835C68.3572 44.8873 67.7441 45.1699 67.3343 44.9579C66.9245 44.746 65.2869 43.5908 64.8771 43.7946C64.4673 43.9983 64.0559 45.6431 63.987 46.1903C63.9591 46.417 64.0608 46.6602 64.228 46.8163C64.2575 46.8442 64.2903 46.8705 64.3296 46.8754C64.3985 46.8869 64.4607 46.8344 64.5001 46.7785C64.5394 46.7226 64.5657 46.6553 64.6165 46.6076C64.5837 46.7407 64.5509 46.8853 64.6099 47.0085C64.682 47.1564 64.8706 47.2189 65.0312 47.186C65.1918 47.1531 65.3263 47.043 65.4361 46.9214C65.4181 47.0858 65.4295 47.2534 65.4722 47.4127C65.5033 47.5294 65.5574 47.651 65.6672 47.7036C65.777 47.7562 65.9393 47.6822 65.9295 47.5623C65.9229 47.7726 66.0065 47.9944 66.1819 48.1094C66.3573 48.2244 66.6245 48.1998 66.7426 48.0256C66.7458 48.0453 66.7852 48.0881 66.7901 48.1078V48.1061Z" fill="#99614D"/>
<path d="M78.9698 34.4814C77.0585 31.8803 76.5339 31.5632 74.8717 31.8113C73.4177 32.0824 72.6243 33.8619 72.2342 35.1583C71.9867 35.9783 72.0375 36.8573 72.3588 37.651L74.6422 43.3181C74.6422 43.3181 77.6469 42.0167 79.1501 41.6766C80.132 41.4548 81.0746 41.3398 81.6106 41.2855C81.8467 41.2625 82.004 41.0276 81.9319 40.7992C81.309 38.8209 80.0796 36.0391 78.9698 34.4814Z" fill="#D35429"/>
<path d="M66.7951 31.2786C66.7951 31.2786 66.1787 31.5513 66.1787 32.6456V35.9319L68.4327 34.5615L69.7293 36.8882C69.7293 36.8882 72.0504 34.0817 73.0078 32.5158C73.9651 30.9483 74.2372 30.1202 73.5536 29.3578C72.8701 28.5953 71.3718 28.7399 71.3718 28.7399L66.7934 31.2753L66.7951 31.2786Z" fill="#D35429"/>
<path d="M67.3359 31.6798C67.3359 31.6798 68.0867 34.8379 68.2916 34.8954C68.4949 34.9529 72.3225 29.8215 72.3225 29.8215C72.3225 29.8215 71.9733 28.2605 72.2389 26.2181C72.0323 24.6571 67.3376 31.6798 67.3376 31.6798H67.3359Z" fill="#99614D"/>
<mask id="mask3_2551_1650" style="mask-type:luminance" maskUnits="userSpaceOnUse" x="67" y="25" width="6" height="10">
<path d="M67.3359 31.6798C67.3359 31.6798 68.0867 34.8379 68.2916 34.8954C68.4949 34.9529 72.3225 29.8215 72.3225 29.8215C72.3225 29.8215 71.9733 28.2605 72.2389 26.2181C72.0323 24.6571 67.3376 31.6798 67.3376 31.6798H67.3359Z" fill="white"/>
</mask>
<g mask="url(#mask3_2551_1650)">
<path d="M71.7565 26.688C71.9483 27.7264 72.1991 29.7261 71.4172 30.8352C70.3762 32.3124 68.8255 33.6318 67.6518 33.6548C66.4781 33.6778 66.6404 31.5648 66.6404 31.5648L70.0566 29.9923L71.7565 26.688Z" fill="#7A4130"/>
</g>
<path d="M71.0244 24.9709C71.8178 24.2381 71.7948 27.3271 71.7948 27.3271C71.7948 27.3271 71.9555 28.9703 71.5293 29.8296C71.1195 30.6577 70.4654 32.0544 68.0197 32.2269C64.9789 32.4422 63.8872 30.6199 63.5118 29.547C63.1102 28.4017 63.2249 28.0057 62.7889 27.153C62.6512 26.8851 62.3315 26.5483 62.2283 26.2525C61.9299 25.3981 61.9217 23.4329 61.9217 23.4329C61.7365 22.5588 61.3431 22.1809 61.766 21.3938C62.1889 20.6068 62.8971 19.9791 63.7265 19.6521C64.7215 19.2611 65.828 19.3071 66.8952 19.3596C67.1394 19.3711 67.3869 19.3843 67.623 19.4467C67.8869 19.5174 68.1295 19.6505 68.3606 19.7934C68.7999 20.0662 69.2114 20.3833 69.5868 20.7382C69.8687 21.006 70.1326 21.2969 70.3359 21.6288C70.6408 22.1283 70.7965 22.7034 70.9129 23.2752C71.0244 23.8273 70.985 24.4057 71.026 24.9676L71.0244 24.9709Z" fill="#99614D"/>
<path d="M65.0149 27.7085C65.0149 27.7085 64.8083 29.2826 65.2886 29.764C65.7689 30.2455 66.3787 29.4896 66.3787 29.4896" stroke="#7A4130" stroke-width="0.3" stroke-linecap="round" stroke-linejoin="round"/>
<path d="M66.4297 30.4244C66.4297 30.4244 67.9673 30.7004 68.241 29.2134" stroke="#7A4130" stroke-width="0.3" stroke-linecap="round" stroke-linejoin="round"/>
<path d="M64.6392 46.3447C64.5605 45.8649 64.8408 45.3506 65.285 45.1567L65.2998 45.1682C65.0293 45.5281 64.8129 45.929 64.6572 46.3513L64.6392 46.3447Z" fill="#7A4130"/>
<path d="M65.4864 46.6832C65.3192 46.3135 65.6027 45.7942 66.0076 45.7466L66.0191 45.7614C65.7667 46.0046 65.5864 46.3447 65.5044 46.6848L65.4847 46.6815L65.4864 46.6832Z" fill="#7A4130"/>
<path d="M66.0894 47.3108C65.9714 47.0463 66.1665 46.7374 66.373 46.5764C66.4468 46.5205 66.5386 46.4728 66.6484 46.4712L66.6615 46.486C66.4763 46.6552 66.3501 46.8803 66.2091 47.0857C66.1681 47.1564 66.1173 47.232 66.1107 47.3075L66.0911 47.3108H66.0894Z" fill="#7A4130"/>
<path d="M66.7967 47.9107C66.7476 47.5245 66.8885 47.1598 67.182 46.9067L67.2 46.9117C67.1574 47.0875 67.1033 47.26 67.0426 47.4292C66.9754 47.5968 66.8984 47.7612 66.8131 47.9189L66.7967 47.9107Z" fill="#7A4130"/>
<path d="M71.4279 24.2152C71.5557 24.1264 71.7098 24.0624 71.8623 24.0837C72.0705 24.1149 72.2213 24.2957 72.3262 24.4781C72.6803 25.0942 72.7311 25.8665 72.5032 26.5402C72.4426 26.7176 72.359 26.8967 72.2082 27.0068C72.0573 27.1169 71.8262 27.1366 71.6934 27.0035C71.6443 26.9543 71.6131 26.8902 71.5836 26.8277C71.3705 26.3824 70.9984 25.8583 70.8935 25.3785C70.7886 24.9004 71.1279 24.5142 71.4279 24.2135V24.2152Z" fill="#99614D"/>
<path d="M71.6078 25.5605C71.5537 25.3371 71.7209 24.9132 71.9996 24.923C72.2127 24.9575 72.2586 25.2204 72.2618 25.3634C72.2766 25.554 72.2979 25.7544 72.27 25.9582C72.2569 26.1422 72.1356 26.4561 71.9045 26.3805C72.1192 26.3542 72.1176 26.1159 72.1192 25.95C72.1143 25.7643 72.0881 25.577 72.0684 25.3815C72.0651 25.25 72.0422 25.0265 71.8979 25.1136C71.7635 25.2139 71.6406 25.388 71.6078 25.5638V25.5605Z" fill="#7A4130"/>
<path d="M61.273 24.2349C60.9436 23.7124 60.8993 23.0584 60.937 22.4406C60.9567 22.0989 61.0009 21.7538 61.114 21.4301C61.2157 21.1426 61.3698 20.878 61.5238 20.6151C61.6484 20.4032 61.773 20.1896 61.9369 20.0072C62.2271 19.6851 62.6221 19.4781 63.0205 19.3056C64.6777 18.5859 66.5547 18.3476 68.3234 18.7157C68.625 18.7781 68.9234 18.8586 69.202 18.9868C69.8184 19.2694 70.3118 19.7738 70.6839 20.3407C71.2527 21.2083 71.5642 22.2435 71.5674 23.2819C71.5674 23.4561 71.5576 23.6368 71.4707 23.7863C71.4133 23.8849 71.3265 23.9622 71.2658 24.0591C71.0363 24.4239 71.2412 24.9119 71.1248 25.3259C70.8609 25.2257 70.9019 24.8412 70.7773 24.5898C70.5593 24.6309 70.3511 24.3647 70.4429 24.161C70.3134 24.1363 70.179 24.11 70.0692 24.0377C69.9593 23.9654 69.879 23.8307 69.9085 23.7009C69.5413 23.7551 69.1791 23.3772 69.2479 23.0108C69.0463 22.9894 68.8824 22.7906 68.8971 22.5885C68.5529 22.5047 68.2873 22.1695 68.2841 21.8162C68.0447 21.8622 67.7923 21.647 67.7972 21.4022C67.4989 21.6191 67.0628 21.6174 66.7645 21.4005C66.7022 21.5714 66.535 21.7012 66.353 21.716C66.1711 21.7324 65.9842 21.6355 65.894 21.4761C65.7367 21.8853 65.1482 22.0479 64.804 21.7785C64.8499 21.9707 64.7745 22.1859 64.6187 22.3075C64.463 22.4291 64.2351 22.4488 64.0614 22.3552C64.1056 22.4258 64.0647 22.5261 63.9942 22.5737C63.9237 22.6214 63.8352 22.6263 63.7516 22.6296C63.5385 22.6362 63.3172 22.6214 63.1303 22.5179C63.0238 22.4571 62.8959 22.3864 62.8385 22.278C62.8434 22.4028 62.85 22.5277 62.8549 22.6526C62.8565 22.697 62.8582 22.743 62.8385 22.7808C62.7992 22.8563 62.7008 22.8728 62.6172 22.8793C62.4795 22.8908 62.3172 22.8941 62.232 22.784C62.3763 22.8711 62.4271 23.0798 62.35 23.231C62.273 23.3821 62.0894 23.4643 61.9222 23.4347C61.755 23.4051 61.614 23.277 61.5534 23.1192C61.6353 23.2458 61.6894 23.4002 61.6501 23.5448C61.6107 23.6894 61.4468 23.8044 61.3075 23.7502C61.373 23.9046 61.378 24.1051 61.2714 24.2366L61.273 24.2349Z" fill="#263238"/>
<path d="M67.0378 27.0348C67.2304 26.9579 67.2952 26.6659 67.1826 26.3827C67.07 26.0994 66.8225 25.9322 66.63 26.0091C66.4374 26.0861 66.3725 26.3781 66.4852 26.6613C66.5978 26.9445 66.8452 27.1118 67.0378 27.0348Z" fill="#263238"/>
<path d="M64.2379 27.5644C64.3758 27.5093 64.4139 27.2795 64.3231 27.051C64.2323 26.8226 64.0468 26.682 63.9089 26.7371C63.771 26.7922 63.7328 27.0221 63.8236 27.2506C63.9145 27.479 64.0999 27.6195 64.2379 27.5644Z" fill="#263238"/>
<path d="M66.5251 24.5291C66.671 24.4962 66.8201 24.4666 66.9693 24.4781C67.1152 24.4896 67.2545 24.5389 67.3922 24.5882C67.6922 24.695 68.0004 24.8067 68.2331 25.0253C67.5365 24.8495 66.7857 24.8938 66.1169 25.1534C65.971 25.2093 65.8185 25.2783 65.6645 25.2487C65.5645 25.2307 65.4514 25.1403 65.4366 25.0335C65.4169 24.884 65.5432 24.8527 65.6595 24.8002C65.9349 24.6736 66.23 24.5948 66.5251 24.5291Z" fill="#263238"/>
<path d="M62.8559 25.8928C62.8822 25.827 62.9084 25.7613 62.951 25.7055C63.0412 25.5871 63.1887 25.5329 63.328 25.482C63.5067 25.4179 63.6887 25.3538 63.8788 25.362C63.8903 25.362 63.9034 25.362 63.9116 25.3719C63.9198 25.3785 63.9231 25.3883 63.9264 25.3982C63.9526 25.4836 63.9706 25.5724 63.9805 25.6611C63.9854 25.7055 63.987 25.7531 63.9641 25.7909C63.928 25.8468 63.8526 25.8583 63.787 25.8648C63.6133 25.8846 63.4428 25.924 63.2772 25.9799C63.0379 26.016 62.815 26.3331 62.7936 26.2329C62.7789 26.1606 62.8297 25.9618 62.8576 25.8928H62.8559Z" fill="#263238"/>
<path d="M65.7061 81.2249C65.8487 81.4106 66.0798 81.5618 66.3781 81.6472C66.9978 81.823 68.419 81.7704 69.5304 81.6012C68.2665 81.3449 66.9814 81.1247 65.7061 81.2249Z" fill="#AA3358"/>
<path d="M72.5255 79.0838C72.9075 78.9047 73.3353 78.8423 73.7271 78.6845C74.4401 78.3953 75.0024 77.7693 75.2319 77.0348C75.1286 76.6848 74.9352 76.3414 74.6582 76.0358C74.3565 75.8173 73.7058 74.6999 73.4287 74.4502C73.4287 76.0572 71.7928 76.9395 71.3633 76.9937C70.8174 77.0611 70.7502 76.652 70.2027 76.3792C69.9372 76.2018 69.5782 76.2609 69.3831 76.5156C69.3552 76.8278 69.2634 77.1301 69.111 77.4045C68.8372 77.9533 67.4701 79.3204 66.3095 79.8709C65.5112 80.2488 65.3916 80.8189 65.7047 81.2264C66.9816 81.1262 68.2652 81.3464 69.529 81.6027C69.5847 81.5945 69.6388 81.5863 69.6929 81.5764C69.8749 81.4844 70.0503 81.3825 70.2142 81.2593C71.0666 80.6234 71.56 79.5357 72.5239 79.0854L72.5255 79.0838Z" fill="#CE4D6F"/>
<path d="M75.2317 77.0348C75.0022 77.7693 74.4399 78.3954 73.7269 78.6845C73.3351 78.8439 72.9072 78.9047 72.5253 79.0838C71.5631 79.5357 71.068 80.6218 70.2156 81.2577C70.0517 81.3809 69.8763 81.4828 69.6943 81.5748C70.2254 81.4844 70.668 81.3678 70.8861 81.2363C71.5696 80.8255 72.2532 79.7296 72.7974 79.4585C74.8989 79.4026 75.5694 78.1867 75.23 77.0332L75.2317 77.0348Z" fill="#AA3358"/>
<path d="M92.63 78.0173C92.7316 77.8004 92.8349 77.5818 92.8873 77.3485C92.9348 77.1333 92.9381 76.9098 92.9398 76.6896C92.943 76.3955 92.9463 76.103 92.9496 75.8089C92.9119 75.7777 92.8726 75.7465 92.8283 75.7169C92.4283 75.5066 91.5677 74.9233 91.1301 74.8115C91.43 78.2013 89.5302 78.2933 89.5302 78.2933C89.3089 78.0896 89.0548 77.9252 88.7794 77.8069C88.2942 77.6032 87.5123 77.5818 87.5123 77.5818C87.5123 77.5818 87.5418 79.0639 86.0484 80.4786C85.3419 81.1474 84.3403 82.4635 84.9551 82.7379C84.9616 82.7412 84.9731 82.7429 84.9796 82.7462C86.4631 82.3058 88.0122 82.0955 89.5597 82.1234C89.8744 81.9246 90.2121 81.6617 90.5448 81.3676C90.7956 80.8106 91.2546 80.3439 91.6218 79.8411C92.0316 79.2792 92.3316 78.6466 92.63 78.0173Z" fill="#CE4D6F"/>
<path d="M84.9792 82.7462C85.6267 83.0075 87.9019 82.8678 89.0494 82.3946C89.2084 82.3289 89.3805 82.2352 89.5576 82.1218C88.0118 82.0955 86.461 82.3042 84.9775 82.7446L84.9792 82.7462Z" fill="#AA3358"/>
<path d="M92.9497 75.8088C92.9464 76.1029 92.9431 76.3954 92.9398 76.6895C92.9382 76.9097 92.9349 77.1331 92.8874 77.3484C92.8349 77.5817 92.7333 77.8002 92.63 78.0171C92.3317 78.6464 92.0317 79.279 91.6219 79.841C91.2547 80.3438 90.7957 80.8104 90.5449 81.3674C91.399 80.6133 92.2235 79.6553 92.5628 79.0589C93.0874 78.1338 93.9431 76.6353 92.9497 75.8071V75.8088Z" fill="#AA3358"/>
<path d="M68.9014 77.7347C69.0751 77.669 69.2571 77.6213 69.4423 77.6312C70.1062 77.7035 70.6783 78.0255 70.7717 78.1373" stroke="#AA3358" stroke-width="1.13" stroke-linecap="round" stroke-linejoin="round"/>
<path d="M68.4131 78.3493C69.0426 78.1225 69.795 78.2934 70.2654 78.7683" stroke="#AA3358" stroke-width="1.13" stroke-linecap="round" stroke-linejoin="round"/>
<path d="M87.127 78.9721C87.5023 78.7782 88.0597 78.8948 88.2793 79.023C88.499 79.1512 88.6777 79.345 88.8088 79.5636" stroke="#AA3358" stroke-width="1.13" stroke-linecap="round" stroke-linejoin="round"/>
<path d="M86.6826 79.6525C87.4039 79.4816 87.8645 79.7363 87.9514 79.784C88.1858 79.9138 88.4333 80.0551 88.5628 80.2917" stroke="#AA3358" stroke-width="1.13" stroke-linecap="round" stroke-linejoin="round"/>
<path d="M110.947 63.1784C109.939 63.4018 104.106 58.2605 104.275 57.7495C104.444 57.2385 107.308 57.4554 107.308 57.4554C107.308 57.4554 109.965 59.2563 109.927 59.3581C109.889 59.46 110.947 62.623 110.947 62.623V63.1784Z" fill="#BC461D"/>
<path d="M120.754 38.7598C121.239 38.911 123.193 36.4496 123.395 34.7407C123.595 33.0335 121.239 32.7065 121.239 32.7065C121.239 32.7065 120.287 35.2435 120.262 35.3438C120.237 35.444 120.362 38.2324 120.362 38.2324L120.754 38.7598Z" fill="#CE4D6F"/>
<path d="M96.6164 37.2534C96.6164 37.2534 94.7575 38.4513 93.4805 39.4864C92.2036 40.5216 87.8727 44.5883 87.0416 45.1667C86.2105 45.7451 83.5058 46.45 82.937 46.7096C82.3682 46.9692 81.9846 48.8966 81.8289 49.3189C81.6731 49.7411 81.4781 50.6531 82.0715 50.589C82.6649 50.5265 83.1419 49.4766 83.4173 49.2449C83.691 49.0149 84.3352 48.5482 84.3352 48.5482C84.3352 48.5482 86.758 48.0849 87.2268 47.7365C87.694 47.3898 94.0133 43.5121 95.9508 42.1056C97.8901 40.699 99.9932 39.0789 99.9932 39.0789L96.618 37.2551L96.6164 37.2534Z" fill="#DD9F83"/>
<path d="M84.2879 47.2568C84.2879 47.2568 82.9421 48.5976 82.2208 49.2762C81.4979 49.9532 82.688 49.922 83.0503 49.5851C83.4109 49.2467 84.3305 48.5483 84.3305 48.5483C84.3305 48.5483 85.3223 48.5483 85.814 48.4875C86.3058 48.4267 86.8844 47.3751 86.8844 47.3751" fill="#DD9F83"/>
<path d="M84.2876 47.2568C83.7843 47.8024 83.2073 48.3939 82.6828 48.9262L82.4123 49.2023C82.291 49.3337 82.132 49.4438 82.0812 49.6065C82.0762 49.6476 82.0812 49.6591 82.1123 49.6821C82.4041 49.8037 82.845 49.6739 83.0631 49.4405C83.4581 49.1004 83.8663 48.7915 84.2777 48.4793L84.3007 48.4629H84.3286C84.7646 48.4563 85.4236 48.476 85.8448 48.4202C86.3022 48.2641 86.6104 47.7629 86.8825 47.3735C86.6317 47.8155 86.3809 48.3314 85.8711 48.5303C85.3514 48.6157 84.8482 48.6223 84.3286 48.6321L84.3794 48.6141C83.9761 48.9295 83.5712 49.2483 83.1909 49.5851C82.9959 49.7872 82.7172 49.8809 82.4434 49.9039C82.0877 49.9483 81.7074 49.7511 82.0205 49.3666C82.1762 49.1826 82.4106 48.9854 82.5811 48.8194C83.127 48.3084 83.727 47.7481 84.2876 47.2568Z" fill="#C17759"/>
<path d="M116.198 64.8955C116.198 64.8955 116.901 67.7085 117.167 68.374C117.433 69.0394 125.099 75.5774 125.524 75.8288C125.948 76.0818 125.424 76.7375 125.007 77.4785C124.591 78.2195 122.626 79.3319 122.059 79.5916C121.491 79.8512 123.07 80.6777 124.378 80.8321C125.686 80.9866 127.468 79.999 128.045 79.8364C128.622 79.6737 130.851 79.1315 131.319 78.8817C131.786 78.632 130.615 76.9675 130.158 76.4203C129.701 75.8732 128.876 74.6671 128.538 74.304C128.201 73.9425 126.627 71.325 125.799 70.1206C124.973 68.9162 123.931 67.536 123.494 67.186C123.058 66.836 122.506 66.2971 122.506 66.2971L122.218 63.6401L116.198 64.8938V64.8955Z" fill="#DD9F83"/>
<mask id="mask4_2551_1650" style="mask-type:luminance" maskUnits="userSpaceOnUse" x="116" y="63" width="16" height="18">
<path d="M116.198 64.8955C116.198 64.8955 116.901 67.7085 117.167 68.374C117.433 69.0394 125.099 75.5774 125.524 75.8288C125.948 76.0818 125.424 76.7375 125.007 77.4785C124.591 78.2195 122.626 79.3319 122.059 79.5916C121.491 79.8512 123.07 80.6777 124.378 80.8321C125.686 80.9866 127.468 79.999 128.045 79.8364C128.622 79.6737 130.851 79.1315 131.319 78.8817C131.786 78.632 130.615 76.9675 130.158 76.4203C129.701 75.8732 128.876 74.6671 128.538 74.304C128.201 73.9425 126.627 71.325 125.799 70.1206C124.973 68.9162 123.931 67.536 123.494 67.186C123.058 66.836 122.506 66.2971 122.506 66.2971L122.218 63.6401L116.198 64.8938V64.8955Z" fill="white"/>
</mask>
<g mask="url(#mask4_2551_1650)">
<path d="M116.403 66.8474C116.741 66.974 118.746 66.8688 119.674 66.6585C120.708 66.4252 122.457 65.8484 122.642 65.3769C122.711 65.201 122.436 64.2842 122.436 64.2842L117.405 64.6424L115.971 65.3966L116.403 66.8474Z" fill="#C17759"/>
</g>
<path d="M130.163 76.4218C129.708 75.873 128.881 74.6686 128.544 74.3055C128.206 73.944 126.013 69.3745 124.275 67.5342C124.201 67.4323 124.051 67.4422 123.982 67.5473C122.777 69.3761 120.577 70.2667 119.166 70.4064C119.117 70.4113 119.095 70.4705 119.131 70.505C121.515 72.664 125.241 75.6676 125.528 75.8385C125.954 76.0817 125.428 76.7472 125.011 77.4882C124.595 78.2293 122.629 79.3417 122.062 79.6013C121.495 79.8609 123.074 80.6874 124.382 80.8418C125.69 80.9963 127.472 80.0088 128.049 79.8461C128.626 79.6834 130.855 79.1412 131.322 78.8914C131.789 78.6417 130.627 76.9674 130.162 76.4202L130.163 76.4218Z" fill="#FFBE69"/>
<path d="M131.324 78.8935C131.893 78.3233 130.885 76.9727 130.259 76.3335C130.133 76.1807 129.937 75.9884 129.77 75.7666C127.831 77.574 126.739 76.9036 126.739 76.9036C126.688 76.5405 126.511 76.2086 126.239 75.9638C125.803 75.6122 125.53 75.8405 125.53 75.8405C124.962 76.1642 125.43 76.7492 125.013 77.4902C124.597 78.2313 122.631 79.3437 122.064 79.6033C121.497 79.8629 121.681 81.1265 124.497 81.11C126.385 81.1002 127.474 80.0108 128.051 79.8481C128.628 79.6854 129.772 80.1948 131.324 78.8935Z" fill="#F48811"/>
<path d="M113.816 60.3277L114.327 65.8945C114.342 66.0589 114.488 66.1788 114.652 66.1624C115.473 66.0753 117.84 65.8321 119.764 65.7089C121.71 65.5824 123.497 64.5932 124.071 64.2465C124.185 64.1775 124.238 64.0395 124.2 63.9113L122.025 53.8833C121.969 53.6878 121.223 54.3023 121.058 54.419L113.752 59.5636C113.635 59.6458 113.594 59.7986 113.652 59.9284L113.789 60.2356C113.802 60.2652 113.811 60.2981 113.814 60.3309L113.816 60.3277Z" fill="#D35429"/>
<mask id="mask5_2551_1650" style="mask-type:luminance" maskUnits="userSpaceOnUse" x="113" y="53" width="12" height="14">
<path d="M113.816 60.3277L114.327 65.8945C114.342 66.0589 114.488 66.1788 114.652 66.1624C115.473 66.0753 117.84 65.8321 119.764 65.7089C121.71 65.5824 123.497 64.5932 124.071 64.2465C124.185 64.1775 124.238 64.0395 124.2 63.9113L122.025 53.8833C121.969 53.6878 121.223 54.3023 121.058 54.419L113.752 59.5636C113.635 59.6458 113.594 59.7986 113.652 59.9284L113.789 60.2356C113.802 60.2652 113.811 60.2981 113.814 60.3309L113.816 60.3277Z" fill="white"/>
</mask>
<g mask="url(#mask5_2551_1650)">
<g style="mix-blend-mode:multiply" opacity="0.4">
<path d="M122.025 54.9365C121.617 56.0916 115.827 60.7137 114.242 64.9776C114.248 65.0516 112.945 64.7328 112.945 64.7328L113.296 59.8347L117.484 56.6947L122.023 54.9365H122.025Z" fill="#929292"/>
</g>
</g>
<path d="M104.963 57.4536C104.963 57.4536 100.359 61.6419 100.172 62.7543C99.985 63.8667 99.9293 65.0711 100.414 65.8171C100.9 66.5631 105.714 78.9818 105.714 78.9818L105.154 80.2371C105.154 80.2371 103.427 80.8221 102.488 81.2263C101.547 81.6289 100.229 81.4695 100.228 82.3683C100.226 83.267 100.606 83.1241 103.039 83.5562C105.472 83.9884 108.088 83.4051 108.784 83.4281C109.483 83.4494 109.93 83.0058 109.934 82.1086C109.915 81.4793 109.815 80.8533 109.634 80.2503C109.547 79.7918 108.609 78.5874 108.609 78.5874L106.635 64.6423L110.429 61.1424L104.963 57.4553V57.4536Z" fill="#DD9F83"/>
<mask id="mask6_2551_1650" style="mask-type:luminance" maskUnits="userSpaceOnUse" x="100" y="57" width="11" height="27">
<path d="M104.963 57.4536C104.963 57.4536 100.359 61.6419 100.172 62.7543C99.985 63.8667 99.9293 65.0711 100.414 65.8171C100.9 66.5631 105.714 78.9818 105.714 78.9818L105.154 80.2371C105.154 80.2371 103.427 80.8221 102.488 81.2263C101.547 81.6289 100.229 81.4695 100.228 82.3683C100.226 83.267 100.606 83.1241 103.039 83.5562C105.472 83.9884 108.088 83.4051 108.784 83.4281C109.483 83.4494 109.93 83.0058 109.934 82.1086C109.915 81.4793 109.815 80.8533 109.634 80.2503C109.547 79.7918 108.609 78.5874 108.609 78.5874L106.635 64.6423L110.429 61.1424L104.963 57.4553V57.4536Z" fill="white"/>
</mask>
<g mask="url(#mask6_2551_1650)">
<path d="M104.508 57.674L104.395 57.8712C104.395 57.8712 108.181 60.7434 108.745 62.9287C109.309 65.1141 110.568 61.5534 110.568 61.5534L106.029 57.5508L104.506 57.674H104.508Z" fill="#C17759"/>
</g>
<path d="M109.615 80.2504C109.53 79.8019 109.105 78.9129 109.084 78.8702C109.084 78.8686 109.084 78.8702 109.084 78.8669C109.074 78.7421 108.296 69.4765 107.092 67.3618C107.084 67.347 107.065 67.3454 107.053 67.3585C106.565 67.8942 103.348 68.3904 101.419 67.9977C101.327 67.9796 101.25 68.0716 101.286 68.1604C102.814 71.887 105.588 78.6846 105.702 78.9639C105.706 78.9705 105.704 78.977 105.702 78.982L105.152 80.2176C105.152 80.2176 105.145 80.2291 105.138 80.2307C105.001 80.2784 103.381 80.8305 102.481 81.2166C101.54 81.6192 100.222 81.4598 100.221 82.3586C100.219 83.2574 100.599 83.1144 103.032 83.5465C105.465 83.9787 108.081 83.3954 108.778 83.4184C109.476 83.4397 109.923 82.9961 109.927 82.099C109.905 81.4713 109.8 80.8485 109.617 80.2472L109.615 80.2504Z" fill="#FFBE69"/>
<path d="M107.26 80.505C107.26 80.505 107.103 79.598 106.412 79.1034C105.722 78.6089 105.467 78.949 105.467 78.949L105.144 80.2372C105.144 80.2372 103.418 80.8222 102.478 81.2264C101.537 81.6289 100.219 81.4695 100.218 82.3683C100.216 83.2671 100.596 83.1242 103.029 83.5563C105.462 83.9884 108.078 83.4051 108.775 83.4281C109.473 83.4495 109.92 83.0059 109.924 82.1087C109.907 81.4827 109.919 80.344 109.74 79.7443C109.612 79.46 109.522 79.3877 109.309 79.8527C109.096 80.3177 108.24 81.2757 107.26 80.505Z" fill="#F48811"/>
<path d="M109.109 51.7259C109.109 51.7259 103.839 57.3914 104.275 57.748C108.333 58.6172 110.946 63.1768 110.946 63.1768C110.946 63.1768 117.231 57.9123 118.803 56.8443C120.377 55.7746 122.155 55.6826 122.016 54.4026C121.778 52.5442 120.81 50.8567 119.323 49.7197C117.484 48.3247 109.107 51.7259 109.107 51.7259H109.109Z" fill="#D35429"/>
<path d="M140.554 40.4538L139.059 40.6165C138.187 40.7118 137.15 39.8755 136.859 39.5288C136.569 39.1821 134.971 38.4065 134.079 38.3145C133.188 38.2225 128.396 37.6688 126.324 37.074C125.319 36.8127 124.329 36.5005 123.357 36.139C123.093 36.0421 120.754 35.4095 120.754 35.4095L122.559 31.1045L123.114 31.4758C123.114 31.4758 124.867 31.9178 125.647 32.1495C126.427 32.3812 128.352 33.2471 130.009 33.952C131.666 34.6569 135.955 36.7585 137.105 36.8949C138.44 36.6057 141.434 36.3576 141.793 37.2383C141.864 37.3894 141.936 37.7345 141.877 37.8561C141.818 37.9777 141.743 37.9941 141.754 38.0713C141.757 38.0976 141.779 38.119 141.797 38.1403C141.954 38.3277 141.912 38.6481 141.71 38.7861C141.877 38.8847 141.897 39.1624 141.746 39.2839C141.675 39.3398 141.479 39.4466 141.49 39.5091C141.515 39.6964 141.398 39.8541 141.084 40.0053C141.084 40.26 140.656 40.444 140.554 40.4538Z" fill="#DD9F83"/>
<path d="M138.088 39.0983C138.709 39.1443 139.317 39.261 139.927 39.3809C140.169 39.3777 141.414 39.6389 141.048 40.1516L141.032 40.1417C141.063 40.0891 141.078 40.0283 141.061 39.9708C140.994 39.795 140.786 39.7359 140.622 39.68C140.386 39.611 140.138 39.5748 139.892 39.5584C139.368 39.4516 138.532 39.2939 138.086 39.0967L138.088 39.0983Z" fill="#C17759"/>
<path d="M123.302 50.679C123.964 52.2005 123.059 54.7901 123.059 54.7901C123.059 54.7901 121.477 55.7612 119.722 55.1549C117.968 54.5469 115.017 52.0822 113.47 51.5515C111.921 51.0224 108.942 51.9294 108.942 51.9294L103.639 38.4805C103.639 38.4805 102.874 40.6888 101.548 41.397C100.913 41.6846 99.6953 39.9675 98.5658 38.7598C97.761 37.8988 96.484 37.4092 96.484 37.4092C96.3414 37.2974 96.3316 37.0855 96.4611 36.959L98.6396 34.841C98.6396 34.841 100.467 32.4535 101.439 31.3493C102.411 30.2468 104.51 29.4236 104.51 29.4236C104.51 29.4236 108.819 27.0624 110.199 26.9063C111.581 26.7502 113.648 26.6319 115.968 27.8774C117.868 28.8978 121.623 30.444 122.922 30.9714C123.174 31.0733 123.297 31.3592 123.197 31.6139C123.197 31.6139 120.425 36.116 120.756 38.7582C120.305 38.4723 118.633 37.4519 117.717 36.8932C118.043 38.8617 119.414 41.9327 119.661 42.7099C119.814 43.1962 120.589 44.8739 121.402 46.5959C122.176 48.2406 122.982 49.933 123.305 50.6774L123.302 50.679Z" fill="#E26683"/>
<mask id="mask7_2551_1650" style="mask-type:luminance" maskUnits="userSpaceOnUse" x="96" y="26" width="28" height="30">
<path d="M123.302 50.679C123.964 52.2005 123.059 54.7901 123.059 54.7901C123.059 54.7901 121.477 55.7612 119.722 55.1549C117.968 54.5469 115.017 52.0822 113.47 51.5515C111.921 51.0224 108.942 51.9294 108.942 51.9294L103.639 38.4805C103.639 38.4805 102.874 40.6888 101.548 41.397C100.913 41.6846 99.6953 39.9675 98.5658 38.7598C97.761 37.8988 96.484 37.4092 96.484 37.4092C96.3414 37.2974 96.3316 37.0855 96.4611 36.959L98.6396 34.841C98.6396 34.841 100.467 32.4535 101.439 31.3493C102.411 30.2468 104.51 29.4236 104.51 29.4236C104.51 29.4236 108.819 27.0624 110.199 26.9063C111.581 26.7502 113.648 26.6319 115.968 27.8774C117.868 28.8978 121.623 30.444 122.922 30.9714C123.174 31.0733 123.297 31.3592 123.197 31.6139C123.197 31.6139 120.425 36.116 120.756 38.7582C120.305 38.4723 118.633 37.4519 117.717 36.8932C118.043 38.8617 119.414 41.9327 119.661 42.7099C119.814 43.1962 120.589 44.8739 121.402 46.5959C122.176 48.2406 122.982 49.933 123.305 50.6774L123.302 50.679Z" fill="white"/>
</mask>
<g mask="url(#mask7_2551_1650)">
<g style="mix-blend-mode:multiply" opacity="0.6">
<path d="M103.638 38.4807C103.571 37.3502 103.204 36.4136 103.402 35.6479C102.576 38.4807 102.269 40.4311 100.769 41.6848C99.2695 42.9385 102.281 42.4833 102.281 42.4833C102.281 42.4833 103.705 40.7663 103.638 40.689C103.571 40.6118 103.638 38.4807 103.638 38.4807Z" fill="#929292"/>
</g>
<g style="mix-blend-mode:multiply" opacity="0.6">
<path d="M117.716 36.8949C117.716 36.8949 115.747 35.8598 114.911 34.9922C115.427 37.6294 116.255 42.5473 121.329 44.6094C126.404 46.6715 117.716 36.8949 117.716 36.8949Z" fill="#929292"/>
</g>
</g>
<path d="M100.754 20.4967C100.754 20.4967 100.055 22.7149 100.224 23.4428C100.393 24.1724 100.749 24.9414 100.383 25.8796C100.042 26.642 99.9667 27.3157 100.524 27.4291C100.972 27.4553 100.934 27.3978 101.093 27.3683C101.416 27.9105 102.158 30.1566 103.514 30.6315C104.573 30.9322 105.707 29.9545 105.707 29.9545C105.707 29.9545 106.847 32.0298 107.161 32.4537C107.476 32.8793 107.55 33.5102 107.942 32.9171C108.333 32.3239 109.478 29.0952 111.422 26.8934C110.991 26.7159 110.769 26.1704 110.532 25.7679C110.532 25.7679 111.94 23.4116 111.454 21.4481C110.969 19.4846 105.396 18.7172 103.619 19.1839C102.591 19.4418 101.619 19.8871 100.75 20.4951L100.754 20.4967Z" fill="#DD9F83"/>
<path d="M105.709 29.9527C106.517 29.6652 107.95 28.0796 107.95 28.0796C107.95 28.0796 107.412 30.002 106.399 31.1867C106.052 30.5706 106.283 31.0158 105.709 29.9527Z" fill="#C17759"/>
<path d="M102.866 25.2981C102.896 25.5791 102.794 25.8223 102.624 25.8403C102.453 25.8584 102.314 25.6432 102.284 25.354C102.255 25.0648 102.356 24.8315 102.527 24.8117C102.697 24.792 102.835 25.0188 102.866 25.2981Z" fill="#7A4130"/>
<path d="M103.586 16.2477C103.586 16.2477 102.45 16.734 101.708 16.6371C101.198 16.5697 100.767 16.1737 100.749 15.3735C99.1143 16.7012 99.0684 20.1304 100.713 20.9569C102.355 21.7833 104.363 21.6256 104.363 21.6256C104.363 21.6256 104.534 22.4652 105.304 22.8382C106.074 23.2112 106.188 23.0387 106.612 23.3361C107.037 23.6335 107.083 24.1445 107.107 24.4271C107.278 26.3019 108.561 25.3736 109.212 26.4498C109.863 27.5261 110.979 26.3019 110.979 26.3019C110.979 26.3019 112.481 23.1439 112.336 20.9569C112.192 18.7699 111.161 16.3413 108.351 15.7268C105.542 15.1123 104.539 15.7761 103.584 16.246L103.586 16.2477Z" fill="#662A1D"/>
<path d="M107.875 24.7276C108.045 24.5962 108.253 24.5222 108.461 24.468C108.568 24.4401 108.679 24.4171 108.789 24.4319C109.078 24.4746 109.255 24.7654 109.36 25.0382C109.438 25.2419 109.499 25.4588 109.473 25.6741C109.443 25.9173 109.304 26.1407 109.114 26.2935C108.924 26.4463 108.686 26.5351 108.443 26.5696C108.314 26.5876 108.171 26.5893 108.06 26.5203C107.973 26.4661 107.916 26.374 107.866 26.2837C107.594 25.7842 107.332 25.145 107.873 24.7293L107.875 24.7276Z" fill="#DD9F83"/>
<path d="M107.993 25.5409C108.001 25.3601 108.096 25.1482 108.278 25.0841C108.48 25.0463 108.704 25.0792 108.824 25.2714C108.909 25.4686 108.903 25.6543 108.816 25.8432C108.716 26.019 108.526 26.1045 108.353 26.0995C108.509 26.0289 108.637 25.9155 108.685 25.7808C108.721 25.6674 108.716 25.4653 108.662 25.3634C108.614 25.2648 108.444 25.2238 108.304 25.2271C108.163 25.2665 108.065 25.4127 107.991 25.5425L107.993 25.5409Z" fill="#C17759"/>
<path d="M109.947 15.3801C110.039 15.3423 110.112 15.4639 110.137 15.5609C110.244 15.9618 110.352 16.3643 110.458 16.7653C110.663 16.4432 111.048 16.2444 111.429 16.2641C111.514 16.269 111.604 16.2855 111.67 16.3413C111.771 16.4284 111.781 16.5878 111.73 16.7127C111.679 16.8376 111.579 16.9312 111.481 17.0232C111.386 17.1136 111.289 17.204 111.194 17.2943C111.143 17.342 111.091 17.3913 111.024 17.4094C110.902 17.4422 110.78 17.3666 110.683 17.2861C110.006 16.7324 109.739 16.2789 109.945 15.3818L109.947 15.3801Z" fill="#662A1D"/>
<g style="mix-blend-mode:multiply" opacity="0.6">
<path d="M112.663 49.6244C114.786 48.8767 117.128 48.6467 119.302 49.2333C118.73 49.3105 118.163 49.4305 117.608 49.5915C118.151 49.6786 118.7 49.7657 119.208 49.9793C119.717 50.1929 120.185 50.5429 120.433 51.0358C118.287 50.2635 115.958 50.1978 113.676 50.229C112.633 50.2438 111.714 50.3079 110.722 50.6316C110.255 50.7844 109.75 51.0292 109.388 51.5435C109.614 50.3802 112.138 49.8117 112.663 49.626V49.6244Z" fill="#929292"/>
</g>
<path d="M102.319 68.6191C102.595 69.347 102.85 70.0832 103.086 70.8259" stroke="#F48811" stroke-width="2" stroke-linecap="round" stroke-linejoin="round"/>
<path d="M103.668 68.5796C103.724 68.9082 103.82 69.2303 103.915 69.5507C104.045 69.9894 104.176 70.4265 104.306 70.8652" stroke="#F48811" stroke-width="2" stroke-linecap="round" stroke-linejoin="round"/>
<path d="M105.17 68.4663C105.265 69.3059 105.788 70.0289 106.073 70.8242" stroke="#F48811" stroke-width="2" stroke-linecap="round" stroke-linejoin="round"/>
<path d="M106.724 68.0488C107.04 68.8934 107.23 69.7856 107.284 70.6877" stroke="#F48811" stroke-width="2" stroke-linecap="round" stroke-linejoin="round"/>
<path d="M120.097 70.7285C120.621 71.1935 121.193 71.6043 121.805 71.9477" stroke="#F48811" stroke-width="2" stroke-linecap="round" stroke-linejoin="round"/>
<path d="M121.677 70.1357C122.164 70.5334 122.619 70.9688 123.037 71.4355" stroke="#F48811" stroke-width="2" stroke-linecap="round" stroke-linejoin="round"/>
<path d="M123.239 69.186C123.3 69.3224 123.42 69.4177 123.529 69.5147C123.892 69.8351 124.19 70.2327 124.401 70.6763" stroke="#F48811" stroke-width="2" stroke-linecap="round" stroke-linejoin="round"/>
<path d="M124.256 68.2051C124.725 68.6553 125.079 69.2287 125.274 69.8531" stroke="#F48811" stroke-width="2" stroke-linecap="round" stroke-linejoin="round"/>
<path d="M102.359 23.4772C102.693 23.4493 103.041 23.423 103.352 23.5495C103.565 23.6366 103.744 23.7911 103.918 23.9422C103.945 23.9669 103.975 23.9932 103.988 24.0277C104.001 24.0622 103.991 24.1098 103.957 24.1246C103.929 24.1378 103.896 24.1246 103.867 24.1115C103.632 24.0063 103.391 23.9044 103.137 23.8699C102.691 23.8075 102.242 23.9504 101.792 23.9488C101.554 23.9488 101.467 23.7319 101.639 23.584C101.78 23.4624 102.187 23.4904 102.359 23.4756V23.4772Z" fill="#662A1D"/>
<path d="M102.97 28.0732C103.211 28.0272 103.459 28.0272 103.705 28.0288C103.659 28.5004 103.887 28.9637 103.857 29.4353C103.616 29.501 103.362 29.3975 103.144 29.2759C102.887 29.1346 102.456 28.8652 102.387 28.5513C102.315 28.2243 102.703 28.1241 102.97 28.0732Z" fill="#C17759"/>
<path d="M98.4951 18.4873C99.0541 19.948 100.118 21.5386 101.867 21.4038C102.395 21.3891 102.921 21.2823 103.444 21.159L103.511 21.4811C102.452 21.67 101.226 21.8311 100.274 21.1902C99.3623 20.5478 98.8443 19.5143 98.4951 18.4889V18.4873Z" fill="#662A1D"/>
<path d="M104.58 21.0425C104.583 21.3612 104.554 21.8279 104.606 22.1352C104.67 22.4851 104.836 22.8253 105.085 23.1013C104.798 22.8663 104.573 22.5443 104.447 22.1779C104.342 21.8608 104.304 21.3958 104.252 21.0622L104.58 21.0425Z" fill="#662A1D"/>
<path d="M105.25 21.8672C105.27 22.3503 105.64 22.7495 105.924 23.134C106.253 23.5448 106.406 24.0608 106.517 24.5668C106.432 24.3237 106.345 24.0805 106.232 23.8537C106.009 23.3756 105.598 23.0732 105.275 22.6592C105.112 22.4472 104.968 22.1958 104.924 21.8984L105.25 21.8672Z" fill="#662A1D"/>
<path d="M102.181 14.8789C101.549 15.3636 101.58 17.2121 102.401 17.498L102.267 17.7971C101.717 17.5128 101.552 16.8671 101.593 16.3117C101.632 15.8007 101.719 15.1812 102.181 14.8789Z" fill="#662A1D"/>
<path d="M54.0344 71.231C53.9607 71.1308 53.8967 71.0503 53.8525 70.9977C53.8967 71.0486 53.9607 71.1308 54.0344 71.231C54.2279 71.1012 55.6163 70.14 55.5737 69.1902C55.5311 68.2619 55.9163 67.0197 56.2015 66.2803C53.7328 67.0985 51.9952 69.3151 51.751 71.8735L54.0098 71.2458C54.0098 71.2458 54.0197 71.2392 54.0344 71.2294V71.231Z" fill="white"/>
<path d="M55.5734 69.1889C55.616 70.1386 54.2276 71.1015 54.0342 71.2297C54.4751 71.8261 55.3324 73.1521 55.398 73.5218C56.075 73.2688 57.3454 72.932 57.906 72.8054C57.8241 72.3881 58.265 70.3868 58.265 70.3868C58.265 70.3868 58.3962 70.0121 59.1043 69.9037C59.8125 69.7952 62.1763 69.3039 62.5303 69.534C62.8696 69.7542 63.8499 71.7259 63.9253 71.9494C64.1073 71.882 64.3777 71.8228 64.7695 71.7801C64.758 71.6733 64.7433 71.5682 64.7269 71.4614C64.1532 67.8843 60.7944 65.4525 57.2274 66.0276C56.875 66.0851 56.5324 66.1705 56.2045 66.279C55.9193 67.0184 55.5341 68.2589 55.5767 69.1889H55.5734Z" fill="#FFF8EE"/>
<path d="M63.1044 74.6538C63.0552 74.7606 63.0093 74.8329 62.9732 74.8576C62.747 75.0087 61.1406 75.3488 60.4849 75.2486C60.3537 76.0965 60.0702 77.7938 60.0062 77.9515C59.9243 78.1537 56.8327 78.6318 55.8803 78.1734C55.2 77.8464 54.7721 76.6568 54.5836 76.0028C54.4197 76.1523 53.8689 76.5467 53.3936 76.8802C54.8295 78.4856 57.0245 79.3498 59.3063 78.9818C61.1799 78.6795 62.7372 77.6081 63.7125 76.1408C63.4863 75.9699 63.1978 75.0432 63.1077 74.6554L63.1044 74.6538Z" fill="#FFEACB"/>
<path d="M64.7681 71.7817C64.378 71.8261 64.1059 71.8836 63.9239 71.951C63.7354 72.02 63.6403 72.1005 63.6076 72.181C63.5338 72.3568 63.0633 74.322 63.0764 74.5044C63.0781 74.5323 63.0896 74.5849 63.1043 74.6539C63.1945 75.0417 63.4846 75.9701 63.7092 76.1393C64.537 74.8955 64.9452 73.3673 64.7681 71.7817Z" fill="#FFEACB"/>
<path d="M62.5309 69.5353C62.1768 69.3036 59.8147 69.7966 59.1049 69.905C58.3968 70.0135 58.2656 70.3881 58.2656 70.3881C58.2656 70.3881 57.8247 72.3894 57.9066 72.8068C58.0476 72.7756 58.1443 72.7575 58.1755 72.7575C58.3673 72.7575 60.5688 74.583 60.5524 74.7851C60.5491 74.8311 60.5229 75.0053 60.4852 75.2501C61.1408 75.3503 62.7473 75.0102 62.9735 74.859C63.0096 74.8344 63.0555 74.7604 63.1047 74.6553C63.0883 74.5863 63.0784 74.5337 63.0768 74.5058C63.0637 74.3234 63.5341 72.3582 63.6079 72.1824C63.6423 72.1019 63.7374 72.023 63.9243 71.9524C63.8505 71.7289 62.8686 69.7571 62.5293 69.537L62.5309 69.5353Z" fill="white"/>
<path d="M55.3981 73.5231C55.3309 73.1534 54.4753 71.8291 54.0343 71.231C54.0196 71.2408 54.0097 71.2474 54.0097 71.2474L51.7508 71.8751C51.6984 72.4206 51.7131 72.9809 51.8049 73.5478C52.0115 74.8376 52.5819 75.9763 53.3917 76.88C53.8671 76.5481 54.4195 76.1537 54.5818 76.0026C54.6048 75.9812 54.6211 75.9648 54.6277 75.9533C54.7129 75.8054 55.2998 73.8386 55.3981 73.597C55.4047 73.5806 55.4031 73.5543 55.3981 73.5231Z" fill="#FFEACB"/>
<path d="M58.1733 72.756C58.1438 72.756 58.0471 72.7741 57.9044 72.8053C57.3438 72.9302 56.0734 73.2687 55.3964 73.5217C55.4013 73.5529 55.403 73.5792 55.3964 73.5957C55.2981 73.8372 54.7112 75.804 54.626 75.9519C54.6194 75.9618 54.603 75.9798 54.5801 76.0012C54.7702 76.6568 55.1964 77.8448 55.8767 78.1718C56.8291 78.6302 59.9207 78.152 60.0027 77.9499C60.0666 77.7922 60.3502 76.0949 60.4813 75.247C60.519 75.0022 60.5453 74.828 60.5485 74.782C60.5649 74.5799 58.3634 72.7544 58.1716 72.7544L58.1733 72.756Z" fill="#FFF8EE"/>
<path d="M63.2435 68.2507L62.3665 69.2875C62.214 69.4682 62.1944 69.7278 62.3189 69.9299L63.5598 71.9444C63.6713 72.1251 63.8861 72.2155 64.0942 72.1679L64.7876 72.0052C64.6844 70.6217 64.1451 69.3056 63.2468 68.249L63.2435 68.2507Z" fill="#F48811"/>
<path d="M55.3295 69.2513L53.8509 70.9979C53.6935 71.1836 53.6738 71.4482 53.8017 71.6552L55.0016 73.6023C55.1295 73.8093 55.3737 73.9095 55.6098 73.852L57.8326 73.3114C58.0686 73.2539 58.2407 73.0502 58.2588 72.8087L58.4309 70.5247C58.4489 70.2815 58.3096 70.0564 58.085 69.9644L55.9704 69.0952C55.7458 69.0032 55.4885 69.0656 55.3311 69.2513H55.3295Z" fill="#F48811"/>
<path d="M54.4541 75.367L52.4395 75.4771C53.1312 76.831 54.2672 77.904 55.6573 78.5136L55.8884 78.3246C55.9507 78.2737 55.9736 78.1882 55.9441 78.1127L55.0294 75.7416C54.9376 75.505 54.7049 75.3539 54.4524 75.367H54.4541Z" fill="#F48811"/>
<path d="M63.9285 75.7892L63.3285 74.7277C63.2351 74.5634 63.0465 74.4763 62.8613 74.5141L60.5336 74.9873C60.2959 75.035 60.1172 75.2322 60.0894 75.4737L59.8254 77.7971C59.8009 78.0173 59.9205 78.2276 60.1205 78.3196L60.7205 78.594C62.0696 78.0419 63.1974 77.056 63.9268 75.7908L63.9285 75.7892Z" fill="#F48811"/>
<path d="M58.8818 65.9715C58.6802 65.9518 58.477 65.9419 58.2737 65.9419C57.377 65.9403 56.4902 66.1243 55.6689 66.4808L55.7935 66.683C55.8361 66.752 55.9197 66.7865 55.9984 66.7668L58.8753 66.0701L58.8818 65.9698V65.9715Z" fill="#F48811"/>
<path d="M27.461 24.7256C27.2741 25.5192 26.6037 26.1387 25.8447 26.2751C26.5906 26.0762 27.1659 25.4141 27.2709 24.6895L27.461 24.7256Z" fill="#EAA600"/>
<path d="M27.5511 25.1499C27.3495 26.098 26.5955 26.7536 25.8037 27.2137C26.1578 26.9327 26.5151 26.6468 26.7807 26.2919C27.0446 25.9386 27.2118 25.5213 27.2675 25.0957L27.5528 25.1499H27.5511Z" fill="#EAA600"/>
<path d="M26.4342 15.153C25.949 13.3242 24.0114 12.4796 22.3066 12.1362C24.059 12.4188 26.0654 13.2404 26.6211 15.1021L26.4342 15.153Z" fill="#EAA600"/>
<path d="M25.4903 14.7833C22.5233 13.1895 21.2316 14.2411 18.3285 14.9329C17.5105 15.1005 16.6729 15.158 15.8418 15.107C16.6729 15.1416 17.5089 15.0676 18.3187 14.8852C19.9366 14.527 21.4775 13.6414 23.1888 13.8336C24.0314 13.9289 24.8297 14.2428 25.5788 14.6108L25.492 14.7833H25.4903Z" fill="#EAA600"/>
<path d="M25.0266 17.8066C25.2692 19.4251 24.2119 20.8152 23.2267 21.9621C22.5202 22.8346 21.6366 23.7202 21.5235 24.8901C21.4989 25.2697 21.5793 25.6657 21.8022 25.9812C21.5727 25.6706 21.4826 25.273 21.4989 24.8885C21.5858 23.7087 22.4628 22.7886 23.1513 21.9013C24.0857 20.7675 25.0987 19.3824 24.8348 17.8411L25.0249 17.8083L25.0266 17.8066Z" fill="#EAA600"/>
<path d="M24.3002 14.4661C23.2527 14.5384 22.2118 14.9722 21.3676 15.5703C20.5775 16.1323 20.0906 17.0245 19.4087 17.6982C18.5038 18.592 17.258 19.1277 15.9893 19.1688C16.4302 19.2739 17.84 19.3643 18.2907 19.3249C17.2269 20.5325 17.1138 21.6745 17.5547 22.7705C17.7334 23.2141 17.9957 23.6183 18.2809 24.0012C18.8399 24.7521 19.5071 25.4488 20.3431 25.8694C19.9726 25.3354 19.9955 24.5976 20.266 24.0061C20.5365 23.4146 21.0217 22.9496 21.5364 22.5519C22.0511 22.1543 22.6068 21.8109 23.0921 21.3788C23.397 21.1076 23.6707 20.8037 23.9313 20.4915C24.2789 20.0758 24.6083 19.642 24.8755 19.172C25.4558 18.1484 25.7378 16.962 26.441 16.009C26.5738 15.8283 26.9131 15.5851 26.8934 15.3403C26.8705 15.0527 26.4099 14.8851 26.1886 14.7849C25.5853 14.5138 24.9395 14.4234 24.2985 14.4678L24.3002 14.4661Z" fill="#EAA600"/>
<path d="M5.63055 46.4399C5.63055 46.4399 10.8925 38.1651 11.4433 37.5029C11.9941 36.8407 15.9905 35.2601 16.456 34.1329C16.9216 33.0041 19.2018 37.7247 19.2018 37.7247C19.2018 37.7247 16.3265 39.3498 15.2791 40.3981C14.2316 41.4481 8.31233 47.2647 8.20086 47.1004L5.62891 46.4399H5.63055Z" fill="#FFCCB6"/>
<path d="M8.32053 46.8586L6.33214 45.3584L5.63055 46.4396C5.63055 46.4396 3.72904 47.1363 3.26514 47.5553C2.80123 47.9742 -0.0756228 50.4849 0.11125 50.7166C0.296483 50.9483 0.558761 50.9959 1.2079 50.4389C1.85703 49.8803 2.24553 49.8326 2.24553 49.8326C2.24553 49.8326 0.714488 51.4133 0.899721 51.7386C1.08495 52.064 1.36362 51.7846 1.50296 51.7386C1.6341 51.6943 2.73894 50.6936 2.85533 50.5868C2.75697 50.738 2.02587 52.3137 2.19799 52.529C2.38323 52.7607 2.47666 52.6226 2.616 52.529C2.75533 52.4353 3.84051 50.7396 4.21261 50.4143C4.58308 50.0889 4.59783 50.25 4.59783 50.25C4.59783 50.25 3.89788 52.6769 4.21261 52.759C4.81257 52.9168 5.44696 50.9483 5.63219 50.5753C5.71415 50.4094 6.11904 50.1333 6.56328 49.808C6.54524 50.314 6.65343 50.8234 6.88129 51.2753C6.99439 51.502 7.20913 51.7436 7.45338 51.6762C7.68943 51.6105 7.755 51.3098 7.77631 51.065C7.87302 49.9674 7.96974 48.8714 8.06481 47.7738C8.2107 47.2611 8.32381 46.8553 8.32381 46.8553L8.32053 46.8586Z" fill="#FFCCB6"/>
<path d="M33.5792 56.3774C33.4874 56.453 36.361 62.6903 35.6004 65.8369C35.1414 67.738 25.4994 76.9805 25.4994 76.9805L23.7012 75.8632C23.7012 75.8632 26.1141 70.9388 27.296 68.5267C28.4779 66.1146 30.1253 64.7261 30.1253 64.7261L27.1714 59.2381L33.5792 56.3791V56.3774Z" fill="#FFCCB6"/>
<path d="M22.875 76.1789C22.8717 75.9833 25.9699 69.0428 27.5501 67.4588C28.1533 66.7654 28.7336 66.0967 28.9402 65.8601C28.9795 65.8157 29.05 65.819 29.0828 65.8699C29.4123 66.3711 31.0531 68.614 33.3546 68.8358C33.4202 68.8423 33.4497 68.9179 33.4054 68.9672L25.2929 77.7136C25.2929 77.7136 22.9111 78.31 22.875 76.1822V76.1789Z" fill="#F98FA3"/>
<path d="M31.1071 65.766C31.0956 65.789 30.7694 65.6116 30.4875 65.2616C30.2039 64.9116 30.099 64.5567 30.1236 64.5501C30.1514 64.5386 30.2924 64.8639 30.5662 65.1991C30.835 65.536 31.1251 65.743 31.1071 65.7677V65.766Z" fill="#FF9A6C"/>
<path d="M29.9502 82.2976C29.9502 82.2976 28.3388 82.3288 27.0831 81.8687C25.8275 81.4086 24.0538 80.8171 23.3998 80.4671C22.7457 80.1188 21.3294 79.7113 21.3802 78.9587C21.8802 76.3363 22.8834 75.6758 22.8834 75.6758C22.8834 75.6758 22.8769 76.522 23.5899 76.6879C24.3046 76.8539 25.7767 76.8588 25.7767 76.8588C25.7767 76.8588 26.6225 76.0948 27.0389 76.1704C27.4552 76.2459 27.0061 77.3633 27.0061 77.3633C27.0061 77.3633 27.6192 79.0228 28.2191 79.5075C28.8174 79.9939 28.7863 80.2092 29.5748 80.4458C30.3632 80.6824 30.6632 81.0784 30.6632 81.0784C30.6632 81.0784 30.8501 81.8293 30.6009 82.0117C30.3518 82.1957 29.9502 82.2959 29.9502 82.2959V82.2976Z" fill="#F46E4A"/>
<path d="M30.614 82.0035C30.378 82.2221 29.9502 82.3108 29.9502 82.3108C29.9502 82.3108 28.3388 82.342 27.0831 81.8819C25.8275 81.4219 24.0538 80.8303 23.3998 80.4804C22.7457 80.132 21.3294 79.7245 21.3802 78.972C21.3917 78.7649 21.4048 78.5086 21.5212 78.3213C21.5212 78.3213 22.213 79.2546 23.7965 79.851C24.7948 80.1057 26.7209 81.0045 27.8454 81.3019C28.9699 81.5993 30.3075 81.6716 30.3075 81.6716L30.7304 81.573C30.7304 81.7488 30.755 81.877 30.614 82.0035Z" fill="#D35429"/>
<path d="M26.2031 77.9956C26.3343 78.0153 26.4703 77.9874 26.5933 77.9348C26.7162 77.8822 26.826 77.8066 26.9326 77.7261C26.9998 77.6752 27.0686 77.6144 27.0801 77.5322" stroke="#D35429" stroke-width="1.13" stroke-linecap="round" stroke-linejoin="round"/>
<path d="M26.6553 78.6955C26.8012 78.6627 26.9471 78.6183 27.0766 78.5411C27.2061 78.4638 27.3159 78.3488 27.3651 78.2075" stroke="#D35429" stroke-width="1.13" stroke-linecap="round" stroke-linejoin="round"/>
<path d="M27.2109 79.343C27.288 79.3151 27.3601 79.2773 27.4273 79.2296C27.5667 79.131 27.6765 78.993 27.7437 78.8369" stroke="#D35429" stroke-width="1.13" stroke-linecap="round" stroke-linejoin="round"/>
<path d="M27.8223 79.9558L27.9272 79.849C28.0468 79.729 28.1714 79.5976 28.2009 79.4316" stroke="#D35429" stroke-width="1.13" stroke-linecap="round" stroke-linejoin="round"/>
<path d="M26.8345 77.5537C26.8181 77.4748 26.8804 77.4042 26.9361 77.3467C27.1263 77.1577 27.3214 76.9687 27.5476 76.8242C27.7738 76.6779 28.0328 76.576 28.3016 76.5728C28.4147 76.5728 28.559 76.6188 28.5655 76.7321C28.5705 76.8389 28.4508 76.9014 28.3508 76.9375C27.8213 77.1232 27.2919 77.3105 26.7607 77.4962" stroke="#D35429" stroke-width="1.13" stroke-linecap="round" stroke-linejoin="round"/>
<path d="M26.8574 77.5242C27.2426 77.281 27.7163 77.2399 28.1704 77.212C28.5097 77.1906 28.8589 77.1758 29.1769 77.2925C29.2342 77.3138 29.2933 77.3401 29.3293 77.3894C29.4211 77.511 29.3228 77.6983 29.1818 77.7542C29.0408 77.8101 28.8818 77.7739 28.7343 77.7394C28.2737 77.631 27.8065 77.5422 27.336 77.5061C27.1573 77.4929 26.9573 77.4929 26.8213 77.6129" stroke="#D35429" stroke-width="1.13" stroke-linecap="round" stroke-linejoin="round"/>
<path d="M15.4704 61.1788C15.4704 61.1788 19.7422 65.1765 24.7386 62.8039C24.7386 62.8039 21.229 60.9159 21.1405 60.8715C21.052 60.8272 15.4688 61.1788 15.4688 61.1788H15.4704Z" fill="#CE4D6F"/>
<path d="M23.3833 60.9733C23.098 61.366 19.7409 68.2589 19.3803 68.9227C19.0196 69.5866 12.6184 78.8127 12.6184 78.8127L10.6562 78.7207C10.6562 78.7207 11.3136 74.3762 12.0365 71.9461C12.7627 69.5044 13.2659 68.949 13.8708 68.2277C14.8888 67.0151 15.0838 66.4383 15.0838 66.4383C15.0838 66.4383 16.7214 60.9782 16.6509 60.6168C16.5804 60.2569 16.9673 58.7781 19.7343 59.3811C22.5014 59.9842 23.3833 60.9733 23.3833 60.9733Z" fill="#FFCCB6"/>
<path d="M14.2358 67.7858C14.4407 68.1588 15.8423 70.4904 18.4487 70.2456C18.5274 70.2374 18.5815 70.3244 18.5356 70.3902L12.5933 78.9213L11.0934 79.6935C11.0934 79.6935 10.4541 78.821 10.5722 78.3264C10.977 76.6357 11.7114 72.5772 12.036 71.4927C12.4556 70.0895 13.1097 68.9245 13.6228 68.3954C13.9768 68.029 14.1129 67.8499 14.1736 67.7793C14.1916 67.7579 14.2244 67.7628 14.2375 67.7858H14.2358Z" fill="#F98FA3"/>
<path d="M10.6512 78.0043C10.0627 78.7026 9.69061 79.5554 9.73159 80.5412C9.74962 80.98 9.79224 81.4515 10.0152 81.7917C10.1922 82.0611 10.4692 82.2222 10.6004 82.5327C10.7479 82.881 11.5364 84.2843 11.9134 84.4634C12.2904 84.6441 12.4576 84.9711 12.8543 84.9793C13.4297 84.9925 13.9067 84.8594 14.3395 84.3894C14.669 84.0312 14.8542 83.5465 14.8231 82.9796C14.7919 82.4144 14.5903 81.8705 14.31 81.4236C14.069 81.0407 13.7674 80.7154 13.5822 80.2833C13.3756 79.8002 13.333 79.0871 13.2051 78.4364C13.2051 78.4364 12.9297 78.0733 12.1363 78.0996C11.6561 78.116 11.0872 78.3033 11.3528 78.9852C11.1921 79.0986 10.7725 78.7765 10.7168 78.6352C10.5758 78.2787 10.6528 78.001 10.6528 78.001L10.6512 78.0043Z" fill="#F46E4A"/>
<path d="M13.7642 84.3632C13.338 84.4963 12.9331 84.5193 12.5118 84.4635C11.5201 84.3008 11.0545 82.5821 10.9513 82.2913C10.8267 81.9396 10.5431 81.7342 10.3267 81.4648C10.0399 81.1049 9.75627 80.5331 9.74644 80.0254C9.52186 80.4953 9.51203 81.2101 9.77758 81.6915C9.98905 82.0727 10.348 82.2978 10.5316 82.7004C10.6923 83.052 11.2349 84.4799 11.8479 84.8184C12.9888 85.4148 13.779 84.9498 14.0937 84.7329C14.3953 84.5243 14.6543 84.1907 14.7658 83.7717C14.769 83.7569 14.7527 83.7438 14.7412 83.7536C14.6035 83.867 14.3887 84.1693 13.7675 84.3616L13.7642 84.3632Z" fill="#D35429"/>
<path d="M11.6299 80.2916C11.9954 80.0402 12.4692 80.0287 12.9134 80.0254C13.1314 80.0254 13.3658 80.0287 13.5396 80.1618" stroke="#D35429" stroke-width="1.13" stroke-linecap="round" stroke-linejoin="round"/>
<path d="M12.0215 80.9979C12.1674 80.8582 12.3428 80.7498 12.5346 80.6857C12.7001 80.6298 12.8755 80.6085 13.0476 80.5871C13.2362 80.5641 13.4411 80.5444 13.6001 80.6495" stroke="#D35429" stroke-width="1.13" stroke-linecap="round" stroke-linejoin="round"/>
<path d="M12.2842 81.5684C12.4891 81.4041 12.7202 81.2661 12.9727 81.1905C13.2251 81.1149 13.5005 81.1067 13.7497 81.1954" stroke="#D35429" stroke-width="1.13" stroke-linecap="round" stroke-linejoin="round"/>
<path d="M12.5693 82.1993L13.0595 81.9068C13.1578 81.8493 13.2562 81.7902 13.3611 81.7524C13.5725 81.6768 13.8119 81.6916 14.0151 81.7918" stroke="#D35429" stroke-width="1.13" stroke-linecap="round" stroke-linejoin="round"/>
<path d="M12.0674 79.5223C11.9576 79.6143 11.8445 79.7063 11.733 79.7934C11.6543 79.8575 11.574 79.9199 11.4969 79.984C11.3969 80.0662 11.2953 80.15 11.1871 80.1943C11.1248 80.2206 11.056 80.2337 10.9871 80.2337C10.974 80.2337 10.9593 80.2337 10.9462 80.2321C10.9085 80.2288 10.897 80.2239 10.8953 80.2239C10.8904 80.2173 10.8839 80.1861 10.8953 80.1565C10.9167 80.0974 10.9789 80.0382 11.0347 79.9873C11.1855 79.8525 11.3478 79.731 11.5182 79.6242C11.5674 79.5929 11.6215 79.5601 11.6723 79.5453C11.7232 79.5305 11.7822 79.5272 11.8559 79.5272H11.8789C11.9002 79.5272 11.9281 79.5272 11.9576 79.5272C11.992 79.5272 12.0297 79.5256 12.0707 79.5256M12.0707 79.3366C11.9953 79.3366 11.9231 79.3399 11.8756 79.3399C11.8756 79.3399 11.8723 79.3399 11.8707 79.3399C11.8641 79.3399 11.8576 79.3399 11.8527 79.3399C11.7723 79.3399 11.692 79.3432 11.6166 79.3662C11.5445 79.3875 11.4805 79.4253 11.4166 79.4648C11.2363 79.5781 11.0675 79.7063 10.9085 79.8476C10.8298 79.9166 10.7527 79.9939 10.7183 80.0924C10.6822 80.191 10.7019 80.3159 10.7888 80.3751C10.8298 80.403 10.8806 80.4128 10.9298 80.4161C10.9478 80.4161 10.9675 80.4178 10.9855 80.4178C11.0773 80.4178 11.1691 80.3997 11.2543 80.3652C11.3871 80.311 11.5019 80.219 11.6133 80.1269C11.8461 79.9363 12.0887 79.7523 12.3133 79.5519C12.528 79.3596 12.2838 79.335 12.069 79.335L12.0707 79.3366Z" fill="#D35429"/>
<path d="M14.1759 78.9407C14.3693 78.9407 14.7004 78.972 14.8561 79.1691C14.8529 79.1691 14.8496 79.1691 14.8447 79.1691L13.089 79.1494C13.4251 79.0081 13.8136 78.9473 14.1414 78.9407H14.1759ZM14.1759 78.7551C14.1627 78.7551 14.1496 78.7551 14.1382 78.7551C13.5431 78.7666 12.7776 78.949 12.376 79.4271C12.3842 79.4271 12.3924 79.4287 12.4022 79.4287C12.4907 79.4287 12.6022 79.3647 12.6923 79.3515C12.7841 79.3367 12.8792 79.3334 12.9727 79.3334C13.0038 79.3334 13.0349 79.3334 13.0645 79.3334C13.6579 79.34 14.2496 79.3466 14.843 79.3532C14.8447 79.3532 14.8463 79.3532 14.8479 79.3532C14.9479 79.3532 15.0758 79.3252 15.0824 79.2266C15.084 79.1954 15.0725 79.1658 15.0578 79.1379C14.8988 78.8389 14.5168 78.7534 14.1759 78.7534V78.7551Z" fill="#D35429"/>
<path d="M31.2614 48.4888L21.8063 48.87C21.8063 48.87 17.6837 48.0731 17.3181 48.7254C16.8427 49.5765 16.7182 50.8122 16.5231 52.2121C16.4116 53.014 15.4707 61.1803 15.4707 61.1803C20.0212 61.2213 23.4112 62.2976 24.7389 62.8053L25.5684 59.0623L26.6486 62.664C28.8042 62.9893 35.2382 59.7442 35.4562 59.2381C35.6726 58.732 31.2614 48.4888 31.2614 48.4888Z" fill="#E26683"/>
<path d="M28.0078 51.374C28.0258 51.3953 27.2095 52.1643 26.1817 53.0943C25.1539 54.0243 24.3064 54.7605 24.2884 54.7391C24.2703 54.7177 25.0867 53.9488 26.1145 53.0188C27.1423 52.0904 27.9898 51.3526 28.0078 51.374Z" fill="#455A64"/>
<path d="M27.5915 54.1673C27.6013 54.1936 27.0784 54.399 26.426 54.6274C25.7735 54.8541 25.2359 55.0185 25.2277 54.9922C25.2178 54.9659 25.7408 54.7605 26.3932 54.5321C27.0456 54.3053 27.5833 54.141 27.5915 54.1673Z" fill="#455A64"/>
<path d="M36.7741 51.6845L38.9936 50.9927L37.8019 45.0676L37.3888 41.3887L33.4268 41.249C33.4268 41.249 34.0251 46.1488 34.2677 47.1659C34.5087 48.1846 36.7757 51.6828 36.7757 51.6828L36.7741 51.6845Z" fill="#FFCCB6"/>
<path d="M39.464 51.7914C39.464 51.7914 39.9509 53.5627 40.1066 54.4171C40.1492 54.6488 40.0902 54.8871 39.946 55.0711C39.5952 55.5279 38.9149 56.3971 38.8493 56.4069L37.2576 56.54L36.415 55.5213C36.4314 55.3323 36.5986 55.191 36.7871 55.2075C36.815 55.2091 36.8429 55.2157 36.8691 55.2255C37.1871 55.288 37.5133 55.2978 37.8346 55.2535L38.3559 54.5568L37.7756 53.1897L36.5724 51.3921L38.6821 49.4565L39.4624 51.7914H39.464Z" fill="#FFCCB6"/>
<path d="M39.0664 53.4165C39.1139 53.4559 39.1533 53.5052 39.1844 53.5595C39.2779 53.7008 39.3467 53.8585 39.3893 54.0228C39.4549 54.2693 39.468 54.5256 39.4287 54.7754C39.3811 55.0859 39.2516 55.3767 39.0517 55.6199C38.8451 55.8565 38.5779 56.034 38.2796 56.1293C38.0386 56.2098 37.7845 56.2394 37.5321 56.2164C37.3632 56.2016 37.1977 56.1589 37.042 56.0899C36.9338 56.0389 36.8797 56.0011 36.883 55.9946C37.0928 56.0751 37.3141 56.1244 37.5386 56.1441C37.7796 56.1572 38.0222 56.1227 38.2501 56.0422C38.8238 55.8532 39.2418 55.3587 39.3336 54.7606C39.3762 54.5223 39.3713 54.2775 39.3189 54.0409C39.2631 53.8224 39.1795 53.6137 39.0697 53.4181L39.0664 53.4165Z" fill="#EB996E"/>
<path d="M36.576 51.3935C36.576 51.3935 36.0924 52.4928 36.1744 53.0301C36.2547 53.5658 36.576 55.4422 36.7629 55.5474C36.9498 55.6525 37.2432 55.8694 37.4317 55.5474C37.6186 55.2253 37.4317 54.1786 37.4317 54.1786L37.7792 53.1878C37.7792 53.1878 38.5283 52.6242 38.3136 52.1149C38.0989 51.6055 37.0563 51.106 36.5744 51.3952L36.576 51.3935Z" fill="#FFCCB6"/>
<path d="M37.4315 54.1821C37.4659 54.3004 37.4823 54.4237 37.479 54.5469C37.479 54.6586 37.4921 54.795 37.4938 54.9445V55.1811C37.497 55.2715 37.4823 55.3602 37.4511 55.444C37.4184 55.5328 37.3561 55.6084 37.2774 55.6609C37.1987 55.7086 37.1053 55.7217 37.0167 55.6971C36.8774 55.656 36.7627 55.5558 36.702 55.4227C36.6446 55.311 36.6151 55.1861 36.6184 55.0612C36.6381 55.0612 36.6627 55.1992 36.7659 55.3882C36.8217 55.4966 36.9217 55.5755 37.0381 55.6067C37.179 55.633 37.3167 55.5508 37.3593 55.4128C37.3856 55.3389 37.3987 55.2617 37.3954 55.1844V54.565C37.3905 54.4368 37.402 54.3086 37.4298 54.1838L37.4315 54.1821Z" fill="#EB996E"/>
<path d="M27.4504 15.4096C27.3389 15.2715 27.1651 15.1992 26.9881 15.2157C26.8143 15.2338 26.6455 15.2913 26.498 15.3866C25.7406 15.8466 25.2898 16.6797 25.3144 17.567C25.3275 17.8858 25.4407 18.2472 25.7324 18.377C26.0095 18.4691 26.3144 18.3853 26.5045 18.1634C26.6881 17.9416 26.8242 17.6853 26.9045 17.4109C27.0979 16.8621 27.3077 16.3133 27.511 15.7645C27.4389 15.8368 27.552 15.5542 27.4504 15.4096Z" fill="#E26683"/>
<path d="M37.3791 16.6682C36.6939 15.6067 35.5104 14.9445 34.2875 14.629C33.0892 14.3103 31.8565 14.1427 30.6173 14.1328C28.4371 14.026 26.5028 15.5213 26.052 17.6606C25.7569 18.9554 25.7225 20.2962 25.9504 21.6057C26.3913 24.5896 28.9616 27.1266 31.9385 27.521L34.4891 27.2383C35.6481 26.8884 33.4925 25.329 34.0318 24.2495C34.5711 23.1683 37.3398 22.9975 37.6348 21.3346C37.8397 19.7293 38.2561 18.0254 37.3791 16.6682Z" fill="#EAA600"/>
<path d="M37.0975 20.0674C37.2516 18.2452 35.5779 16.1552 33.7551 16.0796L27.767 16.3261L27.644 17.2939C27.644 17.2939 26.7392 19.4595 27.2146 23.2781C27.8752 28.5772 25.6016 28.7103 25.6016 28.7103L26.2277 29.3708C26.2277 29.3708 26.154 33.3225 29.4521 33.5838C32.4142 33.8204 33.4797 30.6557 33.4797 30.6557L32.8585 29.3166L32.9552 28.4096C32.9552 28.4096 33.524 28.472 34.2125 28.1976C34.9403 27.9084 35.8042 27.2446 36.2746 25.7379C36.6057 24.6764 36.25 23.8285 36.3959 22.3465C36.4516 21.7845 37.0533 20.6245 37.0991 20.0691L37.0975 20.0674Z" fill="#FFCCB6"/>
<path d="M32.9536 28.4099C31.5357 28.2226 30.2292 27.6705 29.1211 26.7651C29.1211 26.7651 29.826 29.0162 32.87 29.1805L32.9536 28.4083V28.4099Z" fill="#EB996E"/>
<path d="M35.0763 16.0813C35.0763 16.0813 32.0962 20.7281 28.3588 20.8266C28.3588 20.8266 27.908 21.9456 27.5932 23.0711C27.2785 24.1967 27.3244 25.4915 27.3244 25.4915C27.3244 25.4915 23.7787 23.9371 24.8 20.5342C25.8491 17.0392 27.4178 14.9443 29.3718 14.6715C31.3241 14.3988 35.0763 16.0813 35.0763 16.0813Z" fill="#EAA600"/>
<path d="M28.2731 21.4988C28.2321 21.4643 26.9781 20.066 26.3093 21.6499C25.7093 23.0696 26.9781 23.8402 27.7829 23.6693C27.8387 23.6578 28.2731 21.4988 28.2731 21.4988Z" fill="#FFCCB6"/>
<path d="M27.4538 22.7395C27.4538 22.7395 27.4194 22.7592 27.3571 22.7789C27.2718 22.8068 27.1817 22.8085 27.103 22.7838C26.9063 22.723 26.7702 22.4618 26.7981 22.1792C26.8112 22.0444 26.862 21.9113 26.9473 21.7881C26.9964 21.6879 27.103 21.609 27.2292 21.5778C27.3112 21.5597 27.3915 21.5909 27.4194 21.6517C27.439 21.6961 27.4226 21.7273 27.4374 21.729C27.4521 21.7306 27.4833 21.7027 27.4751 21.6386C27.4702 21.5991 27.4472 21.5646 27.4128 21.54C27.3636 21.5088 27.2981 21.494 27.2309 21.5006C27.0653 21.5268 26.9178 21.6205 26.844 21.7454C26.7424 21.8801 26.6817 22.0296 26.667 22.1808C26.6358 22.4979 26.7948 22.7921 27.0686 22.8594C27.1702 22.8841 27.2866 22.8676 27.3833 22.8167C27.444 22.7822 27.4587 22.7411 27.4521 22.7378L27.4538 22.7395Z" fill="#EB996E"/>
<path d="M41.5924 21.4262C41.5646 21.4377 41.5334 21.4459 41.5039 21.4492C41.417 21.4689 41.3302 21.4804 41.2416 21.4854C40.9171 21.515 40.5909 21.4887 40.2761 21.4081C39.8024 21.2931 39.3582 21.0746 38.9795 20.7657C38.7582 20.5833 38.5631 20.3713 38.3992 20.1347C38.2255 19.8784 38.0861 19.5991 37.9861 19.3066C37.7763 18.7069 37.6763 18.1137 37.5271 17.5945C37.4075 17.1327 37.2042 16.6957 36.9239 16.3079C36.7354 16.0483 36.4895 15.8347 36.2059 15.6868C36.001 15.5882 35.8731 15.5652 35.8781 15.5537C35.9092 15.5554 35.9387 15.5603 35.9682 15.5685C36.0551 15.5866 36.1403 15.6145 36.2207 15.6523C36.5206 15.7903 36.7813 16.0023 36.9796 16.2668C37.2731 16.6562 37.4894 17.0982 37.6157 17.5698C37.7747 18.0923 37.8747 18.6855 38.0812 19.2721C38.1796 19.558 38.314 19.8291 38.4812 20.0789C38.6336 20.3122 38.8188 20.5209 39.0303 20.7016C39.3959 21.0072 39.8237 21.2291 40.2843 21.3506C40.5958 21.4344 40.9171 21.4706 41.2384 21.4574C41.4679 21.4394 41.5941 21.4147 41.5941 21.4262H41.5924Z" fill="#EAA600"/>
<path d="M35.6233 31.0141L32.8612 29.2806C32.9268 32.5964 25.8453 32.1134 26.7928 27.7607C26.7928 27.7607 23.8389 28.1157 21.9406 28.5166C21.2128 28.671 20.0981 29.1804 19.09 29.9214C17.6426 31.1357 13.5084 34.0983 12.1396 36.6763C12.3167 39.2971 13.9953 41.2475 15.9312 40.789C17.9688 39.0391 19.8375 38.883 19.8375 38.883C19.1572 40.8531 17.9065 43.308 17.2508 46.6287C16.0132 53.0007 15.8263 56.5301 15.8263 56.5301C15.8263 56.5301 22.9979 58.0303 24.9371 57.1118C26.8764 56.1917 31.5974 53.7204 33.966 54.3694C33.966 54.3694 34.2365 52.0461 33.0497 50.9665C33.0497 50.9665 33.112 48.3096 32.2908 47.4059L33.0399 41.1538C33.2825 41.5679 33.6382 41.9047 34.066 42.1216C35.8331 42.976 37.7363 42.8775 37.7363 42.8775C37.7363 42.8775 37.8166 39.2692 37.8477 36.3543C37.8838 32.7082 35.6282 31.0174 35.6217 31.0141H35.6233Z" fill="#FC9175"/>
<mask id="mask8_2551_1650" style="mask-type:luminance" maskUnits="userSpaceOnUse" x="12" y="27" width="26" height="31">
<path d="M35.6233 31.0141L32.8612 29.2806C32.9268 32.5964 25.8453 32.1134 26.7928 27.7607C26.7928 27.7607 23.8389 28.1157 21.9406 28.5166C21.2128 28.671 20.0981 29.1804 19.09 29.9214C17.6426 31.1357 13.5084 34.0983 12.1396 36.6763C12.3167 39.2971 13.9953 41.2475 15.9312 40.789C17.9688 39.0391 19.8375 38.883 19.8375 38.883C19.1572 40.8531 17.9065 43.308 17.2508 46.6287C16.0132 53.0007 15.8263 56.5301 15.8263 56.5301C15.8263 56.5301 22.9979 58.0303 24.9371 57.1118C26.8764 56.1917 31.5974 53.7204 33.966 54.3694C33.966 54.3694 34.2365 52.0461 33.0497 50.9665C33.0497 50.9665 33.112 48.3096 32.2908 47.4059L33.0399 41.1538C33.2825 41.5679 33.6382 41.9047 34.066 42.1216C35.8331 42.976 37.7363 42.8775 37.7363 42.8775C37.7363 42.8775 37.8166 39.2692 37.8477 36.3543C37.8838 32.7082 35.6282 31.0174 35.6217 31.0141H35.6233Z" fill="white"/>
</mask>
<g mask="url(#mask8_2551_1650)">
<g style="mix-blend-mode:multiply" opacity="0.6">
<path d="M34.3924 35.0825C34.0891 36.9261 33.4941 39.3431 33.04 41.1555C33.1745 42.3714 34.0301 43.0451 34.2383 42.3862C34.076 40.5952 34.5039 36.2935 34.3924 35.0825Z" fill="#929292"/>
</g>
</g>
<g style="mix-blend-mode:multiply" opacity="0.6">
<path d="M33.0611 50.9104C33.0135 50.9153 32.9676 50.9153 32.9201 50.9104L32.5168 50.866C32.3431 50.8513 32.13 50.843 31.8775 50.8266H31.4776C31.3284 50.8217 31.1792 50.8266 31.0317 50.8365C30.2957 50.8693 29.5662 50.9712 28.8482 51.1404C27.9696 51.3458 27.109 51.6252 26.2796 51.9784C25.4501 52.3333 24.6452 52.7408 23.8666 53.1976C23.2289 53.5887 22.5142 53.8352 21.7733 53.9206C21.4881 53.9502 21.2012 53.9502 20.9176 53.9206C20.7045 53.8976 20.4931 53.8549 20.2865 53.7941C20.1537 53.7579 20.0242 53.7103 19.8997 53.6528C19.8554 53.6347 19.8128 53.6133 19.7734 53.5854C19.8193 53.6002 19.8636 53.6166 19.9062 53.6363C20.0324 53.684 23.2732 53.3948 26.2468 51.8782C27.0811 51.52 27.9434 51.2374 28.8269 51.032C29.5498 50.866 30.2858 50.7691 31.0268 50.7461H31.4776C31.6185 50.7461 31.7562 50.7461 31.8808 50.756C32.13 50.779 32.3464 50.7905 32.5201 50.8135L32.9217 50.8775C32.9693 50.8858 33.0152 50.8956 33.0611 50.9104Z" fill="#929292"/>
</g>
<g style="mix-blend-mode:multiply" opacity="0.6">
<path d="M23.3535 48.7255C24.4715 48.2654 25.596 47.784 26.5533 47.0462C27.5582 46.2723 29.2187 44.1329 31.0792 41.9131C29.2449 43.3952 24.9583 46.9953 23.3552 48.7255H23.3535Z" fill="#929292"/>
</g>
<path d="M16.6 40.2646C16.223 40.2235 15.6476 40.0921 14.9067 39.7273C13.6641 39.1144 12.9921 37.5683 12.6445 35.8726C12.4741 36.119 12.3741 36.234 12.1396 36.6793C12.1396 36.6793 12.156 38.26 12.9691 39.3543C13.7822 40.4487 14.3723 40.8791 15.487 40.8561C15.7886 40.8348 15.9328 40.8069 15.9328 40.8069C15.9328 40.8069 16.2918 40.4979 16.6016 40.2663L16.6 40.2646Z" fill="#F46E4A"/>
<path d="M37.7578 41.9472C37.4463 41.9784 36.8791 41.9784 35.848 41.8519C34.2826 41.6596 33.2777 40.1973 33.2777 40.1973L33.04 41.1536C33.3056 41.9883 34.694 42.4188 35.3546 42.5929C36.0136 42.7655 37.1611 42.9511 37.7364 42.8772C37.7463 42.427 37.7496 42.243 37.7578 41.9472Z" fill="#F46E4A"/>
<path d="M33.3382 29.5764C33.4612 31.2606 32.1154 33.2011 29.0418 32.6178C25.8289 32.0082 25.6683 29.4729 26.0125 27.861C26.2486 27.792 26.7928 27.7607 26.7928 27.7607C26.6436 28.487 26.6682 29.8689 27.755 30.6806C28.8418 31.4923 30.5811 31.6254 31.6203 31.1472C32.6596 30.6707 32.8776 29.7243 32.8612 29.2806C33.1546 29.4647 33.2251 29.463 33.3382 29.5747V29.5764Z" fill="#F46E4A"/>
<path d="M14.3171 68.0381C13.9122 68.439 13.5942 68.9287 13.3926 69.4627" stroke="#CE4D6F" stroke-linecap="round" stroke-linejoin="round"/>
<path d="M14.5612 68.5195C14.4399 68.7118 14.3186 68.904 14.1973 69.0946C14.1252 69.2096 14.0514 69.3247 13.9973 69.4495C13.9022 69.6631 13.8629 69.8981 13.8252 70.1281" stroke="#CE4D6F" stroke-linecap="round" stroke-linejoin="round"/>
<path d="M14.9625 69.042C14.615 69.5316 14.3085 70.0509 14.0479 70.5931" stroke="#CE4D6F" stroke-linecap="round" stroke-linejoin="round"/>
<path d="M15.2675 69.3872C14.915 69.8769 14.6134 70.401 14.3643 70.9515" stroke="#CE4D6F" stroke-linecap="round" stroke-linejoin="round"/>
<path d="M15.635 69.7305C15.6072 69.8751 15.5351 70.0065 15.4629 70.1347C15.2465 70.5175 15.0318 70.902 14.8154 71.2849" stroke="#CE4D6F" stroke-linecap="round" stroke-linejoin="round"/>
<path d="M16.0827 69.9902C15.786 70.4618 15.509 70.9449 15.25 71.4395" stroke="#CE4D6F" stroke-linecap="round" stroke-linejoin="round"/>
<path d="M16.6495 70.2222C16.2708 70.679 15.943 71.1785 15.6758 71.7092" stroke="#CE4D6F" stroke-linecap="round" stroke-linejoin="round"/>
<path d="M17.0788 70.3501C16.8509 70.9696 16.3608 71.4493 16.0215 72.0146" stroke="#CE4D6F" stroke-linecap="round" stroke-linejoin="round"/>
<path d="M17.8385 70.5259C17.4549 71.0747 17.0435 71.6021 16.6074 72.1082" stroke="#CE4D6F" stroke-linecap="round" stroke-linejoin="round"/>
<path d="M29.2243 66.3311C28.7129 66.7566 28.2474 67.2397 27.8408 67.7671" stroke="#CE4D6F" stroke-linecap="round" stroke-linejoin="round"/>
<path d="M29.4685 66.7534C28.9308 67.1839 28.485 67.7311 28.1719 68.3472" stroke="#CE4D6F" stroke-linecap="round" stroke-linejoin="round"/>
<path d="M29.8275 67.0688C29.2128 67.6538 28.7374 68.3833 28.4473 69.1803" stroke="#CE4D6F" stroke-linecap="round" stroke-linejoin="round"/>
<path d="M30.2358 67.5371C30.0079 67.897 29.644 68.1451 29.3555 68.4589C29.1178 68.7185 28.9309 69.0192 28.7539 69.3248" stroke="#CE4D6F" stroke-linecap="round" stroke-linejoin="round"/>
<path d="M30.6574 67.8706C30.5131 68.1384 30.2803 68.3455 30.0771 68.5706C29.7968 68.8828 29.5656 69.2393 29.3984 69.6255" stroke="#CE4D6F" stroke-linecap="round" stroke-linejoin="round"/>
<path d="M31.1525 68.3306C30.7361 68.8712 30.3492 69.4315 29.9902 70.0115" stroke="#CE4D6F" stroke-linecap="round" stroke-linejoin="round"/>
<path d="M31.6353 68.7876C31.5303 68.8418 31.4451 68.9289 31.3648 69.016C30.9337 69.4794 30.555 69.9904 30.2354 70.5375" stroke="#CE4D6F" stroke-linecap="round" stroke-linejoin="round"/>
<path d="M32.0683 68.9385C31.5339 69.4462 31.0601 70.0164 30.6602 70.6358" stroke="#CE4D6F" stroke-linecap="round" stroke-linejoin="round"/>
<path d="M32.6662 69.0684C32.2597 69.6303 31.804 70.1561 31.3057 70.6375" stroke="#CE4D6F" stroke-linecap="round" stroke-linejoin="round"/>
<path d="M35.5601 22.6229C35.6302 22.3646 35.5553 22.1193 35.3928 22.075C35.2303 22.0307 35.0418 22.2041 34.9717 22.4625C34.9016 22.7208 34.9764 22.9661 35.1389 23.0104C35.3014 23.0547 35.49 22.8812 35.5601 22.6229Z" fill="#103D99"/>
<path d="M32.8118 22.3907C32.8893 22.1052 32.7963 21.8313 32.6042 21.7789C32.412 21.7265 32.1934 21.9154 32.1159 22.2009C32.0384 22.4864 32.1314 22.7603 32.3236 22.8127C32.5158 22.8651 32.7344 22.6762 32.8118 22.3907Z" fill="#103D99"/>
<path d="M29.2863 19.7176C28.052 21.4872 28.411 23.7745 28.5765 25.8119C28.6273 26.53 28.6601 27.2677 28.5028 27.9743C28.5962 27.2579 28.4995 26.5415 28.3847 25.8349C27.9995 23.6923 27.4635 21.3246 28.6323 19.3052L29.2863 19.7176Z" fill="#EAA600"/>
<path d="M35.1614 16.1029C34.1484 18.773 31.7289 21.3314 28.6504 20.7776C31.6781 21.1868 33.9254 18.6219 34.7975 15.9731L35.1614 16.1029Z" fill="#EAA600"/>
<path d="M33.3693 20.3485C33.4234 20.3633 33.484 20.3879 33.5004 20.4405C33.5119 20.4766 33.4972 20.5161 33.4824 20.5522C33.4431 20.6492 33.4037 20.7445 33.3644 20.8414C32.8775 20.5654 32.2726 20.6311 31.7333 20.779C31.576 20.8217 31.417 20.8726 31.253 20.8661C31.2481 20.8661 31.4071 20.7215 31.4317 20.7083C31.5038 20.6672 31.5809 20.6327 31.6547 20.5884C31.8235 20.4881 32.0055 20.4109 32.194 20.3583C32.5759 20.2515 32.9874 20.245 33.3709 20.3485H33.3693Z" fill="#EAA600"/>
<path d="M35.1547 21.0865C35.2678 21.1177 35.3875 21.098 35.5039 21.1062C35.7711 21.1259 36.0202 21.3083 36.1186 21.5564C36.0661 21.3691 36.1432 21.1571 36.0612 20.9797C35.976 20.7956 35.7514 20.7217 35.5481 20.7135C35.4514 20.7102 35.3039 20.6954 35.2285 20.7661C35.2006 20.7924 35.1154 21.075 35.1547 21.0848V21.0865Z" fill="#EAA600"/>
<path d="M34.4652 22.9761C34.4357 23.3129 34.4111 23.6645 34.5701 23.9734C34.6242 24.0803 34.7012 24.1788 34.7471 24.2873C34.793 24.3957 34.8094 24.5223 34.7438 24.6241C34.6651 24.7474 34.4914 24.8016 34.3291 24.8229" stroke="#EB996E" stroke-width="0.3" stroke-linecap="round" stroke-linejoin="round"/>
<path d="M33.35 25.6757C33.5713 25.6774 33.7942 25.6544 34.0106 25.6987C34.2499 25.7464 34.4663 25.8729 34.6777 25.9961C34.3778 26.2048 34.2679 26.6271 33.945 26.7996C33.1713 27.2137 32.8844 26.3166 32.7238 25.7267C32.6762 25.5525 32.6959 25.5476 32.8582 25.5887C33.0205 25.6297 33.1729 25.6741 33.3516 25.6757H33.35Z" fill="#EB996E"/>
<path d="M135.95 57.511C135.95 57.511 134.904 57.9004 133.132 57.9004C131.36 57.9004 130.557 57.511 130.557 57.511C131.06 57.3089 131.599 57.2136 132.14 57.2267C132.14 57.2267 131.56 56.3509 131.793 56.0831C132.024 55.8136 132.612 56.6648 132.612 56.6648C132.612 56.6648 132.32 55.4062 132.906 55.2024C133.491 54.9987 133.601 56.6566 133.601 56.6566C133.601 56.6566 134.129 55.7841 134.479 55.9451C134.83 56.1061 134.614 57.2021 134.614 57.2021C135.083 57.1183 135.564 57.23 135.948 57.5126L135.95 57.511Z" fill="#FFA78F"/>
<path d="M35.697 85.7662C36.0003 85.5197 36.3609 86.2213 36.5002 86.5894C36.2183 85.5099 36.592 83.3065 37.0658 83.3952C37.5395 83.4839 37.7165 85.9141 37.6936 87.2105C37.6985 86.6371 38.0182 86.0751 38.5083 85.781C38.5886 85.7333 38.6853 85.6906 38.7706 85.7251C38.8722 85.7646 38.9083 85.8878 38.9279 85.9946C38.9804 86.2838 39.0017 86.5779 38.9919 86.872C39.3148 86.5483 40.0082 86.3988 40.259 86.5927C40.5082 86.7882 40.4262 87.061 40.2688 87.3025C41.195 87.2582 42.1294 87.3617 43.0227 87.6081C43.1293 87.6377 43.2539 87.6887 43.2752 87.7987C43.2899 87.8793 43.2391 87.9565 43.185 88.0156C42.7949 88.4396 36.315 88.7748 35.7986 88.4494C35.6872 88.3623 36.138 88.1093 36.5773 88.0255C36.4363 87.8678 36.3314 87.6969 36.2134 87.4701C36.1134 87.2779 35.397 86.0127 35.7003 85.7646L35.697 85.7662Z" fill="#FFA78F"/>
<path d="M74.0357 93.5413C74.5881 93.4608 74.9389 94.4483 75.2733 94.9922C75.3061 93.7253 76.2027 91.3461 76.8994 91.4595C77.7518 91.8883 77.1715 94.5716 77.1437 95.3849C77.2781 94.9741 77.5158 94.5978 77.8256 94.2988C77.9993 94.1312 78.2174 93.98 78.46 93.9899C78.8452 94.0047 79.1026 94.4401 79.0763 94.8246C79.0485 95.2107 78.8222 95.5476 78.6042 95.8663C79.137 95.6593 79.7124 95.5623 80.2828 95.5854C80.4746 95.5936 80.686 95.6248 80.809 95.7727C80.9483 95.9386 80.9172 96.1999 80.7959 96.379C80.6746 96.5581 80.4828 96.6764 80.2976 96.7898C80.8828 96.8621 81.4549 97.0412 81.9778 97.3139C79.2009 97.4602 76.4142 97.6047 73.6406 97.3895C73.8554 97.1627 74.2799 96.7996 75.1159 96.8867C74.8832 96.6337 73.0407 93.9143 74.0357 93.5397V93.5413Z" fill="#FFA78F"/>
<g style="mix-blend-mode:multiply" opacity="0.4">
<path d="M58.46 84.5486C60.5413 84.5486 62.2286 84.1763 62.2286 83.7172C62.2286 83.258 60.5413 82.8857 58.46 82.8857C56.3787 82.8857 54.6914 83.258 54.6914 83.7172C54.6914 84.1763 56.3787 84.5486 58.46 84.5486Z" fill="#929292"/>
</g>
</svg>
