<svg width="209" height="123" viewBox="0 0 209 123" fill="none" xmlns="http://www.w3.org/2000/svg">
<path d="M-1 0H209V107.202C209 107.202 154.596 123 104 123C53.4041 123 -1 107.202 -1 107.202V0Z" fill="#17817E"/>
<path fill-rule="evenodd" clip-rule="evenodd" d="M127.762 35L104 24L80.2383 35H79V66C79 79.8071 90.1929 91 104 91C117.807 91 129 79.8071 129 66V35H127.762Z" fill="#DEA593"/>
<path fill-rule="evenodd" clip-rule="evenodd" d="M125.861 36.3265L104 26L82.1392 36.3265H81V65.898C81 78.6005 91.2975 88.898 104 88.898C116.703 88.898 127 78.6005 127 65.898V36.3265H125.861Z" fill="#DB7A5C"/>
<rect x="91" y="45" width="25" height="25" rx="12.5" fill="white" fill-opacity="0.26"/>
<path d="M103.018 44.0215C103.327 43.0704 104.673 43.0704 104.982 44.0215L107.36 51.3425C107.499 51.7678 107.895 52.0557 108.342 52.0557H116.04C117.04 52.0557 117.456 53.3353 116.647 53.9231L110.419 58.4477C110.057 58.7106 109.906 59.1765 110.044 59.6018L112.423 66.9228C112.732 67.8738 111.643 68.6647 110.834 68.0769L104.607 63.5523C104.245 63.2894 103.755 63.2894 103.393 63.5523L97.1657 68.0769C96.3567 68.6647 95.2682 67.8738 95.5772 66.9228L97.9559 59.6018C98.0941 59.1765 97.9427 58.7106 97.5809 58.4477L91.3533 53.9231C90.5443 53.3353 90.9601 52.0557 91.9601 52.0557H99.6578C100.105 52.0557 100.501 51.7678 100.64 51.3425L103.018 44.0215Z" fill="#FFD235"/>
<path fill-rule="evenodd" clip-rule="evenodd" d="M118.142 31.3456C118.137 30.9891 117.664 30.8675 117.488 31.1773L116.633 32.6774C116.624 32.6767 116.615 32.6763 116.606 32.6763L114.352 32.6679C114.008 32.6666 113.869 33.1104 114.152 33.3059L115.954 34.5506L116.108 36.3323C116.138 36.6751 116.592 36.7739 116.761 36.4745L117.719 34.7797C117.733 34.7802 117.747 34.7799 117.762 34.7788L119.885 34.605C120.236 34.5762 120.329 34.1038 120.014 33.944L118.166 33.006L118.142 31.3456Z" fill="white"/>
<path fill-rule="evenodd" clip-rule="evenodd" d="M94.0021 73.167C93.9997 72.9947 93.7713 72.936 93.686 73.0857L93.2727 73.8109C93.2684 73.8105 93.264 73.8104 93.2595 73.8103L92.1701 73.8063C92.0039 73.8056 91.9365 74.0202 92.0734 74.1147L92.9446 74.7163L93.0189 75.5775C93.0332 75.7432 93.2529 75.791 93.3348 75.6462L93.7979 74.8271C93.8045 74.8273 93.8113 74.8272 93.8182 74.8266L94.8444 74.7426C95.0145 74.7287 95.0594 74.5003 94.9072 74.4231L94.0136 73.9697L94.0021 73.167Z" fill="white"/>
<path fill-rule="evenodd" clip-rule="evenodd" d="M96.0021 46.167C95.9997 45.9947 95.7713 45.936 95.686 46.0857L95.2727 46.8109C95.2684 46.8105 95.264 46.8104 95.2595 46.8103L94.1701 46.8063C94.0039 46.8056 93.9365 47.0202 94.0734 47.1147L94.9446 47.7163L95.0189 48.5775C95.0332 48.7432 95.2529 48.791 95.3348 48.6462L95.7979 47.8271C95.8045 47.8273 95.8113 47.8272 95.8182 47.8266L96.8444 47.7426C97.0145 47.7287 97.0594 47.5003 96.9072 47.4231L96.0136 46.9697L96.0021 46.167Z" fill="white"/>
</svg>
