<svg width="210" height="123" viewBox="0 0 210 123" fill="none" xmlns="http://www.w3.org/2000/svg">
      <path d="M0 0H210V107.202C210 107.202 155.596 123 105 123C54.4041 123 0 107.202 0 107.202V0Z" fill="#A5ADBA" />
      <path
        fill-rule="evenodd"
        clip-rule="evenodd"
        d="M128.762 35L105 24L81.2383 35H80V66C80 79.8071 91.1929 91 105 91C118.807 91 130 79.8071 130 66V35H128.762Z"
        fill="#EAECF0"
      />
      <path
        fill-rule="evenodd"
        clip-rule="evenodd"
        d="M126.861 36.3265L105 26L83.1392 36.3265H82V65.898C82 78.6005 92.2975 88.898 105 88.898C117.703 88.898 128 78.6005 128 65.898V36.3265H126.861Z"
        fill="#C1C7D0"
      />
      <rect x="92" y="45" width="25" height="25" rx="12.5" fill="white" fill-opacity="0.53" />
      <path
        d="M104.018 44.0215C104.327 43.0704 105.673 43.0704 105.982 44.0215L108.36 51.3425C108.499 51.7678 108.895 52.0557 109.342 52.0557H117.04C118.04 52.0557 118.456 53.3353 117.647 53.9231L111.419 58.4477C111.057 58.7106 110.906 59.1765 111.044 59.6018L113.423 66.9228C113.732 67.8738 112.643 68.6647 111.834 68.0769L105.607 63.5523C105.245 63.2894 104.755 63.2894 104.393 63.5523L98.1657 68.0769C97.3567 68.6647 96.2682 67.8738 96.5772 66.9228L98.9559 59.6018C99.0941 59.1765 98.9427 58.7106 98.5809 58.4477L92.3533 53.9231C91.5443 53.3353 91.9601 52.0557 92.9601 52.0557H100.658C101.105 52.0557 101.501 51.7678 101.64 51.3425L104.018 44.0215Z"
        fill="#A5ADBA"
      />
      <path
        fill-rule="evenodd"
        clip-rule="evenodd"
        d="M119.142 31.3456C119.137 30.9891 118.664 30.8675 118.488 31.1773L117.633 32.6774C117.624 32.6767 117.615 32.6763 117.606 32.6763L115.352 32.6679C115.008 32.6666 114.869 33.1104 115.152 33.3059L116.954 34.5506L117.108 36.3323C117.138 36.6751 117.592 36.7739 117.761 36.4744L118.719 34.7797C118.733 34.7802 118.747 34.7799 118.762 34.7787L120.885 34.605C121.236 34.5762 121.329 34.1038 121.014 33.944L119.166 33.006L119.142 31.3456Z"
        fill="white"
      />
      <path
        fill-rule="evenodd"
        clip-rule="evenodd"
        d="M95.0021 73.1671C94.9997 72.9948 94.7713 72.936 94.686 73.0858L94.2727 73.811C94.2684 73.8106 94.264 73.8104 94.2595 73.8104L93.1701 73.8063C93.0039 73.8057 92.9365 74.0202 93.0734 74.1147L93.9446 74.7164L94.0189 75.5776C94.0332 75.7433 94.2529 75.7911 94.3348 75.6463L94.7979 74.8271C94.8045 74.8274 94.8113 74.8272 94.8182 74.8267L95.8444 74.7427C96.0145 74.7288 96.0594 74.5004 95.9072 74.4232L95.0136 73.9698L95.0021 73.1671Z"
        fill="white"
      />
      <path
        fill-rule="evenodd"
        clip-rule="evenodd"
        d="M97.0021 46.1671C96.9997 45.9948 96.7713 45.936 96.686 46.0858L96.2727 46.811C96.2684 46.8106 96.264 46.8104 96.2595 46.8104L95.1701 46.8063C95.0039 46.8057 94.9365 47.0202 95.0734 47.1147L95.9446 47.7164L96.0189 48.5776C96.0332 48.7433 96.2529 48.7911 96.3348 48.6463L96.7979 47.8271C96.8045 47.8274 96.8113 47.8272 96.8182 47.8267L97.8444 47.7427C98.0145 47.7288 98.0594 47.5004 97.9072 47.4232L97.0136 46.9698L97.0021 46.1671Z"
        fill="white"
      />
    </svg>
