<svg width="259" height="212" viewBox="0 0 259 212" fill="none" xmlns="http://www.w3.org/2000/svg">
<path d="M84.6713 154.22C81.8814 146.294 79.5529 136.936 85.4112 130.912C95.2222 120.823 117.374 116.615 131.295 116.615H131.119C144.652 116.615 167.168 120.561 176.083 130.668C180.672 135.87 178.817 143.532 176.718 150.144L173.145 161.396C163.034 185.898 155.871 211.246 130.171 211.246C104.471 211.246 98.9939 188.011 87.1971 161.396L84.6713 154.22Z" fill="url(#paint0_linear_348_9442)"/>
<mask id="mask0_348_9442" style="mask-type:alpha" maskUnits="userSpaceOnUse" x="81" y="116" width="98" height="96">
<path d="M84.6713 154.22C81.8814 146.294 79.5529 136.936 85.4112 130.912C95.2222 120.823 117.374 116.615 131.295 116.615H131.119C144.652 116.615 167.168 120.561 176.083 130.668C180.672 135.87 178.817 143.532 176.718 150.144L173.145 161.396C163.034 185.898 155.871 211.246 130.171 211.246C104.471 211.246 98.9939 188.011 87.1971 161.396L84.6713 154.22Z" fill="black"/>
</mask>
<g mask="url(#mask0_348_9442)">
<g opacity="0.95">
<path d="M160.528 148.452L162.149 146.511C163.591 144.869 164.616 143.284 165.223 141.723L177.56 156.591C179.799 159.424 179.692 159.948 175.961 159.948H174.681C170.949 159.948 169.563 159.214 167.324 156.591L160.528 148.452ZM160.528 128.225L167.324 120.085C169.563 117.463 170.949 116.729 174.681 116.729H175.961C179.692 116.729 179.799 117.253 177.56 120.085L165.223 134.954C164.616 133.393 163.591 131.808 162.149 130.166L160.528 128.225Z" fill="white"/>
<path d="M141.684 159.948C137.952 159.948 137.845 159.424 140.084 156.591L152.879 141.171C153.838 140.017 154.372 139.073 154.372 138.338C154.372 137.499 153.838 136.555 152.879 135.506L140.084 120.085C137.845 117.253 137.952 116.729 141.684 116.729H142.963C146.695 116.729 148.081 117.463 150.32 120.085L160.129 131.834C164.288 136.555 164.288 140.122 160.129 144.842L150.32 156.591C148.081 159.214 146.695 159.948 142.963 159.948H141.684Z" fill="white"/>
</g>
<path opacity="0.4" d="M178.201 144.918C140.704 216.312 111.072 201.386 95.2021 191.81L106.156 212.933L150.816 228.564C167.528 197.161 197.542 108.093 178.201 144.918Z" fill="#1A2C6B"/>
</g>
<path d="M37.0794 122.375C48.9956 138.089 63.4197 147.195 69.2965 142.715C72.1663 140.527 71.9147 136.226 71.0374 131.209C70.1601 126.191 64.4586 114.189 58.3613 106.149C46.4451 90.4347 33.6479 83.4357 26.1442 85.8089C18.6406 88.1822 20.6473 93.9282 22.7578 99.4751C24.8684 105.022 31.345 114.813 37.0794 122.375Z" fill="url(#paint1_linear_348_9442)"/>
<mask id="mask1_348_9442" style="mask-type:alpha" maskUnits="userSpaceOnUse" x="21" y="85" width="51" height="59">
<path d="M35.9871 122.367C47.3101 138.084 61.7386 147.196 68.2142 142.719C71.3763 140.533 71.4264 136.233 70.8742 131.215C70.3219 126.198 65.2308 114.195 59.4371 106.153C48.1141 90.4356 35.2341 83.4315 27.21 85.8008C19.1859 88.1701 20.8668 93.9163 22.6709 99.4634C24.4749 105.01 30.538 114.803 35.9871 122.367Z" fill="url(#paint2_linear_348_9442)"/>
</mask>
<g mask="url(#mask1_348_9442)">
<path opacity="0.4" d="M76.3552 139.425C49.2958 137.035 29.7651 101.261 17.0391 87.2988L46.9573 158.857C59.3144 154.62 86.6111 140.33 76.3552 139.425Z" fill="#1A2C6B"/>
</g>
<path d="M222.286 122.375C210.37 138.089 195.946 147.195 190.069 142.715C187.199 140.527 187.451 136.226 188.328 131.209C189.205 126.191 194.907 114.189 201.004 106.149C212.92 90.4347 225.717 83.4357 233.221 85.8089C240.725 88.1822 238.718 93.9282 236.607 99.4751C234.497 105.022 228.02 114.813 222.286 122.375Z" fill="url(#paint3_linear_348_9442)"/>
<mask id="mask2_348_9442" style="mask-type:alpha" maskUnits="userSpaceOnUse" x="188" y="85" width="51" height="59">
<path d="M223.378 122.367C212.055 138.084 197.627 147.196 191.151 142.719C187.989 140.533 187.939 136.233 188.491 131.215C189.043 126.198 194.134 114.195 199.928 106.153C211.251 90.4356 224.131 83.4315 232.155 85.8008C240.179 88.1701 238.498 93.9163 236.694 99.4634C234.89 105.01 228.827 114.803 223.378 122.367Z" fill="url(#paint4_linear_348_9442)"/>
</mask>
<g mask="url(#mask2_348_9442)">
<path opacity="0.4" d="M183.01 139.425C210.069 137.035 229.6 101.261 242.326 87.2988L212.408 158.857C200.051 154.62 172.754 140.33 183.01 139.425Z" fill="#1A2C6B"/>
</g>
<path d="M68.1436 53.7285C66.0446 51.6395 64.4139 49.2268 63.2865 46.6367C60.6846 40.6974 60.6943 33.8484 63.5988 27.9437C66.5474 21.9581 72.1124 17.6953 78.5904 16.1652C80.421 15.7258 82.3298 15.51 84.2727 15.5369C88.7006 40.6974 68.1436 53.7285 68.1436 53.7285Z" fill="url(#paint5_linear_348_9442)"/>
<path opacity="0.4" d="M68.1432 53.7285C66.0442 51.6395 64.4135 49.2268 63.2861 46.6367C65.8675 42.1543 68.4605 37.3827 71.0183 32.326C73.8364 26.7489 76.3484 21.3453 78.5901 16.1652C80.4206 15.7258 82.3294 15.51 84.2724 15.5369C78.8961 28.2675 73.5195 40.998 68.1432 53.7285Z" fill="#1A2C6B"/>
<path d="M193.78 54.978C195.908 52.9185 197.572 50.5287 198.735 47.9546C201.42 42.052 201.506 35.2036 198.684 29.259C195.819 23.2329 190.314 18.893 183.858 17.2728C182.034 16.808 180.128 16.5656 178.185 16.5655C173.407 41.6618 193.78 54.978 193.78 54.978Z" fill="url(#paint6_linear_348_9442)"/>
<path opacity="0.4" d="M193.78 54.9773C195.908 52.9177 197.572 50.5279 198.736 47.9538C196.217 43.4358 193.691 38.6286 191.204 33.5367C188.464 27.921 186.028 22.4829 183.859 17.2721C182.034 16.8073 180.129 16.5649 178.186 16.5648C183.384 29.3689 188.582 42.1731 193.78 54.9773Z" fill="#1A2C6B"/>
<path d="M193.097 79.0887C188.007 98.0909 166.048 108.063 132.108 108.064C98.1675 108.066 74.2068 96.0965 67.4752 79.0887C60.7437 62.081 70.026 29.9399 84.192 15.8221C95.209 4.84257 112.632 0.000541687 128.009 0.000541687C140.75 0.000541687 164.421 4.57465 176.811 15.3234C192.691 29.081 198.187 60.0866 193.097 79.0887Z" fill="url(#paint7_linear_348_9442)"/>
<mask id="mask3_348_9442" style="mask-type:alpha" maskUnits="userSpaceOnUse" x="65" y="0" width="130" height="109">
<path d="M193.097 79.0887C188.007 98.0909 166.048 108.063 132.108 108.064C98.1675 108.066 74.2068 96.0965 67.4752 79.0887C60.7437 62.081 70.026 29.9399 84.192 15.8221C95.209 4.84257 112.632 0.000541687 128.009 0.000541687C140.75 0.000541687 164.421 4.57465 176.811 15.3234C192.691 29.081 198.187 60.0866 193.097 79.0887Z" fill="black"/>
</mask>
<g mask="url(#mask3_348_9442)">
<path opacity="0.4" d="M187.651 28.9194C131.749 12.9642 70.3575 28.9196 70.3575 28.9196L64.8672 40.8859L65.8654 60.8302C72.0213 64.1543 88.6254 70.8023 105.795 70.8023C127.257 70.8023 121.268 58.3372 131.749 58.3372C142.231 58.3372 135.243 70.8023 156.706 70.8023C173.875 70.8023 191.145 64.1543 197.633 60.8302L201.626 49.3623C201.626 49.3623 243.553 44.8746 187.651 28.9194Z" fill="#1A2C6B"/>
</g>
<path opacity="0.8" d="M130.171 95.2285C122.721 95.2285 116.927 92.5999 112.728 89.2121C105.191 83.1378 102.794 74.6045 105.21 74.4157C108.969 74.1266 117.937 78.5898 128.062 78.5898C139.695 78.5898 147.623 75.676 153.603 75.4332C153.871 75.4178 154.13 75.4139 154.388 75.4139C160.461 75.4139 153.027 95.2285 130.171 95.2285Z" fill="#1A2C6B"/>
<path d="M166.267 46.0011C166.267 52.2796 161.151 57.3672 154.841 57.3672C149.963 57.3672 145.801 54.3339 144.161 50.0557C143.678 48.7954 143.412 47.431 143.412 46.0011C143.412 39.7225 148.527 34.635 154.841 34.635C159.487 34.635 163.482 37.3907 165.263 41.349C165.909 42.7712 166.267 44.3438 166.267 46.0011Z" fill="#1A2C6B"/>
<path opacity="0.1" d="M165.251 41.3303C160.986 51.5865 150.406 51.282 144.184 50.0872C143.697 48.8307 143.426 47.4663 143.421 46.0363C143.4 39.7617 148.498 34.6548 154.812 34.6317C159.457 34.6201 163.456 37.3759 165.251 41.3303Z" fill="white"/>
<path d="M154.339 42.2286C154.339 44.3138 152.641 46.002 150.546 46.002C148.451 46.002 146.753 44.3138 146.753 42.2286C146.753 40.1435 148.451 38.4553 150.546 38.4553C152.641 38.4553 154.339 40.1435 154.339 42.2286Z" fill="white"/>
<path opacity="0.8" d="M163.798 48.2094C164.42 48.6218 163.574 52.5839 160.746 54.0986C158.234 55.4438 154.904 54.4571 154.827 53.7287C154.77 53.1929 156.495 53.0464 159.381 51.3082C162.419 49.4774 163.366 47.9203 163.798 48.2094Z" fill="white"/>
<path d="M115.578 46.0011C115.578 52.2758 110.463 57.3672 104.153 57.3672C99.2749 57.3672 95.1129 54.33 93.4729 50.0557C92.9902 48.7954 92.7236 47.4272 92.7236 46.0011C92.7236 39.7225 97.8391 34.635 104.153 34.635C108.798 34.635 112.794 37.3907 114.575 41.349C115.22 42.7712 115.578 44.3438 115.578 46.0011Z" fill="#1A2C6B"/>
<g filter="url(#filter0_f_348_9442)">
<path d="M104.304 30.9137C96.0461 30.9137 89.3281 37.6239 89.3281 45.8719C89.3281 47.7043 89.6585 49.4977 90.3101 51.2045C92.5074 56.9616 98.1311 60.8301 104.304 60.8301C112.559 60.8301 119.275 54.1199 119.275 45.8719C119.275 43.7363 118.832 41.6786 117.959 39.7465C115.556 34.3836 110.195 30.9137 104.304 30.9137ZM104.302 33.097C109.5 33.097 113.974 36.1943 115.967 40.6432C116.689 42.2417 117.09 44.0092 117.09 45.8719C117.09 52.9243 111.366 58.6468 104.304 58.6468C98.8448 58.6468 94.187 55.2332 92.3518 50.4291C91.8116 49.0125 91.5133 47.4747 91.5133 45.8719C91.5133 38.8152 97.2358 33.097 104.302 33.097Z" fill="#C6FCED" fill-opacity="0.5"/>
</g>
<path opacity="0.1" d="M114.565 41.3266C110.3 51.5865 99.7196 51.2821 93.4977 50.0872C93.0103 48.8308 92.7395 47.4663 92.7344 46.0364C92.7135 39.7579 97.812 34.6549 104.126 34.6318C108.771 34.6164 112.77 37.376 114.565 41.3266Z" fill="white"/>
<path d="M103.653 42.2286C103.653 44.3138 101.955 46.002 99.8602 46.002C97.7654 46.002 96.0674 44.3138 96.0674 42.2286C96.0674 40.1435 97.7654 38.4553 99.8602 38.4553C101.955 38.4553 103.653 40.1435 103.653 42.2286Z" fill="white"/>
<path opacity="0.8" d="M113.112 48.2046C113.733 48.6208 112.887 52.5791 110.06 54.0939C107.547 55.4428 104.218 54.4561 104.14 53.7277C104.083 53.192 105.808 53.0455 108.695 51.3072C111.732 49.4765 112.68 47.9155 113.112 48.2046Z" fill="white"/>
<path d="M104.151 32.6913C96.7726 32.6913 90.7695 38.6615 90.7695 45.9999C90.7695 47.6303 91.0648 49.2259 91.647 50.7445C93.6105 55.8668 98.6357 59.3086 104.151 59.3086C111.528 59.3086 117.53 53.3384 117.53 45.9999C117.53 44.0998 117.134 42.269 116.353 40.5501C114.206 35.7785 109.415 32.6913 104.151 32.6913ZM104.15 34.6338C108.795 34.6338 112.793 37.3896 114.574 41.3479C115.219 42.7701 115.577 44.3426 115.577 45.9999C115.577 52.2746 110.462 57.366 104.151 57.366C99.2734 57.366 95.1114 54.3289 93.4714 50.0546C92.9887 48.7942 92.7221 47.426 92.7221 45.9999C92.7221 39.7214 97.8357 34.6338 104.15 34.6338Z" fill="white"/>
<g filter="url(#filter1_f_348_9442)">
<path d="M154.715 30.9137C146.457 30.9137 139.739 37.6239 139.739 45.8719C139.739 47.7043 140.07 49.4977 140.721 51.2045C142.919 56.9616 148.542 60.8301 154.715 60.8301C162.97 60.8301 169.687 54.1199 169.687 45.8719C169.687 43.7363 169.243 41.6786 168.37 39.7465C165.967 34.3836 160.606 30.9137 154.715 30.9137ZM154.713 33.097C159.911 33.097 164.385 36.1943 166.378 40.6432C167.1 42.2417 167.501 44.0092 167.501 45.8719C167.501 52.9243 161.777 58.6468 154.715 58.6468C149.256 58.6468 144.598 55.2332 142.763 50.4291C142.223 49.0125 141.924 47.4747 141.924 45.8719C141.924 38.8152 147.647 33.097 154.713 33.097Z" fill="#C6FCED" fill-opacity="0.5"/>
</g>
<path d="M154.841 32.6913C147.462 32.6913 141.459 38.6615 141.459 45.9999C141.459 47.6303 141.754 49.2298 142.336 50.7483C144.3 55.8667 149.326 59.3086 154.841 59.3086C162.218 59.3086 168.219 53.3384 168.219 45.9999C168.219 44.1037 167.823 42.269 167.043 40.5501C164.896 35.7785 160.105 32.6913 154.841 32.6913ZM154.839 34.6338C159.484 34.6338 163.482 37.3896 165.263 41.3479C165.908 42.7701 166.267 44.3426 166.267 45.9999C166.267 52.2785 161.151 57.366 154.841 57.366C149.963 57.366 145.801 54.3328 144.161 50.0546C143.678 48.7942 143.412 47.4299 143.412 45.9999C143.412 39.7214 148.525 34.6338 154.839 34.6338Z" fill="white"/>
<defs>
<filter id="filter0_f_348_9442" x="85.3281" y="26.9141" width="37.9473" height="37.916" filterUnits="userSpaceOnUse" color-interpolation-filters="sRGB">
<feFlood flood-opacity="0" result="BackgroundImageFix"/>
<feBlend mode="normal" in="SourceGraphic" in2="BackgroundImageFix" result="shape"/>
<feGaussianBlur stdDeviation="2" result="effect1_foregroundBlur_348_9442"/>
</filter>
<filter id="filter1_f_348_9442" x="135.739" y="26.9141" width="37.9473" height="37.916" filterUnits="userSpaceOnUse" color-interpolation-filters="sRGB">
<feFlood flood-opacity="0" result="BackgroundImageFix"/>
<feBlend mode="normal" in="SourceGraphic" in2="BackgroundImageFix" result="shape"/>
<feGaussianBlur stdDeviation="2" result="effect1_foregroundBlur_348_9442"/>
</filter>
<linearGradient id="paint0_linear_348_9442" x1="86.5264" y1="177.428" x2="160.675" y2="155.155" gradientUnits="userSpaceOnUse">
<stop stop-color="#EE5BB3"/>
<stop offset="1" stop-color="#3D8BFF"/>
</linearGradient>
<linearGradient id="paint1_linear_348_9442" x1="63.073" y1="115.066" x2="44.5546" y2="126.245" gradientUnits="userSpaceOnUse">
<stop stop-color="#EE5BB3"/>
<stop offset="1" stop-color="#3D8BFF"/>
</linearGradient>
<linearGradient id="paint2_linear_348_9442" x1="63.7172" y1="115.072" x2="43.5739" y2="126.324" gradientUnits="userSpaceOnUse">
<stop stop-color="#B79BF5"/>
<stop offset="1" stop-color="#3D68FF"/>
</linearGradient>
<linearGradient id="paint3_linear_348_9442" x1="196.292" y1="115.066" x2="214.811" y2="126.245" gradientUnits="userSpaceOnUse">
<stop stop-color="#EE5BB3"/>
<stop offset="1" stop-color="#3D8BFF"/>
</linearGradient>
<linearGradient id="paint4_linear_348_9442" x1="195.648" y1="115.072" x2="215.791" y2="126.324" gradientUnits="userSpaceOnUse">
<stop stop-color="#B79BF5"/>
<stop offset="1" stop-color="#3D68FF"/>
</linearGradient>
<linearGradient id="paint5_linear_348_9442" x1="62.812" y1="29.1837" x2="81.3608" y2="32.4495" gradientUnits="userSpaceOnUse">
<stop stop-color="#B79BF5"/>
<stop offset="1" stop-color="#3D68FF"/>
</linearGradient>
<linearGradient id="paint6_linear_348_9442" x1="199.454" y1="30.5099" x2="180.861" y2="33.5165" gradientUnits="userSpaceOnUse">
<stop stop-color="#B79BF5"/>
<stop offset="1" stop-color="#3D68FF"/>
</linearGradient>
<linearGradient id="paint7_linear_348_9442" x1="73.1547" y1="38.6185" x2="167.496" y2="70.9895" gradientUnits="userSpaceOnUse">
<stop stop-color="#EE5BB3"/>
<stop offset="1" stop-color="#3D8BFF"/>
</linearGradient>
</defs>
</svg>
