<svg width="218" height="211" viewBox="0 0 218 211" fill="none" xmlns="http://www.w3.org/2000/svg">
  <path d="M59.1436 53.7285C57.0446 51.6395 55.4139 49.2268 54.2865 46.6367C51.6846 40.6974 51.6943 33.8484 54.5988 27.9437C57.5474 21.9581 63.1124 17.6953 69.5904 16.1652C71.421 15.7258 73.3298 15.51 75.2727 15.5369C79.7006 40.6974 59.1436 53.7285 59.1436 53.7285Z" fill="url(#paint0_linear_348_9398)"/>
  <path opacity="0.4" d="M59.1432 53.7285C57.0442 51.6395 55.4135 49.2268 54.2861 46.6367C56.8675 42.1543 59.4605 37.3827 62.0183 32.326C64.8364 26.7489 67.3484 21.3453 69.5901 16.1652C71.4206 15.7258 73.3294 15.51 75.2724 15.5369C69.8961 28.2675 64.5195 40.998 59.1432 53.7285Z" fill="#1A2C6B"/>
  <path d="M184.78 54.978C186.908 52.9185 188.572 50.5287 189.735 47.9546C192.42 42.052 192.506 35.2036 189.684 29.259C186.819 23.2329 181.314 18.893 174.858 17.2728C173.034 16.808 171.128 16.5656 169.185 16.5655C164.407 41.6618 184.78 54.978 184.78 54.978Z" fill="url(#paint1_linear_348_9398)"/>
  <path opacity="0.4" d="M184.78 54.9773C186.908 52.9177 188.572 50.5279 189.736 47.9538C187.217 43.4358 184.691 38.6286 182.204 33.5367C179.464 27.921 177.028 22.4829 174.859 17.2721C173.034 16.8073 171.129 16.5649 169.186 16.5648C174.384 29.3689 179.582 42.1731 184.78 54.9773Z" fill="#1A2C6B"/>
  <path d="M184.097 79.0887C179.007 98.0909 157.048 108.063 123.108 108.064C89.1675 108.066 65.2068 96.0965 58.4752 79.0887C51.7437 62.081 61.026 29.9399 75.192 15.8221C86.209 4.84257 103.632 0.000541687 119.009 0.000541687C131.75 0.000541687 155.421 4.57465 167.811 15.3234C183.691 29.081 189.187 60.0866 184.097 79.0887Z" fill="url(#paint2_linear_348_9398)"/>
  <mask id="mask0_348_9398" style="mask-type:alpha" maskUnits="userSpaceOnUse" x="56" y="0" width="130" height="109">
    <path d="M184.097 79.0887C179.007 98.0909 157.048 108.063 123.108 108.064C89.1675 108.066 65.2068 96.0965 58.4752 79.0887C51.7437 62.081 61.026 29.9399 75.192 15.8221C86.209 4.84257 103.632 0.000541687 119.009 0.000541687C131.75 0.000541687 155.421 4.57465 167.811 15.3234C183.691 29.081 189.187 60.0866 184.097 79.0887Z" fill="black"/>
  </mask>
  <g mask="url(#mask0_348_9398)">
    <path opacity="0.4" d="M178.651 28.9194C122.749 12.9642 61.3575 28.9196 61.3575 28.9196L55.8672 40.8859L56.8654 60.8302C63.0213 64.1543 79.6254 70.8023 96.7951 70.8023C118.257 70.8023 112.268 58.3372 122.749 58.3372C133.231 58.3372 126.243 70.8023 147.706 70.8023C164.875 70.8023 182.145 64.1543 188.633 60.8302L192.626 49.3623C192.626 49.3623 234.553 44.8746 178.651 28.9194Z" fill="#1A2C6B"/>
  </g>
  <path opacity="0.8" d="M121.171 95.2285C113.721 95.2285 107.927 92.5999 103.728 89.2121C96.191 83.1378 93.794 74.6045 96.2103 74.4157C99.9695 74.1266 108.937 78.5898 119.062 78.5898C130.695 78.5898 138.623 75.676 144.603 75.4332C144.871 75.4178 145.13 75.4139 145.388 75.4139C151.461 75.4139 144.027 95.2285 121.171 95.2285Z" fill="#1A2C6B"/>
  <path d="M157.267 46.0011C157.267 52.2796 152.151 57.3672 145.841 57.3672C140.963 57.3672 136.801 54.3339 135.161 50.0557C134.678 48.7954 134.412 47.431 134.412 46.0011C134.412 39.7225 139.527 34.635 145.841 34.635C150.487 34.635 154.482 37.3907 156.263 41.349C156.909 42.7712 157.267 44.3438 157.267 46.0011Z" fill="#1A2C6B"/>
  <path opacity="0.1" d="M156.251 41.3303C151.986 51.5865 141.406 51.282 135.184 50.0872C134.697 48.8307 134.426 47.4663 134.421 46.0363C134.4 39.7617 139.498 34.6548 145.812 34.6317C150.457 34.6201 154.456 37.3759 156.251 41.3303Z" fill="white"/>
  <path d="M145.339 42.2286C145.339 44.3138 143.641 46.002 141.546 46.002C139.451 46.002 137.753 44.3138 137.753 42.2286C137.753 40.1435 139.451 38.4553 141.546 38.4553C143.641 38.4553 145.339 40.1435 145.339 42.2286Z" fill="white"/>
  <path opacity="0.8" d="M154.798 48.2094C155.42 48.6218 154.574 52.5839 151.746 54.0986C149.234 55.4438 145.904 54.4571 145.827 53.7287C145.77 53.1929 147.495 53.0464 150.381 51.3082C153.419 49.4774 154.366 47.9203 154.798 48.2094Z" fill="white"/>
  <path d="M106.578 46.0011C106.578 52.2758 101.463 57.3672 95.153 57.3672C90.2749 57.3672 86.1129 54.33 84.4729 50.0557C83.9902 48.7954 83.7236 47.4272 83.7236 46.0011C83.7236 39.7225 88.8391 34.635 95.153 34.635C99.7981 34.635 103.794 37.3907 105.575 41.349C106.22 42.7712 106.578 44.3438 106.578 46.0011Z" fill="#1A2C6B"/>
  <g filter="url(#filter0_f_348_9398)">
    <path d="M95.3037 30.9137C87.0461 30.9137 80.3281 37.6239 80.3281 45.8719C80.3281 47.7043 80.6585 49.4977 81.3101 51.2045C83.5074 56.9616 89.1311 60.8301 95.3037 60.8301C103.559 60.8301 110.275 54.1199 110.275 45.8719C110.275 43.7363 109.832 41.6786 108.959 39.7465C106.556 34.3836 101.195 30.9137 95.3037 30.9137ZM95.3016 33.097C100.5 33.097 104.974 36.1943 106.967 40.6432C107.689 42.2417 108.09 44.0092 108.09 45.8719C108.09 52.9243 102.366 58.6468 95.3037 58.6468C89.8448 58.6468 85.187 55.2332 83.3518 50.4291C82.8116 49.0125 82.5133 47.4747 82.5133 45.8719C82.5133 38.8152 88.2358 33.097 95.3016 33.097Z" fill="#C6FCED" fill-opacity="0.5"/>
  </g>
  <path opacity="0.1" d="M105.565 41.3266C101.3 51.5865 90.7196 51.2821 84.4977 50.0872C84.0103 48.8308 83.7395 47.4663 83.7344 46.0364C83.7135 39.7579 88.812 34.6549 95.1258 34.6318C99.771 34.6164 103.77 37.376 105.565 41.3266Z" fill="white"/>
  <path d="M94.6531 42.2286C94.6531 44.3138 92.955 46.002 90.8602 46.002C88.7654 46.002 87.0674 44.3138 87.0674 42.2286C87.0674 40.1435 88.7654 38.4553 90.8602 38.4553C92.955 38.4553 94.6531 40.1435 94.6531 42.2286Z" fill="white"/>
  <path opacity="0.8" d="M104.112 48.2046C104.733 48.6208 103.887 52.5791 101.06 54.0939C98.5466 55.4428 95.2175 54.4561 95.14 53.7277C95.0831 53.192 96.8083 53.0455 99.6946 51.3072C102.732 49.4765 103.68 47.9155 104.112 48.2046Z" fill="white"/>
  <path d="M95.1515 32.6913C87.7726 32.6913 81.7695 38.6615 81.7695 45.9999C81.7695 47.6303 82.0648 49.2259 82.647 50.7445C84.6105 55.8668 89.6357 59.3086 95.1515 59.3086C102.528 59.3086 108.53 53.3384 108.53 45.9999C108.53 44.0998 108.134 42.269 107.353 40.5501C105.206 35.7785 100.415 32.6913 95.1515 32.6913ZM95.1495 34.6338C99.7947 34.6338 103.793 37.3896 105.574 41.3479C106.219 42.7701 106.577 44.3426 106.577 45.9999C106.577 52.2746 101.462 57.366 95.1515 57.366C90.2734 57.366 86.1114 54.3289 84.4714 50.0546C83.9887 48.7942 83.7221 47.426 83.7221 45.9999C83.7221 39.7214 88.8357 34.6338 95.1495 34.6338Z" fill="white"/>
  <g filter="url(#filter1_f_348_9398)">
    <path d="M145.715 30.9137C137.457 30.9137 130.739 37.6239 130.739 45.8719C130.739 47.7043 131.07 49.4977 131.721 51.2045C133.919 56.9616 139.542 60.8301 145.715 60.8301C153.97 60.8301 160.687 54.1199 160.687 45.8719C160.687 43.7363 160.243 41.6786 159.37 39.7465C156.967 34.3836 151.606 30.9137 145.715 30.9137ZM145.713 33.097C150.911 33.097 155.385 36.1943 157.378 40.6432C158.1 42.2417 158.501 44.0092 158.501 45.8719C158.501 52.9243 152.777 58.6468 145.715 58.6468C140.256 58.6468 135.598 55.2332 133.763 50.4291C133.223 49.0125 132.924 47.4747 132.924 45.8719C132.924 38.8152 138.647 33.097 145.713 33.097Z" fill="#C6FCED" fill-opacity="0.5"/>
  </g>
  <path d="M145.841 32.6913C138.462 32.6913 132.459 38.6615 132.459 45.9999C132.459 47.6303 132.754 49.2298 133.336 50.7483C135.3 55.8667 140.326 59.3086 145.841 59.3086C153.218 59.3086 159.219 53.3384 159.219 45.9999C159.219 44.1037 158.823 42.269 158.043 40.5501C155.896 35.7785 151.105 32.6913 145.841 32.6913ZM145.839 34.6338C150.484 34.6338 154.482 37.3896 156.263 41.3479C156.908 42.7701 157.267 44.3426 157.267 45.9999C157.267 52.2785 152.151 57.366 145.841 57.366C140.963 57.366 136.801 54.3328 135.161 50.0546C134.678 48.7942 134.412 47.4299 134.412 45.9999C134.412 39.7214 139.525 34.6338 145.839 34.6338Z" fill="white"/>
  <path d="M77.9129 155.377C74.6088 145.99 72.0134 134.716 79.589 128.262C90.0803 119.326 110.599 115.564 123.761 115.564H123.586C136.482 115.564 157.538 119.148 167.206 128.232C173.193 133.858 171.089 143.102 168.602 150.933L165.613 160.346C155.501 184.849 148.339 210.198 122.638 210.198C96.9366 210.198 91.4593 186.962 79.6621 160.346L77.9129 155.377Z" fill="url(#paint3_linear_348_9398)"/>
  <mask id="mask1_348_9398" style="mask-type:alpha" maskUnits="userSpaceOnUse" x="74" y="115" width="98" height="96">
    <path d="M77.9129 155.377C74.6088 145.99 72.0134 134.716 79.589 128.262C90.0803 119.326 110.599 115.564 123.761 115.564H123.586C136.482 115.564 157.538 119.148 167.206 128.232C173.193 133.858 171.089 143.102 168.602 150.933L165.613 160.346C155.501 184.849 148.339 210.198 122.638 210.198C96.9366 210.198 91.4593 186.962 79.6621 160.346L77.9129 155.377Z" fill="black"/>
  </mask>
  <g mask="url(#mask1_348_9398)">
    <g opacity="0.95">
      <path d="M152.996 147.404L154.617 145.463C156.059 143.821 157.084 142.236 157.691 140.675L170.028 155.544C172.267 158.376 172.161 158.901 168.429 158.901H167.149C163.417 158.901 162.031 158.166 159.792 155.544L152.996 147.404ZM152.996 127.177L159.792 119.037C162.031 116.414 163.417 115.68 167.149 115.68H168.429C172.161 115.68 172.267 116.204 170.028 119.037L157.691 133.906C157.084 132.344 156.059 130.759 154.617 129.118L152.996 127.177Z" fill="white"/>
      <path d="M134.151 158.901C130.419 158.901 130.312 158.376 132.551 155.544L145.346 140.123C146.306 138.969 146.839 138.024 146.839 137.29C146.839 136.451 146.306 135.507 145.346 134.458L132.551 119.037C130.312 116.204 130.419 115.68 134.151 115.68H135.43C139.162 115.68 140.548 116.414 142.787 119.037L152.597 130.786C156.755 135.507 156.755 139.074 152.597 143.794L142.787 155.544C140.548 158.166 139.162 158.901 135.43 158.901H134.151Z" fill="white"/>
    </g>
    <path opacity="0.4" d="M170.669 143.871C133.17 215.268 103.537 200.341 87.667 190.765L98.6215 211.888L143.282 227.52C159.995 196.116 190.01 107.045 170.669 143.871Z" fill="#1A2C6B"/>
  </g>
  <path d="M202.97 162.868C210.785 179.81 211.983 195.926 205.647 198.864C202.553 200.299 199.082 198.184 195.29 195.226C191.498 192.269 184.024 182.178 180.026 173.509C172.212 156.567 172.048 142.747 177.349 137.513C182.65 132.279 186.548 136.504 190.235 140.729C193.921 144.954 199.21 154.715 202.97 162.868Z" fill="url(#paint4_linear_348_9398)"/>
  <mask id="mask2_348_9398" style="mask-type:alpha" maskUnits="userSpaceOnUse" x="173" y="135" width="37" height="65">
    <path d="M202.97 162.868C210.785 179.81 211.983 195.926 205.647 198.864C202.553 200.299 199.082 198.184 195.29 195.226C191.498 192.269 184.024 182.178 180.026 173.509C172.212 156.567 172.048 142.747 177.349 137.513C182.65 132.279 186.548 136.504 190.235 140.729C193.921 144.954 199.21 154.715 202.97 162.868Z" fill="black"/>
  </mask>
  <g mask="url(#mask2_348_9398)">
    <path opacity="0.4" d="M199.924 204.098C209.615 180.017 189.25 146.361 183.492 128.898L228.153 188.467C219.445 196.916 196.251 213.225 199.924 204.098Z" fill="#1A2C6B"/>
  </g>
  <path d="M34.6147 123.587C45.8821 138.445 59.5208 147.056 65.0777 142.819C67.7912 140.75 67.5533 136.684 66.7238 131.94C65.8942 127.195 60.5031 115.847 54.7378 108.244C43.4704 93.3859 31.3699 86.768 24.2749 89.012C17.1798 91.2561 19.0772 96.6892 21.0729 101.934C23.0685 107.179 29.1924 116.436 34.6147 123.587Z" fill="url(#paint5_linear_348_9398)"/>
  <mask id="mask3_348_9398" style="mask-type:alpha" maskUnits="userSpaceOnUse" x="19" y="88" width="48" height="56">
    <path d="M33.5818 123.581C44.2883 138.443 57.9313 147.058 64.0542 142.825C67.0442 140.758 67.0916 136.692 66.5694 131.948C66.0472 127.204 61.2333 115.855 55.755 108.25C45.0485 93.3886 32.8698 86.7659 25.2826 89.0062C17.6954 91.2465 19.2848 96.6798 20.9906 101.925C22.6965 107.17 28.4294 116.429 33.5818 123.581Z" fill="url(#paint6_linear_348_9398)"/>
  </mask>
  <g mask="url(#mask3_348_9398)">
    <path opacity="0.4" d="M71.7516 139.707C46.1655 137.448 27.6982 103.622 15.665 90.4199L43.9544 158.082C55.6386 154.075 81.4491 140.564 71.7516 139.707Z" fill="#1A2C6B"/>
  </g>
  <defs>
    <filter id="filter0_f_348_9398" x="76.3281" y="26.9141" width="37.9473" height="37.916" filterUnits="userSpaceOnUse" color-interpolation-filters="sRGB">
      <feFlood flood-opacity="0" result="BackgroundImageFix"/>
      <feBlend mode="normal" in="SourceGraphic" in2="BackgroundImageFix" result="shape"/>
      <feGaussianBlur stdDeviation="2" result="effect1_foregroundBlur_348_9398"/>
    </filter>
    <filter id="filter1_f_348_9398" x="126.739" y="26.9141" width="37.9473" height="37.916" filterUnits="userSpaceOnUse" color-interpolation-filters="sRGB">
      <feFlood flood-opacity="0" result="BackgroundImageFix"/>
      <feBlend mode="normal" in="SourceGraphic" in2="BackgroundImageFix" result="shape"/>
      <feGaussianBlur stdDeviation="2" result="effect1_foregroundBlur_348_9398"/>
    </filter>
    <linearGradient id="paint0_linear_348_9398" x1="53.812" y1="29.1837" x2="72.3608" y2="32.4495" gradientUnits="userSpaceOnUse">
      <stop stop-color="#B79BF5"/>
      <stop offset="1" stop-color="#3D68FF"/>
    </linearGradient>
    <linearGradient id="paint1_linear_348_9398" x1="190.454" y1="30.5099" x2="171.861" y2="33.5165" gradientUnits="userSpaceOnUse">
      <stop stop-color="#B79BF5"/>
      <stop offset="1" stop-color="#3D68FF"/>
    </linearGradient>
    <linearGradient id="paint2_linear_348_9398" x1="64.1547" y1="38.6185" x2="158.496" y2="70.9895" gradientUnits="userSpaceOnUse">
      <stop stop-color="#EE5BB3"/>
      <stop offset="1" stop-color="#3D8BFF"/>
    </linearGradient>
    <linearGradient id="paint3_linear_348_9398" x1="78.9915" y1="176.379" x2="153.143" y2="154.105" gradientUnits="userSpaceOnUse">
      <stop stop-color="#EE5BB3"/>
      <stop offset="1" stop-color="#3D8BFF"/>
    </linearGradient>
    <linearGradient id="paint4_linear_348_9398" x1="185.368" y1="181.405" x2="202.934" y2="170.928" gradientUnits="userSpaceOnUse">
      <stop stop-color="#EE5BB3"/>
      <stop offset="1" stop-color="#3D8BFF"/>
    </linearGradient>
    <linearGradient id="paint5_linear_348_9398" x1="59.193" y1="116.676" x2="41.6829" y2="127.246" gradientUnits="userSpaceOnUse">
      <stop stop-color="#EE5BB3"/>
      <stop offset="1" stop-color="#3D8BFF"/>
    </linearGradient>
    <linearGradient id="paint6_linear_348_9398" x1="59.8021" y1="116.683" x2="40.7556" y2="127.323" gradientUnits="userSpaceOnUse">
      <stop stop-color="#EE5BB3"/>
      <stop offset="1" stop-color="#3D8BFF"/>
    </linearGradient>
  </defs>
</svg>
