<svg width="201" height="212" viewBox="0 0 201 212" fill="none" xmlns="http://www.w3.org/2000/svg">
<path d="M55.3465 155.745C52.0424 146.358 49.4471 135.084 57.0228 128.631C67.5139 119.695 88.0317 115.934 101.193 115.934H101.017C113.914 115.934 134.968 119.517 144.636 128.601C150.623 134.226 148.519 143.471 146.033 151.301L143.043 160.714C132.932 185.216 125.77 210.564 100.069 210.564C74.3694 210.564 68.8923 187.329 57.0955 160.714L55.3465 155.745Z" fill="url(#paint0_linear_348_9481)"/>
<mask id="mask0_348_9481" style="mask-type:alpha" maskUnits="userSpaceOnUse" x="52" y="115" width="97" height="96">
<path d="M55.3465 155.745C52.0424 146.358 49.4471 135.084 57.0228 128.631C67.5139 119.695 88.0317 115.934 101.193 115.934H101.017C113.914 115.934 134.968 119.517 144.636 128.601C150.623 134.226 148.519 143.471 146.033 151.301L143.043 160.714C132.932 185.216 125.77 210.564 100.069 210.564C74.3694 210.564 68.8923 187.329 57.0955 160.714L55.3465 155.745Z" fill="black"/>
</mask>
<g mask="url(#mask0_348_9481)">
<g opacity="0.95">
<path d="M130.426 147.771L132.046 145.83C133.488 144.188 134.513 142.603 135.121 141.042L147.457 155.911C149.696 158.743 149.59 159.267 145.858 159.267H144.579C140.847 159.267 139.461 158.533 137.222 155.911L130.426 147.771ZM130.426 127.544L137.222 119.405C139.461 116.782 140.847 116.048 144.579 116.048H145.858C149.59 116.048 149.696 116.572 147.457 119.405L135.121 134.273C134.513 132.712 133.488 131.127 132.046 129.485L130.426 127.544Z" fill="white"/>
<path d="M111.582 159.267C107.85 159.267 107.743 158.743 109.983 155.911L122.777 140.49C123.737 139.336 124.27 138.392 124.27 137.658C124.27 136.818 123.737 135.874 122.777 134.825L109.983 119.405C107.743 116.572 107.85 116.048 111.582 116.048H112.861C116.593 116.048 117.979 116.782 120.218 119.405L130.028 131.154C134.186 135.874 134.186 139.441 130.028 144.162L120.218 155.911C117.979 158.533 116.593 159.267 112.861 159.267H111.582Z" fill="white"/>
</g>
<path opacity="0.4" d="M148.099 144.238C110.602 215.633 80.9701 200.706 65.1006 191.13L76.0547 212.253L120.714 227.884C137.426 196.482 167.44 107.414 148.099 144.238Z" fill="#1A2C6B"/>
</g>
<path d="M184.741 167.927C193.237 185.809 194.54 202.818 187.651 205.92C184.287 207.434 180.513 205.202 176.39 202.08C172.268 198.959 164.142 188.308 159.795 179.158C151.299 161.277 151.122 146.69 156.885 141.166C162.648 135.641 166.886 140.101 170.894 144.56C174.903 149.019 180.652 159.322 184.741 167.927Z" fill="url(#paint1_linear_348_9481)"/>
<mask id="mask1_348_9481" style="mask-type:alpha" maskUnits="userSpaceOnUse" x="152" y="138" width="41" height="69">
<path d="M184.741 167.927C193.237 185.809 194.54 202.818 187.651 205.92C184.287 207.434 180.513 205.202 176.39 202.08C172.268 198.959 164.142 188.308 159.795 179.158C151.299 161.277 151.121 146.69 156.885 141.166C162.648 135.641 166.886 140.101 170.894 144.56C174.902 149.019 180.652 159.322 184.741 167.927Z" fill="black"/>
</mask>
<g mask="url(#mask1_348_9481)">
<path opacity="0.4" d="M181.43 211.445C191.966 186.028 169.825 150.505 163.565 132.074L212.121 194.946C202.654 203.864 177.436 221.078 181.43 211.445Z" fill="#1A2C6B"/>
</g>
<path d="M15.4994 167.928C7.00352 185.809 5.70057 202.819 12.5892 205.92C15.9531 207.434 19.7271 205.202 23.8498 202.08C27.9725 198.959 36.0982 188.308 40.4454 179.158C48.9414 161.277 49.1187 146.691 43.3557 141.166C37.5926 135.641 33.3541 140.101 29.3459 144.56C25.3377 149.019 19.588 159.322 15.4994 167.928Z" fill="url(#paint2_linear_348_9481)"/>
<mask id="mask2_348_9481" style="mask-type:alpha" maskUnits="userSpaceOnUse" x="8" y="138" width="40" height="69">
<path d="M15.4994 167.928C7.00352 185.809 5.70057 202.819 12.5892 205.92C15.9531 207.434 19.7271 205.202 23.8498 202.08C27.9725 198.959 36.0982 188.308 40.4454 179.158C48.9414 161.277 49.1187 146.691 43.3557 141.166C37.5926 135.641 33.3541 140.101 29.3459 144.56C25.3377 149.019 19.588 159.322 15.4994 167.928Z" fill="black"/>
</mask>
<g mask="url(#mask2_348_9481)">
<path opacity="0.4" d="M18.8107 211.444C8.27481 186.028 30.4154 150.505 36.6758 132.074L-11.8807 194.946C-2.41373 203.864 22.8039 221.078 18.8107 211.444Z" fill="#1A2C6B"/>
</g>
<path d="M38.1436 53.7285C36.0446 51.6395 34.4139 49.2268 33.2865 46.6367C30.6846 40.6974 30.6943 33.8484 33.5988 27.9437C36.5474 21.9581 42.1124 17.6953 48.5904 16.1652C50.421 15.7258 52.3298 15.51 54.2727 15.5369C58.7006 40.6974 38.1436 53.7285 38.1436 53.7285Z" fill="url(#paint3_linear_348_9481)"/>
<path opacity="0.4" d="M38.1432 53.7285C36.0442 51.6395 34.4135 49.2268 33.2861 46.6367C35.8675 42.1543 38.4605 37.3827 41.0183 32.326C43.8364 26.7489 46.3484 21.3453 48.5901 16.1652C50.4206 15.7258 52.3294 15.51 54.2724 15.5369C48.8961 28.2675 43.5195 40.998 38.1432 53.7285Z" fill="#1A2C6B"/>
<path d="M163.78 54.9776C165.908 52.9181 167.572 50.5283 168.735 47.9542C171.42 42.0516 171.506 35.2032 168.684 29.2587C165.819 23.2326 160.314 18.8927 153.858 17.2725C152.034 16.8076 150.128 16.5652 148.185 16.5651C143.407 41.6614 163.78 54.9776 163.78 54.9776Z" fill="url(#paint4_linear_348_9481)"/>
<path opacity="0.4" d="M163.78 54.9773C165.908 52.9177 167.572 50.5279 168.736 47.9538C166.217 43.4358 163.691 38.6286 161.204 33.5367C158.464 27.921 156.028 22.4829 153.859 17.2721C152.034 16.8073 150.129 16.5649 148.186 16.5648C153.384 29.3689 158.582 42.1731 163.78 54.9773Z" fill="#1A2C6B"/>
<path d="M163.097 79.0885C158.007 98.0906 136.048 108.063 102.108 108.064C68.1675 108.066 44.2068 96.0962 37.4752 79.0885C30.7437 62.0807 40.026 29.9397 54.192 15.8218C65.209 4.84232 82.6321 0.000297546 98.0087 0.000297546C110.75 0.000297546 134.421 4.5744 146.811 15.3232C162.691 29.0807 168.187 60.0863 163.097 79.0885Z" fill="url(#paint5_linear_348_9481)"/>
<mask id="mask3_348_9481" style="mask-type:alpha" maskUnits="userSpaceOnUse" x="35" y="0" width="130" height="109">
<path d="M163.097 79.0884C158.007 98.0905 136.048 108.063 102.108 108.064C68.1675 108.066 44.2068 96.0961 37.4752 79.0884C30.7437 62.0806 40.026 29.9396 54.192 15.8217C65.209 4.8422 82.6321 0.000175476 98.0087 0.000175476C110.75 0.000175476 134.421 4.57428 146.811 15.3231C162.691 29.0806 168.187 60.0862 163.097 79.0884Z" fill="black"/>
</mask>
<g mask="url(#mask3_348_9481)">
<path opacity="0.4" d="M157.651 28.9199C101.749 12.9646 40.3575 28.9201 40.3575 28.9201L34.8672 40.8864L35.8654 60.8307C42.0213 64.1547 58.6254 70.8028 75.7951 70.8028C97.2574 70.8028 91.2679 58.3377 101.749 58.3377C112.231 58.3377 105.243 70.8028 126.706 70.8028C143.875 70.8028 161.145 64.1547 167.633 60.8307L171.626 49.3627C171.626 49.3627 213.553 44.8751 157.651 28.9199Z" fill="#1A2C6B"/>
</g>
<path d="M136.112 45.9734C136.112 52.2482 130.986 57.3328 124.663 57.3328C119.774 57.3328 115.603 54.3013 113.96 50.0256C113.476 48.766 113.209 47.4025 113.209 45.9734C113.209 39.6986 118.335 34.614 124.663 34.614C129.318 34.614 133.321 37.3681 135.107 41.3241C135.753 42.7454 136.112 44.317 136.112 45.9734Z" fill="#1A2C6B"/>
<path opacity="0.1" d="M135.095 41.3049C130.821 51.5549 120.219 51.2506 113.983 50.0565C113.495 48.8008 113.223 47.4372 113.219 46.0081C113.198 39.7371 118.307 34.6333 124.634 34.6102C129.289 34.5986 133.297 37.3528 135.095 41.3049Z" fill="white"/>
<path d="M85.3172 45.9734C85.3172 52.2444 80.1913 57.3328 73.8676 57.3328C68.9792 57.3328 64.8083 54.2974 63.1649 50.0256C62.6812 48.766 62.4141 47.3986 62.4141 45.9734C62.4141 39.6986 67.5404 34.614 73.8676 34.614C78.5226 34.614 82.5269 37.3681 84.3121 41.3241C84.9585 42.7454 85.3172 44.317 85.3172 45.9734Z" fill="#1A2C6B"/>
<g filter="url(#filter0_f_348_9481)">
<path d="M74.019 30.8955C65.744 30.8955 59.0117 37.6017 59.0117 45.8449C59.0117 47.6762 59.3428 49.4685 59.9958 51.1743C62.1978 56.928 67.8334 60.7942 74.019 60.7942C82.2919 60.7942 89.0224 54.088 89.0224 45.8449C89.0224 43.7105 88.5784 41.654 87.7029 39.7231C85.295 34.3633 79.9223 30.8955 74.019 30.8955ZM74.0169 33.0775C79.2262 33.0775 83.7096 36.173 85.7073 40.6193C86.4308 42.2168 86.8322 43.9832 86.8322 45.8449C86.8322 52.8931 81.0958 58.6122 74.019 58.6122C68.5485 58.6122 63.8809 55.2006 62.0418 50.3993C61.5004 48.9836 61.2015 47.4467 61.2015 45.8449C61.2015 38.7923 66.9362 33.0775 74.0169 33.0775Z" fill="#C6FCED" fill-opacity="0.5"/>
</g>
<path opacity="0.1" d="M84.3025 41.3011C80.0283 51.555 69.4258 51.2507 63.1907 50.0566C62.7023 48.8008 62.4309 47.4372 62.4258 46.0082C62.4049 39.7333 67.5141 34.6334 73.8413 34.6103C78.4963 34.5949 82.5041 37.3528 84.3025 41.3011Z" fill="white"/>
<path d="M73.8653 32.6726C66.4709 32.6726 60.4551 38.6393 60.4551 45.9734C60.4551 47.6028 60.7509 49.1975 61.3345 50.7151C63.3021 55.8344 68.3379 59.2742 73.8653 59.2742C81.2578 59.2742 87.2721 53.3075 87.2721 45.9734C87.2721 44.0744 86.8753 42.2447 86.093 40.5267C83.9414 35.758 79.1404 32.6726 73.8653 32.6726ZM73.8634 34.614C78.5184 34.614 82.5247 37.3681 84.3098 41.3241C84.9562 42.7455 85.315 44.3171 85.315 45.9734C85.315 52.2444 80.189 57.3328 73.8653 57.3328C68.977 57.3328 64.8061 54.2974 63.1627 50.0256C62.6789 48.766 62.4118 47.3986 62.4118 45.9734C62.4118 39.6986 67.5362 34.614 73.8634 34.614Z" fill="white"/>
<g filter="url(#filter1_f_348_9481)">
<path d="M124.537 30.8955C116.262 30.8955 109.529 37.6017 109.529 45.8449C109.529 47.6762 109.86 49.4685 110.513 51.1743C112.715 56.928 118.351 60.7942 124.537 60.7942C132.809 60.7942 139.54 54.088 139.54 45.8449C139.54 43.7105 139.096 41.654 138.22 39.7231C135.813 34.3633 130.44 30.8955 124.537 30.8955ZM124.534 33.0775C129.744 33.0775 134.227 36.173 136.225 40.6193C136.948 42.2168 137.35 43.9832 137.35 45.8449C137.35 52.8931 131.613 58.6122 124.537 58.6122C119.066 58.6122 114.398 55.2006 112.559 50.3993C112.018 48.9836 111.719 47.4467 111.719 45.8449C111.719 38.7923 117.454 33.0775 124.534 33.0775Z" fill="#C6FCED" fill-opacity="0.5"/>
</g>
<path d="M124.663 32.6726C117.268 32.6726 111.252 38.6393 111.252 45.9734C111.252 47.6028 111.548 49.2013 112.131 50.719C114.099 55.8344 119.135 59.2742 124.663 59.2742C132.055 59.2742 138.069 53.3075 138.069 45.9734C138.069 44.0782 137.672 42.2447 136.89 40.5267C134.738 35.758 129.937 32.6726 124.663 32.6726ZM124.661 34.614C129.315 34.614 133.322 37.3681 135.107 41.3241C135.753 42.7455 136.112 44.3171 136.112 45.9734C136.112 52.2482 130.986 57.3328 124.663 57.3328C119.774 57.3328 115.603 54.3013 113.96 50.0256C113.476 48.766 113.209 47.4025 113.209 45.9734C113.209 39.6986 118.333 34.614 124.661 34.614Z" fill="white"/>
<path opacity="0.8" d="M100.506 78.7565C105.245 76.6321 109.681 76.6535 113.319 77.6136C119.847 79.3321 123.808 84.0823 122.325 84.8916C120.016 86.1477 113.037 85.8629 106.597 88.7501C99.1971 92.0674 94.9859 96.1836 91.2511 98.0436C91.0847 98.13 90.9214 98.2061 90.7568 98.2799C86.8938 100.012 85.9668 85.2742 100.506 78.7565Z" fill="#1A2C6B"/>
<path d="M124.551 50.1069C124.01 48.0872 125.215 46.0117 127.242 45.4685C129.269 44.9255 131.35 46.1203 131.891 48.14C132.433 50.1597 131.227 52.2353 129.201 52.7783C127.173 53.3216 125.092 52.1266 124.551 50.1069Z" fill="white"/>
<path opacity="0.8" d="M115.847 46.7657C115.139 46.5273 114.929 42.4702 117.272 40.2699C119.354 38.3155 122.832 38.4079 123.096 39.0934C123.29 39.5976 121.658 40.1869 119.317 42.6189C116.852 45.1799 116.34 46.9337 115.847 46.7657Z" fill="white"/>
<path d="M73.2615 50.3936C72.9822 48.3213 74.442 46.4164 76.5216 46.1361C78.6013 45.8559 80.5132 47.3064 80.7925 49.3786C81.0718 51.4508 79.6121 53.3558 77.5324 53.636C75.4527 53.9163 73.5408 52.4658 73.2615 50.3936Z" fill="white"/>
<path opacity="0.8" d="M65.0696 46.7189C64.3976 46.3882 64.7067 42.3413 67.3109 40.4577C69.6253 38.7808 73.0625 39.3159 73.237 40.0295C73.3653 40.5543 71.6722 40.9307 69.0395 43.0444C66.2689 45.2703 65.5371 46.9483 65.0696 46.7189Z" fill="white"/>
<defs>
<filter id="filter0_f_348_9481" x="55.0117" y="26.8955" width="38.0107" height="37.8987" filterUnits="userSpaceOnUse" color-interpolation-filters="sRGB">
<feFlood flood-opacity="0" result="BackgroundImageFix"/>
<feBlend mode="normal" in="SourceGraphic" in2="BackgroundImageFix" result="shape"/>
<feGaussianBlur stdDeviation="2" result="effect1_foregroundBlur_348_9481"/>
</filter>
<filter id="filter1_f_348_9481" x="105.529" y="26.8955" width="38.0107" height="37.8987" filterUnits="userSpaceOnUse" color-interpolation-filters="sRGB">
<feFlood flood-opacity="0" result="BackgroundImageFix"/>
<feBlend mode="normal" in="SourceGraphic" in2="BackgroundImageFix" result="shape"/>
<feGaussianBlur stdDeviation="2" result="effect1_foregroundBlur_348_9481"/>
</filter>
<linearGradient id="paint0_linear_348_9481" x1="56.4249" y1="176.746" x2="130.574" y2="154.473" gradientUnits="userSpaceOnUse">
<stop stop-color="#EE5BB3"/>
<stop offset="1" stop-color="#3D8BFF"/>
</linearGradient>
<linearGradient id="paint1_linear_348_9481" x1="165.603" y1="187.492" x2="184.4" y2="175.944" gradientUnits="userSpaceOnUse">
<stop stop-color="#EE5BB3"/>
<stop offset="1" stop-color="#3D8BFF"/>
</linearGradient>
<linearGradient id="paint2_linear_348_9481" x1="34.6367" y1="187.493" x2="15.8406" y2="175.944" gradientUnits="userSpaceOnUse">
<stop stop-color="#EE5BB3"/>
<stop offset="1" stop-color="#3D8BFF"/>
</linearGradient>
<linearGradient id="paint3_linear_348_9481" x1="32.812" y1="29.1837" x2="51.3608" y2="32.4495" gradientUnits="userSpaceOnUse">
<stop stop-color="#B79BF5"/>
<stop offset="1" stop-color="#3D68FF"/>
</linearGradient>
<linearGradient id="paint4_linear_348_9481" x1="169.454" y1="30.5095" x2="150.861" y2="33.5161" gradientUnits="userSpaceOnUse">
<stop stop-color="#B79BF5"/>
<stop offset="1" stop-color="#3D68FF"/>
</linearGradient>
<linearGradient id="paint5_linear_348_9481" x1="43.1547" y1="38.6183" x2="137.496" y2="70.9892" gradientUnits="userSpaceOnUse">
<stop stop-color="#EE5BB3"/>
<stop offset="1" stop-color="#3D8BFF"/>
</linearGradient>
</defs>
</svg>
