<svg xmlns="http://www.w3.org/2000/svg" xmlns:xlink="http://www.w3.org/1999/xlink" width="118" height="114"><defs><path d="M.465.264L.438.293l.17.042L.559.171.465.264z" id="a"/><path id="c" d="M110.16 93.52c-.03.033-.062.066-.096.096a1.01 1.01 0 01.096.096 1.01 1.01 0 01.096-.096 1.087 1.087 0 01-.096-.096"/><path id="d" d="M115.56 66.616a2.16 2.16 0 100 4.32 2.16 2.16 0 100-4.32"/></defs><g fill="none" fill-rule="evenodd"><path d="M94.392 66.744H24.408V52.529c0-19.327 15.666-34.992 34.992-34.992s34.992 15.665 34.992 34.992v14.215z" fill="#e8f3ff"/><path fill="#b8daf2" d="M52.525 18.915l.841 2.814 9.546 13.303 5.463 13.122H81.27l2.048-4.374-5.632-15.528-8.548-9.338-8.052-1.337z"/><path fill="#e8f3ff" d="M24.408 66.744v43.74h69.984v-43.74"/><path d="M94.392 52.529v57.955h-8.354V42.84a34.871 34.871 0 00-4.736-17.594c.558.437 1.105.907 1.642 1.389a34.79 34.79 0 012.536 2.559 34.85 34.85 0 018.912 23.336" fill="#fff"/><path d="M58.383 27.072C43.73 31.25 33.003 44.743 33.003 60.73v49.787h-8.595V52.529c0-15.932 10.65-29.382 25.227-33.614a35.337 35.337 0 018.748 8.157" fill-opacity=".16" fill="#3d68ff"/><path d="M65.961 79.84H24.407a2.16 2.16 0 110-4.32h41.554a2.16 2.16 0 110 4.32m15.309 0h-4.374a2.16 2.16 0 110-4.32h4.374a2.16 2.16 0 110 4.32" fill="#253858"/><path fill="#3d68ff" d="M44.091 110.485h30.618v-21.87H44.091z"/><path d="M46.251 108.325h26.298v-17.55H46.251v17.55zm28.458 4.32H44.091a2.16 2.16 0 01-2.16-2.16v-21.87a2.16 2.16 0 012.16-2.16h30.618a2.16 2.16 0 012.16 2.16v21.87a2.16 2.16 0 01-2.16 2.16z" fill="#253858"/><path d="M103.14 112.645H15.66a2.16 2.16 0 110-4.32h87.48a2.16 2.16 0 110 4.32" fill="#2d3666"/><g fill="#253858"><path d="M59.4 112.645a2.16 2.16 0 01-2.16-2.16v-21.87a2.16 2.16 0 114.32 0v21.87a2.16 2.16 0 01-2.16 2.16"/><path d="M63.774 101.71h-8.748a2.16 2.16 0 110-4.32h8.748a2.16 2.16 0 110 4.32"/></g><path fill="#e8f3ff" d="M98.766 66.744H20.034"/><g fill="#253858"><path d="M98.766 68.905H20.034a2.16 2.16 0 110-4.32h78.732a2.16 2.16 0 110 4.32"/><path d="M26.568 66.744V52.529c.001-9.072 3.672-17.266 9.618-23.215A32.71 32.71 0 0159.4 19.696a32.6 32.6 0 0120.547 7.232l.023.017a30.2 30.2 0 011.53 1.297l-.013-.013a32.824 32.824 0 012.379 2.4l.004.005a32.686 32.686 0 018.361 21.895v14.215a2.16 2.16 0 104.32 0V52.529a37.015 37.015 0 00-9.463-24.777l.004.005A36.98 36.98 0 0084.4 25.04l-.013-.012a35.19 35.19 0 00-1.751-1.482l-1.334 1.7 1.356-1.682a36.912 36.912 0 00-23.259-8.187c-20.516.001-37.151 16.635-37.152 37.152v14.215a2.16 2.16 0 104.32 0"/><path d="M94.392 112.645H24.407a2.16 2.16 0 01-2.16-2.16v-43.74a2.16 2.16 0 114.32 0v41.58h65.665v-41.58a2.16 2.16 0 114.32 0v43.74a2.16 2.16 0 01-2.16 2.16"/></g><g fill="#2d3666"><path d="M64.663 19.921c9.658 5.71 16.15 16.229 16.149 28.233a2.16 2.16 0 104.32 0c-.002-13.59-7.35-25.501-18.271-31.953a2.16 2.16 0 10-2.198 3.72"/><path d="M65.476 50.315h17.496a2.16 2.16 0 100-4.32H65.476a2.16 2.16 0 100 4.32"/></g><g fill="#ffbe00"><path d="M60.471 30.167l11.504-13.581 12.367 12.367-19.016 16.096z"/><path d="M79.704 2.668L68.879 13.493c-1.709 1.707 1.062 7.247 6.185 12.371s10.664 7.894 12.372 6.186l10.825-10.826L79.704 2.668"/></g><g transform="translate(68.04 16.2)"><mask id="b" fill="#fff"><use xlink:href="#a"/></mask><path fill="#ffedd0" mask="url(#b)" d="M.438.336h.168V.171H.438z"/></g><g fill="#2d3253"><path d="M68.478 16.493a1.602 1.602 0 00-.322.511l.879.588a10.64 10.64 0 01-.389-1.055l-.168-.043"/><path d="M68.156 17.004c-.325.815-.131 2.044.488 3.513l1.162-1.372-.771-1.554-.879-.588"/></g><path fill="#e8e2d0" d="M60.886 32.21l-.789.931L63.803 44.5l-.619-3.59.621-.526-2.457-7.531z"/><path fill="#b8cbc5" d="M61.068 31.995l-.181.215.461.644z"/><path d="M66.561 44.801l-1.447 1.225c.118-.021.239-.03.362-.03h1.552l-.467-1.194" fill="#e8e2d0"/><path d="M67.027 45.995h-1.552a2.22 2.22 0 00-.362.03l-.637.539.475 1.459 2.155-1.825-.079-.203" fill="#2d3253"/><g fill="#fed250"><path d="M69.807 19.145l-1.162 1.372a16.07 16.07 0 00.791 1.602l-8.367 9.877.28.859 2.457 7.531.775-.656-1.328-3.401 9.339-11.022c-.81-1.441-1.005-2.46-.855-3.244a26.045 26.045 0 01-1.929-2.916"/><path d="M78.251 6.72l-9.652 9.651.049.164c.102.336.232.688.389 1.056a16.13 16.13 0 00.77 1.554 25.998 25.998 0 001.929 2.916c.118-.615.447-1.083.861-1.496l8.266-8.267c-.643-1.017-1.148-1.982-1.494-2.856-.543-.998-.923-1.921-1.118-2.723"/></g><path d="M96.713 22.773l-7.533 7.533.268.363 7.687-7.687-.422-.208" fill="#ffedd0"/><path d="M81.781 31.121l-.557.472.945 2.037c1.031.443 1.949.679 2.692.679l.127-.003-.57-2.016c-.793-.239-1.684-.634-2.637-1.169" fill="#f4f8ff"/><path d="M84.419 32.289l.57 2.017c.556-.022 1.005-.184 1.321-.499l.041-.041-.917-1.251a6.553 6.553 0 01-1.015-.227" fill="#fff"/><path fill="#f4f8ff" d="M66.624 43.951l-.297.252.233.598.309-.261z"/><path d="M77.818 34.476l-11.194 9.475.246.59 11.209-9.482-.261-.582" fill="#dceaf6"/><path d="M63.803 44.501l.337 1.957c.078-.062.161-.118.246-.168l-.583-1.788" fill="#f4f8ff"/><path d="M89.18 30.306l-1.744 1.744c-.341.341-.837.504-1.453.504-.174 0-.357-.013-.55-.039l.917 1.252 3.097-3.099-.268-.363m-7.955 1.288l-3.406 2.884.262.582 2.576-2.179 1.513.752-.945-2.038M64.386 46.29a2.32 2.32 0 00-.246.168l.059.341.276-.234-.09-.275" fill="#968d97"/><g fill="#ffebbf"><path d="M77.487 28.805L64.58 39.728l1.747 4.474.297-.252 15.157-12.83-1.743-1.085c-.672-.222-1.496-.639-2.551-1.23"/><path d="M91.663 20.275l-9.442 9.433a1.61 1.61 0 01-1.199.514c-.289 0-.613-.064-.984-.187l1.744 1.086c.953.534 1.845.93 2.637 1.169a6.58 6.58 0 001.014.226 4.15 4.15 0 00.551.039c.616 0 1.11-.162 1.453-.504l9.277-9.276-5.051-2.499"/></g><path d="M63.805 40.385l-.621.526.619 3.59.583 1.788a2.16 2.16 0 01.728-.264l1.447-1.225-.234-.598-1 .847-1.522-4.665" fill="#f4efdf"/><path d="M65.114 46.025a2.122 2.122 0 00-.727.265l.09.274.637-.539" fill="#968b8a"/><path fill="#ffe3aa" d="M64.58 39.729l-.775.656 1.522 4.665 1.001-.847z"/><path d="M98.262 21.225c-1.709 1.709-7.248-1.062-12.371-6.186s-7.895-10.663-6.186-12.37 7.247 1.061 12.371 6.185 7.895 10.663 6.186 12.371" fill="#3d68ff"/><path d="M65.48 50.315a2.16 2.16 0 01-2.16-2.16l-.132-2.831c-.428-4.982-1.931-9.644-4.471-13.882a32.58 32.58 0 00-2.055-3.064 32.968 32.968 0 00-8.208-7.654 2.16 2.16 0 112.361-3.618 37.32 37.32 0 019.286 8.657 36.551 36.551 0 012.328 3.468c2.875 4.795 4.579 10.081 5.061 15.7.1 1.028.15 2.091.15 3.224a2.16 2.16 0 01-2.16 2.16" fill="#2d3666"/><path d="M79.212 3.84a1.54 1.54 0 00-.626.374c-.514.514-.605 1.392-.335 2.507l1.082-1.081c-.712.712-.648 2.079.037 3.804 1.105 2.031 2.883 4.375 5.136 6.634a35.743 35.743 0 003.05 2.714c-1.561-1.971-2.685-3.867-3.244-5.427-3.318-3.732-5.286-7.442-5.1-9.525" fill="#9ac191"/><path d="M79.332 5.64l-1.081 1.081c.194.801.575 1.725 1.118 2.723-.684-1.725-.748-3.092-.037-3.804" fill="#9ab476"/><path d="M79.976 3.731c-.282 0-.539.036-.765.109-.185 2.082 1.782 5.792 5.1 9.525-.542-1.509-.554-2.701.08-3.335.327-.327.802-.483 1.392-.483 1.745 0 4.494 1.366 7.4 3.669a36.21 36.21 0 00-2.745-3.07c-3.924-3.931-8.108-6.414-10.462-6.414" fill="#3257d9"/><g fill="#253858"><path d="M65.328 47.21a2.15 2.15 0 01-1.649-.765 2.16 2.16 0 01.253-3.043L80.388 29.47a2.16 2.16 0 112.791 3.297L66.723 46.698a2.14 2.14 0 01-1.394.512M60.47 32.327a2.15 2.15 0 01-1.395-.512 2.16 2.16 0 01-.252-3.045l9.338-11.022a2.161 2.161 0 113.297 2.793L62.12 31.563a2.157 2.157 0 01-1.649.764"/><path d="M86.013 34.714c-3.532 0-8.423-3.269-12.476-7.322-5.377-5.378-9.375-12.234-6.184-15.426L78.176 1.141a2.16 2.16 0 013.054 0 2.16 2.16 0 010 3.054l-10.7 10.701c-.095.984 1.41 4.789 6.061 9.441s8.449 6.152 9.442 6.062l10.701-10.702a2.16 2.16 0 013.054 3.054L88.963 33.577c-.786.786-1.796 1.136-2.951 1.136"/></g><path d="M81.36 4.323c.132 1.278 1.737 4.868 6.057 9.189s7.912 5.926 9.189 6.057c-.131-1.277-1.736-4.868-6.057-9.189s-7.91-5.925-9.189-6.057M96.824 23.89c-1.138 0-2.59-.342-4.433-1.264-2.539-1.27-5.39-3.421-8.029-6.06-5.377-5.378-9.377-12.234-6.185-15.426s10.047.807 15.426 6.185c2.638 2.638 4.79 5.49 6.06 8.028 2.073 4.147 1.213 6.313.125 7.399-.603.604-1.539 1.137-2.964 1.137" fill="#2d3666"/><use xlink:href="#c" fill="#9ae0e6"/><path d="M110.16 89.296c-.467 0-.877.296-1.024.739l-.64 1.918-1.917.639c-.443.147-.739.557-.739 1.024s.296.877.739 1.025l1.917.639.64 1.917c.147.443.557.739 1.024.739s.877-.296 1.025-.739l.639-1.917 1.917-.639c.443-.148.739-.558.739-1.025s-.296-.877-.739-1.024l-1.917-.64-.639-1.917a1.077 1.077 0 00-1.025-.739m-.096 4.32a1.01 1.01 0 00.096-.096 1.01 1.01 0 00.096.096 1.01 1.01 0 00-.096.096 1.01 1.01 0 00-.096-.096" fill="#fff"/><use xlink:href="#c" x="-86.4" y="-85.32" fill="#9ae0e6"/><path d="M23.76 3.976c-.467 0-.877.296-1.024.738l-.639 1.918-1.918.639c-.443.147-.739.558-.739 1.025s.296.877.739 1.025l1.917.638.64 1.918c.147.443.557.739 1.024.739s.877-.296 1.025-.739l.639-1.918 1.917-.638c.443-.148.739-.558.739-1.025s-.296-.878-.739-1.025l-1.917-.639-.639-1.918a1.08 1.08 0 00-1.025-.738m-.096 4.32c.035-.03.066-.063.096-.096.03.033.062.066.096.096a1 1 0 00-.096.095 1 1 0 00-.096-.095" fill="#fff"/><path d="M5.4 61.391l-.055.166a1.084 1.084 0 01-.684.683l-.166.056.166.055c.322.107.576.362.684.684l.055.165.055-.165c.108-.322.362-.577.684-.684l.166-.055-.166-.056a1.084 1.084 0 01-.684-.683l-.055-.166" fill="#6250ff"/><path d="M5.4 56.896c-.467 0-.877.296-1.024.738l-.91 2.728-2.727.909A1.077 1.077 0 000 62.296a1.08 1.08 0 00.739 1.025l2.728.909.909 2.727c.147.443.557.739 1.024.739s.877-.296 1.024-.739l.909-2.727 2.728-.909a1.08 1.08 0 00.739-1.025c0-.467-.296-.877-.739-1.025l-2.728-.909-.909-2.728a1.076 1.076 0 00-1.024-.738m-.055 4.661l.055-.166.055.166c.108.322.362.576.684.683l.166.056-.166.055a1.087 1.087 0 00-.684.684l-.055.166-.055-.166a1.087 1.087 0 00-.684-.684l-.166-.055.166-.056c.322-.107.576-.361.684-.683" fill="#fff"/><path d="M109.08 43.031l-.055.166a1.084 1.084 0 01-.684.683l-.166.056.166.055c.322.108.576.361.684.684l.055.166.055-.166a1.08 1.08 0 01.683-.684l.166-.055-.166-.056a1.08 1.08 0 01-.683-.683l-.055-.166" fill="#6250ff"/><g fill="#fff"><path d="M109.08 38.536a1.08 1.08 0 00-1.025.738l-.909 2.728-2.727.909c-.443.148-.739.558-.739 1.025s.296.877.739 1.024l2.727.91.909 2.727c.148.443.558.739 1.025.739s.877-.296 1.024-.739l.909-2.727 2.728-.91c.442-.147.739-.557.739-1.024a1.08 1.08 0 00-.739-1.025l-2.728-.909-.909-2.728a1.076 1.076 0 00-1.024-.738m-.055 4.661l.055-.166.055.166c.107.322.361.576.683.684l.166.055-.166.055a1.08 1.08 0 00-.683.684l-.055.166-.055-.166a1.085 1.085 0 00-.684-.684l-.166-.055.166-.055c.322-.108.576-.362.684-.684"/><use xlink:href="#d"/><path d="M59.4 2.896a2.16 2.16 0 100 4.32 2.16 2.16 0 000-4.32"/><use xlink:href="#d" x="-103.68" y="23.76"/><use xlink:href="#d" x="-99.36" y="-33.48"/></g></g></svg>