<?xml version="1.0" encoding="UTF-8"?>
<svg width="82px" height="103px" viewBox="0 0 82 103" version="1.1" xmlns="http://www.w3.org/2000/svg" xmlns:xlink="http://www.w3.org/1999/xlink">
    <!-- Generator: Sketch 47.1 (45422) - http://www.bohemiancoding.com/sketch -->
    <title>flag</title>
    <desc>Created with Sketch.</desc>
    <defs></defs>
    <g id="CERTIFICATION" stroke="none" stroke-width="1" fill="none" fill-rule="evenodd">
        <g id="Certification--fin" transform="translate(-679.000000, -177.000000)" fill-rule="nonzero">
            <g id="flag" transform="translate(679.000000, 177.000000)">
                <path d="M81.981,58.1683482 C55.9544,38.289749 29.9276,78.0469475 3.901,58.1683482 C3.901,40.8547296 3.901,23.3272957 3.901,6.01367704 C29.9276,25.8922763 55.9544,-13.8649222 81.981,6.01367704 C81.981,23.3272957 81.981,40.6409144 81.981,58.1683482 Z" id="Shape" fill="#F2F2F2"></path>
                <g id="Group" transform="translate(3.800000, 0.000000)" fill="#40596B">
                    <path d="M13.1144,24.609786 C8.8478,23.9685409 4.3678,22.4722354 0.101,19.0523949 C0.101,14.7774942 0.101,10.2887782 0.101,6.01367704 C4.3676,9.21990272 8.8476,10.929823 13.1144,11.5710681 C13.1144,15.8461693 13.1144,20.12107 13.1144,24.609786 Z" id="Shape"></path>
                    <path d="M26.1276,36.3660136 C21.861,37.4346887 17.381,38.0759339 13.1142,37.4346887 C13.1142,33.1597879 13.1142,28.671072 13.1142,24.3959708 C17.3808,25.037216 21.8608,24.3959708 26.1276,23.3272957 C26.1276,27.8160117 26.1276,32.0909125 26.1276,36.3660136 Z" id="Shape"></path>
                    <path d="M13.1144,50.6870214 C8.8478,50.0457763 4.3678,48.5494708 0.101,45.1296304 C0.101,40.8547296 0.101,36.3660136 0.101,32.0909125 C4.3676,35.2971381 8.8476,37.0070584 13.1144,37.6483035 C13.1144,41.9234047 13.1144,46.1983054 13.1144,50.6870214 Z" id="Shape"></path>
                    <path d="M26.1276,62.443249 C21.861,63.5119241 17.381,64.1531693 13.1142,63.5119241 C13.1142,59.2370233 13.1142,54.7483074 13.1142,50.4732062 C17.3808,51.1144514 21.8608,50.4732062 26.1276,49.4045311 C26.1276,53.8932471 26.1276,58.1683482 26.1276,62.443249 Z" id="Shape"></path>
                    <path d="M39.141,19.0523949 C34.8744,20.7623152 30.3944,22.2586206 26.1276,23.5411109 C26.1276,19.2662101 26.1276,14.7774942 26.1276,10.502393 C30.3942,9.4337179 34.8742,7.72359728 39.141,6.01367704 C39.141,10.2885778 39.141,14.563679 39.141,19.0523949 Z" id="Shape"></path>
                    <path d="M52.1544,27.6021965 C47.8878,28.6708716 43.4078,30.3809922 39.141,32.0909125 C39.141,27.8160117 39.141,23.3272957 39.141,19.0521946 C43.4076,17.3422743 47.8876,15.6321537 52.1544,14.5634786 C52.1544,19.0523949 52.1544,23.3272957 52.1544,27.6021965 Z" id="Shape"></path>
                    <path d="M39.141,45.1296304 C34.8744,46.8395506 30.3944,48.335856 26.1276,49.6183463 C26.1276,45.3434455 26.1276,40.8547296 26.1276,36.5796284 C30.3942,35.5109533 34.8742,33.8008327 39.141,32.0909125 C39.141,36.3660136 39.141,40.6409144 39.141,45.1296304 Z" id="Shape"></path>
                    <path d="M52.1544,53.6796323 C47.8878,54.7483074 43.4078,56.458428 39.141,58.1683482 C39.141,53.8934475 39.141,49.4047315 39.141,45.1296304 C43.4076,43.4197101 47.8876,41.9234047 52.1544,40.6409144 C52.1544,45.1296304 52.1544,49.4045311 52.1544,53.6796323 Z" id="Shape"></path>
                    <path d="M65.1676,13.4948035 C60.901,12.8535584 56.421,13.4948035 52.1542,14.5634786 C52.1542,10.2885778 52.1542,5.79986187 52.1542,1.5247607 C56.4208,0.456085603 60.9008,-0.185159533 65.1676,0.456085603 C65.1676,4.73118677 65.1676,9.21990272 65.1676,13.4948035 Z" id="Shape"></path>
                    <path d="M78.181,32.0909125 C73.9144,28.8846868 69.4344,27.1747665 65.1676,26.5335214 C65.1676,22.2586206 65.1676,17.7699047 65.1676,13.4948035 C69.4342,14.1360486 73.9142,15.6323541 78.181,19.0521946 C78.181,23.3272957 78.181,27.6021965 78.181,32.0909125 Z" id="Shape"></path>
                    <path d="M65.1676,39.5722393 C60.901,38.9309942 56.421,39.5722393 52.1542,40.6409144 C52.1542,36.3660136 52.1542,31.8772977 52.1542,27.6021965 C56.4208,26.5335214 60.9008,25.8922763 65.1676,26.5335214 C65.1676,30.8084222 65.1676,35.2971381 65.1676,39.5722393 Z" id="Shape"></path>
                    <path d="M78.181,58.1683482 C73.9144,54.9621226 69.4344,53.2522023 65.1676,52.6109572 C65.1676,48.3360564 65.1676,43.8473405 65.1676,39.5722393 C69.4342,40.2134844 73.9142,41.7097899 78.181,45.1296304 C78.181,49.4045311 78.181,53.6796323 78.181,58.1683482 Z" id="Shape"></path>
                </g>
                <path d="M11.1544,10.074963 C8.8076,9.21990272 6.2476,7.93741245 3.901,6.01367704 C3.901,23.3272957 3.901,40.8547296 3.901,58.1683482 C6.2476,60.0920837 8.8076,61.3745739 11.1544,62.2296342 L11.1544,10.074963 L11.1544,10.074963 Z" id="Shape" fill="#231F20" opacity="0.1"></path>
                <path d="M4.1144,102.841693 L3.4744,102.841693 C1.5544,102.841693 0.061,101.345387 0.061,99.4216518 L0.061,3.66251167 C0.061,1.73877626 1.5544,0.242470817 3.4744,0.242470817 L4.1144,0.242470817 C6.0344,0.242470817 7.5278,1.73877626 7.5278,3.66251167 L7.5278,99.4218521 C7.5276,101.345387 6.0344,102.841693 4.1144,102.841693 Z" id="Shape" fill="#FF9F00"></path>
            </g>
        </g>
    </g>
</svg>