<svg width="49" height="55" xmlns="http://www.w3.org/2000/svg" xmlns:xlink="http://www.w3.org/1999/xlink"><defs><filter x="-17.1%" y="-10.6%" width="134.1%" height="129.8%" filterUnits="objectBoundingBox" id="a"><feOffset dy="2" in="SourceAlpha" result="shadowOffsetOuter1"/><feGaussianBlur stdDeviation="2" in="shadowOffsetOuter1" result="shadowBlurOuter1"/><feColorMatrix values="0 0 0 0 0.194453629 0 0 0 0 0.31385498 0 0 0 0 0.727779665 0 0 0 0.15 0" in="shadowBlurOuter1"/></filter><filter x="-78.1%" y="-27.5%" width="256.2%" height="177.1%" filterUnits="objectBoundingBox" id="c"><feOffset dy="2" in="SourceAlpha" result="shadowOffsetOuter1"/><feGaussianBlur stdDeviation="2" in="shadowOffsetOuter1" result="shadowBlurOuter1"/><feColorMatrix values="0 0 0 0 0.125490196 0 0 0 0 0.266666667 0 0 0 0 0.862745098 0 0 0 0.258522727 0" in="shadowBlurOuter1"/></filter><path d="M40.5 12.472c2.556 12.42-5.448 15.439-6.984 21.534-1.138 4.531.357 7.853 1.224 9.615.256.527.01 1.163-.53 1.361-9.188 3.358-16.79 1.742-19.417.71a1.867 1.867 0 0 1-1.174-1.617c-.02-.313-.035-.704-.035-1.189 0-3.64-2.954-3.368-4.26-3.076-1.306.287-5.28.813-5.28-3.02 0-3.665.336-7.664-1.43-8.238-.173-.057-1.494-.589-1.713-.646-.689-.188-1.072-.939-.827-1.622.684-1.893 3.194-5.125 4.133-6.6a1.965 1.965 0 0 0 .234-1.591C2.416 11.116 8.518 2.779 16.196.745 23.603-1.215 37.944.047 40.5 12.472" id="b"/><path d="M21.162 21.355c.834 0 .969-.108 1.292-.787.296-.625.942-1.195 1.884-1.738 1.104-.625 1.966-1.276 2.53-2.01.593-.733.89-1.792.89-3.123 0-3.72-1.858-5.16-5.815-5.16-.62 0-1.266.055-1.993.19-.942.19-1.157.408-1.157 1.304v.489c0 .896.242 1.113 1.13.896a9.314 9.314 0 0 1 2.046-.244c2.154 0 2.962.597 2.962 2.525 0 1.005-.512 1.82-1.023 2.227-.243.19-.646.462-1.212.815-1.884 1.222-2.88 2.471-2.961 3.72-.027.652.27.896 1.13.896h.297zM21 26.705c.97 0 1.75-.787 1.75-1.792 0-.978-.78-1.765-1.75-1.765-.969 0-1.75.787-1.75 1.765 0 1.005.781 1.792 1.75 1.792z" id="d"/></defs><g fill="none" fill-rule="evenodd"><g fill-rule="nonzero" transform="translate(4 2)"><use fill="#000" filter="url(#a)" xlink:href="#b"/><use fill="#FFF" xlink:href="#b"/></g><path d="M37.006 11.64a.74.74 0 0 1-.28.997.721.721 0 0 1-.974-.287c-1.302-2.42-4.215-.996-4.338-.939a.704.704 0 0 1-.959-.334.742.742 0 0 1 .327-.98c.29-.14.648-.281 1.04-.39-.086-.381-.24-.892-.505-1.33a.738.738 0 0 1 .23-1.007.703.703 0 0 1 .985.235c.393.646.607 1.382.709 1.882 1.367-.036 2.847.449 3.765 2.154M32.16 27.408c.632.308 1.463.24 2.458-.203a.715.715 0 0 1 .944.386.731.731 0 0 1-.377.96c-.77.338-1.49.51-2.153.51-.541 0-1.046-.115-1.505-.339-1.44-.709-1.868-2.268-1.883-2.336a.726.726 0 0 1 .5-.897.71.71 0 0 1 .878.511c.01.032.295 1.002 1.137 1.408M32.266 19.926c.24.292.562.448.99.485a.73.73 0 0 1 .658.787.72.72 0 0 1-.714.673h-.056c-1.321-.104-2.286-.97-2.643-2.367a4.476 4.476 0 0 1-.112-.569c-2.434-.375-3.439-2.513-3.632-3.686a.734.734 0 0 1 .586-.845.719.719 0 0 1 .827.6c.02.104.47 2.497 2.938 2.529.311 0 .587.213.679.521a.76.76 0 0 1 .01.37c-.005.204.051.99.47 1.502M25.078 7.912a.743.743 0 0 1 .454-.928.716.716 0 0 1 .908.464c.419 1.288.342 2.404-.234 3.327-1.041 1.658-3.337 1.935-3.434 1.945a.722.722 0 0 1-.79-.647.732.732 0 0 1 .632-.808c.036-.005 1.72-.219 2.388-1.288.331-.532.357-1.21.076-2.065M23.91 18.523a.735.735 0 0 1-.674.986.726.726 0 0 1-.673-.48c-.587-1.642-.21-3.608.949-4.896a.712.712 0 0 1 1.015-.042c.29.277.306.735.04 1.033-.805.897-1.07 2.257-.657 3.4" fill="#FFF"/><g transform="rotate(-1 139.864 -210.556)"><use fill="#000" filter="url(#c)" xlink:href="#d"/><use fill="#2044DC" xlink:href="#d"/></g></g></svg>