<svg xmlns="http://www.w3.org/2000/svg" width="92" height="92" viewBox="0 0 92 92">
    <g fill="#3D68FF" fill-rule="nonzero">
        <path d="M12.112 91.068c5.578 0 10.246-3.942 11.385-9.184 1.138 5.242 5.81 9.184 11.39 9.184 5.579 0 10.247-3.94 11.387-9.184 1.137 5.244 5.807 9.184 11.386 9.184 5.213 0 9.635-3.439 11.124-8.169 1.486 4.73 5.907 8.17 11.12 8.17 6.427 0 11.657-5.23 11.657-11.66 0-6.062-4.656-11.052-10.575-11.601-.81-5.644-5.663-9.999-11.528-9.999-5.576 0-10.25 3.943-11.385 9.19-1.135-5.247-5.807-9.19-11.387-9.19-5.579 0-10.25 3.943-11.388 9.19-1.136-5.247-5.808-9.19-11.387-9.19-5.85 0-10.692 4.335-11.52 9.956-.094-.002-.184-.013-.279-.013-6.43 0-11.66 5.228-11.66 11.658 0 6.428 5.23 11.658 11.66 11.658zm67.791-19.881c4.534 0 8.222 3.687 8.222 8.223 0 4.536-3.688 8.225-8.222 8.225-4.534 0-8.22-3.69-8.22-8.225 0-4.536 3.686-8.223 8.22-8.223zm-10.445-9.945c4.032 0 7.38 2.92 8.075 6.753a11.692 11.692 0 0 0-8.749 7.924 11.71 11.71 0 0 0-7.432-7.558c.544-4.01 3.954-7.119 8.106-7.119zm-11.8 9.945c4.536 0 8.227 3.687 8.227 8.223 0 4.536-3.69 8.225-8.226 8.225-4.534 0-8.223-3.69-8.223-8.225 0-4.536 3.689-8.223 8.223-8.223zm-10.973-9.945c4.075 0 7.445 2.991 8.087 6.888-4.246 1.088-7.566 4.5-8.498 8.806a11.698 11.698 0 0 0-7.697-8.577c.544-4.008 3.955-7.117 8.108-7.117zm-11.797 9.945c4.533 0 8.22 3.687 8.22 8.223 0 4.536-3.687 8.225-8.22 8.225-4.536 0-8.226-3.69-8.226-8.225 0-4.536 3.689-8.223 8.226-8.223zM23.91 61.242c4.076 0 7.441 2.991 8.085 6.888-4.244 1.09-7.565 4.502-8.5 8.806a11.696 11.696 0 0 0-7.697-8.577c.548-4.008 3.957-7.117 8.112-7.117zm-11.799 9.945c4.532 0 8.22 3.687 8.22 8.223 0 4.536-3.688 8.225-8.22 8.225-4.535 0-8.227-3.69-8.227-8.225 0-4.536 3.692-8.223 8.227-8.223z"/>
        <path d="M35.652 53.225c0 .946.77 1.716 1.717 1.716h44.103c.95 0 1.718-.77 1.718-1.716V2.222c0-.948-.769-1.718-1.718-1.718H22.543c-.95 0-1.717.77-1.717 1.718v9.793a13.173 13.173 0 0 0-2.245-.204c-7.44 0-13.492 6.053-13.492 13.493 0 3.878 1.655 7.442 4.366 9.937-2.421 1.805-4.455 4.464-5.54 6.646-.21.422-5.1 10.388-1.903 17.018.43.894 1.215 1.51 2.205 1.735.276.063.57.095.872.095 1.196-.002 2.533-.487 3.604-1.343 1.107-.886 1.554-2.715 2.309-6.143.42-1.902.895-4.057 1.474-5.28a1.716 1.716 0 1 0-3.106-1.467c-.743 1.577-1.24 3.83-1.722 6.007-.334 1.515-.838 3.807-1.1 4.2-.495.713-.873.839-1.496.593-1.748-3.824.19-10.378 1.937-13.886 1.216-2.445 3.498-4.94 5.526-6.093.842.428 1.721.8 2.666 1.044.146.04.288.057.432.057.764 0 1.459-.514 1.66-1.288a1.714 1.714 0 0 0-1.23-2.091 10.058 10.058 0 0 1-7.52-9.74c0-5.547 4.515-10.06 10.058-10.06 5.549 0 10.062 4.513 10.062 10.06a10.07 10.07 0 0 1-5.975 9.195c-.745.329-1.105 1.127-.955 1.897-.02.103-.064.2-.064.31 0 .948.77 1.718 1.717 1.718h9.148c1.565 0 4.502-.845 5.592-4.013.797-2.31 1.393-3.837 1.668-4.51.355-.24 1.049-.615 1.713-.418.532.154.795.616.918.937L39 39.565c-.097.203-1.004 1.976-3.507 1.976l-9.319.034a1.716 1.716 0 0 0-1.711 1.716v8.538a1.716 1.716 0 1 0 3.433 0v-6.828l7.603-.026c4.834 0 6.567-3.853 6.674-4.102l3.637-9.755c.096-.264.128-.546.091-.826-.16-1.197-1.065-3.406-3.449-4.104-2.277-.665-4.39.562-5.272 1.391a1.727 1.727 0 0 0-.4.574c-.031.071-.778 1.813-1.92 5.143-.554 1.6-2.185 1.688-2.348 1.693h-4.58c2.584-2.499 4.143-5.96 4.143-9.684 0-5.48-3.293-10.201-8-12.31.11-.225.181-.47.181-.736V3.94h55.496v47.565H37.369c-.947 0-1.717.768-1.717 1.719z"/>
        <path d="M55.765 40.9c-.571.293-.926.88-.926 1.52 0 .641.355 1.229.926 1.522l9.165 4.774a1.717 1.717 0 0 0 1.585 0l9.161-4.774c.571-.293.926-.88.926-1.521 0-.642-.355-1.229-.926-1.522l-8.236-4.294v-1.931c2.583-.75 4.49-3.116 4.49-5.937s-1.908-5.186-4.49-5.937v-3.47h5.578c.947 0 1.716-.768 1.716-1.717v-7.275c0-.947-.77-1.717-1.716-1.717H58.423c-.947 0-1.716.77-1.716 1.717v7.275c0 .95.769 1.717 1.716 1.717h5.582v3.47c-2.583.75-4.49 3.115-4.49 5.937 0 2.821 1.908 5.186 4.49 5.937v1.93l-8.24 4.295zm4.376-25.003v-3.84h11.162v3.84H60.14zm2.808 12.84a2.775 2.775 0 0 1 2.772-2.774 2.776 2.776 0 0 1 2.775 2.774 2.777 2.777 0 0 1-2.775 2.774 2.776 2.776 0 0 1-2.772-2.774zm2.773 10.846l5.446 2.838-5.446 2.836-5.445-2.836 5.445-2.838zM42.763 11.8h6.53a1.717 1.717 0 0 0 0-3.433h-6.53c-.95 0-1.717.767-1.717 1.717 0 .949.766 1.717 1.717 1.717zM39.61 17.468c0 .95.769 1.718 1.717 1.718h9.399c.947 0 1.716-.767 1.716-1.718 0-.95-.769-1.717-1.716-1.717h-9.399c-.948 0-1.717.768-1.717 1.717zM43.314 25.73h5.428c.95 0 1.716-.77 1.716-1.717 0-.95-.766-1.72-1.716-1.72h-5.428a1.719 1.719 0 1 0 0 3.436zM13.765 47.581a1.715 1.715 0 0 0 .315 1.77l3.226 3.62c.327.365.792.573 1.282.573.492 0 .959-.208 1.284-.575l3.215-3.62a1.715 1.715 0 0 0 .325-1.739l-3.126-8.439a1.715 1.715 0 0 0-1.593-1.12c-.752.068-1.354.426-1.614 1.09l-3.314 8.44zm4.865-2.995l1.202 3.253-1.247 1.405-1.239-1.39 1.284-3.268zM20.6 30.321c1.245 0 2.622-.348 3.983-1.324a1.717 1.717 0 0 0-2.004-2.79c-2.016 1.447-3.811.187-4.016.036a1.717 1.717 0 0 0-2.108 2.707c.8.632 2.334 1.371 4.145 1.371zM19.233 22.504a1.928 1.928 0 0 0-1.928-1.926 1.927 1.927 0 0 0-1.922 1.926 1.924 1.924 0 0 0 3.85 0zM25.71 22.504a1.927 1.927 0 0 0-1.925-1.926 1.927 1.927 0 0 0-1.922 1.926 1.924 1.924 0 0 0 3.847 0z"/>
    </g>
</svg>
