<?xml version="1.0" encoding="UTF-8"?>
<svg width="166px" height="166px" viewBox="0 0 166 166" version="1.1" xmlns="http://www.w3.org/2000/svg" xmlns:xlink="http://www.w3.org/1999/xlink">
    <title>Group 4</title>
    <defs>
        <circle id="path-1" cx="79" cy="79" r="79"></circle>
        <filter x="-4.4%" y="-3.2%" width="108.9%" height="108.9%" filterUnits="objectBoundingBox" id="filter-2">
            <feOffset dx="0" dy="2" in="SourceAlpha" result="shadowOffsetOuter1"></feOffset>
            <feGaussianBlur stdDeviation="2" in="shadowOffsetOuter1" result="shadowBlurOuter1"></feGaussianBlur>
            <feColorMatrix values="0 0 0 0 0.0901960784   0 0 0 0 0.168627451   0 0 0 0 0.301960784  0 0 0 0.06 0" type="matrix" in="shadowBlurOuter1"></feColorMatrix>
        </filter>
    </defs>
    <g id="Questions" stroke="none" stroke-width="1" fill="none" fill-rule="evenodd">
        <g id="Question--focus-inter-desktop" transform="translate(-638.000000, -283.000000)">
            <g id="Group-5" transform="translate(344.000000, 285.000000)">
                <g id="Group-4" transform="translate(298.000000, 0.000000)">
                    <g id="Oval">
                        <use fill="black" fill-opacity="1" filter="url(#filter-2)" xlink:href="#path-1"></use>
                        <use fill="#FFBE00" fill-rule="evenodd" xlink:href="#path-1"></use>
                    </g>
                    <g id="focus-head" transform="translate(33.873096, 27.654822)" fill="#253858" fill-rule="nonzero">
                        <g id="Group-15">
                            <path d="M89.8909417,27.3320388 C95.5639335,54.5506198 77.797618,61.1667233 74.3892936,74.5246247 C71.8641895,84.4544932 75.1819272,91.7333497 77.1068945,95.5956 C77.6730613,96.7497044 77.1295411,98.1437711 75.9292674,98.5779886 C55.5359378,105.936833 38.664166,102.394532 32.8326475,100.13203 C31.3606137,99.5606914 30.3301901,98.1780515 30.22828,96.5897296 C30.1829867,95.904123 30.1490167,95.0471148 30.1490167,93.9844246 C30.1490167,86.0085348 23.5928047,86.6027271 20.6940304,87.2426266 C17.7952562,87.8710993 8.97437684,89.0252037 8.97437684,80.6265232 C8.97437684,80.1321833 8.977207,79.6350739 8.98160596,79.137115 L8.98922333,78.3897796 C8.99346264,78.0160333 8.99822963,77.6423492 9.00299218,77.2695372 L9.01235365,76.5253162 C9.09371543,69.842113 9.05869215,63.6164483 5.80384253,62.5722167 C5.62884551,62.5150828 4.92745369,62.2431067 4.168637,61.9515994 L3.71020775,61.7759138 C2.94717989,61.4844065 2.22052113,61.2124304 1.99920136,61.1552965 C0.470550891,60.7439325 -0.37869937,59.0984768 0.164820797,57.6015691 C1.68214793,53.4536493 7.25322964,46.369048 9.33672362,43.1352704 C9.99347715,42.0954337 10.2086206,40.8270616 9.85759711,39.6501036 C5.3622324,24.361077 18.9049432,6.08966183 35.9465651,1.6332191 C52.3880502,-2.66324876 84.21795,0.102031084 89.8909417,27.3320388 Z M44.2405793,63.8608924 C41.3860774,63.910718 39.1264117,66.2306606 39.1758113,69.0607638 C39.2265832,71.969481 41.5658372,74.2091492 44.4203391,74.1593237 C47.274841,74.1094982 49.5345067,71.7895556 49.4837348,68.8808383 C49.4343352,66.0507351 47.0950812,63.8110669 44.2405793,63.8608924 Z M46.1912339,18.6125194 C44.3401413,18.6448303 42.4114609,18.8443683 40.2456753,19.296854 C37.4389259,19.9264005 36.8066453,20.6009279 36.8544035,23.3369942 L36.8804535,24.829394 C36.9282117,27.5654602 37.66413,28.2161056 40.3084677,27.5064576 C42.4728061,26.9710608 44.4805215,26.6872069 46.4120964,26.6534912 C52.8506792,26.5411053 55.2969866,28.3230048 55.3997391,34.2096928 C55.4532862,37.2774035 53.9675394,39.7914281 52.4600842,41.0617862 C51.7458742,41.6548073 50.5531121,42.5049907 48.8817979,43.6123362 C43.3131628,47.4416734 40.4018903,51.3075624 40.2270155,55.1256874 C40.1812664,57.1169586 41.0795965,57.8477055 43.6550297,57.8027511 L44.5403348,57.787298 C47.0352857,57.7437485 47.4319082,57.40508 48.3615152,55.3154446 C49.2135343,53.3930363 51.1147176,51.6181875 53.9026532,49.9107966 C57.1691408,47.9462436 59.7098407,45.9114229 61.3608938,43.6433219 C63.0924292,41.3738161 63.9212928,38.1248302 63.8503791,34.0621863 C63.6521102,22.7033657 58.0221299,18.4060103 46.1912339,18.6125194 Z" id="Combined-Shape"></path>
                        </g>
                    </g>
                </g>
            </g>
        </g>
    </g>
</svg>