<svg xmlns="http://www.w3.org/2000/svg" width="80" height="80" viewBox="0 0 80 80">
    <g fill="#3D68FF" fill-rule="evenodd">
        <path d="M32.889 31.573a6.585 6.585 0 0 0 6.578-6.577 6.585 6.585 0 0 0-6.578-6.578 6.585 6.585 0 0 0-6.578 6.578 6.584 6.584 0 0 0 6.578 6.577zm0-10.524a3.95 3.95 0 0 1 3.947 3.947 3.951 3.951 0 0 1-3.947 3.946 3.951 3.951 0 0 1-3.947-3.946 3.95 3.95 0 0 1 3.947-3.947z"/>
        <path d="M68.8 44.8h-1.6V27.2c0-7.94-6.46-14.4-14.4-14.4h-1.6V8c0-4.411-3.589-8-8-8h-6.4c-4.411 0-8 3.589-8 8v4.8h-1.6c-7.94 0-14.4 6.46-14.4 14.4v17.6h-1.6C5.026 44.8 0 49.826 0 56v16a1.6 1.6 0 0 0 1.6 1.6h11.2v4.8a1.6 1.6 0 0 0 1.6 1.6h51.2c.885 0 1.6-.715 1.6-1.6v-4.8h11.2c.885 0 1.6-.715 1.6-1.6V56c0-6.174-5.026-11.2-11.2-11.2zM32 8c0-2.646 2.154-4.8 4.8-4.8h6.4C45.846 3.2 48 5.354 48 8v4.8H32V8zM16 27.2C16 21.024 21.024 16 27.2 16h25.6C58.974 16 64 21.024 64 27.2v24h-9.6v-1.6c0-.885-.715-1.6-1.6-1.6-.885 0-1.6.715-1.6 1.6v1.6H28.8v-1.6a1.6 1.6 0 1 0-3.2 0v1.6H16v-24zM3.2 70.4V56c0-4.411 3.589-8 8-8h1.6v22.4H3.2zM64 76.8H16V54.4h9.6V56a1.6 1.6 0 1 0 3.2 0v-1.6h22.4V56c0 .885.715 1.6 1.6 1.6.885 0 1.6-.715 1.6-1.6v-1.6H64v22.4zm12.8-6.4h-9.6V48h1.6c4.411 0 8 3.589 8 8v14.4z"/>
    </g>
</svg>
