<svg width="130" height="146" xmlns="http://www.w3.org/2000/svg" xmlns:xlink="http://www.w3.org/1999/xlink"><defs><linearGradient x1="10.776%" y1="0%" x2="88.531%" y2="100%" id="a"><stop stop-color="#3D68FF" offset="0%"/><stop stop-color="#8845FF" offset="100%"/></linearGradient><linearGradient x1="10.776%" y1="0%" x2="88.531%" y2="100%" id="b"><stop stop-color="#AED0FF" offset="0%"/><stop stop-color="#C09DFF" offset="100%"/></linearGradient><linearGradient x1="25.733%" y1="0%" x2="73.838%" y2="100%" id="c"><stop stop-color="#257FFF" offset="0%"/><stop stop-color="#7228F7" offset="100%"/></linearGradient><linearGradient x1="0%" y1="17.698%" x2="99.116%" y2="82.302%" id="d"><stop stop-color="#5199FF" offset="0%"/><stop stop-color="#9860FE" offset="100%"/></linearGradient><linearGradient x1="50%" y1="0%" x2="50%" y2="100%" id="e"><stop stop-color="#FFCF43" offset="0%"/><stop stop-color="#FF9516" offset="100%"/></linearGradient><linearGradient x1="50%" y1="0%" x2="50%" y2="143.445%" id="f"><stop stop-color="#FFF" stop-opacity=".444" offset="0%"/><stop stop-color="#FFF" stop-opacity=".142" offset="100%"/></linearGradient><linearGradient x1="87.305%" y1="41.065%" x2=".693%" y2="58.683%" id="h"><stop stop-color="#D9DFFF" offset="0%"/><stop stop-color="#FFF" offset="100%"/></linearGradient><linearGradient x1="50%" y1="57.864%" x2="50%" y2="94.377%" id="k"><stop stop-color="#B5C0FF" offset="0%"/><stop stop-color="#E8EDFF" offset="100%"/></linearGradient><linearGradient x1="87.305%" y1="41.065%" x2=".693%" y2="58.683%" id="n"><stop stop-color="#D9DFFF" offset="0%"/><stop stop-color="#FFF" offset="100%"/></linearGradient><linearGradient x1="50%" y1="57.864%" x2="50%" y2="94.377%" id="q"><stop stop-color="#B5C0FF" offset="0%"/><stop stop-color="#E8EDFF" offset="100%"/></linearGradient><path d="M0 3.413l5.164 9.896L.144 25.5c6.74-1.434 26.103-3.866 26.103-3.866L25.673.4C24.637.3 23.514.24 22.337.24 12.918.24 0 3.413 0 3.413" id="g"/><path id="j" d="M4.893 14.04L.178 16.77l13.77 5.163V.134z"/><path d="M.78.386L.206 21.62s19.362 2.43 26.102 3.866l-5.02-12.19L26.451 3.4S13.533.225 4.114.225c-1.178 0-2.3.05-3.336.16" id="m"/><path id="p" d="M.206 21.92l13.77-5.163-4.715-2.732L.206.12z"/><path d="M52.384.118C17.963.118.178 4 .178 4v22.374s11.76-3.873 52.206-3.873c40.445 0 52.206 3.873 52.206 3.873V4S86.805.118 52.384.118z" id="s"/><path d="M52.384.118C17.963.118.178 4 .178 4v22.374s11.76-3.873 52.206-3.873c40.445 0 52.206 3.873 52.206 3.873V4S86.805.118 52.384.118z" id="u"/></defs><g fill="none" fill-rule="evenodd"><path d="M69.005 3.954c-2.204-1.272-5.798-1.272-8 0l-50.95 29.38C6.167 35.577 3 41.06 3 45.546v55.244c0 4.494 3.167 9.97 7.055 12.212l49.944 28.802c1.382.795 3.192 1.197 5 1.197 1.8 0 3.62-.402 5.002-1.197L119.954 113c3.888-2.243 7.046-7.718 7.046-12.212V45.546c0-4.486-3.16-9.97-7.046-12.212L69.005 3.954z" fill="#000" fill-rule="nonzero"/><path d="M62.004 2.5c.99 0 1.994.182 2.752.62h0l50.949 29.38c1.597.921 3.017 2.533 4.062 4.345 1.047 1.815 1.733 3.855 1.733 5.701h0v55.242c0 1.85-.684 3.888-1.73 5.701-1.046 1.813-2.467 3.423-4.065 4.345h0l-49.95 28.803c-1.038.597-2.41.864-3.756.864-1.35 0-2.716-.267-3.751-.863h0L8.304 107.836c-1.6-.922-3.023-2.534-4.071-4.348-1.047-1.813-1.733-3.85-1.733-5.698h0V42.546c0-1.845.687-3.883 1.734-5.697 1.048-1.814 2.471-3.427 4.07-4.35h0L59.255 3.12c.757-.437 1.76-.619 2.75-.619z" stroke-linejoin="bevel" fill="url(#a)" fill-rule="nonzero" stroke="url(#b)" stroke-width="5" transform="translate(3 3)"/><g transform="translate(33 29)" fill-rule="nonzero"><rect x=".298" width="62.235" height="89.332" rx="2.978" transform="translate(1 1)" fill="#000"/><rect stroke="url(#c)" fill="#FFF" x=".798" y=".5" width="63.235" height="90.332" rx="2.978"/><path d="M2.98.84L59.726 1c2.135 0 2.89.325 2.89 2.978l-.082 43.24c-10.2 2.634-20.62 3.95-31.266 3.95-10.646 0-21.067-1.318-31.267-3.95V3.978C.001 2.334 1.088.841 2.98.841z" transform="translate(1)" fill="url(#d)"/></g><g transform="translate(13.362 54.002)"><circle fill="#FFF" fill-rule="nonzero" opacity=".3" cx="51.196" cy="27.196" r="27.105"/><circle cx="23.196" cy="23.196" r="22.869" transform="translate(28 4)" fill="#000" fill-rule="nonzero"/><circle stroke="#FFF" stroke-width="4.62" fill="url(#e)" fill-rule="nonzero" cx="51.196" cy="27.196" r="20.559"/><path d="M51.05 65.88a4.567 4.567 0 014.573 4.56A4.567 4.567 0 0151.05 75c-.018 0-.034-.005-.052-.005-.018 0-.034.005-.052.005a4.565 4.565 0 01-4.57-4.56 4.566 4.566 0 014.57-4.56c.018 0 .034.005.052.005.018 0 .034-.005.052-.005zm26.135 5.268S70.344 74.9 65.042 69.27c0 0 7.355-2.9 12.144 1.876l-.001.002zM36.958 69.27c-5.302 5.63-12.144 1.876-12.144 1.876 4.79-4.777 12.144-1.876 12.144-1.876zm50.018-3.242s-6.52 4.284-12.254-.908c0 0 7.1-3.475 12.254.908zm-59.697-.91c-5.734 5.193-12.255.908-12.255.908 5.154-4.383 12.255-.908 12.255-.908zm46.987-8.85s-.304 7.552-7.55 9.326l-.334.077.004-.024c.086-.472 1.518-7.81 7.88-9.38v.001zm-46.53 0c6.363 1.57 7.795 8.907 7.88 9.38l.004.024c-7.572-1.62-7.885-9.402-7.885-9.402l.001-.002zm-6.647 3.846c-6.947 3.413-12.03-2.5-12.03-2.5 6.166-2.795 12.03 2.5 12.03 2.5zm71.856-2.5s-5.084 5.912-12.03 2.5c0 0 5.864-5.293 12.03-2.5zM22.64 48.575c4.376 4.2 2.623 10.558 2.208 11.842l-.037.11-.042.12C19.26 55.69 22.354 49.15 22.623 48.6l.018-.036-.001.011zm56.72 0l.008.016c.186.366 3.454 7.028-2.138 12.057 0 0-2.756-7.395 2.13-12.073zm-61.018-5.848c3.743 5.63-.568 12.245-.568 12.245-4.48-6.302.568-12.245.568-12.245zm65.316 0s5.047 5.943.568 12.245c0 0-4.31-6.614-.568-12.245zm15.902 5.627s-4.3 6.5-11.622 3.984c0 0 5.153-5.985 11.622-3.984zm-85.498 3.984C6.74 54.855 2.44 48.353 2.44 48.353c6.47-2 11.622 3.984 11.622 3.984v.001zM102 39.193s-3.087 7.154-10.74 5.96c0 0 4.018-6.796 10.74-5.96zm-91.26 5.96C3.087 46.347 0 39.193 0 39.193c6.72-.836 10.74 5.96 10.74 5.96zm3.802-12.95c3.3 5.906-1.526 12.164-1.526 12.164-3.856-6.44 1.215-11.842 1.512-12.15l.013-.014h.001zm72.917 0l.03.03c.43.452 5.294 5.79 1.496 12.133 0 0-4.816-6.258-1.526-12.164v.001zm14.294-3.276v.076c-.004.808-.243 7.832-7.263 9.813 0 0 .806-7.848 7.262-9.888l.001-.001zm-101.506 0c6.457 2.04 7.263 9.888 7.263 9.888-6.912-1.95-7.25-8.8-7.263-9.77v-.118zm14.058-5.95C15.403 29.64 8.752 33.9 8.752 33.9c-1.493-7.58 5.553-10.936 5.553-10.936v.013zm73.4 0S94.74 26.33 93.248 33.9c0 0-6.65-4.27-5.553-10.936l.01.013zm13.044-5.73v.004l.01.034c.168.576 2.053 7.563-4.252 11.468 0 0-1.4-7.765 4.24-11.506h.002zm-99.477 0c5.64 3.74 4.24 11.506 4.24 11.506-6.305-3.904-4.42-10.892-4.252-11.468l.01-.034v-.004h.002zm14.257-4.526c.416 6.744-6.633 10.32-6.633 10.32-.717-7.692 6.633-10.32 6.633-10.32zm70.963 0s7.35 2.627 6.633 10.32c0 0-7.05-3.576-6.633-10.32zm7.658-7.38l.004.004.028.028c.444.45 5.395 5.696 1.715 12.103 0 0-4.93-6.17-1.746-12.134l-.001-.001zM4.813 5c4.4 4.87 1.438 11.768 1.257 12.176l-.008.02C1.668 12.627 3.637 7.357 4.49 5.602l.083-.166a8.18 8.18 0 01.174-.324l.05-.084.01-.016L4.813 5z" fill="url(#f)" fill-rule="nonzero"/><circle stroke="#FFF" stroke-width="1.787" cx="51.196" cy="27.196" r="19.117"/></g><g fill-rule="nonzero"><path d="M65.126 91.941c2.236 0 4-.652 5.295-1.957 1.295-1.305 1.941-3.08 1.941-5.327 0-2.042-.56-3.66-1.677-4.85-1.117-1.19-2.68-1.788-4.683-1.788-1.158 0-2.165.217-3.02.652a4.8 4.8 0 00-1.994 1.839h-.18c.1-2.716.745-4.7 1.934-5.92 1.189-1.22 2.963-1.849 5.32-1.849 1.007 0 1.893.107 2.66.322v-2.872c-.765-.166-1.702-.25-2.8-.25-7.04 0-10.56 4.192-10.56 12.576 0 1.984.315 3.68.944 5.093.629 1.413 1.528 2.487 2.696 3.225 1.168.738 2.543 1.106 4.124 1.106zm-.06-2.843c-1.198 0-2.183-.47-2.953-1.414s-1.156-2.103-1.156-3.48c0-.577.186-1.14.56-1.693.374-.553.88-.987 1.526-1.304a4.733 4.733 0 012.115-.476c1.24 0 2.168.352 2.787 1.055.619.703.93 1.67.93 2.902 0 1.417-.33 2.506-.99 3.268-.66.762-1.6 1.143-2.817 1.143l-.002-.001z" fill="#000"/><path d="M65.126 91.941c2.236 0 4-.652 5.295-1.957 1.295-1.305 1.941-3.08 1.941-5.327 0-2.042-.56-3.66-1.677-4.85-1.117-1.19-2.68-1.788-4.683-1.788-1.158 0-2.165.217-3.02.652a4.8 4.8 0 00-1.994 1.839h-.18c.1-2.716.745-4.7 1.934-5.92 1.189-1.22 2.963-1.849 5.32-1.849 1.007 0 1.893.107 2.66.322v-2.872c-.765-.166-1.702-.25-2.8-.25-7.04 0-10.56 4.192-10.56 12.576 0 1.984.315 3.68.944 5.093.629 1.413 1.528 2.487 2.696 3.225 1.168.738 2.543 1.106 4.124 1.106zm-.06-2.843c-1.198 0-2.183-.47-2.953-1.414s-1.156-2.103-1.156-3.48c0-.577.186-1.14.56-1.693.374-.553.88-.987 1.526-1.304a4.733 4.733 0 012.115-.476c1.24 0 2.168.352 2.787 1.055.619.703.93 1.67.93 2.902 0 1.417-.33 2.506-.99 3.268-.66.762-1.6 1.143-2.817 1.143l-.002-.001z" fill="#FFF"/></g><g transform="translate(40 35)" fill="#FFF" fill-rule="nonzero"><rect opacity=".15" x="2.781" y=".726" width="45.048" height="2.291" rx="1.145"/><rect opacity=".5" x=".834" y="12.561" width="48.866" height="4.581" rx="2.291"/></g><g fill="#FFF" fill-rule="nonzero" opacity=".25"><path d="M84 127c-2.2 0-4-1.8-4-4s1.8-4 4-4 4 1.8 4 4-1.8 4-4 4zm0-6.1c-1.2 0-2.1 1-2.1 2.1 0 1.2 1 2.1 2.1 2.1 1.2 0 2.1-1 2.1-2.1 0-1.2-.9-2.1-2.1-2.1z"/></g><g><g transform="translate(0 116.082)"><mask id="i" fill="#fff"><use xlink:href="#g"/></mask><path d="M0 3.413l5.164 9.896L.144 25.5c6.74-1.434 26.103-3.866 26.103-3.866L25.673.4C24.637.3 23.514.24 22.337.24 12.918.24 0 3.413 0 3.413" fill="url(#h)" fill-rule="nonzero" mask="url(#i)"/></g><g transform="translate(12.3 115.782)"><mask id="l" fill="#fff"><use xlink:href="#j"/></mask><path fill="url(#k)" fill-rule="nonzero" mask="url(#l)" d="M4.893 14.04L.178 16.77l13.77 5.163V.134z"/></g><g transform="translate(102.9 116.082)"><mask id="o" fill="#fff"><use xlink:href="#m"/></mask><path d="M.78.386L.206 21.62s19.362 2.43 26.102 3.866l-5.02-12.19L26.451 3.4S13.533.225 4.114.225c-1.178 0-2.3.05-3.336.16" fill="url(#n)" fill-rule="nonzero" mask="url(#o)"/></g><g transform="translate(102.9 115.782)"><mask id="r" fill="#fff"><use xlink:href="#p"/></mask><path fill="url(#q)" fill-rule="nonzero" mask="url(#r)" d="M.206 21.92l13.77-5.163-4.715-2.732L.206.12z"/></g><g transform="translate(12.3 106.182)"><mask id="t" fill="#fff"><use xlink:href="#s"/></mask><path d="M52.384.118C17.963.118.178 4 .178 4v22.374s11.76-3.873 52.206-3.873c40.445 0 52.206 3.873 52.206 3.873V4S86.805.118 52.384.118z" fill="#F0F1FF" fill-rule="nonzero" mask="url(#t)"/></g><g transform="translate(12.3 106.182)"><mask id="v" fill="#fff"><use xlink:href="#u"/></mask><g mask="url(#v)"><path d="M24.142 17.564a1.71 1.71 0 001.528-1.86l-.768-7.83a1.22 1.22 0 00-1.33-1.099c-.68.067-1.17.664-1.105 1.338l.537 5.483-.068.007-.716-1.14-3.243-4.353c-.356-.48-.977-.8-1.63-.726a1.83 1.83 0 00-1.638 1.995l.755 7.7c.065.667.678 1.17 1.365 1.103a1.243 1.243 0 001.105-1.345l-.554-5.639.068-.007c.212.412.4.7.746 1.163l3.398 4.537c.363.48.951.735 1.55.672v.001z" fill="#000" fill-rule="nonzero"/><path d="M24.142 17.564a1.71 1.71 0 001.528-1.86l-.768-7.83a1.22 1.22 0 00-1.33-1.099c-.68.067-1.17.664-1.105 1.338l.537 5.483-.068.007-.716-1.14-3.243-4.353c-.356-.48-.977-.8-1.63-.726a1.83 1.83 0 00-1.638 1.995l.755 7.7c.065.667.678 1.17 1.365 1.103a1.243 1.243 0 001.105-1.345l-.554-5.639.068-.007c.212.412.4.7.746 1.163l3.398 4.537c.363.48.951.735 1.55.672v.001z" fill="#A7BEFF" fill-rule="nonzero"/><path d="M32.517 17.121c3.243-.164 5.092-2.448 4.924-5.773-.168-3.318-2.196-5.4-5.453-5.234-3.243.164-5.09 2.46-4.924 5.76.168 3.325 2.197 5.413 5.454 5.248l-.001-.001z" fill="#000" fill-rule="nonzero"/><path d="M32.517 17.121c3.243-.164 5.092-2.448 4.924-5.773-.168-3.318-2.196-5.4-5.453-5.234-3.243.164-5.09 2.46-4.924 5.76.168 3.325 2.197 5.413 5.454 5.248l-.001-.001z" fill="#A7BEFF" fill-rule="nonzero"/><path d="M32.423 14.99c-1.338.068-2.412-.87-2.533-3.26-.121-2.39.854-3.424 2.192-3.492 1.345-.068 2.412.864 2.533 3.253.121 2.389-.846 3.43-2.19 3.5l-.002-.001z" fill="#000" fill-rule="nonzero"/><path d="M32.423 14.99c-1.338.068-2.412-.87-2.533-3.26-.121-2.39.854-3.424 2.192-3.492 1.345-.068 2.412.864 2.533 3.253.121 2.389-.846 3.43-2.19 3.5l-.002-.001z" fill="#F0F1FF" fill-rule="nonzero"/><path d="M43.572 16.76c3.24-.035 4.348-1.865 4.322-4.306l-.057-5.318a1.34 1.34 0 00-1.354-1.318 1.34 1.34 0 00-1.319 1.347l.058 5.4c.012 1.135-.464 1.953-1.688 1.967-1.23.013-1.73-.754-1.744-1.93l-.058-5.386a1.342 1.342 0 00-1.352-1.332 1.347 1.347 0 00-1.346 1.36l.066 5.304c.027 2.48 1.14 4.247 4.482 4.21l-.01.002z" fill="#000" fill-rule="nonzero"/><path d="M43.572 16.76c3.24-.035 4.348-1.865 4.322-4.306l-.057-5.318a1.34 1.34 0 00-1.354-1.318 1.34 1.34 0 00-1.319 1.347l.058 5.4c.012 1.135-.464 1.953-1.688 1.967-1.23.013-1.73-.754-1.744-1.93l-.058-5.386a1.342 1.342 0 00-1.352-1.332 1.347 1.347 0 00-1.346 1.36l.066 5.304c.027 2.48 1.14 4.247 4.482 4.21l-.01.002z" fill="#A7BEFF" fill-rule="nonzero"/><path d="M53.685 16.685c.895.02 1.653-.566 1.937-1.367l2.758-7.715a1.25 1.25 0 00.063-.388 1.214 1.214 0 00-1.2-1.25 1.22 1.22 0 00-1.181.843l-1.8 5.52c-.242.74-.393 1.407-.475 1.754l-.11-.002-.4-1.773-1.545-5.592a1.228 1.228 0 00-1.143-.893c-.73-.016-1.23.562-1.243 1.197-.005.132.01.264.046.391l2.423 7.826c.25.812.974 1.43 1.87 1.45v-.001z" fill="#000" fill-rule="nonzero"/><path d="M53.685 16.685c.895.02 1.653-.566 1.937-1.367l2.758-7.715a1.25 1.25 0 00.063-.388 1.214 1.214 0 00-1.2-1.25 1.22 1.22 0 00-1.181.843l-1.8 5.52c-.242.74-.393 1.407-.475 1.754l-.11-.002-.4-1.773-1.545-5.592a1.228 1.228 0 00-1.143-.893c-.73-.016-1.23.562-1.243 1.197-.005.132.01.264.046.391l2.423 7.826c.25.812.974 1.43 1.87 1.45v-.001z" fill="#A7BEFF" fill-rule="nonzero"/><path d="M66.132 17.04A1.095 1.095 0 0067.264 16a1.086 1.086 0 00-1.027-1.124l-3.953-.192.1-2.055 3.032.147a1.064 1.064 0 001.103-1.014 1.06 1.06 0 00-1-1.102l-3.032-.147.1-2.055 3.673.178a1.085 1.085 0 001.13-1.02 1.09 1.09 0 00-1.026-1.146l-5.14-.25c-.772-.037-1.215.36-1.252 1.13l-.397 8.18c-.037.772.366 1.21 1.137 1.246l5.42.263v.001z" fill="#000" fill-rule="nonzero"/><path d="M66.132 17.04A1.095 1.095 0 0067.264 16a1.086 1.086 0 00-1.027-1.124l-3.953-.192.1-2.055 3.032.147a1.064 1.064 0 001.103-1.014 1.06 1.06 0 00-1-1.102l-3.032-.147.1-2.055 3.673.178a1.085 1.085 0 001.13-1.02 1.09 1.09 0 00-1.026-1.146l-5.14-.25c-.772-.037-1.215.36-1.252 1.13l-.397 8.18c-.037.772.366 1.21 1.137 1.246l5.42.263v.001z" fill="#A7BEFF" fill-rule="nonzero"/><path d="M76.47 17.865a1.28 1.28 0 001.368-1.174 1.466 1.466 0 00-.038-.42l-2.065-7.795c-.23-.887-1.01-1.562-2.045-1.638-1.03-.076-1.9.477-2.256 1.32l-3.186 7.41c-.05.133-.09.274-.1.41-.05.695.473 1.3 1.175 1.36a1.262 1.262 0 001.278-.8l.57-1.432 3.797.28.35 1.5a1.28 1.28 0 001.149.969l.003.01z" fill="#000" fill-rule="nonzero"/><path d="M76.47 17.865a1.28 1.28 0 001.368-1.174 1.466 1.466 0 00-.038-.42l-2.065-7.795c-.23-.887-1.01-1.562-2.045-1.638-1.03-.076-1.9.477-2.256 1.32l-3.186 7.41c-.05.133-.09.274-.1.41-.05.695.473 1.3 1.175 1.36a1.262 1.262 0 001.278-.8l.57-1.432 3.797.28.35 1.5a1.28 1.28 0 001.149.969l.003.01z" fill="#A7BEFF" fill-rule="nonzero"/><path d="M74.462 13.282l-2.482-.183.825-2.085a29.82 29.82 0 00.621-1.736l.164.012.36 1.81.51 2.183.002-.001z" fill="#000" fill-rule="nonzero"/><path d="M74.462 13.282l-2.482-.183.825-2.085a29.82 29.82 0 00.621-1.736l.164.012.36 1.81.51 2.183.002-.001z" fill="#F0F1FF" fill-rule="nonzero"/><path d="M83.33 18.618c3.225.316 4.525-1.384 4.763-3.813l.518-5.293a1.34 1.34 0 00-1.204-1.457 1.34 1.34 0 00-1.457 1.197l-.526 5.366c-.11 1.13-.673 1.892-1.89 1.772-1.225-.12-1.64-.937-1.525-2.107l.525-5.36a1.34 1.34 0 00-1.202-1.47 1.347 1.347 0 00-1.485 1.208l-.517 5.28c-.242 2.47.673 4.345 4 4.67v.007z" fill="#000" fill-rule="nonzero"/><path d="M83.33 18.618c3.225.316 4.525-1.384 4.763-3.813l.518-5.293a1.34 1.34 0 00-1.204-1.457 1.34 1.34 0 00-1.457 1.197l-.526 5.366c-.11 1.13-.673 1.892-1.89 1.772-1.225-.12-1.64-.937-1.525-2.107l.525-5.36a1.34 1.34 0 00-1.202-1.47 1.347 1.347 0 00-1.485 1.208l-.517 5.28c-.242 2.47.673 4.345 4 4.67v.007z" fill="#A7BEFF" fill-rule="nonzero"/></g></g></g></g></svg>
