<svg xmlns="http://www.w3.org/2000/svg" xmlns:xlink="http://www.w3.org/1999/xlink" width="188" height="204" xmlns:v="https://vecta.io/nano"><style><![CDATA[.B{fill:#000}.C{fill:#fff}.D{fill:#a7beff}.E{fill-rule:nonzero}.F{fill:#f0f1ff}]]></style><defs><linearGradient x1="10.7755102%" y1="0%" x2="88.5307407%" y2="100%" id="A"><stop stop-color="#388aff" offset="0%"/><stop stop-color="#985fff" offset="100%"/></linearGradient><linearGradient x1="10.7755102%" y1="0%" x2="88.5307407%" y2="100%" id="B"><stop stop-color="#aed0ff" offset="0%"/><stop stop-color="#c09dff" offset="100%"/></linearGradient><path d="M66.005.954c-2.204-1.272-5.798-1.272-8 0l-50.95 29.38C3.167 32.577 0 38.06 0 42.546V97.79c0 4.494 3.167 9.97 7.055 12.212l49.944 28.802c1.382.795 3.192 1.197 5 1.197 1.8 0 3.62-.402 5.002-1.197L116.954 110c3.888-2.243 7.046-7.718 7.046-12.212V42.546c0-4.486-3.16-9.97-7.046-12.212L66.005.954z" id="C"/><filter x="-37.5%" y="-32.5%" width="175.0%" height="166.4%" id="D"><feMorphology radius="7.5" operator="dilate" in="SourceAlpha"/><feOffset dy="1"/><feGaussianBlur stdDeviation="9.5"/><feComposite in2="SourceAlpha" operator="out"/><feColorMatrix values="0 0 0 0 0.51372549   0 0 0 0 0.411764706   0 0 0 0 1  0 0 0 0.17 0"/></filter><linearGradient x1="25.7327778%" y1="0%" x2="73.8380168%" y2="100%" id="E"><stop stop-color="#257fff" offset="0%"/><stop stop-color="#7228f7" offset="100%"/></linearGradient><rect id="F" x=".298" width="62.235" height="89.332" rx="2.978"/><filter x="-25.7%" y="-11.2%" width="151.4%" height="135.8%" id="G"><feMorphology radius="1" operator="dilate" in="SourceAlpha"/><feOffset dy="6"/><feGaussianBlur stdDeviation="4"/><feComposite in2="SourceAlpha" operator="out"/><feColorMatrix values="0 0 0 0 0   0 0 0 0 0   0 0 0 0 0  0 0 0 0.1 0" result="D"/><feMorphology radius="1" operator="dilate" in="SourceAlpha"/><feOffset dy="4"/><feGaussianBlur stdDeviation="3"/><feComposite in2="SourceAlpha" operator="out"/><feColorMatrix values="0 0 0 0 0.0470588235   0 0 0 0 0.0862745098   0 0 0 0 0.22745098  0 0 0 0.1 0" result="H"/><feMerge><feMergeNode in="D"/><feMergeNode in="H"/></feMerge></filter><linearGradient x1="0%" y1="17.8178967%" x2="99.1156684%" y2="82.1821033%" id="H"><stop stop-color="#5199ff" offset="0%"/><stop stop-color="#9860fe" offset="100%"/></linearGradient><path d="M2.978 0h56.577a2.98 2.98 0 0 1 2.978 2.978v43.24c-10.2 2.634-20.62 3.95-31.266 3.95S10.2 48.85 0 46.218V2.978A2.98 2.98 0 0 1 2.978 0z" id="I"/><linearGradient x1="50%" y1="0%" x2="50%" y2="100%" id="J"><stop stop-color="#ffcf43" offset="0%"/><stop stop-color="#ff9516" offset="100%"/></linearGradient><circle id="K" cx="51.196" cy="27.196" r="22.869"/><filter x="-56.8%" y="-41.5%" width="213.7%" height="213.7%" id="L"><feOffset dy="7" in="SourceAlpha"/><feGaussianBlur stdDeviation="7.5"/><feComposite in2="SourceAlpha" operator="out"/><feColorMatrix values="0 0 0 0 0.945098039   0 0 0 0 0.540864206   0 0 0 0 0.254901961  0 0 0 0.32 0"/></filter><linearGradient x1="50%" y1="1.11022302e-14%" x2="50%" y2="143.444839%" id="M"><stop stop-color="#fff" stop-opacity=".444" offset="0%"/><stop stop-color="#fff" stop-opacity=".142" offset="100%"/></linearGradient><path d="M51.764 38c2.236 0 4-.652 5.295-1.957S59 32.963 59 30.716c0-2.042-.56-3.66-1.677-4.85s-2.68-1.788-4.683-1.788c-1.158 0-2.165.217-3.02.652a4.8 4.8 0 0 0-1.994 1.839h0-.18c.1-2.716.745-4.7 1.934-5.92S52.343 18.8 54.7 18.8c1.007 0 1.893.107 2.66.322h0V16.25c-.765-.166-1.702-.25-2.8-.25C47.52 16 44 20.192 44 28.576c0 1.984.315 3.68.944 5.093s1.528 2.487 2.696 3.225S50.183 38 51.764 38zm-.06-2.843c-1.198 0-2.183-.47-2.953-1.414s-1.156-2.103-1.156-3.48c0-.577.186-1.14.56-1.693s.88-.987 1.526-1.304 1.35-.476 2.115-.476c1.24 0 2.168.352 2.787 1.055s.93 1.67.93 2.902c0 1.417-.33 2.506-.99 3.268s-1.6 1.143-2.817 1.143z" id="N"/><filter x="-56.7%" y="-29.5%" width="213.3%" height="177.3%" id="O"><feOffset dy="2" in="SourceAlpha"/><feGaussianBlur stdDeviation="2.5"/><feComposite in2="SourceAlpha" operator="out"/><feColorMatrix values="0 0 0 0 0   0 0 0 0 0   0 0 0 0 0  0 0 0 0.1 0" result="C"/><feOffset dy="2" in="SourceAlpha"/><feGaussianBlur stdDeviation="2.5"/><feComposite in2="SourceAlpha" operator="out"/><feColorMatrix values="0 0 0 0 0   0 0 0 0 0   0 0 0 0 0  0 0 0 0.07 0" result="F"/><feMerge><feMergeNode in="C"/><feMergeNode in="F"/></feMerge></filter><path d="M0 3.413l5.164 9.896L.144 25.5c6.74-1.434 26.103-3.866 26.103-3.866h0L25.673.4C24.637.3 23.514.24 22.337.24h0C12.918.24 0 3.413 0 3.413" id="P"/><linearGradient x1="87.3053868%" y1="41.064709%" x2="0.693123171%" y2="58.6832492%" id="Q"><stop stop-color="#d9dfff" offset="0%"/><stop stop-color="#fff" offset="100%"/></linearGradient><path id="R" d="M4.893 14.04L.178 16.77l13.77 5.163V.134z"/><linearGradient x1="50.0000928%" y1="57.8640074%" x2="50.0000928%" y2="94.3773501%" id="S"><stop stop-color="#b5c0ff" offset="0%"/><stop stop-color="#e8edff" offset="100%"/></linearGradient><path d="M.78.386L.206 21.62s19.362 2.43 26.102 3.866h0l-5.02-12.19 5.163-9.896S13.533.225 4.114.225h0c-1.178 0-2.3.05-3.336.16" id="T"/><linearGradient x1="87.3053868%" y1="41.0645118%" x2="0.693123171%" y2="58.6834408%" id="U"><stop stop-color="#d9dfff" offset="0%"/><stop stop-color="#fff" offset="100%"/></linearGradient><path id="V" d="M.206 21.92l13.77-5.163-4.715-2.732L.206.12z"/><path d="M52.384.118C17.963.118.178 4 .178 4h0v22.374s11.76-3.873 52.206-3.873h0c40.445 0 52.206 3.873 52.206 3.873h0V4S86.805.118 52.384.118z" id="W"/><path d="M8.442 11.746a1.71 1.71 0 0 0 1.528-1.86l-.768-7.83A1.22 1.22 0 0 0 7.872.957c-.68.067-1.17.664-1.105 1.338l.537 5.483-.068.007-.716-1.14-3.243-4.353c-.356-.48-.977-.8-1.63-.726A1.83 1.83 0 0 0 .009 3.561l.755 7.7c.065.667.678 1.17 1.365 1.103.667-.065 1.17-.678 1.105-1.345L2.68 5.38l.068-.007c.212.412.4.7.746 1.163l3.398 4.537a1.72 1.72 0 0 0 1.55.672z" id="X"/><filter x="-50.1%" y="-52.5%" width="200.2%" height="187.6%" id="Y"><feOffset dy="-1" in="SourceAlpha"/><feGaussianBlur stdDeviation="1.5"/><feColorMatrix values="0 0 0 0 0   0 0 0 0 0   0 0 0 0 0  0 0 0 0.05 0"/></filter><path d="M16.817 11.303c3.243-.164 5.092-2.448 4.924-5.773-.168-3.318-2.196-5.4-5.453-5.234-3.243.164-5.09 2.46-4.924 5.76.168 3.325 2.197 5.413 5.454 5.248z" id="Z"/><filter x="-48.1%" y="-54.4%" width="196.2%" height="190.7%" id="a"><feOffset dy="-1" in="SourceAlpha"/><feGaussianBlur stdDeviation="1.5"/><feColorMatrix values="0 0 0 0 0   0 0 0 0 0   0 0 0 0 0  0 0 0 0.05 0"/></filter><path d="M16.723 9.172c-1.338.068-2.412-.87-2.533-3.26s.854-3.424 2.192-3.492c1.345-.068 2.412.864 2.533 3.253s-.846 3.43-2.19 3.5z" id="b"/><filter x="-105.4%" y="-88.8%" width="310.8%" height="248.0%" id="c"><feOffset dy="-1" in="SourceAlpha"/><feGaussianBlur stdDeviation="1.5"/><feColorMatrix values="0 0 0 0 0   0 0 0 0 0   0 0 0 0 0  0 0 0 0.05 0"/></filter><path d="M27.872 10.942c3.24-.035 4.348-1.865 4.322-4.306l-.057-5.318A1.34 1.34 0 0 0 30.783 0a1.34 1.34 0 0 0-1.319 1.347l.058 5.4c.012 1.135-.464 1.953-1.688 1.967-1.23.013-1.73-.754-1.744-1.93l-.058-5.386C26.025.653 25.417.058 24.68.066c-.76.008-1.354.616-1.346 1.36L23.4 6.73c.027 2.48 1.14 4.247 4.482 4.21z" id="d"/><filter x="-56.4%" y="-54.8%" width="212.8%" height="191.4%" id="e"><feOffset dy="-1" in="SourceAlpha"/><feGaussianBlur stdDeviation="1.5"/><feColorMatrix values="0 0 0 0 0   0 0 0 0 0   0 0 0 0 0  0 0 0 0.05 0"/></filter><path d="M37.985 10.867c.895.02 1.653-.566 1.937-1.367l2.758-7.715a1.25 1.25 0 0 0 .063-.388c.014-.636-.466-1.234-1.2-1.25a1.22 1.22 0 0 0-1.181.843l-1.8 5.52c-.242.74-.393 1.407-.475 1.754l-.11-.002-.4-1.773L36.032.897c-.146-.502-.596-.88-1.143-.893-.73-.016-1.23.562-1.243 1.197a1.25 1.25 0 0 0 .046.391l2.423 7.826c.25.812.974 1.43 1.87 1.45z" id="f"/><filter x="-55.0%" y="-55.2%" width="209.9%" height="192.0%" id="g"><feOffset dy="-1" in="SourceAlpha"/><feGaussianBlur stdDeviation="1.5"/><feColorMatrix values="0 0 0 0 0   0 0 0 0 0   0 0 0 0 0  0 0 0 0.05 0"/></filter><path d="M50.432 11.222c.587.028 1.103-.44 1.132-1.04.028-.587-.44-1.096-1.027-1.124l-3.953-.192.1-2.055 3.032.147c.574.028 1.075-.427 1.103-1.014.028-.574-.427-1.075-1-1.102l-3.032-.147.1-2.055 3.673.178c.587.028 1.102-.432 1.13-1.02A1.09 1.09 0 0 0 50.664.652l-5.14-.25c-.772-.037-1.215.36-1.252 1.13l-.397 8.18c-.037.772.366 1.21 1.137 1.246l5.42.263z" id="h"/><filter x="-63.9%" y="-55.4%" width="227.9%" height="192.4%" id="i"><feOffset dy="-1" in="SourceAlpha"/><feGaussianBlur stdDeviation="1.5"/><feColorMatrix values="0 0 0 0 0   0 0 0 0 0   0 0 0 0 0  0 0 0 0.05 0"/></filter><path d="M60.77 12.047a1.28 1.28 0 0 0 1.368-1.174c.01-.136-.007-.282-.038-.42l-2.065-7.795c-.23-.887-1.01-1.562-2.045-1.638-1.03-.076-1.9.477-2.256 1.32L52.548 9.75c-.05.133-.09.274-.1.41-.05.695.473 1.3 1.175 1.36.573.042 1.09-.297 1.278-.8l.57-1.432 3.797.28.35 1.5a1.28 1.28 0 0 0 1.149.969z" id="j"/><filter x="-51.6%" y="-54.4%" width="203.2%" height="190.6%" id="k"><feOffset dy="-1" in="SourceAlpha"/><feGaussianBlur stdDeviation="1.5"/><feColorMatrix values="0 0 0 0 0   0 0 0 0 0   0 0 0 0 0  0 0 0 0.05 0"/></filter><path d="M58.762 7.464l-2.482-.183.825-2.085a29.82 29.82 0 0 0 .621-1.736l.164.012.36 1.81.51 2.183z" id="l"/><filter x="-201.5%" y="-149.9%" width="503.0%" height="349.8%" id="m"><feOffset dy="-1" in="SourceAlpha"/><feGaussianBlur stdDeviation="1.5"/><feColorMatrix values="0 0 0 0 0   0 0 0 0 0   0 0 0 0 0  0 0 0 0.05 0"/></filter><path d="M67.63 12.8c3.225.316 4.525-1.384 4.763-3.813l.518-5.293a1.34 1.34 0 0 0-1.204-1.457 1.34 1.34 0 0 0-1.457 1.197L69.724 8.8c-.11 1.13-.673 1.892-1.89 1.772-1.225-.12-1.64-.937-1.525-2.107l.525-5.36c.073-.742-.467-1.4-1.202-1.47-.755-.074-1.413.466-1.485 1.208l-.517 5.28c-.242 2.47.673 4.345 4 4.67z" id="n"/><filter x="-53.6%" y="-53.6%" width="207.2%" height="189.3%" id="o"><feOffset dy="-1" in="SourceAlpha"/><feGaussianBlur stdDeviation="1.5"/><feColorMatrix values="0 0 0 0 0   0 0 0 0 0   0 0 0 0 0  0 0 0 0.05 0"/></filter></defs><g transform="translate(29 31)" fill="none" fill-rule="evenodd"><g transform="translate(3)"><mask id="p" class="C"><use xlink:href="#C"/></mask><use filter="url(#D)" xlink:href="#C" class="B"/><use stroke="url(#B)" stroke-width="5" fill="url(#A)" xlink:href="#C" stroke-linejoin="bevel"/><g mask="url(#p)"><g transform="translate(10 27)"><g transform="translate(21)"><use filter="url(#G)" xlink:href="#F" class="B"/><rect stroke="url(#E)" x="-.202" y="-.5" width="63.235" height="90.332" rx="2.978" class="C"/><use fill="url(#H)" xlink:href="#I" class="E"/></g><g transform="translate(.301 23.941)"><g transform="translate(.061)"><g transform="translate(0 .061)"><circle opacity=".3" cx="51.196" cy="27.196" r="27.105" class="C E"/><use filter="url(#L)" xlink:href="#K" class="B"/><circle stroke="#fff" stroke-width="4.62" stroke-linejoin="square" fill="url(#J)" cx="51.196" cy="27.196" r="20.559"/><path d="M51.05 65.88c2.525 0 4.573 2.042 4.573 4.56S53.576 75 51.05 75c-.018 0-.034-.005-.052-.005s-.034.005-.052.005c-2.525 0-4.57-2.042-4.57-4.56s2.047-4.56 4.57-4.56c.018 0 .034.005.052.005s.034-.005.052-.005zm26.135 5.268S70.344 74.9 65.042 69.27c0 0 7.355-2.9 12.144 1.876zM36.958 69.27c-5.302 5.63-12.144 1.876-12.144 1.876 4.79-4.777 12.144-1.876 12.144-1.876zm50.018-3.242s-6.52 4.284-12.254-.908c0 0 7.1-3.475 12.254.908zm-59.697-.91c-5.734 5.193-12.255.908-12.255.908 5.154-4.383 12.255-.908 12.255-.908zm46.987-8.85s-.304 7.552-7.55 9.326l-.334.077.004-.024c.086-.472 1.518-7.81 7.88-9.38zm-46.53 0c6.363 1.57 7.795 8.907 7.88 9.38l.004.024c-7.572-1.62-7.885-9.402-7.885-9.402zm-6.647 3.846c-6.947 3.413-12.03-2.5-12.03-2.5 6.166-2.795 12.03 2.5 12.03 2.5zm71.856-2.5s-5.084 5.912-12.03 2.5c0 0 5.864-5.293 12.03-2.5zM22.64 48.575c4.376 4.2 2.623 10.558 2.208 11.842l-.037.11-.042.12C19.26 55.69 22.354 49.15 22.623 48.6l.018-.036zm56.72 0l.008.016c.186.366 3.454 7.028-2.138 12.057 0 0-2.756-7.395 2.13-12.073zm-61.018-5.848c3.743 5.63-.568 12.245-.568 12.245-4.48-6.302.568-12.245.568-12.245zm65.316 0s5.047 5.943.568 12.245c0 0-4.31-6.614-.568-12.245zm15.902 5.627s-4.3 6.5-11.622 3.984c0 0 5.153-5.985 11.622-3.984zm-85.498 3.984C6.74 54.855 2.44 48.353 2.44 48.353c6.47-2 11.622 3.984 11.622 3.984zM102 39.193s-3.087 7.154-10.74 5.96c0 0 4.018-6.796 10.74-5.96zm-91.26 5.96C3.087 46.347 0 39.193 0 39.193c6.72-.836 10.74 5.96 10.74 5.96zm3.802-12.95c3.3 5.906-1.526 12.164-1.526 12.164-3.856-6.44 1.215-11.842 1.512-12.15l.013-.014zm72.917 0l.03.03c.43.452 5.294 5.79 1.496 12.133 0 0-4.816-6.258-1.526-12.164zm14.294-3.276v.076c-.004.808-.243 7.832-7.263 9.813 0 0 .806-7.848 7.262-9.888zm-101.506 0c6.457 2.04 7.263 9.888 7.263 9.888-6.912-1.95-7.25-8.8-7.263-9.77v-.118zm14.058-5.95C15.403 29.64 8.752 33.9 8.752 33.9c-1.493-7.58 5.553-10.936 5.553-10.936zm73.4 0S94.74 26.33 93.248 33.9c0 0-6.65-4.27-5.553-10.936zm13.044-5.73v.004l.01.034c.168.576 2.053 7.563-4.252 11.468 0 0-1.4-7.765 4.24-11.506zm-99.477 0c5.64 3.74 4.24 11.506 4.24 11.506-6.305-3.904-4.42-10.892-4.252-11.468l.01-.034v-.004zm14.257-4.526c.416 6.744-6.633 10.32-6.633 10.32-.717-7.692 6.633-10.32 6.633-10.32zm70.963 0s7.35 2.627 6.633 10.32c0 0-7.05-3.576-6.633-10.32zm7.658-7.38l.004.004.028.028c.444.45 5.395 5.696 1.715 12.103 0 0-4.93-6.17-1.746-12.134zM4.813 5c4.4 4.87 1.438 11.768 1.257 12.176l-.008.02C1.668 12.627 3.637 7.357 4.49 5.602l.083-.166a8.18 8.18 0 0 1 .174-.324l.05-.084.01-.016L4.813 5z" fill="url(#M)"/><circle stroke="#fff" stroke-width="1.787" cx="51.196" cy="27.196" r="19.117"/></g><g class="E"><use filter="url(#O)" xlink:href="#N" class="B"/><use xlink:href="#N" class="C"/></g></g></g><g class="C"><rect opacity=".15" x="29.781" y="5.726" width="45.048" height="2.291" rx="1.145"/><rect opacity=".5" x="27.834" y="17.561" width="48.866" height="4.581" rx="2.291"/></g></g></g><path d="M81 124c-2.2 0-4-1.8-4-4s1.8-4 4-4 4 1.8 4 4-1.8 4-4 4zm0-6.1c-1.2 0-2.1 1-2.1 2.1 0 1.2 1 2.1 2.1 2.1 1.2 0 2.1-1 2.1-2.1 0-1.2-.9-2.1-2.1-2.1z" opacity=".25" mask="url(#p)" class="C E"/></g><g transform="translate(0 103)"><g transform="translate(0 10.082)"><mask id="q" class="C"><use xlink:href="#P"/></mask><path d="M0 3.413l5.164 9.896L.144 25.5c6.74-1.434 26.103-3.866 26.103-3.866h0L25.673.4C24.637.3 23.514.24 22.337.24h0C12.918.24 0 3.413 0 3.413" fill="url(#Q)" mask="url(#q)"/></g><g transform="translate(12.3 9.782)"><mask id="r" class="C"><use xlink:href="#R"/></mask><path fill="url(#S)" mask="url(#r)" d="M4.893 14.04L.178 16.77l13.77 5.163V.134z"/></g><g transform="translate(102.9 10.082)"><mask id="s" class="C"><use xlink:href="#T"/></mask><path d="M.78.386L.206 21.62s19.362 2.43 26.102 3.866h0l-5.02-12.19 5.163-9.896S13.533.225 4.114.225h0c-1.178 0-2.3.05-3.336.16" fill="url(#U)" mask="url(#s)"/></g><g transform="translate(102.9 9.782)"><mask id="t" class="C"><use xlink:href="#V"/></mask><path fill="url(#S)" mask="url(#t)" d="M.206 21.92l13.77-5.163-4.715-2.732L.206.12z"/></g><g transform="translate(12.3 .182)"><mask id="u" class="C"><use xlink:href="#W"/></mask><path d="M52.384.118C17.963.118.178 4 .178 4h0v22.374s11.76-3.873 52.206-3.873h0c40.445 0 52.206 3.873 52.206 3.873h0V4S86.805.118 52.384.118z" mask="url(#u)" class="F"/><g mask="url(#u)" class="E"><g transform="translate(15.7 5.818)"><use filter="url(#Y)" xlink:href="#X" class="B"/><use xlink:href="#X" class="D"/><use filter="url(#a)" xlink:href="#Z" class="B"/><use xlink:href="#Z" class="D"/><use filter="url(#c)" xlink:href="#b" class="B"/><use xlink:href="#b" class="F"/><use filter="url(#e)" xlink:href="#d" class="B"/><use xlink:href="#d" class="D"/><use filter="url(#g)" xlink:href="#f" class="B"/><use xlink:href="#f" class="D"/><use filter="url(#i)" xlink:href="#h" class="B"/><use xlink:href="#h" class="D"/><use filter="url(#k)" xlink:href="#j" class="B"/><use xlink:href="#j" class="D"/><use filter="url(#m)" xlink:href="#l" class="B"/><use xlink:href="#l" class="F"/><use filter="url(#o)" xlink:href="#n" class="B"/><use xlink:href="#n" class="D"/></g></g></g></g></g></svg>