<svg width="87" height="72" xmlns="http://www.w3.org/2000/svg" xmlns:xlink="http://www.w3.org/1999/xlink"><defs><filter x="-53%" y="-26.1%" width="206%" height="174.6%" filterUnits="objectBoundingBox" id="b"><feOffset dy="8" in="SourceAlpha" result="shadowOffsetOuter1"/><feGaussianBlur stdDeviation="7.5" in="shadowOffsetOuter1" result="shadowBlurOuter1"/><feColorMatrix values="0 0 0 0 0.945098039 0 0 0 0 0.631372549 0 0 0 0 0.254901961 0 0 0 0.32 0" in="shadowBlurOuter1"/></filter><rect id="a" x="24" y="3" width="50" height="71" rx="6"/></defs><g transform="translate(-2 4)" fill="none" fill-rule="evenodd"><path d="M17.442 8.482l33.166-4.719a5.4 5.4 0 016.11 4.604l7.065 50.89a5.4 5.4 0 01-4.589 6.088l-33.166 4.719a5.4 5.4 0 01-6.11-4.604l-7.064-50.89a5.4 5.4 0 014.588-6.088z" fill="#F1A141" opacity=".204"/><path d="M36.091 2.15L5.246 15.407a5.4 5.4 0 00-2.848 7.05l19.828 47.287a5.4 5.4 0 007.111 2.874l30.846-13.255a5.4 5.4 0 002.848-7.05L43.203 5.024a5.4 5.4 0 00-7.112-2.873z" fill="#F1A141" opacity=".204"/><mask id="c" fill="#fff"><use xlink:href="#a"/></mask><use fill="#000" filter="url(#b)" xlink:href="#a"/><use fill="#FFF" xlink:href="#a"/><path d="M24 3h50v29.25C66.84 39.417 58.909 43 50.21 43c-8.7 0-17.437-3.583-26.21-10.75V3z" fill="#F1A141" fill-rule="nonzero" mask="url(#c)"/><circle fill="#FFF" cx="49" cy="41" r="23"/><circle stroke="#F1A141" stroke-width="2.396" fill="#FFF" cx="49" cy="41" r="19.198"/></g></svg>