<?xml version="1.0" encoding="UTF-8"?>
<svg width="137px" height="80px" viewBox="0 0 137 80" version="1.1" xmlns="http://www.w3.org/2000/svg" xmlns:xlink="http://www.w3.org/1999/xlink">
    <title>Logos/partner/Republique Francaise</title>
    <g id="Logos/partner/Republique-Francaise" stroke="none" stroke-width="1" fill="none" fill-rule="evenodd">
        <g id="Group" transform="translate(14.000000, 3.000000)">
            <g id="Republique-francaise-logo" fill-rule="nonzero">
                <path d="M0.259633028,29.5527523 L0.259633028,20.1977064 L3.1206422,20.1977064 C3.98348624,20.1522936 4.84633028,20.3793578 5.57293578,20.9243119 C6.16330275,21.4238532 6.5266055,22.1958716 6.48119266,22.9678899 C6.48119266,23.512844 6.34495413,24.0123853 6.07247706,24.4665138 C5.8,24.8752294 5.43669725,25.1931193 4.98256881,25.4201835 L7.88899083,29.5527523 L5.61834862,29.5527523 L3.1206422,25.7834862 L2.16697248,25.7834862 L2.16697248,29.5527523 L0.259633028,29.5527523 L0.259633028,29.5527523 Z M3.21146789,21.787156 L2.16697248,21.787156 L2.16697248,24.1486239 L3.21146789,24.1486239 C3.57477064,24.1940367 3.89266055,24.0577982 4.16513761,23.8307339 C4.39220183,23.6036697 4.52844037,23.2857798 4.52844037,22.9678899 C4.52844037,22.65 4.39220183,22.3321101 4.16513761,22.1050459 C3.89266055,21.8779817 3.57477064,21.787156 3.21146789,21.787156 Z" id="Shape" fill="#000000"></path>
                <path d="M9.06972477,29.5527523 L9.06972477,20.1977064 L14.5646789,20.1977064 L14.5646789,21.787156 L10.9770642,21.787156 L10.9770642,23.9669725 L14.0197248,23.9669725 L14.0197248,25.6018349 L10.9770642,25.6018349 L10.9770642,27.9178899 L14.5646789,27.9178899 L14.5646789,29.5527523 L9.06972477,29.5527523 L9.06972477,29.5527523 Z M12.6573394,19.3802752 L10.9316514,19.3802752 L12.4302752,17.5637615 L14.4284404,17.5637615 L12.6573394,19.3802752 Z" id="Shape" fill="#000000"></path>
                <path d="M16.7444954,29.5527523 L16.7444954,20.1977064 L19.8779817,20.1977064 C20.7408257,20.1522936 21.6036697,20.4247706 22.2848624,20.9243119 C23.4201835,21.9688073 23.5110092,23.6944954 22.4665138,24.8298165 C22.4211009,24.8752294 22.3756881,24.966055 22.2848624,25.0114679 C21.6036697,25.556422 20.7408257,25.8288991 19.8779817,25.7834862 L18.6518349,25.7834862 L18.6518349,29.5527523 L16.7444954,29.5527523 Z M19.9233945,21.787156 L18.6518349,21.787156 L18.6518349,24.1486239 L19.9233945,24.1486239 C20.2866972,24.1940367 20.6045872,24.0577982 20.8770642,23.8307339 C21.1041284,23.6036697 21.240367,23.2857798 21.240367,22.9678899 C21.240367,22.65 21.1041284,22.3321101 20.8770642,22.1050459 C20.6045872,21.8779817 20.2866972,21.787156 19.9233945,21.787156 Z" id="Shape" fill="#000000"></path>
                <path d="M30.2775229,26.0559633 L30.2775229,20.1977064 L32.1848624,20.1977064 L32.1848624,25.8743119 C32.2302752,26.9642202 31.8669725,27.9633028 31.140367,28.7807339 C29.5509174,30.1885321 27.1894495,30.1885321 25.6,28.7807339 C24.9188073,27.9633028 24.5555046,26.9188073 24.6009174,25.8743119 L24.6009174,20.1977064 L26.5082569,20.1977064 L26.5082569,26.0559633 C26.462844,26.6009174 26.6444954,27.1004587 27.0077982,27.5091743 C27.3711009,27.8724771 27.8706422,28.0995413 28.3701835,28.0541284 C28.9151376,28.0995413 29.4146789,27.8724771 29.7779817,27.5091743 C30.1412844,27.1004587 30.3229358,26.6009174 30.2775229,26.0559633 Z" id="Path" fill="#000000"></path>
                <path d="M34.5463303,29.5527523 L34.5463303,20.1977064 L37.2256881,20.1977064 C38.0431193,20.1522936 38.8605505,20.3793578 39.4963303,20.8788991 C40.0866972,21.3330275 40.4045872,22.0142202 40.3591743,22.7408257 C40.3591743,23.1041284 40.2683486,23.4674312 40.0866972,23.7853211 C39.9050459,24.103211 39.6779817,24.3756881 39.3600917,24.5573394 C39.8142202,24.7389908 40.2229358,25.1022936 40.4954128,25.5110092 C40.7678899,25.8743119 40.9041284,26.3284404 40.9041284,26.7825688 C40.9495413,27.6 40.5862385,28.3266055 39.9504587,28.8261468 C39.2238532,29.3711009 38.3155963,29.5981651 37.4073394,29.5527523 L34.5463303,29.5527523 L34.5463303,29.5527523 Z M37.2256881,21.787156 L36.4536697,21.787156 L36.4536697,23.8761468 L37.2256881,23.8761468 C37.543578,23.8761468 37.8614679,23.7853211 38.0885321,23.6036697 C38.4972477,23.1949541 38.4972477,22.4683486 38.0885321,22.059633 C38.0885321,22.059633 38.0885321,22.059633 38.0885321,22.059633 C37.8614679,21.8779817 37.543578,21.787156 37.2256881,21.787156 Z M37.4981651,25.5110092 L36.4536697,25.5110092 L36.4536697,27.9178899 L37.4981651,27.9178899 C37.8614679,27.9633028 38.2701835,27.8270642 38.5426606,27.6 C38.8151376,27.3729358 38.9513761,27.0550459 38.9513761,26.6917431 C38.9513761,26.3284404 38.8151376,26.0105505 38.5426606,25.7834862 C38.2247706,25.6018349 37.8614679,25.4655963 37.4981651,25.5110092 Z" id="Shape" fill="#000000"></path>
                <polygon id="Path" fill="#000000" points="42.8114679 29.5527523 42.8114679 20.1977064 44.7188073 20.1977064 44.7188073 27.8270642 48.306422 27.8270642 48.306422 29.5527523"></polygon>
                <polygon id="Path" fill="#000000" points="49.9866972 29.5527523 49.9866972 20.1977064 51.8940367 20.1977064 51.8940367 29.5527523"></polygon>
                <path d="M62.3844037,29.3256881 C62.6568807,29.5981651 63.0201835,29.8252294 63.3834862,30.0068807 C63.7013761,30.1431193 64.0192661,30.233945 64.337156,30.233945 L64.6550459,30.233945 L65.0183486,30.1431193 L65.0183486,31.7779817 L64.5642202,31.9142202 L64.0192661,31.9142202 C63.5197248,31.9142202 62.9747706,31.7779817 62.5206422,31.5963303 C61.9756881,31.3692661 61.5215596,31.0513761 61.0674312,30.6426606 L59.9775229,29.6889908 L59.3417431,29.7798165 L58.6605505,29.7798165 C57.9793578,29.7798165 57.2981651,29.643578 56.6623853,29.3711009 C56.0720183,29.0986239 55.5270642,28.7807339 55.0729358,28.3266055 C54.2100917,27.3729358 53.7105505,26.146789 53.7105505,24.8298165 C53.7105505,23.512844 54.2100917,22.2866972 55.0729358,21.3330275 C55.5270642,20.8788991 56.0720183,20.5155963 56.6623853,20.2885321 C57.2981651,20.016055 57.9793578,19.8798165 58.6605505,19.8798165 C59.3417431,19.8798165 60.0683486,20.016055 60.7041284,20.2885321 C61.2944954,20.5610092 61.8394495,20.8788991 62.293578,21.3330275 C63.156422,22.2866972 63.6559633,23.512844 63.6559633,24.8298165 C63.6559633,25.6018349 63.4743119,26.3284404 63.156422,27.009633 C62.8385321,27.6908257 62.3844037,28.2811927 61.7940367,28.7353211 L62.3844037,29.3256881 Z M58.6605505,28.0541284 C59.4779817,28.0541284 60.25,27.6908257 60.840367,27.1458716 C61.112844,26.8279817 61.2944954,26.5100917 61.4761468,26.146789 C61.7940367,25.3293578 61.7940367,24.4211009 61.4761468,23.6036697 C61.3399083,23.240367 61.112844,22.9224771 60.840367,22.6045872 C60.5678899,22.3321101 60.25,22.1050459 59.8866972,21.9233945 C59.4779817,21.787156 59.0692661,21.6963303 58.6605505,21.6963303 C58.2518349,21.6963303 57.8431193,21.787156 57.4798165,21.9233945 C57.1165138,22.059633 56.7986239,22.2866972 56.5261468,22.6045872 C56.2536697,22.8770642 56.0266055,23.240367 55.890367,23.6036697 C55.5724771,24.4211009 55.5724771,25.3293578 55.890367,26.146789 C56.0266055,26.5100917 56.2536697,26.8733945 56.5261468,27.1458716 C56.7986239,27.4637615 57.1165138,27.6454128 57.4798165,27.7816514 C57.8431193,27.9633028 58.2518349,28.0541284 58.6605505,28.0541284 Z" id="Shape" fill="#000000"></path>
                <path d="M71.012844,26.0559633 L71.012844,20.1977064 L72.9201835,20.1977064 L72.9201835,25.8743119 C72.9655963,26.9642202 72.6022936,27.9633028 71.8756881,28.7807339 C70.2862385,30.1885321 67.9247706,30.1885321 66.3353211,28.7807339 C65.6087156,27.9633028 65.2454128,26.9642202 65.2908257,25.8743119 L65.2908257,20.1977064 L67.1981651,20.1977064 L67.1981651,26.0559633 C67.1527523,26.6009174 67.3798165,27.1458716 67.7431193,27.5091743 C68.106422,27.8724771 68.6059633,28.0995413 69.1055046,28.0541284 C69.6504587,28.0995413 70.15,27.8724771 70.5133028,27.5091743 C70.8766055,27.1004587 71.0582569,26.6009174 71.012844,26.0559633 Z" id="Path" fill="#000000"></path>
                <polygon id="Path" fill="#000000" points="75.2816514 29.5527523 75.2816514 20.1977064 80.7311927 20.1977064 80.7311927 21.787156 77.1889908 21.787156 77.1889908 23.9669725 80.1862385 23.9669725 80.1862385 25.6018349 77.1889908 25.6018349 77.1889908 27.9178899 80.7311927 27.9178899 80.7311927 29.5527523 75.2816514 29.5527523"></polygon>
                <polygon id="Path" fill="#000000" points="0.259633028 43.7215596 0.259633028 34.3665138 5.70917431 34.3665138 5.70917431 35.9559633 2.16697248 35.9559633 2.16697248 38.1357798 5.20963303 38.1357798 5.20963303 39.7706422 2.16697248 39.7706422 2.16697248 43.7215596 0.259633028 43.7215596"></polygon>
                <path d="M7.38944954,43.7215596 L7.38944954,34.3665138 L10.2504587,34.3665138 C11.1133028,34.3211009 11.9761468,34.5481651 12.7027523,35.0931193 C13.2931193,35.5926606 13.656422,36.3646789 13.6110092,37.1366972 C13.6110092,37.6816514 13.4747706,38.1811927 13.2022936,38.6353211 C12.9298165,39.0440367 12.5665138,39.3619266 12.1123853,39.5889908 L15.0642202,43.7215596 L12.793578,43.7215596 L10.2958716,39.9522936 L9.29678899,39.9522936 L9.29678899,43.7215596 L7.38944954,43.7215596 L7.38944954,43.7215596 Z M10.3866972,35.9559633 L9.29678899,35.9559633 L9.29678899,38.3174312 L10.3866972,38.3174312 C10.7045872,38.362844 11.0678899,38.2266055 11.2949541,37.9995413 C11.5220183,37.7724771 11.6582569,37.4545872 11.6582569,37.1366972 C11.6582569,36.8188073 11.5220183,36.5009174 11.2949541,36.2738532 C11.0224771,36.046789 10.7045872,35.9559633 10.3866972,35.9559633 Z" id="Shape" fill="#000000"></path>
                <path d="M15.4729358,43.7215596 L19.0151376,34.3665138 L21.512844,34.3665138 L25.0550459,43.7215596 L23.0114679,43.7215596 L22.103211,41.2692661 L18.3793578,41.2692661 L17.4711009,43.7215596 L15.4729358,43.7215596 L15.4729358,43.7215596 Z M18.9697248,39.6798165 L21.512844,39.6798165 L20.2412844,36.1376147 L18.9697248,39.6798165 Z" id="Shape" fill="#000000"></path>
                <polygon id="Path" fill="#000000" points="26.5082569 43.7215596 26.5082569 34.3665138 28.9151376 34.3665138 33.1385321 41.0422018 33.1385321 34.3665138 35.0458716 34.3665138 35.0458716 43.7215596 32.593578 43.7215596 28.3701835 37.0004587 28.3701835 43.7215596 26.5082569 43.7215596"></polygon>
                <path d="M41.8123853,42.2229358 C42.3119266,42.2229358 42.8114679,42.0866972 43.2655963,41.859633 C43.6743119,41.6325688 43.9922018,41.3146789 44.2646789,40.9513761 L45.7633028,42.0866972 C45.4,42.5862385 44.9458716,42.9949541 44.4009174,43.312844 C43.8559633,43.6307339 43.2201835,43.8577982 42.5844037,43.9486239 L41.4036697,45.9013761 L39.7233945,45.9013761 L40.9041284,43.903211 C40.3137615,43.8123853 39.7233945,43.6307339 39.2238532,43.312844 C38.7697248,42.9949541 38.3155963,42.6316514 37.9522936,42.2229358 C37.5889908,41.7688073 37.3165138,41.2692661 37.1348624,40.7243119 C36.953211,40.1793578 36.8623853,39.6344037 36.8623853,39.0440367 C36.8623853,37.7270642 37.3619266,36.5009174 38.2247706,35.5472477 C38.6788991,35.0931193 39.2238532,34.7298165 39.8142202,34.5027523 C40.45,34.2302752 41.1311927,34.0940367 41.8123853,34.0940367 C42.6298165,34.0940367 43.4018349,34.2756881 44.1284404,34.593578 C44.7642202,34.9114679 45.3545872,35.4110092 45.7633028,36.0013761 L44.2646789,37.1366972 C43.9922018,36.7733945 43.6743119,36.4555046 43.2655963,36.2284404 C42.8114679,36.0013761 42.3119266,35.8651376 41.8123853,35.8651376 C41.4036697,35.8651376 40.9949541,35.9559633 40.6316514,36.0922018 C40.2683486,36.2738532 39.9050459,36.5009174 39.6325688,36.7733945 C39.4055046,37.0912844 39.1784404,37.4091743 39.0422018,37.7724771 C38.7243119,38.5899083 38.7243119,39.4981651 39.0422018,40.3155963 C39.1784404,40.6788991 39.4055046,40.996789 39.6325688,41.3146789 C39.9050459,41.587156 40.2683486,41.8142202 40.6316514,41.9504587 C40.9949541,42.1321101 41.4036697,42.2229358 41.8123853,42.2229358 Z" id="Path" fill="#000000"></path>
                <path d="M46.1720183,43.7215596 L49.7142202,34.3665138 L52.2119266,34.3665138 L55.7541284,43.7215596 L53.7559633,43.7215596 L52.8477064,41.2692661 L49.1238532,41.2692661 L48.2155963,43.7215596 L46.1720183,43.7215596 L46.1720183,43.7215596 Z M49.7142202,39.6798165 L52.2573394,39.6798165 L50.9857798,36.1376147 L49.7142202,39.6798165 Z" id="Shape" fill="#000000"></path>
                <polygon id="Path" fill="#000000" points="57.2073394 43.7215596 57.2073394 34.3665138 59.1146789 34.3665138 59.1146789 43.7215596 57.2073394 43.7215596"></polygon>
                <path d="M60.8857798,42.45 L62.293578,41.1784404 C62.566055,41.4963303 62.883945,41.7688073 63.2472477,41.9958716 C63.5651376,42.2229358 63.9738532,42.3137615 64.3825688,42.3137615 C64.7004587,42.3137615 65.0183486,42.2229358 65.2454128,42.0412844 C65.4724771,41.8142202 65.5633028,41.5417431 65.5633028,41.2238532 C65.5633028,40.8151376 65.2908257,40.406422 64.8821101,40.2701835 L63.4288991,39.543578 C62.883945,39.3165138 62.3844037,38.953211 61.9302752,38.5899083 C61.4761468,38.090367 61.2490826,37.4545872 61.2944954,36.8188073 C61.2944954,36.4555046 61.3399083,36.0922018 61.5215596,35.7743119 C61.6577982,35.4110092 61.8394495,35.1385321 62.1119266,34.866055 C62.3844037,34.6389908 62.7022936,34.4573394 63.0655963,34.3211009 C63.4288991,34.1394495 63.8830275,34.0940367 64.2917431,34.0940367 C64.9275229,34.0940367 65.5633028,34.2302752 66.1536697,34.5027523 C66.6986239,34.8206422 67.1527523,35.183945 67.5614679,35.6834862 L66.1536697,36.909633 C65.9266055,36.5917431 65.6087156,36.2738532 65.2908257,36.046789 C64.9729358,35.8651376 64.6550459,35.7288991 64.2917431,35.7288991 C64.0192661,35.7288991 63.7013761,35.8197248 63.5197248,36.046789 C63.2926606,36.2284404 63.2018349,36.4555046 63.2018349,36.7279817 C63.2018349,37.1366972 63.4743119,37.5454128 63.8830275,37.6816514 L65.3362385,38.4082569 C65.8811927,38.6353211 66.3807339,38.9986239 66.8348624,39.4073394 C67.2889908,39.8614679 67.5614679,40.4972477 67.516055,41.1784404 C67.4706422,41.587156 67.3798165,41.9958716 67.243578,42.3591743 C67.0619266,42.6770642 66.8348624,42.9949541 66.5623853,43.2674312 C66.2899083,43.4944954 65.9720183,43.6761468 65.6087156,43.8123853 C65.2,43.9486239 64.7912844,43.9940367 64.3825688,43.9940367 C63.7013761,43.9940367 63.0201835,43.8577982 62.3844037,43.5853211 C61.7940367,43.312844 61.2944954,42.9041284 60.8857798,42.45 Z" id="Path" fill="#000000"></path>
                <polygon id="Path" fill="#000000" points="69.5142202 43.7215596 69.5142202 34.3665138 74.9637615 34.3665138 74.9637615 35.9559633 71.3761468 35.9559633 71.3761468 38.1357798 74.4188073 38.1357798 74.4188073 39.7706422 71.3761468 39.7706422 71.3761468 42.0866972 74.9637615 42.0866972 74.9637615 43.7215596 69.5142202 43.7215596"></polygon>
                <g id="Marianne" transform="translate(0.077982, 0.715596)">
                    <path d="M14.8045872,11.4894495 L15.2133028,11.0807339 L15.2133028,11.0807339 C15.440367,10.8082569 15.7582569,10.490367 16.0307339,10.2633028 L16.303211,10.0362385 C16.3486239,9.99082569 16.3486239,9.99082569 16.3486239,9.94541284 L16.0307339,10.1270642 C16.0307339,10.1270642 15.9853211,10.1270642 16.0307339,10.0816514 L16.2577982,9.9 L16.2123853,9.9 C15.8944954,9.9 15.6220183,10.0362385 15.440367,10.2633028 L15.3495413,10.2633028 C14.9862385,10.3995413 14.7137615,10.7174312 14.3504587,10.8536697 L14.3504587,10.8536697 L13.8963303,11.0353211 C13.7146789,11.0807339 13.4876147,11.0807339 13.3059633,11.0353211 L12.3977064,11.2169725 L12.3977064,11.2169725 L11.943578,11.3986239 L11.8981651,11.3986239 C11.8981651,11.4440367 11.8981651,11.4440367 11.8527523,11.4440367 L11.7165138,11.5802752 C11.5802752,11.6711009 11.4440367,11.7619266 11.3077982,11.8981651 L11.2623853,11.8981651 L10.8536697,12.3068807 L10.8082569,12.3068807 C10.8536697,12.3068807 10.8536697,12.2614679 10.8990826,12.216055 C10.8990826,12.1706422 10.8990826,12.1706422 10.9444954,12.1252294 C10.9899083,12.0798165 11.0353211,11.9889908 11.0353211,11.943578 L11.0353211,11.943578 L11.4440367,11.6711009 L11.4440367,11.6711009 C11.3986239,11.6711009 11.3986239,11.6711009 11.3986239,11.6256881 L11.3077982,11.6256881 C11.2623853,11.7165138 11.2169725,11.8073394 11.1261468,11.8073394 L11.1261468,11.8073394 C11.1261468,11.7619266 11.1261468,11.7619266 11.1715596,11.7619266 L11.1715596,11.7619266 L11.353211,11.6256881 L11.353211,11.6256881 L11.6256881,11.4440367 L11.6711009,11.4440367 L11.2623853,11.6256881 L11.2169725,11.6256881 C11.2169725,11.6256881 11.2169725,11.6711009 11.1715596,11.6256881 L11.1715596,11.6256881 L11.3077982,11.4894495 L11.353211,11.4894495 C12.1252294,10.8990826 13.2151376,11.0353211 14.1233945,10.7174312 L14.3504587,10.5811927 C14.4412844,10.5357798 14.5321101,10.3995413 14.7137615,10.3541284 C14.8954128,10.2178899 15.0316514,9.99082569 15.1224771,9.76376147 L15.0770642,9.76376147 C14.7591743,9.9 14.3958716,9.99082569 14.0325688,9.99082569 C13.5330275,10.1724771 12.9426606,10.2633028 12.3977064,10.2633028 L12.533945,10.2633028 C12.533945,10.2178899 12.5793578,10.1724771 12.6247706,10.1270642 L12.7155963,10.1270642 C12.7155963,10.0816514 12.7155963,10.0816514 12.7610092,10.0816514 L12.8518349,10.0816514 C12.7610092,9.99082569 12.6247706,10.1724771 12.4885321,10.0816514 C12.3522936,9.99082569 12.533945,9.99082569 12.5793578,9.94541284 L12.6701835,9.94541284 C12.6701835,9.9 12.6701835,9.9 12.7155963,9.85458716 C13.0788991,9.62752294 13.4422018,9.4912844 13.7600917,9.26422018 C14.0779817,9.03715596 13.6692661,9.35504587 13.5784404,9.30963303 C13.4876147,9.26422018 13.5784404,9.21880734 13.6238532,9.21880734 C13.8963303,9.12798165 14.1688073,9.03715596 14.3958716,8.90091743 C14.3050459,8.90091743 14.2142202,8.99174312 14.1233945,8.90091743 L14.259633,8.90091743 L14.259633,8.81009174 C14.259633,8.7646789 14.259633,8.7646789 14.3050459,8.7646789 L14.259633,8.7646789 L14.3958716,8.67385321 L14.3504587,8.67385321 C14.4412844,8.58302752 14.5321101,8.53761468 14.6683486,8.53761468 C14.6229358,8.49220183 14.5321101,8.53761468 14.5321101,8.49220183 C14.5321101,8.44678899 14.5775229,8.44678899 14.6229358,8.44678899 L14.5321101,8.44678899 C14.4866972,8.44678899 14.4866972,8.44678899 14.4866972,8.40137615 C14.4866972,8.3559633 14.4866972,8.3559633 14.5321101,8.3559633 L14.5321101,8.3559633 C14.6229358,8.17431193 14.7137615,7.94724771 14.7591743,7.76559633 L14.7137615,7.76559633 C14.4412844,7.99266055 14.0779817,8.17431193 13.7146789,8.26513761 L13.5784404,8.26513761 C13.4422018,8.31055046 13.3059633,8.31055046 13.1697248,8.21972477 L12.9426606,8.03807339 L12.3068807,7.72018349 C11.7165138,7.49311927 11.0807339,7.31146789 10.4449541,7.26605505 C10.7174312,7.17522936 11.0353211,7.08440367 11.3077982,7.03899083 C11.7165138,6.85733945 12.1252294,6.81192661 12.533945,6.81192661 C12.4431193,6.76651376 12.3522936,6.81192661 12.3068807,6.81192661 C11.943578,6.81192661 11.5802752,6.85733945 11.2623853,6.94816514 L10.5357798,7.12981651 C10.3995413,7.17522936 10.3087156,7.35688073 10.1724771,7.31146789 L10.1724771,7.2206422 C10.3995413,6.90275229 10.7174312,6.67568807 11.0807339,6.63027523 C11.4894495,6.58486239 11.943578,6.58486239 12.3522936,6.67568807 L13.3059633,6.85733945 C13.396789,6.85733945 13.4422018,7.03899083 13.5330275,7.08440367 C13.6238532,7.12981651 13.8055046,7.08440367 13.987156,7.17522936 C14.1688073,7.26605505 13.9417431,7.08440367 13.987156,7.03899083 C14.0325688,6.99357798 14.1688073,7.03899083 14.3050459,6.99357798 C14.4412844,6.94816514 14.1233945,6.67568807 14.0325688,6.4940367 L14.0325688,6.4940367 C14.2142202,6.67568807 14.3958716,6.81192661 14.6229358,6.94816514 C14.7591743,7.03899083 15.0316514,7.08440367 14.9862385,6.94816514 C14.85,6.67568807 14.6683486,6.44862385 14.4412844,6.22155963 L14.4412844,6.13073394 L14.3504587,6.13073394 L14.3504587,5.90366972 C14.259633,5.85825688 14.3050459,5.76743119 14.2142202,5.72201835 C14.1233945,5.6766055 14.2142202,5.40412844 14.1688073,5.26788991 C14.1233945,5.13165138 14.0779817,4.99541284 14.0779817,4.85917431 C13.987156,4.45045872 13.8963303,4.08715596 13.8509174,3.67844037 C13.8055046,3.22431193 14.1233945,2.86100917 14.3504587,2.45229358 C14.4866972,2.13440367 14.7137615,1.86192661 15.0316514,1.68027523 C15.1224771,1.40779817 15.2587156,1.1353211 15.4857798,0.908256881 C15.6674312,0.681192661 15.9399083,0.499541284 16.2123853,0.408715596 L16.893578,0.136238532 L21.7527523,0.136238532 L21.843578,0.22706422 L22.2068807,0.408715596 C22.3885321,0.499541284 22.5247706,0.635779817 22.6610092,0.772018349 C22.706422,0.862844037 22.7972477,0.999082569 22.7518349,1.08990826 C22.706422,1.18073394 22.6610092,1.40779817 22.5701835,1.45321101 C22.3885321,1.5440367 22.2068807,1.5440367 22.0252294,1.5440367 L21.7527523,1.45321101 C22.116055,1.58944954 22.4793578,1.81651376 22.706422,2.13440367 L22.9334862,2.22522936 L22.9334862,2.22522936 C22.8880734,2.2706422 22.8426606,2.31605505 22.8880734,2.36146789 L22.9334862,2.36146789 C23.0697248,2.31605505 23.0243119,2.08899083 23.2059633,2.17981651 C23.3422018,2.22522936 23.3876147,2.36146789 23.3422018,2.45229358 C23.3422018,2.49770642 23.296789,2.49770642 23.296789,2.54311927 L23.0243119,2.77018349 C22.9788991,2.81559633 22.9788991,2.90642202 23.0243119,2.95183486 L23.1605505,3.22431193 L23.296789,3.76926606 C23.4330275,4.13256881 23.4784404,4.49587156 23.4784404,4.85917431 C23.4784404,5.04082569 23.3876147,5.22247706 23.4330275,5.40412844 C23.5238532,5.58577982 23.6146789,5.76743119 23.7055046,5.94908257 C23.8417431,6.03990826 23.9325688,6.17614679 23.9779817,6.31238532 C24.1142202,6.53944954 24.3866972,6.81192661 24.2958716,7.08440367 C24.2050459,7.35688073 23.9325688,7.2206422 23.7509174,7.35688073 C23.5692661,7.49311927 23.7509174,7.67477064 23.8417431,7.76559633 C23.9325688,7.85642202 23.6600917,8.12889908 23.5238532,8.21972477 C23.3876147,8.31055046 23.6600917,8.26513761 23.6600917,8.31055046 C23.6600917,8.3559633 23.8417431,8.49220183 23.7509174,8.62844037 C23.6600917,8.7646789 23.3422018,8.85550459 23.5238532,9.08256881 C23.7055046,9.30963303 23.5238532,9.44587156 23.4784404,9.58211009 C23.3876147,9.76376147 23.2513761,9.9 23.0243119,9.94541284 C22.8880734,10.0362385 22.706422,10.0362385 22.5701835,9.99082569 L22.433945,9.99082569 C22.0252294,9.9 21.6165138,9.85458716 21.2077982,9.80917431 L20.8444954,9.9 L20.5720183,10.1724771 L20.4357798,10.1724771 L20.2541284,10.4449541 L20.2541284,10.4449541 C20.2541284,10.490367 20.2541284,10.490367 20.2087156,10.490367 L20.0270642,10.9444954 C19.8908257,11.4894495 19.9362385,11.9889908 20.0724771,12.0798165 C20.2087156,12.1706422 20.8899083,12.3522936 21.3894495,12.6247706 L21.9798165,12.8972477 L11.9889908,12.8972477 C12.4885321,12.5793578 13.0334862,12.3068807 13.5784404,12.0798165 C14.0325688,11.8981651 14.4412844,11.6711009 14.8045872,11.353211 M11.0807339,9.62752294 C11.0353211,9.62752294 10.9444954,9.67293578 10.9444954,9.62752294 C10.9444954,9.58211009 11.1261468,9.4912844 11.2623853,9.44587156 C11.3986239,9.40045872 11.353211,9.35504587 11.3986239,9.40045872 L11.5802752,9.4912844 C11.4440367,9.62752294 11.2623853,9.58211009 11.0807339,9.62752294 M7.35688073,9.08256881 L7.35688073,9.08256881 C7.6293578,8.71926606 7.90183486,8.31055046 8.12889908,7.85642202 C8.40137615,7.67477064 8.67385321,7.49311927 8.94633028,7.26605505 C9.30963303,6.81192661 9.80917431,6.44862385 10.3087156,6.17614679 C10.5357798,6.13073394 10.762844,6.13073394 10.9444954,6.22155963 C10.8536697,6.31238532 10.7174312,6.31238532 10.6266055,6.35779817 L10.5811927,6.35779817 L10.5811927,6.26697248 C10.3541284,6.53944954 9.99082569,6.67568807 9.80917431,6.99357798 C9.62752294,7.31146789 9.58211009,7.53853211 9.26422018,7.58394495 C8.94633028,7.6293578 9.26422018,7.53853211 9.21880734,7.53853211 C8.53761468,8.03807339 7.90183486,8.58302752 7.35688073,9.21880734 M9.35504587,7.6293578 C9.35504587,7.67477064 9.30963303,7.67477064 9.30963303,7.72018349 C9.30963303,7.76559633 9.26422018,7.81100917 9.21880734,7.81100917 L9.1733945,7.81100917 C9.1733945,7.72018349 9.26422018,7.58394495 9.35504587,7.6293578 L9.35504587,7.6293578 M10.490367,11.2169725 C10.490367,11.2623853 10.4449541,11.2623853 10.4449541,11.3077982 C10.4449541,11.353211 10.490367,11.3077982 10.490367,11.353211 L10.3087156,11.4440367 C10.2633028,11.4440367 10.2633028,11.4440367 10.2633028,11.4894495 L10.1724771,11.4894495 C10.1270642,11.5348624 9.99082569,11.5348624 10.0362385,11.4894495 L10.2178899,11.3077982 C10.2633028,11.2623853 10.3087156,11.2623853 10.3087156,11.2169725 L10.490367,11.2169725 M10.0816514,11.0353211 L10.0816514,11.0353211 L9.76376147,11.2169725 L9.44587156,11.353211 L9.40045872,11.353211 L9.1733945,11.5348624 L9.03715596,11.5348624 C9.03715596,11.5802752 9.03715596,11.5802752 8.99174312,11.5802752 L8.94633028,11.5802752 C8.94633028,11.6256881 8.94633028,11.6256881 8.90091743,11.6256881 L8.85550459,11.6256881 C8.81009174,11.6711009 8.7646789,11.6711009 8.7646789,11.7165138 L8.62844037,11.8527523 L8.49220183,11.8527523 L8.58302752,11.7619266 L8.67385321,11.7619266 C8.67385321,11.7165138 8.71926606,11.6711009 8.7646789,11.6711009 L8.7646789,11.6711009 L8.7646789,11.6711009 C8.7646789,11.6256881 8.7646789,11.6256881 8.81009174,11.6256881 L8.81009174,11.6256881 C8.85550459,11.5802752 8.85550459,11.5802752 8.85550459,11.5348624 L8.85550459,11.5348624 C8.90091743,11.4894495 8.94633028,11.4440367 8.94633028,11.3986239 L8.94633028,11.3986239 L8.85550459,11.4894495 C8.81009174,11.4894495 8.81009174,11.4894495 8.81009174,11.4440367 C8.85550459,11.4440367 8.85550459,11.4440367 8.85550459,11.3986239 L8.90091743,11.3986239 L8.99174312,11.2623853 L9.08256881,11.2623853 L9.08256881,11.1715596 L9.08256881,11.1715596 C9.35504587,10.9444954 9.71834862,10.9899083 10.0362385,10.8082569 C10.3541284,10.6266055 10.3087156,10.8536697 10.3995413,10.8082569 L10.6266055,10.8082569 L10.0362385,11.2169725 M10.5357798,9.53669725 C10.490367,9.4912844 10.5811927,9.53669725 10.6266055,9.44587156 L10.4449541,9.44587156 L10.0362385,9.58211009 L9.53669725,9.76376147 C9.30963303,9.9 9.03715596,10.0362385 8.7646789,10.1724771 C8.71926606,10.1724771 8.71926606,10.1724771 8.71926606,10.1270642 L8.90091743,9.99082569 L8.90091743,9.99082569 C9.08256881,9.76376147 9.30963303,9.53669725 9.58211009,9.35504587 L9.58211009,9.26422018 C9.67293578,9.1733945 9.76376147,9.08256881 9.85458716,8.99174312 C9.9,8.90091743 9.99082569,8.81009174 10.0816514,8.7646789 L9.99082569,8.7646789 C9.9,8.7646789 9.80917431,8.81009174 9.71834862,8.71926606 L9.85458716,8.62844037 L9.80917431,8.62844037 C9.76376147,8.53761468 9.85458716,8.49220183 9.94541284,8.49220183 L10.2178899,8.40137615 C10.0362385,8.3559633 9.85458716,8.44678899 9.67293578,8.3559633 C9.76376147,8.03807339 9.99082569,7.76559633 10.3087156,7.6293578 L10.3541284,7.6293578 C10.3541284,7.76559633 10.3087156,7.85642202 10.1724771,7.85642202 L10.762844,8.03807339 C10.762844,8.08348624 10.762844,8.08348624 10.7174312,8.08348624 C10.6720183,8.08348624 10.6720183,8.08348624 10.6720183,8.03807339 C10.762844,8.12889908 10.9444954,8.08348624 11.0353211,8.17431193 C11.1261468,8.26513761 10.8990826,8.17431193 10.8536697,8.17431193 C11.5802752,8.40137615 12.3977064,8.53761468 13.0334862,9.03715596 C12.4885321,9.21880734 11.943578,9.26422018 11.353211,9.26422018 L11.1261468,9.26422018 C11.0353211,9.26422018 10.9444954,9.26422018 10.8990826,9.35504587 L10.5811927,9.35504587" id="Fond-2" fill="#FFFFFF"></path>
                    <path d="M14.8045872,11.4894495 L15.2133028,11.0807339 L15.2133028,11.0807339 C15.440367,10.8082569 15.7582569,10.490367 16.0307339,10.2633028 L16.303211,10.0362385 C16.3486239,9.99082569 16.3486239,9.99082569 16.3486239,9.94541284 L16.0307339,10.1270642 C16.0307339,10.1270642 15.9853211,10.1270642 16.0307339,10.0816514 L16.2577982,9.9 L16.2123853,9.9 C15.8944954,9.9 15.6220183,10.0362385 15.440367,10.2633028 L15.3495413,10.2633028 C14.9862385,10.3995413 14.7137615,10.7174312 14.3504587,10.8536697 L14.3504587,10.8536697 L13.8963303,11.0353211 C13.7146789,11.0807339 13.4876147,11.0807339 13.3059633,11.0353211 L12.3977064,11.2169725 L12.3977064,11.2169725 L11.943578,11.3986239 L11.8981651,11.3986239 C11.8981651,11.4440367 11.8981651,11.4440367 11.8527523,11.4440367 L11.7165138,11.5802752 L11.3077982,11.8981651 C11.2623853,11.8981651 11.2623853,11.8981651 11.2623853,11.943578 L10.8536697,12.3068807 L10.8082569,12.3068807 C10.8536697,12.3068807 10.8536697,12.2614679 10.8990826,12.216055 C10.8990826,12.1706422 10.8990826,12.1706422 10.9444954,12.1252294 C10.9899083,12.0798165 11.0353211,11.9889908 11.0353211,11.943578 L11.0353211,11.943578 L11.4440367,11.6711009 L11.4440367,11.6711009 C11.3986239,11.6711009 11.3986239,11.6711009 11.3986239,11.6256881 L11.3077982,11.6256881 C11.2623853,11.7165138 11.2169725,11.8073394 11.1261468,11.8073394 L11.1261468,11.8073394 C11.1261468,11.7619266 11.1261468,11.7619266 11.1715596,11.7619266 L11.1715596,11.7619266 L11.353211,11.6256881 L11.353211,11.6256881 L11.6256881,11.4440367 L11.6711009,11.4440367 L11.2623853,11.6256881 L11.2169725,11.6256881 C11.2169725,11.6256881 11.2169725,11.6711009 11.1715596,11.6256881 L11.1715596,11.6256881 L11.3077982,11.4894495 L11.353211,11.4894495 C12.1252294,10.8990826 13.2151376,11.0353211 14.1233945,10.7174312 L14.3504587,10.5811927 C14.4412844,10.5357798 14.5321101,10.3995413 14.7137615,10.3541284 C14.8954128,10.2178899 15.0316514,9.99082569 15.1224771,9.76376147 L15.0770642,9.76376147 C14.7591743,9.9 14.3958716,9.99082569 14.0325688,9.99082569 C13.5330275,10.1724771 12.9426606,10.2633028 12.3977064,10.2633028 L12.533945,10.2633028 C12.533945,10.2178899 12.5793578,10.1724771 12.6247706,10.1270642 L12.7155963,10.1270642 C12.7155963,10.0816514 12.7155963,10.0816514 12.7610092,10.0816514 L12.8518349,10.0816514 C12.7610092,9.99082569 12.6247706,10.1724771 12.4885321,10.0816514 C12.3522936,9.99082569 12.533945,9.99082569 12.5793578,9.94541284 L12.6701835,9.94541284 C12.6701835,9.9 12.6701835,9.9 12.7155963,9.85458716 C13.0788991,9.62752294 13.4422018,9.4912844 13.7600917,9.26422018 C14.0779817,9.03715596 13.6692661,9.35504587 13.5784404,9.30963303 C13.4876147,9.26422018 13.5784404,9.21880734 13.6238532,9.21880734 C13.8963303,9.12798165 14.1688073,9.03715596 14.3958716,8.90091743 C14.3050459,8.90091743 14.2142202,8.99174312 14.1233945,8.90091743 L14.259633,8.90091743 L14.259633,8.81009174 C14.259633,8.7646789 14.259633,8.7646789 14.3050459,8.7646789 L14.259633,8.7646789 L14.3958716,8.67385321 L14.3504587,8.67385321 C14.4412844,8.58302752 14.5321101,8.53761468 14.6683486,8.53761468 C14.6229358,8.49220183 14.5321101,8.53761468 14.5321101,8.49220183 C14.5321101,8.44678899 14.5775229,8.44678899 14.6229358,8.44678899 L14.5321101,8.44678899 C14.4866972,8.44678899 14.4866972,8.44678899 14.4866972,8.40137615 C14.4866972,8.3559633 14.4866972,8.3559633 14.5321101,8.3559633 L14.5321101,8.3559633 C14.6229358,8.17431193 14.7137615,7.94724771 14.7591743,7.76559633 L14.7137615,7.76559633 C14.4412844,7.99266055 14.0779817,8.17431193 13.7146789,8.26513761 L13.5784404,8.26513761 C13.4422018,8.31055046 13.3059633,8.31055046 13.1697248,8.21972477 L12.9426606,8.03807339 L12.3068807,7.72018349 C11.7165138,7.49311927 11.0807339,7.31146789 10.4449541,7.26605505 C10.7174312,7.17522936 11.0353211,7.08440367 11.3077982,7.03899083 C11.7165138,6.85733945 12.1252294,6.81192661 12.533945,6.81192661 C12.4431193,6.76651376 12.3522936,6.81192661 12.3068807,6.81192661 C11.943578,6.81192661 11.5802752,6.85733945 11.2623853,6.94816514 L10.5357798,7.12981651 C10.3995413,7.17522936 10.3087156,7.35688073 10.1724771,7.31146789 L10.1724771,7.2206422 C10.3995413,6.90275229 10.7174312,6.67568807 11.0807339,6.63027523 C11.4894495,6.58486239 11.943578,6.58486239 12.3522936,6.67568807 L13.3059633,6.85733945 C13.396789,6.85733945 13.4422018,7.03899083 13.5330275,7.08440367 C13.6238532,7.12981651 13.8055046,7.08440367 13.987156,7.17522936 C14.1688073,7.26605505 13.9417431,7.08440367 13.987156,7.03899083 C14.0325688,6.99357798 14.1688073,7.03899083 14.3050459,6.99357798 C14.4412844,6.94816514 14.1233945,6.67568807 14.0325688,6.4940367 L14.0325688,6.4940367 C14.259633,6.63027523 14.3958716,6.85733945 14.6229358,6.94816514 C14.85,7.03899083 15.0316514,7.08440367 14.9862385,6.94816514 C14.85,6.67568807 14.6683486,6.44862385 14.4412844,6.22155963 L14.4412844,6.13073394 L14.3504587,6.13073394 L14.3504587,5.90366972 C14.259633,5.85825688 14.3050459,5.76743119 14.259633,5.72201835 C14.2142202,5.6766055 14.2142202,5.40412844 14.1688073,5.26788991 C14.1233945,5.13165138 14.0779817,4.99541284 14.0779817,4.85917431 C13.987156,4.45045872 13.8963303,4.08715596 13.8509174,3.67844037 C13.8055046,3.22431193 14.1233945,2.86100917 14.3504587,2.45229358 C14.4866972,2.13440367 14.7137615,1.86192661 15.0316514,1.68027523 C15.1224771,1.40779817 15.2587156,1.1353211 15.4857798,0.908256881 C15.6674312,0.681192661 15.9399083,0.499541284 16.2123853,0.408715596 L16.893578,0.136238532 L0.181651376,0.136238532 L0.181651376,13.0334862 L11.9889908,13.0334862 C12.4885321,12.7155963 13.0334862,12.4431193 13.5784404,12.216055 C14.0325688,12.0344037 14.4412844,11.8073394 14.8045872,11.4894495 M11.0807339,9.76376147 C11.0353211,9.76376147 10.9444954,9.80917431 10.9444954,9.76376147 C10.9444954,9.71834862 11.1261468,9.62752294 11.2623853,9.58211009 C11.3986239,9.53669725 11.353211,9.4912844 11.3986239,9.53669725 L11.5802752,9.62752294 C11.4440367,9.76376147 11.2623853,9.71834862 11.0807339,9.76376147 M7.35688073,9.21880734 L7.35688073,9.21880734 C7.6293578,8.85550459 7.90183486,8.44678899 8.12889908,7.99266055 C8.44678899,7.81100917 8.71926606,7.53853211 8.94633028,7.26605505 C9.30963303,6.81192661 9.80917431,6.44862385 10.3087156,6.17614679 C10.5357798,6.13073394 10.762844,6.13073394 10.9444954,6.22155963 C10.8536697,6.31238532 10.7174312,6.31238532 10.6266055,6.35779817 L10.5811927,6.35779817 L10.5811927,6.26697248 C10.3541284,6.53944954 9.99082569,6.67568807 9.80917431,6.99357798 C9.62752294,7.31146789 9.58211009,7.53853211 9.26422018,7.58394495 C8.94633028,7.6293578 9.26422018,7.53853211 9.21880734,7.53853211 C8.53761468,8.03807339 7.90183486,8.58302752 7.35688073,9.21880734 M9.35504587,7.6293578 C9.35504587,7.67477064 9.30963303,7.67477064 9.30963303,7.72018349 C9.30963303,7.76559633 9.26422018,7.81100917 9.21880734,7.81100917 L9.1733945,7.81100917 C9.1733945,7.72018349 9.26422018,7.58394495 9.35504587,7.6293578 L9.35504587,7.6293578 M10.490367,11.2169725 C10.490367,11.2623853 10.4449541,11.2623853 10.4449541,11.3077982 C10.4449541,11.353211 10.490367,11.3077982 10.490367,11.353211 L10.3087156,11.4440367 L10.1724771,11.4440367 C10.1270642,11.4894495 9.99082569,11.4894495 10.0362385,11.4440367 L10.2178899,11.2623853 C10.2633028,11.2169725 10.3087156,11.2169725 10.3087156,11.1715596 C10.3541284,11.1715596 10.3541284,11.1715596 10.3541284,11.1261468 L10.490367,11.1261468 M10.0816514,10.9444954 L10.0816514,10.9444954 L9.76376147,11.1261468 L9.44587156,11.2623853 L9.40045872,11.2623853 L9.1733945,11.4440367 L9.03715596,11.4440367 C9.03715596,11.4894495 9.03715596,11.4894495 8.99174312,11.4894495 L8.94633028,11.4894495 C8.94633028,11.5348624 8.94633028,11.5348624 8.90091743,11.5348624 L8.85550459,11.5348624 C8.81009174,11.5802752 8.7646789,11.5802752 8.7646789,11.6256881 L8.62844037,11.7619266 L8.49220183,11.7619266 L8.58302752,11.6711009 L8.67385321,11.6711009 C8.67385321,11.6256881 8.71926606,11.5802752 8.7646789,11.5802752 L8.7646789,11.5802752 L8.7646789,11.5802752 C8.7646789,11.5348624 8.7646789,11.5348624 8.81009174,11.5348624 L8.81009174,11.5348624 C8.85550459,11.4894495 8.85550459,11.4894495 8.85550459,11.4440367 L8.85550459,11.4440367 C8.90091743,11.3986239 8.94633028,11.353211 8.94633028,11.3077982 L8.94633028,11.3077982 L8.85550459,11.3986239 C8.81009174,11.3986239 8.81009174,11.3986239 8.81009174,11.353211 C8.85550459,11.353211 8.85550459,11.353211 8.85550459,11.3077982 L8.90091743,11.3077982 L8.99174312,11.1715596 L9.08256881,11.1715596 L9.08256881,11.0807339 L9.08256881,11.0807339 C9.35504587,10.8536697 9.71834862,10.8990826 10.0362385,10.7174312 C10.3541284,10.5357798 10.3087156,10.762844 10.3995413,10.7174312 L10.6266055,10.7174312 L10.0362385,11.1261468 M10.5357798,9.44587156 C10.490367,9.40045872 10.5811927,9.44587156 10.6266055,9.35504587 L10.4449541,9.35504587 L10.0362385,9.4912844 L9.53669725,9.67293578 C9.30963303,9.80917431 9.03715596,9.94541284 8.7646789,10.0816514 C8.71926606,10.0816514 8.71926606,10.0816514 8.71926606,10.0362385 L8.90091743,9.9 L8.90091743,9.9 C9.08256881,9.67293578 9.30963303,9.44587156 9.58211009,9.26422018 L9.58211009,9.1733945 C9.67293578,9.08256881 9.76376147,8.99174312 9.85458716,8.90091743 C9.9,8.81009174 9.99082569,8.71926606 10.0816514,8.67385321 L9.99082569,8.67385321 C9.9,8.67385321 9.80917431,8.71926606 9.71834862,8.62844037 L9.85458716,8.53761468 L9.80917431,8.53761468 C9.76376147,8.44678899 9.85458716,8.40137615 9.94541284,8.40137615 L10.2178899,8.31055046 C10.0362385,8.26513761 9.85458716,8.3559633 9.67293578,8.26513761 C9.76376147,7.94724771 9.99082569,7.67477064 10.3087156,7.53853211 L10.3541284,7.53853211 C10.3541284,7.67477064 10.3087156,7.76559633 10.1724771,7.76559633 L10.762844,7.94724771 C10.762844,7.99266055 10.762844,7.99266055 10.7174312,7.99266055 C10.6720183,7.99266055 10.6720183,7.99266055 10.6720183,7.94724771 C10.762844,8.03807339 10.9444954,7.99266055 11.0353211,8.08348624 C11.1261468,8.17431193 10.8990826,8.08348624 10.8536697,8.08348624 C11.5802752,8.31055046 12.3977064,8.44678899 13.0334862,8.94633028 C12.4885321,9.12798165 11.943578,9.26422018 11.353211,9.26422018 L11.1261468,9.26422018 C11.0353211,9.26422018 10.9444954,9.26422018 10.8990826,9.35504587 L10.5811927,9.35504587" id="Rouge" fill="#000091"></path>
                    <path d="M35.5582569,0.136238532 L21.7527523,0.136238532 L21.843578,0.22706422 L22.2068807,0.408715596 C22.3885321,0.499541284 22.5247706,0.635779817 22.6610092,0.772018349 C22.706422,0.862844037 22.7972477,0.999082569 22.7518349,1.08990826 C22.706422,1.18073394 22.6610092,1.40779817 22.5701835,1.45321101 C22.3885321,1.5440367 22.2068807,1.5440367 22.0252294,1.5440367 L21.7527523,1.45321101 C22.116055,1.58944954 22.4793578,1.81651376 22.706422,2.13440367 L22.9334862,2.22522936 L22.9334862,2.22522936 C22.8880734,2.2706422 22.8426606,2.31605505 22.8880734,2.36146789 L22.9334862,2.36146789 C23.0697248,2.31605505 23.0243119,2.08899083 23.2059633,2.17981651 C23.3422018,2.22522936 23.3876147,2.36146789 23.3422018,2.45229358 C23.3422018,2.49770642 23.296789,2.49770642 23.296789,2.54311927 L23.0243119,2.77018349 C22.9788991,2.81559633 22.9788991,2.90642202 23.0243119,2.95183486 L23.1605505,3.22431193 L23.296789,3.76926606 C23.4330275,4.13256881 23.4784404,4.49587156 23.4784404,4.85917431 C23.4784404,5.04082569 23.3876147,5.22247706 23.4784404,5.40412844 C23.5238532,5.58577982 23.6146789,5.76743119 23.7055046,5.94908257 C23.8417431,6.03990826 23.9325688,6.17614679 23.9779817,6.31238532 C24.159633,6.53944954 24.3866972,6.81192661 24.2958716,7.08440367 C24.2050459,7.35688073 23.9325688,7.2206422 23.7509174,7.35688073 C23.5692661,7.49311927 23.7509174,7.67477064 23.8417431,7.76559633 C23.9325688,7.85642202 23.6600917,8.12889908 23.5238532,8.21972477 C23.3876147,8.31055046 23.6600917,8.26513761 23.6600917,8.31055046 C23.6600917,8.3559633 23.8417431,8.49220183 23.7509174,8.62844037 C23.6600917,8.7646789 23.3422018,8.85550459 23.5238532,9.08256881 C23.7055046,9.30963303 23.5238532,9.44587156 23.4784404,9.58211009 C23.3876147,9.76376147 23.2513761,9.9 23.0243119,9.94541284 C22.8880734,10.0362385 22.706422,10.0362385 22.5701835,9.99082569 L22.433945,9.99082569 C22.0252294,9.9 21.6165138,9.85458716 21.2077982,9.80917431 L20.8444954,9.9 L20.5720183,10.1724771 L20.4357798,10.1724771 L20.2541284,10.4449541 L20.2541284,10.4449541 C20.2541284,10.490367 20.2541284,10.490367 20.2087156,10.490367 L20.0270642,10.9444954 C19.8908257,11.4894495 19.9362385,11.9889908 20.0724771,12.0798165 C20.2087156,12.1706422 20.8899083,12.3522936 21.3894495,12.6247706 L21.9798165,12.8972477 L35.5582569,12.8972477 L35.5582569,0.136238532 L35.5582569,0.136238532 Z" id="Bleu" fill="#E1000F"></path>
                    <path d="M22.5701835,4.85917431 L22.7972477,4.85917431 C22.7518349,5.08623853 22.4793578,5.13165138 22.2977064,5.31330275 L22.2522936,5.31330275 C22.1614679,5.3587156 22.2068807,5.49495413 22.116055,5.49495413 C22.0252294,5.49495413 21.9798165,5.49495413 21.8889908,5.49495413 C21.9798165,5.63119266 22.116055,5.6766055 22.2522936,5.6766055 L22.3431193,5.76743119 L22.433945,5.76743119 L22.433945,5.90366972 C22.3431193,5.99449541 22.2522936,5.94908257 22.1614679,5.99449541 L22.706422,5.99449541 C22.8426606,5.90366972 22.706422,5.6766055 22.7972477,5.54036697 C22.8880734,5.40412844 22.7972477,5.49495413 22.7518349,5.49495413 C22.706422,5.49495413 22.8426606,5.3587156 22.8880734,5.3587156 C22.9334862,5.3587156 23.0243119,5.31330275 23.0243119,5.26788991 C23.0243119,5.22247706 22.9334862,5.17706422 22.9788991,5.13165138 C23.0243119,5.08623853 23.2513761,4.90458716 23.2059633,4.76834862 C23.1605505,4.63211009 22.9788991,4.67752294 22.8426606,4.63211009 C22.706422,4.58669725 22.5701835,4.63211009 22.433945,4.67752294 L22.0706422,4.76834862 L21.6165138,4.99541284 C21.7981651,4.90458716 21.9798165,4.85917431 22.1614679,4.85917431 C22.2977064,4.81376147 22.433945,4.81376147 22.5701835,4.85917431" id="Yeux" fill="#9C9B9B"></path>
                </g>
            </g>
            <path d="M3.13762096,73.5148354 L3.20747918,73.2962467 C2.27002687,73.1193477 2.15059184,73.1193477 2.52467137,72.0973894 L2.90438462,71.0461358 L3.94211729,71.0461358 C4.4074632,71.0461358 4.41422368,71.2365558 4.34436545,71.7447181 L4.6125309,71.7447181 L5.23224095,70.044459 L4.96520226,70.044459 C4.73196593,70.4467072 4.5483064,70.7430413 4.0412709,70.7430413 L3.01818593,70.7430413 L3.56127729,69.2546104 C3.73028912,68.7813772 3.82944273,68.6822236 4.46380048,68.6822236 L4.91562545,68.6822236 C5.57139137,68.6822236 5.64913681,68.8591227 5.64913681,69.5227758 L5.90941504,69.5227758 L6.12913042,68.3656081 L2.23509776,68.3656081 L2.16411279,68.5841968 C2.91903232,68.7396877 2.99001729,68.8095459 2.63734593,69.783054 L1.79003326,72.0973894 C1.4373619,73.0641371 1.28975823,73.1407558 0.422164151,73.2962467 L0.357939654,73.5148354 L3.13762096,73.5148354 Z M8.54149267,70.6788168 C8.67557539,70.2202313 8.60459042,69.8179832 8.25191906,69.8179832 C7.83614995,69.8179832 7.73023587,70.1357254 7.30657953,71.0461358 L7.30657953,70.5244526 C7.30657953,70.1503731 7.1871445,69.8179832 6.84799409,69.8179832 C6.45363314,69.8179832 6.09420131,70.4320595 5.81814865,71.0393754 L6.00180817,71.0393754 C6.19222817,70.7644494 6.36912723,70.6021981 6.50997042,70.6021981 C6.67898226,70.6021981 6.77137539,70.8624763 6.50997042,71.4416235 L5.74716368,73.1339954 C5.60632048,73.4517376 5.7550509,73.6556785 6.06490592,73.6556785 C6.25645267,73.6556785 6.33983184,73.6072285 6.41757729,73.4021608 L7.16573634,71.4202154 C7.3775645,71.1588104 7.5679845,70.9323345 7.80798131,70.6788168 L8.54149267,70.6788168 Z M11.9701794,69.6557318 L11.6738453,69.6354504 L11.3414554,69.9599531 L11.2715972,69.9599531 C9.66373125,69.9599531 8.27332723,71.7649995 8.27332723,73.0776581 C8.27332723,73.4449771 8.49867634,73.6556785 8.8513477,73.6556785 C9.26824356,73.6556785 9.6772522,73.0641371 10.1358376,72.4286526 L10.1144295,72.6540017 C10.0580922,73.3041339 10.2552727,73.6556785 10.5944231,73.6556785 C10.988784,73.6556785 11.3493426,73.042729 11.6242685,72.4354131 L11.440609,72.4354131 C11.250189,72.7114658 11.0732899,72.8725904 10.9324468,72.8725904 C10.7848431,72.8725904 10.678929,72.6044249 10.9324468,72.0342917 L11.9701794,69.6557318 Z M9.00007811,72.5548481 C9.00007811,71.687254 9.96682581,70.5098049 10.5087904,70.5098049 C10.6293522,70.5098049 10.7420268,70.5244526 10.8411804,70.5526213 L10.2766808,72.0545731 C9.95217811,72.4500608 9.45190308,72.9289277 9.21866675,72.9289277 C9.08458403,72.9289277 9.00007811,72.8162531 9.00007811,72.5548481 L9.00007811,72.5548481 Z M12.5617208,70.3622013 L13.2107263,70.3622013 L12.1808808,73.1768117 C12.0896144,73.4168085 12.2169367,73.6556785 12.463694,73.6556785 C13.0484749,73.6556785 13.9938144,73.0776581 14.3262044,72.2878094 L14.1425449,72.2878094 C13.8811399,72.5627354 13.3808649,72.9289277 12.9504481,73.0066731 L13.8957876,70.3622013 L14.8625353,70.3622013 L14.9819703,69.9599531 L14.0433912,69.9599531 L14.4039498,68.9436286 L14.0298703,68.9436286 L13.3594567,69.9599531 L12.5617208,70.0726277 L12.5617208,70.3622013 Z M17.1689834,72.2945699 L16.9289866,72.2945699 C16.6258921,72.6540017 16.3013894,72.9368149 15.9768866,72.9368149 C15.6456234,72.9368149 15.4754849,72.7396344 15.4754849,72.2945699 C15.4754849,72.1109104 15.496893,71.9272509 15.5318221,71.758239 L17.4855989,71.1171208 C17.8675657,70.2134709 17.4089802,69.8179832 16.8726494,69.8179832 C15.948718,69.8179832 14.8974644,71.3627513 14.8974644,72.7170995 C14.8974644,73.3244154 15.1859112,73.6556785 15.6377362,73.6556785 C16.1673066,73.6556785 16.7171585,73.1407558 17.1689834,72.2945699 L17.1689834,72.2945699 Z M16.4985698,70.3407931 C16.7599748,70.3407931 16.9853239,70.5379736 16.8658889,71.0393754 L15.6523839,71.3210617 C15.8630853,70.7565622 16.2157567,70.3407931 16.4985698,70.3407931 L16.4985698,70.3407931 Z M20.8297798,70.6788168 C20.9638625,70.2202313 20.8940043,69.8179832 20.5413329,69.8179832 C20.124437,69.8179832 20.018523,70.1357254 19.5948666,71.0461358 L19.5948666,70.5244526 C19.5948666,70.1503731 19.4754316,69.8179832 19.1374079,69.8179832 C18.7419202,69.8179832 18.3824884,70.4320595 18.1075625,71.0393754 L18.2900953,71.0393754 C18.4805153,70.7644494 18.6574143,70.6021981 18.7982575,70.6021981 C18.9672694,70.6021981 19.0596625,70.8624763 18.7982575,71.4416235 L18.0365775,73.1339954 C17.8957343,73.4517376 18.043338,73.6556785 18.3543198,73.6556785 C18.5447398,73.6556785 18.6292457,73.6072285 18.7069911,73.4021608 L19.4540234,71.4202154 C19.6658516,71.1588104 19.8562716,70.9323345 20.0962684,70.6788168 L20.8297798,70.6788168 Z M20.8444275,73.1339954 C20.7024575,73.4517376 20.8511879,73.6556785 21.1621697,73.6556785 C21.3525897,73.6556785 21.4370956,73.6072285 21.5148411,73.4021608 L22.2618734,71.4202154 C22.6077843,70.996559 23.3198875,70.544734 23.6027006,70.544734 C23.8066415,70.544734 23.7784729,70.7148726 23.6443902,70.9683904 L22.4951097,73.1768117 C22.3824352,73.3954003 22.5300388,73.6556785 22.7767961,73.6556785 C23.3412956,73.6556785 24.0117092,73.148643 24.2798747,72.4354131 L24.0962152,72.4354131 C23.9125556,72.6968181 23.6027006,72.9863917 23.313127,73.0348417 L24.3012828,71.0393754 C24.4274783,70.7847309 24.4917028,70.544734 24.4917028,70.354314 C24.4917028,70.0298113 24.3080433,69.8179832 23.9688929,69.8179832 C23.4821388,69.8179832 22.9886243,70.3689617 22.4027166,71.0461358 L22.4027166,70.5244526 C22.4027166,70.1503731 22.2832815,69.8179832 21.9441311,69.8179832 C21.732303,69.8179832 21.528362,70.0016427 21.337942,70.2630477 L21.337942,70.3329059 C21.7052611,70.3126245 21.8675124,70.8624763 21.6061075,71.4416235 L20.8444275,73.1339954 Z M27.0584292,68.8174331 C27.3130737,68.8174331 27.5249019,68.6123654 27.5249019,68.3509604 C27.5249019,68.0974427 27.3130737,67.8856145 27.0584292,67.8856145 C26.798151,67.8856145 26.5930833,68.0974427 26.5930833,68.3509604 C26.5930833,68.6123654 26.798151,68.8174331 27.0584292,68.8174331 L27.0584292,68.8174331 Z M26.8612488,70.2281185 C26.9389942,69.9667136 26.7632219,69.8179832 26.6291392,69.8179832 C26.0646396,69.8179832 25.394226,70.3261454 25.1260606,71.0393754 L25.3097201,71.0393754 C25.4933796,70.7779704 25.8032347,70.4883968 26.0928083,70.4399467 L25.013386,73.2466699 C24.9142324,73.5080749 25.1114129,73.6556785 25.2466224,73.6556785 C25.7818265,73.6556785 26.4094238,73.1407558 26.678716,72.4354131 L26.4939297,72.4354131 C26.3113969,72.6968181 26.0015419,72.9863917 25.7119683,73.0348417 L26.8612488,70.2281185 Z M27.7367301,70.3622013 L28.3857355,70.3622013 L27.3547633,73.1768117 C27.2634969,73.4168085 27.3908192,73.6556785 27.6375765,73.6556785 C28.2234841,73.6556785 29.1688237,73.0776581 29.4989601,72.2878094 L29.3164273,72.2878094 C29.0550224,72.5627354 28.5547473,72.9289277 28.1243305,73.0066731 L29.0696701,70.3622013 L30.0364178,70.3622013 L30.1558528,69.9599531 L29.2172737,69.9599531 L29.5778323,68.9436286 L29.2037528,68.9436286 L28.5333392,69.9599531 L27.7367301,70.0726277 L27.7367301,70.3622013 Z M31.9541387,69.4585513 L33.329895,68.1751881 L33.329895,68.0264577 L32.5896232,68.0264577 L31.7434373,69.4585513 L31.9541387,69.4585513 Z M32.3428659,72.2945699 L32.1028691,72.2945699 C31.7986478,72.6540017 31.4752718,72.9368149 31.1507691,72.9368149 C30.8183792,72.9368149 30.6493673,72.7396344 30.6493673,72.2945699 C30.6493673,72.1109104 30.6707755,71.9272509 30.7057046,71.758239 L32.6606082,71.1171208 C33.0414482,70.2134709 32.5828627,69.8179832 32.0465318,69.8179832 C31.1214737,69.8179832 30.0713469,71.3627513 30.0713469,72.7170995 C30.0713469,73.3244154 30.3609205,73.6556785 30.8116187,73.6556785 C31.3411891,73.6556785 31.8910409,73.1407558 32.3428659,72.2945699 L32.3428659,72.2945699 Z M31.6724523,70.3407931 C31.9338573,70.3407931 32.1592064,70.5379736 32.0386446,71.0393754 L30.8262664,71.3210617 C31.0380946,70.7565622 31.3907659,70.3407931 31.6724523,70.3407931 L31.6724523,70.3407931 Z" id="Fill-4" fill="#000000"></path>
            <path d="M4.53444743,59.2016738 L5.91020376,58.2563343 L5.91020376,58.1076039 L5.07753879,58.1076039 L4.31585879,59.2016738 L4.53444743,59.2016738 Z M3.9699479,62.1571274 C4.43642056,62.1571274 4.44205429,62.3475474 4.37219607,62.8557097 L4.64036151,62.8557097 L5.26119832,61.1554506 L4.99303287,61.1554506 C4.75979654,61.5576988 4.57726376,61.8540329 4.06910151,61.8540329 L3.04601654,61.8540329 L3.56093926,60.4365869 C3.7299511,59.9633538 3.82910471,59.8720874 4.4645892,59.8720874 L4.91528743,59.8720874 C5.57105335,59.8720874 5.64879879,60.0478597 5.64879879,60.7036256 L5.91020376,60.7036256 L6.1287924,59.5475847 L2.23475974,59.5475847 L2.16377477,59.7661733 C2.91869429,59.9216642 2.98967926,59.9915224 2.6370079,60.9650306 L1.78969524,63.279366 C1.43702388,64.2461137 1.28942021,64.3227324 0.421826128,64.4782233 L0.357601631,64.6968119 L4.68993832,64.6968119 L5.46626601,63.469786 L5.16880518,63.469786 C4.67529062,63.9351319 4.05445382,64.3790697 3.18685974,64.3790697 C2.03757926,64.3790697 2.1423666,64.3306196 2.52433335,63.279366 L2.93334199,62.1571274 L3.9699479,62.1571274 Z M8.90058648,65.1768055 C8.90058648,64.7249805 8.49946506,64.5627292 7.84369914,64.3655487 C7.27919962,64.1965369 7.02455512,64.1469601 7.02455512,63.9633005 C7.02455512,63.8156969 7.14399015,63.6387978 7.38398695,63.5114756 C8.30904506,63.4618988 8.9084737,62.6292338 8.9084737,61.9317783 C8.9084737,61.7841746 8.88030506,61.6568524 8.83072826,61.5441778 L9.61381642,61.5441778 L9.73325145,61.1419297 L8.49157784,61.1419297 C8.34397417,61.0495365 8.16820187,60.9999597 7.99130281,60.9999597 C7.01103417,60.9999597 6.37554968,61.8607933 6.37554968,62.5593756 C6.37554968,63.088946 6.71470009,63.4202092 7.12370873,63.4979546 C6.66512329,63.7018956 6.41160553,63.9418924 6.41160553,64.2247055 C6.41160553,64.3869569 6.46681607,64.4996314 6.60089879,64.6055455 C5.54401145,64.9154005 5.12711559,65.2680719 5.12711559,65.7694737 C5.12711559,66.2562278 5.76936056,66.4601687 6.53104056,66.4601687 C7.82116423,66.4601687 8.90058648,65.7627132 8.90058648,65.1768055 L8.90058648,65.1768055 Z M7.37046601,63.2433101 C7.13835642,63.2433101 7.04596329,63.0461297 7.04596329,62.8207805 C7.04596329,62.1920565 7.38398695,61.2681252 7.91355737,61.2681252 C8.1467937,61.2681252 8.23806009,61.4664324 8.23806009,61.6917815 C8.23806009,62.3193788 7.89890968,63.2433101 7.37046601,63.2433101 L7.37046601,63.2433101 Z M5.91020376,65.5227164 C5.91020376,65.1486369 6.26963559,64.9154005 6.78455832,64.7114596 C6.95357015,64.7959655 7.20821465,64.8872319 7.54623831,64.9999065 C8.0825692,65.1768055 8.28763689,65.2466637 8.28763689,65.4089151 C8.28763689,65.754826 7.7017292,66.016231 6.90512009,66.016231 C6.23470648,66.016231 5.91020376,65.8753878 5.91020376,65.5227164 L5.91020376,65.5227164 Z M13.0909532,60.8388351 L12.7957459,60.8174269 L12.4633559,61.1419297 L12.3934977,61.1419297 C10.7845051,61.1419297 9.39522778,62.9469761 9.39522778,64.2596346 C9.39522778,64.6258269 9.62057689,64.8376551 9.97324826,64.8376551 C10.3890174,64.8376551 10.7991528,64.2461137 11.2577382,63.6106292 L11.23633,63.8359783 C11.1799928,64.4849837 11.3771732,64.8376551 11.7163236,64.8376551 C12.1106846,64.8376551 12.4701164,64.2247055 12.7461691,63.6173897 L12.5625096,63.6173897 C12.3720896,63.8934423 12.1951905,64.0545669 12.0543473,64.0545669 C11.9056169,64.0545669 11.8008296,63.7864015 12.0543473,63.2162682 L13.0909532,60.8388351 Z M10.1208519,63.7368247 C10.1208519,62.8692306 11.0875996,61.6917815 11.630691,61.6917815 C11.7512528,61.6917815 11.8639273,61.7064292 11.9630809,61.7345978 L11.3985814,63.2365497 C11.0740787,63.6320374 10.5726769,64.1109042 10.3405673,64.1109042 C10.2064846,64.1109042 10.1208519,63.9982297 10.1208519,63.7368247 L10.1208519,63.7368247 Z M13.8605204,64.2168183 L15.8278182,59.0608306 L15.7647204,58.9830852 L14.5309341,59.1239284 L14.5309341,59.271532 L14.7698041,59.4551916 C14.9883928,59.6242034 14.9185345,59.7875815 14.7213541,60.3092647 L13.1833464,64.3587882 C13.0706718,64.5773769 13.2182755,64.8376551 13.4650328,64.8376551 C14.0295323,64.8376551 14.6289609,64.3306196 14.8971264,63.6173897 L14.7134668,63.6173897 C14.5309341,63.8787946 14.1500941,64.1683682 13.8605204,64.2168183 L13.8605204,64.2168183 Z M17.6125832,59.9994097 C17.8672277,59.9994097 18.0790558,59.794342 18.0790558,59.532937 C18.0790558,59.2794192 17.8672277,59.0675911 17.6125832,59.0675911 C17.3523049,59.0675911 17.1472372,59.2794192 17.1472372,59.532937 C17.1472372,59.794342 17.3523049,59.9994097 17.6125832,59.9994097 L17.6125832,59.9994097 Z M17.4154027,61.4089684 C17.4931481,61.1486901 17.3173758,60.9999597 17.1832931,60.9999597 C16.6187936,60.9999597 15.94838,61.508122 15.6802145,62.2213519 L15.8638741,62.2213519 C16.0475336,61.9599469 16.3573886,61.6703733 16.6469622,61.6207965 L15.56754,64.4286465 C15.4683864,64.6900514 15.6655668,64.8376551 15.8007763,64.8376551 C16.3371072,64.8376551 16.9647045,64.3227324 17.2328699,63.6173897 L17.0492104,63.6173897 C16.8655509,63.8787946 16.5545691,64.1683682 16.2661222,64.2168183 L17.4154027,61.4089684 Z M18.2897572,61.5441778 L18.9398894,61.5441778 L17.910044,64.3587882 C17.8176509,64.598785 17.9449731,64.8376551 18.1917304,64.8376551 C18.7776381,64.8376551 19.7218509,64.2596346 20.0542408,63.469786 L19.8705813,63.469786 C19.6091763,63.7447119 19.1089013,64.1109042 18.6784845,64.1886497 L19.623824,61.5441778 L20.5905717,61.5441778 L20.7100067,61.1419297 L19.7714277,61.1419297 L20.1319862,60.1256052 L19.7579067,60.1256052 L19.0874931,61.1419297 L18.2897572,61.2546042 L18.2897572,61.5441778 Z M22.5094194,60.6405279 L23.884049,59.3571647 L23.884049,59.2084343 L23.1437771,59.2084343 L22.2975912,60.6405279 L22.5094194,60.6405279 Z M22.8970198,63.4765465 L22.657023,63.4765465 C22.3539285,63.8359783 22.0294258,64.1187914 21.704923,64.1187914 C21.3725331,64.1187914 21.2035213,63.9204842 21.2035213,63.4765465 C21.2035213,63.2928869 21.2249294,63.1092274 21.2598585,62.9402156 L23.2147621,62.2990974 C23.5956021,61.3954474 23.1370167,60.9999597 22.6006858,60.9999597 C21.6767544,60.9999597 20.6255008,62.5458546 20.6255008,63.8990761 C20.6255008,64.5063919 20.9150744,64.8376551 21.3657726,64.8376551 C21.895343,64.8376551 22.4451949,64.3227324 22.8970198,63.4765465 L22.8970198,63.4765465 Z M22.2266062,61.5227697 C22.4880112,61.5227697 22.7133603,61.7199501 22.5939253,62.2213519 L21.3804203,62.5030383 C21.5922485,61.9385388 21.9449198,61.5227697 22.2266062,61.5227697 L22.2266062,61.5227697 Z" id="Fill-6" fill="#000000"></path>
            <path d="M4.78864123,50.7289979 L2.22078809,50.7289979 L2.14980312,50.9475865 C2.90472265,51.1030774 2.97570762,51.1740624 2.62303626,52.1464438 L1.79037129,54.4607792 C1.43769993,55.4275269 1.29009626,55.5052723 0.422502175,55.6596365 L0.358277678,55.8782251 L4.26695803,55.8782251 L5.11314395,54.368386 L4.81680987,54.368386 C4.33681626,54.8979565 3.77231673,55.5616096 2.90472265,55.5616096 C2.24895673,55.5616096 2.17121129,55.4478083 2.52388265,54.4607792 L3.35654762,52.1464438 C3.70245851,51.1808228 3.85682265,51.1030774 4.72441673,50.9475865 L4.78864123,50.7289979 Z M7.63142028,51.1808228 C7.88606478,51.1808228 8.0967662,50.9757552 8.0967662,50.7143502 C8.0967662,50.4608324 7.88606478,50.2490043 7.63142028,50.2490043 C7.37114205,50.2490043 7.16607436,50.4608324 7.16607436,50.7143502 C7.16607436,50.9757552 7.37114205,51.1808228 7.63142028,51.1808228 L7.63142028,51.1808228 Z M7.43423981,52.5915083 C7.51198525,52.3301033 7.3350862,52.1824997 7.20100347,52.1824997 C6.63650395,52.1824997 5.96609034,52.6906619 5.69905164,53.4027651 L5.88158442,53.4027651 C6.06524395,53.1413601 6.37622572,52.8529133 6.66467259,52.8033365 L5.58525034,55.6111864 C5.48722348,55.8714646 5.68440395,56.020195 5.81848667,56.020195 C6.35481756,56.020195 6.98241484,55.5052723 7.25058028,54.7999296 L7.06692075,54.7999296 C6.88326123,55.0602078 6.5734062,55.3497814 6.28383259,55.3993582 L7.43423981,52.5915083 Z M11.2708084,52.9655878 C11.2708084,52.3943278 11.0589803,52.1824997 10.6646193,52.1824997 C10.1711048,52.1824997 9.70575886,52.7041828 9.2392862,53.3385406 L10.4178621,50.2422438 L10.3536376,50.1644984 L9.11985117,50.3064683 L9.11985117,50.454072 L9.35984797,50.6366047 C9.57843661,50.8067433 9.50745164,50.9836424 9.31027117,51.4906779 L8.04042892,54.7638737 C7.94916253,55.0038705 7.83648797,55.2855569 7.83648797,55.3633024 C7.83648797,55.7024528 8.29394667,56.020195 8.71084253,56.020195 C9.669703,56.020195 11.2708084,54.2917673 11.2708084,52.9655878 L11.2708084,52.9655878 Z M9.0488662,55.4478083 C8.8584462,55.4478083 8.58352028,55.272036 8.58352028,55.1176718 C8.58352028,55.068095 8.6680262,54.8483797 8.77394028,54.5734537 L9.09168253,53.7340283 C9.4297062,53.3329069 9.94575566,52.9013633 10.2342025,52.9013633 C10.4111016,52.9013633 10.5440576,53.0140379 10.5440576,53.2754428 C10.5440576,54.0450101 9.82519389,55.4478083 9.0488662,55.4478083 L9.0488662,55.4478083 Z M13.8386616,54.6579597 L13.5986648,54.6579597 C13.2955702,55.0185182 12.9710675,55.3002046 12.6465648,55.3002046 C12.3153016,55.3002046 12.1462897,55.1030241 12.1462897,54.6579597 C12.1462897,54.4754269 12.1665712,54.2917673 12.202627,54.1227555 L14.1564038,53.4805105 C14.5372438,52.5779873 14.0786584,52.1824997 13.5434542,52.1824997 C12.6183961,52.1824997 11.5671425,53.7272678 11.5671425,55.081616 C11.5671425,55.6878051 11.8567161,56.020195 12.3085411,56.020195 C12.8381115,56.020195 13.3879634,55.5052723 13.8386616,54.6579597 L13.8386616,54.6579597 Z M13.168248,52.7041828 C13.4296529,52.7041828 13.6561288,52.9013633 13.535567,53.4027651 L12.3220621,53.6855782 C12.5338902,53.1210787 12.8865616,52.7041828 13.168248,52.7041828 L13.168248,52.7041828 Z M17.5005847,53.0433333 C17.6346674,52.5836211 17.5636824,52.1824997 17.211011,52.1824997 C16.7952419,52.1824997 16.6893279,52.4991152 16.2656715,53.4095256 L16.2656715,52.8878424 C16.2656715,52.5137628 16.1462365,52.1824997 15.8070861,52.1824997 C15.4127251,52.1824997 15.0521665,52.7954492 14.7772406,53.4027651 L14.9609002,53.4027651 C15.1513202,53.1278392 15.3282192,52.9655878 15.4690624,52.9655878 C15.6380742,52.9655878 15.7293406,53.225866 15.4690624,53.8050133 L14.7062557,55.4973851 C14.5654125,55.8151273 14.7141429,56.020195 15.0239979,56.020195 C15.2144179,56.020195 15.3000506,55.9706182 15.3766693,55.7655505 L16.1248283,53.7836051 C16.3366565,53.5222001 16.5270765,53.296851 16.7670733,53.0433333 L17.5005847,53.0433333 Z M18.0076202,52.725591 L18.5225429,52.725591 L17.4926974,55.5402014 C17.401431,55.7801982 17.5287533,56.020195 17.7755106,56.020195 C18.3602915,56.020195 19.305631,55.4410478 19.638021,54.6511992 L19.4543615,54.6511992 C19.1929565,54.9261251 18.6926815,55.2934441 18.2622647,55.3711896 L19.2076042,52.725591 L20.1743519,52.725591 L20.2937869,52.3233428 L19.3552078,52.3233428 L19.7157664,51.3070184 L19.3416869,51.3070184 L18.6712733,52.3233428 L18.0076202,52.4360174 L18.0076202,52.725591 Z M22.0503832,51.8230678 L23.4261396,50.5385779 L23.4261396,50.3909742 L22.684741,50.3909742 L21.8385551,51.8230678 L22.0503832,51.8230678 Z M22.4379837,54.6579597 L22.1979869,54.6579597 C21.8948923,55.0185182 21.5703896,55.3002046 21.2458869,55.3002046 C20.9146237,55.3002046 20.7456119,55.1030241 20.7456119,54.6579597 C20.7456119,54.4754269 20.76702,54.2917673 20.8019492,54.1227555 L22.755726,53.4805105 C23.136566,52.5779873 22.6779805,52.1824997 22.1416496,52.1824997 C21.2177183,52.1824997 20.1664647,53.7272678 20.1664647,55.081616 C20.1664647,55.6878051 20.4560383,56.020195 20.9078632,56.020195 C21.4363069,56.020195 21.9872855,55.5052723 22.4379837,54.6579597 L22.4379837,54.6579597 Z M21.7675701,52.7041828 C22.0289751,52.7041828 22.2543242,52.9013633 22.1348892,53.4027651 L20.9213842,53.6855782 C21.1332123,53.1210787 21.4858837,52.7041828 21.7675701,52.7041828 L21.7675701,52.7041828 Z" id="Fill-8" fill="#000000"></path>
        </g>
    </g>
</svg>