<svg width="79" height="76" viewBox="0 0 79 76" fill="none" xmlns="http://www.w3.org/2000/svg">
<path d="M23.043 49.8689L37.041 37.8406C38.4572 36.6254 40.5475 36.6254 41.9636 37.8406L55.9586 49.8689L52.8912 52.4014L39.5023 40.8956L26.1103 52.4045L23.0461 49.872L23.043 49.8689Z" fill="#CEC3F4"/>
<path d="M22.4695 9.75812C22.4695 7.73279 24.1114 6.09087 26.1367 6.09087H76.6929V5.66725C76.6929 3.64191 75.0509 2 73.0256 2H22.3118C20.2864 2 18.6445 3.64191 18.6445 5.66725V30.2372C18.6445 32.2626 20.2864 33.9045 22.3118 33.9045H22.4695V9.75812Z" fill="#CEC3F4"/>
<path d="M27.0829 33.9045L27.0767 42.4171L38.833 33.9045H73.0256C75.051 33.9045 76.6929 32.2626 76.6929 30.2372V5.66725C76.6929 3.64191 75.051 2 73.0256 2H22.3118C20.2864 2 18.6445 3.64191 18.6445 5.66725V30.2372C18.6445 32.2626 20.2864 33.9045 22.3118 33.9045H27.086H27.0829Z" stroke="#452D9D" stroke-width="2.06244" stroke-linecap="round" stroke-linejoin="round"/>
<path d="M1.6875 32.1606V74.0001H77.3114V35.8372" stroke="#452D9D" stroke-width="2.06244" stroke-linecap="round" stroke-linejoin="round"/>
<path d="M15.1135 20.4385L1.6875 32.1607" stroke="#452D9D" stroke-width="2.06244" stroke-linecap="round" stroke-linejoin="round"/>
<path d="M77.3114 73.9997L39.501 40.979L1.6875 73.9997" stroke="#452D9D" stroke-width="2.06244" stroke-linecap="round" stroke-linejoin="round"/>
<path d="M26.1091 52.6738L1.6875 32.1606" stroke="#452D9D" stroke-width="2.06244" stroke-linecap="round" stroke-linejoin="round"/>
<path d="M52.8945 52.6738L71.6204 36.9473" stroke="#452D9D" stroke-width="2.06244" stroke-linecap="round" stroke-linejoin="round"/>
<path d="M15.2031 32.1606H1.6875" stroke="#452D9D" stroke-width="2.06244" stroke-linecap="round" stroke-linejoin="round"/>
<path d="M32.4609 17.9027L34.7677 20.6393L38.1071 15.5713" stroke="#452D9D" stroke-width="2.06244" stroke-linecap="round" stroke-linejoin="round"/>
<path d="M42.7054 10.3706H27.8633V25.2128H42.7054V10.3706Z" stroke="#452D9D" stroke-width="2.06244" stroke-linecap="round" stroke-linejoin="round"/>
<path d="M48.8867 19.9126H68.4691" stroke="#452D9D" stroke-width="2.06244" stroke-linecap="round" stroke-linejoin="round"/>
<path d="M48.8867 15.6704H59.5978" stroke="#452D9D" stroke-width="2.06244" stroke-linecap="round" stroke-linejoin="round"/>
</svg>
