<?xml version="1.0" encoding="utf-8"?>
<!-- Generator: Adobe Illustrator 16.0.0, SVG Export Plug-In . SVG Version: 6.00 Build 0)  -->
<!DOCTYPE svg PUBLIC "-//W3C//DTD SVG 1.1//EN" "http://www.w3.org/Graphics/SVG/1.1/DTD/svg11.dtd">
<svg version="1.1" id="Calque_1" xmlns="http://www.w3.org/2000/svg" xmlns:xlink="http://www.w3.org/1999/xlink" x="0px" y="0px"
	 width="354.509px" height="94.58px" viewBox="0 0 354.509 94.58" enable-background="new 0 0 354.509 94.58" xml:space="preserve">
<g id="Symbols">
	<g id="FOOTER" transform="translate(-1071.000000, -48.000000)">
		<g id="logo-MEN" transform="translate(1071.081633, 47.572816)">
			<polygon id="Fill-1" fill="#FFFFFF" points="0.418,94.503 137.63,94.503 137.63,0.929 0.418,0.929 			"/>
			<polygon id="Stroke-2" fill="none" stroke="#1D1C1B" points="0.418,94.503 137.63,94.503 137.63,0.929 0.418,0.929 			"/>
			<polygon id="Fill-4" fill="#FFFFFF" points="116.194,20.897 116.194,52.79 21.912,52.794 21.887,20.897 			"/>
			<path id="Fill-5" fill="#214691" d="M50.017,40.628c-0.86,0.246-1.733,0.287-2.518,0.711c1.87-0.074,3.742,0.227,5.544,0.8
				c0.645,0.213,1.214,0.5,1.797,0.852c0.284,0.226,0.43,0.449,0.718,0.585c0.365,0.217,0.864,0.217,1.227,0.081h0.354
				c1.079-0.292,2.241-0.581,2.958-1.368c0,0.063,0.073,0.063,0.138,0.063c-0.21,0.576-0.21,1.224-0.64,1.733
				c0,0.072-0.079,0.211,0.061,0.283h0.153c-0.076,0-0.153,0-0.153,0.069c0,0.142,0.217,0,0.298,0.142
				c-0.359,0.082-0.726,0.156-0.94,0.444c0,0.07,0.143,0.07,0.214,0.07c-0.135,0.135-0.355,0.071-0.431,0.215
				c0,0,0.076,0.069,0.147,0.069c-0.071,0-0.147,0-0.147,0.076v0.211c-0.209,0-0.28,0.146-0.437,0.213c0.294,0.222,0.513,0,0.797,0
				c-0.797,0.295-1.434,0.722-2.242,0.94c-0.13,0,0,0.206-0.13,0.206c0.22,0.156,0.354-0.072,0.574-0.072
				c-1.009,0.586-2.014,1.092-3.102,1.738c0,0-0.144,0.145-0.144,0.285h-0.285c-0.14,0.084-0.072,0.288-0.21,0.43
				c0.351,0.221,0.785-0.275,1.004,0c0.071,0-0.143,0.081-0.288,0.081c-0.077,0-0.077,0.14-0.15,0.14h-0.215
				c-0.141,0.144-0.281,0.207-0.281,0.425c-0.146,0-0.291,0-0.361,0.144c1.586-0.207,3.241-0.061,4.748-0.857
				c1.153-0.578,2.235-1.377,3.17-2.385c0,0,0.067,0.072,0.067,0.152c-0.209,0.716-0.642,1.23-1.215,1.654
				c-0.441,0.217-0.717,0.578-1.083,0.728c-0.217,0.14-0.426,0.283-0.654,0.431c-2.656,0.922-5.826,0.506-8.129,2.297
				c0-0.076-0.076-0.076-0.146-0.076c-0.145,0.156-0.362,0.226-0.431,0.372c0,0.136,0.219,0.071,0.286,0.071
				c0.437-0.287,0.865-0.511,1.367-0.653c-0.576,0.286-1.133,0.866-1.725,0.866h-3.594c0.71-0.431,1.437-0.942,2.224-1.371
				c-0.213-0.135-0.426-0.135-0.655-0.135c-0.349,0.065-0.784-0.152-1.147,0c-1.074,0.491-2.519,0.357-3.094,1.506H21.908
				l-0.022-31.896h42.805c-0.861,0.435-1.645,0.715-2.29,1.507c-0.576,0.733-1.156,1.436-1.366,2.299
				c-0.938,0.578-1.519,1.452-2.021,2.313c-0.654,1.218-1.582,2.301-1.443,3.674c0.152,1.147,0.434,2.228,0.647,3.457
				c0.08,0.431,0.142,0.796,0.299,1.22c0.137,0.428,0,0.938,0.212,1.299c0.144,0.215,0.068,0.5,0.364,0.646v0.285
				c0.064,0.072,0.064,0.145,0.213,0.145v0.295c0.567,0.724,1.292,1.351,1.656,2.158c0.141,0.432-0.727,0.213-1.089,0.067
				c-0.716-0.361-1.144-0.931-1.727-1.443c0,0-0.071,0.077-0.071,0.15c0.285,0.5,1.374,1.151,0.798,1.503
				c-0.285,0.154-0.655-0.21-0.936,0.082c-0.078,0.138,0,0.281,0,0.427c-0.431-0.289-0.864-0.146-1.3-0.289
				c-0.287-0.065-0.359-0.649-0.714-0.649c-0.943-0.209-1.81-0.429-2.743-0.498c-1.287-0.157-2.517-0.364-3.811-0.157
				c-1.157,0.082-2.016,0.948-2.74,1.812v0.229c0.505,0.059,0.724-0.373,1.157-0.514c0.712-0.15,1.367-0.441,2.087-0.578
				c1.078-0.215,2.086-0.502,3.086-0.435c0.221,0,0.509-0.067,0.729,0C52.388,39.835,51.241,40.264,50.017,40.628z"/>
			<path id="Fill-7" fill="#FFFFFF" d="M45.988,44.003c-0.223,0.064-0.442,0.221-0.366,0.359c0.214,0.298,0.649-0.071,1.007-0.071
				c-0.433,0.146-0.937,0.071-1.296,0.44c0.289,0.217,0.576,0.064,0.863,0.064c0,0.152,0.15,0.152,0.214,0.225
				c-0.357,0.139-0.645,0.422-0.718,0.646c-0.146,0.356-0.506,0.502-0.721,0.792v0.205c-0.716,0.656-1.508,1.088-2.091,1.876
				c0.082,0,0.082,0.073,0.082,0.149c-0.155,0.213-0.436,0.291-0.506,0.5c0,0.068,0,0.145,0.07,0.145
				c0.858-0.273,1.512-0.927,2.304-1.221c0.569-0.144,1.006-0.498,1.516-0.646c0.352-0.073,0.788-0.225,1.153-0.292
				c0,0.067,0,0.145,0.057,0.145h0.59c-0.081,0.147-0.36,0.074-0.294,0.147c0.213,0.222,0.646,0.147,0.936,0
				c0.221-0.147,0.435-0.147,0.72-0.147c0.074,0,0.074-0.145,0.074-0.211c0.218,0.066,0.358,0.066,0.573,0.066
				c1.738-0.361,3.387-0.717,4.967-1.509c-1.875-1.442-4.246-1.944-6.475-2.597c0.21,0,0.429,0.223,0.646,0
				c-0.358-0.276-0.795-0.15-1.147-0.351c0.066,0,0.216,0.074,0.284-0.071c-0.578-0.301-1.151-0.301-1.732-0.433
				c0.362-0.075,0.581-0.368,0.581-0.725c0-0.073-0.145-0.073-0.219-0.073c-0.864,0.43-1.438,1.23-1.793,2.168
				c0.498,0.281,1.079,0.062,1.58,0.137C46.629,43.933,46.271,43.933,45.988,44.003"/>
			<path id="Fill-9" fill="#FFFFFF" d="M43.032,41.19c-0.739,0.793-1.507,1.528-2.454,2.025c-0.645,1.29-1.366,2.45-2.306,3.664
				c0,0.073,0.08,0.148,0.08,0.148c1.726-1.936,3.313-3.59,5.539-4.961c0.147-0.065-0.214,0.205,0.079,0.147
				c0.931-0.213,1.216-1.163,1.653-1.877c0.573-0.942,1.585-1.299,2.31-2.086c0,0.069,0,0.136-0.081,0.218
				c0.081,0.064,0.15,0.064,0.214,0.064c0.299-0.213,0.651-0.146,0.869-0.426c-0.57-0.219-1.301-0.289-1.874-0.077
				C45.546,38.744,44.255,39.899,43.032,41.19"/>
			<path id="Fill-11" fill="#FFFFFF" d="M44.109,42.566c0.069-0.131,0.146-0.142,0.219-0.289c0-0.062,0-0.139-0.073-0.139
				c-0.285,0.077-0.509,0.364-0.578,0.655c0,0.06,0.069,0.06,0.15,0.06C43.97,42.794,44.038,42.72,44.109,42.566"/>
			<path id="Fill-13" fill="#FFFFFF" d="M49.873,48.038c-0.292,0.146-0.797,0.146-0.865,0.5c-0.07,0.149,0.215,0.074,0.361,0.074
				c0.504-0.205,1.083,0,1.506-0.428c-0.145-0.146-0.363-0.072-0.499-0.297C50.231,47.827,50.017,47.973,49.873,48.038"/>
			<path id="Fill-15" fill="#214691" d="M57.661,51.86c0.437-0.092,0.863-0.353,1.292-0.5v0.147
				c1.079-0.437,1.875-1.374,2.947-1.728c0.077,0,0.218,0.137,0.362,0.068c0.653-0.576,1.372-1.232,2.304-1.076
				c0,0.062,0,0.139,0.072,0.139c0.077,0,0.148,0,0.148-0.076c-0.295,0.218-0.575,0.438-0.867,0.65
				c-0.061,0.074,0,0.141,0.074,0.141c0.359-0.141,0.573-0.43,0.938-0.573c-0.079,0.077-0.079,0.22-0.145,0.296
				c-1.366,1.006-3.46,3.445-3.46,3.445h-9.792c1.441-0.212,2.883-0.71,4.326-0.859C56.432,51.935,57.012,52.006,57.661,51.86"/>
			<path id="Fill-17" fill="#E4342E" d="M86.089,48.259c0.173-0.52,0.359-1.078,0.074-1.596c-0.432-0.641,0.427-0.863,0.719-1.286
				c0.212-0.357-0.147-0.58-0.219-0.94c-0.073-0.146-0.361-0.074-0.5-0.292c0.5-0.212,1.291-0.645,0.931-1.292
				c-0.212-0.35-0.567-0.926-0.14-1.292c0.5-0.29,1.291-0.214,1.507-0.724c0.359-0.866-0.435-1.584-0.868-2.303
				c-0.209-0.426-0.499-0.713-0.785-1.156c-0.281-0.496-0.645-0.936-0.787-1.512c-0.225-0.569,0.068-1.082,0.068-1.654
				c0.074-1.072-0.218-2.159-0.5-3.227c-0.216-0.512-0.292-1.104-0.51-1.601c-0.072-0.282-0.146-0.567-0.359-0.856
				c-0.072-0.146-0.072-0.363,0-0.506c0.287-0.219,0.577-0.432,0.869-0.719c0.207-0.365,0.068-0.865-0.292-1.087
				c-0.507-0.212-0.436,0.511-0.793,0.653h-0.216c-0.067-0.219,0.078-0.28,0.216-0.432c0-0.066,0-0.222-0.071-0.222
				c-0.284,0-0.575-0.063-0.649-0.212c-0.717-1.01-1.724-1.504-2.806-1.944c0.285,0.073,0.569,0.145,0.868,0.145
				c0.495,0.073,1.067,0.073,1.511-0.145c0.355-0.141,0.427-0.718,0.571-1.079c0.14-0.285-0.07-0.727-0.216-0.93
				c-0.355-0.582-1.407-1.154-1.407-1.154h33.885l0.004,31.896H75.791c0.431-1.441,1.23-2.814,2.52-3.734
				c0.286-0.158,0.652-0.225,1.012-0.298c1.221,0,2.446,0.351,3.663,0.496c0.146,0,0.296,0.075,0.438,0.153
				c0.434,0.064,0.942,0.064,1.366-0.078C85.297,49.188,85.871,48.901,86.089,48.259"/>
			<path id="Fill-19" fill="#9B9C9C" d="M83.357,34.075c-0.439-0.107-0.797,0-1.232,0c-0.578,0.136-1.075,0.212-1.579,0.424
				c0.432-0.288,0.868-0.57,1.363-0.714c0.36-0.078,0.721-0.29,1.077-0.29c0.438-0.083,0.87-0.215,1.235-0.083
				c0.353,0.146,0.93,0.146,1.004,0.373c0.148,0.426-0.218,0.866-0.651,1.146c-0.068,0.145,0.216,0.226,0.216,0.365
				c-0.066,0.147-0.284,0.211-0.428,0.211c-0.141,0.076-0.293,0.297-0.434,0.441c0.141,0,0,0.215,0.141,0.215
				c-0.288,0.361,0.152,1.07-0.288,1.215c-0.499,0.148-1.07,0.148-1.656,0c0.288-0.074,0.649,0.072,0.861-0.209v-0.287
				c0-0.082-0.073-0.082-0.135-0.082c-0.077,0.082-0.14,0.082-0.14,0.082c0-0.154-0.151-0.293-0.22-0.293
				c-0.431,0.078-0.801-0.146-1.077-0.426c0.209-0.082,0.432-0.154,0.646-0.082c0.209,0,0.134-0.359,0.353-0.498h0.217
				c0.437-0.576,1.298-0.71,1.439-1.296C84.069,34.132,83.638,34.132,83.357,34.075"/>
			<path id="Fill-21" fill="#1D1C1B" d="M24.299,69.315c-0.188,0-0.354,0.033-0.559,0.071c0,0.552-0.008,1.56-0.008,2.334
				c0.101,0.012,0.285,0.028,0.404,0.028c0.771,0,1.298-0.476,1.298-1.217C25.434,69.818,24.949,69.315,24.299,69.315
				 M26.714,75.191c-0.351,0-0.546-0.055-0.733-0.176c-0.324-0.212-0.651-0.772-0.83-1.099c-0.323-0.549-0.683-1.144-1.019-1.644
				c-0.058,0.015-0.105,0.015-0.142,0.015c-0.087,0-0.166-0.015-0.258-0.015v0.5c0,0.254,0.008,0.507,0.008,0.761
				c0.007,0.508,0.021,0.734,0.093,0.93c0.095,0.234,0.258,0.358,0.572,0.39v0.263l-0.215-0.015c-0.245-0.006-0.583,0-1.023,0
				c-0.43,0-0.768-0.006-1.019,0l-0.225,0.015v-0.263c0.234-0.021,0.352-0.069,0.459-0.181c0.104-0.139,0.178-0.303,0.188-0.514
				c0.03-0.281,0.042-0.457,0.042-1.386v-1.586c0-1.144-0.042-1.414-0.105-1.685c-0.068-0.248-0.251-0.35-0.584-0.391v-0.258
				c0.189,0.014,0.379,0.002,0.563,0.002c0.489,0,0.642,0,1.218-0.023c0.512-0.02,0.803-0.026,1.036-0.026
				c0.63,0,1.017,0.092,1.341,0.313c0.342,0.258,0.592,0.74,0.592,1.228c0,0.78-0.511,1.401-1.379,1.724
				c0.363,0.451,0.642,0.909,0.972,1.409c0.297,0.483,0.598,0.904,0.835,1.133c0.129,0.14,0.213,0.19,0.393,0.24v0.263
				C27.248,75.165,27.006,75.191,26.714,75.191"/>
			<path id="Fill-23" fill="#1D1C1B" d="M31.529,74.999c-0.067,0.117-0.146,0.142-0.571,0.142c-0.263,0-0.516-0.017-0.782-0.024
				c-0.37-0.015-0.747-0.021-1.119-0.021c-0.374,0-0.75,0-1.117,0.021v-0.221c0.351-0.029,0.507-0.222,0.533-0.572
				c0.025-0.229,0.025-0.484,0.025-0.882v-2.19c0-0.418-0.025-0.606-0.087-0.774c-0.073-0.201-0.208-0.296-0.471-0.319v-0.216h3.628
				c0,0.228-0.003,0.458-0.003,0.677c0,0.198-0.009,0.373,0.003,0.551h-0.277c-0.053-0.605-0.313-0.76-1.235-0.76
				c-0.166,0-0.396,0.008-0.584,0.01c-0.012,0.318-0.02,0.414-0.02,0.865v0.899c0.125,0.005,0.208,0.005,0.354,0.005
				c0.802,0,1.043-0.113,1.099-0.535h0.279c-0.018,0.12-0.018,0.379-0.018,0.766c0,0.394,0.006,0.637,0.018,0.748h-0.279
				c-0.025-0.426-0.234-0.539-1.029-0.539c-0.147,0-0.284,0.007-0.424,0.007c0,0.474,0.008,0.979,0.008,1.469
				c0,0.326,0.054,0.431,0.241,0.476c0.113,0.031,0.297,0.041,0.538,0.041c0.84,0,1.123-0.188,1.311-0.83l0.297,0.055
				C31.742,74.401,31.613,74.853,31.529,74.999L31.529,74.999z M29.807,69.433l-0.37-0.208l0.767-1.14l0.889,0.16L29.807,69.433z"/>
			<path id="Fill-25" fill="#1D1C1B" d="M34.763,72.804c-0.071,0-0.114,0-0.212-0.012l-0.175-0.383
				c0.729-0.041,1.131-0.405,1.131-1.002c0-0.614-0.423-1.06-1.015-1.06c-0.099,0-0.167,0.009-0.291,0.031
				c0,0.489-0.021,0.957-0.021,1.438v1.357c0,1.018,0.008,1.189,0.093,1.4c0.068,0.199,0.203,0.291,0.464,0.32v0.221l-0.181-0.016
				c-0.208-0.005-0.48-0.005-0.855-0.005c-0.361,0-0.651,0-0.848,0.005l-0.185,0.016v-0.221c0.351-0.029,0.506-0.222,0.539-0.572
				c0.024-0.229,0.024-0.369,0.024-1.148v-1.924c0-0.417-0.024-0.607-0.086-0.774c-0.074-0.2-0.211-0.296-0.477-0.319v-0.219
				c0.09,0.004,0.032,0.004,0.355,0.004c0.135,0,0.317,0,0.568-0.004c0.402-0.024,0.791-0.041,1.187-0.041
				c1.105,0,1.762,0.541,1.762,1.438C36.54,72.196,35.784,72.804,34.763,72.804"/>
			<path id="Fill-27" fill="#1D1C1B" d="M41.81,70.327c-0.081,0.119-0.122,0.271-0.14,0.582c-0.014,0.341-0.019,0.587-0.019,1.068
				c0,0.175,0.005,0.709,0.005,1.252c0,0.542-0.083,0.875-0.306,1.199c-0.354,0.511-0.95,0.779-1.724,0.779
				c-0.485,0-0.863-0.092-1.208-0.324c-0.546-0.35-0.756-0.809-0.756-1.638c0-0.831,0.018-1.192,0.018-1.473
				c0-0.392,0.025-0.794-0.043-1.197c-0.048-0.274-0.198-0.399-0.515-0.419v-0.215h0.171c0.197,0.013,0.484,0.013,0.859,0.013
				c0.369,0,0.658,0,0.86-0.013h0.181v0.215c-0.236,0.02-0.361,0.098-0.442,0.223c-0.063,0.112-0.093,0.269-0.1,0.614
				c-0.011,0.476-0.024,0.967-0.024,1.456c0,1.333,0.031,1.592,0.27,1.874c0.188,0.21,0.509,0.356,0.875,0.356
				c0.52,0,1.024-0.252,1.182-0.777c0.104-0.328,0.12-0.576,0.12-1.453v-0.762c0-0.883-0.028-1.166-0.114-1.293
				c-0.084-0.137-0.205-0.219-0.407-0.238v-0.215c0.316,0.013,0.421,0.013,0.807,0.013c0.4,0,0.512,0,0.811-0.013v0.215
				C42.01,70.177,41.896,70.227,41.81,70.327"/>
			<path id="Fill-29" fill="#1D1C1B" d="M44.921,72.51c-0.136,0-0.276,0.013-0.485,0.021c-0.004,0.209-0.004,0.248-0.004,0.597
				v0.465c0,0.438,0.014,0.677,0.079,0.825c0.056,0.193,0.242,0.281,0.567,0.281c0.665,0,1.026-0.364,1.026-1.018
				C46.104,72.956,45.645,72.51,44.921,72.51 M44.89,70.338c-0.137,0-0.272,0.019-0.418,0.019c-0.004,0.512-0.026,1.363-0.036,1.7
				c0.094,0.015,0.202,0.019,0.349,0.019c0.76,0,1.203-0.32,1.203-0.889C45.988,70.659,45.577,70.338,44.89,70.338 M46.584,74.751
				c-0.36,0.273-0.776,0.374-1.566,0.374c-0.417,0-0.851-0.029-1.268-0.029c-0.173,0-0.483,0-0.702,0.005l-0.094,0.016v-0.221
				c0.362-0.031,0.499-0.216,0.537-0.572c0.02-0.229,0.031-0.375,0.031-1.148v-1.466c0-0.716-0.011-1.03-0.09-1.232
				c-0.077-0.2-0.219-0.296-0.478-0.319v-0.219c0.358,0.017,0.568,0.017,1.068,0.017c0.446,0,1.12-0.027,1.561-0.027
				c0.724,0,1.369,0.349,1.369,1.147c0,0.609-0.368,1-1.104,1.193c0.817,0.17,1.255,0.637,1.255,1.391
				C47.103,74.145,46.935,74.485,46.584,74.751"/>
			<path id="Fill-31" fill="#1D1C1B" d="M51.48,75.01c-0.067,0.106-0.16,0.131-0.55,0.131c-0.188,0-0.396-0.016-0.585-0.016
				c-0.483-0.024-0.916-0.029-1.451-0.029c-0.39,0-0.661,0-0.895,0.021v-0.221c0.183-0.012,0.283-0.05,0.38-0.152
				c0.135-0.163,0.178-0.358,0.178-0.939V72.71v-0.838c0-1.038,0-1.182-0.086-1.396c-0.073-0.2-0.217-0.296-0.472-0.319v-0.219
				l0.183,0.004c0.216,0.013,0.494,0.013,0.892,0.013c0.379,0,0.673,0,0.872-0.013l0.194-0.004v0.219
				c-0.393,0-0.568,0.209-0.611,0.594c-0.018,0.129-0.021,0.242-0.021,1.121v1.296c0,1.084,0.003,1.217,0.106,1.333
				c0.082,0.079,0.248,0.119,0.582,0.119c0.426,0,0.66-0.045,0.854-0.15c0.218-0.129,0.374-0.352,0.463-0.688l0.286,0.074
				C51.716,74.315,51.576,74.866,51.48,75.01"/>
			<path id="Fill-33" fill="#1D1C1B" d="M54.18,75.101c-0.189-0.004-0.48-0.004-0.84-0.004c-0.381,0-0.652,0-0.86,0.004
				l-0.182,0.016v-0.221c0.361-0.03,0.507-0.215,0.533-0.571c0.025-0.229,0.03-0.375,0.03-1.149v-1.303
				c0-0.188-0.005-0.414-0.005-0.622c0-0.417-0.021-0.606-0.078-0.774c-0.069-0.199-0.218-0.295-0.48-0.318v-0.215l0.182,0.01
				c0.208,0.003,0.479,0.003,0.86,0.003c0.36,0,0.651,0,0.84-0.003l0.187-0.01v0.215c-0.333,0.023-0.501,0.234-0.532,0.594
				c-0.033,0.221-0.033,0.428-0.033,1.121v1.303c0,1.019,0.016,1.189,0.094,1.401c0.063,0.198,0.209,0.291,0.471,0.319v0.221
				L54.18,75.101z"/>
			<path id="Fill-35" fill="#1D1C1B" d="M57.769,70.376c-0.951,0-1.622,0.792-1.622,1.898c0,1.347,0.803,2.406,1.817,2.406
				c0.958,0,1.631-0.805,1.631-1.93C59.596,71.418,58.79,70.376,57.769,70.376 M61.434,76.513c-0.603,0-1.252-0.191-1.867-0.539
				c-0.346-0.181-0.838-0.516-1.194-0.812c-0.264,0.041-0.365,0.048-0.613,0.048c-1.567,0-2.597-1.028-2.597-2.571
				c0-1.646,1.118-2.787,2.77-2.787c1.587,0,2.655,1.029,2.655,2.559c0,1.087-0.559,2.064-1.453,2.509
				c0.285,0.135,0.564,0.292,0.842,0.461c0.784,0.476,1.328,0.681,1.84,0.681c0.319,0,0.584-0.068,0.894-0.226l0.096,0.272
				C62.432,76.376,61.964,76.513,61.434,76.513"/>
			<path id="Fill-37" fill="#1D1C1B" d="M65.961,70.327c-0.084,0.119-0.129,0.271-0.142,0.582c-0.014,0.341-0.026,0.587-0.026,1.068
				c0,0.175,0.012,0.709,0.012,1.252c0,0.542-0.085,0.875-0.311,1.199c-0.36,0.511-0.946,0.779-1.724,0.779
				c-0.495,0-0.854-0.092-1.208-0.324c-0.537-0.35-0.749-0.809-0.749-1.638c0-0.831,0.015-1.192,0.015-1.473
				c0-0.392,0.017-0.794-0.048-1.197c-0.051-0.274-0.191-0.399-0.518-0.419v-0.215h0.175c0.199,0.013,0.501,0.013,0.859,0.013
				c0.381,0,0.662,0,0.868-0.013h0.179v0.215c-0.245,0.02-0.36,0.098-0.437,0.223c-0.075,0.112-0.095,0.269-0.101,0.614
				c-0.03,0.476-0.034,0.967-0.034,1.456c0,1.333,0.04,1.592,0.275,1.874c0.194,0.21,0.494,0.356,0.873,0.356
				c0.522,0,1.022-0.252,1.189-0.777c0.093-0.328,0.112-0.576,0.112-1.453v-0.762c0-0.883-0.026-1.166-0.112-1.293
				c-0.084-0.137-0.202-0.219-0.407-0.238v-0.215c0.317,0.013,0.427,0.013,0.813,0.013c0.388,0,0.499,0,0.807-0.013v0.215
				C66.155,70.177,66.045,70.227,65.961,70.327"/>
			<path id="Fill-39" fill="#1D1C1B" d="M70.688,74.999c-0.067,0.117-0.15,0.142-0.582,0.142c-0.254,0-0.509-0.017-0.777-0.024
				c-0.362-0.015-0.745-0.021-1.113-0.021c-0.369,0-0.744,0-1.114,0.021v-0.221c0.341-0.029,0.505-0.222,0.537-0.572
				c0.023-0.229,0.023-0.484,0.023-0.882v-2.19c0-0.418-0.023-0.606-0.091-0.774c-0.065-0.201-0.214-0.296-0.469-0.319v-0.216h3.622
				v0.677c0,0.198-0.006,0.373,0,0.551h-0.276c-0.05-0.605-0.307-0.76-1.238-0.76c-0.166,0-0.389,0.008-0.571,0.01
				c-0.012,0.318-0.027,0.414-0.027,0.865v0.899c0.115,0.005,0.209,0.005,0.355,0.005c0.805,0,1.046-0.113,1.097-0.535h0.276
				c-0.019,0.12-0.019,0.379-0.019,0.766c0,0.394,0.012,0.637,0.019,0.748h-0.276c-0.033-0.426-0.234-0.539-1.033-0.539
				c-0.144,0-0.278,0.007-0.419,0.007c0,0.474,0.015,0.979,0.015,1.469c0,0.326,0.048,0.431,0.238,0.476
				c0.113,0.031,0.288,0.041,0.532,0.041c0.839,0,1.127-0.188,1.307-0.83l0.308,0.055C70.897,74.401,70.765,74.853,70.688,74.999"/>
			<path id="Fill-41" fill="#1D1C1B" d="M77.867,70.356c-0.008-0.669-0.404-0.93-1.465-0.93c-0.221,0-0.418,0.006-0.66,0.033
				c-0.023,0.637-0.023,1.084-0.023,2.113c0.224,0,0.341,0.01,0.498,0.01c0.877,0,1.142-0.138,1.188-0.637h0.339
				c0,0.241-0.023,0.52-0.023,0.774c0,0.354,0.023,0.718,0.023,1.069h-0.339c-0.057-0.58-0.282-0.686-1.271-0.686
				c-0.172,0-0.229,0-0.415,0.008v1.055c0,0.201,0,0.436,0.009,0.678c0.026,0.516,0.062,0.971,0.674,1.009v0.263l-0.23-0.01
				c-0.232-0.011-0.575-0.011-1.014-0.011c-0.452,0-0.793,0-1.041,0.011l-0.227,0.01v-0.263c0.422-0.038,0.617-0.278,0.653-0.694
				c0.033-0.283,0.033-0.457,0.033-1.393v-2.348c0-0.491-0.033-0.717-0.108-0.916c-0.083-0.237-0.254-0.35-0.578-0.397v-0.251h4.328
				c-0.027,0.168-0.027,0.48-0.027,0.876c0,0.366,0,0.419,0.027,0.626H77.867z"/>
			<path id="Fill-43" fill="#1D1C1B" d="M81.065,70.317c-0.165,0-0.297,0.021-0.475,0.062v1.935
				c0.084,0.018,0.241,0.021,0.333,0.021c0.637,0,1.069-0.387,1.069-1.006C81.993,70.759,81.6,70.317,81.065,70.317 M83.054,75.185
				c-0.286,0-0.441-0.048-0.608-0.16c-0.26-0.16-0.526-0.627-0.684-0.886c-0.264-0.479-0.561-0.965-0.842-1.366
				c-0.038,0.006-0.077,0.006-0.115,0.006c-0.072,0-0.13-0.006-0.214-0.006v0.401v0.628c0.011,0.43,0.023,0.6,0.084,0.768
				c0.081,0.205,0.214,0.297,0.478,0.326v0.221l-0.182-0.01c-0.202-0.006-0.481,0-0.843,0c-0.353,0-0.636-0.006-0.836,0l-0.183,0.01
				v-0.221c0.192-0.012,0.279-0.05,0.369-0.151c0.086-0.103,0.144-0.243,0.167-0.421c0.023-0.229,0.029-0.375,0.029-1.149v-1.302
				c0-0.932-0.029-1.18-0.094-1.391c-0.052-0.205-0.217-0.301-0.471-0.324v-0.219c0.149,0.017,0.302,0.004,0.455,0.004
				c0.404,0,0.528,0,1.012-0.026c0.416-0.007,0.658-0.019,0.845-0.019c0.523,0,0.841,0.078,1.114,0.271
				c0.294,0.207,0.475,0.609,0.475,1.01c0,0.633-0.408,1.156-1.121,1.424c0.29,0.379,0.524,0.742,0.796,1.168
				c0.25,0.396,0.495,0.736,0.693,0.928c0.105,0.117,0.168,0.166,0.321,0.197v0.221C83.496,75.161,83.301,75.185,83.054,75.185"/>
			<path id="Fill-45" fill="#1D1C1B" d="M86.144,71.305c-0.204,0.524-0.488,1.217-0.6,1.593h1.146L86.144,71.305z M88.652,75.105
				c-0.191-0.005-0.469-0.005-0.829-0.005c-0.362,0-0.641,0-0.833,0.005l-0.181,0.011v-0.221c0.247-0.012,0.393-0.145,0.393-0.361
				c0-0.069-0.02-0.193-0.107-0.416c-0.084-0.297-0.147-0.485-0.239-0.75h-1.491l-0.154,0.443c-0.12,0.354-0.179,0.618-0.179,0.747
				c0,0.224,0.096,0.325,0.353,0.337v0.221c-0.3-0.011-0.407-0.016-0.776-0.016c-0.37,0-0.476,0.005-0.773,0.016v-0.221
				c0.119-0.012,0.155-0.029,0.238-0.104c0.154-0.135,0.298-0.407,0.535-1.002l0.736-1.869c0.2-0.514,0.506-1.326,0.715-1.983h0.526
				c0.065,0.243,0.229,0.612,0.337,0.906l1.1,2.797c0.182,0.478,0.317,0.756,0.416,0.935c0.099,0.177,0.213,0.277,0.405,0.32v0.221
				L88.652,75.105z"/>
			<path id="Fill-47" fill="#1D1C1B" d="M94.175,70.391c-0.083,0.138-0.1,0.269-0.112,0.675c-0.028,0.696-0.034,1.788-0.034,2.303
				v1.19c0,0.173,0.027,0.451,0.027,0.558h-0.533c-0.508-0.651-1.549-1.948-1.549-1.948c-0.126-0.15-1.089-1.345-1.586-1.946
				c0,0.165-0.009,0.073-0.009,0.572V72.3c0,0.578,0.009,1.15,0.039,1.732c0.015,0.328,0.043,0.491,0.112,0.642
				c0.087,0.149,0.197,0.215,0.422,0.222v0.221c-0.269-0.021-0.542-0.021-0.809-0.021c-0.288,0-0.562,0-0.842,0.021v-0.221
				c0.517-0.012,0.532-0.431,0.543-0.845c0.011-0.331,0.02-0.601,0.02-1.095v-1.633c0-0.654-0.031-0.801-0.151-0.976
				c-0.078-0.119-0.182-0.167-0.412-0.19v-0.22c0.261,0.017,0.353,0.017,0.677,0.017c0.315,0,0.41,0,0.669-0.017
				c0.088,0.171,0.245,0.328,0.778,0.98c0.758,0.915,1.443,1.71,2.08,2.518v-1.702c0-0.762-0.019-0.962-0.047-1.174
				c-0.054-0.242-0.207-0.372-0.491-0.402v-0.22c0.317,0.017,0.426,0.017,0.821,0.017c0.393,0,0.508,0,0.814-0.017v0.22
				C94.399,70.169,94.29,70.198,94.175,70.391"/>
			<path id="Fill-49" fill="#1D1C1B" d="M99.591,74.929c-0.503,0.196-0.949,0.28-1.557,0.28l-0.078,0.301H98.1
				c0.298,0,0.496,0.211,0.496,0.464c0,0.434-0.34,0.719-0.86,0.719c-0.153,0-0.298-0.029-0.47-0.09l0.111-0.3
				c0.105,0.03,0.193,0.06,0.276,0.06c0.22,0,0.367-0.108,0.367-0.316c0-0.15-0.07-0.244-0.189-0.244
				c-0.074,0-0.119,0.032-0.178,0.059l-0.166-0.051l0.151-0.617c-0.677-0.067-1.179-0.285-1.597-0.719
				c-0.474-0.497-0.728-1.158-0.728-1.943c0-1.672,1.07-2.681,2.846-2.681c0.535,0,1.055,0.066,1.504,0.226
				c-0.018,0.176-0.018,0.345-0.018,0.52c0,0.143,0.011,0.419,0.018,0.592h-0.301c-0.127-0.543-0.569-0.849-1.273-0.849
				c-1.09,0-1.761,0.728-1.761,1.935c0,1.401,0.79,2.416,1.86,2.416c0.657,0,1.094-0.324,1.278-0.94l0.29,0.054
				C99.695,74.075,99.616,74.515,99.591,74.929"/>
			<path id="Fill-51" fill="#1D1C1B" d="M102.46,71.305c-0.205,0.524-0.485,1.217-0.605,1.593h1.149L102.46,71.305z M104.968,75.105
				c-0.19-0.005-0.467-0.005-0.827-0.005c-0.365,0-0.646,0-0.839,0.005l-0.175,0.011v-0.221c0.245-0.012,0.389-0.145,0.389-0.361
				c0-0.069-0.021-0.193-0.101-0.416c-0.089-0.297-0.156-0.485-0.252-0.75h-1.484l-0.154,0.443
				c-0.118,0.354-0.179,0.618-0.179,0.747c0,0.224,0.103,0.325,0.348,0.337v0.221c-0.295-0.011-0.406-0.016-0.767-0.016
				c-0.367,0-0.479,0.005-0.771,0.016v-0.221c0.112-0.012,0.153-0.029,0.232-0.104c0.151-0.135,0.305-0.407,0.539-1.002l0.723-1.869
				c0.206-0.514,0.507-1.326,0.723-1.983h0.529c0.063,0.243,0.236,0.612,0.339,0.906l1.089,2.797
				c0.191,0.478,0.325,0.756,0.424,0.935c0.104,0.177,0.214,0.277,0.403,0.32v0.221L104.968,75.105z"/>
			<path id="Fill-53" fill="#1D1C1B" d="M107.495,75.101c-0.177-0.004-0.47-0.004-0.834-0.004c-0.382,0-0.656,0-0.865,0.004
				l-0.176,0.016v-0.221c0.364-0.03,0.504-0.215,0.531-0.571c0.032-0.229,0.035-0.375,0.035-1.149v-1.303
				c0-0.188-0.003-0.414-0.003-0.622c0-0.417-0.021-0.606-0.08-0.774c-0.078-0.199-0.217-0.295-0.483-0.318v-0.215l0.176,0.01
				c0.209,0.003,0.483,0.003,0.865,0.003c0.364,0,0.657,0,0.834-0.003l0.199-0.01v0.215c-0.333,0.023-0.504,0.234-0.533,0.594
				c-0.032,0.221-0.032,0.428-0.032,1.121v1.303c0,1.019,0.011,1.189,0.093,1.401c0.064,0.198,0.202,0.291,0.472,0.319v0.221
				L107.495,75.101z"/>
			<path id="Fill-55" fill="#1D1C1B" d="M109.917,75.208c-0.45,0-0.774-0.062-1.307-0.27c-0.02-0.285-0.078-0.746-0.135-1.118
				l0.291-0.042c0.182,0.623,0.596,0.953,1.198,0.953c0.558,0,0.923-0.281,0.923-0.722c0-0.351-0.237-0.589-0.594-0.81l-0.811-0.521
				c-0.563-0.348-0.884-0.719-0.884-1.405c0-0.874,0.662-1.424,1.68-1.424c0.501,0,0.917,0.092,1.272,0.276v0.488v0.573h-0.285
				c-0.115-0.556-0.459-0.871-1.001-0.871c-0.489,0-0.839,0.302-0.839,0.739c0,0.361,0.266,0.609,0.677,0.885l0.662,0.428
				c0.625,0.398,0.981,0.799,0.981,1.416C111.746,74.638,111.003,75.208,109.917,75.208"/>
			<path id="Fill-57" fill="#1D1C1B" d="M116.155,74.999c-0.063,0.117-0.147,0.142-0.576,0.142c-0.264,0-0.518-0.017-0.784-0.024
				c-0.37-0.015-0.744-0.021-1.114-0.021c-0.371,0-0.742,0-1.104,0.021v-0.221c0.332-0.029,0.49-0.222,0.525-0.572
				c0.023-0.229,0.023-0.484,0.023-0.882v-2.19c0-0.418-0.023-0.606-0.083-0.774c-0.079-0.201-0.207-0.296-0.466-0.319v-0.216h3.624
				c0,0.228-0.011,0.458-0.011,0.677c0,0.198-0.015,0.373,0.011,0.551h-0.282c-0.057-0.605-0.32-0.76-1.238-0.76
				c-0.168,0-0.396,0.008-0.582,0.01c-0.016,0.318-0.023,0.414-0.023,0.865v0.899c0.115,0.005,0.209,0.005,0.35,0.005
				c0.809,0,1.047-0.113,1.105-0.535h0.275c-0.016,0.12-0.016,0.379-0.016,0.766c0,0.394,0.009,0.637,0.016,0.748h-0.275
				c-0.021-0.426-0.237-0.539-1.038-0.539c-0.134,0-0.276,0.007-0.417,0.007c0,0.474,0.008,0.979,0.008,1.469
				c0,0.326,0.057,0.431,0.25,0.476c0.113,0.031,0.29,0.041,0.525,0.041c0.842,0,1.134-0.188,1.312-0.83l0.302,0.055
				C116.367,74.401,116.237,74.853,116.155,74.999"/>
			<path id="Fill-59" fill="#1D1C1B" d="M24.585,61.839c-0.074,0.084-0.185,0.125-0.454,0.125c-0.37,0-0.733-0.028-1.099-0.041
				c-0.322,0-0.562-0.012-0.728-0.012c-0.223,0-0.777,0.012-0.942,0.012l-0.1,0.013l0.028-0.159
				c0.227-0.027,0.368-0.096,0.473-0.234c0.12-0.15,0.192-0.367,0.295-0.785c0.099-0.418,0.147-0.658,0.309-1.436l0.115-0.607
				c0.124-0.599,0.166-0.95,0.166-1.14c0-0.331-0.116-0.476-0.443-0.512l0.031-0.16c0.046,0.013,0.084,0.013,0.103,0.013h0.834h0.85
				c0.025,0,0.068,0,0.119-0.013l-0.031,0.16c-0.228,0.019-0.356,0.071-0.475,0.229c-0.186,0.25-0.29,0.564-0.571,2.029
				l-0.099,0.508c-0.116,0.613-0.162,0.817-0.199,1.103c-0.016,0.093-0.026,0.19-0.026,0.229c0,0.304,0.146,0.394,0.636,0.394
				c0.849,0,1.172-0.178,1.446-0.797l0.203,0.082C24.843,61.329,24.678,61.712,24.585,61.839"/>
			<path id="Fill-61" fill="#1D1C1B" d="M26.007,62.016c-0.15,0-0.254-0.081-0.254-0.218c0-0.062,0.023-0.188,0.063-0.35
				c0.095-0.408,0.231-0.951,0.311-1.234c0.104-0.385,0.145-0.67,0.145-0.779c0-0.095-0.041-0.132-0.125-0.132
				c-0.066,0-0.14,0.019-0.29,0.067l-0.056,0.012l-0.025-0.209c0.417-0.157,0.829-0.258,1.026-0.258
				c0.118,0,0.166,0.041,0.166,0.132c0,0.087-0.042,0.325-0.181,0.871l-0.111,0.43c-0.191,0.731-0.236,0.996-0.236,1.123
				c0,0.097,0.062,0.162,0.173,0.162c0.074,0,0.205-0.022,0.416-0.097l0.014,0.207C26.65,61.903,26.213,62.016,26.007,62.016
				 M26.833,58.155c-0.235,0-0.393-0.146-0.393-0.358c0-0.267,0.196-0.457,0.472-0.457c0.228,0,0.364,0.133,0.364,0.358
				C27.276,57.964,27.088,58.155,26.833,58.155"/>
			<path id="Fill-63" fill="#1D1C1B" d="M30.155,59.241c-0.133,0-0.302,0.049-0.509,0.163c-0.216,0.11-0.387,0.229-0.47,0.351
				c-0.094,0.141-0.172,0.366-0.285,0.858c-0.115,0.483-0.18,0.778-0.18,0.886c0,0.131,0.18,0.213,0.477,0.213
				c0.312,0,0.577-0.145,0.771-0.414c0.3-0.442,0.529-1.119,0.529-1.615C30.488,59.401,30.372,59.241,30.155,59.241 M30.16,61.662
				c-0.292,0.267-0.641,0.364-1.175,0.364c-0.596,0-0.945-0.098-0.945-0.25c0-0.064,0.004-0.143,0.081-0.448l0.389-1.719
				c0.131-0.552,0.229-0.988,0.371-1.604c0.077-0.36,0.104-0.566,0.104-0.664c0-0.084-0.047-0.142-0.13-0.142
				c-0.053,0-0.22,0.044-0.329,0.077l-0.016-0.219l0.097-0.038c0.409-0.117,0.748-0.203,0.908-0.203
				c0.095,0,0.157,0.045,0.157,0.123c0,0.08-0.037,0.274-0.167,0.836l-0.228,0.993c-0.072,0.328-0.101,0.451-0.122,0.553
				c0.48-0.273,0.895-0.406,1.271-0.406c0.463,0,0.687,0.233,0.687,0.715C31.113,60.326,30.711,61.191,30.16,61.662"/>
			<path id="Fill-65" fill="#1D1C1B" d="M33.541,59.22c-0.367,0-0.752,0.492-0.938,1.23h0.078c0.697,0,1.23-0.373,1.23-0.852
				C33.911,59.382,33.744,59.22,33.541,59.22 M32.758,60.72c-0.049,0-0.12,0-0.222-0.005c-0.018,0.14-0.023,0.26-0.023,0.362
				c0,0.397,0.129,0.593,0.398,0.593c0.242,0,0.545-0.134,0.982-0.41l0.087,0.256c-0.56,0.353-0.98,0.517-1.367,0.517
				c-0.464,0-0.724-0.291-0.724-0.785c0-1.241,0.846-2.331,1.819-2.331c0.478,0,0.764,0.22,0.764,0.587
				C34.472,60.208,33.727,60.72,32.758,60.72"/>
			<path id="Fill-67" fill="#1D1C1B" d="M37.495,59.892l-0.246-0.02c0.009-0.094,0.019-0.209,0.019-0.302
				c0-0.136-0.119-0.239-0.312-0.239c-0.109,0-0.224,0.07-0.323,0.184c-0.292,0.33-0.405,0.843-0.568,1.677l-0.139,0.739
				c-0.298,0.01-0.365,0.021-0.659,0.047c0.076-0.272,0.131-0.502,0.191-0.762l0.165-0.69c0.109-0.476,0.162-0.782,0.162-0.943
				c0-0.181-0.048-0.261-0.132-0.261c-0.047,0-0.113,0.01-0.191,0.027l-0.195,0.056l-0.013-0.215
				c0.369-0.158,0.785-0.274,0.974-0.274c0.085,0,0.124,0.031,0.142,0.105c0.018,0.082,0.034,0.199,0.045,0.318
				c0.338-0.271,0.639-0.427,0.853-0.427c0.146,0,0.327,0.063,0.501,0.19C37.641,59.382,37.549,59.63,37.495,59.892"/>
			<path id="Fill-69" fill="#1D1C1B" d="M40.051,59.372l-0.629-0.015l-0.305,1.552c-0.09,0.403-0.098,0.513-0.098,0.572
				c0,0.105,0.05,0.161,0.153,0.161c0.053,0,0.168-0.024,0.34-0.075l0.077-0.031l0.027,0.219c-0.391,0.175-0.801,0.271-1.021,0.271
				c-0.155,0-0.255-0.071-0.255-0.215c0-0.138,0.027-0.312,0.094-0.551c0.056-0.274,0.114-0.489,0.176-0.784l0.235-1.118
				L38.44,59.37l0.05-0.242c0.521-0.096,0.696-0.487,0.841-0.937l0.363-0.075l-0.188,0.885h0.625L40.051,59.372z"/>
			<path id="Fill-71" fill="#1D1C1B" d="M42.314,59.22c-0.366,0-0.746,0.492-0.937,1.23h0.072c0.698,0,1.229-0.373,1.229-0.852
				C42.678,59.382,42.511,59.22,42.314,59.22L42.314,59.22z M41.526,60.72c-0.041,0-0.119,0-0.208-0.005
				c-0.029,0.14-0.036,0.26-0.036,0.362c0,0.397,0.136,0.593,0.407,0.593c0.238,0,0.541-0.134,0.989-0.41l0.077,0.256
				c-0.553,0.353-0.979,0.517-1.366,0.517c-0.467,0-0.722-0.291-0.722-0.785c0-1.241,0.844-2.331,1.817-2.331
				c0.485,0,0.756,0.22,0.756,0.587C43.24,60.208,42.503,60.72,41.526,60.72L41.526,60.72z M42.372,58.452l-0.242-0.203l0.916-1.043
				l0.683,0.167L42.372,58.452z"/>
			<path id="Fill-73" fill="#1D1C1B" d="M56.776,58.005h-0.213c0.011-0.084,0.013-0.111,0.013-0.17c0-0.42-0.267-0.559-1.029-0.559
				c-0.246,0-0.483,0-0.738,0.02c-0.153,0.629-0.256,1.176-0.387,1.847h0.275c0.487,0,0.689-0.007,0.858-0.043
				c0.289-0.054,0.44-0.22,0.528-0.517h0.209c-0.104,0.444-0.236,1.077-0.297,1.475h-0.196c0.014-0.053,0.014-0.098,0.014-0.127
				c0-0.332-0.202-0.438-0.817-0.438c-0.374,0-0.51,0.005-0.646,0.005c-0.041,0.195,0,0.029-0.169,0.895
				c-0.091,0.426-0.116,0.695-0.116,0.824c0,0.266,0.136,0.338,0.637,0.338c0.956,0,1.248-0.153,1.542-0.799l0.192,0.069
				c-0.169,0.505-0.353,0.892-0.457,1.027c-0.074,0.084-0.166,0.112-0.487,0.112c-0.263,0-0.541-0.012-0.803-0.023
				c-0.349-0.005-0.698-0.018-1.051-0.018c-0.359,0-0.703,0.013-1.057,0.013l0.034-0.16c0.221-0.026,0.357-0.095,0.462-0.233
				c0.124-0.146,0.202-0.367,0.312-0.785c0.093-0.42,0.128-0.588,0.295-1.436l0.121-0.605c0.124-0.594,0.164-0.952,0.164-1.142
				c0-0.331-0.118-0.476-0.437-0.512l0.031-0.161h3.433C56.908,57.243,56.835,57.654,56.776,58.005L56.776,58.005z M55.347,56.393
				l-0.242-0.198l0.922-1.045l0.692,0.173L55.347,56.393z"/>
			<path id="Fill-75" fill="#1D1C1B" d="M59.182,62.261c-0.254-0.099-0.561-0.203-0.884-0.297c-0.516,0.127-0.886,0.517-0.886,0.953
				c0,0.407,0.352,0.678,0.895,0.678c0.659,0,1.261-0.438,1.261-0.931C59.568,62.483,59.453,62.369,59.182,62.261L59.182,62.261z
				 M59.068,59.203c-0.407,0-0.742,0.431-0.742,0.949c0,0.345,0.205,0.582,0.507,0.582c0.39,0,0.72-0.408,0.72-0.917
				C59.553,59.435,59.365,59.203,59.068,59.203L59.068,59.203z M60.511,59.363l-0.512-0.005c0.089,0.156,0.121,0.281,0.121,0.459
				c0,0.697-0.585,1.225-1.336,1.225c-0.149,0-0.253-0.013-0.41-0.061c-0.188,0.115-0.25,0.162-0.25,0.234
				c0,0.082,0.083,0.127,0.416,0.232l0.596,0.182c0.609,0.19,0.912,0.365,0.912,0.806c0,0.809-0.804,1.434-1.807,1.434
				c-0.833,0-1.346-0.396-1.346-1.034c0-0.595,0.389-0.871,1.005-1.029c-0.384-0.135-0.464-0.195-0.464-0.324
				c0-0.158,0.221-0.368,0.674-0.621c-0.235-0.173-0.346-0.387-0.346-0.682c0-0.721,0.574-1.264,1.329-1.264
				c0.199,0,0.339,0.025,0.507,0.086h0.998L60.511,59.363z"/>
			<path id="Fill-77" fill="#1D1C1B" d="M62.998,59.235c-0.294,0-0.597,0.224-0.854,0.649c-0.292,0.455-0.494,1.071-0.494,1.476
				c0,0.228,0.105,0.352,0.307,0.352c0.277,0,0.766-0.236,0.958-0.43c0.104-0.108,0.152-0.258,0.241-0.553
				c0.112-0.451,0.229-0.885,0.3-1.391C63.281,59.27,63.124,59.235,62.998,59.235 M63.349,62.032c-0.131,0-0.183-0.092-0.251-0.465
				c-0.558,0.321-0.968,0.472-1.364,0.472c-0.451,0-0.718-0.241-0.718-0.653c0-0.404,0.196-0.966,0.499-1.427
				c0.407-0.638,0.906-1.043,1.687-1.043c0.333,0,0.642,0.06,0.974,0.142l-0.04,0.127c-0.272,0.872-0.465,1.821-0.465,2.145
				c0,0.208,0.044,0.312,0.133,0.312c0.06,0,0.221-0.037,0.407-0.104l0.022,0.228C63.844,61.911,63.477,62.032,63.349,62.032"/>
			<path id="Fill-79" fill="#1D1C1B" d="M66.693,57.583c-0.247,1.008-0.496,2.121-0.742,3.19c-0.073,0.349-0.114,0.57-0.114,0.697
				c0,0.097,0.061,0.151,0.167,0.151c0.078,0,0.21-0.027,0.419-0.086l0.017,0.207c-0.388,0.155-0.855,0.289-1.059,0.289
				c-0.144,0-0.226-0.093-0.226-0.234c0-0.105,0.023-0.24,0.132-0.719c0.242-0.998,0.493-2.059,0.695-3
				c0.089-0.453,0.138-0.664,0.138-0.738c0-0.086-0.049-0.135-0.127-0.135c-0.074,0-0.213,0.037-0.334,0.08l-0.016-0.228
				c0.386-0.14,0.811-0.243,1.027-0.243c0.104,0,0.155,0.045,0.155,0.123C66.826,57.019,66.792,57.2,66.693,57.583"/>
			<path id="Fill-81" fill="#1D1C1B" d="M67.748,62.016c-0.156,0-0.252-0.081-0.252-0.218c0-0.062,0.023-0.188,0.064-0.35
				c0.1-0.408,0.227-0.951,0.306-1.234c0.101-0.385,0.147-0.67,0.147-0.779c0-0.095-0.046-0.132-0.125-0.132
				c-0.072,0-0.135,0.019-0.296,0.067l-0.054,0.012l-0.019-0.209c0.411-0.157,0.819-0.258,1.024-0.258
				c0.115,0,0.158,0.041,0.158,0.132c0,0.087-0.032,0.325-0.174,0.871l-0.106,0.43c-0.196,0.731-0.236,0.996-0.236,1.123
				c0,0.097,0.057,0.162,0.171,0.162c0.07,0,0.198-0.022,0.415-0.097l0.012,0.207C68.377,61.903,67.946,62.016,67.748,62.016
				 M68.564,58.155c-0.231,0-0.379-0.146-0.379-0.358c0-0.267,0.192-0.457,0.465-0.457c0.231,0,0.372,0.133,0.372,0.358
				C69.022,57.964,68.825,58.155,68.564,58.155"/>
			<path id="Fill-83" fill="#1D1C1B" d="M71.542,59.372l-0.625-0.015l-0.321,1.552c-0.088,0.403-0.088,0.513-0.088,0.572
				c0,0.105,0.045,0.161,0.143,0.161c0.06,0,0.172-0.024,0.356-0.075l0.068-0.031l0.025,0.219c-0.389,0.175-0.797,0.271-1.022,0.271
				c-0.149,0-0.248-0.071-0.248-0.215c0-0.138,0.02-0.312,0.088-0.551c0.062-0.274,0.112-0.489,0.173-0.784l0.237-1.118
				l-0.395,0.013l0.047-0.242c0.514-0.096,0.688-0.487,0.843-0.937l0.351-0.075l-0.187,0.885h0.629L71.542,59.372z"/>
			<path id="Fill-85" fill="#1D1C1B" d="M73.803,59.22c-0.376,0-0.754,0.492-0.94,1.23h0.081c0.69,0,1.223-0.373,1.223-0.852
				C74.167,59.382,74.003,59.22,73.803,59.22L73.803,59.22z M73.02,60.72c-0.056,0-0.123,0-0.226-0.005
				c-0.023,0.14-0.023,0.26-0.023,0.362c0,0.397,0.131,0.593,0.4,0.593c0.246,0,0.545-0.134,0.985-0.41l0.088,0.256
				c-0.563,0.353-0.988,0.517-1.363,0.517c-0.474,0-0.729-0.291-0.729-0.785c0-1.241,0.841-2.331,1.815-2.331
				c0.477,0,0.768,0.22,0.768,0.587C74.735,60.208,73.983,60.72,73.02,60.72L73.02,60.72z M73.861,58.452l-0.243-0.203l0.922-1.043
				l0.68,0.167L73.861,58.452z"/>
			<path id="Fill-87" fill="#1D1C1B" d="M88.166,57.992h-0.227c0.008-0.071,0.02-0.136,0.02-0.175c0-0.15-0.054-0.266-0.137-0.362
				c-0.149-0.134-0.417-0.187-0.994-0.187c-0.15,0-0.369,0.008-0.551,0.018c-0.134,0.616-0.249,1.214-0.391,1.855
				c0.142,0,0.283,0.007,0.426,0.007c0.844,0,1.006-0.074,1.161-0.565h0.204c-0.118,0.491-0.215,0.973-0.28,1.475h-0.22
				c0.011-0.051,0.02-0.092,0.02-0.123c0-0.137-0.048-0.262-0.145-0.325c-0.13-0.107-0.278-0.117-0.73-0.117
				c-0.243,0-0.306,0.004-0.514,0.004l-0.095,0.53c-0.135,0.704-0.192,1.051-0.192,1.261c0,0.308,0.135,0.447,0.444,0.489
				l-0.025,0.158l-0.132-0.012h-0.674h-0.96l-0.13,0.012l0.029-0.158c0.234-0.028,0.369-0.096,0.471-0.24
				c0.127-0.145,0.202-0.361,0.301-0.779c0.11-0.431,0.15-0.656,0.305-1.436l0.122-0.607c0.115-0.599,0.166-0.951,0.166-1.139
				c0-0.332-0.121-0.477-0.443-0.514l0.021-0.159h3.359C88.301,57.243,88.225,57.626,88.166,57.992"/>
			<path id="Fill-89" fill="#1D1C1B" d="M90.736,59.892l-0.254-0.02c0.019-0.094,0.027-0.209,0.027-0.302
				c0-0.136-0.12-0.239-0.313-0.239c-0.107,0-0.218,0.07-0.321,0.184c-0.285,0.33-0.398,0.843-0.565,1.677l-0.15,0.739
				c-0.284,0.01-0.358,0.021-0.65,0.047c0.077-0.272,0.13-0.502,0.186-0.762l0.167-0.69c0.111-0.476,0.162-0.782,0.162-0.943
				c0-0.181-0.041-0.261-0.126-0.261c-0.047,0-0.112,0.01-0.195,0.027l-0.189,0.056l-0.028-0.215
				c0.376-0.158,0.799-0.274,0.99-0.274c0.074,0,0.115,0.031,0.131,0.105c0.026,0.082,0.046,0.199,0.054,0.318
				c0.339-0.271,0.631-0.427,0.847-0.427c0.146,0,0.322,0.063,0.501,0.19C90.896,59.382,90.797,59.63,90.736,59.892"/>
			<path id="Fill-91" fill="#1D1C1B" d="M93.368,59.235c-0.307,0-0.604,0.224-0.869,0.649c-0.281,0.455-0.485,1.071-0.485,1.476
				c0,0.228,0.115,0.352,0.303,0.352c0.274,0,0.777-0.236,0.963-0.43c0.103-0.108,0.157-0.258,0.242-0.553
				c0.124-0.451,0.232-0.885,0.297-1.391C93.65,59.27,93.5,59.235,93.368,59.235 M93.716,62.032c-0.136,0-0.18-0.092-0.25-0.465
				c-0.556,0.321-0.974,0.472-1.363,0.472c-0.458,0-0.721-0.241-0.721-0.653c0-0.404,0.195-0.966,0.499-1.427
				c0.405-0.638,0.91-1.043,1.681-1.043c0.338,0,0.649,0.06,0.972,0.142l-0.031,0.127c-0.275,0.872-0.468,1.821-0.468,2.145
				c0,0.208,0.043,0.312,0.14,0.312c0.053,0,0.206-0.037,0.402-0.104l0.02,0.228C94.211,61.911,93.847,62.032,93.716,62.032"/>
			<path id="Fill-93" fill="#1D1C1B" d="M97.314,59.372l-0.619-0.015l-0.317,1.552c-0.09,0.403-0.094,0.513-0.094,0.572
				c0,0.105,0.055,0.161,0.148,0.161c0.055,0,0.164-0.024,0.346-0.075l0.079-0.031l0.026,0.219c-0.396,0.175-0.801,0.271-1.02,0.271
				c-0.164,0-0.26-0.071-0.26-0.215c0-0.138,0.031-0.312,0.091-0.551c0.064-0.274,0.121-0.489,0.176-0.784l0.236-1.118l-0.397,0.013
				l0.049-0.242c0.521-0.096,0.699-0.487,0.831-0.937l0.369-0.075l-0.19,0.885h0.626L97.314,59.372z"/>
			<path id="Fill-95" fill="#1D1C1B" d="M99.576,59.22c-0.359,0-0.74,0.492-0.938,1.23h0.077c0.699,0,1.232-0.373,1.232-0.852
				C99.947,59.382,99.783,59.22,99.576,59.22 M98.793,60.72c-0.053,0-0.114,0-0.211-0.005c-0.027,0.14-0.034,0.26-0.034,0.362
				c0,0.397,0.142,0.593,0.407,0.593c0.239,0,0.543-0.134,0.992-0.41l0.071,0.256c-0.557,0.353-0.975,0.517-1.361,0.517
				c-0.473,0-0.729-0.291-0.729-0.785c0-1.241,0.841-2.331,1.822-2.331c0.48,0,0.749,0.22,0.749,0.587
				C100.499,60.208,99.762,60.72,98.793,60.72"/>
			<path id="Fill-97" fill="#1D1C1B" d="M103.531,59.892l-0.25-0.02c0.012-0.094,0.02-0.209,0.02-0.302
				c0-0.136-0.115-0.239-0.303-0.239c-0.117,0-0.228,0.07-0.326,0.184c-0.293,0.33-0.407,0.843-0.562,1.677l-0.151,0.739
				c-0.286,0.01-0.361,0.021-0.657,0.047c0.076-0.272,0.128-0.502,0.186-0.762l0.181-0.69c0.103-0.476,0.157-0.782,0.157-0.943
				c0-0.181-0.049-0.261-0.136-0.261c-0.04,0-0.106,0.01-0.191,0.027l-0.187,0.056l-0.027-0.215c0.384-0.158,0.793-0.274,0.98-0.274
				c0.085,0,0.121,0.031,0.142,0.105c0.026,0.082,0.042,0.199,0.049,0.318c0.342-0.271,0.636-0.427,0.845-0.427
				c0.153,0,0.327,0.063,0.501,0.19C103.692,59.382,103.593,59.63,103.531,59.892"/>
			<path id="Fill-99" fill="#1D1C1B" d="M106.541,62.026c-0.153,0-0.241-0.092-0.241-0.229c0-0.092,0.036-0.261,0.124-0.636
				l0.074-0.323c0.219-0.921,0.289-1.257,0.289-1.38c0-0.12-0.07-0.168-0.165-0.168c-0.13,0-0.344,0.067-0.571,0.205
				c-0.238,0.137-0.423,0.301-0.51,0.44c-0.073,0.11-0.119,0.297-0.213,0.694c-0.125,0.563-0.195,0.937-0.255,1.292
				c-0.296,0.018-0.371,0.029-0.668,0.055c0.158-0.556,0.261-1.021,0.375-1.548c0.119-0.5,0.16-0.759,0.16-0.881
				c0-0.179-0.049-0.258-0.163-0.258c-0.069,0-0.194,0.03-0.372,0.082l-0.016-0.204c0.364-0.148,0.76-0.253,0.939-0.253
				c0.163,0,0.217,0.101,0.217,0.454v0.054c0.578-0.325,1.162-0.508,1.576-0.508c0.25,0,0.342,0.06,0.342,0.213
				c0,0.162-0.04,0.397-0.204,1.022c-0.084,0.34-0.174,0.709-0.204,0.877c-0.035,0.219-0.059,0.363-0.059,0.447
				c0,0.112,0.054,0.157,0.164,0.157c0.072,0,0.211-0.024,0.391-0.096l0.023,0.218C107.176,61.903,106.718,62.026,106.541,62.026"/>
			<path id="Fill-101" fill="#1D1C1B" d="M108.899,62.016c-0.143,0-0.246-0.081-0.246-0.218c0-0.062,0.02-0.188,0.059-0.35
				c0.096-0.408,0.231-0.951,0.311-1.234c0.097-0.385,0.148-0.67,0.148-0.779c0-0.095-0.051-0.132-0.121-0.132
				c-0.069,0-0.151,0.019-0.294,0.067l-0.065,0.012l-0.018-0.209c0.411-0.157,0.83-0.258,1.03-0.258
				c0.114,0,0.156,0.041,0.156,0.132c0,0.087-0.038,0.325-0.177,0.871l-0.109,0.43c-0.188,0.731-0.239,0.996-0.239,1.123
				c0,0.097,0.063,0.162,0.181,0.162c0.07,0,0.21-0.022,0.418-0.097l0.019,0.207C109.542,61.903,109.109,62.016,108.899,62.016
				 M109.725,58.155c-0.238,0-0.391-0.146-0.391-0.358c0-0.267,0.2-0.457,0.468-0.457c0.228,0,0.37,0.133,0.37,0.358
				C110.172,57.964,109.989,58.155,109.725,58.155"/>
			<path id="Fill-103" fill="#1D1C1B" d="M112.704,59.372l-0.633-0.015l-0.308,1.552c-0.09,0.403-0.095,0.513-0.095,0.572
				c0,0.105,0.049,0.161,0.15,0.161c0.057,0,0.164-0.024,0.351-0.075l0.067-0.031l0.029,0.219c-0.391,0.175-0.803,0.271-1.023,0.271
				c-0.152,0-0.262-0.071-0.262-0.215c0-0.138,0.033-0.312,0.105-0.551c0.061-0.274,0.109-0.489,0.174-0.784l0.229-1.118
				l-0.398,0.013l0.057-0.242c0.512-0.096,0.688-0.487,0.83-0.937l0.361-0.075l-0.188,0.885h0.635L112.704,59.372z"/>
			<path id="Fill-105" fill="#1D1C1B" d="M114.951,59.22c-0.353,0-0.739,0.492-0.929,1.23h0.076c0.695,0,1.232-0.373,1.232-0.852
				C115.331,59.382,115.165,59.22,114.951,59.22L114.951,59.22z M114.173,60.72c-0.047,0-0.104,0-0.211-0.005
				c-0.016,0.14-0.025,0.26-0.025,0.362c0,0.397,0.132,0.593,0.396,0.593c0.243,0,0.543-0.134,0.993-0.41l0.077,0.256
				c-0.557,0.353-0.979,0.517-1.354,0.517c-0.479,0-0.729-0.291-0.729-0.785c0-1.241,0.835-2.331,1.813-2.331
				c0.473,0,0.754,0.22,0.754,0.587C115.888,60.208,115.14,60.72,114.173,60.72L114.173,60.72z M115.021,58.452l-0.238-0.203
				l0.927-1.043l0.666,0.167L115.021,58.452z"/>
			<path id="Fill-107" fill="#1D1C1B" d="M79.606,60.61c0.51,0,0.919-0.402,0.919-0.91c0-0.496-0.409-0.911-0.919-0.911
				c-0.498,0-0.922,0.415-0.922,0.911C78.684,60.208,79.108,60.61,79.606,60.61"/>
			<path id="Fill-109" fill="#1D1C1B" d="M48.146,60.61c0.499,0,0.914-0.402,0.914-0.91c0-0.496-0.415-0.911-0.914-0.911
				c-0.512,0-0.918,0.415-0.918,0.911C47.228,60.208,47.634,60.61,48.146,60.61"/>
			<g id="Clip-112">
			</g>
			<polygon id="Fill-111" fill="#1D1C1B" points="21.754,65.751 116.096,65.751 116.096,64.954 21.754,64.954 			"/>
			<polygon id="Fill-113" fill="#FFFFFF" points="137.146,94.507 353.927,94.507 353.927,0.927 137.146,0.927 			"/>
			<polygon id="Stroke-114" fill="none" stroke="#1D1C1B" points="137.146,94.507 353.927,94.507 353.927,0.927 137.146,0.927 			
				"/>
			<path id="Fill-115" fill="#1D1C1B" d="M219.542,28.413l-3.08-6.709v5.326c0,0.49,0.053,0.797,0.158,0.918
				c0.146,0.164,0.375,0.248,0.689,0.248h0.281v0.217h-2.777v-0.217h0.285c0.338,0,0.574-0.102,0.717-0.307
				c0.086-0.125,0.129-0.412,0.129-0.859v-5.209c0-0.353-0.039-0.607-0.119-0.765c-0.053-0.114-0.154-0.209-0.303-0.286
				c-0.146-0.076-0.383-0.113-0.709-0.113v-0.219h2.26l2.895,6.24l2.846-6.24h2.258v0.219h-0.277c-0.34,0-0.582,0.102-0.723,0.305
				c-0.086,0.125-0.129,0.412-0.129,0.859v5.209c0,0.49,0.055,0.797,0.164,0.918c0.145,0.164,0.375,0.248,0.688,0.248h0.277v0.217
				h-3.387v-0.217h0.281c0.342,0,0.578-0.102,0.719-0.307c0.086-0.125,0.129-0.412,0.129-0.859v-5.326l-3.076,6.709H219.542z"/>
			<path id="Fill-116" fill="#1D1C1B" d="M229.042,28.196v0.218h-3.418v-0.218h0.281c0.33,0,0.57-0.098,0.719-0.289
				c0.094-0.125,0.141-0.428,0.141-0.905V21.85c0-0.403-0.025-0.67-0.076-0.8c-0.039-0.098-0.121-0.182-0.24-0.252
				c-0.174-0.096-0.352-0.141-0.543-0.141h-0.281v-0.219h3.418v0.219h-0.289c-0.326,0-0.562,0.096-0.713,0.287
				c-0.096,0.125-0.145,0.428-0.145,0.905v5.152c0,0.403,0.025,0.671,0.074,0.8c0.039,0.098,0.121,0.182,0.248,0.253
				c0.168,0.095,0.346,0.142,0.535,0.142H229.042z"/>
			<path id="Fill-117" fill="#1D1C1B" d="M229.175,20.438h2.164l4.875,5.98V21.82c0-0.489-0.053-0.796-0.164-0.917
				c-0.145-0.165-0.375-0.247-0.688-0.247h-0.277v-0.218h2.777v0.218h-0.283c-0.338,0-0.576,0.103-0.717,0.306
				c-0.086,0.125-0.129,0.412-0.129,0.858v6.722h-0.213l-5.258-6.42v4.908c0,0.491,0.055,0.797,0.158,0.918
				c0.15,0.164,0.379,0.247,0.689,0.247h0.283v0.218h-2.775v-0.218h0.275c0.342,0,0.582-0.101,0.721-0.306
				c0.088-0.125,0.131-0.411,0.131-0.859v-5.545c-0.229-0.27-0.406-0.449-0.527-0.535c-0.117-0.086-0.293-0.166-0.523-0.24
				c-0.117-0.037-0.287-0.054-0.52-0.054V20.438z"/>
			<path id="Fill-118" fill="#1D1C1B" d="M241.749,28.196v0.218h-3.418v-0.218h0.283c0.328,0,0.568-0.098,0.719-0.289
				c0.094-0.125,0.141-0.428,0.141-0.905V21.85c0-0.403-0.027-0.67-0.076-0.8c-0.041-0.098-0.123-0.182-0.242-0.252
				c-0.174-0.096-0.352-0.141-0.541-0.141h-0.283v-0.219h3.418v0.219h-0.289c-0.324,0-0.561,0.096-0.711,0.287
				c-0.098,0.125-0.146,0.428-0.146,0.905v5.152c0,0.403,0.023,0.671,0.076,0.8c0.039,0.098,0.121,0.182,0.248,0.253
				c0.168,0.095,0.346,0.142,0.533,0.142H241.749z"/>
			<path id="Fill-119" fill="#1D1C1B" d="M247.564,20.257v2.759h-0.217c-0.068-0.53-0.195-0.951-0.379-1.265
				c-0.182-0.314-0.441-0.562-0.779-0.748c-0.338-0.184-0.686-0.275-1.045-0.275c-0.408,0-0.746,0.124-1.012,0.373
				c-0.268,0.249-0.402,0.531-0.402,0.85c0,0.243,0.086,0.465,0.254,0.664c0.244,0.294,0.822,0.686,1.734,1.178
				c0.744,0.398,1.254,0.707,1.529,0.92c0.27,0.213,0.479,0.465,0.629,0.756c0.145,0.289,0.217,0.594,0.217,0.91
				c0,0.604-0.23,1.125-0.701,1.562c-0.469,0.436-1.072,0.654-1.809,0.654c-0.23,0-0.449-0.018-0.652-0.053
				c-0.123-0.019-0.375-0.091-0.758-0.213c-0.381-0.125-0.623-0.187-0.725-0.187c-0.098,0-0.176,0.03-0.232,0.089
				s-0.098,0.18-0.125,0.363h-0.217V25.86h0.217c0.1,0.573,0.238,1.001,0.412,1.286c0.17,0.284,0.436,0.521,0.789,0.709
				s0.744,0.282,1.168,0.282c0.49,0,0.877-0.131,1.162-0.389c0.285-0.26,0.424-0.564,0.424-0.918c0-0.195-0.051-0.393-0.16-0.594
				c-0.109-0.199-0.277-0.386-0.502-0.559c-0.154-0.117-0.572-0.367-1.254-0.75c-0.68-0.383-1.168-0.687-1.455-0.914
				c-0.287-0.227-0.506-0.479-0.656-0.754c-0.148-0.273-0.223-0.575-0.223-0.904c0-0.572,0.219-1.066,0.66-1.48
				c0.438-0.412,0.998-0.619,1.674-0.619c0.424,0,0.873,0.104,1.346,0.312c0.223,0.099,0.377,0.146,0.465,0.146
				c0.104,0,0.188-0.028,0.252-0.09c0.064-0.06,0.115-0.183,0.154-0.367H247.564z"/>
			<path id="Fill-120" fill="#1D1C1B" d="M255.708,20.438l0.092,1.87h-0.227c-0.043-0.328-0.1-0.563-0.176-0.705
				c-0.121-0.228-0.281-0.396-0.486-0.503c-0.199-0.107-0.467-0.162-0.795-0.162h-1.125v6.092c0,0.491,0.055,0.797,0.16,0.918
				c0.15,0.164,0.379,0.247,0.688,0.247h0.277v0.218h-3.381v-0.218h0.283c0.336,0,0.576-0.101,0.717-0.306
				c0.086-0.125,0.127-0.411,0.127-0.859v-6.092h-0.957c-0.373,0-0.637,0.027-0.795,0.083c-0.203,0.074-0.377,0.217-0.521,0.429
				c-0.146,0.213-0.232,0.498-0.26,0.858h-0.225l0.096-1.87H255.708z"/>
			<path id="Fill-121" fill="#1D1C1B" d="M258.486,17.845h1.311l0.625,2.029h-0.205L258.486,17.845z M258.617,20.874v3.152h1.752
				c0.453,0,0.76-0.068,0.912-0.206c0.203-0.181,0.316-0.498,0.34-0.953h0.219v2.776h-0.219c-0.055-0.389-0.109-0.637-0.164-0.747
				c-0.072-0.138-0.188-0.244-0.348-0.323c-0.162-0.079-0.406-0.117-0.74-0.117h-1.752v2.629c0,0.353,0.016,0.567,0.047,0.644
				c0.029,0.075,0.086,0.138,0.164,0.182c0.08,0.045,0.227,0.068,0.447,0.068h1.352c0.451,0,0.779-0.031,0.982-0.095
				c0.203-0.062,0.4-0.186,0.586-0.371c0.244-0.241,0.494-0.607,0.748-1.1h0.236l-0.688,2h-6.146v-0.217h0.283
				c0.188,0,0.365-0.045,0.535-0.136c0.125-0.063,0.209-0.156,0.256-0.282c0.045-0.125,0.066-0.382,0.066-0.77v-5.183
				c0-0.505-0.049-0.817-0.152-0.934c-0.141-0.158-0.375-0.235-0.705-0.235h-0.283v-0.219h6.146l0.088,1.747h-0.23
				c-0.082-0.419-0.174-0.707-0.271-0.864c-0.102-0.157-0.25-0.275-0.445-0.359c-0.158-0.059-0.434-0.088-0.83-0.088H258.617z"/>
			<path id="Fill-122" fill="#1D1C1B" d="M265.931,24.314c0.074,0,0.141,0.001,0.193,0.003c0.055,0.002,0.102,0.002,0.137,0.002
				c0.76,0,1.334-0.164,1.721-0.492c0.387-0.33,0.58-0.75,0.58-1.26c0-0.498-0.158-0.902-0.471-1.214
				c-0.309-0.312-0.723-0.468-1.236-0.468c-0.229,0-0.535,0.037-0.924,0.111V24.314z M271.593,28.413h-2.129l-2.699-3.729
				c-0.199,0.008-0.359,0.012-0.484,0.012c-0.053,0-0.109-0.001-0.166-0.003c-0.061-0.002-0.121-0.004-0.184-0.009v2.316
				c0,0.504,0.055,0.813,0.166,0.937c0.146,0.171,0.371,0.258,0.668,0.258h0.312v0.218h-3.416v-0.218h0.301
				c0.336,0,0.576-0.108,0.723-0.33c0.082-0.12,0.123-0.409,0.123-0.864v-5.15c0-0.502-0.057-0.814-0.164-0.936
				c-0.152-0.172-0.381-0.259-0.682-0.259h-0.301v-0.218h2.904c0.846,0,1.473,0.062,1.873,0.186
				c0.402,0.125,0.744,0.352,1.021,0.683c0.285,0.331,0.422,0.726,0.422,1.185c0,0.49-0.16,0.915-0.477,1.276
				c-0.322,0.36-0.816,0.614-1.488,0.764l1.648,2.288c0.375,0.526,0.699,0.874,0.971,1.046c0.27,0.173,0.625,0.283,1.057,0.33
				V28.413z"/>
			<path id="Fill-123" fill="#1D1C1B" d="M274.005,20.874v3.152h1.752c0.455,0,0.76-0.068,0.912-0.206
				c0.205-0.181,0.318-0.498,0.34-0.953h0.219v2.776h-0.219c-0.053-0.389-0.109-0.638-0.164-0.748
				c-0.07-0.137-0.186-0.243-0.348-0.322c-0.16-0.079-0.406-0.117-0.74-0.117h-1.752v2.628c0,0.353,0.016,0.568,0.049,0.644
				c0.027,0.076,0.086,0.139,0.162,0.184c0.08,0.045,0.227,0.066,0.447,0.066h1.354c0.449,0,0.777-0.03,0.982-0.094
				c0.203-0.062,0.4-0.186,0.586-0.371c0.242-0.242,0.492-0.607,0.746-1.099h0.236l-0.686,2h-6.146v-0.218h0.283
				c0.188,0,0.363-0.045,0.535-0.137c0.125-0.062,0.209-0.155,0.256-0.281c0.043-0.125,0.066-0.383,0.066-0.77v-5.182
				c0-0.506-0.051-0.818-0.152-0.936c-0.141-0.157-0.377-0.234-0.705-0.234h-0.283v-0.219h6.146l0.086,1.748h-0.229
				c-0.084-0.42-0.172-0.709-0.273-0.865c-0.1-0.156-0.25-0.276-0.445-0.359c-0.154-0.059-0.434-0.088-0.83-0.088H274.005z"/>
			<path id="Fill-124" fill="#1D1C1B" d="M161.459,43.374c0.498,0.108,0.915,0.164,1.253,0.164c0.909,0,1.664-0.318,2.264-0.959
				c0.6-0.639,0.9-1.504,0.9-2.6c0-1.102-0.301-1.968-0.9-2.604c-0.6-0.635-1.371-0.953-2.311-0.953
				c-0.354,0-0.755,0.057-1.206,0.171V43.374z M159.182,43.95v-0.218h0.301c0.337,0,0.576-0.108,0.717-0.323
				c0.087-0.129,0.13-0.42,0.13-0.871v-5.15c0-0.498-0.055-0.811-0.165-0.936c-0.152-0.172-0.381-0.259-0.682-0.259h-0.301v-0.218
				h3.248c1.19,0,2.097,0.135,2.717,0.406c0.623,0.27,1.123,0.721,1.5,1.352c0.38,0.631,0.57,1.361,0.57,2.189
				c0,1.109-0.338,2.035-1.013,2.779c-0.757,0.832-1.909,1.248-3.458,1.248H159.182z"/>
			<path id="Fill-125" fill="#1D1C1B" d="M170.192,36.411v3.151h1.752c0.455,0,0.76-0.067,0.912-0.206
				c0.203-0.18,0.316-0.498,0.342-0.953h0.217v2.777h-0.217c-0.056-0.389-0.109-0.637-0.166-0.748
				c-0.07-0.137-0.186-0.245-0.347-0.322c-0.161-0.08-0.408-0.117-0.741-0.117h-1.752v2.627c0,0.354,0.016,0.567,0.047,0.645
				s0.086,0.137,0.166,0.184c0.077,0.045,0.225,0.066,0.446,0.066h1.353c0.451,0,0.777-0.031,0.981-0.094
				c0.203-0.062,0.401-0.186,0.588-0.37c0.243-0.244,0.491-0.61,0.747-1.101h0.234l-0.688,2h-6.146v-0.217h0.283
				c0.188,0,0.367-0.047,0.537-0.136c0.125-0.063,0.209-0.157,0.254-0.284c0.045-0.125,0.068-0.381,0.068-0.769v-5.181
				c0-0.506-0.051-0.818-0.152-0.936c-0.142-0.158-0.377-0.234-0.707-0.234h-0.283v-0.22h6.146l0.09,1.748h-0.231
				c-0.082-0.419-0.173-0.708-0.273-0.864c-0.1-0.156-0.247-0.277-0.442-0.359c-0.158-0.06-0.435-0.088-0.83-0.088H170.192z"/>
			<path id="Fill-126" fill="#1D1C1B" d="M184.947,41.745l0.193,0.041l-0.682,2.164h-6.174v-0.217h0.299
				c0.338,0,0.58-0.111,0.723-0.33c0.084-0.125,0.123-0.416,0.123-0.871v-5.145c0-0.498-0.053-0.811-0.164-0.936
				c-0.154-0.172-0.379-0.258-0.682-0.258h-0.299v-0.22h3.609v0.22c-0.422-0.006-0.719,0.033-0.891,0.116
				c-0.168,0.082-0.285,0.187-0.35,0.312c-0.061,0.125-0.094,0.427-0.094,0.899v5.011c0,0.326,0.033,0.549,0.094,0.672
				c0.047,0.082,0.121,0.143,0.219,0.182s0.402,0.059,0.918,0.059h0.582c0.609,0,1.039-0.046,1.287-0.136
				c0.246-0.089,0.473-0.25,0.678-0.479C184.54,42.6,184.744,42.239,184.947,41.745"/>
			<path id="Fill-127" fill="#1D1C1B" d="M185.695,38.839v-0.275c0.402-0.24,0.676-0.463,0.822-0.67
				c0.104-0.15,0.154-0.327,0.154-0.536c0-0.122-0.021-0.211-0.066-0.271c-0.047-0.059-0.098-0.088-0.15-0.088
				c-0.043,0-0.102,0.014-0.174,0.041c-0.1,0.034-0.186,0.053-0.252,0.053c-0.156,0-0.295-0.06-0.416-0.176
				c-0.121-0.119-0.184-0.266-0.184-0.441c0-0.196,0.062-0.35,0.184-0.459c0.164-0.149,0.359-0.223,0.588-0.223
				c0.262,0,0.5,0.109,0.705,0.332c0.213,0.222,0.316,0.496,0.316,0.825c0,0.464-0.174,0.884-0.521,1.265
				C186.466,38.466,186.132,38.675,185.695,38.839"/>
			<path id="Fill-128" fill="#1D1C1B" d="M193.322,33.382l-1.734,2.029h-0.201l0.619-2.029H193.322z M190.822,36.41v3.153h1.754
				c0.453,0,0.758-0.069,0.91-0.206c0.203-0.181,0.318-0.498,0.34-0.954h0.219v2.777h-0.219c-0.055-0.389-0.107-0.637-0.164-0.747
				c-0.068-0.138-0.186-0.245-0.348-0.323c-0.16-0.08-0.408-0.118-0.738-0.118h-1.754v2.628c0,0.354,0.016,0.568,0.047,0.646
				c0.031,0.075,0.086,0.137,0.166,0.182c0.076,0.045,0.227,0.068,0.445,0.068h1.354c0.451,0,0.777-0.032,0.98-0.095
				c0.205-0.062,0.402-0.186,0.59-0.371c0.242-0.242,0.49-0.608,0.746-1.1h0.234l-0.686,1.999h-6.146v-0.216h0.283
				c0.188,0,0.365-0.046,0.535-0.136c0.125-0.063,0.209-0.156,0.254-0.283c0.047-0.125,0.068-0.381,0.068-0.771v-5.181
				c0-0.505-0.051-0.817-0.152-0.935c-0.143-0.157-0.377-0.234-0.705-0.234h-0.283v-0.219h6.146l0.088,1.747h-0.232
				c-0.082-0.419-0.17-0.707-0.27-0.864c-0.102-0.157-0.248-0.277-0.443-0.359c-0.158-0.059-0.436-0.089-0.83-0.089H190.822z"/>
			<path id="Fill-129" fill="#1D1C1B" d="M198.144,43.374c0.498,0.108,0.914,0.164,1.252,0.164c0.908,0,1.664-0.318,2.266-0.959
				c0.6-0.639,0.898-1.504,0.898-2.6c0-1.102-0.299-1.968-0.898-2.604c-0.602-0.635-1.371-0.953-2.312-0.953
				c-0.352,0-0.754,0.057-1.205,0.171V43.374z M195.869,43.95v-0.218h0.299c0.336,0,0.576-0.108,0.717-0.323
				c0.088-0.129,0.131-0.42,0.131-0.871v-5.15c0-0.498-0.055-0.811-0.164-0.936c-0.152-0.172-0.383-0.259-0.684-0.259h-0.299v-0.218
				h3.246c1.189,0,2.098,0.135,2.719,0.406c0.621,0.27,1.121,0.721,1.5,1.352s0.568,1.361,0.568,2.189
				c0,1.109-0.338,2.035-1.012,2.779c-0.758,0.832-1.91,1.248-3.457,1.248H195.869z"/>
			<path id="Fill-130" fill="#1D1C1B" d="M210.105,36.194v-0.219h2.822v0.219h-0.299c-0.312,0-0.555,0.131-0.723,0.393
				c-0.082,0.122-0.125,0.404-0.125,0.848v3.234c0,0.799-0.078,1.421-0.238,1.861c-0.158,0.44-0.469,0.818-0.936,1.135
				c-0.465,0.314-1.096,0.473-1.896,0.473c-0.869,0-1.529-0.15-1.98-0.453c-0.449-0.302-0.771-0.707-0.959-1.217
				c-0.127-0.348-0.188-1.003-0.188-1.963v-3.118c0-0.489-0.068-0.811-0.205-0.964c-0.133-0.154-0.352-0.229-0.654-0.229h-0.301
				v-0.219h3.449v0.219h-0.309c-0.33,0-0.562,0.104-0.705,0.311c-0.098,0.141-0.146,0.436-0.146,0.882v3.476
				c0,0.311,0.029,0.666,0.086,1.064c0.055,0.4,0.16,0.711,0.307,0.936c0.15,0.224,0.365,0.408,0.645,0.553
				c0.281,0.145,0.627,0.217,1.033,0.217c0.52,0,0.986-0.113,1.398-0.34c0.41-0.229,0.693-0.52,0.844-0.874
				c0.152-0.354,0.227-0.955,0.227-1.802v-3.229c0-0.498-0.055-0.809-0.164-0.935c-0.152-0.172-0.381-0.258-0.68-0.258H210.105z"/>
			<path id="Fill-131" fill="#1D1C1B" d="M220.308,35.794l0.182,2.711h-0.182c-0.242-0.812-0.592-1.396-1.041-1.752
				c-0.451-0.356-0.99-0.537-1.625-0.537c-0.527,0-1.006,0.136-1.434,0.404c-0.426,0.269-0.762,0.695-1.006,1.284
				c-0.246,0.589-0.371,1.32-0.371,2.194c0,0.721,0.119,1.346,0.348,1.876c0.234,0.528,0.58,0.935,1.045,1.216
				c0.465,0.283,0.994,0.424,1.592,0.424c0.518,0,0.973-0.109,1.369-0.332c0.396-0.221,0.832-0.662,1.305-1.32l0.182,0.117
				c-0.398,0.711-0.865,1.23-1.396,1.56c-0.533,0.33-1.166,0.493-1.9,0.493c-1.322,0-2.344-0.489-3.07-1.471
				c-0.541-0.728-0.811-1.586-0.811-2.574c0-0.797,0.178-1.526,0.535-2.193s0.846-1.184,1.473-1.55
				c0.625-0.367,1.309-0.55,2.049-0.55c0.576,0,1.145,0.141,1.705,0.422c0.164,0.088,0.283,0.131,0.355,0.131
				c0.102,0,0.195-0.037,0.273-0.112c0.104-0.106,0.176-0.253,0.221-0.44H220.308z"/>
			<path id="Fill-132" fill="#1D1C1B" d="M226.435,40.845l-1.352-3.224l-1.387,3.224H226.435z M226.599,41.28h-3.086l-0.543,1.258
				c-0.131,0.311-0.197,0.541-0.197,0.694c0,0.122,0.057,0.229,0.174,0.321c0.113,0.092,0.363,0.15,0.75,0.18v0.216h-2.514v-0.216
				c0.334-0.061,0.551-0.137,0.648-0.23c0.199-0.188,0.42-0.57,0.664-1.146l2.805-6.562h0.205l2.777,6.633
				c0.223,0.533,0.428,0.879,0.609,1.037c0.184,0.159,0.438,0.25,0.762,0.27v0.216h-3.146v-0.216c0.316-0.018,0.531-0.07,0.645-0.16
				c0.109-0.09,0.168-0.2,0.168-0.329c0-0.172-0.078-0.444-0.236-0.817L226.599,41.28z"/>
			<path id="Fill-133" fill="#1D1C1B" d="M235.421,35.976l0.09,1.869h-0.227c-0.043-0.328-0.098-0.562-0.174-0.705
				c-0.123-0.227-0.283-0.395-0.486-0.502c-0.199-0.107-0.467-0.162-0.797-0.162h-1.125v6.093c0,0.489,0.055,0.796,0.162,0.917
				c0.148,0.164,0.377,0.248,0.688,0.248h0.275v0.217h-3.381v-0.217h0.283c0.338,0,0.576-0.103,0.717-0.307
				c0.086-0.125,0.129-0.412,0.129-0.858v-6.093h-0.959c-0.373,0-0.637,0.026-0.793,0.082c-0.205,0.074-0.377,0.219-0.523,0.431
				c-0.146,0.211-0.23,0.497-0.258,0.856h-0.225l0.094-1.869H235.421z"/>
			<path id="Fill-134" fill="#1D1C1B" d="M239.527,43.733v0.217h-3.416v-0.217h0.281c0.33,0,0.57-0.098,0.717-0.289
				c0.096-0.125,0.145-0.428,0.145-0.905v-5.151c0-0.404-0.029-0.672-0.08-0.801c-0.039-0.097-0.117-0.181-0.24-0.252
				c-0.174-0.095-0.352-0.141-0.541-0.141h-0.281v-0.219h3.416v0.219h-0.289c-0.324,0-0.562,0.096-0.711,0.287
				c-0.098,0.125-0.146,0.428-0.146,0.906v5.151c0,0.403,0.025,0.67,0.078,0.799c0.039,0.099,0.121,0.183,0.246,0.253
				c0.168,0.094,0.346,0.143,0.533,0.143H239.527z"/>
			<path id="Fill-135" fill="#1D1C1B" d="M244.113,36.224c-0.715,0-1.285,0.265-1.717,0.793c-0.537,0.658-0.807,1.623-0.807,2.894
				c0,1.302,0.279,2.304,0.838,3.004c0.424,0.535,0.99,0.802,1.693,0.802c0.748,0,1.365-0.293,1.854-0.877
				c0.49-0.584,0.732-1.507,0.732-2.764c0-1.366-0.27-2.382-0.805-3.053C245.468,36.49,244.874,36.224,244.113,36.224
				 M244.224,35.793c1.035,0,1.934,0.394,2.691,1.179c0.76,0.787,1.139,1.769,1.139,2.943c0,1.212-0.383,2.217-1.148,3.018
				s-1.688,1.199-2.773,1.199c-1.098,0-2.021-0.389-2.768-1.17c-0.748-0.779-1.119-1.789-1.119-3.027
				c0-1.269,0.43-2.301,1.293-3.101C242.286,36.14,243.181,35.793,244.224,35.793"/>
			<path id="Fill-136" fill="#1D1C1B" d="M248.357,35.976h2.166l4.875,5.98v-4.6c0-0.488-0.053-0.795-0.164-0.916
				c-0.145-0.164-0.375-0.246-0.688-0.246h-0.277v-0.219h2.777v0.219h-0.283c-0.338,0-0.576,0.101-0.717,0.305
				c-0.086,0.125-0.129,0.412-0.129,0.857v6.723h-0.213l-5.258-6.421v4.91c0,0.489,0.055,0.796,0.158,0.917
				c0.148,0.164,0.379,0.248,0.689,0.248h0.283v0.217H248.8v-0.217h0.277c0.342,0,0.582-0.103,0.721-0.307
				c0.088-0.125,0.131-0.412,0.131-0.858v-5.546c-0.229-0.271-0.406-0.448-0.527-0.534c-0.117-0.087-0.293-0.167-0.525-0.242
				c-0.115-0.036-0.287-0.052-0.52-0.052V35.976z"/>
			<path id="Fill-137" fill="#1D1C1B" d="M260.068,35.976h2.164l4.875,5.98v-4.6c0-0.488-0.055-0.795-0.164-0.916
				c-0.145-0.164-0.375-0.246-0.688-0.246h-0.277v-0.219h2.775v0.219h-0.283c-0.336,0-0.574,0.101-0.715,0.305
				c-0.088,0.125-0.131,0.412-0.131,0.857v6.723h-0.211l-5.256-6.421v4.91c0,0.489,0.051,0.796,0.156,0.917
				c0.15,0.164,0.379,0.248,0.689,0.248h0.281v0.217h-2.777v-0.217h0.279c0.342,0,0.58-0.103,0.723-0.307
				c0.086-0.125,0.129-0.412,0.129-0.858v-5.546c-0.232-0.271-0.408-0.448-0.525-0.534c-0.121-0.087-0.297-0.167-0.527-0.242
				c-0.113-0.036-0.287-0.052-0.518-0.052V35.976z"/>
			<path id="Fill-138" fill="#1D1C1B" d="M274.271,40.845l-1.354-3.224l-1.389,3.224H274.271z M274.435,41.28h-3.09l-0.539,1.258
				c-0.133,0.311-0.201,0.541-0.201,0.694c0,0.122,0.059,0.229,0.178,0.321c0.113,0.092,0.363,0.15,0.746,0.18v0.216h-2.512v-0.216
				c0.334-0.061,0.551-0.137,0.648-0.23c0.201-0.188,0.422-0.57,0.666-1.146l2.803-6.562h0.207l2.775,6.633
				c0.225,0.533,0.426,0.879,0.607,1.037c0.184,0.159,0.438,0.25,0.762,0.27v0.216h-3.146v-0.216c0.318-0.018,0.533-0.07,0.646-0.16
				c0.111-0.09,0.166-0.2,0.166-0.329c0-0.172-0.076-0.444-0.234-0.817L274.435,41.28z"/>
			<path id="Fill-139" fill="#1D1C1B" d="M283.255,35.976l0.086,1.869h-0.221c-0.043-0.328-0.104-0.562-0.176-0.705
				c-0.121-0.227-0.285-0.395-0.486-0.502c-0.203-0.107-0.469-0.162-0.797-0.162h-1.123v6.093c0,0.489,0.055,0.796,0.158,0.917
				c0.15,0.164,0.379,0.248,0.689,0.248h0.275v0.217h-3.383v-0.217h0.283c0.34,0,0.576-0.103,0.719-0.307
				c0.086-0.125,0.129-0.412,0.129-0.858v-6.093h-0.959c-0.373,0-0.635,0.026-0.795,0.082c-0.203,0.074-0.379,0.219-0.521,0.431
				c-0.146,0.211-0.232,0.497-0.26,0.856h-0.223l0.094-1.869H283.255z"/>
			<path id="Fill-140" fill="#1D1C1B" d="M287.361,43.733v0.217h-3.418v-0.217h0.283c0.328,0,0.568-0.098,0.719-0.289
				c0.094-0.125,0.139-0.428,0.139-0.905v-5.151c0-0.404-0.025-0.672-0.076-0.801c-0.039-0.097-0.121-0.181-0.242-0.252
				c-0.172-0.095-0.35-0.141-0.539-0.141h-0.283v-0.219h3.418v0.219h-0.289c-0.324,0-0.562,0.096-0.713,0.287
				c-0.096,0.125-0.145,0.428-0.145,0.906v5.151c0,0.403,0.023,0.67,0.074,0.799c0.041,0.099,0.123,0.183,0.248,0.253
				c0.172,0.094,0.346,0.143,0.535,0.143H287.361z"/>
			<path id="Fill-141" fill="#1D1C1B" d="M291.949,36.224c-0.715,0-1.287,0.265-1.717,0.793c-0.539,0.658-0.807,1.623-0.807,2.894
				c0,1.302,0.279,2.304,0.836,3.004c0.426,0.535,0.99,0.802,1.695,0.802c0.748,0,1.365-0.293,1.852-0.877
				c0.49-0.584,0.734-1.507,0.734-2.764c0-1.366-0.27-2.382-0.807-3.053C293.304,36.49,292.71,36.224,291.949,36.224 M292.06,35.793
				c1.037,0,1.93,0.394,2.693,1.179c0.758,0.787,1.135,1.769,1.135,2.943c0,1.212-0.381,2.217-1.146,3.018s-1.691,1.199-2.773,1.199
				c-1.098,0-2.021-0.389-2.77-1.17c-0.748-0.779-1.117-1.789-1.117-3.027c0-1.269,0.428-2.301,1.289-3.101
				C290.122,36.14,291.015,35.793,292.06,35.793"/>
			<path id="Fill-142" fill="#1D1C1B" d="M296.193,35.976h2.166l4.875,5.98v-4.6c0-0.488-0.055-0.795-0.166-0.916
				c-0.145-0.164-0.375-0.246-0.686-0.246h-0.279v-0.219h2.779v0.219h-0.283c-0.34,0-0.58,0.101-0.719,0.305
				c-0.084,0.125-0.127,0.412-0.127,0.857v6.723h-0.211l-5.26-6.421v4.91c0,0.489,0.053,0.796,0.16,0.917
				c0.146,0.164,0.375,0.248,0.688,0.248h0.281v0.217h-2.775v-0.217h0.275c0.34,0,0.584-0.103,0.723-0.307
				c0.086-0.125,0.129-0.412,0.129-0.858v-5.546c-0.229-0.271-0.404-0.448-0.525-0.534c-0.117-0.087-0.295-0.167-0.525-0.242
				c-0.115-0.036-0.287-0.052-0.52-0.052V35.976z"/>
			<path id="Fill-143" fill="#1D1C1B" d="M310.396,40.845l-1.352-3.224l-1.387,3.224H310.396z M310.56,41.28h-3.086l-0.539,1.258
				c-0.137,0.311-0.199,0.541-0.199,0.694c0,0.122,0.057,0.229,0.17,0.321c0.115,0.092,0.365,0.15,0.752,0.18v0.216h-2.512v-0.216
				c0.332-0.061,0.549-0.137,0.645-0.23c0.201-0.188,0.422-0.57,0.666-1.146l2.805-6.562h0.205l2.779,6.633
				c0.221,0.533,0.424,0.879,0.607,1.037c0.182,0.159,0.436,0.25,0.762,0.27v0.216h-3.148v-0.216c0.32-0.018,0.533-0.07,0.645-0.16
				s0.168-0.2,0.168-0.329c0-0.172-0.078-0.444-0.236-0.817L310.56,41.28z"/>
			<path id="Fill-144" fill="#1D1C1B" d="M320.652,41.745l0.191,0.041l-0.678,2.164h-6.176v-0.217h0.301
				c0.336,0,0.576-0.111,0.721-0.33c0.082-0.125,0.121-0.416,0.121-0.871v-5.145c0-0.498-0.053-0.811-0.164-0.936
				c-0.148-0.172-0.379-0.258-0.678-0.258h-0.301v-0.22h3.611v0.22c-0.426-0.006-0.723,0.033-0.895,0.116
				c-0.168,0.082-0.285,0.187-0.35,0.312c-0.061,0.125-0.094,0.427-0.094,0.899v5.011c0,0.326,0.033,0.549,0.094,0.672
				c0.051,0.082,0.121,0.143,0.219,0.182s0.404,0.059,0.918,0.059h0.584c0.611,0,1.039-0.046,1.287-0.136
				c0.246-0.089,0.471-0.25,0.676-0.479C320.244,42.6,320.447,42.239,320.652,41.745"/>
			<path id="Fill-145" fill="#1D1C1B" d="M323.622,36.411v3.151h1.752c0.455,0,0.758-0.067,0.912-0.206
				c0.203-0.18,0.316-0.498,0.34-0.953h0.219v2.777h-0.219c-0.055-0.389-0.111-0.637-0.164-0.748
				c-0.072-0.137-0.188-0.245-0.348-0.322c-0.16-0.08-0.408-0.117-0.74-0.117h-1.752v2.627c0,0.354,0.014,0.567,0.047,0.645
				c0.031,0.077,0.086,0.137,0.164,0.184c0.078,0.045,0.225,0.066,0.445,0.066h1.354c0.451,0,0.779-0.031,0.982-0.094
				s0.4-0.186,0.586-0.37c0.244-0.244,0.494-0.61,0.748-1.101h0.236l-0.686,2h-6.148v-0.217h0.283c0.186,0,0.365-0.047,0.533-0.136
				c0.129-0.063,0.211-0.157,0.258-0.284c0.047-0.125,0.066-0.381,0.066-0.769v-5.181c0-0.506-0.051-0.818-0.152-0.936
				c-0.141-0.158-0.375-0.234-0.705-0.234h-0.283v-0.22h6.148l0.086,1.748h-0.23c-0.082-0.419-0.172-0.708-0.271-0.864
				c-0.102-0.156-0.25-0.277-0.447-0.359c-0.154-0.06-0.432-0.088-0.828-0.088H323.622z"/>
			<path id="Fill-146" fill="#1D1C1B" d="M329.107,45.954v-0.258c0.404-0.133,0.719-0.341,0.938-0.619
				c0.221-0.281,0.332-0.578,0.332-0.893c0-0.074-0.018-0.136-0.049-0.188c-0.029-0.035-0.059-0.054-0.082-0.054
				c-0.043,0-0.141,0.039-0.285,0.118c-0.07,0.035-0.145,0.053-0.223,0.053c-0.193,0-0.346-0.056-0.459-0.171
				c-0.113-0.112-0.172-0.27-0.172-0.47c0-0.191,0.074-0.357,0.223-0.494c0.145-0.137,0.326-0.206,0.537-0.206
				c0.26,0,0.488,0.113,0.691,0.339c0.201,0.225,0.301,0.524,0.301,0.897c0,0.403-0.139,0.778-0.418,1.126
				C330.16,45.481,329.714,45.756,329.107,45.954"/>
			<path id="Fill-147" fill="#1D1C1B" d="M152.357,58.965c0.498,0.108,0.916,0.165,1.253,0.165c0.91,0,1.664-0.32,2.266-0.958
				c0.599-0.642,0.898-1.506,0.898-2.601c0-1.101-0.3-1.969-0.898-2.605c-0.602-0.634-1.373-0.951-2.312-0.951
				c-0.352,0-0.754,0.057-1.206,0.17V58.965z M150.083,59.541v-0.218h0.3c0.337,0,0.575-0.107,0.717-0.322
				c0.086-0.131,0.129-0.42,0.129-0.872v-5.151c0-0.498-0.054-0.81-0.164-0.935c-0.153-0.172-0.381-0.258-0.682-0.258h-0.3v-0.218
				h3.246c1.191,0,2.098,0.136,2.719,0.404c0.621,0.271,1.121,0.723,1.5,1.352c0.378,0.633,0.568,1.363,0.568,2.189
				c0,1.11-0.338,2.037-1.013,2.78c-0.756,0.833-1.909,1.248-3.457,1.248H150.083z"/>
			<path id="Fill-148" fill="#1D1C1B" d="M161.092,52.002v3.151h1.752c0.455,0,0.759-0.067,0.911-0.205
				c0.204-0.18,0.316-0.499,0.342-0.953h0.219v2.775h-0.219c-0.056-0.387-0.109-0.637-0.164-0.746
				c-0.072-0.137-0.188-0.246-0.348-0.323c-0.161-0.079-0.408-0.118-0.741-0.118h-1.752v2.628c0,0.353,0.015,0.567,0.046,0.646
				c0.031,0.076,0.088,0.138,0.166,0.183c0.077,0.044,0.227,0.065,0.446,0.065h1.353c0.451,0,0.778-0.03,0.981-0.092
				c0.204-0.063,0.401-0.187,0.589-0.373c0.243-0.242,0.491-0.607,0.747-1.098h0.235l-0.688,1.999h-6.146v-0.218h0.283
				c0.188,0,0.365-0.045,0.535-0.137c0.125-0.061,0.209-0.155,0.256-0.283c0.045-0.125,0.067-0.381,0.067-0.768v-5.181
				c0-0.507-0.052-0.819-0.153-0.935c-0.142-0.158-0.377-0.235-0.705-0.235h-0.283v-0.218h6.146l0.089,1.746h-0.23
				c-0.082-0.42-0.172-0.707-0.273-0.865c-0.101-0.155-0.248-0.276-0.443-0.359c-0.157-0.057-0.434-0.087-0.828-0.087H161.092z"/>
			<path id="Fill-149" fill="#1D1C1B" d="M175.846,57.335l0.194,0.043l-0.682,2.163h-6.174v-0.218h0.299
				c0.336,0,0.578-0.109,0.723-0.329c0.083-0.125,0.124-0.415,0.124-0.869v-5.147c0-0.498-0.056-0.81-0.165-0.935
				c-0.153-0.172-0.381-0.258-0.682-0.258h-0.299v-0.218h3.609v0.218c-0.424-0.005-0.721,0.034-0.891,0.116
				s-0.287,0.188-0.351,0.313c-0.062,0.125-0.094,0.425-0.094,0.897v5.013c0,0.325,0.032,0.547,0.094,0.669
				c0.048,0.082,0.12,0.143,0.218,0.182c0.098,0.041,0.403,0.06,0.918,0.06h0.582c0.611,0,1.041-0.045,1.289-0.134
				c0.245-0.092,0.471-0.252,0.676-0.479C175.438,58.19,175.641,57.83,175.846,57.335"/>
			<path id="Fill-150" fill="#1D1C1B" d="M176.593,54.432v-0.276c0.403-0.24,0.678-0.463,0.825-0.672
				c0.102-0.15,0.152-0.326,0.152-0.535c0-0.121-0.021-0.211-0.066-0.269c-0.047-0.062-0.098-0.09-0.153-0.09
				c-0.043,0-0.099,0.015-0.17,0.041c-0.102,0.034-0.188,0.052-0.253,0.052c-0.157,0-0.296-0.057-0.417-0.175
				c-0.122-0.118-0.184-0.265-0.184-0.44c0-0.197,0.062-0.35,0.184-0.461c0.164-0.146,0.36-0.222,0.588-0.222
				c0.262,0,0.499,0.11,0.709,0.333c0.211,0.222,0.312,0.497,0.312,0.825c0,0.462-0.174,0.884-0.52,1.265
				C177.366,54.058,177.03,54.267,176.593,54.432"/>
			<path id="Fill-151" fill="#1D1C1B" d="M181.722,52.002v3.151h1.754c0.451,0,0.758-0.067,0.91-0.205
				c0.203-0.18,0.316-0.499,0.34-0.953h0.219v2.775h-0.219c-0.055-0.387-0.109-0.637-0.164-0.746
				c-0.072-0.137-0.188-0.246-0.348-0.323c-0.16-0.079-0.406-0.118-0.738-0.118h-1.754v2.628c0,0.353,0.016,0.567,0.047,0.646
				c0.029,0.076,0.086,0.138,0.164,0.183c0.078,0.044,0.227,0.065,0.447,0.065h1.352c0.451,0,0.779-0.03,0.982-0.092
				c0.205-0.063,0.402-0.187,0.586-0.373c0.244-0.242,0.494-0.607,0.748-1.098h0.236l-0.688,1.999h-6.146v-0.218h0.285
				c0.186,0,0.363-0.045,0.533-0.137c0.125-0.061,0.209-0.155,0.256-0.283c0.045-0.125,0.066-0.381,0.066-0.768v-5.181
				c0-0.507-0.049-0.819-0.152-0.935c-0.141-0.158-0.375-0.235-0.703-0.235h-0.285v-0.218h6.146l0.088,1.746h-0.23
				c-0.082-0.42-0.172-0.707-0.271-0.865c-0.102-0.155-0.25-0.276-0.443-0.359c-0.158-0.057-0.436-0.087-0.83-0.087H181.722z"/>
			<path id="Fill-152" fill="#1D1C1B" d="M186.402,51.567h2.164l4.875,5.98v-4.601c0-0.489-0.055-0.794-0.164-0.915
				c-0.145-0.165-0.373-0.247-0.688-0.247h-0.275v-0.218h2.775v0.218h-0.283c-0.338,0-0.576,0.101-0.717,0.304
				c-0.088,0.125-0.131,0.412-0.131,0.858v6.724h-0.211l-5.256-6.422v4.91c0,0.489,0.053,0.795,0.156,0.917
				c0.15,0.164,0.379,0.247,0.689,0.247h0.283v0.219h-2.777v-0.219h0.277c0.342,0,0.58-0.101,0.723-0.306
				c0.086-0.126,0.129-0.412,0.129-0.858v-5.546c-0.23-0.271-0.408-0.448-0.525-0.534c-0.121-0.086-0.297-0.169-0.527-0.242
				c-0.113-0.035-0.287-0.052-0.518-0.052V51.567z"/>
			<path id="Fill-153" fill="#1D1C1B" d="M200.781,51.385v2.757h-0.219c-0.07-0.529-0.197-0.951-0.379-1.264
				s-0.441-0.562-0.779-0.746c-0.336-0.186-0.686-0.275-1.047-0.275c-0.406,0-0.744,0.123-1.012,0.373
				c-0.266,0.248-0.398,0.532-0.398,0.848c0,0.244,0.082,0.466,0.252,0.664c0.244,0.295,0.82,0.687,1.736,1.177
				c0.744,0.401,1.252,0.708,1.525,0.922c0.273,0.213,0.48,0.465,0.631,0.755c0.145,0.289,0.219,0.594,0.219,0.912
				c0,0.604-0.234,1.122-0.703,1.561c-0.469,0.438-1.07,0.656-1.807,0.656c-0.234,0-0.451-0.019-0.656-0.054
				c-0.121-0.019-0.371-0.09-0.754-0.215c-0.381-0.123-0.625-0.186-0.725-0.186s-0.176,0.03-0.232,0.089
				c-0.057,0.06-0.1,0.181-0.127,0.365h-0.217v-2.734h0.217c0.102,0.57,0.238,1,0.412,1.285c0.172,0.283,0.434,0.52,0.791,0.709
				c0.354,0.188,0.744,0.282,1.166,0.282c0.49,0,0.877-0.131,1.162-0.39c0.283-0.258,0.424-0.565,0.424-0.917
				c0-0.195-0.053-0.394-0.16-0.595c-0.107-0.199-0.275-0.385-0.502-0.559c-0.152-0.117-0.57-0.365-1.254-0.749
				c-0.68-0.383-1.166-0.687-1.455-0.914c-0.287-0.229-0.506-0.479-0.654-0.754c-0.15-0.274-0.225-0.575-0.225-0.905
				c0-0.572,0.221-1.065,0.66-1.479c0.438-0.411,0.998-0.619,1.674-0.619c0.424,0,0.873,0.104,1.348,0.312
				c0.219,0.098,0.373,0.146,0.465,0.146c0.102,0,0.186-0.027,0.25-0.092c0.064-0.059,0.115-0.182,0.154-0.366H200.781z"/>
			<path id="Fill-154" fill="#1D1C1B" d="M204.474,52.002v3.151h1.752c0.453,0,0.76-0.067,0.912-0.205
				c0.203-0.18,0.318-0.499,0.34-0.953h0.219v2.775h-0.219c-0.055-0.387-0.107-0.637-0.164-0.746
				c-0.07-0.137-0.188-0.246-0.348-0.323c-0.16-0.079-0.408-0.118-0.74-0.118h-1.752v2.628c0,0.353,0.016,0.567,0.047,0.646
				c0.031,0.076,0.086,0.138,0.164,0.183c0.078,0.044,0.229,0.065,0.447,0.065h1.354c0.449,0,0.777-0.03,0.98-0.092
				c0.205-0.063,0.402-0.187,0.588-0.373c0.244-0.242,0.492-0.607,0.748-1.098h0.234l-0.688,1.999h-6.146v-0.218h0.285
				c0.188,0,0.365-0.045,0.535-0.137c0.125-0.061,0.209-0.155,0.254-0.283c0.047-0.125,0.066-0.381,0.066-0.768v-5.181
				c0-0.507-0.049-0.819-0.15-0.935c-0.143-0.158-0.377-0.235-0.705-0.235h-0.285v-0.218h6.146l0.09,1.746h-0.232
				c-0.082-0.42-0.17-0.707-0.271-0.865c-0.1-0.155-0.248-0.276-0.441-0.359c-0.16-0.057-0.436-0.087-0.832-0.087H204.474z"/>
			<path id="Fill-155" fill="#1D1C1B" d="M213.031,59.323v0.219h-3.416v-0.219h0.279c0.332,0,0.57-0.097,0.719-0.288
				c0.094-0.125,0.143-0.428,0.143-0.905v-5.152c0-0.403-0.027-0.67-0.078-0.799c-0.039-0.099-0.119-0.183-0.238-0.254
				c-0.176-0.093-0.354-0.14-0.545-0.14h-0.279v-0.218h3.416v0.218h-0.289c-0.326,0-0.562,0.095-0.713,0.286
				c-0.096,0.125-0.145,0.43-0.145,0.906v5.152c0,0.402,0.023,0.672,0.076,0.799c0.039,0.098,0.121,0.184,0.248,0.254
				c0.168,0.094,0.346,0.141,0.533,0.141H213.031z"/>
			<path id="Fill-156" fill="#1D1C1B" d="M220.714,51.385l0.207,2.519h-0.207c-0.207-0.631-0.475-1.103-0.805-1.418
				c-0.475-0.459-1.084-0.689-1.828-0.689c-1.016,0-1.789,0.4-2.316,1.205c-0.445,0.68-0.664,1.488-0.664,2.425
				c0,0.76,0.146,1.453,0.439,2.081c0.293,0.627,0.68,1.087,1.154,1.378c0.479,0.291,0.967,0.438,1.469,0.438
				c0.295,0,0.576-0.037,0.854-0.111c0.273-0.075,0.539-0.186,0.793-0.329v-2.306c0-0.4-0.031-0.662-0.092-0.785
				s-0.154-0.217-0.279-0.282c-0.129-0.063-0.355-0.097-0.676-0.097V55.19h3.09v0.223h-0.148c-0.307,0-0.516,0.102-0.629,0.306
				c-0.078,0.146-0.117,0.431-0.117,0.858v2.44c-0.451,0.243-0.896,0.423-1.336,0.534c-0.438,0.114-0.928,0.172-1.465,0.172
				c-1.541,0-2.711-0.494-3.51-1.482c-0.602-0.742-0.9-1.597-0.9-2.563c0-0.703,0.168-1.375,0.506-2.019
				c0.4-0.764,0.947-1.352,1.646-1.762c0.586-0.343,1.275-0.513,2.068-0.513c0.291,0,0.555,0.022,0.793,0.07
				c0.236,0.048,0.572,0.151,1.008,0.312c0.219,0.082,0.365,0.121,0.441,0.121c0.074,0,0.139-0.032,0.189-0.103
				c0.053-0.068,0.086-0.201,0.098-0.401H220.714z"/>
			<path id="Fill-157" fill="#1D1C1B" d="M221.863,51.567h2.162l4.877,5.98v-4.601c0-0.489-0.055-0.794-0.164-0.915
				c-0.146-0.165-0.375-0.247-0.689-0.247h-0.275v-0.218h2.775v0.218h-0.283c-0.336,0-0.576,0.101-0.715,0.304
				c-0.088,0.125-0.129,0.412-0.129,0.858v6.724h-0.213l-5.258-6.422v4.91c0,0.489,0.055,0.795,0.156,0.917
				c0.152,0.164,0.379,0.247,0.691,0.247h0.283v0.219h-2.777v-0.219h0.277c0.34,0,0.582-0.101,0.723-0.306
				c0.084-0.126,0.127-0.412,0.127-0.858v-5.546c-0.229-0.271-0.404-0.448-0.525-0.534c-0.119-0.086-0.295-0.169-0.523-0.242
				c-0.115-0.035-0.287-0.052-0.52-0.052V51.567z"/>
			<path id="Fill-158" fill="#1D1C1B" d="M233.236,52.002v3.151h1.752c0.455,0,0.76-0.067,0.912-0.205
				c0.205-0.18,0.318-0.499,0.342-0.953h0.217v2.775h-0.217c-0.055-0.387-0.109-0.637-0.166-0.746
				c-0.068-0.137-0.186-0.246-0.348-0.323c-0.16-0.079-0.406-0.118-0.74-0.118h-1.752v2.628c0,0.353,0.016,0.567,0.049,0.646
				c0.031,0.076,0.086,0.138,0.162,0.183c0.08,0.044,0.229,0.065,0.447,0.065h1.355c0.449,0,0.775-0.03,0.98-0.092
				c0.203-0.063,0.4-0.187,0.588-0.373c0.242-0.242,0.49-0.607,0.746-1.098h0.234l-0.686,1.999h-6.146v-0.218h0.283
				c0.188,0,0.367-0.045,0.537-0.137c0.125-0.061,0.209-0.155,0.254-0.283c0.045-0.125,0.066-0.381,0.066-0.768v-5.181
				c0-0.507-0.051-0.819-0.152-0.935c-0.141-0.158-0.377-0.235-0.705-0.235h-0.283v-0.218h6.146l0.088,1.746h-0.23
				c-0.084-0.42-0.172-0.707-0.273-0.865c-0.1-0.155-0.246-0.276-0.441-0.359c-0.158-0.057-0.436-0.087-0.83-0.087H233.236z"/>
			<path id="Fill-159" fill="#1D1C1B" d="M243.005,59.541l-3.082-6.71v5.328c0,0.488,0.055,0.795,0.156,0.917
				c0.148,0.164,0.377,0.247,0.691,0.247h0.283v0.218h-2.777v-0.218h0.281c0.34,0,0.578-0.1,0.719-0.305
				c0.084-0.127,0.127-0.414,0.127-0.859v-5.212c0-0.351-0.039-0.604-0.117-0.763c-0.053-0.113-0.152-0.209-0.303-0.285
				c-0.146-0.078-0.381-0.114-0.707-0.114v-0.218h2.258l2.893,6.24l2.848-6.24h2.258v0.218h-0.277c-0.342,0-0.582,0.101-0.723,0.304
				c-0.086,0.126-0.129,0.412-0.129,0.858v5.212c0,0.488,0.053,0.795,0.164,0.917c0.145,0.164,0.375,0.247,0.688,0.247h0.277v0.218
				h-3.387v-0.218h0.281c0.344,0,0.58-0.1,0.719-0.305c0.086-0.127,0.129-0.414,0.129-0.859v-5.328l-3.076,6.71H243.005z"/>
			<path id="Fill-160" fill="#1D1C1B" d="M251.302,52.002v3.151h1.752c0.457,0,0.762-0.067,0.912-0.205
				c0.203-0.18,0.316-0.499,0.342-0.953h0.219v2.775h-0.219c-0.057-0.387-0.109-0.637-0.164-0.746
				c-0.072-0.137-0.188-0.246-0.348-0.323c-0.16-0.079-0.408-0.118-0.742-0.118h-1.752v2.628c0,0.353,0.018,0.567,0.047,0.646
				c0.029,0.076,0.088,0.138,0.168,0.183c0.074,0.044,0.223,0.065,0.445,0.065h1.352c0.451,0,0.777-0.03,0.98-0.092
				c0.205-0.063,0.402-0.187,0.59-0.373c0.242-0.242,0.49-0.607,0.746-1.098h0.236l-0.689,1.999h-6.145v-0.218h0.283
				c0.186,0,0.365-0.045,0.533-0.137c0.125-0.061,0.211-0.155,0.258-0.283c0.043-0.125,0.066-0.381,0.066-0.768v-5.181
				c0-0.507-0.051-0.819-0.152-0.935c-0.143-0.158-0.377-0.235-0.705-0.235h-0.283v-0.218h6.145l0.09,1.746h-0.23
				c-0.082-0.42-0.174-0.707-0.275-0.865c-0.1-0.155-0.246-0.276-0.441-0.359c-0.158-0.057-0.434-0.087-0.83-0.087H251.302z"/>
			<path id="Fill-161" fill="#1D1C1B" d="M255.982,51.567h2.166l4.873,5.98v-4.601c0-0.489-0.053-0.794-0.164-0.915
				c-0.143-0.165-0.373-0.247-0.686-0.247h-0.277v-0.218h2.777v0.218h-0.283c-0.338,0-0.576,0.101-0.719,0.304
				c-0.086,0.125-0.129,0.412-0.129,0.858v6.724h-0.211l-5.258-6.422v4.91c0,0.489,0.053,0.795,0.158,0.917
				c0.148,0.164,0.379,0.247,0.688,0.247h0.283v0.219h-2.775v-0.219h0.275c0.344,0,0.582-0.101,0.723-0.306
				c0.088-0.126,0.131-0.412,0.131-0.858v-5.546c-0.23-0.271-0.408-0.448-0.525-0.534c-0.121-0.086-0.297-0.169-0.527-0.242
				c-0.115-0.035-0.287-0.052-0.52-0.052V51.567z"/>
			<path id="Fill-162" fill="#1D1C1B" d="M271.808,51.567l0.09,1.87h-0.225c-0.043-0.329-0.102-0.565-0.176-0.706
				c-0.123-0.227-0.285-0.395-0.486-0.503c-0.201-0.106-0.467-0.162-0.795-0.162h-1.125v6.093c0,0.489,0.055,0.795,0.158,0.917
				c0.152,0.164,0.379,0.247,0.689,0.247h0.277v0.219h-3.383v-0.219h0.283c0.336,0,0.576-0.101,0.717-0.306
				c0.086-0.126,0.129-0.412,0.129-0.858v-6.093h-0.957c-0.375,0-0.639,0.026-0.795,0.084c-0.203,0.073-0.379,0.216-0.523,0.429
				c-0.145,0.211-0.23,0.497-0.26,0.858h-0.223l0.094-1.87H271.808z"/>
			<path id="Fill-163" fill="#1D1C1B" d="M280.513,51.385v2.757h-0.217c-0.072-0.529-0.197-0.951-0.381-1.264
				c-0.18-0.312-0.443-0.562-0.779-0.746c-0.34-0.186-0.686-0.275-1.047-0.275c-0.408,0-0.744,0.123-1.012,0.373
				c-0.264,0.248-0.4,0.532-0.4,0.848c0,0.244,0.086,0.466,0.254,0.664c0.242,0.295,0.822,0.687,1.734,1.177
				c0.744,0.401,1.254,0.708,1.527,0.922c0.271,0.213,0.482,0.465,0.629,0.755c0.146,0.289,0.221,0.594,0.221,0.912
				c0,0.604-0.236,1.122-0.703,1.561c-0.469,0.438-1.074,0.656-1.809,0.656c-0.23,0-0.449-0.019-0.652-0.054
				c-0.121-0.019-0.375-0.09-0.758-0.215c-0.379-0.123-0.623-0.186-0.725-0.186c-0.098,0-0.176,0.03-0.234,0.089
				c-0.057,0.06-0.096,0.181-0.125,0.365h-0.217v-2.734h0.217c0.104,0.57,0.24,1,0.412,1.285c0.172,0.283,0.436,0.52,0.791,0.709
				c0.355,0.188,0.744,0.282,1.168,0.282c0.49,0,0.877-0.131,1.162-0.39c0.283-0.258,0.426-0.565,0.426-0.917
				c0-0.195-0.053-0.394-0.162-0.595c-0.109-0.199-0.275-0.385-0.504-0.559c-0.152-0.117-0.572-0.365-1.252-0.749
				c-0.682-0.383-1.168-0.687-1.455-0.914c-0.289-0.229-0.506-0.479-0.656-0.754c-0.146-0.274-0.223-0.575-0.223-0.905
				c0-0.572,0.219-1.065,0.658-1.479c0.439-0.411,0.998-0.619,1.676-0.619c0.424,0,0.875,0.104,1.346,0.312
				c0.223,0.098,0.375,0.146,0.465,0.146c0.104,0,0.188-0.027,0.25-0.092c0.064-0.059,0.117-0.182,0.158-0.366H280.513z"/>
			<path id="Fill-164" fill="#1D1C1B" d="M287.433,51.785v-0.218h2.824v0.218h-0.301c-0.314,0-0.553,0.131-0.725,0.394
				c-0.082,0.121-0.121,0.404-0.121,0.848v3.232c0,0.801-0.078,1.422-0.24,1.862c-0.158,0.44-0.469,0.819-0.934,1.134
				c-0.465,0.316-1.098,0.476-1.898,0.476c-0.869,0-1.531-0.152-1.982-0.454c-0.449-0.303-0.768-0.708-0.957-1.219
				c-0.125-0.348-0.189-1.002-0.189-1.963v-3.117c0-0.489-0.068-0.812-0.201-0.963c-0.135-0.154-0.352-0.229-0.658-0.229h-0.299
				v-0.218h3.447v0.218h-0.305c-0.332,0-0.564,0.104-0.707,0.312c-0.098,0.14-0.148,0.435-0.148,0.881v3.476
				c0,0.31,0.031,0.665,0.086,1.063c0.059,0.401,0.162,0.711,0.309,0.938c0.15,0.223,0.363,0.407,0.645,0.551
				c0.281,0.146,0.625,0.217,1.033,0.217c0.521,0,0.986-0.111,1.396-0.338c0.416-0.229,0.695-0.52,0.844-0.875
				c0.154-0.355,0.229-0.955,0.229-1.802v-3.229c0-0.498-0.055-0.81-0.164-0.935c-0.154-0.172-0.381-0.258-0.682-0.258H287.433z"/>
			<path id="Fill-165" fill="#1D1C1B" d="M292.857,55.472c0.207,0.039,0.391,0.068,0.551,0.088s0.297,0.03,0.41,0.03
				c0.408,0,0.764-0.157,1.057-0.474c0.295-0.316,0.447-0.725,0.447-1.227c0-0.345-0.072-0.667-0.217-0.962
				c-0.139-0.295-0.338-0.517-0.596-0.663c-0.26-0.148-0.555-0.222-0.883-0.222c-0.201,0-0.457,0.036-0.77,0.11V55.472z
				 M292.857,55.808v2.321c0,0.504,0.055,0.815,0.164,0.937c0.148,0.172,0.373,0.258,0.678,0.258h0.303v0.217h-3.416v-0.217h0.301
				c0.336,0,0.576-0.109,0.723-0.33c0.078-0.121,0.117-0.41,0.117-0.864v-5.151c0-0.502-0.053-0.814-0.16-0.935
				c-0.148-0.173-0.379-0.259-0.68-0.259h-0.301v-0.217h2.922c0.715,0,1.277,0.073,1.689,0.219c0.41,0.147,0.758,0.396,1.039,0.746
				c0.283,0.348,0.426,0.762,0.426,1.239c0,0.651-0.213,1.179-0.645,1.591c-0.432,0.406-1.037,0.61-1.818,0.61
				c-0.193,0-0.402-0.015-0.625-0.043C293.351,55.903,293.111,55.862,292.857,55.808L292.857,55.808z"/>
			<path id="Fill-166" fill="#1D1C1B" d="M302.099,48.973l-1.732,2.029h-0.201l0.619-2.029H302.099z M299.601,52.002v3.151h1.752
				c0.453,0,0.758-0.067,0.912-0.205c0.203-0.181,0.318-0.498,0.344-0.953h0.215v2.774h-0.215c-0.059-0.386-0.111-0.636-0.164-0.745
				c-0.074-0.138-0.191-0.244-0.348-0.322c-0.16-0.08-0.41-0.119-0.744-0.119h-1.752v2.628c0,0.354,0.018,0.569,0.047,0.646
				c0.031,0.076,0.086,0.137,0.164,0.182s0.229,0.066,0.447,0.066h1.355c0.451,0,0.775-0.029,0.979-0.093
				c0.203-0.062,0.402-0.185,0.59-0.372c0.244-0.241,0.49-0.607,0.748-1.098h0.232l-0.688,1.998h-6.146v-0.217h0.283
				c0.189,0,0.369-0.045,0.537-0.137c0.125-0.061,0.211-0.154,0.254-0.281c0.047-0.125,0.066-0.382,0.066-0.77v-5.182
				c0-0.506-0.049-0.818-0.148-0.935c-0.145-0.157-0.379-0.233-0.709-0.233h-0.283v-0.219h6.146l0.09,1.745h-0.229
				c-0.082-0.419-0.176-0.706-0.275-0.864c-0.1-0.155-0.246-0.276-0.443-0.359c-0.158-0.057-0.432-0.087-0.83-0.087H299.601z"/>
			<path id="Fill-167" fill="#1D1C1B" d="M306.917,55.443c0.074,0,0.139,0,0.191,0.002c0.059,0.002,0.102,0.002,0.137,0.002
				c0.762,0,1.334-0.165,1.721-0.493c0.387-0.33,0.578-0.748,0.578-1.26c0-0.496-0.152-0.9-0.465-1.214
				c-0.314-0.31-0.727-0.466-1.24-0.466c-0.227,0-0.533,0.035-0.922,0.111V55.443z M312.581,59.542h-2.129l-2.699-3.73
				c-0.199,0.009-0.363,0.013-0.49,0.013c-0.049,0-0.104-0.002-0.164-0.002c-0.057-0.004-0.119-0.005-0.182-0.011v2.318
				c0,0.502,0.057,0.813,0.164,0.936c0.148,0.172,0.371,0.258,0.672,0.258h0.311v0.219h-3.418v-0.219h0.301
				c0.336,0,0.578-0.109,0.721-0.329c0.088-0.122,0.127-0.409,0.127-0.864v-5.152c0-0.502-0.055-0.812-0.164-0.934
				c-0.154-0.172-0.381-0.259-0.684-0.259h-0.301v-0.218h2.908c0.846,0,1.469,0.061,1.873,0.184c0.4,0.125,0.74,0.353,1.021,0.684
				c0.279,0.33,0.418,0.726,0.418,1.186c0,0.489-0.156,0.915-0.477,1.276c-0.32,0.36-0.814,0.614-1.486,0.763l1.65,2.287
				c0.375,0.525,0.697,0.876,0.967,1.048c0.273,0.171,0.623,0.282,1.061,0.329V59.542z"/>
			<path id="Fill-168" fill="#1D1C1B" d="M316.193,59.323v0.219h-3.418v-0.219h0.281c0.328,0,0.568-0.097,0.719-0.288
				c0.094-0.125,0.141-0.428,0.141-0.905v-5.152c0-0.403-0.027-0.67-0.076-0.799c-0.039-0.099-0.123-0.183-0.244-0.254
				c-0.172-0.093-0.35-0.14-0.539-0.14h-0.281v-0.218h3.418v0.218h-0.289c-0.326,0-0.562,0.095-0.713,0.286
				c-0.098,0.125-0.146,0.43-0.146,0.906v5.152c0,0.402,0.025,0.672,0.076,0.799c0.039,0.098,0.121,0.184,0.246,0.254
				c0.172,0.094,0.346,0.141,0.537,0.141H316.193z"/>
			<path id="Fill-169" fill="#1D1C1B" d="M319.003,52.002v3.151h1.752c0.453,0,0.758-0.067,0.912-0.205
				c0.201-0.18,0.316-0.499,0.34-0.953h0.217v2.775h-0.217c-0.055-0.387-0.111-0.637-0.166-0.746
				c-0.07-0.137-0.186-0.246-0.348-0.323c-0.16-0.079-0.406-0.118-0.738-0.118h-1.752v2.628c0,0.353,0.014,0.567,0.047,0.646
				c0.031,0.076,0.084,0.138,0.164,0.183c0.078,0.044,0.225,0.065,0.445,0.065h1.354c0.449,0,0.779-0.03,0.982-0.092
				c0.203-0.063,0.4-0.187,0.586-0.373c0.242-0.242,0.492-0.607,0.746-1.098h0.236l-0.686,1.999h-6.146v-0.218h0.283
				c0.186,0,0.365-0.045,0.533-0.137c0.129-0.061,0.211-0.155,0.256-0.283c0.047-0.125,0.068-0.381,0.068-0.768v-5.181
				c0-0.507-0.051-0.819-0.152-0.935c-0.141-0.158-0.377-0.235-0.705-0.235h-0.283v-0.218h6.146l0.086,1.746h-0.229
				c-0.084-0.42-0.172-0.707-0.271-0.865c-0.102-0.155-0.25-0.276-0.447-0.359c-0.154-0.057-0.432-0.087-0.83-0.087H319.003z"/>
			<path id="Fill-170" fill="#1D1C1B" d="M329.587,51.785v-0.218h2.822v0.218h-0.299c-0.314,0-0.555,0.131-0.725,0.394
				c-0.084,0.121-0.123,0.404-0.123,0.848v3.232c0,0.801-0.078,1.422-0.24,1.862c-0.156,0.44-0.467,0.819-0.932,1.134
				c-0.465,0.316-1.1,0.476-1.9,0.476c-0.869,0-1.529-0.152-1.979-0.454c-0.451-0.303-0.771-0.708-0.959-1.219
				c-0.125-0.348-0.189-1.002-0.189-1.963v-3.117c0-0.489-0.068-0.812-0.201-0.963c-0.135-0.154-0.354-0.229-0.658-0.229h-0.301
				v-0.218h3.449v0.218h-0.305c-0.332,0-0.566,0.104-0.709,0.312c-0.098,0.14-0.146,0.435-0.146,0.881v3.476
				c0,0.31,0.029,0.665,0.086,1.063c0.059,0.401,0.162,0.711,0.309,0.938c0.148,0.223,0.363,0.407,0.643,0.551
				c0.283,0.146,0.627,0.217,1.033,0.217c0.521,0,0.988-0.111,1.398-0.338c0.414-0.229,0.693-0.52,0.844-0.875
				c0.152-0.355,0.229-0.955,0.229-1.802v-3.229c0-0.498-0.057-0.81-0.164-0.935c-0.154-0.172-0.383-0.258-0.682-0.258H329.587z"/>
			<path id="Fill-171" fill="#1D1C1B" d="M335.015,55.443c0.074,0,0.139,0,0.191,0.002c0.059,0.002,0.102,0.002,0.137,0.002
				c0.762,0,1.334-0.165,1.721-0.493c0.387-0.33,0.578-0.748,0.578-1.26c0-0.496-0.152-0.9-0.465-1.214
				c-0.314-0.31-0.727-0.466-1.24-0.466c-0.227,0-0.533,0.035-0.922,0.111V55.443z M340.679,59.542h-2.129l-2.699-3.73
				c-0.199,0.009-0.365,0.013-0.49,0.013c-0.049,0-0.104-0.002-0.164-0.002c-0.057-0.004-0.119-0.005-0.182-0.011v2.318
				c0,0.502,0.057,0.813,0.164,0.936c0.148,0.172,0.371,0.258,0.672,0.258h0.311v0.219h-3.418v-0.219h0.301
				c0.336,0,0.578-0.109,0.723-0.329c0.086-0.122,0.125-0.409,0.125-0.864v-5.152c0-0.502-0.055-0.812-0.164-0.934
				c-0.154-0.172-0.379-0.259-0.684-0.259h-0.301v-0.218h2.908c0.846,0,1.469,0.061,1.873,0.184c0.398,0.125,0.74,0.353,1.021,0.684
				c0.279,0.33,0.418,0.726,0.418,1.186c0,0.489-0.156,0.915-0.479,1.276c-0.318,0.36-0.812,0.614-1.484,0.763l1.65,2.287
				c0.375,0.525,0.697,0.876,0.967,1.048c0.273,0.171,0.623,0.282,1.061,0.329V59.542z"/>
			<path id="Fill-172" fill="#1D1C1B" d="M186.572,67.447v3.151h1.752c0.455,0,0.76-0.067,0.912-0.205
				c0.203-0.18,0.316-0.498,0.342-0.952h0.219v2.774h-0.219c-0.057-0.386-0.111-0.637-0.164-0.746
				c-0.072-0.137-0.188-0.244-0.348-0.323c-0.162-0.078-0.408-0.118-0.742-0.118h-1.752v2.629c0,0.354,0.016,0.568,0.047,0.645
				c0.029,0.078,0.088,0.138,0.166,0.183c0.076,0.045,0.225,0.067,0.447,0.067h1.352c0.451,0,0.777-0.031,0.98-0.094
				s0.402-0.187,0.588-0.371c0.244-0.242,0.492-0.609,0.748-1.099h0.236l-0.691,1.999H184.3v-0.219h0.283
				c0.188,0,0.367-0.045,0.535-0.135c0.125-0.062,0.211-0.156,0.258-0.283c0.043-0.125,0.066-0.381,0.066-0.769V68.4
				c0-0.506-0.051-0.818-0.152-0.935c-0.143-0.158-0.377-0.234-0.707-0.234H184.3v-0.219h6.145l0.092,1.746h-0.23
				c-0.082-0.418-0.174-0.707-0.275-0.864c-0.1-0.155-0.246-0.277-0.443-0.359c-0.158-0.057-0.434-0.088-0.828-0.088H186.572z"/>
			<path id="Fill-173" fill="#1D1C1B" d="M198.38,67.014l0.088,1.869h-0.225c-0.043-0.328-0.102-0.563-0.174-0.706
				c-0.123-0.227-0.285-0.395-0.486-0.502c-0.203-0.107-0.469-0.163-0.799-0.163h-1.123v6.093c0,0.49,0.055,0.797,0.16,0.918
				c0.148,0.164,0.377,0.246,0.689,0.246h0.273v0.219h-3.381v-0.219h0.283c0.338,0,0.578-0.1,0.717-0.306
				c0.086-0.125,0.129-0.411,0.129-0.858v-6.093h-0.959c-0.371,0-0.635,0.026-0.793,0.084c-0.205,0.073-0.377,0.217-0.521,0.431
				c-0.148,0.211-0.232,0.496-0.26,0.856h-0.223l0.092-1.869H198.38z"/>
			<path id="Fill-174" fill="#1D1C1B" d="M204.044,74.411c0.496,0.109,0.914,0.165,1.25,0.165c0.91,0,1.666-0.319,2.266-0.959
				s0.9-1.505,0.9-2.601c0-1.1-0.301-1.969-0.9-2.605c-0.6-0.633-1.369-0.951-2.311-0.951c-0.354,0-0.756,0.057-1.205,0.17V74.411z
				 M201.767,74.987v-0.219h0.299c0.338,0,0.576-0.107,0.719-0.321c0.086-0.131,0.129-0.421,0.129-0.873v-5.149
				c0-0.5-0.053-0.811-0.164-0.937c-0.152-0.171-0.381-0.257-0.684-0.257h-0.299v-0.217h3.246c1.191,0,2.098,0.135,2.721,0.402
				c0.621,0.272,1.121,0.723,1.498,1.354c0.379,0.631,0.57,1.361,0.57,2.188c0,1.11-0.338,2.036-1.014,2.78
				c-0.756,0.833-1.91,1.248-3.457,1.248H201.767z"/>
			<path id="Fill-175" fill="#1D1C1B" d="M212.775,67.447v3.151h1.752c0.457,0,0.762-0.067,0.912-0.205
				c0.205-0.18,0.318-0.498,0.344-0.952h0.217v2.774h-0.217c-0.057-0.386-0.111-0.637-0.166-0.746
				c-0.07-0.137-0.186-0.244-0.348-0.323c-0.16-0.078-0.406-0.118-0.742-0.118h-1.752v2.629c0,0.354,0.018,0.568,0.049,0.645
				c0.031,0.078,0.086,0.138,0.166,0.183c0.076,0.045,0.225,0.067,0.445,0.067h1.354c0.451,0,0.775-0.031,0.98-0.094
				c0.203-0.062,0.4-0.187,0.59-0.371c0.242-0.242,0.49-0.609,0.746-1.099h0.234l-0.688,1.999h-6.146v-0.219h0.283
				c0.188,0,0.367-0.045,0.535-0.135c0.127-0.062,0.213-0.156,0.256-0.283c0.045-0.125,0.068-0.381,0.068-0.769V68.4
				c0-0.506-0.053-0.818-0.152-0.935c-0.143-0.158-0.379-0.234-0.707-0.234h-0.283v-0.219h6.146l0.09,1.746h-0.23
				c-0.084-0.418-0.174-0.707-0.273-0.864c-0.102-0.155-0.246-0.277-0.443-0.359c-0.158-0.057-0.434-0.088-0.83-0.088H212.775z"/>
			<path id="Fill-176" fill="#1D1C1B" d="M227.531,72.78l0.195,0.043l-0.684,2.164h-6.176v-0.219h0.303
				c0.336,0,0.578-0.108,0.721-0.329c0.084-0.125,0.125-0.414,0.125-0.868v-5.146c0-0.5-0.055-0.811-0.164-0.937
				c-0.154-0.171-0.381-0.257-0.682-0.257h-0.303v-0.219h3.611v0.219c-0.424-0.006-0.719,0.033-0.889,0.115
				c-0.172,0.082-0.287,0.188-0.352,0.313c-0.062,0.125-0.094,0.427-0.094,0.897v5.014c0,0.325,0.031,0.547,0.094,0.668
				c0.047,0.083,0.119,0.145,0.219,0.184c0.096,0.039,0.404,0.058,0.918,0.058h0.58c0.611,0,1.041-0.044,1.289-0.134
				c0.246-0.09,0.473-0.25,0.676-0.479C227.124,73.636,227.326,73.276,227.531,72.78"/>
			<path id="Fill-177" fill="#1D1C1B" d="M233.328,71.882l-1.352-3.225l-1.387,3.225H233.328z M233.494,72.315h-3.086l-0.543,1.258
				c-0.133,0.312-0.197,0.543-0.197,0.695c0,0.121,0.057,0.229,0.172,0.321s0.363,0.151,0.75,0.179v0.219h-2.512v-0.219
				c0.334-0.057,0.549-0.136,0.646-0.229c0.201-0.189,0.42-0.57,0.664-1.146l2.807-6.562h0.205l2.777,6.633
				c0.221,0.532,0.426,0.88,0.607,1.037c0.184,0.16,0.438,0.25,0.762,0.268v0.219H233.4v-0.219c0.318-0.014,0.533-0.067,0.645-0.158
				c0.109-0.09,0.168-0.199,0.168-0.328c0-0.172-0.078-0.446-0.236-0.818L233.494,72.315z"/>
			<path id="Fill-178" fill="#1D1C1B" d="M241.503,70.89c0.074,0,0.139,0,0.195,0.001c0.055,0.002,0.102,0.002,0.135,0.002
				c0.76,0,1.334-0.164,1.721-0.493c0.387-0.328,0.578-0.746,0.578-1.259c0-0.497-0.154-0.901-0.467-1.214
				c-0.311-0.311-0.725-0.467-1.238-0.467c-0.229,0-0.535,0.035-0.924,0.111V70.89z M247.165,74.987h-2.127l-2.699-3.729
				c-0.199,0.009-0.363,0.012-0.488,0.012c-0.051,0-0.105-0.001-0.164-0.001c-0.061-0.004-0.121-0.006-0.184-0.011v2.317
				c0,0.504,0.057,0.814,0.166,0.937c0.148,0.171,0.371,0.257,0.67,0.257h0.311v0.219h-3.416v-0.219h0.301
				c0.338,0,0.576-0.107,0.725-0.329c0.08-0.12,0.121-0.409,0.121-0.864v-5.151c0-0.502-0.055-0.813-0.166-0.935
				c-0.15-0.172-0.379-0.258-0.68-0.258h-0.301v-0.218h2.906c0.846,0,1.471,0.062,1.873,0.185c0.4,0.123,0.742,0.352,1.021,0.682
				c0.281,0.331,0.422,0.727,0.422,1.186c0,0.49-0.16,0.916-0.48,1.276s-0.814,0.614-1.486,0.764l1.65,2.287
				c0.375,0.525,0.697,0.876,0.969,1.047c0.271,0.173,0.623,0.283,1.057,0.329V74.987z"/>
			<path id="Fill-179" fill="#1D1C1B" d="M249.578,67.447v3.151h1.752c0.457,0,0.762-0.067,0.912-0.205
				c0.203-0.18,0.316-0.498,0.342-0.952h0.219v2.774h-0.219c-0.057-0.386-0.109-0.637-0.164-0.746
				c-0.072-0.137-0.188-0.244-0.348-0.323c-0.16-0.078-0.408-0.118-0.742-0.118h-1.752v2.629c0,0.354,0.018,0.568,0.047,0.645
				c0.029,0.078,0.088,0.138,0.168,0.183c0.074,0.045,0.223,0.067,0.445,0.067h1.352c0.451,0,0.777-0.031,0.98-0.094
				c0.205-0.062,0.402-0.187,0.59-0.371c0.242-0.242,0.49-0.609,0.746-1.099h0.236l-0.689,1.999h-6.145v-0.219h0.283
				c0.186,0,0.365-0.045,0.533-0.135c0.125-0.062,0.211-0.156,0.258-0.283c0.043-0.125,0.068-0.381,0.068-0.769V68.4
				c0-0.506-0.053-0.818-0.154-0.935c-0.143-0.158-0.377-0.234-0.705-0.234h-0.283v-0.219h6.145l0.09,1.746h-0.23
				c-0.082-0.418-0.174-0.707-0.275-0.864c-0.1-0.155-0.244-0.277-0.441-0.359c-0.158-0.057-0.434-0.088-0.83-0.088H249.578z"/>
			<path id="Fill-180" fill="#1D1C1B" d="M261.669,66.831l0.184,2.71h-0.184c-0.242-0.812-0.59-1.396-1.041-1.752
				c-0.449-0.356-0.992-0.536-1.623-0.536c-0.529,0-1.008,0.137-1.436,0.404c-0.426,0.268-0.764,0.697-1.008,1.283
				c-0.246,0.59-0.367,1.32-0.367,2.195c0,0.721,0.115,1.344,0.346,1.877c0.232,0.528,0.58,0.934,1.045,1.215
				c0.465,0.285,0.994,0.422,1.59,0.422c0.516,0,0.975-0.109,1.371-0.331c0.395-0.22,0.83-0.661,1.307-1.319l0.18,0.118
				c-0.398,0.709-0.865,1.229-1.398,1.56c-0.533,0.328-1.168,0.492-1.9,0.492c-1.32,0-2.344-0.488-3.068-1.47
				c-0.543-0.728-0.811-1.587-0.811-2.576c0-0.795,0.176-1.526,0.533-2.192c0.355-0.668,0.848-1.185,1.471-1.551
				c0.627-0.365,1.309-0.549,2.051-0.549c0.578,0,1.148,0.141,1.707,0.422c0.164,0.088,0.281,0.131,0.352,0.131
				c0.107,0,0.199-0.037,0.277-0.113c0.102-0.105,0.174-0.252,0.217-0.439H261.669z"/>
			<path id="Fill-181" fill="#1D1C1B" d="M264.927,70.71h3.703v-2.281c0-0.406-0.023-0.676-0.074-0.804
				c-0.039-0.099-0.121-0.183-0.246-0.254c-0.168-0.095-0.348-0.14-0.537-0.14h-0.283v-0.217h3.412v0.217h-0.283
				c-0.188,0-0.365,0.043-0.535,0.134c-0.125,0.062-0.211,0.159-0.256,0.284c-0.043,0.129-0.066,0.389-0.066,0.779v5.146
				c0,0.405,0.025,0.673,0.076,0.801c0.039,0.097,0.119,0.183,0.242,0.254c0.17,0.095,0.352,0.14,0.539,0.14h0.283v0.219h-3.412
				v-0.219h0.283c0.324,0,0.562-0.097,0.713-0.287c0.096-0.125,0.145-0.428,0.145-0.907v-2.427h-3.703v2.427
				c0,0.405,0.023,0.673,0.076,0.801c0.039,0.097,0.121,0.183,0.246,0.254c0.17,0.095,0.35,0.14,0.535,0.14h0.289v0.219h-3.418
				v-0.219h0.283c0.33,0,0.568-0.097,0.719-0.287c0.092-0.125,0.141-0.428,0.141-0.907v-5.146c0-0.406-0.025-0.676-0.076-0.804
				c-0.039-0.099-0.119-0.183-0.242-0.254c-0.172-0.095-0.352-0.14-0.541-0.14h-0.283v-0.217h3.418v0.217h-0.289
				c-0.186,0-0.365,0.043-0.535,0.134c-0.121,0.062-0.205,0.159-0.252,0.284c-0.047,0.129-0.07,0.389-0.07,0.779V70.71z"/>
			<path id="Fill-182" fill="#1D1C1B" d="M273.665,67.447v3.151h1.752c0.453,0,0.758-0.067,0.912-0.205
				c0.203-0.18,0.318-0.498,0.34-0.952h0.219v2.774h-0.219c-0.055-0.386-0.111-0.637-0.164-0.746
				c-0.072-0.137-0.188-0.244-0.348-0.323c-0.162-0.078-0.408-0.118-0.74-0.118h-1.752v2.629c0,0.354,0.016,0.568,0.047,0.645
				c0.031,0.078,0.086,0.138,0.164,0.183s0.229,0.067,0.447,0.067h1.352c0.449,0,0.779-0.031,0.982-0.094
				c0.205-0.062,0.402-0.187,0.586-0.371c0.244-0.242,0.494-0.609,0.748-1.099h0.236l-0.688,1.999h-6.146v-0.219h0.283
				c0.189,0,0.367-0.045,0.537-0.135c0.125-0.062,0.209-0.156,0.254-0.283c0.047-0.125,0.066-0.381,0.066-0.769V68.4
				c0-0.506-0.049-0.818-0.15-0.935c-0.143-0.158-0.377-0.234-0.707-0.234h-0.283v-0.219h6.146l0.086,1.746h-0.229
				c-0.082-0.418-0.17-0.707-0.271-0.864c-0.1-0.155-0.25-0.277-0.445-0.359c-0.156-0.057-0.434-0.088-0.83-0.088H273.665z"/>
			<path id="Fill-183" fill="#1D1C1B" d="M280.982,70.89c0.074,0,0.139,0,0.191,0.001c0.059,0.002,0.102,0.002,0.137,0.002
				c0.762,0,1.334-0.164,1.721-0.493c0.387-0.328,0.578-0.746,0.578-1.259c0-0.497-0.152-0.901-0.465-1.214
				c-0.314-0.311-0.725-0.467-1.24-0.467c-0.225,0-0.531,0.035-0.922,0.111V70.89z M286.644,74.987h-2.127l-2.699-3.729
				c-0.199,0.009-0.363,0.012-0.488,0.012c-0.051,0-0.105-0.001-0.166-0.001c-0.057-0.004-0.119-0.006-0.182-0.011v2.317
				c0,0.504,0.057,0.814,0.164,0.937c0.15,0.171,0.371,0.257,0.672,0.257h0.311v0.219h-3.418v-0.219h0.301
				c0.336,0,0.578-0.107,0.723-0.329c0.086-0.12,0.125-0.409,0.125-0.864v-5.151c0-0.502-0.055-0.813-0.166-0.935
				c-0.152-0.172-0.379-0.258-0.682-0.258h-0.301v-0.218h2.908c0.846,0,1.469,0.062,1.873,0.185c0.4,0.123,0.74,0.352,1.021,0.682
				c0.281,0.331,0.418,0.727,0.418,1.186c0,0.49-0.156,0.916-0.477,1.276s-0.812,0.614-1.486,0.764l1.65,2.287
				c0.375,0.525,0.695,0.876,0.969,1.047c0.271,0.173,0.623,0.283,1.057,0.329V74.987z"/>
			<path id="Fill-184" fill="#1D1C1B" d="M293.788,66.831l0.184,2.71h-0.184c-0.242-0.812-0.59-1.396-1.041-1.752
				c-0.449-0.356-0.988-0.536-1.623-0.536c-0.527,0-1.008,0.137-1.434,0.404c-0.428,0.268-0.764,0.697-1.008,1.283
				c-0.246,0.59-0.369,1.32-0.369,2.195c0,0.721,0.115,1.344,0.348,1.877c0.232,0.528,0.58,0.934,1.045,1.215
				c0.465,0.285,0.992,0.422,1.592,0.422c0.518,0,0.971-0.109,1.367-0.331c0.398-0.22,0.83-0.661,1.307-1.319l0.182,0.118
				c-0.4,0.709-0.865,1.229-1.396,1.56c-0.533,0.328-1.17,0.492-1.904,0.492c-1.318,0-2.34-0.488-3.068-1.47
				c-0.539-0.728-0.811-1.587-0.811-2.576c0-0.795,0.178-1.526,0.537-2.192c0.354-0.668,0.846-1.185,1.473-1.551
				c0.621-0.365,1.309-0.549,2.049-0.549c0.574,0,1.145,0.141,1.705,0.422c0.164,0.088,0.283,0.131,0.352,0.131
				c0.105,0,0.199-0.037,0.277-0.113c0.102-0.105,0.172-0.252,0.219-0.439H293.788z"/>
			<path id="Fill-185" fill="#1D1C1B" d="M297.046,70.71h3.705v-2.281c0-0.406-0.025-0.676-0.074-0.804
				c-0.039-0.099-0.123-0.183-0.248-0.254c-0.168-0.095-0.348-0.14-0.535-0.14h-0.283v-0.217h3.412v0.217h-0.283
				c-0.186,0-0.365,0.043-0.533,0.134c-0.129,0.062-0.211,0.159-0.258,0.284c-0.047,0.129-0.068,0.389-0.068,0.779v5.146
				c0,0.405,0.025,0.673,0.076,0.801c0.039,0.097,0.121,0.183,0.242,0.254c0.172,0.095,0.355,0.14,0.541,0.14h0.283v0.219h-3.412
				v-0.219h0.283c0.324,0,0.564-0.097,0.711-0.287c0.1-0.125,0.146-0.428,0.146-0.907v-2.427h-3.705v2.427
				c0,0.405,0.025,0.673,0.078,0.801c0.037,0.097,0.123,0.183,0.248,0.254c0.168,0.095,0.348,0.14,0.531,0.14h0.291v0.219h-3.42
				v-0.219h0.285c0.328,0,0.566-0.097,0.717-0.287c0.094-0.125,0.139-0.428,0.139-0.907v-5.146c0-0.406-0.023-0.676-0.072-0.804
				c-0.041-0.099-0.119-0.183-0.24-0.254c-0.176-0.095-0.355-0.14-0.543-0.14h-0.285v-0.217h3.42v0.217h-0.291
				c-0.184,0-0.363,0.043-0.531,0.134c-0.123,0.062-0.209,0.159-0.254,0.284c-0.047,0.129-0.072,0.389-0.072,0.779V70.71z"/>
			<path id="Fill-186" fill="#1D1C1B" d="M305.785,67.447v3.151h1.754c0.453,0,0.758-0.067,0.912-0.205
				c0.203-0.18,0.316-0.498,0.342-0.952h0.215v2.774h-0.215c-0.057-0.386-0.111-0.637-0.164-0.746
				c-0.072-0.137-0.189-0.244-0.346-0.323c-0.162-0.078-0.412-0.118-0.744-0.118h-1.754v2.629c0,0.354,0.02,0.568,0.049,0.645
				c0.031,0.078,0.086,0.138,0.162,0.183c0.08,0.045,0.229,0.067,0.447,0.067h1.355c0.451,0,0.777-0.031,0.98-0.094
				s0.4-0.187,0.59-0.371c0.242-0.242,0.49-0.609,0.748-1.099h0.23l-0.686,1.999h-6.146v-0.219h0.283
				c0.188,0,0.367-0.045,0.537-0.135c0.125-0.062,0.211-0.156,0.252-0.283c0.047-0.125,0.068-0.381,0.068-0.769V68.4
				c0-0.506-0.051-0.818-0.15-0.935c-0.143-0.158-0.379-0.234-0.707-0.234h-0.283v-0.219h6.146l0.09,1.746h-0.23
				c-0.082-0.418-0.174-0.707-0.273-0.864c-0.102-0.155-0.246-0.277-0.443-0.359c-0.158-0.057-0.434-0.088-0.83-0.088H305.785z"/>
		</g>
	</g>
</g>
</svg>
