<svg id="Calque_1" data-name="Calque 1" xmlns="http://www.w3.org/2000/svg" viewBox="0 0 300 75"><defs><style>.cls-1{fill:#fff;}.cls-2{fill:#1b2e57;}</style></defs><title>pe-connect-297x50-w</title><path class="cls-1" d="M31.5,66.5a29,29,0,0,1,0-58h237a29,29,0,0,1,0,58Z"/><path class="cls-2" d="M268.5,9.5a28,28,0,0,1,0,56H31.5a28,28,0,0,1,0-56h237m0-2H31.5a30.09,30.09,0,0,0-30,30h0a30.09,30.09,0,0,0,30,30h237a30.09,30.09,0,0,0,30-30h0a30.09,30.09,0,0,0-30-30Z"/><path class="cls-2" d="M71.26,33.48a.6.6,0,0,1-.2.25.51.51,0,0,1-.28.07.7.7,0,0,1-.36-.12L70,33.4a3.88,3.88,0,0,0-.64-.28,2.66,2.66,0,0,0-.86-.12,2.52,2.52,0,0,0-.78.11,1.65,1.65,0,0,0-.56.3,1.2,1.2,0,0,0-.34.46,1.51,1.51,0,0,0-.11.59,1,1,0,0,0,.23.68,1.89,1.89,0,0,0,.6.46,5.54,5.54,0,0,0,.86.34l1,.32a9.39,9.39,0,0,1,1,.4,3.39,3.39,0,0,1,.86.58,2.62,2.62,0,0,1,.6.85A3,3,0,0,1,72,39.32a4,4,0,0,1-.27,1.47A3.39,3.39,0,0,1,70.95,42a3.68,3.68,0,0,1-1.26.8,4.65,4.65,0,0,1-1.7.29A5.48,5.48,0,0,1,66.9,43a5.62,5.62,0,0,1-1-.31,5.35,5.35,0,0,1-.92-.48,4.62,4.62,0,0,1-.76-.62l.62-1a.78.78,0,0,1,.21-.19.52.52,0,0,1,.28-.08.76.76,0,0,1,.43.16l.55.36a4.19,4.19,0,0,0,.74.36,2.87,2.87,0,0,0,1,.16,2.11,2.11,0,0,0,1.42-.44,1.57,1.57,0,0,0,.5-1.25,1.16,1.16,0,0,0-.23-.74,1.84,1.84,0,0,0-.6-.48,4.52,4.52,0,0,0-.86-.33l-1-.3a8.45,8.45,0,0,1-1-.38,3.16,3.16,0,0,1-.86-.58,2.65,2.65,0,0,1-.6-.9,3.43,3.43,0,0,1-.23-1.33,3.18,3.18,0,0,1,1-2.3,3.62,3.62,0,0,1,1.19-.74,4.33,4.33,0,0,1,1.61-.28,5.39,5.39,0,0,1,1.89.32,4.26,4.26,0,0,1,1.47.9Z"/><path class="cls-2" d="M76.93,34.61a4,4,0,0,1,1.43.25,3.13,3.13,0,0,1,1.12.72,3.31,3.31,0,0,1,.74,1.17,4.4,4.4,0,0,1,.26,1.58,2.89,2.89,0,0,1,0,.37.6.6,0,0,1-.07.23.29.29,0,0,1-.14.12.59.59,0,0,1-.22,0H75a2.83,2.83,0,0,0,.68,1.86,2.12,2.12,0,0,0,1.57.59,2.73,2.73,0,0,0,.83-.11,4,4,0,0,0,.61-.25l.46-.25a.77.77,0,0,1,.38-.11.43.43,0,0,1,.21,0,.47.47,0,0,1,.15.14l.58.72a3.29,3.29,0,0,1-.74.64,4.07,4.07,0,0,1-.85.42,4.57,4.57,0,0,1-.9.22,6.43,6.43,0,0,1-.89.06,4.38,4.38,0,0,1-1.59-.28,3.56,3.56,0,0,1-1.28-.84,3.94,3.94,0,0,1-.86-1.38,5.33,5.33,0,0,1-.31-1.9,4.55,4.55,0,0,1,.27-1.58A3.79,3.79,0,0,1,74,35.8a3.67,3.67,0,0,1,1.24-.87A4.08,4.08,0,0,1,76.93,34.61ZM77,36a1.83,1.83,0,0,0-1.35.49A2.41,2.41,0,0,0,75,37.9H78.7a2.46,2.46,0,0,0-.1-.72,1.67,1.67,0,0,0-.32-.6,1.52,1.52,0,0,0-.54-.4A1.85,1.85,0,0,0,77,36Z"/><path class="cls-2" d="M90.94,36.48a1,1,0,0,1-.17.18.4.4,0,0,1-.24.06.54.54,0,0,1-.3-.09l-.34-.21a2.59,2.59,0,0,0-.48-.21,2.2,2.2,0,0,0-.68-.09,2.09,2.09,0,0,0-.91.19,1.73,1.73,0,0,0-.65.54,2.44,2.44,0,0,0-.39.85,4.59,4.59,0,0,0-.13,1.13A4.44,4.44,0,0,0,86.79,40a2.51,2.51,0,0,0,.4.86,1.74,1.74,0,0,0,.64.53,1.94,1.94,0,0,0,.85.18,2.11,2.11,0,0,0,.76-.12,2.43,2.43,0,0,0,.49-.26l.35-.26a.53.53,0,0,1,.33-.12A.4.4,0,0,1,91,41l.57.72a3.57,3.57,0,0,1-.71.64,3.8,3.8,0,0,1-.8.42,4,4,0,0,1-.85.22,6,6,0,0,1-.87.06,3.64,3.64,0,0,1-1.43-.28A3.34,3.34,0,0,1,85.71,42a4,4,0,0,1-.79-1.33,5.14,5.14,0,0,1-.29-1.8,5.22,5.22,0,0,1,.26-1.68,3.79,3.79,0,0,1,.76-1.34,3.5,3.5,0,0,1,1.25-.88,4.3,4.3,0,0,1,1.71-.32,4.08,4.08,0,0,1,1.61.3,3.94,3.94,0,0,1,1.24.85Z"/><path class="cls-2" d="M96.31,34.61a4.5,4.5,0,0,1,1.67.3,3.6,3.6,0,0,1,1.28.84,3.72,3.72,0,0,1,.82,1.33,5.49,5.49,0,0,1,0,3.51,3.78,3.78,0,0,1-.82,1.34,3.54,3.54,0,0,1-1.28.85,4.86,4.86,0,0,1-3.34,0,3.57,3.57,0,0,1-1.28-.85,3.8,3.8,0,0,1-.82-1.34,5.43,5.43,0,0,1,0-3.51,3.74,3.74,0,0,1,.82-1.33,3.63,3.63,0,0,1,1.28-.84A4.53,4.53,0,0,1,96.31,34.61Zm0,6.94a1.74,1.74,0,0,0,1.52-.69,3.45,3.45,0,0,0,.49-2,3.49,3.49,0,0,0-.49-2,1.73,1.73,0,0,0-1.52-.7,1.75,1.75,0,0,0-1.54.7,3.47,3.47,0,0,0-.5,2,3.44,3.44,0,0,0,.5,2A1.76,1.76,0,0,0,96.31,41.55Z"/><path class="cls-2" d="M101.9,42.95V34.74h1.21a.49.49,0,0,1,.5.36l.14.65a4.54,4.54,0,0,1,.52-.46,3.61,3.61,0,0,1,.58-.36,3,3,0,0,1,.66-.23,3.47,3.47,0,0,1,.77-.08,2.94,2.94,0,0,1,1.19.23,2.35,2.35,0,0,1,.87.64,2.81,2.81,0,0,1,.53,1,4.18,4.18,0,0,1,.18,1.26v5.22h-2V37.72a1.75,1.75,0,0,0-.35-1.16,1.29,1.29,0,0,0-1-.41,2.06,2.06,0,0,0-1,.23,3.44,3.44,0,0,0-.85.63v5.94Z"/><path class="cls-2" d="M111,42.95V34.74h1.21a.49.49,0,0,1,.5.36l.14.65a4.54,4.54,0,0,1,.52-.46,3.61,3.61,0,0,1,.58-.36,3,3,0,0,1,.66-.23,3.47,3.47,0,0,1,.77-.08,2.94,2.94,0,0,1,1.19.23,2.35,2.35,0,0,1,.87.64,2.81,2.81,0,0,1,.53,1,4.18,4.18,0,0,1,.18,1.26v5.22h-2V37.72a1.75,1.75,0,0,0-.35-1.16,1.29,1.29,0,0,0-1-.41,2.06,2.06,0,0,0-1,.23A3.44,3.44,0,0,0,113,37v5.94Z"/><path class="cls-2" d="M123.49,34.61a4,4,0,0,1,1.43.25,3.13,3.13,0,0,1,1.12.72,3.31,3.31,0,0,1,.74,1.17,4.4,4.4,0,0,1,.26,1.58,2.89,2.89,0,0,1,0,.37.6.6,0,0,1-.07.23.29.29,0,0,1-.14.12.59.59,0,0,1-.22,0h-5.07a2.83,2.83,0,0,0,.68,1.86,2.12,2.12,0,0,0,1.57.59,2.73,2.73,0,0,0,.83-.11,4,4,0,0,0,.61-.25l.46-.25a.77.77,0,0,1,.38-.11.43.43,0,0,1,.21,0,.47.47,0,0,1,.15.14l.58.72a3.29,3.29,0,0,1-.74.64,4.07,4.07,0,0,1-.85.42,4.57,4.57,0,0,1-.9.22,6.43,6.43,0,0,1-.89.06,4.38,4.38,0,0,1-1.59-.28,3.56,3.56,0,0,1-1.28-.84,3.94,3.94,0,0,1-.86-1.38,5.33,5.33,0,0,1-.31-1.9,4.55,4.55,0,0,1,.27-1.58,3.79,3.79,0,0,1,.78-1.29,3.67,3.67,0,0,1,1.24-.87A4.08,4.08,0,0,1,123.49,34.61Zm0,1.42a1.83,1.83,0,0,0-1.35.49,2.41,2.41,0,0,0-.62,1.38h3.71a2.46,2.46,0,0,0-.1-.72,1.67,1.67,0,0,0-.32-.6,1.52,1.52,0,0,0-.54-.4A1.85,1.85,0,0,0,123.53,36Z"/><path class="cls-2" d="M134.41,36.48a1,1,0,0,1-.17.18.4.4,0,0,1-.24.06.54.54,0,0,1-.3-.09l-.34-.21a2.59,2.59,0,0,0-.48-.21,2.2,2.2,0,0,0-.68-.09,2.09,2.09,0,0,0-.91.19,1.73,1.73,0,0,0-.65.54,2.44,2.44,0,0,0-.39.85,4.59,4.59,0,0,0-.13,1.13,4.44,4.44,0,0,0,.14,1.17,2.51,2.51,0,0,0,.4.86,1.74,1.74,0,0,0,.64.53,1.94,1.94,0,0,0,.85.18,2.11,2.11,0,0,0,.76-.12,2.43,2.43,0,0,0,.49-.26l.35-.26a.53.53,0,0,1,.33-.12.4.4,0,0,1,.36.18l.57.72a3.57,3.57,0,0,1-.71.64,3.8,3.8,0,0,1-.8.42,4,4,0,0,1-.85.22,6,6,0,0,1-.87.06,3.64,3.64,0,0,1-1.43-.28,3.34,3.34,0,0,1-1.17-.83,4,4,0,0,1-.79-1.33,5.14,5.14,0,0,1-.29-1.8,5.22,5.22,0,0,1,.26-1.68,3.79,3.79,0,0,1,.76-1.34,3.5,3.5,0,0,1,1.25-.88,4.3,4.3,0,0,1,1.71-.32,4.08,4.08,0,0,1,1.61.3,3.94,3.94,0,0,1,1.24.85Z"/><path class="cls-2" d="M139,43.08a2.16,2.16,0,0,1-1.64-.6,2.32,2.32,0,0,1-.58-1.67V36.22h-.83a.38.38,0,0,1-.39-.42V35l1.32-.22.42-2.24a.4.4,0,0,1,.15-.25.47.47,0,0,1,.29-.09h1v2.58h2.16v1.41h-2.16v4.45a.87.87,0,0,0,.19.6.65.65,0,0,0,.51.22.93.93,0,0,0,.31,0l.22-.09.16-.09a.28.28,0,0,1,.14,0,.23.23,0,0,1,.14,0,.68.68,0,0,1,.12.13l.59,1a3,3,0,0,1-1,.54A3.71,3.71,0,0,1,139,43.08Z"/><path class="cls-2" d="M145.86,34.61a4,4,0,0,1,1.43.25,3.13,3.13,0,0,1,1.12.72,3.31,3.31,0,0,1,.74,1.17,4.4,4.4,0,0,1,.26,1.58,2.89,2.89,0,0,1,0,.37.6.6,0,0,1-.07.23.29.29,0,0,1-.14.12.59.59,0,0,1-.22,0h-5.07a2.83,2.83,0,0,0,.68,1.86,2.12,2.12,0,0,0,1.57.59,2.73,2.73,0,0,0,.83-.11,4,4,0,0,0,.61-.25l.46-.25a.77.77,0,0,1,.38-.11.43.43,0,0,1,.21,0,.47.47,0,0,1,.15.14l.58.72a3.29,3.29,0,0,1-.74.64,4.07,4.07,0,0,1-.85.42,4.57,4.57,0,0,1-.9.22,6.43,6.43,0,0,1-.89.06,4.38,4.38,0,0,1-1.59-.28,3.56,3.56,0,0,1-1.28-.84,3.94,3.94,0,0,1-.86-1.38,5.33,5.33,0,0,1-.31-1.9,4.55,4.55,0,0,1,.27-1.58A3.79,3.79,0,0,1,143,35.8a3.67,3.67,0,0,1,1.24-.87A4.08,4.08,0,0,1,145.86,34.61Zm0,1.42a1.83,1.83,0,0,0-1.35.49,2.41,2.41,0,0,0-.62,1.38h3.71a2.46,2.46,0,0,0-.1-.72,1.67,1.67,0,0,0-.32-.6,1.52,1.52,0,0,0-.54-.4A1.85,1.85,0,0,0,145.9,36Z"/><path class="cls-2" d="M151,42.95V34.74h1.16a.62.62,0,0,1,.42.11.65.65,0,0,1,.16.38l.12,1a3.9,3.9,0,0,1,1-1.2,2.17,2.17,0,0,1,1.33-.44,1.72,1.72,0,0,1,1,.28L156,36.35a.31.31,0,0,1-.1.2.35.35,0,0,1-.22.06,1.34,1.34,0,0,1-.33-.06,2.21,2.21,0,0,0-.55-.06,1.68,1.68,0,0,0-1.06.34,2.6,2.6,0,0,0-.74,1v5.11Z"/><path class="cls-2" d="M167.08,42.95h-.89a1,1,0,0,1-.44-.08.54.54,0,0,1-.24-.34l-.18-.58a6.83,6.83,0,0,1-.61.49,3.72,3.72,0,0,1-.62.36,3.2,3.2,0,0,1-.68.22,4.1,4.1,0,0,1-.8.07,3.14,3.14,0,0,1-1-.14,2.07,2.07,0,0,1-.76-.42,1.92,1.92,0,0,1-.49-.7,2.47,2.47,0,0,1-.18-1,1.92,1.92,0,0,1,.24-.92,2.31,2.31,0,0,1,.81-.82,5.21,5.21,0,0,1,1.51-.61,9.67,9.67,0,0,1,2.34-.24v-.48a1.83,1.83,0,0,0-.35-1.23,1.27,1.27,0,0,0-1-.4,2.45,2.45,0,0,0-.8.11,3.07,3.07,0,0,0-.55.25l-.44.25a.89.89,0,0,1-.44.11.57.57,0,0,1-.34-.1.82.82,0,0,1-.23-.26l-.36-.63a4.88,4.88,0,0,1,3.42-1.3,3.29,3.29,0,0,1,1.28.24,2.72,2.72,0,0,1,1,.66,2.83,2.83,0,0,1,.6,1,3.86,3.86,0,0,1,.2,1.28Zm-3.84-1.23a2.64,2.64,0,0,0,.56-.05,2.2,2.2,0,0,0,.48-.17,2.54,2.54,0,0,0,.44-.27,3.84,3.84,0,0,0,.43-.38V39.47a7.94,7.94,0,0,0-1.44.11,3.82,3.82,0,0,0-.93.28,1.19,1.19,0,0,0-.5.4,1,1,0,0,0,.16,1.24A1.32,1.32,0,0,0,163.24,41.72Z"/><path class="cls-2" d="M172.84,42.95h-1.79l-3.26-8.21h1.64a.62.62,0,0,1,.36.1.53.53,0,0,1,.2.26l1.58,4.38a7.69,7.69,0,0,1,.23.75q.09.37.16.74c0-.25.1-.49.16-.74a7.05,7.05,0,0,1,.24-.75L174,35.11a.54.54,0,0,1,.2-.26.57.57,0,0,1,.34-.1h1.56Z"/><path class="cls-2" d="M180.4,34.61a4,4,0,0,1,1.43.25,3.12,3.12,0,0,1,1.12.72,3.32,3.32,0,0,1,.74,1.17,4.41,4.41,0,0,1,.26,1.58,3,3,0,0,1,0,.37.6.6,0,0,1-.07.23.29.29,0,0,1-.14.12.59.59,0,0,1-.22,0h-5.07a2.82,2.82,0,0,0,.68,1.86,2.12,2.12,0,0,0,1.57.59,2.73,2.73,0,0,0,.83-.11,4,4,0,0,0,.61-.25l.46-.25a.76.76,0,0,1,.38-.11.43.43,0,0,1,.21,0,.45.45,0,0,1,.15.14l.58.72a3.29,3.29,0,0,1-.74.64,4.1,4.1,0,0,1-.85.42,4.57,4.57,0,0,1-.9.22,6.42,6.42,0,0,1-.89.06,4.38,4.38,0,0,1-1.59-.28,3.55,3.55,0,0,1-1.28-.84,4,4,0,0,1-.86-1.38,5.33,5.33,0,0,1-.31-1.9,4.54,4.54,0,0,1,.27-1.58,3.78,3.78,0,0,1,.78-1.29,3.67,3.67,0,0,1,1.24-.87A4.09,4.09,0,0,1,180.4,34.61Zm0,1.42a1.83,1.83,0,0,0-1.35.49,2.41,2.41,0,0,0-.62,1.38h3.71a2.46,2.46,0,0,0-.1-.72,1.67,1.67,0,0,0-.32-.6,1.51,1.51,0,0,0-.54-.4A1.85,1.85,0,0,0,180.44,36Z"/><path class="cls-2" d="M191.33,36.48a1,1,0,0,1-.17.18.4.4,0,0,1-.24.06.54.54,0,0,1-.3-.09l-.34-.21a2.59,2.59,0,0,0-.48-.21,2.19,2.19,0,0,0-.68-.09,2.09,2.09,0,0,0-.91.19,1.72,1.72,0,0,0-.65.54,2.44,2.44,0,0,0-.39.85,4.55,4.55,0,0,0-.13,1.13,4.42,4.42,0,0,0,.14,1.17,2.52,2.52,0,0,0,.4.86,1.73,1.73,0,0,0,.64.53,1.94,1.94,0,0,0,.85.18,2.11,2.11,0,0,0,.76-.12,2.45,2.45,0,0,0,.49-.26l.35-.26a.53.53,0,0,1,.33-.12.4.4,0,0,1,.36.18l.57.72a3.57,3.57,0,0,1-.71.64,3.8,3.8,0,0,1-.8.42,4,4,0,0,1-.85.22,6,6,0,0,1-.87.06,3.64,3.64,0,0,1-1.43-.28,3.33,3.33,0,0,1-1.17-.83,4,4,0,0,1-.79-1.33,5.15,5.15,0,0,1-.29-1.8,5.23,5.23,0,0,1,.26-1.68,3.81,3.81,0,0,1,.76-1.34,3.5,3.5,0,0,1,1.25-.88,4.3,4.3,0,0,1,1.71-.32,4.07,4.07,0,0,1,1.61.3,3.93,3.93,0,0,1,1.24.85Z"/><path class="cls-2" d="M196.28,45.63V34.74h1.21a.59.59,0,0,1,.33.09.41.41,0,0,1,.18.27l.16.76a4.14,4.14,0,0,1,1.14-.92,3.09,3.09,0,0,1,1.51-.35,2.69,2.69,0,0,1,1.23.28,2.76,2.76,0,0,1,1,.81,3.89,3.89,0,0,1,.62,1.31,6.61,6.61,0,0,1,.22,1.79,5.64,5.64,0,0,1-.25,1.7,4.2,4.2,0,0,1-.71,1.36,3.2,3.2,0,0,1-2.57,1.22,3,3,0,0,1-1.18-.21,2.9,2.9,0,0,1-.87-.59v3.36Zm3.84-9.48a2,2,0,0,0-1.05.26,3,3,0,0,0-.81.73v3.68a1.88,1.88,0,0,0,.73.58,2.21,2.21,0,0,0,.85.16,1.92,1.92,0,0,0,.81-.17,1.58,1.58,0,0,0,.62-.51,2.55,2.55,0,0,0,.39-.87,4.94,4.94,0,0,0,.14-1.24,5.5,5.5,0,0,0-.12-1.22,2.36,2.36,0,0,0-.33-.81,1.31,1.31,0,0,0-.52-.46A1.63,1.63,0,0,0,200.12,36.15Z"/><path class="cls-2" d="M208.83,34.61a4.5,4.5,0,0,1,1.67.3,3.59,3.59,0,0,1,1.28.84,3.72,3.72,0,0,1,.82,1.33,5.49,5.49,0,0,1,0,3.51,3.78,3.78,0,0,1-.82,1.34,3.54,3.54,0,0,1-1.28.85,4.86,4.86,0,0,1-3.34,0,3.59,3.59,0,0,1-1.28-.85,3.8,3.8,0,0,1-.82-1.34,5.43,5.43,0,0,1,0-3.51,3.73,3.73,0,0,1,.82-1.33,3.64,3.64,0,0,1,1.28-.84A4.53,4.53,0,0,1,208.83,34.61Zm2.77-1h-1.32a.56.56,0,0,1-.4-.14L209,32.7l-.08-.08-.08-.1-.08.1-.08.08-.86.76a.63.63,0,0,1-.17.1.59.59,0,0,1-.23,0h-1.37l1.83-2.22h1.86Zm-2.77,7.94a1.74,1.74,0,0,0,1.52-.69,3.45,3.45,0,0,0,.49-2,3.49,3.49,0,0,0-.49-2,1.73,1.73,0,0,0-1.52-.7,1.75,1.75,0,0,0-1.54.7,3.47,3.47,0,0,0-.5,2,3.43,3.43,0,0,0,.5,2A1.76,1.76,0,0,0,208.83,41.55Z"/><path class="cls-2" d="M216.52,31.06V42.95h-2V31.06Z"/><path class="cls-2" d="M222.15,34.61a4,4,0,0,1,1.43.25,3.12,3.12,0,0,1,1.12.72,3.32,3.32,0,0,1,.74,1.17,4.41,4.41,0,0,1,.26,1.58,3,3,0,0,1,0,.37.6.6,0,0,1-.07.23.29.29,0,0,1-.14.12.59.59,0,0,1-.22,0h-5.07a2.82,2.82,0,0,0,.68,1.86,2.12,2.12,0,0,0,1.57.59,2.73,2.73,0,0,0,.83-.11,4,4,0,0,0,.61-.25l.46-.25a.76.76,0,0,1,.38-.11.43.43,0,0,1,.21,0,.45.45,0,0,1,.15.14l.58.72a3.29,3.29,0,0,1-.74.64,4.1,4.1,0,0,1-.85.42,4.57,4.57,0,0,1-.9.22,6.42,6.42,0,0,1-.89.06,4.38,4.38,0,0,1-1.59-.28,3.55,3.55,0,0,1-1.28-.84,4,4,0,0,1-.86-1.38,5.33,5.33,0,0,1-.31-1.9,4.54,4.54,0,0,1,.27-1.58,3.78,3.78,0,0,1,.78-1.29,3.67,3.67,0,0,1,1.24-.87A4.09,4.09,0,0,1,222.15,34.61Zm0,1.42a1.83,1.83,0,0,0-1.35.49,2.41,2.41,0,0,0-.62,1.38h3.71a2.46,2.46,0,0,0-.1-.72,1.67,1.67,0,0,0-.32-.6,1.51,1.51,0,0,0-.54-.4A1.85,1.85,0,0,0,222.19,36Z"/><path class="cls-2" d="M233.79,34.61a4,4,0,0,1,1.43.25,3.12,3.12,0,0,1,1.12.72,3.32,3.32,0,0,1,.74,1.17,4.41,4.41,0,0,1,.26,1.58,3,3,0,0,1,0,.37.6.6,0,0,1-.07.23.29.29,0,0,1-.14.12.59.59,0,0,1-.22,0h-5.07a2.82,2.82,0,0,0,.68,1.86,2.12,2.12,0,0,0,1.57.59,2.73,2.73,0,0,0,.83-.11,4,4,0,0,0,.61-.25l.46-.25a.76.76,0,0,1,.38-.11.43.43,0,0,1,.21,0,.45.45,0,0,1,.15.14l.58.72a3.29,3.29,0,0,1-.74.64,4.1,4.1,0,0,1-.85.42,4.57,4.57,0,0,1-.9.22,6.42,6.42,0,0,1-.89.06,4.38,4.38,0,0,1-1.59-.28,3.55,3.55,0,0,1-1.28-.84,4,4,0,0,1-.86-1.38,5.33,5.33,0,0,1-.31-1.9,4.54,4.54,0,0,1,.27-1.58,3.78,3.78,0,0,1,.78-1.29,3.67,3.67,0,0,1,1.24-.87A4.09,4.09,0,0,1,233.79,34.61Zm0,1.42a1.83,1.83,0,0,0-1.35.49,2.41,2.41,0,0,0-.62,1.38h3.71a2.46,2.46,0,0,0-.1-.72,1.67,1.67,0,0,0-.32-.6,1.51,1.51,0,0,0-.54-.4A1.85,1.85,0,0,0,233.83,36Z"/><path class="cls-2" d="M238.95,42.95V34.74h1.21a.48.48,0,0,1,.5.36l.13.61a4.72,4.72,0,0,1,.45-.44,2.88,2.88,0,0,1,.5-.34,2.74,2.74,0,0,1,.58-.23,2.56,2.56,0,0,1,.68-.08,1.92,1.92,0,0,1,1.28.42,2.53,2.53,0,0,1,.75,1.12,2.5,2.5,0,0,1,.48-.7,2.61,2.61,0,0,1,.63-.48,2.91,2.91,0,0,1,.73-.27,3.52,3.52,0,0,1,.78-.09,3.28,3.28,0,0,1,1.21.21,2.31,2.31,0,0,1,.89.61,2.68,2.68,0,0,1,.55,1,4.26,4.26,0,0,1,.19,1.32v5.22h-2V37.72a1.75,1.75,0,0,0-.34-1.18,1.26,1.26,0,0,0-1-.4,1.5,1.5,0,0,0-.56.1,1.33,1.33,0,0,0-.46.3,1.38,1.38,0,0,0-.31.49,1.92,1.92,0,0,0-.11.68v5.22h-2V37.72a1.78,1.78,0,0,0-.33-1.2,1.24,1.24,0,0,0-1-.38,1.58,1.58,0,0,0-.8.21,2.66,2.66,0,0,0-.69.58v6Z"/><path class="cls-2" d="M252.42,45.63V34.74h1.21a.59.59,0,0,1,.33.09.41.41,0,0,1,.18.27l.16.76a4.14,4.14,0,0,1,1.14-.92,3.09,3.09,0,0,1,1.51-.35,2.69,2.69,0,0,1,1.23.28,2.76,2.76,0,0,1,1,.81,3.89,3.89,0,0,1,.62,1.31,6.61,6.61,0,0,1,.22,1.79,5.64,5.64,0,0,1-.25,1.7,4.2,4.2,0,0,1-.71,1.36,3.2,3.2,0,0,1-2.57,1.22,3,3,0,0,1-1.18-.21,2.9,2.9,0,0,1-.87-.59v3.36Zm3.84-9.48a2,2,0,0,0-1.05.26,3,3,0,0,0-.81.73v3.68a1.88,1.88,0,0,0,.73.58,2.21,2.21,0,0,0,.85.16,1.92,1.92,0,0,0,.81-.17,1.58,1.58,0,0,0,.62-.51,2.55,2.55,0,0,0,.39-.87,4.94,4.94,0,0,0,.14-1.24,5.5,5.5,0,0,0-.12-1.22,2.36,2.36,0,0,0-.33-.81,1.31,1.31,0,0,0-.52-.46A1.63,1.63,0,0,0,256.26,36.15Z"/><path class="cls-2" d="M263.57,31.06V42.95h-2V31.06Z"/><path class="cls-2" d="M269.31,34.61a4.5,4.5,0,0,1,1.67.3,3.59,3.59,0,0,1,1.28.84,3.72,3.72,0,0,1,.82,1.33,5.49,5.49,0,0,1,0,3.51,3.78,3.78,0,0,1-.82,1.34,3.54,3.54,0,0,1-1.28.85,4.86,4.86,0,0,1-3.34,0,3.59,3.59,0,0,1-1.28-.85,3.8,3.8,0,0,1-.82-1.34,5.43,5.43,0,0,1,0-3.51,3.73,3.73,0,0,1,.82-1.33,3.64,3.64,0,0,1,1.28-.84A4.53,4.53,0,0,1,269.31,34.61Zm0,6.94a1.74,1.74,0,0,0,1.52-.69,3.45,3.45,0,0,0,.49-2,3.49,3.49,0,0,0-.49-2,1.73,1.73,0,0,0-1.52-.7,1.75,1.75,0,0,0-1.54.7,3.47,3.47,0,0,0-.5,2,3.43,3.43,0,0,0,.5,2A1.76,1.76,0,0,0,269.31,41.55Z"/><path class="cls-2" d="M277.3,32.35a1.12,1.12,0,0,1-.1.48,1.32,1.32,0,0,1-.28.39,1.34,1.34,0,0,1-.4.27,1.24,1.24,0,0,1-.5.1,1.18,1.18,0,0,1-.48-.1,1.27,1.27,0,0,1-.66-.66,1.15,1.15,0,0,1-.1-.48,1.23,1.23,0,0,1,.1-.5,1.27,1.27,0,0,1,.27-.4,1.29,1.29,0,0,1,.4-.27,1.19,1.19,0,0,1,.48-.1,1.24,1.24,0,0,1,.5.1,1.34,1.34,0,0,1,.4.27,1.3,1.3,0,0,1,.28.4A1.2,1.2,0,0,1,277.3,32.35Zm-.3,2.39v8.21h-2V34.74Z"/><path class="cls-2" d="M38.06,44.91a10.48,10.48,0,0,1-2.73-7.64A12.81,12.81,0,0,1,36,33a9.24,9.24,0,0,1,2-3.32,8.49,8.49,0,0,1,3.17-2.11,11.49,11.49,0,0,1,4.21-.74,10.74,10.74,0,0,1,3.95.68,15.75,15.75,0,1,0-.2,19.74,12.34,12.34,0,0,1-3.36.43C42.41,47.71,39.87,46.77,38.06,44.91Z"/><path class="cls-2" d="M40.73,35.92h8.92a.58.58,0,0,0,.6-.54,6.56,6.56,0,0,0-1.52-4,4.67,4.67,0,0,0-3.55-1.44,4.52,4.52,0,0,0-3.46,1.46,6.89,6.89,0,0,0-1.58,4C40.08,35.65,40.41,35.91,40.73,35.92Z"/><path class="cls-2" d="M50.72,38.29h-10a.57.57,0,0,0-.6.6,7.16,7.16,0,0,0,.75,3,5.15,5.15,0,0,0,4.72,2.93,6.66,6.66,0,0,0,1.81-.23,6,6,0,0,0,1.6-.73,11.78,11.78,0,0,0,1.39-1c.42-.36,1.23-1.12,1.51-1.38a1.25,1.25,0,0,1,.29-.19,15.73,15.73,0,0,0,.48-3.15A9.38,9.38,0,0,1,50.72,38.29Z"/><path class="cls-2" d="M49.49,47.18c2-.7,4.21-2.67,4.59-4.54.25-1.22-.5-1.48-.9-1.54h-.24a1.7,1.7,0,0,0-.76.17,15.7,15.7,0,0,1-3.07,6Z"/><path class="cls-2" d="M52.66,38.11a4.48,4.48,0,0,0,1.12-.37c.62-.32,1-1,1-2.31a8.54,8.54,0,0,0-1.06-4.06,8.65,8.65,0,0,0-4.39-3.83,15.68,15.68,0,0,1,3.38,9.74Q52.68,37.7,52.66,38.11Z"/><path class="cls-1" d="M50.38,42.83a11.78,11.78,0,0,1-1.39,1,6,6,0,0,1-1.6.73,6.66,6.66,0,0,1-1.81.23,5.15,5.15,0,0,1-4.72-2.93,7.16,7.16,0,0,1-.75-3,.57.57,0,0,1,.6-.6h10a9.38,9.38,0,0,0,1.94-.18q0-.41,0-.82a15.68,15.68,0,0,0-3.38-9.74,10.74,10.74,0,0,0-3.95-.68,11.49,11.49,0,0,0-4.21.74A8.49,8.49,0,0,0,38,29.72,9.24,9.24,0,0,0,36,33a12.81,12.81,0,0,0-.68,4.23,10.48,10.48,0,0,0,2.73,7.64c1.81,1.86,4.35,2.8,7.68,2.8a12.34,12.34,0,0,0,3.36-.43,15.7,15.7,0,0,0,3.07-6,1.25,1.25,0,0,0-.29.19C51.6,41.7,50.8,42.46,50.38,42.83Zm-10.24-7.5a6.89,6.89,0,0,1,1.58-4,4.52,4.52,0,0,1,3.46-1.46,4.67,4.67,0,0,1,3.55,1.44,6.56,6.56,0,0,1,1.52,4,.58.58,0,0,1-.6.54H40.73C40.41,35.91,40.08,35.65,40.13,35.33Z"/></svg>