<?xml version="1.0" encoding="UTF-8"?>
<svg width="64px" height="47px" viewBox="0 0 72 66" version="1.1" xmlns="http://www.w3.org/2000/svg" xmlns:xlink="http://www.w3.org/1999/xlink">
    <title>Logo Blanc Pix</title>
    <g id="Elements" stroke="none" stroke-width="1" fill="none" fill-rule="evenodd">
        <g id="Logos" transform="translate(-412.000000, -117.000000)" fill="#FFFFFF">
            <g id="logos--pix/blanc" transform="translate(406.000000, 109.000000)">
                <g transform="translate(0.125000, 0.867188)" id="Group-2">
                    <g transform="translate(5.958910, 7.536269)">
                        <g id="Group" transform="translate(44.166038, 12.969393)">
                            <path d="M14.300789,20.7842441 L15.7037565,19.0819624 C16.5729626,18.0824025 17.1709568,17.1590763 17.4977393,16.2644107 C17.5774982,16.3701633 17.6632584,16.4788021 17.7548131,16.5903263 L26.3259873,27.0550923 C27.8259639,28.9771212 27.7544458,29.3330994 25.2545905,29.3330994 L24.3974307,29.3330994 C21.8975755,29.3330994 20.9690034,28.8347721 19.4690267,27.0550923 L14.300789,20.7842441 Z M11.1038387,16.2644107 C10.7079159,15.1804525 10.7101115,14.1385657 11.1104255,13.0541408 C11.5864786,13.6440233 11.8467493,14.1820404 11.8467493,14.668192 C11.8467493,15.0955438 11.5840773,15.627661 11.1038387,16.2644107 Z M14.300789,8.55224532 L19.4690267,2.28139705 C20.9690034,0.50171725 21.8975755,0.00339003536 24.3974307,0.00339003536 L25.2545905,0.00339003536 C27.7544458,0.00339003536 27.8259639,0.359368172 26.3259873,2.28139705 L17.7548131,12.7461631 C17.6607328,12.8503469 17.5727712,12.9530062 17.4911524,13.0541408 C17.1629534,12.1650706 16.5671547,11.2474081 15.7037565,10.254527 L14.300789,8.55224532 Z" id="Combined-Shape"></path>
                            <path d="M14.6748998,29.3330994 C17.1747551,29.3330994 17.2462732,28.9771212 15.7462966,27.0550923 L7.1751224,16.5903263 C6.5323055,15.8073009 6.17513797,15.1665192 6.17513797,14.668192 C6.17513797,14.0986902 6.5323055,13.4580139 7.1751224,12.7461631 L15.7462966,2.28139705 C17.2462732,0.359368172 17.1747551,0.00339003536 14.6748998,0.00339003536 L13.8177401,0.00339003536 C11.3178848,0.00339003536 10.3893127,0.50171725 8.88933608,2.28139705 L2.31813075,10.254527 C-0.467585501,13.4580139 -0.467585501,15.8784755 2.31813075,19.0819624 L8.88933608,27.0550923 C10.3893127,28.8347721 11.3178848,29.3330994 13.8177401,29.3330994 L14.6748998,29.3330994 Z" id="Page-1" transform="translate(8.485158, 14.668245) scale(-1, 1) translate(-8.485158, -14.668245) "></path>
                        </g>
                        <path d="M0,51.4287598 C0,53.5541938 0.533133902,54.0855523 2.66566951,54.0855523 L3.37644642,54.0855523 C5.50898202,54.0855523 6.04211593,53.5541938 6.04211593,51.4287598 L6.04211593,39.0895819 C7.64151763,41.628238 10.5441469,42.9271257 14.7499014,42.9271257 C22.9837672,42.9271257 27.071093,38.6172405 27.071093,30.0565893 L27.071093,24.9201578 C27.071093,16.3594044 22.6875931,12.3448092 13.5058881,12.3448092 C4.97584812,12.3448092 0,16.4775408 0,24.9201578 L0,51.4287598 Z M20.9697627,30.174624 C20.9697627,35.133902 19.3111467,37.2003188 13.565205,37.2003188 C7.70073225,37.2003188 6.04211625,35.0748848 6.04211625,30.174624 L6.04211625,25.0972096 C6.04211625,20.1379316 7.81926336,18.0124976 13.565205,18.0124976 C19.4295754,18.0124976 20.9697627,20.1379316 20.9697627,25.0972096 L20.9697627,30.174624 Z" id="Fill-1"></path>
                        <path d="M32.769006,39.574751 C32.769006,41.7001852 33.3021399,42.2315437 35.4346756,42.2315437 L36.2046668,42.2315437 C38.3372024,42.2315437 38.8703363,41.7001852 38.8703363,39.574751 L38.8703363,15.604804 C38.8703363,13.4793698 38.3372024,12.9480113 36.2046668,12.9480113 L35.4346756,12.9480113 C33.3021399,12.9480113 32.769006,13.4793698 32.769006,15.604804 L32.769006,39.574751 Z M33.1836088,6.57181127 C34.6645819,7.98873323 37.033975,7.98873323 38.4557338,6.57181127 C39.9366044,5.09577006 39.9366044,2.73426749 38.4557338,1.31734552 C37.033975,-0.15869569 34.6645819,-0.15869569 33.1836088,1.31734552 C31.7027382,2.73426749 31.7027382,5.09577006 33.1836088,6.57181127 L33.1836088,6.57181127 Z" id="Fill-2"></path>
                    </g>
                </g>
            </g>
        </g>
    </g>
</svg>
