<svg width="204" height="154" viewBox="0 0 204 154" xmlns="http://www.w3.org/2000/svg">
  <title>Logo Blanc Pix</title>
    <path d="M38.541 34.686c26.202 0 38.71 11.475 38.71 35.946v14.682c0 24.47-11.663 36.79-35.16 36.79-12.002 0-20.285-3.713-24.849-10.97v35.272c0 6.075-1.521 7.594-7.607 7.594H7.607C1.52 154 0 152.481 0 146.406V70.632c0-24.133 14.2-35.946 38.541-35.946zm139.036 50.279l23.583 28.842c4.225 5.423 4.081 6.484-2.783 6.511h-2.72c-7.002 0-9.684-1.372-13.828-6.232l-.236-.279-12.992-15.79 3.099-3.765c2.756-3.184 4.715-6.259 5.877-9.287zM135.03 36.48c7.134 0 9.784 1.424 14.064 6.512l18.752 22.79c7.95 9.157 7.95 16.076 0 25.233l-18.752 22.791c-4.28 5.087-6.93 6.512-14.064 6.512h-2.446c-7.134 0-7.338-1.018-3.057-6.512l24.459-29.913c1.834-2.238 2.853-4.07 2.853-5.494 0-1.628-1.019-3.46-2.853-5.494l-24.46-29.913c-4.28-5.494-4.076-6.512 3.058-6.512h2.446zm-31.715-.07c6.085 0 7.607 1.518 7.607 7.593v68.518c0 6.075-1.522 7.594-7.607 7.594h-2.198c-6.085 0-7.606-1.519-7.606-7.594V44.004c0-6.075 1.52-7.594 7.606-7.594zM38.71 50.886c-16.396 0-21.468 6.075-21.468 20.251v14.514c0 14.007 4.733 20.082 21.468 20.082 16.397 0 21.13-5.906 21.13-20.082V71.138c0-14.176-4.395-20.251-21.13-20.251zM195.657 36.48h2.72c6.774.027 7.003 1.061 2.948 6.3l-.165.212-23.583 28.842c-1.162-3.029-3.12-6.104-5.877-9.288l-3.099-3.765 12.992-15.79c4.2-4.992 6.831-6.457 13.672-6.51l.392-.001zM94.695 3.164c4.226-4.219 10.987-4.219 15.045 0 4.225 4.05 4.225 10.8 0 15.02-4.058 4.05-10.82 4.05-15.045 0-4.226-4.22-4.226-10.97 0-15.02z" fill="#FFF" fill-rule="evenodd"/>
</svg>
