<?xml version="1.0" encoding="UTF-8"?>
<svg width="240px" height="198px" viewBox="0 0 240 198" version="1.1" xmlns="http://www.w3.org/2000/svg" xmlns:xlink="http://www.w3.org/1999/xlink">
    <!-- Generator: Sketch 55 (78076) - https://sketchapp.com -->
    <title>6. logos/logos--pix/couleur</title>
    <desc>Created with Sketch.</desc>
    <defs>
        <linearGradient x1="50%" y1="0%" x2="50%" y2="100%" id="linearGradient-1">
            <stop stop-color="#12A3FF" offset="0%"></stop>
            <stop stop-color="#3D68FF" offset="100%"></stop>
        </linearGradient>
        <linearGradient x1="68.6429521%" y1="0%" x2="68.6429501%" y2="100%" id="linearGradient-2">
            <stop stop-color="#FFBE00" offset="0%"></stop>
            <stop stop-color="#FF9F00" offset="100%"></stop>
        </linearGradient>
        <linearGradient x1="50%" y1="0%" x2="50%" y2="73.0493975%" id="linearGradient-3">
            <stop stop-color="#12A3FF" offset="0%"></stop>
            <stop stop-color="#3D68FF" offset="100%"></stop>
        </linearGradient>
        <linearGradient x1="50%" y1="28.3619163%" x2="50%" y2="100%" id="linearGradient-4">
            <stop stop-color="#12A3FF" offset="0%"></stop>
            <stop stop-color="#3D68FF" offset="100%"></stop>
        </linearGradient>
    </defs>
    <g id="6.-logos/logos--pix/couleur" stroke="none" stroke-width="1" fill="none" fill-rule="evenodd">
        <g id="Group" transform="translate(143.000000, 58.500000)">
            <path d="M42.554995,61.4262286 L45.6523522,57.6680705 C48.4082155,54.4902327 50.3666408,51.4215698 51.5276279,48.3989 L75.1046427,77.1846779 C79.3838825,82.6679776 79.1798504,83.6835372 72.048086,83.6835372 L69.6027199,83.6835372 C62.4709555,83.6835372 59.8218592,82.2618741 55.5426194,77.1846779 L42.554995,61.4262286 Z M42.5549622,22.2670198 L55.5426194,6.5085306 C59.8218592,1.4313344 62.4709555,0.00967133196 69.6027199,0.00967133196 L72.048086,0.00967133196 C79.1798504,0.00967133196 79.3838825,1.0252309 75.1046427,6.5085306 L51.5276279,35.2943085 C50.3666384,32.2716324 48.4082074,29.202963 45.6523349,26.0251181 L42.5549622,22.2670198 Z" id="Combined-Shape" fill="url(#linearGradient-1)"></path>
            <path d="M41.865595,83.6835372 C48.9973595,83.6835372 49.2013915,82.6679776 44.9221517,77.1846779 L20.4696981,47.3300544 C18.6358244,45.0961843 17.6168716,43.2681169 17.6168716,41.8464539 C17.6168716,40.221739 18.6358244,38.3939725 20.4696981,36.3631542 L44.9221517,6.5085306 C49.2013915,1.0252309 48.9973595,0.00967133196 41.865595,0.00967133196 L39.4202289,0.00967133196 C32.2884645,0.00967133196 29.6393682,1.4313344 25.3601284,6.5085306 L6.61332779,29.2548388 C-1.33396111,38.3939725 -1.33396111,45.2992361 6.61332779,54.4383697 L25.3601284,77.1846779 C29.6393682,82.2618741 32.2884645,83.6835372 39.4202289,83.6835372 L41.865595,83.6835372 Z" id="Page-1" fill="url(#linearGradient-2)" transform="translate(24.207059, 41.846604) scale(-1, 1) translate(-24.207059, -41.846604) "></path>
        </g>
        <path d="M17,168.219601 C17,174.283189 18.5209622,175.799086 24.6048108,175.799086 L26.6325656,175.799086 C32.7164142,175.799086 34.2373764,174.283189 34.2373764,168.219601 L34.2373764,133.017522 C38.8002629,140.259979 47.0810894,143.965538 59.0795637,143.965538 C82.5697196,143.965538 94.2303322,131.669993 94.2303322,107.247562 L94.2303322,92.5939868 C94.2303322,68.1712646 81.7247731,56.7181434 55.5305545,56.7181434 C31.1954521,56.7181434 17,68.5082925 17,92.5939868 L17,168.219601 Z M76.8240249,107.584298 C76.8240249,121.732477 72.0922075,127.627698 55.6997776,127.627698 C38.9691938,127.627698 34.2373764,121.564109 34.2373764,107.584298 L34.2373764,93.0990917 C34.2373764,78.9509128 39.3073477,72.8873243 55.6997776,72.8873243 C72.4300692,72.8873243 76.8240249,78.9509128 76.8240249,93.0990917 L76.8240249,107.584298 Z" id="Fill-1" fill="url(#linearGradient-3)"></path>
        <path d="M110.485741,134.401644 C110.485741,140.465232 112.006703,141.98113 118.090552,141.98113 L120.287238,141.98113 C126.371086,141.98113 127.892048,140.465232 127.892048,134.401644 L127.892048,66.0184879 C127.892048,59.9548994 126.371086,58.4390023 120.287238,58.4390023 L118.090552,58.4390023 C112.006703,58.4390023 110.485741,59.9548994 110.485741,66.0184879 L110.485741,134.401644 Z M111.668549,40.2485281 C115.893574,44.2908233 122.653146,44.2908233 126.70924,40.2485281 C130.933973,36.0375733 130.933973,29.3005117 126.70924,25.2582165 C122.653146,21.0472617 115.893574,21.0472617 111.668549,25.2582165 C107.443817,29.3005117 107.443817,36.0375733 111.668549,40.2485281 L111.668549,40.2485281 Z" id="Fill-2" fill="url(#linearGradient-4)"></path>
    </g>
</svg>