<?xml version="1.0" encoding="UTF-8"?>
<svg width="204px" height="154px" viewBox="0 0 204 154" version="1.1" xmlns="http://www.w3.org/2000/svg" xmlns:xlink="http://www.w3.org/1999/xlink">
  <title>6. logos/logos--pix/blanc</title>
  <desc>Created with Sketch.</desc>
  <g id="6.-logos/logos--pix/blanc" stroke="none" stroke-width="1" fill="none" fill-rule="evenodd">
    <path d="M38.541182,34.6859188 C64.7426254,34.6859188 77.2516338,46.1614632 77.2516338,70.6320005 L77.2516338,70.6320005 L77.2516338,85.3142645 C77.2516338,109.78451 65.587805,122.104128 42.09117,122.104128 C30.0893864,122.104128 21.8062759,118.391314 17.2421308,111.134677 L17.2421308,111.134677 L17.2421308,146.405675 C17.2421308,152.481135 15.7207491,154 9.63522241,154 L9.63522241,154 L7.6069084,154 C1.52138168,154 7.10542736e-15,152.481135 7.10542736e-15,146.405675 L7.10542736e-15,146.405675 L7.10542736e-15,70.6320005 C7.10542736e-15,46.4991509 14.1993675,34.6859188 38.541182,34.6859188 Z M177.576613,84.9648697 L201.160111,113.807055 C205.384941,119.229739 205.240988,120.291453 198.377148,120.318115 L195.656671,120.318638 C188.655046,120.318638 185.972792,118.94646 181.828855,114.08592 L181.592692,113.807055 L168.601453,98.0169543 L171.699697,94.2522378 C174.456336,91.0681607 176.415308,87.9934736 177.576613,84.9648697 Z M135.031124,36.4809543 C142.164855,36.4809543 144.814682,37.9054007 149.095102,42.9925371 L167.847073,65.7833783 C175.796554,74.9404047 175.796554,81.8591875 167.847073,91.0162139 L149.095102,113.807055 C144.814682,118.894192 142.164855,120.318638 135.031124,120.318638 L132.585083,120.318638 C125.451351,120.318638 125.247263,119.30109 129.527683,113.807055 L153.986881,83.8939818 C155.821261,81.6557382 156.840495,79.8240918 156.840495,78.3996454 C156.840495,76.7717497 155.821261,74.9404047 153.986881,72.9056104 L129.527683,42.9925371 C125.247263,37.4985021 125.451351,36.4809543 132.585083,36.4809543 L135.031124,36.4809543 Z M103.315726,36.4101469 C109.401253,36.4101469 110.922635,37.9290118 110.922635,44.0044717 L110.922635,44.0044717 L110.922635,112.521509 C110.922635,118.596969 109.401253,120.115834 103.315726,120.115834 L103.315726,120.115834 L101.118435,120.115834 C95.0329081,120.115834 93.5115264,118.596969 93.5115264,112.521509 L93.5115264,112.521509 L93.5115264,44.0044717 C93.5115264,37.9290118 95.0329081,36.4101469 101.118435,36.4101469 L101.118435,36.4101469 Z M38.7104518,50.886756 C22.3135005,50.886756 17.2421308,56.9622158 17.2421308,71.1380942 L17.2421308,71.1380942 L17.2421308,85.6516604 C17.2421308,99.6588409 21.9752533,105.734301 38.7104518,105.734301 C55.107403,105.734301 59.8405255,99.8275388 59.8405255,85.6516604 L59.8405255,85.6516604 L59.8405255,71.1380942 C59.8405255,56.9622158 55.4453579,50.886756 38.7104518,50.886756 Z M195.656671,36.4809543 L198.377148,36.4814767 C205.150674,36.5077883 205.37999,37.5420926 201.324606,42.7807412 L201.160111,42.9925371 L177.576579,71.8346355 C176.415268,68.8060534 174.456301,65.7313881 171.69968,62.5473344 L168.601453,58.7819543 L181.592692,42.9925371 C185.793845,37.9996069 188.424238,36.5349676 195.264927,36.482434 L195.656671,36.4809543 Z M94.6946608,3.1643993 C98.920851,-1.05479977 105.682287,-1.05479977 109.7395,3.1643993 C113.965398,7.21460858 113.965398,13.9648601 109.7395,18.1840592 C105.682287,22.2342684 98.920851,22.2342684 94.6946608,18.1840592 C90.468763,13.9648601 90.468763,7.21460858 94.6946608,3.1643993 Z" id="Combined-Shape" fill="#FFFFFF"></path>
  </g>
</svg>
