<svg width="117" height="88" viewBox="0 0 117 88" xmlns="http://www.w3.org/2000/svg"><title>5BB34D5A-AC62-4827-A32B-D6A0303355AE</title><g fill="none" fill-rule="evenodd"><path d="M108.986 65.986c3.833 0 3.942-.546 1.643-3.493L97.487 46.448c-.986-1.2-1.533-2.183-1.533-2.947 0-.873.547-1.855 1.533-2.947l13.142-16.044c2.3-2.947 2.19-3.493-1.643-3.493h-1.314c-3.833 0-5.257.764-7.557 3.493L90.04 36.734c-4.27 4.912-4.27 8.623 0 13.535l10.075 12.224c2.3 2.729 3.724 3.493 7.557 3.493h1.314z" fill="#3D68FF"/><path d="M73.784 65.986c-3.832 0-3.942-.546-1.642-3.493l13.141-16.045c.986-1.2 1.533-2.183 1.533-2.947 0-.873-.547-1.855-1.533-2.947L72.142 24.51c-2.3-2.947-2.19-3.493 1.642-3.493H75.1c3.832 0 5.256.764 7.556 3.493L92.73 36.734c4.271 4.912 4.271 8.623 0 13.535L82.655 62.493c-2.3 2.729-3.724 3.493-7.556 3.493h-1.315z" fill="#FFBE00"/><path d="M0 83.094c0 3.366.844 4.207 4.22 4.207h1.126c3.377 0 4.22-.841 4.22-4.207V63.557c2.533 4.02 7.129 6.076 13.788 6.076 13.037 0 19.509-6.824 19.509-20.378v-8.133c0-13.554-6.94-19.91-21.479-19.91C7.878 21.211 0 27.754 0 41.121v41.972zm33.202-33.652c0 7.852-2.626 11.124-11.724 11.124-9.285 0-11.911-3.365-11.911-11.124v-8.04c0-7.852 2.814-11.217 11.911-11.217 9.286 0 11.724 3.365 11.724 11.217v8.04zM52.086 62.907c0 3.365.844 4.206 4.22 4.206h1.22c3.377 0 4.22-.84 4.22-4.206V24.954c0-3.365-.843-4.206-4.22-4.206h-1.22c-3.376 0-4.22.84-4.22 4.206v37.953zm.657-52.255c2.345 2.243 6.096 2.243 8.347 0 2.345-2.337 2.345-6.076 0-8.32-2.25-2.337-6.002-2.337-8.347 0-2.345 2.244-2.345 5.983 0 8.32z" fill="#3D68FF"/></g></svg>