<svg width="59" height="44" viewBox="0 0 59 44" fill="none" xmlns="http://www.w3.org/2000/svg">
<g id="logo-pix-couleur">
<g id="Group">
<path id="Combined-Shape" d="M48.375 28.005L49.264 26.9292C50.0549 26.0194 50.617 25.141 50.9502 24.2757L57.7168 32.5163C58.9449 34.086 58.8864 34.3767 56.8396 34.3767H56.1377C54.0909 34.3767 53.3306 33.9697 52.1025 32.5163L48.375 28.005ZM48.375 16.7948L52.1025 12.2835C53.3306 10.8301 54.0909 10.4231 56.1377 10.4231H56.8396C58.8864 10.4231 58.9449 10.7138 57.7168 12.2835L50.9502 20.5242C50.617 19.6588 50.0549 18.7804 49.2639 17.8706L48.375 16.7948Z" fill="#122647"/>
<path id="Page-1" d="M38.0391 34.3767C35.9923 34.3767 35.9337 34.086 37.1618 32.5163L44.1797 23.9697C44.7061 23.3302 44.9985 22.8068 44.9985 22.3999C44.9985 21.9348 44.7061 21.4115 44.1797 20.8301L37.1618 12.2835C35.9337 10.7138 35.9923 10.4231 38.0391 10.4231H38.7409C40.7877 10.4231 41.548 10.8301 42.7762 12.2835L48.1565 18.7952C50.4374 21.4115 50.4374 23.3883 48.1565 26.0046L42.7762 32.5163C41.548 33.9697 40.7877 34.3767 38.7409 34.3767H38.0391Z" fill="#122647"/>
</g>
<path id="Fill-1" d="M0 41.8301C0 43.5659 0.436518 43.9999 2.18259 43.9999H2.76456C4.51063 43.9999 4.94715 43.5659 4.94715 41.8301V31.7527C6.2567 33.826 8.63331 34.8868 12.0769 34.8868C18.8186 34.8868 22.1652 31.3669 22.1652 24.3754V20.1805C22.1652 13.1889 18.5761 9.91016 11.0583 9.91016C4.07411 9.91016 0 13.2854 0 20.1805V41.8301ZM17.1696 24.4718C17.1696 28.522 15.8115 30.2097 11.1069 30.2097C6.30519 30.2097 4.94715 28.4738 4.94715 24.4718V20.3251C4.94715 16.2748 6.40224 14.539 11.1069 14.539C15.9085 14.539 17.1696 16.2748 17.1696 20.3251V24.4718Z" fill="#122647"/>
<path id="Fill-2" d="M26.8316 32.149C26.8316 33.8848 27.2681 34.3188 29.0142 34.3188H29.6447C31.3907 34.3188 31.8273 33.8848 31.8273 32.149V12.5727C31.8273 10.8369 31.3907 10.4029 29.6447 10.4029H29.0142C27.2681 10.4029 26.8316 10.8369 26.8316 12.5727V32.149ZM27.1711 5.19545C28.3837 6.35265 30.3237 6.35265 31.4878 5.19545C32.7003 3.98996 32.7003 2.06132 31.4878 0.904114C30.3237 -0.301371 28.3837 -0.301371 27.1711 0.904114C25.9586 2.06132 25.9586 3.98996 27.1711 5.19545Z" fill="#122647"/>
</g>
</svg>
