<?xml version="1.0" encoding="UTF-8"?>
<svg width="64px" height="50px" viewBox="0 0 64 50" version="1.1" xmlns="http://www.w3.org/2000/svg" xmlns:xlink="http://www.w3.org/1999/xlink">
    <!-- Generator: sketchtool 51.3 (57544) - http://www.bohemiancoding.com/sketch -->
    <title>1656EDC6-F944-4C31-B31D-65EC72288909-608-0002219AF5DB8450</title>
    <desc>Created with sketchtool.</desc>
    <defs>
        <filter x="-2.1%" y="-20.5%" width="104.2%" height="161.0%" filterUnits="objectBoundingBox" id="filter-1">
            <feOffset dx="0" dy="3" in="SourceAlpha" result="shadowOffsetOuter1"></feOffset>
            <feGaussianBlur stdDeviation="3" in="shadowOffsetOuter1" result="shadowBlurOuter1"></feGaussianBlur>
            <feColorMatrix values="0 0 0 0 0   0 0 0 0 0   0 0 0 0 0  0 0 0 0.1 0" type="matrix" in="shadowBlurOuter1" result="shadowMatrixOuter1"></feColorMatrix>
            <feOffset dx="0" dy="7" in="SourceAlpha" result="shadowOffsetOuter2"></feOffset>
            <feGaussianBlur stdDeviation="7" in="shadowOffsetOuter2" result="shadowBlurOuter2"></feGaussianBlur>
            <feColorMatrix values="0 0 0 0 0.0470588235   0 0 0 0 0.0862745098   0 0 0 0 0.22745098  0 0 0 0.1 0" type="matrix" in="shadowBlurOuter2" result="shadowMatrixOuter2"></feColorMatrix>
            <feMerge>
                <feMergeNode in="shadowMatrixOuter1"></feMergeNode>
                <feMergeNode in="shadowMatrixOuter2"></feMergeNode>
                <feMergeNode in="SourceGraphic"></feMergeNode>
            </feMerge>
        </filter>
    </defs>
    <g id="QUESTIONS" stroke="none" stroke-width="1" fill="none" fill-rule="evenodd">
        <g id="Alerte--Erreur" transform="translate(-148.000000, -28.000000)" fill="#FFFFFF">
            <g id="Bar-de-titre" filter="url(#filter-1)">
                <g id="logos--pix/blanc" transform="translate(150.000000, 25.999999)">
                    <g id="Group-2" transform="translate(4.335000, 5.212121)">
                        <g id="Group" transform="translate(32.130000, 8.969697)">
                            <path d="M10.4035675,14.3744871 L11.4242013,13.1971806 C12.0565331,12.50588 12.4915632,11.867303 12.7292916,11.2485478 C12.7873148,11.3216868 12.8497037,11.3968219 12.9163082,11.4739526 L19.1516837,18.7114372 C20.2428898,20.0407219 20.1908616,20.2869182 18.3722617,20.2869182 L17.7486934,20.2869182 C15.9300935,20.2869182 15.254574,19.9422726 14.1633679,18.7114372 L10.4035675,14.3744871 Z M8.07784353,11.2485478 C7.78981682,10.4988769 7.79141409,9.77830273 8.08263533,9.02830908 C8.42895541,9.43627476 8.61829769,9.80837004 8.61829769,10.1445949 C8.61829769,10.4401536 8.4272085,10.8081685 8.07784353,11.2485478 Z M10.4035675,5.91477563 L14.1633679,1.57782561 C15.254574,0.346990159 15.9300935,0.00234456541 17.7486934,0.00234456541 L18.3722617,0.00234456541 C20.1908616,0.00234456541 20.2428898,0.248540825 19.1516837,1.57782561 L12.9163082,8.81531014 C12.8478664,8.88736419 12.7838759,8.95836384 12.7244998,9.02830908 C12.4857408,8.4134237 12.052308,7.77876366 11.4242013,7.09208218 L10.4035675,5.91477563 Z" id="Combined-Shape"></path>
                            <path d="M10.6757265,20.2869182 C12.4943264,20.2869182 12.5463545,20.0407219 11.4551484,18.7114372 L5.21977289,11.4739526 C4.75213512,10.9324084 4.49230215,10.4892405 4.49230215,10.1445949 C4.49230215,9.75072466 4.75213512,9.30762974 5.21977289,8.81531014 L11.4551484,1.57782561 C12.5463545,0.248540825 12.4943264,0.00234456541 10.6757265,0.00234456541 L10.0521581,0.00234456541 C8.23355826,0.00234456541 7.55803872,0.346990159 6.46683261,1.57782561 L1.68639855,7.09208218 C-0.340160068,9.30762974 -0.340160068,10.981633 1.68639855,13.1971806 L6.46683261,18.7114372 C7.55803872,19.9422726 8.23355826,20.2869182 10.0521581,20.2869182 L10.6757265,20.2869182 Z" id="Page-1" transform="translate(6.172800, 10.144631) scale(-1, 1) translate(-6.172800, -10.144631) "></path>
                        </g>
                        <path d="M0,35.5683875 C0,37.0383483 0.387845354,37.4058385 1.93922677,37.4058385 L2.45630423,37.4058385 C4.00768564,37.4058385 4.395531,37.0383483 4.395531,35.5683875 L4.395531,27.0345503 C5.55906706,28.7902976 7.67067783,29.6886148 10.7302888,29.6886148 C16.7202786,29.6886148 19.6937348,26.7078767 19.6937348,20.7872875 L19.6937348,17.2349057 C19.6937348,11.3142459 16.5048172,8.53773175 9.82529143,8.53773175 C3.61984029,8.53773175 0,11.3959496 0,17.2349057 L0,35.5683875 Z M15.2551264,20.8689208 C15.2551264,24.2987823 14.048513,25.7279265 9.86844343,25.7279265 C5.60214463,25.7279265 4.39553123,24.2579657 4.39553123,20.8689208 L4.39553123,17.3573557 C4.39553123,13.9274942 5.68837389,12.4575334 9.86844343,12.4575334 C14.1346677,12.4575334 15.2551264,13.9274942 15.2551264,17.3573557 L15.2551264,20.8689208 Z" id="Fill-1"></path>
                        <path d="M23.8388643,27.3700957 C23.8388643,28.8400566 24.2267097,29.2075468 25.7780911,29.2075468 L26.3382459,29.2075468 C27.8896274,29.2075468 28.2774727,28.8400566 28.2774727,27.3700957 L28.2774727,10.7923605 C28.2774727,9.32239957 27.8896274,8.95490935 26.3382459,8.95490935 L25.7780911,8.95490935 C24.2267097,8.95490935 23.8388643,9.32239957 23.8388643,10.7923605 L23.8388643,27.3700957 Z M24.1404804,4.54509754 C25.2178618,5.52504786 26.9415528,5.52504786 27.9758568,4.54509754 C29.0531636,3.52426006 29.0531636,1.89103307 27.9758568,0.911082751 C26.9415528,-0.109754733 25.2178618,-0.109754733 24.1404804,0.911082751 C23.0631736,1.89103307 23.0631736,3.52426006 24.1404804,4.54509754 L24.1404804,4.54509754 Z" id="Fill-2"></path>
                    </g>
                </g>
            </g>
        </g>
    </g>
</svg>