<svg width="116" height="116" xmlns="http://www.w3.org/2000/svg" xmlns:xlink="http://www.w3.org/1999/xlink"><defs><filter x="-23.5%" y="-23.8%" width="147%" height="147.5%" filterUnits="objectBoundingBox" id="a"><feOffset in="SourceAlpha" result="shadowOffsetOuter1"/><feGaussianBlur stdDeviation="2" in="shadowOffsetOuter1" result="shadowBlurOuter1"/><feColorMatrix values="0 0 0 0 0 0 0 0 0 0 0 0 0 0 0 0 0 0 0.2 0" in="shadowBlurOuter1"/></filter><filter x="-23.5%" y="-23.8%" width="147%" height="147.5%" filterUnits="objectBoundingBox" id="d"><feOffset in="SourceAlpha" result="shadowOffsetOuter1"/><feGaussianBlur stdDeviation="2" in="shadowOffsetOuter1" result="shadowBlurOuter1"/><feColorMatrix values="0 0 0 0 0 0 0 0 0 0 0 0 0 0 0 0 0 0 0.2 0" in="shadowBlurOuter1"/></filter><filter x="-36.3%" y="-21.8%" width="172.6%" height="164.9%" filterUnits="objectBoundingBox" id="f"><feOffset dy="3" in="SourceAlpha" result="shadowOffsetOuter1"/><feGaussianBlur stdDeviation="3" in="shadowOffsetOuter1" result="shadowBlurOuter1"/><feComposite in="shadowBlurOuter1" in2="SourceAlpha" operator="out" result="shadowBlurOuter1"/><feColorMatrix values="0 0 0 0 0 0 0 0 0 0 0 0 0 0 0 0 0 0 0.1 0" in="shadowBlurOuter1" result="shadowMatrixOuter1"/><feOffset dy="7" in="SourceAlpha" result="shadowOffsetOuter2"/><feGaussianBlur stdDeviation="7" in="shadowOffsetOuter2" result="shadowBlurOuter2"/><feComposite in="shadowBlurOuter2" in2="SourceAlpha" operator="out" result="shadowBlurOuter2"/><feColorMatrix values="0 0 0 0 0 0 0 0 0 0 0 0 0 0 0 0 0 0 0.1 0" in="shadowBlurOuter2" result="shadowMatrixOuter2"/><feMerge><feMergeNode in="shadowMatrixOuter1"/><feMergeNode in="shadowMatrixOuter2"/></feMerge></filter><path id="b" d="M.119 35.233h25.52l-6.036 12.622 6.036 12.621H.119z"/><path id="e" d="M84.119 35.233h25.52l-6.036 12.622 6.036 12.621h-25.52z"/><path d="M58.879 1.855a8.376 8.376 0 00-8 0l-34 20c-2.473 1.007-4 3.637-4 6v40c0 2.363 1.527 4.992 4 6l34 20a8.376 8.376 0 008 0l34-20c2.473-1.008 4-3.637 4-6v-40c0-2.363-1.527-4.993-4-6l-34-20z" id="g"/><linearGradient x1="100%" y1="54.175%" x2="34.778%" y2="54.175%" id="c"><stop stop-color="#FBD013" offset="0%"/><stop stop-color="#FF9400" offset="100%"/></linearGradient><linearGradient x1="50%" y1="1.127%" x2="50%" y2="100%" id="h"><stop stop-color="#FBD013" offset="0%"/><stop stop-color="#FF9400" offset="100%"/></linearGradient></defs><g fill="none" fill-rule="evenodd"><g transform="matrix(-1 0 0 1 28.758 5.997)"><use fill="#000" filter="url(#a)" xlink:href="#b"/><use fill="url(#c)" xlink:href="#b"/></g><g transform="translate(3 5.997)"><use fill="#000" filter="url(#d)" xlink:href="#e"/><use fill="url(#c)" xlink:href="#e"/></g><g fill-rule="nonzero" transform="translate(3 5.997)"><use fill="#000" filter="url(#f)" xlink:href="#g"/><path stroke="#FFF" stroke-width="8" d="M56.912 5.338a4.38 4.38 0 00-4.066 0L18.656 25.45l-.268.11c-.827.336-1.51 1.401-1.51 2.295v40c0 .893.683 1.959 1.51 2.295l.269.11L52.846 90.37a4.38 4.38 0 004.066 0l34.19-20.111.268-.11c.827-.336 1.509-1.402 1.509-2.295v-40c0-.894-.682-1.96-1.509-2.296l-.269-.11-34.19-20.11z" stroke-linejoin="square" fill="url(#h)" fill-rule="evenodd"/><path stroke="url(#h)" stroke-width="4" d="M57.893 3.595c-1.87-1.014-4.186-1.01-6-.016L17.768 23.652l-.135.055c-1.596.65-2.754 2.458-2.754 4.148v40c0 1.69 1.158 3.497 2.754 4.147l.135.055.125.074L51.84 92.1c1.875 1.027 4.203 1.027 6.025.03L91.99 72.057l.135-.055c1.596-.65 2.754-2.458 2.754-4.147v-40c0-1.69-1.158-3.498-2.754-4.148l-.135-.055L57.893 3.595z" stroke-linejoin="square"/></g></g></svg>