<svg width="204" height="154" viewBox="0 0 204 154" xmlns="http://www.w3.org/2000/svg"><defs><linearGradient x1="50%" y1="0%" x2="50%" y2="100%" id="a"><stop stop-color="#12A3FF" offset="0%"/><stop stop-color="#3D68FF" offset="100%"/></linearGradient><linearGradient x1="34.347%" y1="0%" x2="65.653%" y2="100%" id="b"><stop stop-color="#FFBE00" offset="0%"/><stop stop-color="#FF9F00" offset="100%"/></linearGradient><linearGradient x1="50%" y1="0%" x2="50%" y2="73.049%" id="c"><stop stop-color="#12A3FF" offset="0%"/><stop stop-color="#3D68FF" offset="100%"/></linearGradient><linearGradient x1="50%" y1="28.362%" x2="50%" y2="100%" id="d"><stop stop-color="#12A3FF" offset="0%"/><stop stop-color="#3D68FF" offset="100%"/></linearGradient></defs><g fill="none" fill-rule="evenodd"><path d="M177.874 84.577l23.318 28.899c4.232 5.504 4.03 6.524-3.023 6.524h-2.418c-7.054 0-9.674-1.427-13.906-6.524L169 97.655l3.063-3.772c2.726-3.19 4.663-6.271 5.811-9.306zm20.566-48.576c6.787.026 6.93 1.09 2.752 6.523l-23.318 28.899c-1.148-3.035-3.085-6.116-5.81-9.306L169 58.344l12.845-15.82c4.152-5 6.753-6.469 13.511-6.522l.395-.002z" fill="url(#a)"/><path d="M168.118 120c7.115 0 7.319-1.02 3.05-6.524L146.77 83.505c-1.83-2.243-2.846-4.078-2.846-5.505 0-1.631 1.017-3.466 2.846-5.505l24.396-29.97c4.27-5.505 4.066-6.525-3.05-6.525h-2.439c-7.115 0-9.758 1.427-14.028 6.524L132.947 65.36c-7.93 9.175-7.93 16.107 0 25.282l18.703 22.835c4.27 5.097 6.913 6.524 14.028 6.524h2.44z" fill="url(#b)" transform="matrix(-1 0 0 1 301 0)"/><path d="M0 146.426C0 152.486 1.516 154 7.582 154h2.022c6.066 0 7.582-1.515 7.582-7.574v-35.178c4.55 7.237 12.805 10.94 24.768 10.94 23.42 0 35.046-12.287 35.046-36.693V70.851C77 46.445 64.532 35 38.416 35 14.153 35 0 46.782 0 70.851v75.575zm59.646-60.594c0 14.138-4.718 20.03-21.062 20.03-16.68 0-21.398-6.06-21.398-20.03V71.356c0-14.138 5.055-20.198 21.398-20.198 16.68 0 21.062 6.06 21.062 20.198v14.476z" fill="url(#c)"/><path d="M93.95 112.413c0 6.07 1.495 7.587 7.471 7.587h2.158c5.976 0 7.47-1.517 7.47-7.587V43.962c0-6.07-1.494-7.587-7.47-7.587h-2.158c-5.976 0-7.47 1.517-7.47 7.587v68.451zm1.163-94.246c4.15 4.046 10.79 4.046 14.774 0 4.15-4.216 4.15-10.96 0-15.006-3.984-4.215-10.624-4.215-14.774 0-4.15 4.047-4.15 10.79 0 15.006z" fill="url(#d)"/></g></svg>
