<?xml version="1.0" encoding="UTF-8"?>
<svg width="204px" height="154px" viewBox="0 0 204 154" version="1.1" xmlns="http://www.w3.org/2000/svg" xmlns:xlink="http://www.w3.org/1999/xlink">
  <!-- Generator: Sketch 63.1 (92452) - https://sketch.com -->
  <title>6. logos/logos--pix/couleur</title>
  <desc>Created with Sketch.</desc>
  <defs>
    <linearGradient x1="50%" y1="0%" x2="50%" y2="100%" id="linearGradient-1">
      <stop stop-color="#12A3FF" offset="0%"></stop>
      <stop stop-color="#3D68FF" offset="100%"></stop>
    </linearGradient>
    <linearGradient x1="34.3466553%" y1="0%" x2="65.6533447%" y2="100%" id="linearGradient-2">
      <stop stop-color="#FFBE00" offset="0%"></stop>
      <stop stop-color="#FF9F00" offset="100%"></stop>
    </linearGradient>
    <linearGradient x1="50%" y1="0%" x2="50%" y2="73.0493975%" id="linearGradient-3">
      <stop stop-color="#12A3FF" offset="0%"></stop>
      <stop stop-color="#3D68FF" offset="100%"></stop>
    </linearGradient>
    <linearGradient x1="50%" y1="28.3619163%" x2="50%" y2="100%" id="linearGradient-4">
      <stop stop-color="#12A3FF" offset="0%"></stop>
      <stop stop-color="#3D68FF" offset="100%"></stop>
    </linearGradient>
  </defs>
  <g id="6.-logos/logos--pix/couleur" stroke="none" stroke-width="1" fill="none" fill-rule="evenodd">
    <path d="M177.874325,84.5772144 L201.192085,113.47581 C205.424313,118.980482 205.222522,120 198.169108,120 L195.750607,120 C188.697193,120 186.0772,118.572796 181.844973,113.47581 L181.844973,113.47581 L169,97.655 L172.063362,93.8831333 C174.789134,90.692692 176.726122,87.611866 177.874325,84.5772144 Z M198.440455,36.0005235 C205.227016,36.0272375 205.369349,37.0910071 201.192085,42.5241898 L201.192085,42.5241898 L177.874318,71.4227666 C176.726112,68.3881148 174.789121,65.3072885 172.063345,62.1168467 L169,58.344 L181.844973,42.5241898 C185.997347,37.5233738 188.597752,36.0551632 195.356052,36.0015393 L195.750607,36 Z" id="Combined-Shape" fill="url(#linearGradient-1)"></path>
    <path d="M168.117904,120 C175.233258,120 175.43682,118.980482 171.167427,113.47581 L146.771238,83.5048229 C144.941585,81.2622459 143.924976,79.4270533 143.924976,77.999849 C143.924976,76.3688016 144.941585,74.5339109 146.771238,72.4951771 L171.167427,42.5241898 C175.43682,37.0195179 175.233258,36 168.117904,36 L165.678164,36 C158.56281,36 155.919809,37.4272043 151.650416,42.5241898 L132.946752,65.3591559 C125.017749,74.5339109 125.017749,81.4660891 132.946752,90.6408441 L151.650416,113.47581 C155.919809,118.572796 158.56281,120 165.678164,120 L168.117904,120 Z" id="Page-1" fill="url(#linearGradient-2)" transform="translate(150.500000, 78.000000) scale(-1, 1) translate(-150.500000, -78.000000) "></path>
    <path d="M0,146.425666 C0,152.485133 1.51642604,154 7.58213022,154 L9.60383735,154 C15.6695415,154 17.1859676,152.485133 17.1859676,146.425666 L17.1859676,111.247515 C21.7352457,118.48505 29.9913754,122.18809 41.9540654,122.18809 C65.3741641,122.18809 77,109.900902 77,85.4950722 L77,70.8514576 C77,46.4453362 64.5317376,35 38.4156408,35 C14.1531155,35 0,46.782135 0,70.8514576 L0,146.425666 Z M59.6456054,85.8315798 C59.6456054,99.9701418 54.9279002,105.861355 38.5843592,105.861355 C21.9036727,105.861355 17.1859676,99.801888 17.1859676,85.8315798 L17.1859676,71.3562191 C17.1859676,57.2176571 22.2408182,51.1581902 38.5843592,51.1581902 C55.2647543,51.1581902 59.6456054,57.2176571 59.6456054,71.3562191 L59.6456054,85.8315798 Z" id="Fill-1" fill="url(#linearGradient-3)"></path>
    <path d="M93.9506491,112.412999 C93.9506491,118.4826 95.4447327,120 101.421067,120 L103.578933,120 C109.555267,120 111.049351,118.4826 111.049351,112.412999 L111.049351,43.9620358 C111.049351,37.8924349 109.555267,36.3750346 103.578933,36.3750346 L101.421067,36.3750346 C95.4447327,36.3750346 93.9506491,37.8924349 93.9506491,43.9620358 L93.9506491,112.412999 Z M95.1125546,18.1665233 C99.2629145,22.2128268 105.903031,22.2128268 109.887445,18.1665233 C114.037518,13.951393 114.037518,7.20765115 109.887445,3.1613477 C105.903031,-1.05378257 99.2629145,-1.05378257 95.1125546,3.1613477 C90.9624818,7.20765115 90.9624818,13.951393 95.1125546,18.1665233 L95.1125546,18.1665233 Z" id="Fill-2" fill="url(#linearGradient-4)"></path>
  </g>
</svg>
