<?xml version="1.0" encoding="UTF-8"?>
<svg width="102px" height="77px" viewBox="0 0 102 77" version="1.1" xmlns="http://www.w3.org/2000/svg" xmlns:xlink="http://www.w3.org/1999/xlink">
    <!-- Generator: Sketch 50.2 (55047) - http://www.bohemiancoding.com/sketch -->
    <title>Group 8</title>
    <desc>Created with Sketch.</desc>
    <defs>
        <linearGradient x1="50%" y1="2.35473769%" x2="50%" y2="100%" id="linearGradient-1">
            <stop stop-color="#12A3FF" offset="0%"></stop>
            <stop stop-color="#3D68FF" offset="100%"></stop>
        </linearGradient>
        <linearGradient x1="68.6429521%" y1="0%" x2="68.6429501%" y2="100%" id="linearGradient-2">
            <stop stop-color="#FFBE00" offset="0%"></stop>
            <stop stop-color="#FF9F00" offset="100%"></stop>
        </linearGradient>
    </defs>
    <g id="SCO" stroke="none" stroke-width="1" fill="none" fill-rule="evenodd">
        <g id="Home-Sco-V2" transform="translate(-183.000000, -5479.000000)">
            <g id="FOOTER" transform="translate(0.000000, 5390.255952)">
                <g id="Group-8" transform="translate(175.000000, 78.000000)">
                    <g id="6.-logos/logos--pix/couleur">
                        <g id="Group-2" transform="translate(8.429167, 10.713559)">
                            <g id="Group" transform="translate(62.475000, 18.437288)">
                                <path d="M35.7238426,41.6999321 C39.2600092,41.6999321 39.3611751,41.1938736 37.2393853,38.4615175 L25.1150437,23.5848068 C24.205748,22.4716579 23.7005173,21.5607227 23.7005173,20.8523007 C23.7005173,20.0426971 24.205748,19.1319117 25.1150437,18.1199446 L37.2393853,3.24323389 C39.3611751,0.51087777 39.2600092,0.00481927389 35.7238426,0.00481927389 L34.5113486,0.00481927389 C30.9751821,0.00481927389 29.6616718,0.713241209 27.5398821,3.24323389 L18.2445935,14.5778349 C14.3040627,19.1319117 14.3040627,22.5728397 18.2445935,27.1269164 L27.5398821,38.4615175 C29.6616718,40.9915102 30.9751821,41.6999321 34.5113486,41.6999321 L35.7238426,41.6999321 Z" id="Page-1" fill="url(#linearGradient-1)"></path>
                                <path d="M20.7583575,41.6999321 C24.2945241,41.6999321 24.39569,41.1938736 22.2739002,38.4615175 L10.1495586,23.5848068 C9.24026294,22.4716579 8.73503216,21.5607227 8.73503216,20.8523007 C8.73503216,20.0426971 9.24026294,19.1319117 10.1495586,18.1199446 L22.2739002,3.24323389 C24.39569,0.51087777 24.2945241,0.00481927389 20.7583575,0.00481927389 L19.5458635,0.00481927389 C16.009697,0.00481927389 14.6961867,0.713241209 12.574397,3.24323389 L3.27910836,14.5778349 C-0.661422384,19.1319117 -0.661422384,22.5728397 3.27910836,27.1269164 L12.574397,38.4615175 C14.6961867,40.9915102 16.009697,41.6999321 19.5458635,41.6999321 L20.7583575,41.6999321 Z" id="Page-1" fill="url(#linearGradient-2)" transform="translate(12.002667, 20.852376) scale(-1, 1) translate(-12.002667, -20.852376) "></path>
                            </g>
                            <path d="M0,73.1111231 C0,76.13264 0.754143743,76.8880193 3.77071871,76.8880193 L4.77614709,76.8880193 C7.79272206,76.8880193 8.5468658,76.13264 8.5468658,73.1111231 L8.5468658,55.5697481 C10.809297,59.1787016 14.9152068,61.0252003 20.8644503,61.0252003 C32.5116526,61.0252003 38.293373,54.8982676 38.293373,42.7284461 L38.293373,35.4264951 C38.293373,23.2565285 32.0927,17.5493799 19.1047333,17.5493799 C7.03857832,17.5493799 0,23.4244712 0,35.4264951 L0,73.1111231 Z M29.6627457,42.8962436 C29.6627457,49.9463531 27.3165529,52.8839714 19.1886397,52.8839714 C10.8930586,52.8839714 8.5468658,49.8624544 8.5468658,42.8962436 L8.5468658,35.6781915 C8.5468658,28.6280819 11.0607266,25.606565 19.1886397,25.606565 C27.484076,25.606565 29.6627457,28.6280819 29.6627457,35.6781915 L29.6627457,42.8962436 Z" id="Fill-1" fill="url(#linearGradient-1)"></path>
                            <path d="M46.3533467,56.2594633 C46.3533467,59.2809803 47.1074904,60.0363595 50.1240654,60.0363595 L51.2132553,60.0363595 C54.2298303,60.0363595 54.983974,59.2809803 54.983974,56.2594633 L54.983974,22.1837889 C54.983974,19.1622719 54.2298303,18.4068927 51.2132553,18.4068927 L50.1240654,18.4068927 C47.1074904,18.4068927 46.3533467,19.1622719 46.3533467,22.1837889 L46.3533467,56.2594633 Z M46.9398224,9.34248689 C49.0347306,11.3567832 52.3863517,11.3567832 54.3974983,9.34248689 C56.4922615,7.2441467 56.4922615,3.88703465 54.3974983,1.87273838 C52.3863517,-0.225601806 49.0347306,-0.225601806 46.9398224,1.87273838 C44.8450592,3.88703465 44.8450592,7.2441467 46.9398224,9.34248689 L46.9398224,9.34248689 Z" id="Fill-2" fill="url(#linearGradient-1)"></path>
                        </g>
                    </g>
                </g>
            </g>
        </g>
    </g>
</svg>
