<svg width="113" height="120" xmlns="http://www.w3.org/2000/svg"><g fill="none" fill-rule="evenodd"><path fill="#E8F3FF" d="m65.664 100.425-9.6-28.619H34.26l-9.603 28.619z"/><path d="M56.706 77.78c.355.069.71.133 1.066.191l7.53 22.454h-5.367l-5.954-17.74a11.41 11.41 0 0 0 1.998-3.436h1.22l-.493-1.47z" fill="#F3F9FF"/><path fill="#B8DAF2" d="M57.2 79.25H40.78l-6.898 20.528H23.08L32.68 71.16h21.806z"/><path d="M56.552 75.116c0 6.291-5.1 11.39-11.39 11.39-6.292 0-11.391-5.099-11.391-11.39 0-6.29 5.1-11.39 11.39-11.39 6.291 0 11.39 5.1 11.39 11.39" fill="#FFDCA1"/><path d="M53.895 82.43a11.368 11.368 0 0 1-8.734 4.078c-2.288 0-4.419-.676-6.203-1.836l-.037.108a11.313 11.313 0 0 0 6.356 1.944 11.37 11.37 0 0 0 8.703-4.04l-.085-.254" fill="#F4F8FF"/><path d="M55.979 79.25h-.2a11.369 11.369 0 0 1-1.884 3.18l.085.254a11.39 11.39 0 0 0 1.999-3.435" fill="#F9FCFF"/><path d="M56.26 77.69a11.357 11.357 0 0 1-.48 1.56h.2c.18-.495.328-1.004.439-1.528l-.16-.032m-20.475 3.933a11.534 11.534 0 0 0 3.137 3.158l.036-.11a11.463 11.463 0 0 1-3.123-3.014l-.05-.034" fill="#DCEAF6"/><path d="M52.477 76.689a11.396 11.396 0 0 1-10.431 6.804 11.35 11.35 0 0 1-6.212-1.836 11.463 11.463 0 0 0 3.124 3.014 11.33 11.33 0 0 0 6.203 1.836c3.507 0 6.644-1.584 8.734-4.078a11.369 11.369 0 0 0 2.365-4.74 36.206 36.206 0 0 1-3.783-1" fill="#FFEBBF"/><path d="M37.37 67.198a10.337 10.337 0 0 0-3.155 7.446c0 2.578.943 4.943 2.501 6.752.856.54 1.79.953 2.789 1.212-.23-.847-.347-1.74-.347-2.655 0-3.22 1.464-6.097 3.764-8a36.732 36.732 0 0 1-5.551-4.755" fill="#FFCD83"/><path fill="#5B94FF" fill-rule="nonzero" d="M13.267 116.371h63.788v-15.946H13.267z"/><path fill="#9AE0E6" d="M13.267 100.425h8.1v-.643h-8.1z"/><path fill="#3377F9" fill-rule="nonzero" d="M13.267 115.728h8.1v-15.303h-8.1z"/><path fill="#9AE0E6" d="M77.937 99.782h-8.1v.643h7.218v15.303h.882z"/><path fill="#8EB5FF" fill-rule="nonzero" d="M69.837 115.728h7.218v-15.303h-7.218z"/><path d="M15.361 114.28h59.6v-11.76h-59.6v11.76zm61.694 4.186H13.267a2.094 2.094 0 0 1-2.093-2.093v-15.948c0-1.156.937-2.094 2.093-2.094h63.788c1.157 0 2.094.938 2.094 2.094v15.948a2.094 2.094 0 0 1-2.094 2.093z" fill="#2D3666"/><path d="M24.658 102.52a2.094 2.094 0 0 1-1.985-2.76l9.6-28.62a2.094 2.094 0 0 1 3.97 1.331l-9.6 28.62a2.094 2.094 0 0 1-1.985 1.428M65.664 102.52c-.875 0-1.69-.553-1.985-1.43l-9.6-28.618a2.094 2.094 0 0 1 3.97-1.332l9.6 28.619a2.094 2.094 0 0 1-1.985 2.76" fill="#2D3666"/><path d="M45.159 65.823c-5.124 0-9.29 4.167-9.29 9.291a9.26 9.26 0 0 0 2.238 6.046 9.25 9.25 0 0 0 7.052 3.255c5.128 0 9.301-4.173 9.301-9.3 0-3.253-1.664-6.218-4.453-7.933a9.31 9.31 0 0 0-4.848-1.359m0 22.78c-3.945 0-7.674-1.72-10.23-4.717a13.443 13.443 0 0 1-3.248-8.772c0-7.432 6.046-13.478 13.478-13.478 2.484 0 4.916.683 7.035 1.975 4.043 2.487 6.453 6.784 6.453 11.503 0 7.437-6.051 13.488-13.488 13.488" fill="#2D3666"/><path d="M71.768 33.951c-14.235-14.234-29.381-22.167-33.829-17.72-14.234 14.236-14.234 37.314 0 51.549 14.235 14.235 37.313 14.235 51.549 0 4.447-4.448-3.486-19.594-17.72-33.829" fill="#E8F3FF"/><path d="M42.308 70.858a36.1 36.1 0 0 1-4.373-3.717c-14.192-14.193-14.234-37.182-.126-51.428l.18.475-.054.043c-2.376 2.376-1.214 7.825 2.567 14.552C33.1 43.17 33.691 59.03 42.308 70.858" fill="#B8DAF2"/><path d="m89.49 67.785-.243.233v-.01c-2.713-6.685-8.965-15.513-17.477-24.025-13.971-13.971-28.83-21.87-33.581-17.942-1.827-4.498-2.038-8.026-.254-9.81 4.457-4.446 19.6 3.484 33.835 17.72.19.19.38.38.56.57.17.169.338.349.506.517.36.36.708.718 1.046 1.088a95.862 95.862 0 0 1 2.471 2.682c.317.359.624.708.93 1.067a91.283 91.283 0 0 1 4.794 5.956c.2.253.39.517.58.781a86.864 86.864 0 0 1 1.817 2.63c.222.337.444.665.654 1.002a57.048 57.048 0 0 1 1.774 2.957 48.036 48.036 0 0 1 1.331 2.513c.064.149.138.297.211.444.095.212.19.413.275.613.138.285.254.57.38.856.117.274.222.548.328.834.106.274.211.548.306.813.084.264.18.517.253.781.158.507.296.982.402 1.447l.01.053c.106.475.19.918.243 1.362.264 2.123-.085 3.802-1.151 4.868" fill="#FFF"/><path d="M63.713 80.532c-9.87 0-19.74-3.758-27.254-11.272-15.028-15.028-15.028-39.48 0-54.509a2.093 2.093 0 1 1 2.96 2.96c-13.395 13.396-13.395 35.192 0 48.588 13.397 13.395 35.193 13.395 48.588 0a2.093 2.093 0 1 1 2.96 2.96c-7.514 7.515-17.384 11.273-27.254 11.273" fill="#2D3666"/><path d="M79.095 69.55c2.48.982 4.742 1.554 6.828 1.56.94 0 1.85-.12 2.714-.414a6.004 6.004 0 0 0 2.333-1.43l.002-.002a6.042 6.042 0 0 0 1.43-2.336c.294-.865.415-1.777.415-2.718-.005-1.996-.53-4.153-1.434-6.508-1.362-3.527-3.61-7.496-6.588-11.695-2.978-4.197-6.687-8.613-10.975-12.957l-1.49 1.471 1.521-1.437c-.207-.22-.411-.424-.6-.613-5.881-5.879-11.912-10.709-17.381-14.11-2.737-1.7-5.332-3.043-7.73-3.979-2.402-.932-4.598-1.475-6.627-1.48-.942 0-1.855.121-2.719.415a6.02 6.02 0 0 0-2.337 1.432 6.006 6.006 0 0 0-1.433 2.336c-.294.864-.416 1.776-.416 2.718.004 1.734.403 3.588 1.097 5.592.698 2.001 1.7 4.149 2.972 6.414 3.41 6.069 8.761 12.996 15.498 19.737l.004.003c2.34 2.33 4.704 4.5 7.049 6.491l.08.064.136.105 1.276-1.66-1.362 1.59.665.57.043.035.169.138a2.093 2.093 0 1 0 2.64-3.25l-.17-.138-1.32 1.625 1.363-1.59c-.222-.189-.444-.379-.665-.57l-.087-.07-.138-.105-1.275 1.66 1.355-1.597a117.083 117.083 0 0 1-6.806-6.265l.004.003c-6.504-6.501-11.651-13.197-14.809-18.827-1.178-2.095-2.076-4.039-2.667-5.739-.594-1.698-.869-3.154-.865-4.216 0-.578.077-1.034.192-1.367.116-.335.255-.549.429-.724.177-.175.392-.314.728-.432.333-.114.79-.192 1.369-.191 1.244-.006 3.024.377 5.105 1.194 3.13 1.217 6.94 3.374 11.008 6.294 4.07 2.918 8.407 6.598 12.664 10.854.19.19.367.367.517.527l.033.034c5.52 5.588 10.028 11.296 13.116 16.323 1.545 2.512 2.735 4.852 3.52 6.893.79 2.037 1.16 3.779 1.154 5.002 0 .578-.077 1.035-.191 1.369-.117.336-.257.55-.432.728l.003-.003c-.176.174-.389.313-.724.43-.332.113-.786.19-1.363.19-1.278.006-3.123-.4-5.278-1.264a2.095 2.095 0 0 0-1.55 3.89" fill="#2D3666"/><path d="M71.119 64.976c-.396 0-.796-.11-1.15-.345-.44-.29-.881-.588-1.326-.895l-.377-.26a2.093 2.093 0 1 1 2.38-3.445l.372.258c.423.292.84.572 1.255.846a2.095 2.095 0 0 1-1.154 3.841M57.768 50.911 68.601 40.08a2.092 2.092 0 1 0-2.96-2.962L54.808 47.95a2.094 2.094 0 0 0 2.96 2.961" fill="#2D3666"/><path d="M76.51 29.209a5.5 5.5 0 1 1-7.779 7.778 5.5 5.5 0 0 1 7.779-7.778" fill="#FFDCA1"/><path d="M72.225 27.206a5.5 5.5 0 0 0-3.333 1.121c.14.125.279.252.418.378a5.486 5.486 0 0 1 3.31-1.107 5.48 5.48 0 0 1 3.694 1.424 5.501 5.501 0 0 0-4.089-1.816M66.764 32.051a5.515 5.515 0 0 0 1.811 4.772 5.49 5.49 0 0 1-1.412-4.403l-.399-.369" fill="#FFE5B9"/><path d="M68.893 28.327a5.475 5.475 0 0 0-2.129 3.724l.4.369a5.474 5.474 0 0 1 2.145-3.714 71.494 71.494 0 0 0-.416-.379" fill="#2D314A"/><path d="M72.621 27.598a5.486 5.486 0 0 0-3.889 1.611 5.472 5.472 0 0 0-1.569 3.21 5.487 5.487 0 0 0 1.412 4.404 5.472 5.472 0 0 0 1.818 1.062 5.502 5.502 0 0 1 1.29-5.723 5.44 5.44 0 0 1 3.87-1.611 5.47 5.47 0 0 1 1.852.322 5.46 5.46 0 0 0-1.091-1.85 5.482 5.482 0 0 0-3.693-1.425" fill="#FFC675"/><path d="M72.62 29.694c-.872 0-1.744.332-2.408.995a3.413 3.413 0 0 0 0 4.818 3.415 3.415 0 0 0 4.818 0 3.386 3.386 0 0 0 .997-2.41 3.399 3.399 0 0 0-3.407-3.404m.001 10.995a7.566 7.566 0 0 1-5.37-2.22c-2.96-2.96-2.96-7.779 0-10.739 2.96-2.96 7.778-2.961 10.739 0a7.538 7.538 0 0 1 2.224 5.369c0 2.028-.79 3.937-2.224 5.37a7.57 7.57 0 0 1-5.369 2.22M49.172 110.017H23.828a2.094 2.094 0 0 1 0-4.187h25.344a2.094 2.094 0 0 1 0 4.187M60.7 110.017h-3.08a2.094 2.094 0 0 1 0-4.187h3.08a2.094 2.094 0 0 1 0 4.187" fill="#2D3666"/><path d="M92.112 26.131c-.029.033-.06.064-.093.094.034.029.064.06.093.093a.978.978 0 0 1 .094-.093 1.118 1.118 0 0 1-.094-.094M12.56 76.374c-.028.033-.059.064-.092.093.033.03.064.061.093.093.03-.032.06-.063.093-.093a1.304 1.304 0 0 1-.093-.093" fill="#9AE0E6"/><path d="M71.09 8.357c16.806 4.425 26.92 16.202 30.341 35.33" stroke="#2D3666" stroke-width="3.14" stroke-linecap="round"/><path d="M90.215 2.047s17.48 4.82 20.926 25.02" stroke="#2D3666" stroke-width="2.721" stroke-linecap="round"/><path d="M85.832 82.748c-.452 0-.85.287-.993.715l-.88 2.644-2.645.881c-.43.144-.716.542-.716.994 0 .452.287.85.716.992l2.644.881.881 2.644c.143.43.54.716.993.716.452 0 .85-.286.993-.716l.881-2.644 2.643-.88c.43-.143.716-.541.716-.993 0-.452-.286-.85-.716-.994l-2.643-.88-.88-2.645a1.045 1.045 0 0 0-.994-.715m-.054 4.518.054-.161.053.16c.105.313.35.559.663.662l.16.055-.16.053a1.05 1.05 0 0 0-.663.662l-.053.162-.054-.162a1.048 1.048 0 0 0-.661-.662l-.162-.053.162-.055c.312-.103.557-.35.661-.661M94.206 108.916a2.1 2.1 0 0 0-2.094 2.093 2.1 2.1 0 0 0 2.094 2.094 2.1 2.1 0 0 0 2.093-2.094 2.1 2.1 0 0 0-2.093-2.093M13.608 72.28c-.452 0-.851.288-.993.716l-.62 1.859-1.86.62a1.044 1.044 0 0 0-.714.993c0 .452.287.85.715.992l1.859.62.62 1.859c.142.429.54.716.993.716.452 0 .85-.287.992-.716l.62-1.86 1.859-.619c.429-.142.716-.54.716-.992 0-.453-.287-.851-.716-.994l-1.86-.62-.619-1.858a1.043 1.043 0 0 0-.992-.715m-.093 4.187c.032-.03.064-.061.093-.093.03.032.06.063.093.093a.87.87 0 0 0-.093.093.978.978 0 0 0-.093-.093M2.093 100.543a2.094 2.094 0 1 0 0 4.187 2.094 2.094 0 0 0 0-4.187M10.467 50.3a2.094 2.094 0 1 0 0 4.187 2.094 2.094 0 0 0 0-4.188M16.748 22.038c-.452 0-.85.286-.993.716l-.882 2.643-2.643.881c-.43.143-.716.541-.716.993 0 .452.287.85.716.994l2.644.881.881 2.643c.143.43.54.716.993.716.452 0 .85-.287.992-.716l.881-2.643 2.644-.881c.43-.144.716-.542.716-.994 0-.452-.286-.85-.716-.993l-2.644-.881-.88-2.643a1.042 1.042 0 0 0-.993-.716m-.054 4.517.054-.16.053.16c.105.312.35.558.663.662l.16.054-.16.054c-.312.104-.558.35-.663.662l-.053.161-.054-.16a1.054 1.054 0 0 0-.662-.663l-.161-.054.16-.054a1.05 1.05 0 0 0 .663-.662" fill="#FFF" opacity=".828"/></g></svg>
