<svg width="156" height="168" viewBox="0 0 156 156" xmlns="http://www.w3.org/2000/svg" xmlns:xlink="http://www.w3.org/1999/xlink"><defs><linearGradient x1="50%" y1="0%" x2="50%" y2="100%" id="c"><stop stop-color="#FFCF43" offset="0%"/><stop stop-color="#FF9516" offset="100%"/></linearGradient><linearGradient x1="8.902%" y1="0%" x2="91.098%" y2="103.628%" id="d"><stop stop-color="#FFA200" offset="0%"/><stop stop-color="#FF6A2C" offset="100%"/></linearGradient><linearGradient x1="50%" y1="0%" x2="50%" y2="143.445%" id="e"><stop stop-color="#FFF" stop-opacity=".444" offset="0%"/><stop stop-color="#FFF" stop-opacity=".142" offset="100%"/></linearGradient><filter x="-26.1%" y="-18.3%" width="152.2%" height="147.3%" filterUnits="objectBoundingBox" id="a"><feMorphology radius="4.62" operator="dilate" in="SourceAlpha" result="shadowSpreadOuter1"/><feOffset dy="7" in="shadowSpreadOuter1" result="shadowOffsetOuter1"/><feGaussianBlur stdDeviation="7.5" in="shadowOffsetOuter1" result="shadowBlurOuter1"/><feComposite in="shadowBlurOuter1" in2="SourceAlpha" operator="out" result="shadowBlurOuter1"/><feColorMatrix values="0 0 0 0 0.945098039 0 0 0 0 0.407956259 0 0 0 0 0.254901961 0 0 0 0.5 0" in="shadowBlurOuter1"/></filter><path d="M48.845 3.61L9.802 26.153c-6.064 3.5-9.799 9.97-9.799 16.971v45.084c0 7.001 3.735 13.47 9.8 16.971l39.042 22.542a19.596 19.596 0 0019.597 0l39.043-22.542a19.597 19.597 0 009.799-16.971V43.123c0-7-3.736-13.47-9.799-16.97L68.442 3.61a19.596 19.596 0 00-19.597 0z" id="b"/></defs><g fill="none" fill-rule="evenodd"><g transform="translate(19.326 11.375)"><use fill="#000" filter="url(#a)" xlink:href="#b"/><use fill="url(#c)" xlink:href="#b"/><path stroke="url(#d)" stroke-width="4.62" d="M47.69 1.61h0a21.906 21.906 0 0121.907 0l39.043 22.542a21.907 21.907 0 0110.954 18.971v45.084a21.907 21.907 0 01-10.954 18.972L69.597 129.72a21.906 21.906 0 01-21.907 0L8.647 107.18A21.906 21.906 0 01-2.307 88.207V43.123A21.906 21.906 0 018.647 24.152L47.69 1.61z"/><path stroke="#FFF" stroke-width="4.62" d="M50 5.611h0L10.957 28.153a17.286 17.286 0 00-8.644 14.97v45.084a17.286 17.286 0 008.644 14.97L50 125.72a17.286 17.286 0 0017.287 0l39.043-22.542a17.287 17.287 0 008.644-14.97V43.123a17.287 17.287 0 00-8.644-14.97L67.287 5.61a17.286 17.286 0 00-17.287 0z"/></g><path d="M59.6 101.358a4.158 4.158 0 110 8.316c-.017 0-.031-.004-.047-.004-.017 0-.03.004-.047.004a4.158 4.158 0 010-8.316c.016 0 .03.005.047.005.016 0 .03-.005.046-.005zm23.768 4.804s-6.222 3.422-11.044-1.71c0 0 6.689-2.646 11.044 1.71zm-36.605-1.718l.02.007c-4.823 5.133-11.045 1.71-11.045 1.71 4.22-4.219 10.629-1.868 11.025-1.717zm45.509-2.949s-5.93 3.906-11.145-.828c0 0 6.457-3.168 11.145.828zm-54.293-.828c-5.215 4.734-11.145.828-11.145.828 4.688-3.996 11.145-.828 11.145-.828zm42.733-8.068s-.284 7.095-7.17 8.572l.004-.024c.082-.45 1.39-7.12 7.166-8.548zm-42.318 0c5.777 1.429 7.085 8.098 7.167 8.548l.004.024c-6.887-1.477-7.171-8.572-7.171-8.572zm-6.046 3.506c-6.318 3.112-10.941-2.278-10.941-2.278 5.608-2.548 10.941 2.278 10.941 2.278zM97.7 93.827s-4.623 5.39-10.941 2.278c0 0 5.333-4.826 10.941-2.278zm-63.938-8.245c4.444 4.266 1.937 11.007 1.937 11.007-5.075-4.575-2.126-10.632-1.945-10.99l.008-.017zm51.584 0s3.294 6.291-1.937 11.007c0 0-2.507-6.741 1.937-11.007zM29.85 80.25c3.404 5.134-.516 11.164-.516 11.164-4.073-5.745.516-11.164.516-11.164zm59.404 0s4.59 5.419.516 11.164c0 0-3.92-6.03-.516-11.164zm14.462 5.13s-3.911 5.928-10.57 3.633c0 0 4.687-5.457 10.57-3.632zm-77.758 3.633c-6.659 2.295-10.57-3.632-10.57-3.632 5.883-1.825 10.57 3.632 10.57 3.632zm79.977-11.984s-2.808 6.523-9.767 5.434c0 0 3.655-6.196 9.767-5.434zm-83 5.434c-6.958 1.089-9.766-5.434-9.766-5.434 6.112-.762 9.767 5.434 9.767 5.434zm3.459-11.807c2.992 5.384-1.388 11.09-1.388 11.09-3.5-5.861 1.088-10.78 1.374-11.076l.014-.014zm66.316 0s4.999 5.043 1.388 11.09c0 0-4.38-5.706-1.388-11.09zm13-2.987s.172 7.099-6.605 9.015c0 0 .733-7.155 6.605-9.015zm-92.316 0C19.267 69.529 20 76.684 20 76.684c-6.256-1.768-6.59-7.954-6.605-8.895v-.12zm12.785-5.426c.999 6.078-5.05 9.97-5.05 9.97-1.358-6.91 5.05-9.97 5.05-9.97zm66.746 0s6.408 3.06 5.05 9.97c0 0-6.048-3.892-5.05-9.97zm11.863-5.225s2.127 6.776-3.857 10.49c0 0-1.273-7.079 3.857-10.49zm-90.472 0c5.13 3.411 3.857 10.49 3.857 10.49-5.984-3.714-3.857-10.49-3.857-10.49zm12.967-4.126c.364 5.92-5.568 9.163-6.008 9.395l-.025.013c-.652-7.013 6.033-9.408 6.033-9.408zm64.538 0s6.685 2.395 6.033 9.408c0 0-6.41-3.26-6.033-9.408zm6.965-6.729s5.09 4.952 1.588 11.063c0 0-4.482-5.625-1.588-11.063zm-81.24-.307c4.124 4.575 1.136 11.118 1.136 11.118-4.876-5.082-1.135-11.118-1.135-11.118z" fill="url(#e)" transform="translate(19.326 11.375)"/></g></svg>