<svg width="84" height="76" viewBox="0 0 84 76" fill="none" xmlns="http://www.w3.org/2000/svg">
<path d="M16.3149 9.9834C16.3149 9.9834 7.05809 11.417 7.05809 18.7172V58.1823C7.05809 63.316 11.2199 67.4811 16.3569 67.4811H63.5127C63.5127 67.4811 60.3485 74 52.803 74H13.7577C8.36251 74 0.800781 68.524 0.800781 62.1375V22.272C0.800781 16.0147 6.14759 9.98663 16.3149 9.98663V9.9834Z" fill="#B9D8CD"/>
<path d="M28.0781 54.7763L30.2317 55.7901C32.7243 56.9654 35.7012 56.1485 37.2478 53.869C42.2426 46.4945 52.975 30.9771 58.1959 25.8563C64.8923 19.2825 76.0573 9.63824 81.2879 7.02295C81.2879 7.02295 81.9336 9.70282 79.8543 11.2397C77.775 12.7766 62.9131 23.0634 52.891 35.7847C46.6144 43.7501 39.2141 56.72 38.3907 58.6637C37.5674 60.6074 35.7012 61.2047 33.7575 60.6817C31.8138 60.1586 28.0781 54.7763 28.0781 54.7763Z" fill="#B9D8CD"/>
<path d="M60.7382 12.3761C58.5653 10.6325 55.8047 9.58643 52.802 9.58643H13.7567C6.75036 9.58643 1.07422 15.2658 1.07422 22.269V61.3143C1.07422 68.3207 6.75358 73.9969 13.7567 73.9969H52.802C59.8083 73.9969 65.4845 68.3175 65.4845 61.3143V22.5499" stroke="#145C42" stroke-width="2.15358" stroke-linecap="round" stroke-linejoin="round"/>
<path d="M34.4638 60.7589C32.8882 60.7589 31.3933 60.0163 30.444 58.7345C22.7305 48.325 14.0226 36.6821 13.9354 36.5658C12.2791 34.3542 12.7311 31.2158 14.946 29.5594C17.1577 27.9031 20.2961 28.3551 21.9524 30.5701C22.0235 30.6637 27.6156 38.1415 33.8084 46.4684C40.0205 35.8749 53.6619 15.9147 74.5261 2.77046C76.8637 1.29814 79.9536 1.99878 81.4291 4.3364C82.9015 6.67402 82.2008 9.76394 79.8632 11.2395C53.4747 27.8644 39.1358 57.6012 38.9937 57.8982C38.2382 59.4868 36.7078 60.562 34.9578 60.7331C34.7964 60.7492 34.6317 60.7557 34.4703 60.7557L34.4638 60.7589Z" stroke="#145C42" stroke-width="2.15358" stroke-linecap="round" stroke-linejoin="round"/>
</svg>
