<svg width="83" height="80" xmlns="http://www.w3.org/2000/svg" xmlns:xlink="http://www.w3.org/1999/xlink"><defs><filter x="-14%" y="-10%" width="128%" height="128%" filterUnits="objectBoundingBox" id="a"><feOffset dy="2" in="SourceAlpha" result="shadowOffsetOuter1"/><feGaussianBlur stdDeviation="2" in="shadowOffsetOuter1" result="shadowBlurOuter1"/><feColorMatrix values="0 0 0 0 0.0721656122 0 0 0 0 0.616338315 0 0 0 0 0.0316625019 0 0 0 0.5 0" in="shadowBlurOuter1"/></filter><filter x="-61.1%" y="-20.6%" width="222.2%" height="164.7%" filterUnits="objectBoundingBox" id="c"><feOffset dy="2" in="SourceAlpha" result="shadowOffsetOuter1"/><feGaussianBlur stdDeviation="1.5" in="shadowOffsetOuter1" result="shadowBlurOuter1"/><feColorMatrix values="0 0 0 0 0.0721656122 0 0 0 0 0.616338315 0 0 0 0 0.0316625019 0 0 0 0.5 0" in="shadowBlurOuter1"/></filter><path d="M36.325 20.7c0-8.638-7.002-15.643-15.635-15.643-8.634 0-15.636 7.005-15.636 15.643 0 8.639 7.002 15.644 15.636 15.644 8.633 0 15.635-7.005 15.635-15.644Zm12.003 20.754c2 1.738 2.264 4.845.474 6.847-1.737 2.054-4.79 2.265-6.844.527l-.526-.527-9.055-10.535c-3.317 2.265-7.318 3.635-11.687 3.635C9.266 41.4 0 32.13 0 20.7S9.266 0 20.742 0c11.424 0 20.69 9.27 20.69 20.7 0 4.32-1.316 8.375-3.633 11.694l10.53 9.06Z" id="b"/><path d="M19.378 24.994c.838 0 .973-.102 1.298-.737.297-.584.946-1.118 1.892-1.626 1.108-.585 1.973-1.195 2.54-1.88.595-.687.892-1.678.892-2.923C26 14.347 24.135 13 20.162 13c-.621 0-1.27.05-2 .178-.946.178-1.162.381-1.162 1.22v.457c0 .839.243 1.042 1.135.839.73-.153 1.406-.23 2.054-.23 2.162 0 2.973.56 2.973 2.364 0 .94-.513 1.703-1.027 2.084-.243.178-.649.432-1.216.762-1.892 1.144-2.892 2.313-2.973 3.481-.027.61.27.839 1.135.839h.297ZM19.216 30c.973 0 1.757-.737 1.757-1.677 0-.915-.784-1.652-1.757-1.652-.973 0-1.757.737-1.757 1.652 0 .94.784 1.677 1.757 1.677Z" id="d"/></defs><g fill="none" fill-rule="evenodd"><path d="M78 0a5 5 0 0 1 5 5v75l-1.373-.01C36.873 79.29.73 44.447.011 1.31L0 0Z" fill="#2EB12D" fill-rule="nonzero"/><path d="M44.69 14.057c8.633 0 15.635 7.005 15.635 15.643 0 8.639-7.002 15.644-15.635 15.644-8.634 0-15.636-7.005-15.636-15.644 0-8.638 7.002-15.643 15.636-15.643" fill="#2EB12D" fill-rule="nonzero"/><g transform="translate(24 9)"><use fill="#000" filter="url(#a)" xlink:href="#b"/><use fill="#FFF" xlink:href="#b"/></g><g transform="rotate(-1 549.149 -1349.064)"><use fill="#000" filter="url(#c)" xlink:href="#d"/><use fill="#FFF" xlink:href="#d"/></g></g></svg>