<svg width="83" height="80" xmlns="http://www.w3.org/2000/svg"><g fill="none" fill-rule="evenodd"><path d="m83 80-1.373-.01C36.873 79.29.73 44.447.011 1.31L0 0h71.933C78.045 0 83 4.776 83 10.667V80z" fill="#DCF1FF" fill-rule="nonzero"/><path d="m44.337 55-.024-.026a2.4 2.4 0 0 0-.32-.265l-.243-.167a9.605 9.605 0 0 0-.29-.182l-.33-.194a14.227 14.227 0 0 0-.76-.398c-1.305-.634-2.767-1.134-4.07-1.353l-.573-.1-.54-.104-.508-.11c-2.782-.638-3.997-1.588-3.997-3.827 0-.866.182-1.527.515-2.124l.083-.142.11-.176-.018-.01a1.41 1.41 0 0 1-.68-1.044l-.009-.141a1.307 1.307 0 0 1 .026-.276l.013-.05-.533-.546-.095-.107a1.437 1.437 0 0 1-.237-1.334l.453-1.393-.148-.062C30.85 40.282 30 39.416 30 38.18l.004-.105c.023-.336.15-.808.37-1.395l.158-.409.185-.441.21-.474.114-.248.246-.519.268-.547.442-.873.321-.613.517-.967.556-1.016.501-.897-.059-.363c-.155-1.048-.258-2.384-.258-3.98 0-2.405 1.583-5.939 4.15-8.69a17.096 17.096 0 0 1 7.62-4.753M68.496 27.17c0 2.68-.639 5.042-2.179 8.286l-.332.684c-.115.232-.234.47-.358.711l-.384.742-.412.773-.44.809-.468.845-.862 1.546-.51.94-.217.412-.193.377-.245.503-.137.297-.115.27a7.884 7.884 0 0 0-.05.125l-.085.232-.067.21c-.019.066-.035.13-.048.19l-.032.17a1.62 1.62 0 0 0-.017.23c0 1.004.86 2.703 2.08 4.501l.376.542.395.544" stroke="#2D3666" stroke-width="1.268" stroke-linecap="round" stroke-linejoin="bevel"/><g transform="translate(38.954 7)"><path d="M31.046 9.772V8.1c0-.446-.323-.826-.732-.893l-.668-.111a.852.852 0 0 1-.689-.58 8.835 8.835 0 0 0-.28-.67.93.93 0 0 1 .086-.914l.41-.558a.909.909 0 0 0-.087-1.16l-1.14-1.183a.832.832 0 0 0-1.12-.089l-.539.424a.846.846 0 0 1-.883.09c-.215-.112-.43-.202-.646-.29a.868.868 0 0 1-.56-.715L24.091.76A.87.87 0 0 0 23.229 0h-1.615a.889.889 0 0 0-.86.759l-.109.691a.868.868 0 0 1-.56.714c-.215.09-.43.179-.645.29a.846.846 0 0 1-.883-.089l-.538-.424a.832.832 0 0 0-1.12.09l-1.141 1.182a.909.909 0 0 0-.087 1.16l.41.558a.93.93 0 0 1 .086.914c-.108.224-.194.447-.28.67a.852.852 0 0 1-.69.58l-.667.111c-.43.067-.732.447-.732.893v1.673c0 .446.323.826.732.893l.668.111a.852.852 0 0 1 .689.58c.086.223.172.446.28.67a.93.93 0 0 1-.086.914l-.41.558a.909.909 0 0 0 .087 1.16l1.14 1.183a.832.832 0 0 0 1.12.089l.539-.424a.846.846 0 0 1 .883-.09c.215.112.43.202.646.29.301.112.516.38.56.715l.107.691a.87.87 0 0 0 .861.759h1.615c.431 0 .797-.335.862-.759l.107-.691a.868.868 0 0 1 .56-.714c.216-.09.43-.179.646-.29a.846.846 0 0 1 .883.09l.538.423a.832.832 0 0 0 1.12-.09l1.141-1.182a.909.909 0 0 0 .086-1.16l-.409-.558a.93.93 0 0 1-.086-.914c.108-.224.194-.447.28-.67a.852.852 0 0 1 .69-.58l.667-.111c.43-.067.732-.447.732-.893z" fill="#FFF" fill-rule="nonzero"/><path d="M24.147 18.825v2.327c0 .62-.45 1.153-1.027 1.241l-.941.133c-.45.067-.813.377-.962.82a7.35 7.35 0 0 1-.385.953 1.341 1.341 0 0 0-.107.71c.021.22.107.42.235.598l.556.797c.214.288.278.643.214.975a1.17 1.17 0 0 1-.342.665l-1.583 1.64c-.192.2-.406.31-.642.355a1.142 1.142 0 0 1-.92-.222l-.77-.576a1.03 1.03 0 0 0-.534-.222c-.235-.044-.47 0-.706.111-.3.155-.599.266-.92.399a1.22 1.22 0 0 0-.79.997l-.13.975a1.214 1.214 0 0 1-1.197 1.064H10.95a1.2 1.2 0 0 1-.898-.421 1.347 1.347 0 0 1-.3-.665l-.128-.975c-.02-.2-.106-.377-.213-.554-.15-.2-.343-.355-.578-.443-.15-.045-.3-.111-.449-.177-.15-.067-.3-.133-.47-.222a1.152 1.152 0 0 0-1.241.133l-.77.576c-.47.377-1.155.31-1.583-.11l-1.582-1.64a1.222 1.222 0 0 1-.343-.82 1.172 1.172 0 0 1 .236-.798l.556-.798c.278-.377.32-.864.128-1.285-.15-.31-.257-.621-.385-.953a1.198 1.198 0 0 0-.962-.82l-.941-.133C.427 22.37 0 21.84 0 21.219v-2.327c0-.62.45-1.153 1.027-1.241l.94-.133c.45-.067.813-.377.963-.82a7.35 7.35 0 0 1 .385-.953c.193-.421.15-.909-.128-1.285l-.556-.798a1.31 1.31 0 0 1 .107-1.64l1.582-1.64a1.174 1.174 0 0 1 1.583-.11l.77.575c.364.289.834.333 1.24.133.3-.155.6-.265.92-.398a1.22 1.22 0 0 0 .791-.998l.129-.975a1.214 1.214 0 0 1 1.197-1.063h2.246c.342 0 .642.133.856.376 0 .045-.022.111-.022.155V9.74c0 .444.321.82.728.887l.598.089h.065a.925.925 0 0 1 .342.132c.15.111.278.266.342.444.085.221.171.443.278.665.128.31.107.642-.086.908l-.406.554a.902.902 0 0 0 .086 1.152l1.133 1.175c.3.31.77.355 1.112.089l.535-.421a.84.84 0 0 1 .877-.089c.214.11.428.2.642.288a.978.978 0 0 1 .491.443.439.439 0 0 1 .065.222v.022l.107.687a.863.863 0 0 0 .855.753H23.462c.086.045.171.111.257.178.278.221.428.554.428.908z" fill="#FFF" fill-rule="nonzero"/><path d="M24.147 18.738v2.92c0 .42-.299.797-.704.84l-.939.134a1.6 1.6 0 0 0-1.258 1.084c-.107.31-.235.62-.363.907a1.67 1.67 0 0 0-.15.464c-.17 1.04.811 1.682 1.003 2.345.085.244.043.51-.213.775-1.707 1.77-1.728 1.902-2.176 1.902-.064 0-.128 0-.17-.022a.714.714 0 0 1-.32-.155l-.769-.597a1.48 1.48 0 0 0-.938-.332c-.064 0-.128 0-.214.022-.17.022-.34.067-.49.155-.278.133-.576.266-.875.376-1.77.664-.512 3.009-2.005 3.009H10.75a.793.793 0 0 1-.704-.42.54.54 0 0 1-.107-.31c-.085-.642-.106-1.35-.533-1.858a1.378 1.378 0 0 0-.64-.42c-.17-.067-.277-.134-.384-.2-.085-.044-.17-.11-.298-.177-1.707-.84-2.603 1.549-3.67.465l-1.472-1.372-.298-.288c-.235-.243-.299-.486-.235-.752.17-.818 1.515-1.703.875-3.053a11.356 11.356 0 0 1-.363-.907c-.64-1.836-2.154-.133-2.154-1.681v-2.323c0-1.527 2.282-.221 2.9-2.08.534-1.57 1.003-1.482-.362-3.385-.235-.332-.213-.818.085-1.106 1.707-1.77 1.728-1.902 2.176-1.902.704 0 1.13 1.084 2.198 1.084.533 0 .64-.2 1.557-.531.554-.2.96-.708 1.045-1.306l.128-.973c.064-.42.405-.73.81-.73h1.771v1.394c0 .929.662 1.725 1.536 1.858l.619.088.256.664-.363.509c-.533.73-.448 1.792.17 2.434l1.131 1.172c.342.354.79.553 1.28.553.384 0 .768-.133 1.067-.376l.49-.376c.214.11.427.2.64.265l.086.642c.128.907.896 1.593 1.792 1.593h1.6c.256 0 .49-.066.725-.155.043.089.043.11.043.133z" fill="#B8D9FF" fill-rule="nonzero"/><path d="M31.046 9.772V8.1c0-.446-.323-.826-.732-.893l-.668-.111a.852.852 0 0 1-.689-.58 8.835 8.835 0 0 0-.28-.67.93.93 0 0 1 .086-.914l.41-.558a.909.909 0 0 0-.087-1.16l-1.14-1.183a.832.832 0 0 0-1.12-.089l-.539.424a.846.846 0 0 1-.883.09c-.215-.112-.43-.202-.646-.29a.868.868 0 0 1-.56-.715L24.091.76A.87.87 0 0 0 23.229 0h-1.615a.889.889 0 0 0-.86.759l-.109.691a.868.868 0 0 1-.56.714c-.215.09-.43.179-.645.29a.846.846 0 0 1-.883-.089l-.538-.424a.832.832 0 0 0-1.12.09l-1.141 1.182a.909.909 0 0 0-.087 1.16l.41.558a.93.93 0 0 1 .086.914c-.108.224-.194.447-.28.67a.852.852 0 0 1-.69.58l-.667.111c-.43.067-.732.447-.732.893v1.673c0 .446.323.826.732.893l.668.111a.852.852 0 0 1 .689.58c.086.223.172.446.28.67a.93.93 0 0 1-.086.914l-.41.558a.909.909 0 0 0 .087 1.16l1.14 1.183a.832.832 0 0 0 1.12.089l.539-.424a.846.846 0 0 1 .883-.09c.215.112.43.202.646.29.301.112.516.38.56.715l.107.691a.87.87 0 0 0 .861.759h1.615c.431 0 .797-.335.862-.759l.107-.691a.868.868 0 0 1 .56-.714c.216-.09.43-.179.646-.29a.846.846 0 0 1 .883.09l.538.423a.832.832 0 0 0 1.12-.09l1.141-1.182a.909.909 0 0 0 .086-1.16l-.409-.558a.93.93 0 0 1-.086-.914c.108-.224.194-.447.28-.67a.852.852 0 0 1 .69-.58l.667-.111c.43-.067.732-.447.732-.893z" fill="#FFF" fill-rule="nonzero"/><path d="M31.046 10.135V8.151c0-.423-.3-.78-.709-.847l-.644-.09a.864.864 0 0 1-.666-.557c-.086-.222-.172-.044-.258-.245-.129-.29-.258-.78-.064-1.048l.193-.802c.236-.335.558-.401.258-.691l-1.074-1.115a.822.822 0 0 0-1.074-.09l-.516.402c-.236.2-.58.223-.859.09-.193-.09-.408-.179-.623-.268a.85.85 0 0 1-.536-.691l-.086-.669c-.065-.424-.408-.736-.817-.736h-1.524c-.409 0-.752.312-.817.736l-.086.669a.882.882 0 0 1-.536.69c-.215.09-.43.18-.623.268a.805.805 0 0 1-.86-.089l-.515-.401a.797.797 0 0 0-1.074.09L16.462 3.87a.902.902 0 0 0-.086 1.114l.387.535c.193.246.215.602.086.892-.086.2-.172.424-.258.647a.832.832 0 0 1-.666.557l-.644.09a.852.852 0 0 0-.709.846v1.984c0 .424-.086.201.322.246l.645.089c.3.044-.022.067.086.357.086.223.171.044.257.245.13.29.494 1.226.301 1.471l-.387.535c-.236.335-.214.825.086 1.115l1.268 1.315c.279.29.365.134.687-.111l.902-.402c.236-.2.945-.022 1.224.112.193.09.022 0 .236.067a.85.85 0 0 1 .537.69l.086.67c.065.423.795.936 1.203.936h1.525c.408 0 .752-.312.816-.736l.086-.668a.882.882 0 0 1 .537-.692c.215-.089.43-.178.623-.267a.805.805 0 0 1 .859.09l.515.4a.797.797 0 0 0 1.074-.089l1.074-1.114c.28-.29.322-.78.086-1.115l-.386-.535c-.194-.245-.215-.602-.086-.892.086-.2.171-.423.257-.646a.832.832 0 0 1 .666-.558l.645-.089c.43-.022.73-.401.73-.825z" fill="#96C5FF" fill-rule="nonzero"/><ellipse fill="#DCF1FF" fill-rule="nonzero" cx="22.614" cy="8.737" rx="3.066" ry="3.177"/><path d="M22.329 5.583c.087 0 .197-.023.285-.023 1.686 0 3.066 1.43 3.066 3.177s-1.38 3.177-3.066 3.177c-1.687 0-3.067-1.43-3.067-3.177 0-.704.22-1.362.592-1.884" stroke="#2D3666" stroke-width="1.071" stroke-linecap="round" stroke-linejoin="round"/><path d="M26.287 2.365a.846.846 0 0 1-.883.09c-.215-.112-.43-.202-.646-.29a.868.868 0 0 1-.56-.715L24.091.76A.87.87 0 0 0 23.229 0h-1.615a.889.889 0 0 0-.86.759l-.109.691a.868.868 0 0 1-.56.714c-.215.09-.43.179-.645.29a.846.846 0 0 1-.883-.089l-.538-.424a.832.832 0 0 0-1.12.09l-1.141 1.182a.909.909 0 0 0-.087 1.16l.41.558a.93.93 0 0 1 .086.914c-.108.224-.194.447-.28.67a.852.852 0 0 1-.69.58l-.667.111c-.43.067-.732.447-.732.893v1.673c0 .446.323.826.732.893l.668.111a.852.852 0 0 1 .689.58c.086.223.172.446.28.67a.93.93 0 0 1-.086.914l-.41.558a.909.909 0 0 0 .087 1.16l1.14 1.183a.832.832 0 0 0 1.12.089l.539-.424a.846.846 0 0 1 .883-.09c.215.112.43.202.646.29.301.112.516.38.56.715l.107.691a.87.87 0 0 0 .861.759h1.615c.431 0 .797-.335.862-.759l.107-.691a.868.868 0 0 1 .56-.714c.216-.09.43-.179.646-.29a.846.846 0 0 1 .883.09l.538.423a.832.832 0 0 0 1.12-.09l1.141-1.182a.909.909 0 0 0 .086-1.16l-.409-.558a.93.93 0 0 1-.086-.914c.108-.224.194-.447.28-.67a.852.852 0 0 1 .69-.58l.667-.111c.43-.067.732-.447.732-.893V8.1c0-.446-.323-.826-.732-.893l-.668-.111a.852.852 0 0 1-.689-.58 8.835 8.835 0 0 0-.28-.67.93.93 0 0 1 .086-.914l.41-.558a.909.909 0 0 0-.087-1.16l-1.14-1.183a.895.895 0 0 0-.647-.267" stroke="#2D3666" stroke-width="1.071" stroke-linecap="round" stroke-linejoin="round"/><path d="M8.928 16.73a4.118 4.118 0 0 1 2.954-1.242c2.332 0 4.216 1.952 4.216 4.369s-1.884 4.368-4.216 4.368c-2.333 0-4.216-1.951-4.216-4.368 0-1.22.47-2.329 1.262-3.127" fill="#DCF1FF" fill-rule="nonzero"/><path d="M7.282 25.417c-1.417-1.35-2.3-3.24-2.3-5.31 0-.923.186-1.823.488-2.633M9.582 27.005a5.49 5.49 0 0 1-.767-.397M18.78 22.24c-.091.41-.23.82-.383 1.19M11.498 12.737c.213-.029.448-.029.66-.029.703 0 1.385.142 2.023.397M8.95 13.344c.038-.04.076-.04.115-.08M6.9 14.694a6.91 6.91 0 0 1 1.915-1.191" stroke="#96C5FF" stroke-width="1.071" stroke-linecap="round" stroke-linejoin="round"/><path d="M10.79 15.643a4.477 4.477 0 0 1 1.092-.155c2.332 0 4.216 1.952 4.216 4.369s-1.884 4.368-4.216 4.368c-2.333 0-4.216-1.951-4.216-4.368 0-.799.214-1.553.556-2.196M4.6 10.128c.38-.155.823-.11 1.16.156l.761.58c.36.289.824.333 1.225.133.296-.156.591-.267.908-.401.422-.156.718-.534.781-1.002l.127-.98c.084-.623.591-1.068 1.183-1.068h1.52M3.584 11.378l.115-.119" stroke="#2D3666" stroke-width="1.071" stroke-linecap="round" stroke-linejoin="round"/><path d="M21.847 22.648a1.19 1.19 0 0 0-.641.729c-.107.331-.235.64-.385.95-.107.22-.128.463-.107.706.021.221.107.42.235.597l.556.795c.214.287.278.64.214.972-.043.243-.15.486-.342.662l-1.582 1.635c-.193.198-.406.309-.641.353a1.144 1.144 0 0 1-.92-.22l-.77-.575a1.031 1.031 0 0 0-.534-.22 1.14 1.14 0 0 0-.705.11c-.3.154-.599.265-.92.397-.427.155-.726.53-.79.994l-.128.972a1.212 1.212 0 0 1-1.198 1.06h-2.244a1.2 1.2 0 0 1-.898-.42 1.34 1.34 0 0 1-.3-.662l-.127-.972c-.022-.199-.107-.376-.214-.552 0 0 0 0 0 0a1.287 1.287 0 0 0-.577-.442c-.15-.044-.3-.11-.45-.177-.149-.066-.299-.132-.47-.22a1.154 1.154 0 0 0-1.24.132l-.769.574c-.47.376-1.154.31-1.582-.11L2.736 28.08a1.216 1.216 0 0 1-.342-.817 1.165 1.165 0 0 1 .235-.795l.556-.795c.278-.376.32-.862.128-1.281-.15-.31-.256-.619-.384-.95a1.196 1.196 0 0 0-.962-.817l-.94-.133C.426 22.405 0 21.875 0 21.256v-2.319c0-.618.449-1.148 1.026-1.237l.94-.132c.45-.066.813-.376.963-.817.106-.332.235-.64.384-.95.193-.42.15-.906-.128-1.281l-.556-.795c-.299-.42-.32-.994-.042-1.414M24.112 18.665c.017.092.035.206.035.32v2.396c0 .617-.314 1.119-.767 1.256" stroke="#2D3666" stroke-width="1.071" stroke-linecap="round" stroke-linejoin="round"/></g></g></svg>