<svg width="83" height="80" xmlns="http://www.w3.org/2000/svg" xmlns:xlink="http://www.w3.org/1999/xlink"><defs><filter x="-15.9%" y="-10%" width="131.8%" height="128%" filterUnits="objectBoundingBox" id="a"><feOffset dy="2" in="SourceAlpha" result="shadowOffsetOuter1"/><feGaussianBlur stdDeviation="2" in="shadowOffsetOuter1" result="shadowBlurOuter1"/><feColorMatrix values="0 0 0 0 0.727779665 0 0 0 0 0.531643071 0 0 0 0 0.194453629 0 0 0 0.5 0" in="shadowBlurOuter1"/></filter><path d="M43.464 13.268c2.743 13.213-5.848 16.425-7.496 22.909-1.22 4.82.384 8.354 1.314 10.229.274.56.011 1.237-.569 1.447-9.86 3.573-18.018 1.853-20.838.755a1.988 1.988 0 0 1-1.26-1.72 19.23 19.23 0 0 1-.037-1.264c0-3.872-3.17-3.584-4.572-3.273-1.402.305-5.667.865-5.667-3.212 0-3.9.362-8.154-1.533-8.764-.186-.061-1.604-.627-1.84-.688a1.32 1.32 0 0 1-.886-1.725c.733-2.014 3.427-5.453 4.434-7.023.318-.504.422-1.12.252-1.691C2.593 11.826 9.141 2.956 17.381.793 25.33-1.293 40.72.05 43.464 13.268" id="b"/></defs><g fill="none" fill-rule="evenodd"><path d="M78 0a5 5 0 0 1 5 5v75l-1.373-.01C36.873 79.29.73 44.447.011 1.31L0 0Z" fill="#FFBE00" fill-rule="nonzero"/><g fill-rule="nonzero" transform="translate(28 8)"><use fill="#000" filter="url(#a)" xlink:href="#b"/><use fill="#FFF" xlink:href="#b"/></g><path d="M63.42 18.256a.783.783 0 0 1-.3 1.06.775.775 0 0 1-1.046-.305c-1.396-2.574-4.522-1.06-4.654-1a.758.758 0 0 1-1.029-.354.787.787 0 0 1 .35-1.043c.312-.15.696-.3 1.117-.416-.093-.405-.257-.948-.542-1.414a.781.781 0 0 1 .247-1.071.758.758 0 0 1 1.056.25c.422.687.652 1.47.761 2.002 1.468-.039 3.055.477 4.04 2.291M58.22 35.03c.679.327 1.571.255 2.639-.216a.77.77 0 0 1 1.013.41.775.775 0 0 1-.406 1.02c-.826.361-1.598.544-2.31.544a3.67 3.67 0 0 1-1.615-.36c-1.544-.755-2.004-2.413-2.02-2.485a.771.771 0 0 1 .536-.954c.41-.111.832.127.942.543.01.034.317 1.065 1.22 1.498M58.335 27.07c.257.31.602.477 1.062.516.421.033.739.41.706.838a.77.77 0 0 1-.766.715h-.06c-1.419-.11-2.453-1.032-2.837-2.518a4.725 4.725 0 0 1-.12-.605c-2.612-.4-3.69-2.673-3.898-3.922a.782.782 0 0 1 .63-.898.77.77 0 0 1 .886.638c.022.11.504 2.657 3.154 2.69a.769.769 0 0 1 .739.949c-.006.216.055 1.054.504 1.597M50.62 14.29a.79.79 0 0 1 .488-.987.77.77 0 0 1 .974.493c.45 1.37.367 2.557-.252 3.54-1.117 1.763-3.58 2.057-3.684 2.068a.773.773 0 0 1-.849-.688.78.78 0 0 1 .679-.86c.038-.005 1.845-.232 2.562-1.37.356-.565.383-1.286.082-2.196M49.367 25.578a.78.78 0 0 1-.723 1.048.779.779 0 0 1-.723-.51c-.63-1.747-.224-3.838 1.019-5.209a.769.769 0 0 1 1.089-.044.786.786 0 0 1 .044 1.098c-.865.954-1.15 2.402-.706 3.617" fill="#FFF"/><path d="M49.602 36.052c1.21-.021 1.402-.185 1.853-1.2.413-.933 1.335-1.795 2.687-2.623 1.584-.954 2.817-1.942 3.617-3.043.84-1.102 1.242-2.679 1.208-4.65-.097-5.515-2.827-7.601-8.565-7.5-.898.015-1.833.112-2.883.331-1.362.306-1.668.633-1.645 1.962l.012.724c.024 1.328.38 1.644 1.663 1.3 1.05-.26 2.023-.398 2.96-.414 3.123-.055 4.31.81 4.36 3.668.025 1.489-.695 2.71-1.426 3.326-.347.288-.925.7-1.736 1.238-2.7 1.859-4.112 3.736-4.197 5.589-.022.967.413 1.321 1.662 1.3l.43-.008ZM49.544 44a2.494 2.494 0 0 0 2.455-2.563A2.486 2.486 0 0 0 49.456 39 2.486 2.486 0 0 0 47 41.525 2.494 2.494 0 0 0 49.544 44Z" fill="#FFBE00"/></g></svg>