<svg width="60" height="60" xmlns="http://www.w3.org/2000/svg" xmlns:xlink="http://www.w3.org/1999/xlink"><defs><path d="m60 60-.992-.008C26.655 59.467.528 33.336.008.982L0 0h52a8 8 0 0 1 8 8v52z" id="b"/><path id="c" d="M0 0h1.274v1.276H0z"/><filter x="-13.3%" y="-6.7%" width="126.7%" height="126.7%" filterUnits="objectBoundingBox" id="a"><feOffset dy="4" in="SourceAlpha" result="shadowOffsetOuter1"/><feGaussianBlur stdDeviation="2" in="shadowOffsetOuter1" result="shadowBlurOuter1"/><feColorMatrix values="0 0 0 0 0.533333333 0 0 0 0 0.745098039 0 0 0 0 1 0 0 0 0.2 0" in="shadowBlurOuter1"/></filter></defs><g fill="none" fill-rule="evenodd"><g fill-rule="nonzero" transform="translate(4)"><use fill="#000" filter="url(#a)" xlink:href="#b"/><use fill="#C4E6FF" xlink:href="#b"/></g><path fill="#E8F3FF" d="M54.628 35.707v3.19H30.416v-5.742H52.08z"/><path fill="#FFF" d="M54.628 35.707v3.19h-3.185v-3.19l-2.55-2.552h3.187z"/><path d="M55.265 24.224c0 3.164-1.153 6.064-3.064 8.293h-.759l-1.401-1.403L44.522 25c.513-.65 1.39-.08 1.39-.977 0-.896.127-1.518-.386-2.169l6.318-6.325a12.719 12.719 0 0 1 3.421 8.695z" fill="#5B94FF" fill-rule="nonzero"/><path d="m50.977 15.16-.745.746-6.318 6.325a3.824 3.824 0 0 0-6.827 2.37 3.826 3.826 0 0 0 2.479 3.585 3.824 3.824 0 0 1 3.578-5.177c1.22 0 1.768 1.107 2.468 1.993l.733-.733v-.045c0-.896-.306-1.72-.819-2.37l6.22-6.227c-.25-.164-.507-.32-.769-.468m1.248.798c.374.44.719.904 1.031 1.392l.299-.298a13.518 13.518 0 0 0-1.33-1.094" fill="#9AE0E6"/><path d="M45.526 21.854c.513.65 0 1.793 0 2.69v.594l6.94-6.997.79-.792a12.83 12.83 0 0 0-1.031-1.392 13.702 13.702 0 0 0-.48-.33l-6.219 6.227z" fill="#3D68FF"/><path d="m52.933 14.438-1.09 1.091-6.317 6.325a3.824 3.824 0 0 0-6.827 2.37 3.824 3.824 0 0 0 6.827 2.37l4.515 4.52 1.402 1.403H30.416V24.224c0-7.4 5.99-13.396 13.38-13.396a13.32 13.32 0 0 1 9.137 3.61" fill="#E8F3FF"/><path d="m52.933 14.438-.344.345a13.302 13.302 0 0 0-6.56-1.72c-7.39 0-13.38 5.997-13.38 13.397V38.26h-2.233V24.224c0-7.4 5.99-13.396 13.38-13.396a13.32 13.32 0 0 1 9.137 3.61" fill="#88BEFF"/><path d="M41.248 24.224c0-.705.57-1.276 1.274-1.276.516 0 .962.31 1.16.753a1.255 1.255 0 0 1 0 1.046 1.27 1.27 0 0 1-1.16.753c-.704 0-1.274-.57-1.274-1.276zm1.274-3.827a3.824 3.824 0 0 0-3.823 3.827 3.824 3.824 0 0 0 7.109 1.96c.341-.572-.487-1.197-.487-1.915 0-.896.718-1.764.205-2.415a3.82 3.82 0 0 0-3.004-1.457z" fill="#E8F3FF"/><path d="M43.682 23.701a1.27 1.27 0 0 0-1.16-.753 1.275 1.275 0 1 0 1.274 1.276c0-.185-.04-.363-.114-.523" fill="#E8F3FF"/><path d="M29.779 33.793v-9.569c0-7.739 6.288-14.034 14.017-14.034 3.57 0 6.97 1.343 9.573 3.783a.639.639 0 0 1-.871.931 12.681 12.681 0 0 0-8.702-3.438c-7.026 0-12.743 5.723-12.743 12.758v9.57a.638.638 0 1 1-1.274 0z" fill="#2D3666"/><path d="M45.23 22.8a.66.66 0 0 1-.467-1.128l7.68-7.678a.66.66 0 0 1 .934.934l-7.68 7.679a.658.658 0 0 1-.466.193M51.37 33.155a.668.668 0 0 1-.5-.233l-6.583-7.406a.869.869 0 0 1 0-1.127.654.654 0 0 1 1.003 0l6.582 7.405a.87.87 0 0 1 0 1.128.668.668 0 0 1-.501.233" fill="#2D3666"/><path d="M44.522 22.586a.638.638 0 0 0 0 1.276c.25 0 .476-.147.578-.375a.62.62 0 0 0 .003-.52l-.003-.006a.633.633 0 0 0-.578-.375m0 2.552a1.915 1.915 0 0 1 0-3.828c.75 0 1.433.443 1.74 1.128.112.245.172.517.172.786 0 .271-.06.544-.174.79a1.906 1.906 0 0 1-1.738 1.124M52.2 33.155a.639.639 0 0 1-.483-1.054 12.107 12.107 0 0 0 2.911-7.877c0-3.077-1.154-6.01-3.25-8.26a.638.638 0 0 1 .932-.87 13.351 13.351 0 0 1 3.593 9.13c0 3.195-1.143 6.288-3.219 8.709a.636.636 0 0 1-.484.222" fill="#2D3666"/><path d="M31.053 38.259h22.938V35.97l-2.175-2.178H31.053v4.466zm23.575 1.276H30.416a.638.638 0 0 1-.637-.638v-5.742c0-.352.285-.638.637-.638H52.08c.169 0 .33.068.45.187l2.549 2.552c.12.12.187.282.187.45v3.19a.638.638 0 0 1-.638.639z" fill="#2D3666"/><path d="M47.62 36.664h-5.098a.638.638 0 0 1 0-1.276h5.097a.638.638 0 0 1 0 1.276M50.805 36.664h-.637a.638.638 0 0 1 0-1.276h.637a.638.638 0 0 1 0 1.276M51.652 28.626a.638.638 0 0 1-.589-.882c.078-.186.149-.376.212-.565a.637.637 0 1 1 1.208.407 10.5 10.5 0 0 1-.241.645.638.638 0 0 1-.59.395M52.367 25.657c-.017 0-.034 0-.052-.002a.637.637 0 0 1-.584-.687 9.24 9.24 0 0 0-.613-4.137l-.035-.089 1.176-.49-.59.238.595-.225.04.098A10.513 10.513 0 0 1 53 25.07a.637.637 0 0 1-.634.587M34.876 35.627a.399.399 0 1 0 .002.798.399.399 0 0 0-.002-.798m0 1.914a1.516 1.516 0 0 1 0-3.03 1.516 1.516 0 0 1 0 3.03" fill="#2D3666"/><path d="M26.274 34.084a.34.34 0 0 1-.028.028c.01.009.02.018.028.029a.298.298 0 0 1 .029-.029.34.34 0 0 1-.029-.028" fill="#9AE0E6"/><path d="M26.274 32.836a.317.317 0 0 0-.302.218l-.188.567-.566.189a.318.318 0 0 0 0 .605l.565.189.19.566a.317.317 0 0 0 .603 0l.19-.566.565-.19a.318.318 0 0 0 0-.604l-.566-.19-.189-.566a.317.317 0 0 0-.302-.218m-.028 1.276a.298.298 0 0 0 .028-.028c.01.01.018.02.029.028a.298.298 0 0 0-.029.028.298.298 0 0 0-.028-.028" fill="#88BEFF" fill-rule="nonzero"/><path d="M57.496 15.584a.298.298 0 0 1-.029.028l.029.028a.34.34 0 0 1 .028-.028.397.397 0 0 1-.028-.028" fill="#9AE0E6"/><path d="M57.496 14.336a.318.318 0 0 0-.303.218l-.188.567-.566.188a.318.318 0 0 0 0 .606l.566.189.188.566a.318.318 0 0 0 .605 0l.188-.567.566-.188a.318.318 0 0 0 0-.606l-.566-.188-.188-.567a.317.317 0 0 0-.302-.218m-.029 1.276a.397.397 0 0 0 .029-.028.34.34 0 0 0 .028.028.265.265 0 0 0-.028.028.397.397 0 0 0-.029-.028" fill="#88BEFF" fill-rule="nonzero"/><path d="m27.867 11.836-.016.05a.32.32 0 0 1-.201.201l-.05.016.05.017a.32.32 0 0 1 .2.201l.017.05.016-.05a.32.32 0 0 1 .202-.201l.05-.017-.05-.016a.32.32 0 0 1-.202-.202l-.016-.049" fill="#EFFFD8"/><path d="M27.867 10.509a.317.317 0 0 0-.302.218l-.268.805-.805.269a.318.318 0 0 0 0 .605l.805.269.268.805a.317.317 0 0 0 .605 0l.268-.805.804-.269a.318.318 0 0 0 0-.605l-.804-.269-.268-.805a.318.318 0 0 0-.303-.218m-.016 1.376.016-.049.016.05c.032.094.107.17.202.2l.05.017-.05.017a.32.32 0 0 0-.202.202l-.016.049-.016-.05a.32.32 0 0 0-.201-.201l-.05-.017.05-.016a.32.32 0 0 0 .2-.202" fill="#C4E6FF" fill-rule="nonzero"/><path d="m57.814 32.25-.016.05a.32.32 0 0 1-.202.2l-.049.017.05.017a.32.32 0 0 1 .2.202l.017.049.016-.05a.32.32 0 0 1 .202-.201l.05-.017-.05-.016a.32.32 0 0 1-.202-.202l-.016-.049" fill="#EFFFD8"/><path d="M57.814 30.922a.317.317 0 0 0-.302.218l-.268.806-.805.269a.318.318 0 0 0 0 .605l.805.268.268.806a.317.317 0 0 0 .604 0l.268-.806.805-.268a.318.318 0 0 0 0-.605l-.805-.269-.268-.806a.317.317 0 0 0-.302-.218m-.016 1.377.016-.049.016.05a.32.32 0 0 0 .202.201l.05.016-.05.017a.32.32 0 0 0-.202.201l-.016.05-.016-.05a.32.32 0 0 0-.202-.201l-.049-.017.05-.016a.32.32 0 0 0 .2-.202M43.16 7a.638.638 0 1 0 0 1.275.638.638 0 0 0 0-1.275M33.602 42.724A.638.638 0 1 0 33.603 44a.638.638 0 0 0-.001-1.276M53.354 40.81a.638.638 0 1 0 .001 1.276.638.638 0 0 0-.001-1.276" fill="#88BEFF" fill-rule="nonzero"/><g transform="translate(59.726 20.397)"><mask id="d" fill="#fff"><use xlink:href="#c"/></mask><path d="M.637 0a.637.637 0 1 0 0 1.275.637.637 0 0 0 0-1.275" fill="#88BEFF" fill-rule="nonzero" mask="url(#d)"/></g><path d="M24.593 24.672a.637.637 0 1 0 0 1.275.637.637 0 0 0 0-1.275" fill="#88BEFF" fill-rule="nonzero"/><g><path d="M36.37 5.167a1.198 1.198 0 0 1-1.238.115c-.297-.131-.594-.263-.907-.379a1.212 1.212 0 0 1-.792-.957l-.132-.923A1.192 1.192 0 0 0 32.113 2h-2.226c-.594 0-1.106.429-1.188 1.023l-.132.923a1.184 1.184 0 0 1-.792.957c-.313.116-.61.231-.907.38a1.198 1.198 0 0 1-1.237-.116l-.759-.56a1.186 1.186 0 0 0-1.567.115l-1.583 1.583a1.205 1.205 0 0 0-.116 1.567l.561.759c.264.363.313.841.115 1.237-.131.297-.263.594-.379.907a1.212 1.212 0 0 1-.957.792l-.923.132A1.192 1.192 0 0 0 19 12.887v2.226c0 .594.429 1.106 1.023 1.188l.923.132c.446.066.809.363.957.792.116.313.231.61.38.907.197.396.148.874-.116 1.237l-.56.759a1.186 1.186 0 0 0 .115 1.567l1.583 1.583a1.205 1.205 0 0 0 1.567.116l.759-.561a1.198 1.198 0 0 1 1.237-.115c.297.131.594.263.907.379.413.148.726.511.792.957l.132.923A1.192 1.192 0 0 0 29.887 26h2.226c.594 0 1.106-.429 1.188-1.023l.132-.923c.066-.446.363-.809.792-.957.313-.116.61-.231.907-.38a1.198 1.198 0 0 1 1.237.116l.759.56a1.186 1.186 0 0 0 1.567-.115l1.583-1.583a1.205 1.205 0 0 0 .116-1.567l-.561-.759a1.198 1.198 0 0 1-.115-1.237c.131-.297.263-.594.379-.907.148-.413.511-.726.957-.792l.923-.132A1.192 1.192 0 0 0 43 15.113V12.87c0-.594-.429-1.105-1.023-1.188l-.923-.131a1.184 1.184 0 0 1-.957-.792 8.766 8.766 0 0 0-.38-.907 1.198 1.198 0 0 1 .116-1.238l.56-.758a1.186 1.186 0 0 0-.115-1.567l-1.583-1.584a1.19 1.19 0 0 0-.907-.346l-1.419.808z" fill="#C4E6FF"/><g transform="translate(22.273 5.273)"><path d="M17.443 9.53V7.912a.866.866 0 0 0-.744-.863l-.671-.096a.86.86 0 0 1-.695-.575 6.37 6.37 0 0 0-.276-.66.871.871 0 0 1 .084-.899l.407-.551a.862.862 0 0 0-.083-1.14l-1.151-1.15a.876.876 0 0 0-1.14-.084l-.55.408a.871.871 0 0 1-.9.084 10.857 10.857 0 0 0-.66-.276.881.881 0 0 1-.574-.695l-.096-.672A.866.866 0 0 0 9.53 0H7.912a.866.866 0 0 0-.863.743l-.096.672a.86.86 0 0 1-.575.695 6.37 6.37 0 0 0-.66.276.871.871 0 0 1-.899-.084l-.551-.408a.862.862 0 0 0-1.14.084l-1.15 1.15a.876.876 0 0 0-.084 1.14l.408.551a.871.871 0 0 1 .084.9c-.096.215-.192.43-.276.659a.881.881 0 0 1-.695.575l-.672.096A.866.866 0 0 0 0 7.912V9.53c0 .432.312.804.743.864l.672.096a.86.86 0 0 1 .695.575c.084.228.168.443.276.66a.871.871 0 0 1-.084.898l-.408.552a.862.862 0 0 0 .084 1.139l1.15 1.15a.876.876 0 0 0 1.14.084l.551-.407a.871.871 0 0 1 .9-.084c.215.096.43.192.659.276.3.108.527.371.575.695l.096.671c.06.432.432.744.863.744H9.53a.866.866 0 0 0 .864-.744l.096-.671a.86.86 0 0 1 .575-.695 6.37 6.37 0 0 0 .66-.276.871.871 0 0 1 .898.084l.552.407a.862.862 0 0 0 1.139-.083l1.15-1.151a.876.876 0 0 0 .084-1.14l-.407-.55a.871.871 0 0 1-.084-.9c.096-.216.192-.431.276-.66a.881.881 0 0 1 .695-.574l.671-.096a.866.866 0 0 0 .744-.864z" fill="#FFF" fill-rule="nonzero"/><path d="M17.443 9.53V7.912a.866.866 0 0 0-.744-.863l-.671-.096a.86.86 0 0 1-.695-.575 6.37 6.37 0 0 0-.276-.66.871.871 0 0 1 .084-.899l.407-.551a.862.862 0 0 0-.083-1.14l-1.151-1.15a.876.876 0 0 0-1.14-.084l-.55.408a.871.871 0 0 1-.9.084 10.857 10.857 0 0 0-.66-.276.881.881 0 0 1-.574-.695l-.096-.672A.866.866 0 0 0 9.53 0H7.912a.866.866 0 0 0-.863.743l-.096.672a.86.86 0 0 1-.575.695 6.37 6.37 0 0 0-.66.276.871.871 0 0 1-.899-.084l-.551-.408a.862.862 0 0 0-1.14.084l-1.15 1.15a.876.876 0 0 0-.084 1.14l.408.551a.871.871 0 0 1 .084.9c-.096.215-.192.43-.276.659a.881.881 0 0 1-.695.575l-.672.096A.866.866 0 0 0 0 7.912V9.53c0 .432.312.804.743.864l.672.096a.86.86 0 0 1 .695.575c.084.228.168.443.276.66a.871.871 0 0 1-.084.898l-.408.552a.862.862 0 0 0 .084 1.139l1.15 1.15a.876.876 0 0 0 1.14.084l.551-.407a.871.871 0 0 1 .9-.084c.215.096.43.192.659.276.3.108.527.371.575.695l.096.671c.06.432.432.744.863.744H9.53a.866.866 0 0 0 .864-.744l.096-.671a.86.86 0 0 1 .575-.695 6.37 6.37 0 0 0 .66-.276.871.871 0 0 1 .898.084l.552.407a.862.862 0 0 0 1.139-.083l1.15-1.151a.876.876 0 0 0 .084-1.14l-.407-.55a.871.871 0 0 1-.084-.9c.096-.216.192-.431.276-.66a.881.881 0 0 1 .695-.574l.671-.096a.866.866 0 0 0 .744-.864z" fill="#FFF" fill-rule="nonzero"/><path d="M17.443 9.89V7.96c0-.408-.3-.767-.708-.827l-.647-.096a.805.805 0 0 1-.66-.551c-.071-.216-.167-.036-.263-.24-.132-.276-.252-.767-.072-1.02l.192-.766c.251-.336.563-.396.263-.684l-1.09-1.09a.853.853 0 0 0-1.091-.085l-.528.396a.858.858 0 0 1-.863.084c-.204-.096-.42-.18-.623-.264a.86.86 0 0 1-.552-.66l-.096-.647a.828.828 0 0 0-.827-.707H8.332c-.408 0-.768.3-.828.707l-.095.648a.805.805 0 0 1-.552.66c-.216.071-.42.167-.623.263a.833.833 0 0 1-.863-.084l-.528-.396a.826.826 0 0 0-1.09.084L2.66 3.776a.853.853 0 0 0-.084 1.091l.396.528c.18.251.216.575.084.863-.096.204-.18.42-.264.623a.86.86 0 0 1-.66.552l-.646.095a.828.828 0 0 0-.708.828v1.93c0 .407-.084.18.324.24l.647.095c.312.048-.024.06.084.36.072.216.168.036.264.24.132.276.491 1.187.3 1.438l-.396.528a.826.826 0 0 0 .084 1.09l1.283 1.295c.287.288.371.132.695-.12l.911-.395c.252-.18.971-.024 1.247.108.204.096.024-.012.24.072a.86.86 0 0 1 .551.66l.096.646c.06.408.791.912 1.21.912h1.547c.408 0 .767-.3.827-.708l.096-.647a.805.805 0 0 1 .552-.66c.215-.071.42-.167.623-.263a.833.833 0 0 1 .863.084l.528.395a.826.826 0 0 0 1.09-.084l1.091-1.09a.853.853 0 0 0 .084-1.091l-.395-.528A.858.858 0 0 1 15.14 12c.096-.204.18-.42.264-.623a.86.86 0 0 1 .659-.552l.647-.096c.432-.084.732-.431.732-.839z" fill="#E8F3FF" fill-rule="nonzero"/><circle fill="#C4E6FF" fill-rule="nonzero" cx="8.739" cy="8.727" r="3.033"/><path d="M12.635 2.314a.871.871 0 0 1-.899.084 10.857 10.857 0 0 0-.66-.276.881.881 0 0 1-.575-.695l-.095-.672a.866.866 0 0 0-.864-.743H7.924a.866.866 0 0 0-.863.743l-.096.672a.86.86 0 0 1-.575.695 6.37 6.37 0 0 0-.66.276.871.871 0 0 1-.899-.084l-.551-.408a.862.862 0 0 0-1.14.084L1.99 3.14a.876.876 0 0 0-.084 1.14l.408.551a.871.871 0 0 1 .084.9c-.096.215-.192.43-.276.659a.881.881 0 0 1-.695.575l-.672.096a.866.866 0 0 0-.743.863v1.618c0 .432.312.804.743.864l.672.095a.86.86 0 0 1 .695.576c.084.228.168.443.276.66a.871.871 0 0 1-.084.898l-.408.552a.862.862 0 0 0 .084 1.139l1.15 1.15a.876.876 0 0 0 1.14.084l.551-.407a.871.871 0 0 1 .9-.084c.215.096.43.192.659.276.3.108.527.371.575.695l.096.671c.06.432.432.744.863.744h1.618a.866.866 0 0 0 .864-.744l.095-.671a.86.86 0 0 1 .576-.695 6.37 6.37 0 0 0 .66-.276.871.871 0 0 1 .898.084l.552.407a.862.862 0 0 0 1.139-.083l1.15-1.151a.876.876 0 0 0 .084-1.14l-.407-.55a.871.871 0 0 1-.084-.9c.096-.216.192-.431.276-.66a.881.881 0 0 1 .695-.575l.671-.095a.866.866 0 0 0 .744-.864v-1.63a.866.866 0 0 0-.744-.863l-.671-.096a.86.86 0 0 1-.695-.575 6.37 6.37 0 0 0-.276-.66.871.871 0 0 1 .084-.899l.407-.551a.862.862 0 0 0-.083-1.14l-1.151-1.15a.865.865 0 0 0-.66-.252l-1.03.588z" stroke="#2D3666" stroke-width="1.309" stroke-linecap="round" stroke-linejoin="round"/><circle stroke="#2D3666" stroke-width="1.309" stroke-linecap="round" stroke-linejoin="round" cx="8.727" cy="8.727" r="3.491"/></g></g></g></svg>
