<svg width="60" height="60" xmlns="http://www.w3.org/2000/svg" xmlns:xlink="http://www.w3.org/1999/xlink"><defs><path d="M40.585 37.234l2.292-.951.028-.012a3.44 3.44 0 001.815-4.522l-1.024-2.375h.904c3.054 0 4.658-3.745 2.406-5.897L33.839 10.519c-2.125-2.172-5.902-.641-5.902 2.42V32.03c0 3.021 3.69 4.588 5.875 2.446l1.308-1.282.96 2.224.006.015.007.015a3.466 3.466 0 004.492 1.786zm-2.095-2.855l-2.474-5.738-4.042 3.96c-.534.525-1.412.127-1.412-.57V12.937c0-.728.929-1.084 1.412-.571L45.19 25.366c.535.497.14 1.383-.583 1.383h-4.9l2.604 6.043a.81.81 0 01-.44 1.066l-2.293.952a.84.84 0 01-1.088-.431z" id="a"/></defs><g fill="none" fill-rule="evenodd"><path d="M60 60l-.992-.008C26.655 59.467.528 33.336.008.982L0 0h50c5.523 0 10 4.477 10 10v50z" fill="#DDF4E6"/><g fill-rule="nonzero"><use fill="#805F00" xlink:href="#a"/><use fill="#277848" xlink:href="#a"/></g></g></svg>