<svg width="83" height="80" xmlns="http://www.w3.org/2000/svg" xmlns:xlink="http://www.w3.org/1999/xlink"><defs><filter x="-15.9%" y="-10%" width="131.8%" height="128%" filterUnits="objectBoundingBox" id="a"><feOffset dy="2" in="SourceAlpha" result="shadowOffsetOuter1"/><feGaussianBlur stdDeviation="2" in="shadowOffsetOuter1" result="shadowBlurOuter1"/><feColorMatrix values="0 0 0 0 0.194453629 0 0 0 0 0.31385498 0 0 0 0 0.727779665 0 0 0 0.5 0" in="shadowBlurOuter1"/></filter><filter x="-72.8%" y="-25.9%" width="245.5%" height="172.4%" filterUnits="objectBoundingBox" id="c"><feOffset dy="2" in="SourceAlpha" result="shadowOffsetOuter1"/><feGaussianBlur stdDeviation="2" in="shadowOffsetOuter1" result="shadowBlurOuter1"/><feColorMatrix values="0 0 0 0 0.125490196 0 0 0 0 0.266666667 0 0 0 0 0.862745098 0 0 0 0.258522727 0" in="shadowBlurOuter1"/></filter><path d="M43.464 13.268c2.743 13.213-5.848 16.425-7.496 22.909-1.22 4.82.384 8.354 1.314 10.229.274.56.011 1.237-.569 1.447-9.86 3.573-18.018 1.853-20.838.755a1.988 1.988 0 0 1-1.26-1.72 19.23 19.23 0 0 1-.037-1.264c0-3.872-3.17-3.584-4.572-3.273-1.402.305-5.667.865-5.667-3.212 0-3.9.362-8.154-1.533-8.764-.186-.061-1.604-.627-1.84-.688a1.32 1.32 0 0 1-.886-1.725c.733-2.014 3.427-5.453 4.434-7.023.318-.504.422-1.12.252-1.691C2.593 11.826 9.141 2.956 17.381.793 25.33-1.293 40.72.05 43.464 13.268" id="b"/><path d="M22.71 22.719c.896 0 1.04-.116 1.387-.838.318-.665 1.011-1.271 2.022-1.85 1.185-.664 2.11-1.357 2.716-2.137.636-.78.953-1.907.953-3.322 0-3.958-1.993-5.49-6.24-5.49-.664 0-1.358.058-2.138.203-1.011.202-1.242.433-1.242 1.386v.52c0 .954.26 1.185 1.213.954a10.08 10.08 0 0 1 2.196-.26c2.311 0 3.178.635 3.178 2.687 0 1.069-.55 1.935-1.098 2.369-.26.202-.693.49-1.3.866-2.022 1.3-3.091 2.63-3.178 3.958-.029.694.289.954 1.213.954h.318zm-.173 5.69c1.04 0 1.878-.837 1.878-1.906 0-1.04-.838-1.878-1.878-1.878s-1.878.838-1.878 1.878c0 1.07.838 1.907 1.878 1.907z" id="d"/></defs><g fill="none" fill-rule="evenodd"><path d="m83 80-1.373-.01C36.873 79.29.73 44.447.011 1.31L0 0h71.933C78.045 0 83 4.776 83 10.667V80z" fill="#2044DC" fill-rule="nonzero"/><g fill-rule="nonzero" transform="translate(28 8)"><use fill="#000" filter="url(#a)" xlink:href="#b"/><use fill="#FFF" xlink:href="#b"/></g><path d="M63.42 18.256a.783.783 0 0 1-.3 1.06.775.775 0 0 1-1.046-.305c-1.396-2.574-4.522-1.06-4.654-1a.758.758 0 0 1-1.029-.354.787.787 0 0 1 .35-1.043c.312-.15.696-.3 1.117-.416-.093-.405-.257-.948-.542-1.414a.781.781 0 0 1 .247-1.071.758.758 0 0 1 1.056.25c.422.687.652 1.47.761 2.002 1.468-.039 3.055.477 4.04 2.291M58.22 35.03c.679.327 1.571.255 2.639-.216a.77.77 0 0 1 1.013.41.775.775 0 0 1-.406 1.02c-.826.361-1.598.544-2.31.544a3.67 3.67 0 0 1-1.615-.36c-1.544-.755-2.004-2.413-2.02-2.485a.771.771 0 0 1 .536-.954c.41-.111.832.127.942.543.01.034.317 1.065 1.22 1.498M58.335 27.07c.257.31.602.477 1.062.516.421.033.739.41.706.838a.77.77 0 0 1-.766.715h-.06c-1.419-.11-2.453-1.032-2.837-2.518a4.725 4.725 0 0 1-.12-.605c-2.612-.4-3.69-2.673-3.898-3.922a.782.782 0 0 1 .63-.898.77.77 0 0 1 .886.638c.022.11.504 2.657 3.154 2.69a.769.769 0 0 1 .739.949c-.006.216.055 1.054.504 1.597M50.62 14.29a.79.79 0 0 1 .488-.987.77.77 0 0 1 .974.493c.45 1.37.367 2.557-.252 3.54-1.117 1.763-3.58 2.057-3.684 2.068-.028.006-.06.006-.088.006a.78.78 0 0 1-.082-1.553c.038-.006 1.845-.233 2.562-1.37.356-.566.383-1.287.082-2.197M49.367 25.578a.78.78 0 0 1-.723 1.048.779.779 0 0 1-.723-.51c-.63-1.747-.224-3.838 1.019-5.209a.769.769 0 0 1 1.089-.044.786.786 0 0 1 .044 1.098c-.865.954-1.15 2.402-.706 3.617" fill="#FFF"/><g transform="rotate(-1 497.333 -1581.495)"><use fill="#000" filter="url(#c)" xlink:href="#d"/><use fill="#2044DC" xlink:href="#d"/></g></g></svg>