<svg width="60" height="60" xmlns="http://www.w3.org/2000/svg"><defs><filter color-interpolation-filters="auto" id="a"><feColorMatrix in="SourceGraphic" values="0 0 0 0 0.501961 0 0 0 0 0.372549 0 0 0 0 0.000000 0 0 0 1.000000 0"/></filter></defs><g fill="none" fill-rule="evenodd"><path d="M60 60l-.992-.008C26.655 59.467.528 33.336.008.982L0 0h52a8 8 0 018 8v52z" fill="#FFEBB3"/><path d="M60 60l-.992-.008C26.655 59.467.528 33.336.008.982L0 0"/><g filter="url(#a)"><g stroke="#97A0AF" stroke-width=".855" fill="#000" fill-rule="nonzero"><path d="M42.75 23.4c0-3.39-2.758-6.15-6.15-6.15a6.156 6.156 0 00-6.148 6.15c0 3.389 2.757 6.148 6.149 6.148 3.391 0 6.149-2.76 6.149-6.149zm-10.799 0a4.655 4.655 0 014.65-4.65 4.655 4.655 0 014.65 4.65 4.655 4.655 0 01-4.65 4.649 4.655 4.655 0 01-4.65-4.65zM25.524 12.524h4.726V11h-5.488a.762.762 0 00-.762.762v5.488h1.524v-4.726zM48.238 11H42.75v1.524h4.726v4.726H49v-5.488a.762.762 0 00-.762-.762zM24.762 36h5.488v-1.524h-4.726V29.75H24v5.486c0 .423.341.764.762.764zM47.476 34.476H42.75V36h5.488c.42 0 .762-.341.762-.762V29.75h-1.524v4.726h0z"/></g></g></g></svg>