<svg width="322" height="180" viewBox="0 0 322 180" fill="none" xmlns="http://www.w3.org/2000/svg">
<g filter="url(#filter0_d_705_8924)">
<path d="M205.862 146.427H117.484C113.716 146.427 110.665 143.376 110.665 139.608V18.3913C110.665 14.6229 113.716 11.5723 117.484 11.5723H205.862C209.63 11.5723 212.681 14.6229 212.681 18.3913V139.608C212.681 143.376 209.63 146.427 205.862 146.427Z" fill="url(#paint0_linear_705_8924)"/>
</g>
<path d="M173.157 113.722H150.188C147.631 113.722 145.567 111.658 145.567 109.101C145.567 106.544 147.631 104.48 150.188 104.48H173.157C175.714 104.48 177.778 106.544 177.778 109.101C177.778 111.658 175.714 113.722 173.157 113.722Z" fill="#D5DDEA"/>
<path d="M183.7 123.727H139.601C138.255 123.727 137.179 122.65 137.179 121.304C137.179 119.959 138.255 118.882 139.601 118.882H183.7C185.046 118.882 186.123 119.959 186.123 121.304C186.123 122.605 185.046 123.727 183.7 123.727Z" fill="#D5DDEA"/>
<path d="M191.82 59.6646C191.82 68.7267 187.827 76.8467 181.502 82.3647C176.208 86.9855 169.255 89.7669 161.673 89.7669C154.091 89.7669 147.138 86.9855 141.844 82.3198C135.519 76.8018 131.526 68.6818 131.526 59.6198C131.526 42.9761 145.029 29.4727 161.673 29.4727C178.317 29.4727 191.82 43.0209 191.82 59.6646Z" fill="#D9DEEA"/>
<path d="M181.502 82.3647C176.208 86.9855 169.254 89.7669 161.673 89.7669C154.091 89.7669 147.137 86.9855 141.844 82.3198C144.042 81.4675 146.913 80.3459 150.771 78.7758C151.668 78.4169 152.341 77.7439 152.745 76.8916C152.969 76.3981 153.059 75.9046 153.059 75.3663V68.1435C152.925 68.0089 152.835 67.8295 152.745 67.6949C152.117 66.7528 151.713 65.6761 151.579 64.5546L150.951 64.2406C149.111 64.6892 149.246 62.7152 148.752 58.902C148.573 57.3318 148.797 57.0178 149.515 56.7486L150.098 55.9411C146.509 47.866 148.304 42.7966 151.848 41.0021C150.682 38.445 150.592 37.5029 150.592 37.5029C150.592 37.5029 158.129 38.7591 160.686 38.2656C163.961 37.5927 169.03 38.4002 170.914 42.7518C174.055 43.963 175.266 45.9818 175.535 48.0903C175.804 50.0642 175.221 52.2176 174.638 53.8775C174.593 54.0121 174.548 54.1018 174.503 54.1915C174.503 54.2364 174.458 54.2812 174.458 54.3261C174.369 54.5504 174.324 54.7299 174.234 54.9093C174.189 54.999 174.189 55.0887 174.144 55.1785C174.099 55.3579 174.01 55.5374 173.965 55.6719C173.965 55.7168 173.965 55.7168 173.92 55.7617C173.875 55.8963 173.83 56.0308 173.785 56.1654C173.74 56.3449 173.696 56.4795 173.651 56.614C173.696 56.6589 173.696 56.7486 173.74 56.7935C174.234 57.0178 174.413 57.4664 174.234 58.8571C173.785 62.4909 173.92 64.6892 172.036 64.1957L170.376 67.0668C170.331 67.3809 170.286 67.5603 170.241 67.7398C170.196 68.2781 170.196 69.3548 170.196 75.2765C170.196 75.9943 170.421 76.6673 170.78 77.2505C171.183 77.8785 171.767 78.4169 172.484 78.7309C172.484 78.7309 172.529 78.7309 172.529 78.7758C176.432 80.4356 179.303 81.5123 181.502 82.3647Z" fill="white"/>
<path d="M173.696 56.6589C173.83 55.7617 173.427 54.5953 173.113 53.8326C173.068 53.698 172.978 53.5634 172.933 53.4289C171.498 50.5577 168.268 49.3464 165.217 49.167C157.411 48.7632 156.648 50.2437 154.226 48.0006C154.989 49.1221 155.033 50.9615 153.867 53.2045C153.059 54.7747 151.489 55.4925 150.054 55.9411C146.465 47.866 148.259 42.7966 151.803 41.0021C150.637 38.445 150.547 37.5029 150.547 37.5029C150.547 37.5029 158.084 38.7591 160.641 38.2656C163.916 37.5927 168.985 38.4002 170.87 42.7518C174.01 43.963 175.221 45.9818 175.49 48.0903C176.029 51.4549 174.055 55.1785 173.696 56.6589Z" fill="url(#paint1_linear_705_8924)"/>
<path d="M170.824 77.34V78.7307H152.7V76.8914C152.924 76.3979 153.014 75.9044 153.014 75.3661V68.1433C152.879 68.0087 152.79 67.8293 152.7 67.6947V67.2461C153.104 67.919 153.597 68.5022 154.18 69.0406L159.833 73.0333C161.134 74.1548 163.063 74.1548 164.409 73.0781L169.703 68.3228C169.882 68.1882 170.061 68.0087 170.241 67.8293C170.196 68.3676 170.196 69.4443 170.196 75.3661C170.286 76.0839 170.465 76.7568 170.824 77.34Z" fill="url(#paint2_linear_705_8924)"/>
<g filter="url(#filter1_d_705_8924)">
<path d="M85.8117 125.565H28.9718C25.2034 125.565 22.1528 122.514 22.1528 118.746V39.2506C22.1528 35.4822 25.2034 32.4316 28.9718 32.4316H85.8117C89.5801 32.4316 92.6307 35.4822 92.6307 39.2506V118.791C92.6307 122.559 89.5801 125.565 85.8117 125.565Z" fill="url(#paint3_linear_705_8924)"/>
</g>
<path d="M65.3094 103H49.4283C47.6787 103 46.2432 101.565 46.2432 99.8151C46.2432 98.0655 47.6787 96.6299 49.4283 96.6299H65.3094C67.059 96.6299 68.4946 98.0655 68.4946 99.8151C68.4946 101.565 67.059 103 65.3094 103Z" fill="#D5DDEA"/>
<path d="M72.6225 109.91H42.1613C41.2193 109.91 40.5015 109.147 40.5015 108.25C40.5015 107.308 41.2641 106.59 42.1613 106.59H72.6225C73.5646 106.59 74.2824 107.352 74.2824 108.25C74.2824 109.147 73.5197 109.91 72.6225 109.91Z" fill="#D5DDEA"/>
<path d="M78.1854 65.6303C78.1854 71.911 75.404 77.5187 71.0524 81.3319C67.3738 84.5171 62.6184 86.4462 57.3696 86.4462C52.1207 86.4462 47.3205 84.5171 43.6867 81.3319C39.3351 77.5187 36.5537 71.911 36.5537 65.6303C36.5537 54.1457 45.885 44.8145 57.3696 44.8145C68.8542 44.8145 78.1854 54.1457 78.1854 65.6303Z" fill="#D9DEEA"/>
<path d="M71.0522 81.3335C67.3735 84.5187 62.6182 86.4478 57.3694 86.4478C52.1205 86.4478 47.3203 84.5187 43.6865 81.3335C45.2118 80.7503 47.1857 79.9877 49.8326 78.8661C50.4607 78.597 50.9093 78.1483 51.1784 77.5651C51.313 77.2511 51.4027 76.8922 51.4027 76.4885V71.5088C51.313 71.4191 51.2233 71.2845 51.1784 71.1948C50.7298 70.5667 50.4607 69.8041 50.3709 69.0414L49.9223 68.8171C48.6662 69.1311 48.7559 67.7404 48.397 65.1384C48.2624 64.0618 48.4419 63.8374 48.8905 63.658L49.2942 63.1197C46.8268 57.5119 48.083 54.0127 50.5055 52.8014C49.698 51.0518 49.6531 50.3789 49.6531 50.3789C49.6531 50.3789 54.8571 51.2313 56.6516 50.9173C58.9395 50.4686 62.3939 51.007 63.6949 54.0127C65.8482 54.8651 66.7006 56.2558 66.8801 57.6914C67.0595 59.0821 66.6558 60.5177 66.2969 61.6841C66.252 61.7738 66.252 61.8187 66.2071 61.9084C66.2071 61.9532 66.1623 61.9532 66.1623 61.9981C66.1174 62.1327 66.0726 62.2673 66.0277 62.4019C65.9828 62.4467 65.9828 62.5365 65.938 62.5813C65.8931 62.7159 65.8482 62.8056 65.8034 62.9402V62.9851C65.7585 63.0748 65.7137 63.1645 65.7137 63.2542C65.6688 63.3888 65.6239 63.4785 65.6239 63.5683C65.6688 63.6131 65.6688 63.658 65.6688 63.7029C66.0277 63.8823 66.1174 64.1515 65.9828 65.0936C65.6688 67.6058 65.7585 69.1311 64.4575 68.7722L63.336 70.791C63.2911 71.0153 63.2463 71.105 63.2463 71.2845C63.2014 71.6434 63.2014 72.406 63.2014 76.4885C63.2014 76.9819 63.336 77.4306 63.6052 77.8343C63.8743 78.2829 64.2781 78.6418 64.7716 78.8213H64.8164C67.5979 79.9877 69.5718 80.7503 71.0522 81.3335Z" fill="white"/>
<path d="M65.7133 63.5663C65.8031 62.9382 65.5339 62.1755 65.3096 61.5923C65.2647 61.5026 65.2199 61.4129 65.175 61.3232C64.188 59.3492 61.9449 58.4969 59.8364 58.4072C54.453 58.138 53.9147 59.1698 52.2548 57.5996C52.7931 58.4072 52.838 59.6184 52.0305 61.1886C51.4473 62.2653 50.3706 62.7587 49.4285 63.0728C46.9611 57.4651 48.2172 53.9658 50.6398 52.7546C49.8323 51.005 49.7874 50.332 49.7874 50.332C49.7874 50.332 54.9914 51.1844 56.7858 50.8704C59.0738 50.4218 62.5281 50.9601 63.8291 53.9658C65.9825 54.8182 66.8349 56.2089 67.0143 57.6445C67.2835 59.9773 65.9376 62.5344 65.7133 63.5663Z" fill="url(#paint4_linear_705_8924)"/>
<path d="M63.7396 77.8764V78.8634H51.2231V77.5624C51.3577 77.2484 51.4475 76.8895 51.4475 76.4857V71.5061C51.3577 71.4163 51.268 71.2817 51.2231 71.192V70.9229C51.4923 71.3715 51.8512 71.8201 52.255 72.1341L56.1579 74.8707C57.0552 75.6333 58.401 75.6782 59.3431 74.9156L63.0218 71.6406C63.1564 71.5509 63.291 71.4163 63.3807 71.2817C63.3358 71.6406 63.3358 72.4033 63.3358 76.4857C63.3358 76.9792 63.4704 77.4727 63.7396 77.8764Z" fill="url(#paint5_linear_705_8924)"/>
<g filter="url(#filter2_d_705_8924)">
<path d="M293.028 125.565H236.188C232.42 125.565 229.369 122.514 229.369 118.746V39.2506C229.369 35.4822 232.42 32.4316 236.188 32.4316H293.028C296.796 32.4316 299.847 35.4822 299.847 39.2506V118.791C299.847 122.559 296.796 125.565 293.028 125.565Z" fill="url(#paint6_linear_705_8924)"/>
</g>
<path d="M272.527 103H256.646C254.896 103 253.46 101.565 253.46 99.8151C253.46 98.0655 254.896 96.6299 256.646 96.6299H272.527C274.276 96.6299 275.712 98.0655 275.712 99.8151C275.757 101.565 274.321 103 272.527 103Z" fill="#D5DDEA"/>
<path d="M279.839 109.91H249.377C248.435 109.91 247.718 109.147 247.718 108.25C247.718 107.308 248.48 106.59 249.377 106.59H279.839C280.781 106.59 281.498 107.352 281.498 108.25C281.498 109.147 280.781 109.91 279.839 109.91Z" fill="#D5DDEA"/>
<path d="M285.446 65.6303C285.446 71.911 282.665 77.5187 278.313 81.3319C274.634 84.5171 269.879 86.4462 264.63 86.4462C259.381 86.4462 254.581 84.5171 250.947 81.3319C246.596 77.5187 243.814 71.911 243.814 65.6303C243.814 54.1457 253.146 44.8145 264.63 44.8145C276.115 44.8145 285.446 54.1457 285.446 65.6303Z" fill="#D9DEEA"/>
<path d="M278.313 81.3335C274.635 84.5187 269.879 86.4478 264.631 86.4478C259.382 86.4478 254.582 84.5187 250.948 81.3335C252.473 80.7503 254.447 79.9877 257.094 78.8661C257.722 78.597 258.171 78.1483 258.44 77.5651C258.574 77.2511 258.664 76.8922 258.664 76.4885V71.5088C258.574 71.4191 258.485 71.2845 258.44 71.1948C257.991 70.5667 257.722 69.8041 257.632 69.0414L257.184 68.8171C255.927 69.1311 256.017 67.7404 255.658 65.1384C255.524 64.0618 255.703 63.8374 256.152 63.658L256.555 63.1197C254.088 57.5119 255.344 54.0127 257.767 52.8014C256.959 51.0518 256.914 50.3789 256.914 50.3789C256.914 50.3789 262.118 51.2313 263.913 50.9173C266.201 50.4686 269.655 51.007 270.956 54.0127C273.109 54.8651 273.962 56.2558 274.141 57.6914C274.321 59.0821 273.917 60.5177 273.558 61.6841C273.513 61.7738 273.513 61.8187 273.468 61.9084C273.468 61.9532 273.423 61.9532 273.423 61.9981C273.379 62.1327 273.334 62.2673 273.289 62.4019C273.244 62.4467 273.244 62.5365 273.199 62.5813C273.154 62.7159 273.109 62.8056 273.065 62.9402V62.9851C273.02 63.0748 272.975 63.1645 272.975 63.2542C272.93 63.3888 272.885 63.4785 272.885 63.5683C272.93 63.6131 272.93 63.658 272.93 63.7029C273.289 63.8823 273.379 64.1515 273.244 65.0936C272.93 67.6058 273.02 69.1311 271.719 68.7722L270.597 70.791C270.552 71.0153 270.507 71.105 270.507 71.2845C270.463 71.6434 270.463 72.406 270.463 76.4885C270.463 76.9819 270.597 77.4306 270.866 77.8343C271.136 78.2829 271.539 78.6418 272.033 78.8213H272.078C274.814 79.9877 276.788 80.7503 278.313 81.3335Z" fill="white"/>
<path d="M272.93 63.5663C273.02 62.9382 272.751 62.1755 272.527 61.5923C272.482 61.5026 272.437 61.4129 272.392 61.3232C271.405 59.3492 269.162 58.4969 267.053 58.4072C261.67 58.138 261.132 59.1698 259.472 57.5996C260.01 58.4072 260.055 59.6184 259.248 61.1886C258.664 62.2653 257.588 62.7587 256.646 63.0728C254.178 57.4651 255.434 53.9658 257.857 52.7546C257.049 51.005 257.004 50.332 257.004 50.332C257.004 50.332 262.208 51.1844 264.003 50.8704C266.291 50.4218 269.745 50.9601 271.046 53.9658C273.2 54.8182 274.052 56.2089 274.231 57.6445C274.501 59.9773 273.2 62.5344 272.93 63.5663Z" fill="url(#paint7_linear_705_8924)"/>
<path d="M270.957 77.8764V78.8634H258.44V77.5624C258.575 77.2484 258.664 76.8895 258.664 76.4857V71.5061C258.575 71.4163 258.485 71.2817 258.44 71.192V70.9229C258.709 71.3715 259.068 71.8201 259.472 72.1341L263.375 74.8707C264.272 75.6333 265.618 75.6782 266.56 74.9156L270.239 71.6406C270.373 71.5509 270.508 71.4163 270.598 71.2817C270.553 71.6406 270.553 72.4033 270.553 76.4857C270.553 76.9792 270.687 77.4727 270.957 77.8764Z" fill="url(#paint8_linear_705_8924)"/>
<defs>
<filter id="filter0_d_705_8924" x="88.665" y="0.572266" width="146.016" height="178.854" filterUnits="userSpaceOnUse" color-interpolation-filters="sRGB">
<feFlood flood-opacity="0" result="BackgroundImageFix"/>
<feColorMatrix in="SourceAlpha" type="matrix" values="0 0 0 0 0 0 0 0 0 0 0 0 0 0 0 0 0 0 127 0" result="hardAlpha"/>
<feOffset dy="11"/>
<feGaussianBlur stdDeviation="11"/>
<feColorMatrix type="matrix" values="0 0 0 0 0.397708 0 0 0 0 0.47749 0 0 0 0 0.575 0 0 0 0.27 0"/>
<feBlend mode="normal" in2="BackgroundImageFix" result="effect1_dropShadow_705_8924"/>
<feBlend mode="normal" in="SourceGraphic" in2="effect1_dropShadow_705_8924" result="shape"/>
</filter>
<filter id="filter1_d_705_8924" x="0.152832" y="21.4316" width="114.478" height="137.133" filterUnits="userSpaceOnUse" color-interpolation-filters="sRGB">
<feFlood flood-opacity="0" result="BackgroundImageFix"/>
<feColorMatrix in="SourceAlpha" type="matrix" values="0 0 0 0 0 0 0 0 0 0 0 0 0 0 0 0 0 0 127 0" result="hardAlpha"/>
<feOffset dy="11"/>
<feGaussianBlur stdDeviation="11"/>
<feColorMatrix type="matrix" values="0 0 0 0 0.397708 0 0 0 0 0.47749 0 0 0 0 0.575 0 0 0 0.27 0"/>
<feBlend mode="normal" in2="BackgroundImageFix" result="effect1_dropShadow_705_8924"/>
<feBlend mode="normal" in="SourceGraphic" in2="effect1_dropShadow_705_8924" result="shape"/>
</filter>
<filter id="filter2_d_705_8924" x="207.369" y="21.4316" width="114.478" height="137.133" filterUnits="userSpaceOnUse" color-interpolation-filters="sRGB">
<feFlood flood-opacity="0" result="BackgroundImageFix"/>
<feColorMatrix in="SourceAlpha" type="matrix" values="0 0 0 0 0 0 0 0 0 0 0 0 0 0 0 0 0 0 127 0" result="hardAlpha"/>
<feOffset dy="11"/>
<feGaussianBlur stdDeviation="11"/>
<feColorMatrix type="matrix" values="0 0 0 0 0.397708 0 0 0 0 0.47749 0 0 0 0 0.575 0 0 0 0.27 0"/>
<feBlend mode="normal" in2="BackgroundImageFix" result="effect1_dropShadow_705_8924"/>
<feBlend mode="normal" in="SourceGraphic" in2="effect1_dropShadow_705_8924" result="shape"/>
</filter>
<linearGradient id="paint0_linear_705_8924" x1="161.64" y1="8.45295" x2="161.64" y2="147.881" gradientUnits="userSpaceOnUse">
<stop stop-color="#FDFEFF"/>
<stop offset="0.9964" stop-color="#ECF0F5"/>
</linearGradient>
<linearGradient id="paint1_linear_705_8924" x1="148.082" y1="47.083" x2="175.588" y2="47.083" gradientUnits="userSpaceOnUse">
<stop stop-color="#B0BACC"/>
<stop offset="1" stop-color="#969EAE"/>
</linearGradient>
<linearGradient id="paint2_linear_705_8924" x1="161.768" y1="78.8006" x2="161.768" y2="72.4738" gradientUnits="userSpaceOnUse">
<stop stop-color="white"/>
<stop offset="1" stop-color="#E2E5EC"/>
</linearGradient>
<linearGradient id="paint3_linear_705_8924" x1="57.3688" y1="30.2774" x2="57.3688" y2="126.569" gradientUnits="userSpaceOnUse">
<stop stop-color="#FDFEFF"/>
<stop offset="0.9964" stop-color="#ECF0F5"/>
</linearGradient>
<linearGradient id="paint4_linear_705_8924" x1="48.0797" y1="56.9506" x2="67.0532" y2="56.9506" gradientUnits="userSpaceOnUse">
<stop stop-color="#B0BACC"/>
<stop offset="1" stop-color="#969EAE"/>
</linearGradient>
<linearGradient id="paint5_linear_705_8924" x1="57.4851" y1="78.9117" x2="57.4851" y2="74.5373" gradientUnits="userSpaceOnUse">
<stop stop-color="white"/>
<stop offset="1" stop-color="#E2E5EC"/>
</linearGradient>
<linearGradient id="paint6_linear_705_8924" x1="264.585" y1="30.2774" x2="264.585" y2="126.569" gradientUnits="userSpaceOnUse">
<stop stop-color="#FDFEFF"/>
<stop offset="0.9964" stop-color="#ECF0F5"/>
</linearGradient>
<linearGradient id="paint7_linear_705_8924" x1="255.297" y1="56.9506" x2="274.271" y2="56.9506" gradientUnits="userSpaceOnUse">
<stop stop-color="#B0BACC"/>
<stop offset="1" stop-color="#969EAE"/>
</linearGradient>
<linearGradient id="paint8_linear_705_8924" x1="264.702" y1="78.9117" x2="264.702" y2="74.5373" gradientUnits="userSpaceOnUse">
<stop stop-color="white"/>
<stop offset="1" stop-color="#E2E5EC"/>
</linearGradient>
</defs>
</svg>
