<svg width="271" height="248" viewBox="0 0 271 248" fill="none" xmlns="http://www.w3.org/2000/svg">
<path d="M149.228 244.556C216.401 244.556 270.857 189.81 270.857 122.277C270.857 54.746 216.401 0 149.228 0C82.0475 0 27.5894 54.746 27.5894 122.277C27.5894 189.81 82.0475 244.556 149.228 244.556Z" fill="#E0E5EB" fill-opacity="0.4"/>
<path d="M201.113 245.047C183.736 245.541 162.688 245.047 148.005 244.802C133.319 245.047 112.271 245.541 94.8938 245.047C112.026 235.207 118.144 216.755 119.123 204.698H176.884C178.107 216.755 183.98 235.207 201.113 245.047Z" fill="url(#paint0_linear_1585_35024)"/>
<path d="M96.6068 248H199.645C201.113 248 202.337 246.77 202.337 245.293C202.337 243.818 201.113 242.588 199.645 242.588H96.6068C95.1385 242.588 93.9149 243.818 93.9149 245.293C93.9149 246.77 95.1385 248 96.6068 248Z" fill="#E4E4E4"/>
<g filter="url(#filter0_d_1585_35024)">
<path d="M257.41 51.1758V202.73C257.41 206.421 254.474 209.126 251.048 209.126H45.9456C42.2749 209.126 39.5804 206.176 39.5804 202.73V51.1758C39.5804 47.4842 42.5196 44.7769 45.9456 44.7769H251.048C254.474 44.5315 257.41 47.4842 257.41 51.1758Z" fill="#F8F8F8"/>
</g>
<path d="M257.41 51.1758V181.572H39.5804V51.1758C39.5804 47.4842 42.5196 44.7769 45.9456 44.7769H251.048C254.474 44.5315 257.41 47.4842 257.41 51.1758Z" fill="#172B4D"/>
<path d="M249.09 52.8964H46.9244V174.437H249.09V52.8964Z" fill="white"/>
<path d="M58.9154 66.6758C60.6722 66.6758 62.0967 65.2421 62.0967 63.4751C62.0967 61.7107 60.6722 60.2769 58.9154 60.2769C57.1586 60.2769 55.7341 61.7107 55.7341 63.4751C55.7341 65.2421 57.1586 66.6758 58.9154 66.6758Z" fill="#FD724F"/>
<path d="M69.1961 66.6758C70.9529 66.6758 72.3774 65.2421 72.3774 63.4751C72.3774 61.7107 70.9529 60.2769 69.1961 60.2769C67.4393 60.2769 66.0148 61.7107 66.0148 63.4751C66.0148 65.2421 67.4393 66.6758 69.1961 66.6758Z" fill="#FFCB00"/>
<path d="M249.09 74.0564H90.4889H58.1813H46.9244V174.437H72.4572V75.5315H249.09V74.0564Z" fill="#E6EDF5"/>
<path d="M62.9381 103.824H53.435C53.1994 103.824 53.0424 103.333 53.0424 102.594C53.0424 101.858 53.1994 101.365 53.435 101.365H62.9381C63.1737 101.365 63.3307 101.858 63.3307 102.594C63.4093 103.088 63.1737 103.824 62.9381 103.824Z" fill="white"/>
<path d="M62.9381 111.453H53.435C53.1994 111.453 53.0424 110.959 53.0424 110.223C53.0424 109.484 53.1994 108.991 53.435 108.991H62.9381C63.1737 108.991 63.3307 109.484 63.3307 110.223C63.4093 110.714 63.1737 111.453 62.9381 111.453Z" fill="white"/>
<path d="M62.9381 119.079H53.435C53.1994 119.079 53.0424 118.588 53.0424 117.849C53.0424 117.11 53.1994 116.619 53.435 116.619H62.9381C63.1737 116.619 63.3307 117.11 63.3307 117.849C63.4093 118.342 63.1737 119.079 62.9381 119.079Z" fill="white"/>
<path d="M62.9381 126.707H53.435C53.1994 126.707 53.0424 126.214 53.0424 125.475C53.0424 124.739 53.1994 124.245 53.435 124.245H62.9381C63.1737 124.245 63.3307 124.739 63.3307 125.475C63.4093 125.968 63.1737 126.707 62.9381 126.707Z" fill="white"/>
<path d="M62.9381 134.333H53.435C53.1994 134.333 53.0424 133.842 53.0424 133.104C53.0424 132.365 53.1994 131.874 53.435 131.874H62.9381C63.1737 131.874 63.3307 132.365 63.3307 133.104C63.4093 133.594 63.1737 134.333 62.9381 134.333Z" fill="white"/>
<path d="M58.3829 141.959H53.3565C53.1994 141.959 53.0424 141.469 53.0424 140.975V140.239C53.0424 139.745 53.1994 139.255 53.3565 139.255H58.3829C58.5399 139.255 58.697 139.745 58.697 140.239V140.975C58.6184 141.469 58.5399 141.959 58.3829 141.959Z" fill="white"/>
<path d="M148.005 201.5C150.977 201.5 153.388 199.077 153.388 196.088C153.388 193.099 150.977 190.676 148.005 190.676C145.029 190.676 142.618 193.099 142.618 196.088C142.618 199.077 145.029 201.5 148.005 201.5Z" fill="#CED7E2"/>
<path d="M115.208 130.396H103.948V157.707H115.208V130.396Z" fill="#E6EDF5"/>
<path d="M142.863 117.849H131.606V157.707H142.863V117.849Z" fill="#E6EDF5"/>
<path d="M170.521 130.396H159.262V157.707H170.521V130.396Z" fill="#E6EDF5"/>
<path d="M198.176 98.6575H186.92V157.707H198.176V98.6575Z" fill="#E6EDF5"/>
<path d="M225.829 117.11H214.572V157.707H225.829V117.11Z" fill="#E6EDF5"/>
<path d="M115.208 151.556H103.948V157.707H115.208V151.556Z" fill="#CED7E2"/>
<path d="M142.863 148.849H131.606V157.707H142.863V148.849Z" fill="#CED7E2"/>
<path d="M170.521 151.556H159.262V157.707H170.521V151.556Z" fill="#CED7E2"/>
<path d="M198.176 144.421H186.92V157.707H198.176V144.421Z" fill="#CED7E2"/>
<path d="M225.829 148.604H214.572V157.707H225.829V148.604Z" fill="#CED7E2"/>
<path d="M110.558 153.525C105.664 153.525 101.501 152.047 99.0539 151.308C97.0962 150.572 96.1173 148.604 96.6068 146.635C97.3409 144.667 99.2986 143.682 101.256 144.176C107.866 146.39 115.697 148.11 122.549 140.484L124.509 138.27C133.319 128.676 138.458 123.016 154.612 131.874C167.584 139.255 172.234 136.547 177.373 128.182C179.331 124.739 180.799 121.047 182.267 117.604C184.959 110.714 187.654 103.579 194.995 104.563H195.485C202.581 105.302 211.146 106.286 221.914 91.2769C223.382 89.063 224.85 87.5879 226.087 86.3583C227.555 84.8806 230.002 85.126 231.213 86.6037C232.681 88.0788 232.449 90.5407 230.981 91.7703C230.002 92.5092 229.023 93.9843 227.787 95.7073C214.83 113.912 202.337 112.682 194.75 111.944H194.261C192.548 111.698 191.08 114.896 189.122 120.308C187.654 124 186.185 128.182 183.736 132.119C175.905 145.16 166.361 146.881 151.186 138.516C140.171 132.365 138.703 134.088 130.138 143.437L127.935 145.896C122.304 152.047 115.942 153.525 110.558 153.525Z" fill="url(#paint1_linear_1585_35024)"/>
<path d="M119.123 93.2454H104.196C102.969 93.2454 102.235 92.2612 102.235 91.2769C102.235 90.0472 103.214 89.3084 104.196 89.3084H119.123C120.347 89.3084 121.081 90.2927 121.081 91.2769C121.081 92.5092 120.102 93.2454 119.123 93.2454Z" fill="#E6EDF5"/>
<path d="M132.585 102.842H104.196C102.969 102.842 102.235 101.858 102.235 100.874C102.235 99.6417 103.214 98.9055 104.196 98.9055H132.34C133.564 98.9055 134.298 99.8897 134.298 100.874C134.543 101.858 133.564 102.842 132.585 102.842Z" fill="#E6EDF5"/>
<g filter="url(#filter1_d_1585_35024)">
<path d="M235.721 179.461C235.721 186.705 232.822 193.306 228.315 198.135C227.993 198.617 227.51 198.939 227.026 199.423C222.197 203.931 215.757 206.667 208.672 206.667C203.039 206.667 197.725 204.895 193.218 201.837C191.929 201.032 190.803 199.905 189.676 198.939C184.685 193.949 181.626 187.187 181.626 179.622C181.626 164.49 193.7 152.417 208.672 152.417C223.645 152.417 235.721 164.49 235.721 179.461Z" fill="#E9F0F8"/>
<path d="M235.721 179.461C235.721 187.35 232.34 194.433 227.026 199.262C222.197 203.77 215.757 206.506 208.672 206.506C203.039 206.506 197.725 204.734 193.218 201.677C186.133 196.847 181.626 188.637 181.626 179.461C181.626 164.49 193.7 152.417 208.672 152.417C223.645 152.417 235.721 164.49 235.721 179.461Z" fill="#F4F5F7"/>
<path d="M228.315 198.135C227.993 198.617 227.51 198.939 227.026 199.423C222.197 203.931 215.757 206.667 208.672 206.667C203.039 206.667 197.725 204.895 193.218 201.837C191.929 201.032 190.802 199.905 189.676 198.939C190.319 198.135 191.286 197.651 193.378 196.847L194.183 196.524C195.793 195.881 198.048 195.076 200.945 193.788C201.429 193.627 201.75 193.306 202.071 192.983C202.234 192.822 202.394 192.661 202.394 192.34C202.555 192.018 202.716 191.534 202.716 191.213V185.739C202.555 185.578 202.555 185.578 202.394 185.417C201.911 184.773 201.589 183.969 201.589 183.003L201.106 182.842C199.658 183.164 199.819 181.715 199.496 178.817C199.335 177.529 199.496 177.368 200.14 177.207L200.624 176.563C199.658 174.148 199.174 172.217 199.174 170.607C199.174 167.871 200.301 166.101 201.911 165.295C200.945 162.881 200.945 162.236 200.945 162.236C200.945 162.236 206.58 163.202 208.672 162.881C211.088 162.397 214.952 163.041 216.401 166.261C218.816 167.226 219.621 168.676 219.943 170.285C220.264 172.861 218.816 175.759 218.494 176.725V176.886C218.816 177.047 218.977 177.368 218.816 178.495C218.494 181.231 218.494 182.842 217.206 182.519L215.918 184.612C215.918 184.935 215.918 184.935 215.757 185.096C215.757 185.578 215.757 186.384 215.757 190.891C215.757 191.374 215.918 192.018 216.239 192.34C216.401 192.501 216.401 192.661 216.562 192.661C216.883 192.983 217.206 193.306 217.528 193.467C220.748 194.754 223.163 195.721 224.773 196.364C226.544 197.008 227.51 197.491 228.315 198.135Z" fill="white"/>
<path d="M228.315 198.135C227.993 198.617 227.51 198.939 227.026 199.423C222.197 203.93 215.757 206.667 208.672 206.667C203.039 206.667 197.725 204.895 193.218 201.837C191.929 201.032 190.802 199.905 189.676 198.939C190.319 198.135 191.286 197.651 193.378 196.847L194.183 196.524C195.793 195.881 198.048 195.076 200.945 193.788C201.429 193.627 201.75 193.306 202.071 192.983C203.682 195.237 206.259 196.685 209.317 196.685C212.215 196.685 214.791 195.237 216.401 193.144C216.723 193.467 217.044 193.788 217.367 193.949C220.587 195.237 223.002 196.203 224.611 196.847C226.544 197.008 227.51 197.491 228.315 198.135Z" fill="url(#paint2_linear_1585_35024)"/>
<path d="M218.333 176.725C218.494 176.081 218.172 175.114 217.849 174.632C217.849 174.471 217.689 174.471 217.689 174.309C216.562 172.057 214.147 171.251 211.893 171.091C205.936 170.768 205.454 171.894 203.521 170.285C204.165 171.091 204.165 172.539 203.2 174.148C202.555 175.275 201.429 175.92 200.301 176.241C197.564 170.124 199.014 166.261 201.589 164.974C200.945 162.881 200.945 162.236 200.945 162.236C200.945 162.236 206.58 163.202 208.673 162.881C211.088 162.397 214.952 163.041 216.401 166.261C218.817 167.226 219.622 168.676 219.943 170.285C220.104 172.861 218.654 175.598 218.333 176.725Z" fill="#1C3754"/>
<path d="M202.716 190.891V185.417C202.555 185.257 202.555 185.257 202.394 185.096V184.773C202.716 185.257 203.039 185.739 203.521 186.061L207.869 189.12C208.835 189.925 210.283 189.925 211.41 189.12L215.436 185.578C215.596 185.417 215.757 185.257 215.918 185.257C215.918 185.739 215.918 186.544 215.918 191.052C215.918 191.374 215.918 191.534 216.078 191.856H202.878C202.716 191.534 202.716 191.213 202.716 190.891Z" fill="url(#paint3_linear_1585_35024)"/>
<path fill-rule="evenodd" clip-rule="evenodd" d="M235.721 179.461C235.721 187.35 232.34 194.433 227.026 199.262C222.197 203.77 215.757 206.506 208.672 206.506C203.039 206.506 197.725 204.734 193.218 201.677C186.133 196.847 181.626 188.637 181.626 179.461C181.626 164.49 193.7 152.417 208.672 152.417C223.645 152.417 235.721 164.49 235.721 179.461Z" stroke="white" stroke-width="1.06397" stroke-linecap="round" stroke-linejoin="round"/>
</g>
<g filter="url(#filter2_d_1585_35024)">
<path d="M26.742 29.6075H21.0646V35.2986H26.742V29.6075Z" fill="#EAEEF9"/>
<path d="M81.2413 46.9624C81.2413 57.4895 76.6999 66.8799 69.6031 73.4235C63.0757 79.3987 54.5596 83.098 45.1935 83.098C37.53 83.098 30.4333 80.8221 24.7559 76.8386C15.3897 70.295 9.14307 59.4812 9.14307 47.2465C9.14307 27.3316 25.3226 11.1135 45.1935 11.1135C65.0617 11.1135 81.2413 27.0475 81.2413 46.9624Z" fill="#F4F5F7"/>
<path d="M69.6031 74.2323C69.3197 73.3798 70.1724 73.9918 69.889 73.1393C69.889 72.8551 69.6031 72.571 69.3197 72C67.9004 69.1558 65.631 66.3115 62.5089 64.604C61.0896 63.7515 59.3843 63.4647 57.3982 63.4647C56.8315 63.4647 56.2622 63.4647 55.9789 63.4647C52.8568 63.4647 52.5735 62.8964 52.5735 62.8964V57.7762C54.2762 56.3528 55.6955 54.9294 56.8315 53.2218C57.9675 51.5168 58.8176 49.8092 59.3843 47.8175C61.3729 47.2491 62.7923 45.5415 62.5089 43.5498C62.5089 42.6947 61.9396 41.8422 61.9396 40.9897C61.9396 40.4188 61.9396 40.1346 61.9396 39.5663C61.9396 39.2821 61.9396 38.998 61.9396 38.7112C61.9396 38.427 61.9396 38.1429 61.9396 37.8587C61.6563 36.4353 61.3729 34.7303 60.2369 32.7385C57.6816 27.9 52.5735 24.7715 46.8961 24.7715C45.7601 24.7715 44.6241 24.7715 43.4907 25.0557C41.5021 25.624 39.516 26.4791 37.8133 27.6158C37.5299 27.9 37.244 28.1841 36.9607 28.4709C36.9607 28.4709 36.6773 28.4709 36.6773 28.755C34.9746 30.4626 33.5553 32.4518 32.7026 35.0145C31.8526 37.2904 31.8526 39.8505 32.1359 42.4105C32.1359 42.4105 32.1359 42.4105 32.1359 42.6947C32.1359 42.6947 32.1359 42.6947 32.1359 42.9815C32.1359 43.5498 32.4193 43.2656 32.1359 43.834L31.8526 44.1181C31.5692 44.6865 31.2833 45.8257 31.5692 46.9624C32.4193 49.2409 33.8386 48.9541 35.258 50.0934C35.258 50.0934 34.9746 50.0934 34.9746 50.3775L33.2719 50.9459C26.1752 53.2218 23.9032 59.197 26.7419 62.8964C27.8779 64.3198 29.5806 65.4565 32.4193 66.0274C31.5692 66.0274 30.9999 66.5957 30.7166 66.8799C27.5945 69.44 25.6085 73.1393 25.0392 76.8386C24.7558 77.9753 25.8918 78.8304 26.7419 78.8304L65.6155 77.587C66.928 76.7963 69.0596 75.466 69.3197 74.5744C69.3409 74.5018 69.6244 74.318 69.6031 74.2323ZM37.8133 54.9294C38.0967 55.5003 38.6634 56.0686 39.2326 56.637C39.516 56.9211 40.0827 57.4895 40.652 57.7762C40.9353 58.0604 41.2187 58.3445 41.5021 58.3445C41.5021 58.3445 41.5021 58.3445 41.788 58.6287C41.788 58.6287 42.0713 58.6287 42.0713 58.9129V61.7597C42.0713 61.7597 42.0713 61.7597 41.788 61.473C41.5021 61.1888 41.2187 60.9046 40.9353 60.9046C40.3686 60.6205 40.0827 60.3363 39.516 60.0521C39.2326 60.0521 39.2326 59.768 38.9493 59.768C37.5299 58.9129 36.1106 58.0604 36.1106 56.9211C36.3939 56.3528 36.9607 55.7845 37.8133 54.9294Z" fill="white"/>
<path d="M69.6031 73.1393C63.0757 79.1146 54.5596 82.8139 45.1934 82.8139C37.53 82.8139 30.4332 80.5354 24.7559 76.5545C24.7559 76.2677 24.7559 76.2677 24.7559 75.9836C25.3226 72.2868 27.3112 68.5875 30.4332 66.0274C31 65.7406 31.5692 65.1723 32.1359 65.1723C29.5806 64.604 27.5946 63.4647 26.4586 62.0439H34.9746C37.2441 65.4565 41.2187 67.4482 45.7601 67.4482C49.4515 67.4482 52.8569 66.0274 55.1289 63.4647C55.4122 63.4647 55.6956 63.4647 55.9789 63.4647C56.2623 63.4647 56.8316 63.4647 57.3983 63.4647C59.3843 63.4647 61.0896 64.0356 62.5089 64.604C65.631 66.0274 67.9004 68.8716 69.3198 72.0001C69.3198 72.571 69.6031 72.8551 69.6031 73.1393Z" fill="#00DDFF"/>
<path d="M52.5736 57.7762V62.6122L38.6635 63.1806L39.5161 60.0522C39.7994 60.0522 39.7994 60.3363 40.0828 60.3363C40.6521 60.6205 40.9354 60.9047 41.5021 61.1888C41.7881 61.473 42.0714 61.473 42.3548 61.7572C42.3548 61.7572 42.3548 61.7572 42.6381 62.0439V58.9129C42.6381 58.9129 42.3548 58.9129 42.3548 58.6287C44.6268 59.768 48.0322 60.6205 52.5736 57.7762Z" fill="url(#paint4_linear_1585_35024)"/>
<path d="M61.6563 38.7112C58.8176 39.5663 55.9789 40.1346 53.1403 39.8504C48.5989 39.5663 44.0575 37.5745 40.6521 34.4435C39.5161 37.8587 36.6774 40.4188 33.272 41.8422C32.7027 42.1264 32.4193 42.1264 31.8526 42.4105C31.8526 42.4105 31.8526 42.4105 31.8526 42.1264C31.5693 39.5663 31.8526 37.2904 32.4193 34.7277C33.272 32.4518 34.6913 30.1759 36.394 28.4683C36.394 28.4683 36.6774 28.4683 36.6774 28.1841C36.9607 27.8999 37.2441 27.6158 37.53 27.3316C39.2327 26.1924 41.2188 25.3399 43.2074 24.7715C44.3408 24.4874 45.4768 24.4874 46.6128 24.4874C52.2902 24.4874 57.3983 27.6158 59.9536 32.4518C60.8063 34.4435 61.373 35.8669 61.6563 37.2904C61.6563 37.8587 61.6563 38.1429 61.6563 38.7112Z" fill="#1C3754"/>
<path d="M44.0575 71.4317C42.9215 72.8551 40.6521 73.1393 38.6634 72.8551C40.6521 70.8634 39.5161 64.3198 32.4193 65.1723C22.4839 63.1805 23.6199 53.2218 33.272 50.0934L34.9747 49.525L35.258 49.8092C36.1107 51.8009 36.9607 53.5059 38.0967 54.9294C34.122 58.3445 39.5161 59.197 42.3548 61.7571C44.3408 63.1805 46.3294 68.5874 44.0575 71.4317Z" fill="#1C3754"/>
<path fill-rule="evenodd" clip-rule="evenodd" d="M81.2413 46.9624C81.2413 57.4895 76.6999 66.8799 69.6031 73.4235C63.0757 79.3987 54.5596 83.098 45.1935 83.098C37.53 83.098 30.4333 80.8221 24.7559 76.8386C15.3897 70.295 9.14307 59.4812 9.14307 47.2465C9.14307 27.3316 25.3226 11.1135 45.1935 11.1135C65.0617 11.1135 81.2413 27.0475 81.2413 46.9624Z" stroke="white" stroke-width="1.492" stroke-linecap="round" stroke-linejoin="round"/>
</g>
<defs>
<filter id="filter0_d_1585_35024" x="31.5804" y="40.7626" width="233.83" height="180.363" filterUnits="userSpaceOnUse" color-interpolation-filters="sRGB">
<feFlood flood-opacity="0" result="BackgroundImageFix"/>
<feColorMatrix in="SourceAlpha" type="matrix" values="0 0 0 0 0 0 0 0 0 0 0 0 0 0 0 0 0 0 127 0" result="hardAlpha"/>
<feOffset dy="4"/>
<feGaussianBlur stdDeviation="4"/>
<feColorMatrix type="matrix" values="0 0 0 0 0.027451 0 0 0 0 0.0784314 0 0 0 0 0.180392 0 0 0 0.04 0"/>
<feBlend mode="normal" in2="BackgroundImageFix" result="effect1_dropShadow_1585_35024"/>
<feBlend mode="normal" in="SourceGraphic" in2="effect1_dropShadow_1585_35024" result="shape"/>
</filter>
<filter id="filter1_d_1585_35024" x="173.094" y="147.885" width="71.1589" height="71.1532" filterUnits="userSpaceOnUse" color-interpolation-filters="sRGB">
<feFlood flood-opacity="0" result="BackgroundImageFix"/>
<feColorMatrix in="SourceAlpha" type="matrix" values="0 0 0 0 0 0 0 0 0 0 0 0 0 0 0 0 0 0 127 0" result="hardAlpha"/>
<feOffset dy="4"/>
<feGaussianBlur stdDeviation="4"/>
<feColorMatrix type="matrix" values="0 0 0 0 0.027451 0 0 0 0 0.0784314 0 0 0 0 0.180392 0 0 0 0.08 0"/>
<feBlend mode="normal" in2="BackgroundImageFix" result="effect1_dropShadow_1585_35024"/>
<feBlend mode="normal" in="SourceGraphic" in2="effect1_dropShadow_1585_35024" result="shape"/>
</filter>
<filter id="filter2_d_1585_35024" x="0.397095" y="6.36749" width="89.5902" height="89.4766" filterUnits="userSpaceOnUse" color-interpolation-filters="sRGB">
<feFlood flood-opacity="0" result="BackgroundImageFix"/>
<feColorMatrix in="SourceAlpha" type="matrix" values="0 0 0 0 0 0 0 0 0 0 0 0 0 0 0 0 0 0 127 0" result="hardAlpha"/>
<feOffset dy="4"/>
<feGaussianBlur stdDeviation="4"/>
<feColorMatrix type="matrix" values="0 0 0 0 0.027451 0 0 0 0 0.0784314 0 0 0 0 0.180392 0 0 0 0.08 0"/>
<feBlend mode="normal" in2="BackgroundImageFix" result="effect1_dropShadow_1585_35024"/>
<feBlend mode="normal" in="SourceGraphic" in2="effect1_dropShadow_1585_35024" result="shape"/>
</filter>
<linearGradient id="paint0_linear_1585_35024" x1="147.997" y1="243.955" x2="147.997" y2="207.793" gradientUnits="userSpaceOnUse">
<stop stop-color="#F8F8F8"/>
<stop offset="0.9913" stop-color="#CED7E2"/>
</linearGradient>
<linearGradient id="paint1_linear_1585_35024" x1="96.4821" y1="85.3651" x2="235.55" y2="93.0573" gradientUnits="userSpaceOnUse">
<stop stop-color="#00DDFF"/>
<stop offset="1" stop-color="#0095C0"/>
</linearGradient>
<linearGradient id="paint2_linear_1585_35024" x1="189.651" y1="199.578" x2="228.242" y2="199.578" gradientUnits="userSpaceOnUse">
<stop stop-color="#83A6FF"/>
<stop offset="1" stop-color="#5A78FF"/>
</linearGradient>
<linearGradient id="paint3_linear_1585_35024" x1="209.215" y1="191.742" x2="209.215" y2="187.926" gradientUnits="userSpaceOnUse">
<stop stop-color="white"/>
<stop offset="0.9913" stop-color="#E6EDF7"/>
</linearGradient>
<linearGradient id="paint4_linear_1585_35024" x1="45.6572" y1="62.5554" x2="45.6572" y2="60.3828" gradientUnits="userSpaceOnUse">
<stop stop-color="white"/>
<stop offset="0.9913" stop-color="#E6EDF7"/>
</linearGradient>
</defs>
</svg>
