<svg width="178" height="245" xmlns="http://www.w3.org/2000/svg" xmlns:xlink="http://www.w3.org/1999/xlink"><defs><filter x="-21.5%" y="-222.4%" width="143.1%" height="544.9%" filterUnits="objectBoundingBox" id="a"><feGaussianBlur stdDeviation="8.898" in="SourceGraphic"/></filter><filter x="-10.4%" y="-13.3%" width="120.9%" height="153%" filterUnits="objectBoundingBox" id="b"><feOffset dy="16" in="SourceAlpha" result="shadowOffsetOuter1"/><feColorMatrix values="0 0 0 0 0.105882353 0 0 0 0 0.207843137 0 0 0 0 0.329411765 0 0 0 0.078753278 0" in="shadowOffsetOuter1"/></filter><path d="M0 46.377C18.077 34.028 27.553 18.643 28.43.222 33.175-.487 42.344.397 65.35 4.4c2.142.372 2.331 3.773.568 10.201 7.756 2.846 11.31 5.557 10.661 8.133-5.621 22.332-13.058 32.515-24.282 37.3C39.422 61.668 21.99 57.116 0 46.376z" id="c"/></defs><g fill="none" fill-rule="evenodd"><path fill="#1B3554" filter="url(#a)" d="M19 102h124v12H19z" transform="translate(8 104)"/><path fill="#E0E5EC" d="M28 104h124v79H28z"/><path fill="#CFD4DC" d="M28 104v120H8v-72.563zM152 104v119h19v-71.563z"/><path d="M8 151h163v74a5 5 0 01-5 5H13a5 5 0 01-5-5v-74z" fill="#F8F8F8"/><g fill="#1B3554" opacity=".2"><path d="M59.442 179.128c1.736-.752 3.448-1.128 5.136-1.128 1.652 0 3.304.36 4.955 1.08A4.108 4.108 0 0172 182.846a1.416 1.416 0 01-2.023 1.28c-1.798-.853-3.61-1.28-5.437-1.28-1.835 0-3.67.431-5.506 1.292A1.427 1.427 0 0157 182.846c0-1.615.96-3.076 2.442-3.718zM110.442 179.128c1.736-.752 3.448-1.128 5.136-1.128 1.652 0 3.304.36 4.955 1.08a4.108 4.108 0 012.467 3.766 1.416 1.416 0 01-2.023 1.28c-1.798-.853-3.61-1.28-5.437-1.28-1.835 0-3.67.431-5.506 1.292a1.427 1.427 0 01-2.034-1.292c0-1.615.96-3.076 2.442-3.718zM90 206.006c8.837 0 16-5.163 16-14-16-.052-19.442.256-32 0 0 8.837 7.163 14 16 14z"/></g><g><path d="M62.617 77.718c4.73 15.246-4.077 32.743-16.256 46.044 12.454 4.632 34.692 10.398 52.424 13.3.843.139 3.336-.529 4.145-.502 4.885.163 7.092-3.675 8.762-4.972 6.38-8.91 12.947-15.62 15.144-27.17 1.126-5.921 1.536-10.886 1.292-12.96-6.852-4.776-21.315-2.58-65.511-13.74z" fill="#3D68FF"/><path d="M104.54 126.425c2.805 3.395-.951 11.272-7.081 10.483 6.519.774 10.29-1.23 13.076-3.345 2.787-2.115 15.856-11.92 17.549-42.061-2.474 25.372-10.006 37.093-23.544 34.923z" fill="#335AE4"/></g><g><path d="M123.433 25.749c1.599 3.076 2.873 5.97 3.824 8.68 1.98 5.644.977 12.23.686 12.31-1.588.437-7.453-6.963-7.602-11.473-.09-2.704.94-5.877 3.092-9.517z" fill="#006C87"/><g transform="rotate(18 28.075 196.81)"><use fill="#000" filter="url(#b)" xlink:href="#c"/><use fill="#0093B3" xlink:href="#c"/></g></g></g></svg>
