<?xml version="1.0" encoding="UTF-8"?>
<svg width="179px" height="101px" viewBox="0 0 179 101" version="1.1" xmlns="http://www.w3.org/2000/svg" xmlns:xlink="http://www.w3.org/1999/xlink">
    <title>Group 3</title>
    <defs>
        <linearGradient x1="50.0000341%" y1="-13.2685573%" x2="50.0000341%" y2="143.881515%" id="linearGradient-1">
            <stop stop-color="#FFFFFF" offset="0%"></stop>
            <stop stop-color="#A1D2FD" offset="42%"></stop>
            <stop stop-color="#1B91FB" offset="100%"></stop>
        </linearGradient>
        <linearGradient x1="49.9996939%" y1="107.098893%" x2="49.9996939%" y2="-19.4279036%" id="linearGradient-2">
            <stop stop-color="#FFFFFF" offset="0%"></stop>
            <stop stop-color="#A1D2FD" offset="42%"></stop>
            <stop stop-color="#1B91FB" offset="100%"></stop>
        </linearGradient>
        <linearGradient x1="50.0000043%" y1="16.426548%" x2="50.0000043%" y2="87.7984622%" id="linearGradient-3">
            <stop stop-color="#1B91FB" offset="0%"></stop>
            <stop stop-color="#2A4C95" offset="100%"></stop>
        </linearGradient>
        <linearGradient x1="61.1712404%" y1="35.9136783%" x2="-2.91520762%" y2="101.943816%" id="linearGradient-4">
            <stop stop-color="#1B91FB" offset="0%"></stop>
            <stop stop-color="#2A4C95" offset="100%"></stop>
        </linearGradient>
        <linearGradient x1="38.8277694%" y1="35.9073277%" x2="102.929096%" y2="101.944008%" id="linearGradient-5">
            <stop stop-color="#1B91FB" offset="0%"></stop>
            <stop stop-color="#2A4C95" offset="100%"></stop>
        </linearGradient>
        <linearGradient x1="0.112319172%" y1="1.72254642e-14%" x2="99.8876808%" y2="100%" id="linearGradient-6">
            <stop stop-color="#00DDFF" offset="0%"></stop>
            <stop stop-color="#0095C0" offset="100%"></stop>
        </linearGradient>
        <linearGradient x1="50%" y1="168.342753%" x2="50%" y2="-155.601729%" id="linearGradient-7">
            <stop stop-color="#61D2A7" offset="0%"></stop>
            <stop stop-color="#4EB98E" offset="48%"></stop>
            <stop stop-color="#36996E" offset="100%"></stop>
        </linearGradient>
    </defs>
    <g id="Élèves" stroke="none" stroke-width="1" fill="none" fill-rule="evenodd">
        <g id="Eleve--vide-Copy-4" transform="translate(-684.000000, -155.000000)">
            <g id="Group-3" transform="translate(684.000000, 155.000000)">
                <g id="Illustration-7">
                    <g id="Group-5" transform="translate(43.142180, 0.000000)">
                        <g id="Group" opacity="0.57">
                            <g></g>
                        </g>
                        <g id="fILES" transform="translate(0.666636, 56.171949)">
                            <g id="Group" transform="translate(38.005554, 0.000000)"></g>
                            <g id="Group" transform="translate(42.678172, 2.495638)"></g>
                            <g id="Group" transform="translate(0.000000, 2.499704)"></g>
                        </g>
                        <g id="Group-4" transform="translate(31.160960, 70.475381)"></g>
                        <g id="Group" transform="translate(54.254214, 9.960133)"></g>
                    </g>
                    <path d="M178.984073,86.957399 C178.817141,89.2131887 177.339673,91.4135808 174.758463,93.5098254 C172.3691,95.4498489 169.034207,97.3012362 164.916979,99.0163455 L14.5303705,99.0163455 C11.482373,97.2239792 8.82042483,94.9600664 6.67088602,92.3320728 C5.88543476,91.3708636 5.16894698,90.3665421 4.52569149,89.3250918 C-14.2067651,59.0192884 30.3128732,1.0556862 45.2769131,3.90201417 C52.1497576,5.21493696 48.0898337,18.4483123 59.4000666,24.8711084 C80.8009359,37.0220149 121.735284,4.66206905 133.786743,14.3887772 C140.241013,19.5961503 129.442786,29.6364088 133.472812,45.029182 C140.317004,71.1646552 179.908425,74.5361522 178.984073,86.957399 Z" id="Path" fill="url(#linearGradient-1)" fill-rule="nonzero" opacity="0.18"></path>
                    <path d="M164.791173,99.228033 C164.789225,99.5015584 164.689217,99.761414 164.515767,99.9436337 C164.334754,100.136822 164.098756,100.243207 163.854331,100.241814 L15.3078466,100.241814 C14.7927564,100.241814 14.3710047,99.7864184 14.3710047,99.2293883 C14.3729888,98.9562618 14.4730188,98.6968413 14.6464109,98.5151428 C14.8274232,98.321955 15.0634213,98.21557 15.3078466,98.2169621 L163.853179,98.2169621 C164.369421,98.2169621 164.791173,98.6723582 164.791173,99.228033 Z" id="Path" fill="#1B91FB" fill-rule="nonzero" opacity="0.42"></path>
                </g>
                <g id="Group-2" transform="translate(43.142180, 9.960133)">
                    <path d="M62.3741941,6.35366737 C62.5828069,7.45859502 62.8466748,8.55234592 63.1648024,9.63079359 L62.900815,9.70804595 C62.5819763,8.62001331 62.3194448,7.51623071 62.114268,6.40110303 L62.3741941,6.35366737 Z" id="Path" fill="#1B91FB" fill-rule="nonzero"></path>
                    <polygon id="Path" fill="#1B91FB" fill-rule="nonzero" points="64.2139829 12.8415099 65.3998954 16.0102117 65.1291391 16.1145702 63.947288 12.9363812"></polygon>
                    <polygon id="Path" fill="#1B91FB" fill-rule="nonzero" points="66.6291288 19.1653606 67.8150413 22.3421943 67.5253321 22.4438421 66.3502499 19.2724296"></polygon>
                    <path d="M68.8601605,25.5732401 C69.1773476,26.6629515 69.4349484,27.7691666 69.6318159,28.8869596 L69.3245075,28.9398164 C69.1251976,27.8340406 68.8689918,26.7393044 68.5569135,25.6599796 L68.8601605,25.5732401 Z" id="Path" fill="#1B91FB" fill-rule="nonzero"></path>
                    <path d="M69.9431856,32.280642 C69.9482743,33.4225298 69.8118545,34.5606401 69.5370512,35.6689031 L69.2514033,35.597072 C69.5162623,34.5108823 69.6454078,33.3959766 69.6358772,32.2779313 L69.9431856,32.280642 Z" id="Path" fill="#1B91FB" fill-rule="nonzero"></path>
                    <path d="M68.2333597,38.8294732 C67.6409542,39.8075843 66.9171344,40.699582 66.0822012,41.4804487 L65.891318,41.2771531 C66.7050762,40.5129878 67.4102086,39.6406132 67.9869715,38.6844556 L68.2333597,38.8294732 Z" id="Path" fill="#1B91FB" fill-rule="nonzero"></path>
                    <path d="M63.3583931,43.5283138 C62.3854519,44.1134575 61.3694382,44.6236217 60.319154,45.0543866 L60.2216817,44.8212743 C61.2564821,44.3851205 62.2582167,43.8741774 63.2189536,43.2924908 L63.3583931,43.5283138 Z" id="Path" fill="#1B91FB" fill-rule="nonzero"></path>
                    <path d="M57.1147535,46.1725128 C56.0317284,46.4910094 54.9311042,46.760715 53.8250648,46.9938273 L53.7830976,46.7945976 C54.8823681,46.5547087 55.9735158,46.2782266 57.049772,45.9543088 L57.1147535,46.1725128 Z" id="Path" fill="#1B91FB" fill-rule="nonzero"></path>
                    <polygon id="Path" fill="#1B91FB" fill-rule="nonzero" points="50.4893476 47.5847401 47.1279085 47.9926867 47.1116631 47.8436032 50.4636257 47.4085505"></polygon>
                    <polygon id="Path" fill="#1B91FB" fill-rule="nonzero" points="43.7515778 48.2488393 40.369832 48.3830144 40.3684782 48.3206704 43.7448089 48.1417702"></polygon>
                    <polygon id="Path" fill="#1B91FB" fill-rule="nonzero" points="36.9867324 48.4182523 35.4772662 48.4060546 36.9867324 48.3992781"></polygon>
                    <path d="M74.9169783,85.171399 C74.1520918,87.3209119 73.4670784,89.2942353 72.875476,91.0398674 L20.9227629,91.0398674 C15.9040232,86.1224542 11.6268296,80.5000103 8.22564757,74.3492928 C4.27260603,67.2027723 -3.10144099,53.8706422 1.42018872,46.7539384 C4.94814292,41.1971901 11.5248127,46.0329165 26.4285916,40.4409302 C38.394665,35.9535171 41.7669343,29.9834009 48.8851167,31.7832452 C53.7885127,33.0247041 53.7059321,36.238131 60.1133792,40.8014412 C72.7901878,49.8345455 82.5387673,43.9620112 85.970603,50.1801481 C88.6104766,54.9616623 83.8235058,60.2134672 74.9169783,85.171399 Z" id="Path" fill="url(#linearGradient-2)" fill-rule="nonzero" opacity="0.19"></path>
                    <path d="M55.6350705,45.4135423 L55.6350705,71.5424573 C55.6343239,72.5099761 54.8510627,73.2941185 53.8846312,73.2948659 L32.9484026,73.277247 C32.4846405,73.2768879 32.0400352,73.0920145 31.7124868,72.763335 C31.3849385,72.4346555 31.2013061,71.9891218 31.2020226,71.5248383 L31.2020226,41.5577011 C31.2027681,40.5912387 31.9843824,39.8075328 32.9497564,39.8052924 L50.0304157,39.8052924 L55.6350705,45.4135423 Z" id="Path" fill="url(#linearGradient-3)" fill-rule="nonzero"></path>
                    <path d="M55.6350705,45.4148976 L55.6350705,46.1061029 L51.1175021,46.1061029 C50.1682671,46.1053555 49.3989464,45.3351692 49.3981998,44.3848662 L49.3981998,39.8066477 L50.034477,39.8066477 L55.6350705,45.4148976 Z" id="Path" fill="#2A4C95" fill-rule="nonzero"></path>
                    <path d="M46.3697909,58.5898124 L40.4673042,58.5898124 C39.4758901,58.5898124 38.6721902,57.7852082 38.6721902,56.7926787 L38.6721902,56.5744747 C38.6721902,54.4913602 40.3589903,52.8026623 42.4397637,52.8026623 L44.3973315,52.8026623 C46.4781049,52.8026623 48.164905,54.4913602 48.164905,56.5744747 L48.164905,56.7926787 C48.164905,57.7852082 47.361205,58.5898124 46.3697909,58.5898124 Z" id="Path" fill="#FFFFFF" fill-rule="nonzero"></path>
                    <ellipse id="Oval" fill="#FFFFFF" fill-rule="nonzero" cx="43.4185476" cy="48.8871877" rx="2.67236439" ry="2.67537103"></ellipse>
                    <path d="M85.9381123,61.7761332 C85.1823584,61.3257773 84.2096278,61.5120439 83.6732361,62.2098307 C83.6331475,62.2618664 83.5960828,62.3161683 83.562226,62.3724672 L79.3993483,69.3346663 L79.4088248,69.3346663 L67.7094464,88.8998417 C67.2165709,89.7194772 66.1549084,89.9865541 65.3335601,89.4975309 L46.9058883,78.4531548 C46.0871739,77.9597248 45.8203972,76.8968678 46.3088708,76.0745954 L62.1711269,49.5485763 C62.2049837,49.4922774 62.2420483,49.4379755 62.2821369,49.3859397 C62.8185287,48.688153 63.7912593,48.5018864 64.5470131,48.9522423 L85.9381123,61.7761332 Z" id="Path" fill="url(#linearGradient-4)" fill-rule="nonzero"></path>
                    <path d="M65.3335601,89.5083734 L44.1861416,76.8295 C43.3674272,76.3360701 43.1006505,75.273213 43.589124,74.4509407 L45.2908272,71.6048013 C45.4778717,71.2920606 45.7813614,71.066525 46.1345207,70.9778181 C46.4876799,70.8891112 46.8615742,70.9445009 47.173937,71.1318 L65.9644222,82.3930249 C66.2768114,82.5802799 66.5020936,82.884111 66.5907008,83.2376676 C66.6793079,83.5912242 66.6239805,83.9655391 66.4368919,84.2782534 L64.7351887,87.1243928 C64.2432723,87.9481954 64.511092,89.0152198 65.3335601,89.5083734 Z" id="Path" fill="#1B91FB" fill-rule="nonzero"></path>
                    <path d="M86.5121156,64.1939964 L83.8045528,68.7207133 C83.6175083,69.033454 83.3140186,69.2589897 82.9608594,69.3476965 C82.6077001,69.4364034 82.2338058,69.3810137 81.921443,69.1937146 L80.1263289,68.1176029 L83.5608722,62.3738225 C83.5947291,62.3175236 83.6317937,62.2632217 83.6718823,62.211186 C84.1974563,61.5277549 85.1437784,61.3328573 85.896145,61.753093 C86.3049673,61.9915207 86.6006773,62.3847009 86.7165675,62.8439383 C86.8324576,63.3031756 86.7587658,63.7897855 86.5121156,64.1939964 L86.5121156,64.1939964 Z" id="Path" fill="#2A4C95" fill-rule="nonzero"></path>
                    <path d="M60.809057,61.3275631 L76.0257876,61.3351063 C76.7679886,61.3368078 77.36957,61.9383894 77.3712713,62.6805904 L77.3712759,62.6899214 C77.3729762,63.4326429 76.7711792,64.0350365 76.0284571,64.0354045 C76.0280128,64.0354047 76.0275685,64.0354047 76.0271248,64.0340722 L60.8103943,64.026529 C60.0681933,64.0248275 59.4666119,63.4232459 59.4649105,62.6810449 L59.4649059,62.6717139 C59.4632057,61.9289924 60.0650026,61.3265988 60.8077248,61.3262308 C60.8081691,61.3262306 60.8086134,61.3262306 60.809057,61.3275631 Z" id="Rectangle" fill="#2A4C95" fill-rule="nonzero" opacity="0.26" transform="translate(68.418091, 62.680818) rotate(30.910000) translate(-68.418091, -62.680818) "></path>
                    <path d="M57.5987526,66.6983947 L72.8154832,66.7059379 C73.5576842,66.7076395 74.1592656,67.309221 74.1609669,68.051422 L74.1609715,68.0607531 C74.1626718,68.8034746 73.5608748,69.4058681 72.8181527,69.4062361 C72.8177084,69.4062363 72.8172641,69.4062363 72.8168204,69.4049038 L57.6000898,69.3973606 C56.8578888,69.3956591 56.2563075,68.7940776 56.2546061,68.0518766 L56.2546015,68.0425455 C56.2529012,67.299824 56.8546982,66.6974304 57.5974203,66.6970625 C57.5978647,66.6970622 57.598309,66.6970622 57.5987526,66.6983947 Z" id="Rectangle" fill="#2A4C95" fill-rule="nonzero" opacity="0.26" transform="translate(65.207787, 68.051649) rotate(30.910000) translate(-65.207787, -68.051649) "></path>
                    <path d="M54.2987642,72.2132565 L69.5154948,72.2207997 C70.2576958,72.2225012 70.8592772,72.8240828 70.8609785,73.5662838 L70.8609831,73.5756148 C70.8626834,74.3183363 70.2608864,74.9207299 69.5181643,74.9210979 C69.51772,74.9210981 69.5172757,74.9210981 69.516832,74.9197656 L54.3001014,74.9122224 C53.5579005,74.9105209 52.9563191,74.3089393 52.9546177,73.5667383 L52.9546131,73.5574073 C52.9529128,72.8146858 53.5547098,72.2122922 54.2974319,72.2119242 C54.2978763,72.211924 54.2983206,72.211924 54.2987642,72.2132565 Z" id="Rectangle" fill="#2A4C95" fill-rule="nonzero" opacity="0.26" transform="translate(61.907798, 73.566511) rotate(30.910000) translate(-61.907798, -73.566511) "></path>
                    <path d="M1.49735426,61.7761332 C2.25310809,61.3257773 3.22583869,61.5120439 3.76223046,62.2098307 C3.80231905,62.2618664 3.83938367,62.3161683 3.87324053,62.3724672 L8.04017953,69.3346663 L8.03070306,69.3346663 L19.7300815,88.8998417 C20.2229569,89.7194772 21.2846195,89.9865541 22.1059678,89.4975309 L40.530932,78.458576 C41.3496464,77.965146 41.6164231,76.902289 41.1279495,76.0800166 L25.2643397,49.5526422 C25.2304828,49.4963433 25.1934182,49.4420414 25.1533296,49.3900056 C24.6169378,48.6922189 23.6442072,48.5059523 22.8884534,48.9563082 L1.49735426,61.7761332 Z" id="Path" fill="url(#linearGradient-5)" fill-rule="nonzero"></path>
                    <path d="M22.1032602,89.5083734 L43.2493249,76.8349212 C44.0680393,76.3414913 44.334816,75.2786343 43.8463425,74.4563619 L42.1446393,71.6102225 C41.9575948,71.2974818 41.6541051,71.0719462 41.3009458,70.9832393 C40.9477866,70.8945324 40.5738923,70.9499221 40.2615295,71.1372212 L21.4710443,82.3984461 C21.1586551,82.5857011 20.9333729,82.8895322 20.8447658,83.2430888 C20.7561586,83.5966454 20.811486,83.9709604 20.9985746,84.2836746 L22.7002778,87.129814 C23.1887513,87.9520864 22.9219746,89.0149434 22.1032602,89.5083734 Z" id="Path" fill="#1B91FB" fill-rule="nonzero"></path>
                    <path d="M0.924704745,64.1939964 L3.63226745,68.7207133 C3.81931198,69.033454 4.1228017,69.2589897 4.47596094,69.3476965 C4.82912018,69.4364034 5.20301448,69.3810137 5.51537731,69.1937146 L7.31049138,68.1176029 L3.87594809,62.3738225 C3.84209123,62.3175236 3.80502661,62.2632217 3.76493802,62.211186 C3.23936398,61.5277549 2.29304186,61.3328573 1.54067526,61.753093 C1.13185296,61.9915207 0.836142988,62.3847009 0.720252826,62.8439383 C0.604362665,63.3031756 0.678054544,63.7897855 0.924704745,64.1939964 L0.924704745,64.1939964 Z" id="Path" fill="#2A4C95" fill-rule="nonzero"></path>
                    <path d="M11.3998069,61.3384688 L26.6165375,61.3309256 C27.359259,61.3292251 27.9616527,61.9310219 27.9620209,62.6737441 C27.9620211,62.6741884 27.9620211,62.6746327 27.9606886,62.6750764 L27.960684,62.6844074 C27.9589826,63.4266084 27.3574013,64.02819 26.6152003,64.0298915 L11.3984697,64.0374347 C10.6557482,64.0391352 10.0533545,63.4373384 10.0529863,62.6946162 C10.0529861,62.6941719 10.0529861,62.6937276 10.0543186,62.6932839 L10.0543232,62.6839529 C10.0560245,61.9417519 10.6576059,61.3401703 11.3998069,61.3384688 Z" id="Rectangle" fill="#2A4C95" fill-rule="nonzero" opacity="0.26" transform="translate(19.007504, 62.684180) rotate(149.090000) translate(-19.007504, -62.684180) "></path>
                    <path d="M14.6118412,66.7097804 L29.8285718,66.7022372 C30.5712933,66.7005368 31.173687,67.3023336 31.1740552,68.0450557 C31.1740554,68.0455 31.1740554,68.0459443 31.1727229,68.046388 L31.1727183,68.0557191 C31.171017,68.79792 30.5694356,69.3995016 29.8272346,69.4012031 L14.610504,69.4087463 C13.8677825,69.4104468 13.2653888,68.80865 13.2650206,68.0659278 C13.2650204,68.0654835 13.2650204,68.0650392 13.2663529,68.0645955 L13.2663575,68.0552645 C13.2680589,67.3130635 13.8696402,66.711482 14.6118412,66.7097804 Z" id="Rectangle" fill="#2A4C95" fill-rule="nonzero" opacity="0.26" transform="translate(22.219538, 68.055492) rotate(149.090000) translate(-22.219538, -68.055492) "></path>
                    <path d="M17.9101832,72.2270971 L33.1269137,72.2195539 C33.8696352,72.2178534 34.4720289,72.8196502 34.4723971,73.5623724 C34.4723973,73.5628167 34.4723973,73.563261 34.4710648,73.5637046 L34.4710602,73.5730357 C34.4693589,74.3152367 33.8677775,74.9168182 33.1255765,74.9185198 L17.9088459,74.926063 C17.1661244,74.9277634 16.5637307,74.3259666 16.5633625,73.5832445 C16.5633623,73.5828002 16.5633623,73.5823559 16.5646948,73.5819122 L16.5646994,73.5725811 C16.5664008,72.8303801 17.1679822,72.2287986 17.9101832,72.2270971 Z" id="Rectangle" fill="#2A4C95" fill-rule="nonzero" opacity="0.26" transform="translate(25.517880, 73.572808) rotate(149.090000) translate(-25.517880, -73.572808) "></path>
                    <ellipse id="Oval" fill="#2A4C95" fill-rule="nonzero" opacity="0.39" cx="44.320166" cy="73.6892595" rx="15.4155082" ry="15.432852"></ellipse>
                    <ellipse id="Oval" fill="url(#linearGradient-6)" fill-rule="nonzero" cx="44.5972401" cy="73.9666455" rx="13.4362799" ry="13.4513969"></ellipse>
                    <g id="Group" transform="translate(36.785485, 68.139754)" fill="#FFFFFF">
                        <g id="logos--pix/couleur-copy-5" transform="translate(0.012384, 0.021882)">
                            <g id="Group" transform="translate(9.226374, 2.489692)">
                                <path d="M3.7062216,3.30858428 L5.42364373,5.27722337 C5.73537666,5.65217115 5.72051339,5.72161507 5.20098049,5.72161507 L5.20098049,5.72161507 L5.02284111,5.72161507 C4.50330822,5.72161507 4.31032755,5.62440181 3.99859462,5.27722337 L3.99859462,5.27722337 L3.0524732,4.199 L3.27811104,3.94267866 C3.47895653,3.72528401 3.62166004,3.51536121 3.7062216,3.30858428 Z M5.29821091,0.000995862568 C5.72104362,0.0106169837 5.71459446,0.0944404346 5.42364373,0.444391695 L5.42364373,0.444391695 L3.70618885,2.41295072 C3.62162303,2.20619923 3.47893001,1.99630212 3.27810979,1.77893504 L3.0524732,1.522 L3.99859462,0.444391695 C4.27915426,0.131931099 4.46352456,0.0219423028 4.87633251,0.00306914957 L5.02284111,0 Z" id="Combined-Shape"></path>
                                <path d="M3.00225436,5.72161507 C3.52178725,5.72161507 3.53665053,5.65217115 3.2249176,5.27722337 L1.44361171,3.2357656 C1.31001816,3.08301367 1.23578976,2.9580105 1.23578976,2.86079725 C1.23578976,2.74969932 1.31001816,2.62471673 1.44361171,2.48584947 L3.2249176,0.444391695 C3.53665053,0.069443916 3.52178725,0 3.00225436,0 L2.82411498,0 C2.30458208,0 2.11160142,0.0972132545 1.79986849,0.444391695 L0.434206503,1.9997832 C-0.144735501,2.62471673 -0.144735501,3.09689833 0.434206503,3.72183187 L1.79986849,5.27722337 C2.11160142,5.62440181 2.30458208,5.72161507 2.82411498,5.72161507 L3.00225436,5.72161507 Z" id="Page-1" transform="translate(1.715870, 2.860808) scale(-1, 1) translate(-1.715870, -2.860808) "></path>
                            </g>
                            <path d="M0,9.99165149 C0,10.4062794 0.110798651,10.5099364 0.553993253,10.5099364 L0.701710593,10.5099364 C1.1449052,10.5099364 1.25570385,10.4062794 1.25570385,9.99165149 L1.25570385,7.58453496 C1.5880998,8.07977388 2.19133926,8.33315981 3.06540095,8.33315981 C4.77660563,8.33315981 5.62605485,7.492391 5.62605485,5.82238631 L5.62605485,4.82037552 C5.62605485,3.15035091 4.71505319,2.36718701 2.80686366,2.36718701 C1.03410655,2.36718701 0,3.17339686 0,4.82037552 L0,9.99165149 Z M4.35804477,5.84541234 C4.35804477,6.81286416 4.01334259,7.21597904 2.81919119,7.21597904 C1.60040603,7.21597904 1.25570385,6.80135114 1.25570385,5.84541234 L1.25570385,4.85491457 C1.25570385,3.88746275 1.62503978,3.47283485 2.81919119,3.47283485 C4.03795505,3.47283485 4.35804477,3.88746275 4.35804477,4.85491457 L4.35804477,5.84541234 Z" id="Fill-1"></path>
                            <path d="M6.8102246,7.67918118 C6.8102246,8.09380908 6.92102325,8.19746605 7.36421785,8.19746605 L7.52424142,8.19746605 C7.96743602,8.19746605 8.07823467,8.09380908 8.07823467,7.67918118 L8.07823467,3.00314414 C8.07823467,2.58851624 7.96743602,2.48485926 7.52424142,2.48485926 L7.36421785,2.48485926 C6.92102325,2.48485926 6.8102246,2.58851624 6.8102246,3.00314414 L6.8102246,7.67918118 Z M6.8963895,1.24099548 C7.20417299,1.51740744 7.69659251,1.51740744 7.99206977,1.24099548 C8.29983197,0.95305059 8.29983197,0.49237063 7.99206977,0.21595867 C7.69659251,-0.0719862235 7.20417299,-0.0719862235 6.8963895,0.21595867 C6.5886273,0.49237063 6.5886273,0.95305059 6.8963895,1.24099548 L6.8963895,1.24099548 Z" id="Fill-2"></path>
                        </g>
                    </g>
                    <ellipse id="Oval" fill="#1B91FB" fill-rule="nonzero" opacity="0.12" cx="62.3985621" cy="11.7193178" rx="8.14434861" ry="8.15351171"></ellipse>
                    <ellipse id="Oval" fill="url(#linearGradient-7)" fill-rule="nonzero" cx="62.4973882" cy="8.15351171" rx="8.14434861" ry="8.15351171"></ellipse>
                    <polyline id="Path" stroke="#FFFFFF" stroke-width="2.06718445" stroke-linecap="round" stroke-linejoin="round" points="59.1928079 8.41237487 61.4888211 11.3750704 66.677865 5.79257132"></polyline>
                </g>
            </g>
        </g>
    </g>
</svg>