<?xml version="1.0" encoding="UTF-8"?>
<svg width="161px" height="161px" viewBox="0 0 161 161" version="1.1" xmlns="http://www.w3.org/2000/svg" xmlns:xlink="http://www.w3.org/1999/xlink">
    <defs>
        <linearGradient x1="0%" y1="0%" x2="99.1156684%" y2="100%" id="linearGradient-1">
            <stop stop-color="#388AFF" offset="0%"></stop>
            <stop stop-color="#985FFF" offset="100%"></stop>
        </linearGradient>
    </defs>
    <g id="Elements" stroke="none" stroke-width="1" fill="none" fill-rule="evenodd">
        <g id="Icons" transform="translate(-105.000000, -577.000000)" fill-rule="nonzero">
            <g id="icn-recherche" transform="translate(105.281250, 576.781250)">
                <circle id="Oval" fill="url(#linearGradient-1)" cx="80.435887" cy="80.7480687" r="80"></circle>
                <g id="seo" transform="translate(14.205558, 13.361586)">
                    <path d="M77.4042161,77.4032551 C83.4675607,71.3405511 91.5283178,68.0017077 100.101881,68.0017077 C105.942935,68.0017077 111.544722,69.5526171 116.44024,72.4574493 L116.44024,17.2204754 L0,17.2204754 L0,118.727848 C0,120.489517 1.44136561,121.930883 3.20303469,121.930883 L76.5733489,121.930883 C64.8979671,109.359932 65.1737484,89.6343634 77.4042161,77.4032551 Z" id="Shape" fill="#EEF6FF"></path>
                    <path d="M7.26448268,118.727848 L7.26448268,17.2204754 L0,17.2204754 L0,118.727848 C0,120.489517 1.44136561,121.930883 3.20303469,121.930883 L10.4675174,121.930883 C8.70584829,121.930883 7.26448268,120.489517 7.26448268,118.727848 Z" id="Shape" fill="#C3DDF4"></path>
                    <path d="M114.609386,0 L1.83085463,0 C0.823820523,0 0,0.823820523 0,1.83085463 L0,18.1285357 L116.44024,18.1285357 L116.44024,1.83085463 C116.44024,0.823820523 115.61642,0 114.609386,0 Z" id="Shape" fill="#293D7C"></path>
                    <path d="M9.09533731,0 L1.83085463,0 C0.823820523,0 0,0.823820523 0,1.83085463 L0,18.1285357 L7.26448268,18.1285357 L7.26448268,1.83085463 C7.26448268,0.823820523 8.0883032,0 9.09533731,0 Z" id="Shape" fill="#1A2B63"></path>
                    <path d="M50.6909067,57.2110041 C50.6909067,58.0918387 49.9702239,58.8125215 49.0893894,58.8125215 L13.3938099,58.8125215 C12.5129753,58.8125215 11.7922925,58.0918387 11.7922925,57.2110041 L11.7922925,31.6126712 C11.7922925,30.7318367 12.5129753,30.0111538 13.3938099,30.0111538 L49.0890691,30.0111538 C49.9699036,30.0111538 50.6905864,30.7318367 50.6905864,31.6126712 L50.6905864,57.2110041 L50.6909067,57.2110041 Z" id="Shape" fill="#69CDFF"></path>
                    <path d="M19.0567752,57.2110041 L19.0567752,31.6126712 C19.0567752,30.7318367 19.777458,30.0111538 20.6582925,30.0111538 L13.3938099,30.0111538 C12.5129753,30.0111538 11.7922925,30.7318367 11.7922925,31.6126712 L11.7922925,57.2110041 C11.7922925,58.0918387 12.5129753,58.8125215 13.3938099,58.8125215 L20.6582925,58.8125215 C19.777458,58.8125215 19.0567752,58.0918387 19.0567752,57.2110041 Z" id="Shape" fill="#52BBEF"></path>
                    <path d="M69.553578,90.257674 L13.3938099,90.257674 C12.5129753,90.257674 11.7922925,90.9783568 11.7922925,91.8591913 L11.7922925,107.17258 C11.7922925,108.053414 12.5129753,108.774097 13.3938099,108.774097 L69.2054082,108.774097 C67.5158074,102.717479 67.6307963,96.2588798 69.553578,90.257674 Z" id="Shape" fill="#FF9518"></path>
                    <path d="M19.0567752,107.17258 L19.0567752,91.8591913 C19.0567752,90.9783568 19.777458,90.257674 20.6582925,90.257674 L13.3938099,90.257674 C12.5129753,90.257674 11.7922925,90.9783568 11.7922925,91.8591913 L11.7922925,107.17258 C11.7922925,108.053414 12.5129753,108.774097 13.3938099,108.774097 L20.6582925,108.774097 C19.777458,108.774097 19.0567752,108.053414 19.0567752,107.17258 Z" id="Shape" fill="#EF8318"></path>
                    <path d="M69.553578,90.257674 L57.9268824,90.257674 L57.9268824,108.774097 L69.2054082,108.774097 C67.5158074,102.717479 67.6307963,96.2588798 69.553578,90.257674 Z" id="Shape" fill="#FFD00D"></path>
                    <g id="Group" transform="translate(9.288801, 27.546098)" fill="#91E0E8">
                        <path d="M93.4498183,4.86733152 L54.1841364,4.86733152 C52.8574394,4.86733152 51.7818603,3.79175247 51.7818603,2.4650555 C51.7818603,1.13835853 52.8574394,0.06277948 54.1841364,0.06277948 L93.4498183,0.06277948 C94.7768356,0.06277948 95.8520944,1.13835853 95.8520944,2.4650555 C95.8520944,3.79175247 94.7768356,4.86733152 93.4498183,4.86733152 Z" id="Shape"></path>
                        <path d="M93.4498183,14.4677874 L54.1841364,14.4677874 C52.8574394,14.4677874 51.7818603,13.3922083 51.7818603,12.0655114 C51.7818603,10.7388144 52.8574394,9.66323536 54.1841364,9.66323536 L93.4498183,9.66323536 C94.7768356,9.66323536 95.8520944,10.7388144 95.8520944,12.0655114 C95.8520944,13.3922083 94.7768356,14.4677874 93.4498183,14.4677874 Z" id="Shape"></path>
                        <path d="M93.4498183,24.0682433 L54.1841364,24.0682433 C52.8574394,24.0682433 51.7818603,22.9926642 51.7818603,21.6659673 C51.7818603,20.3392703 52.8574394,19.2636912 54.1841364,19.2636912 L93.4498183,19.2636912 C94.7768356,19.2636912 95.8520944,20.3392703 95.8520944,21.6659673 C95.8520944,22.9926642 94.7768356,24.0682433 93.4498183,24.0682433 Z" id="Shape"></path>
                        <path d="M93.4498183,33.6686992 L54.1841364,33.6686992 C52.8574394,33.6686992 51.7818603,32.5931201 51.7818603,31.2664231 C51.7818603,29.9397262 52.8574394,28.8641471 54.1841364,28.8641471 L93.4498183,28.8641471 C94.7768356,28.8641471 95.8520944,29.9397262 95.8520944,31.2664231 C95.8520944,32.5931201 94.7768356,33.6686992 93.4498183,33.6686992 Z" id="Shape"></path>
                        <path d="M86.628956,40.7259455 L2.50349191,40.7259455 C1.17647464,40.7259455 0.101215896,41.8015245 0.101215896,43.1282215 C0.101215896,44.4549185 1.17647464,45.5304975 2.50349191,45.5304975 L73.4744128,45.5304975 C77.4420119,42.9741555 81.9150498,41.3358033 86.628956,40.7259455 Z" id="Shape"></path>
                        <path d="M67.4914643,50.4996856 L2.50349191,50.4996856 C1.17647464,50.4996856 0.101215896,51.5752646 0.101215896,52.9019616 C0.101215896,54.2286585 1.17647464,55.3042376 2.50349191,55.3042376 L63.7416716,55.3042376 C64.8185318,53.6146368 66.0677154,52.0041509 67.4914643,50.4996856 Z" id="Shape"></path>
                    </g>
                    <path d="M11.1769896,11.0857031 C10.543109,11.0857031 9.92460299,10.8294603 9.47617813,10.3839182 C9.03063601,9.93549331 8.77471354,9.31730761 8.77471354,8.68342705 C8.77471354,8.05210891 9.03095631,7.43424352 9.47617813,6.98581866 C9.92428269,6.53739381 10.5427887,6.28115103 11.1769896,6.28115103 C11.8083077,6.28115103 12.4293761,6.5370735 12.8745979,6.98581866 C13.3230228,7.43424352 13.5792656,8.05242921 13.5792656,8.68342705 C13.5792656,9.31730761 13.3230228,9.93581361 12.8745979,10.3839182 C12.4293761,10.8294603 11.8079874,11.0857031 11.1769896,11.0857031 Z" id="Shape" fill="#E26693"></path>
                    <path d="M19.0548534,11.0857031 C18.4235352,11.0857031 17.8024668,10.8294603 17.3569247,10.3807151 C16.9088201,9.93549331 16.6525774,9.31730761 16.6525774,8.68342705 C16.6525774,8.05210891 16.9088201,7.43424352 17.3569247,6.98581866 C17.8053495,6.53739381 18.4235352,6.28115103 19.0548534,6.28115103 C19.6887339,6.28115103 20.3069196,6.5370735 20.7556648,6.98581866 C21.2008866,7.43424352 21.4571294,8.05242921 21.4571294,8.68342705 C21.4571294,9.31442488 21.2005663,9.93581361 20.7556648,10.3807151 C20.3069196,10.8294603 19.6890542,11.0857031 19.0548534,11.0857031 Z" id="Shape" fill="#FFAF10"></path>
                    <path d="M26.9359202,11.0857031 C26.3017194,11.0857031 25.6835337,10.8294603 25.2383119,10.3839182 C24.789887,9.93549331 24.5336442,9.31730761 24.5336442,8.68342705 C24.5336442,8.05210891 24.789887,7.43424352 25.2383119,6.98581866 C25.6835337,6.53739381 26.3017194,6.28115103 26.9359202,6.28115103 C27.5669181,6.28115103 28.1883068,6.5370735 28.6335286,6.98581866 C29.0819535,7.43424352 29.3381963,8.05242921 29.3381963,8.68342705 C29.3381963,9.31730761 29.0819535,9.93581361 28.6335286,10.3839182 C28.1851038,10.8294603 27.5665978,11.0857031 26.9359202,11.0857031 Z" id="Shape" fill="#37C47A"></path>
                    <path d="M131.250112,124.664352 L124.666274,131.24851 L137.618386,144.200622 C139.940586,142.137547 142.139149,139.938664 144.202544,137.616464 L131.250112,124.664352 Z" id="Shape" fill="#445EA0"></path>
                    <path d="M133.863788,120.693871 L128.407419,115.237821 C126.956124,117.955916 125.087473,120.508415 122.798264,122.797303 C120.535,125.060568 117.993072,126.943632 115.249993,128.415747 L120.696113,133.861546 C121.318783,134.484536 122.337988,134.484536 122.960978,133.861546 L133.863788,122.958736 C134.486458,122.336066 134.486458,121.316861 133.863788,120.693871 Z" id="Shape" fill="#293D7C"></path>
                    <path d="M124.432773,130.124566 L119.77556,125.467353 C118.343484,126.582329 116.83005,127.567263 115.249672,128.415426 L120.695792,133.861226 C121.318462,134.484216 122.337668,134.484216 122.960658,133.861226 L126.697639,130.124245 C126.074648,130.747556 125.055763,130.747556 124.432773,130.124566 Z" id="Shape" fill="#1A2B63"></path>
                    <path d="M123.251494,76.9500257 C136.036727,89.735259 136.036727,110.464659 123.251173,123.250213 C110.466581,136.034485 89.7375011,136.034805 76.9513069,123.249892 C64.1660737,110.464659 64.1667143,89.735259 76.9513069,76.950346 C89.7375011,64.1647925 110.466581,64.1644722 123.251494,76.9500257 Z" id="Shape" fill="#445EA0"></path>
                    <path d="M116.333259,116.331337 C107.369246,125.29567 92.8348357,125.29567 83.8698619,116.330697 C74.905849,107.367324 74.9055287,92.8325936 83.8698619,83.8682604 C92.8338748,74.9042475 107.368926,74.9045678 116.332939,83.8682604 C125.297592,92.8329139 125.297592,107.367004 116.333259,116.331337 Z" id="Shape" fill="#69CDFF"></path>
                    <path d="M116.333259,116.331337 C117.149713,115.514884 117.889614,114.651346 118.557126,113.750973 C109.571012,120.414886 96.8229342,119.674665 88.6744139,111.526145 C80.5265343,103.378906 79.7866333,90.6305072 86.4502266,81.6443934 C85.5495333,82.3122261 84.6863154,83.0521271 83.8698619,83.8682604 C74.9055287,92.8325936 74.905849,107.367004 83.8698619,116.330697 C92.8348357,125.29567 107.369246,125.29567 116.333259,116.331337 Z" id="Shape" fill="#52BBEF"></path>
                    <path d="M114.609386,0 L37.1270157,0 L37.1270157,18.1285357 L116.44024,18.1285357 L116.44024,1.83085463 C116.44024,0.823820523 115.61642,0 114.609386,0 Z" id="Shape" fill="#445EA0"></path>
                    <g id="Group" transform="translate(99.934682, 80.716474)" fill="#D9EAFC">
                        <circle id="Oval" cx="4.10949351" cy="4.01340247" r="3.84364163"></circle>
                        <circle id="Oval" cx="12.184344" cy="8.00758673" r="2.72257949"></circle>
                    </g>
                </g>
            </g>
        </g>
    </g>
</svg>
