<?xml version="1.0" encoding="UTF-8"?>
<svg width="167px" height="161px" viewBox="0 0 167 161" version="1.1" xmlns="http://www.w3.org/2000/svg" xmlns:xlink="http://www.w3.org/1999/xlink">
    <defs>
        <linearGradient x1="0%" y1="0%" x2="99.1156684%" y2="100%" id="linearGradient-1">
            <stop stop-color="#388AFF" offset="0%"></stop>
            <stop stop-color="#985FFF" offset="100%"></stop>
        </linearGradient>
    </defs>
    <g id="Elements" stroke="none" stroke-width="1" fill="none" fill-rule="evenodd">
        <g id="Icons" transform="translate(-467.000000, -577.000000)" fill-rule="nonzero">
            <g id="icn-tutos" transform="translate(467.281250, 577.781250)">
                <circle id="Oval" fill="url(#linearGradient-1)" cx="83.3128765" cy="79.7330263" r="79.7330263"></circle>
                <path d="M115.403304,107.641213 C115.403304,106.92329 115.987145,106.339449 116.705068,106.339449 L154.144768,106.339449 L154.144768,36.5183769 L48.6674121,36.5183769 L48.6674121,39.7815731 C48.6674121,40.2453264 48.290226,40.6225124 47.8264727,40.6225124 L12.4809849,40.6225124 L12.4809849,116.369213 C18.3206968,127.637279 26.7684923,137.335093 37.027692,144.661745 L115.40363,144.661745 L115.40363,107.641213 L115.403304,107.641213 Z" id="Shape" fill="#EEF6FF"></path>
                <path d="M12.4809849,40.6225124 L12.4809849,116.369213 C14.3688677,120.011548 16.5327244,123.486931 18.9387091,126.77421 L18.9387091,40.6225124 L12.4809849,40.6225124 Z" id="Shape" fill="#D9EAFC"></path>
                <path d="M150.723082,18.8791534 L48.6674121,18.8791534 L48.6674121,36.8438179 L154.144768,36.8438179 L154.144768,22.3008393 C154.144768,20.4188144 152.605107,18.8791534 150.723082,18.8791534 Z" id="Shape" fill="#293D7C"></path>
                <path d="M145.932592,29.7488803 L137.72009,29.7488803 C136.371788,29.7488803 135.279283,28.6563751 135.279283,27.3080733 C135.279283,25.9597716 136.371788,24.8672664 137.72009,24.8672664 L145.932592,24.8672664 C147.280894,24.8672664 148.373399,25.9597716 148.373399,27.3080733 C148.373399,28.6563751 147.280894,29.7488803 145.932592,29.7488803 Z" id="Shape" fill="#AEC1ED"></path>
                <path d="M142.220613,62.9087069 C142.220613,63.7506225 141.532305,64.4386047 140.690715,64.4386047 L25.9350381,64.4386047 C25.0940987,64.4386047 24.4051403,63.7506225 24.4051403,62.9087069 L24.4051403,47.6077764 C24.4051403,46.7668371 25.0940987,46.0778786 25.9350381,46.0778786 L140.690389,46.0778786 C141.53198,46.0778786 142.220287,46.7668371 142.220287,47.6077764 L142.220287,62.9087069 L142.220613,62.9087069 Z" id="Shape" fill="#FFFFFF"></path>
                <path d="M30.8628646,62.9087069 L30.8628646,47.6077764 C30.8628646,46.7668371 31.551823,46.0778786 32.3927623,46.0778786 L25.9350381,46.0778786 C25.0940987,46.0778786 24.4051403,46.7668371 24.4051403,47.6077764 L24.4051403,62.9087069 C24.4051403,63.7506225 25.0940987,64.4386047 25.9350381,64.4386047 L32.3927623,64.4386047 C31.551823,64.4386047 30.8628646,63.7506225 30.8628646,62.9087069 Z" id="Shape" fill="#EEF6FF"></path>
                <path d="M140.690715,46.0778786 L119.834182,46.0778786 L119.834182,64.4386047 L140.690715,64.4386047 C141.532305,64.4386047 142.220613,63.7506225 142.220613,62.9087069 L142.220613,47.6077764 C142.220613,46.7668371 141.532305,46.0778786 140.690715,46.0778786 Z" id="Shape" fill="#FF9518"></path>
                <path d="M166.625753,157.838848 C166.625753,158.733811 165.893511,159.466053 164.998548,159.466053 L116.705068,159.466053 C115.810105,159.466053 115.077863,158.733811 115.077863,157.838848 L115.077863,107.641213 C115.077863,106.74625 115.810105,106.014008 116.705068,106.014008 L164.998548,106.014008 C165.893511,106.014008 166.625753,106.74625 166.625753,107.641213 L166.625753,157.838848 Z" id="Shape" fill="#52BBEF"></path>
                <g id="Group" transform="translate(114.880646, 105.768300)" fill="#1E99D6">
                    <path d="M6.65494145,52.0705478 L6.65494145,1.87291252 C6.65494145,0.977949976 7.38718353,0.245707897 8.28214607,0.245707897 L1.82442182,0.245707897 C0.929459278,0.245707897 0.1972172,0.977949976 0.1972172,1.87291252 L0.1972172,52.0705478 C0.1972172,52.9655103 0.929459278,53.6977524 1.82442182,53.6977524 L8.28214607,53.6977524 C7.38718353,53.6977524 6.65494145,52.9655103 6.65494145,52.0705478 Z" id="Shape"></path>
                    <path d="M39.1313421,15.8580853 L12.8113074,15.8580853 C11.4630057,15.8580853 10.3705005,14.7655801 10.3705005,13.4172784 C10.3705005,12.0689767 11.4630057,10.9764715 12.8113074,10.9764715 L39.1313421,10.9764715 C40.4796439,10.9764715 41.572149,12.0689767 41.572149,13.4172784 C41.572149,14.7652547 40.4796439,15.8580853 39.1313421,15.8580853 Z" id="Shape"></path>
                    <path d="M39.1313421,24.4162053 L12.8113074,24.4162053 C11.4630057,24.4162053 10.3705005,23.3237001 10.3705005,21.9753984 C10.3705005,20.6270966 11.4630057,19.5345914 12.8113074,19.5345914 L39.1313421,19.5345914 C40.4796439,19.5345914 41.572149,20.6270966 41.572149,21.9753984 C41.572149,23.3237001 40.4796439,24.4162053 39.1313421,24.4162053 Z" id="Shape"></path>
                    <path d="M39.1313421,32.9749762 L12.8113074,32.9749762 C11.4630057,32.9749762 10.3705005,31.882471 10.3705005,30.5341692 C10.3705005,29.1858675 11.4630057,28.0933623 12.8113074,28.0933623 L39.1313421,28.0933623 C40.4796439,28.0933623 41.572149,29.1858675 41.572149,30.5341692 C41.572149,31.882471 40.4796439,32.9749762 39.1313421,32.9749762 Z" id="Shape"></path>
                    <path d="M26.0242089,41.5330961 L12.8113074,41.5330961 C11.4630057,41.5330961 10.3705005,40.4405909 10.3705005,39.0922892 C10.3705005,37.7439874 11.4630057,36.6514823 12.8113074,36.6514823 L26.0242089,36.6514823 C27.3725107,36.6514823 28.4650158,37.7439874 28.4650158,39.0922892 C28.4650158,40.4405909 27.3721852,41.5330961 26.0242089,41.5330961 Z" id="Shape"></path>
                </g>
                <g id="Group" transform="translate(30.916888, 71.271562)" fill="#52BBEF">
                    <path d="M17.3534864,15.9817529 C17.3534864,16.8767154 16.6212443,17.6089575 15.7262818,17.6089575 L1.65584342,17.6089575 C0.76088088,17.6089575 0.0286388013,16.8767154 0.0286388013,15.9817529 L0.0286388013,1.91131454 C0.0286388013,1.016352 0.76088088,0.284109926 1.65584342,0.284109926 L15.7262818,0.284109926 C16.6212443,0.284109926 17.3534864,1.016352 17.3534864,1.91131454 L17.3534864,15.9817529 Z" id="Shape"></path>
                    <path d="M75.0030679,7.48579213 L25.0446317,7.48579213 C23.69633,7.48579213 22.6038248,6.39328695 22.6038248,5.0449852 C22.6038248,3.69668345 23.69633,2.60417827 25.0446317,2.60417827 L75.0030679,2.60417827 C76.3513697,2.60417827 77.4438748,3.69668345 77.4438748,5.0449852 C77.4438748,6.39328695 76.3510442,7.48579213 75.0030679,7.48579213 Z" id="Shape"></path>
                    <path d="M59.0535337,15.2898655 L25.0446317,15.2898655 C23.69633,15.2898655 22.6038248,14.1973603 22.6038248,12.8490585 C22.6038248,11.5007568 23.69633,10.4082516 25.0446317,10.4082516 L59.0535337,10.4082516 C60.4018354,10.4082516 61.4943406,11.5007568 61.4943406,12.8490585 C61.4943406,14.1973603 60.4018354,15.2898655 59.0535337,15.2898655 Z" id="Shape"></path>
                </g>
                <g id="Group" transform="translate(30.916888, 93.401545)" fill="#02AF8E">
                    <path d="M17.3534864,15.8200087 C17.3534864,16.7149713 16.6212443,17.4472134 15.7262818,17.4472134 L1.65584342,17.4472134 C0.76088088,17.4472134 0.0286388013,16.7149713 0.0286388013,15.8200087 L0.0286388013,1.74924496 C0.0286388013,0.854282425 0.76088088,0.122040346 1.65584342,0.122040346 L15.7262818,0.122040346 C16.6212443,0.122040346 17.3534864,0.854282425 17.3534864,1.74924496 L17.3534864,15.8200087 Z" id="Shape"></path>
                    <path d="M75.0030679,7.32372255 L25.0446317,7.32372255 C23.69633,7.32372255 22.6038248,6.23121737 22.6038248,4.88291562 C22.6038248,3.53461387 23.69633,2.44210869 25.0446317,2.44210869 L75.0030679,2.44210869 C76.3513697,2.44210869 77.4438748,3.53461387 77.4438748,4.88291562 C77.4438748,6.23121737 76.3510442,7.32372255 75.0030679,7.32372255 Z" id="Shape"></path>
                    <path d="M59.0535337,15.1277959 L25.0446317,15.1277959 C23.69633,15.1277959 22.6038248,14.0352907 22.6038248,12.686989 C22.6038248,11.3386872 23.69633,10.246182 25.0446317,10.246182 L59.0535337,10.246182 C60.4018354,10.246182 61.4943406,11.3386872 61.4943406,12.686989 C61.4943406,14.0352907 60.4018354,15.1277959 59.0535337,15.1277959 Z" id="Shape"></path>
                </g>
                <path d="M48.2703741,131.189467 C48.2703741,132.08443 47.538132,132.816672 46.6431695,132.816672 L32.5727312,132.816672 C31.6777686,132.816672 30.9455266,132.08443 30.9455266,131.189467 L30.9455266,117.119029 C30.9455266,116.224066 31.6777686,115.491824 32.5727312,115.491824 L46.6431695,115.491824 C47.538132,115.491824 48.2703741,116.224066 48.2703741,117.119029 L48.2703741,131.189467 Z" id="Shape" fill="#FF9518"></path>
                <path d="M37.4032508,87.2533152 L37.4032508,73.1828768 C37.4032508,72.2879143 38.1354929,71.5556722 39.0304554,71.5556722 L32.5727312,71.5556722 C31.6777686,71.5556722 30.9455266,72.2879143 30.9455266,73.1828768 L30.9455266,87.2533152 C30.9455266,88.1482777 31.6777686,88.8805198 32.5727312,88.8805198 L39.0304554,88.8805198 C38.1354929,88.8805198 37.4032508,88.1482777 37.4032508,87.2533152 Z" id="Shape" fill="#1E99D6"></path>
                <path d="M37.4032508,109.221554 L37.4032508,95.1507901 C37.4032508,94.2558275 38.1354929,93.5235854 39.0304554,93.5235854 L32.5727312,93.5235854 C31.6777686,93.5235854 30.9455266,94.2558275 30.9455266,95.1507901 L30.9455266,109.221554 C30.9455266,110.116516 31.6777686,110.848758 32.5727312,110.848758 L39.0304554,110.848758 C38.1354929,110.848758 37.4032508,110.116516 37.4032508,109.221554 Z" id="Shape" fill="#0F9390"></path>
                <path d="M37.4032508,131.189467 L37.4032508,117.119029 C37.4032508,116.224066 38.1354929,115.491824 39.0304554,115.491824 L32.5727312,115.491824 C31.6777686,115.491824 30.9455266,116.224066 30.9455266,117.119029 L30.9455266,131.189467 C30.9455266,132.08443 31.6777686,132.816672 32.5727312,132.816672 L39.0304554,132.816672 C38.1354929,132.816672 37.4032508,132.08443 37.4032508,131.189467 Z" id="Shape" fill="#EF8318"></path>
                <g id="Group" transform="translate(53.372311, 117.809614)" fill="#FF9518">
                    <path d="M52.5476442,4.8835665 L2.58920799,4.8835665 C1.24090624,4.8835665 0.148401061,3.79106132 0.148401061,2.44275957 C0.148401061,1.09445783 1.24090624,0.00195264554 2.58920799,0.00195264554 L52.5476442,0.00195264554 C53.8959459,0.00195264554 54.9884511,1.09445783 54.9884511,2.44275957 C54.9884511,3.79073588 53.8956205,4.8835665 52.5476442,4.8835665 Z" id="Shape"></path>
                    <path d="M36.59811,12.6876399 L2.58920799,12.6876399 C1.24090624,12.6876399 0.148401061,11.5951347 0.148401061,10.2468329 C0.148401061,8.89885662 1.24090624,7.806026 2.58920799,7.806026 L36.59811,7.806026 C37.9464117,7.806026 39.0389169,8.89885662 39.0389169,10.2468329 C39.0389169,11.5951347 37.9464117,12.6876399 36.59811,12.6876399 Z" id="Shape"></path>
                </g>
                <circle id="Oval" fill="#91E0E8" cx="126.632318" cy="81.9362614" r="8.45170079"></circle>
                <path d="M127.112994,87.9113567 C123.812698,84.6107349 123.812698,79.2595098 127.112994,75.9585625 C127.924969,75.1469128 128.861263,74.5357348 129.860366,74.1230757 C126.798293,72.8590631 123.143917,73.4699157 120.65527,75.9585625 C117.354973,79.2595098 117.354973,84.6107349 120.65527,87.9113567 C123.143917,90.399678 126.798293,91.0108561 129.860366,89.7468435 C128.861263,89.3341844 127.924969,88.7233318 127.112994,87.9113567 Z" id="Shape" fill="#5DC1D8"></path>
                <path d="M142.265523,94.1175151 L135.862148,87.7138141 C138.494314,83.5094428 137.986626,77.8864745 134.333552,74.2324238 C132.27644,72.1756372 129.541109,71.0424519 126.631667,71.0424519 C123.722225,71.0424519 120.986894,72.1753117 118.929131,74.2327493 C114.682778,78.4800787 114.682778,85.3901659 118.929457,89.6371699 C120.986569,91.694282 123.722225,92.8274673 126.631667,92.8274673 C128.709282,92.8274673 130.696099,92.2472061 132.412474,91.1677186 L138.813572,97.5688161 C139.290343,98.0455871 139.914864,98.2838098 140.53971,98.2838098 C141.164231,98.2838098 141.789078,98.0455871 142.265523,97.5691416 C143.21874,96.6162505 143.21874,95.0707316 142.265523,94.1175151 Z M122.381408,86.1855435 C120.037908,83.841718 120.037908,80.0282012 122.381083,77.6847011 C123.516546,76.5495632 125.026267,75.9243912 126.631667,75.9243912 C128.237067,75.9243912 129.746787,76.5495632 130.881925,77.6843757 C133.225425,80.0282012 133.225425,83.841718 130.881925,86.1852181 C129.746787,87.3206814 128.237392,87.9458535 126.631667,87.9458535 C125.025941,87.9458535 123.516546,87.3206814 122.381408,86.1855435 Z" id="Shape" fill="#1A2B63"></path>
                <path d="M0,39.7815731 C0,40.4233426 0.52493621,40.9479533 1.16638027,40.9479533 L47.8264727,40.9479533 C48.4679168,40.9479533 48.992853,40.4233426 48.992853,39.7815731 L48.992853,8.51971794 C48.992853,7.87827388 48.4679168,7.35333767 47.8264727,7.35333767 L1.16638027,7.35333767 C0.52493621,7.35333767 0,7.87827388 0,8.51971794 L0,39.7815731 Z" id="Shape" fill="#91E0E8"></path>
                <path d="M6.45772425,39.7815731 L6.45772425,8.51971794 C6.45772425,7.87827388 6.98266046,7.35333767 7.62410452,7.35333767 L1.16638027,7.35333767 C0.52493621,7.35333767 0,7.87827388 0,8.51971794 L0,39.7818985 C0,40.423668 0.52493621,40.9482788 1.16638027,40.9482788 L7.62410452,40.9482788 C6.98266046,40.9479533 6.45772425,40.4233426 6.45772425,39.7815731 Z" id="Shape" fill="#5DC1D8"></path>
                <path d="M11.1896353,25.619035 C11.6032707,25.1289209 12.2795369,25.1289209 12.6931723,25.619035 L18.757764,32.8142083 C19.1713994,33.3043224 19.8476656,33.3043224 20.261301,32.8142083 L31.7083601,19.2335586 C32.1219955,18.7434446 32.7982617,18.7434446 33.2118971,19.2335586 L48.992853,37.9558495 L48.992853,39.7815731 C48.992853,40.4233426 48.4679168,40.9479533 47.8264727,40.9479533 L1.16638027,40.9479533 C0.52493621,40.9479533 0,40.4233426 0,39.7815731 L0,38.8931193 L11.1896353,25.619035 Z" id="Shape" fill="#37C47A"></path>
                <circle id="Oval" fill="#FFFFFF" cx="42.41797" cy="13.4699998" r="3.49946625"></circle>
            </g>
        </g>
    </g>
</svg>
