<?xml version="1.0" encoding="UTF-8"?>
<svg width="161px" height="173px" viewBox="0 0 161 173" version="1.1" xmlns="http://www.w3.org/2000/svg" xmlns:xlink="http://www.w3.org/1999/xlink">
    <defs>
        <linearGradient x1="0%" y1="0%" x2="99.1156684%" y2="100%" id="linearGradient-1">
            <stop stop-color="#388AFF" offset="0%"></stop>
            <stop stop-color="#985FFF" offset="100%"></stop>
        </linearGradient>
        <linearGradient x1="50%" y1="0%" x2="50%" y2="100%" id="linearGradient-2">
            <stop stop-color="#FF87A8" offset="0%"></stop>
            <stop stop-color="#FF4F6F" offset="100%"></stop>
        </linearGradient>
    </defs>
    <g id="Elements" stroke="none" stroke-width="1" fill="none" fill-rule="evenodd">
        <g id="Icons" transform="translate(-286.000000, -565.000000)" fill-rule="nonzero">
            <g id="icn-temps" transform="translate(286.281250, 564.781250)">
                <circle id="Oval" fill="url(#linearGradient-1)" cx="79.6593458" cy="92.7635808" r="79.6593458"></circle>
                <g id="time" transform="translate(41.593137, 0.759920)">
                    <circle id="Oval" fill="#535E8A" cx="59.3743965" cy="59.3743965" r="59.3743965"></circle>
                    <path d="M83.5861621,5.14701799 C76.193122,1.83759118 67.9985275,0 59.3743965,0 C26.5807113,0 0,26.5807113 0,59.3743965 C0,80.6733377 11.2124837,99.3537752 28.0611283,109.830573 C37.1507454,115.484593 47.8826676,118.748793 59.3743965,118.748793 C92.1650666,118.748793 118.748793,92.1678497 118.748793,59.3743965 C118.748793,35.2048423 104.30829,14.4105835 83.5861621,5.14701799 Z" id="Shape" fill="url(#linearGradient-2)"></path>
                    <path d="M109.117384,59.3743965 C109.117384,86.4713866 87.4568625,108.505086 60.5096999,109.107875 C60.1332755,109.117153 59.7540679,109.119936 59.3746284,109.119936 C53.0630837,109.119936 47.0238262,107.944972 41.4681454,105.797289 C38.6351053,104.70211 35.924525,103.358996 33.3700343,101.786502 C19.1250497,93.0401431 9.62282699,77.3210036 9.62282699,59.3743965 C9.62282699,31.9009819 31.8981987,9.62862527 59.3746284,9.62862527 C66.1787951,9.62862527 72.661737,10.9930767 78.5662424,13.468015 C81.8213973,14.8294513 84.8991248,16.5274199 87.7597647,18.5192453 C89.8921405,20.0031414 91.8992734,21.6489254 93.7684072,23.4417539 C103.224939,32.4917107 109.117384,45.2463052 109.117384,59.3743965 Z" id="Shape" fill="#EDEDED"></path>
                    <path d="M93.7681753,23.4419858 C91.8990414,21.6491574 89.8919085,20.0031414 87.7595327,18.5194773 C84.8988929,16.5278838 81.8211654,14.8296832 78.5660105,13.4684788 C72.6615051,10.9933087 66.1787951,9.62862527 59.3743965,9.62862527 C56.2059838,9.62862527 53.1078464,9.92851236 50.104105,10.4944246 C53.5496754,11.143832 56.8709307,12.145775 60.0256594,13.4682469 C63.2808143,14.8296832 66.3585418,16.5276518 69.2191816,18.5192453 C71.3515574,20.0031414 73.3584584,21.6491574 75.2278242,23.4417539 C84.6843565,32.4914788 90.5770334,45.2460733 90.5770334,59.3743965 C90.5770334,83.6845009 73.1418346,103.915631 50.0973789,108.256224 C53.1034397,108.823296 56.2045923,109.120168 59.3750923,109.120168 C59.7545318,109.120168 60.1339713,109.116921 60.5101637,109.107875 C87.4568625,108.505318 109.117384,86.4716186 109.117384,59.3743965 C109.117384,45.2463052 103.224939,32.4917107 93.7681753,23.4419858 Z" id="Shape" fill="#C2C2C2"></path>
                    <path d="M59.3746284,111.543617 C45.4381123,111.543617 32.3360849,106.117586 22.4815586,96.2646831 C12.6265684,86.4115484 7.1993775,73.3104487 7.1993775,59.3743965 C7.1993775,30.6081972 30.6051821,7.20517578 59.3746284,7.20517578 C88.1392042,7.20517578 111.540834,30.6081972 111.540834,59.3743965 C111.540834,73.3099848 106.114339,86.4113165 96.2609722,96.2644512 C86.4080694,106.117586 73.3081293,111.543617 59.3746284,111.543617 Z M59.3746284,12.0523067 C33.2774938,12.0523067 12.0462765,33.2809727 12.0462765,59.3743965 C12.0462765,85.4680521 33.2774938,106.696718 59.3746284,106.696718 C85.4666605,106.696718 106.693935,85.4680521 106.693935,59.3743965 C106.693935,33.2809727 85.4664286,12.0523067 59.3746284,12.0523067 Z" id="Shape" fill="#E33958"></path>
                    <g id="Group" transform="translate(15.307462, 15.307462)" fill="#323B5B">
                        <path d="M44.0646156,13.3079824 C42.7261404,13.3079824 41.6411661,12.2230081 41.6411661,10.8845329 L41.6411661,2.64772699 C41.6411661,1.30925183 42.7261404,0.224277505 44.0646156,0.224277505 C45.4030907,0.224277505 46.488065,1.30925183 46.488065,2.64772699 L46.488065,10.8845329 C46.488065,12.2230081 45.4026269,13.3079824 44.0646156,13.3079824 Z" id="Shape"></path>
                        <path d="M44.0646156,87.9109838 C42.7261404,87.9109838 41.6411661,86.8260095 41.6411661,85.4875343 L41.6411661,77.2507284 C41.6411661,75.9122533 42.7261404,74.8272789 44.0646156,74.8272789 C45.4030907,74.8272789 46.488065,75.9122533 46.488065,77.2507284 L46.488065,85.4875343 C46.488065,86.8260095 45.4026269,87.9109838 44.0646156,87.9109838 Z" id="Shape"></path>
                        <path d="M85.4842873,46.4910802 L77.2474814,46.4910802 C75.9090062,46.4910802 74.8240319,45.4061058 74.8240319,44.0676307 C74.8240319,42.7291555 75.9090062,41.6441812 77.2474814,41.6441812 L85.4842873,41.6441812 C86.8227625,41.6441812 87.9077368,42.7291555 87.9077368,44.0676307 C87.9077368,45.4061058 86.8227625,46.4910802 85.4842873,46.4910802 Z" id="Shape"></path>
                        <path d="M10.8812859,46.4910802 L2.64447995,46.4910802 C1.30600479,46.4910802 0.221030468,45.4061058 0.221030468,44.0676307 C0.221030468,42.7291555 1.30600479,41.6441812 2.64447995,41.6441812 L10.8812859,41.6441812 C12.219761,41.6441812 13.3047354,42.7291555 13.3047354,44.0676307 C13.3047354,45.4061058 12.219761,46.4910802 10.8812859,46.4910802 Z" id="Shape"></path>
                    </g>
                    <g id="Group" transform="translate(28.063680, 28.063680)" fill="#474F70">
                        <path d="M60.0463013,17.1429654 C59.0360088,17.1429654 58.1036452,16.4882235 57.7645618,15.5356819 C57.4252464,14.5826765 57.7237419,13.488193 58.5088291,12.8466712 C59.3057448,12.1956402 60.4503255,12.1239734 61.3249382,12.6629816 C62.1891139,13.1952638 62.63419,14.2591324 62.4103763,15.2485511 C62.1631376,16.3407152 61.1686165,17.1429654 60.0463013,17.1429654 Z" id="Shape"></path>
                        <path d="M2.57188548,50.3272228 C1.60032553,50.3272228 0.704607096,49.7255932 0.332589393,48.8296428 C-0.0600701902,47.8838272 0.200852451,46.7559456 0.973183467,46.0824173 C1.73855655,45.4149192 2.8571609,45.294315 3.74661719,45.7853134 C4.62494078,46.2702816 5.12475259,47.2905471 4.96425618,48.2820532 C4.77592802,49.4419413 3.75171968,50.3272228 2.57188548,50.3272228 Z" id="Shape"></path>
                        <path d="M47.8998305,4.99672655 C46.8842036,4.99672655 45.9643643,4.34337626 45.6204103,3.38990695 C45.2820226,2.45290475 45.5719367,1.36955395 46.3324392,0.725944769 C47.1279633,0.0526483906 48.2931859,-0.0306149232 49.1789313,0.516510863 C50.0266399,1.04021159 50.4712521,2.0716098 50.2750383,3.04804031 C50.050065,4.16757238 49.0418599,4.99672655 47.8998305,4.99672655 Z" id="Shape"></path>
                        <path d="M14.715805,62.4711423 C13.7161814,62.4711423 12.8028362,61.8365785 12.4498368,60.9023594 C12.0794426,59.922218 12.4008993,58.7736946 13.2314451,58.1326366 C14.0002971,57.5391246 15.0715875,57.463515 15.9155853,57.9436127 C16.8113037,58.4529337 17.2958081,59.5103082 17.0931002,60.5224561 C16.8688227,61.642452 15.8573705,62.4711423 14.715805,62.4711423 Z" id="Shape"></path>
                        <path d="M14.715805,4.99672655 C13.717573,4.99672655 12.8014446,4.36100303 12.4498368,3.42724788 C12.0915031,2.47517015 12.3802575,1.35911704 13.1674321,0.709941514 C13.9174977,0.0911489758 15.0001527,-0.02064188 15.8576025,0.438118105 C16.7637578,0.922622458 17.2742385,1.95471646 17.1074799,2.96941562 C16.9172963,4.12489704 15.8849704,4.99672655 14.715805,4.99672655 Z" id="Shape"></path>
                        <path d="M47.8998305,62.4711423 C46.9145866,62.4711423 46.0109825,61.854901 45.648242,60.9401642 C45.267411,59.9802009 45.5536141,58.8425781 46.3516895,58.1838934 C47.102219,57.5641732 48.1827866,57.4544697 49.041628,57.91207 C49.9637866,58.4033004 50.47821,59.4757504 50.279445,60.5029739 C50.0611977,61.6315513 49.0511371,62.4711423 47.8998305,62.4711423 Z" id="Shape"></path>
                        <path d="M2.57188548,17.1429654 C1.56043336,17.1429654 0.6341,16.4912386 0.292465289,15.5398567 C-0.050097147,14.5859235 0.24955801,13.4895846 1.03394945,12.8466712 C1.79839481,12.2204568 2.88939934,12.1293079 3.75148775,12.6059265 C4.63329031,13.093446 5.12892736,14.1209014 4.96124107,15.1151906 C4.7668827,16.2690485 3.74406595,17.1429654 2.57188548,17.1429654 Z" id="Shape"></path>
                        <path d="M60.0463013,50.3272228 C59.0615212,50.3272228 58.154902,49.7068067 57.7923935,48.7929977 C57.4134179,47.8369771 57.6966059,46.7213879 58.4784461,46.056673 C59.2716509,45.3824488 60.4401205,45.2952427 61.3247062,45.8451517 C62.1963038,46.386943 62.6372051,47.4552183 62.4038823,48.4539142 C62.1513092,49.5368011 61.1591073,50.3272228 60.0463013,50.3272228 Z" id="Shape"></path>
                        <path d="M42.1020134,33.7348622 L31.3079337,33.7348622 C29.9694585,33.7348622 28.8844842,32.6498878 28.8844842,31.3114127 L28.8844842,14.0088786 C28.8844842,12.6704034 29.9694585,11.5854291 31.3079337,11.5854291 C32.6464089,11.5854291 33.7313832,12.6704034 33.7313832,14.0088786 L33.7313832,28.8879632 L42.1020134,28.8879632 C43.4404886,28.8879632 44.5254629,29.9729375 44.5254629,31.3114127 C44.5254629,32.6498878 43.4404886,33.7348622 42.1020134,33.7348622 Z" id="Shape"></path>
                    </g>
                    <path d="M64.7667977,59.3743965 C64.7667977,62.3141249 62.4171024,64.7044082 59.4936091,64.7698128 C59.4527892,64.7707405 59.4117374,64.7709725 59.3704536,64.7709725 C58.6857926,64.7709725 58.0305869,64.6434103 57.4277976,64.4105513 C57.1204887,64.2918025 56.8263999,64.1459178 56.5492421,63.9754483 C55.0038842,63.0263857 53.9731818,61.3212273 53.9731818,59.3743965 C53.9731818,56.3938481 56.3899053,53.9775885 59.3706856,53.9775885 C60.1089227,53.9775885 60.8121382,54.1255607 61.4527323,54.394137 C61.8057316,54.5416453 62.1397126,54.7262626 62.4500366,54.9421905 C62.681504,55.1031508 62.8990555,55.2817379 63.1019953,55.4763282 C64.1278271,56.4580931 64.7667977,57.8417949 64.7667977,59.3743965 Z" id="Shape" fill="#FF4F6F"></path>
                </g>
                <g id="main" transform="translate(1.200980, 60.359920)">
                    <path d="M75.7697906,41.1226812 C75.6949372,41.481299 75.872172,41.8280383 76.1834643,41.9896237 C76.8216984,42.322599 77.402991,42.7500367 77.9092417,43.2544018 C79.2213453,44.568391 80.0172053,46.3948528 79.9679944,48.4102395 C79.8833364,51.8519898 77.2787381,54.6398565 73.9729307,55.1736351 C73.492134,55.2505626 73.1710372,55.7430493 73.3307372,56.2453404 C73.3859817,56.4148448 73.5060866,56.5547472 73.6499485,56.6610882 C73.9237198,56.8660395 74.1839157,57.0885259 74.4261995,57.3309982 C75.7422626,58.6470614 76.5381226,60.4812537 76.4849521,62.5005999 C76.3942607,65.8084813 73.9808497,68.507542 70.8543513,69.181223 C70.1156213,69.3407344 69.5954181,70.00084 69.5954181,70.753334 L69.5954181,70.8065045 C69.6072966,71.1807717 69.7549295,71.53543 69.9992873,71.8210798 C70.7597003,72.7155502 71.3015865,73.804979 71.5399108,75.0028227 L71.5399108,75.0047082 C71.5713983,75.1642196 71.5989263,75.325805 71.6187238,75.4892759 C71.6226833,75.5168039 71.6266428,75.5464058 71.6285283,75.5739338 C71.6404068,75.6665107 71.6481372,75.7611617 71.6560562,75.8556241 C71.6579417,75.8733476 71.6579417,75.8891856 71.6600157,75.9069091 C71.6658607,76.0034455 71.6698202,76.099982 71.6737797,76.1984039 C71.6756652,76.2594934 71.6756652,76.3205828 71.6756652,76.3816723 C71.6756652,76.5728597 71.6677462,76.7638585 71.6539822,76.9510864 C71.6304138,77.2406957 71.5889333,77.5263456 71.5299178,77.8061504 C70.8541627,81.0312593 67.9305417,83.4190277 64.5221643,83.4190277 L57.4768899,83.4190277 C56.3144931,83.4190277 55.3589332,83.4092233 54.5334713,83.3894258 C54.4488133,83.3875403 54.3639669,83.3854663 54.2793089,83.3835808 C50.9024191,83.2928893 49.7085349,83.0289225 44.8128931,82.5935658 C38.6404061,82.0418751 32.4937501,81.2164132 26.3881975,80.1190654 C26.386312,80.1190654 26.386312,80.1190654 26.384238,80.1190654 L15.5764936,80.1190654 C15.5706486,80.1190654 15.5666891,80.1171799 15.5627296,80.1151059 C13.2950661,78.0248658 11.2283944,75.7196812 9.3962761,73.2334908 C8.68695954,72.2739715 8.01327851,71.2869241 7.37692992,70.2744228 C2.70358589,62.8414942 0.000565643189,54.0447999 0.000565643189,44.6177905 C0.000565643189,42.3638909 0.15611752,40.1435529 0.455719862,37.9726143 C0.45760534,37.9628098 0.463638867,37.9567763 0.473443349,37.9567763 L21.6051187,37.9567763 C27.5588903,37.9567763 32.6832405,33.7564985 33.8514823,27.9188723 L39.3776277,5.4811268 C40.1734876,2.25205838 42.8608584,0.388264074 45.6702196,0.167663231 C48.1486795,-0.0272951218 50.7216018,1.05610013 52.1717224,3.60545398 C54.0040293,6.82471792 54.7506783,10.6761824 54.0434357,14.5870394 L51.9432026,23.8053264 C51.5570568,25.4996163 52.845592,27.1150933 54.5832479,27.1150933 L73.4295362,27.1150933 C75.3721434,27.1150933 77.1354418,27.9032228 78.406065,29.1778055 C79.7062901,30.4721856 80.4983791,32.2767759 80.4687771,34.2606751 C80.4629321,34.6251379 80.4293706,34.9816817 80.3703552,35.330495 C79.966486,37.6611334 78.380611,39.5839432 76.2724589,40.5395031 C76.026027,40.6518775 75.8231496,40.8587144 75.7697906,41.1226812 Z" id="Shape" fill="#F9D6B9"></path>
                    <g id="Group" transform="translate(9.238839, 0.120715)" fill="#E5BFA3">
                        <path d="M67.0334316,40.4189768 C69.1413952,39.4634169 70.7274587,37.5406071 71.1313279,35.2099687 C71.1903434,34.8613439 71.2239048,34.5046116 71.2297498,34.1401488 C71.2593518,32.1562496 70.4672628,30.3516593 69.1670377,29.0572792 C67.896226,27.7826965 66.1331161,26.994567 64.1905089,26.994567 L62.3517914,26.994567 C64.2943987,26.994567 66.0576971,27.7826965 67.3283202,29.0572792 C68.6285453,30.3516593 69.4206344,32.1562496 69.3910324,34.1401488 C69.3851874,34.5046116 69.3516259,34.8611554 69.2926105,35.2099687 C68.8887412,37.5406071 67.3028663,39.4634169 65.1947141,40.4189768 C64.9484708,40.5313512 64.7455934,40.7381881 64.6924229,41.0021549 C64.6175695,41.3607727 64.7948044,41.707512 65.1060967,41.8690974 C65.7443307,42.2020727 66.3256234,42.6295104 66.831874,43.1338755 C68.1439777,44.4478647 68.9398376,46.2743265 68.8906267,48.2897132 C68.8059688,51.7314635 66.2013704,54.5193302 62.8955631,55.0531088 C62.4147664,55.1300363 62.0936696,55.622523 62.2533695,56.1248141 C62.308614,56.2943185 62.4287189,56.4342209 62.5725808,56.5405619 C62.8463521,56.7455132 63.106548,56.9679996 63.3488318,57.2104719 C64.664895,58.5265351 65.4607549,60.3607274 65.4075845,62.3800736 C65.316893,65.687955 62.9034821,68.3870157 59.7769836,69.0606967 C59.0382536,69.2202081 58.5180504,69.8803137 58.5180504,70.6328077 L58.5180504,70.6859782 C58.529929,71.0602454 58.6775618,71.4149037 58.9219197,71.7005535 C59.6823327,72.5950239 60.2242189,73.6844527 60.4625432,74.8822964 L60.4625432,74.8841819 C60.4940307,75.0436933 60.5215586,75.2052787 60.5413561,75.3687496 C60.5453156,75.3962776 60.5492751,75.4258795 60.5511606,75.4534075 C60.5630391,75.5459845 60.5707696,75.6406354 60.5786886,75.7350978 C60.5805741,75.7528213 60.5805741,75.7686593 60.5826481,75.7863828 C60.5884931,75.8829192 60.5924526,75.9794557 60.5964121,76.0778776 C60.5982975,76.1389671 60.5982975,76.2000565 60.5982975,76.261146 C60.5982975,76.4523334 60.5903785,76.6433322 60.5766146,76.8305601 C60.5530461,77.1201694 60.5115656,77.4058193 60.4525502,77.6856241 C59.7767951,80.910733 56.853174,83.2985014 53.4447967,83.2985014 L55.2835141,83.2985014 C58.6918915,83.2985014 61.6155125,80.910733 62.2912676,77.6856241 C62.350283,77.4058193 62.3917635,77.1201694 62.415332,76.8305601 C62.429096,76.6433322 62.437015,76.4523334 62.437015,76.261146 C62.437015,76.2000565 62.437015,76.1389671 62.4351295,76.0778776 C62.43117,75.9794557 62.4272105,75.8829192 62.4213655,75.7863828 C62.4194801,75.7686593 62.4194801,75.7528213 62.417406,75.7350978 C62.409487,75.6404469 62.401568,75.5459845 62.3898781,75.4534075 C62.3879926,75.4258795 62.3840331,75.3962776 62.3800736,75.3687496 C62.3604646,75.2052787 62.3327481,75.0436933 62.3012606,74.8841819 L62.3012606,74.8822964 C62.0629363,73.6844527 61.5210501,72.5950239 60.7606371,71.7005535 C60.5162793,71.4149037 60.3686464,71.0602454 60.3567679,70.6859782 L60.3567679,70.6328077 C60.3567679,69.8801252 60.8769711,69.2202081 61.6157011,69.0606967 C64.7423881,68.3868272 67.155799,65.6877664 67.2463019,62.3800736 C67.2994724,60.3607274 66.5036124,58.5265351 65.1875493,57.2104719 C64.9452655,56.9681881 64.6852581,56.7455132 64.4112983,56.5405619 C64.2674364,56.4342209 64.1473315,56.2943185 64.092087,56.1248141 C63.9325756,55.622523 64.2536724,55.1298477 64.7342805,55.0531088 C68.0400879,54.5191416 70.6446862,51.7314635 70.7293442,48.2897132 C70.7785551,46.2743265 69.9826951,44.4478647 68.6705915,43.1338755 C68.1643408,42.6295104 67.5830482,42.2020727 66.9448141,41.8690974 C66.6335218,41.707512 66.456287,41.3607727 66.5311404,41.0021549 C66.5843109,40.7379995 66.7871882,40.5311627 67.0334316,40.4189768 Z" id="Shape"></path>
                        <path d="M62.4155206,76.8309372 C62.3919521,77.1205465 62.3504716,77.4061964 62.2914562,77.6860012 C61.6157011,80.9111101 58.69208,83.2988785 55.2837027,83.2988785 L48.8728913,83.2988785 C47.6808926,83.2988785 46.4870084,83.2890741 45.2951982,83.2692765 C45.2105402,83.2673911 45.1256938,83.265317 45.0410358,83.2634316 C40.0349051,83.1748141 35.0348078,82.9108473 30.05036,82.4734166 C23.7951006,81.9217259 17.5635981,81.096264 11.3754616,79.9989162 L6.33765483,79.9989162 C6.33180985,79.9989162 6.32785035,79.9970307 6.32389085,79.9949567 C4.05622731,77.9047165 1.98955564,75.599532 0.157437354,73.1133416 L11.3752731,77.24084 C17.5634096,78.3381878 23.794912,79.1636497 30.0501715,79.7153404 C36.3073164,80.264957 42.5880299,80.5408024 48.8728913,80.5408024 L56.1306591,80.5408024 C58.8495174,80.5406138 61.2137173,79.0393968 62.4155206,76.8309372 Z" id="Shape"></path>
                        <path d="M36.4313809,0.0469483847 C36.4313809,0.0469483847 33.3816213,1.86341721 32.4635824,6.32973583 C31.5434695,10.7960544 27.6031991,26.9510125 26.6832747,30.4974067 C25.7652358,34.0436124 23.6610431,37.8360614 12.3662799,37.8360614 C18.3200516,37.8360614 23.4444018,33.6357837 24.6126435,27.7981574 L30.1387889,5.36041195 C30.9346489,2.13134354 33.6220197,0.267549228 36.4313809,0.0469483847 Z" id="Shape"></path>
                    </g>
                    <path d="M13.9195361,35.7324787 L13.9195361,78.523763 C13.5413094,78.1434623 13.1708131,77.755431 12.8084244,77.3613663 C4.85887499,68.7598189 0.000565643189,57.2542593 0.000565643189,44.6177905 C0.000565643189,42.3580459 0.15611752,40.1337484 0.45760534,37.9567763 C0.559986757,37.2101273 0.680280208,36.4674378 0.818108599,35.7324787 L13.9195361,35.7324787 Z" id="Shape" fill="#5C5E70"></path>
                    <path d="M23.6717904,33.9593759 L23.6717904,82.1270987 L17.8894086,82.1270987 C17.0954341,81.4828311 16.3212571,80.8131096 15.5685746,80.1194425 C15.005194,79.5992393 14.4553888,79.0694202 13.9195361,78.5235745 C13.5413094,78.1432737 13.1708131,77.7552425 12.8084244,77.3611777 C12.0676203,76.5613583 11.3545328,75.7338223 10.6687847,74.8847919 L10.6687847,33.9593759 L23.6717904,33.9593759 Z" id="Shape" fill="#F9F9F9"></path>
                </g>
            </g>
        </g>
    </g>
</svg>
