<?xml version="1.0" encoding="UTF-8"?>
<svg width="86px" height="82px" viewBox="0 0 86 82" version="1.1" xmlns="http://www.w3.org/2000/svg" xmlns:xlink="http://www.w3.org/1999/xlink">
    <!-- Generator: Sketch 47.1 (45422) - http://www.bohemiancoding.com/sketch -->
    <title>icon-tuto</title>
    <desc>Created with Sketch.</desc>
    <defs></defs>
    <g id="RÉSULTATS" stroke="none" stroke-width="1" fill="none" fill-rule="evenodd">
        <g id="Tutoriel" transform="translate(-677.000000, -603.000000)">
            <g id="icon-tuto" transform="translate(677.000000, 603.000000)">
                <path d="M14.1209213,54.4575534 C14.1209213,54.6275243 14.2594769,54.7660485 14.429287,54.7660485 L71.4566435,54.7660485 C71.6268519,54.7660485 71.7650093,54.6275243 71.7650093,54.4575534 L71.7650093,14.8543398 L14.1209213,14.8543398 L14.1209213,54.4575534 Z M63.9981343,19.3577718 C64.4438611,18.9139369 65.0591991,18.6591796 65.6880741,18.6591796 C66.3171481,18.6591796 66.932287,18.9139369 67.3762222,19.3577718 C67.8221481,19.8035971 68.076963,20.4185971 68.076963,21.0475291 C68.076963,21.6764612 67.8223472,22.2914612 67.3762222,22.7352961 C66.932287,23.1811214 66.3171481,23.4358786 65.6880741,23.4358786 C65.059,23.4358786 64.4438611,23.1811214 63.9981343,22.7352961 C63.5543981,22.2914612 63.2991852,21.6764612 63.2991852,21.0475291 C63.2993843,20.4185971 63.5543981,19.8035971 63.9981343,19.3577718 Z M18.6170093,47.3370874 L34.9042546,32.9624078 C35.8150185,32.1587282 37.1836528,32.1660922 38.0854583,32.9795243 L44.2852222,38.5716456 L58.6591667,24.6312476 C59.606162,23.7127282 61.1185278,23.7358155 62.0372546,24.6823981 C62.9555833,25.6293786 62.9326898,27.1414029 61.9858935,28.0597233 L46.0078102,43.555733 C45.1050093,44.4312621 43.6780463,44.4571359 42.7441898,43.6146456 L36.4679815,37.9536602 L21.7793009,50.9180194 C21.325213,51.3188641 20.761037,51.5159029 20.19925,51.5159029 C19.5377269,51.5159029 18.879588,51.243034 18.4075833,50.7082427 C17.5340463,49.719466 17.6282083,48.2100291 18.6170093,47.3370874 Z" id="Shape"></path>
                <path d="M80.7999861,4.85969417 L5.08614352,4.85969417 C4.91613426,4.85969417 4.77777778,4.99801942 4.77777778,5.16799029 L4.77777778,9.7689466 C4.77777778,9.9391165 4.91613426,10.0776408 5.08614352,10.0776408 L80.7999861,10.0776408 C80.9699954,10.0776408 81.1083519,9.9391165 81.1083519,9.7689466 L81.1083519,5.16799029 C81.1083519,4.99801942 80.9699954,4.85969417 80.7999861,4.85969417 Z" id="Shape" fill="#73D0F4" fill-rule="nonzero"></path>
                <path d="M80.7999861,0.0829951456 L5.08614352,0.0829951456 C2.28178704,0.0829951456 0,2.36406796 0,5.16799029 L0,9.7689466 C0,12.5728689 2.28178704,14.8543398 5.08614352,14.8543398 L9.34314352,14.8543398 L9.34314352,54.4575534 C9.34314352,57.2616748 11.6249306,59.5427476 14.429287,59.5427476 L40.5541759,59.5427476 L40.5541759,70.8501893 L17.1794954,77.107068 C15.9050231,77.4484029 15.1483426,78.7578155 15.4895556,80.031801 C15.7754259,81.0991942 16.7407361,81.8031602 17.7956296,81.8031602 C18.0002778,81.8031602 18.2083102,81.7766893 18.4151481,81.7213592 L42.8487037,75.1808641 C42.8801574,75.1820583 42.911213,75.1856408 42.9432639,75.1856408 C42.9751157,75.1856408 43.0061713,75.1822573 43.0380231,75.1808641 L67.4713796,81.7213592 C67.6782176,81.7766893 67.8860509,81.8031602 68.0905,81.8031602 C69.1455926,81.8031602 70.1107037,81.0991942 70.3967731,80.031801 C70.737787,78.7578155 69.9813056,77.4484029 68.7070324,77.107068 L45.3321528,70.8499903 L45.3321528,59.5427476 L71.4566435,59.5427476 C74.2611991,59.5427476 76.542787,57.2616748 76.542787,54.4575534 L76.542787,14.8543398 L80.7999861,14.8543398 C83.6045417,14.8543398 85.8861296,12.573068 85.8861296,9.7689466 L85.8861296,5.16799029 C85.8861296,2.36406796 83.6045417,0.0829951456 80.7999861,0.0829951456 Z M81.1083519,9.7689466 C81.1083519,9.9391165 80.9701944,10.0776408 80.7999861,10.0776408 L5.08614352,10.0776408 C4.91613426,10.0776408 4.77777778,9.9391165 4.77777778,9.7689466 L4.77777778,5.16799029 C4.77777778,4.99801942 4.91613426,4.85969417 5.08614352,4.85969417 L80.7999861,4.85969417 C80.9699954,4.85969417 81.1083519,4.99801942 81.1083519,5.16799029 L81.1083519,9.7689466 Z M71.7650093,54.4575534 C71.7650093,54.6275243 71.6268519,54.7660485 71.4566435,54.7660485 L14.429287,54.7660485 C14.2592778,54.7660485 14.1209213,54.6275243 14.1209213,54.4575534 L14.1209213,14.8543398 L71.7650093,14.8543398 L71.7650093,54.4575534 L71.7650093,54.4575534 Z" id="Shape" fill="#3D6889" fill-rule="nonzero"></path>
                <path d="M20.1990509,51.5159029 C20.760838,51.5159029 21.3250139,51.3188641 21.7791019,50.9180194 L36.4677824,37.9536602 L42.7439907,43.6146456 C43.6778472,44.4569369 45.1048102,44.4312621 46.0076111,43.555733 L61.9856944,28.0597233 C62.9324907,27.1414029 62.9553843,25.6293786 62.0370556,24.6823981 C61.1183287,23.7358155 59.605963,23.7127282 58.6589676,24.6312476 L44.2850231,38.5716456 L38.0852593,32.9795243 C37.1834537,32.1660922 35.8148194,32.1587282 34.9040556,32.9624078 L18.6170093,47.3370874 C17.6282083,48.2100291 17.5340463,49.719466 18.4073843,50.7082427 C18.8793889,51.243034 19.5375278,51.5159029 20.1990509,51.5159029 Z" id="Shape" fill="#3D6889" fill-rule="nonzero"></path>
                <path d="M65.6882731,23.4358786 C66.3173472,23.4358786 66.9324861,23.1811214 67.3764213,22.7352961 C67.8223472,22.2914612 68.077162,21.6764612 68.077162,21.0475291 C68.077162,20.4185971 67.8225463,19.8035971 67.3764213,19.3577718 C66.9324861,18.9139369 66.3173472,18.6591796 65.6882731,18.6591796 C65.0591991,18.6591796 64.4440602,18.9139369 63.9983333,19.3577718 C63.5545972,19.8035971 63.2993843,20.4185971 63.2993843,21.0475291 C63.2993843,21.6764612 63.5543981,22.2914612 63.9983333,22.7352961 C64.4440602,23.1811214 65.0591991,23.4358786 65.6882731,23.4358786 Z" id="Shape" fill="#3D6889" fill-rule="nonzero"></path>
            </g>
        </g>
    </g>
</svg>